<svg xmlns="http://www.w3.org/2000/svg" xmlns:xlink="http://www.w3.org/1999/xlink" xml:space="preserve" fill-rule="evenodd" stroke-miterlimit="10" clip-rule="evenodd" viewBox="0 0 952 1080"><defs><path id="a" d="M855.297 308.198c-.8 3.5-4.4 26.4 34.1 27.5 2.8.1 5.4-1.8 6.1-4.5l50.7-177.799c.9-3.1-.7-6.3-3.7-7.4l-19.4-7.6c-3.2-1.3-6.9.4-8.1 3.7l-59.5 165.5c-.1.1-.1.3-.2.6Z"/><path id="b" d="M96.7 309.198c.8 3.5 4.4 26.4-34.1 27.5-2.8.1-5.4-1.8-6.1-4.5L5.8 154.4c-.9-3.1.7-6.3 3.7-7.4l19.4-7.6c3.2-1.3 6.9.4 8.1 3.7l59.5 165.5c.1.1.1.4.2.6Z"/></defs><path fill="#fff" fill-rule="nonzero" stroke="#fff" stroke-width="46.321" d="M607.823 165.445c-56.992 0-108.03 25.518-142.338 65.781-20.982-25.14-52.455-41.113-87.709-41.113-63.135 0-114.267 51.132-114.267 114.267 0 1.04.094 2.08.094 3.12-6.049-1.04-12.287-1.513-18.62-1.513-62.284 0-112.754 50.47-112.754 112.755 0 0 225.416 3.119 225.321 3.119h76.745c27.598 68.806 94.798 117.386 173.434 117.386 103.209 0 186.854-83.644 186.854-186.854 0-103.209-83.55-186.948-186.76-186.948Z"/><path fill="#fff" fill-rule="nonzero" stroke="#fff" stroke-width="33.968" d="M837.209 491.14c86.574 197.534 3.97 430.511-191.202 528.239-201.41 100.751-446.484 19.186-547.236-182.318-56.236-112.283-55.764-238.175-9.357-345.07"/><path fill="#fff" fill-rule="nonzero" d="M886.45 438.212c0-31.379-33.174-57.086-73.72-57.086H114.27c-40.547 0-73.721 25.707-73.721 57.086 0 31.379 33.174 57.086 73.721 57.086h698.553c40.452.095 73.626-25.613 73.626-57.086Z"/><path fill="none" stroke="#fff" stroke-width="33.968" d="M886.45 438.212c0-31.379-33.174-57.086-73.72-57.086H114.27c-40.547 0-73.721 25.707-73.721 57.086 0 31.379 33.174 57.086 73.721 57.086h698.553c40.452.095 73.626-25.613 73.626-57.086Z"/><path fill="#e6ad22" fill-rule="nonzero" stroke="#e6ad22" stroke-width="12.353" d="M607.823 165.445c-56.992 0-108.03 25.518-142.338 65.781-20.982-25.14-52.455-41.113-87.709-41.113-63.135 0-114.267 51.132-114.267 114.267 0 1.04.094 2.08.094 3.12-6.049-1.04-12.287-1.513-18.62-1.513-62.284 0-112.754 50.47-112.754 112.755 0 0 225.416 3.119 225.321 3.119h76.745c27.598 68.806 94.798 117.386 173.434 117.386 103.209 0 186.854-83.644 186.854-186.854 0-103.209-83.55-186.948-186.76-186.948Z"/><path fill="#f0c618" fill-rule="nonzero" d="M607.823 165.445c-56.992 0-108.03 25.518-142.338 65.781-20.982-25.14-52.455-41.113-87.709-41.113-63.135 0-114.267 51.132-114.267 114.267 0 1.04.094 2.08.094 3.12-6.049-1.04-12.287-1.513-18.62-1.513-62.284 0-112.754 50.47-112.754 112.755 0 0 225.416 3.119 225.321 3.119h76.745c27.598 68.806 94.798 117.386 173.434 117.386 103.209 0 186.854-83.644 186.854-186.854 0-103.209-83.55-186.948-186.76-186.948Z"/><path fill="#e6ad22" fill-rule="nonzero" d="M485.522 241.906c5.01-5.954 10.397-11.72 16.256-16.918.756-.661 1.418-1.323 2.174-1.984l2.269-1.89c1.512-1.23 3.024-2.553 4.63-3.687l4.726-3.497c1.607-1.134 3.308-2.174 4.915-3.308.85-.567 1.607-1.134 2.458-1.606l2.551-1.513c1.702-.945 3.403-1.985 5.199-2.93 3.497-1.795 6.994-3.686 10.68-5.292 7.183-3.403 14.744-5.955 22.494-8.129l5.765-1.512c1.985-.472 3.875-.85 5.86-1.229l2.93-.567c.945-.189 1.985-.283 2.93-.472l5.955-.85 5.954-.568 3.024-.283 9.074-.284 6.049.095c1.984 0 3.97.094 6.049.283 1.984.19 3.97.19 5.954.473l5.954.661 5.955.945c1.984.284 3.97.756 5.954 1.135 1.985.378 3.97.756 5.86 1.323 1.985.472 3.875.945 5.86 1.512l5.765 1.796c7.656 2.552 15.122 5.576 22.305 9.168 7.183 3.686 14.083 7.75 20.699 12.38 6.616 4.632 12.76 9.736 18.62 15.218 1.417 1.417 2.93 2.74 4.252 4.158l4.159 4.348 3.97 4.537c1.323 1.512 2.551 3.119 3.78 4.63 4.915 6.239 9.452 12.95 13.232 19.849 3.875 6.9 7.372 14.082 10.113 21.549.378.945.662 1.89 1.04 2.835l1.89 5.671.85 2.836c.568 1.89 1.135 3.78 1.607 5.67l1.324 5.766c.378 1.89.756 3.875 1.04 5.765.377 1.89.66 3.875.85 5.86.567 3.875.756 7.75 1.04 11.72-.851-3.78-1.607-7.656-2.647-11.342-.85-3.78-2.08-7.467-3.213-11.153-2.458-7.277-5.293-14.46-8.696-21.36l-2.552-5.103-2.74-5.01c-.851-1.701-1.89-3.308-2.93-4.914l-1.513-2.458c-.472-.85-1.04-1.607-1.606-2.363-1.04-1.606-2.08-3.213-3.214-4.725l-3.402-4.632c-2.363-3.024-4.631-5.954-7.183-8.79-19.848-22.872-45.745-40.262-74.477-49.62-7.089-2.457-14.461-4.158-21.833-5.576-7.372-1.512-14.933-2.173-22.4-2.551l-5.67-.19-5.672.095h-2.835l-8.506.567-5.671.662-2.836.283-2.835.473c-1.89.283-3.78.567-5.576.945l-5.577 1.229c-29.583 5.954-57.464 20.793-80.431 41.87Zm-184.397 16.068c4.348-9.64 10.775-18.62 18.714-25.992 7.845-7.56 17.39-13.42 27.598-17.485 5.198-1.89 10.491-3.686 15.973-4.536l2.08-.378c.66-.095 1.417-.19 2.078-.284l4.16-.473c1.417-.094 2.74-.189 4.158-.283 1.417-.095 2.74-.19 4.158-.095 11.153-.094 22.306 2.08 32.797 6.05 20.982 7.938 38.467 24.1 48.39 43.948 4.916 9.924 7.846 20.699 8.79 31.568.851 10.87-.283 21.738-3.685 31.851 1.04-10.585.661-21.076-1.607-31.095-2.174-10.018-5.86-19.564-10.964-28.26-10.302-17.296-26.275-30.811-44.8-37.9-4.63-1.795-9.356-3.213-14.271-4.158-1.229-.19-2.457-.473-3.686-.662l-3.686-.472-3.686-.379c-1.229-.094-2.457-.094-3.686-.189-9.924-.378-19.943 1.04-29.583 3.97-19.375 5.576-36.671 18.147-49.242 35.254Zm-87.615 70.318c3.687-2.457 7.75-4.158 11.91-5.576 4.253-1.323 8.6-2.174 13.137-2.458 8.884-.567 18.147.568 26.653 3.687 4.253 1.512 8.317 3.591 12.192 5.86l2.836 1.89c.472.283.945.661 1.417.945l3.97 3.119 2.457 2.268c.378.378.85.756 1.229 1.134l1.134 1.229c.756.85 1.512 1.607 2.268 2.457.662.851 1.324 1.796 1.985 2.647l.945 1.323.945 1.418 1.702 2.835c.472.945 1.04 1.985 1.512 2.93l.756 1.512.567 1.512 1.134 3.12c-.85-.757-1.606-1.418-2.457-2.174l-1.134-1.135-1.229-1.04c-.85-.66-1.607-1.417-2.363-2.079l-2.457-1.984-1.134-1.04-3.686-2.835c-1.702-1.135-3.308-2.363-5.01-3.403-3.308-2.268-6.805-4.159-10.302-5.954-.945-.378-1.795-.85-2.646-1.229l-1.323-.662-1.323-.567-2.741-1.134-2.741-1.04c-7.372-2.74-15.122-4.442-23.062-5.387-8.222-.756-16.35-.661-25.14-.189Z" opacity=".45"/><g fill="#f8f9e7" fill-rule="nonzero"><path d="m528.337 261.47-10.964 6.05-6.049 10.963-5.954-10.963-11.058-6.05 11.058-5.954 5.954-10.963 6.05 10.963 10.963 5.955Z"/><path fill-opacity=".8" d="m356.983 323.377-10.964 6.05-5.954 10.963-6.049-10.964-10.964-6.049 10.964-6.048 6.049-10.964 5.954 10.964 10.964 6.048Z"/><path fill-opacity=".95" d="m735.322 341.902-11.058 6.05-5.954 10.963-6.049-10.964-10.964-6.049 10.964-5.954 6.049-11.058 5.954 11.058 11.058 5.954Z"/></g><g fill="#221f1f" opacity=".15"><g fill-rule="nonzero"><use xlink:href="#a"/><use xlink:href="#a" fill-opacity=".6"/><path d="M869.697 322.498c-22.7-31.1-79.1-53.2-168.8-55-89.8-1.8-116.6-57-116.6-57l55.3-191.298s26.8 55.2 116.6 57c77.3 1.6 129.8 18.2 157.4 42.6 7.3 6.5 10.2 16.6 7.5 26l-51.4 177.698Z"/><path fill-opacity=".6" d="M816.997 272.499c-29.6-13.5-61.8-18.9-93.1-26.8-26.4-6.6-58.3-15-73.1-40-7-11.8-10.5-26.1-13.1-39.4-3.1-15.5-4.1-31.3-3.8-47 .5-32.2-2.9-66 5.8-97.4.1-.5.3-1 .5-1.4-.5-.8-.7-1.3-.7-1.3l-55.3 191.3s26.8 55.2 116.6 57c89.8 1.8 146.1 23.9 168.8 55l1.7-5.8c-12.8-19.7-32.6-34.3-54.3-44.2Z"/></g><path fill-rule="nonzero" d="M631.797 10.7c-.9 3.2-1.9 6.5-2.8 9.7-2.5 8.7-5 17.4-7.6 26.2-3.8 13-7.5 26-11.3 38.9-4.5 15.7-9.1 31.5-13.6 47.2l-15 51.899c-5 17.4-10.1 34.9-15.1 52.3-4.7 16.3-9.4 32.5-14.1 48.8-4 13.7-7.9 27.5-11.9 41.2-2.9 9.9-5.7 19.8-8.6 29.6-1.3 4.7-2.8 9.3-4.1 14-.1.2-.1.4-.2.6-.8 2.7 1.9 5.7 4.6 6.2 3.2.7 5.5-1.2 6.3-3.9.9-3.2 1.9-6.5 2.8-9.7 2.5-8.7 5-17.4 7.6-26.2 3.8-13 7.5-26 11.3-38.9 4.5-15.7 9.1-31.5 13.6-47.2l15-51.9c5-17.4 10.1-34.9 15.1-52.3 4.7-16.3 9.4-32.5 14.1-48.8 4-13.7 7.9-27.5 11.9-41.2 2.9-9.9 5.7-19.8 8.6-29.6 1.3-4.7 2.8-9.3 4.1-14 .1-.2.1-.4.2-.6.8-2.7-1.9-5.7-4.6-6.2-3.2-.7-5.5 1.2-6.3 3.9Z"/><circle cx="754.1" cy="172.1" r="65.6"/><circle cx="754.1" cy="172.1" r="57.1"/><circle cx="755.2" cy="167.4" r="48.4"/><path d="m712.61 223.019 21.67-89.309 117.393 28.485-21.67 89.308z"/><g fill-rule="nonzero"><path d="M736.6 151.3c6.5 1.6 13.1 3.2 19.7 4.8l-.3 1.2c-.4 1.8-1 3.5-1.3 5.3-.5 3.3-.4 6.6.2 10 .6 3 1.6 5.8 3.1 8.4 1.9 3.2 4.4 5.9 7.7 7.8.3.2.4.3.3.6-.5 1.6-.6 3.3-1.4 4.8-1.3 2.6-3.3 4-5.9 4.5-1.3.2-2.5.2-3.7-.1-3.9-1-8-1.9-11.9-2.9-1.9-.5-3.6-1.2-4.8-2.7-1.9-2.2-2.3-4.9-1.6-7.8 1.9-7.8 3.8-15.7 5.7-23.5.1-.2.1-.4.2-.6.3-1.1-.3-1.9-1.3-2.5-2.5-1.5-4-3.8-4.7-6.6v-.4c-.1-.1 0-.2 0-.3Zm7.3 20.3c-.4 1.5.4 2.8 1.9 3.2 1.4.3 2.9-.5 3.2-2 .4-1.5-.5-2.9-1.9-3.3-1.4-.2-3 .6-3.2 2.1Z"/><path d="M765.7 176.9c-.3 1.2-1.7 2.1-3 1.8-1.3-.3-2.1-1.7-1.8-3.1.3-1.2 1.7-2.1 3-1.8 1.3.5 2.3 2 1.8 3.1Zm-21.8-5.3c.3-1.6 1.9-2.3 3.1-2 1.5.4 2.3 1.9 1.9 3.3-.4 1.5-1.9 2.3-3.2 2-1.4-.4-2.2-1.8-1.8-3.3Z"/><path d="m833.6 221.9.3.1h.4c.1-.1.1-.1.3-.2 1.3-.4 1.5-1.6 1.8-2.8 1.3-5.2 2.5-10.5 3.8-15.7.4-1.7.6-3.4.5-5.2-.5-6.2-4.8-11.6-11-13.1-6.6-1.7-13.3-3.3-19.9-4.9-11.4-2.8-22.9-5.5-34.2-8.4-.1 0-.3-.1-.4-.1-.2-.1-.3-.2-.5-.2-.1-.6.2-.8.8-.9.2-.1.3 0 .6-.1 3.5-.8 6.3-2.9 8.4-5.8.8-1 1.5-2.2 1.9-3.4.4-1.5-.2-2.5-1.6-2.8l-8.4-2.1c-.3-.1-.5-.1-.8-.2.1-.3.1-.5.2-.8.3-1.4.7-2.7 1-3.9.2-.6.2-1.3.2-1.8-.1-2.8-2.3-5.2-5.4-5.3-2.2-.1-4.5 1.4-5.1 3.5-.5 1.6-.9 3.3-1.3 5-.1.3-.2.6-.2.8l-9.9-2.4c.1-.3.2-.6.2-.9.4-1.5.7-2.9 1.1-4.4.8-3.6-2-7-6-6.6-2.4.2-4.3 2-4.9 4.4-.3 1.4-.7 2.7-1 4.1-.1.3-.1.5-.2.8-.3-.1-.6-.2-.9-.2-2.8-.7-5.6-1.4-8.4-1.9-1.4-.3-2.4.3-2.6 1.7-.1.9-.1 1.7-.1 2.5.3 4.1 2 7.7 5.2 10.5.6.6.8 1 .6 1.8-1.8 7.4-3.6 14.7-5.3 22-.3 1-.4 2.1-.3 3.1.3 5.1 2.7 8.9 7.2 11 .1 0 .2.2.3.2h.1s.1 0 .2.1c.1 0 .2.1.2.2.1 0 .2.1.3.1.4.1.7.2 1.1.3.1 0 .2.1.3.1.6.2 1.2.3 1.9.5.2.1.3.1.5.1l7.6 1.8c.1 0 .2.1.3.1 1 .3 1.5.9 1.9 1.9.1.6.2 1.3.1 1.9 0 .1 0 .1-.1.2-.1.4-.2.9-.3 1.4 0 .1 0 .1-.1.2-.3 1.7-.7 3.5-1 5.1-.5 2.6-1.1 5.2-1.6 7.9-.4 2-.9 4-1.3 5.9-.4 2 .6 3.8 2.4 4.3 4.2 1 8.2 2 12.4 3 1.5.4 3-.4 3.6-1.8.8-1.7 1.7-3.4 2.5-5.1l2.6-5.2c.2.1.2-.1.3 0 8.5 2.1 16.9 4.1 25.5 6.2.5.1.6.4.6.8-.1 1.2 0 2.4-.1 3.7 0 2.3-.1 4.7-.2 7 0 1.5 1 3.1 2.4 3.6 4.2 1 8.2 2 12.4 3 1.7.4 3.5-.7 4-2.4.6-2.1 1.2-4.1 1.8-6.3.7-2.6 1.6-5.1 2.3-7.8.5-1.5.8-3 1.3-4.5.8-2.7 1.6-5.2 2.4-7.9.9-2.9 1.7-5.8 2.6-8.7.7-2.5 1.5-4.9 2.1-7.4.9-3.6.4-7.2-1.1-10.4-.1-.1-.1-.4-.2-.6.2.1.3.1.4.1 4.3 1.7 6.8 6.7 5.7 11.3-1.3 5.5-2.6 10.9-4 16.4-.3 1-.4 2.1.3 3 .4.1.9.4 1.5.5Zm-63.5-72.4c.2-.6.9-1.1 1.5-.9.5.1 1.1.7 1 1.3-.4 1.8-.8 3.4-1.3 5.2l-2.5-.6c.5-1.8.9-3.4 1.3-5ZM764 174c1.2.3 2.2 1.9 1.8 3.1-.3 1.2-1.7 2.1-3 1.8-1.2-.3-2.1-1.7-1.8-3.1.3-1.2 1.7-2.1 3-1.8Zm-14.6-29.2c.1-.3.2-.6.4-.8.3-.5 1-.6 1.4-.4.6.3.9.9.7 1.5-.4 1.6-.8 3.1-1.1 4.7 0 .1 0 .1-.2.3l-2.3-.6c.1-.2 0-.3 0-.5.4-1.4.7-2.8 1.1-4.2Zm9.3 54c-1.3.2-2.5.2-3.7-.1-3.9-1-8-1.9-11.9-2.9-1.9-.5-3.6-1.2-4.8-2.7-1.9-2.2-2.3-4.9-1.6-7.8 1.9-7.8 3.8-15.7 5.7-23.5.1-.2.1-.4.2-.6.3-1.1-.3-1.9-1.3-2.5-2.5-1.5-4-3.8-4.7-6.6.1-.2 0-.4 0-.5 0 0 0-.1.1-.2l19.7 4.8-.3 1.2c-.4 1.8-1 3.5-1.3 5.3-.5 3.3-.4 6.6.2 10 .6 3 1.6 5.8 3.1 8.4 1.9 3.2 4.4 5.9 7.7 7.8.3.2.4.3.3.6-.5 1.6-.6 3.3-1.4 4.8-1.2 2.5-3.2 4-6 4.5Zm67.2 2.6c-.8 2.5-1.6 5.1-2.3 7.7-1 3.3-1.9 6.6-2.9 9.8-1.1 3.7-2.3 7.5-3.4 11.2-.7 2.3-1.4 4.5-2.1 6.8-.5 1.4-.9 2.8-1.4 4.3l-9.6-2.3c-.1-4.7.2-9.4.2-14.3-.3-.1-.5-.2-.7-.3-10.8-2.6-21.6-5.2-32.3-7.8-.8-.2-.9-.1-1.2.6-.9 1.9-1.9 3.8-2.8 5.7-.9 1.8-1.8 3.6-2.6 5.4-.4.9-.4.9-1.3.7-2.7-.7-5.3-1.3-7.9-1.9-.8-.2-.8-.2-.6-1.1 1.3-5.2 2.4-10.4 3.7-15.5.6-2.3 1.1-4.6 1.6-6.9.1-.5.3-.8.9-.9 3-.9 5.4-2.8 7.1-5.5.5-.9.9-1.8 1.1-2.7 1.4-5.6 2.7-11.2 4.1-16.8.1-.2.1-.4.2-.6.1-.4.3-.5.6-.4.2.1.4.1.6.2 3.4.8 6.8 1.6 10.2 2.5l32.4 7.9v.1c1.7.4 3.2.8 4.9 1.2.5.1.9.4 1.1.9.5 1 1 1.9 1.5 2.8 1.5 2.7 2 5.9.9 9.2Z"/><path d="M752.9 204.9c0-.1 0-.2-.1-.3m0 0c-.1-.5-.4-.7-.9-.9h-.1c-.1 0-.2-.1-.2-.1l-1.1-.3-6.4-1.6c-.1 0-.3-.1-.4-.1h-.1l-.4-.1c-.5-.1-1-.3-1.6-.4-.1 0-.1 0-.2-.1-.4-.1-.8-.2-1.1-.3l-.8-.3-.5-.3c-4.9-2.3-7.7-6.4-8-12.1-.1-1 .1-2.2.4-3.5 1.7-7.1 3.5-14.4 5.3-22 .1-.2.1-.3.1-.3s-.1 0-.2-.2c-3.4-2.9-5.2-6.7-5.6-11.4-.1-.9-.1-1.9 0-2.9s.7-1.8 1.4-2.3c.8-.5 1.8-.7 2.7-.4 2.1.5 4.2 1 6.2 1.5l1.9.5.1-.4c.3-1.1.6-2.3.8-3.3.7-3 3.1-5.2 6.1-5.5 2.3-.2 4.4.6 5.8 2.3 1.4 1.7 1.9 3.8 1.5 5.9-.3 1-.5 2.1-.7 3-.1.3-.2.6-.3 1l7.4 1.8.3-1.2c.3-1.1.6-2.3.9-3.4.8-2.7 3.5-4.5 6.4-4.5 3.6.1 6.5 3 6.7 6.6.1.7-.1 1.3-.2 2.2-.2.9-.4 1.8-.7 2.7-.1.3-.2.6-.2.8l3 .7c1.7.4 3.3.8 5 1.2 1 .3 1.9.8 2.4 1.6s.6 1.8.2 2.8c-.4 1.6-1.3 2.8-2.2 3.9-2 2.6-4.4 4.4-7.2 5.5l7.9 1.9c8 1.9 15.9 3.9 23.9 5.8 7.4 1.8 13.6 3.3 19.9 4.9 6.6 1.7 11.4 7.4 11.9 14.3.1 1.7-.1 3.5-.5 5.6-.8 3.2-1.6 6.4-2.3 9.7-.5 2-1 4.1-1.5 6-.2.8-.5 1.9-1.2 2.7l-3.2 1.5h-.1c-.6-.2-1.4-.5-2.2-1.1l-.5-.3v-.3c-.7-1.3-.5-2.6-.2-3.8l3.6-14.7.4-1.8c.7-2.9-.3-6-2.4-8.1.7 2.8.8 5.6.1 8.4-.4 1.8-1 3.5-1.5 5.1-.2.8-.5 1.5-.7 2.4l-.9 3.1c-.6 1.9-1.1 3.8-1.7 5.7-.5 1.5-.9 3-1.4 4.5-.4 1.1-.7 2.3-1 3.4-.2.8-.5 1.6-.7 2.5-.2.7-.4 1.3-.6 2.1-.5 1.5-.9 3-1.3 4.5l-1.5 4.7c-.5 1.5-1 3.2-1.4 4.7-.7 2.4-3.2 3.8-5.5 3.3-4.2-1-8.2-2-12.4-3-2.1-.5-3.5-2.6-3.5-4.8 0-1.5.1-3.2.1-4.7l.1-3c0-.9.1-1.6.1-2.5-6.3-1.5-12.6-3.1-18.8-4.6l-5.5-1.3-.4.7c-.6 1.2-1.2 2.3-1.8 3.6-.3.7-.6 1.3-.9 2-.5 1.1-1 2.1-1.5 3.1-1 2-3.1 3-5.1 2.5-2.2-.5-4.3-1-6.3-1.5-2.1-.5-4.1-1-6-1.5-2.5-.6-4-3.2-3.3-5.9.2-.9.5-2 .6-2.9.3-1 .5-2 .6-3 .4-1.8.8-3.6 1.1-5.3l1.6-7.9s.2-.9.3-1.4v-.1l.1-.2c0-.2 0-.4-.1-1m2.8.1c0 .4.1.9-.1 1.3 0 .1-.1.2-.1.4l-.3 1.2v.5l-1.5 7.6c-.3 1.8-.8 3.6-1.1 5.3-.3 1-.5 2-.6 3-.2.9-.5 2-.6 2.9-.3 1.2.4 2.4 1.4 2.8 3.8.9 7.9 1.9 12.4 3 .8.2 1.8-.2 2.2-1.1.5-1.1 1-2.1 1.5-3.1.3-.7.7-1.4.9-2 .6-1.2 1.2-2.3 1.8-3.6l1.1-2.3h1.4l6.2 1.5c6.4 1.6 12.8 3.1 19.2 4.7 1 .3 1.6 1.1 1.6 2.1v2.9l-.1 3c-.1 1.6-.1 3.2-.2 4.8 0 1 .6 2 1.5 2.2 4.2 1 8.2 2 12.4 3 .9.2 2.1-.5 2.5-1.5.5-1.5 1-3.2 1.4-4.7l1.5-4.7c.5-1.5.9-3 1.3-4.5.2-.7.4-1.3.6-2.1.2-.8.5-1.6.7-2.5.4-1.1.7-2.3 1-3.4.5-1.5.9-3 1.4-4.5.6-1.9 1.1-3.8 1.7-5.7l.9-3.1c.2-.8.5-1.5.7-2.4.5-1.6 1-3.4 1.4-5 .8-3.1.4-6.4-1-9.5-.1-.1-.1-.4-.2-.5l-.9-2.3 2.3.3c.1 0 .3.1.5.1 4.8 1.9 7.8 7.6 6.6 12.8l-.4 1.8-3.6 14.7c-.2.8-.2 1.4 0 1.9.2.2.4.2.6.3l.4.1h.3c.6-.2.7-.6 1-1.7.5-2.1 1-4.1 1.5-6.1.8-3.2 1.6-6.4 2.3-9.7.4-1.8.6-3.3.5-4.7-.5-5.7-4.5-10.5-10-12-6.3-1.6-12.5-3.2-19.9-4.9-8-1.9-15.9-3.9-23.9-5.8l-10.3-2.5-.3-.1c-.2-.1-.3-.1-.5-.1-.2-.1-.3-.2-.5-.2l-.8-.4v-.8c-.1-1.2.6-2.2 1.9-2.3.1-.1.3 0 .5-.1 3.1-.8 5.7-2.5 7.8-5.3.7-.9 1.3-1.9 1.7-2.9.1-.4.2-.6 0-.8-.1-.1-.4-.3-.7-.4-1.7-.4-3.3-.8-5-1.2l-3.4-.8c-.2-.1-.4-.1-.6-.2l-1.4-.5.2-1.5c.1-.2.1-.4.2-.6.1-.4.2-.9.3-1.4.2-.8.4-1.8.6-2.6.1-.4.3-1 .1-1.5-.1-1.9-1.6-3.9-4.2-4.1-1.6-.1-3.5 1.1-3.9 2.6-.4 1-.6 2.2-.9 3.3-.1.5-.3 1-.4 1.6-.1.2-.1.4-.3.6l-.5 1.4-12.2-2.9.5-2.2c.1-.4.2-.9.3-1.4.2-.9.5-2 .7-2.9.3-1.4 0-2.6-1-3.6-.9-1-2.3-1.5-3.6-1.4-1.8.1-3.2 1.5-3.7 3.4-.3 1.1-.6 2.3-.8 3.4l-.2.7c-.1.2-.1.4-.2.6l-.5 1.4-4.3-1c-2.1-.5-4.2-1-6.2-1.5-.3-.1-.5 0-.8 0-.1.1-.2.4-.3.6-.2.7 0 1.5 0 2.2.3 3.9 1.9 7.2 4.6 9.5 1 .9 1.3 1.9 1 3.1-1.8 7.6-3.6 15-5.3 22-.3 1-.4 2-.3 2.8.3 4.7 2.4 7.9 6.5 9.8.2.1.4.2.5.3h.2c.1 0 .1 0 .2.1.3.1.6.2 1 .3 0 0 .1 0 .2.1.5.1 1 .3 1.7.4l.2.1c.2.1.4.1.6.2l8.8 2.1v.1c1 .5 1.6 1.4 1.9 2.6.5.4.6.7.7 1.1m-16.2-4.3s.1 0 0 0Zm3.5-3.5c-2.4-.6-4.1-1.6-5.5-3.2-2.1-2.5-2.7-5.5-2-9 1.3-5.5 2.7-11 4-16.4l1.8-7.3c0-.1.1-.3.1-.4.1-.3 0-.6-.6-1-2.7-1.6-4.4-4.1-5.2-7.4-.1-.2-.1-.5-.1-.7 0-.3 0-.6.2-.7l.5-1 1.1.1 21 5.1-.6 2.5c-.1.5-.3 1.1-.4 1.7-.3 1.2-.6 2.4-.8 3.6-.5 3-.4 6.2.2 9.4.5 2.9 1.5 5.6 2.9 8 1.9 3.3 4.2 5.6 7.1 7.3 1.2.7 1 1.8.9 2.1-.1.5-.3 1-.4 1.6-.3 1.1-.5 2.3-1.1 3.5-1.4 2.9-3.8 4.6-6.9 5.3-1.3.2-2.6.3-4.3-.2l-4.4-1.1c-2.4-.7-4.9-1.3-7.5-1.8Zm-4.5-44c.7 1.9 1.9 3.4 3.7 4.4 2 1.3 2 2.9 1.8 3.9-.1.2-.1.4-.1.5L742 169c-1.3 5.5-2.6 10.9-4 16.4-.6 2.5-.1 4.7 1.4 6.6.9 1.1 2.3 1.9 4.2 2.3 2.5.6 5.1 1.2 7.6 1.8l4.4 1.1c1.2.3 2.2.3 3.1.2 2.3-.4 4-1.7 5-3.8.4-.9.7-1.8.8-2.9.1-.3.2-.7.3-1-3.1-1.8-5.6-4.6-7.6-8-1.6-2.6-2.6-5.6-3.3-8.8-.7-3.6-.7-7-.2-10.4.2-1.3.5-2.6.8-3.8.1-.5.3-1 .4-1.6l-16.4-4-.2-.1Zm24.2 27.1c-.9-.2-1.8-.9-2.3-1.8-.6-.9-.6-1.9-.4-2.8.5-2 2.5-3.2 4.5-2.8 1 .3 2 1 2.4 2 .4.9.5 1.9.2 2.7-.5 1.9-2.5 3.2-4.4 2.7Zm1.1-4.9c-.5-.1-1.2.3-1.3.9-.1.2 0 .5.1.8.2.3.4.5.7.6.5.1 1.2-.3 1.3-.9v-.1c.1-.2 0-.4-.1-.7-.1-.2-.4-.5-.7-.6Zm-12.3-23.5-4.4-1.1.1-1.2v-.6c.4-1.5.7-2.8 1-4.3.1-.5.4-1 .6-1.3.7-.9 2.1-1.3 3.1-.8 1.2.5 1.8 1.8 1.5 3-.3 1.2-.6 2.5-.9 3.6l-.3 1c-.1.3-.2.5-.3.6l-.4 1.1Zm21.1 5-5-1.2.7-2.7c.3-1.2.6-2.4.9-3.5.3-1.4 1.6-2.1 3-1.9.6.2 1.3.5 1.7 1.1.4.5.5 1.2.4 1.9-.3 1.2-.6 2.5-.9 3.7l-.8 2.6Z"/><path d="M761 175.8c.3-1.6 1.9-2.3 3.1-2 1.5.4 2.3 1.9 1.9 3.3-.4 1.5-1.9 2.3-3.2 2-1.4-.4-2.2-1.8-1.8-3.3Zm-9.8-26.8c-1.1-.3-2.3-.6-3.4-.8.1-.2 0-.4 0-.6.4-1.8.3-1.2.8-3.1.1-.4.3-.8.5-1.1.5-.5 1.5-.7 2.1-.5.9.4 1.5 1.2 1.2 2.2-.5 2-.4 1.7-.9 3.7 0-.1-.1 0-.3.2Zm21 5.1c-1.1-.3-2.3-.6-3.4-.8.1-.2 0-.4 0-.6.4-1.8.3-1.2.8-3.1.1-.4.3-.8.5-1.1.5-.5 1.5-.7 2.1-.5.9.3 1.4 1.2 1.2 2-.5 2-.4 1.7-.9 3.7-.1.1-.2.2-.3.4Z"/></g><path fill-rule="nonzero" d="m772.8 179.2 36 9 3.4-11.3s-26.4-4.8-31.7-6.1c-1-.2-1.8.2-1.9.1-1.3.5-2.4.7-3.8.4l-2 7.9Z"/><g fill-rule="nonzero"><path d="M766 211.9c0 6.5-27.9 4.9-18.6-1.1 2.5-1.6 2.4-5.2 4.7-6.8 6.5-.1 4.2.3 10.1-1.7 6.6 1.6 3.8 3.1 3.8 9.6Z"/><path stroke="#f8f2ea" stroke-width=".47" d="M750.7 203.6s5.7 1.8 13.2-2.1"/></g><path fill-rule="nonzero" d="M555.598 273.499c-.9 3.2-1.9 6.5-2.8 9.7-2.5 8.7-5 17.4-7.6 26.2-3.8 13-7.5 26-11.3 38.9-4.5 15.7-9.1 31.5-13.6 47.2l-15 51.899c-5 17.4-10.1 34.9-15.1 52.3-4.7 16.3-9.4 32.5-14.1 48.8-4 13.7-7.9 27.5-11.9 41.2-2.9 9.9-5.7 19.8-8.6 29.6-1.3 4.7-2.8 9.3-4.1 14-.1.2-.1.4-.2.6-.8 2.7 1.9 5.7 4.6 6.2 3.2.7 5.5-1.2 6.3-3.9.9-3.2 1.9-6.5 2.8-9.7 2.5-8.7 5-17.4 7.6-26.2 3.8-13 7.5-26 11.3-38.9 4.5-15.7 9.1-31.5 13.6-47.2l15-51.9c5-17.4 10.1-34.9 15.1-52.3 4.7-16.3 9.4-32.5 14.1-48.8 4-13.7 7.9-27.5 11.9-41.2 2.9-9.9 5.7-19.8 8.6-29.6 1.3-4.7 2.8-9.3 4.1-14 .1-.2.1-.4.2-.6.8-2.7-1.9-5.7-4.6-6.2-3.2-.7-5.5 1.2-6.3 3.9Z"/></g><g fill-rule="nonzero"><path fill="#948fc4" d="M860.397 303.998c-.8 3.5-4.4 26.4 34.1 27.5 2.8.1 5.4-1.8 6.1-4.5l50.7-177.799c.9-3.1-.7-6.3-3.7-7.4l-19.4-7.6c-3.2-1.3-6.9.4-8.1 3.7l-59.5 165.5c-.1.1-.2.4-.2.6Z"/><path fill="#635ea8" fill-opacity=".3" d="M860.397 303.998c-.8 3.5-4.4 26.4 34.1 27.5 2.8.1 5.4-1.8 6.1-4.5l50.7-177.799c.9-3.1-.7-6.3-3.7-7.4l-19.4-7.6c-3.2-1.3-6.9.4-8.1 3.7l-59.5 165.5c-.1.1-.2.4-.2.6Z"/><path fill="#948fc4" d="M874.696 318.398c-22.7-31.1-79.1-53.2-168.799-55-89.8-1.8-116.6-57-116.6-57l55.3-191.298s26.8 55.2 116.6 57c77.3 1.6 129.8 18.2 157.4 42.6 7.3 6.5 10.2 16.6 7.5 26l-51.4 177.698Z"/><path fill="#635ea8" fill-opacity=".3" d="M822.097 268.399c-29.6-13.5-61.8-18.9-93.1-26.8-26.4-6.6-58.3-15-73.1-40-7-11.8-10.5-26.1-13.1-39.4-3.1-15.5-4.1-31.3-3.8-47 .5-32.2-2.9-66 5.8-97.4.1-.5.3-1 .5-1.4-.5-.8-.7-1.3-.7-1.3l-55.3 191.3s26.8 55.2 116.6 57c89.8 1.8 146.1 23.9 168.8 55l1.7-5.8c-12.9-19.7-32.6-34.3-54.3-44.2Z"/></g><path fill="#5f6062" fill-rule="nonzero" d="M636.897 6.5c-.9 3.2-1.9 6.5-2.8 9.7-2.5 8.7-5 17.4-7.6 26.2-3.8 13-7.5 26-11.3 38.9-4.5 15.7-9.1 31.5-13.6 47.2l-15 51.899c-5 17.4-10.1 34.9-15.1 52.3-4.7 16.3-9.4 32.5-14.1 48.8-4 13.7-7.9 27.5-11.9 41.2-2.9 9.9-5.7 19.8-8.6 29.6-1.3 4.7-2.8 9.3-4.1 14-.1.2-.1.4-.2.6-.8 2.7 1.9 5.7 4.6 6.2 3.2.7 5.5-1.2 6.3-3.9.9-3.2 1.9-6.5 2.8-9.7 2.5-8.7 5-17.4 7.6-26.2 3.8-13 7.5-26 11.3-38.9 4.5-15.7 9.1-31.5 13.6-47.2l15-51.9c5-17.4 10.1-34.9 15.1-52.3 4.7-16.3 9.4-32.5 14.1-48.8 4-13.7 7.9-27.5 11.9-41.2 2.9-9.9 5.7-19.8 8.6-29.6 1.3-4.7 2.8-9.3 4.1-14 .1-.2.1-.4.2-.6.8-2.7-1.9-5.7-4.6-6.2-3.2-.7-5.5 1.3-6.3 3.9Z"/><path fill="#5f6062" fill-rule="nonzero" d="M560.698 269.299c-.9 3.2-1.9 6.5-2.8 9.7-2.5 8.7-5 17.4-7.6 26.2-3.8 13-7.5 26-11.3 38.9-4.5 15.7-9.1 31.5-13.6 47.2l-15 51.899c-5 17.4-10.1 34.9-15.1 52.3-4.7 16.3-9.4 32.5-14.1 48.8-4 13.7-7.9 27.5-11.9 41.2-2.9 9.9-5.7 19.8-8.6 29.6-1.3 4.7-2.8 9.3-4.1 14-.1.2-.1.4-.2.6-.8 2.7 1.9 5.7 4.6 6.2 3.2.7 5.5-1.2 6.3-3.9.9-3.2 1.9-6.5 2.8-9.7 2.5-8.7 5-17.4 7.6-26.2 3.8-13 7.5-26 11.3-38.9 4.5-15.7 9.1-31.5 13.6-47.2l15-51.9c5-17.4 10.1-34.9 15.1-52.3 4.7-16.3 9.4-32.5 14.1-48.8 4-13.7 7.9-27.5 11.9-41.2 2.9-9.9 5.7-19.8 8.6-29.6 1.3-4.7 2.8-9.3 4.1-14 .1-.2.1-.4.2-.6.8-2.7-1.9-5.7-4.6-6.2-3.2-.6-5.6 1.3-6.3 3.9Z"/><g fill="#221f1f" opacity=".15"><g fill-rule="nonzero"><use xlink:href="#b"/><use xlink:href="#b" fill-opacity=".6"/><path d="M82.3 323.598c22.7-31.1 79.1-53.2 168.799-55 89.8-1.8 116.6-57 116.6-57L312.499 20.3s-26.8 55.2-116.6 57c-77.3 1.6-129.8 18.2-157.4 42.6-7.3 6.5-10.2 16.6-7.5 26l51.3 177.698Z"/><path fill-opacity=".6" d="M135 273.599c29.6-13.5 61.8-18.9 93.1-26.8 26.399-6.6 58.299-15 73.099-40 7-11.8 10.5-26.1 13.1-39.4 3.1-15.5 4.1-31.3 3.8-47-.5-32.2 2.9-66-5.8-97.4-.1-.5-.3-1-.5-1.4.5-.8.7-1.3.7-1.3l55.3 191.3s-26.8 55.2-116.6 57c-89.8 1.8-146.1 23.9-168.8 55l-1.7-5.8c12.8-19.7 32.6-34.3 54.3-44.2Z"/></g><path fill-rule="nonzero" d="M320.199 11.7c.9 3.2 1.9 6.5 2.8 9.7 2.5 8.7 5 17.4 7.6 26.2 3.8 13 7.5 26 11.3 38.9 4.5 15.7 9.1 31.5 13.6 47.2l15 51.899c5 17.4 10.1 34.9 15.1 52.3 4.7 16.3 9.4 32.5 14.1 48.8 4 13.7 7.9 27.5 11.9 41.2 2.9 9.9 5.7 19.8 8.6 29.6 1.3 4.7 2.8 9.3 4.1 14 .1.2.1.4.2.6.8 2.7-1.9 5.7-4.6 6.2-3.2.7-5.5-1.2-6.3-3.9-.9-3.2-1.9-6.5-2.8-9.7-2.5-8.7-5-17.4-7.6-26.2-3.8-13-7.5-26-11.3-38.9-4.5-15.7-9.1-31.5-13.6-47.2l-15-51.9c-5-17.4-10.1-34.9-15.1-52.3-4.7-16.3-9.4-32.5-14.1-48.8-4-13.7-7.9-27.5-11.9-41.2-2.9-9.9-5.7-19.8-8.6-29.6-1.3-4.7-2.8-9.3-4.1-14-.1-.2-.1-.4-.2-.6-.8-2.7 1.9-5.7 4.6-6.2 3.2-.6 5.5 1.3 6.3 3.9Z"/><circle cx="197.9" cy="173.2" r="65.6"/><circle cx="197.9" cy="173.2" r="57.1"/><circle cx="196.8" cy="168.5" r="48.4"/><path d="M100.367 163.234 217.76 134.75l21.67 89.308-117.393 28.485z"/><g fill-rule="nonzero"><path d="M215.5 152.6v.4c-.6 2.8-2.2 5.1-4.7 6.6-1 .6-1.5 1.4-1.3 2.5.1.2.1.4.2.6 1.9 7.8 3.8 15.7 5.7 23.5.7 2.9.2 5.6-1.6 7.8-1.3 1.5-3 2.3-4.8 2.7-3.9 1-8 1.9-11.9 2.9-1.2.3-2.4.4-3.7.1-2.6-.5-4.7-2-5.9-4.5-.8-1.6-.9-3.2-1.4-4.8-.1-.3 0-.4.3-.6 3.3-1.9 5.8-4.6 7.7-7.8 1.6-2.6 2.6-5.4 3.1-8.4.6-3.3.7-6.7.2-10-.3-1.8-.9-3.5-1.3-5.3l-.3-1.2c6.7-1.6 13.2-3.2 19.7-4.8-.1.2 0 .3 0 .3Zm-10.5 18c-1.4.5-2.3 1.9-1.9 3.3.4 1.5 1.9 2.3 3.2 2 1.5-.4 2.2-1.7 1.9-3.2-.3-1.6-1.9-2.3-3.2-2.1Z"/><path d="M186.3 178c.3 1.2 1.7 2.1 3 1.8 1.2-.3 2.1-1.7 1.8-3.1-.3-1.2-1.7-2.1-3-1.8-1.3.5-2.3 2-1.8 3.1Zm21.8-5.3c-.3-1.6-1.9-2.3-3.1-2-1.5.4-2.3 1.9-1.9 3.3.4 1.5 1.9 2.3 3.2 2 1.4-.4 2.2-1.8 1.8-3.3Z"/><path d="M118.4 223c.6-.2 1.1-.4 1.9-.9.7-.9.5-2 .3-3-1.3-5.5-2.6-10.9-4-16.4-1.1-4.6 1.4-9.6 5.7-11.3.1 0 .2-.1.4-.1-.1.2-.1.5-.2.6-1.5 3.2-2 6.8-1.1 10.4.6 2.5 1.4 4.9 2.1 7.4.8 2.9 1.6 5.9 2.6 8.7.8 2.7 1.6 5.2 2.4 7.9.5 1.5.8 3 1.3 4.5.8 2.7 1.6 5.2 2.3 7.8.6 2.2 1.2 4.2 1.8 6.3.5 1.7 2.3 2.8 4 2.4 4.2-1 8.2-2 12.4-3 1.4-.5 2.5-2 2.4-3.6 0-2.3-.1-4.7-.2-7-.1-1.3-.1-2.5-.1-3.7 0-.4.1-.7.6-.8 8.5-2.1 16.9-4.1 25.5-6.2.1 0 .1.1.3 0l2.6 5.2c.7 1.7 1.6 3.5 2.5 5.1.7 1.4 2.2 2.1 3.6 1.8 4.2-1 8.2-2 12.4-3 1.7-.5 2.7-2.3 2.4-4.3-.5-2-1-3.9-1.3-5.9-.5-2.6-1.1-5.2-1.6-7.9-.3-1.7-.7-3.5-1-5.1 0-.1 0-.1-.1-.2-.1-.4-.2-.9-.3-1.4 0-.1 0-.1-.1-.2-.2-.6 0-1.3.1-1.9.3-1 .8-1.6 1.9-1.9.1 0 .2-.1.3-.1l7.6-1.8c.2-.1.3-.1.5-.1.6-.2 1.2-.3 1.9-.5.1 0 .2-.1.3-.1.4-.1.7-.2 1.1-.3.1 0 .2-.1.3-.1 0-.1.1-.1.2-.2.1 0 .2-.1.2-.1h.1c.1 0 .2-.2.3-.2 4.6-2.1 6.9-5.9 7.2-11 .1-1-.1-2.1-.3-3.1-1.8-7.4-3.6-14.7-5.3-22-.2-.8-.1-1.2.6-1.8 3.2-2.8 4.8-6.3 5.2-10.5 0-.8 0-1.7-.1-2.5-.2-1.4-1.3-2-2.6-1.7-2.8.6-5.6 1.3-8.4 1.9-.3.1-.6.2-.9.2-.1-.3-.1-.5-.2-.8-.3-1.4-.7-2.7-1-4.1-.6-2.4-2.6-4.2-4.9-4.4-3.9-.4-6.7 3.1-6 6.6.4 1.5.7 2.9 1.1 4.4.1.3.2.6.2.9l-9.9 2.4c-.1-.2-.1-.5-.2-.8-.4-1.7-.8-3.3-1.3-5-.6-2.1-3-3.6-5.1-3.5-3.2.1-5.3 2.5-5.4 5.3 0 .5.1 1.2.2 1.8.3 1.2.6 2.6 1 3.9.1.3.1.5.2.8-.3.1-.5.1-.8.2-2.8.8-5.6 1.5-8.4 2.1-1.5.4-2 1.4-1.6 2.8.4 1.2 1.1 2.4 1.9 3.4 2.1 2.9 4.9 5 8.4 5.8.2.1.3 0 .6.1.6.1.9.3.8.9-.2.1-.3.2-.5.2-.1 0-.3.1-.4.1-11.3 2.9-22.7 5.6-34.2 8.4-6.7 1.6-13.3 3.2-19.9 4.9-6.2 1.5-10.5 7-11 13.1-.1 1.8.1 3.5.5 5.2 1.3 5.2 2.5 10.5 3.8 15.7.3 1.1.5 2.3 1.8 2.8.1.1.1.1.3.2h.4c-.4.4-.4.3-.1.3-.1 0-.1 0 0 0Zm64.7-67.4-2.5.6c-.4-1.8-.8-3.4-1.3-5.2-.2-.6.5-1.2 1-1.3.6-.2 1.4.3 1.5.9.5 1.6.9 3.2 1.3 5Zm7.9 21.3c.3 1.4-.5 2.8-1.8 3.1-1.2.3-2.7-.6-3-1.8-.4-1.2.5-2.8 1.8-3.1 1.3-.3 2.7.5 3 1.8Zm12.6-26.8c.1.2 0 .3 0 .5l-2.3.6c-.2-.2-.2-.2-.2-.3-.4-1.6-.8-3.1-1.1-4.7-.2-.6.1-1.2.7-1.5.4-.2 1.1 0 1.4.4.3.2.3.5.4.8.5 1.3.8 2.8 1.1 4.2Zm-16.3 45.2c-.8-1.6-.9-3.2-1.4-4.8-.1-.3 0-.4.3-.6 3.3-1.9 5.8-4.6 7.7-7.8 1.6-2.6 2.6-5.4 3.1-8.4.6-3.3.7-6.7.2-10-.3-1.8-.9-3.5-1.3-5.3l-.3-1.2 19.7-4.8c0 .1.1.2.1.2v.5c-.6 2.8-2.2 5.1-4.7 6.6-1 .6-1.5 1.4-1.3 2.5.1.2.1.4.2.6 1.9 7.8 3.8 15.7 5.7 23.5.7 2.9.2 5.6-1.6 7.8-1.3 1.5-3 2.3-4.8 2.7-3.9 1-8 1.9-11.9 2.9-1.2.3-2.4.4-3.7.1-2.8-.5-4.8-2-6-4.5Zm-60-2.3c.6-.9 1-1.8 1.5-2.8.2-.5.6-.8 1.1-.9 1.7-.4 3.2-.8 4.9-1.2v-.1l32.4-7.9c3.4-.8 6.8-1.6 10.2-2.5.2-.1.4-.1.6-.2.3-.1.5 0 .6.4.1.2.1.4.2.6 1.4 5.6 2.7 11.2 4.1 16.8.2.9.6 1.8 1.1 2.7 1.7 2.8 4.1 4.6 7.1 5.5.6.1.7.4.9.9.5 2.3 1 4.6 1.6 6.9 1.2 5.1 2.4 10.3 3.7 15.5.2.9.2.9-.6 1.1-2.6.6-5.2 1.3-7.9 1.9-.8.2-.8.2-1.3-.7-.9-1.8-1.8-3.6-2.6-5.4-.9-1.9-1.9-3.8-2.8-5.7-.4-.7-.4-.8-1.2-.6-10.7 2.6-21.5 5.2-32.3 7.8-.2.1-.4.2-.7.3 0 4.8.2 9.5.2 14.3l-9.6 2.3c-.5-1.5-.9-2.9-1.4-4.3-.7-2.3-1.4-4.5-2.1-6.8-1.1-3.7-2.3-7.5-3.4-11.2-1-3.3-1.9-6.6-2.9-9.8-.7-2.6-1.5-5.1-2.3-7.7-1.4-3-.9-6.3.9-9.2Z"/><path d="M199.2 205.7c0 .1 0 .2-.1.3m0 0c-.1.6-.1.8-.1 1l.1.2v.1c.1.4.3 1.4.3 1.4l1.6 7.9c.3 1.8.6 3.6 1.1 5.3.1 1.1.4 2 .6 3 .1 1 .4 2 .6 2.9.7 2.7-.8 5.3-3.3 5.9-2 .5-3.9 1-6 1.5l-6.3 1.5c-2 .5-4.1-.5-5.1-2.5-.5-1.1-1-2.1-1.5-3.1-.3-.7-.6-1.3-.9-2-.5-1.3-1.1-2.5-1.8-3.6l-.4-.7-5.5 1.3c-6.2 1.5-12.5 3-18.8 4.6 0 .9.1 1.6.1 2.5l.1 3c0 1.5.1 3.2.1 4.7.1 2.2-1.4 4.3-3.5 4.8-4.2 1-8.2 2-12.4 3-2.3.6-4.8-.9-5.5-3.3-.4-1.6-.9-3.2-1.4-4.7l-1.5-4.7c-.4-1.6-.8-3-1.3-4.5-.2-.7-.4-1.3-.6-2.1-.2-.8-.5-1.6-.7-2.5-.4-1.1-.7-2.3-1-3.4-.5-1.5-.9-3-1.4-4.5-.6-1.9-1.1-3.8-1.7-5.7l-.9-3.1c-.2-.8-.5-1.5-.7-2.4-.5-1.6-1-3.4-1.5-5.1-.8-2.8-.7-5.6.1-8.4-2.1 2.1-3.1 5.2-2.4 8.1l.4 1.8 3.6 14.7c.3 1.1.5 2.5-.2 3.8v.3l-.5.3c-.7.6-1.5.9-2.2 1.1h-.1l-3.2-1.5c-.7-.8-1-1.8-1.2-2.7-.5-2-1-4.1-1.5-6-.8-3.2-1.6-6.4-2.3-9.7-.4-2.1-.6-3.9-.5-5.6.5-6.9 5.3-12.6 11.9-14.3 6.3-1.6 12.5-3.2 19.9-4.9 8-1.9 15.9-3.9 23.9-5.8l7.9-1.9c-2.8-1.1-5.2-2.9-7.2-5.5-.8-1.1-1.8-2.3-2.2-3.9-.4-1-.3-2 .2-2.8.5-.8 1.3-1.3 2.4-1.6 1.7-.4 3.3-.8 5-1.2l3-.7c-.1-.2-.1-.5-.2-.8-.2-.9-.4-1.8-.7-2.7-.1-.9-.2-1.5-.2-2.2.1-3.6 3.1-6.5 6.7-6.6 2.9 0 5.6 1.8 6.4 4.5.4 1.1.7 2.3.9 3.4l.3 1.2 7.4-1.8c-.1-.4-.2-.7-.3-1-.2-.9-.5-2-.7-3-.4-2.1.2-4.2 1.5-5.9 1.5-1.7 3.6-2.5 5.8-2.3 2.9.3 5.3 2.4 6.1 5.5.3 1 .5 2.2.8 3.3l.1.4 1.9-.5c2.1-.5 4.2-1 6.2-1.5.9-.2 2 0 2.7.4.7.4 1.3 1.3 1.4 2.3.1 1 .1 1.9 0 2.9-.4 4.7-2.2 8.5-5.6 11.4l-.2.2s0 .1.1.3c1.8 7.6 3.6 15 5.3 22 .3 1.4.5 2.5.4 3.5-.3 5.7-3 9.8-8 12.1l-.5.3-.8.3c-.3.1-.7.2-1.1.3-.1 0-.1 0-.2.1-.5.1-1 .3-1.6.4l-.4.1h-.1c-.1 0-.3.1-.4.1l-6.4 1.6-1.1.3s-.1 0-.2.1h-.1c-.5.1-.8.4-.9.9m-2.5 0c0-.4.1-.7.1-1 .3-1.2.9-2.1 1.9-2.6v-.1l8.8-2.1c.2-.1.4-.1.6-.2l.2-.1c.6-.2 1.1-.3 1.7-.4.1 0 .2-.1.2-.1.4-.1.7-.2 1-.3.1 0 .1 0 .2-.1h.2c.1-.1.3-.3.5-.3 4.2-1.9 6.2-5.1 6.5-9.8 0-.8-.1-1.7-.3-2.8-1.7-7.1-3.5-14.4-5.3-22-.3-1.2 0-2.2 1-3.1 2.7-2.3 4.4-5.6 4.6-9.5.1-.7.2-1.5 0-2.2-.1-.2-.1-.5-.3-.6-.2-.1-.5-.1-.8 0-2.1.5-4.2 1-6.2 1.5l-4.3 1-.5-1.4c-.1-.2-.1-.4-.2-.6l-.2-.7c-.3-1.1-.6-2.3-.8-3.4-.5-1.9-1.9-3.3-3.7-3.4-1.3-.1-2.8.4-3.6 1.4-1 1-1.3 2.3-1 3.6.2.9.5 2 .7 2.9.1.4.2.9.3 1.4l.5 2.2-12.2 2.9-.5-1.4c-.2-.2-.2-.4-.3-.6-.1-.5-.3-1-.4-1.6-.3-1.1-.6-2.3-.9-3.3-.5-1.4-2.3-2.6-3.9-2.6-2.6.2-4.1 2.2-4.2 4.1-.1.5 0 1.1.1 1.5.2.8.4 1.8.6 2.6.1.4.2.9.3 1.4.1.2.1.4.2.6l.2 1.5-1.4.5c-.2.1-.4.1-.6.2l-3.4.8c-1.7.4-3.3.8-5 1.2-.3.1-.6.3-.7.4-.2.2-.1.4 0 .8.4 1 1 2 1.7 2.9 2.1 2.8 4.7 4.5 7.8 5.3.1.1.3 0 .5.1 1.2.1 2 1.1 1.9 2.3v.8l-.8.4c-.2.1-.3.2-.5.2-.2.1-.3.1-.5.1l-.3.1-10.3 2.5c-8 1.9-15.9 3.9-23.9 5.8-7.4 1.8-13.6 3.3-19.9 4.9-5.5 1.4-9.5 6.3-10 12-.1 1.5.1 3 .5 4.7.8 3.2 1.6 6.4 2.3 9.7.5 2.1 1 4.1 1.5 6.1.3 1.1.4 1.6 1 1.7h.3l.4-.1c.2-.1.4-.1.6-.3.2-.5.2-1 0-1.9l-3.6-14.7-.4-1.8c-1.3-5.2 1.8-10.9 6.6-12.8.2-.1.4-.1.5-.1l2.3-.3-.9 2.3c-.1.1-.1.4-.2.5-1.4 3.1-1.8 6.4-1 9.5.4 1.7.9 3.4 1.4 5 .2.8.5 1.5.7 2.4l.9 3.1c.6 1.9 1.1 3.8 1.7 5.7.5 1.5.9 3 1.4 4.5.4 1.1.7 2.3 1 3.4.2.8.5 1.6.7 2.5.2.7.4 1.3.6 2.1.4 1.6.8 3 1.3 4.5l1.5 4.7c.4 1.6.9 3.2 1.4 4.7.4 1 1.5 1.7 2.5 1.5 4.2-1 8.2-2 12.4-3 .9-.2 1.6-1.3 1.5-2.2-.1-1.6-.1-3.2-.2-4.8l-.1-3v-2.9c0-1.1.5-1.9 1.6-2.1 6.4-1.6 12.8-3.1 19.2-4.7l6.2-1.5c.2-.1.4 0 .5 0h.9l1.1 2.3c.5 1.3 1.1 2.5 1.8 3.6.3.6.6 1.3.9 2 .5 1.1 1 2.1 1.5 3.1.4.9 1.4 1.3 2.2 1.1 4.5-1.1 8.5-2.1 12.4-3 1-.4 1.7-1.5 1.4-2.8-.1-1-.4-2-.6-2.9-.1-1.1-.4-2-.6-3-.3-1.8-.8-3.6-1.1-5.3l-1.5-7.6c0-.1-.1-.2 0-.5l-.3-1.2c-.1-.2-.1-.3-.1-.4.5-.5.5-1 .5-1.4m16.2-4.4c-.1.1 0 0 0 0Zm-3.5-3.4c-2.6.5-5.1 1.1-7.6 1.7l-4.4 1.1c-1.7.4-3 .4-4.3.2-3.1-.7-5.5-2.4-6.9-5.3-.6-1.2-.8-2.3-1.1-3.5-.1-.5-.3-1-.4-1.6-.1-.3-.3-1.4.9-2.1 2.9-1.7 5.2-4 7.1-7.3 1.4-2.3 2.4-5.1 2.9-8 .6-3.2.7-6.5.2-9.4-.2-1.2-.5-2.3-.8-3.6-.1-.5-.3-1.1-.4-1.7l-.6-2.5 21-5.1 1.1-.1.5 1c.1.1.2.4.2.7.1.2 0 .4-.1.7-.9 3.3-2.6 5.8-5.2 7.4-.7.4-.7.7-.6 1 0 .1.1.3.1.4l1.8 7.3c1.3 5.4 2.6 10.9 4 16.4.7 3.5.1 6.5-2 9-1.2 1.7-3 2.7-5.4 3.3Zm4.6-43.9-16.4 4c.1.5.3 1 .4 1.6.3 1.1.6 2.5.8 3.8.5 3.4.4 6.8-.2 10.4-.6 3.2-1.7 6.2-3.3 8.8-2 3.5-4.6 6.2-7.6 8 .1.3.2.7.3 1 .1 1.1.4 2 .8 2.9 1 2.2 2.7 3.4 5 3.8.9.1 1.9.1 3.1-.2l4.4-1.1c2.5-.6 5.1-1.2 7.6-1.8 1.9-.5 3.2-1.2 4.2-2.3 1.5-1.9 2-4.1 1.4-6.6-1.3-5.5-2.6-10.9-4-16.4l-1.7-7.2c0-.1-.1-.3-.1-.5-.2-.9-.2-2.6 1.8-3.9 1.7-1 2.9-2.5 3.7-4.4l-.2.1Zm-28.7 24.3c-.3-.8-.2-1.8.2-2.7.4-1 1.3-1.8 2.4-2 2-.5 4 .8 4.5 2.8.2.9.1 1.9-.4 2.8-.5.9-1.4 1.5-2.3 1.8-1.9.5-3.9-.8-4.4-2.7Zm3.3-2.2c-.3.1-.7.4-.8.6-.1.2-.1.5-.1.7v.1c.2.6.8 1 1.3.9.3-.1.6-.4.7-.6.2-.3.2-.6.1-.8 0-.6-.6-1-1.2-.9Zm11.7-24.5c0-.1-.2-.3-.3-.6l-.3-1c-.3-1.1-.6-2.4-.9-3.6-.3-1.2.3-2.5 1.5-3 1-.5 2.4-.1 3.1.8.3.3.5.8.6 1.3.4 1.5.7 2.8 1 4.3.1.3 0 .5 0 .6l.1 1.2-4.4 1.1-.4-1.1Zm-21.2 3.3c-.3-1.2-.6-2.5-.9-3.7 0-.6 0-1.3.4-1.9.4-.5 1.1-.9 1.7-1.1 1.4-.2 2.7.6 3 1.9.3 1.1.6 2.3.9 3.5l.7 2.7-5 1.2-.8-2.6Z"/><path d="M191 176.9c-.3-1.6-1.9-2.3-3.1-2-1.5.4-2.3 1.9-1.9 3.3.4 1.4 1.9 2.3 3.2 2 1.4-.5 2.2-1.9 1.8-3.3Zm9.8-26.8c1.1-.3 2.3-.6 3.4-.8-.1-.2 0-.4 0-.6-.4-1.8-.3-1.2-.8-3.1-.1-.4-.3-.8-.5-1.1-.5-.5-1.5-.7-2.1-.5-.9.4-1.5 1.2-1.2 2.2.5 2 .4 1.7.9 3.7 0-.1.1 0 .3.2Zm-21 5.1c1.1-.3 2.3-.6 3.4-.8-.1-.2 0-.4 0-.6-.4-1.8-.3-1.2-.8-3.1-.1-.4-.3-.8-.5-1.1-.5-.5-1.5-.7-2.1-.5-.9.3-1.4 1.2-1.2 2 .5 2 .4 1.7.9 3.7.1.1.2.2.3.4Z"/></g><path fill-rule="nonzero" d="m179.2 180.2-36 9-3.4-11.3s26.4-4.8 31.7-6.1c1-.2 1.8.2 1.9.1 1.3.5 2.4.7 3.8.4l2 7.9Z"/><g fill-rule="nonzero"><path d="M186 213c0 6.5 27.9 4.9 18.6-1.1-2.5-1.6-2.4-5.2-4.7-6.8-6.5-.1-4.2.3-10.1-1.7-6.6 1.6-3.8 3.1-3.8 9.6Z"/><path stroke="#f8f2ea" stroke-width=".47" d="M201.3 204.7s-5.7 1.8-13.2-2.1"/></g><path fill-rule="nonzero" d="M396.398 274.599c.9 3.2 1.9 6.5 2.8 9.7 2.5 8.7 5 17.4 7.6 26.2 3.8 13 7.5 26 11.3 38.9 4.5 15.7 9.1 31.5 13.6 47.2l15 51.899c5 17.4 10.1 34.9 15.1 52.3 4.7 16.3 9.4 32.5 14.1 48.8 4 13.7 7.9 27.5 11.9 41.2 2.9 9.9 5.7 19.8 8.6 29.6 1.3 4.7 2.8 9.3 4.1 14 .1.2.1.4.2.6.8 2.7-1.9 5.7-4.6 6.2-3.2.7-5.5-1.2-6.3-3.9-.9-3.2-1.9-6.5-2.8-9.7-2.5-8.7-5-17.4-7.6-26.2-3.8-13-7.5-26-11.3-38.9-4.5-15.7-9.1-31.5-13.6-47.2l-15-51.9c-5-17.4-10.1-34.9-15.1-52.3-4.7-16.3-9.4-32.5-14.1-48.8-4-13.7-7.9-27.5-11.9-41.2-2.9-9.9-5.7-19.8-8.6-29.6-1.3-4.7-2.8-9.3-4.1-14-.1-.2-.1-.4-.2-.6-.8-2.7 1.9-5.7 4.6-6.2 3.2-.7 5.5 1.2 6.3 3.9Z"/></g><path fill="#948fc4" fill-rule="nonzero" d="M91.6 305.098c.8 3.5 4.4 26.4-34.1 27.5-2.8.1-5.4-1.8-6.1-4.5L.7 150.2c-.9-3.1.7-6.3 3.7-7.4l19.4-7.6c3.2-1.3 6.9.4 8.1 3.7l59.5 165.5c.1.2.2.4.2.7Z"/><path fill="#635ea8" fill-opacity=".3" fill-rule="nonzero" d="M91.6 305.098c.8 3.5 4.4 26.4-34.1 27.5-2.8.1-5.4-1.8-6.1-4.5L.7 150.2c-.9-3.1.7-6.3 3.7-7.4l19.4-7.6c3.2-1.3 6.9.4 8.1 3.7l59.5 165.5c.1.2.2.4.2.7Z"/><path fill="#948fc4" fill-rule="nonzero" d="M77.3 319.498c22.7-31.1 79.1-53.2 168.799-55 89.8-1.8 116.6-57 116.6-57L307.399 16.2s-26.8 55.2-116.6 57C113.5 74.7 61 91.4 33.4 115.8c-7.3 6.5-10.199 16.6-7.5 26l51.4 177.698Z"/><path fill="#635ea8" fill-opacity=".3" fill-rule="nonzero" d="M129.9 269.499c29.6-13.5 61.8-18.9 93.1-26.8 26.399-6.6 58.299-15 73.099-40 7-11.8 10.5-26.1 13.1-39.4 3.1-15.5 4.1-31.3 3.8-47-.5-32.2 2.9-66-5.8-97.4-.1-.5-.3-1-.5-1.4.5-.8.7-1.3.7-1.3l55.3 191.3s-26.8 55.2-116.6 57c-89.8 1.8-146.1 23.9-168.8 55l-1.7-5.8c12.9-19.8 32.6-34.3 54.3-44.2Z"/><path fill="#5f6062" fill-rule="nonzero" d="M315.099 7.6c.9 3.2 1.9 6.5 2.8 9.7 2.5 8.7 5 17.4 7.6 26.2 3.8 13 7.5 26 11.3 38.9 4.5 15.7 9.1 31.5 13.6 47.2l15 51.899c5 17.4 10.1 34.9 15.1 52.3 4.7 16.3 9.4 32.5 14.1 48.8 4 13.7 7.9 27.5 11.9 41.2 2.9 9.9 5.7 19.8 8.6 29.6 1.3 4.7 2.8 9.3 4.1 14 .1.2.1.4.2.6.8 2.7-1.9 5.7-4.6 6.2-3.2.7-5.5-1.2-6.3-3.9-.9-3.2-1.9-6.5-2.8-9.7-2.5-8.7-5-17.4-7.6-26.2-3.8-13-7.5-26-11.3-38.9-4.5-15.7-9.1-31.5-13.6-47.2l-15-51.9c-5-17.4-10.1-34.9-15.1-52.3-4.7-16.3-9.4-32.5-14.1-48.8-4-13.7-7.9-27.5-11.9-41.2-2.9-9.9-5.7-19.8-8.6-29.6-1.3-4.7-2.8-9.3-4.1-14-.1-.2-.1-.4-.2-.6-.8-2.7 1.9-5.7 4.6-6.2 3.2-.7 5.5 1.2 6.3 3.9Z"/><path fill="#5f6062" fill-rule="nonzero" d="M391.298 270.399c.9 3.2 1.9 6.5 2.8 9.7 2.5 8.7 5 17.4 7.6 26.2 3.8 13 7.5 26 11.3 38.9 4.5 15.7 9.1 31.5 13.6 47.2l15 51.899c5 17.4 10.1 34.9 15.1 52.3 4.7 16.3 9.4 32.5 14.1 48.8 4 13.7 7.9 27.5 11.9 41.2 2.9 9.9 5.7 19.8 8.6 29.6 1.3 4.7 2.8 9.3 4.1 14 .1.2.1.4.2.6.8 2.7-1.9 5.7-4.6 6.2-3.2.7-5.5-1.2-6.3-3.9-.9-3.2-1.9-6.5-2.8-9.7-2.5-8.7-5-17.4-7.6-26.2-3.8-13-7.5-26-11.3-38.9-4.5-15.7-9.1-31.5-13.6-47.2l-15-51.9c-5-17.4-10.1-34.9-15.1-52.3-4.7-16.3-9.4-32.5-14.1-48.8-4-13.7-7.9-27.5-11.9-41.2-2.9-9.9-5.7-19.8-8.6-29.6-1.3-4.7-2.8-9.3-4.1-14-.1-.2-.1-.4-.2-.6-.8-2.7 1.9-5.7 4.6-6.2 3.2-.7 5.6 1.3 6.3 3.9Z"/><circle cx="762.7" cy="158.5" r="72.5" fill="#948fc4"/><path fill="none" d="M723.1 185.7c-1-.7-1.8-1.3-2.3-1.7.6.5 1.3 1.1 2.3 1.7Zm63.1 15.6c-.8.1-1.6.2-2.3.2.8-.1 1.6-.1 2.3-.2Z"/><path fill="#e6e4e9" fill-rule="nonzero" d="M786.2 201.3c-.8.1-1.6.2-2.3.2-1.2.1-2.3.2-3.5.2-.4 8.4 1.9 15.9 4 20.9.5 1.3 1.1 2.5 1.7 3.6.8-5.1 1.2-9.9 1.4-13.9 1.3 4.4 2.1 9.2 1.6 13.7 2-.8 4-1.7 5.9-2.6-.5-9.3-5-19-7.7-24-.3 1.2-.7 1.8-.7 1.8-.1 0-.2.1-.4.1Zm-54.9-10.6c-5.1 9.7-12.8 16.3-18.7 20.2 8.5 8.1 19.1 14.3 31.3 17.6 12 3.2 24.1 3.2 35.3.6-3.2-6.4-6.7-16.1-6.2-27.2-18-.6-32.4-6.3-41.7-11.2Zm-23.4 14.6c1-.7 2.1-1.4 3.2-2.3 4.3-3.3 10.1-8.6 13.9-16.1-.7-.5-1.3-.9-1.9-1.3-1-.6-1.7-1.2-2.3-1.7-.5-.4-.8-.6-.8-.6s0-.4.2-1.1c-4.9 3.1-13 9-17.8 16.3 1.2 1.8 2.5 3.5 3.8 5.2 1.5-3.3 3.8-6.4 6.4-9.2-1.6 3.2-3.2 6.8-4.7 10.8Z"/><path fill="#635ea8" fill-rule="nonzero" d="M754 189.5c-15.3-4.1-30.4-11-30.2-15.6-2.5 3.6-3.4 6.7-3.7 8.3-.1.7-.2 1.1-.2 1.1s.3.2.8.6c.5.4 1.3 1 2.3 1.7.6.4 1.2.8 1.9 1.3-3.8 7.4-9.6 12.8-13.9 16.1-1.1.9-2.2 1.6-3.2 2.3-.1.1-.1.3-.1.4 1.6 1.8 3.2 3.5 4.9 5.2 5.9-4 13.6-10.6 18.7-20.2 9.3 4.9 23.7 10.7 41.8 11.2-.5 11.1 3 20.8 6.2 27.2 2.2-.5 4.4-1.2 6.6-1.9.1-.3.1-.6.2-.9-.5-1.1-1.1-2.3-1.7-3.6-2.1-5-4.4-12.5-4-20.9 1.1-.1 2.3-.1 3.5-.2.8-.1 1.6-.1 2.3-.2h.4s.3-.6.7-1.8c.5-1.7 1.1-4.6.7-8.3-2.2 3.9-18.7 2.3-34-1.8Z"/><path fill="#635ea8" fill-rule="nonzero" d="M724.6 173.7c-.9 3.3 10.8 10.1 29.6 15.2 18.8 5 32.3 4.9 33.2 1.6.3-1-.7-2.4-2.6-3.9-9.2 3.2-19.5 3.7-29.9 1-10.4-2.8-19.2-8.6-25.6-16-2.7.3-4.4 1-4.7 2.1Z"/><path fill="#948fc4" fill-rule="nonzero" d="M787.4 190.5c-.9 3.3-14.4 3.4-33.2-1.6-18.8-5-30.5-11.9-29.6-15.2.3-1.1 2-1.8 4.7-2.1-.2-.2-.4-.4-.5-.7-2.7.4-4.5 1.2-4.9 2.6 0 .1-.1.3-.1.4-.2 4.7 14.9 11.5 30.2 15.6 15.3 4.1 31.8 5.7 33.9 1.6.1-.1.1-.3.2-.4.3-1.3-.6-2.8-2.5-4.4-.3.1-.5.2-.8.3 2 1.5 2.9 2.9 2.6 3.9Z"/><path fill="#635ea8" fill-rule="nonzero" d="M825.6 157.5c.3-1 .4-2 .5-3v-.7c0-.7 0-1.5-.1-2.2-.1-1-.4-1.9-.7-2.8-.3-.9-.7-1.8-1.2-2.6s-1-1.6-1.7-2.4c-.6-.7-1.3-1.4-2.1-2-.8-.6-1.6-1.1-2.5-1.6-.8-.4-1.7-.8-2.6-1 .7 5.5.4 11.1-1.1 16.7-1.2 4.6-3.2 8.8-5.7 12.6.6.1 1.2.2 1.7.2 1 .1 2 0 3-.1s1.9-.4 2.8-.7c.9-.3 1.8-.7 2.6-1.2s1.6-1 2.4-1.7c.7-.6 1.4-1.3 2-2.1.5-.6.9-1.2 1.2-1.8.1-.2.2-.4.3-.7.6-.9.9-1.9 1.2-2.9Zm-8.4 4.8c-1.5-.4-2.4-1.9-2-3.4.4-1.5 1.9-2.4 3.4-2 1.5.4 2.4 1.9 2 3.4-.4 1.5-1.9 2.4-3.4 2Zm2.1-7.7c-1.5-.4-2.4-1.9-2-3.4.4-1.5 1.9-2.4 3.4-2 1.5.4 2.4 1.9 2 3.4-.4 1.5-1.9 2.4-3.4 2Z"/><path fill="#a37c2c" fill-rule="nonzero" d="M817.8 140.2c.9.4 1.7 1 2.5 1.6.8.6 1.5 1.3 2.1 2 .6.7 1.2 1.5 1.7 2.4.5.8.9 1.7 1.2 2.6.3.9.5 1.9.7 2.8.1.7.1 1.5.1 2.2v-2.7c0-.2-.1-.4-.1-.5v-.2c0-.2-.1-.3-.1-.5 0-.1 0-.1-.1-.2 0-.2-.1-.3-.2-.5 0-.1 0-.1-.1-.2 0-.1-.1-.2-.1-.3 0-.1-.1-.2-.1-.3 0-.1 0-.1-.1-.1-.1-.2-.1-.3-.2-.5 0-.1 0-.1-.1-.2-.1-.2-.1-.3-.2-.5 0-.1-.1-.1-.1-.2-.1-.2-.2-.3-.3-.5l-.1-.1c0-.1-.1-.2-.1-.2 0-.1-.1-.2-.1-.2l-.1-.1c-.1-.2-.2-.3-.3-.5l-.1-.1c-.1-.2-.2-.3-.3-.4l-.1-.1c-.1-.1-.2-.3-.3-.4l-.6-.6c-.1-.1-.2-.3-.4-.4l-.1-.1c-.1-.1-.3-.2-.4-.4l-.1-.1c-.1-.1-.3-.2-.4-.4l-.5-.5c-.1 0-.1-.1-.2-.1-.1-.1-.3-.2-.4-.3-.1 0-.1-.1-.2-.1-.1-.1-.3-.2-.4-.3-.1 0-.1-.1-.2-.1-.2-.1-.3-.2-.5-.3-.1 0-.1-.1-.2-.1-.2-.3-.3-.3-.4-.3-.8-.4-1.7-.8-2.6-1 .9.2 1.8.5 2.6 1Zm3.1 24.8c-.7.6-1.5 1.2-2.4 1.7-.8.5-1.7.9-2.6 1.2-.9.3-1.9.5-2.8.7-1 .1-2 .2-3 .1-.6 0-1.2-.1-1.7-.2.6.1 1.2.2 1.7.2h3.4c.2 0 .3-.1.5-.1h.2c.2 0 .3-.1.5-.1.1 0 .1 0 .2-.1.2 0 .3-.1.5-.1.1 0 .1 0 .2-.1.1 0 .2-.1.3-.1.1 0 .2-.1.3-.1.1 0 .1 0 .2-.1.2-.1.3-.1.5-.2.1 0 .1 0 .2-.1.2-.1.3-.1.5-.2.1 0 .1-.1.2-.1.2-.1.3-.2.5-.3l.1-.1c.1 0 .2-.1.2-.1.1 0 .2-.1.2-.1l.1-.1c.2-.1.3-.2.5-.3.1 0 .1-.1.2-.1.1-.1.3-.2.4-.3l.1-.1c.1-.1.3-.2.4-.3l.1-.1c.2-.2.3-.3.3-.4l.3-.3c.1-.1.3-.2.4-.4l.1-.1c.1-.1.2-.3.4-.4l.1-.1c.1-.1.2-.3.4-.4l.5-.5c0-.1.1-.1.1-.2.1-.1.2-.3.3-.4 0-.1.1-.1.1-.2.1-.1.2-.3.3-.4 0-.1.1-.1.1-.2s.1-.2.1-.2c-.4.6-.8 1.3-1.2 1.8-.6.7-1.2 1.4-2 2Z"/><path fill="#a37c2c" fill-rule="nonzero" d="M826.1 154.5v-.8.8c-.1 1-.2 2-.5 3s-.6 1.9-1.1 2.9c-.1.2-.2.4-.3.7 0-.1.1-.2.1-.2 0-.1.1-.1.1-.2s.1-.2.1-.2c.5-.9.8-1.9 1.1-2.9.3-1 .4-2.1.5-3.1Zm-1.9 6.6Zm1.9-7.3Z"/><circle cx="818" cy="159.6" r="2.8" fill="#e6e4e9"/><circle cx="820" cy="151.9" r="2.8" fill="#e6e4e9"/><path fill="#635ea8" fill-rule="nonzero" d="M721.3 115.2c-1 .1-1.9.4-2.8.7-.9.3-1.8.7-2.6 1.2s-1.6 1-2.4 1.7c-.7.6-1.4 1.3-2 2.1-.6.8-1.1 1.6-1.6 2.5-.5.9-.8 1.9-1.1 2.9-.3 1-.4 2-.5 3-.1 1 0 2 .1 3s.4 1.9.7 2.8c.3.9.7 1.8 1.2 2.6s1 1.6 1.7 2.4c.6.7 1.3 1.4 2.1 2 .8.6 1.6 1.1 2.5 1.6.5.3 1.1.5 1.6.7-.3-4.5.2-9.2 1.4-13.7 1.5-5.6 4-10.7 7.4-15.1-.9-.2-1.8-.4-2.8-.4-1-.2-2-.1-2.9 0Zm-7.6 19.3c-1.5-.4-2.4-1.9-2-3.4.4-1.5 1.9-2.4 3.4-2 1.5.4 2.4 1.9 2 3.4-.5 1.5-2 2.4-3.4 2Zm2-7.6c-1.5-.4-2.4-1.9-2-3.4.4-1.5 1.9-2.4 3.4-2 1.5.4 2.4 1.9 2 3.4-.4 1.5-1.9 2.4-3.4 2Z"/><path fill="#a37c2c" fill-rule="nonzero" d="M716.6 143.6c-.9-.4-1.7-1-2.5-1.6-.8-.6-1.5-1.3-2.1-2-.6-.7-1.2-1.5-1.7-2.4-.5-.8-.9-1.7-1.2-2.6-.3-.9-.5-1.9-.7-2.8-.1-1-.2-2-.1-3s.2-2 .5-3 .6-1.9 1.1-2.9c.4-.9 1-1.7 1.6-2.5.6-.8 1.3-1.5 2-2.1.7-.6 1.5-1.2 2.4-1.7.8-.5 1.7-.9 2.6-1.2.9-.3 1.9-.5 2.8-.7 1-.1 2-.2 3-.1.9.1 1.9.2 2.8.4-.9-.2-1.8-.4-2.8-.4h-3.4c-.2 0-.4.1-.5.1h-.2c-.2 0-.3.1-.5.1-.1 0-.1 0-.2.1-.2 0-.3.1-.5.1-.1 0-.1 0-.2.1-.1 0-.2.1-.3.1-.1 0-.2.1-.3.1-.1 0-.1 0-.2.1-.2.1-.3.1-.5.2-.1 0-.1 0-.2.1-.2.1-.3.1-.5.2-.1 0-.1.1-.2.1-.2.1-.3.2-.5.2-.1 0-.1.1-.2.1s-.2.1-.2.1c-.1 0-.2.1-.2.1-.1 0-.1.1-.1.1-.2.1-.3.2-.5.3-.1 0-.1.1-.2.1-.1.1-.3.2-.4.3-.1 0-.1.1-.2.1-.1.1-.3.2-.4.3l-.6.6c-.1.1-.3.2-.4.4l-.5.5c0 .1-.1.1-.1.2-.1.1-.2.3-.3.4l-.5.5c0 .1-.1.1-.1.2-.1.1-.2.3-.3.4 0 .1-.1.1-.1.2-.1.1-.2.3-.3.4 0 .1-.1.1-.1.2-.1.1-.2.3-.3.5 0 .1-.1.1-.1.2s-.1.2-.1.2c-.5.9-.8 1.9-1.1 2.9-.3 1-.4 2-.5 3v3.4c0 .2.1.3.1.5v.2c0 .2.1.3.1.5 0 .1 0 .1.1.2 0 .2.1.3.1.5 0 .1 0 .1.1.2 0 .1.1.2.1.3 0 .1.1.2.1.3 0 .1 0 .1.1.2.1.2.1.3.2.5 0 .1.1.1.1.2.1.2.1.3.2.5 0 .1.1.1.1.2.1.2.2.3.2.5 0 .1.1.1.1.2s.1.2.1.2c0 .1.1.2.1.2 0 .1.1.1.1.2.1.2.2.3.3.5 0 .1.1.1.1.2.1.1.2.3.3.4 0 .1.1.1.1.2.1.1.2.3.3.4l.6.6c.1.1.2.3.4.4 0 .1.1.1.1.1l.4.4c.1 0 .1.1.2.1.1.1.3.2.4.3.1 0 .1.1.2.1l.4.4c.1 0 .1.1.2.1.1.1.3.2.4.3.1 0 .1.1.2.1.1.1.3.2.4.3.1 0 .1.1.2.1.1.1.3.2.5.3.1 0 .1.1.2.1.2.2.3.3.4.3.5.3 1.1.5 1.6.7-.6-.2-1.1-.4-1.6-.7Z"/><circle cx="714.4" cy="131.8" r="2.8" fill="#e6e4e9"/><circle cx="716.4" cy="124.2" r="2.8" fill="#e6e4e9"/><path fill="#635ea8" fill-rule="nonzero" d="M815.2 139.1c-2.4-18.5-16.4-34.8-36.5-40.2-20.1-5.4-40.4 1.8-51.7 16.6-3.3 4.4-5.9 9.5-7.4 15.1-1.2 4.6-1.7 9.2-1.4 13.7.6 9.7 4.4 19 10.6 26.6.2.2.4.4.5.7 6.4 7.5 15.2 13.2 25.6 16 10.3 2.8 20.7 2.2 29.9-1 .3-.1.5-.2.8-.3 9.3-3.4 17.4-9.6 22.8-17.8 2.5-3.8 4.4-8 5.7-12.6 1.5-5.6 1.8-11.3 1.1-16.8Z"/><path fill="#e6e4e9" fill-rule="nonzero" d="M815.2 139.1c-2.4-18.5-16.4-34.8-36.5-40.2-20.1-5.4-40.4 1.8-51.7 16.6-3.3 4.4-5.9 9.5-7.4 15.1-1.2 4.6-1.7 9.2-1.4 13.7.6 9.7 4.4 19 10.6 26.6.2.2.4.4.5.7 6.4 7.5 15.2 13.2 25.6 16 10.3 2.8 20.7 2.2 29.9-1 .3-.1.5-.2.8-.3 9.3-3.4 17.4-9.6 22.8-17.8 2.5-3.8 4.4-8 5.7-12.6 1.5-5.6 1.8-11.3 1.1-16.8Zm-57.1 36.7c-31.7-8.5-36.2-26.1-31.2-44.9 5-18.8 27.2-29.3 49.5-23.3s36.2 26.1 31.2 44.9c-5 18.8-17.7 31.8-49.5 23.3Zm28 50.4c0 .3-.1.6-.2.9 1.1-.4 2.1-.7 3.1-1.1.4-4.5-.3-9.2-1.6-13.7-.1 4-.5 8.8-1.3 13.9Z"/><path fill="#635ea8" fill-opacity=".15" fill-rule="nonzero" d="M786.1 226.2c0 .3-.1.6-.2.9 1.1-.4 2.1-.7 3.1-1.1.4-4.5-.3-9.2-1.6-13.7-.1 4-.5 8.8-1.3 13.9Z"/><path fill="#e6e4e9" fill-rule="nonzero" d="M712.6 194.6c-2.6 2.8-4.9 5.9-6.4 9.2.5.6 1 1.3 1.6 1.9 0-.1.1-.3.1-.4 1.5-4 3.1-7.6 4.7-10.7Z"/><path fill="#635ea8" fill-opacity=".15" fill-rule="nonzero" d="M712.6 194.6c-2.6 2.8-4.9 5.9-6.4 9.2.5.6 1 1.3 1.6 1.9 0-.1.1-.3.1-.4 1.5-4 3.1-7.6 4.7-10.7Z"/><circle cx="179.2" cy="158.5" r="72.5" fill="#948fc4"/><path fill="none" d="M158.5 201.9c-1.2-.1-2.2-.2-2.8-.3.7.1 1.6.2 2.8.3Zm62.4-18.1c-.6.5-1.3.9-1.9 1.4.7-.5 1.3-.9 1.9-1.4Z"/><path fill="#e6e4e9" fill-rule="nonzero" d="M220.9 183.8c-.6.5-1.3.9-1.9 1.4-1 .7-1.9 1.3-2.9 2 3.8 7.5 9.6 12.8 13.9 16.1 1.1.8 2.2 1.6 3.2 2.3-1.9-4.9-3.9-9.2-5.8-12.7 3.3 3.2 6.4 6.9 8.2 11 1.3-1.7 2.6-3.4 3.8-5.2-5.1-7.8-13.9-13.9-18.7-16.9.3 1.2.3 1.9.3 1.9.1 0 0 0-.1.1Zm-52.8 18.3c.5 10.9-2.9 20.5-6 26.8 11.4 2.8 23.7 2.8 35.9-.4 12-3.2 22.5-9.2 30.9-17.2-5.9-3.9-13.8-10.6-19-20.5-16 8.6-31.4 10.9-41.8 11.3Zm-13 24.4c.5-1.1 1.1-2.3 1.7-3.6 2.1-5 4.4-12.5 4-20.9-.8 0-1.6-.1-2.3-.1-1.2-.1-2.1-.2-2.9-.3-.7-.1-1-.2-1-.2s-.2-.4-.4-1.1c-2.7 5.2-6.8 14.3-7.2 23 1.9 1 3.9 1.8 5.9 2.6-.4-3.6.1-7.5 1-11.2.1 3.6.5 7.6 1.2 11.8Z"/><path fill="#635ea8" fill-rule="nonzero" d="M187.2 189.7c-15.3 4.1-31.8 5.7-33.9 1.6-.4 4.4.4 7.5.9 9.1.2.7.4 1.1.4 1.1s.4.1 1 .2c.7.1 1.6.2 2.8.3.7.1 1.4.1 2.3.1.4 8.3-1.9 15.9-4 20.9-.6 1.3-1.1 2.5-1.7 3.6 0 .1 0 .3.1.4 2.2.8 4.5 1.5 6.9 2 3.1-6.4 6.5-15.9 6-26.8 10.5-.4 25.9-2.6 41.8-11.2 5.1 9.9 13 16.5 19 20.5 1.7-1.6 3.3-3.2 4.8-4.9l-.3-.9c-1-.7-2.1-1.4-3.2-2.3-4.3-3.3-10.1-8.7-13.9-16.1 1-.6 1.9-1.3 2.9-2 .6-.4 1.3-.9 1.9-1.4.1-.1.2-.1.3-.2 0 0 0-.7-.3-1.9-.4-1.7-1.4-4.5-3.6-7.6.1 4.6-15 11.4-30.2 15.5Z"/><path fill="#635ea8" fill-rule="nonzero" d="M153.8 190.7c.9 3.3 14.4 3.4 33.2-1.6 18.8-5 30.5-11.9 29.6-15.2-.3-1-1.8-1.7-4.2-2.1-6.4 7.3-15.1 13-25.4 15.8-10.4 2.8-20.9 2.2-30.2-1.1-2.3 1.6-3.3 3.1-3 4.2Z"/><path fill="#948fc4" fill-rule="nonzero" d="M216.6 173.9c.9 3.3-10.8 10.1-29.6 15.2-18.8 5-32.3 4.9-33.2 1.6-.3-1.1.8-2.5 3-4.2-.3-.1-.5-.2-.8-.3-2.2 1.7-3.3 3.3-2.9 4.7 0 .1.1.3.2.4 2.1 4.2 18.6 2.5 33.9-1.6 15.3-4.1 30.4-10.9 30.2-15.6 0-.2 0-.3-.1-.4-.3-1.3-1.9-2.1-4.4-2.5-.2.2-.4.4-.5.6 2.4.3 3.9 1 4.2 2.1Z"/><path fill="#635ea8" fill-rule="nonzero" d="M233.2 126.2c-.3-1-.6-1.9-1.1-2.9-.1-.2-.2-.4-.3-.7-.4-.6-.8-1.3-1.2-1.8-.6-.8-1.3-1.5-2-2.1-.7-.6-1.5-1.2-2.4-1.7-.8-.5-1.7-.9-2.6-1.2-.9-.3-1.9-.5-2.8-.7-1-.1-2-.2-3-.1-.9.1-1.9.2-2.8.4 3.3 4.4 5.9 9.5 7.4 15.1 1.2 4.6 1.7 9.2 1.4 13.7.6-.2 1.1-.4 1.6-.7.9-.4 1.7-1 2.5-1.6.8-.6 1.5-1.3 2.1-2 .6-.7 1.2-1.5 1.7-2.4.5-.8.9-1.7 1.2-2.6.3-.9.5-1.9.7-2.8.1-.7.1-1.5.1-2.2v-.7c-.1-1-.3-2-.5-3Zm-4.9 8.3c-1.5.4-3-.5-3.4-2-.4-1.5.5-3 2-3.4 1.5-.4 3 .5 3.4 2 .3 1.5-.6 3-2 3.4Zm-2.1-7.6c-1.5.4-3-.5-3.4-2-.4-1.5.5-3 2-3.4 1.5-.4 3 .5 3.4 2 .4 1.5-.5 3-2 3.4Z"/><path fill="#a37c2c" fill-rule="nonzero" d="M217.7 115.1c1-.1 2 0 3 .1s1.9.4 2.8.7c.9.3 1.8.7 2.6 1.2s1.6 1 2.4 1.7c.7.6 1.4 1.3 2 2.1.5.6.9 1.2 1.2 1.8 0-.1-.1-.2-.1-.2 0-.1-.1-.1-.1-.2-.1-.2-.2-.3-.3-.4 0-.1-.1-.1-.1-.2-.1-.1-.2-.3-.3-.4 0-.1-.1-.1-.1-.2l-.5-.5c-.1-.1-.2-.3-.4-.4l-.1-.1c-.1-.1-.2-.3-.4-.4l-1.1-1.1c-.1-.1-.3-.2-.4-.3l-.1-.1c-.1-.1-.3-.2-.4-.3-.1 0-.1-.1-.2-.1-.2-.1-.3-.2-.5-.3l-.1-.1c-.1 0-.2-.1-.2-.1-.1 0-.2-.1-.2-.1l-.1-.1c-.2-.1-.3-.2-.5-.3-.1 0-.1-.1-.2-.1-.2-.1-.3-.2-.5-.2-.1 0-.1 0-.2-.1-.2-.1-.3-.1-.5-.2-.1 0-.1 0-.2-.1-.1 0-.2-.1-.3-.1-.1 0-.2-.1-.3-.1-.1 0-.1 0-.2-.1-.2-.1-.3-.1-.5-.2-.1 0-.1 0-.2-.1-.2 0-.3-.1-.5-.1h-.2c-.2 0-.4-.1-.5-.1h-3.1c-.2-.2-.3-.2-.4-.2-.9.1-1.9.2-2.8.4.9-.2 1.9-.4 2.8-.4Zm15.2 20c-.3.9-.7 1.8-1.2 2.6s-1 1.6-1.7 2.4c-.6.7-1.3 1.4-2.1 2-.8.6-1.6 1.1-2.5 1.6-.5.3-1.1.5-1.6.7.6-.2 1.1-.4 1.6-.7.1 0 .2-.1.2-.1.1 0 .1-.1.2-.1.2-.1.3-.2.5-.3.1 0 .1-.1.2-.1.1-.1.3-.2.4-.3.1 0 .1-.1.2-.1.1-.1.3-.2.4-.3.1 0 .1-.1.2-.1l.5-.5c.1-.1.3-.2.4-.3.1 0 .1-.1.2-.1.1-.1.3-.2.4-.4l.1-.1c.1-.1.2-.3.4-.4l.6-.6c.1-.1.2-.3.3-.4l.1-.1c.1-.1.2-.3.3-.4 0-.1.1-.1.1-.2.1-.2.2-.3.3-.5l.1-.1c0-.1.1-.2.1-.2 0-.1.1-.2.1-.2 0-.1.1-.1.1-.1.1-.2.2-.3.2-.5 0-.1.1-.1.1-.2.1-.2.2-.3.2-.5 0-.1 0-.1.1-.2.1-.2.1-.3.2-.5 0-.1 0-.1.1-.2.1-.4.1-.5.2-.5 0-.1.1-.2.1-.3 0-.1 0-.1.1-.2.1-.2.1-.3.2-.5 0-.1 0-.1.1-.2 0-.2.1-.3.1-.5v-.2c0-.2.1-.4.1-.5V130c0 .7 0 1.5-.1 2.2-.1 1-.3 1.9-.6 2.9Zm-.8-11.7c0-.1-.1-.2-.1-.2 0-.1-.1-.1-.1-.2s-.1-.2-.1-.2c0 .1.2.4.3.6.4.9.8 1.9 1.1 2.9.3 1 .4 2 .5 3v.7-.8c-.1-1-.2-2-.5-3s-.7-1.9-1.1-2.8Zm1.6 6.6Zm-2-7.3Z"/><circle cx="227.5" cy="131.8" r="2.8" fill="#e6e4e9"/><circle cx="225.5" cy="124.2" r="2.8" fill="#e6e4e9"/><path fill="#635ea8" fill-rule="nonzero" d="M121.6 141.7c-.8.6-1.5 1.3-2.1 2-.6.7-1.2 1.5-1.7 2.4-.5.8-.9 1.7-1.2 2.6-.3.9-.5 1.9-.7 2.8-.1 1-.2 2-.1 3s.2 2 .5 3 .6 1.9 1.1 2.9c.4.9 1 1.7 1.6 2.5.6.8 1.3 1.5 2 2.1.7.6 1.5 1.2 2.4 1.7.8.5 1.7.9 2.6 1.2.9.3 1.9.5 2.8.7 1 .1 2 .2 3 .1.6 0 1.2-.1 1.7-.2-2.5-3.8-4.4-8-5.7-12.6-1.5-5.6-1.8-11.3-1.1-16.7-.9.3-1.8.6-2.6 1-.9.4-1.7.9-2.5 1.5Zm3.1 20.6c-1.5.4-3-.5-3.4-2-.4-1.5.5-3 2-3.4 1.5-.4 3 .5 3.4 2 .3 1.5-.5 3-2 3.4Zm-2.1-7.7c-1.5.4-3-.5-3.4-2-.4-1.5.5-3 2-3.4 1.5-.4 3 .5 3.4 2 .4 1.5-.5 3-2 3.4Z"/><path fill="#a37c2c" fill-rule="nonzero" d="M131.8 168.7c-1 .1-2 0-3-.1s-1.9-.4-2.8-.7c-.9-.3-1.8-.7-2.6-1.2s-1.6-1-2.4-1.7c-.7-.6-1.4-1.3-2-2.1-.6-.8-1.1-1.6-1.6-2.5-.5-.9-.8-1.9-1.1-2.9-.3-1-.4-2-.5-3-.1-1 0-2 .1-3s.4-1.9.7-2.8c.3-.9.7-1.8 1.2-2.6s1-1.6 1.7-2.4c.6-.7 1.3-1.4 2.1-2 .8-.6 1.6-1.1 2.5-1.6.8-.4 1.7-.8 2.6-1-.9.3-1.8.6-2.6 1-.1 0-.2.1-.2.1-.1 0-.1.1-.2.1-.2.1-.3.2-.5.3-.1 0-.1.1-.2.1-.1.1-.3.2-.4.3-.1 0-.1.1-.2.1-.1.1-.3.2-.4.3-.1 0-.1.1-.2.1l-.5.5c-.1.1-.3.2-.4.3-.1 0-.1.1-.2.1-.1.1-.3.2-.4.4l-.1.1c-.1.1-.2.3-.4.4l-.6.6c-.1.1-.2.3-.3.4 0 .1-.1.1-.1.2-.1.1-.2.3-.3.4 0 .1-.1.1-.1.2-.1.2-.2.3-.3.5l-.1.1c0 .1-.1.2-.1.2 0 .1-.1.2-.1.2 0 .1-.1.1-.1.2-.1.2-.2.3-.2.5 0 .1-.1.1-.1.2-.1.2-.2.3-.2.5 0 .1-.1.1-.1.2-.1.2-.1.3-.2.5 0 .1 0 .1-.1.2 0 .1-.1.2-.1.3 0 .1-.1.2-.1.3 0 .1 0 .1-.1.2-.1.2-.1.3-.1.5 0 .1 0 .1-.1.2 0 .2-.1.3-.1.5v.2c0 .2-.1.3-.1.5v3.4c.1 1 .2 2 .5 3s.6 2 1.1 2.9c0 .1.1.2.1.2 0 .1.1.1.1.2.1.2.2.3.3.5 0 .1.1.1.1.2.1.1.2.3.3.4 0 .1.1.1.1.2.1.1.2.3.3.4 0 .1.1.1.1.2l.4.4c0 .1.1.1.1.2.1.1.2.3.3.4 0 .1.1.1.1.2.1.1.2.3.4.4 0 .1.1.1.1.1.1.1.3.2.4.4l.6.6c.1.1.3.2.4.3.1 0 .1.1.2.1.1.1.3.2.4.3.1 0 .1.1.2.1.1.1.3.2.5.3.1 0 .1.1.2.1s.2.1.2.1c.1 0 .2.1.2.1.1 0 .1.1.2.1.2.1.3.2.5.2.1 0 .1.1.2.1.2.1.3.1.5.2.1 0 .1.1.2.1.2.1.3.1.5.2.1 0 .1 0 .2.1.1 0 .2.1.3.1.1 0 .2.1.3.1.1 0 .1 0 .2.1.2.1.3.1.5.1.1 0 .1 0 .2.1.2 0 .3.1.5.1h.2c.2 0 .3.1.5.1h3.1c-.3.2-.2.2-.1.2.6 0 1.2-.1 1.7-.2-.6.1-1.2.2-1.7.2Z"/><circle cx="124" cy="159.6" r="2.8" fill="#e6e4e9"/><circle cx="121.9" cy="151.9" r="2.8" fill="#e6e4e9"/><path fill="#635ea8" fill-rule="nonzero" d="M214.9 115.5c-11.3-14.8-31.6-22-51.7-16.6-20.1 5.4-34.1 21.8-36.5 40.2-.7 5.5-.4 11.1 1.1 16.7 1.2 4.6 3.2 8.8 5.7 12.6 5.3 8.1 13.3 14.2 22.5 17.7.3.1.5.2.8.3 9.3 3.3 19.7 3.9 30.2 1.1 10.3-2.8 19-8.4 25.4-15.8.2-.2.4-.4.5-.6 6.4-7.6 10.3-17 10.8-26.8.3-4.5-.2-9.2-1.4-13.7-1.5-5.6-4-10.7-7.4-15.1Z"/><path fill="#e6e4e9" fill-rule="nonzero" d="M214.9 115.5c-11.3-14.8-31.6-22-51.7-16.6-20.1 5.4-34.1 21.8-36.5 40.2-.7 5.5-.4 11.1 1.1 16.7 1.2 4.6 3.2 8.8 5.7 12.6 5.3 8.1 13.3 14.2 22.5 17.7.3.1.5.2.8.3 9.3 3.3 19.7 3.9 30.2 1.1 10.3-2.8 19-8.4 25.4-15.8.2-.2.4-.4.5-.6 6.4-7.6 10.3-17 10.8-26.8.3-4.5-.2-9.2-1.4-13.7-1.5-5.6-4-10.7-7.4-15.1Zm-31.1 60.3c-31.7 8.5-44.4-4.5-49.5-23.3-5.1-18.9 8.9-39 31.2-44.9 22.3-6 44.4 4.5 49.5 23.3 5 18.8.6 36.4-31.2 44.9Zm49.5 29.7.3.9c.7-.8 1.4-1.7 2.1-2.6-1.9-4.1-4.9-7.8-8.2-11 1.9 3.5 3.9 7.8 5.8 12.7Z"/><path fill="#635ea8" fill-opacity=".15" fill-rule="nonzero" d="m233.3 205.5.3.9c.7-.8 1.4-1.7 2.1-2.6-1.9-4.1-4.9-7.8-8.2-11 1.9 3.5 3.9 7.8 5.8 12.7Z"/><path fill="#e6e4e9" fill-rule="nonzero" d="M153.8 214.8c-.9 3.7-1.3 7.6-1 11.2.8.3 1.5.6 2.3.9 0-.1 0-.3-.1-.4-.6-4.2-1-8.2-1.2-11.7Z"/><path fill="#635ea8" fill-opacity=".15" fill-rule="nonzero" d="M153.8 214.8c-.9 3.7-1.3 7.6-1 11.2.8.3 1.5.6 2.3.9 0-.1 0-.3-.1-.4-.6-4.2-1-8.2-1.2-11.7Z"/><path fill="#60b491" fill-rule="nonzero" d="M837.209 491.14c86.574 197.534 3.97 430.511-191.202 528.239-201.41 100.751-446.484 19.186-547.236-182.318-56.236-112.283-55.764-238.175-9.357-345.07"/><path fill="#3c6158" fill-opacity=".14" fill-rule="nonzero" d="M631.735 799.066c-199.613 80.054-426.353-16.823-506.5-216.437-9.546-23.723-16.351-47.824-20.983-72.02-33.174 87.993-35.159 187.989 2.647 282.125 80.053 199.614 306.887 296.585 506.5 216.437 175.891-70.602 271.917-254.999 237.42-434.48-37.144 98.577-113.606 182.033-219.084 224.375Z"/><g fill-rule="nonzero"><path fill="#3c6158" d="M153.116 603.706c.378 0 .85 0 1.229.094-.378 0-.756 0-1.229-.094Zm-1.701 0h-.567.567Zm36.199 84.212a49.632 49.632 0 0 1-22.305 13.61c20.793-6.049 36.01-25.235 36.01-47.919 0-5.765-.946-11.247-2.742-16.445-1.04-1.607-28.26-45.272-79.864-21.171 6.049-5.293 13.232-8.979 20.982-10.87-21.927 5.293-38.183 24.952-38.183 48.486 0 4.537.567 8.885 1.7 12.949.568 1.228 27.315 57.748 84.402 21.36Zm-41.492-83.928c.378 0 .85-.095 1.229-.095-.378 0-.756 0-1.229.095Z"/><path fill="#3c6158" d="M165.309 701.528c-.757.189-1.607.473-2.363.662.756-.19 1.606-.473 2.363-.662Zm-22.117-97.16 1.702-.284-1.702.284Zm24.574 2.079c.756.283 1.418.567 2.174.85-.756-.283-1.418-.567-2.174-.85Zm2.741 1.04 2.552 1.134c-.85-.378-1.607-.756-2.552-1.134Zm-14.744-3.592c.567.095 1.134.095 1.7.189-.566-.094-1.133-.094-1.7-.189Zm2.741.284c.85.094 1.795.283 2.646.472-.85-.189-1.796-.283-2.646-.472Zm6.143 1.323c.85.189 1.607.472 2.457.756-.85-.284-1.606-.567-2.457-.756Zm-60.017 65.403c-.094-.189-.094-.378-.188-.567 0 .284.094.378.189.567Zm35.443-65.875c.756-.19 1.418-.284 2.174-.473-.661.094-1.418.283-2.174.472Zm-.567 97.065c-.283-.094-.661-.189-.945-.189.378 0 .662.095.945.189Zm2.08.473c-.284-.095-.473-.095-.757-.19.284.095.567.095.757.19Zm-7.278-2.08h-.095.095Zm2.362.851c-.094 0-.283-.095-.377-.095.189 0 .283 0 .378.095Zm-32.796-32.419c-.094-.188-.189-.472-.189-.661.095.19.19.378.19.662Zm57.181 33.648c.284-.095.567-.095.851-.19-.284.095-.567.095-.85.19Zm-54.629-27.315s0-.094-.094-.094c.094 0 .094.094.094.094Zm-.85-1.985c-.095-.094-.095-.189-.19-.378 0 .095.095.284.19.378Zm55.668-68.617c1.04.19 1.985.473 3.025.662-1.04-.19-1.985-.473-3.025-.662Zm26.842 15.122c.567.567 1.04 1.135 1.607 1.796-.567-.661-1.134-1.229-1.607-1.796Zm-5.009-4.725Zm6.711 6.71c.661.756 1.228 1.512 1.795 2.268-.567-.756-1.134-1.512-1.795-2.268Zm5.103 7.372Zm-8.695-11.247 1.04 1.04c-.284-.378-.662-.662-1.04-1.04Zm-12.286-8.79c.566.284 1.039.567 1.512.85-.473-.377-.946-.566-1.513-.85Zm10.396 6.994c.283.284.661.567.945.85-.284-.283-.662-.566-.945-.85Zm-5.198-3.969.85.567c-.283-.19-.567-.378-.85-.567Zm-2.363-1.513c.378.19.756.379 1.04.662a6.357 6.357 0 0 0-1.04-.662Zm16.635 16.068c.472.756 1.039 1.607 1.417 2.363-.378-.85-.85-1.607-1.418-2.363Zm-1.702-2.552c.567.756 1.134 1.512 1.607 2.363-.567-.85-1.04-1.607-1.607-2.363Z"/><path fill="#324e48" fill-opacity=".75" d="M164.363 605.407h-.094c.094 0 .283.095.378.095-.095 0-.19-.095-.284-.095Zm13.421 5.86c.473.284.851.567 1.324.85-.473-.283-.851-.566-1.324-.85Zm-7.844-3.969c.189.094.472.189.661.283-.283-.189-.472-.189-.661-.283Zm-22.495-3.403c1.135-.095 2.269-.189 3.403-.189-1.134 0-2.268.094-3.403.189Zm28.071 5.955c.378.188.85.472 1.229.755-.473-.283-.85-.472-1.229-.756Zm-2.457-1.23c.283.095.567.284.85.473-.283-.189-.567-.283-.85-.472Zm-21.549-4.914h1.7-1.7Zm2.835.094c.472 0 .945.095 1.418.095-.473 0-.946-.095-1.418-.095Zm6.805.851h.094-.094Zm-3.686-.567c.378 0 .661.095 1.04.095-.379 0-.662-.095-1.04-.095Zm9.64 2.174c.19.094.473.189.662.189-.284-.095-.473-.095-.662-.19Zm26.181 20.226c0 .094.094.094.094.189 0-.095-.094-.19-.094-.19Zm-1.702-2.458c.095 0 .095.095 0 0 .095.095.095 0 0 0Zm3.308 5.01s0 .094 0 0c0 .094 0 0 0 0Zm-14.933-16.351c1.04.756 2.174 1.512 3.214 2.363-1.04-.851-2.174-1.607-3.214-2.363Zm9.641 8.885c.094.094.094.188.189.188a.203.203 0 0 0-.19-.189Zm-2.269-2.647c.284.283.473.567.756.756a2.877 2.877 0 0 1-.756-.756Zm-4.158-3.781c.378.284.756.662 1.134 1.04-.378-.378-.756-.756-1.134-1.04Zm15.405 22.116c0-.094-.094-.189-.094-.283 0 .094 0 .189.094.283Zm-13.326-20.32c.378.283.662.662.945.945-.283-.378-.661-.662-.945-.945Zm-40.357-12.759c.378-.095.85-.095 1.228-.19-.378 0-.756.095-1.228.19Zm-5.199.945c.095 0 .284-.095.378-.095-.094 0-.283 0-.378.095Zm2.647-.567c.283-.095.567-.095.945-.19-.378.095-.662.095-.945.19Z"/><path fill="#3c6158" d="M198.577 637.164c0-.095-.094-.19-.094-.284a45.404 45.404 0 0 0-3.592-7.844v-.095a52.033 52.033 0 0 0-1.417-2.363c0-.094-.095-.094-.095-.189a34.83 34.83 0 0 0-1.607-2.363v-.094c-.567-.756-1.134-1.512-1.795-2.268-.095-.095-.095-.19-.19-.19a27.481 27.481 0 0 0-1.606-1.795c-.284-.284-.473-.567-.756-.756l-1.985-1.985c-.284-.284-.662-.567-.945-.85-.378-.379-.756-.662-1.134-1.04a40.159 40.159 0 0 0-3.214-2.363c-.283-.19-.567-.378-.85-.567-.473-.284-.851-.567-1.324-.85-.378-.19-.661-.473-1.04-.663-.377-.283-.85-.472-1.228-.756-.472-.283-1.04-.567-1.512-.85-.284-.19-.567-.284-.85-.473l-2.553-1.134a4.608 4.608 0 0 0-.661-.284c-.756-.283-1.418-.567-2.174-.85-.19-.095-.473-.19-.662-.19-.85-.283-1.606-.472-2.457-.755-.095 0-.284-.095-.378-.095a34.817 34.817 0 0 0-3.025-.661h-.094c-.85-.19-1.796-.284-2.646-.473-.379-.094-.662-.094-1.04-.094-.567-.095-1.134-.095-1.701-.19-.473 0-.945-.094-1.418-.094-.378 0-.85 0-1.229-.095h-2.363c-1.134 0-2.268.095-3.402.19-.378 0-.85.094-1.229.094-.378 0-.85.095-1.228.189l-1.702.284c-.283.094-.567.094-.945.189-.756.094-1.512.283-2.174.472-.094 0-.283.095-.378.095-7.75 1.89-14.933 5.67-20.982 10.869 51.416-24.007 78.636 19.564 79.675 21.17Z"/><path fill="#324e48" fill-opacity=".75" d="M198.577 637.164c0-.095-.094-.19-.094-.284a45.404 45.404 0 0 0-3.592-7.844v-.095a52.033 52.033 0 0 0-1.417-2.363c0-.094-.095-.094-.095-.189a34.83 34.83 0 0 0-1.607-2.363v-.094c-.567-.756-1.134-1.512-1.795-2.268-.095-.095-.095-.19-.19-.19a27.481 27.481 0 0 0-1.606-1.795c-.284-.284-.473-.567-.756-.756l-1.985-1.985c-.284-.284-.662-.567-.945-.85-.378-.379-.756-.662-1.134-1.04a40.159 40.159 0 0 0-3.214-2.363c-.283-.19-.567-.378-.85-.567-.473-.284-.851-.567-1.324-.85-.378-.19-.661-.473-1.04-.663-.377-.283-.85-.472-1.228-.756-.472-.283-1.04-.567-1.512-.85-.284-.19-.567-.284-.85-.473l-2.553-1.134a4.608 4.608 0 0 0-.661-.284c-.756-.283-1.418-.567-2.174-.85-.19-.095-.473-.19-.662-.19-.85-.283-1.606-.472-2.457-.755-.095 0-.284-.095-.378-.095a34.817 34.817 0 0 0-3.025-.661h-.094c-.85-.19-1.796-.284-2.646-.473-.379-.094-.662-.094-1.04-.094-.567-.095-1.134-.095-1.701-.19-.473 0-.945-.094-1.418-.094-.378 0-.85 0-1.229-.095h-2.363c-1.134 0-2.268.095-3.402.19-.378 0-.85.094-1.229.094-.378 0-.85.095-1.228.189l-1.702.284c-.283.094-.567.094-.945.189-.756.094-1.512.283-2.174.472-.094 0-.283.095-.378.095-7.75 1.89-14.933 5.67-20.982 10.869 51.416-24.007 78.636 19.564 79.675 21.17Z"/><path fill="#bab1cb" fill-opacity=".25" d="M140.83 702.379c-.473-.095-.851-.19-1.324-.284.473.095.945.19 1.323.284Zm-34.404-27.22c-.283-.662-.567-1.23-.85-1.89.189.66.472 1.228.85 1.89Zm56.52 27.031c-.378.094-.662.189-1.04.283.284-.189.662-.189 1.04-.283Zm-19.186.756c-.757-.095-1.418-.284-2.174-.378.756.094 1.512.283 2.173.378Zm-5.293-1.134h.189a47.751 47.751 0 0 1-1.89-.568c.472.284 1.133.378 1.7.568Zm-2.174-.662c-.662-.19-1.323-.473-1.985-.662.662.284 1.323.473 1.985.662Zm-30.906-28.26c-.284-.661-.567-1.323-.756-1.985.189.662.472 1.324.756 1.985Zm38.467 30.056c5.86.945 11.625.756 17.201-.378-3.119.567-6.332.945-9.64.945-2.552 0-5.104-.19-7.561-.567Zm-37.428-27.693c5.482 11.342 15.217 20.604 27.787 25.235-12.192-4.536-22.116-13.61-27.787-25.235Zm-3.213-8.695c.189.567.283 1.134.472 1.701-.189-.567-.283-1.134-.472-1.701Zm1.229 3.875a9.29 9.29 0 0 1-.473-1.512c.094.472.283.945.473 1.512Z"/><path fill="#3c6158" d="M162.946 702.19c.85-.19 1.606-.378 2.363-.662 8.506-2.457 16.161-7.183 22.305-13.61-57.087 36.388-83.834-20.132-84.401-21.36.189.567.283 1.134.472 1.607.095.189.19.472.19.661.188.473.283 1.04.472 1.512.095.19.095.378.189.567.284.662.473 1.324.756 1.985.095.095.095.19.19.378.283.662.566 1.323.85 1.89 0 0 0 .095.094.095 5.577 11.625 15.595 20.699 27.787 25.235h.095c.662.284 1.323.473 1.985.662.094 0 .283.094.378.094.661.19 1.323.378 1.89.568.284.094.662.189.945.189.473.094.85.189 1.323.283.284.095.473.095.757.19.756.188 1.417.283 2.173.377h.095c2.457.378 5.01.567 7.561.567 3.308 0 6.521-.283 9.64-.945.284-.094.567-.094.851-.189.284 0 .662 0 1.04-.094Z"/><path fill="#bab1cb" fill-opacity=".25" d="M162.946 702.19c.85-.19 1.606-.378 2.363-.662 8.506-2.457 16.161-7.183 22.305-13.61-57.087 36.388-83.834-20.132-84.401-21.36.189.567.283 1.134.472 1.607.095.189.19.472.19.661.188.473.283 1.04.472 1.512.095.19.095.378.189.567.284.662.473 1.324.756 1.985.095.095.095.19.19.378.283.662.566 1.323.85 1.89 0 0 0 .095.094.095 5.577 11.625 15.595 20.699 27.787 25.235h.095c.662.284 1.323.473 1.985.662.094 0 .283.094.378.094.661.19 1.323.378 1.89.568.284.094.662.189.945.189.473.094.85.189 1.323.283.284.095.473.095.757.19.756.188 1.417.283 2.173.377h.095c2.457.378 5.01.567 7.561.567 3.308 0 6.521-.283 9.64-.945.284-.094.567-.094.851-.189.284 0 .662 0 1.04-.094Z"/><path fill="#3c6158" d="M616.896 814.567v.094c.095 0 .095-.094 0-.094Z"/><path fill="#3c6158" d="M617.085 814.945c-.472-.85-13.42-21.36-37.805-10.208-5.104 4.348-8.317 10.775-8.317 18.052 0 2.174.283 4.348.85 6.427 1.323 2.741 14.083 26.275 39.98 10.019 4.064-4.253 6.616-10.019 6.616-16.351 0-2.835-.473-5.482-1.324-7.94Z"/><path fill="#324e48" fill-opacity=".75" d="M616.896 814.567a23.737 23.737 0 0 0-16.067-14.744c-7.94-2.08-15.973 0-21.738 5.009.094 0 .094-.095.189-.095 4.158-3.497 9.546-5.67 15.406-5.67a23.603 23.603 0 0 1 22.21 15.5Zm.189.378c0-.095-.094-.19-.094-.284 0 .095 0 .19.094.284Z"/><path fill="#3c6158" d="M617.085 814.945c0-.095-.094-.19-.094-.284v-.094a23.603 23.603 0 0 0-22.21-15.5c-5.86 0-11.248 2.173-15.407 5.67 24.29-11.152 37.144 9.357 37.711 10.208Z"/><path fill="#324e48" fill-opacity=".75" d="M617.085 814.945c0-.095-.094-.19-.094-.284v-.094a23.603 23.603 0 0 0-22.21-15.5c-5.86 0-11.248 2.173-15.407 5.67 24.29-11.152 37.144 9.357 37.711 10.208Z"/><path fill="#bab1cb" fill-opacity=".25" d="M594.686 846.512c-10.87 0-20.037-7.372-22.873-17.296-.094-.189-.094-.283-.094-.283 2.174 7.939 8.317 14.555 16.823 16.823 8.696 2.363 17.58-.472 23.345-6.616h-.094c-4.253 4.537-10.397 7.372-17.107 7.372Z"/><path fill="#3c6158" d="M571.813 829.216c2.836 10.019 12.004 17.296 22.873 17.296 6.71 0 12.854-2.835 17.107-7.372-25.897 16.351-38.562-7.183-39.98-9.924Z"/><path fill="#bab1cb" fill-opacity=".25" d="M571.813 829.216c2.836 10.019 12.004 17.296 22.873 17.296 6.71 0 12.854-2.835 17.107-7.372-25.897 16.351-38.562-7.183-39.98-9.924Z"/><path fill="#3c6158" d="M661.885 574.88c-.094-.095-.189-.284-.189-.379 0 .19.095.284.19.378Zm48.391-26.465c.095.095.095.19.19.378 0-.189-.095-.283-.19-.378Zm-49.903 23.345c-.095-.378-.284-.661-.378-1.04.189.379.283.757.378 1.04Zm.85 1.89c-.189-.472-.378-.85-.567-1.323.19.473.378.851.567 1.324Zm-1.323-3.402c-.094-.378-.283-.756-.378-1.134.095.378.19.756.378 1.134Zm2.552 5.765s0-.094 0 0c0-.094 0 0 0 0Z"/><path fill="#3c6158" d="M705.74 581.023c4.914-5.01 7.939-11.815 7.939-19.376 0-3.213-.567-6.332-1.607-9.168-.945-1.512-15.878-24.573-43.854-11.908-5.955 5.103-9.83 12.664-9.83 21.076 0 2.458.378 4.915.945 7.183.567 1.04 15.217 31.568 46.407 12.193Zm3.875-33.742c0 .095.094.19.094.19 0-.095 0-.19-.094-.19Z"/><path fill="#324e48" fill-opacity=".75" d="M709.615 547.281c-3.592-5.86-9.263-10.396-16.446-12.381a27.644 27.644 0 0 0-25.33 5.86c.19-.095.284-.095.473-.19 4.82-4.063 11.058-6.52 17.769-6.52 9.924 0 18.713 5.292 23.534 13.231Zm2.552 5.293a27.17 27.17 0 0 0-1.702-3.78 19.875 19.875 0 0 1 1.702 3.78Zm-2.363-5.104c.189.284.378.662.567.945a2.518 2.518 0 0 1-.567-.945Z"/><path fill="#3c6158" d="M712.072 552.48c-.473-1.324-1.04-2.552-1.607-3.781-.094-.095-.094-.19-.189-.378-.189-.284-.378-.662-.567-.945 0-.095-.094-.19-.094-.19-4.82-7.939-13.61-13.231-23.534-13.231-6.805 0-12.949 2.457-17.769 6.521 27.976-12.57 42.91 10.491 43.76 12.003Z"/><path fill="#324e48" fill-opacity=".75" d="M712.072 552.48c-.473-1.324-1.04-2.552-1.607-3.781-.094-.095-.094-.19-.189-.378-.189-.284-.378-.662-.567-.945 0-.095-.094-.19-.094-.19-4.82-7.939-13.61-13.231-23.534-13.231-6.805 0-12.949 2.457-17.769 6.521 27.976-12.57 42.91 10.491 43.76 12.003Z"/><path fill="#bab1cb" fill-opacity=".25" d="M686.08 589.245c-10.018 0-18.713-5.292-23.628-13.232 3.592 5.86 9.263 10.491 16.54 12.382 10.113 2.74 20.51-.567 27.22-7.656-.189.095-.378.19-.472.284a27.485 27.485 0 0 1-19.66 8.222Zm-26.085-18.43c-.095-.189-.095-.378-.19-.472a.722.722 0 0 1 .19.472Zm2.457 5.104c-.189-.378-.378-.662-.567-1.04.19.378.378.756.567 1.04Zm-1.796-3.592c-.094-.189-.094-.378-.189-.567 0 .19.095.378.19.567Zm1.04 2.174c-.189-.283-.283-.567-.473-.85.095.283.284.567.473.85Zm-2.268-5.671c0 .095.094.19.094.284 0-.095-.094-.19-.094-.284Z"/><path fill="#3c6158" d="M659.428 568.83c0 .095 0 .19.094.19.095.377.19.755.378 1.134.095.189.095.378.19.472.094.378.283.662.377 1.04.095.189.095.378.19.567.188.472.377.85.566 1.323.19.284.284.567.473.85.095.095.095.284.19.379.188.378.377.661.566 1.04 4.82 7.939 13.61 13.231 23.629 13.231 7.655 0 14.65-3.119 19.659-8.222-31.19 19.564-45.84-10.964-46.312-12.004Z"/><path fill="#bab1cb" fill-opacity=".25" d="M659.428 568.83c0 .095 0 .19.094.19.095.377.19.755.378 1.134.095.189.095.378.19.472.094.378.283.662.377 1.04.095.189.095.378.19.567.188.472.377.85.566 1.323.19.284.284.567.473.85.095.095.095.284.19.379.188.378.377.661.566 1.04 4.82 7.939 13.61 13.231 23.629 13.231 7.655 0 14.65-3.119 19.659-8.222-31.19 19.564-45.84-10.964-46.312-12.004Z"/><path fill="#3c6158" d="M578.335 929.401c0 1.04.189 1.985.378 3.025.472.85 6.616 13.043 19.47 4.82-2.836 2.93-7.089 4.348-11.342 3.213-3.97-1.134-6.994-4.158-8.034-7.939 1.323 4.915 5.766 8.412 11.058 8.412 6.333 0 11.531-5.198 11.531-11.53 0-3.781-1.796-7.184-4.631-9.263 1.89 1.418 3.213 3.308 3.97 5.482 0 0-6.333-10.586-18.43-4.915-2.458 2.08-3.97 5.198-3.97 8.695Zm13.421-11.341c.283 0 .567.094.85.189-.283-.095-.567-.19-.85-.19Zm-9.452 2.646c.19-.19.473-.378.756-.567-.283.189-.472.378-.756.567Z"/><path fill="#3c6158" d="M592.984 918.343c1.418.378 2.647 1.04 3.686 1.796-1.134-.85-2.362-1.418-3.686-1.796Zm-2.079-.378h.19-.19Z"/><path fill="#324e48" fill-opacity=".75" d="M590.905 917.965a11.29 11.29 0 0 0-7.845 2.174 11.323 11.323 0 0 1 6.805-2.268c.378 0 .757 0 1.04.094Zm.189 0c.19 0 .473.095.662.095-.19-.095-.473-.095-.662-.095Zm1.701.284h-.189c.095 0 .284.094.378.094-.094-.094-.094-.094-.189-.094Z"/><path fill="#3c6158" d="M600.735 925.62c-.757-2.173-2.174-4.063-3.97-5.481 0 0-.095 0-.095-.095a12.16 12.16 0 0 0-3.686-1.795c-.094 0-.283-.095-.378-.095-.283-.094-.567-.094-.85-.189-.19 0-.473-.094-.662-.094h-.189c-.378 0-.662-.095-1.04-.095-2.551 0-4.914.85-6.805 2.268-.283.19-.472.378-.756.567 12.098-5.576 18.43 5.01 18.43 5.01Z"/><path fill="#324e48" fill-opacity=".75" d="M600.735 925.62c-.757-2.173-2.174-4.063-3.97-5.481 0 0-.095 0-.095-.095a12.16 12.16 0 0 0-3.686-1.795c-.094 0-.283-.095-.378-.095-.283-.094-.567-.094-.85-.189-.19 0-.473-.094-.662-.094h-.189c-.378 0-.662-.095-1.04-.095-2.551 0-4.914.85-6.805 2.268-.283.19-.472.378-.756.567 12.098-5.576 18.43 5.01 18.43 5.01Z"/><path fill="#bab1cb" fill-opacity=".25" d="M578.713 932.331c0 .095 0 .095.094.19-.094-.095-.094-.095-.094-.19Z"/><path fill="#3c6158" d="M586.841 940.46c4.253 1.134 8.506-.284 11.342-3.214-12.854 8.223-18.998-3.97-19.47-4.82v.094c1.134 3.78 4.158 6.805 8.128 7.94Z"/><path fill="#bab1cb" fill-opacity=".25" d="M586.841 940.46c4.253 1.134 8.506-.284 11.342-3.214-12.854 8.223-18.998-3.97-19.47-4.82v.094c1.134 3.78 4.158 6.805 8.128 7.94Z"/><path fill="#3c6158" d="M756.494 705.781c-.095-.094-.19-.094-.284-.189.095.095.19.095.284.19Z"/><path fill="#3c6158" d="M771.143 704.08c-1.701 1.796-3.875 2.93-6.332 3.402 5.387-.945 9.546-5.67 9.546-11.341 0-3.78-1.796-7.183-4.631-9.263 1.89 1.418 3.213 3.308 3.97 5.482 0 0-6.333-10.49-18.431-4.915-2.457 2.08-3.97 5.199-3.97 8.696 0 1.134.19 2.173.473 3.213.756 1.418 6.9 12.665 19.375 4.726Zm-7.088 3.497h-.095.095Zm-4.631-.378h-.095c0-.095.095-.095.095 0Zm-4.159-19.754c.189-.189.472-.378.756-.567-.284.19-.473.378-.756.567Zm8.601-2.741h.189-.19Z"/><path fill="#3c6158" d="M765.945 685.083c1.418.378 2.646 1.04 3.686 1.795-1.134-.85-2.363-1.417-3.686-1.795Zm-1.229-.284c.284 0 .567.095.85.189-.283-.095-.566-.189-.85-.189Zm-7.183 21.644c-.094-.095-.189-.095-.283-.19.094.095.189.095.283.19Z"/><path fill="#324e48" fill-opacity=".75" d="M764.055 684.704c.189 0 .472.095.661.095-.189-.095-.472-.095-.661-.095Zm-.189 0a11.29 11.29 0 0 0-7.845 2.174 11.323 11.323 0 0 1 6.805-2.268c.378 0 .756 0 1.04.094Zm1.89.284h-.19c.095 0 .284.095.379.095-.095-.095-.095-.095-.189-.095Z"/><path fill="#3c6158" d="M773.695 692.36c-.756-2.174-2.174-4.064-3.97-5.482 0 0-.094 0-.094-.094a12.16 12.16 0 0 0-3.686-1.796c-.095 0-.284-.095-.378-.095-.284-.094-.567-.094-.85-.189-.19 0-.473-.094-.662-.094h-.19c-.377 0-.66-.095-1.039-.095-2.552 0-4.915.851-6.805 2.269-.284.189-.473.378-.756.567 12.098-5.482 18.43 5.01 18.43 5.01Z"/><path fill="#324e48" fill-opacity=".75" d="M773.695 692.36c-.756-2.174-2.174-4.064-3.97-5.482 0 0-.094 0-.094-.094a12.16 12.16 0 0 0-3.686-1.796c-.095 0-.284-.095-.378-.095-.284-.094-.567-.094-.85-.189-.19 0-.473-.094-.662-.094h-.19c-.377 0-.66-.095-1.039-.095-2.552 0-4.915.851-6.805 2.269-.284.189-.473.378-.756.567 12.098-5.482 18.43 5.01 18.43 5.01Z"/><path fill="#bab1cb" fill-opacity=".25" d="M764.81 707.482c-.283 0-.472.095-.755.095.283 0 .567 0 .756-.095Zm-5.386-.283c.094 0 .283.094.378.094 1.417.378 2.835.473 4.158.284-.378 0-.756.094-1.134.094-1.229 0-2.363-.189-3.402-.472Zm-.095-.095c-.567-.189-1.229-.472-1.701-.756.472.378 1.04.567 1.701.756Zm-3.119-1.512a11.496 11.496 0 0 1-4.537-6.332c-.094-.095-.094-.19-.094-.19a11.768 11.768 0 0 0 4.631 6.522Zm1.04.662c-.284-.19-.567-.284-.756-.473.283.19.472.284.756.473Z"/><path fill="#3c6158" d="M756.21 705.592c.095.095.19.095.284.19.283.188.472.283.756.472.094.094.189.094.283.189.567.283 1.134.567 1.702.756h.094c1.04.378 2.268.472 3.403.472.378 0 .756 0 1.134-.094h.094c.284 0 .473-.095.756-.095 2.363-.472 4.632-1.7 6.333-3.402-12.476 7.939-18.62-3.308-19.376-4.726a12.654 12.654 0 0 0 4.537 6.238Z"/><path fill="#bab1cb" fill-opacity=".25" d="M756.21 705.592c.095.095.19.095.284.19.283.188.472.283.756.472.094.094.189.094.283.189.567.283 1.134.567 1.702.756h.094c1.04.378 2.268.472 3.403.472.378 0 .756 0 1.134-.094h.094c.284 0 .473-.095.756-.095 2.363-.472 4.632-1.7 6.333-3.402-12.476 7.939-18.62-3.308-19.376-4.726a12.654 12.654 0 0 0 4.537 6.238Z"/><path fill="#3c6158" d="M268.707 774.776c.094.19.189.284.283.473-.094-.19-.189-.378-.283-.473Zm-.757-1.134c.095.19.284.284.379.473-.095-.19-.284-.284-.378-.473Zm-21.832 5.482c-1.134 6.71 3.497 13.043 10.113 14.083 3.875.661 7.656-.662 10.302-3.12-3.024 2.741-7.278 3.97-11.53 2.836-4.443-1.229-7.562-4.631-8.696-8.695 0 0 6.521 14.366 20.793 5.292 1.607-1.7 2.741-3.97 3.12-6.426.377-2.174.094-4.254-.568-6.144-.662-.945-7.183-10.774-19.375-5.293-2.08 1.796-3.686 4.443-4.159 7.467Zm23.25-3.214c0 .095.095.095.095.19 0 0-.095-.095-.095-.19Zm-2.173-3.213c.094.095.189.189.283.378a1.305 1.305 0 0 1-.283-.378Z"/><path fill="#324e48" fill-opacity=".75" d="M268.99 775.249c.095.189.284.472.378.756-.094-.284-.283-.567-.378-.756Zm-8.79-6.238c2.836.473 5.199 1.796 6.995 3.78-1.513-1.606-3.497-2.93-5.766-3.496-4.064-1.135-8.222 0-11.247 2.551.095 0 .19-.094.19-.094 2.646-2.268 6.143-3.308 9.829-2.741Zm7.278 4.064c.19.19.284.378.473.567-.095-.189-.284-.378-.473-.567Zm.851 1.04c.094.189.283.378.378.567-.095-.19-.284-.378-.378-.567Zm1.512 2.93c-.095-.284-.284-.662-.378-.945.094.283.189.567.378.945Z"/><path fill="#3c6158" d="M269.746 776.95c-.094-.283-.189-.567-.378-.85 0-.095-.094-.095-.094-.19-.095-.283-.284-.472-.378-.756-.095-.189-.19-.283-.284-.472-.094-.19-.283-.378-.378-.567-.094-.19-.283-.284-.378-.473-.189-.189-.283-.378-.472-.567a1.305 1.305 0 0 1-.284-.378c-1.796-1.89-4.159-3.308-6.994-3.78-3.591-.568-7.183.472-9.83 2.646 12.287-5.293 18.903 4.442 19.47 5.387Z"/><path fill="#324e48" fill-opacity=".75" d="M269.746 776.95c-.094-.283-.189-.567-.378-.85 0-.095-.094-.095-.094-.19-.095-.283-.284-.472-.378-.756-.095-.189-.19-.283-.284-.472-.094-.19-.283-.378-.378-.567-.094-.19-.283-.284-.378-.473-.189-.189-.283-.378-.472-.567a1.305 1.305 0 0 1-.284-.378c-1.796-1.89-4.159-3.308-6.994-3.78-3.591-.568-7.183.472-9.83 2.646 12.287-5.293 18.903 4.442 19.47 5.387Z"/><path fill="#bab1cb" fill-opacity=".25" d="M266.628 790.088Z"/><path fill="#3c6158" d="M246.402 784.228c1.134 4.064 4.253 7.466 8.695 8.695 4.253 1.134 8.506-.095 11.53-2.835l.568-.568c-14.272 9.074-20.793-5.292-20.793-5.292Z"/><path fill="#bab1cb" fill-opacity=".25" d="M246.402 784.228c1.134 4.064 4.253 7.466 8.695 8.695 4.253 1.134 8.506-.095 11.53-2.835l.568-.568c-14.272 9.074-20.793-5.292-20.793-5.292Z"/><path fill="#3c6158" d="m107.088 827.704 2.552-.567c-.756.19-1.701.378-2.552.567Zm-8.128 2.741c.85-.378 1.606-.662 2.457-1.04-.85.378-1.701.662-2.457 1.04Zm2.457-1.04Zm46.595 83.74c.662-.567 1.324-1.04 1.985-1.607-.661.567-1.323 1.134-1.985 1.607Zm-29.677-86.764c-2.835 0-5.67.284-8.412.756 6.71-1.134 13.8-.945 20.888.945 16.162 4.253 28.165 16.257 33.269 30.906 0 0-22.778-38.089-66.727-24.857.473.945.945 1.985 1.418 2.93 13.61 27.22 29.866 52.266 48.296 74.95 2.08-1.135 4.253-2.363 6.427-3.78-1.134 1.133-2.268 2.267-3.497 3.307 10.302-8.884 16.824-22.022 16.824-36.671 0-26.748-21.738-48.486-48.486-48.486Zm-21.738 5.199 1.701-.851-1.701.85Z"/><path fill="#324e48" fill-opacity=".75" d="M106.899 827.704c.094 0 .189 0 .189-.094 0 .094-.095.094-.19.094Zm-8.601 3.025c.19-.095.473-.19.662-.284-.284.095-.473.19-.662.284Zm11.436-3.592h.284-.284Zm-13.61 4.631c.095-.094.284-.094.378-.189-.094 0-.189.095-.378.19Z"/><path fill="#3c6158" d="M164.08 858.988c-5.104-14.65-17.107-26.653-33.27-30.906-6.993-1.89-14.082-2.174-20.887-.945h-.283c-.85.19-1.701.378-2.552.567-.095 0-.19 0-.19.095a52.695 52.695 0 0 0-5.48 1.7c-.852.284-1.608.663-2.458 1.04-.19.095-.473.19-.662.284l-1.701.85c-.095.095-.284.095-.378.19.378.756.756 1.607 1.134 2.363 43.949-13.327 66.727 24.762 66.727 24.762Z"/><path fill="#324e48" fill-opacity=".75" d="M164.08 858.988c-5.104-14.65-17.107-26.653-33.27-30.906-6.993-1.89-14.082-2.174-20.887-.945h-.283c-.85.19-1.701.378-2.552.567-.095 0-.19 0-.19.095a52.695 52.695 0 0 0-5.48 1.7c-.852.284-1.608.663-2.458 1.04-.19.095-.473.19-.662.284l-1.701.85c-.095.095-.284.095-.378.19.378.756.756 1.607 1.134 2.363 43.949-13.327 66.727 24.762 66.727 24.762Z"/><path fill="#3c6158" d="M153.494 908.23c-2.174 1.418-4.347 2.646-6.427 3.78.284.379.662.757.945 1.23.662-.568 1.324-1.04 1.985-1.607 1.229-1.135 2.363-2.269 3.497-3.403Z"/><path fill="#bab1cb" fill-opacity=".25" d="M153.494 908.23c-2.174 1.418-4.347 2.646-6.427 3.78.284.379.662.757.945 1.23.662-.568 1.324-1.04 1.985-1.607 1.229-1.135 2.363-2.269 3.497-3.403Z"/><path fill="#3c6158" d="m377.965 844.906 2.268.283-2.268-.283Zm-2.93-.189c.378 0 .756 0 1.134.094-.378-.094-.756-.094-1.134-.094Zm18.619 3.497c-3.97-1.324-8.128-2.269-12.381-2.93 2.74.378 5.576.945 8.317 1.701 1.418.378 2.836.756 4.064 1.229Zm-21.265-3.592h-1.229 1.229Zm63.986 45.65c-2.93-4.725-40.263-60.961-109.164-28.826 10.87-9.452 24.48-15.312 39.034-16.54-35.064 2.835-62.662 32.229-62.662 68.05 0 37.71 30.622 68.333 68.333 68.333 19.281 0 36.672-7.939 49.053-20.793-16.73 17.202-41.964 25.047-66.727 18.43-24.385-6.52-42.153-25.518-48.297-48.296 0 0 36.483 79.58 115.591 29.3 11.625-12.288 18.714-28.828 18.714-46.974 0-7.94-1.418-15.595-3.875-22.684Zm-69.846-45.461c1.04-.094 1.985-.094 3.024-.189-1.04.095-2.079.19-3.024.19Zm31.757 5.104c.189.094.378.094.472.189-.094-.095-.283-.095-.472-.19Zm-4.159-1.607c.567.19 1.229.378 1.796.662-.662-.19-1.229-.473-1.796-.662Z"/><path fill="#324e48" fill-opacity=".75" d="M369.553 844.717h1.607c-.567-.095-1.134-.095-1.607 0Zm-3.308.189h.284-.284Zm70.13 45.366c.094.19.189.284.189.284a67.87 67.87 0 0 0-37.806-40.452c17.485 7.467 31.284 22.116 37.617 40.168Zm-42.721-42.058c.095 0 .284.094.378.094-.094 0-.189-.094-.378-.094Zm-13.421-3.024c.378 0 .756.094 1.135.188-.379-.189-.757-.189-1.135-.189Zm15.69 3.78c.85.283 1.606.661 2.363.945-.757-.378-1.607-.662-2.363-.945Zm-19.753-4.159c.566 0 1.228.095 1.795.095-.567-.095-1.229-.095-1.796-.095Zm-3.781-.189c.85 0 1.701 0 2.646.095-.945-.095-1.796-.095-2.646-.095Z"/><path fill="#3c6158" d="M436.375 890.272c-6.333-18.052-20.132-32.607-37.617-40.168-.189-.095-.283-.19-.472-.19-.757-.377-1.607-.66-2.363-.944-.567-.19-1.229-.473-1.796-.662-.095 0-.284-.094-.378-.094-1.323-.473-2.647-.85-3.97-1.229a64.927 64.927 0 0 0-8.317-1.701c-.378-.095-.756-.095-1.134-.19l-2.268-.283c-.568-.094-1.23-.094-1.796-.094-.378 0-.756-.095-1.134-.095-.851 0-1.702-.094-2.647-.094h-2.835c-1.04 0-1.985.094-3.025.189h-.283c-14.555 1.228-28.26 7.183-39.034 16.54 68.806-31.946 106.139 24.29 109.069 29.015Z"/><path fill="#324e48" fill-opacity=".75" d="M436.375 890.272c-6.333-18.052-20.132-32.607-37.617-40.168-.189-.095-.283-.19-.472-.19-.757-.377-1.607-.66-2.363-.944-.567-.19-1.229-.473-1.796-.662-.095 0-.284-.094-.378-.094-1.323-.473-2.647-.85-3.97-1.229a64.927 64.927 0 0 0-8.317-1.701c-.378-.095-.756-.095-1.134-.19l-2.268-.283c-.568-.094-1.23-.094-1.796-.094-.378 0-.756-.095-1.134-.095-.851 0-1.702-.094-2.647-.094h-2.835c-1.04 0-1.985.094-3.025.189h-.283c-14.555 1.228-28.26 7.183-39.034 16.54 68.806-31.946 106.139 24.29 109.069 29.015Z"/><path fill="#bab1cb" fill-opacity=".25" d="m421.536 959.93-.567.566.567-.567Z"/><path fill="#3c6158" d="M305.945 930.63c6.144 22.778 23.912 41.775 48.297 48.297 24.763 6.616 49.998-1.23 66.727-18.43l.567-.568c-79.108 50.282-115.59-29.3-115.59-29.3Z"/><path fill="#bab1cb" fill-opacity=".25" d="M305.945 930.63c6.144 22.778 23.912 41.775 48.297 48.297 24.763 6.616 49.998-1.23 66.727-18.43l.567-.568c-79.108 50.282-115.59-29.3-115.59-29.3Z"/><path fill="#3c6158" d="M732.298 768.633c-15.595 13.515-25.519 33.552-25.519 55.858 0 6.71.945 13.137 2.552 19.375 2.08 4.253 29.583 59.071 86.008 48.013 21.455-30.055 38.562-62.757 51.132-97.16-11.814-15.406-50.47-55.669-114.173-26.086Z"/><path fill="#324e48" fill-opacity=".75" d="M799.781 753.133c-24.668-6.616-49.714.094-67.577 15.594 0 0 .094 0 .094-.094 12.948-11.247 29.772-17.958 48.297-17.958 29.394 0 54.723 17.202 66.632 42.059v-.095c-8.979-18.808-25.802-33.647-47.446-39.506Z"/><path fill="#3c6158" d="M780.595 750.675c-18.43 0-35.349 6.805-48.297 17.958 63.608-29.583 102.359 10.585 114.173 25.991.283-.661.472-1.323.756-1.985-11.909-24.762-37.238-41.964-66.632-41.964Z"/><path fill="#324e48" fill-opacity=".75" d="M780.595 750.675c-18.43 0-35.349 6.805-48.297 17.958 63.608-29.583 102.359 10.585 114.173 25.991.283-.661.472-1.323.756-1.985-11.909-24.762-37.238-41.964-66.632-41.964Z"/><path fill="#bab1cb" fill-opacity=".25" d="M709.331 843.866c-.094-.189-.094-.283-.094-.283 6.616 24.668 25.802 45.177 52.266 52.266 10.018 2.646 20.037 3.213 29.677 1.796l.095-.095c-3.497.473-6.994.756-10.586.756-34.12 0-62.852-23.061-71.358-54.44Z"/><path fill="#3c6158" d="M709.331 843.866c8.506 31.379 37.144 54.44 71.264 54.44 3.591 0 7.183-.283 10.585-.756 1.418-1.89 2.741-3.78 4.159-5.67-56.425 11.057-83.929-43.76-86.008-48.014Z"/><path fill="#bab1cb" fill-opacity=".25" d="M709.331 843.866c8.506 31.379 37.144 54.44 71.264 54.44 3.591 0 7.183-.283 10.585-.756 1.418-1.89 2.741-3.78 4.159-5.67-56.425 11.057-83.929-43.76-86.008-48.014Z"/></g><path fill="#3c6158" fill-rule="nonzero" d="M859.608 448.892c0-29.016-31-52.833-68.806-52.833H129.96c-37.9 0-68.806 23.723-68.806 52.833s31 52.833 68.806 52.833h660.842c37.806 0 68.806-23.817 68.806-52.833Z"/><path fill="#60b491" fill-rule="nonzero" d="M886.45 438.212c0-31.379-33.174-57.086-73.72-57.086H114.27c-40.547 0-73.721 25.707-73.721 57.086 0 31.379 33.174 57.086 73.721 57.086h698.553c40.452.095 73.626-25.613 73.626-57.086Z"/><path fill="none" stroke="#e4edf8" stroke-linecap="round" stroke-opacity=".12" stroke-width="12.722" d="M119.942 406.172h440.624"/><path fill="none" stroke="#e4edf8" stroke-linecap="round" stroke-opacity=".15" stroke-width="11.379" d="M592.323 406.172h31.851"/><path fill="none" stroke="#e3ebf5" stroke-linecap="round" stroke-opacity=".14" stroke-width="12.722" d="M656.781 406.172h138.085"/><g fill-rule="nonzero"><path fill="#fff" d="M464.5 799.309c72.511 0 131.3-58.79 131.3-131.3 0-72.511-58.789-131.301-131.3-131.301-72.51 0-131.3 58.79-131.3 131.3 0 72.511 58.79 131.3 131.3 131.3Z"/><path fill="#dcefe7" d="M464.5 785.49c64.885 0 117.481-52.597 117.481-117.482 0-64.884-52.596-117.48-117.48-117.48-64.885 0-117.482 52.596-117.482 117.48 0 64.885 52.597 117.481 117.481 117.481Z"/><path fill="#61b593" d="M507.895 721.656c-7.528 7.298-18.36 11.871-32.497 13.611v21.03h-18.776v-20.472c-9.267-.525-18.097-2.123-26.479-4.902-8.392-2.746-15.176-6.116-20.296-10.12l10.35-22.935c4.75 3.524 10.351 6.456 16.73 8.83a76.77 76.77 0 0 0 19.74 4.53v-31.38c-8.907-2.123-16.402-4.53-22.563-7.124-6.116-2.637-11.27-6.5-15.395-11.543-4.114-5.077-6.193-11.795-6.193-20.177 0-10.383 3.786-19.334 11.358-26.785 7.56-7.451 18.513-11.981 32.792-13.611V579.72h18.765v20.472c15.395 1.269 28.12 5.088 38.143 11.467l-9.388 23.109c-9.388-5.373-18.962-8.644-28.755-9.75v31.94c8.764 2.002 16.172 4.3 22.267 6.86 6.083 2.56 11.16 6.379 15.318 11.467 4.114 5.077 6.193 11.718 6.193 19.99-.033 10.242-3.819 19.028-11.314 26.38Zm-61.613-74.492c2.375 2.003 5.821 3.71 10.34 5.077v-26.675c-4.748 1.116-8.272 2.9-10.526 5.35-2.264 2.44-3.38 5.296-3.38 8.524 0 3.162 1.192 5.722 3.566 7.724Zm39.248 58.43c2.254-2.266 3.37-4.936 3.37-8.098 0-3.107-1.148-5.711-3.49-7.714-2.33-2.002-5.668-3.742-10.044-5.263v25.932c4.518-1.006 7.9-2.604 10.164-4.858Z"/></g></svg>