<svg xmlns="http://www.w3.org/2000/svg" xml:space="preserve" fill-rule="evenodd" stroke-miterlimit="10" clip-rule="evenodd" viewBox="0 0 940 1000"><path fill="#fff" fill-rule="nonzero" stroke="#fff" stroke-width="49.01" d="M622.7 25.4c-60.3 0-114.3 27-150.6 69.6-22.2-26.6-55.5-43.5-92.8-43.5-66.8 0-120.9 54.1-120.9 120.9 0 1.1.1 2.2.1 3.3-6.4-1.1-13-1.6-19.7-1.6-65.9 0-119.3 53.4-119.3 119.3 0 0 238.5 3.3 238.4 3.3h81.2c29.2 72.8 100.3 124.2 183.5 124.2 109.2 0 197.7-88.5 197.7-197.7 0-109.2-88.4-197.8-197.6-197.8Z"/><path fill="#fff" fill-rule="nonzero" stroke="#fff" stroke-width="35.94" d="M865.4 370c91.6 209 4.2 455.5-202.3 558.9C450 1035.5 190.7 949.2 84.1 736c-59.5-118.8-59-252-9.9-365.1"/><path fill="#fff" fill-rule="nonzero" d="M917.5 314c0-33.2-35.1-60.4-78-60.4h-739c-42.9 0-78 27.2-78 60.4s35.1 60.4 78 60.4h739.1c42.8.1 77.9-27.1 77.9-60.4Z"/><path fill="none" stroke="#fff" stroke-width="35.94" d="M917.5 314c0-33.2-35.1-60.4-78-60.4h-739c-42.9 0-78 27.2-78 60.4s35.1 60.4 78 60.4h739.1c42.8.1 77.9-27.1 77.9-60.4Z"/><path fill="#e6ad22" fill-rule="nonzero" stroke="#e6ad22" stroke-width="13.07" d="M622.7 25.4c-60.3 0-114.3 27-150.6 69.6-22.2-26.6-55.5-43.5-92.8-43.5-66.8 0-120.9 54.1-120.9 120.9 0 1.1.1 2.2.1 3.3-6.4-1.1-13-1.6-19.7-1.6-65.9 0-119.3 53.4-119.3 119.3 0 0 238.5 3.3 238.4 3.3h81.2c29.2 72.8 100.3 124.2 183.5 124.2 109.2 0 197.7-88.5 197.7-197.7 0-109.2-88.4-197.8-197.6-197.8Z"/><path fill="#f0c618" fill-rule="nonzero" d="M622.7 25.4c-60.3 0-114.3 27-150.6 69.6-22.2-26.6-55.5-43.5-92.8-43.5-66.8 0-120.9 54.1-120.9 120.9 0 1.1.1 2.2.1 3.3-6.4-1.1-13-1.6-19.7-1.6-65.9 0-119.3 53.4-119.3 119.3 0 0 238.5 3.3 238.4 3.3h81.2c29.2 72.8 100.3 124.2 183.5 124.2 109.2 0 197.7-88.5 197.7-197.7 0-109.2-88.4-197.8-197.6-197.8Z"/><path fill="#e6ad22" fill-rule="nonzero" d="M493.3 106.3c5.3-6.3 11-12.4 17.2-17.9.8-.7 1.5-1.4 2.3-2.1l2.4-2c1.6-1.3 3.2-2.7 4.9-3.9l5-3.7c1.7-1.2 3.5-2.3 5.2-3.5.9-.6 1.7-1.2 2.6-1.7l2.7-1.6c1.8-1 3.6-2.1 5.5-3.1 3.7-1.9 7.4-3.9 11.3-5.6 7.6-3.6 15.6-6.3 23.8-8.6l6.1-1.6c2.1-.5 4.1-.9 6.2-1.3l3.1-.6c1-.2 2.1-.3 3.1-.5l6.3-.9 6.3-.6 3.2-.3 9.6-.3 6.4.1c2.1 0 4.2.1 6.4.3 2.1.2 4.2.2 6.3.5l6.3.7 6.3 1c2.1.3 4.2.8 6.3 1.2 2.1.4 4.2.8 6.2 1.4 2.1.5 4.1 1 6.2 1.6l6.1 1.9c8.1 2.7 16 5.9 23.6 9.7 7.6 3.9 14.9 8.2 21.9 13.1 7 4.9 13.5 10.3 19.7 16.1 1.5 1.5 3.1 2.9 4.5 4.4l4.4 4.6 4.2 4.8c1.4 1.6 2.7 3.3 4 4.9 5.2 6.6 10 13.7 14 21 4.1 7.3 7.8 14.9 10.7 22.8.4 1 .7 2 1.1 3l2 6 .9 3c.6 2 1.2 4 1.7 6l1.4 6.1c.4 2 .8 4.1 1.1 6.1.4 2 .7 4.1.9 6.2.6 4.1.8 8.2 1.1 12.4-.9-4-1.7-8.1-2.8-12-.9-4-2.2-7.9-3.4-11.8-2.6-7.7-5.6-15.3-9.2-22.6l-2.7-5.4-2.9-5.3c-.9-1.8-2-3.5-3.1-5.2l-1.6-2.6c-.5-.9-1.1-1.7-1.7-2.5-1.1-1.7-2.2-3.4-3.4-5l-3.6-4.9c-2.5-3.2-4.9-6.3-7.6-9.3-21-24.2-48.4-42.6-78.8-52.5-7.5-2.6-15.3-4.4-23.1-5.9-7.8-1.6-15.8-2.3-23.7-2.7l-6-.2-6 .1h-3l-9 .6-6 .7-3 .3-3 .5c-2 .3-4 .6-5.9 1l-5.9 1.3c-31.3 6.3-60.8 22-85.1 44.3Zm-195.1 17c4.6-10.2 11.4-19.7 19.8-27.5 8.3-8 18.4-14.2 29.2-18.5 5.5-2 11.1-3.9 16.9-4.8l2.2-.4c.7-.1 1.5-.2 2.2-.3l4.4-.5c1.5-.1 2.9-.2 4.4-.3 1.5-.1 2.9-.2 4.4-.1 11.8-.1 23.6 2.2 34.7 6.4 22.2 8.4 40.7 25.5 51.2 46.5 5.2 10.5 8.3 21.9 9.3 33.4.9 11.5-.3 23-3.9 33.7 1.1-11.2.7-22.3-1.7-32.9-2.3-10.6-6.2-20.7-11.6-29.9-10.9-18.3-27.8-32.6-47.4-40.1-4.9-1.9-9.9-3.4-15.1-4.4-1.3-.2-2.6-.5-3.9-.7l-3.9-.5-3.9-.4c-1.3-.1-2.6-.1-3.9-.2-10.5-.4-21.1 1.1-31.3 4.2-20.5 5.9-38.8 19.2-52.1 37.3Zm-92.7 74.4c3.9-2.6 8.2-4.4 12.6-5.9 4.5-1.4 9.1-2.3 13.9-2.6 9.4-.6 19.2.6 28.2 3.9 4.5 1.6 8.8 3.8 12.9 6.2l3 2c.5.3 1 .7 1.5 1l4.2 3.3 2.6 2.4c.4.4.9.8 1.3 1.2l1.2 1.3c.8.9 1.6 1.7 2.4 2.6.7.9 1.4 1.9 2.1 2.8l1 1.4 1 1.5 1.8 3c.5 1 1.1 2.1 1.6 3.1l.8 1.6.6 1.6 1.2 3.3c-.9-.8-1.7-1.5-2.6-2.3l-1.2-1.2-1.3-1.1c-.9-.7-1.7-1.5-2.5-2.2l-2.6-2.1-1.2-1.1-3.9-3c-1.8-1.2-3.5-2.5-5.3-3.6-3.5-2.4-7.2-4.4-10.9-6.3-1-.4-1.9-.9-2.8-1.3l-1.4-.7-1.4-.6-2.9-1.2-2.9-1.1c-7.8-2.9-16-4.7-24.4-5.7-8.7-.8-17.3-.7-26.6-.2Z" opacity=".45"/><g fill="#f8f9e7" fill-rule="nonzero"><path d="m538.6 127-11.6 6.4-6.4 11.6-6.3-11.6-11.7-6.4 11.7-6.3 6.3-11.6 6.4 11.6 11.6 6.3Z"/><path fill-opacity=".8" d="m357.3 192.5-11.6 6.4-6.3 11.6-6.4-11.6-11.6-6.4 11.6-6.4 6.4-11.6 6.3 11.6 11.6 6.4Z"/><path fill-opacity=".95" d="m757.6 212.1-11.7 6.4-6.3 11.6-6.4-11.6-11.6-6.4 11.6-6.3 6.4-11.7 6.3 11.7 11.7 6.3Z"/></g><path fill="#60b491" fill-rule="nonzero" d="M865.4 370c91.6 209 4.2 455.5-202.3 558.9C450 1035.5 190.7 949.2 84.1 736c-59.5-118.8-59-252-9.9-365.1"/><path fill="#3c6158" fill-opacity=".14" fill-rule="nonzero" d="M648 695.8c-211.2 84.7-451.1-17.8-535.9-229-10.1-25.1-17.3-50.6-22.2-76.2-35.1 93.1-37.2 198.9 2.8 298.5 84.7 211.2 324.7 313.8 535.9 229 186.1-74.7 287.7-269.8 251.2-459.7C840.5 562.7 759.6 651 648 695.8Z"/><g fill-rule="nonzero"><path fill="#3c6158" d="M141.6 489.1c.4 0 .9 0 1.3.1-.4 0-.8 0-1.3-.1Zm-1.8 0h-.6.6Zm38.3 89.1c-6.4 6.8-14.6 11.8-23.6 14.4 22-6.4 38.1-26.7 38.1-50.7 0-6.1-1-11.9-2.9-17.4-1.1-1.7-29.9-47.9-84.5-22.4 6.4-5.6 14-9.5 22.2-11.5C104.2 496.2 87 517 87 541.9c0 4.8.6 9.4 1.8 13.7.6 1.3 28.9 61.1 89.3 22.6Zm-43.9-88.8c.4 0 .9-.1 1.3-.1-.4 0-.8 0-1.3.1Z"/><path fill="#3c6158" d="M154.5 592.6c-.8.2-1.7.5-2.5.7.8-.2 1.7-.5 2.5-.7Zm-23.4-102.8 1.8-.3-1.8.3Zm26 2.2c.8.3 1.5.6 2.3.9-.8-.3-1.5-.6-2.3-.9Zm2.9 1.1 2.7 1.2c-.9-.4-1.7-.8-2.7-1.2Zm-15.6-3.8c.6.1 1.2.1 1.8.2-.6-.1-1.2-.1-1.8-.2Zm2.9.3c.9.1 1.9.3 2.8.5-.9-.2-1.9-.3-2.8-.5Zm6.5 1.4c.9.2 1.7.5 2.6.8-.9-.3-1.7-.6-2.6-.8Zm-63.5 69.2c-.1-.2-.1-.4-.2-.6 0 .3.1.4.2.6Zm37.5-69.7c.8-.2 1.5-.3 2.3-.5-.7.1-1.5.3-2.3.5Zm-.6 102.7c-.3-.1-.7-.2-1-.2.4 0 .7.1 1 .2Zm2.2.5c-.3-.1-.5-.1-.8-.2.3.1.6.1.8.2Zm-7.7-2.2h-.1.1Zm2.5.9c-.1 0-.3-.1-.4-.1.2 0 .3 0 .4.1Zm-34.7-34.3c-.1-.2-.2-.5-.2-.7.1.2.2.4.2.7Zm60.5 35.6c.3-.1.6-.1.9-.2-.3.1-.6.1-.9.2Zm-57.8-28.9s0-.1-.1-.1c.1 0 .1.1.1.1Zm-.9-2.1c-.1-.1-.1-.2-.2-.4 0 .1.1.3.2.4Zm58.9-72.6c1.1.2 2.1.5 3.2.7-1.1-.2-2.1-.5-3.2-.7Zm28.4 16c.6.6 1.1 1.2 1.7 1.9-.6-.7-1.2-1.3-1.7-1.9Zm-5.3-5Zm7.1 7.1c.7.8 1.3 1.6 1.9 2.4-.6-.8-1.2-1.6-1.9-2.4Zm5.4 7.8Zm-9.2-11.9 1.1 1.1c-.3-.4-.7-.7-1.1-1.1Zm-13-9.3c.6.3 1.1.6 1.6.9-.5-.4-1-.6-1.6-.9Zm11 7.4c.3.3.7.6 1 .9-.3-.3-.7-.6-1-.9Zm-5.5-4.2.9.6-.9-.6Zm-2.5-1.6c.4.2.8.4 1.1.7-.4-.3-.7-.5-1.1-.7Zm17.6 17c.5.8 1.1 1.7 1.5 2.5-.4-.9-.9-1.7-1.5-2.5Zm-1.8-2.7c.6.8 1.2 1.6 1.7 2.5-.6-.9-1.1-1.7-1.7-2.5Z"/><path fill="#324e48" fill-opacity=".75" d="M153.5 490.9h-.1c.1 0 .3.1.4.1-.1 0-.2-.1-.3-.1Zm14.2 6.2c.5.3.9.6 1.4.9-.5-.3-.9-.6-1.4-.9Zm-8.3-4.2c.2.1.5.2.7.3-.3-.2-.5-.2-.7-.3Zm-23.8-3.6c1.2-.1 2.4-.2 3.6-.2-1.2 0-2.4.1-3.6.2Zm29.7 6.3c.4.2.9.5 1.3.8-.5-.3-.9-.5-1.3-.8Zm-2.6-1.3c.3.1.6.3.9.5-.3-.2-.6-.3-.9-.5Zm-22.8-5.2h1.8-1.8Zm3 .1c.5 0 1 .1 1.5.1-.5 0-1-.1-1.5-.1Zm7.2.9h.1-.1Zm-3.9-.6c.4 0 .7.1 1.1.1-.4 0-.7-.1-1.1-.1Zm10.2 2.3c.2.1.5.2.7.2-.3-.1-.5-.1-.7-.2Zm27.7 21.4c0 .1.1.1.1.2 0-.1-.1-.2-.1-.2Zm-1.8-2.6c.1 0 .1.1 0 0 .1.1.1 0 0 0Zm3.5 5.3s0 .1 0 0c0 .1 0 0 0 0ZM170 498.6c1.1.8 2.3 1.6 3.4 2.5-1.1-.9-2.3-1.7-3.4-2.5Zm10.2 9.4c.1.1.1.2.2.2 0-.1-.1-.2-.2-.2Zm-2.4-2.8c.3.3.5.6.8.8-.3-.2-.6-.5-.8-.8Zm-4.4-4c.4.3.8.7 1.2 1.1-.4-.4-.8-.8-1.2-1.1Zm16.3 23.4c0-.1-.1-.2-.1-.3 0 .1 0 .2.1.3Zm-14.1-21.5c.4.3.7.7 1 1-.3-.4-.7-.7-1-1Zm-42.7-13.5c.4-.1.9-.1 1.3-.2-.4 0-.8.1-1.3.2Zm-5.5 1c.1 0 .3-.1.4-.1-.1 0-.3 0-.4.1Zm2.8-.6c.3-.1.6-.1 1-.2-.4.1-.7.1-1 .2Z"/><path fill="#3c6158" d="M189.7 524.5c0-.1-.1-.2-.1-.3-1-2.9-2.3-5.7-3.8-8.3v-.1c-.5-.9-1-1.7-1.5-2.5 0-.1-.1-.1-.1-.2-.5-.8-1.1-1.7-1.7-2.5v-.1c-.6-.8-1.2-1.6-1.9-2.4-.1-.1-.1-.2-.2-.2-.5-.6-1.1-1.3-1.7-1.9-.3-.3-.5-.6-.8-.8l-2.1-2.1c-.3-.3-.7-.6-1-.9-.4-.4-.8-.7-1.2-1.1-1.1-.9-2.2-1.7-3.4-2.5l-.9-.6c-.5-.3-.9-.6-1.4-.9-.4-.2-.7-.5-1.1-.7-.4-.3-.9-.5-1.3-.8-.5-.3-1.1-.6-1.6-.9-.3-.2-.6-.3-.9-.5l-2.7-1.2c-.2-.1-.4-.2-.7-.3-.8-.3-1.5-.6-2.3-.9-.2-.1-.5-.2-.7-.2-.9-.3-1.7-.5-2.6-.8-.1 0-.3-.1-.4-.1-1.1-.3-2.1-.5-3.2-.7h-.1c-.9-.2-1.9-.3-2.8-.5-.4-.1-.7-.1-1.1-.1-.6-.1-1.2-.1-1.8-.2-.5 0-1-.1-1.5-.1-.4 0-.9 0-1.3-.1h-2.5c-1.2 0-2.4.1-3.6.2-.4 0-.9.1-1.3.1s-.9.1-1.3.2l-1.8.3c-.3.1-.6.1-1 .2-.8.1-1.6.3-2.3.5-.1 0-.3.1-.4.1-8.2 2-15.8 6-22.2 11.5 54.4-25.4 83.2 20.7 84.3 22.4Z"/><path fill="#324e48" fill-opacity=".75" d="M189.7 524.5c0-.1-.1-.2-.1-.3-1-2.9-2.3-5.7-3.8-8.3v-.1c-.5-.9-1-1.7-1.5-2.5 0-.1-.1-.1-.1-.2-.5-.8-1.1-1.7-1.7-2.5v-.1c-.6-.8-1.2-1.6-1.9-2.4-.1-.1-.1-.2-.2-.2-.5-.6-1.1-1.3-1.7-1.9-.3-.3-.5-.6-.8-.8l-2.1-2.1c-.3-.3-.7-.6-1-.9-.4-.4-.8-.7-1.2-1.1-1.1-.9-2.2-1.7-3.4-2.5l-.9-.6c-.5-.3-.9-.6-1.4-.9-.4-.2-.7-.5-1.1-.7-.4-.3-.9-.5-1.3-.8-.5-.3-1.1-.6-1.6-.9-.3-.2-.6-.3-.9-.5l-2.7-1.2c-.2-.1-.4-.2-.7-.3-.8-.3-1.5-.6-2.3-.9-.2-.1-.5-.2-.7-.2-.9-.3-1.7-.5-2.6-.8-.1 0-.3-.1-.4-.1-1.1-.3-2.1-.5-3.2-.7h-.1c-.9-.2-1.9-.3-2.8-.5-.4-.1-.7-.1-1.1-.1-.6-.1-1.2-.1-1.8-.2-.5 0-1-.1-1.5-.1-.4 0-.9 0-1.3-.1h-2.5c-1.2 0-2.4.1-3.6.2-.4 0-.9.1-1.3.1s-.9.1-1.3.2l-1.8.3c-.3.1-.6.1-1 .2-.8.1-1.6.3-2.3.5-.1 0-.3.1-.4.1-8.2 2-15.8 6-22.2 11.5 54.4-25.4 83.2 20.7 84.3 22.4Z"/><path fill="#bab1cb" fill-opacity=".25" d="M128.6 593.5c-.5-.1-.9-.2-1.4-.3.5.1 1 .2 1.4.3Zm-36.4-28.8c-.3-.7-.6-1.3-.9-2 .2.7.5 1.3.9 2Zm59.8 28.6c-.4.1-.7.2-1.1.3.3-.2.7-.2 1.1-.3Zm-20.3.8c-.8-.1-1.5-.3-2.3-.4.8.1 1.6.3 2.3.4Zm-5.6-1.2h.2c-.7-.2-1.4-.4-2-.6.5.3 1.2.4 1.8.6Zm-2.3-.7c-.7-.2-1.4-.5-2.1-.7.7.3 1.4.5 2.1.7Zm-32.7-29.9c-.3-.7-.6-1.4-.8-2.1.2.7.5 1.4.8 2.1Zm40.7 31.8c6.2 1 12.3.8 18.2-.4-3.3.6-6.7 1-10.2 1-2.7 0-5.4-.2-8-.6Zm-39.6-29.3c5.8 12 16.1 21.8 29.4 26.7-12.9-4.8-23.4-14.4-29.4-26.7Zm-3.4-9.2c.2.6.3 1.2.5 1.8-.2-.6-.3-1.2-.5-1.8Zm1.3 4.1c-.2-.5-.4-1.1-.5-1.6.1.5.3 1 .5 1.6Z"/><path fill="#3c6158" d="M152 593.3c.9-.2 1.7-.4 2.5-.7 9-2.6 17.1-7.6 23.6-14.4-60.4 38.5-88.7-21.3-89.3-22.6.2.6.3 1.2.5 1.7.1.2.2.5.2.7.2.5.3 1.1.5 1.6.1.2.1.4.2.6.3.7.5 1.4.8 2.1.1.1.1.2.2.4.3.7.6 1.4.9 2 0 0 0 .1.1.1 5.9 12.3 16.5 21.9 29.4 26.7h.1c.7.3 1.4.5 2.1.7.1 0 .3.1.4.1.7.2 1.4.4 2 .6.3.1.7.2 1 .2.5.1.9.2 1.4.3.3.1.5.1.8.2.8.2 1.5.3 2.3.4h.1c2.6.4 5.3.6 8 .6 3.5 0 6.9-.3 10.2-1 .3-.1.6-.1.9-.2.3 0 .7 0 1.1-.1Z"/><path fill="#bab1cb" fill-opacity=".25" d="M152 593.3c.9-.2 1.7-.4 2.5-.7 9-2.6 17.1-7.6 23.6-14.4-60.4 38.5-88.7-21.3-89.3-22.6.2.6.3 1.2.5 1.7.1.2.2.5.2.7.2.5.3 1.1.5 1.6.1.2.1.4.2.6.3.7.5 1.4.8 2.1.1.1.1.2.2.4.3.7.6 1.4.9 2 0 0 0 .1.1.1 5.9 12.3 16.5 21.9 29.4 26.7h.1c.7.3 1.4.5 2.1.7.1 0 .3.1.4.1.7.2 1.4.4 2 .6.3.1.7.2 1 .2.5.1.9.2 1.4.3.3.1.5.1.8.2.8.2 1.5.3 2.3.4h.1c2.6.4 5.3.6 8 .6 3.5 0 6.9-.3 10.2-1 .3-.1.6-.1.9-.2.3 0 .7 0 1.1-.1Z"/><path fill="#3c6158" d="M632.3 712.2v.1c.1 0 .1-.1 0-.1Z"/><path fill="#3c6158" d="M632.5 712.6c-.5-.9-14.2-22.6-40-10.8-5.4 4.6-8.8 11.4-8.8 19.1 0 2.3.3 4.6.9 6.8 1.4 2.9 14.9 27.8 42.3 10.6 4.3-4.5 7-10.6 7-17.3 0-3-.5-5.8-1.4-8.4Z"/><path fill="#324e48" fill-opacity=".75" d="M632.3 712.2c-2.7-7.4-8.9-13.4-17-15.6-8.4-2.2-16.9 0-23 5.3.1 0 .1-.1.2-.1 4.4-3.7 10.1-6 16.3-6 10.8 0 20 6.8 23.5 16.4Zm.2.4c0-.1-.1-.2-.1-.3 0 .1 0 .2.1.3Z"/><path fill="#3c6158" d="M632.5 712.6c0-.1-.1-.2-.1-.3v-.1c-3.5-9.6-12.7-16.4-23.5-16.4-6.2 0-11.9 2.3-16.3 6 25.7-11.8 39.3 9.9 39.9 10.8Z"/><path fill="#324e48" fill-opacity=".75" d="M632.5 712.6c0-.1-.1-.2-.1-.3v-.1c-3.5-9.6-12.7-16.4-23.5-16.4-6.2 0-11.9 2.3-16.3 6 25.7-11.8 39.3 9.9 39.9 10.8Z"/><path fill="#bab1cb" fill-opacity=".25" d="M608.8 746c-11.5 0-21.2-7.8-24.2-18.3-.1-.2-.1-.3-.1-.3 2.3 8.4 8.8 15.4 17.8 17.8 9.2 2.5 18.6-.5 24.7-7h-.1c-4.5 4.8-11 7.8-18.1 7.8Z"/><path fill="#3c6158" d="M584.6 727.7c3 10.6 12.7 18.3 24.2 18.3 7.1 0 13.6-3 18.1-7.8-27.4 17.3-40.8-7.6-42.3-10.5Z"/><path fill="#bab1cb" fill-opacity=".25" d="M584.6 727.7c3 10.6 12.7 18.3 24.2 18.3 7.1 0 13.6-3 18.1-7.8-27.4 17.3-40.8-7.6-42.3-10.5Z"/><path fill="#3c6158" d="M679.9 458.6c-.1-.1-.2-.3-.2-.4 0 .2.1.3.2.4Zm51.2-28c.1.1.1.2.2.4 0-.2-.1-.3-.2-.4Zm-52.8 24.7c-.1-.4-.3-.7-.4-1.1.2.4.3.8.4 1.1Zm.9 2c-.2-.5-.4-.9-.6-1.4.2.5.4.9.6 1.4Zm-1.4-3.6c-.1-.4-.3-.8-.4-1.2.1.4.2.8.4 1.2Zm2.7 6.1s0-.1 0 0c0-.1 0 0 0 0Z"/><path fill="#3c6158" d="M726.3 465.1c5.2-5.3 8.4-12.5 8.4-20.5 0-3.4-.6-6.7-1.7-9.7-1-1.6-16.8-26-46.4-12.6-6.3 5.4-10.4 13.4-10.4 22.3 0 2.6.4 5.2 1 7.6.6 1.1 16.1 33.4 49.1 12.9Zm4.1-35.7c0 .1.1.2.1.2 0-.1 0-.2-.1-.2Z"/><path fill="#324e48" fill-opacity=".75" d="M730.4 429.4c-3.8-6.2-9.8-11-17.4-13.1-9.7-2.6-19.7 0-26.8 6.2.2-.1.3-.1.5-.2 5.1-4.3 11.7-6.9 18.8-6.9 10.5 0 19.8 5.6 24.9 14Zm2.7 5.6c-.5-1.4-1.1-2.7-1.8-4 .7 1.2 1.3 2.5 1.8 4Zm-2.5-5.4c.2.3.4.7.6 1-.3-.3-.5-.7-.6-1Z"/><path fill="#3c6158" d="M733 434.9c-.5-1.4-1.1-2.7-1.7-4-.1-.1-.1-.2-.2-.4-.2-.3-.4-.7-.6-1 0-.1-.1-.2-.1-.2-5.1-8.4-14.4-14-24.9-14-7.2 0-13.7 2.6-18.8 6.9 29.6-13.3 45.4 11.1 46.3 12.7Z"/><path fill="#324e48" fill-opacity=".75" d="M733 434.9c-.5-1.4-1.1-2.7-1.7-4-.1-.1-.1-.2-.2-.4-.2-.3-.4-.7-.6-1 0-.1-.1-.2-.1-.2-5.1-8.4-14.4-14-24.9-14-7.2 0-13.7 2.6-18.8 6.9 29.6-13.3 45.4 11.1 46.3 12.7Z"/><path fill="#bab1cb" fill-opacity=".25" d="M705.5 473.8c-10.6 0-19.8-5.6-25-14 3.8 6.2 9.8 11.1 17.5 13.1 10.7 2.9 21.7-.6 28.8-8.1-.2.1-.4.2-.5.3-5.3 5.4-12.7 8.7-20.8 8.7Zm-27.6-19.5c-.1-.2-.1-.4-.2-.5.1.1.2.3.2.5Zm2.6 5.4c-.2-.4-.4-.7-.6-1.1.2.4.4.8.6 1.1Zm-1.9-3.8c-.1-.2-.1-.4-.2-.6 0 .2.1.4.2.6Zm1.1 2.3c-.2-.3-.3-.6-.5-.9.1.3.3.6.5.9Zm-2.4-6c0 .1.1.2.1.3 0-.1-.1-.2-.1-.3Z"/><path fill="#3c6158" d="M677.3 452.2c0 .1 0 .2.1.2.1.4.2.8.4 1.2.1.2.1.4.2.5.1.4.3.7.4 1.1.1.2.1.4.2.6.2.5.4.9.6 1.4.2.3.3.6.5.9.1.1.1.3.2.4.2.4.4.7.6 1.1 5.1 8.4 14.4 14 25 14 8.1 0 15.5-3.3 20.8-8.7-33 20.7-48.5-11.6-49-12.7Z"/><path fill="#bab1cb" fill-opacity=".25" d="M677.3 452.2c0 .1 0 .2.1.2.1.4.2.8.4 1.2.1.2.1.4.2.5.1.4.3.7.4 1.1.1.2.1.4.2.6.2.5.4.9.6 1.4.2.3.3.6.5.9.1.1.1.3.2.4.2.4.4.7.6 1.1 5.1 8.4 14.4 14 25 14 8.1 0 15.5-3.3 20.8-8.7-33 20.7-48.5-11.6-49-12.7Z"/><path fill="#3c6158" d="M591.5 833.7c0 1.1.2 2.1.4 3.2.5.9 7 13.8 20.6 5.1-3 3.1-7.5 4.6-12 3.4-4.2-1.2-7.4-4.4-8.5-8.4 1.4 5.2 6.1 8.9 11.7 8.9 6.7 0 12.2-5.5 12.2-12.2 0-4-1.9-7.6-4.9-9.8 2 1.5 3.4 3.5 4.2 5.8 0 0-6.7-11.2-19.5-5.2-2.6 2.2-4.2 5.5-4.2 9.2Zm14.2-12c.3 0 .6.1.9.2-.3-.1-.6-.2-.9-.2Zm-10 2.8c.2-.2.5-.4.8-.6-.3.2-.5.4-.8.6Z"/><path fill="#3c6158" d="M607 822c1.5.4 2.8 1.1 3.9 1.9-1.2-.9-2.5-1.5-3.9-1.9Zm-2.2-.4h.2-.2Z"/><path fill="#324e48" fill-opacity=".75" d="M604.8 821.6c-3.1-.3-6 .6-8.3 2.3 2-1.5 4.5-2.4 7.2-2.4.4 0 .8 0 1.1.1Zm.2 0c.2 0 .5.1.7.1-.2-.1-.5-.1-.7-.1Zm1.8.3h-.2c.1 0 .3.1.4.1-.1-.1-.1-.1-.2-.1Z"/><path fill="#3c6158" d="M615.2 829.7c-.8-2.3-2.3-4.3-4.2-5.8 0 0-.1 0-.1-.1-1.1-.8-2.5-1.5-3.9-1.9-.1 0-.3-.1-.4-.1-.3-.1-.6-.1-.9-.2-.2 0-.5-.1-.7-.1h-.2c-.4 0-.7-.1-1.1-.1-2.7 0-5.2.9-7.2 2.4-.3.2-.5.4-.8.6 12.8-5.9 19.5 5.3 19.5 5.3Z"/><path fill="#324e48" fill-opacity=".75" d="M615.2 829.7c-.8-2.3-2.3-4.3-4.2-5.8 0 0-.1 0-.1-.1-1.1-.8-2.5-1.5-3.9-1.9-.1 0-.3-.1-.4-.1-.3-.1-.6-.1-.9-.2-.2 0-.5-.1-.7-.1h-.2c-.4 0-.7-.1-1.1-.1-2.7 0-5.2.9-7.2 2.4-.3.2-.5.4-.8.6 12.8-5.9 19.5 5.3 19.5 5.3Z"/><path fill="#bab1cb" fill-opacity=".25" d="M591.9 836.8c0 .1 0 .1.1.2-.1-.1-.1-.1-.1-.2Z"/><path fill="#3c6158" d="M600.5 845.4c4.5 1.2 9-.3 12-3.4-13.6 8.7-20.1-4.2-20.6-5.1v.1c1.2 4 4.4 7.2 8.6 8.4Z"/><path fill="#bab1cb" fill-opacity=".25" d="M600.5 845.4c4.5 1.2 9-.3 12-3.4-13.6 8.7-20.1-4.2-20.6-5.1v.1c1.2 4 4.4 7.2 8.6 8.4Z"/><path fill="#3c6158" d="M780 597.1c-.1-.1-.2-.1-.3-.2.1.1.2.1.3.2Z"/><path fill="#3c6158" d="M795.5 595.3c-1.8 1.9-4.1 3.1-6.7 3.6 5.7-1 10.1-6 10.1-12 0-4-1.9-7.6-4.9-9.8 2 1.5 3.4 3.5 4.2 5.8 0 0-6.7-11.1-19.5-5.2-2.6 2.2-4.2 5.5-4.2 9.2 0 1.2.2 2.3.5 3.4.8 1.5 7.3 13.4 20.5 5ZM788 599h-.1.1Zm-4.9-.4h-.1c0-.1.1-.1.1 0Z"/><path fill="#3c6158" d="M778.7 577.7c.2-.2.5-.4.8-.6-.3.2-.5.4-.8.6Zm9.1-2.9h.2-.2Zm2.2.4c1.5.4 2.8 1.1 3.9 1.9-1.2-.9-2.5-1.5-3.9-1.9Zm-1.3-.3c.3 0 .6.1.9.2-.3-.1-.6-.2-.9-.2Zm-7.6 22.9c-.1-.1-.2-.1-.3-.2.1.1.2.1.3.2Z"/><path fill="#324e48" fill-opacity=".75" d="M788 574.8c.2 0 .5.1.7.1-.2-.1-.5-.1-.7-.1Zm-.2 0c-3.1-.3-6 .6-8.3 2.3 2-1.5 4.5-2.4 7.2-2.4.4 0 .8 0 1.1.1Zm2 .3h-.2c.1 0 .3.1.4.1-.1-.1-.1-.1-.2-.1Z"/><path fill="#3c6158" d="M798.2 582.9c-.8-2.3-2.3-4.3-4.2-5.8 0 0-.1 0-.1-.1-1.1-.8-2.5-1.5-3.9-1.9-.1 0-.3-.1-.4-.1-.3-.1-.6-.1-.9-.2-.2 0-.5-.1-.7-.1h-.2c-.4 0-.7-.1-1.1-.1-2.7 0-5.2.9-7.2 2.4-.3.2-.5.4-.8.6 12.8-5.8 19.5 5.3 19.5 5.3Z"/><path fill="#324e48" fill-opacity=".75" d="M798.2 582.9c-.8-2.3-2.3-4.3-4.2-5.8 0 0-.1 0-.1-.1-1.1-.8-2.5-1.5-3.9-1.9-.1 0-.3-.1-.4-.1-.3-.1-.6-.1-.9-.2-.2 0-.5-.1-.7-.1h-.2c-.4 0-.7-.1-1.1-.1-2.7 0-5.2.9-7.2 2.4-.3.2-.5.4-.8.6 12.8-5.8 19.5 5.3 19.5 5.3Z"/><path fill="#bab1cb" fill-opacity=".25" d="M788.8 598.9c-.3 0-.5.1-.8.1.3 0 .6 0 .8-.1Zm-5.7-.3c.1 0 .3.1.4.1 1.5.4 3 .5 4.4.3-.4 0-.8.1-1.2.1-1.3 0-2.5-.2-3.6-.5Zm-.1-.1c-.6-.2-1.3-.5-1.8-.8.5.4 1.1.6 1.8.8Zm-3.3-1.6c-2.3-1.6-4-3.9-4.8-6.7-.1-.1-.1-.2-.1-.2.8 2.9 2.6 5.3 4.9 6.9Zm1.1.7c-.3-.2-.6-.3-.8-.5.3.2.5.3.8.5Z"/><path fill="#3c6158" d="M779.7 596.9c.1.1.2.1.3.2.3.2.5.3.8.5.1.1.2.1.3.2.6.3 1.2.6 1.8.8h.1c1.1.4 2.4.5 3.6.5.4 0 .8 0 1.2-.1h.1c.3 0 .5-.1.8-.1 2.5-.5 4.9-1.8 6.7-3.6-13.2 8.4-19.7-3.5-20.5-5 .9 2.7 2.6 5 4.8 6.6Z"/><path fill="#bab1cb" fill-opacity=".25" d="M779.7 596.9c.1.1.2.1.3.2.3.2.5.3.8.5.1.1.2.1.3.2.6.3 1.2.6 1.8.8h.1c1.1.4 2.4.5 3.6.5.4 0 .8 0 1.2-.1h.1c.3 0 .5-.1.8-.1 2.5-.5 4.9-1.8 6.7-3.6-13.2 8.4-19.7-3.5-20.5-5 .9 2.7 2.6 5 4.8 6.6Z"/><path fill="#3c6158" d="M263.9 670.1c.1.2.2.3.3.5-.1-.2-.2-.4-.3-.5Zm-.8-1.2c.1.2.3.3.4.5-.1-.2-.3-.3-.4-.5Zm-23.1 5.8c-1.2 7.1 3.7 13.8 10.7 14.9 4.1.7 8.1-.7 10.9-3.3-3.2 2.9-7.7 4.2-12.2 3-4.7-1.3-8-4.9-9.2-9.2 0 0 6.9 15.2 22 5.6 1.7-1.8 2.9-4.2 3.3-6.8.4-2.3.1-4.5-.6-6.5-.7-1-7.6-11.4-20.5-5.6-2.2 1.9-3.9 4.7-4.4 7.9Zm24.6-3.4c0 .1.1.1.1.2 0 0-.1-.1-.1-.2Zm-2.3-3.4c.1.1.2.2.3.4-.1-.1-.2-.2-.3-.4Z"/><path fill="#324e48" fill-opacity=".75" d="M264.2 670.6c.1.2.3.5.4.8-.1-.3-.3-.6-.4-.8Zm-9.3-6.6c3 .5 5.5 1.9 7.4 4-1.6-1.7-3.7-3.1-6.1-3.7-4.3-1.2-8.7 0-11.9 2.7.1 0 .2-.1.2-.1 2.8-2.4 6.5-3.5 10.4-2.9Zm7.7 4.3c.2.2.3.4.5.6-.1-.2-.3-.4-.5-.6Zm.9 1.1c.1.2.3.4.4.6-.1-.2-.3-.4-.4-.6Zm1.6 3.1c-.1-.3-.3-.7-.4-1 .1.3.2.6.4 1Z"/><path fill="#3c6158" d="M265 672.4c-.1-.3-.2-.6-.4-.9 0-.1-.1-.1-.1-.2-.1-.3-.3-.5-.4-.8-.1-.2-.2-.3-.3-.5-.1-.2-.3-.4-.4-.6-.1-.2-.3-.3-.4-.5-.2-.2-.3-.4-.5-.6-.1-.1-.2-.2-.3-.4-1.9-2-4.4-3.5-7.4-4-3.8-.6-7.6.5-10.4 2.8 13-5.6 20 4.7 20.6 5.7Z"/><path fill="#324e48" fill-opacity=".75" d="M265 672.4c-.1-.3-.2-.6-.4-.9 0-.1-.1-.1-.1-.2-.1-.3-.3-.5-.4-.8-.1-.2-.2-.3-.3-.5-.1-.2-.3-.4-.4-.6-.1-.2-.3-.3-.4-.5-.2-.2-.3-.4-.5-.6-.1-.1-.2-.2-.3-.4-1.9-2-4.4-3.5-7.4-4-3.8-.6-7.6.5-10.4 2.8 13-5.6 20 4.7 20.6 5.7Z"/><path fill="#bab1cb" fill-opacity=".25" d="m261.7 686.3.6-.6-.6.6Z"/><path fill="#3c6158" d="M240.3 680.1c1.2 4.3 4.5 7.9 9.2 9.2 4.5 1.2 9-.1 12.2-3l.6-.6c-15.1 9.6-22-5.6-22-5.6Z"/><path fill="#bab1cb" fill-opacity=".25" d="M240.3 680.1c1.2 4.3 4.5 7.9 9.2 9.2 4.5 1.2 9-.1 12.2-3l.6-.6c-15.1 9.6-22-5.6-22-5.6Z"/><path fill="#3c6158" d="m92.9 726.1 2.7-.6c-.8.2-1.8.4-2.7.6Zm-8.6 2.9c.9-.4 1.7-.7 2.6-1.1-.9.4-1.8.7-2.6 1.1Zm2.6-1.1Zm49.3 88.6c.7-.6 1.4-1.1 2.1-1.7-.7.6-1.4 1.2-2.1 1.7Z"/><path fill="#3c6158" d="M104.8 724.7c-3 0-6 .3-8.9.8 7.1-1.2 14.6-1 22.1 1 17.1 4.5 29.8 17.2 35.2 32.7 0 0-24.1-40.3-70.6-26.3.5 1 1 2.1 1.5 3.1 14.4 28.8 31.6 55.3 51.1 79.3 2.2-1.2 4.5-2.5 6.8-4-1.2 1.2-2.4 2.4-3.7 3.5 10.9-9.4 17.8-23.3 17.8-38.8 0-28.3-23-51.3-51.3-51.3Zm-23 5.5 1.8-.9-1.8.9Z"/><path fill="#324e48" fill-opacity=".75" d="M92.7 726.1c.1 0 .2 0 .2-.1 0 .1-.1.1-.2.1Zm-9.1 3.2c.2-.1.5-.2.7-.3-.3.1-.5.2-.7.3Zm12.1-3.8h.3-.3Zm-14.4 4.9c.1-.1.3-.1.4-.2-.1 0-.2.1-.4.2Z"/><path fill="#3c6158" d="M153.2 759.2c-5.4-15.5-18.1-28.2-35.2-32.7-7.4-2-14.9-2.3-22.1-1h-.3l-2.7.6c-.1 0-.2 0-.2.1-2 .5-3.9 1.1-5.8 1.8-.9.3-1.7.7-2.6 1.1-.2.1-.5.2-.7.3l-1.8.9c-.1.1-.3.1-.4.2.4.8.8 1.7 1.2 2.5 46.5-14.1 70.6 26.2 70.6 26.2Z"/><path fill="#324e48" fill-opacity=".75" d="M153.2 759.2c-5.4-15.5-18.1-28.2-35.2-32.7-7.4-2-14.9-2.3-22.1-1h-.3l-2.7.6c-.1 0-.2 0-.2.1-2 .5-3.9 1.1-5.8 1.8-.9.3-1.7.7-2.6 1.1-.2.1-.5.2-.7.3l-1.8.9c-.1.1-.3.1-.4.2.4.8.8 1.7 1.2 2.5 46.5-14.1 70.6 26.2 70.6 26.2Z"/><path fill="#3c6158" d="M142 811.3c-2.3 1.5-4.6 2.8-6.8 4 .3.4.7.8 1 1.3.7-.6 1.4-1.1 2.1-1.7 1.3-1.2 2.5-2.4 3.7-3.6Z"/><path fill="#bab1cb" fill-opacity=".25" d="M142 811.3c-2.3 1.5-4.6 2.8-6.8 4 .3.4.7.8 1 1.3.7-.6 1.4-1.1 2.1-1.7 1.3-1.2 2.5-2.4 3.7-3.6Z"/><path fill="#3c6158" d="m379.5 744.3 2.4.3-2.4-.3Zm-3.1-.2c.4 0 .8 0 1.2.1-.4-.1-.8-.1-1.2-.1Zm19.7 3.7c-4.2-1.4-8.6-2.4-13.1-3.1 2.9.4 5.9 1 8.8 1.8 1.5.4 3 .8 4.3 1.3Zm-22.5-3.8h-1.3 1.3Zm67.7 48.3c-3.1-5-42.6-64.5-115.5-30.5 11.5-10 25.9-16.2 41.3-17.5-37.1 3-66.3 34.1-66.3 72 0 39.9 32.4 72.3 72.3 72.3 20.4 0 38.8-8.4 51.9-22-17.7 18.2-44.4 26.5-70.6 19.5-25.8-6.9-44.6-27-51.1-51.1 0 0 38.6 84.2 122.3 31 12.3-13 19.8-30.5 19.8-49.7 0-8.4-1.5-16.5-4.1-24Zm-73.9-48.1c1.1-.1 2.1-.1 3.2-.2-1.1.1-2.2.2-3.2.2Zm33.6 5.4c.2.1.4.1.5.2-.1-.1-.3-.1-.5-.2Zm-4.4-1.7c.6.2 1.3.4 1.9.7-.7-.2-1.3-.5-1.9-.7Z"/><path fill="#324e48" fill-opacity=".75" d="M370.6 744.1h1.7c-.6-.1-1.2-.1-1.7 0Zm-3.5.2h.3-.3Zm74.2 48c.1.2.2.3.2.3a71.81 71.81 0 0 0-40-42.8c18.5 7.9 33.1 23.4 39.8 42.5Zm-45.2-44.5c.1 0 .3.1.4.1-.1 0-.2-.1-.4-.1Zm-14.2-3.2c.4 0 .8.1 1.2.2-.4-.2-.8-.2-1.2-.2Zm16.6 4c.9.3 1.7.7 2.5 1-.8-.4-1.7-.7-2.5-1Zm-20.9-4.4c.6 0 1.3.1 1.9.1-.6-.1-1.3-.1-1.9-.1Zm-4-.2c.9 0 1.8 0 2.8.1-1-.1-1.9-.1-2.8-.1Z"/><path fill="#3c6158" d="M441.3 792.3c-6.7-19.1-21.3-34.5-39.8-42.5-.2-.1-.3-.2-.5-.2-.8-.4-1.7-.7-2.5-1-.6-.2-1.3-.5-1.9-.7-.1 0-.3-.1-.4-.1-1.4-.5-2.8-.9-4.2-1.3-2.9-.8-5.9-1.4-8.8-1.8-.4-.1-.8-.1-1.2-.2l-2.4-.3c-.6-.1-1.3-.1-1.9-.1-.4 0-.8-.1-1.2-.1-.9 0-1.8-.1-2.8-.1h-3c-1.1 0-2.1.1-3.2.2h-.3c-15.4 1.3-29.9 7.6-41.3 17.5 72.8-33.8 112.3 25.7 115.4 30.7Z"/><path fill="#324e48" fill-opacity=".75" d="M441.3 792.3c-6.7-19.1-21.3-34.5-39.8-42.5-.2-.1-.3-.2-.5-.2-.8-.4-1.7-.7-2.5-1-.6-.2-1.3-.5-1.9-.7-.1 0-.3-.1-.4-.1-1.4-.5-2.8-.9-4.2-1.3-2.9-.8-5.9-1.4-8.8-1.8-.4-.1-.8-.1-1.2-.2l-2.4-.3c-.6-.1-1.3-.1-1.9-.1-.4 0-.8-.1-1.2-.1-.9 0-1.8-.1-2.8-.1h-3c-1.1 0-2.1.1-3.2.2h-.3c-15.4 1.3-29.9 7.6-41.3 17.5 72.8-33.8 112.3 25.7 115.4 30.7Z"/><path fill="#bab1cb" fill-opacity=".25" d="m425.6 866-.6.6.6-.6Z"/><path fill="#3c6158" d="M303.3 835c6.5 24.1 25.3 44.2 51.1 51.1 26.2 7 52.9-1.3 70.6-19.5l.6-.6c-83.7 53.2-122.3-31-122.3-31Z"/><path fill="#bab1cb" fill-opacity=".25" d="M303.3 835c6.5 24.1 25.3 44.2 51.1 51.1 26.2 7 52.9-1.3 70.6-19.5l.6-.6c-83.7 53.2-122.3-31-122.3-31Z"/><path fill="#3c6158" d="M754.4 663.6c-16.5 14.3-27 35.5-27 59.1 0 7.1 1 13.9 2.7 20.5 2.2 4.5 31.3 62.5 91 50.8 22.7-31.8 40.8-66.4 54.1-102.8-12.5-16.3-53.4-58.9-120.8-27.6Z"/><path fill="#324e48" fill-opacity=".75" d="M825.8 647.2c-26.1-7-52.6.1-71.5 16.5 0 0 .1 0 .1-.1 13.7-11.9 31.5-19 51.1-19 31.1 0 57.9 18.2 70.5 44.5v-.1c-9.5-19.9-27.3-35.6-50.2-41.8Z"/><path fill="#3c6158" d="M805.5 644.6c-19.5 0-37.4 7.2-51.1 19 67.3-31.3 108.3 11.2 120.8 27.5.3-.7.5-1.4.8-2.1-12.6-26.2-39.4-44.4-70.5-44.4Z"/><path fill="#324e48" fill-opacity=".75" d="M805.5 644.6c-19.5 0-37.4 7.2-51.1 19 67.3-31.3 108.3 11.2 120.8 27.5.3-.7.5-1.4.8-2.1-12.6-26.2-39.4-44.4-70.5-44.4Z"/><path fill="#bab1cb" fill-opacity=".25" d="M730.1 743.2c-.1-.2-.1-.3-.1-.3 7 26.1 27.3 47.8 55.3 55.3 10.6 2.8 21.2 3.4 31.4 1.9l.1-.1c-3.7.5-7.4.8-11.2.8-36.1 0-66.5-24.4-75.5-57.6Z"/><path fill="#3c6158" d="M730.1 743.2c9 33.2 39.3 57.6 75.4 57.6 3.8 0 7.6-.3 11.2-.8 1.5-2 2.9-4 4.4-6-59.7 11.7-88.8-46.3-91-50.8Z"/><path fill="#bab1cb" fill-opacity=".25" d="M730.1 743.2c9 33.2 39.3 57.6 75.4 57.6 3.8 0 7.6-.3 11.2-.8 1.5-2 2.9-4 4.4-6-59.7 11.7-88.8-46.3-91-50.8Z"/></g><path fill="#3c6158" fill-rule="nonzero" d="M889.1 325.3c0-30.7-32.8-55.9-72.8-55.9H117.1c-40.1 0-72.8 25.1-72.8 55.9 0 30.8 32.8 55.9 72.8 55.9h699.2c40 0 72.8-25.2 72.8-55.9Z"/><path fill="#60b491" fill-rule="nonzero" d="M917.5 314c0-33.2-35.1-60.4-78-60.4h-739c-42.9 0-78 27.2-78 60.4s35.1 60.4 78 60.4h739.1c42.8.1 77.9-27.1 77.9-60.4Z"/><path fill="none" stroke="#e4edf8" stroke-linecap="round" stroke-opacity=".12" stroke-width="13.46" d="M106.5 280.1h466.2"/><path fill="none" stroke="#e4edf8" stroke-linecap="round" stroke-opacity=".15" stroke-width="12.04" d="M606.3 280.1H640"/><path fill="none" stroke="#e3ebf5" stroke-linecap="round" stroke-opacity=".14" stroke-width="13.46" d="M674.5 280.1h146.1"/><g fill-rule="nonzero"><path fill="#fff" d="M470 638.4c57.655 0 104.4-46.745 104.4-104.4 0-57.655-46.745-104.4-104.4-104.4-57.655 0-104.4 46.745-104.4 104.4 0 57.655 46.745 104.4 104.4 104.4Z"/><path fill="#dcefe7" d="M470 627.412c51.591 0 93.412-41.821 93.412-93.412 0-51.591-41.821-93.412-93.412-93.412-51.591 0-93.412 41.821-93.412 93.412 0 51.591 41.821 93.412 93.412 93.412Z"/><path fill="#61b593" d="M504.504 576.656c-5.985 5.803-14.598 9.44-25.839 10.823V604.2h-14.929v-16.277c-7.369-.418-14.39-1.688-21.054-3.898-6.673-2.184-12.067-4.863-16.139-8.048l8.23-18.235c3.776 2.802 8.23 5.133 13.303 7.021a61.041 61.041 0 0 0 15.695 3.602v-24.952c-7.082-1.687-13.041-3.601-17.94-5.663-4.863-2.097-8.96-5.168-12.24-9.179-3.272-4.037-4.925-9.378-4.925-16.043 0-8.256 3.01-15.373 9.03-21.297 6.013-5.925 14.721-9.527 26.075-10.823V463.8h14.92v16.277c12.241 1.01 22.36 4.046 30.329 9.118l-7.465 18.374c-7.465-4.271-15.077-6.873-22.864-7.751v25.395c6.969 1.592 12.859 3.42 17.705 5.455 4.837 2.036 8.874 5.072 12.18 9.117 3.271 4.037 4.924 9.318 4.924 15.895-.026 8.144-3.036 15.13-8.996 20.976Zm-48.99-59.23c1.888 1.593 4.629 2.95 8.222 4.037v-21.21c-3.776.887-6.577 2.305-8.37 4.254-1.8 1.94-2.688 4.21-2.688 6.777 0 2.515.949 4.55 2.837 6.143Zm31.207 46.458c1.793-1.8 2.68-3.923 2.68-6.438 0-2.47-.913-4.54-2.775-6.133-1.853-1.592-4.507-2.975-7.987-4.185v20.62c3.593-.801 6.281-2.071 8.082-3.864Z"/></g></svg>