<?xml version="1.0" encoding="utf-8"?>
<!-- Generator: Adobe Illustrator 24.0.2, SVG Export Plug-In . SVG Version: 6.00 Build 0)  -->
<svg version="1.1" id="Layer_1" xmlns="http://www.w3.org/2000/svg" xmlns:xlink="http://www.w3.org/1999/xlink" x="0px" y="0px"
	 viewBox="0 0 940 1000" style="enable-background:new 0 0 940 1000;" xml:space="preserve">
<style type="text/css">
	.st0{fill:#FFFFFF;stroke:#FFFFFF;stroke-width:49.0083;stroke-miterlimit:10;}
	
		.st1{opacity:0.35;fill:none;stroke:#E4AC23;stroke-width:19.6033;stroke-linecap:round;stroke-miterlimit:10;enable-background:new    ;}
	.st2{fill:#FFFFFF;stroke:#FFFFFF;stroke-width:35.9394;stroke-miterlimit:10;}
	.st3{fill:none;}
	.st4{fill:#FFF3CA;}
	.st5{fill:#FFFFFF;}
	.st6{fill:none;stroke:#FFFFFF;stroke-width:35.9394;stroke-miterlimit:10;}
	.st7{fill:#6F629A;stroke:#FFFFFF;stroke-width:19.6033;stroke-miterlimit:10;}
	.st8{fill:#E4AC23;stroke:#E4AC23;stroke-width:13.0689;stroke-miterlimit:10;}
	.st9{fill:#EEC41A;}
	.st10{opacity:0.45;}
	.st11{fill:#E4AC23;}
	.st12{fill:#F7F9E7;}
	.st13{opacity:0.8;fill:#F7F9E7;enable-background:new    ;}
	.st14{opacity:0.95;fill:#F7F9E7;enable-background:new    ;}
	
		.st15{opacity:0.35;fill:none;stroke:#E4AC23;stroke-width:11.4353;stroke-linecap:round;stroke-miterlimit:10;enable-background:new    ;}
	.st16{fill:#A06C9D;}
	.st17{opacity:0.12;fill:#561D54;enable-background:new    ;}
	.st18{fill:#561D54;}
	.st19{opacity:0.75;fill:#361234;enable-background:new    ;}
	.st20{opacity:0.25;fill:#DC3C91;enable-background:new    ;}
	.st21{opacity:0.25;fill:#C4A3C2;enable-background:new    ;}
	
		.st22{opacity:0.12;fill:none;stroke:#FFFFFF;stroke-width:13.4635;stroke-linecap:round;stroke-miterlimit:10;enable-background:new    ;}
	.st23{fill:#6F629A;stroke:#FFFFFF;stroke-width:5.0488;stroke-miterlimit:10;}
	
		.st24{opacity:0.15;fill:none;stroke:#FFFFFF;stroke-width:12.0421;stroke-linecap:round;stroke-miterlimit:10;enable-background:new    ;}
	
		.st25{opacity:0.14;fill:none;stroke:#FFFFFF;stroke-width:13.4635;stroke-linecap:round;stroke-miterlimit:10;enable-background:new    ;}
	.st26{fill:#1F1E29;}
	.st27{fill:#479CD5;}
	.st28{fill:#F9AE78;}
	.st29{fill:#C37048;}
	.st30{fill:#479BD5;}
	.st31{fill:#BF6E4A;}
	.st32{fill:#3E434A;}
	.st33{fill:#3F4549;}
	.st34{fill:#C37349;}
	.st35{fill:#9EA0AC;}
	.st36{fill:#3F464C;}
	.st37{fill:#3E464A;}
	.st38{fill:#9E9FAA;}
	.st39{fill:#9B9DA8;}
	.st40{fill:#110E19;}
</style>
<g>
	<g>
		<g>
			<path class="st0" d="M622.7,25.4c-60.3,0-114.3,27-150.6,69.6c-22.2-26.7-55.5-43.5-92.8-43.5c-66.8,0-120.9,54.2-120.9,120.9
				c0,1.1,0.1,2.2,0.1,3.3c-6.5-1.1-13-1.6-19.7-1.6c-65.9,0-119.3,53.4-119.3,119.3c0,0,238.5,3.3,238.4,3.3h81.2
				c29.2,72.8,100.3,124.2,183.5,124.2c109.1,0,197.7-88.5,197.7-197.7S731.9,25.4,622.7,25.4z"/>
		</g>
		<g>
			<path class="st1" d="M438.2,228.8"/>
			<path class="st2" d="M865.5,370c91.6,209,4.2,455.5-202.3,558.9C450,1035.5,190.7,949.2,84.1,736c-59.4-118.8-58.9-252-9.8-365.1
				"/>
			<path class="st3" d="M496,109.2"/>
			<path class="st4" d="M496.2,109.2"/>
			<path class="st4" d="M508.6,89.7"/>
			<g>
				<path class="st5" d="M917.5,314c0-33.2-35.1-60.4-77.9-60.4H100.5c-42.8,0-77.9,27.2-77.9,60.4s35.1,60.4,77.9,60.4h739.1
					C882.4,374.5,917.5,347.3,917.5,314z"/>
				<path class="st6" d="M917.5,314c0-33.2-35.1-60.4-77.9-60.4H100.5c-42.8,0-77.9,27.2-77.9,60.4s35.1,60.4,77.9,60.4h739.1
					C882.4,374.5,917.5,347.3,917.5,314z"/>
			</g>
			<path class="st7" d="M559.5,269.4"/>
		</g>
	</g>
	<g>
		<path class="st8" d="M622.7,25.4c-60.3,0-114.3,27-150.6,69.6c-22.2-26.7-55.5-43.5-92.8-43.5c-66.8,0-120.9,54.2-120.9,120.9
			c0,1.1,0.1,2.2,0.1,3.3c-6.5-1.1-13-1.6-19.7-1.6c-65.9,0-119.3,53.4-119.3,119.3c0,0,238.5,3.3,238.4,3.3h81.2
			c29.2,72.8,100.3,124.2,183.5,124.2c109.1,0,197.7-88.5,197.7-197.7S731.9,25.4,622.7,25.4z"/>
		<g>
			<path class="st9" d="M622.7,25.4c-60.3,0-114.3,27-150.6,69.6c-22.2-26.7-55.5-43.5-92.8-43.5c-66.8,0-120.9,54.2-120.9,120.9
				c0,1.1,0.1,2.2,0.1,3.3c-6.5-1.1-13-1.6-19.7-1.6c-65.9,0-119.3,53.4-119.3,119.3c0,0,238.5,3.3,238.4,3.3h81.2
				c29.2,72.8,100.3,124.2,183.5,124.2c109.1,0,197.7-88.5,197.7-197.7S731.9,25.4,622.7,25.4z"/>
			<g class="st10">
				<path class="st11" d="M493.3,106.3c5.3-6.3,11-12.4,17.2-17.9c0.8-0.7,1.5-1.4,2.3-2.1l2.4-2c1.6-1.3,3.2-2.7,4.9-3.9l5-3.7
					c1.7-1.2,3.5-2.3,5.2-3.5c1-0.6,1.7-1.2,2.6-1.7l2.7-1.6c1.8-1,3.6-2.1,5.5-3.1c3.7-1.9,7.4-3.9,11.3-5.6
					c7.6-3.6,15.5-6.3,23.8-8.6l6.1-1.6c2.1-0.5,4.1-1,6.2-1.3l3.1-0.6c1-0.2,2.1-0.3,3.1-0.5l6.3-1l6.3-0.6l3.2-0.3l3.2-0.1
					l6.5-0.2l6.5,0.1c2.1,0,4.2,0.1,6.5,0.3c2.1,0.2,4.2,0.2,6.3,0.5l6.3,0.7l6.3,1c2.1,0.3,4.2,0.8,6.3,1.2s4.2,0.8,6.2,1.4
					c2.1,0.5,4.1,1,6.2,1.6l6.1,1.9c8.1,2.7,16,5.9,23.6,9.7c7.6,3.9,14.9,8.2,21.9,13.1s13.5,10.3,19.7,16.1
					c1.5,1.5,3.1,2.9,4.5,4.4l4.4,4.5c1.4,1.6,2.7,3.2,4.2,4.8c1.4,1.6,2.7,3.3,4,4.9c5.2,6.6,10,13.7,14,21
					c4.1,7.3,7.8,14.9,10.7,22.8c0.4,1,0.7,2,1.1,3l1,3l1,3l1,3c0.6,2,1.2,4,1.7,6l1.4,6.1c0.4,2,0.8,4.1,1.1,6.1
					c0.4,2,0.7,4.1,1,6.2c0.6,4.1,0.8,8.2,1.1,12.4c-1-4-1.7-8.1-2.7-12c-1-4-2.2-7.9-3.4-11.8c-2.6-7.7-5.6-15.3-9.2-22.6l-2.7-5.4
					l-2.9-5.3c-1-1.8-2-3.5-3.1-5.2l-1.6-2.6c-0.5-1-1.1-1.7-1.7-2.5c-1.1-1.7-2.2-3.4-3.4-5L760,128c-2.5-3.2-4.9-6.3-7.6-9.3
					c-21-24.2-48.4-42.6-78.8-52.5c-7.5-2.6-15.3-4.4-23.1-5.9c-7.8-1.6-15.8-2.3-23.7-2.7l-6-0.2l-6,0.1h-3l-3,0.2l-6,0.4l-6,0.7
					c-1,0.1-2,0.2-3,0.3l-3,0.5c-2,0.3-4,0.6-5.9,1l-5.9,1.3C547.1,68.3,517.6,84,493.3,106.3z"/>
			</g>
			<g class="st10">
				<path class="st11" d="M298.3,123.3c4.5-10.2,11.4-19.7,19.8-27.5c8.2-8,18.4-14.2,29.2-18.5c5.5-2,11.1-3.9,16.9-4.8l2.2-0.4
					c0.7-0.1,1.5-0.2,2.2-0.3l4.4-0.5c1.5-0.1,2.9-0.2,4.4-0.3c1.5-0.1,2.9-0.2,4.4-0.1c11.8-0.1,23.6,2.2,34.7,6.5
					c22.2,8.4,40.7,25.5,51.2,46.5c5.2,10.5,8.2,21.9,9.3,33.4c1,11.5-0.3,23-3.9,33.7c1.1-11.2,0.7-22.3-1.7-32.9
					c-2.3-10.6-6.2-20.7-11.6-29.9C449,109.9,432,95.6,412.5,88.1c-4.9-1.9-9.9-3.4-15.1-4.4c-1.3-0.2-2.6-0.5-3.9-0.7l-3.9-0.5
					l-3.9-0.4c-1.3-0.1-2.6-0.1-3.9-0.2c-10.5-0.4-21.2,1.1-31.3,4.2C329.9,91.9,311.6,105.3,298.3,123.3z"/>
			</g>
			<g class="st10">
				<path class="st11" d="M205.5,197.7c3.9-2.6,8.2-4.4,12.6-5.9c4.5-1.4,9.1-2.3,13.9-2.6c9.4-0.6,19.2,0.6,28.2,3.9
					c4.5,1.6,8.8,3.8,12.9,6.2l3,2c0.5,0.3,1,0.7,1.5,1l1.4,1.1l2.7,2.2l2.6,2.4c0.4,0.4,1,0.8,1.3,1.2l1.2,1.3
					c0.8,1,1.6,1.7,2.4,2.6c0.7,1,1.4,1.9,2.1,2.7l1,1.4l1,1.5l1.8,3c0.5,1,1.1,2.1,1.6,3.1l0.8,1.6l0.6,1.6
					c0.4,1.1,0.8,2.2,1.2,3.3c-1-0.8-1.7-1.5-2.6-2.3l-1.2-1.2l-1.3-1.1c-1-0.7-1.7-1.5-2.5-2.2l-2.6-2.1l-1.2-1.1l-1.3-1l-2.6-2
					c-1.8-1.2-3.5-2.5-5.3-3.6c-3.5-2.4-7.2-4.4-10.9-6.3c-1-0.4-1.9-1-2.7-1.3l-1.4-0.7l-1.4-0.6l-2.7-1l-2.9-1.1
					c-7.8-2.9-16-4.7-24.4-5.7C223.5,197.1,214.8,197.2,205.5,197.7z"/>
			</g>
			<g>
				<polygon class="st12" points="538.7,127 527,133.4 520.7,145 514.3,133.4 502.6,127 514.3,120.7 520.7,109.1 527,120.7 				"/>
				<polygon class="st13" points="357.4,192.5 345.7,198.9 339.4,210.5 333.1,198.9 321.4,192.5 333.1,186.1 339.4,174.5 
					345.7,186.1 				"/>
				<polygon class="st14" points="757.6,212.1 746,218.5 739.6,230.1 733.3,218.5 721.6,212.1 733.3,205.8 739.6,194.1 746,205.8 
									"/>
			</g>
		</g>
	</g>
	<path class="st15" d="M438.2,228.8"/>
	<path class="st16" d="M865.5,370c91.6,209,4.2,455.5-202.3,558.9C450,1035.5,190.7,949.2,84.1,736c-59.4-118.8-58.9-252-9.8-365.1"
		/>
	<path class="st17" d="M648,695.8c-211.2,84.7-451.1-17.8-535.9-229c-10-25.1-17.3-50.6-22.2-76.1c-35.1,93.1-37.2,198.9,2.7,298.5
		c84.7,211.2,324.7,313.8,535.9,229c186.1-74.7,287.7-269.8,251.2-459.8C840.5,562.7,759.6,651,648,695.8z"/>
	<path class="st18" d="M141.6,489.1c0.4,0,1,0,1.3,0.1C142.6,489.2,142.2,489.2,141.6,489.1z"/>
	<path class="st18" d="M139.8,489.1c-0.2,0-0.4,0-0.6,0C139.4,489.1,139.6,489.1,139.8,489.1L139.8,489.1z"/>
	<path class="st18" d="M178.1,578.2c-6.5,6.8-14.6,11.8-23.6,14.4c22-6.5,38.1-26.7,38.1-50.7c0-6.1-1-12-2.9-17.5
		c-1.1-1.7-29.9-47.9-84.5-22.4c6.5-5.6,14-9.5,22.2-11.5C104.3,496.2,87,517,87,541.8c0,4.8,0.6,9.4,1.8,13.7
		C89.5,556.9,117.7,616.7,178.1,578.2z"/>
	<path class="st18" d="M134.2,489.4c0.4,0,1-0.1,1.3-0.1C135.2,489.3,134.7,489.3,134.2,489.4z"/>
	<path class="st18" d="M154.5,592.6c-0.8,0.2-1.7,0.5-2.5,0.7C152.8,593.1,153.8,592.8,154.5,592.6z"/>
	<path class="st18" d="M131.2,489.8c0.6-0.1,1.2-0.2,1.8-0.3C132.3,489.6,131.7,489.7,131.2,489.8z"/>
	<path class="st18" d="M157.2,492c0.8,0.3,1.5,0.6,2.3,1C158.7,492.6,157.9,492.3,157.2,492z"/>
	<path class="st18" d="M160,493.1c1,0.4,1.8,0.8,2.7,1.2C161.8,493.9,161.1,493.5,160,493.1z"/>
	<path class="st18" d="M144.5,489.3c0.6,0.1,1.2,0.1,1.8,0.2C145.6,489.4,145,489.4,144.5,489.3z"/>
	<path class="st18" d="M147.3,489.6c1,0.1,1.9,0.3,2.7,0.5C149.2,489.9,148.3,489.8,147.3,489.6z"/>
	<path class="st18" d="M153.8,491c1,0.2,1.7,0.5,2.6,0.8C155.6,491.5,154.7,491.2,153.8,491z"/>
	<path class="st18" d="M90.3,560.2c-0.1-0.2-0.1-0.4-0.2-0.6C90.1,559.9,90.2,560,90.3,560.2z"/>
	<path class="st18" d="M127.9,490.5c0.8-0.2,1.5-0.3,2.3-0.5C129.5,490.1,128.6,490.3,127.9,490.5z"/>
	<path class="st18" d="M127.2,593.2c-0.3-0.1-0.7-0.2-1-0.2C126.6,593,126.9,593.1,127.2,593.2z"/>
	<path class="st18" d="M129.5,593.7c-0.3-0.1-0.5-0.1-0.8-0.2C128.9,593.6,129.2,593.6,129.5,593.7z"/>
	<path class="st18" d="M131.8,594.1L131.8,594.1L131.8,594.1z"/>
	<path class="st18" d="M121.7,591.5L121.7,591.5L121.7,591.5z"/>
	<path class="st18" d="M124.3,592.4c-0.1,0-0.3-0.1-0.4-0.1C124.1,592.3,124.2,592.3,124.3,592.4z"/>
	<path class="st18" d="M89.5,558.1c-0.1-0.2-0.2-0.5-0.2-0.7C89.5,557.6,89.5,557.8,89.5,558.1z"/>
	<path class="st18" d="M150.1,593.7c0.3-0.1,0.6-0.1,1-0.2C150.6,593.6,150.3,593.6,150.1,593.7z"/>
	<path class="st18" d="M92.2,564.8C92.2,564.8,92.2,564.7,92.2,564.8C92.2,564.7,92.2,564.8,92.2,564.8z"/>
	<path class="st18" d="M91.4,562.7c-0.1-0.1-0.1-0.2-0.2-0.4C91.2,562.4,91.3,562.6,91.4,562.7z"/>
	<path class="st18" d="M150.2,490.1c1.1,0.2,2.1,0.5,3.2,0.7C152.3,490.7,151.4,490.3,150.2,490.1z"/>
	<path class="st18" d="M178.6,506.1c0.6,0.6,1.1,1.2,1.7,1.9C179.7,507.3,179.2,506.7,178.6,506.1z"/>
	<path class="st18" d="M173.4,501.1C173.5,501.1,173.5,501.1,173.4,501.1C173.5,501.1,173.5,501.1,173.4,501.1z"/>
	<path class="st18" d="M180.4,508.2c0.7,0.8,1.3,1.6,1.9,2.4C181.7,509.8,181.2,508.9,180.4,508.2z"/>
	<path class="st18" d="M185.8,516c1.5,2.6,2.7,5.4,3.8,8.2C188.6,521.4,187.3,518.6,185.8,516z"/>
	<path class="st18" d="M176.6,504.1c0.4,0.4,0.8,0.8,1.1,1.1C177.5,504.8,177.1,504.5,176.6,504.1z"/>
	<path class="st18" d="M163.6,494.8c0.6,0.3,1.1,0.6,1.6,1C164.8,495.3,164.3,495.1,163.6,494.8z"/>
	<path class="st18" d="M174.6,502.2c0.3,0.3,0.7,0.6,1,1C175.4,502.8,174.9,502.5,174.6,502.2z"/>
	<path class="st18" d="M169.1,497.9c0.3,0.2,0.6,0.4,1,0.6C169.8,498.4,169.4,498.2,169.1,497.9z"/>
	<path class="st18" d="M166.6,496.4c0.4,0.2,0.8,0.4,1.1,0.7C167.3,496.8,167,496.6,166.6,496.4z"/>
	<path class="st18" d="M184.2,513.4c0.5,0.8,1.1,1.7,1.5,2.5C185.3,515,184.9,514.2,184.2,513.4z"/>
	<path class="st18" d="M182.4,510.7c0.6,0.8,1.2,1.6,1.7,2.5C183.5,512.3,183.1,511.5,182.4,510.7z"/>
	<path class="st19" d="M153.6,490.9L153.6,490.9c0,0,0.2,0.1,0.3,0.1C153.8,491,153.7,490.9,153.6,490.9z"/>
	<path class="st19" d="M167.7,497.1c0.5,0.3,1,0.6,1.4,1C168.6,497.7,168.3,497.4,167.7,497.1z"/>
	<path class="st19" d="M159.4,492.9c0.2,0.1,0.5,0.2,0.7,0.3C159.8,493,159.6,493,159.4,492.9z"/>
	<path class="st19" d="M135.6,489.3c1.2-0.1,2.4-0.2,3.6-0.2C138,489.1,136.9,489.2,135.6,489.3z"/>
	<path class="st19" d="M165.3,495.6c0.4,0.2,1,0.5,1.3,0.8C166.2,496.2,165.7,495.9,165.3,495.6z"/>
	<path class="st19" d="M162.8,494.2c0.3,0.1,0.6,0.3,1,0.5C163.3,494.6,163,494.5,162.8,494.2z"/>
	<path class="st19" d="M139.9,489.1c0.6,0,1.2,0,1.8,0C141,489.1,140.6,489.1,139.9,489.1z"/>
	<path class="st19" d="M142.9,489.2c0.5,0,1,0.1,1.5,0.1C144,489.3,143.4,489.2,142.9,489.2z"/>
	<path class="st19" d="M150.1,490.1L150.1,490.1C150.2,490.1,150.1,490.1,150.1,490.1z"/>
	<path class="st19" d="M146.3,489.5c0.4,0,0.7,0.1,1.1,0.1C146.9,489.6,146.6,489.5,146.3,489.5z"/>
	<path class="st19" d="M156.4,491.8c0.2,0.1,0.5,0.2,0.7,0.2C156.9,491.9,156.6,491.9,156.4,491.8z"/>
	<path class="st19" d="M184.1,513.2c0,0.1,0.1,0.1,0.1,0.2C184.2,513.3,184.1,513.2,184.1,513.2z"/>
	<path class="st19" d="M182.3,510.6C182.4,510.6,182.4,510.7,182.3,510.6C182.4,510.7,182.4,510.6,182.3,510.6z"/>
	<path class="st19" d="M185.8,515.9C185.8,515.9,185.8,516,185.8,515.9C185.8,516,185.8,515.9,185.8,515.9z"/>
	<path class="st19" d="M170.1,498.6c1.1,0.8,2.3,1.6,3.4,2.5C172.3,500.2,171.1,499.4,170.1,498.6z"/>
	<path class="st19" d="M180.2,508c0.1,0.1,0.1,0.2,0.2,0.2C180.4,508.1,180.3,508,180.2,508z"/>
	<path class="st19" d="M177.8,505.2c0.3,0.3,0.5,0.6,0.8,0.8C178.3,505.8,178,505.5,177.8,505.2z"/>
	<path class="st19" d="M173.5,501.2c0.4,0.3,0.8,0.7,1.2,1.1C174.2,501.9,173.9,501.5,173.5,501.2z"/>
	<path class="st19" d="M189.7,524.6c0-0.1-0.1-0.2-0.1-0.3C189.6,524.4,189.6,524.5,189.7,524.6L189.7,524.6z"/>
	<path class="st19" d="M175.7,503.1c0.4,0.3,0.7,0.7,1,1C176.3,503.7,175.9,503.4,175.7,503.1z"/>
	<path class="st19" d="M133,489.6c0.4-0.1,1-0.1,1.3-0.2C133.8,489.4,133.5,489.5,133,489.6z"/>
	<path class="st19" d="M127.5,490.7c0.1,0,0.3-0.1,0.4-0.1C127.8,490.5,127.6,490.5,127.5,490.7z"/>
	<path class="st19" d="M130.2,490c0.3-0.1,0.6-0.1,1-0.2C130.8,489.9,130.5,489.9,130.2,490z"/>
	<path class="st18" d="M189.7,524.5c0-0.1-0.1-0.2-0.1-0.3c-1-2.9-2.3-5.7-3.8-8.2c0,0,0,0,0-0.1c-0.5-1-1-1.7-1.5-2.5
		c0-0.1-0.1-0.1-0.1-0.2c-0.5-0.8-1.1-1.7-1.7-2.5c0,0,0,0,0-0.1c-0.6-0.8-1.2-1.6-1.9-2.4c-0.1-0.1-0.1-0.2-0.2-0.2
		c-0.5-0.6-1.1-1.3-1.7-1.9c-0.3-0.3-0.5-0.6-0.8-0.8c-0.4-0.4-0.8-0.8-1.1-1.1c-0.3-0.3-0.7-0.7-1-1c-0.2-0.2-0.7-0.6-1-1
		c-0.4-0.4-0.8-0.7-1.2-1.1l0,0c-1.1-1-2.2-1.7-3.4-2.5c-0.3-0.2-0.6-0.4-1-0.6c-0.5-0.3-1-0.6-1.4-1c-0.4-0.2-0.7-0.5-1.1-0.7
		c-0.4-0.3-1-0.5-1.3-0.8c-0.5-0.3-1.1-0.6-1.6-1c-0.3-0.2-0.6-0.3-1-0.5c-1-0.4-1.8-0.8-2.7-1.2c-0.2-0.1-0.4-0.2-0.7-0.3
		c-0.8-0.3-1.5-0.6-2.3-1c-0.2-0.1-0.5-0.2-0.7-0.2c-1-0.3-1.7-0.5-2.6-0.8c-0.1,0-0.3-0.1-0.4-0.1c-1.1-0.3-2.1-0.5-3.2-0.7h-0.1
		c-1-0.2-1.9-0.3-2.7-0.5c-0.4-0.1-0.7-0.1-1.1-0.1c-0.6-0.1-1.2-0.1-1.8-0.2c-0.5,0-1-0.1-1.5-0.1c-0.4,0-1,0-1.3-0.1
		c-0.6,0-1.2,0-1.8,0c-0.2,0-0.5,0-0.7,0c-1.2,0-2.4,0.1-3.6,0.2c-0.4,0-1,0.1-1.3,0.1c-0.4,0-1,0.1-1.3,0.2
		c-0.6,0.1-1.2,0.2-1.8,0.3c-0.3,0.1-0.6,0.1-1,0.2c-0.8,0.1-1.6,0.3-2.3,0.5c-0.1,0-0.3,0.1-0.4,0.1c-8.2,2-15.8,6-22.2,11.5
		C159.8,476.7,188.6,522.8,189.7,524.5z"/>
	<path class="st19" d="M189.7,524.5c0-0.1-0.1-0.2-0.1-0.3c-1-2.9-2.3-5.7-3.8-8.2c0,0,0,0,0-0.1c-0.5-1-1-1.7-1.5-2.5
		c0-0.1-0.1-0.1-0.1-0.2c-0.5-0.8-1.1-1.7-1.7-2.5c0,0,0,0,0-0.1c-0.6-0.8-1.2-1.6-1.9-2.4c-0.1-0.1-0.1-0.2-0.2-0.2
		c-0.5-0.6-1.1-1.3-1.7-1.9c-0.3-0.3-0.5-0.6-0.8-0.8c-0.4-0.4-0.8-0.8-1.1-1.1c-0.3-0.3-0.7-0.7-1-1c-0.2-0.2-0.7-0.6-1-1
		c-0.4-0.4-0.8-0.7-1.2-1.1l0,0c-1.1-1-2.2-1.7-3.4-2.5c-0.3-0.2-0.6-0.4-1-0.6c-0.5-0.3-1-0.6-1.4-1c-0.4-0.2-0.7-0.5-1.1-0.7
		c-0.4-0.3-1-0.5-1.3-0.8c-0.5-0.3-1.1-0.6-1.6-1c-0.3-0.2-0.6-0.3-1-0.5c-1-0.4-1.8-0.8-2.7-1.2c-0.2-0.1-0.4-0.2-0.7-0.3
		c-0.8-0.3-1.5-0.6-2.3-1c-0.2-0.1-0.5-0.2-0.7-0.2c-1-0.3-1.7-0.5-2.6-0.8c-0.1,0-0.3-0.1-0.4-0.1c-1.1-0.3-2.1-0.5-3.2-0.7h-0.1
		c-1-0.2-1.9-0.3-2.7-0.5c-0.4-0.1-0.7-0.1-1.1-0.1c-0.6-0.1-1.2-0.1-1.8-0.2c-0.5,0-1-0.1-1.5-0.1c-0.4,0-1,0-1.3-0.1
		c-0.6,0-1.2,0-1.8,0c-0.2,0-0.5,0-0.7,0c-1.2,0-2.4,0.1-3.6,0.2c-0.4,0-1,0.1-1.3,0.1c-0.4,0-1,0.1-1.3,0.2
		c-0.6,0.1-1.2,0.2-1.8,0.3c-0.3,0.1-0.6,0.1-1,0.2c-0.8,0.1-1.6,0.3-2.3,0.5c-0.1,0-0.3,0.1-0.4,0.1c-8.2,2-15.8,6-22.2,11.5
		C159.8,476.7,188.6,522.8,189.7,524.5z"/>
	<path class="st20" d="M128.6,593.5c-0.5-0.1-1-0.2-1.4-0.3C127.8,593.3,128.2,593.5,128.6,593.5z"/>
	<path class="st20" d="M92.2,564.7c-0.3-0.7-0.6-1.3-1-2C91.5,563.4,91.8,564.1,92.2,564.7z"/>
	<path class="st20" d="M152,593.3c-0.4,0.1-0.7,0.2-1.1,0.3C151.2,593.5,151.7,593.5,152,593.3z"/>
	<path class="st20" d="M131.7,594.1c-0.8-0.1-1.5-0.3-2.3-0.4C130.2,593.8,131,594,131.7,594.1z"/>
	<path class="st20" d="M126.2,592.9c0.1,0,0.1,0,0.2,0c-0.7-0.2-1.4-0.4-2-0.6C124.8,592.6,125.5,592.7,126.2,592.9z"/>
	<path class="st20" d="M154.5,592.6L154.5,592.6L154.5,592.6z"/>
	<path class="st20" d="M123.9,592.2c-0.7-0.2-1.4-0.5-2.1-0.7C122.5,591.8,123.1,592,123.9,592.2z"/>
	<path class="st20" d="M91.2,562.3c-0.3-0.7-0.6-1.4-0.8-2.1C90.5,560.9,90.9,561.6,91.2,562.3z"/>
	<path class="st20" d="M131.8,594.1c6.2,1,12.3,0.8,18.2-0.4c-3.3,0.6-6.7,1-10.2,1C137.2,594.7,134.4,594.5,131.8,594.1z"/>
	<path class="st20" d="M92.2,564.8c5.8,12,16.1,21.8,29.4,26.7C108.7,586.7,98.3,577.1,92.2,564.8z"/>
	<path class="st20" d="M88.8,555.6c0.2,0.6,0.3,1.2,0.5,1.8C89.2,556.8,89.1,556.2,88.8,555.6L88.8,555.6z"/>
	<path class="st20" d="M90.1,559.7c-0.2-0.5-0.4-1.1-0.5-1.6C89.7,558.6,89.9,559.1,90.1,559.7z"/>
	<path class="st18" d="M152,593.3c1-0.2,1.7-0.4,2.5-0.7l0,0c9-2.6,17.1-7.6,23.6-14.4c-60.4,38.5-88.7-21.3-89.3-22.6
		c0.2,0.6,0.3,1.2,0.5,1.7c0.1,0.2,0.2,0.5,0.2,0.7c0.2,0.5,0.3,1.1,0.5,1.6c0.1,0.2,0.1,0.4,0.2,0.6c0.3,0.7,0.5,1.4,0.8,2.1
		c0.1,0.1,0.1,0.2,0.2,0.4c0.3,0.7,0.6,1.4,1,2c0,0,0,0.1,0.1,0.1c5.9,12.3,16.5,21.9,29.4,26.7h0.1c0.7,0.3,1.4,0.5,2.1,0.7
		c0.1,0,0.3,0.1,0.4,0.1c0.7,0.2,1.4,0.4,2,0.6c0.3,0.1,0.7,0.2,1,0.2c0.5,0.1,1,0.2,1.4,0.3c0.3,0.1,0.5,0.1,0.8,0.2
		c0.8,0.2,1.5,0.3,2.3,0.4c0,0,0,0,0.1,0c2.6,0.4,5.3,0.6,8,0.6c3.5,0,6.9-0.3,10.2-1c0.3-0.1,0.6-0.1,1-0.2
		C151.2,593.5,151.7,593.5,152,593.3z"/>
	<path class="st21" d="M152,593.3c1-0.2,1.7-0.4,2.5-0.7l0,0c9-2.6,17.1-7.6,23.6-14.4c-60.4,38.5-88.7-21.3-89.3-22.6
		c0.2,0.6,0.3,1.2,0.5,1.7c0.1,0.2,0.2,0.5,0.2,0.7c0.2,0.5,0.3,1.1,0.5,1.6c0.1,0.2,0.1,0.4,0.2,0.6c0.3,0.7,0.5,1.4,0.8,2.1
		c0.1,0.1,0.1,0.2,0.2,0.4c0.3,0.7,0.6,1.4,1,2c0,0,0,0.1,0.1,0.1c5.9,12.3,16.5,21.9,29.4,26.7h0.1c0.7,0.3,1.4,0.5,2.1,0.7
		c0.1,0,0.3,0.1,0.4,0.1c0.7,0.2,1.4,0.4,2,0.6c0.3,0.1,0.7,0.2,1,0.2c0.5,0.1,1,0.2,1.4,0.3c0.3,0.1,0.5,0.1,0.8,0.2
		c0.8,0.2,1.5,0.3,2.3,0.4c0,0,0,0,0.1,0c2.6,0.4,5.3,0.6,8,0.6c3.5,0,6.9-0.3,10.2-1c0.3-0.1,0.6-0.1,1-0.2
		C151.2,593.5,151.7,593.5,152,593.3z"/>
	<path class="st18" d="M632.4,712.2L632.4,712.2C632.5,712.3,632.5,712.2,632.4,712.2z"/>
	<path class="st18" d="M632.6,712.6c-0.5-1-14.2-22.6-40-10.8c-5.4,4.5-8.8,11.4-8.8,19.1c0,2.3,0.3,4.5,1,6.8
		c1.4,2.9,14.9,27.8,42.3,10.6c4.3-4.5,7-10.6,7-17.3C633.9,718,633.4,715.2,632.6,712.6z"/>
	<path class="st19" d="M632.4,712.2c-2.7-7.4-8.9-13.4-17-15.5c-8.4-2.2-16.9,0-23,5.3c0.1,0,0.1-0.1,0.2-0.1c4.4-3.7,10-6,16.3-6
		C619.7,695.8,628.9,702.6,632.4,712.2z"/>
	<path class="st19" d="M632.6,712.6c0-0.1-0.1-0.2-0.1-0.3C632.5,712.4,632.5,712.5,632.6,712.6L632.6,712.6z"/>
	<path class="st18" d="M632.6,712.6c0-0.1-0.1-0.2-0.1-0.3v-0.1c-3.5-9.6-12.7-16.4-23.5-16.4c-6.2,0-12,2.3-16.3,6
		C618.3,690,631.9,711.7,632.6,712.6z"/>
	<path class="st19" d="M632.6,712.6c0-0.1-0.1-0.2-0.1-0.3v-0.1c-3.5-9.6-12.7-16.4-23.5-16.4c-6.2,0-12,2.3-16.3,6
		C618.3,690,631.9,711.7,632.6,712.6z"/>
	<path class="st20" d="M608.9,746c-11.5,0-21.2-7.8-24.2-18.3c-0.1-0.2-0.1-0.3-0.1-0.3c2.3,8.4,8.8,15.4,17.8,17.8
		c9.2,2.5,18.6-0.5,24.7-7c0,0,0,0-0.1,0C622.4,743,616,746,608.9,746z"/>
	<path class="st18" d="M584.7,727.7c3,10.6,12.7,18.3,24.2,18.3c7.1,0,13.6-3,18.1-7.8C599.6,755.5,586.1,730.6,584.7,727.7z"/>
	<path class="st21" d="M584.7,727.7c3,10.6,12.7,18.3,24.2,18.3c7.1,0,13.6-3,18.1-7.8C599.6,755.5,586.1,730.6,584.7,727.7z"/>
	<path class="st18" d="M680,458.6c-0.1-0.1-0.2-0.3-0.2-0.4C679.7,458.4,679.9,458.5,680,458.6z"/>
	<path class="st18" d="M731.1,430.6c0.1,0.1,0.1,0.2,0.2,0.4C731.4,430.8,731.3,430.7,731.1,430.6z"/>
	<path class="st18" d="M678.4,455.3c-0.1-0.4-0.3-0.7-0.4-1.1C678.2,454.6,678.3,455,678.4,455.3z"/>
	<path class="st18" d="M679.2,457.3c-0.2-0.5-0.4-1-0.6-1.4C678.8,456.4,679,456.8,679.2,457.3z"/>
	<path class="st18" d="M677.8,453.7c-0.1-0.4-0.3-0.8-0.4-1.2C677.5,452.9,677.6,453.3,677.8,453.7z"/>
	<path class="st18" d="M680.5,459.8C680.5,459.8,680.5,459.7,680.5,459.8C680.5,459.7,680.5,459.8,680.5,459.8z"/>
	<path class="st18" d="M726.4,465.1c5.2-5.3,8.4-12.5,8.4-20.5c0-3.4-0.6-6.7-1.7-9.7c-1-1.6-16.8-26-46.4-12.6
		c-6.3,5.4-10.4,13.4-10.4,22.3c0,2.6,0.4,5.2,1,7.6C677.8,453.3,693.3,485.6,726.4,465.1z"/>
	<path class="st18" d="M730.4,429.4c0,0.1,0.1,0.2,0.1,0.2C730.5,429.5,730.5,429.4,730.4,429.4z"/>
	<path class="st19" d="M730.4,429.4c-3.8-6.2-9.8-11-17.5-13.1c-9.7-2.6-19.7,0-26.8,6.2c0.2-0.1,0.3-0.1,0.5-0.2
		c5.1-4.3,11.7-6.9,18.8-6.9C716,415.3,725.3,421,730.4,429.4z"/>
	<path class="st19" d="M733.2,435c-0.5-1.4-1.1-2.7-1.8-4C732,432.2,732.6,433.5,733.2,435L733.2,435z"/>
	<path class="st19" d="M730.6,429.6c0.2,0.3,0.4,0.7,0.6,1C730.9,430.3,730.7,429.9,730.6,429.6z"/>
	<path class="st18" d="M733,434.9c-0.5-1.4-1.1-2.7-1.7-4c-0.1-0.1-0.1-0.2-0.2-0.4c-0.2-0.3-0.4-0.7-0.6-1c0-0.1-0.1-0.2-0.1-0.2
		c-5.1-8.4-14.4-14-24.9-14c-7.2,0-13.7,2.6-18.8,6.9C716.3,408.9,732.1,433.3,733,434.9z"/>
	<path class="st19" d="M733,434.9c-0.5-1.4-1.1-2.7-1.7-4c-0.1-0.1-0.1-0.2-0.2-0.4c-0.2-0.3-0.4-0.7-0.6-1c0-0.1-0.1-0.2-0.1-0.2
		c-5.1-8.4-14.4-14-24.9-14c-7.2,0-13.7,2.6-18.8,6.9C716.3,408.9,732.1,433.3,733,434.9z"/>
	<path class="st20" d="M705.6,473.8c-10.6,0-19.8-5.6-25-14c3.8,6.2,9.8,11.1,17.5,13.1c10.7,2.9,21.7-0.6,28.8-8.1
		c-0.2,0.1-0.4,0.2-0.5,0.3C721,470.5,713.6,473.8,705.6,473.8z"/>
	<path class="st20" d="M677.9,454.3c-0.1-0.2-0.1-0.4-0.2-0.5C677.8,454,677.9,454.1,677.9,454.3z"/>
	<path class="st20" d="M680.5,459.7c-0.2-0.4-0.4-0.7-0.6-1.1C680.2,459,680.4,459.5,680.5,459.7z"/>
	<path class="st20" d="M678.6,455.9c-0.1-0.2-0.1-0.4-0.2-0.6C678.5,455.5,678.6,455.7,678.6,455.9z"/>
	<path class="st20" d="M679.7,458.2c-0.2-0.3-0.3-0.6-0.5-1C679.3,457.5,679.5,457.9,679.7,458.2z"/>
	<path class="st20" d="M677.3,452.2c0,0.1,0.1,0.2,0.1,0.3C677.4,452.4,677.3,452.3,677.3,452.2L677.3,452.2z"/>
	<path class="st18" d="M677.3,452.2c0,0.1,0,0.2,0.1,0.2c0.1,0.4,0.2,0.8,0.4,1.2c0.1,0.2,0.1,0.4,0.2,0.5c0.1,0.4,0.3,0.7,0.4,1.1
		c0.1,0.2,0.1,0.4,0.2,0.6c0.2,0.5,0.4,1,0.6,1.4c0.2,0.3,0.3,0.6,0.5,1c0.1,0.1,0.1,0.3,0.2,0.4c0.2,0.4,0.4,0.7,0.6,1.1l0,0
		c5.1,8.4,14.4,14,25,14c8.1,0,15.5-3.3,20.8-8.7C693.3,485.6,677.8,453.3,677.3,452.2z"/>
	<path class="st21" d="M677.3,452.2c0,0.1,0,0.2,0.1,0.2c0.1,0.4,0.2,0.8,0.4,1.2c0.1,0.2,0.1,0.4,0.2,0.5c0.1,0.4,0.3,0.7,0.4,1.1
		c0.1,0.2,0.1,0.4,0.2,0.6c0.2,0.5,0.4,1,0.6,1.4c0.2,0.3,0.3,0.6,0.5,1c0.1,0.1,0.1,0.3,0.2,0.4c0.2,0.4,0.4,0.7,0.6,1.1l0,0
		c5.1,8.4,14.4,14,25,14c8.1,0,15.5-3.3,20.8-8.7C693.3,485.6,677.8,453.3,677.3,452.2z"/>
	<path class="st18" d="M591.5,833.7c0,1.1,0.2,2.1,0.4,3.2c0.5,1,7,13.7,20.6,5.1c-3,3.1-7.5,4.5-12,3.4c-4.2-1.2-7.4-4.4-8.5-8.4
		c1.4,5.2,6.1,8.9,11.7,8.9c6.7,0,12.2-5.5,12.2-12.2c0-4-1.9-7.6-4.9-9.8c2,1.5,3.4,3.5,4.2,5.8c0,0-6.7-11.2-19.5-5.2
		C593.1,826.7,591.5,830,591.5,833.7z"/>
	<path class="st18" d="M605.7,821.7c0.3,0,0.6,0.1,1,0.2C606.3,821.8,606,821.7,605.7,821.7z"/>
	<path class="st18" d="M595.8,824.5c0.2-0.2,0.5-0.4,0.8-0.6C596.2,824.1,596.1,824.3,595.8,824.5z"/>
	<path class="st18" d="M607.1,822c1.5,0.4,2.7,1.1,3.9,1.9C609.7,823,608.5,822.4,607.1,822z"/>
	<path class="st18" d="M604.9,821.6c0.1,0,0.1,0,0.2,0C605,821.6,605,821.6,604.9,821.6z"/>
	<path class="st19" d="M604.9,821.6c-3.1-0.3-6,0.6-8.2,2.3c2-1.5,4.5-2.4,7.2-2.4C604.1,821.5,604.5,821.5,604.9,821.6z"/>
	<path class="st19" d="M605.1,821.6c0.2,0,0.5,0.1,0.7,0.1C605.5,821.6,605.2,821.6,605.1,821.6z"/>
	<path class="st19" d="M610.9,823.9L610.9,823.9L610.9,823.9z"/>
	<path class="st19" d="M606.9,821.9c-0.1,0-0.2,0-0.2,0c0.1,0,0.3,0.1,0.4,0.1C607,821.9,607,821.9,606.9,821.9z"/>
	<path class="st19" d="M595.8,824.5L595.8,824.5L595.8,824.5L595.8,824.5z"/>
	<path class="st18" d="M615.2,829.7c-0.8-2.3-2.3-4.3-4.2-5.8c0,0-0.1,0-0.1-0.1c-1.1-0.8-2.5-1.5-3.9-1.9c-0.1,0-0.3-0.1-0.4-0.1
		c-0.3-0.1-0.6-0.1-1-0.2c-0.2,0-0.5-0.1-0.7-0.1c-0.1,0-0.1,0-0.2,0c-0.4,0-0.7-0.1-1.1-0.1c-2.7,0-5.2,1-7.2,2.4
		c-0.3,0.2-0.5,0.4-0.8,0.6l0,0C608.6,818.5,615.2,829.7,615.2,829.7z"/>
	<path class="st19" d="M615.2,829.7c-0.8-2.3-2.3-4.3-4.2-5.8c0,0-0.1,0-0.1-0.1c-1.1-0.8-2.5-1.5-3.9-1.9c-0.1,0-0.3-0.1-0.4-0.1
		c-0.3-0.1-0.6-0.1-1-0.2c-0.2,0-0.5-0.1-0.7-0.1c-0.1,0-0.1,0-0.2,0c-0.4,0-0.7-0.1-1.1-0.1c-2.7,0-5.2,1-7.2,2.4
		c-0.3,0.2-0.5,0.4-0.8,0.6l0,0C608.6,818.5,615.2,829.7,615.2,829.7z"/>
	<path class="st20" d="M592,836.8c0,0.1,0,0.1,0.1,0.2C592,836.9,592,836.9,592,836.8L592,836.8z"/>
	<path class="st18" d="M600.5,845.4c4.5,1.2,9-0.3,12-3.4c-13.6,8.7-20.1-4.2-20.6-5.1v0.1C593.1,841,596.3,844.2,600.5,845.4z"/>
	<path class="st21" d="M600.5,845.4c4.5,1.2,9-0.3,12-3.4c-13.6,8.7-20.1-4.2-20.6-5.1v0.1C593.1,841,596.3,844.2,600.5,845.4z"/>
	<path class="st18" d="M780,597c-0.1-0.1-0.2-0.1-0.3-0.2C779.8,597,779.9,597,780,597z"/>
	<path class="st18" d="M795.6,595.3c-1.8,1.9-4.1,3.1-6.7,3.6c5.7-1,10-6,10-12c0-4-1.9-7.6-4.9-9.8c2,1.5,3.4,3.5,4.2,5.8
		c0,0-6.7-11.1-19.5-5.2c-2.6,2.2-4.2,5.5-4.2,9.2c0,1.2,0.2,2.3,0.5,3.4C775.9,591.8,782.3,603.7,795.6,595.3z"/>
	<path class="st18" d="M788,599L788,599L788,599z"/>
	<path class="st18" d="M783.2,598.6L783.2,598.6C783.1,598.5,783.2,598.5,783.2,598.6z"/>
	<path class="st18" d="M778.7,577.7c0.2-0.2,0.5-0.4,0.8-0.6C779.3,577.3,779.1,577.5,778.7,577.7z"/>
	<path class="st18" d="M787.8,574.8c0.1,0,0.1,0,0.2,0C787.9,574.8,787.9,574.8,787.8,574.8z"/>
	<path class="st18" d="M790.1,575.2c1.5,0.4,2.7,1.1,3.9,1.9C792.7,576.2,791.4,575.6,790.1,575.2z"/>
	<path class="st18" d="M788.8,574.9c0.3,0,0.6,0.1,1,0.2C789.3,575,789,574.9,788.8,574.9z"/>
	<path class="st18" d="M781.2,597.8c-0.1-0.1-0.2-0.1-0.3-0.2C781,597.7,781.1,597.7,781.2,597.8z"/>
	<path class="st19" d="M788,574.8c0.2,0,0.5,0.1,0.7,0.1C788.6,574.8,788.3,574.8,788,574.8z"/>
	<path class="st19" d="M794,577.1L794,577.1L794,577.1z"/>
	<path class="st19" d="M778.7,577.7L778.7,577.7L778.7,577.7L778.7,577.7z"/>
	<path class="st19" d="M787.8,574.8c-3.1-0.3-6,0.6-8.2,2.3c2-1.5,4.5-2.4,7.2-2.4C787.1,574.7,787.5,574.7,787.8,574.8z"/>
	<path class="st19" d="M789.8,575c-0.1,0-0.2,0-0.2,0c0.1,0,0.3,0.1,0.4,0.1C789.9,575,789.9,575,789.8,575z"/>
	<path class="st18" d="M798.2,582.9c-0.8-2.3-2.3-4.3-4.2-5.8c0,0-0.1,0-0.1-0.1c-1.1-0.8-2.5-1.5-3.9-1.9c-0.1,0-0.3-0.1-0.4-0.1
		c-0.3-0.1-0.6-0.1-1-0.2c-0.2,0-0.5-0.1-0.7-0.1c-0.1,0-0.1,0-0.2,0c-0.4,0-0.7-0.1-1.1-0.1c-2.7,0-5.2,1-7.2,2.4
		c-0.3,0.2-0.5,0.4-0.8,0.6l0,0C791.5,571.8,798.2,582.9,798.2,582.9z"/>
	<path class="st19" d="M798.2,582.9c-0.8-2.3-2.3-4.3-4.2-5.8c0,0-0.1,0-0.1-0.1c-1.1-0.8-2.5-1.5-3.9-1.9c-0.1,0-0.3-0.1-0.4-0.1
		c-0.3-0.1-0.6-0.1-1-0.2c-0.2,0-0.5-0.1-0.7-0.1c-0.1,0-0.1,0-0.2,0c-0.4,0-0.7-0.1-1.1-0.1c-2.7,0-5.2,1-7.2,2.4
		c-0.3,0.2-0.5,0.4-0.8,0.6l0,0C791.5,571.8,798.2,582.9,798.2,582.9z"/>
	<path class="st20" d="M788.8,599c-0.3,0-0.5,0.1-0.8,0.1C788.4,599,788.7,599,788.8,599z"/>
	<path class="st20" d="M783.2,598.6c0.1,0,0.3,0.1,0.4,0.1c1.5,0.4,3,0.5,4.4,0.3c-0.4,0-0.8,0.1-1.2,0.1
		C785.4,599.1,784.2,599,783.2,598.6z"/>
	<path class="st20" d="M783.1,598.5c-0.6-0.2-1.3-0.5-1.8-0.8C781.7,598.1,782.3,598.3,783.1,598.5z"/>
	<path class="st20" d="M779.7,596.9c-2.3-1.6-4-3.9-4.8-6.7c-0.1-0.1-0.1-0.2-0.1-0.2C775.7,592.9,777.5,595.3,779.7,596.9z"/>
	<path class="st20" d="M780.9,597.6c-0.3-0.2-0.6-0.3-0.8-0.5C780.3,597.3,780.5,597.4,780.9,597.6z"/>
	<path class="st18" d="M779.7,596.9c0.1,0.1,0.2,0.1,0.3,0.2c0.3,0.2,0.5,0.3,0.8,0.5c0.1,0.1,0.2,0.1,0.3,0.2
		c0.6,0.3,1.2,0.6,1.8,0.8h0.1c1.1,0.4,2.4,0.5,3.6,0.5c0.4,0,0.8,0,1.2-0.1h0.1c0.3,0,0.5-0.1,0.8-0.1c2.5-0.5,4.9-1.8,6.7-3.6
		c-13.2,8.4-19.7-3.5-20.5-5C775.9,593,777.6,595.3,779.7,596.9z"/>
	<path class="st21" d="M779.7,596.9c0.1,0.1,0.2,0.1,0.3,0.2c0.3,0.2,0.5,0.3,0.8,0.5c0.1,0.1,0.2,0.1,0.3,0.2
		c0.6,0.3,1.2,0.6,1.8,0.8h0.1c1.1,0.4,2.4,0.5,3.6,0.5c0.4,0,0.8,0,1.2-0.1h0.1c0.3,0,0.5-0.1,0.8-0.1c2.5-0.5,4.9-1.8,6.7-3.6
		c-13.2,8.4-19.7-3.5-20.5-5C775.9,593,777.6,595.3,779.7,596.9z"/>
	<path class="st18" d="M263.9,670.1c0.1,0.2,0.2,0.3,0.3,0.5C264.1,670.4,264,670.2,263.9,670.1z"/>
	<path class="st18" d="M263.1,668.9c0.1,0.2,0.3,0.3,0.4,0.5C263.5,669.2,263.3,669.1,263.1,668.9z"/>
	<path class="st18" d="M240,674.7c-1.2,7.1,3.7,13.7,10.7,14.9c4.1,0.7,8.1-0.7,10.9-3.3c-3.2,2.9-7.7,4.2-12.2,3
		c-4.7-1.3-8-4.9-9.2-9.2c0,0,6.9,15.2,22,5.6c1.7-1.8,2.9-4.2,3.3-6.8c0.4-2.3,0.1-4.5-0.6-6.5c-0.7-1-7.6-11.4-20.5-5.6
		C242.2,668.7,240.5,671.5,240,674.7z"/>
	<path class="st18" d="M264.6,671.3c0,0.1,0.1,0.1,0.1,0.2C264.7,671.5,264.6,671.4,264.6,671.3z"/>
	<path class="st18" d="M262.3,667.9c0.1,0.1,0.2,0.2,0.3,0.4C262.5,668.2,262.4,668.1,262.3,667.9z"/>
	<path class="st19" d="M264.2,670.6c0.1,0.2,0.3,0.5,0.4,0.8C264.5,671.1,264.3,670.8,264.2,670.6z"/>
	<path class="st19" d="M254.9,664c3,0.5,5.5,1.9,7.4,4c-1.6-1.7-3.7-3.1-6.1-3.7c-4.3-1.2-8.7,0-12,2.7c0.1,0,0.2-0.1,0.2-0.1
		C247.4,664.5,251,663.4,254.9,664z"/>
	<path class="st19" d="M262.6,668.3c0.2,0.2,0.3,0.4,0.5,0.6C263,668.7,262.8,668.5,262.6,668.3z"/>
	<path class="st19" d="M263.6,669.4c0.1,0.2,0.3,0.4,0.4,0.6C263.9,669.8,263.7,669.6,263.6,669.4z"/>
	<path class="st19" d="M265.2,672.5c-0.1-0.3-0.3-0.7-0.4-1C264.8,671.8,264.9,672.1,265.2,672.5L265.2,672.5z"/>
	<path class="st18" d="M265,672.4c-0.1-0.3-0.2-0.6-0.4-1c0-0.1-0.1-0.1-0.1-0.2c-0.1-0.3-0.3-0.5-0.4-0.8c-0.1-0.2-0.2-0.3-0.3-0.5
		c-0.1-0.2-0.3-0.4-0.4-0.6c-0.1-0.2-0.3-0.3-0.4-0.5c-0.2-0.2-0.3-0.4-0.5-0.6c-0.1-0.1-0.2-0.2-0.3-0.4c-1.9-2-4.4-3.5-7.4-4
		c-3.8-0.6-7.6,0.5-10.4,2.7C257.4,661.1,264.4,671.4,265,672.4z"/>
	<path class="st19" d="M265,672.4c-0.1-0.3-0.2-0.6-0.4-1c0-0.1-0.1-0.1-0.1-0.2c-0.1-0.3-0.3-0.5-0.4-0.8c-0.1-0.2-0.2-0.3-0.3-0.5
		c-0.1-0.2-0.3-0.4-0.4-0.6c-0.1-0.2-0.3-0.3-0.4-0.5c-0.2-0.2-0.3-0.4-0.5-0.6c-0.1-0.1-0.2-0.2-0.3-0.4c-1.9-2-4.4-3.5-7.4-4
		c-3.8-0.6-7.6,0.5-10.4,2.7C257.4,661.1,264.4,671.4,265,672.4z"/>
	<path class="st20" d="M261.8,686.3c0.2-0.2,0.4-0.4,0.6-0.6l0,0C262.1,685.9,262,686.1,261.8,686.3z"/>
	<path class="st18" d="M240.3,680.1c1.2,4.3,4.5,7.9,9.2,9.2c4.5,1.2,9-0.1,12.2-3c0.2-0.2,0.4-0.4,0.6-0.6
		C247.3,695.3,240.3,680.1,240.3,680.1z"/>
	<path class="st20" d="M240.3,680.1c1.2,4.3,4.5,7.9,9.2,9.2c4.5,1.2,9-0.1,12.2-3c0.2-0.2,0.4-0.4,0.6-0.6
		C247.3,695.3,240.3,680.1,240.3,680.1z"/>
	<path class="st18" d="M93,726.1c1-0.2,1.8-0.4,2.7-0.6C94.9,725.7,93.8,725.9,93,726.1z"/>
	<path class="st18" d="M84.3,729c1-0.4,1.7-0.7,2.6-1.1C86,728.3,85.1,728.6,84.3,729z"/>
	<path class="st18" d="M86.9,727.9c1.9-0.7,3.8-1.3,5.8-1.8C90.8,726.6,88.8,727.2,86.9,727.9z"/>
	<path class="st18" d="M136.2,816.5c0.7-0.6,1.4-1.1,2.1-1.7C137.6,815.4,137,816,136.2,816.5L136.2,816.5z"/>
	<path class="st18" d="M104.8,724.7c-3,0-6,0.3-8.9,0.8c7.1-1.2,14.6-1,22.1,1c17.1,4.5,29.8,17.2,35.2,32.7
		c0,0-24.1-40.3-70.6-26.3c0.5,1,1,2.1,1.5,3.1c14.4,28.8,31.6,55.3,51.1,79.3c2.2-1.2,4.5-2.5,6.8-4c-1.2,1.2-2.4,2.4-3.7,3.5
		c10.9-9.4,17.8-23.3,17.8-38.8C156.1,747.7,133.2,724.7,104.8,724.7z"/>
	<path class="st18" d="M81.9,730.2c0.6-0.3,1.2-0.6,1.8-1C83,729.6,82.4,729.9,81.9,730.2z"/>
	<path class="st19" d="M92.8,726.1c0.1,0,0.2,0,0.2-0.1C93,726.1,92.9,726.1,92.8,726.1z"/>
	<path class="st19" d="M83.7,729.3c0.2-0.1,0.5-0.2,0.7-0.3C84,729.1,83.9,729.3,83.7,729.3z"/>
	<path class="st19" d="M86.9,727.9L86.9,727.9L86.9,727.9z"/>
	<path class="st19" d="M95.7,725.6c0.1,0,0.2,0,0.3,0C95.9,725.6,95.8,725.6,95.7,725.6z"/>
	<path class="st19" d="M81.3,730.4L81.3,730.4c0.1-0.1,0.3-0.1,0.4-0.2C81.7,730.2,81.5,730.3,81.3,730.4z"/>
	<path class="st18" d="M153.3,759.2c-5.4-15.5-18.1-28.2-35.2-32.7c-7.4-2-14.9-2.3-22.1-1c-0.1,0-0.2,0-0.3,0
		c-1,0.2-1.8,0.4-2.7,0.6c-0.1,0-0.2,0-0.2,0.1c-2,0.5-3.9,1.1-5.8,1.8l0,0c-1,0.3-1.7,0.7-2.6,1.1c-0.2,0.1-0.5,0.2-0.7,0.3
		c-0.6,0.3-1.2,0.6-1.8,1c-0.1,0.1-0.3,0.1-0.4,0.2c0.4,0.8,0.8,1.7,1.2,2.5C129.1,718.9,153.3,759.2,153.3,759.2z"/>
	<path class="st19" d="M153.3,759.2c-5.4-15.5-18.1-28.2-35.2-32.7c-7.4-2-14.9-2.3-22.1-1c-0.1,0-0.2,0-0.3,0
		c-1,0.2-1.8,0.4-2.7,0.6c-0.1,0-0.2,0-0.2,0.1c-2,0.5-3.9,1.1-5.8,1.8l0,0c-1,0.3-1.7,0.7-2.6,1.1c-0.2,0.1-0.5,0.2-0.7,0.3
		c-0.6,0.3-1.2,0.6-1.8,1c-0.1,0.1-0.3,0.1-0.4,0.2c0.4,0.8,0.8,1.7,1.2,2.5C129.1,718.9,153.3,759.2,153.3,759.2z"/>
	<path class="st20" d="M138.3,814.8L138.3,814.8L138.3,814.8z"/>
	<path class="st18" d="M142,811.3c-2.3,1.5-4.5,2.7-6.8,4c0.3,0.4,0.7,0.8,1,1.3c0.7-0.6,1.4-1.1,2.1-1.7l0,0
		C139.6,813.7,140.9,812.5,142,811.3z"/>
	<path class="st20" d="M142,811.3c-2.3,1.5-4.5,2.7-6.8,4c0.3,0.4,0.7,0.8,1,1.3c0.7-0.6,1.4-1.1,2.1-1.7l0,0
		C139.6,813.7,140.9,812.5,142,811.3z"/>
	<path class="st18" d="M379.5,744.3c0.8,0.1,1.6,0.2,2.4,0.3C381.2,744.5,380.3,744.4,379.5,744.3z"/>
	<path class="st18" d="M376.4,744.1c0.4,0,0.8,0,1.2,0.1C377.3,744.1,376.8,744.1,376.4,744.1z"/>
	<path class="st18" d="M396.1,747.8c-4.2-1.4-8.6-2.4-13.1-3.1c2.9,0.4,5.9,1,8.8,1.8C393.3,746.9,394.8,747.3,396.1,747.8z"/>
	<path class="st18" d="M373.1,744c-0.3,0-0.5,0-0.8,0c0.4,0,1,0,1.3,0C373.5,744,373.3,744,373.1,744z"/>
	<path class="st18" d="M441.4,792.3c-3.1-5-42.6-64.5-115.5-30.5c11.5-10,25.9-16.2,41.2-17.5c-37.1,3-66.3,34.1-66.3,72
		c0,39.9,32.4,72.3,72.3,72.3c20.4,0,38.8-8.4,51.9-22c-17.7,18.2-44.4,26.5-70.6,19.5c-25.8-6.9-44.6-27-51.1-51.1
		c0,0,38.6,84.2,122.3,31c12.3-13,19.8-30.5,19.8-49.7C445.5,807.9,443.9,799.8,441.4,792.3z"/>
	<path class="st18" d="M367.4,744.2c1.1-0.1,2.1-0.1,3.2-0.2C369.5,744.1,368.5,744.2,367.4,744.2z"/>
	<path class="st18" d="M401.1,749.6c0.2,0.1,0.4,0.1,0.5,0.2C401.5,749.7,401.3,749.7,401.1,749.6z"/>
	<path class="st18" d="M396.6,747.9c0.6,0.2,1.3,0.4,1.9,0.7C397.9,748.4,397.3,748.1,396.6,747.9z"/>
	<path class="st19" d="M370.6,744.1c0.6,0,1.2,0,1.7,0C371.8,744,371.1,744,370.6,744.1z"/>
	<path class="st19" d="M367.1,744.3c0.1,0,0.2,0,0.3,0C367.3,744.3,367.2,744.3,367.1,744.3z"/>
	<path class="st19" d="M441.4,792.3c0.1,0.2,0.2,0.3,0.2,0.3c-6.5-18.9-20.8-34.7-40-42.8C420,757.7,434.6,773.2,441.4,792.3z"/>
	<path class="st19" d="M396.1,747.8c0.1,0,0.3,0.1,0.4,0.1C396.4,747.9,396.3,747.8,396.1,747.8z"/>
	<path class="st19" d="M381.9,744.6c0.4,0,0.8,0.1,1.2,0.2C382.8,744.6,382.3,744.6,381.9,744.6z"/>
	<path class="st19" d="M398.5,748.6c1,0.3,1.7,0.7,2.5,1C400.2,749.2,399.4,748.9,398.5,748.6z"/>
	<path class="st19" d="M377.7,744.2c0.6,0,1.3,0.1,1.9,0.1C379,744.2,378.2,744.2,377.7,744.2z"/>
	<path class="st19" d="M373.7,744c1,0,1.8,0,2.7,0.1C375.5,744,374.5,744,373.7,744z"/>
	<path class="st18" d="M441.4,792.3c-6.7-19.1-21.3-34.5-39.8-42.5c-0.2-0.1-0.3-0.2-0.5-0.2c-0.8-0.4-1.7-0.7-2.5-1
		c-0.6-0.2-1.3-0.5-1.9-0.7c-0.1,0-0.3-0.1-0.4-0.1c-1.4-0.5-2.7-1-4.2-1.3c-2.9-0.8-5.9-1.4-8.8-1.8c-0.4-0.1-0.8-0.1-1.2-0.2
		c-0.8-0.1-1.6-0.2-2.4-0.3c-0.6-0.1-1.3-0.1-1.9-0.1c-0.4,0-0.8-0.1-1.2-0.1c-1,0-1.8-0.1-2.7-0.1c-0.4,0-1,0-1.3,0
		c-0.6,0-1.2,0-1.7,0c-1.1,0-2.1,0.1-3.2,0.2c-0.1,0-0.2,0-0.3,0c-15.4,1.3-29.9,7.6-41.2,17.5C398.7,727.8,438.2,787.3,441.4,792.3
		z"/>
	<path class="st19" d="M441.4,792.3c-6.7-19.1-21.3-34.5-39.8-42.5c-0.2-0.1-0.3-0.2-0.5-0.2c-0.8-0.4-1.7-0.7-2.5-1
		c-0.6-0.2-1.3-0.5-1.9-0.7c-0.1,0-0.3-0.1-0.4-0.1c-1.4-0.5-2.7-1-4.2-1.3c-2.9-0.8-5.9-1.4-8.8-1.8c-0.4-0.1-0.8-0.1-1.2-0.2
		c-0.8-0.1-1.6-0.2-2.4-0.3c-0.6-0.1-1.3-0.1-1.9-0.1c-0.4,0-0.8-0.1-1.2-0.1c-1,0-1.8-0.1-2.7-0.1c-0.4,0-1,0-1.3,0
		c-0.6,0-1.2,0-1.7,0c-1.1,0-2.1,0.1-3.2,0.2c-0.1,0-0.2,0-0.3,0c-15.4,1.3-29.9,7.6-41.2,17.5C398.7,727.8,438.2,787.3,441.4,792.3
		z"/>
	<path class="st20" d="M425.6,866L425.6,866c-0.2,0.2-0.4,0.4-0.6,0.6C425.3,866.4,425.4,866.2,425.6,866z"/>
	<path class="st18" d="M303.3,835c6.5,24.1,25.3,44.2,51.1,51.1c26.2,7,52.9-1.3,70.6-19.5c0.2-0.2,0.4-0.4,0.6-0.6
		C341.9,919.2,303.3,835,303.3,835z"/>
	<path class="st21" d="M303.3,835c6.5,24.1,25.3,44.2,51.1,51.1c26.2,7,52.9-1.3,70.6-19.5c0.2-0.2,0.4-0.4,0.6-0.6
		C341.9,919.2,303.3,835,303.3,835z"/>
	<path class="st18" d="M754.4,663.6c-16.5,14.3-27,35.5-27,59.1c0,7.1,1,13.9,2.7,20.5c2.2,4.5,31.3,62.5,91,50.8
		c22.7-31.8,40.8-66.4,54.2-102.8C862.7,674.9,821.8,632.3,754.4,663.6z"/>
	<path class="st19" d="M825.8,647.2c-26.1-7-52.6,0.1-71.5,16.5c0,0,0.1,0,0.1-0.1c13.7-12,31.5-19,51.1-19
		c31.1,0,57.9,18.2,70.5,44.5V689C866.5,669.1,848.8,653.4,825.8,647.2z"/>
	<path class="st18" d="M805.5,644.6c-19.5,0-37.4,7.2-51.1,19c67.3-31.3,108.3,11.2,120.8,27.5c0.3-0.7,0.5-1.4,0.8-2.1
		C863.5,662.8,836.6,644.6,805.5,644.6z"/>
	<path class="st19" d="M805.5,644.6c-19.5,0-37.4,7.2-51.1,19c67.3-31.3,108.3,11.2,120.8,27.5c0.3-0.7,0.5-1.4,0.8-2.1
		C863.5,662.8,836.6,644.6,805.5,644.6z"/>
	<path class="st20" d="M730.1,743.2c-0.1-0.2-0.1-0.3-0.1-0.3c7,26.1,27.3,47.8,55.3,55.3c10.6,2.7,21.2,3.4,31.4,1.9l0.1-0.1
		c-3.7,0.5-7.4,0.8-11.2,0.8C769.5,800.7,739.2,776.4,730.1,743.2z"/>
	<path class="st18" d="M730.1,743.2c9,33.2,39.3,57.6,75.4,57.6c3.8,0,7.6-0.3,11.2-0.8c1.5-2,2.9-4,4.4-6
		C761.4,805.7,732.3,747.7,730.1,743.2z"/>
	<path class="st21" d="M730.1,743.2c9,33.2,39.3,57.6,75.4,57.6c3.8,0,7.6-0.3,11.2-0.8c1.5-2,2.9-4,4.4-6
		C761.4,805.7,732.3,747.7,730.1,743.2z"/>
	<g>
		<path class="st18" d="M889.2,325.3c0-30.7-32.8-55.9-72.8-55.9H117.1c-40.1,0-72.8,25.1-72.8,55.9s32.8,55.9,72.8,55.9h699.2
			C856.4,381.2,889.2,356,889.2,325.3z"/>
	</g>
	<g>
		<path class="st16" d="M917.5,314c0-33.2-35.1-60.4-77.9-60.4H100.5c-42.8,0-77.9,27.2-77.9,60.4s35.1,60.4,77.9,60.4h739.1
			C882.4,374.5,917.5,347.3,917.5,314z"/>
	</g>
	<line class="st22" x1="106.5" y1="280.1" x2="572.7" y2="280.1"/>
	<path class="st23" d="M559.5,269.4"/>
	<line class="st24" x1="606.3" y1="280.1" x2="640.1" y2="280.1"/>
	<line class="st25" x1="674.6" y1="280.1" x2="820.6" y2="280.1"/>
</g>
<g>
	<g>
		<circle class="st26" cx="470" cy="557.3" r="138.5"/>
	</g>
	<g id="Layer_2_1_">
		<g id="Layer_1-2">
			<path class="st26" d="M457.3,421.6h24.9c0.2,0.6,0.8,0.4,1.2,0.4c3.3,0.4,6.8,0.9,10.1,1.4c11.4,2,22.3,5.4,32.8,10.1
				c41,18.7,70.2,56.6,77.6,101c0.9,5.3,1.6,10.6,1.8,15.9c0.2,5.6,0.3,11.2-0.3,16.7c-0.8,8.3-2,16.5-4.1,24.6
				c-13,49.1-52.4,86.9-102,97.9c-7.2,1.6-14.6,2.6-21.9,3c-5.8,0.4-11.6,0.3-17.3-0.2c-7-0.7-14-1.6-20.9-3.1
				c-16.1-3.7-31.2-10.3-44.8-19.5c-22.9-15.6-39.7-36.1-50.2-61.7c-4.5-11.1-7.5-22.7-9-34.6c-0.2-1.3,0.2-2.7-0.7-3.9v-25.2
				c0.6-0.3,0.4-0.9,0.4-1.4c0.8-7.6,2.2-15.3,4.3-22.6c14.8-52.8,59.7-91.4,114.1-98.2C454.5,422.2,456,422.5,457.3,421.6z
				 M400.8,573.2h0.1H400.8L400.8,573.2L400.8,573.2z M529.7,623.2c0-0.4-0.1-0.8-0.6-0.8l-5.1-6.9c-0.1-0.2-0.2-0.4-0.3-0.6
				c-3.2-3.6-5.9-7.5-8.7-11.5c-1.7-2.5-3.6-5-5.3-7.5c-0.4-0.5-0.8-0.9-1.3-0.3c-1.1,1.2-2.5,2-3.5,3.4c-0.5,0.7-0.6,1.3-0.2,2
				c0.8,1.4,1.7,2.8,2.6,4.1c2,2.7,4.1,5.4,6.3,7.8c3.5,3.8,7,7.6,10.9,10.9c1.4,1.2,3,2.3,4.1,4.1c0.7,1.1,1.7,2.2,3,2.8
				c1.1,2.2,2.5,4.4,3.2,6.7c1,3.7,3.1,6.7,5,9.9c0.3,0.4,0.5,0.7,1.1,0.3c1.4-1.2,3-2.2,4.2-3.7c1.1-0.6,1.2-1.3,0.2-2.1
				c-0.4-0.3-0.8-0.7-1.1-1.2c-4-4.9-7.9-9.7-12-14.5c-0.6-0.7-0.9-1.7-2-1.9l0,0C530.5,623.7,530.3,623.2,529.7,623.2L529.7,623.2z
				 M404.9,575.9h0.1H404.9c-0.9-0.9-2-1.6-3.3-2.1C402.5,574.9,403.5,575.8,404.9,575.9z M414.9,479.8L414.9,479.8
				c1.4-1.1,2.4-2.6,4.2-3.6c-2.1-0.3-3.1,0.4-4.3,2.5c-1.4,1.2-2,2.8-2.6,4.4c-0.5,0.9-0.6,2-0.4,3c0.8-2.3,2.1-4,2.9-5.8
				L414.9,479.8z M395.1,553.3c-0.3,0.3-0.4,0.6-0.4,1c0,2,0,4.1,0,6.2c0.4-2.2,0.8-4.4,1.6-6.5c0.4-1.4,1.1-2.6,1.9-3.8
				C396.3,550,394.8,551.7,395.1,553.3z M398.4,529.7c-0.6,0.1-0.6,0.6-0.7,1c-0.6,1.8-0.8,3.8-0.9,5.7c0,1.4-0.3,2.9,0.4,4.3
				c0-2.7-0.1-5.5,0.9-8.1c0.2-0.7,0.4-1.5,0.6-2.2c1.1-1.4,1.9-3.1,3.3-4.4c-0.6-0.4-1.3-0.7-1.7-0.2
				C399.5,527,398.3,528.1,398.4,529.7z M403.2,503c-1.6,0.9-1.6,2.5-1.9,4.1c0.7-1,1.3-2.1,2-3.1c1.5-1.7,3.5-2.6,5.4-3.8
				C406.9,499.4,404,501,403.2,503L403.2,503z M439.9,477.2c0.7,0.2,1.1-0.2,1.5-0.6c1.5-1.6,3.1-3.1,4.9-4.3c0.6-0.4,1.3-1.2,2-0.7
				c0.6,0.4,0.3,1.3,0.2,2c0,0.1-0.1,0.3-0.1,0.4c-0.1,1.2-0.3,2.4-0.1,3.6c0.1,0.6,0.5,0.6,0.9,0.6c0.5-0.1,0.3-0.4,0.3-0.7
				c-0.5-1.8-0.4-3.7,0.3-5.4c0.3-0.8-0.1-1.1-0.8-1.1c-3.3-0.2-6,1.2-8.5,3c-1.6,0.5-2.6,1.7-3.6,2.9c-0.4,0.5,0.1,0.6,0.5,0.5
				C438.2,477.3,439,477.3,439.9,477.2L439.9,477.2z M477.3,554.8L477.3,554.8c-0.5-0.1-0.9,0.2-1.2,0.3c-1.6,0.7-3.2,0.9-5,0.3
				c-1.5-0.6-3.1-1-4.7-1.4c1.8,1.6,4.3,1.9,6.4,3.5c-2.5,0.2-4.4-1-6.7-1.3l4.6,3.7c2,1.5,2.3,3.5,1.8,5.9
				c-0.5,2.5-1.7,4.7-3.2,6.7c-1.7,1.5-3.4,2.9-5.7,3.5c-1.2,0.3-2.4,0.4-3.7,0.5c0.7,1.4,1.3,2.7,1.2,4.2c-0.5,3.4-2.5,5.8-5.5,7.3
				c-1.6,0.1-3.1,0.6-4.6,0.9c-6.6,1.5-13.3,2.7-20.1,2c-1.3-0.1-2.6-0.4-4.4-0.6c2.3,2.3,4.8,3.6,7.3,5.3c-0.3,0.1-0.4,0.2-0.5,0.1
				c-4.1-1.1-8.3-1-12.4-1.6c-2.2-0.3-2.2-0.3-2.9,1.9c-0.1,0.5-0.3,0.9-0.5,1.4c-2.9,8.3-6.6,16.2-10.6,23.9c-2.2,4.2-5,8-8.2,11.4
				c-0.2,0.2-0.3,0.6-0.8,0.3c1.2-3.7,2.4-7.4,3.6-11.1c0.4-0.9,0.8-1.8,1-2.7l-0.4-0.1l-1.2,2.8c-2.9,6.3-5.9,12.5-8.8,18.7
				c-0.3,0.7-0.3,1.1,0.3,1.6c4.2,3.7,8.5,7.2,13.1,10.3c3.8,2.7,7.8,5,12,7.1c3.3,1.7,6.6,3.4,10.2,4.5c3.3,1.5,6.7,2.5,10.1,3.6
				c0.9,0.3,1.4,0.1,2-0.7c6.8-9.2,13.1-18.7,19.3-28.3c4.5-6.9,9.6-13.2,15.7-18.8c0.3-0.3,0.5-0.7,1.3-0.5
				c-4.3,4.4-6.3,9.9-8.1,15.7c0.8-0.2,1.1-0.7,1.4-1.1c1.6-2,3.3-4,4.8-6.1c2.5-3.5,5-7.1,6.1-11.3c0.4-1.4,1.4-2.3,2.5-3.1
				c2.2-1.6,4.2-3.4,6.1-5.3c9.1-8.8,17.4-18.3,23.8-29.3c0.2-0.3,0.6-0.6,0.3-1.2c-1.1,0.8-2.1,1.7-3.2,2.5
				c-2.4,1.9-4.9,3.8-7.4,5.7l-0.1-0.1c0.9-1.7,2.3-3,3.5-4.5c2.9-3.7,6.4-6.8,9.9-9.9c4.9-4.5,9.7-9.1,14.6-13.7
				c3.7-3.4,7.4-6.8,10.3-10.9c2.4-3.5,4.7-7,5.1-11.4c0.2-1.8,0-3.5-0.9-5.1c-1.1-2-2.6-3.9-3.4-6.4c-0.9,2-1.7,3.9-3.5,4.9
				c-0.1-0.1-0.2-0.2-0.1-0.3c0.3-1,0.6-2,1.1-2.9c2.4-4.7,1.8-9.2-0.6-13.6c-0.9-1.7-2.2-3.2-3.4-4.7c-0.3-0.4-0.6-1.1-1.1-1
				c-0.4,0.1-0.3,0.9-0.5,1.3v0.1c-0.6,2.6-2,4.9-3.5,7.1c-7.6,10.9-15.1,21.9-23.8,31.9c-0.7-1.3,0.4-2,0.9-2.8
				c2.3-3.3,4.7-6.5,7-9.9c4-5.8,7.4-12,11.1-18c3.2-5.3,5.5-10.9,6.2-17.1c0.1-1.2,0.4-2.3-0.2-3.4c-1.1-1.9-2.6-3.2-4.9-3.7
				c-1.2-0.6-2.5-1-3.7-1.4c-2.1-0.7-3.6,0-4.4,2.1c-0.3,0.8-0.7,1.7-1.1,2.5c-3.5,6.6-7.5,12.9-10.9,19.5c-3,5.8-6.1,11.5-9.5,17
				c-0.8,0-0.4-0.5-0.3-0.8c0.9-2.1,1.8-4.1,2.7-6.2c5.5-12.8,12.2-25.2,16.2-38.6c0.6-2-0.4-4.8-2.4-5.8c-2.7-2.1-4.9-4.6-6.9-7.3
				c-1.9-2.5-3.7-5.2-5.5-7.8c-3.7-4.5-8-4.9-13.3-2.2c-0.8,0.4-0.9,0.9-0.5,1.7c0.9,1.6,1.2,3.5,0.9,5.3c-0.9,5.4-2.3,10.8-4,16.1
				c-0.1,0.3-0.4,0.7-0.1,1.2c0.6-0.5,1.2-1,1.8-1.4c0.2-0.2,0.4-0.6,0.8-0.3c0.3,0.2,0.1,0.6-0.1,0.9c-0.1,0.3-0.3,0.6-0.4,0.8
				c-2.6,5.4-7,9.3-11.1,13.4c-0.8,0.8-0.6,1.2,0.1,1.6s1.3,1.1,2,1.6c2,1.6,3.3,3.8,5,5.6c1.9,2.7,3.8,5.4,5.7,8.1
				c1.3,1.8,2.6,3.6,3.5,5.6c1.3,2.7,0.1,5.2-1,7.6c-0.9,2-1.9,3.7-4.2,4.5c-1.6,0.6-3.3,0.7-5,0.5l-2.4-0.4
				c0.3,0.5,0.7,0.9,1.2,1.2c1.1,0.9,2.5,1.7,3.1,3.1c1.1,2.3,1.3,4.9,0.6,7.3c-0.9,3.2-2.9,5.5-5.3,7.7L477.3,554.8z M555.6,597.2
				c0,0.3,0,0.5,0,0.8c0.9,4.4,2.2,8.7,3.8,12.9c0.5,1.4,1.3,2.8,1.9,4.2c-0.4-2.3-0.9-4.6-1.5-6.8c-0.8-2.9-1.2-5.9-1.6-8.9
				c0-1.5-0.1-3.1-0.1-4.6c0-2.4,0-4.9,1.1-7.1c0.7-1.6-0.5-1.8-1.2-2.3c-0.9-0.7-1.5,0.1-1.9,0.8
				C554.1,589.9,554.4,593.5,555.6,597.2z M478.6,461.3c-0.9-0.9-2.1-0.8-3.2-1.1c-0.3-0.1-0.5,0.2-0.6,0.4
				c-0.5,1.7-1.1,3.5-1.6,5.2c-0.1,0.5,0.1,0.8,0.5,0.9c2.3,0.9,4.3,2.2,6.1,3.8c0.7,0.7,1.1,0.6,1.7-0.1c1.7-1.9,1.4-4,0.7-6.2
				C481.6,461.7,481.3,461.4,478.6,461.3z M536.4,578.1c-0.1,0.2-0.2,0.3-0.2,0.5c0.3,1.7,0.5,3.4,0.9,5.1c1,4.7,3.2,9,5,13.4
				c0.6,1.5,2.1,2.3,3.4,3.4c-0.6-2.7-1.1-5.4-1.6-8.1c-1.2-5.7-2.1-11.4-2.8-17.2c0-0.5-0.2-1-0.6-1.5c-0.9-1-1.8-1.9-2.6-2.9
				c-0.6-0.8-0.9-0.5-1.2,0.2C535.8,573.4,535.7,575.7,536.4,578.1z M451.3,474.4c1.9-1,3.7-2.1,5.7-2.7c3.3-0.9,6.7-0.7,10-0.2
				c2.6,0.4,5.2,1,7.2,3c0.3,0.3,0.8,0.5,0.7,0.9c-0.2,0.5-0.8,0.3-1.2,0.3c-0.9-0.1-1.9-0.2-2.8-0.4c-3.1-0.6-6.1-1.1-9.3-0.8
				c1.8,0.2,3.5,0.6,5.3,0.9c4.1,0.7,7.7,2.3,11.1,4.7c1.6,1.1,1.6,1.2,2.2-0.8c0-0.1,0-0.2,0-0.3c0.4-1.5,1.3-3.1,0.2-4.7
				c-2.1-3.1-5-5.2-8.5-6.6c-0.3-0.1-0.6-0.2-0.8,0.3l0.6,0.4c0.4,0.2,1,0.3,0.8,0.9c-0.2,0.5-0.7,0.2-1.1,0.2c-2-0.5-4-0.1-6-0.5
				c-3.8-0.4-7.7,0.2-11.2,1.8C452.7,471.4,451.6,472.7,451.3,474.4L451.3,474.4L451.3,474.4z M419.5,562.7
				c-1.7,1.6-2.1,6.2-0.7,8.4c2.6,4.2,6.6,6.7,11.2,8.5c0.9,0.3,1.2,0,0.9-0.9c-1-3.2-0.4-6.4,0.8-9.5c1.4-1.9,2.7-3.7,5.4-4.4
				c-3.5-2.2-6.7-4.3-10-6.3c-2.1-1.3-3.7-0.6-5.2,0.7C420.7,560.1,419.5,561,419.5,562.7z M521.9,588.4c-0.6-0.1-1.1-0.2-1.7-0.3
				c-0.4-0.1-0.9-0.2-1.1,0.1c-0.3,0.4,0.3,0.7,0.5,1c2.5,3,4.9,5.9,7.4,8.9c3.7,4.5,7.1,9.3,10.4,14.2c0.4,0.6,0.6,1.3,1.4,1.5
				c1.4,2.9,3.5,5.5,5,8.4c1.4,2.6,4,4.1,6.1,5.9c1.4,1.3,2.9,2.6,4.6,3.6c1.1,1.7,1.7,1.8,2.9,0.3c1-1.2,2-2.5,3-3.8
				c0.5-0.5,0.5-0.9,0-1.5c-4.3-5-8.5-10.1-12.7-15.1c-3.1-3.8-6.2-7.5-9.5-11.2c-3.1-3.5-6.1-7-9.4-10.4c-0.6-0.7-1.3-1.1-2.3-0.9
				C525.1,588.7,523.5,588.5,521.9,588.4z M435.4,569.2c-0.5,0.5-0.4,1.1-0.2,1.6c0.5,2.5,1.7,4.8,3.5,6.6c3.8,4,8.8,6.6,14.3,7.6
				c1.3,0.2,2.7,0.5,4,0.2c1.7-0.5,3.3-4,3-5.9c0-1.2-0.9-1.9-1.8-2.4c-5.6-3-11.1-6.2-16.5-9.7c-0.4-0.3-0.8-0.5-1.3-0.4
				C438.5,567.3,436.8,567.8,435.4,569.2z M397.6,556.5c-0.1,0.1-0.3,0.2-0.4,0.4c-0.8,3.1-0.7,6.1,1.8,8.5c0.6,0.6,1.3,1.2,1.9,1.7
				c4.1,3,8.5,5.4,13.5,6.4c0.8,0.2,1-0.2,0.9-0.8c-0.1-0.8-0.2-1.6-0.3-2.4c-0.1-2.1,0.4-4,0.6-6c0.3-0.7-0.3-0.6-0.6-0.7
				c-5.6-2.2-11.2-4.4-16.6-6.9C398.2,556.3,397.8,556,397.6,556.5z M419.5,542.2c0.1-0.3,0.1-0.6,0.2-0.9c0.4-1.1,0-1.6-1.1-1.8
				c-1-0.2-1.9-0.5-2.8-0.9c-4.9-1.7-9.5-4-14.5-5.3c-0.8-0.2-1.3-0.3-1.4,0.7c-0.1,5.6,2.2,10,6.8,13.1c3.6,2.5,7.9,3.4,12,4.6
				c1.3,0.4,1.4-0.1,1.1-1.1C419,547.8,419,545,419.5,542.2L419.5,542.2z M562.9,604.8c-0.5,0.8,0.1,1.5,0.2,2.3
				c0.6,3.9,1.6,7.8,2.7,11.6c0.1,0.3,0.1,0.8,0.6,0.8c0.4,0,0.5-0.4,0.6-0.6c1.3-2.2,2.8-4.4,3.9-6.7c2.2-3.8,4-7.8,5.7-11.9
				c0.3-0.7,0-1-0.4-1.3c-3.7-2.7-7.5-5.3-11.1-8.1c-0.8-0.6-1.2-0.4-1.6,0.4C561.6,595.8,561.8,600.3,562.9,604.8z M435.1,520.2
				c1.6-2.4,1.6-2.5-1.1-3.1c-9.1-2.1-17.6-5.8-26.5-8.4c-1-0.3-1.1,0-1,0.8c-0.2,0.9,0.1,1.8,0.3,2.7c0.5,3,1.8,5.5,4.8,6.8
				c4.5,2.1,9.2,3.9,13.9,5.5c2.1,0.7,4.4,1,6.6,0.9c0.8,0,1.6-0.1,1.9-1.1C434.4,522.9,434.8,521.5,435.1,520.2L435.1,520.2z
				 M423.8,538.4c-1.5,3.5-0.6,7,0.5,10.4c0.7,2.2,1.7,4.3,3.7,5.7c2.4,1.7,5,2.9,7.7,3.8c0.9,0.2,1.8,0.3,2.7,0
				c0.4-0.1,0.9-0.2,0.9-0.8c0.1-3,1.1-5.8,2.2-8.6c1.5-1.6,2.9-3.3,5-4.4c-3.5-2.9-6.9-5.7-10.4-8.4c-0.9-0.7-1.9-1.5-3-1.7
				c-2.5-0.4-5-0.1-7.3,1.3C424.7,536.3,423.8,537,423.8,538.4L423.8,538.4z M543.9,627.2c-1.5-0.8-2.2-2.3-3.2-3.5
				c0.1-0.7-0.4-1.3-0.7-1.9c-0.6-1-1.2-2.1-1.9-3.1c-1.8-2.8-3.6-5.6-5.6-8.2c-2.2-2.9-4.8-5.5-7.1-8.3c-3-3.6-6.4-6.8-9.7-10.1
				c-0.3-0.3-0.8-0.9-1.4-0.6c-0.5,0.3-0.5,0.9-0.4,1.5c0.4,4.1,1.6,7.9,4.1,11.1c4.8,6.3,10,12.3,15.1,18.4
				c0.4,0.5,0.6,1.2,1.4,1.2c4.1,6,9.2,11.2,13.7,16.8c0.2,0.3,0.5,0.6,0.9,0.2c1.2-1.3,2.7-2.2,3.6-3.8c0.2-0.1,0.4-0.2,0.5-0.4
				c1.2-1.1,1.3-1.2-0.1-2.2c-2.5-1.9-4.9-3.9-7.2-6C545.4,627.8,544.8,627.1,543.9,627.2z M479.1,549.4c1.2-1,1.7-2.4,2.2-3.8
				c0.9-2.8,0.2-5-2.2-6.7c-4.6-3.2-8.6-7.2-13.5-10.1c-2.8-1.6-6.8,0.1-7.5,3.3c-1.7,1.4-2.3,5.3-1.3,7.6c1.6,3.7,4.5,6.4,7.7,8.7
				c2.1,1.5,4.3,3.1,7,3.7C475.2,552.8,477.3,552.1,479.1,549.4z M443.8,550.3c-1.1,0.5-1.4,1.4-1.4,2.5c0.1,6.4,3,11.3,8,15
				c3.9,2.8,8.2,4.5,13.1,3.8c2.2-0.2,4.1-1.6,5.1-3.5c1.7-0.9,2-2.7,2.8-4.2c0.3-0.6,0.1-1.1-0.4-1.5c-1.2-1.2-2.5-2.3-3.9-3.3
				c-2.9-2.1-5.8-4.3-8.5-6.5c-2.1-1.7-4-3.6-6.4-4.8c-3.1-1.6-6.2-1.2-8.4,1.5c-0.1,0.1-0.2,0.1-0.1,0.3
				C443.7,549.7,443.8,550,443.8,550.3z M440.3,514.6c-2.6,2.2-2.4,5.3-2.4,8.2c0,4.9,2.3,8.8,6.2,11.8c2.8,2.1,6,3.5,9.2,5.2
				c-0.4-2.7-0.2-5.1,0.7-7.5c0.5-1.2,1.1-2.4,1.6-3.5c1.6-1.3,2.9-2.9,4.9-3.7c0.6-0.2,0-0.6-0.2-0.8c-0.9-1-1.9-1.9-2.9-2.9
				c-3.3-3.3-6-7.1-9-10.7c-0.5-0.6-1.1-1-1.9-0.8C444,510.9,441.7,512.1,440.3,514.6z M439.4,490.6c0.1-0.4,0.2-0.9,0.4-1.3
				c0.2-0.5,0.1-0.8-0.5-0.9c-7.5-1.5-15-3.2-22.4-5.4c-1.2-0.3-2.1-0.3-2.5,1c-0.2,0.4-0.5,0.9-0.7,1.3c-1.8,3.8-1.7,5.1,1.3,7.9
				c3.5,3.2,7.9,4.4,12.5,5.1c3.6,0.6,7.2,0.4,10.8,1.1c0.9,0.2,0.9-0.1,0.8-0.8C438.6,496,439,493.3,439.4,490.6z M465.2,510.8
				c-0.8,1.1-0.3,2.3-0.1,3.5c1.2,7.6,5,13.4,12.4,16.3c2.2,0.9,4.4,2,7.1,1.3s5.1-3.5,5-6.4c0.3-1,0-1.8-0.8-2.7
				c-1.7-1.9-3.3-3.9-4.7-6c-2.7-4.2-4.9-8.7-9-11.8c-0.4-0.3-0.7-0.6-1.3-0.6c-2.9,0-7.4,2.9-8.5,5.6
				C465.1,510.3,465.1,510.5,465.2,510.8L465.2,510.8z M447.4,486c-0.8,0.3-1,1-1.3,1.6c-0.7,1.6-1,3.4-1.2,5.1
				c-0.4,3.2,0,6.2,1.7,9.1c2.2,3.5,4.4,7,7,10.2c1.8,2.3,3.9,4.3,6.1,6.2c0.6,0.5,1.2,0.7,1.3-0.4c0.1-0.8,0.2-1.7,0.3-2.5
				c0.4-2.9,1.9-5.3,3.1-7.8c0.8-0.4,1.4-1.1,2.1-1.7c1.2-1.1,2.3-2.2,3.7-2.8c1.4-0.6,1.4-0.6,0.4-1.8c-2.2-2.7-4.4-5.4-6.3-8.2
				c-2.5-3.7-5.1-7.4-8.4-10.5c-0.7-0.7-1.6-1.4-2.4-1.2C451,482,448.7,483.4,447.4,486L447.4,486z M354.6,557.1
				c-0.1,5.7,0.4,11.4,1.3,17.1c1.6,11.1,4.9,21.9,9.7,32c4.5,9.6,10.3,18.5,17.3,26.5c0.6,0.7,0.9,0.8,1.5,0
				c1.5-2.1,3.1-4.2,4.6-6.3c5.6-8,10.8-16.3,15.9-24.6c2.2-3.6,5-7,6-11.2c0.6-2.2,1.5-4.3,2.4-6.4c0.4-1,0.3-1.4-0.7-1.7
				c-3.2-1.1-6.1-2.7-9-4.2c-2.1-1.1-3.6-2.7-4.8-4.6c-1-1.6-1.8-3.4-3.3-4.8c-2.1-1.9-3.2-4.3-3.6-7c-0.7-4.4-0.3-8.6,2.6-12.3
				c0.7-0.9,0.7-1.4,0.1-2.2c-3.8-6-3.2-14.6,1.5-19.9c1-1.2,2.1-2.5,3.6-3c1-0.4,0.8-0.6,0.3-1.2c-6.4-8.2-4.2-20.1,4.7-25.7
				c0.7-0.4,0.9-0.9,0.9-1.7c0-5.3,0.6-10.5,3.5-15.1c2.3-3.7,5.1-6.1,9.6-6.1c2.4,0,4.6,0.7,6.9,1.2c3,0.7,6.2,0.9,9.3,1.4
				c0.4,0.1,0.7,0,0.8-0.5c0.8-2.4,2.6-3.9,4.5-5.2c3.4-2.4,6.9-4.8,11.4-2.5c0.4,0.2,0.7,0.1,1-0.1c2.1-1.3,4.4-2,6.8-2.4
				c0.5-0.1,0.9-0.1,1-0.7c0.2-1,0.8-1.7,1.3-2.5c3.5-5.7,8.6-6.8,14.3-6.1c3.5,0.4,5.9,2.9,8.6,4.8c0.5,0.3,0.7,0.6,1.2,0.1
				c1.8-1.7,4.1-2.5,6.4-3c2.5-0.6,4.8-0.1,6.7,1.7c1.2,1.2,1.9,2.7,3,4c4.1,5,7.7,10.5,13.5,13.8c1,0.6,1.6,1.7,1.5,2.8
				c0,0.6,0.2,1.2,0.7,1.5c3.2,2.4,6.4,4.8,10,6.6c4.7,2.3,7.2,5.9,6.7,11.2c-0.3,2.9,0.6,4.8,2.8,6.6c3.3,2.8,5.1,6.5,5.3,11
				c0.2,3.2,1.1,6.4,3.1,9c2.2,2.9,2.7,6.2,2.1,9.7c-0.4,2.3-1.9,4.1-2.7,6.1c-2.2,5.7-5.7,10.6-8.3,16c-0.9,1.8-0.9,2.9,0.1,4.4
				c0.4,0.6,0.7,1.2,1.1,1.7c3.7,5.2,8,9.8,13.4,13.3c8.8,5.7,17.2,11.9,26.1,17.2c0.9,0.5,1.2,0.5,1.6-0.5
				c3.6-10.3,5.6-20.9,6.3-31.8c0.6-9.8-0.2-19.6-2.2-29.1c-3.1-15.1-9.1-29.4-17.8-42c-13-18.9-30.2-32.8-51.4-41.6
				c-16.7-6.9-34.2-9.6-52.3-8.3c-12.8,0.9-25.3,4-37,9.1c-20.8,9-37.5,23-50.2,41.8C361,512.4,354.7,533.9,354.6,557.1z M480,626.5
				l-0.4,0.1c-0.3,2.4-1.6,4.3-2.8,6.2c-0.5,0.8-0.9,1.6-1.3,2.3c-4.7,8.3-9.2,16.7-14.1,24.9c-2.1,3.5-4,7-6,10.5
				c-0.3,0.5-0.6,0.9,0.4,1c3,0.2,5.9,0.6,8.9,0.7c7.2,0.3,14.5,0,21.7-1.1c4.6-0.7,9.2-1.6,13.7-2.8c0.5-0.1,1.3-0.1,0.9-1.2
				c-1.8-4.6-3.8-9.2-6.3-13.4c-4.4-7.3-8.6-14.7-12.2-22.4C481.5,629.8,480.8,628.1,480,626.5z M502.7,648.8
				c0.1-0.1,0.2-0.2,0.3-0.2c2.1,1.8,4,4,5.8,6.1c2,2.4,4,4.7,5.9,7.1c0.6,0.7,1.2,0.8,2.1,0.4c3.4-1.5,6.6-3.2,9.9-5
				c2.6-1.5,2.6-1.5,0.5-3.7c-2.6-2.8-5-5.6-7.4-8.6c-3.2-4-6.4-8-10-11.7c-3.7-3.9-6.8-8.2-10.1-12.4c-2.2-2.8-3.9-6.1-6.1-8.8
				c-0.6-0.8-1-0.9-1.6,0c-1.3,1.7-2.2,3.6-3.1,5.5c-0.3,0.6-0.3,1.3-0.1,1.9c0.7,2.1,1.6,4.1,2.5,6.1c1.5,3.1,3.1,6.2,4.4,9.4
				c1,2.6,1.9,5.2,3.5,7.6c0.5,0.7,0.8,1.6,0.8,2.6c-3.3-2.2-4.6-5.9-7.3-8.5c0.1,0.5,0.3,0.9,0.5,1.4c1.9,3.5,3.8,7,5.8,10.5
				c2.9,5.2,5.7,10.4,8.6,15.6c0.9,1.7,0.9,1.6,2.7,0.9c0.9-0.4,0.9-0.8,0.5-1.5c-1.3-2.2-2.5-4.5-3.7-6.7
				C505.7,654.1,504.2,651.5,502.7,648.8L502.7,648.8z M497.7,610.2c0,0.5,0.2,0.9,0.5,1.3c1,1.4,1.9,2.7,2.9,4
				c4,4.9,7.7,10.1,11.7,14.9c2.7,3.3,5.2,6.8,8.3,9.8c1.7,1.7,3.2,3.5,4.8,5.2c2.2,2.3,4.2,4.8,6.3,7.2c0.6,0.6,1,0.7,1.7,0.2
				c1.2-0.9,2.4-1.8,3.6-2.5c0.9-0.6,1.1-1.1,0.6-2.1c-2.2-3.9-4.4-7.8-6.7-11.7c-1.5-2.5-3.4-4.6-5.6-6.4c-5-3.8-9.8-7.9-14.2-12.3
				c-3.7-3.7-7.7-7.3-11-11.4c-0.3-0.4-0.7-0.7-1.1-0.1C498.6,607.4,497.8,608.5,497.7,610.2z M443.6,508.6c-0.2-0.5-0.6-0.8-1.1-1
				c-1.4-0.5-2.8-0.7-4.2-0.9c-8.1-1.4-16-3.5-23.9-5.7c-2.4-0.7-3.7,0.5-5.2,1.7c-0.5,0.4-0.4,0.7,0.3,0.8c1.1,0.2,2.3,0.5,3.4,0.7
				c2.5,0.4,4.6,1.8,7,2.3c4.3,1,8.5,1.9,12.7,2.9c2.3,0.5,4.6,1.2,6.9,1.8c0.4,0.1,0.8,0.3,1.2-0.1
				C441.7,510.3,442.7,509.5,443.6,508.6z M425.2,532.7c-0.3-0.1-0.5-0.2-0.6-0.3c-6.5-2.1-13.1-3.9-19.6-5.7
				c-0.9-0.3-1.4,0.1-2,0.6c-0.5,0.5-0.7,0.7,0.2,1c1.7,0.5,3.3,1.1,5,1.6c4.7,1.5,9.6,2.8,14.3,4.3c0.4,0.1,0.8,0.3,1.2-0.1
				C424,533.7,424.5,533.3,425.2,532.7L425.2,532.7z M419.4,557.4c-0.1-0.1-0.1-0.2-0.2-0.2c-5.6-2.1-11.3-4.2-16.9-6.2
				c-0.9-0.3-1.6,0-2.2,0.7c-0.5,0.5-0.6,0.8,0.3,1.1c5.3,1.8,10.5,3.6,15.7,5.7C418.1,559.1,418.1,559.1,419.4,557.4z M420.8,477.9
				c0.7,0.4,1.5,0.7,2.3,0.7c6.9,0.8,13.7,1.5,20.4,3.5c0.3,0.1,0.7,0.1,1-0.1c0.8-0.7,1.6-1.2,2.5-1.6c-1.9-0.2-3.4-0.4-4.9-0.5
				c-6.1-0.5-12.2-1.4-18.3-2.6C422.7,477,421.8,477.2,420.8,477.9L420.8,477.9z M464,466c0.7-0.2,1.7,0.4,2.3-0.7
				c0.7-1.3,1.4-2.5,2-3.8c0.1-0.3,0.4-0.6,0.1-0.8c-0.3-0.2-0.6-0.1-0.9,0.1c-1.7,0.7-3.1,1.9-4.4,3.3c-0.4,0.5-1.2,1.1-1,1.6
				C462.3,466.4,463.3,465.8,464,466L464,466z M414.9,507c-0.3,0.1-1.2-0.1-0.9,0.7c0.3,1,1.3,1.3,2.3,1.2c0.5,0,1-0.2,0.9-0.8
				c-0.2-1-1.1-1-1.9-1.1C415.3,507,415.2,507,414.9,507z M425.9,512.2c0.4-0.1,1.2-0.1,1.1-0.9c-0.2-1.1-1.3-0.8-2.1-1
				c-0.4-0.1-1.1,0-1,0.6C424.2,511.7,424.8,512.2,425.9,512.2L425.9,512.2z M429.9,513.3c0.6-0.2,1.4-0.2,1.3-1
				c-0.2-0.9-1.1-0.8-1.9-0.9c-0.4,0-1,0-0.9,0.6C428.5,512.8,429.1,513.2,429.9,513.3L429.9,513.3z M421.3,510.3
				c0.5-0.1,1.2,0,1-0.6c-0.3-0.8-1-1.2-1.9-1.2c-0.4,0-0.9,0.1-0.9,0.6C419.7,510,420.5,510.2,421.3,510.3L421.3,510.3z M420,481.4
				c0.6,0,1.4,0,1.4-0.6c0-0.9-1.1-0.9-1.8-1.1c-0.5-0.1-1.1,0.2-1.1,0.7C418.6,481.4,419.4,481.3,420,481.4L420,481.4z
				 M470.3,463.6c-0.6,0.1-1.1,0.3-1.1,1.1c0,0.7,0.7,0.7,1.2,0.7c0.7,0.1,1.1-0.4,1.1-1C471.6,463.6,471,463.6,470.3,463.6
				L470.3,463.6z M435.8,513.7c-0.1-0.6-1.5-1.4-2.2-1.3c-0.4,0-0.7,0.2-0.5,0.6c0.3,0.8,1.1,1.3,1.9,1.3
				C435.3,514.3,435.7,514.2,435.8,513.7z M434.1,484.4c0.7,0,1.3-0.1,1.4-0.8c0.1-0.6-0.6-0.5-1-0.6c-0.6,0-1.3,0-1.4,0.7
				C433,484.4,433.7,484.3,434.1,484.4z M424.7,481.1c-0.3,0.1-0.8-0.1-0.8,0.5c0.1,0.8,0.7,1,1.3,1.1c0.5,0.1,1-0.1,0.9-0.6
				C426.1,481.2,425.2,481.4,424.7,481.1L424.7,481.1z M417.6,536.2c0.1,0.6,0.5,0.6,0.9,0.6c0.6,0,1.2-0.2,1.2-0.9
				c0-0.6-0.7-0.7-1.1-0.7C418,535.2,417.6,535.6,417.6,536.2z M429.8,482.2c-0.5,0-1.1,0.1-1,0.6c0.2,0.8,1,0.4,1.6,0.6
				c0.4,0.1,0.9-0.3,0.8-0.6C431,482.2,430.3,482.3,429.8,482.2L429.8,482.2z M472.4,460.2c-0.1-0.5-0.5-0.5-0.8-0.4
				c-0.6,0.1-1.2,0.4-1.2,1.1c0,0.4,0.4,0.5,0.8,0.5C471.7,461.3,472.2,460.8,472.4,460.2L472.4,460.2z M439.4,484.4
				c-0.1-0.5-0.4-0.8-0.8-0.7c-0.5,0.1-1,0.5-1,1.1c0,0.5,0.5,0.6,0.9,0.6C439,485.3,439.4,484.9,439.4,484.4L439.4,484.4z
				 M402.6,530.1c-0.4,0-0.7,0.1-0.6,0.5c0.1,0.6,0.6,0.8,1.2,0.9c0.4,0.1,1-0.2,0.9-0.5C404,530.3,403.1,530.4,402.6,530.1
				L402.6,530.1z M411.4,534.6c0.4,0,0.9,0,0.9-0.5c0-0.7-0.7-0.6-1.1-0.7c-0.4-0.1-0.9,0.1-0.8,0.6
				C410.4,534.5,410.9,534.6,411.4,534.6L411.4,534.6z M415.2,534.5c-0.3,0.4-1.1,0.2-1,0.8c0,0.5,0.5,0.7,1,0.7
				c0.4,0,0.7-0.3,0.7-0.7v-0.1C415.9,534.7,415.8,534.4,415.2,534.5L415.2,534.5z M411,506.6c-0.1-0.6-0.7-0.8-1.2-0.9
				c-0.3-0.1-0.8-0.2-0.8,0.2c0,0.7,0.7,0.9,1.2,1C410.6,507.1,410.9,507,411,506.6L411,506.6z M402.7,556.4c0.4,0,0.8-0.2,0.8-0.7
				s-0.4-0.7-0.8-0.7c-0.6-0.1-0.5,0.5-0.6,0.8C401.9,556.3,402.3,556.4,402.7,556.4z M414.6,560.3c0-0.5-0.3-0.6-0.7-0.6
				c-0.3,0-0.8-0.1-0.8,0.4c0,0.4,0.3,0.6,0.7,0.6C414.1,560.8,414.5,560.8,414.6,560.3L414.6,560.3z M408,532.4
				c0.1-0.3-0.1-0.4-0.3-0.5c-0.5-0.1-0.9,0-1.1,0.5c-0.1,0.2,0,0.4,0.2,0.5h0.1C407.4,533,407.7,532.8,408,532.4z M406.9,557.5
				c-0.2-0.4-0.6-0.5-1-0.5c-0.2,0-0.4,0.1-0.3,0.3c0.1,0.4,0.5,0.6,0.9,0.6C406.7,558,406.9,557.8,406.9,557.5L406.9,557.5z
				 M399.4,554.3c-0.1-0.3-0.4-0.5-0.7-0.5c-0.3,0-0.5,0.2-0.5,0.5c0.1,0.4,0.4,0.5,0.7,0.5S399.4,554.7,399.4,554.3L399.4,554.3z"
				/>
			<path class="st27" d="M354.6,557.1c0.1-23.3,6.5-44.7,19.5-64.1c12.6-18.8,29.4-32.8,50.2-41.8c11.7-5.1,24.2-8.2,37-9.1
				c18.1-1.4,35.5,1.4,52.3,8.3c21.2,8.8,38.3,22.6,51.4,41.6c8.7,12.7,14.8,27,17.8,42c2,9.6,2.7,19.4,2.2,29.1
				c-0.6,10.9-2.6,21.5-6.3,31.8c-0.4,1-0.7,1-1.6,0.5c-8.9-5.4-17.3-11.6-26.1-17.2c-5.4-3.5-9.7-8.1-13.4-13.3
				c-0.4-0.5-0.7-1.2-1.1-1.7c-1-1.5-1-2.6-0.1-4.4c2.7-5.4,6.2-10.3,8.3-16c0.8-2.1,2.3-3.8,2.7-6.1c0.6-3.5,0.2-6.8-2.1-9.7
				c-2-2.6-2.9-5.8-3.1-9c-0.3-4.4-2-8.1-5.3-11c-2.1-1.8-3-3.7-2.8-6.6c0.5-5.2-2-8.9-6.7-11.2c-3.6-1.8-6.8-4.2-10-6.6
				c-0.5-0.4-0.7-0.9-0.7-1.5c0.1-1.2-0.5-2.3-1.5-2.8c-5.8-3.3-9.4-8.7-13.5-13.8c-1-1.3-1.7-2.8-3-4c-1.9-1.8-4.2-2.4-6.7-1.7
				c-2.3,0.6-4.6,1.4-6.4,3c-0.5,0.5-0.8,0.2-1.2-0.1c-2.7-1.9-5.1-4.3-8.6-4.8c-5.7-0.7-10.8,0.4-14.3,6.1
				c-0.5,0.8-1.1,1.5-1.3,2.5c-0.1,0.6-0.6,0.6-1,0.7c-2.4,0.3-4.7,1-6.8,2.4c-0.3,0.2-0.6,0.3-1,0.1c-4.5-2.2-8,0.1-11.4,2.5
				c-1.9,1.4-3.7,2.9-4.5,5.2c-0.1,0.4-0.4,0.5-0.8,0.5c-3.1-0.4-6.3-0.6-9.3-1.4c-2.3-0.6-4.5-1.2-6.9-1.2c-4.5,0-7.3,2.5-9.6,6.1
				c-2.9,4.7-3.5,9.8-3.5,15.1c0,0.8-0.2,1.3-0.9,1.7c-8.9,5.5-11,17.5-4.7,25.7c0.5,0.6,0.7,0.9-0.3,1.2c-1.5,0.5-2.5,1.8-3.6,3
				c-4.7,5.3-5.3,13.9-1.5,19.9c0.6,0.9,0.6,1.4-0.1,2.2c-2.9,3.6-3.3,7.8-2.6,12.3c0.4,2.8,1.5,5.1,3.6,7c1.4,1.3,2.3,3.1,3.3,4.8
				c1.2,1.9,2.7,3.5,4.8,4.6c2.9,1.5,5.9,3.2,9,4.2c1,0.3,1.2,0.7,0.7,1.7c-0.9,2.1-1.8,4.2-2.4,6.4c-1.1,4.3-3.8,7.6-6,11.2
				c-5.1,8.3-10.3,16.6-15.9,24.6c-1.5,2.1-3.1,4.2-4.6,6.3c-0.6,0.8-0.9,0.7-1.5,0c-6.9-8-12.7-16.9-17.3-26.5
				c-4.8-10.1-8.1-20.9-9.7-32C355,568.6,354.4,562.9,354.6,557.1z"/>
			<path class="st28" d="M455.7,588.1c3-1.6,5-3.9,5.5-7.3c1.5-0.2,2.7-1.2,3.9-2c2.2-1.5,3.8-3.5,4.2-6.3c1.6-2,2.7-4.1,3.2-6.7
				c0.5-2.4,0.1-4.3-1.8-5.9c0.2-0.4,0.6-0.3,1-0.3c1.9-0.2,5.6-2.8,5.5-4.8h0.1c0.1-0.1,0.1-0.1,0.2-0.2c2.4-2.1,4.4-4.5,5.3-7.7
				c0.7-2.4,0.5-5.1-0.6-7.3c-0.7-1.4-2-2.2-3.1-3.1c-0.5-0.3-0.9-0.7-1.2-1.2l2.4,0.4c1.7,0.2,3.4,0.1,5-0.5
				c2.3-0.7,3.3-2.5,4.2-4.5c1-2.4,2.2-4.9,1-7.6c-0.9-2-2.2-3.8-3.5-5.6c-1.9-2.7-3.8-5.4-5.7-8.1c0.7-0.5,1.1-1.3,1.5-2
				c1.5-2.7,2.5-5.6,3.7-8.4c2.6-6.3,4.3-13,5-19.8c0.2-2.2,0.2-4.5,1-6.6c1.5-3.7,4.5-5.8,7.9-7.6c1.8,2.6,3.6,5.3,5.5,7.8
				c2,2.7,4.2,5.2,6.9,7.3c-0.2,1.2-0.3,2.3-0.5,3.5c-0.6,3.5-2.1,6.7-3.4,9.9c-2.1,5.5-4.3,11-6.3,16.5c-2.2,6-5.3,11.7-6.9,18
				c-0.6,2.5-1.4,4.9-2.1,7.3c1.1-1.2,2.7-2,3-3.8c3.5-5.5,6.5-11.2,9.5-17c3.4-6.6,7.5-12.9,10.9-19.5c0.4-0.8,0.8-1.6,1.1-2.5
				c0.8-2.1,2.2-2.8,4.4-2.1c1.3,0.4,2.6,0.8,3.7,1.4c0.6,1.4,1.4,2.7,1.1,4.4c-0.3,1.6-0.8,3.1-1.5,4.6c-3,6.4-6.5,12.5-10.4,18.4
				c-2.1,3.2-4.5,6.3-6.1,9.9c-1.9,4.4-4.1,8.6-6.5,12.7c-5.5,9.5-10.9,19.1-16.7,28.5c-0.2,0.4-0.6,0.7-0.6,1.5
				c1-0.9,1.4-2,2.2-2.8c5.7-6.2,9.9-13.6,15.9-19.6l0.2-0.4l0,0c0.2-0.1,0.4-0.2,0.3-0.6l0,0c0.9-0.2,1.2-1,1.8-1.6l0.2-0.2
				c8.7-10,16.2-21,23.8-31.9c1.5-2.2,2.9-4.5,3.5-7.1c0.7,1.4,1.4,2.7,2,4.1c0.9,1.8,1.1,3.8,0.7,5.8c-0.7,3-2.1,5.6-3.7,8.2
				c-3.8,6-8.4,11.4-12.4,17.1c-3.6,5.1-8.1,9.5-11.9,14.4c-5.2,6.6-11.1,12.7-16.7,19.1c-2.3,2.6-4.8,5-6.9,7.8
				c-0.8,0.6-1.5,1.2-1.9,2.2l-0.1,0.1l0.1-0.1c0.8-0.3,1.5-0.9,1.9-1.6c0.3-0.1,0.6-0.3,0.8-0.5c3.8-3,7.7-6.1,11.7-8.9
				c1.2-0.8,2.3-1.7,3.5-2.5l0.2,0.3c-1.5,1.9-2.9,4-4.7,5.7c-1.6,1.4-3,2.9-4.4,4.4c-2.5,2.8-4.6,6-7.4,8.5
				c-2.9,2.6-6.1,5.1-8.9,7.8c-4.4,4.1-9,8-12.5,13c-3.7,5.2-7,10.8-10.7,16c-8.3,11.8-16.3,23.7-24.4,35.6
				c-3.5-1.2-6.8-2.8-10.2-4.5c-4.2-2.1-8.2-4.5-12-7.1c0-0.6,0.2-1.1,0.5-1.7c4.8-12.2,9.7-24.3,14.5-36.5c0.3-0.9,0.7-1.7,1.2-2.4
				c2.4-3.5,5.6-6.5,8.5-9.5c2.3-2.3,5-4.1,7.8-5.8s5.5-3.3,8.7-4.1C449.9,591.8,453.1,590.5,455.7,588.1z"/>
			<path class="st29" d="M427.5,664.3c8-11.9,16.1-23.8,24.4-35.6c3.7-5.3,7-10.8,10.7-16c3.5-4.9,8.2-8.8,12.5-13
				c2.9-2.7,6-5.2,8.9-7.8c2.8-2.5,4.9-5.7,7.4-8.5c1.4-1.6,2.8-3,4.3-4.5c1.8-1.7,3.2-3.7,4.7-5.7l-0.2-0.3
				c-1.2,0.8-2.3,1.7-3.5,2.5c-4,2.9-7.8,5.9-11.7,8.9c-0.3,0.2-0.5,0.3-0.8,0.5v-0.6c2.1-2.8,4.6-5.2,6.9-7.8
				c5.6-6.3,11.4-12.4,16.7-19.1c3.9-4.9,8.3-9.3,11.9-14.4c4.1-5.7,8.7-11.1,12.4-17.1c1.6-2.6,3-5.2,3.7-8.2
				c0.4-1.9,0.2-4-0.7-5.8c-0.6-1.4-1.4-2.7-2-4.1v-0.1c0.2-0.5,0-1.2,0.5-1.3c0.6-0.1,0.8,0.6,1.1,1c1.3,1.5,2.5,3,3.4,4.7
				c2.4,4.4,3,9,0.6,13.6c-0.5,0.9-0.7,1.9-1.1,2.9c0,0.1,0.1,0.2,0.1,0.3c1.8-1.1,2.6-2.9,3.5-4.9c0.8,2.5,2.3,4.3,3.4,6.4
				c0.9,1.6,1.1,3.3,0.9,5.1c-0.4,4.4-2.7,7.9-5.1,11.4c-2.9,4.2-6.6,7.6-10.3,11c-4.9,4.5-9.7,9.2-14.6,13.7
				c-3.4,3.2-7,6.2-9.9,9.9c-1.2,1.5-2.6,2.8-3.5,4.5c-0.1,0.1-0.1,0.2-0.2,0.3l-0.1,0.1h0.1v-0.1l0.3-0.2c2.5-1.9,4.9-3.8,7.4-5.6
				c1.1-0.8,2.1-1.6,3.2-2.5c0.3,0.6-0.1,0.9-0.3,1.2c-6.4,11-14.7,20.5-23.8,29.3c-1.9,1.9-4,3.7-6.1,5.3c-1.1,0.8-2.1,1.8-2.5,3.1
				c-1.1,4.3-3.6,7.8-6.1,11.3c-1.5,2.1-3.2,4.1-4.8,6.1c-0.3,0.4-0.6,0.9-1.4,1.1c1.7-5.8,3.7-11.3,8.1-15.7
				c-0.8-0.3-1,0.2-1.3,0.5c-6.1,5.5-11.3,11.8-15.7,18.8c-6.2,9.6-12.5,19.1-19.3,28.3c-0.6,0.8-1.1,1-2,0.7
				C434.3,666.8,430.8,665.7,427.5,664.3z M511.8,559.7c-0.6,0.5-1,1.1-1.4,1.9c0.7-0.3,1.3-0.8,1.7-1.5c2.2-2.1,4.5-4.2,6.6-6.3
				c4.1-4,8.7-7.4,12.5-11.7c2.2-2.5,3-5.5,3.5-8.6c0-0.3,0-0.5,0-0.8c0-0.2-0.1-0.5-0.3-0.5c-0.3-0.1-0.4,0.2-0.5,0.3
				c-0.5,0.9-1.1,1.8-1.8,2.5c-6.2,6.5-12,13.3-17.3,20.5C513.9,556.9,512.8,558.3,511.8,559.7z"/>
			<path class="st30" d="M480,626.5c0.8,1.7,1.5,3.3,2.3,5c3.7,7.7,7.9,15.1,12.2,22.4c2.5,4.2,4.5,8.8,6.3,13.4
				c0.4,1.1-0.4,1-0.9,1.2c-4.5,1.2-9.1,2.2-13.7,2.8c-7.2,1-14.4,1.4-21.7,1.1c-3-0.1-5.9-0.5-8.9-0.7c-1-0.1-0.7-0.5-0.4-1
				c2-3.5,4-7.1,6-10.5c4.9-8.2,9.4-16.6,14.1-24.9c0.4-0.8,0.9-1.6,1.3-2.3c1.2-2,2.5-3.8,2.8-6.2L480,626.5z"/>
			<path class="st31" d="M455.7,588.1c-2.6,2.4-5.8,3.7-9.1,4.5c-3.2,0.8-6,2.4-8.7,4.1c-2.7,1.7-5.5,3.4-7.8,5.8
				c-3,3.1-6.1,6-8.5,9.5c-0.5,0.8-0.9,1.6-1.2,2.4c-4.8,12.2-9.7,24.3-14.5,36.5c-0.2,0.5-0.5,1.1-0.5,1.7c-4.7-3-9-6.5-13.1-10.3
				c-0.6-0.5-0.6-0.9-0.3-1.6c3-6.2,5.9-12.5,8.9-18.7h0.6c-1.2,3.7-2.4,7.4-3.6,11.1c0.5,0.2,0.7-0.1,0.8-0.3
				c3.3-3.4,6-7.3,8.2-11.4c4.1-7.7,7.7-15.6,10.6-23.9c0.2-0.5,0.3-0.9,0.5-1.4c0.7-2.2,0.7-2.2,2.9-1.9c4.1,0.6,8.3,0.5,12.4,1.6
				c0.1,0,0.2-0.1,0.5-0.1c-2.4-1.7-4.9-3.1-7.3-5.3c1.7,0.2,3,0.4,4.4,0.6c6.9,0.8,13.5-0.5,20.1-2
				C452.6,588.7,454.1,588.3,455.7,588.1z"/>
			<path class="st32" d="M502.7,648.8c1.5,2.6,3,5.3,4.5,7.9c1.3,2.2,2.5,4.5,3.7,6.7c0.4,0.7,0.4,1.1-0.5,1.5
				c-1.8,0.7-1.8,0.8-2.7-0.9c-2.9-5.2-5.7-10.4-8.6-15.6c-1.9-3.5-3.8-7-5.8-10.5c-0.3-0.4-0.4-0.9-0.5-1.4
				c2.6,2.6,3.9,6.3,7.3,8.5c0-0.9-0.2-1.8-0.8-2.6c-1.6-2.3-2.5-5-3.5-7.6c-1.3-3.2-2.9-6.3-4.4-9.4c-0.9-2-1.8-4-2.5-6.1
				c-0.3-0.6-0.2-1.3,0.1-1.9c0.9-1.9,1.9-3.8,3.1-5.5c0.6-0.8,1-0.8,1.6,0c2.3,2.8,3.9,6,6.1,8.8c3.3,4.2,6.3,8.6,10.1,12.4
				c3.5,3.7,6.8,7.7,10,11.7c2.3,3,4.8,5.8,7.4,8.6c2.1,2.3,2.1,2.3-0.5,3.7c-3.2,1.8-6.5,3.5-9.9,5c-0.9,0.4-1.5,0.3-2.1-0.4
				c-2-2.4-3.9-4.8-5.9-7.1c-1.8-2.1-3.7-4.3-5.8-6.1C502.9,648.7,502.8,648.8,502.7,648.8z"/>
			<path class="st33" d="M497.7,610.2c0-1.7,0.9-2.8,1.7-4c0.4-0.5,0.8-0.3,1.1,0.1c3.3,4.1,7.3,7.7,11,11.4
				c4.4,4.4,9.3,8.5,14.2,12.3c2.3,1.8,4.2,3.9,5.6,6.4c2.3,3.9,4.5,7.8,6.7,11.7c0.5,1,0.4,1.5-0.6,2.1c-1.3,0.8-2.5,1.6-3.6,2.5
				c-0.7,0.5-1.1,0.5-1.7-0.2c-2.1-2.4-4.1-4.9-6.3-7.2c-1.7-1.7-3.1-3.6-4.8-5.2c-3.1-3-5.5-6.5-8.3-9.8c-4.1-4.9-7.7-10-11.7-14.9
				c-1-1.3-2-2.7-2.9-4C497.9,611.2,497.8,610.7,497.7,610.2z"/>
			<path class="st34" d="M503.6,549.6c-6,5.9-10.2,13.3-15.9,19.6c-0.7,0.8-1.2,1.9-2.2,2.8c0-0.8,0.4-1.1,0.6-1.5
				c5.8-9.4,11.2-18.9,16.7-28.5c2.4-4.1,4.5-8.4,6.5-12.7c1.6-3.6,4-6.6,6.1-9.9c3.8-5.9,7.4-12,10.4-18.4c0.7-1.5,1.2-3,1.5-4.6
				s-0.5-3-1.1-4.4c2.2,0.4,3.8,1.7,4.9,3.7c0.6,1.1,0.3,2.3,0.2,3.4c-0.7,6.2-3,11.8-6.2,17.1c-3.7,6-7.1,12.2-11.1,18
				c-2.3,3.3-4.7,6.5-7,9.9c-0.5,0.8-1.6,1.6-0.9,2.8l-0.2,0.2c-0.2-0.6-0.6-0.4-0.8-0.1c-0.4,0.5-0.9,1-0.9,1.7l0,0
				c-0.3,0.1-0.3,0.3-0.3,0.6l0,0C503.7,549.3,503.6,549.4,503.6,549.6z"/>
			<path class="st29" d="M500.2,465.1c-3.4,1.7-6.4,3.8-7.9,7.6c-0.9,2.1-0.8,4.4-1,6.6c-0.7,6.8-2.4,13.5-5,19.8
				c-1.2,2.8-2.2,5.7-3.7,8.4c-0.4,0.8-0.8,1.5-1.5,2c-1.7-1.9-3-4-5-5.6c-0.7-0.5-1.2-1.2-2-1.6s-0.9-0.8-0.1-1.6
				c4.2-4.1,8.6-8,11.1-13.4c0.1-0.3,0.3-0.6,0.4-0.8c0.1-0.3,0.4-0.6,0.1-0.9s-0.5,0.1-0.8,0.3c-0.6,0.5-1.2,0.9-1.8,1.4
				c-0.3-0.5,0-0.9,0.1-1.2c1.7-5.2,3.1-10.6,4-16.1c0.3-1.8,0-3.7-0.9-5.3c-0.5-0.8-0.4-1.3,0.5-1.7
				C492.2,460.2,496.6,460.7,500.2,465.1z"/>
			<path class="st35" d="M447.4,486c1.3-2.5,3.6-4,6.2-4.8c0.9-0.3,1.7,0.5,2.4,1.2c3.3,3.1,5.9,6.8,8.4,10.5c2,2.9,4.1,5.5,6.3,8.2
				c1,1.2,1,1.2-0.4,1.8c-1.5,0.6-2.6,1.8-3.7,2.8c-0.7,0.6-1.3,1.3-2.1,1.7c-0.2-0.2-0.4-0.4-0.7-0.6c-2.8-2.2-5.3-4.6-7.5-7.3
				C452.9,495.2,449.9,490.7,447.4,486z"/>
			<path class="st33" d="M447.4,486c2.5,4.8,5.5,9.3,9,13.4c2.2,2.7,4.7,5.2,7.5,7.3c0.2,0.2,0.5,0.4,0.7,0.6
				c-1.2,2.5-2.7,5-3.1,7.8c-0.1,0.8-0.2,1.7-0.3,2.5c-0.1,1.2-0.7,0.9-1.3,0.4c-2.2-1.9-4.3-4-6.1-6.2c-2.6-3.2-4.9-6.6-7-10.2
				c-1.7-2.8-2.1-5.9-1.7-9.1c0.2-1.7,0.4-3.5,1.2-5.1C446.4,486.9,446.6,486.2,447.4,486z"/>
			<path class="st35" d="M465.2,510.8c-0.1-0.3-0.1-0.5,0-0.8c1.2-2.7,5.6-5.6,8.5-5.6c0.6,0,0.9,0.3,1.3,0.6
				c4.1,3.1,6.3,7.7,9,11.8c1.4,2.1,3,4.1,4.7,6c0.7,0.8,1.1,1.6,0.8,2.7c-2.1,2.1-3.5,2.5-5.6,1.4c-5.5-2.8-10.3-6.6-14.4-11.2
				C468.1,514.1,466.7,512.4,465.2,510.8z"/>
			<path class="st33" d="M439.4,490.6c-0.5,2.7-0.8,5.4-0.4,8.1c0.1,0.7,0.1,1-0.8,0.8c-3.6-0.8-7.2-0.5-10.8-1.1
				c-4.5-0.8-9-1.9-12.5-5.1c-3.1-2.8-3.2-4.1-1.3-7.9c0.2-0.4,0.5-0.9,0.7-1.3c0.2,0.1,0.4,0.2,0.6,0.3
				C423.1,486.6,431.1,489.2,439.4,490.6z"/>
			<path class="st36" d="M526.6,589.2c0.9-0.2,1.6,0.2,2.3,0.9c3.2,3.4,6.2,6.9,9.4,10.4c3.3,3.6,6.4,7.4,9.5,11.2
				c4.2,5.1,8.4,10.1,12.7,15.1c0.5,0.6,0.5,0.9,0,1.5c-1.1,1.2-2,2.5-3,3.8c-1.2,1.4-1.7,1.4-2.9-0.3c0-0.7-0.5-1.1-0.9-1.6
				c-6.6-9.4-13.1-18.8-19.2-28.5C531.9,597.4,529.3,593.3,526.6,589.2z"/>
			<path class="st37" d="M455.6,528.8c-0.5,1.2-1.1,2.3-1.6,3.5c-0.9,2.3-1.1,4.8-0.7,7.5c-3.2-1.7-6.4-3.1-9.2-5.2
				c-3.9-3-6.2-6.9-6.2-11.8c0-2.9-0.2-6,2.4-8.2c3.8,3.3,7.4,6.9,11.3,10.1C453.1,525.9,454.5,527.2,455.6,528.8z"/>
			<path class="st38" d="M443.7,549.2c2.2-2.7,5.3-3.2,8.4-1.5c2.4,1.3,4.4,3.1,6.4,4.8c2.8,2.3,5.7,4.4,8.5,6.5
				c1.4,1,2.7,2.1,3.9,3.3c0.5,0.5,0.7,0.9,0.4,1.5c-0.8,1.5-1.1,3.3-2.8,4.2c-0.2-0.2-0.4-0.3-0.7-0.4c-6.2-3.1-12.1-6.9-17.5-11.3
				c-2.4-1.9-4.4-4.1-6.6-6.1c0-0.3-0.1-0.5-0.1-0.8L443.7,549.2z"/>
			<path class="st33" d="M443.8,550.3c2.2,2,4.3,4.2,6.6,6.1c5.4,4.4,11.3,8.2,17.5,11.3c0.2,0.1,0.5,0.3,0.7,0.4
				c-1,2-2.9,3.3-5.1,3.5c-4.9,0.6-9.2-1-13.1-3.8c-5-3.7-7.9-8.6-8-15C442.4,551.7,442.7,550.7,443.8,550.3z"/>
			<path class="st38" d="M458,532.2c0.7-3.2,4.7-4.9,7.5-3.3c4.9,2.8,8.9,6.8,13.5,10.1c2.4,1.7,3.1,3.9,2.2,6.7
				c-0.4,1.4-1,2.8-2.2,3.8c-1.7-0.6-3.4-1.4-4.8-2.6c-3.3-2.7-6.4-5.6-9.6-8.5C462.4,536.3,460.2,534.2,458,532.2z"/>
			<path class="st38" d="M540.7,623.7c1,1.2,1.7,2.8,3.2,3.5c0.4,0.4,0.7,0.9,1.1,1.3c2.5,2.8,5,5.6,7.5,8.4
				c-0.9,1.6-2.4,2.5-3.6,3.8c-0.4,0.4-0.6,0.1-0.9-0.2c-4.5-5.7-9.6-10.8-13.7-16.8c-0.2-1-0.6-2-1.2-2.8c-3-4.6-6.2-9-9.8-13.2
				c-2.2-2.6-1.8-5.6-2.2-8.5c0.7,0.5,1.3,1.2,1.8,1.8c5,6.2,9.5,12.7,14.2,19.1C538.3,621.5,539.2,622.9,540.7,623.7z"/>
			<path class="st33" d="M531.8,630.8c-1.3-0.6-2.3-1.7-3-2.8c-1.1-1.7-2.6-2.8-4.1-4.1c-3.9-3.4-7.4-7.1-10.9-10.9
				c-2.3-2.5-4.4-5.1-6.3-7.8c-0.9-1.3-1.8-2.7-2.6-4.1c-0.4-0.7-0.3-1.3,0.2-2c0.9-1.4,2.4-2.2,3.5-3.4c0.5-0.6,0.9-0.2,1.3,0.3
				c1.8,2.5,3.6,5,5.3,7.5c2.7,3.9,5.5,7.9,8.7,11.5c0.1,0.2,0.2,0.4,0.3,0.6c0.4,2.2,0.7,4.5,2,6.4c1.2,1.7,2.5,3.3,3.7,5
				C530.5,628,531.3,629.3,531.8,630.8z"/>
			<path class="st37" d="M441.3,548.9c-1.1,2.8-2.1,5.5-2.2,8.6c0,0.6-0.5,0.7-0.9,0.8c-0.9,0.2-1.8,0.2-2.7,0
				c-2.8-0.9-5.4-2.1-7.7-3.8c-2-1.4-2.9-3.5-3.7-5.7c-1.1-3.4-2-6.8-0.5-10.4c3.5,2.3,7,4.7,10.7,6.8
				C436.7,546.5,439.2,547.4,441.3,548.9z"/>
			<path class="st37" d="M435.1,520.2c-0.4,1.4-0.8,2.8-1.1,4.1c-0.3,1-1.1,1.1-1.9,1.1c-2.2,0.1-4.5-0.2-6.6-0.9
				c-4.7-1.6-9.4-3.4-13.9-5.5c-3-1.4-4.3-3.8-4.8-6.8c-0.1-0.9-0.4-1.8-0.3-2.7c4.1,1.8,8.2,3.6,12.4,5.2
				C424.3,516.7,429.8,518.1,435.1,520.2z"/>
			<path class="st35" d="M562.9,604.8c-1.1-4.5-1.4-9,0.6-13.4c0.4-0.8,0.8-1.1,1.6-0.4c3.7,2.7,7.4,5.4,11.1,8.1
				c0.5,0.4,0.7,0.6,0.4,1.3c-1.7,4.1-3.5,8.1-5.7,11.9c-1.5-1.4-3.1-2.9-4.6-4.3C565.2,606.9,564.3,605.6,562.9,604.8z"/>
			<path class="st37" d="M419.5,542.2c-0.4,2.8-0.5,5.6,0.2,8.4c0.3,1,0.2,1.5-1.1,1.1c-4.1-1.3-8.4-2.2-12-4.6
				c-4.6-3.1-6.9-7.5-6.8-13.1l6.1,2.5C410.5,538.3,414.9,540.5,419.5,542.2z"/>
			<path class="st37" d="M458,532.2c2.2,2,4.4,4.1,6.6,6.1c3.2,2.9,6.3,5.8,9.6,8.5c1.5,1.2,3.1,2,4.8,2.6c-1.8,2.7-3.9,3.4-7.7,2.6
				c-2.7-0.5-4.8-2.1-7-3.7c-3.2-2.3-6.1-4.9-7.7-8.7C455.7,537.4,456.3,533.6,458,532.2z"/>
			<path class="st37" d="M415.7,564.1c-0.2,2-0.7,4-0.6,6c0.1,0.8,0.2,1.6,0.3,2.4c0.1,0.7-0.1,1-0.9,0.8c-5-1-9.4-3.3-13.5-6.4
				c-0.7-0.5-1.3-1.1-1.9-1.7c-2.5-2.4-2.6-5.3-1.8-8.5c0-0.1,0.2-0.2,0.4-0.4c1.2,0.9,2.2,1.9,3.7,2.4
				C406.1,560.6,410.9,562.3,415.7,564.1z"/>
			<path class="st33" d="M465.2,510.8c1.4,1.7,2.9,3.3,4.3,5c4.1,4.6,8.9,8.4,14.4,11.2c2.1,1.1,3.5,0.7,5.6-1.4
				c0.1,2.9-2.3,5.7-5,6.4c-2.6,0.7-4.8-0.4-7.1-1.3c-7.4-2.9-11.1-8.7-12.4-16.3C464.9,513.1,464.4,511.9,465.2,510.8z"/>
			<path class="st38" d="M441.3,548.9c-2.2-1.5-4.6-2.4-6.9-3.7c-3.7-2.1-7.2-4.5-10.7-6.8c0.1-1.4,1-2.1,2-2.7
				c2.2-1.4,4.8-1.7,7.3-1.3c1.1,0.2,2.1,1,3,1.7c3.4,2.7,6.8,5.5,10.4,8.4C444.2,545.6,442.8,547.3,441.3,548.9z"/>
			<path class="st38" d="M455.6,528.8c-1.1-1.6-2.6-2.8-4.1-4.1c-3.9-3.2-7.5-6.8-11.3-10.1c1.4-2.5,3.7-3.8,6.3-4.7
				c0.8-0.3,1.4,0.1,1.9,0.8c3,3.6,5.7,7.4,9,10.7c1,1,1.9,1.9,2.9,2.9c0.2,0.2,0.8,0.6,0.2,0.8
				C458.6,525.9,457.2,527.4,455.6,528.8z"/>
			<path class="st29" d="M496.4,531.6c-0.2,1.8-1.8,2.6-3,3.8c0.7-2.4,1.5-4.9,2.1-7.3c1.6-6.3,4.7-11.9,6.9-18
				c2-5.5,4.2-11,6.3-16.5c1.3-3.3,2.8-6.4,3.4-9.9c0.2-1.1,0.3-2.3,0.5-3.5c1.9,1,3,3.8,2.4,5.8c-4,13.4-10.7,25.8-16.2,38.6
				c-0.9,2.1-1.8,4.1-2.7,6.2C496,531.2,495.7,531.6,496.4,531.6z"/>
			<path class="st33" d="M459.8,579.3c0.3,1.9-1.2,5.4-3,5.9c-1.2,0.3-2.7,0.1-4-0.2c-5.4-1-10.4-3.6-14.3-7.6
				c-1.8-1.8-3-4.1-3.5-6.6c-0.1-0.5-0.3-1.2,0.2-1.6c0.4,0.3,0.8,0.7,1.3,1c4.9,4,10.7,6.4,16.7,8.5
				C455.4,579.4,457.7,579.6,459.8,579.3z"/>
			<path class="st36" d="M540.7,623.7c-1.5-0.9-2.5-2.2-3.4-3.5c-4.7-6.4-9.2-12.9-14.2-19.1c-0.5-0.7-1.1-1.3-1.8-1.8
				c0.4,3,0,5.9,2.2,8.5c3.5,4.2,6.8,8.6,9.8,13.2c0.6,0.8,1,1.8,1.2,2.8c-0.8,0-1-0.7-1.4-1.2c-5.1-6.1-10.3-12.1-15.1-18.4
				c-2.5-3.2-3.7-7-4.1-11.1c-0.1-0.5-0.1-1.2,0.4-1.5c0.6-0.3,1,0.3,1.4,0.6c3.3,3.3,6.7,6.5,9.7,10.1c2.3,2.8,4.8,5.4,7.1,8.3
				c2,2.6,3.8,5.5,5.6,8.2c0.7,1,1.3,2,1.9,3.1C540.4,622.4,540.8,623,540.7,623.7z"/>
			<path class="st39" d="M526.6,589.2c2.7,4.1,5.3,8.2,7.9,12.4c6.1,9.7,12.6,19.1,19.2,28.5c0.4,0.5,0.9,0.9,0.9,1.6
				c-1.7-1-3.1-2.3-4.6-3.6c-2.1-1.9-4.7-3.4-6.1-5.9c-1.6-2.9-3.6-5.4-5-8.4c-1-2.3-1.8-4.8-3.3-6.9c-4.2-5.7-8.1-11.5-12.8-16.8
				c-0.4-0.5-0.9-0.9-0.7-1.6C523.5,588.5,525.1,588.7,526.6,589.2z"/>
			<path class="st37" d="M431.6,569.2c-1.2,3.1-1.7,6.2-0.8,9.5c0.3,0.9,0,1.2-0.9,0.9c-4.5-1.7-8.5-4.2-11.2-8.5
				c-1.4-2.2-1-6.8,0.7-8.4c0.3,0.1,0.5,0.2,0.7,0.3C424,565,427.8,567.1,431.6,569.2z"/>
			<path class="st39" d="M443.6,508.6c-0.9,0.9-1.8,1.7-2.8,2.7c-0.4,0.4-0.8,0.2-1.2,0.1c-2.3-0.6-4.6-1.2-6.9-1.8
				c-4.2-1-8.5-2-12.7-2.9c-2.4-0.5-4.6-1.9-7-2.3c-1.1-0.2-2.3-0.5-3.4-0.7c-0.6-0.1-0.8-0.4-0.3-0.8c1.5-1.2,2.8-2.3,5.2-1.7
				c7.9,2.2,15.8,4.3,23.9,5.7c1.4,0.2,2.8,0.4,4.2,0.9C442.9,507.8,443.4,508.1,443.6,508.6z"/>
			<path class="st39" d="M531.8,630.8c-0.4-1.5-1.3-2.7-2.2-4c-1.2-1.7-2.5-3.3-3.7-5c-1.3-1.8-1.5-4.2-2-6.4l5.1,6.9
				c0,0.4,0.2,0.7,0.6,0.8l0,0c0.1,0.5,0.3,0.9,0.8,1.1l0,0c0,0.5,0.4,0.8,0.6,1.2c2.7,3.9,5.5,7.8,8.4,11.5c1.8,2.4,3.6,4.9,5.9,7
				c-1.2,1.5-2.8,2.5-4.2,3.7c-0.5,0.4-0.8,0.1-1.1-0.3c-1.9-3.2-4-6.2-5-9.9C534.3,635.1,532.9,633,531.8,630.8z"/>
			<path class="st38" d="M459.8,579.3c-2.2,0.3-4.4,0.1-6.5-0.6c-5.9-2.1-11.7-4.4-16.7-8.5c-0.4-0.3-0.8-0.7-1.3-1
				c1.4-1.4,3.1-1.9,4.9-2.3c0.4-0.1,0.9,0.1,1.3,0.4c5.3,3.5,10.8,6.7,16.5,9.7C459,577.4,459.8,578,459.8,579.3z"/>
			<path class="st38" d="M431.6,569.2c-3.8-2.1-7.6-4.2-11.4-6.3c-0.2-0.1-0.5-0.2-0.7-0.3c0-1.6,1.2-2.6,2.3-3.4
				c1.5-1.3,3.1-2,5.2-0.7c3.3,1.9,6.5,4.1,10,6.3C434.4,565.5,433,567.3,431.6,569.2z"/>
			<path class="st37" d="M480.2,478.9c0,0.1,0,0.2,0,0.3c-0.6,2-0.5,2-2.2,0.8c-3.4-2.3-7-4-11.1-4.7c-1.8-0.3-3.5-0.7-5.3-0.9
				c3.1-0.3,6.2,0.2,9.3,0.8c0.9,0.2,1.9,0.3,2.8,0.4c0.4,0,1,0.3,1.2-0.3c0.1-0.4-0.4-0.6-0.7-0.9c-2-2-4.6-2.6-7.2-3
				c-3.3-0.5-6.7-0.7-10,0.2c-2,0.6-3.9,1.7-5.7,2.7l0,0c0.3-1.6,1.4-3,2.9-3.6c3.5-1.5,7.4-2.1,11.2-1.8c0,0.5,0.5,0.4,0.8,0.5
				c1.1,0.3,2.3,0.5,3.3,1c3.6,2,7.1,4.1,9.6,7.4C479.5,478.4,479.7,478.8,480.2,478.9z"/>
			<path class="st39" d="M536.4,578.1c-0.8-2.4-0.6-4.7,0.3-7c0.3-0.7,0.5-1,1.2-0.2c0.8,1,1.7,2,2.6,2.9c0.4,0.4,0.6,0.9,0.6,1.5
				c0.7,5.8,1.6,11.5,2.8,17.2c-1.8-2.5-3.1-5.2-4.4-8C538.4,582.4,537.4,580.2,536.4,578.1z"/>
			<path class="st39" d="M435.1,520.2c-5.3-2.1-10.9-3.4-16.2-5.5c-4.2-1.6-8.3-3.4-12.4-5.2c-0.1-0.8,0-1.1,1-0.8
				c8.9,2.6,17.5,6.3,26.5,8.4C436.7,517.7,436.7,517.7,435.1,520.2z"/>
			<path class="st38" d="M478.6,461.3c2.7,0.1,3,0.4,3.8,2.9c0.7,2.2,0.9,4.3-0.7,6.2c-0.6,0.7-1,0.8-1.7,0.1
				c-1.8-1.6-3.9-2.9-6.1-3.8c-0.2-0.5,0.2-0.9,0.4-1.4C475.3,463.5,476.6,462,478.6,461.3z"/>
			<path class="st33" d="M562.9,604.8c1.4,0.8,2.3,2.1,3.5,3.1c1.6,1.4,3.1,2.8,4.6,4.3c-1.1,2.3-2.6,4.5-3.9,6.7
				c-0.2,0.3-0.3,0.7-0.6,0.6c-0.4,0-0.5-0.5-0.6-0.8c-1.1-3.8-2.1-7.7-2.7-11.6C563,606.3,562.4,605.6,562.9,604.8z"/>
			<path class="st39" d="M439.4,490.6c-8.3-1.4-16.4-4-24.5-6.2c-0.2-0.1-0.4-0.2-0.6-0.3c0.4-1.4,1.3-1.4,2.5-1
				c7.4,2.1,14.9,3.9,22.4,5.4c0.6,0.1,0.7,0.4,0.5,0.9C439.7,489.7,439.6,490.1,439.4,490.6z"/>
			<path class="st39" d="M425.2,532.7c-0.7,0.6-1.2,1-1.7,1.4c-0.4,0.4-0.8,0.3-1.2,0.1c-4.7-1.6-9.5-2.9-14.3-4.3
				c-1.7-0.5-3.3-1-5-1.6c-0.9-0.3-0.7-0.6-0.2-1c0.6-0.5,1.1-0.8,2-0.6c6.6,1.8,13.2,3.6,19.6,5.7
				C424.7,532.5,424.9,532.6,425.2,532.7z"/>
			<path class="st36" d="M536.4,578.1c1,2.1,2,4.3,3,6.4c1.3,2.7,2.6,5.5,4.4,8c0.5,2.7,1,5.3,1.6,8.1c-1.2-1.1-2.8-1.9-3.4-3.4
				c-1.8-4.4-4.1-8.7-5-13.4c-0.3-1.7-0.6-3.4-0.9-5.1C536.2,578.4,536.3,578.2,536.4,578.1z"/>
			<path class="st39" d="M480.2,478.9c-0.5-0.2-0.7-0.6-1-0.9c-2.6-3.3-6.1-5.4-9.6-7.4c-1-0.5-2.2-0.7-3.3-1
				c-0.3-0.1-0.8,0-0.8-0.5c2,0.3,4,0,6,0.5c0.3,0.1,0.9,0.3,1.1-0.2c0.2-0.6-0.4-0.7-0.8-0.9l-0.6-0.4c0.2-0.5,0.5-0.4,0.8-0.3
				c3.5,1.3,6.4,3.4,8.5,6.6C481.5,475.8,480.6,477.4,480.2,478.9z"/>
			<path class="st36" d="M521.9,588.4c-0.2,0.7,0.3,1.2,0.7,1.6c4.7,5.3,8.6,11.1,12.8,16.8c1.5,2.1,2.3,4.5,3.3,6.9
				c-0.8-0.2-1.1-0.9-1.4-1.5c-3.3-4.9-6.6-9.7-10.4-14.2c-2.5-3-4.9-5.9-7.4-8.9c-0.2-0.3-0.8-0.5-0.5-1c0.2-0.3,0.7-0.2,1.1-0.1
				C520.8,588.2,521.4,588.3,521.9,588.4z"/>
			<path class="st39" d="M419.4,557.4c-1.3,1.7-1.3,1.7-3.3,1c-5.2-2.1-10.4-3.9-15.7-5.7c-0.8-0.3-0.8-0.5-0.3-1.1
				c0.6-0.7,1.3-1,2.2-0.7c5.6,2.1,11.3,4.2,16.9,6.2C419.3,557.2,419.3,557.3,419.4,557.4z"/>
			<path class="st39" d="M555.6,597.2c-1.2-3.7-1.5-7.4,0.3-11c0.4-0.7,1-1.5,1.9-0.8c0.7,0.5,2,0.7,1.2,2.3
				c-1.1,2.2-1.1,4.7-1.1,7.1c0,1.5,0.1,3.1,0.1,4.6L555.6,597.2z"/>
			<path class="st39" d="M419.5,542.2c-4.6-1.7-9-3.9-13.5-5.7l-6.1-2.5c0-1,0.6-0.9,1.4-0.7c5,1.3,9.7,3.6,14.5,5.3
				c0.9,0.4,1.9,0.7,2.8,0.9c1.1,0.2,1.6,0.7,1.1,1.8C419.6,541.6,419.5,541.9,419.5,542.2z"/>
			<path class="st39" d="M420.8,477.9c1-0.7,1.8-1,3.1-0.7c6,1.2,12.1,2.1,18.3,2.6c1.5,0.1,3,0.3,4.9,0.5c-0.9,0.4-1.8,1-2.5,1.6
				c-0.3,0.2-0.7,0.3-1,0.1c-6.7-2-13.5-2.7-20.4-3.5C422.3,478.6,421.6,478.3,420.8,477.9z"/>
			<path class="st36" d="M545.3,644c-2.2-2.1-4-4.6-5.9-7c-2.9-3.8-5.7-7.6-8.4-11.5c-0.2-0.4-0.6-0.7-0.6-1.2
				c1.1,0.1,1.4,1.2,2,1.9c4,4.8,8,9.7,12,14.5c0.3,0.4,0.7,0.8,1.1,1.2C546.5,642.7,546.5,643.4,545.3,644z"/>
			<path class="st31" d="M477.2,554.9c0,2.1-3.6,4.7-5.5,4.8c-0.4,0-0.7,0-1,0.3l-4.6-3.7c2.3,0.3,4.2,1.5,6.7,1.3
				c-2.2-1.6-4.6-1.9-6.4-3.5c1.6,0.5,3.2,0.9,4.7,1.4c1.7,0.6,3.3,0.4,5-0.3C476.4,555,476.8,554.8,477.2,554.9z"/>
			<path class="st31" d="M469.3,572.6c-0.4,2.7-2.1,4.7-4.2,6.3c-1.2,0.8-2.4,1.7-3.9,2c0.1-1.5-0.5-2.8-1.2-4.2
				c1.3-0.2,2.5-0.2,3.7-0.5C465.9,575.5,467.7,574.1,469.3,572.6z"/>
			<path class="st32" d="M440.5,473.9c2.5-1.9,5.2-3.3,8.5-3c0.7,0.1,1.1,0.4,0.8,1.1c-0.7,1.7-0.9,3.6-0.3,5.4
				c0.1,0.3,0.2,0.7-0.3,0.7c-0.4,0.1-0.8,0-0.9-0.6c-0.2-1.2,0-2.4,0.1-3.6c0-0.1,0.1-0.3,0.1-0.4c0-0.7,0.4-1.6-0.2-2
				c-0.7-0.5-1.4,0.3-2,0.7c-1.8,1.3-3.4,2.7-4.9,4.4c-0.4,0.4-0.8,0.9-1.5,0.6C439.9,476.1,439.8,474.9,440.5,473.9z"/>
			<path class="st32" d="M555.6,597.2l2.5,2.2c0.4,3,0.9,6,1.6,8.9c0.6,2.2,1.2,4.5,1.6,6.8c-0.6-1.4-1.4-2.8-1.9-4.2
				c-1.6-4.2-2.8-8.5-3.8-12.9C555.6,597.8,555.6,597.5,555.6,597.2z"/>
			<path class="st36" d="M552.6,636.9c-2.5-2.8-5-5.6-7.5-8.4c-0.4-0.4-0.7-0.9-1.1-1.3c0.9-0.1,1.4,0.6,1.9,1.1
				c2.3,2.1,4.7,4.1,7.2,6c1.3,1,1.3,1.1,0.1,2.2C553,636.7,552.8,636.8,552.6,636.9z"/>
			<path class="st32" d="M464,466c-0.7-0.2-1.6,0.3-1.9-0.3c-0.2-0.5,0.6-1.1,1-1.6c1.2-1.4,2.6-2.6,4.4-3.3
				c0.3-0.1,0.6-0.3,0.9-0.1c0.3,0.3,0,0.6-0.1,0.8c-0.7,1.3-1.4,2.5-2,3.8C465.7,466.4,464.7,465.8,464,466z"/>
			<path class="st39" d="M415.7,564.1c-4.8-1.8-9.6-3.5-14.5-5.2c-1.5-0.5-2.5-1.5-3.7-2.4c0.3-0.5,0.6-0.2,0.9,0
				c5.4,2.6,11,4.8,16.6,6.9C415.4,563.5,416,563.4,415.7,564.1z"/>
			<path class="st36" d="M478.6,461.3c-2.1,0.7-3.4,2.2-4.4,4.1c-0.2,0.4-0.6,0.8-0.4,1.4c-0.5-0.1-0.7-0.4-0.5-0.9
				c0.5-1.8,1-3.5,1.6-5.2c0.1-0.3,0.3-0.5,0.6-0.4C476.5,460.5,477.8,460.4,478.6,461.3z"/>
			<path class="st39" d="M403.2,503c0.8-2,3.8-3.6,5.5-2.7c-1.9,1.2-3.9,2.1-5.4,3.8L403.2,503z"/>
			<path class="st32" d="M398.7,530.5c-0.2,0.7-0.3,1.5-0.6,2.2c-0.9,2.6-0.9,5.3-0.9,8.1c-0.7-1.4-0.5-2.9-0.4-4.3
				c0-1.9,0.3-3.8,0.9-5.7c0.1-0.4,0.1-0.9,0.7-1C398.6,529.9,398.7,530.2,398.7,530.5z"/>
			<path class="st39" d="M440.5,473.9c-0.7,1-0.6,2.2-0.6,3.4c-0.8,0-1.7,0.1-2.5,0.1c-0.4,0-0.9-0.1-0.5-0.5
				C437.9,475.6,438.9,474.4,440.5,473.9z"/>
			<path class="st39" d="M398.7,530.5c0-0.3-0.1-0.6-0.3-0.7c-0.1-1.6,1.1-2.7,2-3.8c0.4-0.5,1.1-0.2,1.7,0.2
				C400.5,527.3,399.8,529,398.7,530.5z"/>
			<path class="st39" d="M395.1,553.3c-0.2-1.7,1.2-3.3,3-3.2c-0.7,1.3-1.5,2.5-1.9,3.8C395.7,554,395.5,553.4,395.1,553.3z"/>
			<path class="st32" d="M414.6,480.2c-0.8,1.9-2.1,3.5-2.9,5.8c-0.2-1,0-2.1,0.4-3c0.7-1.6,1.3-3.2,2.6-4.4c0,0.4,0,0.7,0.1,1.1
				l0,0L414.6,480.2z"/>
			<path class="st39" d="M414.9,479.8c0-0.4,0-0.7-0.1-1.1c1.1-2.1,2.2-2.8,4.3-2.5C417.3,477.1,416.2,478.6,414.9,479.8z"/>
			<path class="st33" d="M395.1,553.3c0.5,0.1,0.6,0.7,1.1,0.7c-0.8,2.1-1.2,4.3-1.6,6.5c0-2,0-4.1,0-6.2
				C394.6,553.9,394.8,553.6,395.1,553.3z"/>
			<path class="st32" d="M414.9,507c0.3,0,0.4,0,0.4,0c0.8,0.1,1.7,0.1,1.9,1.1c0.1,0.5-0.4,0.7-0.9,0.8c-1,0.1-2-0.2-2.3-1.2
				C413.7,507,414.6,507.1,414.9,507z"/>
			<path class="st32" d="M425.9,512.2c-1.1,0-1.7-0.5-1.9-1.3c-0.2-0.5,0.5-0.7,1-0.6c0.7,0.2,1.9-0.1,2.1,1
				C427.1,512.1,426.3,512.1,425.9,512.2z"/>
			<path class="st32" d="M429.9,513.3c-0.8-0.1-1.4-0.5-1.5-1.3c-0.1-0.7,0.5-0.6,0.9-0.6c0.8,0,1.7-0.1,1.9,0.9
				C431.4,513,430.5,513.1,429.9,513.3z"/>
			<path class="st32" d="M421.3,510.3c-0.8-0.1-1.6-0.3-1.8-1.3c-0.1-0.5,0.4-0.6,0.9-0.6c0.9,0,1.6,0.4,1.9,1.2
				C422.4,510.3,421.8,510.2,421.3,510.3z"/>
			<path class="st32" d="M420,481.4c-0.6-0.1-1.5,0-1.5-0.9c0-0.5,0.6-0.8,1.1-0.7c0.7,0.1,1.7,0.1,1.8,1.1
				C421.5,481.4,420.6,481.4,420,481.4z"/>
			<path class="st32" d="M470.3,463.6c0.7,0,1.3,0.1,1.3,0.8c0,0.7-0.4,1.1-1.1,1c-0.5,0-1.2-0.1-1.2-0.7
				C469.1,463.9,469.7,463.6,470.3,463.6z"/>
			<path class="st32" d="M435.8,513.7c-0.1,0.5-0.5,0.6-0.9,0.6c-0.8,0-1.6-0.5-1.9-1.3c-0.2-0.4,0.2-0.5,0.5-0.6
				C434.3,512.4,435.7,513.2,435.8,513.7z"/>
			<path class="st32" d="M403.2,503l0.1,1c-0.7,1-1.3,2.1-2,3.1C401.5,505.5,401.6,503.9,403.2,503z"/>
			<path class="st32" d="M434.1,484.4c-0.4-0.1-1.1,0.1-1-0.6s0.8-0.8,1.4-0.7c0.4,0,1.1-0.1,1,0.6
				C435.4,484.3,434.8,484.4,434.1,484.4z"/>
			<path class="st32" d="M424.7,481.1c0.5,0.3,1.4,0.1,1.5,1c0,0.6-0.5,0.7-0.9,0.6c-0.6-0.1-1.3-0.4-1.3-1.1
				C423.8,481,424.4,481.2,424.7,481.1z"/>
			<path class="st32" d="M417.6,536.2c0.1-0.6,0.4-1,0.9-1c0.4,0,1.1,0,1.1,0.7c0,0.6-0.6,0.9-1.2,0.9
				C418.1,536.8,417.6,536.8,417.6,536.2z"/>
			<path class="st32" d="M429.8,482.2c0.5,0.1,1.2,0,1.4,0.6c0.1,0.3-0.4,0.8-0.8,0.6c-0.5-0.2-1.4,0.1-1.6-0.6
				C428.6,482.3,429.3,482.3,429.8,482.2z"/>
			<path class="st32" d="M472.4,460.2c-0.2,0.6-0.6,1-1.2,1.1c-0.4,0.1-0.8,0-0.8-0.5c0-0.7,0.5-1,1.2-1.1
				C471.9,459.8,472.2,459.8,472.4,460.2z"/>
			<path class="st32" d="M439.4,484.4c0,0.5-0.4,0.9-0.9,1c-0.4,0.1-0.9-0.1-0.9-0.6c0-0.6,0.4-1,1-1.1
				C439,483.6,439.4,483.9,439.4,484.4z"/>
			<path class="st32" d="M402.6,530.1c0.5,0.3,1.3,0.1,1.5,0.9c0.1,0.4-0.5,0.6-0.9,0.5c-0.5-0.1-1.1-0.3-1.2-0.9
				C401.9,530.2,402.3,530.1,402.6,530.1z"/>
			<path class="st32" d="M411.4,534.6c-0.5,0-1,0-1-0.6c0-0.5,0.4-0.7,0.8-0.6s1.1,0.1,1.1,0.7C412.3,534.6,411.7,534.6,411.4,534.6
				z"/>
			<path class="st32" d="M415.2,534.5c0.5,0,0.7,0.3,0.7,0.7c0.1,0.4-0.2,0.7-0.6,0.8h-0.1c-0.5,0-1-0.2-1-0.7
				C414.2,534.7,415,534.8,415.2,534.5z"/>
			<path class="st32" d="M411,506.6c-0.1,0.4-0.4,0.4-0.7,0.4c-0.5-0.2-1.2-0.3-1.2-1c0-0.4,0.5-0.3,0.8-0.2
				C410.4,505.9,410.9,506,411,506.6z"/>
			<path class="st36" d="M404.9,575.9c-1.4-0.2-2.4-1-3.3-2.1C402.8,574.3,403.9,575,404.9,575.9L404.9,575.9z"/>
			<path class="st32" d="M402.7,556.4c-0.4,0-0.8-0.2-0.7-0.6c0.1-0.3,0-0.9,0.6-0.8c0.4,0.1,0.8,0.3,0.8,0.7
				C403.5,556.2,403.1,556.4,402.7,556.4z"/>
			<path class="st36" d="M401.4,622.1h-0.6l1.2-2.8l0.4,0.1C402.1,620.3,401.8,621.2,401.4,622.1z"/>
			<path class="st32" d="M414.6,560.3c-0.1,0.5-0.4,0.5-0.8,0.5s-0.7-0.2-0.7-0.6c0-0.5,0.5-0.4,0.8-0.4
				C414.2,559.7,414.6,559.8,414.6,560.3z"/>
			<path class="st32" d="M408,532.4c-0.3,0.4-0.6,0.6-1.1,0.5c-0.2,0-0.3-0.2-0.3-0.4v-0.1c0.2-0.5,0.6-0.5,1.1-0.5
				C407.9,532,408,532.1,408,532.4z"/>
			<path class="st32" d="M406.9,557.5c0,0.3-0.2,0.5-0.4,0.4c-0.4,0-0.8-0.2-0.9-0.6c-0.1-0.2,0.2-0.3,0.3-0.3
				C406.3,557.1,406.7,557.1,406.9,557.5z"/>
			<path class="st32" d="M399.4,554.3c0,0.3-0.2,0.5-0.5,0.5s-0.6-0.1-0.7-0.5c0-0.3,0.2-0.5,0.5-0.5
				C399,553.8,399.3,554,399.4,554.3z"/>
			<path class="st36" d="M530.4,624.3c-0.4-0.2-0.7-0.6-0.8-1.1C530.3,623.2,530.5,623.7,530.4,624.3z"/>
			<path class="st36" d="M529.7,623.2c-0.3-0.1-0.6-0.4-0.6-0.8C529.6,622.4,529.7,622.8,529.7,623.2z"/>
			<path class="st39" d="M414.6,480.2l0.2-0.4L414.6,480.2z"/>
			<path class="st37" d="M451.3,474.4L451.3,474.4L451.3,474.4L451.3,474.4z"/>
			<path class="st31" d="M477.5,554.7c-0.1,0.1-0.1,0.1-0.2,0.2L477.5,554.7z"/>
			<path class="st36" d="M404.9,575.9l0.1,0.1L404.9,575.9L404.9,575.9z"/>
			<path class="st36" d="M400.8,573.2L400.8,573.2L400.8,573.2L400.8,573.2z"/>
			<path class="st33" d="M443.7,549.2l-0.1,0.3C443.6,549.3,443.6,549.2,443.7,549.2z"/>
			<path class="st36" d="M400.8,573.2l0.1,0.1L400.8,573.2L400.8,573.2z"/>
			<path class="st34" d="M484.3,584.3v0.6c-0.5,0.7-1.1,1.3-1.9,1.6l0,0C482.7,585.5,483.5,584.8,484.3,584.3z"/>
			<path class="st32" d="M504,548.7c0-0.7,0.5-1.2,0.9-1.7c0.3-0.3,0.6-0.6,0.8,0.1C505.2,547.6,504.9,548.5,504,548.7z"/>
			<path class="st32" d="M503.6,549.6c0.1-0.1,0.1-0.3,0.2-0.4C503.7,549.3,503.6,549.4,503.6,549.6z"/>
			<path class="st32" d="M503.7,549.2c0-0.2,0-0.5,0.3-0.6C504.2,549,504,549.1,503.7,549.2z"/>
			<path class="st34" d="M482.4,586.4L482.4,586.4L482.4,586.4L482.4,586.4z"/>
			<path class="st40" d="M511.8,559.7c1-1.4,2.1-2.8,3.1-4.2c5.3-7.2,11.1-14,17.3-20.5c0.7-0.8,1.3-1.6,1.8-2.5
				c0.1-0.2,0.3-0.4,0.5-0.3s0.3,0.3,0.3,0.5c0,0.3,0.1,0.5,0,0.8c-0.6,3.1-1.3,6.1-3.5,8.6c-3.8,4.3-8.4,7.8-12.5,11.7
				c-2.2,2.1-4.4,4.2-6.6,6.3L511.8,559.7z"/>
			<path class="st26" d="M511.8,559.7l0.4,0.4c-0.4,0.6-1,1.2-1.7,1.5C510.7,560.8,511.2,560.2,511.8,559.7z"/>
			<path class="st26" d="M502.4,585.9l-0.3,0.2l0,0C502.2,586.1,502.3,586,502.4,585.9L502.4,585.9z"/>
			<path class="st26" d="M502.1,586.2L502.1,586.2c0,0.1-0.1,0.1-0.1,0.1L502.1,586.2L502.1,586.2z"/>
		</g>
	</g>
</g>
</svg>
