<svg xmlns="http://www.w3.org/2000/svg" viewBox="0 0 1080 1050"><style>.st0{fill:#fff}.st2{fill:#2775ca}</style><circle cx="277.2" cy="769.6" r="274.7" class="st0"/><path fill="#53ae94" d="M277.2 506.4c145.2 0 263.2 118 263.2 263.2s-118 263.2-263.2 263.2S14 914.9 14 769.6c0-145.2 117.9-263.2 263.2-263.2"/><path d="M309.8 734.5v-39.1h89.6v-59.5H155.6v59.5h89.6v39.1c-72.8 3.2-127.7 17.9-127.7 35.1s54.9 31.6 127.7 35.1v125.5h64.9V804.8c72.8-3.2 127.3-17.9 127.3-35.1-.7-17.3-55.2-31.6-127.6-35.2m0 59.5c-1.8 0-11.1.7-32.3.7-16.9 0-28.3-.4-32.6-.7-64.2-2.9-112.2-14-112.2-27.6 0-13.3 48-24.7 112.2-27.3v43.7c4.3.4 16.1 1.1 33 1.1 20.1 0 30.1-.7 31.9-1.1v-43.7c64.2 2.9 111.9 14 111.9 27.3 0 13.6-47.7 24.7-111.9 27.6m493-299c152 0 274.7 122.3 274.7 274.7s-122.3 274.7-274.7 274.7S528.2 922 528.2 769.6 650.8 495 802.8 495z" class="st0"/><path d="M802.8 506.4c145.6 0 263.2 117.3 263.2 263.2s-117.3 263.2-263.2 263.2-263.2-117.2-263.2-263.2 117.7-263.2 263.2-263.2z" class="st2"/><path d="M725 728.8c0 40.2 24 53.8 72.1 59.5 34.4 4.7 41.2 13.6 41.2 29.8 0 16.1-11.5 26.2-34.4 26.2-20.4 0-31.9-6.8-37.7-24-1.1-3.6-4.7-5.7-7.9-5.7H740c-4.7 0-7.9 3.6-7.9 7.9v1.1c4.7 25.1 25.1 44.5 51.6 47V898c0 4.7 3.6 7.9 9.3 9.3h17.2c4.7 0 7.9-3.6 9.3-9.3v-26.2c34.4-4.7 55.9-27.6 55.9-55.9 0-37.7-22.9-52.7-71-58.4-31.9-5.7-42.3-12.6-42.3-30.8 0-18.3 16.1-30.8 37.7-30.8 29.8 0 40.2 12.6 43.4 29.8 1.1 4.7 4.7 6.8 7.9 6.8h19.4c4.7 0 7.9-3.6 7.9-7.9v-1.1c-4.7-28.7-22.9-49.1-60.6-54.9V641c0-4.7-3.6-7.9-9.3-9.3h-17.2c-4.7 0-7.9 3.6-9.3 9.3v27.6c-34 5.3-57 29.3-57 60.2z" class="st0"/><path d="M744.4 609.4C655.1 641.3 609.6 741 642.6 828.8c17.2 48 54.9 84.6 101.8 101.8 4.7 2.2 6.8 5.7 6.8 11.5v16.1c0 4.7-2.2 7.9-6.8 9.3-1.1 0-3.6 0-4.7-1.1C631.1 932.1 571.6 816.6 606 708c20.4-64.2 69.9-113.3 133.7-133.7 4.7-2.2 9.3 0 10.4 4.7 1.1 1.1 1.1 2.2 1.1 4.7v16.1c0 2.7-3.2 7.4-6.8 9.6zm121.2 356.7c-4.7 2.2-9.3 0-10.4-4.7-1.1-1.1-1.1-2.2-1.1-4.7v-16.1c0-4.7 3.6-9.3 6.8-11.5 89.3-31.9 134.8-131.6 101.8-219.4-17.2-48-54.9-84.6-101.8-101.8-4.7-2.2-6.8-5.7-6.8-11.5v-16.1c0-4.7 2.2-7.9 6.8-9.3 1.1 0 3.6 0 4.7 1.1 108.6 34.4 168.2 149.9 133.7 258.5-20.4 66-70.6 115.1-133.7 135.5z" class="st0"/><path d="M802.8 495c152 0 274.7 122.3 274.7 274.7s-122.3 274.7-274.7 274.7S528.2 922 528.2 769.6 650.8 495 802.8 495z" class="st0"/><path d="M802.8 506.4c145.6 0 263.2 117.3 263.2 263.2s-117.3 263.2-263.2 263.2-263.2-117.2-263.2-263.2 117.7-263.2 263.2-263.2z" class="st2"/><path d="M725 728.8c0 40.2 24 53.8 72.1 59.5 34.4 4.7 41.2 13.6 41.2 29.8 0 16.1-11.5 26.2-34.4 26.2-20.4 0-31.9-6.8-37.7-24-1.1-3.6-4.7-5.7-7.9-5.7H740c-4.7 0-7.9 3.6-7.9 7.9v1.1c4.7 25.1 25.1 44.5 51.6 47V898c0 4.7 3.6 7.9 9.3 9.3h17.2c4.7 0 7.9-3.6 9.3-9.3v-26.2c34.4-4.7 55.9-27.6 55.9-55.9 0-37.7-22.9-52.7-71-58.4-31.9-5.7-42.3-12.6-42.3-30.8 0-18.3 16.1-30.8 37.7-30.8 29.8 0 40.2 12.6 43.4 29.8 1.1 4.7 4.7 6.8 7.9 6.8h19.4c4.7 0 7.9-3.6 7.9-7.9v-1.1c-4.7-28.7-22.9-49.1-60.6-54.9V641c0-4.7-3.6-7.9-9.3-9.3h-17.2c-4.7 0-7.9 3.6-9.3 9.3v27.6c-34 5.3-57 29.3-57 60.2z" class="st0"/><path d="M744.4 609.4C655.1 641.3 609.6 741 642.6 828.8c17.2 48 54.9 84.6 101.8 101.8 4.7 2.2 6.8 5.7 6.8 11.5v16.1c0 4.7-2.2 7.9-6.8 9.3-1.1 0-3.6 0-4.7-1.1C631.1 932.1 571.6 816.6 606 708c20.4-64.2 69.9-113.3 133.7-133.7 4.7-2.2 9.3 0 10.4 4.7 1.1 1.1 1.1 2.2 1.1 4.7v16.1c0 2.7-3.2 7.4-6.8 9.6zm121.2 356.7c-4.7 2.2-9.3 0-10.4-4.7-1.1-1.1-1.1-2.2-1.1-4.7v-16.1c0-4.7 3.6-9.3 6.8-11.5 89.3-31.9 134.8-131.6 101.8-219.4-17.2-48-54.9-84.6-101.8-101.8-4.7-2.2-6.8-5.7-6.8-11.5v-16.1c0-4.7 2.2-7.9 6.8-9.3 1.1 0 3.6 0 4.7 1.1 108.6 34.4 168.2 149.9 133.7 258.5-20.4 66-70.6 115.1-133.7 135.5z" class="st0"/><path d="M802.8 495c152 0 274.7 122.3 274.7 274.7s-122.3 274.7-274.7 274.7S528.2 922 528.2 769.6 650.8 495 802.8 495z" class="st0"/><path d="M802.8 506.4c145.6 0 263.2 117.3 263.2 263.2s-117.3 263.2-263.2 263.2-263.2-117.2-263.2-263.2 117.7-263.2 263.2-263.2z" class="st2"/><path d="M725 728.8c0 40.2 24 53.8 72.1 59.5 34.4 4.7 41.2 13.6 41.2 29.8 0 16.1-11.5 26.2-34.4 26.2-20.4 0-31.9-6.8-37.7-24-1.1-3.6-4.7-5.7-7.9-5.7H740c-4.7 0-7.9 3.6-7.9 7.9v1.1c4.7 25.1 25.1 44.5 51.6 47V898c0 4.7 3.6 7.9 9.3 9.3h17.2c4.7 0 7.9-3.6 9.3-9.3v-26.2c34.4-4.7 55.9-27.6 55.9-55.9 0-37.7-22.9-52.7-71-58.4-31.9-5.7-42.3-12.6-42.3-30.8 0-18.3 16.1-30.8 37.7-30.8 29.8 0 40.2 12.6 43.4 29.8 1.1 4.7 4.7 6.8 7.9 6.8h19.4c4.7 0 7.9-3.6 7.9-7.9v-1.1c-4.7-28.7-22.9-49.1-60.6-54.9V641c0-4.7-3.6-7.9-9.3-9.3h-17.2c-4.7 0-7.9 3.6-9.3 9.3v27.6c-34 5.3-57 29.3-57 60.2z" class="st0"/><path d="M744.4 609.4C655.1 641.3 609.6 741 642.6 828.8c17.2 48 54.9 84.6 101.8 101.8 4.7 2.2 6.8 5.7 6.8 11.5v16.1c0 4.7-2.2 7.9-6.8 9.3-1.1 0-3.6 0-4.7-1.1C631.1 932.1 571.6 816.6 606 708c20.4-64.2 69.9-113.3 133.7-133.7 4.7-2.2 9.3 0 10.4 4.7 1.1 1.1 1.1 2.2 1.1 4.7v16.1c0 2.7-3.2 7.4-6.8 9.6zm121.2 356.7c-4.7 2.2-9.3 0-10.4-4.7-1.1-1.1-1.1-2.2-1.1-4.7v-16.1c0-4.7 3.6-9.3 6.8-11.5 89.3-31.9 134.8-131.6 101.8-219.4-17.2-48-54.9-84.6-101.8-101.8-4.7-2.2-6.8-5.7-6.8-11.5v-16.1c0-4.7 2.2-7.9 6.8-9.3 1.1 0 3.6 0 4.7 1.1 108.6 34.4 168.2 149.9 133.7 258.5-20.4 66-70.6 115.1-133.7 135.5zM277.2 555C125.5 555 2.5 432 2.5 280.4S125.5 5.7 277.2 5.7s274.7 123 274.7 274.7C551.8 432 428.5 555 277.2 555z" class="st0"/><path fill="#ed9a21" d="M277.2 543.6C131.9 543.6 14 425.6 14 280.4S132 17.2 277.2 17.2s263.2 118 263.2 263.2S422 543.6 277.2 543.6z"/><path fill="#fdfdfb" d="M281.1 262.1h100.8c2.2 0 3.2 0 3.2 2.9.7 10.4.7 20.4 0 30.8 0 2.2-.7 2.9-3.2 2.9H181.8c-2.5 0-3.2-.7-3.2-3.2V266c0-3.9 0-3.9 3.9-3.9h98.6zm92.9 70.6c.4.7.4 1.4 0 2.5-1.8 3.6-3.9 7.2-5.7 10.4-3.6 5.7-7.5 10.8-12.2 15.4-2.5 2.9-4.7 5.4-7.5 7.2-14.4 12.2-31.6 20.8-49.6 25.1-9 2.2-18.6 2.9-28.3 2.9h-89.3c-2.5 0-2.9-.7-2.9-3.2v-58.8c0-2.5 0-3.2 3.2-3.2h191.1s1.8.4 2.2 1.4h-1v.3zm0-105c-2.9.4-5.7.4-8.6 0H181.8c-2.5 0-3.2 0-3.2-3.2v-57.7c0-2.5 0-3.2 3.2-3.2h85c3.9-.4 8.2 0 12.2.7 12.2.7 24.4 3.6 35.9 7.9 3.9 1.4 8.2 3.2 12.2 5.7h1.1c20.1 10.4 36.2 26.9 46.3 46.3-.5.2.6 2.4-.5 3.5zm-228.8-94v91.5c0 2.2 0 2.5-2.5 2.5h-35.9c-2.2 0-2.9 0-2.9 2.5v31.6h38.4c2.2 0 2.9 0 2.9 2.9v31.2c0 2.2 0 2.5-2.5 2.5h-35.9c-2.2 0-2.9 0-2.9 2.5v29c0 1.8 0 2.5 2.5 2.5H142c2.5 0 3.2 0 3.2 3.2v89.3c0 2.5 0 3.2 3.2 3.2h124.1c9-.4 17.9-1.4 26.9-2.9 18.3-3.2 35.9-10 52-19 10.4-6.1 20.4-13.6 29-22.6 6.5-6.8 12.2-14 17.6-21.9 5.4-7.9 9.3-16.5 12.9-25.1.4-2.5 2.5-3.9 5-3.6h29.8c3.9 0 3.9 0 3.9-3.6v-27.3c0-2.5-.7-3.2-3.6-3.2h-22.9c-2.5 0-2.9 0-2.9-2.9.7-10 .7-20.4 0-30.1 0-2.9 0-3.2 3.2-3.2h26.2c1.1-1.4 0-2.9 0-4.3.4-2.2.4-3.9 0-5.7v-20.1c0-2.9-.7-3.6-3.2-3.6h-31.6c-2.2.4-4.3-.7-4.7-3.2-7.2-19.4-19.4-36.6-34.8-50.9-5.7-5-11.5-10-17.6-14-6.8-3.9-13.3-7.9-20.1-10.8-12.6-5.7-25.5-9.7-39.1-12.2-12.9-2.5-25.8-3.2-38.7-3.2l-114.6-1z"/><circle cx="802.8" cy="280.4" r="274.7" class="st0"/><circle cx="802.8" cy="280.4" r="263.2" fill="#f1b90c"/><path d="M695.1 150.1h152.7v60H695.1z" class="st0" transform="rotate(-45.001 771.492 180.072)"/><path d="M644.3 247.3h60v60h-60z" class="st0" transform="rotate(-45.001 674.262 277.332)"/><path d="M680.7 245.8H925v60H680.7z" class="st0" transform="rotate(-45.001 802.872 275.789)"/><path d="M744.6 311.1h244.3v60H744.6z" class="st0" transform="rotate(-45.001 866.756 341.105)"/></svg>