<svg xmlns="http://www.w3.org/2000/svg" viewBox="0 0 1080 1080"><style>.st0{fill:#fff}.st2{fill-rule:evenodd;clip-rule:evenodd;fill:#482402}</style><circle cx="540" cy="540" r="537.5" class="st0"/><path d="M681.6 621.5c0-75.1-45.1-100.9-135.2-111.6-64.4-8.6-77.2-25.8-77.2-55.8 0-30 21.5-49.4 64.4-49.4 38.6 0 60.1 12.9 70.8 45.1 2.1 6.4 8.6 10.7 15 10.7h34.3c8.6 0 15-6.4 15-15v-2.1c-8.6-47.2-47.2-83.7-96.6-88V304c0-8.6-6.4-15-17.2-17.2h-32.2c-8.6 0-15 6.4-17.2 17.2v49.4c-64.4 8.6-105.1 51.5-105.1 105.1 0 70.8 42.9 98.7 133 109.4 60.1 10.7 79.4 23.6 79.4 57.9s-30 57.9-70.8 57.9c-55.8 0-75.1-23.6-81.5-55.8-2.1-8.6-8.6-12.9-15-12.9H409c-8.6 0-15 6.4-15 15v2.1c8.6 53.6 42.9 92.3 113.7 103v51.5c0 8.6 6.4 15 17.2 17.2h32.2c8.6 0 15-6.4 17.2-17.2v-51.5c64.4-10.6 107.3-55.6 107.3-113.6z" class="st0"/><path d="M430.6 846.9c-167.4-60.1-253.2-246.8-191-412 32.2-90.1 103-158.8 191-191 8.6-4.3 12.9-10.7 12.9-21.5v-30c0-8.6-4.3-15-12.9-17.2-2.1 0-6.4 0-8.6 2.1-203.9 64.4-315.4 281.1-251.1 485C209.5 782.5 301.8 874.8 422 913.4c8.6 4.3 17.2 0 19.3-8.6 2.1-2.1 2.1-4.3 2.1-8.6v-30c0-6.5-6.4-15.1-12.8-19.3zM658 177.4c-8.6-4.3-17.2 0-19.3 8.6-2.1 2.1-2.1 4.3-2.1 8.6v30c0 8.6 6.4 17.2 12.9 21.5 167.4 60.1 253.2 246.8 191 412-32.2 90.1-103 158.8-191 191-8.6 4.3-12.9 10.7-12.9 21.5v30c0 8.6 4.3 15 12.9 17.2 2.1 0 6.4 0 8.6-2.1 203.9-64.4 315.4-281.1 251.1-485C870.5 308.2 776 216 658 177.4z" class="st0"/><path fill="#fff2d8" fill-rule="evenodd" d="M25 540C25 255.7 255.7 25 540 25s515 230.7 515 515-230.7 515-515 515S25 824.6 25 540z" clip-rule="evenodd"/><path d="M656 756.1c-46.6 80.8-150 108.5-230.8 61.8-80.8-46.6-108.5-150-61.8-230.8 46.6-80.8 150-108.5 230.8-61.8C675 572 702.6 675.3 656 756.1zm-213.9 32.6c64.6 37.3 147.3 15.2 184.6-49.5 37.3-64.6 15.2-147.3-49.5-184.6-64.6-37.3-147.3-15.2-184.6 49.5-37.3 64.6-15.1 147.3 49.5 184.6z" class="st2"/><path d="M600.4 724c-28.9 50.1-93 67.3-143.1 38.3-50.1-28.9-67.3-93-38.3-143.1 28.9-50.1 93-67.3 143.1-38.3 50 29 67.2 93 38.3 143.1zm-126.2 9.1c33.9 19.6 77.3 8 96.9-26 19.6-33.9 8-77.3-26-96.9-33.9-19.6-77.3-8-96.9 26-19.5 33.9-7.9 77.3 26 96.9z" class="st2"/><path fill="#f6e6d2" fill-rule="evenodd" d="M555.9 591.6c-44.2-25.5-100.8-10.4-126.3 33.8-25.5 44.2-10.4 100.8 33.8 126.3 44.2 25.5 100.8 10.4 126.3-33.8 25.6-44.2 10.4-100.8-33.8-126.3zm-163.2 12.5c37.3-64.6 120-86.8 184.6-49.5s86.8 120 49.5 184.6-120 86.8-184.6 49.5c-64.7-37.3-86.9-120-49.5-184.6z" clip-rule="evenodd"/><path fill="#e89b37" d="M788.1 392.2c-11 19-27.2 33.1-45.7 41.5-14.4 6.5-23.2 30.7-13.7 43.3 36.3 48.1 52.9 108.7 46.3 168.5-1 9.5 5.3 18.3 14.2 21.6 4.2 1.6 8.3 3.5 12.3 5.9 40.4 23.3 54.2 75 30.9 115.4-23.3 40.4-75 54.2-115.4 30.9L335.2 598.9c-40.4-23.3-54.2-75-30.9-115.4 23.3-40.4 75-54.2 115.4-30.9 4 2.3 7.8 4.9 11.2 7.8 7.4 6 18.2 7.1 25.8 1.5 48.5-35.6 109.3-51.5 169.1-44.2 15.7 1.9 32.1-17.8 30.6-33.5-2-20.3 2.2-41.4 13.1-60.3 28-48.5 73.1-35.8 121.6-7.8 0-.2 24.9 27.6-3 76.1z"/><linearGradient id="SVGID_1_" x1="381.009" x2="889.47" y1="728.496" y2="432.879" gradientTransform="matrix(1 0 0 -1 0 1080)" gradientUnits="userSpaceOnUse"><stop offset="0" stop-color="#efc443"/><stop offset="1" stop-color="#e69536"/></linearGradient><path fill="url(#SVGID_1_)" d="M788.1 392.2c-11 19-27.2 33.1-45.7 41.5-14.4 6.5-23.2 30.7-13.7 43.3 36.3 48.1 52.9 108.7 46.3 168.5-1 9.5 5.3 18.3 14.2 21.6 4.2 1.6 8.3 3.5 12.3 5.9 40.4 23.3 54.2 75 30.9 115.4-23.3 40.4-75 54.2-115.4 30.9L335.2 598.9c-40.4-23.3-54.2-75-30.9-115.4 23.3-40.4 75-54.2 115.4-30.9 4 2.3 7.8 4.9 11.2 7.8 7.4 6 18.2 7.1 25.8 1.5 48.5-35.6 109.3-51.5 169.1-44.2 15.7 1.9 32.1-17.8 30.6-33.5-2-20.3 2.2-41.4 13.1-60.3 28-48.5 73.1-35.8 121.6-7.8 0-.2 24.9 27.6-3 76.1z"/><path fill="#e28432" d="M750.1 631.2c6.6-59.9-10-120.4-46.3-168.5l-9.2 16c14 66.6 2.6 67.8-3 118.7-1 9.5 5.3 18.3 14.2 21.6 4.2 1.6 8.3 3.5 12.3 5.9 40.4 23.3 54.2 75 30.9 115.4-23.3 40.4-75 54.2-115.4 30.9l58.5 33.8c40.4 23.3 92.1 9.5 115.4-30.9 23.3-40.4 9.5-92.1-30.9-115.4-4-2.3-8.1-4.3-12.3-5.9-8.9-3.4-15.3-12.2-14.2-21.6z"/><path d="M728.4 403c12.4-5.6 23.1-15 30.4-27.7 18.7-32.3 7.6-73.6-24.7-92.3-32.3-18.7-73.6-7.6-92.3 24.7-7.3 12.7-10.1 26.7-8.8 40.2 1.9 19.9-7.1 37.6-17.2 49-9.8 11.1-28 24.2-51.2 21.3-51.3-6.3-103.4 7.3-145 37.9-22.1 16.2-50 11.5-67.2-2.5-2.1-1.7-4.3-3.3-6.8-4.7-24.2-14-55.2-5.7-69.2 18.5s-5.7 55.2 18.5 69.2l439 253.4c24.2 14 55.2 5.7 69.2-18.6 14-24.2 5.7-55.2-18.5-69.2-2.4-1.4-4.9-2.6-7.4-3.5-20.8-7.9-38.8-29.6-35.8-56.9 5.7-51.3-8.6-103.2-39.7-144.5-14.1-18.6-11.9-40.9-7.1-55 4.7-14.3 15.6-31.1 33.8-39.3zm14 30.7c18.6-8.4 34.7-22.5 45.7-41.5 28-48.5 11.4-110.5-37.1-138.5s-110.5-11.4-138.5 37.1c-11 19-15.1 40.1-13.1 60.3 1.5 15.7-14.9 35.4-30.6 33.5-59.8-7.4-120.6 8.5-169.1 44.2-7.7 5.6-18.5 4.5-25.8-1.5-3.5-2.8-7.2-5.4-11.2-7.8-40.4-23.3-92.1-9.5-115.4 30.9-23.3 40.4-9.5 92.1 30.9 115.4L717 819.3c40.4 23.3 92.1 9.5 115.4-30.9 23.3-40.4 9.5-92.1-30.9-115.4-4-2.3-8.1-4.3-12.3-5.9-8.9-3.4-15.3-12.2-14.2-21.6 6.6-59.9-10-120.4-46.3-168.5-9.6-12.6-.7-36.7 13.7-43.3z" class="st2"/><path d="M586 480.8c-2.3 9.1-11.4 14.6-20.5 12.3-10.1-2.5-28.6-4.4-48.9-.7-20.1 3.6-41.1 12.4-57.8 30.1-6.4 6.8-17.1 7.1-23.9.8-6.8-6.4-7.1-17.1-.8-23.9 22.8-24.3 51.1-35.7 76.5-40.3 25.2-4.5 48.5-2.4 63 1.2 9.1 2.3 14.6 11.4 12.4 20.5z" class="st2"/></svg>