<svg width="24" height="24" viewBox="0 0 24 24" fill="none" xmlns="http://www.w3.org/2000/svg">
<path d="M0.5 11.9999C0.5 5.64866 5.64865 0.5 12 0.5C18.3514 0.5 23.5 5.64866 23.5 11.9999C23.5 18.3512 18.3512 23.4998 11.9999 23.4998C5.64865 23.4998 0.5 18.3512 0.5 11.9999Z" fill="#6DC065" stroke="white"/>
<path d="M16.2022 15.085C16.1917 15.0798 15.1112 14.5073 14.0716 13.1616C13.4247 12.3243 12.9267 11.3627 12.5912 10.3036C12.1185 8.76291 12.4516 6.54096 12.1705 5.32183C11.8681 4.00961 10.9591 3.75642 10.6532 3.74308C9.83289 3.70741 9.02144 4.42881 8.84938 5.90399C8.12876 12.08 10.8484 15.8996 14.7566 18.0049C15.5281 18.3971 16.5438 18.0841 16.939 17.2679C17.3381 16.4615 17.0083 15.4842 16.2022 15.085Z" fill="#FDE9AF"/>
<path d="M16.2022 15.085C16.1917 15.0798 15.111 14.5073 14.0716 13.1616C13.4247 12.3242 12.9267 11.3626 12.5912 10.3036C12.1185 8.76289 12.4516 6.54094 12.1705 5.32181C11.8681 4.0096 10.9592 3.7564 10.6532 3.74307C10.4641 3.73484 10.2756 3.7674 10.0951 3.83953C10.4872 3.99947 11.0005 4.39805 11.2134 5.32173C11.4945 6.54086 11.1615 8.76281 11.6341 10.3035C11.9696 11.3626 12.4676 12.3242 13.1145 13.1615C14.154 14.5072 15.2346 15.0797 15.2451 15.0849C16.0512 15.4842 16.3812 16.4614 15.982 17.2677C15.7782 17.6886 15.4092 17.9752 14.9939 18.1008C15.7247 18.3291 16.5833 18.0025 16.9392 17.2677C17.3381 16.4614 17.0083 15.4842 16.2022 15.085Z" fill="#FFDD7F"/>
<path d="M11.4386 11.9634C11.4386 11.9634 9.60732 9.59902 7.13382 9.49771C4.6604 9.3964 4.73011 13.2475 3.91675 13.6691C3.10339 14.0908 3.16245 14.4999 3.16245 14.4999C3.16245 14.4999 3.20315 14.8731 3.86748 14.6318C4.53173 14.3905 4.64941 14.2092 4.90347 13.8956C5.15753 13.582 5.71743 10.3485 7.11979 10.4383C8.52215 10.528 8.85258 13.5097 10.425 15.2853C11.9973 17.0609 13.7841 18.437 15.6903 18.3084C17.3905 18.1935 17.9961 18.6914 18.3928 18.8995C18.4657 18.9378 18.5557 18.9095 18.5935 18.8362L19.0012 18.0434C19.0406 17.9668 19.0068 17.8728 18.9275 17.8394C18.5906 17.6975 17.7696 17.2917 17.3934 16.5789C16.9137 15.67 17.346 15.8911 15.8431 14.6318C14.3403 13.3724 13.5316 11.4693 13.5705 10.741C13.6095 10.0128 13.4746 8.37514 14.8382 8.40388C16.2017 8.43263 16.4427 10.7646 17.1398 11.5372C17.758 12.2222 18.1264 11.6061 18.1264 11.6061C18.1264 11.6061 18.2516 11.1907 17.6366 10.7222C17.2069 10.3949 16.7594 7.47059 14.8744 7.51753C12.9895 7.56446 11.3527 9.07731 11.4386 11.9634Z" fill="#FFD34F"/>
<path d="M18.9276 17.8394C18.5907 17.6974 17.7697 17.2917 17.3935 16.579C16.9138 15.6701 17.3461 15.8911 15.8432 14.6318C14.3403 13.3724 13.5316 11.4694 13.5705 10.7412C13.6096 10.0129 13.4747 8.37529 14.8382 8.40404C16.2018 8.43278 16.4428 10.7648 17.14 11.5375C17.758 12.2225 18.1266 11.6063 18.1266 11.6063C18.1266 11.6063 18.2518 11.1908 17.6368 10.7224C17.2071 10.3951 16.7596 7.47092 14.8745 7.51777C13.2942 7.55708 11.8885 8.62701 11.5259 10.6726C11.4716 11.4479 11.4385 11.9637 11.4385 11.9637C11.4385 11.9637 11.8163 14.899 14.3775 16.0834C16.9389 17.2679 16.113 17.6603 17.466 18.4627C17.4662 18.4629 17.4664 18.463 17.4667 18.4631C17.9183 18.6015 18.1844 18.7906 18.3928 18.8998C18.4658 18.938 18.5557 18.9097 18.5935 18.8365L19.0012 18.0436C19.0407 17.9668 19.007 17.8728 18.9276 17.8394Z" fill="#FFCA2A"/>
<path d="M18.9276 17.8394C18.5907 17.6974 17.7697 17.2917 17.3934 16.579C16.9137 15.6701 17.3461 15.8911 15.8432 14.6318C14.3403 13.3724 13.5315 11.4694 13.5705 10.7412C13.6035 10.125 13.5121 8.8577 14.3093 8.49982C13.3591 8.81943 12.6133 9.53121 12.6133 10.7412C12.6133 11.9233 13.3832 13.3725 14.886 14.6318C16.3889 15.8912 15.9088 15.697 16.4362 16.579C17.1207 17.7236 18.2205 17.6619 18.3082 18.8532C18.3375 18.8698 18.3657 18.8855 18.3928 18.8996C18.4658 18.9379 18.5557 18.9096 18.5935 18.8363L19.0013 18.0435C19.0407 17.9668 19.007 17.8728 18.9276 17.8394Z" fill="#F8B018"/>
</svg>
