<svg xmlns="http://www.w3.org/2000/svg" xmlns:xlink="http://www.w3.org/1999/xlink" xml:space="preserve" viewBox="0 0 1080 1080"><circle cx="540" cy="540" r="537.5" fill="#fff"/><circle cx="540" cy="540" r="515" fill="#6dc065"/><defs><rect id="a" width="675" height="675" x="202.5" y="202.5"/></defs><clipPath id="b"><use xlink:href="#a" overflow="visible"/></clipPath><g clip-path="url(#b)"><defs><rect id="c" width="675" height="675" x="202.5" y="202.5"/></defs><clipPath id="d"><use xlink:href="#c" overflow="visible"/></clipPath><g clip-path="url(#d)"><defs><rect id="e" width="675" height="675" x="202.5" y="202.5"/></defs><clipPath id="f"><use xlink:href="#e" overflow="visible"/></clipPath><g clip-path="url(#f)"><path fill="#fde9af" d="M757.6 699.9c-.4-.2-46.4-24.6-90.7-81.9-27.5-35.6-48.7-76.6-63-121.7-20.1-65.6-5.9-160.2-17.9-212.1-12.9-55.9-51.6-66.6-64.6-67.2-34.9-1.5-69.5 29.2-76.8 92-30.7 263 85.1 425.6 251.5 515.2 32.8 16.7 76.1 3.4 92.9-31.4 17-34.3 2.9-75.9-31.4-92.9z"/><path fill="#ffdd7f" d="M757.6 699.9c-.4-.2-46.5-24.6-90.7-81.9-27.5-35.6-48.7-76.6-63-121.7-20.1-65.6-5.9-160.2-17.9-212.1-12.9-55.9-51.6-66.6-64.6-67.2-8.1-.4-16.1 1-23.8 4.1 16.7 6.8 38.5 23.8 47.6 63.1 12 51.9-2.2 146.5 17.9 212.1 14.3 45.1 35.5 86 63 121.7 44.3 57.3 90.3 81.7 90.7 81.9 34.3 17 48.4 58.6 31.4 92.9-8.7 17.9-24.4 30.1-42.1 35.5 31.1 9.7 67.7-4.2 82.8-35.5 17.1-34.3 3-75.9-31.3-92.9z"/><path fill="#ffd34f" d="M554.8 567s-78-100.7-183.3-105c-105.3-4.3-102.3 159.6-137 177.6-34.6 18-32.1 35.4-32.1 35.4s1.7 15.9 30 5.6 33.3-18 44.1-31.3c10.8-13.4 34.7-151 94.3-147.2 59.7 3.8 73.8 130.8 140.7 206.3 66.9 75.6 143 134.2 224.1 128.7 72.4-4.9 98.2 16.3 115 25.2 3.1 1.6 6.9.4 8.5-2.7l17.4-33.8c1.7-3.3.2-7.3-3.1-8.7-14.3-6-49.3-23.3-65.3-53.7-20.4-38.7-2-29.3-66-82.9C678.4 627 643.9 546 645.6 515c1.7-31-4.1-100.7 54-99.5 58 1.2 68.3 100.5 98 133.4 26.3 29.2 42 2.9 42 2.9s5.3-17.7-20.8-37.6c-18.3-13.9-37.3-138.4-117.6-136.4-80.3 1.9-150 66.3-146.4 189.2z"/><path fill="#ffca2a" d="M873.7 817.1c-14.3-6-49.3-23.3-65.3-53.7-20.4-38.7-2-29.3-66-82.9-64-53.5-98.5-134.5-96.8-165.5 1.7-31-4.1-100.7 54-99.5 58 1.2 68.3 100.5 98 133.4 26.3 29.2 42 2.9 42 2.9s5.3-17.7-20.8-37.6c-18.3-13.9-37.3-138.4-117.6-136.4C633.8 379.4 574 425 558.6 512c-2.3 33-3.7 55-3.7 55s16 125 125.1 175.4c109 50.4 73.9 67.1 131.5 101.3 19.2 5.9 30.6 13.9 39.4 18.6 3.1 1.6 6.9.4 8.5-2.7l17.4-33.8c1.7-3.2.2-7.2-3.1-8.7z"/><path fill="#f8b018" d="M873.7 817.1c-14.3-6-49.3-23.3-65.3-53.7-20.4-38.7-2-29.3-66-82.9-64-53.5-98.5-134.5-96.8-165.5 1.4-26.2-2.5-80.2 31.5-95.4-40.4 13.6-72.2 43.9-72.2 95.4 0 50.3 32.8 112 96.7 165.6 64 53.6 43.5 45.3 66 82.9 29.1 48.7 76 46.1 79.7 96.8 1.2.7 2.4 1.4 3.6 2 3.1 1.6 6.9.4 8.5-2.7l17.4-33.8c1.7-3.2.2-7.2-3.1-8.7z"/></g></g></g><path fill="#6dc065" fill-rule="evenodd" d="M-277.2-324.5c0-76.5 62-138.6 138.6-138.6S0-401 0-324.5s-62 138.6-138.6 138.6-138.6-62-138.6-138.6z" clip-rule="evenodd"/></svg>