<?xml version="1.0" encoding="utf-8"?>
<!-- Generator: Adobe Illustrator 24.0.2, SVG Export Plug-In . SVG Version: 6.00 Build 0)  -->
<svg version="1.1" id="Layer_1" xmlns="http://www.w3.org/2000/svg" x="0px" y="0px"
	 viewBox="0 0 1080 1080" style="enable-background:new 0 0 1080 1080;" xml:space="preserve">
<style type="text/css">
	.st0{fill:#FFFFFF;}
	.st1{fill:#DEE8D8;}
	.st2{fill:#5B8E3E;}
</style>
<circle class="st0" cx="540" cy="540" r="537.5"/>
<g>
	<circle class="st1" cx="540" cy="540" r="514.9"/>
	<g>
		<path class="st2" d="M703.8,734.7c-28.4,27.6-69.2,44.8-122.6,51.4v79.4h-70.9v-77.3c-35-1.9-68.3-8-100-18.4
			c-31.7-10.4-57.2-23.2-76.6-38.3l39-86.5c18,13.2,39,24.3,63.1,33.3c24.1,9,48.9,14.7,74.4,17V577c-33.6-8-61.9-17-85.1-26.9
			c-23.2-9.9-42.5-24.5-58.1-43.6c-15.6-19.1-23.4-44.5-23.4-76.2c0-39.2,14.3-72.9,42.9-101c28.6-28.1,69.8-45.2,123.7-51.4v-78.7
			h70.9v77.3c58.1,4.7,106.1,19.1,143.9,43.2l-35.4,87.2c-35.4-20.3-71.6-32.6-108.5-36.9v120.5c33.1,7.6,61.1,16.2,84,25.9
			c22.9,9.7,42.2,24.1,57.8,43.2c15.6,19.1,23.4,44.3,23.4,75.5C746.3,673.9,732.1,707.1,703.8,734.7z M471.2,453.6
			c9,7.6,22,13.9,39,19.1V372.1c-18,4.3-31.2,11-39.7,20.2c-8.5,9.2-12.8,20-12.8,32.3C457.8,436.4,462.3,446.1,471.2,453.6z
			 M619.4,674.1c8.5-8.5,12.8-18.7,12.8-30.5c0-11.8-4.4-21.5-13.1-29.1c-8.8-7.6-21.4-14.2-37.9-19.8v97.8
			C598.1,688.8,610.9,682.6,619.4,674.1z"/>
	</g>
</g>
<g>
</g>
<g>
</g>
<g>
</g>
<g>
</g>
<g>
</g>
<g>
</g>
</svg>
