<svg xmlns="http://www.w3.org/2000/svg" viewBox="0 0 1080 1080"><style>.st0{fill:#fff}.st1{fill:#aa7d50}</style><path d="M540 2.5C243.1 2.5 2.5 243.1 2.5 540s240.6 537.5 537.5 537.5 537.5-240.6 537.5-537.5S836.9 2.5 540 2.5zm0 1052.5c-284.4 0-515-230.6-515-515S255.6 25 540 25s515 230.6 515 515-230.6 515-515 515z" class="st0"/><path d="M540 1045c-68.2 0-134.3-13.4-196.6-39.7-60.1-25.4-114.1-61.8-160.5-108.2-46.4-46.4-82.8-100.4-108.2-160.5C48.4 674.3 35 608.2 35 540c0-68.2 13.4-134.3 39.7-196.6 25.4-60.1 61.8-114.1 108.2-160.5 46.4-46.4 100.4-82.8 160.5-108.2C405.7 48.4 471.8 35 540 35c68.2 0 134.3 13.4 196.6 39.7 60.1 25.4 114.1 61.8 160.5 108.2 46.4 46.4 82.8 100.4 108.2 160.5 26.3 62.3 39.7 128.4 39.7 196.6 0 68.2-13.4 134.3-39.7 196.6-25.4 60.1-61.8 114.1-108.2 160.5s-100.4 82.8-160.5 108.2c-62.3 26.3-128.4 39.7-196.6 39.7z" class="st1"/><path d="M540 45c66.8 0 131.7 13.1 192.7 38.9C791.6 108.8 844.6 144.5 890 190s81.2 98.4 106.1 157.3c25.8 61 38.9 125.8 38.9 192.7s-13.1 131.7-38.9 192.7C971.2 791.6 935.5 844.6 890 890s-98.4 81.2-157.3 106.1c-61 25.8-125.8 38.9-192.7 38.9s-131.7-13.1-192.7-38.9C288.4 971.2 235.4 935.5 190 890s-81.2-98.4-106.1-157.3C58.1 671.7 45 606.8 45 540s13.1-131.7 38.9-192.7C108.8 288.4 144.5 235.4 190 190s98.4-81.2 157.3-106.1C408.3 58.1 473.2 45 540 45m0-20C255.6 25 25 255.6 25 540s230.6 515 515 515 515-230.6 515-515S824.4 25 540 25z" class="st1"/><path d="M407.8 234.3v151.2c23.1-12.3 45.5-24.8 66.9-37.3 21.7-12.8 43.1-25.3 64.5-37.3l71 39c23.6 13 47.2 26.5 71 40.4l45.7 27.4v215.5l-23.1 13.7-24.1 13.7C633 687 586.6 714 540.6 741.5c-62.4-36.4-125-72.5-187.8-108.3V411.7l.5-106.2c.2-35.4.2-69.3-.5-101.6v-1.4c19.7 10.6 38.2 21.2 55 31.8zm132.9 139.1c-22.4 12.2-44.5 24.8-66.4 37.8L407.8 450v151.2l66.4 38.3c21.9 12.5 43.6 25.3 65 38.3 22.4-12.3 44.5-24.8 66.4-37.8l66.4-38.8V450c-22.4-13-44.3-25.5-65.7-38.3-21.3-12.8-43.2-25.5-65.6-38.3zM361.9 782.2v27.9l12.5-7 12-7 13.2 7.2 13.2 7.5 8.4 5.1v40l-4.3 2.6-4.6 2.6-13 7.5-13 7.7-17.3-10.1-17.3-10.1v-79.9c3.7 1.9 7 3.8 10.2 6zm24.5 25.7c-4.1 2.2-8.2 4.6-12.3 7l-12.3 7.2V850l12.3 7 12 7c4.1-2.2 8.2-4.6 12.3-7l12.3-7.2v-27.9l-12.3-7-12-7zm78.5-12 17.3 10.1 17.3 10.1v39.7l-.7-.2-.7-.5-4.3-2.6-4.6-2.6V822l-.5-.5-1-.5-1-.5-.7-.2-10.8-6.3-10.8-6.3-12 7-12.3 7.2v27.9l11.3 6.7 11.6 6.7.7.5.7.2.7-.2 1-.5 6.3-3.6 6-3.4 5.3 2.9 5.1 3.1-12 7-12 7-17.3-10.1-17.1-10.1v-40l17.1-9.9 17.4-10.2zm34.9 60.2c-.2 3.9-.2 7.9 0 11.8l-10.6-5.8-10.1-6 5.1-2.9 5.1-2.9 5.1 2.9 5.4 2.9zm40.4-59 13 7.5 13 7.7 4.3 2.4 4.1 2.6-5.1 2.6-4.8 2.9c-4.1-2.2-8.2-4.6-12.3-7l-12-7c-4.1 2.2-8.2 4.6-12.3 7l-12.5 7 1.9 1.2 1.9 1 13 7.5c8.2 4.3 16.2 8.8 24.1 13.7 6.4 3.3 12.6 6.9 18.5 10.8l-17.1 9.9-17.1 9.9-17.3-9.9c-5.8-3.4-11.3-6.7-17.3-9.9l5.1-3.1 5.3-2.9 12 7 12.3 7 7-4.1 7-4.1-2.9-1.9-2.9-1.9-21.4-12.3-21.4-12.5v-11.8l17.3-10.1c5.1-2.5 10.9-5.8 16.6-9.2zm110.3 18.8L633.4 826l-17.3 10.1-4.8-2.9-5.1-2.9 12-7 12-7-7-4.1-7-3.9c-4.1 2.2-8.2 4.6-12.3 7l-12.3 7.2v27.9l12.3 7 12 7 12.3-7 12.3-7 10.1 6-17.1 10.1-17.3 9.9-17.1-9.9-17.3-9.9v-40l14.9-8.7 15.2-8.7 2.2-1.4 2.2-1.2c.5-.2 1 0 1.4.2l1.7 1 15.9 9.4c4.8 2.4 10.1 5.5 15.2 8.7zm67.6-32.5 10.1-6v79.9l-17.3 10.1-17.3 10.1-13-7.7-13-7.5-4.6-2.6-4.3-2.6v-40l8.4-5.1 13.2-7.5 13.2-7.2 12 7 12.5 7 .1-27.9zm-24.5 25.7-12.3 7-12.3 7V851l12.3 7.2 12.3 7 12-7 12.3-7v-27.9l-12.3-7.2-12-7z" class="st0"/></svg>