<svg xmlns="http://www.w3.org/2000/svg" viewBox="0 0 1080 1080"><style>.st0{fill:#fff}.st1{fill:#c2bbaf}</style><circle cx="540" cy="540" r="537.5" class="st0"/><path d="M510.8 209c16.4-8.6 41.4-8.6 57.8 0L736 297c9.9 5.2 15.3 12.9 16.3 20.9h.2v442.2c-.2 8.7-5.7 17.4-16.4 23l-167.4 88c-16.4 8.6-41.4 8.6-57.8 0l-167.4-88c-10.7-5.6-15.8-14.3-16.1-23V317.9h.1c.7-8.1 5.9-15.6 16-20.9l167.3-88zM726 564.6l-157.5 82.8c-16.4 8.6-41.4 8.6-57.8 0l-157.2-82.6v194.4l157.2 82.1c8.9 4.7 18.1 9.3 27.1 9.9l1.8.1c9.4 0 18.5-4.7 27.7-9.2L726 758.5V564.6zM300 750.4c0 16.9 2 28.1 5.9 35.9 3.3 6.5 8.1 11.5 17.1 17.5l.5.3c2 1.3 4.1 2.7 6.7 4.3l3.1 1.9 9.5 5.7-13.6 22.4-10.6-6.4-1.8-1.1c-3.1-1.9-5.6-3.5-8-5.1-25.4-17.1-34.9-35.7-35.1-74.3v-1.2l26.3.1zM526.5 446c-1.2.4-2.4.9-3.4 1.4l-167.4 88c-.2.1-.3.2-.5.3l-.1.1.3.1.4.2 167.4 88c1 .5 2.2 1 3.4 1.4l-.1-179.5zm26.3 0v179.6c1.2-.4 2.4-.9 3.4-1.4l167.4-88c.2-.1.3-.2.5-.3l.1-.1-.3-.1-.4-.2-167.4-88c-.9-.6-2.1-1.1-3.3-1.5zM726 349.2l-150.2 78.9 150.2 79V349.2zm-372.4.2v157.5l149.8-78.7-149.8-78.8zm202.6-117.3c-8.7-4.6-24.5-4.6-33.2 0l-167.4 88c-.2.1-.3.2-.5.3l-.1.1.3.1.4.2 167.4 88c8.7 4.6 24.5 4.6 33.2 0l167.4-88c.2-.1.3-.2.5-.3l.1-.1-.3-.1-.4-.2-167.4-88zm194.6 9.7 10.6 6.4 1.8 1.1c3.1 1.9 5.6 3.5 8 5.1 25.4 17.1 34.9 35.7 35.1 74.3v1.2H780c0-16.9-2-28.1-5.9-35.9-3.3-6.5-8.1-11.5-17.1-17.5l-.5-.3c-2-1.3-4.1-2.7-6.7-4.3l-3.1-1.9-9.5-5.7 13.6-22.5z" class="st0"/><circle cx="540" cy="540" r="515" class="st1"/><g id="Layer_2_00000173863828462036759020000011294475842292520860_"><g id="Layer_1-2"><circle cx="540" cy="540" r="506.5" fill="#f5eee4"/><g id="Layer_2-2"><path id="Layer_1-2-2" d="M539.8 1055C255.6 1054.8 24.4 824.4 25 538.6 25.7 255.3 255.7 24.2 541.7 25c283.3.8 513.5 230.6 513.3 515.5-.3 284.2-230.5 514.5-515.2 514.5zM77.5 540.2C79.9 666.3 123.2 776 213 866c89.5 89.7 198.6 135.4 324.8 136 127.1.6 237.3-44.5 327.8-134.5S1001.7 668 1002 541c.2-127.1-45.2-237.1-135.4-327.4-89.8-89.8-199.1-135.3-325.5-135.5-126.6-.3-236.2 44.8-326.4 134.3-90.8 90-134.6 200.1-137.2 327.8z" class="st1"/></g><path d="M340.4 540.2V337.5c0-8.6 4-15.1 10.2-20.5 4.7-4.1 10.5-6.3 15.8-9.4 6.5-3.7 13.2-7 19.7-10.5 5-2.7 10.1-5.2 15.1-7.8 5.6-2.8 11-5.9 16.5-8.8 5-2.6 10-5.1 15-7.8 5.4-2.9 10.7-5.7 16-8.6 4-2.1 7.9-4.3 12-6.2 3.1-1.5 5.9-3.4 9-4.9 4.2-2 8.3-4.2 12.4-6.4 2.9-1.5 5.8-3.2 8.7-4.7l12-6.3c2.9-1.5 5.8-3.1 8.8-4.6 3.6-1.8 7.4-3.2 11.2-4.2 8.1-2 16.4-2.7 24.7-1.9 4.9.3 9.7 1.3 14.3 2.9 5.1 1.7 9.8 4.4 14.5 6.9 5.2 2.7 10.4 5.7 15.8 8.2 2.9 1.3 5.6 3.1 8.4 4.6 5.7 3 11.5 6 17.2 9.1 4.1 2.1 8 4.4 12.1 6.4 5.1 2.5 9.8 5.5 15 7.8 2.7 1.2 5.3 2.9 7.9 4.3 5 2.6 10 5.2 14.9 7.8 3.7 1.9 7.3 3.9 11 5.9 4.3 2.3 8.7 4.4 13 6.7l11.1 6c5.7 3 11.3 6.1 17 9 4.5 2.2 8.9 4.7 12.4 8.2 4 3.8 6.8 8.6 8.3 13.8.8 3.3 1.1 6.8 1 10.2v398.8c.2 8.4-3.4 16.4-9.7 22-3.8 3.5-8.2 5.8-12.8 8.1-4.5 2.3-8.9 4.8-13.4 7.2-4.1 2.2-8.3 4.2-12.3 6.5-2.8 1.6-5.7 3-8.6 4.5l-12 6.3c-3 1.6-6.1 3.2-9.1 4.8l-12 6.3-9.1 4.8c-4.1 2.2-8.2 4.5-12.3 6.4-3 1.4-5.7 3.2-8.7 4.7-4.2 2.1-8.2 4.3-12.3 6.5l-8.7 4.6-12 6.3c-3.1 1.6-6.1 3.3-9.2 4.9-5.5 2.9-10.8 5.9-16.7 8-8.8 3.1-17.9 3.8-27.2 3.4-5-.3-9.9-1.2-14.6-2.7-3.8-1.2-7.6-2.8-11.1-4.7-4.2-2.1-8.2-4.5-12.5-6.5-2.8-1.3-5.5-3-8.2-4.4-5.7-3-11.4-6-17-9-4.1-2.2-8.2-4.4-12.3-6.5-5.6-3-11.3-5.9-16.9-8.8-2.6-1.4-5.1-2.9-7.7-4.2-4.4-2.3-8.9-4.6-13.3-6.9-3.7-1.9-7.4-4.1-11.1-6-4.2-2.2-8.4-4.5-12.7-6.6-2.9-1.3-5.5-3.1-8.4-4.6-4.2-2.2-8.4-4.5-12.7-6.5-2.8-1.3-5.4-2.9-8.1-4.3-4.1-2.2-8.3-4.2-12.3-6.6-6.3-3.8-11.4-8.8-14.2-15.9-1.2-3.3-1.8-6.7-1.7-10.2l-.1-202.2zm365.3 31.7c-3 1.5-5.7 2.9-8.4 4.4-5.7 3-11.5 6-17.2 9.1-3.8 2-7.5 4.1-11.3 6.1-4.3 2.3-8.7 4.4-13 6.7-4.3 2.2-8.6 4.7-12.9 7-5.1 2.7-10.3 5.2-15.3 8-4.3 2.4-8.7 4.8-13.1 7-5 2.6-9.9 5.3-14.9 7.8-4.2 2-8.2 4.4-12.3 6.5-5.6 2.9-11.2 5.7-16.7 8.8-3.7 2.1-7.7 3.7-11.8 4.8-5.9 1.6-11.9 2.3-18 2.3-4.3-.1-8.7-.5-13-1.2-3.6-.6-7.2-1.5-10.6-2.8-6.8-2.5-13-6.4-19.5-9.7-6.4-3.4-13.1-6.8-19.6-10.4-5.5-3-11.1-5.7-16.6-8.7-5.1-2.7-10.3-5.4-15.4-8.2-4.7-2.5-9.3-5.2-14-7.5-3-1.5-5.9-3.2-8.9-4.7-4-2.1-8-4.3-12-6.3-2.9-1.4-5.6-3.1-8.4-4.6-5-2.6-10-5.3-15.1-7.9l-11.8-6.2v165.1c-.1.9.3 1.2 1.1 1.6 2.9 1.4 5.7 2.9 8.5 4.4 6.4 3.4 12.8 6.9 19.2 10.3 6.4 3.4 12.8 6.7 19.2 10 6.6 3.4 13.2 6.7 19.7 10.2 6.1 3.3 12.2 6.5 18.3 9.7 7.7 4.1 15.5 8.1 23.2 12.2l18.3 9.6c5.4 2.9 10.8 5.7 16.3 8.6 6.1 3.2 12.2 6.1 19.1 7.1 1.3.2 2.6.2 3.8 0 4-.6 7.9-1.8 11.5-3.5 3.5-1.8 7.2-3.3 10.7-5.1 4.3-2.2 8.6-4.7 12.9-7 4.1-2.2 8.3-4.4 12.5-6.6 3.8-1.9 7.4-4.1 11.2-5.9 4.3-2.1 8.4-4.7 12.8-6.7 2.9-1.3 5.5-3 8.2-4.5 5.7-3 11.5-6 17.2-9.1 3.8-2 7.4-4.2 11.3-6.1 5.2-2.5 10.2-5.5 15.4-8.1 2.7-1.4 5.4-2.9 8.1-4.3 4.2-2.4 8.6-4.4 12.8-6.7 5.5-2.9 10.8-6 16.4-8.6 1.8-.9 2.1-1.8 2.1-3.6V571.9zm-7.8-232.7c-.1-.3-.4-.5-.7-.6-5.2-2.8-10.4-5.6-15.7-8.3-7.4-3.8-14.7-7.8-22.1-11.6-6.1-3.1-12-6.5-18.2-9.6-7.6-3.8-15-8-22.5-11.9l-13.8-7.2-13.3-7c-4-2.1-8-4.3-12-6.4-2.9-1.5-5.7-3-8.6-4.5l-12-6.3c-2.8-1.5-5.4-3.4-8.5-4.3-4-1.1-8.3-1.5-12.4-1.1-3.9.2-7.6 1.3-11 3.2-2.7 1.4-5.3 3.1-8.1 4.4-5.1 2.4-10 5.2-14.9 7.9-3.7 1.9-7.4 4-11.2 5.9-4 2.1-8.1 4.3-12.2 6.4-3.8 2-7.5 4.1-11.3 6.1-4.4 2.3-8.8 4.6-13.1 6.9-5.3 2.7-10.5 5.6-15.7 8.4-5.2 2.8-10.5 5.5-15.7 8.3-2.6 1.4-5.2 2.9-7.9 4.3-4.2 2.2-8.6 4.2-12.7 6.5-4.7 2.6-9.5 5-14.2 7.6-1.9 1-4 1.7-5.6 3.1 3.4 2.2 7.1 3.8 10.7 5.7 4.8 2.6 9.5 5.3 14.3 7.7 3 1.5 5.9 3.2 8.9 4.7l12 6.3c3 1.6 6.1 3.2 9.1 4.8 3.8 2 7.6 3.9 11.4 6 3.8 2 7.8 4.1 11.6 6.2 4.1 2.2 8.3 4.4 12.5 6.6 4.6 2.4 9.2 4.9 13.7 7.3l7.5 3.9c4.4 2.3 8.7 4.7 13.1 7 5.1 2.7 10.2 5.3 15.2 8 3.4 1.8 6.8 3.6 10.7 4.2 3.7.4 7.4.5 11.1.1 2.5-.2 4.9-.9 7.1-2.1 3.7-1.8 7.2-3.8 10.9-5.8 5.6-3 11.2-5.9 16.9-8.8 4-2.1 8-4.3 12-6.4 5.8-3.1 11.6-6.1 17.3-9.2 3.7-2 7.4-4.1 11.1-6 5-2.5 10-5.2 14.9-7.9 3.7-2 7.4-3.8 11-5.8 4-2.3 8.1-4.2 12.2-6.4 3.1-1.6 6.3-3.4 9.4-5 5-2.6 10.1-5.2 15.1-7.9 4.5-2.5 9.1-4.9 13.7-7.4zM523.3 610.9V463.3c-3.7 2.2-7.4 4.1-11.1 6-2.9 1.5-5.6 3.1-8.4 4.6-4.2 2.2-8.6 4.2-12.7 6.5-5.3 3-10.7 5.6-16 8.5-5.1 2.9-10.4 5.4-15.6 8.2-4.3 2.3-8.5 4.8-12.9 6.9-4.2 2-8 4.4-12.2 6.4-3.1 1.5-6 3.2-9.1 4.8-5.1 2.7-10.2 5.3-15.3 8-4.6 2.4-9.3 4.9-13.9 7.4-3.9 2.1-7.7 4.2-11.9 6.4 2.2 1.2 4.3 2.2 6.3 3.4 4.2 2.5 8.7 4.4 12.9 6.9 5 2.9 10.4 5.1 15.5 8 4 2.2 8.1 4.4 12.1 6.5 6.4 3.4 12.9 6.7 19.3 10.2 7.4 4 14.8 7.7 22.1 11.8 4 2.3 8.2 4.4 12.3 6.6 3.6 1.9 7.1 3.9 10.7 5.6 5.1 2.4 9.9 5.2 14.9 7.9 4.4 2.2 8.8 4.2 13 7zM698 537.1c-2.3-1.3-4.3-2.5-6.4-3.6-4-2.1-8-4.1-12-6.2-4-2.1-7.6-4.1-11.5-6.2-4.2-2.2-8.4-4.3-12.4-6.6-4.4-2.5-9-4.6-13.4-7.1-4.8-2.8-10-4.9-14.8-7.6-7.4-4.2-15.1-8-22.6-12.1-3.1-1.7-6.3-3-9.2-4.8-4.3-2.7-9-4.6-13.4-7.2-3.9-2.3-8.1-4.3-12.1-6.4l-10.7-5.6v147L698 537.1zm7.6-36.5V375c-.7-.2-1.1.2-1.6.5-4.1 2.8-8.7 4.6-13.1 7-4.3 2.4-8.7 4.5-13 6.8-3.7 1.9-7.3 3.9-11 5.9-4.3 2.3-8.7 4.4-13 6.7-4.3 2.3-8.5 4.8-12.9 6.9-4.4 2.2-8.6 4.4-12.9 6.6-3.7 2-7.4 4-11.2 6L604 428c-2.9 1.5-5.6 3-8.4 4.5-3.2 1.7-6.4 3.3-9.8 5.1 2.4 1.3 4.7 2.6 7 3.8l24.9 12.9c7.5 4 15.1 7.9 22.5 11.9 7 3.8 14 7.4 21.1 11.1 3.2 1.7 6.6 3.2 9.7 5 4.5 2.7 9.3 4.9 13.9 7.4 3.9 2.2 8 4.2 12 6.2 3 1.7 5.7 3.2 8.7 4.7zm-209.9-63-119.6-62.8v125.9c1-1.1 2.2-1.3 3.2-1.8 3.6-2.1 7.3-3.9 11-5.8 4.4-2.3 8.8-4.5 13.2-6.9l10.8-5.7c4.4-2.3 8.8-4.5 13.2-6.8 3.7-1.9 7.3-3.9 11-5.8 4.9-2.6 9.8-5.1 14.6-7.6l11.1-6c4.3-2.3 8.7-4.5 13-6.7 3.9-2 7.7-4 11.6-6 2.2-1.4 4.4-2.6 6.9-4zm-216.5 311h10.5c4.7 0 6.7 2 6.9 6.7 0 5.2.4 10.4 1 15.5.8 5.6 2.1 11 5.1 16 3.1 5.1 7.6 8.6 12.4 11.9 2.9 1.9 5.7 3.8 8.7 5.6 2.9 1.8 5.7 3.6 8.6 5.2 3.1 1.8 3.6 6 1.9 8.8-3.5 6-7.3 11.8-10.6 17.9-2.6 4.8-7.1 5.1-10.8 2.8-6-3.8-12.1-7.3-17.9-11.3-8.8-5.8-16.4-13.3-22.1-22.1-3.4-5.3-5.8-11.2-7.4-17.3-2.8-10.7-3.7-21.5-3.8-32.5 0-4.8 2.3-7.1 7.1-7.1l10.4-.1zm525.2-413.5H794c-5 0-7.1-2.1-7.1-7-.1-7.9-.5-15.7-2.7-23.4-2-7.1-6.4-12.4-12.1-16.9-6.5-5.1-13.9-8.8-20.7-13.5-3.3-2.3-4.2-6-1.9-9.6 3.7-5.8 7.1-11.8 10.6-17.7 2.4-4 5.8-5 9.8-2.6 7.8 4.8 15.8 9.4 23.2 15 9 6.7 16.3 15.4 21.1 25.5 2.4 5.5 4.2 11.3 5.2 17.2 1.6 8.6 2.4 17.4 2.3 26.2 0 4.1-2.4 6.5-6.5 6.6-3.6.2-7.2.2-10.8.2z"/></g></g></svg>