<svg width="24" height="24" viewBox="0 0 24 24" fill="none" xmlns="http://www.w3.org/2000/svg">
<path d="M12 0C5.37395 0 0 5.37395 0 12C0 18.626 5.37395 24 12 24C18.626 24 24 18.626 24 12C24 5.37395 18.6169 0 12 0ZM19.4212 8.00609C19.4212 8.39908 19.2658 8.73724 19.1379 9.05712C18.8271 9.78827 18.3519 10.3732 17.7487 10.7936C17.4836 10.9947 17.2186 11.1043 16.8896 11.1043V13.115C16.8896 14.3945 16.8896 15.6649 16.8896 16.9444C16.8896 17.182 16.8622 17.4196 16.789 17.6481C16.5514 18.4067 16.0853 18.9825 15.4273 19.3846C15.345 19.4212 15.2993 19.4669 15.281 19.5308C14.5225 20.0335 14.7327 19.9238 13.4806 20.2346C13.4349 20.2072 13.3892 20.198 13.3252 20.198H13.2978C13.2704 20.198 13.243 20.198 13.243 20.198H12.9596H11.3328C11.3054 20.198 11.2506 20.198 11.2323 20.198H11.2049H11.1043C10.9764 20.198 10.8484 20.198 10.7113 20.198C10.6839 20.198 10.6839 20.198 10.6565 20.198C10.556 20.198 10.4463 20.198 10.3732 20.198L10.163 20.1706L10.035 20.1158C8.71896 19.8599 7.83244 19.0373 7.43945 17.6938C7.3572 17.4562 7.33892 17.1637 7.33892 16.8347C7.33892 15.0434 7.33892 13.1881 7.33892 11.2688C7.33892 11.214 7.33892 11.1866 7.33892 11.1866C7.33892 11.1866 7.3115 11.1866 7.28408 11.1592C6.31531 10.6565 5.65727 9.87052 5.2917 8.76466C5.20944 8.55445 5.16375 8.31683 5.13633 8.07921C5.10891 7.84158 5.19117 7.60396 5.34654 7.44859C5.5019 7.29322 5.73953 7.19269 5.97715 7.19269C6.50724 7.19269 7.02818 7.19269 7.54912 7.19269H8.02437V7.11043C8.02437 6.82711 8.02437 6.53465 8.02437 6.26961C8.02437 5.51104 8.4722 4.85301 9.15765 4.62452C9.68774 4.44173 10.2361 4.52399 10.6748 4.83473C11.0952 5.14547 11.3602 5.62072 11.3785 6.1508C11.3785 6.4067 11.3785 6.68088 11.3785 6.90937C11.3785 6.99162 11.3785 7.06473 11.3785 7.16527H13.243C13.243 7.06473 13.243 6.95507 13.243 6.85453C13.243 6.57121 13.243 6.27875 13.2704 5.99543C13.2978 5.30998 13.8462 4.70678 14.5316 4.55141C14.5864 4.54227 14.6413 4.53313 14.6961 4.52399H15.0617C15.738 4.59711 16.3229 5.06322 16.5149 5.73039C16.5697 5.88576 16.5697 6.04113 16.5971 6.26047C16.5971 6.4981 16.5971 6.7083 16.5971 6.94593C16.5971 7.02818 16.5971 7.10129 16.5971 7.15613H17.3557C17.7761 7.15613 18.1965 7.15613 18.6169 7.15613C18.8728 7.15613 19.1196 7.23838 19.2749 7.39375C19.4029 7.53998 19.4486 7.74105 19.4212 8.00609Z" fill="#F8F2EA"/>
<path d="M15.5095 16.0853C14.6686 15.8294 13.9101 15.3267 13.2338 14.6139C12.7037 14.0838 12.2924 13.4349 11.9451 12.6946C11.5704 11.8812 11.3693 11.0678 11.2871 10.227C11.2597 9.91622 11.2597 9.56892 11.2597 9.2856C11.2597 9.15765 11.2597 9.0297 11.2597 8.89261H7.12866C7.41198 9.29474 7.77756 9.57806 8.23452 9.70602C8.78289 9.8888 8.89256 10.2818 8.89256 10.5194C8.89256 10.5743 8.89256 10.62 8.89256 10.6474V12.457C8.89256 13.8462 8.89256 15.2079 8.89256 16.6062C8.89256 17.2369 9.13019 17.7395 9.59629 18.096C9.87961 18.3062 10.2543 18.4067 10.7296 18.4067C11.3602 18.4067 12.0182 18.4067 12.6488 18.4067H13.7547C14.0654 18.4067 14.3031 18.3519 14.5133 18.2787C15.0434 18.0411 15.3724 17.6481 15.4821 17.0723C15.5369 16.8347 15.5369 16.5971 15.5095 16.3412C15.5095 16.2772 15.5095 16.1767 15.5095 16.0853ZM10.1538 13.6816C9.77908 13.6542 9.52318 13.3709 9.52318 12.9962C9.49576 12.6032 9.83392 12.3382 10.1538 12.3382C10.5285 12.3382 10.8118 12.6489 10.8118 13.0236C10.8118 13.3983 10.5011 13.6816 10.1538 13.6816Z" fill="#F8F2EA"/>
<path d="M10.1539 12.3382C9.84313 12.3382 9.49584 12.5941 9.52325 12.9962C9.52325 13.3709 9.77916 13.6542 10.1539 13.6817C10.5012 13.6817 10.8119 13.3983 10.8119 13.0236C10.8119 12.6489 10.5286 12.3382 10.1539 12.3382Z" fill="black"/>
<path d="M18.5621 7.11044C18.1417 7.11044 17.7213 7.11044 17.3009 7.11044H16.5423C16.5423 7.0556 16.5423 6.98249 16.5423 6.90024C16.5423 6.66261 16.5423 6.45241 16.5423 6.21478C16.5149 6.00458 16.5149 5.84007 16.46 5.6847C16.2681 5.00839 15.6832 4.54228 15.0069 4.4783H14.6413C14.5865 4.48744 14.5316 4.49658 14.4768 4.50572C13.7913 4.66109 13.243 5.26429 13.2156 5.94974C13.1881 6.23306 13.1881 6.52552 13.1881 6.80884C13.1881 6.90938 13.1881 7.01905 13.1881 7.11958H11.3237C11.3237 7.01905 11.3237 6.93679 11.3237 6.86368C11.3237 6.62605 11.3237 6.36101 11.3237 6.10511C11.2963 5.57503 11.0404 5.10892 10.62 4.78904C10.1721 4.4783 9.62378 4.39605 9.10283 4.57883C8.41738 4.81646 7.96955 5.46535 7.96955 6.22392C7.96955 6.47982 7.96955 6.77228 7.96955 7.06474V7.16528H7.49431C6.96422 7.16528 6.44328 7.16528 5.92233 7.16528C5.68471 7.16528 5.44709 7.26581 5.29172 7.42118C5.13635 7.57655 5.05409 7.81417 5.08151 8.0518C5.10893 8.28942 5.16376 8.52704 5.23688 8.73725C5.61159 9.84311 6.26049 10.6291 7.22926 11.1318C7.25668 11.1592 7.2841 11.1592 7.2841 11.1592C7.2841 11.1592 7.2841 11.1866 7.2841 11.2414C7.2841 13.1607 7.2841 15.0251 7.2841 16.8073C7.2841 17.1546 7.31152 17.4379 7.38463 17.6664C7.77763 19.0008 8.67328 19.8142 9.98022 20.0884L10.1082 20.1432L10.3184 20.1706C10.4006 20.1706 10.5012 20.1706 10.6017 20.1706C10.6291 20.1706 10.6291 20.1706 10.6565 20.1706C10.7845 20.1706 10.9124 20.1706 11.0495 20.1706H11.1501H11.1775C11.2049 20.1706 11.2597 20.1706 11.278 20.1706H12.9048H13.1881C13.1881 20.1706 13.2156 20.1706 13.243 20.1706H13.2704C13.3344 20.1706 13.3801 20.1797 13.4258 20.2072C14.6779 19.8964 14.4585 20.0061 15.2262 19.5034C15.2445 19.4303 15.2902 19.3938 15.3724 19.3572C16.0305 18.9642 16.5057 18.3884 16.7342 17.6207C16.8165 17.3831 16.8348 17.1455 16.8348 16.917C16.8348 15.6375 16.8348 14.3671 16.8348 13.0876V11.0769C17.182 11.0769 17.4288 10.9673 17.6938 10.7662C18.297 10.3458 18.7723 9.77 19.083 9.02971C19.211 8.71897 19.3664 8.37168 19.3664 7.97868C19.3938 7.72278 19.3115 7.47602 19.1561 7.32065C19.0282 7.15614 18.818 7.11044 18.5621 7.11044ZM14.3763 6.22392C14.3763 6.12339 14.4037 6.01372 14.4311 5.9406C14.5133 5.78523 14.7418 5.6847 14.9063 5.70298C15.144 5.73039 15.2993 5.91318 15.2993 6.12339C15.2993 6.62606 15.2993 6.5438 15.2993 7.06474C15.2993 7.09216 15.2719 7.11958 15.2719 7.16528C14.9886 7.16528 14.6961 7.16528 14.4128 7.16528C14.4128 7.11044 14.3854 7.06475 14.3854 7.00991C14.3763 6.56208 14.3763 6.69003 14.3763 6.22392ZM14.4951 12.3382C14.8698 12.3382 15.1531 12.6489 15.1531 13.0236C15.1531 13.3983 14.8424 13.6817 14.4951 13.6817C14.1204 13.6542 13.8644 13.3709 13.8644 12.9962C13.837 12.5941 14.1752 12.3382 14.4951 12.3382ZM9.08456 6.22392C9.08456 6.12339 9.11198 6.01372 9.13939 5.9406C9.22165 5.78523 9.45013 5.6847 9.61464 5.70298C9.85226 5.75781 10.0351 5.91318 10.0351 6.15081C10.0351 6.65347 10.0351 6.57122 10.0351 7.09216C10.0351 7.09216 10.0076 7.11958 9.98022 7.17442C9.69689 7.17442 9.40443 7.17442 9.12111 7.17442C9.12111 7.11958 9.0937 7.07388 9.0937 7.01905C9.08456 6.56208 9.07542 6.69003 9.08456 6.22392ZM15.4821 17.0906C15.3816 17.6664 15.0343 18.0594 14.5133 18.297C14.3031 18.3793 14.0655 18.425 13.7548 18.425H12.6489C12.0183 18.425 11.3603 18.425 10.7296 18.425C10.2544 18.425 9.88882 18.3245 9.59636 18.1143C9.12112 17.7395 8.89263 17.2551 8.89263 16.6245C8.89263 15.2353 8.89263 13.8736 8.89263 12.4753V10.6657C8.89263 10.6382 8.89263 10.5834 8.89263 10.5377C8.89263 10.3001 8.7921 9.90709 8.23459 9.7243C7.76849 9.59635 7.41205 9.32217 7.12873 8.9109H11.2597C11.2597 9.03885 11.2597 9.1668 11.2597 9.30389C11.2597 9.58721 11.2597 9.93451 11.2871 10.2452C11.3694 11.0861 11.5705 11.8903 11.9452 12.7129C12.2925 13.444 12.7037 14.1021 13.2338 14.6321C13.9193 15.3359 14.6779 15.8385 15.5095 16.1036C15.5095 16.1858 15.5095 16.2864 15.5095 16.3595C15.537 16.6154 15.537 16.853 15.4821 17.0906Z" fill="black"/>
<path d="M14.4951 13.6817C14.8424 13.6817 15.1531 13.3983 15.1531 13.0236C15.1531 12.6489 14.8698 12.3382 14.4951 12.3382C14.1843 12.3382 13.837 12.5941 13.8644 12.9962C13.8644 13.3618 14.1203 13.6542 14.4951 13.6817Z" fill="#F8F2EA"/>
<path d="M9.98025 7.16525C10.0077 7.11042 10.0351 7.083 10.0351 7.083C10.0351 6.55292 10.0351 6.63517 10.0351 6.14165C10.0351 5.90402 9.8523 5.74865 9.61468 5.69381C9.45931 5.6664 9.22169 5.77607 9.13943 5.93144C9.11201 6.01369 9.08459 6.11423 9.08459 6.21476C9.08459 6.69001 9.08459 6.56205 9.08459 7.00074C9.08459 7.05558 9.11201 7.10128 9.11201 7.15611C9.39533 7.16525 9.67865 7.16525 9.98025 7.16525Z" fill="#F8F2EA"/>
<path d="M15.281 7.16527C15.281 7.11043 15.3085 7.08302 15.3085 7.06474C15.3085 6.53466 15.3085 6.61691 15.3085 6.12338C15.3085 5.91318 15.1531 5.73039 14.9155 5.70297C14.7601 5.67555 14.5225 5.78523 14.4402 5.9406C14.4128 6.02285 14.3854 6.12338 14.3854 6.22392C14.3854 6.69916 14.3854 6.57122 14.3854 7.00991C14.3854 7.06474 14.4128 7.11043 14.4128 7.16527C14.6961 7.16527 14.9886 7.16527 15.281 7.16527Z" fill="#F8F2EA"/>
<rect x="0.5" y="0.5" width="23" height="23" rx="11.5" stroke="white"/>
</svg>