<svg xmlns="http://www.w3.org/2000/svg" xmlns:xlink="http://www.w3.org/1999/xlink" version="1.1" viewBox="0 0 1080 1080"><style>.st0{fill:#fff}.st1{fill:#e2e2e2}.st2{fill:#333;stroke:#303030;stroke-width:5.1829;stroke-miterlimit:10}</style><circle cx="540" cy="540" r="537.5" class="st0"/><circle cx="540" cy="540" r="515" class="st1"/><circle cx="540" cy="540" r="498.4" class="st1"/><path d="M262.4 585.1c4.8 1.5 9.5 3.3 13.6 5.5 165.6 78.4 364.5 78 529.8-.4 12.8-5.9 29.7-11.7 39.2-1.5 8.8 9.9 2.9 25.3-4.4 36.6-103.3 161.2-329.7 168.9-488 93.4-25.6-12.1-50.2-26.4-71.8-44.3-16.1-13.6-70.7-63.7-41.8-87.2 6.9-5 15-4.3 23.4-2.1z" class="st2"/><path d="M369.4 333.4c113.2-24.5 230.1-24.5 343.3 0 10.6 2.2 16.9 13.2 13.6 23.4l-.4 1.5c-27.5 88.3-31.5 182.1-11.4 272.2 2.2 9.9-4 19.8-13.9 22-105.1 24.5-214.3 24.5-319.1 0-9.9-2.2-16.1-12.1-13.9-22 1.8-8.4 3.3-16.9 4.8-25.3 13.9-82.4 8.4-167.1-16.1-247.3l-.4-1.5c-3.4-9.8 2.9-20.8 13.5-23z" class="st2"/><defs><path id="SVGID_1_" d="M369.4 333.4c113.2-24.5 230.1-24.5 343.3 0 10.6 2.2 16.9 13.2 13.6 23.4l-.4 1.5c-27.5 88.3-31.5 182.1-11.4 272.2 2.2 9.9-4 19.8-13.9 22-105.1 24.5-214.3 24.5-319.1 0-9.9-2.2-16.1-12.1-13.9-22 1.8-8.4 3.3-16.9 4.8-25.3 13.9-82.4 8.4-167.1-16.1-247.3l-.4-1.5c-3.4-9.8 2.9-20.8 13.5-23z"/></defs><clipPath id="SVGID_00000164502921027040499050000010470527390208892597_"><use xlink:href="#SVGID_1_" overflow="visible"/></clipPath><path fill="#fff" stroke="#303030" stroke-miterlimit="10" stroke-width="5.183" d="m332 591.3 8.1 145.1 421.7 2.2V591.3c-141.1 36.3-289.1 36.3-429.8 0z" clip-path="url(#SVGID_00000164502921027040499050000010470527390208892597_)"/><path d="M358.4 376.6c3.3-.7 7.3-1.1 11-1.8 46.2 1.8 116.1 6.6 143.2 19.8l-107-5.1c-1.1 0-2.2 0-3.7.4l-34.4 8.4c-1.1.4-2.6.4-3.7.4" class="st0"/></svg>