<svg xmlns="http://www.w3.org/2000/svg" viewBox="0 0 1080 1080"><style>.st1{fill:#c2bbaf}.st2{fill:#f5eee4}.st3{fill:#020202}</style><circle cx="540" cy="540" r="537.5" fill="#fff"/><circle cx="540" cy="540" r="515" class="st1"/><g id="Layer_2_00000079469404758188020210000014155053018025946045_"><g id="Layer_1-2"><path d="M539.776 1055.038c-284.226-.2-515.463-230.663-514.774-516.476.688-283.308 230.682-514.421 516.677-513.598 283.346.822 513.541 230.634 513.321 515.501-.22 284.293-230.52 514.545-515.224 514.573zm-462.34-514.85c2.477 126.08 45.779 235.798 135.529 325.788 89.473 89.702 198.569 135.385 324.793 135.969 127.132.583 237.3-44.516 327.786-134.496s136.15-199.564 136.399-326.524c.249-127.142-45.205-237.166-135.405-327.423C776.846 123.77 667.473 78.297 541.057 78.02c-126.587-.277-236.21 44.803-326.428 134.324C123.913 302.4 80.047 412.529 77.436 540.188z" class="st1"/><path d="M77.436 540.188C80.047 412.53 123.913 302.4 214.629 212.344 304.8 122.823 414.499 77.743 541.057 78.02c126.415.277 235.789 45.75 325.482 135.481 90.2 90.247 135.653 200.281 135.404 327.423-.249 126.96-46.047 236.659-136.399 326.553s-200.654 135.079-327.786 134.496c-126.233-.583-235.32-46.266-324.793-135.969-89.75-90.018-133.052-199.736-135.529-325.816zm682.101-55.562c.383-19.949-.602-43.904-4.896-67.688a213.585 213.585 0 0 0-21.632-61.663 225.593 225.593 0 0 0-28.976-42.078c-15.397-17.883-33.337-32.706-52.722-45.97-5.279-3.615-11.246-5.834-16.573-9.219-10.328-6.541-21.584-11.093-33.069-14.88a281.684 281.684 0 0 0-42.594-10.615 219.465 219.465 0 0 0-36.426-2.869 230.63 230.63 0 0 0-34.533 2.63 245.375 245.375 0 0 0-52.731 14.201c-22.12 8.827-42.202 21.192-60.984 36.044-22.588 17.912-40.443 39.716-54.988 64.293-11.045 18.658-18.371 38.922-23.344 60.028a211.481 211.481 0 0 0-5.403 47.892c-.166 40.771-.166 81.539 0 122.303.077 12.489.268 25.008 1.913 37.459a313.27 313.27 0 0 0 11.332 51.756c6.579 21.221 16.525 40.882 28.173 59.741 8.922 14.45 19.576 27.551 31.099 39.955 10.376 11.16 22.177 20.656 34.36 29.827a215.746 215.746 0 0 0 24.329 15.789 277.853 277.853 0 0 0 75.711 29.407c15.597 3.758 31.558 5.738 47.5 7.421a245.615 245.615 0 0 0 42.747.746c11.093-.755 19.126-7.058 22.693-18.237 2.62-8.253 5.346-16.573 11.313-23.133 10.022-11.007 22.636-16.917 37.488-17.912 11.791-.794 23.631-.956 34.819-5.623 11.189-4.667 20.35-11.036 25.82-22.244 6.627-13.599 7.995-28.336 9.965-42.958 1.425-10.519 4.256-20.876 10.328-29.454 8.942-12.614 22.55-18.333 37.449-20.695 15.158-2.41 29.885-5.786 43.551-13.168 11.772-6.359 21.45-14.622 26.681-27.217 4.724-11.38 2.2-21.23-7.029-29.33-6.101-5.355-13.867-7.211-21.259-9.563a79.028 79.028 0 0 1-28.345-15.913c-11.524-10.06-21.125-21.689-26.624-36.34-2.668-7.105-5.126-14.144-5.155-21.814-.007-8.943.012-17.856.012-30.909z" class="st2"/><path d="M759.537 484.626v30.889c0 7.651 2.486 14.708 5.155 21.813 5.499 14.67 15.1 26.299 26.624 36.34a79.026 79.026 0 0 0 28.383 15.932c7.392 2.353 15.158 4.208 21.259 9.563 9.228 8.1 11.753 17.95 7.029 29.33-5.231 12.595-14.909 20.857-26.681 27.217-13.666 7.383-28.393 10.759-43.551 13.168-14.928 2.362-28.536 8.081-37.43 20.723-6.073 8.607-8.903 18.916-10.328 29.454-1.97 14.622-3.338 29.359-9.965 42.958-5.47 11.208-14.737 17.644-25.82 22.244-11.084 4.6-23.028 4.782-34.819 5.623-14.852.956-27.465 6.905-37.488 17.912-5.967 6.56-8.693 14.88-11.313 23.133-3.538 11.179-11.6 17.481-22.693 18.237a245.614 245.614 0 0 1-42.747-.746c-15.961-1.683-31.903-3.663-47.5-7.421a277.822 277.822 0 0 1-75.778-29.435 215.822 215.822 0 0 1-24.271-15.808c-12.183-9.171-23.984-18.667-34.36-29.827-11.524-12.432-22.177-25.505-31.099-39.955-11.648-18.858-21.594-38.52-28.173-59.741a313.27 313.27 0 0 1-11.332-51.756c-1.664-12.432-1.855-24.969-1.913-37.459-.236-40.765-.236-81.532 0-122.303a211.481 211.481 0 0 1 5.403-47.892c4.973-21.106 12.298-41.37 23.344-60.028 14.546-24.577 32.4-46.381 54.988-64.293 18.725-14.832 38.807-27.198 60.927-35.986a245.39 245.39 0 0 1 52.731-14.201 230.63 230.63 0 0 1 34.533-2.63 219.465 219.465 0 0 1 36.426 2.869 281.574 281.574 0 0 1 42.585 10.606c11.476 3.825 22.741 8.339 33.069 14.88 5.327 3.385 11.294 5.604 16.573 9.219 19.385 13.264 37.296 28.087 52.722 45.97a225.56 225.56 0 0 1 28.976 42.078 213.576 213.576 0 0 1 21.67 61.634c4.262 23.784 5.246 47.74 4.864 67.689zm41.208 139.22a14.001 14.001 0 0 0-5.432-3.5c-11.533-5.336-22.301-12.03-31.625-20.723a138.467 138.467 0 0 1-33.882-48.227 114.972 114.972 0 0 1-8.722-41.026c-1.081-29.493 2.075-59.138-3.969-88.44a170.387 170.387 0 0 0-10.386-33.834 203.985 203.985 0 0 0-23.104-39.897 195.981 195.981 0 0 0-38.377-38.855c-12.432-9.563-26.213-17.319-40.586-24.003-17.606-8.167-36.12-13.073-55.093-15.722a190.505 190.505 0 0 0-55.409.602c-19.346 2.974-38.138 7.851-55.734 16.257-20.57 9.831-39.391 22.598-55.466 38.855a188.775 188.775 0 0 0-31.348 41.561 180.967 180.967 0 0 0-23.066 87.742c-.239 39.964 0 79.929-.163 119.893-.086 21.163 1.721 42.078 6.866 62.648 3.758 15.043 8.148 29.818 15.033 43.742a245.715 245.715 0 0 0 33.337 51.345c17.147 20.083 37.583 35.785 60.296 48.686 17.596 10.022 36.56 16.716 56.164 21.641a277.739 277.739 0 0 0 74.42 8.607c1.817 0 3.127-.287 3.969-2.467 5.633-14.574 14.144-27.054 26.7-36.684 14.823-11.371 31.367-18.17 49.987-19.891 6.159-.555 12.432-.459 18.486-1.387 5.183-.794 10.998-1.31 13.388-7.392 2.391-6.082 3.271-12.203 4.064-18.505 2.735-21.823 7.306-42.891 21.718-60.688a84.24 84.24 0 0 1 20.083-18.055c15.492-9.984 33.022-14.125 51.048-16.678a43.781 43.781 0 0 0 16.803-5.605z" class="st3"/><path d="M800.745 623.846a43.767 43.767 0 0 1-16.841 5.623c-18.027 2.553-35.556 6.694-51.048 16.678a84.24 84.24 0 0 0-20.083 18.055c-14.412 17.797-18.983 38.865-21.718 60.688-.794 6.302-1.731 12.566-4.064 18.505-2.333 5.939-8.215 6.599-13.388 7.392-6.092.956-12.327.832-18.486 1.387-18.619 1.683-35.164 8.521-49.987 19.891-12.556 9.63-21.039 22.11-26.7 36.684-.842 2.18-2.152 2.419-3.969 2.467a277.734 277.734 0 0 1-74.42-8.607c-19.604-4.935-38.568-11.657-56.155-21.641-22.674-12.948-43.111-28.622-60.267-48.705a245.633 245.633 0 0 1-33.375-51.268c-6.885-13.924-11.275-28.689-15.033-43.742-5.145-20.609-6.952-41.485-6.866-62.648.163-39.964-.076-79.929.163-119.893a180.973 180.973 0 0 1 23.066-87.742 188.752 188.752 0 0 1 31.348-41.561c16.114-16.257 34.934-29.024 55.466-38.855 17.596-8.406 36.388-13.283 55.734-16.257a190.505 190.505 0 0 1 55.409-.602c18.973 2.649 37.488 7.555 55.093 15.722 14.345 6.694 28.116 14.393 40.586 24.004a195.976 195.976 0 0 1 38.415 38.779 203.94 203.94 0 0 1 23.095 39.869 170.453 170.453 0 0 1 10.386 33.834c6.044 29.301 2.869 58.947 3.969 88.44a114.955 114.955 0 0 0 8.722 41.026 138.463 138.463 0 0 0 33.892 48.227c9.324 8.683 20.083 15.301 31.625 20.723a13.986 13.986 0 0 1 5.431 3.527zM616.635 481.03c37.669-.057 73.292-28.556 74.22-72.957.822-39.209-28.556-73.894-72.422-75.214-40.366-1.215-74.248 30.392-75.3 72.517-1.005 39.754 29.272 74.564 73.502 75.654zm-106.782-74.717c-1.042-42.154-33.356-73.072-73.311-73.483-42.891-.43-74.822 34.14-74.526 74.296.306 42.336 33.375 74.277 74.832 73.78 40.834-.488 72.756-33.003 73.005-74.593z" class="st2"/><path d="M616.635 481.03c-44.23-1.09-74.506-35.9-73.502-75.654 1.052-42.126 34.934-73.732 75.3-72.517 43.866 1.32 73.244 36.043 72.422 75.214-.928 44.363-36.551 72.9-74.22 72.957zm-.134-124.656c-28.689.43-50.493 23.401-50.293 50.761.22 30.353 23.994 51.191 50.905 50.685 31.463-.555 50.273-23.315 50.685-49.833.487-30.029-22.923-51.479-51.297-51.613zm-106.648 49.939c-.201 41.59-32.123 74.105-73.005 74.592-41.456.497-74.526-31.444-74.832-73.78-.296-40.165 31.635-74.726 74.526-74.296 39.907.412 72.221 31.33 73.311 73.484zm-74.593-49.939c-27.858.226-50.311 22.893-50.273 50.752.172 29.856 23.812 51.22 50.885 50.771 31.013-.526 50.465-22.693 50.838-50.082.421-29.637-22.655-51.383-51.45-51.441z" class="st3"/><path d="M616.501 356.374c28.374.134 51.784 21.584 51.306 51.641-.421 26.519-19.231 49.279-50.685 49.833-26.911.478-50.685-20.36-50.905-50.685-.209-27.407 21.604-50.358 50.284-50.789zm1.415 50.771h.172v-24.788c0-2.113-.134-3.911-2.974-3.663-15.572 1.042-27.351 14.511-26.309 30.083.014.208.03.416.049.624.956 12.155 11.208 23.707 24.147 25.82 3.672.612 4.992 0 4.925-3.825-.134-8.041-.01-16.151-.01-24.251zM435.26 356.374c28.785.057 51.861 21.804 51.45 51.44-.373 27.389-19.824 49.556-50.838 50.082-27.073.449-50.685-20.915-50.885-50.771-.038-27.858 22.416-50.525 50.273-50.751zm1.435 50.456h.124v-24.357c0-2.056.067-3.95-2.869-3.739-16.257 1.176-28.097 15.444-26.04 31.128 1.798 13.79 10.099 21.995 23.621 25.199 3.873.956 5.279.229 5.193-3.873-.143-8.119-.019-16.238-.019-24.357h-.01z" class="st2"/><path d="M617.916 407.145c0 8.1-.096 16.21 0 24.31.067 3.825-1.253 4.399-4.925 3.825-12.939-2.161-23.229-13.714-24.147-25.82-1.372-15.547 10.12-29.262 25.666-30.633.195-.017.389-.032.584-.045 2.869-.249 2.984 1.549 2.974 3.663v24.788l-.152-.088zm-181.212-.315c0 8.119-.124 16.257.057 24.357.086 4.103-1.32 4.782-5.193 3.873-13.522-3.232-21.823-11.409-23.621-25.199-2.056-15.684 9.764-29.952 26.04-31.128 2.926-.21 2.869 1.683 2.869 3.739v24.357h-.152z" class="st3"/></g></g></svg>