<svg xmlns="http://www.w3.org/2000/svg" version="1.1" viewBox="0 0 2005 1080"><style>.st1{fill:#f0b826}</style><circle cx="1468.7" cy="542.5" r="535" fill="#f8e1ab"/><path d="M1476.3 355.6 1597 476.3c4.1 4.1 11.2 4.1 15.8 0l63.7-63.7c4.1-4.1 4.1-11.2 0-15.8l-200.2-200.7c-4.1-4.1-11.2-4.1-15.8 0l-200.7 200.7c-4.1 4.1-4.1 11.2 0 15.8l63.7 63.7c4.1 4.1 11.2 4.1 15.8 0L1460 355.6c5.1-4.1 12.2-4.1 16.3 0zm-287.8 113.6-63.7 63.7c-4.1 4.1-4.1 11.2 0 15.8l63.7 63.7c4.1 4.1 11.2 4.1 15.8 0l63.7-63.7c4.1-4.1 4.1-11.2 0-15.8l-63.7-63.7c-4.6-4.6-11.8-4.6-15.8 0zm287.8 416.2L1677 684.7c4.1-4.1 4.1-11.2 0-15.8l-63.7-63.7c-4.1-4.1-11.2-4.1-15.8 0L1476.8 726c-4.1 4.1-11.2 4.1-15.8 0l-120.7-120.7c-4.1-4.1-11.2-4.1-15.8 0l-64.7 63.2c-4.1 4.1-4.1 11.2 0 15.8L1460.5 885c4.6 5 11.7 5 15.8.4zm257.3-416.2-63.7 63.7c-4.1 4.1-4.1 11.2 0 15.8l63.7 63.7c4.1 4.1 11.2 4.1 15.8 0l63.7-63.7c4.1-4.1 4.1-11.2 0-15.8l-63.7-63.7c-4.6-4.6-11.7-4.6-15.8 0z" class="st1"/><path d="m1542 533.4-64.7-64.7c-4.1-4.1-11.2-4.1-15.8 0l-64.7 64.7c-4.1 4.1-4.1 11.2 0 15.8l64.7 64.7c4.1 4.1 11.2 4.1 15.8 0l64.7-64.7c4.1-4.6 4.1-11.7 0-15.8z" class="st1"/><circle cx="546.5" cy="537.5" r="535" opacity=".15"/><circle cx="538.9" cy="540" r="537.5"/><path fill="#fff" d="m402.3 210.3-84.6-84.6-190.2 190.1 83.4 83.4c36.7-85.2 105.6-153.3 191.4-188.9zm464.5 189 83.4-83.4-190.1-190.2-84.6 84.6c85.8 35.6 154.7 103.7 191.3 189zM675.4 869.7l84.6 84.6 190.2-190.2-83.4-83.4c-36.6 85.3-105.5 153.4-191.4 189zm-464.5-189-83.4 83.4 190.2 190.2 84.6-84.6c-85.8-35.6-154.7-103.7-191.4-189z"/><path id="binancedex" fill="#f3ba2f" d="M589.2 712.4v58.5l-51 30-49.6-30v-58.5l49.6 30 51-30zM316.2 510l49.6 30v100.4l85.4 51v58.5l-134.9-79.6V510zm443.9 0v160.6l-136.4 79.6v-58.5l85.4-51V540.2l51-30.2zm-136.6-79.5 51 30V519l-85.4 51v101.8l-49.6 30-49.3-30v-102l-88.5-51v-58.5l51-30 85.4 51 85.4-50.8zM401.8 560.8l49.6 30v58.5l-49.6-30v-58.5zm272.7 0v58.5l-49.6 30v-58.5l49.6-30zM365.7 379.4l51 30-51 30v58.5l-49.6-30v-58.5l49.6-30zm344.9 0 51 30v58.5l-51 30v-58.5l-49.6-30 49.6-30zm-172.5 0 51 30-51 30-49.6-30 49.6-30zm0-100.3 136.4 79.6-49.6 30-85.4-51-87.1 51-49.6-30 135.3-79.6z"/></svg>