<svg xmlns="http://www.w3.org/2000/svg" xml:space="preserve" id="Layer_1" x="0" y="0" version="1.1" viewBox="0 0 1080 1080"><style>.st2{fill:#f2b929}</style><circle cx="540" cy="540" r="537.5" fill="#fff"/><circle cx="540" cy="540" r="515" fill="#f9e2ac"/><path d="m547.43 360.172 116.424 116.424c3.963 3.963 10.898 3.963 15.357 0l61.432-61.432c3.963-3.963 3.963-10.898 0-15.357L547.43 206.594c-3.963-3.963-10.898-3.963-15.357 0L338.861 399.808c-3.963 3.963-3.963 10.898 0 15.357l61.432 61.432c3.963 3.963 10.898 3.963 15.357 0l116.424-116.424c4.454-3.964 11.389-3.964 15.356-.001zM269.997 469.656l-61.432 61.432c-3.963 3.963-3.963 10.898 0 15.357l61.432 61.432c3.963 3.963 10.898 3.963 15.357 0l61.432-61.432c3.963-3.963 3.963-10.898 0-15.357l-61.432-61.432c-4.458-4.458-11.393-4.458-15.357 0zM547.43 869.954 740.644 676.74c3.963-3.963 3.963-10.898 0-15.357l-61.432-61.432c-3.963-3.963-10.898-3.963-15.357 0L547.43 716.375c-3.963 3.963-10.898 3.963-15.357 0L415.65 599.951c-3.963-3.963-10.898-3.963-15.357 0l-61.432 61.432c-3.963 3.963-3.963 10.898 0 15.357l193.214 193.214c4.453 4.458 11.388 4.458 15.355 0zm247.706-400.298-61.432 61.432c-3.963 3.963-3.963 10.898 0 15.357l61.432 61.432c3.963 3.963 10.898 3.963 15.357 0l61.432-61.432c3.963-3.963 3.963-10.898 0-15.357l-61.432-61.432c-4.459-4.458-11.394-4.458-15.357 0z" class="st2"/><path d="m610.344 531.088-62.423-62.423c-3.963-3.963-10.898-3.963-15.357 0l-62.423 62.423c-3.963 3.963-3.963 10.898 0 15.357l62.423 62.423c3.963 3.963 10.898 3.963 15.357 0l62.423-62.423c3.968-4.459 3.968-11.394 0-15.357z" class="st2"/></svg>