<svg xmlns="http://www.w3.org/2000/svg" version="1.1" viewBox="0 0 1080 1080"><style>.st0{fill:#fff}</style><circle cx="540" cy="540" r="537.5" class="st0"/><circle cx="540" cy="540" r="515"/><path d="M409.2 224.1 328.1 143 145.9 325.2l79.9 79.9c35.1-81.6 101.1-146.9 183.4-181zm445 181 79.9-79.9L751.9 143l-81.1 81.1c82.3 34.1 148.3 99.4 183.4 181zM670.8 855.9l81.1 81.1 182.2-182.2-79.9-79.9c-35.1 81.6-101.1 146.9-183.4 181zm-445-181-79.9 79.9L328.1 937l81.1-81.1c-82.3-34.1-148.3-99.4-183.4-181z" class="st0"/><path id="binancedex" fill="#f3ba2f" d="M588.2 705.2v56.1L539.3 790l-47.5-28.7v-56.1l47.5 28.7 48.9-28.7zM326.6 511.3l47.5 28.7v96.2l81.8 48.9v56.1L326.6 665V511.3zm425.4 0v153.8l-130.7 76.2v-56.1l81.8-48.9v-96.2l48.9-28.8zM621.1 435l48.9 28.7v56.1l-81.8 48.9v97.5L540.7 695l-47.3-28.7v-97.8l-84.8-48.9v-56.1l48.9-28.7 81.8 48.9 81.8-48.7zM408.6 559.9l47.5 28.7v56.1L408.6 616v-56.1zm261.4 0V616l-47.5 28.7v-56.1l47.5-28.7zM374.1 386.2l48.9 28.7-48.9 28.7v56.1L326.6 471v-56.1l47.5-28.7zm330.4 0 48.9 28.7V471l-48.9 28.7v-56.1L657 414.9l47.5-28.7zm-165.2 0 48.9 28.7-48.9 28.7-47.5-28.7 47.5-28.7zm0-96.2L670 366.2 622.5 395l-81.8-48.9-83.4 48.9-47.5-28.7L539.3 290z"/></svg>