<svg xmlns="http://www.w3.org/2000/svg" version="1.1" viewBox="0 0 2005 1080"><style>.st1{fill:#fff}.st4{fill:#d3f85a;stroke:#d3f85a;stroke-width:4.8458;stroke-linecap:round;stroke-linejoin:round}</style><circle cx="1468.7" cy="540" r="535" fill="#f3ba2f"/><path d="m1476.3 353 120.8 120.8c4.1 4.1 11.2 4.1 15.8 0l63.7-63.7c4.1-4.1 4.1-11.2 0-15.8l-200.2-200.8c-4.1-4.1-11.2-4.1-15.8 0l-200.8 200.8c-4.1 4.1-4.1 11.2 0 15.8l63.7 63.7c4.1 4.1 11.2 4.1 15.8 0L1460 353c5.1-4.1 12.3-4.1 16.3 0zm-287.8 113.6-63.7 63.7c-4.1 4.1-4.1 11.2 0 15.8l63.7 63.7c4.1 4.1 11.2 4.1 15.8 0l63.7-63.7c4.1-4.1 4.1-11.2 0-15.8l-63.7-63.7c-4.6-4.6-11.8-4.6-15.8 0zm287.8 416.3 200.8-200.8c4.1-4.1 4.1-11.2 0-15.8l-63.7-63.7c-4.1-4.1-11.2-4.1-15.8 0l-120.8 120.8c-4.1 4.1-11.2 4.1-15.8 0l-120.8-120.8c-4.1-4.1-11.2-4.1-15.8 0l-64.7 63.2c-4.1 4.1-4.1 11.2 0 15.8l200.8 200.8c4.6 5.1 11.8 5.1 15.8.5zm257.4-416.3-63.7 63.7c-4.1 4.1-4.1 11.2 0 15.8l63.7 63.7c4.1 4.1 11.2 4.1 15.8 0l63.7-63.7c4.1-4.1 4.1-11.2 0-15.8l-63.7-63.7c-4.6-4.6-11.8-4.6-15.8 0z" class="st1"/><path d="m1542.1 530.8-64.7-64.7c-4.1-4.1-11.2-4.1-15.8 0l-64.7 64.7c-4.1 4.1-4.1 11.2 0 15.8l64.7 64.7c4.1 4.1 11.2 4.1 15.8 0l64.7-64.7c4-4.6 4-11.7 0-15.8z" class="st1"/><circle cx="546.5" cy="537.5" r="535" opacity=".15"/><circle cx="538.9" cy="540" r="537.5" fill="#2c3a5b"/><path d="M874 337.6c-1.3-2.2-3.5-3.8-6.1-4.3s-5.3 0-7.3 1.6l-.5.4-.4.2-117.2 77.6c-4 2.7-5.4 8.1-2.9 12.4 18.5 32.3 28.9 69.1 30.2 106.4C774 648.1 690.5 749.8 576 768.3c-4.7.7-7.9 4.8-7.8 9.5l5 142.7c0 2.6 1.2 5 3.2 6.7 1.7 1.5 3.8 2.2 6 2.2h1.1c72.2-8.3 140.7-36.6 197.9-81.7 58.8-46.4 102.9-108.4 127.4-179.5 38-110.1 25.3-230.6-35-330.4l.2-.2h0zm36.8 230.7-123-10.3c.6-8.8.8-17.7.5-26.8-.1-3.7-.4-7.5-.6-11.1l123.1-8.7c1.4 18.9 1.4 38 0 56.9h0zm-25.1 108.9-114.4-45.9c4.7-11.7 8.3-23.9 11.1-36.3l120.1 27.9c-3.1 13.2-6.7 26.2-11.1 39.1-1.8 5.1-3.7 10.3-5.7 15.2h0zM734 695.8c7.9-9.9 15-20.4 21.4-31.6l106.4 62.3c-9.5 16.5-20.4 32.2-32.3 47L734 695.8zm151.8-292.6c7 17.7 12.6 35.8 16.8 54.2L782.1 484c-2.8-12.4-6.6-24.5-11.3-36.2l114.9-44.7h.1v.1zM611.3 779.1c12.4-3.8 24.3-8.4 35.7-14l52.9 111.2c-17.1 8.2-34.9 15.2-53.2 20.8l-35.4-118h0zM747.5 849l-68.4-102.3c10.6-7.2 20.7-15.3 30-24l83.1 90.8c-14 12.9-29 24.7-44.7 35.5h0zM219 333l126.9 66.9c1.3.7 2.8 1.1 4.3 1.1 2.8 0 5.5-1.2 7.3-3.5 42.2-53.6 105.3-85.8 173.5-88.2 66.1-2.3 130.2 23.9 175.7 71.9 3.1 3.3 8.1 3.8 11.9 1.3L838 303.4c2.2-1.5 3.7-3.8 4-6.4.4-2.6-.4-5.3-2.1-7.3-45.5-54.8-105.3-96.2-173-119.7-166.6-57.6-352.2 3.9-451.3 149.5-1.5 2.2-2 4.9-1.3 7.5.6 2.5 2.3 4.7 4.7 6h0zm441.8-145.5c61.2 21.2 115.6 57.7 158.1 106.1l-104.4 69.1c-48.8-48.3-115.6-74.5-184.4-72.1-71 2.6-137 34.9-182.4 89.2l-110.9-58.4c95.9-132.6 268.7-187.6 424-133.9zm-140 583.1c-117-9.2-208.3-104.7-212.5-222.2-1.2-36.1 5.6-71 20.4-103.6 2.1-4.5.2-9.8-4.2-12l-125.6-66.2c-2.2-1.2-4.9-1.3-7.2-.6s-4.4 2.6-5.5 4.8c-6.5 13.6-12.2 27.7-17.1 41.6-34 98.7-27.7 205 18.1 299 45.7 94.1 125.3 164.7 224.1 198.8 36.7 12.7 75 19.8 113.5 21.3h.4c2.4 0 4.8-1 6.6-2.7 1.8-1.8 2.8-4.3 2.7-6.9l-5-142.5c-.1-4.8-3.8-8.6-8.6-8.9l-.1.1h0z" class="st4"/><path d="M722 534c-3.5-100.9-88.4-180-189.3-176.5C431.9 361 352.8 446.1 356.3 547c3.5 98.7 84.8 176.6 182.7 176.6h6.6C646.4 720.1 725.5 635 722 534h0zM545 706.9h-6c-89 0-163.1-70.8-166.2-160.6-3.3-91.7 68.6-169 160.4-172.2 44.5-1.6 86.7 14.3 119.3 44.6 32.5 30.3 51.3 71.5 52.9 115.9 3.3 91.7-68.6 169-160.4 172.3h0z" class="st4"/><circle cx="538.9" cy="540" r="537.5" fill="#4bdbe5"/><path fill="#633000" stroke="#633000" stroke-miterlimit="10" stroke-width="31.311" d="M899.2 638.4c.2-2.9.3-5.9.3-8.8 0-79.6-72-149.1-176.4-188.9l32.2-179c7.4-44.8-27.3-86.9-72.1-86.9-39.9 0-72.1 32.4-72.1 72.1V411c-24.9-2.4-49.7-4.9-74.6-4.9-27.3 0-52.1 2.4-77 4.9V246.8c0-39.9-32.4-72.1-72.1-72.1-44.8 0-79.6 42.2-69.7 86.9l35 179C249.6 480 180.3 548.5 178.8 626.9h-.1v57.2c0 121.8 161.6 221.2 360.4 221.2s360.4-99.4 360.4-221.2h-.1v-45.7z"/><path fill="#fedc90" d="M899.3 684.1c0 121.8-161.6 221.2-360.4 221.2s-360.4-99.4-360.4-221.2v-57.2h720.7v57.2h.1z"/><path fill="#d1884f" fill-rule="evenodd" d="M317.6 261.6c-9.9-44.8 24.9-86.9 69.7-86.9 39.8 0 72.1 32.2 72.1 72.1v164.1c24.9-2.5 49.7-4.9 77-4.9 24.9 0 49.7 2.5 74.6 4.9V246.8c0-39.8 32.2-72.1 72.1-72.1 44.8 0 79.5 42.2 72.1 86.9l-32.2 179c104.4 39.8 176.4 109.3 176.4 188.9 0 121.8-161.6 221.2-360.4 221.2s-360.5-99.4-360.5-221.2c0-79.5 69.7-149 174-188.9l-34.9-179z" clip-rule="evenodd"/><path fill="#633000" d="M436.8 612.1c0 32.3-17.4 59.6-39.8 59.6s-39.8-27.3-39.8-59.6c0-32.2 17.4-59.6 39.8-59.6 22.6-.1 39.8 27.3 39.8 59.6zm276.1 0c0 32.3-17.4 59.6-39.8 59.6-22.3 0-39.8-27.3-39.8-59.6 0-32.2 17.4-59.6 39.8-59.6 22.4-.1 39.8 27.3 39.8 59.6z"/></svg>