<svg xmlns="http://www.w3.org/2000/svg" xml:space="preserve" id="Layer_1" x="0" y="0" version="1.1" viewBox="0 0 1080 1080"><style>.st2{fill:#7e430d}</style><circle cx="540" cy="540" r="537.5" fill="#fff"/><circle cx="540" cy="540" r="515" fill="#dcbda0"/><path d="M885.3 678.1C885.3 794.8 730.5 890 540 890s-345.3-95.2-345.3-211.9v-54.8h690.5v54.8h.1z" class="st2"/><path fill="#a85911" fill-rule="evenodd" d="M328 273.3c-9.5-42.9 23.9-83.3 66.8-83.3 38.1 0 69.1 30.9 69.1 69.1v157.2c23.9-2.4 47.6-4.7 73.8-4.7 23.9 0 47.6 2.4 71.5 4.7V259.1c0-38.1 30.9-69.1 69.1-69.1 42.9 0 76.2 40.4 69.1 83.3l-30.9 171.5c100 38.1 169 104.7 169 181 0 116.7-154.8 211.9-345.3 211.9s-345.4-95.2-345.4-211.9c0-76.2 66.8-142.8 166.7-181L328 273.3z" clip-rule="evenodd"/><path d="M442.2 609.1c0 30.9-16.7 57.1-38.1 57.1-21.4 0-38.1-26.2-38.1-57.1s16.7-57.1 38.1-57.1c21.6-.1 38.1 26.1 38.1 57.1zm264.5 0c0 30.9-16.7 57.1-38.1 57.1s-38.1-26.2-38.1-57.1 16.7-57.1 38.1-57.1c21.4-.1 38.1 26.1 38.1 57.1z" class="st2"/></svg>