<svg xmlns="http://www.w3.org/2000/svg" viewBox="0 0 1080 1080"><circle cx="540" cy="540" r="537.5" fill="#fff"/><circle cx="540" cy="540" r="515" fill="#4bdbe5"/><path fill="#633000" stroke="#633000" stroke-miterlimit="10" stroke-width="30" d="M885.2 634.3c.2-2.8.3-5.6.3-8.5 0-76.3-69-142.9-169-181l30.9-171.5c7.1-42.9-26.2-83.3-69.1-83.3-38.2 0-69.1 31-69.1 69.1v157.2c-23.9-2.3-47.6-4.7-71.5-4.7-26.2 0-49.9 2.3-73.8 4.7V259.1c0-38.2-31-69.1-69.1-69.1-42.9 0-76.3 40.4-66.8 83.3l33.5 171.5c-98.8 37.8-165.2 103.3-166.7 178.5h-.1v54.8C194.7 794.8 349.5 890 540 890s345.3-95.2 345.3-211.9h-.1v-43.8z"/><path fill="#fedc90" d="M885.3 678.1C885.3 794.8 730.5 890 540 890s-345.3-95.2-345.3-211.9v-54.8h690.5l.1 54.8z"/><path fill="#d1884f" fill-rule="evenodd" d="M328 273.3c-9.5-42.9 23.9-83.3 66.8-83.3 38.1 0 69.1 30.9 69.1 69.1v157.2c23.9-2.4 47.6-4.7 73.8-4.7 23.9 0 47.6 2.4 71.5 4.7V259.1c0-38.1 30.9-69.1 69.1-69.1 42.9 0 76.2 40.4 69.1 83.3l-30.9 171.5c100 38.1 169 104.7 169 181 0 116.7-154.8 211.9-345.3 211.9s-345.4-95.2-345.4-211.9c0-76.2 66.8-142.8 166.7-181L328 273.3z" clip-rule="evenodd"/><path fill="#633000" d="M442.2 609.1c0 30.9-16.7 57.1-38.1 57.1S366 640 366 609.1s16.7-57.1 38.1-57.1c21.6-.1 38.1 26.1 38.1 57.1zm264.5 0c0 30.9-16.7 57.1-38.1 57.1s-38.1-26.2-38.1-57.1 16.7-57.1 38.1-57.1c21.4-.1 38.1 26.1 38.1 57.1z"/></svg>