<svg xmlns="http://www.w3.org/2000/svg" version="1.1" viewBox="0 0 1080 1080"><style>.st2{fill:#d3f85a;stroke:#d3f85a;stroke-width:4.643;stroke-linecap:round;stroke-linejoin:round}</style><circle cx="540" cy="540" r="537.5" fill="#fff"/><circle cx="540" cy="540" r="515" fill="#2c3a5b"/><path d="M861.1 346.1c-1.3-2.1-3.4-3.6-5.9-4.1-2.5-.5-5 0-7 1.5l-.5.4-.4.2L735 418.4c-3.9 2.6-5.2 7.7-2.8 11.8 17.7 30.9 27.7 66.2 29 102 4 111.4-76 208.8-185.7 226.5-4.5.7-7.6 4.6-7.5 9.1l4.8 136.7c0 2.5 1.2 4.8 3 6.5 1.6 1.4 3.6 2.1 5.7 2.1h1.1c69.2-8 134.8-35.1 189.7-78.3 56.4-44.4 98.6-103.9 122-172 36.5-105.5 24.3-221-33.5-316.6l.3-.1h0zm35.2 221-117.8-9.8c.6-8.4.8-17 .5-25.7-.1-3.5-.4-7.2-.6-10.7l117.9-8.3c1.4 18.1 1.4 36.4 0 54.5h0zm-24 104.4-109.6-44c4.5-11.2 8-22.9 10.7-34.8l115.1 26.7c-2.9 12.7-6.5 25.1-10.7 37.5-1.8 4.9-3.5 9.8-5.4 14.7l-.1-.1h0zM727 689.3c7.6-9.5 14.4-19.6 20.5-30.2l102 59.7c-9.1 15.8-19.6 30.8-30.9 45L727 689.3zm145.4-280.4c6.7 17 12.1 34.3 16.1 51.9L773 486.4c-2.7-11.8-6.3-23.4-10.8-34.7l110.1-42.8h.1zm-263 360.2c11.8-3.6 23.3-8.1 34.2-13.4l50.6 106.6c-16.4 7.9-33.4 14.5-51 19.9l-34-113.1h.2zM739.9 836l-65.5-98c10.2-6.9 19.8-14.7 28.7-23l79.6 87c-13.4 12.5-27.7 23.7-42.8 34h0zM233.5 341.6 355 405.7c1.3.7 2.7 1.1 4.1 1.1 2.7 0 5.3-1.2 7-3.4 40.4-51.3 100.9-82.2 166.2-84.5 63.3-2.2 124.7 22.9 168.3 68.9 2.9 3.2 7.7 3.6 11.4 1.3l114.5-75.8c2.1-1.4 3.5-3.6 3.9-6.1.4-2.5-.4-5-2-7-43.6-52.5-100.9-92.1-165.7-114.6-159.6-55.2-337.5 3.7-432.4 143.2-1.4 2.1-1.9 4.7-1.3 7.2.6 2.3 2.3 4.4 4.5 5.6h0zm423.4-139.3c58.6 20.3 110.8 55.3 151.5 101.6l-100 66.2c-46.8-46.3-110.8-71.4-176.6-69-68 2.5-131.3 33.4-174.8 85.5l-106.2-55.9C342.5 203.5 508 150.8 656.9 202.3zM522.7 760.9C410.6 752.1 323 660.6 319.1 548c-1.2-34.6 5.4-68 19.6-99.3 2-4.3.2-9.4-4-11.5l-120.4-63.4c-2.1-1.2-4.7-1.3-6.9-.6-2.2.7-4.2 2.5-5.3 4.6-6.2 13-11.7 26.5-16.4 39.9-32.6 94.6-26.5 196.4 17.3 286.5S323 862 417.7 894.7c35.2 12.2 71.9 19 108.8 20.4h.4c2.3 0 4.6-.9 6.3-2.6 1.8-1.8 2.7-4.1 2.6-6.6L531 769.3c-.1-4.6-3.6-8.2-8.2-8.6l-.1.2h0z" class="st2"/><path d="M715.4 534.3C712 437.6 630.7 361.8 534 365.2c-96.5 3.4-172.4 84.9-169 181.5 3.4 94.6 81.2 169.2 175.1 169.2h6.3c96.5-3.4 172.4-84.9 169-181.5v-.1h0zM545.9 699.9h-5.7C454.9 699.9 384 632 380.9 546c-3.2-87.9 65.8-162 153.7-165 42.6-1.5 83.1 13.7 114.3 42.7 31.1 29 49.2 68.5 50.7 111.1 3.2 87.9-65.8 162-153.7 165v.1h0z" class="st2"/></svg>