<svg xmlns="http://www.w3.org/2000/svg" xml:space="preserve" id="Layer_1" x="0" y="0" version="1.1" viewBox="0 0 1080 1000"><style>.st0{fill:#fff}.st7{fill-rule:evenodd;clip-rule:evenodd;fill:#5a5564}</style><circle cx="277.248" cy="277.875" r="274.675" class="st0"/><path fill="#53ae94" d="M277.248 14.682c145.286 0 263.194 117.907 263.194 263.194S422.314 541.069 277.248 541.069 14.054 423.162 14.054 277.875 131.962 14.682 277.248 14.682"/><path d="M309.706 242.768v-39.082h89.645V144.07H155.587v59.616h89.645v39.082c-72.864 3.312-127.622 17.885-127.622 35.107 0 17.222 54.758 31.574 127.622 35.107v125.414h64.915V312.982c72.864-3.312 127.402-17.885 127.402-35.107-.883-17.222-55.421-31.574-127.843-35.107m0 59.616c-1.766 0-11.04.662-32.237.662-16.781 0-28.262-.442-32.678-.662-64.253-2.87-112.166-13.91-112.166-27.6 0-13.248 48.134-24.73 112.166-27.158v43.718c4.195.442 16.118 1.104 32.899 1.104 20.093 0 30.029-.662 32.016-1.104v-43.718c64.253 2.87 111.946 13.91 111.946 27.158-.001 13.469-47.694 24.73-111.946 27.6M540 996.8c152.131 0 274.675-122.323 274.675-274.675S692.352 447.67 540 447.67 265.325 569.994 265.325 722.346 387.869 996.8 540 996.8z" class="st0"/><g id="etherium_eth_ethcoin_crypto"><g id="etherium_eth"><circle id="Ellipsis_9" cx="540" cy="722.125" r="263.194" fill="#e6e9f2"/><path fill="#828384" fill-rule="evenodd" d="M540.442 506.403 408.403 725.658l132.038 78.384 131.155-78.384-131.154-219.255zM408.403 751.712l132.038 77.501 131.155-77.501-131.154 186.355-132.039-186.355z" clip-rule="evenodd"/><path fill="#2f3030" fill-rule="evenodd" d="M540.442 803.6V506.403l130.714 218.592L540.442 803.6zm130.272-51.667L540.442 938.067V829.654l130.272-77.721z" clip-rule="evenodd"/><path fill="#131313" fill-rule="evenodd" d="m540.442 666.483-132.038 58.954 132.038 78.384 131.155-78.384-131.155-58.954z" clip-rule="evenodd" opacity=".8"/></g></g><path d="M802.752 3.2c152.131 0 274.675 122.323 274.675 274.675S955.325 552.55 802.752 552.55 528.077 430.227 528.077 277.875 650.842 3.2 802.752 3.2z" class="st0"/><path d="M725.03 237.027c0 40.186 24.067 53.875 71.981 59.616 34.445 4.637 41.29 13.69 41.29 29.808s-11.482 26.275-34.445 26.275c-20.534 0-32.016-6.845-37.757-24.067-1.104-3.533-4.637-5.741-7.949-5.741h-18.326c-4.637 0-7.949 3.533-7.949 7.949v1.104c4.637 25.171 25.171 44.381 51.667 47.03v27.6c0 4.637 3.533 7.949 9.274 9.274h17.222c4.637 0 7.949-3.533 9.274-9.274v-26.275c34.445-4.637 55.862-27.6 55.862-55.862 0-37.757-22.963-52.771-71.098-58.512-32.016-5.741-42.394-12.586-42.394-30.912s16.118-30.912 37.757-30.912c29.808 0 40.186 12.586 43.277 29.808 1.104 4.637 4.637 6.845 7.949 6.845h19.43c4.637 0 7.949-3.533 7.949-7.949v-1.104c-4.637-28.704-22.963-49.018-60.499-54.758v-27.6c0-4.637-3.533-7.949-9.274-9.274h-17.222c-4.637 0-7.949 3.533-9.274 9.274v27.6c-33.781 5.299-56.745 29.366-56.745 60.057z" class="st0"/><path d="M744.461 117.574C655.257 149.59 609.552 249.171 642.672 337.05c17.222 48.134 54.758 84.566 101.789 101.789 4.637 2.208 6.845 5.741 6.845 11.482v16.118c0 4.637-2.208 7.949-6.845 9.274-1.104 0-3.533 0-4.637-1.104-108.634-34.445-168.25-149.923-133.805-258.557 20.534-64.253 69.994-113.27 133.805-133.805 4.637-2.208 9.274 0 10.378 4.637 1.104 1.104 1.104 2.208 1.104 4.637v16.118c0 3.311-3.312 7.948-6.845 9.935zM865.68 474.387c-4.637 2.208-9.274 0-10.378-4.637-1.104-1.104-1.104-2.208-1.104-4.637v-16.119c0-4.637 3.533-9.274 6.845-11.482 89.203-32.016 134.909-131.597 101.789-219.475-17.222-48.134-54.758-84.566-101.789-101.789-4.637-2.208-6.845-5.741-6.845-11.482V88.65c0-4.637 2.208-7.949 6.845-9.274 1.104 0 3.533 0 4.637 1.104 108.634 34.445 168.25 149.923 133.805 258.557-20.535 65.798-70.877 115.037-133.805 135.35z" class="st0"/><g id="Designs"><g id="Dashboard---Order-Book---Collapsed" transform="translate(-209 -879)"><g id="Group-20" transform="translate(158 696)"><g id="Group-6" transform="translate(0 98)"><g id="Totals:-Network" transform="translate(50 39)"><g id="icon-wbtc" transform="translate(1 46)"><path id="Fill-1" fill="#fff" fill-rule="evenodd" d="M802.752 14.682c145.286 0 263.194 117.907 263.194 263.194S948.038 541.069 802.752 541.069 539.558 423.162 539.558 277.875 657.466 14.682 802.752 14.682" clip-rule="evenodd"/><path id="Fill-3" d="m968.794 125.302-14.352 14.352c71.539 78.163 71.539 198.058 0 276.221l14.352 14.352c79.488-86.333 79.488-219.034 0-305.366v.441z" class="st7"/><path id="Fill-5" d="M664.752 126.406c78.163-71.539 198.058-71.539 276.221 0l14.352-14.352c-86.333-79.488-219.254-79.488-305.366 0l14.793 14.352z" class="st7"/><path id="Fill-7" d="M651.283 415.875c-71.318-78.163-71.318-197.837 0-276l-14.352-14.352c-79.488 86.333-79.488 219.034 0 305.366l14.352-15.014z" class="st7"/><path id="Fill-9" d="M940.752 429.344c-78.163 71.539-198.058 71.539-276.221 0l-14.573 14.573c86.333 79.488 219.254 79.488 305.366 0l-14.572-14.573z" class="st7"/><path id="Fill-11" fill="#f09242" fill-rule="evenodd" d="M846.691 241.222c0 28.925-45.264 25.392-59.616 25.392V215.61c14.352 0 59.616-4.416 59.616 25.612m11.703 79.047c0 31.574-54.096 28.042-71.318 28.042v-56.083c17.222-.001 71.318-5.079 71.318 28.041m35.769-90.528c-2.87-30.25-28.925-40.186-61.824-43.277v-41.51h-25.392v40.848c-6.624 0-13.469 0-20.314.221v-41.069h-25.392v41.731h-51.446v27.158s18.768-.442 18.547 0c7.066-.662 13.469 4.195 14.352 11.261v114.595c-.221 2.429-1.325 4.637-3.091 6.182-1.766 1.546-4.195 2.429-6.624 2.208.221.221-18.547 0-18.547 0l-5.078 30.47h51.226v42.614h25.392v-41.952h20.314v41.731h25.392V379c43.056-2.65 72.864-13.248 76.618-53.434 3.091-32.458-12.144-46.81-36.432-52.771 15.234-7.726 24.507-20.974 22.299-43.054" clip-rule="evenodd"/><path id="Fill-13" fill="#282138" fill-rule="evenodd" d="M802.752 35.216c-133.805 0-242.438 108.634-242.438 242.659 0 133.805 108.634 242.438 242.438 242.438S1045.19 411.9 1045.411 277.875C1045.19 144.07 936.778 35.437 802.752 35.216zm0 505.853c-145.286 0-263.194-117.907-263.194-263.194S657.466 14.682 802.752 14.682s263.194 117.907 263.194 263.194-117.908 263.193-263.194 263.193z" clip-rule="evenodd"/></g></g></g></g></g></g></svg>