<svg xmlns="http://www.w3.org/2000/svg" viewBox="0 0 1080 1080"><path fill="#fff" d="M540 1077.5C243.2 1077.5 2.5 836.8 2.5 540S243.2 2.5 540 2.5s537.5 240.7 537.5 537.5S836 1077.5 540 1077.5z"/><path fill="#ed9a21" d="M540 1055c-284.5 0-515-230.5-515-515S255.5 25.2 540 25.2s515 230.5 515 515S823.5 1055 540 1055z"/><path fill="#fdfdfb" d="M548 504h197c4.1 0 6.3 0 6.3 5.7 1.8 20.2 1.8 40.3 0 60.3 0 4.1-1.8 5.7-6.3 5.7H353.1c-4.5 0-6.3-1.8-6.3-6.3v-57.5c0-7.4 0-7.4 8-7.4H548v-.5zm181.6 138.5c.6 1.8.6 2.9 0 4.5-3.5 6.8-7.4 13.7-11.5 20.7-6.8 11-14.9 21.3-24.1 29.9-4.5 5.7-9.2 10.4-14.9 14.3-28.2 24.1-61.4 40.7-97.1 49.5-17.8 4.1-36.8 5.7-55.2 5.7H352.7c-4.5 0-5.7-1.8-5.7-6.3V646.1c0-4.5 0-6.3 6.3-6.3h374.1s3.5.6 4.1 2.9h-2v-.2zm0-205.8c-5.7.6-11 .6-16.6 0H353.7c-4.5 0-6.3 0-6.3-6.3V317.7c0-5.1 0-6.3 6.3-6.3h166.1c8-.6 16 0 23.5 1.8 24.1 1.8 47.7 6.8 70 15.5 8 2.9 16 6.3 23.5 11h2.3c39.1 20.2 70.6 52.2 90.2 90.8.3-.1 2.5 4.6.3 6.2zM281.9 253v179.1c0 4.1 0 4.5-5.1 4.5h-70c-4.1 0-5.7 0-5.7 5.1v61.4h75.3c4.1 0 5.7 0 5.7 5.7v60.9c0 4.1 0 4.5-5.1 4.5h-70c-4.1 0-5.7 0-5.7 5.1v56.9c0 3.5 0 4.5 5.1 4.5h69.5c4.5 0 6.3 0 6.3 6.3v174.7c0 5.1 0 6.3 6.3 6.3h243c17.8-.6 35-2.9 52.2-5.7 35.6-6.3 70-19.6 101.7-37.4 20.7-12.1 40.3-27 56.9-44.2 12.7-13.3 24.1-27.6 34.4-43 10.4-15.5 18.4-32.1 25.2-49.5.6-4.5 5.1-7.4 9.8-6.8h58.1c7.4 0 7.4 0 8-6.8v-53.4c0-5.1-1.8-6.3-6.8-6.3h-44.8c-4.5 0-5.7 0-5.7-5.7 1.8-19.6 1.8-39.7 0-59.1 0-5.7 0-6.3 6.3-6.3h51.1c2.3-2.9 0-5.7 0-8.6.6-4.1.6-7.4 0-11.5v-39.1c0-5.7-1.8-6.8-6.3-6.8h-61.4c-4.1.6-8.6-1.8-9.2-6.3-14.3-38-38-71.8-67.7-99.4-11-9.8-22.5-19.6-34.4-27.6-13.3-7.4-25.8-15.5-39.1-21.3-24.7-11-49.9-19-76.5-24.1-25.2-4.5-50.5-6.3-75.9-6.3l-225.5.2z"/></svg>