<svg xmlns="http://www.w3.org/2000/svg" xml:space="preserve" id="Layer_1" x="0" y="0" version="1.1" viewBox="0 0 1080 1080"><style>.st2{fill:url(#SVGID_00000168827125623680292810000015829420397295958657_)}.st3{fill:url(#SVGID_00000170242655884328970710000012436697730758954625_)}.st4{fill:url(#SVGID_00000097480005940716404120000003648223769168643215_)}.st5{fill:url(#SVGID_00000162321504230570702040000002505266387879690166_)}.st6{fill:url(#SVGID_00000010289275691056195290000006618148584604555951_)}.st7{fill:url(#SVGID_00000117635091150517644240000009000278252758991018_)}.st8{fill:url(#SVGID_00000161602450801303000810000007613719510102207125_)}</style><circle cx="540" cy="540" r="537.5" fill="#fff"/><radialGradient id="SVGID_1_" cx="540" cy="540" r="515" gradientUnits="userSpaceOnUse"><stop offset="0" stop-color="#fff"/><stop offset="1" stop-color="#ededed"/></radialGradient><circle cx="540" cy="540" r="515" fill="url(#SVGID_1_)"/><linearGradient id="SVGID_00000012452215698989401270000017425839341349758595_" x1="391.729" x2="615.181" y1="270.292" y2="399.997" gradientUnits="userSpaceOnUse"><stop offset="0" stop-color="#d7a93a"/><stop offset="1" stop-color="#eec055"/></linearGradient><path fill="url(#SVGID_00000012452215698989401270000017425839341349758595_)" d="M357 443h361.5l-46.8-203H402.6z"/><linearGradient id="SVGID_00000181046790184382157710000011053959687172023971_" x1="727.755" x2="169.124" y1="449.647" y2="778.404" gradientUnits="userSpaceOnUse"><stop offset=".24" stop-color="#bb3229"/><stop offset=".352" stop-color="#efc157"/><stop offset="1" stop-color="#cb9735"/></linearGradient><path fill="url(#SVGID_00000181046790184382157710000011053959687172023971_)" d="m678.6 470.3-83.2 140.3-25.1-44.5 50.2-96.9H375.3l161.9 280.5 164.2-279.4h-22.8zm-85.5 14.9-34.2 61.6-35.3-61.6h69.5zm-53.6 223.4-130-223.5h90.1l85.5 146-45.6 77.5z"/><linearGradient id="SVGID_00000031906680785333425370000001552968984680116145_" x1="328.832" x2="484.221" y1="354.889" y2="345.899" gradientUnits="userSpaceOnUse"><stop offset="0" stop-color="#cc9838"/><stop offset="1" stop-color="#d7a93a"/></linearGradient><path fill="url(#SVGID_00000031906680785333425370000001552968984680116145_)" d="M357 443h361.5L402.6 240z"/><linearGradient id="SVGID_00000177461238001625655020000012486471923714670742_" x1="305.422" x2="528.874" y1="-508.29" y2="-378.585" gradientTransform="rotate(-120.093 719.989 147.021)" gradientUnits="userSpaceOnUse"><stop offset="0" stop-color="#d7a93a"/><stop offset="1" stop-color="#eec055"/></linearGradient><path fill="url(#SVGID_00000177461238001625655020000012486471923714670742_)" d="M527.7 777.7 346.5 465 194.3 607.2 329.2 840z"/><linearGradient id="SVGID_00000149376731239814689870000014744869865095526332_" x1="242.525" x2="397.914" y1="-423.692" y2="-432.682" gradientTransform="rotate(-120.093 719.989 147.021)" gradientUnits="userSpaceOnUse"><stop offset="0" stop-color="#cc9838"/><stop offset="1" stop-color="#d7a93a"/></linearGradient><path fill="url(#SVGID_00000149376731239814689870000014744869865095526332_)" d="M527.7 777.7 346.5 465l-17.3 375z"/><linearGradient id="SVGID_00000114038124996474961190000003799949626092460163_" x1="892.041" x2="1115.494" y1="-1850.043" y2="-1720.338" gradientTransform="scale(1 -1) rotate(59.907 -75.683 -1492.255)" gradientUnits="userSpaceOnUse"><stop offset="0" stop-color="#d7a93a"/><stop offset="1" stop-color="#eec055"/></linearGradient><path fill="url(#SVGID_00000114038124996474961190000003799949626092460163_)" d="M552.3 777.7 733.5 465l152.2 142.2L750.8 840z"/><linearGradient id="SVGID_00000129182281041552644970000016423543115839293579_" x1="829.144" x2="984.533" y1="-1765.446" y2="-1774.435" gradientTransform="scale(1 -1) rotate(59.907 -75.683 -1492.255)" gradientUnits="userSpaceOnUse"><stop offset="0" stop-color="#cc9838"/><stop offset="1" stop-color="#d7a93a"/></linearGradient><path fill="url(#SVGID_00000129182281041552644970000016423543115839293579_)" d="M552.3 777.7 733.5 465l17.3 375z"/></svg>