<svg xmlns="http://www.w3.org/2000/svg" viewBox="0 0 1080 1080"><style>.st0{fill:#fff}</style><circle cx="540" cy="540" r="537.5" class="st0"/><path fill="#165de5" d="M540 25C255.6 25 25 255.6 25 540s230.6 515 515 515 515-230.6 515-515S824 25 540 25z"/><path d="M510.8 209c16.4-8.6 41.4-8.6 57.8 0L736 297c9.9 5.2 15.3 12.9 16.3 20.9h.2v442.2c-.2 8.7-5.7 17.4-16.4 23l-167.4 88c-16.4 8.6-41.4 8.6-57.8 0l-167.4-88c-10.7-5.6-15.8-14.3-16.1-23V317.9h.1c.7-8.1 5.9-15.6 16-20.9l167.3-88zM726 564.6l-157.5 82.8c-16.4 8.6-41.4 8.6-57.8 0l-157.2-82.6v194.4l157.2 82.1c8.9 4.7 18.1 9.3 27.1 9.9l1.8.1c9.4 0 18.5-4.7 27.7-9.2L726 758.5V564.6zM300 750.4c0 16.9 2 28.1 5.9 35.9 3.3 6.5 8.1 11.5 17.1 17.5l.5.3c2 1.3 4.1 2.7 6.7 4.3l3.1 1.9 9.5 5.7-13.6 22.4-10.6-6.4-1.8-1.1c-3.1-1.9-5.6-3.5-8-5.1-25.4-17.1-34.9-35.7-35.1-74.3v-1.2H300zM526.5 446c-1.2.4-2.4.9-3.4 1.4l-167.4 88c-.2.1-.3.2-.5.3l-.1.1.3.1.4.2 167.4 88c1 .5 2.2 1 3.4 1.4V446zm26.3 0v179.6c1.2-.4 2.4-.9 3.4-1.4l167.4-88c.2-.1.3-.2.5-.3l.1-.1-.3-.1-.4-.2-167.4-88c-.9-.6-2.1-1.1-3.3-1.5zM726 349.2l-150.2 78.9 150.2 79V349.2zm-372.4.2v157.5l149.8-78.7-149.8-78.8zm202.6-117.3c-8.7-4.6-24.5-4.6-33.2 0l-167.4 88c-.2.1-.3.2-.5.3l-.1.1.3.1.4.2 167.4 88c8.7 4.6 24.5 4.6 33.2 0l167.4-88c.2-.1.3-.2.5-.3l.1-.1-.3-.1-.4-.2-167.4-88zm194.6 9.7 10.6 6.4 1.8 1.1c3.1 1.9 5.6 3.5 8 5.1 25.4 17.1 34.9 35.7 35.1 74.3v1.2H780c0-16.9-2-28.1-5.9-35.9-3.3-6.5-8.1-11.5-17.1-17.5l-.5-.3c-2-1.3-4.1-2.7-6.7-4.3l-3.1-1.9-9.5-5.7 13.6-22.5z" class="st0"/></svg>