<svg xmlns="http://www.w3.org/2000/svg" viewBox="0 0 1080 1080"><style>.st0{fill:#fff}</style><circle cx="540" cy="540" r="537.5" class="st0"/><path fill="#53ae94" d="M540 25c284.4 0 515 230.6 515 515s-230.6 515-515 515S25 824.5 25 540 255.6 25 540 25"/><path d="M603.6 471.4v-76.6h175.2V278H301.7v116.7h175.2v76.5c-142.4 6.5-249.5 34.7-249.5 68.5s107.1 62 249.5 68.6v245.4h126.7V608.4c142.1-6.6 249-34.7 249-68.5s-106.9-61.9-249-68.5m0 116.2c-3.6.2-21.9 1.3-62.8 1.3-32.7 0-55.7-.9-63.8-1.3v.1c-125.8-5.6-219.7-27.5-219.7-53.7s93.9-48.1 219.7-53.7v85.5c8.2.6 31.8 2 64.3 2 39.1 0 58.7-1.6 62.3-2v-85.5c125.6 5.6 219.2 27.5 219.2 53.6.1 26.1-93.7 48.1-219.2 53.7" class="st0"/></svg>