<svg xmlns="http://www.w3.org/2000/svg" version="1.1" viewBox="0 0 1080 1080"><style>.st0{fill:#fff}</style><circle cx="540" cy="540" r="537.5" class="st0"/><path d="M681.6 621.5c0-75.1-45.1-100.9-135.2-111.6-64.4-8.6-77.2-25.8-77.2-55.8s21.5-49.4 64.4-49.4c38.6 0 60.1 12.9 70.8 45.1 2.1 6.4 8.6 10.7 15 10.7h34.3c8.6 0 15-6.4 15-15v-2.1c-8.6-47.2-47.2-83.7-96.6-88V304c0-8.6-6.4-15-17.2-17.2h-32.2c-8.6 0-15 6.4-17.2 17.2v49.4c-64.4 8.6-105.1 51.5-105.1 105.1 0 70.8 42.9 98.7 133 109.4 60.1 10.7 79.4 23.6 79.4 57.9s-30 57.9-70.8 57.9c-55.8 0-75.1-23.6-81.5-55.8-2.1-8.6-8.6-12.9-15-12.9H409c-8.6 0-15 6.4-15 15v2.1c8.6 53.6 42.9 92.3 113.7 103v51.5c0 8.6 6.4 15 17.2 17.2h32.2c8.6 0 15-6.4 17.2-17.2v-51.5c64.4-10.6 107.3-55.6 107.3-113.6z" class="st0"/><path d="M430.6 846.9c-167.4-60.1-253.2-246.8-191-412 32.2-90.1 103-158.8 191-191 8.6-4.3 12.9-10.7 12.9-21.5v-30c0-8.6-4.3-15-12.9-17.2-2.1 0-6.4 0-8.6 2.1-203.9 64.4-315.4 281.1-251.1 485C209.5 782.5 301.8 874.8 422 913.4c8.6 4.3 17.2 0 19.3-8.6 2.1-2.1 2.1-4.3 2.1-8.6v-30c0-6.5-6.4-15.1-12.8-19.3zM658 177.4c-8.6-4.3-17.2 0-19.3 8.6-2.1 2.1-2.1 4.3-2.1 8.6v30c0 8.6 6.4 17.2 12.9 21.5 167.4 60.1 253.2 246.8 191 412-32.2 90.1-103 158.8-191 191-8.6 4.3-12.9 10.7-12.9 21.5v30c0 8.6 4.3 15 12.9 17.2 2.1 0 6.4 0 8.6-2.1 203.9-64.4 315.4-281.1 251.1-485C870.5 308.2 776 216 658 177.4z" class="st0"/><circle cx="540" cy="540" r="515" fill="#20817f"/><path d="M495.6 866.8s147.4-81.7-83.4-232.6C279 545.4 263 442.4 309.2 337.6c17.8-23.1 40.8-47.9 79.9-76.4-134.9 127.9 14.2 245.1 92.3 296.6 120.8 78.1 277.1 220.2 72.8 317.9 0-.1-32-1.8-58.6-8.9z" class="st0"/><path d="M318 360.6v19.6c7.1 79.9 88.8 149.2 154.5 191.8 106.6 69.2 166.9 140.3 163.4 193.6-1.8 35.5-30.2 65.7-85.2 92.3-3.6 0-10.7-1.8-17.8-1.8 12.4-14.2 24.9-35.5 24.9-60.4 1.8-55.1-44.4-115.4-138.5-175.8C312.7 547.1 278.9 463.6 318 360.6m71.1-99.4c-39.1 26.6-62.2 51.5-79.9 76.4-47.9 104.8-31.9 207.8 103 296.6 232.6 152.7 83.4 232.6 83.4 232.6 24.9 7.1 58.6 8.9 58.6 8.9 204.2-97.7 48-239.7-72.8-317.9-78.1-51.5-227.3-168.7-92.3-296.6z" class="st0"/><path d="M712.3 486.7c-83.4-79.9-300.1-190-156.3-284.1-44.5 3.4-88 15.5-127.9 35.5-99.4 163.4 147.4 262.8 241.5 362.3 85.2 83.4 92.3 220.2-35.5 271.7 1.8 0 3.6 0 5.3-1.8 135-40.9 229.2-236.2 72.9-383.6z" class="st0"/><path d="M502.7 227.4c-8.9 12.4-12.4 26.6-14.2 40.8-1.8 63.9 76.4 124.3 143.8 177.6 24.9 19.6 48 37.3 65.7 53.3 62.2 58.6 88.8 133.2 71.1 206-5.4 21.3-12.5 40.8-23.1 58.6 8.9-60.4-16-126.1-65.7-174.1-24.9-26.6-60.4-53.3-97.7-81.7-51.5-37.3-104.8-78.1-134.9-120.8-31.9-46.2-35.5-88.8-8.9-134.9 21.3-10.5 42.6-19.5 63.9-24.8m51.5-24.8c-44.5 3.4-88 15.5-127.9 35.5-99.4 163.4 147.4 262.8 241.5 362.3 85.2 83.4 92.3 220.2-35.5 271.7 1.8 0 3.6 0 5.3-1.8 134.9-40.8 229.1-236.2 72.8-383.6-81.6-79.9-298.3-190-156.2-284.1z" class="st0"/></svg>