<svg xmlns="http://www.w3.org/2000/svg" viewBox="0 0 1080 1080"><style>.st0{fill:#fff}.st3{fill:#31c67e}.st5{fill:#fefefe}</style><circle cx="540" cy="540" r="537.5" class="st0"/><path d="M681.6 621.5c0-75.1-45.1-100.9-135.2-111.6-64.4-8.6-77.2-25.8-77.2-55.8 0-30 21.5-49.4 64.4-49.4 38.6 0 60.1 12.9 70.8 45.1 2.1 6.4 8.6 10.7 15 10.7h34.3c8.6 0 15-6.4 15-15v-2.1c-8.6-47.2-47.2-83.7-96.6-88V304c0-8.6-6.4-15-17.2-17.2h-32.2c-8.6 0-15 6.4-17.2 17.2v49.4c-64.4 8.6-105.1 51.5-105.1 105.1 0 70.8 42.9 98.7 133 109.4 60.1 10.7 79.4 23.6 79.4 57.9s-30 57.9-70.8 57.9c-55.8 0-75.1-23.6-81.5-55.8-2.1-8.6-8.6-12.9-15-12.9H409c-8.6 0-15 6.4-15 15v2.1c8.6 53.6 42.9 92.3 113.7 103v51.5c0 8.6 6.4 15 17.2 17.2h32.2c8.6 0 15-6.4 17.2-17.2v-51.5c64.4-10.6 107.3-55.6 107.3-113.6z" class="st0"/><path d="M430.6 846.9c-167.4-60.1-253.2-246.8-191-412 32.2-90.1 103-158.8 191-191 8.6-4.3 12.9-10.7 12.9-21.5v-30c0-8.6-4.3-15-12.9-17.2-2.1 0-6.4 0-8.6 2.1-203.9 64.4-315.4 281.1-251.1 485C209.5 782.5 301.8 874.8 422 913.4c8.6 4.3 17.2 0 19.3-8.6 2.1-2.1 2.1-4.3 2.1-8.6v-30c0-6.5-6.4-15.1-12.8-19.3zM658 177.4c-8.6-4.3-17.2 0-19.3 8.6-2.1 2.1-2.1 4.3-2.1 8.6v30c0 8.6 6.4 17.2 12.9 21.5 167.4 60.1 253.2 246.8 191 412-32.2 90.1-103 158.8-191 191-8.6 4.3-12.9 10.7-12.9 21.5v30c0 8.6 4.3 15 12.9 17.2 2.1 0 6.4 0 8.6-2.1 203.9-64.4 315.4-281.1 251.1-485C870.5 308.2 776 216 658 177.4z" class="st0"/><path fill="#31c67e" fill-rule="evenodd" d="M25 540C25 255.7 255.7 25 540 25s515 230.7 515 515-230.7 515-515 515S25 824.6 25 540z" clip-rule="evenodd"/><path fill="#231f20" d="M1014.2 550.9c.7 6.8-.5 13.4-1.6 20.1-5.1 5.5-12.5 6.3-19 8.6-60.8 21.7-120.9 45.3-179.5 72.5-36.2 16.8-71.3 35.7-101.6 62.3-9.1 8-12.8 17-11 28.4 1.4 8.9 1.3 17.8 1.4 26.7.1 8.6.6 9.1 9.6 9.5 1.6.1 3.1.1 4.7.3 19.3 2.5 27.8 11.7 28.1 31.2.1 5.9 1.8 10.1 7.1 12.8 7.3 3.7 12.6 9.4 15.8 16.9 2.4 5.5 6 6 11.5 4.5 18.9-5.1 34.5-16.5 51.1-25.9 36.5-20.8 73.2-41.1 112.1-57 4.6-1.9 9.2-5.4 14.8-2.9-3.8 8.9-8.7 17.1-14.4 24.9-5 4.9-11.8 6.7-17.7 9.8-13.2 7-26.8 13.1-39.8 20.4-18.9 9-37 19.6-55.2 29.9-11.6 6.6-24.3 9.6-36.6 13.8-2.2.8-4.5 1.4-6.8 2.1-11.8 3.2-19.4 10.8-27.6 20.1-11.1 12.7-9.7 23.1-2.1 35.4 1.1 1.8 1.9 3.7 2.9 5.6 3.1 6.7 6.8 13 9.3 20 1 2.7 2.3 5.3 1.2 8.3-12.7 7.3-12.9 7.4-19.2-5.5-5.8-11.7-11.3-23.6-16.7-35.5-1.7-3.7-3-4.9-7.5-2.7-45.4 21.7-92.8 36.7-143.3 40.8-3.6.3-7.6.7-10.6 2.5-9.5 5.7-19.4 4.8-29.7 3.9-16.9-1.5-33.5 2.2-50 4.2-34.6 4.3-68.5 3-101.8-7.4-7.7-2.4-15-5.8-22.1-10.8-3.8 9-8 17.5-10.9 26.3-2.2 6.7-5.2 7.2-10.5 3.8-1.7-1.1-3.8-1.8-5.6-2.7-2-3.8.1-7 1.3-10.3 2.5-6.5 4.9-13 7.2-19.6 3-6 1.8-11.4-1.8-17-8.6-13.3-9.3-27.7-3.5-42.2 2.6-6.5 2.4-12.4 0-19-9.4-25.7 1.5-50.7 27-61.5 6-2.5 8.2-5.9 6.9-12-3.4-16.9-2.2-33.7 0-50.8 3.8-28.8 3.8-58 3.6-87.2-.1-9 .6-17.9 2.9-26.5 5-18.8 7-37.6 2.1-56.8-3.2-12.5-1.5-25.1.2-37.5 1.3-9.8.9-19.4-.5-29-4-26.8-.3-52.9 7.4-78.5 1.9-6.4 1.3-11.4-3.1-16.7-12.5-14.7-18.2-33-26-50.1-14.9-32.7-22.1-67.2-23.8-102.9-1.4-27.7 19.7-35.3 41.4-25.2 13.5 6.3 24.5 16.3 34.3 27.3 15.5 17.1 30.6 34.6 45.5 52.2 1.2 1.4 2.4 2.8 3.5 4.3 6 8.3 12.8 10.4 23.1 6.5 25.7-9.8 52.6-8.1 79.4-6.8 10.3.5 20.2 2.8 29.7 7 5.4 2.4 10.1 1.2 14-3.5 16.1-19.4 32.6-38.4 49.4-57.1 9.7-10.8 20.4-20.4 32.5-28.3 6.9-4.5 14.7-7.1 23.1-6.8 11.1.3 19.1 7.2 22.2 17.8 3 10.3.5 20.4-.4 30.5-3.2 36.3-15 70.2-30.6 102.8-5.8 12-10.7 24.6-19.9 34.7-3.2 3.6-2.2 7.8-1.2 12 3.4 14.3 7 28.5 8.6 43.2 1.4 12.7 1.3 25.2-1.2 37.6-1.8 9.2-1.7 18.2-.5 27.4 2 15.7 1.7 31.3-.9 47-1.8 11.2-2.3 22.6.3 33.7 5.4 23.2 6.8 46.7 6.6 70.3-.1 7.6-.6 15.2.5 22.6 2.9.8 4-1.5 5.5-2.7 21.5-18.3 44.6-34 69.8-46.8 49.8-25.4 100.4-49.1 152.9-68.6 17.2-6.4 34.4-12.8 51.7-19.2 8-2.4 15.6-5.7 23.5-8.5 2.4-1.1 5.3-3 8.5-1z"/><path d="M352.8 937.3c-3.3 9.6-6.6 19.3-9.8 28.9C218.4 907 133.4 812.4 89.2 681.6c-18.6-55-26.1-111.8-22.9-169.7 5.9-106.5 42.4-201.2 111.6-283C247.2 147 334.5 94.7 439 71.2c46.3-10.4 93.3-13 140.7-9 112.7 9.7 209.8 54 291 132.4 66.7 64.5 110.5 142.4 131.5 232.9 9.4 40.6 13.6 81.6 12 123.3-10.3 3.6-20.6 7.3-30.9 10.9-2.2-1.4-1.9-3.5-1.8-5.6 3.7-70.5-9.3-137.8-37.9-202.3-21.9-49.2-52.1-92.8-90.1-130.9-60.7-60.8-133-100.7-216.9-119.8-40.5-9.2-81.6-12.2-122.8-9.9-57.4 3.2-112.3 17.5-164.4 42.5-41 19.7-78.1 45-111.2 76.3-75.4 71-120.6 157.6-135.7 260-3.8 26-5.7 52.2-4.4 78.4 2.9 61 16.4 119.3 43 174.6 16.6 34.5 37.1 66.4 61.8 95.6 33.7 39.8 73.5 72.5 118.8 98.4 8 4.6 16.1 8.9 24.3 13 2.6 1.4 5.4 2.4 6.8 5.3z" class="st3"/><path d="M957.8 759c-22 6.4-42.2 16.9-62.5 27.3-29.4 15-58.4 30.8-86.5 48.2-10.2 6.3-21.3 9.9-32.5 13.6-3.9 1.3-6.7.5-8.2-3.5-3.6-9.9-10.5-16.8-19.8-21.4-3.8-1.9-5.2-4.7-5-8.8.2-3.9.3-7.9-.5-11.7-2.9-14.5-12.5-21.2-30.2-21.7-11.2-.3-11.2-.3-11.8-11.8-.5-9.9-.6-19.9-1.7-29.8-1.1-10.1 2.3-17.6 9.8-24.3 28-25.2 60.3-43.4 94-59.6 61.9-29.8 125.9-54.5 190.5-77.7 6.4-2.3 12.9-4.4 19.3-6.6-.1 22.7-4.4 44.8-9.2 66.7-8.8 40.9-23.2 79.8-42.6 116.8-.9 1.4-2.1 2.8-3.1 4.3z" class="st3"/><path fill="#31c67f" d="M885.4 812.6c18.5-11.3 37.9-20.7 57.9-28.8-22.1 37.5-50 70.2-81.8 99.7-27.5 25.5-57.8 47.3-90.6 65.7-4-9.3-7.9-18.6-11.9-27.9 4.9-6.9 12.9-9.6 19.6-14 19.6-12.8 37.7-27.4 55.7-42.4 19-15.7 33.9-35 51.1-52.3z"/><path d="M352.8 937.3c-53.2-24.3-99.3-58.4-138.9-101.2-48.9-52.9-83.1-114.2-102.1-183.8-13.2-48.2-18.1-97.2-14.6-147.1C104.3 401.4 143 311.1 213 234.5 280 161.3 362.6 114.2 460.4 98 616 72.3 750.9 115.6 861.7 229c58.5 59.8 95.2 131.7 112.9 213.2 8.6 39.3 11.7 79.3 8.6 119.6-27.1 10.4-54.3 20.3-81.2 31.2-52.4 21.2-103.8 44.6-152.5 73.4-15.8 9.4-30.1 21-43.8 33.2-1.7 1.5-2.9 3.7-6.8 3.9 0-12.1-.1-24.1 0-36 .1-22.3-1.5-44.5-7-66.3-2.2-8.9-2.5-18.5-.4-27.4 4.8-19.8 3.3-39.6.8-59.4-.3-2.6-.7-5.3-.2-7.8 7-30.6 3.1-60.5-5.7-90-2.1-7.1-.9-12.1 4-17.7 12.3-14.3 18.1-32.3 25.6-49.2 14.1-31.6 21.4-65 23.7-99.5.4-5.3-.3-10.5-1.6-15.6-2.2-8.7-9.2-14.1-18.3-14.5-13.8-.6-24.6 6.2-34.6 14.6-20.9 17.7-37.7 39.3-55.7 59.8-5.5 6.3-10.8 12.8-16.2 19.2-3.4 4.1-7.3 5.4-12.5 3.1-26-11.5-53.3-9.3-80.5-7.6-12.8.8-25.3 4-37.3 8.8-6 2.4-9.9-.7-13.5-5-16.2-18.9-32.5-37.8-49-56.5-9.7-11-20.4-21-32.8-29.1-4.9-3.2-10.3-5.1-16.1-5.9-17-2.4-27 6-26.7 23.1.5 33.3 6.7 65.6 19.4 96.4 6.2 15 13 29.7 19.9 44.4 2 4.2 4.3 8.7 7.7 11.8 7.9 7.2 8.2 14.9 5 24.5-9 27.4-10.4 55.5-5.6 83.9 1 5.7.3 11.5-.4 17.3-2 16.7-2.3 33.4 1.4 50 2.8 12.4 1.4 24.9-1.7 37.4-4 16.1-5.2 32.4-5.3 49.1-.2 29.9.3 59.8-5.4 89.4-2.2 11.4 0 23 2 34.4 1.4 7.6.8 12.3-8.4 15.5-24.2 8.3-35.6 36.7-25 60.2 2.9 6.4 2.6 11.4-.1 17.8-6.2 14.6-6.2 29.6 3.6 42.6 5.2 6.7 4.9 11.8.8 18z" class="st5"/><path d="M678 390.1c-9.8-11-10.2-13.6-3.8-25.8 10.2-19.5 21.2-38.5 27.9-59.6 2.4-7.5 4.3-15.1 3.6-23.1-.4-5-2.2-8.9-7.1-11.3-5.1-2.5-8.8-.1-12.1 2.8-19.7 18.1-39.3 36.4-51.9 60.5-2.1 4-8.2 5.8-6.4 11.7 1.4 4.5 5.7 6.7 8.5 10.1 24.8 29.6 38.4 63.8 42.8 102 .7 6.2-2.8 7.2-6.9 8.3-17.9 4.8-35.9 9.4-53.9 14.1-2 .5-4.1 1-6 1.8-4.6 1.9-5.7 4.7-1.3 7.9 2.7 2 4.1 4.4 5 7.6 3.3 12 11.2 19.2 23.5 21.3 12.6 2.1 24.1.8 32.7-10.1.8-1 1.7-1.9 3.2-3.6 1.8 13.1.3 25.4 3 37.5 1.8 8 1.8 16 .1 24.2-4.4 21.3.4 42.2 3.6 63.2 2.4 15.6 3.6 31.3 1.2 47-3.4 22.6 1.9 45 1.2 67.6-.5 14.4.7 28.9 2.3 43.2 1.2 10.4-2.1 18.6-9.5 26.1-26 26.5-54.3 50.1-83.6 72.8-6.2 4.8-12.4 9.6-18.4 14.7-3.1 2.6-6.1 2.7-9.3 1-9.3-5.1-18.2-3.4-26.8 1.7-4.8 2.9-9.2 2.4-14.1.1-44.8-21.9-84.8-50.9-122.7-83.1-3.5-2.9-4.9-6.1-5.1-10.7-.4-13.6-1.2-27.3-2.3-40.9-1.2-14.3 1.3-28.3 3.4-42.2 2.3-15.6 3.5-31.3 2-47-2-21.8-1.1-43.4 3.5-64.9 3.2-14.7 3.8-29.7 1.5-44.6-1.5-10-1.6-19.7.1-29.7 1.5-8.7 2.6-17.5 1.9-27.7 11.1 7.8 22 10.4 34.3 8.7 13-1.8 21.8-8.2 26.9-20 1.9-4.2 3.4-8.4 9.5-6.9 2.3.6 4.1-.9 4.5-3.3.5-2.9-1.3-4.4-3.9-5-8.4-2.1-16.7-4.2-25.1-6.1-14.3-3.2-28.6-6.5-43-9.1-5.4-1-7.1-3.1-6.6-8.3 4.2-41.5 17.8-79 46.7-109.9 1.3-1.3 2.8-2.5 3.7-4 2.4-4.2 1.1-7.9-3.7-7.5-5.4.5-7.4-2.3-9.7-6-10.4-17.4-22.2-33.7-35.1-49.3-3.5-4.3-7.1-8.5-11.9-11.3-8.3-5-14.9-2.1-16.9 7.3-1.8 8.2-1 16.3 2.1 24 9.6 24.3 16.8 49.6 30.7 72 1.6 2.6 2.1 5.3.4 8.1-2.2 3.9-4.5 5.9-7.5.6-22.8-40.2-43.5-81.3-46.1-128.8-.3-5-.1-10 .2-15 .6-8.7 5.2-12 13.8-10.2 6 1.3 11.5 3.9 16 8 7.3 6.8 14.9 13.4 21.5 20.7 17.5 19.2 34.6 38.8 51.7 58.3 2.6 2.9 4.9 5.9 5.8 10 1.5 7.2 5.5 9.3 11.8 6 37.3-19.5 76-15.2 115-7.5 5.1 1 9 4.2 13.3 6.5 5.1 2.8 8.7 1.7 10.3-3.8 1.5-5.3 4.4-9.4 7.9-13.3 21.5-24 41.6-49.3 65.1-71.6 5.7-5.4 11.6-10.6 19.2-13.3 11.8-4.1 17.6-.2 18.3 12.2.9 15.3-1.1 30.4-4.9 45.1-9 34.4-23.5 66.5-42.3 96.6-.2 1.2-1 2.2-1.8 3.2z" class="st5"/><path d="M461.2 946.6c-30.3.2-56-5.2-80-17.5-17-8.7-24-23.8-20.7-42.4 1-6 2.8-9.2 9.3-5.5 1.7 1 4 1.5 6 1.3 5.3-.6 7.4-6.3 3.7-10.7-2.7-3.2-6-5.9-9.1-8.6-12.9-11.2-13-30.8-.3-42.2 4.6-4.1 8.2-4.9 13.1.4 34.9 38 78.2 64.5 122.6 89.6 1.4.8 2.8 1.8 4.2 2 15 1.9 15.4 13.2 16.1 24.4.2 3.8-2.3 3.9-4.9 4.6-9.8 2.6-19.8 1-29.7 2.3-11.1 1.5-22.4 3-30.3 2.3zm267.9-136.7c-.7 5.3-3.7 10.3-6.6 15.2-2.1 3.5-5.2 7.4-.6 11.2 4.1 3.4 7.9 1 11.3-1.8 1.4-1.1 2.5-2.4 4.7-2.1 11.6 1.3 20.9 17.2 16.5 28.1-6.5 16-18.9 26.4-33.5 34.2-26.7 14.3-55.9 22-85 30-13.7 3.7-27.7 5.4-41.7 7-3.3.4-5.2-.7-6.2-3.3-1.5-3.9-2.6-7.9-4.5-11.7-2.2-4.6 2.4-5.7 5-7.5 29.9-21.3 59.9-42.5 85.9-68.7 5.9-6 11.7-12 17.5-18.1 6.1-6.4 10.6-13.7 10.6-23 0-1.9.3-3.6 2.2-4.7 7.7-4.4 24.4 5.6 24.4 15.2z" class="st3"/><path d="M885.4 812.6c-6.2 10.8-15.1 19.3-23.5 28.2-30.2 32-64.7 58.7-102.9 80.5-4-7.9-7.9-15.8-12-23.6-1.5-2.9-.8-4.8 1.5-6.8 6.4-5.6 11.3-12.3 15.3-19.8 1.7-3.3 4.2-5.2 7.3-6.8 7-3.5 14.3-6.6 21.9-8.3 31.2-7.1 56.6-26.3 84.6-40.2 2.6-1.2 4.7-3.4 7.8-3.2z" class="st5"/><path fill="#fdfdfd" d="M387.1 279c2.8.3 4.5 2 6.2 3.6 7.5 6.7 13.9 14.3 19.3 22.7 7.8 12.1 15.3 24.4 23.1 36.6 3.1 4.9 3.5 9.1-1.9 12.8-5.1 3.5-8.4 8.7-11.5 13.8-3.1 5.1-5.4 4.2-8.2.1-2.9-4.3-6.5-8.4-8.7-13-10.1-21.6-18.4-43.9-21.9-67.6-.5-3.9-1.1-7.6 3.6-9zm311.4 9c-2.7 11.9-5.1 24.8-11.3 36.4-6.7 12.7-13.6 25.3-20.1 38-2.5 5-4.2 5.8-7.7.6-4-6.1-9.9-10.7-15.3-15.7-3.2-2.9-3.7-5.8-1.4-9.6 12.5-20.4 28.4-38.1 44.3-55.7 2-2.3 4.7-4.4 8.3-3.2 2.3.9 3.4 4 3.2 9.2z"/><path d="M556.3 941.3c-10.9.1-17.8-4.6-17.9-12.2-.1-8.7 8.3-15.8 18.9-15.8 9.2 0 18.6 8 18.5 15.8-.1 6.4-9.2 12.1-19.5 12.2z" class="st3"/><path fill="#dee1e0" d="M434.8 490.2c.2 4.9-2.7 7-6.8 6.7-4.2-.3-7.4-2.7-7.3-7.6.1-4.2 2.3-7.1 6.7-7 4.9.2 7.9 2.8 7.4 7.9z"/><path fill="#e8eae9" d="M645.9 490.8c-.5 3.4-1.8 6.6-6 6.7-4.6.1-6.7-3.1-6.5-7 .2-3.6 2.6-6.1 6.8-5.8 3.9.3 5.7 2.3 5.7 6.1z"/><path fill="#020202" d="M553.5 629.3c-16.9-2.9-35.1-6.6-41.9-28.2-.7-2.3-2.2-4.3-4.2-5.5-15.3-9.4-17.3-27.7-1.8-43.7 5.5-5.7 7.1-10.6 5.3-18.1-2.2-9.2.2-18.3 5-26.4 6-10.1 15.9-12.6 27.2-6.3 4.2 2.4 6.7 2.6 10.8-.5 8.2-6.2 17.5-6.5 26.6-1.6 10.5 5.6 10.7 15.9 11.1 25.9 0 1-.1 2.2-.5 3.1-3.9 9.5-.8 16 6.7 23.1 13.4 12.7 13.1 29.7 1.6 44.3-2.4 3-4.4 6.5-5.9 10.1-7 17.2-20.9 23-40 23.8z"/><path d="M533.4 508c4.5-.2 8.3 1.8 12 4.6 4.3 3.3 8.1 4 11.8-1.4 4.1-6 11.5-7.3 18.1-4.1 6.2 3 9.4 10.1 7.3 17.2-1.3 4.2-3.3 8.2-5 12.3-4 9.4-3.9 9.9 5.2 14.2 7.6 3.6 13.3 8.6 16.2 17.1 2.5 7.4.9 13.7-4.2 18.7-5.3 5.2-12 7.1-19.5 4.5-7.6-2.6-12.6-8.1-17-14.4-5.7-8.3-6.6-8.4-11.9.4-5.9 9.7-13.7 15.7-25.5 15.1-14.3-.7-21.6-13.9-14.3-26.3 2.4-4.1 5.6-7.8 9.6-10.2 7.9-4.7 9.4-10.5 5.8-19-2.9-6.7-3.8-14.1-.4-21.3 2.2-5.2 6-7.6 11.8-7.4z" class="st5"/><path fill="#fcfcfc" d="M556.5 619.3c-12.2-.3-22.7-1.8-30.4-10.7-5-5.8-4.4-7.4 3-8.3 8.8-1.1 14.5-6.7 20.3-12.4 2.7-2.7 4.2-3.5 7.2 0 6.3 7.4 14.4 12.1 24.4 12.5 5.6.2 4.3 2.6 2.5 5.8-6.4 11.1-16.6 13.6-27 13.1z"/><path fill="#191919" d="M529.7 528.1c.1-2.4 1.2-5.9 4.5-5.2 6.3 1.3 7.4 7.3 8.6 12.6.7 2.9-1.1 5.1-4.1 5.6-3.4.5-8.9-7.1-9-13z"/><path fill="#201e1f" d="M558.9 532.2c1.4-3.4.7-9.5 6.9-10.8 3.1-.6 4.9 2.4 4 5.2-1.4 4.7-.8 11.3-7.5 12.3-3.1.5-3.8-2.8-3.4-6.7z"/></svg>