<svg viewBox="0 0 1042 1042" version="1.1" xmlns="http://www.w3.org/2000/svg"><rect x="166.667" y="187.5" width="687.5" height="645.833" style="fill:#fff;"/><path d="M397.5,10.833c-87.917,20.834 -178.75,70 -239.583,130.834c-76.667,76.25 -125,160.833 -147.5,259.166c-9.167,38.334 -10.417,54.167 -10.417,120c-0,65.834 1.25,81.667 10.417,120c22.5,98.334 70.833,182.917 147.5,259.167c62.083,61.667 152.083,110.417 242.083,131.25c39.167,9.167 55,10.417 120.833,10.417c65.834,-0 81.667,-1.25 120.834,-10.417c90,-20.833 180,-69.583 242.083,-131.25c76.667,-76.25 125,-160.833 147.5,-259.167c9.167,-38.333 10.417,-54.166 10.417,-120c-0,-65.833 -1.25,-81.666 -10.417,-120c-22.5,-98.333 -70.833,-182.916 -147.5,-259.166c-62.083,-61.667 -152.083,-110.417 -242.083,-131.25c-40,-9.167 -54.167,-10.417 -123.75,-10c-67.5,0.416 -84.167,1.666 -120.417,10.416Zm-9.167,320.417c13.334,36.667 27.084,74.583 30.834,84.167l6.666,17.916l190,0l17.917,-49.166c9.583,-26.667 23.75,-64.584 30.833,-84.167l13.334,-35.417l46.666,-1.25l46.25,-1.25l0,171.25l75,0l0,37.5l-75,0l0,104.167l75,0l0,37.5l-75,0l0,167.083l-32.083,-1.25l-32.5,-1.25l0,-164.583l-96.25,0l-15,42.5c-8.333,23.75 -21.667,60.833 -29.583,82.5l-14.584,39.583l-60,0l-14.583,-39.583c-7.917,-21.667 -21.25,-58.75 -29.583,-82.5l-15,-42.5l-96.25,0l-0,164.583l-32.084,1.25l-32.5,1.25l0,-167.083l-75,0l0,-37.5l75,0l0,-104.167l-75,0l0,-37.5l75,0l0,-171.25l46.667,1.25l46.25,1.25l24.583,66.667Z" style="fill:#db3737;fill-rule:nonzero;"/><path d="M337.5,470.833l0,104.167l40,0c36.667,0 40,-0.833 37.083,-7.5c-1.666,-3.75 -9.166,-24.167 -16.666,-44.583c-7.5,-20.834 -15,-40.834 -16.667,-45c-2.083,-5.417 -7.917,-7.084 -23.333,-7.084l-20.417,0Z" style="fill:#db3737;fill-rule:nonzero;"/><path d="M442.083,475.833c0,2.917 7.917,25.834 17.917,51.25l17.5,45.834l86.667,-0l17.916,-47.917c9.584,-26.25 17.917,-49.167 17.917,-51.25c0,-1.667 -35.417,-2.917 -79.167,-2.917c-60.833,0 -79.166,1.25 -78.75,5Z" style="fill:#db3737;fill-rule:nonzero;"/><path d="M660.417,477.917c-1.667,4.166 -9.167,24.166 -16.667,45c-7.5,20.416 -15,40.833 -16.667,44.583c-2.916,6.667 0.417,7.5 37.084,7.5l40,0l-0,-104.167l-20.417,0c-15.417,0 -21.25,1.667 -23.333,7.084Z" style="fill:#db3737;fill-rule:nonzero;"/></svg>