<svg xmlns="http://www.w3.org/2000/svg" viewBox="0 0 1080 1080"><style>.st0{fill:#fff}.st1{fill:#db3737}</style><path d="M540 2.5C243.1 2.5 2.5 243.1 2.5 540s240.6 537.5 537.5 537.5 537.5-240.6 537.5-537.5S836.9 2.5 540 2.5zm0 1052.5c-284.4 0-515-230.6-515-515S255.6 25 540 25s515 230.6 515 515-230.6 515-515 515z" class="st0"/><path d="M540 25C255.6 25 25 255.6 25 540s230.6 515 515 515 515-230.6 515-515S824.4 25 540 25zm318.2 567.9v36.7h-73.4v163.6l-31.4-1.2-31.8-1.2V629.6h-94.2l-14.7 41.6c-8.2 23.3-21.2 59.6-29 80.8l-14.3 38.8h-58.8L496.3 752c-7.8-21.2-20.8-57.5-29-80.8l-14.7-41.6h-94.2v161.2L327 792l-31.8 1.2V629.6h-73.4v-36.7h73.4v-102h-73.4v-36.7h73.4V286.5l45.7 1.2 45.3 1.2 24.1 65.3c13.1 35.9 26.5 73 30.2 82.4l6.5 17.5h186l17.5-48.1c9.4-26.1 23.3-63.2 30.2-82.4l13.1-34.7 45.7-1.2 45.3-1.2v167.7h73.4v36.7h-73.4v102h73.4z" class="st1"/><path d="M858.2 490.9v-36.7h-73.4V286.5l-45.3 1.2-45.7 1.2-13.1 34.7c-6.9 19.2-20.8 56.3-30.2 82.4L633 454.1H447l-6.5-17.5c-3.7-9.4-17.1-46.5-30.2-82.4l-24.1-65.3-45.3-1.2-45.7-1.2v167.7h-73.4v36.7h73.4v102h-73.4v36.7h73.4v163.6L327 792l31.4-1.2V629.6h94.2l14.7 41.6c8.2 23.3 21.2 59.6 29 80.8l14.3 38.8h58.8l14.3-38.8c7.8-21.2 20.8-57.5 29-80.8l14.7-41.6h94.2v161.2l31.8 1.2 31.4 1.2V629.6h73.4v-36.7h-73.4v-102h73.4zm-460 102.5h-39.6v-103h20.2c15.2 0 21 1.6 23.1 7 1.6 4.1 9.1 23.9 16.5 44.5 7.4 20.2 14.8 40.4 16.5 44.1 2.9 6.6-.4 7.4-36.7 7.4zm202.4-49.5-17.7 47.4h-85.7L479.8 546c-9.9-25.1-17.7-47.8-17.7-50.7-.4-3.7 17.7-4.9 77.9-4.9 43.3 0 78.3 1.2 78.3 2.9 0 2-8.2 24.7-17.7 50.6zm120.7 49.5h-39.6c-36.3 0-39.6-.8-36.7-7.4 1.6-3.7 9.1-23.9 16.5-44.1 7.4-20.6 14.8-40.4 16.5-44.5 2.1-5.4 7.8-7 23.1-7h20.2v103z" class="st0"/><path d="M418.4 541.9c-7.4-20.6-14.8-40.4-16.5-44.5-2.1-5.4-7.8-7-23.1-7h-20.2v103h39.6c36.3 0 39.6-.8 36.7-7.4-1.6-3.7-9.1-23.9-16.5-44.1zM540 490.4c-60.2 0-78.3 1.2-77.9 4.9 0 2.9 7.8 25.6 17.7 50.7l17.3 45.3h85.7l17.7-47.4c9.5-26 17.7-48.6 17.7-50.7.1-1.6-34.9-2.8-78.2-2.8zm138.1 7c-1.6 4.1-9.1 23.9-16.5 44.5-7.4 20.2-14.8 40.4-16.5 44.1-2.9 6.6.4 7.4 36.7 7.4h39.6v-103h-20.2c-15.3 0-21.1 1.6-23.1 7z" class="st1"/></svg>