<svg xmlns="http://www.w3.org/2000/svg" viewBox="0 0 1080 1080"><style>.st1{fill:#f8f2ea}</style><circle cx="540" cy="540" r="537.5" fill="#fff"/><path d="M540 25C255.632 25 25 255.632 25 540s230.632 515 515 515 515-230.632 515-515S823.976 25 540 25zm318.492 343.595c0 16.866-6.668 31.379-12.159 45.107-13.336 31.379-33.732 56.481-59.619 74.524-11.375 8.629-22.749 13.336-36.87 13.336v250.636c0 10.198-1.177 20.396-4.314 30.202-10.198 32.555-30.202 57.266-58.442 74.524-3.53 1.569-5.491 3.53-6.276 6.276-32.555 21.573-23.534 16.866-77.27 30.202-1.961-1.177-3.922-1.569-6.668-1.569H470.183l-9.021-1.177-5.491-2.353c-56.481-10.982-94.528-46.283-111.394-103.941-3.53-10.198-4.315-22.749-4.315-36.87V505.093s-1.177 0-2.353-1.177c-41.577-21.573-69.817-55.305-85.506-102.765-3.53-9.021-5.491-19.219-6.668-29.417-1.177-10.198 2.353-20.396 9.021-27.064 6.668-6.668 16.866-10.982 27.064-10.982h87.86v-39.615c0-32.555 19.219-60.796 48.637-70.602 22.749-7.845 46.283-4.314 65.11 9.021 18.043 13.336 29.417 33.732 30.202 56.481v43.537h80.015v-13.336c0-12.159 0-24.711 1.177-36.87 1.177-29.417 24.711-55.305 54.128-61.973l7.06-1.177h15.689c29.025 3.138 54.128 23.142 62.365 51.775 2.353 6.668 2.353 13.336 3.53 22.749v38.438h86.683c10.982 0 21.573 3.53 28.241 10.198 5.491 6.277 7.452 14.906 6.275 26.281z" class="st1"/><path d="M690.617 715.328c-36.085-10.982-68.641-32.555-97.666-63.149-22.749-22.749-40.4-50.598-55.305-82.369-16.082-34.909-24.711-69.817-28.241-105.903-1.177-13.336-1.177-28.241-1.177-40.4v-16.866H330.94c12.159 17.258 27.848 29.417 47.46 34.909 23.534 7.845 28.241 24.711 28.241 34.909v261.226c0 27.064 10.198 48.637 30.202 63.934 12.159 9.021 28.241 13.336 48.637 13.336h129.829c13.336 0 23.534-2.353 32.555-5.491 22.749-10.198 36.87-27.064 41.577-51.775 2.353-10.198 2.353-20.396 1.177-31.379l-.001-10.982zM460.769 612.171c-16.082-1.177-27.064-13.336-27.064-29.417-1.177-16.866 13.336-28.241 27.064-28.241 16.082 0 28.241 13.336 28.241 29.417 0 16.081-13.336 28.241-28.241 28.241z" class="st1"/><path d="M460.769 554.513c-13.336 0-28.241 10.982-27.064 28.241 0 16.081 10.982 28.241 27.064 29.417 14.905 0 28.241-12.159 28.241-28.241s-12.159-29.417-28.241-29.417z"/><path d="M821.622 330.156h-86.683v-38.438c-1.177-9.021-1.177-16.081-3.53-22.749-8.237-29.025-33.34-49.029-62.365-51.775h-15.689l-7.06 1.177c-29.417 6.668-52.951 32.555-54.128 61.973-1.177 12.159-1.177 24.711-1.177 36.87v13.336h-80.015v-43.537c-1.177-22.749-12.159-42.753-30.202-56.481-19.219-13.336-42.753-16.866-65.11-9.021-29.417 10.198-48.637 38.046-48.637 70.602v40.399h-87.86c-10.198 0-20.396 4.314-27.064 10.982-6.668 6.668-10.198 16.866-9.021 27.064 1.177 10.198 3.53 20.396 6.668 29.417 16.082 47.46 43.93 81.192 85.506 102.765 1.177 1.177 2.353 1.177 2.353 1.177v242.399c0 14.905 1.177 27.064 4.315 36.87 16.866 57.266 55.305 92.174 111.394 103.941l5.491 2.353 9.021 1.177H594.52c2.746 0 4.707.392 6.668 1.569 53.736-13.336 44.322-8.629 77.27-30.202.784-3.138 2.746-4.707 6.276-6.276 28.241-16.866 48.637-41.576 58.443-74.524 3.53-10.198 4.314-20.396 4.314-30.202V500.386c14.905 0 25.495-4.707 36.87-13.336 25.887-18.043 46.283-42.753 59.619-74.524 5.491-13.336 12.159-28.241 12.159-45.107 1.177-10.982-2.353-21.573-9.021-28.241-5.492-7.061-14.513-9.022-25.496-9.022zM641.98 292.11c0-4.314 1.177-9.021 2.353-12.159 3.53-6.668 13.336-10.982 20.396-10.198 10.198 1.177 16.866 9.021 16.866 18.043v40.4c0 1.177-1.177 2.353-1.177 4.314h-36.87c0-2.353-1.177-4.314-1.177-6.668-.391-19.22-.391-13.728-.391-33.732zm5.099 262.403c16.082 0 28.241 13.336 28.241 29.417 0 16.081-13.336 28.241-28.241 28.241-16.081-1.177-27.064-13.336-27.064-29.417-1.176-17.259 13.336-28.241 27.064-28.241zM414.878 292.11c0-4.314 1.177-9.021 2.353-12.159 3.53-6.668 13.336-10.982 20.396-10.198 10.198 2.353 18.043 9.021 18.043 19.219v40.4s-1.177 1.177-2.353 3.53h-36.87c0-2.353-1.177-4.314-1.177-6.668-.392-19.612-.784-14.12-.392-34.124zM689.44 758.473c-4.315 24.711-19.219 41.576-41.577 51.775-9.021 3.53-19.219 5.491-32.555 5.491H485.479c-20.396 0-36.085-4.314-48.637-13.336-20.396-16.081-30.202-36.87-30.202-63.934V477.243c0-10.198-4.315-27.064-28.241-34.909-20.004-5.491-35.301-17.258-47.46-34.909h177.289v16.866c0 12.159 0 27.064 1.177 40.4 3.53 36.085 12.159 70.602 28.241 105.902 14.905 31.379 32.555 59.619 55.305 82.369 29.417 30.202 61.973 51.775 97.666 63.149v10.982c1.177 10.984 1.177 21.182-1.177 31.38z"/><path d="M647.079 612.171c14.905 0 28.241-12.159 28.241-28.241 0-16.081-12.159-29.417-28.241-29.417-13.336 0-28.241 10.982-27.064 28.241 0 15.689 10.983 28.24 27.064 29.417zM453.317 332.509c1.177-2.353 2.353-3.53 2.353-3.53v-40.4c0-10.198-7.845-16.866-18.043-19.219-6.668-1.177-16.866 3.53-20.396 10.198-1.177 3.53-2.353 7.845-2.353 12.159v33.732c0 2.353 1.177 4.314 1.177 6.668 12.159.392 24.318.392 37.262.392zm227.494 0c0-2.353 1.177-3.53 1.177-4.314v-40.4c0-9.021-6.668-16.866-16.866-18.043-6.668-1.177-16.866 3.53-20.396 10.198-1.177 3.53-2.353 7.845-2.353 12.159v33.732c0 2.353 1.177 4.314 1.177 6.668h37.261z" class="st1"/></svg>