<svg xmlns="http://www.w3.org/2000/svg" viewBox="0 0 1080 1080"><style>.st0{fill:#fff}</style><path d="M540 2.5C243.1 2.5 2.5 243.1 2.5 540s240.6 537.5 537.5 537.5 537.5-240.6 537.5-537.5S836.9 2.5 540 2.5zm0 1052.5c-284.4 0-515-230.6-515-515S255.6 25 540 25s515 230.6 515 515-230.6 515-515 515z" class="st0"/><path fill="#d17600" d="M540 25C255.6 25 25 255.6 25 540s230.6 515 515 515 515-230.6 515-515S824.4 25 540 25z"/><path d="M245.401 245.29h588.1v155.5h-588.1zm0 217.4h588.1v155.5h-588.1zm0 216.3h588.1v155.5h-588.1z" class="st0"/></svg>