<svg xmlns="http://www.w3.org/2000/svg" xml:space="preserve" x="0" y="0" version="1.1" viewBox="0 0 1080 1080"><style>.st4,.st5{fill-rule:evenodd;clip-rule:evenodd;fill:#4f2c13}.st5{opacity:.962;fill:#ffb2b2;enable-background:new}</style><circle cx="540" cy="540" r="537.5" fill="#fff"/><path fill="#fdb0ae" fill-rule="evenodd" d="M25 540C25 255.6 255.6 25 540 25s515 230.6 515 515-230.6 515-515 515S25 824.4 25 540z" clip-rule="evenodd"/><path fill="#d59361" fill-rule="evenodd" stroke="#472d1d" stroke-width="40.001" d="M540 240c63.9 0 121.8 8.1 164.2 21 23.4 7.1 42.3 15.8 55.6 25.3 18.1 12.9 26.6 27.7 27.5 42.1l.1 420.4c0 14.8-7.6 29.9-25.2 43.2-13 9.8-31.9 18.9-55.5 26.3C664.1 831.6 605.2 840 540 840c-63.9 0-121.8-8.1-164.2-21-23.4-7.1-42.3-15.8-55.6-25.3-18.1-12.9-26.6-27.7-27.5-42.1l-.1-421.2c1-14.9 9.5-29.9 27-42.9 13.2-9.8 32.1-18.8 55.3-26.1C417.4 248.2 475.7 240 540 240z" clip-rule="evenodd"/><ellipse cx="540" cy="331.3" fill="#ffc69b" fill-rule="evenodd" clip-rule="evenodd" rx="227.5" ry="71.3"/><ellipse cx="474.3" cy="514.5" class="st4" rx="20.2" ry="40.7"/><ellipse cx="605.7" cy="514.5" class="st4" rx="20.2" ry="40.7"/><ellipse cx="423.7" cy="616.4" class="st5" rx="30.3" ry="30.5"/><ellipse cx="656.3" cy="616.4" class="st5" rx="30.3" ry="30.5"/></svg>