<svg width="24" height="24" viewBox="0 0 24 24" fill="none" xmlns="http://www.w3.org/2000/svg">
<path d="M16.5 24C20.6421 24 24 20.6421 24 16.5C24 12.3579 20.6421 9 16.5 9C12.3579 9 9 12.3579 9 16.5C9 20.6421 12.3579 24 16.5 24Z" fill="#FAE3AC"/>
<path fill-rule="evenodd" clip-rule="evenodd" d="M16.5 23.375C20.297 23.375 23.375 20.297 23.375 16.5C23.375 12.703 20.297 9.625 16.5 9.625C12.703 9.625 9.625 12.703 9.625 16.5C9.625 20.297 12.703 23.375 16.5 23.375ZM24 16.5C24 20.6421 20.6421 24 16.5 24C12.3579 24 9 20.6421 9 16.5C9 12.3579 12.3579 9 16.5 9C20.6421 9 24 12.3579 24 16.5Z" fill="white"/>
<path d="M16.6225 13.6036L18.5169 15.498C18.5853 15.5665 18.6949 15.5665 18.7634 15.498L19.763 14.4983C19.8315 14.4299 19.8315 14.3203 19.763 14.2518L16.6225 11.1113C16.554 11.0428 16.4445 11.0428 16.376 11.1113L13.2354 14.2518C13.167 14.3203 13.167 14.4299 13.2354 14.4983L14.2351 15.498C14.3036 15.5665 14.4131 15.5665 14.4816 15.498L16.376 13.6036C16.4445 13.5352 16.554 13.5352 16.6225 13.6036Z" fill="#F3BA2F"/>
<path d="M12.1099 15.3771L11.1102 16.3768C11.0417 16.4453 11.0417 16.5548 11.1102 16.6233L12.1099 17.623C12.1783 17.6914 12.2879 17.6914 12.3564 17.623L13.356 16.6233C13.4245 16.5548 13.4245 16.4453 13.356 16.3768L12.3564 15.3771C12.2879 15.3086 12.1783 15.3086 12.1099 15.3771Z" fill="#F3BA2F"/>
<path d="M16.6225 21.8887L19.763 18.7481C19.8315 18.6797 19.8315 18.5701 19.763 18.5016L18.7634 17.5042C18.6949 17.4358 18.5853 17.4358 18.5169 17.5042L16.6225 19.3986C16.554 19.4671 16.4445 19.4671 16.376 19.3986L14.4816 17.5042C14.4131 17.4358 14.3036 17.4358 14.2351 17.5042L13.2354 18.5016C13.167 18.5701 13.167 18.6797 13.2354 18.7481L16.376 21.8887C16.4445 21.9572 16.554 21.9572 16.6225 21.8887Z" fill="#F3BA2F"/>
<path d="M20.6414 15.3771L19.6417 16.3768C19.5732 16.4452 19.5732 16.5548 19.6417 16.6233L20.6414 17.623C20.7098 17.6914 20.8194 17.6914 20.8879 17.623L21.8875 16.6233C21.956 16.5548 21.956 16.4452 21.8875 16.3768L20.8879 15.3771C20.8194 15.3109 20.7098 15.3109 20.6414 15.3771Z" fill="#F3BA2F"/>
<path d="M17.6406 16.3767L16.6227 15.3588C16.5542 15.2903 16.4446 15.2903 16.3762 15.3588L15.3582 16.3767C15.2898 16.4452 15.2898 16.5548 15.3582 16.6232L16.3762 17.6412C16.4446 17.7096 16.5542 17.7096 16.6227 17.6412L17.6406 16.6232C17.7091 16.5548 17.7091 16.4452 17.6406 16.3767Z" fill="#F3BA2F"/>
<path d="M7.5 15C11.6421 15 15 11.6421 15 7.5C15 3.35786 11.6421 0 7.5 0C3.35786 0 0 3.35786 0 7.5C0 11.6421 3.35786 15 7.5 15Z" fill="#9590C5"/>
<path d="M10.7886 10.7336L10.7899 10.735C10.7169 10.7626 10.6453 10.7901 10.5751 10.8149C10.4677 10.8548 10.3602 10.8906 10.2528 10.9251C10.4236 11.7266 10.8326 12.3822 11.1604 12.8009C11.2458 12.9097 11.3284 13.0088 11.4069 13.097C11.356 12.5901 11.2706 12.1301 11.1838 11.75C11.4166 12.137 11.6108 12.5667 11.6824 13.0006C11.8518 12.8766 12.0157 12.743 12.1754 12.6039C11.8931 11.7404 11.2182 10.9375 10.8381 10.5353C10.8354 10.6538 10.8216 10.7212 10.8216 10.7212C10.8092 10.724 10.7996 10.7281 10.7886 10.7336Z" fill="#E7E5EA"/>
<path d="M5.32902 11.122C5.09626 12.1632 4.53435 12.9813 4.07849 13.5046C5.08938 14.0596 6.25038 14.375 7.48438 14.375C8.69772 14.375 9.83944 14.0706 10.8379 13.5321C10.3766 13.0088 9.79813 12.1783 9.56124 11.1179C7.84246 11.5283 6.32751 11.3547 5.32902 11.122Z" fill="#E7E5EA"/>
<path d="M3.48584 13.0969C3.56434 13.0088 3.64835 12.9096 3.73374 12.7994C4.06014 12.3821 4.46918 11.7307 4.63996 10.9319C4.56283 10.9058 4.49121 10.8823 4.42786 10.8603C4.32044 10.8245 4.2323 10.7901 4.16481 10.7639L4.16619 10.7611C4.10559 10.735 4.07391 10.7212 4.07391 10.7212C4.07391 10.7212 4.06565 10.6813 4.06014 10.6096C3.67314 11.0311 3.0589 11.7899 2.79309 12.6039C2.95009 12.743 3.11399 12.8752 3.28614 13.0005C3.34536 12.6452 3.48446 12.294 3.66212 11.9676C3.59326 12.3009 3.52991 12.6838 3.48584 13.0969Z" fill="#E7E5EA"/>
<path d="M7.44844 10.4389C5.89906 10.4389 4.29734 10.1731 4.20231 9.72684C4.05357 10.129 4.04944 10.4499 4.06184 10.6083C4.06597 10.6799 4.07561 10.7198 4.07561 10.7198C4.07561 10.7198 4.10728 10.735 4.16788 10.7598C4.22848 10.7845 4.31662 10.819 4.42956 10.8603C4.49153 10.8837 4.56315 10.9071 4.64165 10.9319C4.4695 11.7307 4.06183 12.3821 3.73543 12.8008C3.65004 12.9096 3.56741 13.0088 3.48753 13.0983C3.48615 13.1121 3.48478 13.1258 3.4834 13.1396C3.67621 13.2718 3.87453 13.3944 4.08112 13.506C4.53698 12.9812 5.09751 12.1645 5.33164 11.1233C6.33151 11.3547 7.84509 11.5296 9.56662 11.1192C9.80351 12.1797 10.3806 13.0102 10.8433 13.5335C11.0416 13.4275 11.2344 13.3104 11.419 13.1864C11.4162 13.1561 11.4135 13.1258 11.4094 13.0955C11.3309 13.0074 11.2468 12.9096 11.1628 12.7994C10.8351 12.3794 10.426 11.7266 10.2552 10.9237C10.3627 10.8892 10.4701 10.852 10.5775 10.8135C10.6491 10.7873 10.7194 10.7598 10.7924 10.7322C10.8034 10.7281 10.813 10.7226 10.824 10.7198C10.824 10.7198 10.8378 10.651 10.8406 10.5339C10.8447 10.359 10.824 10.0725 10.696 9.72821C10.594 10.1744 8.99507 10.4389 7.44844 10.4389Z" fill="#635DA8"/>
<path d="M4.26709 9.68415C4.26709 10.0147 5.54516 10.3686 7.44849 10.3686C9.35182 10.3686 10.6299 10.0133 10.6299 9.68415C10.6299 9.58085 10.5073 9.47618 10.2828 9.38116C9.49505 9.91414 8.52824 10.2282 7.4843 10.2282C6.42796 10.2282 5.45151 9.90726 4.6596 9.36325C4.40619 9.46379 4.26709 9.57534 4.26709 9.68415Z" fill="#635DA8"/>
<path d="M10.6287 9.68419C10.6287 10.0147 9.35065 10.3687 7.44732 10.3687C5.54399 10.3687 4.26592 10.0133 4.26592 9.68419C4.26592 9.57539 4.40502 9.46245 4.65843 9.36329C4.63501 9.34814 4.61298 9.33162 4.58957 9.31647C4.34304 9.42114 4.19568 9.54509 4.19568 9.68419C4.19568 9.69796 4.19706 9.71311 4.19981 9.72688C4.29484 10.1745 5.89518 10.4389 7.44594 10.4389C8.99395 10.4389 10.5915 10.1731 10.6921 9.72826C10.6948 9.71311 10.6962 9.69934 10.6962 9.68419C10.6962 9.55197 10.5667 9.43629 10.3478 9.33575C10.3244 9.3509 10.3023 9.36742 10.2789 9.38257C10.5061 9.47623 10.6287 9.5809 10.6287 9.68419Z" fill="#9590C5"/>
<path d="M13.4018 5.60478C13.4018 5.50424 13.3908 5.40508 13.3715 5.3073C13.3674 5.28251 13.3605 5.26047 13.355 5.23568C13.3371 5.16545 13.3137 5.09658 13.2847 5.0291C13.2489 4.94096 13.2007 4.85832 13.1484 4.77844C13.0961 4.69856 13.0341 4.62695 12.968 4.56084C12.9019 4.49473 12.8275 4.43414 12.7504 4.38042C12.6719 4.32671 12.5865 4.28126 12.4997 4.24408C12.4102 4.20552 12.3179 4.17797 12.2229 4.15731C12.1334 4.13941 12.0425 4.12839 11.9502 4.12701C12.1554 4.62695 12.267 5.16958 12.267 5.73837C12.267 6.20388 12.1912 6.6501 12.0521 7.07291C12.11 7.06878 12.1664 7.05914 12.2215 7.04812C12.3165 7.02884 12.4088 6.99992 12.4983 6.96135C12.5865 6.92554 12.6691 6.87734 12.749 6.82501C12.8289 6.77267 12.9005 6.7107 12.9666 6.64459C13.0327 6.57848 13.0933 6.50411 13.147 6.42699C13.2007 6.34849 13.2462 6.2631 13.2834 6.17633C13.3123 6.11023 13.3343 6.03999 13.3536 5.96975C13.3591 5.94633 13.366 5.92292 13.3701 5.89813C13.3922 5.80448 13.4018 5.70394 13.4018 5.60478ZM12.7311 6.26172C12.581 6.26172 12.4598 6.14052 12.4598 5.99041C12.4598 5.84029 12.581 5.71909 12.7311 5.71909C12.8812 5.71909 13.0024 5.84029 13.0024 5.99041C13.0024 6.14052 12.8784 6.26172 12.7311 6.26172ZM12.7311 5.48772C12.581 5.48772 12.4598 5.36652 12.4598 5.2164C12.4598 5.06628 12.581 4.94509 12.7311 4.94509C12.8812 4.94509 13.0024 5.06628 13.0024 5.2164C12.9996 5.36652 12.8784 5.48772 12.7311 5.48772Z" fill="#635DA8"/>
<path d="M12.2229 4.15872C12.3179 4.178 12.4102 4.20692 12.4997 4.24548C12.5879 4.28129 12.6705 4.32949 12.7504 4.38183C12.8302 4.43416 12.9019 4.49614 12.968 4.56225C13.0341 4.62835 13.0947 4.70272 13.1484 4.77985C13.2021 4.85835 13.2475 4.94374 13.2847 5.0305C13.3137 5.09661 13.3357 5.16685 13.355 5.23709C13.3536 5.22745 13.3508 5.22056 13.3495 5.21092C13.3481 5.20541 13.3467 5.19715 13.344 5.19164C13.3398 5.17511 13.3329 5.15859 13.3288 5.14206C13.3274 5.13655 13.3247 5.12829 13.3233 5.12278C13.3178 5.10625 13.3109 5.08972 13.3054 5.07458C13.3026 5.06907 13.3013 5.06218 13.2971 5.05667C13.2944 5.04841 13.2916 5.04014 13.2875 5.03188C13.2847 5.02224 13.2792 5.01535 13.2765 5.00571C13.2737 5.00158 13.2723 4.9947 13.2682 4.99056C13.2599 4.97404 13.2531 4.95889 13.2448 4.94236C13.242 4.93685 13.2393 4.92997 13.2352 4.92583C13.2269 4.91068 13.2186 4.89554 13.2104 4.88039C13.2076 4.87488 13.2049 4.86937 13.2007 4.86386C13.1911 4.84871 13.1828 4.83356 13.1732 4.81841C13.1704 4.81428 13.1677 4.80877 13.1635 4.80326C13.1594 4.795 13.1539 4.78811 13.1484 4.77985C13.1443 4.77158 13.1374 4.7647 13.1319 4.75644C13.1291 4.7523 13.1264 4.74679 13.1222 4.74404C13.1112 4.72889 13.1016 4.71512 13.0905 4.69997C13.0878 4.69584 13.0823 4.69033 13.0795 4.6862C13.0685 4.67242 13.0561 4.65865 13.0465 4.64488C13.0423 4.64075 13.0382 4.63524 13.0341 4.63111C13.0217 4.61733 13.0093 4.60356 12.9983 4.59117C12.9955 4.58704 12.99 4.5829 12.9872 4.57877C12.9817 4.57326 12.9749 4.565 12.9693 4.55949C12.9638 4.55398 12.9556 4.5471 12.9501 4.54021C12.9459 4.53746 12.9418 4.53195 12.9377 4.52919C12.9239 4.5168 12.9101 4.5044 12.8964 4.49338C12.8922 4.49063 12.8867 4.48512 12.8826 4.48237C12.8688 4.46997 12.855 4.45895 12.8413 4.44931C12.8371 4.44656 12.8316 4.44105 12.8275 4.43829C12.8137 4.42728 12.7986 4.41764 12.7848 4.40662C12.7807 4.40386 12.7752 4.40111 12.771 4.39698C12.7628 4.39285 12.7559 4.38596 12.7476 4.38183C12.7393 4.3777 12.7325 4.37219 12.7242 4.36806C12.7201 4.3653 12.7132 4.36255 12.709 4.35704C12.6939 4.3474 12.6787 4.33913 12.6636 4.32949C12.6581 4.32674 12.6526 4.32398 12.6471 4.31985C12.6319 4.31021 12.6168 4.30333 12.6016 4.29506C12.5961 4.29231 12.5892 4.28955 12.5851 4.28542C12.5699 4.27716 12.5534 4.27027 12.5383 4.26201C12.5328 4.25925 12.5273 4.25788 12.5217 4.25375C12.5135 4.25099 12.5052 4.24548 12.497 4.24273C12.4887 4.23997 12.4804 4.23722 12.4722 4.23309C12.4667 4.23033 12.4598 4.22896 12.4529 4.22482C12.4377 4.21932 12.4212 4.21243 12.4047 4.20692C12.3964 4.20417 12.3909 4.20279 12.384 4.19866C12.3675 4.19453 12.3523 4.18764 12.3358 4.18351C12.3276 4.18213 12.322 4.17938 12.3152 4.178C12.2986 4.17387 12.2821 4.16836 12.2656 4.1656C12.2601 4.16423 12.2518 4.16285 12.2463 4.16147C12.2394 4.16147 12.2325 4.16009 12.2229 4.15872C12.1334 4.14081 12.0425 4.1298 11.9502 4.12842C12.0425 4.13117 12.1334 4.14081 12.2229 4.15872Z" fill="#A47C2C"/>
<path d="M13.1495 6.42837C13.0958 6.50687 13.0352 6.57986 12.969 6.64597C12.9029 6.71208 12.8286 6.77267 12.7514 6.82639C12.6729 6.8801 12.5876 6.92555 12.5008 6.96273C12.4113 7.00129 12.319 7.02884 12.224 7.0495C12.1675 7.06189 12.1124 7.06878 12.0546 7.07429C12.1124 7.07016 12.1689 7.06051 12.224 7.0495C12.2336 7.04812 12.2405 7.04537 12.2501 7.04399C12.2584 7.04261 12.2639 7.04123 12.2694 7.03986C12.2859 7.03572 12.3025 7.03159 12.319 7.02746C12.3273 7.02608 12.3341 7.02333 12.3397 7.02195C12.3562 7.01782 12.3713 7.01231 12.3865 7.0068C12.3947 7.00405 12.4003 7.00267 12.4071 6.99854C12.4237 6.99303 12.4388 6.98752 12.454 6.98201C12.4595 6.97926 12.4677 6.97788 12.4732 6.97375C12.4815 6.97099 12.4898 6.96824 12.498 6.96411C12.5063 6.96135 12.5146 6.95584 12.5228 6.95309C12.5283 6.95034 12.5338 6.94896 12.5394 6.94483C12.5545 6.93656 12.571 6.92968 12.5862 6.92141C12.5917 6.91866 12.5986 6.91591 12.6041 6.91177C12.6192 6.90351 12.6344 6.89525 12.6495 6.88698C12.655 6.88423 12.6619 6.88147 12.6661 6.87597C12.6812 6.86633 12.6964 6.85806 12.7101 6.84842C12.7156 6.84567 12.7211 6.84291 12.7267 6.8374C12.7349 6.83327 12.7418 6.82776 12.7501 6.82363C12.7583 6.8195 12.7652 6.81261 12.7707 6.80848C12.7749 6.80573 12.7804 6.80297 12.7845 6.79746C12.7983 6.78645 12.8134 6.77681 12.8272 6.76579C12.8313 6.76303 12.8368 6.75752 12.841 6.75477C12.8547 6.74375 12.8685 6.73136 12.8823 6.72172C12.8864 6.71758 12.8919 6.71345 12.8961 6.70932C12.9098 6.69693 12.9236 6.68453 12.936 6.67351C12.9401 6.67076 12.9443 6.66525 12.9484 6.66112C12.9539 6.65561 12.9622 6.64872 12.9677 6.64321C12.9732 6.63771 12.9801 6.62944 12.9856 6.62393C12.9897 6.6198 12.9938 6.61567 12.998 6.61154C13.0104 6.59777 13.0228 6.58537 13.0338 6.5716C13.0379 6.56747 13.042 6.56196 13.0462 6.55783C13.0586 6.54405 13.0696 6.53028 13.0792 6.51651C13.082 6.51238 13.0875 6.50687 13.0902 6.50274C13.1013 6.48896 13.1109 6.47382 13.1219 6.45867C13.1247 6.45453 13.1274 6.44903 13.1316 6.44489C13.1398 6.44352 13.1453 6.43801 13.1495 6.42837C13.155 6.4201 13.1605 6.41322 13.1646 6.40495C13.1674 6.40082 13.1701 6.39531 13.1743 6.3898C13.1839 6.37465 13.1922 6.35951 13.2018 6.34436C13.2046 6.33885 13.2073 6.33196 13.2128 6.32783C13.2225 6.31268 13.2293 6.29753 13.2376 6.28238C13.2404 6.27687 13.2431 6.26999 13.2472 6.26448C13.2555 6.24933 13.2624 6.2328 13.2707 6.21765C13.2734 6.21352 13.2748 6.20663 13.2789 6.2025C13.2817 6.19424 13.2872 6.18597 13.2899 6.17771C13.2927 6.16945 13.2955 6.16118 13.2996 6.15292C13.3023 6.14741 13.3037 6.14053 13.3078 6.13502C13.3134 6.11849 13.3202 6.10334 13.3257 6.08681C13.3285 6.08131 13.3299 6.07304 13.3313 6.06753C13.3368 6.05101 13.3423 6.03448 13.3464 6.01795C13.3478 6.01244 13.3505 6.00418 13.3519 5.99867C13.3547 5.98903 13.356 5.98214 13.3574 5.9725C13.3395 6.04274 13.3161 6.1116 13.2872 6.17909C13.2486 6.26723 13.2032 6.34986 13.1495 6.42837Z" fill="#A47C2C"/>
<path d="M13.3725 5.3073C13.3711 5.29766 13.3684 5.2894 13.367 5.27976C13.3656 5.27425 13.3643 5.26736 13.3629 5.26185C13.3615 5.25221 13.3587 5.24533 13.3574 5.23569C13.3615 5.26048 13.367 5.28389 13.3725 5.3073C13.3918 5.40371 13.4014 5.50425 13.4014 5.60478C13.4014 5.70532 13.3904 5.80448 13.3711 5.90227C13.367 5.92706 13.3601 5.94909 13.3546 5.97388C13.356 5.96424 13.3587 5.95736 13.3601 5.94772C13.3615 5.94221 13.3629 5.93532 13.3643 5.92981C13.3656 5.92017 13.3684 5.91191 13.3698 5.90227C13.389 5.80586 13.4001 5.70532 13.4001 5.60478C13.4028 5.50425 13.3918 5.40509 13.3725 5.3073Z" fill="#A47C2C"/>
<path d="M12.7305 6.26171C12.8804 6.26171 13.0019 6.14024 13.0019 5.9904C13.0019 5.84056 12.8804 5.71909 12.7305 5.71909C12.5807 5.71909 12.4592 5.84056 12.4592 5.9904C12.4592 6.14024 12.5807 6.26171 12.7305 6.26171Z" fill="#E7E5EA"/>
<path d="M12.7305 5.48773C12.8804 5.48773 13.0019 5.36626 13.0019 5.21641C13.0019 5.06657 12.8804 4.9451 12.7305 4.9451C12.5807 4.9451 12.4592 5.06657 12.4592 5.21641C12.4592 5.36626 12.5807 5.48773 12.7305 5.48773Z" fill="#E7E5EA"/>
<path d="M2.46837 4.24548C2.38023 4.28129 2.29759 4.32949 2.21771 4.38182C2.13921 4.43554 2.06622 4.49613 2.00011 4.56224C1.934 4.62835 1.87341 4.70272 1.81969 4.77984C1.76598 4.85835 1.72053 4.94373 1.68335 5.0305C1.64479 5.12002 1.61724 5.21229 1.59658 5.30732C1.5773 5.40373 1.56628 5.50427 1.56628 5.6048C1.56628 5.70534 1.5773 5.8045 1.59658 5.90229C1.61586 5.99731 1.64479 6.08959 1.68335 6.17911C1.71916 6.26725 1.76736 6.34988 1.81969 6.42976C1.87341 6.50827 1.934 6.58126 2.00011 6.64737C2.06622 6.71347 2.14059 6.77407 2.21771 6.82778C2.29622 6.8815 2.3816 6.92694 2.46837 6.96413C2.55789 7.00269 2.65016 7.03024 2.74519 7.05089C2.80166 7.06329 2.85675 7.07018 2.91459 7.07568C2.77549 6.65425 2.69974 6.20528 2.69974 5.74115C2.69974 5.17235 2.8113 4.62973 3.01651 4.12979C2.92423 4.13117 2.83334 4.14219 2.74382 4.16009C2.65154 4.17799 2.55789 4.20692 2.46837 4.24548ZM2.23837 6.26174C2.08825 6.26174 1.96706 6.14055 1.96706 5.99043C1.96706 5.84031 2.08825 5.71911 2.23837 5.71911C2.38849 5.71911 2.50969 5.84031 2.50969 5.99043C2.50969 6.14055 2.38849 6.26174 2.23837 6.26174ZM2.23837 5.48774C2.08825 5.48774 1.96706 5.36654 1.96706 5.21643C1.96706 5.06631 2.08825 4.94511 2.23837 4.94511C2.38849 4.94511 2.50969 5.06631 2.50969 5.21643C2.50969 5.36654 2.38849 5.48774 2.23837 5.48774Z" fill="#635DA8"/>
<path d="M2.74566 7.0509C2.65063 7.03162 2.55836 7.0027 2.46884 6.96413C2.3807 6.92833 2.29806 6.88012 2.21818 6.82779C2.13968 6.77408 2.06669 6.71348 2.00058 6.64737C1.93447 6.58126 1.87388 6.50689 1.82016 6.42977C1.76645 6.35127 1.721 6.26588 1.68382 6.17911C1.64526 6.08959 1.61771 5.99732 1.59705 5.90229C1.57777 5.80588 1.56675 5.70535 1.56675 5.60481C1.56675 5.50427 1.57777 5.40511 1.59705 5.30733C1.61633 5.2123 1.64526 5.12002 1.68382 5.0305C1.71963 4.94236 1.76783 4.85973 1.82016 4.77985C1.87388 4.70135 1.93447 4.62835 2.00058 4.56225C2.06669 4.49614 2.14106 4.43554 2.21818 4.38183C2.29669 4.32812 2.38207 4.28267 2.46884 4.24548C2.55836 4.20692 2.65063 4.17938 2.74566 4.15872C2.83518 4.14081 2.92608 4.1298 3.01835 4.12842C2.92608 4.1298 2.83518 4.14081 2.74566 4.15872C2.73602 4.16009 2.72914 4.16285 2.7195 4.16423C2.71399 4.1656 2.70572 4.16698 2.70021 4.16836C2.68369 4.17249 2.66716 4.17662 2.65063 4.18075C2.64237 4.18213 2.63686 4.18488 2.62998 4.18626C2.61345 4.19039 2.5983 4.1959 2.58177 4.20141C2.57351 4.20417 2.568 4.20554 2.56111 4.20967C2.54459 4.21518 2.52944 4.22069 2.51429 4.2262C2.50878 4.22896 2.50052 4.23033 2.49501 4.23446C2.48674 4.23722 2.47848 4.23997 2.47022 4.24411C2.46195 4.24824 2.45369 4.25237 2.44543 4.25512C2.43992 4.25788 2.43441 4.25925 2.4289 4.26339C2.41375 4.27165 2.39722 4.27854 2.38207 4.2868C2.37656 4.28955 2.36968 4.29231 2.36417 4.29644C2.34902 4.3047 2.33387 4.31297 2.31872 4.32123C2.31321 4.32398 2.30633 4.32674 2.30219 4.33225C2.28704 4.34189 2.2719 4.35015 2.25812 4.35979C2.25399 4.36255 2.24711 4.3653 2.24297 4.37081C2.23471 4.37494 2.22782 4.38045 2.21956 4.38458C2.2113 4.38871 2.20441 4.3956 2.1989 4.39973C2.19477 4.40249 2.18926 4.40524 2.18513 4.41075C2.17136 4.42177 2.15621 4.43141 2.14244 4.44243C2.1383 4.44518 2.1328 4.45069 2.12729 4.45482C2.11351 4.46584 2.09974 4.47823 2.08597 4.48787C2.08184 4.49201 2.07633 4.49614 2.0722 4.50027C2.05842 4.51267 2.04603 4.52506 2.03226 4.53608C2.02813 4.54021 2.02399 4.54434 2.01986 4.54847C2.01435 4.55398 2.00609 4.56087 2.00058 4.56638C1.99507 4.57189 1.98819 4.58015 1.98268 4.58566C1.97855 4.58979 1.97441 4.59392 1.97028 4.59805C1.95789 4.61183 1.94549 4.62422 1.93447 4.63799C1.93034 4.64212 1.92621 4.64763 1.92208 4.65177C1.91106 4.66554 1.89867 4.67931 1.88903 4.69308C1.88489 4.69721 1.88076 4.70272 1.87663 4.70823C1.86561 4.722 1.85597 4.73715 1.84495 4.75093C1.8422 4.75506 1.83945 4.76057 1.83394 4.7647C1.8298 4.77296 1.82292 4.77985 1.81879 4.78536C1.81466 4.79362 1.80915 4.80051 1.80501 4.80877C1.80226 4.8129 1.79951 4.81979 1.794 4.82392C1.78436 4.83907 1.77609 4.85284 1.76645 4.86799C1.7637 4.8735 1.76094 4.88039 1.75543 4.88589C1.74579 4.90104 1.73891 4.91619 1.73064 4.93134C1.72789 4.93685 1.72514 4.94374 1.721 4.94925C1.71274 4.9644 1.70585 4.98092 1.69759 4.99607C1.69484 5.00158 1.69346 5.00709 1.68933 5.0126C1.68657 5.02086 1.68106 5.02913 1.67831 5.03739C1.67555 5.04565 1.6728 5.05254 1.66867 5.06218C1.66591 5.06769 1.66454 5.07595 1.66041 5.08146C1.6549 5.09661 1.64801 5.11314 1.64388 5.12829C1.64112 5.13655 1.63975 5.14206 1.63562 5.14895C1.63148 5.16409 1.6246 5.18062 1.62047 5.19577C1.61909 5.20403 1.61633 5.21092 1.61496 5.21643C1.61083 5.23296 1.60532 5.24948 1.60256 5.26601C1.60118 5.27152 1.59981 5.27978 1.59843 5.28529C1.59705 5.29493 1.5943 5.30182 1.59292 5.31146C1.57364 5.40786 1.56262 5.5084 1.56262 5.60894C1.56262 5.70948 1.57364 5.80864 1.59292 5.90642C1.5943 5.91606 1.59705 5.92295 1.59843 5.93259C1.59981 5.94085 1.60118 5.94636 1.60256 5.95325C1.60669 5.96977 1.61083 5.9863 1.61496 6.00145C1.61633 6.00971 1.61909 6.0166 1.62047 6.02211C1.6246 6.03726 1.63011 6.05378 1.63562 6.06893C1.63837 6.0772 1.63975 6.08408 1.64388 6.08959C1.64939 6.10474 1.6549 6.12127 1.66041 6.13642C1.66316 6.14193 1.66454 6.15019 1.66867 6.1557C1.67142 6.16396 1.67418 6.17085 1.67831 6.18049C1.68106 6.18875 1.68657 6.19702 1.68933 6.20528C1.69208 6.21079 1.69346 6.21768 1.69759 6.22181C1.70585 6.23696 1.71274 6.25348 1.721 6.26863C1.72376 6.27414 1.72651 6.28103 1.73064 6.28654C1.73891 6.30169 1.74579 6.31684 1.75543 6.33061C1.75819 6.33612 1.76094 6.343 1.76645 6.34851C1.77609 6.36366 1.78436 6.37743 1.794 6.39258C1.79675 6.39809 1.80226 6.4036 1.80501 6.40911C1.80915 6.41737 1.81466 6.42426 1.81879 6.43252C1.82292 6.44079 1.8298 6.44767 1.83394 6.45318C1.83669 6.45731 1.8422 6.46282 1.84495 6.46833C1.85597 6.4821 1.86561 6.49725 1.87663 6.51103C1.88076 6.51516 1.88489 6.52204 1.88903 6.52618C1.90004 6.53995 1.90968 6.55372 1.92208 6.56611C1.92621 6.57025 1.93034 6.57576 1.93447 6.57989C1.94687 6.59366 1.95789 6.60605 1.9689 6.61983C1.97304 6.62396 1.97717 6.62947 1.9813 6.63222C1.98681 6.63773 1.9937 6.64599 1.9992 6.6515C2.00471 6.65701 2.01298 6.6639 2.01849 6.66941C2.02262 6.67354 2.02813 6.67767 2.03088 6.6818C2.04328 6.6942 2.05705 6.70659 2.07082 6.71623C2.07495 6.72036 2.08046 6.7245 2.08459 6.72863C2.09836 6.73965 2.11076 6.75204 2.12453 6.76168C2.12866 6.76581 2.13555 6.76994 2.13968 6.77408C2.15345 6.78509 2.16723 6.79473 2.18238 6.80575C2.18651 6.80851 2.19202 6.81402 2.19753 6.81677C2.20579 6.8209 2.2113 6.82779 2.21818 6.83192C2.22645 6.83605 2.23333 6.84156 2.2416 6.84569C2.24711 6.84845 2.25261 6.85396 2.25812 6.85671C2.27327 6.86635 2.28704 6.87461 2.30219 6.88425C2.3077 6.88701 2.31459 6.89252 2.3201 6.89527C2.33525 6.90354 2.3504 6.9118 2.36417 6.92006C2.36968 6.92282 2.37656 6.92557 2.38207 6.9297C2.39722 6.93797 2.41237 6.94485 2.4289 6.95312C2.43441 6.95587 2.44129 6.95725 2.44543 6.96138C2.45369 6.96413 2.46195 6.96964 2.47022 6.9724C2.47848 6.97515 2.48537 6.97791 2.49501 6.98204C2.50052 6.98479 2.50878 6.98755 2.51429 6.9903C2.52944 6.99581 2.54596 7.0027 2.56111 7.00683C2.56938 7.00958 2.57626 7.01096 2.58177 7.01509C2.59692 7.01922 2.61345 7.02611 2.6286 7.03024C2.63686 7.03162 2.64375 7.03437 2.65201 7.03575C2.66854 7.03988 2.68506 7.04539 2.70021 7.04814C2.70848 7.04952 2.71399 7.0509 2.72087 7.05228C2.72914 7.04677 2.73602 7.04952 2.74566 7.0509C2.80213 7.06329 2.85722 7.07018 2.91506 7.07707C2.8586 7.07018 2.80213 7.06054 2.74566 7.0509Z" fill="#A47C2C"/>
<path d="M2.2386 6.26449C2.38844 6.26449 2.50991 6.14302 2.50991 5.99318C2.50991 5.84333 2.38844 5.72186 2.2386 5.72186C2.08876 5.72186 1.96729 5.84333 1.96729 5.99318C1.96729 6.14302 2.08876 6.26449 2.2386 6.26449Z" fill="#E7E5EA"/>
<path d="M2.2386 5.48773C2.38844 5.48773 2.50991 5.36626 2.50991 5.21641C2.50991 5.06657 2.38844 4.9451 2.2386 4.9451C2.08876 4.9451 1.96729 5.06657 1.96729 5.21641C1.96729 5.36626 2.08876 5.48773 2.2386 5.48773Z" fill="#E7E5EA"/>
<path d="M11.951 4.12979C11.951 4.12841 11.951 4.12841 11.951 4.12979C11.261 2.44681 9.52157 1.25 7.48465 1.25C5.44773 1.25 3.70829 2.44406 3.0183 4.12841C2.81309 4.62834 2.70154 5.17097 2.70154 5.73977C2.70154 6.20527 2.77729 6.6515 2.91639 7.0743C3.21524 7.97639 3.80883 8.7559 4.59247 9.31506C4.61589 9.33158 4.63792 9.34673 4.66133 9.36188C5.45186 9.90589 6.4297 10.2268 7.48603 10.2268C8.52997 10.2268 9.49678 9.91278 10.2832 9.37979C10.3066 9.36464 10.3286 9.34949 10.352 9.33296C11.1495 8.77381 11.7527 7.98603 12.0557 7.07293C12.1948 6.65149 12.2705 6.20252 12.2705 5.73839C12.2691 5.17235 12.1562 4.62834 11.951 4.12979Z" fill="#635DA8"/>
<path d="M11.951 4.12979C11.951 4.12841 11.951 4.12841 11.951 4.12979C11.261 2.44681 9.52157 1.25 7.48465 1.25C5.44773 1.25 3.70829 2.44406 3.0183 4.12841C2.81309 4.62834 2.70154 5.17097 2.70154 5.73977C2.70154 6.20527 2.77729 6.6515 2.91639 7.0743C3.21524 7.97639 3.80883 8.7559 4.59247 9.31506C4.61589 9.33158 4.63792 9.34673 4.66133 9.36188C5.45186 9.90589 6.4297 10.2268 7.48603 10.2268C8.52997 10.2268 9.49678 9.91278 10.2832 9.37979C10.3066 9.36464 10.3286 9.34949 10.352 9.33296C11.1495 8.77381 11.7527 7.98603 12.0557 7.07293C12.1948 6.65149 12.2705 6.20252 12.2705 5.73839C12.2691 5.17235 12.1562 4.62834 11.951 4.12979ZM7.48465 9.0341C4.2702 9.0341 3.40117 7.4861 3.40117 5.57726C3.40117 3.66842 5.23013 2.12179 7.48465 2.12179C9.73918 2.12179 11.5681 3.66979 11.5681 5.57863C11.5681 7.48747 10.6991 9.0341 7.48465 9.0341Z" fill="#E7E5EA"/>
<path d="M11.4065 13.0955C11.4093 13.1258 11.4121 13.1561 11.4162 13.1864C11.5071 13.1258 11.5966 13.0638 11.6834 12.9991C11.6118 12.5653 11.4162 12.1356 11.1848 11.7486C11.2702 12.1287 11.3528 12.5915 11.4065 13.0955Z" fill="#E7E5EA"/>
<path opacity="0.15" d="M11.4065 13.0955C11.4093 13.1258 11.4121 13.1561 11.4162 13.1864C11.5071 13.1258 11.5966 13.0638 11.6834 12.9991C11.6118 12.5653 11.4162 12.1356 11.1848 11.7486C11.2702 12.1287 11.3528 12.5915 11.4065 13.0955Z" fill="#635DA8"/>
<path d="M3.66346 11.9648C3.4858 12.2926 3.3467 12.6452 3.28748 12.9978C3.35083 13.0446 3.41694 13.0914 3.48304 13.1369C3.48442 13.1231 3.4858 13.1093 3.48717 13.0956C3.52987 12.6838 3.59322 12.3009 3.66346 11.9648Z" fill="#E7E5EA"/>
<path opacity="0.15" d="M3.66346 11.9648C3.4858 12.2926 3.3467 12.6452 3.28748 12.9978C3.35083 13.0446 3.41694 13.0914 3.48304 13.1369C3.48442 13.1231 3.4858 13.1093 3.48717 13.0956C3.52987 12.6838 3.59322 12.3009 3.66346 11.9648Z" fill="#635DA8"/>
<path fill-rule="evenodd" clip-rule="evenodd" d="M7.5 14.375C11.297 14.375 14.375 11.297 14.375 7.5C14.375 3.70304 11.297 0.625 7.5 0.625C3.70304 0.625 0.625 3.70304 0.625 7.5C0.625 11.297 3.70304 14.375 7.5 14.375ZM15 7.5C15 11.6421 11.6421 15 7.5 15C3.35786 15 0 11.6421 0 7.5C0 3.35786 3.35786 0 7.5 0C11.6421 0 15 3.35786 15 7.5Z" fill="white"/>
</svg>
