<svg xmlns="http://www.w3.org/2000/svg" viewBox="0 0 1000 1000"><circle cx="500" cy="500" r="500" fill="#635da8"/><circle cx="500" cy="500" r="435.382" fill="#9590c5"/><g transform="translate(-40 -40)"><path fill="none" d="M352.462 759.651c-6.98-2.49-12.391-4.629-16.067-6.153l-.1.213a394.081 394.081 0 0016.167 5.94zm390.356-7.838a563.322 563.322 0 01-13.178 5.002 574.786 574.786 0 0013.228-4.894z"/><path fill="#e7e5ea" d="M742.818 751.813l.05.108a574.786 574.786 0 01-13.228 4.894 560.958 560.958 0 01-19.815 6.815c10.544 49.234 35.67 89.355 55.759 115.125a347.003 347.003 0 0015.154 18.122c-3.208-31.053-8.412-59.368-13.688-82.699 14.301 23.749 26.225 50.172 30.638 76.752a437.639 437.639 0 0030.196-24.352c-17.27-53.061-58.802-102.322-82.044-126.986-.17 7.291-1.04 11.443-1.04 11.443-.661.264-1.321.518-1.982.778zM407.714 775.71c-14.311 63.904-48.74 114.099-76.758 146.273 62.044 34.037 133.281 53.4 209.043 53.4 74.484 0 144.594-18.715 205.895-51.689-28.31-32.131-63.774-83.061-78.306-148.218-105.611 25.151-198.522 14.496-259.874.234zM294.556 896.946a347.374 347.374 0 0015.215-18.191c20.032-25.696 45.074-65.662 55.671-114.703a449.591 449.591 0 01-12.98-4.401 393.728 393.728 0 01-16.167-5.939l.1-.213c-3.738-1.549-5.689-2.462-5.689-2.462s-.509-2.439-.825-6.843c-23.763 25.867-61.51 72.44-77.767 122.386a437.4 437.4 0 0030.196 24.352c3.606-21.721 12.229-43.333 23.066-63.47-4.241 20.512-8.198 44.082-10.82 69.484z"/><path fill="#635da8" d="M537.785 733.748c-95.109 0-193.382-16.299-199.245-43.736-9.096 24.634-9.365 44.341-8.659 54.18.316 4.404.825 6.843.825 6.843s1.951.914 5.689 2.462c3.676 1.523 9.087 3.663 16.067 6.153a445.523 445.523 0 0012.98 4.401c-10.596 49.041-35.639 89.007-55.671 114.703a347.453 347.453 0 01-15.215 18.191c-.086.832-.17 1.665-.253 2.501a435.4 435.4 0 0036.654 22.536c28.018-32.174 62.447-82.369 76.758-146.273 61.351 14.262 154.263 24.917 259.874-.235 14.533 65.157 49.997 116.088 78.306 148.218a435.123 435.123 0 0035.392-21.264 617.557 617.557 0 00-.548-5.551 346.923 346.923 0 01-15.154-18.122c-20.089-25.77-45.216-65.891-55.759-115.125a561.657 561.657 0 0019.815-6.815 565.027 565.027 0 0013.178-5.002c.661-.26 1.321-.514 1.983-.778 0 0 .87-4.151 1.04-11.443.25-10.73-1.022-28.272-8.832-49.47-6.103 27.371-104.243 43.626-199.225 43.626z"/><path fill="#635da8" d="M342.526 687.411c0 20.317 78.46 42.071 195.259 42.071 116.799 0 195.26-21.754 195.26-42.071 0-6.285-7.515-12.706-21.342-18.579-48.288 32.717-107.591 52.01-171.703 52.01-64.85 0-124.778-19.741-173.364-53.147-15.593 6.176-24.11 13.024-24.11 19.716z"/><path fill="#9590c5" d="M733.045 687.411c0 20.317-78.461 42.071-195.26 42.071-116.799 0-195.259-21.754-195.259-42.071 0-6.693 8.517-13.541 24.109-19.716a286.703 286.703 0 01-4.183-2.928c-15.206 6.415-24.193 14.012-24.193 22.644 0 .878.097 1.745.28 2.601 5.863 27.437 104.136 43.736 199.245 43.736 94.982 0 193.122-16.255 199.224-43.625a12.42 12.42 0 00.301-2.712c0-8.097-7.911-15.282-21.441-21.437-1.376.967-2.771 1.912-4.166 2.858 13.828 5.873 21.343 12.295 21.343 18.579z"/><path fill="#635da8" d="M903.184 437.02c0-6.145-.619-12.285-1.84-18.251a90.567 90.567 0 00-.998-4.326l-.007-.029a90.04 90.04 0 00-12.622-28.027 91.195 91.195 0 00-11.059-13.403 91.206 91.206 0 00-13.403-11.059 90.567 90.567 0 00-15.383-8.35 90.117 90.117 0 00-16.999-5.277 91.185 91.185 0 00-16.722-1.821c12.574 30.684 19.484 64.006 19.484 98.846 0 28.526-4.62 56.039-13.197 81.917a90.712 90.712 0 0010.435-1.499 90.117 90.117 0 0016.999-5.277 90.567 90.567 0 0015.383-8.35 91.09 91.09 0 0024.462-24.462 90.567 90.567 0 008.35-15.383 90.268 90.268 0 004.273-12.648l.005-.02c.369-1.436.702-2.88.999-4.33a91.293 91.293 0 001.84-18.251zm-41.254 40.384c-9.172 0-16.607-7.435-16.607-16.607s7.435-16.607 16.607-16.607 16.607 7.435 16.607 16.607-7.436 16.607-16.607 16.607zm0-47.555c-9.172 0-16.607-7.435-16.607-16.607s7.435-16.607 16.607-16.607 16.607 7.435 16.607 16.607-7.436 16.607-16.607 16.607z"/><path fill="#a47c2c" d="M830.873 348.298a90.117 90.117 0 0116.999 5.277 90.567 90.567 0 0115.383 8.35 91.09 91.09 0 0124.462 24.462 90.567 90.567 0 018.35 15.383 90.213 90.213 0 014.272 12.644c-.134-.521-.258-1.045-.402-1.565a89.573 89.573 0 00-3.234-9.573c-.203-.506-.387-1.02-.599-1.522-.219-.517-.466-1.022-.694-1.535a90.447 90.447 0 00-6.759-12.451c-.303-.466-.589-.944-.9-1.405-.318-.471-.662-.925-.989-1.39a90.621 90.621 0 00-6.005-7.635 90.266 90.266 0 00-2.91-3.166c-.389-.404-.764-.821-1.16-1.218-.398-.398-.817-.774-1.222-1.165a91.898 91.898 0 00-6.502-5.696 91.735 91.735 0 00-4.334-3.242c-.452-.318-.893-.652-1.351-.961-.449-.303-.914-.582-1.368-.877a90.288 90.288 0 00-12.518-6.796c-.503-.224-.998-.466-1.504-.68-.488-.206-.988-.385-1.48-.583a87.189 87.189 0 00-5.408-1.976 91.851 91.851 0 00-4.255-1.287 90.028 90.028 0 00-4.283-1.069c-.528-.118-1.052-.256-1.581-.365a91.184 91.184 0 00-16.746-1.822l.016.04a91.274 91.274 0 0116.722 1.823zm56.844 139.355a91.195 91.195 0 01-11.059 13.403 91.206 91.206 0 01-13.403 11.059 90.567 90.567 0 01-15.383 8.35 90.117 90.117 0 01-16.999 5.277 90.712 90.712 0 01-10.435 1.499l-.014.041a90.904 90.904 0 0010.457-1.501c.523-.107 1.041-.244 1.562-.36a90.841 90.841 0 008.539-2.353 90.461 90.461 0 005.443-1.989c.486-.196.981-.372 1.464-.577.5-.212.99-.451 1.487-.672a91.892 91.892 0 005.017-2.418 90.936 90.936 0 007.531-4.394c.45-.292.91-.568 1.354-.868.452-.305.889-.636 1.336-.95a91.024 91.024 0 0010.863-8.96c.401-.387.817-.76 1.211-1.154.393-.393.765-.807 1.151-1.207a90.272 90.272 0 005.701-6.506 92.423 92.423 0 003.228-4.314c.325-.462.666-.913.982-1.381.309-.458.593-.932.894-1.396a92.096 92.096 0 002.864-4.721 92.001 92.001 0 002.057-3.85 90.456 90.456 0 001.847-3.896c.227-.51.473-1.014.691-1.528.211-.499.394-1.011.596-1.514a88.609 88.609 0 001.953-5.341 91.12 91.12 0 001.286-4.245c.143-.519.268-1.042.401-1.563a90.095 90.095 0 01-4.273 12.648 90.62 90.62 0 01-8.349 15.381zm13.666-68.893c-.112-.548-.255-1.09-.378-1.636-.083-.37-.168-.74-.256-1.109-.125-.527-.269-1.048-.404-1.573.368 1.434.702 2.877.998 4.326a91.22 91.22 0 011.84 18.251 91.22 91.22 0 01-1.84 18.251 89.808 89.808 0 01-.999 4.33c.135-.524.279-1.045.404-1.572.089-.373.174-.745.258-1.119.122-.545.265-1.085.376-1.632a91.299 91.299 0 001.84-18.259c0-6.147-.618-12.289-1.839-18.258zm-1.039 40.841l-.005.02a.117.117 0 00.005-.02z"/><path fill="#a47c2c" d="M900.338 414.413l.007.029a.305.305 0 00-.007-.029z"/><circle cx="861.93" cy="460.797" r="16.607" fill="#e7e5ea" transform="rotate(-67.5 861.915 460.785)"/><circle cx="861.93" cy="413.242" r="16.607" fill="#e7e5ea" transform="rotate(-67.5 861.915 413.23)"/><path fill="#635da8" d="M232.128 353.575a90.567 90.567 0 00-15.383 8.35 91.195 91.195 0 00-13.403 11.059 91.258 91.258 0 00-11.059 13.403 90.567 90.567 0 00-8.35 15.383 90.094 90.094 0 00-5.277 16.999 91.22 91.22 0 00-1.84 18.251 91.22 91.22 0 001.84 18.251 90.094 90.094 0 005.277 16.999 90.567 90.567 0 008.35 15.383 91.195 91.195 0 0011.059 13.403 91.258 91.258 0 0013.403 11.059 90.567 90.567 0 0015.383 8.35 90.094 90.094 0 0016.999 5.277 90.695 90.695 0 0010.434 1.499c-8.577-25.878-13.197-53.391-13.197-81.917 0-34.84 6.91-68.161 19.484-98.846a91.098 91.098 0 00-16.722 1.821 90.054 90.054 0 00-16.998 5.276zM218.07 477.404c-9.172 0-16.607-7.435-16.607-16.607s7.435-16.607 16.607-16.607 16.607 7.435 16.607 16.607-7.435 16.607-16.607 16.607zm0-47.555c-9.172 0-16.607-7.435-16.607-16.607s7.435-16.607 16.607-16.607 16.607 7.435 16.607 16.607-7.435 16.607-16.607 16.607z"/><path fill="#a47c2c" d="M249.127 525.741a90.094 90.094 0 01-16.999-5.277 90.567 90.567 0 01-15.383-8.35 91.195 91.195 0 01-13.403-11.059 91.258 91.258 0 01-11.059-13.403 90.567 90.567 0 01-8.35-15.383 90.094 90.094 0 01-5.277-16.999 91.22 91.22 0 01-1.84-18.251 91.22 91.22 0 011.84-18.251 90.094 90.094 0 015.277-16.999 90.567 90.567 0 018.35-15.383 91.195 91.195 0 0111.059-13.403 91.258 91.258 0 0113.403-11.059 90.567 90.567 0 0115.383-8.35 90.094 90.094 0 0116.999-5.277 91.185 91.185 0 0116.722-1.821l.016-.04a91.184 91.184 0 00-16.746 1.822c-.527.108-1.047.245-1.572.363a88.202 88.202 0 00-5.601 1.442 90.357 90.357 0 00-8.366 2.897c-.487.196-.983.373-1.466.578-.502.212-.993.452-1.491.674a90.168 90.168 0 00-8.843 4.53 89.83 89.83 0 00-3.693 2.276c-.452.294-.916.571-1.362.873-.455.308-.895.64-1.345.957a89.338 89.338 0 00-4.361 3.263 93.194 93.194 0 00-3.333 2.785 92.842 92.842 0 00-3.172 2.916c-.397.383-.809.753-1.199 1.143s-.76.802-1.143 1.2a91.115 91.115 0 00-8.965 10.867c-.316.449-.648.888-.955 1.343-.301.446-.578.909-.872 1.361a89.3 89.3 0 00-4.389 7.523 89.416 89.416 0 00-2.421 5.024c-.22.495-.459.984-.67 1.482-.204.482-.38.976-.576 1.461a90.463 90.463 0 00-2.898 8.365 90.785 90.785 0 00-1.446 5.618c-.117.522-.253 1.039-.361 1.563a91.3 91.3 0 00-1.841 18.259c0 6.147.62 12.291 1.841 18.259.107.522.243 1.038.359 1.558a90.124 90.124 0 004.347 13.994c.194.483.37.974.573 1.454.21.496.448.982.667 1.475a92.865 92.865 0 002.429 5.04 89.364 89.364 0 002.116 3.834 91.498 91.498 0 002.275 3.691c.292.449.567.908.866 1.351.305.451.635.887.948 1.333a89.746 89.746 0 003.281 4.387 91.44 91.44 0 005.699 6.5c.38.394.747.802 1.134 1.189.386.386.794.752 1.187 1.132a91.68 91.68 0 009.997 8.349c.297.214.595.426.894.636.445.313.88.642 1.33.946.442.299.901.573 1.349.864a87.918 87.918 0 004.789 2.907 91.271 91.271 0 003.857 2.06 89.264 89.264 0 003.922 1.857c.493.219.978.457 1.474.666.478.202.968.377 1.449.571a88.79 88.79 0 005.47 1.998 91.446 91.446 0 004.253 1.285 92.077 92.077 0 004.28 1.066c.519.116 1.033.252 1.554.358 3.438.703 6.935 1.2 10.456 1.501l-.014-.041a90.963 90.963 0 01-10.433-1.5z"/><circle cx="218.07" cy="460.797" r="16.607" fill="#e7e5ea" transform="rotate(-9.213 218.088 460.731)"/><circle cx="218.07" cy="413.242" r="16.607" fill="#e7e5ea" transform="rotate(-9.213 218.083 413.18)"/><path fill="#635da8" d="M814.151 346.477l-.016-.04C771.779 243.127 665.023 169.804 540 169.804s-231.779 73.323-274.135 176.633l-.016.04c-12.574 30.684-19.484 64.006-19.484 98.846 0 28.526 4.62 56.039 13.197 81.917l.014.041c18.354 55.349 54.82 103.2 102.877 137.486 1.385.988 2.779 1.963 4.183 2.928C415.222 701.101 475.15 720.842 540 720.842c64.112 0 123.415-19.293 171.703-52.01 1.395-.945 2.79-1.89 4.166-2.858 48.892-34.364 85.986-82.698 104.555-138.693l.014-.041c8.577-25.878 13.197-53.391 13.197-81.917 0-34.84-6.91-68.161-19.484-98.846z"/><path fill="#e7e5ea" d="M814.151 346.477l-.016-.04C771.779 243.127 665.023 169.804 540 169.804s-231.779 73.323-274.135 176.633l-.016.04c-12.574 30.684-19.484 64.006-19.484 98.846 0 28.526 4.62 56.039 13.197 81.917l.014.041c18.354 55.349 54.82 103.2 102.877 137.486 1.385.988 2.779 1.963 4.183 2.928C415.222 701.101 475.15 720.842 540 720.842c64.112 0 123.415-19.293 171.703-52.01 1.395-.945 2.79-1.89 4.166-2.858 48.892-34.364 85.986-82.698 104.555-138.693l.014-.041c8.577-25.878 13.197-53.391 13.197-81.917 0-34.84-6.91-68.161-19.484-98.846zM540 647.561c-197.335 0-250.609-94.993-250.609-212.172S401.593 223.218 540 223.218 790.609 318.21 790.609 435.39c0 117.18-53.274 212.171-250.609 212.171zm240.739 249.316c.19 1.84.372 3.692.548 5.551a436.826 436.826 0 0016.403-11.498c-4.413-26.581-16.337-53.003-30.638-76.752 5.275 23.331 10.479 51.647 13.687 82.699z"/><path fill="#635da8" d="M780.739 896.877c.19 1.84.372 3.692.548 5.551a436.826 436.826 0 0016.403-11.498c-4.413-26.581-16.337-53.003-30.638-76.752 5.275 23.331 10.479 51.647 13.687 82.699z" opacity=".15"/><path fill="#e7e5ea" d="M305.377 827.461c-10.838 20.137-19.461 41.75-23.066 63.47a437.886 437.886 0 0011.993 8.516c.083-.836.167-1.669.253-2.501 2.621-25.402 6.578-48.972 10.82-69.485z"/><path fill="#635da8" d="M305.377 827.461c-10.838 20.137-19.461 41.75-23.066 63.47a437.886 437.886 0 0011.993 8.516c.083-.836.167-1.669.253-2.501 2.621-25.402 6.578-48.972 10.82-69.485z" opacity=".15"/></g></svg>