<svg xmlns="http://www.w3.org/2000/svg" xml:space="preserve" id="Layer_1" x="0" y="0" version="1.1" viewBox="0 0 1080 1080"><style>.st0{fill:#fff}</style><circle cx="540" cy="540" r="537.5" class="st0"/><path d="M540 25c284.4 0 515 230.6 515 515s-230.6 515-515 515S25 824.4 25 540 255.6 25 540 25z"/><path d="M431.9 115.3h218.6v850.5H431.9z" class="st0" transform="rotate(-45.001 541.174 540.594)"/><path d="M115.9 431.3h850.5v218.6H115.9z" class="st0" transform="rotate(-45.001 541.176 540.596)"/><path d="M540 238.4c166.6 0 301.6 135 301.6 301.6 0 166.6-135 301.6-301.6 301.6-166.6 0-301.6-135-301.6-301.6 0-166.6 135-301.6 301.6-301.6z"/><path fill="#13b5ec" fill-rule="evenodd" d="m565 475.9 76.5-44.6v89.2L565 475.9zm76.5 191.2-102 59.5-102-59.5V563l102 59.5 102-59.5v104.1zM437.6 431.3l76.5 44.6-76.5 44.6v-89.2zm114.7 65.9 76.5 44.6-76.5 44.6v-89.2zm-25.5 89.2-76.5-44.6 76.5-44.6v89.2zm101.9-176.3-89.2 51-89.2-51 89.2-53.1 89.2 53.1zm-216.6-8.5v278.3l127.5 72.2L667 679.8V401.6l-127.5-72.2-127.4 72.2z" clip-rule="evenodd"/></svg>