<svg xmlns="http://www.w3.org/2000/svg" viewBox="0 0 1080 1080"><style>.st6{fill:#2f3555;stroke:#2f3555;stroke-width:26.3259}</style><circle cx="540" cy="540" r="537.5" fill="#fff"/><linearGradient id="SVGID_1_" x1="25" x2="1055" y1="540" y2="540" gradientTransform="matrix(1 0 0 -1 0 1080)" gradientUnits="userSpaceOnUse"><stop offset=".449" stop-color="#5ed0d8"/><stop offset=".537" stop-color="#52d684"/></linearGradient><circle cx="540" cy="540" r="515" fill="url(#SVGID_1_)"/><path fill="#bfd2d3" d="M492.141 209.83c135.853 0 251.52 109.682 251.52 242.565v58.013c3.599 31.052 20.879 70.838 71.862 84.363 43.329 11.493 15.851 79.095-29.591 79.095 0 0-39.307 3.152-57.066 20.038-16.347 15.544-17.489 48.629-17.967 52.732-.476 4.103-3.603 27.69-14.793 40.076-12.375 13.697-36.565 18.059-43.329 18.984-6.766.925-23.937-.322-36.99 6.328-11.667 5.944-18.006 11.15-24.306 22.411-6.341 11.336-3.993 19.3-12.682 27.155-3.307 2.994-5.377 4.646-9.51 6.328-4.272 1.74-8.01 2.015-11.624 2.109-202.906 5.274-314.927-136.046-314.927-286.859V452.394h.107c-.107-137.101 113.446-242.564 249.296-242.564z"/><path fill="#a6b6b7" d="M310.746 445.665c0-117.368 170.021-231.448 170.021-231.448l-87.752 14.26-91.043 62.525-53.749 112.98v199.64l25.229 112.98 65.815 84.462 95.432 54.845 139.307 6.581s-263.259-49.361-263.259-252.288V445.665z"/><path fill="#768182" d="M476.374 217.508s11.598-1.015 28.947 2.49l73.066 6.285 95.432 59.234 54.845 94.333 9.873 126.145 28.518 74.591 69.107 30.713v34.003s-6.925 12.841-31.81 14.261c-61.989 3.541-130.533-55.942-137.115-99.82-6.581-43.876 4.388-150.277-49.361-250.095-34.209-63.53-82.19-83.516-112.555-89.651l-28.947-2.489z"/><path fill="none" stroke="#303133" stroke-width="26.326" d="M738.011 509.229v.757l.088.753c4.116 35.604 24.364 83.014 84.205 98.934 7.35 1.955 10.397 5.684 11.755 9.542 1.586 4.506 1.448 11.073-1.466 18.585-5.974 15.403-20.819 28.239-37.586 28.239h-.528l-.528.043 1.056 13.12c-1.056-13.12-1.058-13.12-1.06-13.12h-.006l-.017.002-.041.004-.131.011-.431.039c-.36.034-.869.084-1.511.152-1.279.137-3.09.352-5.305.665a184.772 184.772 0 0 0-17.267 3.285c-12.877 3.107-30.617 8.952-42.487 20.272-11.392 10.864-16.626 26.724-19.252 38.552-1.373 6.186-2.163 11.894-2.642 16.285-.24 2.204-.406 4.09-.524 5.534l-.142 1.779-.047.539a5.954 5.954 0 0 1-.015.159c-.206 1.781-1.039 8.221-3.101 15.562-2.154 7.676-5.197 14.658-8.944 18.815-4.236 4.702-11.263 8.48-19.177 11.225-7.669 2.659-14.783 3.878-17.761 4.285-.987.135-2.659.217-5.817.352-2.852.12-6.47.277-10.356.642-7.626.717-17.411 2.324-26.379 6.905-6.53 3.337-12.339 6.847-17.525 11.536-5.272 4.766-9.39 10.276-13.184 17.079-3.558 6.378-5.195 12.364-6.259 16.259-.195.715-.373 1.36-.539 1.923-1.021 3.483-1.753 4.955-3.699 6.719-2.923 2.652-3.749 3.227-5.995 4.144-2.215.906-4.195 1.137-7.42 1.223-101.893 2.654-179.926-31.535-232.495-84.406-52.704-53.008-80.546-125.533-80.546-200.732V462.065h.12l-.011-13.173c-.106-134.807 111.246-239.062 245.334-239.062 134.078 0 247.636 108.637 247.636 239.071v60.328z"/><circle cx="384.24" cy="408.37" r="69.105" class="st6"/><path fill="#52d784" d="M385.333 408.37v44.975c-25.443 0-46.069-20.137-46.069-44.975s20.626-44.972 46.069-44.972v44.972z"/><circle cx="592.652" cy="408.37" r="69.105" class="st6"/><path fill="#60e6c5" d="M593.751 408.37v44.975c-25.445 0-46.071-20.137-46.071-44.975s20.626-44.972 46.071-44.972v44.972z"/></svg>