<svg xmlns="http://www.w3.org/2000/svg" xml:space="preserve" id="Layer_1" x="0" y="0" version="1.1" viewBox="0 0 1080 1080"><style>.st2{fill:#6b00fa}.st2,.st3,.st7{stroke:#000;stroke-width:.87752;stroke-miterlimit:10}.st3{fill:#4300bf}.st7{fill:#100342}.st8{fill:#4300bf}.st9{fill:#6b00fa}.st10{fill:#100342}.st11{fill:#100641}.st12,.st13{fill:#e0e3bd;stroke:#000;stroke-width:.87752;stroke-miterlimit:10}.st13{stroke-width:3.51007}</style><circle cx="540" cy="540" r="537.5" fill="#fff"/><path fill="#181b2e" d="M540 25C255.632 25 25 255.632 25 540s230.632 515 515 515 515-230.632 515-515S823.976 25 540 25z"/><g id="Color_Stone_1_"><path d="M359.582 685.287c2.457-36.856 1.755-74.764 6.143-112.498 2.457-20.534 6.845-40.892 8.6-61.426 2.281-28.08-.527-56.161-1.229-84.417-.175-8.249-1.053-16.498 1.053-24.746 1.053-4.212 2.633-8.6 7.02-9.477 7.547-1.755 5.44-5.968 3.861-10.53-1.755-5.09-3.334-10.18-5.265-15.094-10.53-25.799-1.58-48.965 11.232-70.728 10.882-18.603 25.097-35.276 40.015-50.896 16.673-17.55 37.383-26.325 61.778-26.676 4.563 0 9.126-.176 13.864-.527 2.282-.175 4.563-.175 7.02-.351 2.106-.175 4.388 0 6.494-.351l2.106-.526c1.229 0 2.457.35 3.51.35 2.633.352 5.09.703 7.722 1.23 5.09.877 10.18 1.754 15.27 2.807 10.178 1.93 20.182 4.388 30.186 7.02 5.44 1.404 10.881 2.984 15.97 5.616 9.302 5.09 15.971 13.69 24.922 19.306 6.143 3.86 12.987 6.142 18.603 10.705 6.319 5.09 10.355 12.286 14.216 19.481 4.212 7.723 8.424 15.445 11.232 23.869.702 2.106 1.405 4.387 1.931 6.493 2.106 8.951 3.16 18.077 4.212 27.203 1.053 8.951 2.282 18.077 5.265 26.677.702 2.106 1.58 4.212 2.457 6.318.351.878.878 1.755 1.053 2.633 0 1.228-.175 2.457-.175 3.685-.176 26.501-2.457 52.827-2.984 79.328-.877 42.823-3.86 85.646-8.6 128.293-.877 7.547.176 14.918 1.931 22.113 5.09 21.412 6.67 42.823 3.51 64.937-2.632 18.603-2.632 37.733-3.86 56.687-.527 8.425-5.09 11.935-13.34 12.11-9.652.176-18.427-3.86-28.08-4.036-13.514-.351-26.5 2.808-39.664 4.212-22.113 2.106-43.524-1.93-65.287-4.563-3.861-.351-7.547-2.106-11.408-1.93-4.036 0-7.897.175-11.934 0-1.93-.176-3.861-.176-5.792-.703-1.228-.351-2.106-.877-3.334-1.053-5.265-.527-10.53-.527-15.795-.878-5.266-.175-10.53-.526-15.796-.702-10.53-.526-21.236-.877-31.766-1.228-10.53-.351-21.236-.702-31.766-1.053-2.633 0-5.265-.176-7.898-.176-2.457 0-5.265-.526-7.722-.175-.702.175-1.404.526-1.93.702-2.457.702-5.441.35-7.898-.176-7.722-2.106-9.653-10.354-9.828-17.375-.176-4.738.35-9.477.526-14.215-.35-4.739-.35-9.477-.35-15.269z" class="st2"/><path d="M683.386 832.534c-1.404 9.127-.175 19.481-2.808 29.31-1.053 3.86-1.93 7.546-6.142 9.126-4.037 1.404-6.845-.351-8.775-3.861-1.404-2.457-3.862-2.282-6.319-2.457-19.832-1.229-39.663-2.457-59.32-3.51-67.744-3.51-135.313-7.02-203.057-10.53-18.955-.878-37.91-1.405-56.864-2.458-5.09-.35-15.268 0-16.497-6.844-.35-2.106-1.58-3.861-2.106-5.967-1.228-4.388-1.404-9.127-1.404-13.69-.351-10.53-.527-21.236-.878-31.766 0-1.755 0-3.51-.175-5.265 0-1.228-.351-1.93-.878-2.808-1.228-2.633-.175-5.616 1.58-7.722 2.282-2.808 5.44-4.037 8.775-2.633 10.881 4.037 22.29 3.16 33.346 3.861 51.949 2.984 104.073 5.266 156.198 7.723 47.386 2.281 94.596 4.738 141.982 7.195 16.322.878 22.64 7.547 22.64 24.044 0 5.792.351 11.583.702 18.252z" class="st3"/><path d="M532.278 738.64c-15.971-.526-32.117-1.228-47.913-3.51-10.179-1.58-20.007-3.861-30.186-5.265-10.881-1.404-22.114-1.58-32.995-1.755-16.673-.351-33.697-.527-49.843 3.51S339.4 744.607 330.8 758.999c15.269 11.232 35.276 12.636 54.23 13.689 11.584.702 23.167 1.228 34.75 1.93 85.47 4.739 170.94 9.478 256.41 9.653-2.632-8.073-5.264-16.322-8.072-24.395-2.457-7.196-5.967-15.62-14.392-17.375-2.808-.526-5.616 0-8.424.176-4.914 0-10.004-.351-14.918-.527-20.885-.702-41.945-1.58-62.83-2.281-11.759-.351-23.517-.878-35.276-1.229z" class="st2"/><path d="M726.56 723.898c2.633-1.404 5.616-2.808 7.196-5.265s1.755-5.44 1.93-8.249c.702-11.583 1.404-22.991 2.107-34.574.877-12.987 1.58-25.975 1.404-38.962-.176-12.285-1.404-24.57-.702-36.68.702-11.232 2.983-22.29 4.212-33.521 4.387-39.664-4.914-79.679-3.16-119.518.703-14.743 2.984-29.485 3.862-44.403 2.632-40.19-4.388-81.082-20.183-118.114-1.404-3.159-2.808-6.318-5.44-8.424-3.51-2.808-8.25-3.159-12.11-5.44-5.441-3.335-7.547-10.004-10.53-15.796-7.372-14.391-21.412-24.22-36.681-29.66s-31.415-7.02-47.386-8.6c-11.232-1.053-22.464-2.106-33.697-3.334-5.44-.527-13.338 1.228-12.46 6.669 16.146 12.11 34.75 20.885 51.773 31.766s33.17 24.746 41.243 43.35c3.51 7.897 5.266 16.497 7.02 25.097 5.266 24.57 10.355 49.14 11.584 74.238.877 18.252-.351 36.68-1.58 55.108-1.58 24.044-2.632 48.263-3.685 72.307a2485.784 2485.784 0 0 0-2.106 72.308 2487.35 2487.35 0 0 0-.527 72.307c0 12.11.176 24.22.351 36.154 0 5.967.176 12.11.351 18.077.176 5.616-.35 11.758.351 17.55 1.229 8.6 10.881 7.371 16.849 4.739 10.88-4.739 21.411-10.355 32.292-15.62 1.93-.702 5.792-3.51 7.722-3.51z" class="st3"/><path d="M680.754 782.165c.702 1.229 1.58 2.632 2.983 2.632.878 0 1.755-.526 2.457-.877 8.074-5.44 14.743-12.812 23.518-16.848 5.967-2.808 12.46-3.861 18.603-5.967 8.775-2.984 16.673-8.074 24.57-12.988 2.809-1.755 5.968-4.387 5.441-7.722-.175-1.228-.877-2.281-1.58-3.159-4.387-5.967-9.652-11.057-15.619-15.269-1.228-.877-2.457-1.58-3.861-1.755-1.755-.175-3.51.702-5.09 1.404-12.811 6.318-25.448 12.637-38.084 19.13-6.318 3.16-12.636 6.494-18.954 9.653-5.265 2.632-9.653 4.563-6.143 10.881 4.037 7.02 8.249 13.865 11.759 20.885zm5.616 75.466c.175 1.23.351 2.633 1.053 3.51 1.93 2.107 5.265.878 7.722-.526l63.708-35.803c2.106-1.228 4.387-2.457 5.792-4.563 1.404-2.281 1.58-5.09 1.755-7.722.702-14.216 1.228-28.431 1.93-42.823.176-4.036.176-8.424-2.106-11.583-2.457-3.51-7.196-4.563-11.408-4.037-4.212.527-8.073 2.633-11.758 4.74-17.024 9.476-34.048 18.778-51.072 28.08-5.616 3.159-12.46 5.265-11.934 12.636.526 8.6 1.93 17.2 2.808 25.623.526 5.441 1.228 10.706 1.755 16.147.526 5.44 1.755 11.056 1.755 16.321z" class="st7"/><path d="M590.194 306.901c3.335 2.808 2.984 8.6-.527 11.233-3.51 2.632-9.126.877-10.705-3.16s1.404-9.126 5.616-9.828c1.93-.175 4.036.351 5.616 1.755zm28.432 24.746c-.176.878-.351 1.58-.351 2.457.175 1.58 1.228 2.808 2.632 3.335 3.686 1.93 9.126-.878 9.653-5.09.35-4.212-4.212-8.248-8.249-7.02-.35-.175-.877.176-1.053.527-1.58 1.93-1.93 3.685-2.632 5.791zm-17.376 24.746h-7.721c-.702 0-1.404 0-1.931.527-.351.35-.351.877-.526 1.404-.351 2.106-.527 4.036-.702 6.143-.176 2.457-.176 5.616 1.93 6.844 1.404.702 2.984.527 4.388.878 1.228.35 2.281 1.053 3.51.877 2.457 0 4.036-2.632 4.563-5.09.526-2.632.702-5.265-.527-7.722-1.228-2.457-3.685-4.212-6.318-3.86" class="st8"/><path d="M719.716 432.737c-1.755-1.755-3.861-1.58-6.143-.877-2.106.702-3.335 2.808-3.159 4.914 0 1.755 1.229 3.51 2.457 4.739 1.93 1.93 5.44.175 6.845-1.58 1.755-1.755 1.755-5.09 0-7.196zm-12.286 29.485c-.175-1.053-.877-2.808-1.755-3.686-1.053-1.053-3.159-.526-4.387 0-1.053.527-2.106 1.229-2.984 2.106-.35.351-.702.527-.877 1.053-.527.878-.702 1.755-.878 2.809 0 .526-.526 2.983 0 3.334 2.106 1.404 4.914 1.755 7.371.702 2.106-1.228 3.861-3.861 3.51-6.318z" class="st9"/><path d="M405.038 684.058c-3.335 0-6.494 1.58-8.073 4.388-1.58 2.808-1.053 6.845 1.404 8.95 2.632 2.282 11.232 2.107 13.689-.175 2.457-2.281-.878-6.318-2.282-9.652-2.106-1.229-4.387-2.457-6.669-3.51m-13.338-58.092c-1.053 2.808-1.93 5.616-2.457 8.6-.176.526-.176 1.228.175 1.754.527.878 1.58 1.054 2.633 1.229 2.633.176 5.616.176 7.196-1.755.526-.527.877-1.404 1.053-2.106.877-2.808.35-6.143-2.106-7.722-2.457-1.58-6.319-.702-6.845 2.106m39.488 26.677c-.35-.878-1.053-2.282-1.93-2.633-.527-.176-1.404 0-2.106 0h-1.93c-.527 0-1.054 0-1.405.175-.702.351-1.404 1.404-1.93 1.93-.351.176-.527.352-.703.703-.526.877-.701 2.106-.701 3.159 0 .351 0 3.159.35 3.159 1.756.351 7.898.878 9.653 1.229 1.053.175-1.93.526-1.053-.176.351-.351.702-.702 1.053-1.228.878-2.107 1.404-4.388.702-6.319z" class="st8"/><path d="M600.9 843.24c3.334 2.457 8.775 1.755 11.056-1.755 1.755-2.632 1.404-5.967.878-9.126-.176-.878-.351-1.755-.878-2.282s-1.404-.702-2.281-.702c-2.457-.35-4.563-.175-7.02-.175h-1.053c-.878.35-1.755 1.053-2.457 1.755-1.755 1.755-2.457 3.861-1.93 6.318.526 2.282 1.754 4.563 3.685 5.967zm-22.29-34.223c-2.456 1.053-3.685 4.037-2.807 6.494 1.404 1.228 3.159 2.281 5.09 2.457 1.93.175 4.036-1.053 4.387-2.984.35-1.58-.527-2.983-1.404-4.387s-1.93-2.809-3.51-3.335c-1.58-.351-3.686 1.053-2.984 2.633m124.257-122.677c-2.808-.878-5.967.35-7.898 2.457-1.93 2.281-2.808 5.265-2.983 8.073-.176 1.58 0 3.159.877 4.387 1.229 1.58 3.51 1.755 5.44 1.229 3.862-.702 7.372-3.51 8.425-7.196 1.053-3.685-1.404-8.424-5.265-8.95 2.808-.351-.527-1.93 1.404 0zm12.461-44.403c-3.686.702-7.196 3.335-7.547 7.02-.351 3.686 3.861 7.196 7.196 5.44 3.334-3.158 2.983-9.3-.527-12.284" class="st9"/><path d="M598.794 285.49c-2.106.526-2.984 3.334-2.106 5.265.877 1.93 3.159 2.984 5.44 2.984 1.053 0 2.282-.351 2.808-1.229.176-.526.351-1.053.351-1.58 0-1.93 0-4.036-.526-5.967-1.93-.175-3.861-.175-5.792.176m-19.481 31.415c-1.58.176-3.334.351-4.738 1.053s-2.633 2.282-2.457 3.861c.175 2.106 2.457 3.51 4.387 4.388 1.58.702 3.686 1.404 5.09.175 1.404-1.228.877-3.334 1.93-4.914.351-.526.878-1.053 1.053-1.755.176-1.228-1.228-2.106-2.457-2.281s-2.632-.351-3.159-1.405m-25.799-37.031c-1.58.878-3.334 2.106-4.212 3.686-1.755 2.983-.35 7.722 2.984 8.424 3.334.702 6.318-2.282 8.073-5.265.175-.351.35-.702.35-1.053s-.35-.702-.701-.878c-1.93-1.404-3.861-2.808-5.792-4.036-.526-.351-1.404-.702-1.755 0m-134.26 30.011c-.878 2.106-1.228 4.563-1.053 7.02 1.58.878 3.51.702 5.09 0 1.58-.877 2.808-2.106 3.86-3.686.176-.35.527-.702.527-1.228 0-.702-.35-1.404-.877-1.93-1.053-1.23-2.457-2.107-4.037-2.282s-3.335 1.053-3.51 2.457m-7.898 28.256c-1.404.702-1.58 2.984-.702 4.212 1.053 1.229 2.808 1.755 4.388 1.58 1.053-.176 2.281-.527 2.632-1.404.702-1.404-.35-2.984-1.404-4.037-1.053-1.229-2.632-2.633-4.387-2.106m70.552-88.454c-.702 1.755-.702 3.861-.175 5.792.877 1.404 2.983 1.755 4.387.877 1.404-.877 2.106-2.632 1.93-4.387-.35-1.93-2.456-3.861-4.211-2.984m152.161 172.345c-1.228 2.106-.702 5.265 1.404 6.669s5.266.702 6.494-1.404c.702-1.053.702-2.633.351-3.861-.702-1.755-2.632-2.984-4.563-2.984-1.93-.175-3.861.702-5.265 1.93.702.176 1.228.527 1.93.703" class="st10"/><path d="M623.89 677.39c-.175 2.632-1.403 5.089-1.403 7.722s1.755 5.616 4.387 5.616c2.282 0 3.861-2.106 4.914-4.037.878-1.228 1.58-2.632 2.282-3.861.526-.702.877-1.58.526-2.457a2.115 2.115 0 0 0-.877-.878c-2.984-1.93-6.67-2.808-10.355-2.632" class="st7"/><path d="M608.446 647.027c.878 1.93 2.282 3.861 4.212 4.388 3.335 1.053 7.196-2.984 5.792-6.143s-7.02-3.334-8.424 0m-73.186 48.79c-1.228 3.16 1.405 7.02 4.74 7.547 3.334.526 6.669-2.282 7.546-5.616.176-.527.176-1.229-.175-1.755-.351-.527-.878-.702-1.58-.878-2.808-.702-5.791-1.404-8.6-2.281-.35.877-.702 1.93-.877 2.808" class="st11"/><path d="M405.74 567.349c-.351 1.58-.878 3.159-.527 4.738.176 1.58 1.229 3.16 2.808 3.51 1.755.527 3.686-.877 4.388-2.632.702-1.755.702-3.686.526-5.44-2.106-.352-4.212-.703-6.142-1.054" class="st10"/><path d="M389.067 803.752c-.702 2.281-1.229 5.265.702 6.845 2.106 1.755 5.09.175 7.722.702.527-2.106.702-4.388.176-6.494-.527-2.106-2.106-4.212-4.212-4.563-2.107-.527-4.564 1.228-4.388 3.51h1.58m38.435 15.268c0 2.809 0 5.441.175 8.25 1.93.35 4.037.526 6.143.877.526 0 1.228.175 1.755-.176.526-.35.702-1.053.877-1.755.702-2.983.702-6.318-1.404-8.6-2.106-2.105-6.669-1.579-7.02 1.405m180.769 4.914c-1.93 1.58-2.984 4.387-1.93 6.669 1.052 2.281 4.211 3.51 6.317 1.93.878-1.93 1.756-4.036 1.405-6.142-.352-2.106-3.16-3.686-4.915-2.282m95.299.176c-.351 1.404-.527 2.983 0 4.387s2.457 2.282 3.685 1.404c.527-.35.702-.877.878-1.404.702-1.58 1.053-3.159.877-4.738-.175-1.58-1.404-3.16-2.983-3.335-1.58-.175-3.335 1.404-2.808 2.808m-9.126-210.253c-.351 1.58-.878 3.16-.527 4.739.351 1.58 1.58 3.159 3.16 2.983 2.456 0 3.51-2.983 3.86-5.44.351-2.106.351-4.914-1.58-5.792-2.105-.877-4.036 1.404-5.264 3.16" class="st11"/><path d="M714.802 348.496c-.352 1.58-.527 3.334.175 4.738.702 1.404 2.633 2.282 4.037 1.404.702-.35 1.053-1.053 1.404-1.755.526-1.404 1.053-2.808.702-4.212s-1.404-2.808-2.808-2.983c-1.405-.176-2.984 1.228-2.633 2.632m-10.53 23.693c0 1.93 0 3.686.175 5.616 2.633.351 5.265-1.58 5.616-4.212.351-2.632-1.755-5.265-4.387-5.44.175 1.228-.176 2.457-.702 3.51m22.464 4.913c-.702 1.931-1.228 4.037-.877 6.143.35 2.106 2.457 3.861 4.387 3.51 2.633-.526 3.16-4.212 2.984-7.02-.176-1.93-.351-4.212-1.93-5.265s-4.564.176-3.862 1.93" class="st10"/></g><g id="Color_Skull_1_"><path d="M456.46 576.124c2.984-10.53-2.632-20.008-10.705-29.485-12.461-14.567-23.869-29.835-26.501-50.194-5.792-45.982 19.831-90.91 62.128-107.233 44.402-17.199 93.543-1.755 120.044 37.558 11.759 17.375 17.726 36.505 17.726 57.565 0 19.306-6.143 35.979-19.656 49.843-6.494 6.494-11.935 14.04-18.78 20.183-7.195 6.318-9.827 13.514-9.3 22.64.35 7.196-.527 14.392-.352 21.587v1.404c0 .702-.175 1.229-.175 1.755 0 .351 0 3.686.175 3.686-1.228 0-2.457 0-3.51.175-1.404 0-2.808.176-4.212 0-2.633-.35-5.09-.35-7.722-.526-.527 0-1.053 0-1.755-.176-1.053 0-1.93-.175-2.984-.175-.35 0-.702-.176-1.228-.176h-7.723c0-1.053-.175-2.106-.175-3.159-.176-2.106-.176-4.212-.176-6.318 0-4.036-.175-8.073-.175-12.11 0-.175 0-.35-.176-.526-.175-.176-.35-.176-.526-.176-4.212-.35-8.424 0-12.636.527 0 2.457 0 4.914-.176 7.547v2.106c0 1.053 0 1.93-.175 2.983 0 .351-.176.527-.176.702-.175.351-.175.878-.175 1.229-.176 1.93-.176 4.036.175 5.967h-3.86c-1.58 0-3.336 0-4.915-.351-1.93-.351-4.037-.176-5.967-.351-.702 0-1.58 0-2.282-.176-1.93 0-3.86-.35-5.791-.35h-2.984c-.175 0-2.808.175-2.983.35 0-1.755.175-3.685.175-5.44 0-.878 0-1.755.176-2.808 0-.878.175-1.755.175-2.633 0-3.51 0-7.02-.175-10.706-4.564-.877-9.302-1.228-14.04-1.228-.176 4.036-.352 8.073-.703 12.11-.175 1.93-.175 4.036-.35 6.142v1.58c0 .35 0 .702-.176.877-.176.351-1.053.351-1.404.351-2.457.176-5.09 0-7.547-.175-1.053 0-2.281-.176-3.334-.176-2.809-.175-5.617-.175-8.425-.35-.877 0-1.93-.176-2.808-.176-.526-.176-1.053-.351-1.755-.351-.175 0-2.983-.176-2.983-.176v-6.669c0-.878-.176-1.755.175-2.633.176-.35 0-.702 0-1.053v-2.632c0-2.282.176-4.388.176-6.67.35 0 .35-.701.526-3.51zm56.863-32.293c1.58.176 3.16.176 4.739.351 2.457.176 5.09.351 7.547.702-.878-2.632-1.755-5.265-2.808-7.722-.351-1.053-.878-1.93-1.229-2.808-.35-.878-.877-1.58-1.228-2.457-.176-.176-.176-.527-.176-.702-.175-.878-.526-1.58-.702-2.457-.877-2.106-1.58-4.388-2.457-6.67a21.412 21.412 0 0 0-1.228-2.983c0 .176-.351.702-.351.702-.176.351-.527.702-.702 1.053-2.282 3.16-4.388 6.318-6.319 9.653-1.053 1.58-1.93 3.334-2.983 5.09-.527.877-.878 1.755-1.404 2.457l-.527 1.053c-.175.702-.877 1.404-1.404 2.106-.702.877-1.404 1.755-1.93 2.808h2.984c1.052 0 1.93 0 2.983-.176.35 0 .877-.175 1.228-.175.527 0 1.053 0 1.58.175 1.053 0 1.93.176 2.983.176.527-.351 1.053-.351 1.404-.176z" class="st12"/><path d="M452.424 571.21c2.808-10.355-2.633-19.657-10.53-28.958-12.286-14.392-23.518-29.31-25.975-49.141-5.616-45.105 19.48-88.98 60.9-104.952 43.525-16.848 91.613-1.755 117.763 36.856 11.407 17.024 17.374 35.803 17.55 56.337 0 18.954-5.967 35.276-19.305 48.79-6.319 6.493-11.584 13.865-18.428 19.656-7.02 6.143-9.653 13.163-9.127 22.29.351 7.02-.526 14.04-.35 21.06v1.404c0 .527-.176 1.228-.176 1.755 0 .35 0 3.51.175 3.51h-3.51c-1.404 0-2.808.175-4.212 0-2.457-.351-5.09-.351-7.546-.527-.527 0-1.053 0-1.58-.175-1.053 0-1.93-.176-2.983-.176-.351 0-.702-.175-1.054-.175h-7.546c0-1.053-.176-1.93-.176-2.984-.175-2.106-.175-4.036-.175-6.142 0-4.037-.176-7.898-.176-11.935 0-.175 0-.35-.175-.526-.176-.176-.351-.176-.527-.176-4.036-.35-8.248 0-12.285.527 0 2.457 0 4.914-.175 7.371v2.106c0 .878 0 1.93-.176 2.984 0 .35-.175.526-.175.702-.176.35-.176.877-.176 1.228-.176 1.93-.176 3.861.176 5.792h-3.686c-1.58 0-3.16 0-4.739-.351-1.93-.351-3.86-.176-5.967-.351-.702 0-1.58 0-2.281-.176-1.93 0-3.686-.35-5.616-.35h-2.984c-.176 0-2.808.175-2.808.35 0-1.755.175-3.51.175-5.44 0-.878 0-1.755.176-2.633 0-.877.175-1.755.175-2.633 0-3.51 0-7.02-.175-10.53-4.563-.702-9.126-1.228-13.69-1.228-.175 4.036-.35 7.897-.526 11.934-.175 1.93-.175 4.036-.35 5.967v1.58c0 .35 0 .702-.176.877-.176.351-1.053.351-1.404.351-2.457.176-4.914 0-7.372-.175-1.053 0-2.281-.176-3.334-.176-2.808-.175-5.616-.175-8.249-.351-.877 0-1.755-.176-2.808-.176-.526 0-1.053-.35-1.755-.35-.175 0-2.808-.176-2.808-.176v-6.494c0-.877-.175-1.755.176-2.457.175-.35 0-.702 0-1.053v-2.632c0-2.106.175-4.388.175-6.494-.35 0-.35-.526-.175-3.334zm55.81-31.766c1.58.175 3.159.175 4.563.35 2.457.176 4.914.352 7.371.703-.877-2.457-1.58-5.09-2.632-7.723-.351-1.053-.878-1.93-1.229-2.808-.351-.877-.877-1.58-1.229-2.457-.175-.175-.175-.526-.175-.702-.176-.877-.527-1.58-.702-2.457-.878-2.106-1.58-4.387-2.457-6.493a21.405 21.405 0 0 0-1.229-2.984c0 .176-.35.527-.35.702-.176.351-.527.702-.703 1.053-2.106 3.16-4.212 6.318-6.142 9.477-1.053 1.58-1.93 3.335-2.808 4.914-.527.878-.878 1.58-1.404 2.457l-.527 1.053c-.175.703-.877 1.405-1.404 1.931-.702.878-1.228 1.755-1.93 2.633h2.984c1.052 0 1.93 0 2.983-.176.35 0 .877-.175 1.228-.175.527 0 1.053 0 1.58.175 1.053 0 1.93.176 2.983.176.351.35.878.35 1.229.35z" class="st12"/></g><g id="Skull_1_"><path d="M576.154 398.339c-32.117-25.624-68.447-29.836-106.004-12.988-60.198 27.028-76.344 107.058-40.19 146.897 5.089 5.616 8.95 12.11 14.215 17.726 4.739 5.09 6.318 10.53 5.967 17.375-.526 9.477-1.404 19.13 0 29.484l30.889 1.404.526-21.938 11.935.351v20.359c0 .526-.176 1.053-.176 1.755h2.984c2.106 0 4.036.175 6.142.175 2.457.176 5.09.176 7.722.351 2.282.176 4.739.176 7.02.351 1.405 0 2.809.176 4.388.176h.527c.35 0 .526 0 .877-.176 0-.526.176-1.228.176-1.755v-.175c0-.176 0-.527.175-.702 0-.527.176-1.053.176-1.404V578.58l11.934.35-.527 21.763c1.931 0 32.469 1.404 32.469 1.404v-28.08c0-.878 0-1.755-.176-2.457 0-2.106 0-4.212.351-6.143.351-2.106 1.053-4.387 2.457-6.142.351-.352.702-.878 1.053-1.229l1.404-1.404c.878-.878 1.755-1.93 2.633-2.808 1.755-1.93 3.51-3.686 5.265-5.616 1.755-1.93 3.334-3.686 5.09-5.616 1.754-1.93 3.334-3.686 4.914-5.616s3.334-3.686 4.914-5.617 3.159-3.685 4.738-5.616c.878-.877 1.58-1.93 2.457-2.808 5.967-7.37 10.18-15.62 11.584-25.097 6.318-40.541-6.143-74.238-37.91-99.51zm-99.51 172.169h-1.756v2.632c0 1.755-.175 3.686-.175 5.44-.176 3.686-.351 7.547-.351 11.233l-15.62-.702c0-1.58.175-3.159.175-4.739.176-3.51.351-7.02.351-10.705.176-3.686.351-7.547.351-11.233 0-1.403.176-2.808.176-4.212 0-.702-.176-1.404-.176-1.93 0-.702-.175-1.404-.175-2.106 0-.351-.176-.527-.176-.878-.175-.175-.175-.526-.35-.702-.176-.526-.352-1.053-.703-1.58l-1.58-3.158c-.526-1.053-1.228-1.93-1.93-2.984-.35-.526-.877-1.228-1.404-1.755-7.37-8.95-14.391-18.252-21.411-27.554-10.004-13.69-11.759-29.66-9.828-45.806 4.387-36.33 23.342-62.655 57.214-76.169 33.52-13.338 65.287-7.722 91.964 16.322 27.203 24.395 37.206 55.46 28.431 91.788-2.106 9.302-8.073 15.971-14.04 22.64-7.371 8.249-14.918 16.322-22.465 24.395-.35.351-.702.527-.877.878 0 .175 0 .175-.176.35-.175.176-.175.352-.35.527-.176.351-.527.702-.703 1.053-.175.176-.175.351-.35.527-.176.175-.176.175-.176.35l-1.053 2.107c-.702 1.58-1.053 3.334-1.404 5.09-.176.877-.176 1.754-.176 2.632v30.889c-.175.175-.35 0-.35 0h-.703c-.877 0-1.93 0-2.808-.176l-11.583-.526c.176-3.335.176-6.67.351-9.829 0-1.053.175-2.281.175-3.334v-5.441l-2.281-.35c-.878-.176-1.755-.352-2.633-.352-1.93-.175-3.685-.35-5.616-.526-1.93-.176-3.86-.176-5.791-.176h-10.706l-.702 20.183-15.62-.702.702-19.832c-.877-.175-1.93-.35-2.808-.526-1.93-.351-3.686-.527-5.616-.702-1.93-.176-3.861-.176-5.792-.351-1.93 0-3.86 0-5.791-.176h-2.808"/><path d="M515.605 511.89c-.176-.176-.176-.527-.351-.702-.351-.527-.527-1.229-.878-1.756l-.526-1.053c-.176-.35-.351-.526-.527-.877-.702-1.053-1.228-2.282-1.93-3.335-.351-.526-.527-1.053-.878-1.755 0-.175-.175-.35-.175-.35 0-.176-.176-.352-.176-.352-.175 0-.175 0-.175.176s-.176.175-.176.35-.175.352-.175.527c-.176.351-.351.702-.527.878a32.61 32.61 0 0 0-1.93 3.334 32.604 32.604 0 0 0-1.93 3.335c-.878 1.404-1.58 2.808-2.458 4.388-.35.526-.526 1.053-.877 1.404-.351.526-.702 1.053-.878 1.58-.35.526-.702 1.052-1.053 1.754-.35.527-.702 1.229-1.053 1.755-.351.702-.702 1.229-1.053 1.93-.351.703-.702 1.23-1.053 1.931-.351.702-.702 1.404-1.053 1.93-.351.703-.702 1.405-1.053 1.931-.351.702-.702 1.229-1.053 1.93-.351.703-.702 1.23-1.053 1.931-.351.702-.702 1.229-1.053 1.931-.351.527-.702 1.229-1.053 1.755s-.702 1.053-.878 1.58c-.35.526-.526 1.053-.877 1.58-.176.526-.527.877-.702 1.403-.176.351-.527.702-.702 1.229l-.527 1.053c-.175.175-.35.526-.35.702-.176.175-.176.35-.352.526l-.175.176h.175c1.053 0 1.93 0 2.984.175h35.626l6.318.176h.176c-.351-1.053-.878-1.93-1.229-2.984-1.053-2.457-2.106-4.738-3.159-7.195-1.404-2.984-2.633-6.143-4.037-9.127-1.228-2.808-2.457-5.791-3.685-8.6-.878-1.93-1.58-3.86-2.457-5.615-.702 1.052-.877.701-1.053.35 0 .176 0 .176 0 0zm-18.077 26.5c4.212-7.195 8.073-13.689 12.46-21.235 2.984 8.073 5.442 14.39 8.425 22.113-7.196-.351-13.163-.702-20.885-.878z"/></g><g id="Stone_1_"><path d="M398.018 403.077c0 .878.175 1.58.175 2.282m-.175-2.282c0 .878.175 1.58.175 2.282" class="st13"/><path d="M769.559 738.29c-8.951-7.197-15.62-16.498-24.044-24.571.526-8.951 1.58-17.024 1.58-25.097-.176-22.114 1.228-44.227-.527-66.34-1.053-13.515 2.632-26.502 6.318-39.489 7.195-24.746 3.159-50.194-.527-74.59-2.632-17.374-2.983-34.222-1.755-51.422 1.229-15.093 1.404-30.186 2.633-45.28 1.58-21.411 3.51-42.471-1.93-64.058-4.74-18.253-5.792-37.383-13.163-54.933-5.792-13.69-5.792-13.69-23.693-37.382-15.971-16.849-18.428-17.024-32.118-25.273-10.53-6.318-20.885-12.285-33.696-13.514-16.322-1.579-31.415-8.775-47.562-11.407-28.08-4.563-55.81-2.106-83.54 2.106-37.206 5.791-73.886 12.987-102.494 41.419-13.513 13.513-27.378 26.325-33.17 45.104-1.58 5.265-5.09 9.828-7.722 14.567-12.11 20.534-9.302 29.835-11.057 56.512 1.053 1.93-2.457 13.514-3.685 16.673-1.58 17.901-1.755 6.493-1.58 14.216.527 23.342.702 46.684.878 69.85.175 21.06 1.053 42.12-2.808 62.83-4.212 21.938-3.861 44.052-4.037 66.165 0 4.914.176 10.004-1.053 14.742-3.685 16.498-2.808 32.995-1.93 49.493 1.228 22.464.175 44.753 2.808 67.744-12.988 10.179-25.8 20.358-38.787 30.186-4.563 3.335-7.195 7.02-7.195 12.988.35 24.746.35 49.492.526 74.238 0 6.669 3.16 10.354 10.004 10.881 31.766 1.93 63.357 3.861 94.947 5.967 41.068 2.633 81.96 5.09 123.028 7.722 46.509 2.984 93.017 6.143 139.526 9.126 6.318.351 12.11-1.053 17.55-4.387 24.395-14.742 48.966-29.485 73.536-43.876 5.967-3.51 8.249-8.073 8.249-14.918.175-21.587.702-43.174 1.228-64.585 0-4.388-.877-8.424-4.738-11.408zM365.725 627.37c2.106-14.741 4.037-29.308 3.686-44.226-.527-19.305 1.755-38.26 4.563-57.214 3.86-26.326 2.457-52.827 1.93-79.328-.175-9.653-.35-19.305-.175-28.782 0-2.457.175-4.915.35-7.372.176-1.404.352-2.808.352-4.387 0-.702.526-1.229 1.053-1.755.702-.878 1.58-1.755 2.281-2.633.176-.175.351-.35.702-.526.176 0 .527 0 .702.175 3.16 1.404 8.6 6.494 8.775 6.845 0 .175 6.319 4.914 6.319 5.09.175.175-3.861 8.95-3.861 9.301 7.546 0 5.616-2.457 11.758-13.514.351-.702-6.142-5.09-6.142-5.967-1.053-1.053-1.404-2.457-1.93-3.685-.527-1.58-1.405-2.984-2.282-4.212-.527-.702-1.053-1.229-1.58-1.93l-1.58-1.58c-.35-.351-.526-.702-.526-1.229-.176-.702-.527-1.228-.702-1.93-.702-1.58-1.404-3.335-1.93-5.09-1.23-3.335-2.282-6.845-3.335-10.355s-2.106-7.02-3.335-10.53c-.702-1.93-1.404-3.686-2.106-5.616 1.229-16.497 4.388-32.293 15.27-45.631 2.456-3.16 4.036-7.196 5.264-10.881 4.914-16.147 15.796-27.73 28.256-38.085 7.722-6.493 14.743-14.215 23.693-18.603.176-.175.878.351 1.053.351l1.053.527c.702.526 1.229 1.053 1.58 1.755.702.877.877 2.106 1.404 2.983.35.878.702 1.93 1.053 2.808.702 1.93 1.404 3.686 1.93 5.616.176.351.176.527.351.702 0 .176.176.351.176.351s.351.176.526.176c.702.175 1.405.526 2.107.702.175 0-.702 4.739-.702 5.09v.877c0 .702-.176 1.58-.176 2.282-.176 1.58-.176 3.159-.351 4.738 0 .527-.176 1.229 0 1.755.176.527.351.878.527 1.404 1.404 2.808 2.983 5.616 4.563 8.424-.176-.35-.176-1.053-.351-1.404-.176-.526-.176-.877-.351-1.404-.176-.877-.351-1.93-.527-2.808a212.953 212.953 0 0 1-.526-3.86c0-.527-.176-.878-.176-1.405 0-.35-.175-.526 0-.877.176-.527.351-1.053.702-1.404.176-.527.527-1.053.702-1.58 0 0 1.053.176 1.229.351.35.176.702.351 1.053.351 1.053.176 1.93.527 2.808 1.053.35.176.702.351 1.053.702l.526 1.053c.878 2.282 1.755 4.739 2.808 7.02.176.351.351.878.702 1.229.351.35.702.526 1.053.702 2.282 1.404 4.739 2.808 7.02 4.212-1.053-1.755-2.632-3.16-4.036-4.914a19.528 19.528 0 0 1-4.037-9.126c-.175-.702-.175-1.404-.175-2.106-1.755-1.229-3.51-2.282-5.265-3.51-.702-.527-1.58-.878-2.106-1.404a1.34 1.34 0 0 1-.351-.878c-.176-.526-.351-.877-.527-1.404-.702-1.93-1.228-3.861-1.93-5.616-.176-.527-.351-1.229-.878-1.404-.175-.176-.526-.176-.877-.351-.527-.351-.702-1.053-.878-1.58-.175-.702-.35-1.58-.526-2.281-.176-.527-.351-1.229-.351-1.93v-.703c-.176-1.228-.527-2.457-.527-3.685-.175-3.16.527-6.318 2.282-9.127 53.528-7.897 107.583-14.39 154.618 26.853v24.57c0 .702 0 1.58-.35 2.282-.176.175-.176.35-.352.702-.175.526-.35 1.053-.702 1.404-.526.877-1.053 1.755-1.755 2.808s-1.404 2.106-1.755 3.334c.176-.175.351-.175.527-.35l.526-.527a5.333 5.333 0 0 1 1.229-.878c.877-.526 1.58-1.228 2.281-1.93.351-.351.527-.702.878-1.229.35-.526.702-1.404 1.053-1.93.526-.527.877-1.404 1.053-2.282.175-.35.35-.526.35-.877.176-.351.176-.702.352-1.229.175-.878.35-1.58.526-2.457.702-3.51.878-7.02 1.404-10.53.176-1.404.527-2.633.878-4.037 14.567 11.408 29.66 21.412 31.766 41.419 1.755 16.848 4.739 33.346 9.477 49.668 1.404 4.738 2.633 9.652 2.633 14.566 0 32.82 1.58 65.463-3.686 98.107-2.808 17.375-2.632 35.452-2.808 53.177 0 18.955-1.053 37.91-2.808 56.688-1.755 18.428-1.755 36.68 2.808 54.582 2.457 9.477.878 18.954-.175 28.607-2.107 18.779-2.984 37.733-4.213 56.687-.35 4.564-.175 9.302-2.106 14.216-95.474-5.265-190.772-10.53-286.597-15.97 0 0-.351-2.984-.351-3.16l-.526-3.685c-.351-2.457-.527-4.739-.702-7.196-.176-2.457 0-4.739.175-7.02v-.878c0-.877.176-1.93.351-2.632.176-.878.351-1.93.527-2.808.526-2.106 1.053-4.212 1.93-6.318.176-.351.176-.527.351-.878.176-.175.527-.35.878-.526 4.563-1.755 8.95-3.51 13.513-5.265.527-.176.702-.878 1.053-1.405.351-.526.702-1.053 1.229-1.579.35-.351.877-.702 1.228-1.053.702-.702 1.053-1.58 1.405-2.457a47.71 47.71 0 0 0 1.93-4.388c.351-.702.702-1.404.878-1.93 0-.176 0-.351.175-.527.527-.877 1.755-1.58 2.457-2.106 1.58-1.228 2.984-2.632 4.037-4.212-1.404.702-2.457 1.58-3.861 2.457-.527.351-1.229.702-1.93.878-.176 0-.352 0-.703.175-.175 0-.175.176-.175.176-.351.35-.702.877-1.053 1.404l-2.107 3.159c-.877 1.228-1.755 2.457-2.632 3.86-.878 1.405-1.404 2.809-2.808 3.511-.351.175-.878.351-1.404.526-4.388 1.404-8.95 2.984-13.338 4.388-.878.351-1.756.527-2.633 1.229v-1.755c.176-.878 0-1.756.176-2.457v-3.51c0-2.458-.176-4.74-.176-7.196-.176-4.739-.527-9.477-.702-14.04a92.844 92.844 0 0 1-.351-27.028zm-3.861 113.903c2.457-1.93 5.616-1.404 8.424-1.229 56.337 3.16 112.673 6.143 169.01 9.302 36.856 2.106 73.712 4.212 110.743 6.142 1.755.176 3.51.527 5.44.702 3.51 7.02 6.318 14.216 8.424 22.991-107.583-7.02-214.29-13.864-322.926-20.885 7.371-7.37 14.391-11.934 20.885-17.023zm307.658 117.412c-7.898 1.228-15.62.175-22.816-.703-.35 0-.702-.35-.877-.526-.351-.175-.527-.351-.878-.702-.526-.351-1.053-.877-1.58-1.404-1.052-1.053-1.754-2.457-2.807-3.51-.351-.351-.878-.702-1.053-1.053-.352-.702-.527-1.404-.703-2.106 0-.176 0-.351-.175-.702-.176-.176-.351-.351-.351-.702-.878-1.053-1.58-2.106-2.106-3.335-.176-.35-.176-.877-.176-1.228.176-1.053-.35-2.106-.702-2.984-.175-.877-.35-1.58-.526-2.457 0-.175-.176-.526-.351-.702-.351-.526-.878-.877-1.404-1.228-1.229-1.404-2.457-2.633-3.686-3.862-.526-.526-1.053-.877-1.58-1.228.352.175.527.702.878 1.053.176.35.527.702.878 1.053.526.702 1.053 1.404 1.404 2.457 0 .351.35.878.526 1.229.527 1.053.878 1.93 1.053 2.983a17.31 17.31 0 0 1 .527 4.212c.175 1.229.175 2.633.35 3.861 0 0 .878.351 1.054.351.175.176.175.527.175.878.351.877.878 1.755 1.404 2.632l.527 1.053V855c0 .351 0 .877-.176 1.229-.35.526-1.053.877-.877 1.58-.702 0-1.755.175-2.457 0-.176 0-.351 0-.527-.176-1.228-.176-2.281-.176-3.51-.176-2.281-.175-4.563-.351-6.844-.351-19.832-1.229-39.664-2.633-59.496-3.861-19.832-1.229-39.664-2.633-59.496-3.861-19.832-1.229-39.664-2.633-59.495-3.861-19.832-1.229-39.664-2.633-59.496-3.861-10.004-.702-19.832-1.229-29.836-1.93-4.914-.352-10.003-.703-14.918-.878l-7.37-.527c-.527 0-7.196-.351-7.196-.526V820.95l.175-.175.351-.351c.176-.351.351-.527.527-.878.526-.702.877-1.228 1.404-1.93s1.228-1.404 1.755-2.106c.175-.351.35-.527.526-.878a5.332 5.332 0 0 1 1.229-.877c.526-.352 1.053-.527 1.58-.878 1.052-.527 2.105-1.053 3.334-1.404.877-.351 1.755-.527 2.632-.351.702.176 1.404.526 1.931 1.053 1.93 1.404 4.037 2.808 6.318 3.335.527.175.702-.351 1.053-.527.878-.877 1.93-1.58 2.808-2.106.176-.176.527-.351.702-.351.527-.351 1.053-.527 1.58-.878 2.106-.877 4.387-1.053 6.669-1.228-1.58-.527-3.335-.878-5.265-1.053-1.053 0-2.106 0-2.984.526l-.35.351c-.176.176-.527.351-.703.527l-1.58 1.053c-.175 0-.175.175-.35.175-.351.176-.702.351-.878.702-.175.176-.702.527-1.053.527-.175 0-.526-.176-.877-.351-.176-.176-.527-.176-.702-.351-.527-.351-1.053-.702-1.404-.878-1.404-1.053-2.808-2.457-4.213-3.685-.175-.176-.35-.176-.526-.351h-.702c-.527.175-1.053.175-1.58.35-.35 0-.526.176-.877.176h-.527c-.526 0-1.053.176-1.58.176-.701.175-1.579.35-2.28.526-2.282.527-4.388 1.053-6.67 1.755V775.32c115.13 7.371 229.91 14.918 345.216 22.29v61.075zm-32.82-601.1-5.09-7.196h-2.28c-.352 0-.527-.35-.878-.35l-5.265-4.213c-3.51-2.808-7.196-5.44-10.882-7.898-7.37-5.09-15.093-9.828-23.342-13.689-3.685-.35-6.669-2.106-10.88-4.738 4.562.702 7.721 1.228 10.88 1.755 10.882-.176 21.06 3.334 31.416 6.493 8.073 2.457 16.146 5.09 24.57 5.792 12.812.877 22.816 7.722 32.82 14.567 7.897 5.44 10.53 14.391 12.987 22.815 1.755 6.494-4.388 9.302-8.25 12.987v.702c0 .351.176.702.176 1.053.176.702.527 1.229.702 1.931.702 1.404 1.404 2.633 1.93 4.037.352.702.527 1.404.703 2.106.175.702.351 1.58.175 2.281 0 .351-.526.702-.702.878-1.053 1.404-2.281 2.808-3.334 4.036l7.371-2.457c.527-.526.878-1.053 1.404-1.404.527-.35 1.053-.877 1.58-1.228-.527-.351-.527-.527-.527-1.053-.175-.702-.35-1.58-.526-2.282l-.527-2.106c0-.351-.175-.702-.175-1.053 0-.175-.351-.877-.176-1.053 1.93-3.861 6.143-4.563 8.249-7.02 12.987.877 20.183 7.722 23.868 19.48 4.739 14.919 5.967 30.714 10.355 45.632 7.547 26.676 2.808 53.002.878 79.503-1.054 15.269.526 30.888-2.458 45.982-1.228 5.791-2.632 11.232-7.195 14.567-1.58 6.493-.176 12.46-.527 18.427-.702 1.755-2.281 3.16-3.685 4.388-1.229 1.229-2.633 2.282-4.037 3.335l-.175.175c-1.229.878-2.633 1.755-3.686 2.808l-1.58 1.58c-.526.527-1.228.877-1.93 1.404-1.229.702-2.457 1.58-3.686 2.457-.35.35-.877.526-1.053 1.053l-.702.702-.702.702c-.175.175-.35.35-.35.526s.175.176.175.351c.877 1.053 1.228 2.633 1.93 3.861.176.351.527.702.702 1.229.176.175.176.35.176.702.35.702.526 1.404.526 2.106v1.053c-.175.702.176 1.404-.35 1.93-.703.702-1.58 1.405-2.282 2.107-.351.35-.702.702-1.053.877-.702.702-1.58 1.229-2.282 1.93-.175.176-.35.176-.35.352-.176.175-.176.526 0 .877.526 3.861 1.052 7.898 1.579 11.759 0 .526.175 1.228.175 1.93-.175.527-.175 1.053-.175 1.755 0 1.58.175 3.16.35 4.564l3.335-16.322c2.457-4.563 8.6-5.44 10.18-10.004 0-4.037-3.686-5.09-4.915-8.6a4711.032 4711.032 0 0 0 20.534-15.093c.176-3.51.527-7.722.702-12.11 2.457.527 2.809 2.457 2.984 4.037 1.229 23.693 7.02 47.386 1.93 71.254-1.754 8.6-4.738 16.849-5.791 25.448-2.808 24.22.877 48.264.351 72.308-.351 12.11 1.229 24.395-2.808 37.031-17.55 9.126-35.276 17.375-54.406 26.501.877-10.706 1.228-20.183 2.281-29.66 1.58-15.269.878-30.889 4.212-45.982 1.404-6.494.878-13.514-.702-20.007-5.44-21.06-5.265-42.121-2.632-63.357 2.808-23.167 2.106-46.509 2.457-69.85.35-23.342 3.861-46.333 5.09-69.675 1.228-24.395 3.334-48.966-.878-73.01-3.335-19.13-8.775-37.909-11.057-57.39-1.755-14.39-8.95-26.325-20.183-35.627-4.212-3.51-8.073-7.195-12.285-10.881-1.053-.878-1.93-1.755-2.984-2.808-.175-.176-.35-.176-.35-.351-.352-.351-.352-.702-.527-1.229m93.192 481.231s.176.176.351.176c.176 0 .176 0 .351.175.351 0 .527.176.702.351.351.351.527.702.702 1.053 0 .527.176 1.053.176 1.755 0 1.229.175 2.633 0 3.861 0 .702 0 1.229-.176 1.93v.703c0 .35.351.35.702.526.527.176.878.702 1.053 1.053.176.351.351.702.176 1.053 0 .351-.176.702-.351.878-.351.702-.878 1.053-1.58 1.404-1.58.702-3.159 1.58-4.563 2.457-14.04 7.371-28.08 14.918-42.823 22.64-3.86-7.196-6.493-14.391-9.126-22.64a8722.992 8722.992 0 0 0 58.267-27.554c6.494 4.036 10.53 10.18 15.27 15.444-2.633 2.984-5.968 3.861-9.302 5.44l-1.053-.526c-.351-.175-.878-.526-1.229-.702-.351-.175-.702-.526-1.229-.526-.526-.176-1.228-.527-1.58-.878-.175-.175-.175-.35-.175-.702-.175-.702-.35-1.228-.35-1.93-.176-.878-.352-1.58-.703-2.457-.175-.702-.526-1.58-.702-2.282l-3.685-1.404 3.685 1.404m9.127 46.86v-2.633c0-.527 0-1.229.35-1.755.176-.351.176-.527.352-.702 0-.176.175-.176.175-.351.527-.878 1.053-1.755 1.755-2.633 2.984-3.51 4.739-7.546 4.388-12.46 1.93-1.404 3.86-2.984 7.195-2.808 1.229 17.199.351 35.1-.175 53.353-22.114 13.162-44.227 26.325-67.218 39.839v-59.496a7835.697 7835.697 0 0 1 53.529-28.08c.526.702.877 1.58 1.053 2.457.175.526 0 1.228 0 1.755 0 .35-.176.526-.351.877 0 .176-.176.351-.351.702l-.702.702c-.351.176-.527.527-.878.878a5.333 5.333 0 0 0-.877 1.228c-.176.176-.351.351-.351.702a1.34 1.34 0 0 0-.351.878c-.527.877-1.054 1.93-1.756 2.808-.35.35-.702.877-.702 1.404 0 .175 0 .35.176.526v6.845c0 1.229.175 2.282.175 3.51 0 .878-.175 2.106-.702 2.808l-.526.527s-.176.175-.176.35-.175.176-.35.352c-1.23 1.404-2.809 2.457-4.388 3.51 1.053-.176 2.106-.351 2.983-.878.702-.35 1.404-.877 2.282-1.228.175 0 .351-.351.702-.351h.176c.35-.527.526-1.053.877-1.755.176-.176.176-.527.351-.878.176-.35.176-.526.351-.877 0-.176.176-.351.176-.527.175-.702.35-1.404.702-2.106.175-.351.175-.702.35-1.053 0-.175.176-.351.176-.702s0-.702.176-.877c0-.352.175-.703.526-.878h.351l.527-2.984z" class="st13"/></g><g id="Eyes_B_1_"><path d="M540.526 478.193c-4.212 6.318-4.563 14.918-1.579 21.938.878 2.106 2.106 4.036 4.037 5.265 3.86 2.281 8.775.175 12.811-1.93 5.265-2.809 10.706-6.143 12.812-11.76 1.58-4.036.878-8.775-1.053-12.636-1.053-2.457-2.632-4.563-4.388-6.493-1.228-1.229-2.281-2.808-4.212-2.984-4.387-.702-9.126.702-12.811 2.984-2.282 1.58-4.213 3.51-5.617 5.616zm-79.854 1.228c-1.404 2.457-2.457 5.09-2.632 7.898-.351 4.739 1.93 9.126 4.036 13.338.351.878.878 1.755 1.58 2.282s1.58.702 2.457.877c8.775 1.229 17.901-2.281 23.517-9.126 1.053-1.404 1.931-2.808 2.457-4.387.702-2.457.702-4.915.527-7.372-.176-3.51-.527-7.546-3.16-10.003-1.228-1.229-2.807-2.106-4.387-2.808-1.93-1.053-4.212-2.282-6.318-2.984-1.58-.35-3.51.176-4.914.702-3.686 1.229-6.845 3.686-9.477 6.494-.702.877-1.404 1.58-2.106 2.457-.351.526-.702.877-.878 1.404-.175.175-.35.877-.702 1.228z" class="st2"/><path fill="#272f49" d="M547.722 506.975c-1.755-.175-3.51-.526-5.265-.877-.702-1.053-1.228-1.93-1.755-2.984-.527-1.053-.702-1.93-1.229-2.983-1.053-2.106-1.58-4.212-1.93-6.494-.702-5.09.175-10.355 2.808-14.567s6.845-7.722 11.583-9.301c1.93-.702 4.212-1.053 6.318-.351 1.404.35 2.457 1.228 3.51 2.281.527.527 1.053 1.053 1.404 1.58.351.526.878 1.053 1.229 1.58-.526 0-1.053-.176-1.58-.176s-1.228-.176-1.755-.176c-10.354 0-18.954 8.424-18.954 18.955 0 5.09 2.106 10.003 5.616 13.513zm-83.54-3.159c-.175 0-.702-1.053-.702-1.228-.175-.351-.526-.878-.702-1.404-.35-.878-.877-1.93-1.053-2.808-.35-1.053-.35-1.93-.702-2.984l-1.053-3.685c-.702-2.457-1.053-4.915-.702-7.547.351-4.212 2.633-8.249 5.792-11.232s7.196-4.914 11.408-5.792c1.404-.35 2.808-.526 4.387-.175 1.755.35 3.335 1.404 4.563 2.808.702.702 1.229 1.404 1.755 2.106.176.35.527.702.176 1.053-.176.175-.351.175-.527.175-.526 0-1.228-.175-1.755-.175s-1.228-.176-1.755-.176c-10.354 0-18.954 8.424-18.954 18.955 0 5.09 1.93 9.652 5.265 13.162-.175 0-5.44-1.053-5.44-1.053z"/><path d="M471.905 508.73c-13.339 0-24.22-10.88-24.22-24.22 0-13.337 10.881-24.219 24.22-24.219s24.22 10.882 24.22 24.22-10.882 24.22-24.22 24.22zm0-41.418c-9.478 0-17.2 7.722-17.2 17.199s7.722 17.2 17.2 17.2 17.199-7.723 17.199-17.2-7.722-17.2-17.2-17.2zm77.923 43.173c-13.338 0-24.22-10.88-24.22-24.219 0-13.338 10.882-24.22 24.22-24.22s24.22 10.882 24.22 24.22-10.882 24.22-24.22 24.22zm0-41.418c-9.477 0-17.2 7.722-17.2 17.199s7.723 17.2 17.2 17.2 17.2-7.723 17.2-17.2-7.723-17.2-17.2-17.2z"/><path d="M460.672 500.13a21.797 21.797 0 0 1-3.685-12.109 22.396 22.396 0 0 1 22.464-22.464h.702c1.404 1.404 2.808 2.632 3.861 4.036-1.58-.35-2.983-.526-4.563-.526-10.354 0-18.954 8.424-18.954 18.954 0 5.09 1.93 9.653 5.265 13.163l-5.09-1.053zm83.54 3.16c-1.755-.176-3.51-.527-5.265-.878-2.457-3.685-3.861-8.073-3.861-12.636 0-11.934 9.477-21.762 21.236-22.464l4.563 3.685c-1.053-.175-2.282-.35-3.51-.35-10.355 0-18.955 8.423-18.955 18.954.176 5.44 2.282 10.179 5.792 13.689z"/></g></svg>