<svg xmlns="http://www.w3.org/2000/svg" viewBox="0 0 1080 1080"><style>.st0{fill:#fff}</style><circle cx="540" cy="540" r="537.5" class="st0"/><path fill="#2775ca" d="M540 1055c285.398 0 515-229.602 515-515S825.398 25 540 25 25 254.602 25 540s229.602 515 515 515z"/><path d="M681.625 621.54c0-75.102-45.062-100.852-135.188-111.58-64.375-8.585-77.25-25.75-77.25-55.795s21.46-49.352 64.375-49.352c38.625 0 60.085 12.875 70.812 45.062 2.148 6.438 8.585 10.727 15.023 10.727h34.33c8.585 0 15.023-6.438 15.023-15.017v-2.148c-8.585-47.21-47.21-83.688-96.562-87.977v-51.5c0-8.585-6.438-15.023-17.165-17.17h-32.188c-8.585 0-15.023 6.437-17.17 17.17v49.352c-64.375 8.585-105.142 51.5-105.142 105.148 0 70.812 42.915 98.705 133.04 109.437 60.085 10.727 79.398 23.602 79.398 57.938s-30.045 57.938-70.812 57.938c-55.795 0-75.108-23.608-81.545-55.795-2.142-8.58-8.58-12.875-15.017-12.875h-36.483c-8.58 0-15.017 6.438-15.017 15.023v2.148c8.58 53.642 42.915 92.267 113.727 103v51.5c0 8.58 6.438 15.017 17.165 17.165h32.188c8.585 0 15.023-6.438 17.17-17.165v-51.5c64.373-10.734 107.288-55.797 107.288-113.734z" class="st0"/><path d="M430.562 846.852c-167.375-60.08-253.21-246.767-190.977-412 32.188-90.125 103-158.79 190.977-190.977 8.585-4.29 12.875-10.727 12.875-21.46v-30.04c0-8.585-4.29-15.023-12.875-17.165-2.148 0-6.438 0-8.585 2.142-203.852 64.375-315.437 281.108-251.062 484.96C209.54 782.477 301.812 874.75 421.977 913.375c8.585 4.29 17.17 0 19.312-8.585 2.148-2.142 2.148-4.29 2.148-8.58v-30.045c.001-6.438-6.437-15.017-12.875-19.313zm227.461-669.5c-8.585-4.29-17.17 0-19.312 8.585-2.148 2.148-2.148 4.29-2.148 8.585v30.04c0 8.585 6.438 17.165 12.875 21.46 167.375 60.08 253.21 246.767 190.977 412-32.188 90.125-103 158.79-190.977 190.977-8.585 4.29-12.875 10.727-12.875 21.46v30.04c0 8.585 4.29 15.023 12.875 17.165 2.148 0 6.438 0 8.585-2.142 203.852-64.375 315.438-281.108 251.062-484.96C870.46 308.25 776.04 215.977 658.023 177.352z" class="st0"/></svg>