<svg xmlns="http://www.w3.org/2000/svg" viewBox="0 0 1080 1080"><circle cx="540" cy="540" r="537.5" fill="#fff"/><circle cx="540" cy="540" r="515"/><circle cx="540" cy="540" r="476.3"/><linearGradient id="a" x1="539.906" x2="539.906" y1="997.694" y2="45.165" gradientTransform="matrix(1 0 0 -1 0 1080)" gradientUnits="userSpaceOnUse"><stop offset=".3" stop-color="#efe149"/><stop offset=".38" stop-color="#efdc47"/><stop offset=".48" stop-color="#f0cd42"/><stop offset=".59" stop-color="#f2b43a"/><stop offset=".7" stop-color="#f5922f"/><stop offset=".82" stop-color="#f86621"/><stop offset=".94" stop-color="#fc310f"/><stop offset="1" stop-color="#fe1406"/></linearGradient><path fill="url(#a)" d="M307 628.5c-5.8 24-7.2 48.9-4.1 73.4-.2 8.4-2.2 16.6-5.9 24.2-6.2 7.8-1.6 17.1-3.7 25.4-.8 3.5-3.4 7.4 0 9.4.8 16.7 2.5 33.2 5.2 49.7.4 3.8 3.9 6.5 7.7 6.1 2.4-.3 4.4-1.7 5.4-3.8l7.6-25.3c4.4-8.3 13-8.3 20.7-10.4 4.1 15.1 4.1 15.1 12.5 7.7 7.6-14.2 2-29.4 3.4-44l3.7-18c4.3-5 6.9-11.3 7.4-17.9 9.4-20.1 5.7-41 3.3-61.7 1.3-8.4 2.5-17 3.8-25.4v-6.8c6.4-3 6.6-9.4 7-14.9 3.4-3.9 4.9-9.1 4-14.2 5.6-7.8 1.8-17.1 4-25.4l6.7-14.6c2.6-1.4 4.1-4.2 4-7.1 4.6-5.2 8-11.3 9.8-18 5-5.1 8.9-11.2 11.3-18 5.1-5 8.6-11.3 10.2-18.2 6.7-7.2 11.5-16 13.9-25.6 18.2-24 29.5-51.9 43.8-78.1 7.4-13.5 12.1-23.1-7.1-26.7-1.6-7.2 10.5-10 3.8-16.5-4.4-4.4-10.5-3.1-16.8-2-15.1 3.9-29.8 9.1-44 15.6-10.7 2.5-19.8 9.3-25.3 18.8-12.3 24.7-25.3 49-38.2 73.4-2 4.1-3.8 8.3-5.3 12.6-1.5 5.1 3.6 12.6-5.3 14.5-7.1 1.6-9.4-4.9-14-8.7-8.1-20.9-21.8-38.9-31.3-58.8-8.3-17.5-17.6-16.1-31.2-10.3-7 3.4-13.7 7.5-20 12.2-6 4.3-12.7 11.9-9.4 18 11 19.3 8.8 46.1 32.3 58.3l8.7 10.4c4.6 9.4 9.4 19.4 14 29.1 1.4 6 2.9 11.9 4.3 17.9 0 8.7-2.3 18.8 4.1 25 6.2 5.2 9.9 12.9 10 21.1-2.6 4.3-3.9 9.4-3.7 14.4-4.8 10.2-7.4 21.6-7.3 33.2m552.7-354.1c-16.5 7.1-49.1 26.6-56.3 43-3 6.1-7.5 11.4-13.1 15.3-13.8 9.9-23.7 24.2-28.1 40.5-2 7.2-5.5 15-12.4 17-23.8 7.1-25.6 30.4-36.5 46.9-3.7 10-7.5 19.4-11.2 28.8-4.3 5.4-6.9 11.9-7.6 18.8-4.1 5.4-6.5 12-6.8 18.8l-3.3 3.8c-2 1.6-3 4.2-2.5 6.8.3.8.7 1.6 1.1 2.3-3 1-6.2 1.2-9.4.7 3.2-3.4 3.8-8.4 1.6-12.5L673 503v-10.2l1.5-.7c1.5-7.1 1.1-14.5-1.3-21.4-.3-8.8-2.9-17.4-7.3-24.9-1.9-8.2 6-19.3-4.8-24.1-7.2-3.6-15.9-2.6-21.9 2.7-11 8.5-18.5 20.8-20.8 34.5-4.1 5.1-6.6 11.3-7.1 17.8-3.6 5.7-6 12.1-6.9 18.8-6.3 10.2-11.2 21.1-14.5 32.6-6.6 9.9-11.5 20.7-14.6 32.2-6.1 6.3-4.8 16.9-14.9 25.4V507c2.2-3-1.3-4.5-1.9-6.8 9.4-11.2 5.6-29.4-7.6-42.1l.5-1-.7-.5c-5.2-12.7-18.1-13.1-28.1-18.8-6.4-4.9-15.6-3.6-20.5 2.8-1.1 1.4-1.9 3-2.4 4.7-1.8 2.1-1.8 5.2 0 7.2v2.9c-.8 10.1-1 20.2-.6 30.3-.4 5.9.3 11.9 1.9 17.6 0 9.4 0 18.8-.5 28.8v24.8c-1-.1-2 .3-2.6 1 0 30.2-1.8 60.5 5.2 90.3.1 1.2.6 2.3 1.4 3.1-1.4 6.6-10.3 7.2-11 14.3l.8.8-.8-.8c-5 9.4 1.3 17.4 3.7 25.8l-3.8 50.5c-2.9 9.5-3.4 19.7-1.5 29.5-1.8 3.5-1.2 7.7 1.5 10.6 7.5 13.3 7.8 30.2 20.2 41.3 4.1-4.2 6.4-10 6.1-15.9l10.5-7.5c12.8-9.8 21.6-24 24.8-39.8 6.7-9.4 3.5-22.1 8.9-32.2l3.1-7.5c3.9-3.9 6.5-9 7.3-14.4 3.7-4.1 6.1-9.2 6.8-14.6 4.4-5 7.2-11.2 8.2-17.8 4-3.7 6.4-8.7 6.7-14.2l-.9-.7.8.8c4.1-5.5 6.7-11.9 7.6-18.8 3.7-5.6 6-12.1 6.5-18.8 2.5-5.9 5-11.7 7.4-17.6 8.7-1.4 9.4 3.8 9.4 10.7 0 8.3.6 16.7.8 25l-.6 17.1c-1.6 8.6-3.1 17.3-4.7 25.9-2.5 3.2-3.1 7.4-1.8 11.3-2.3 4.9-2.9 10.4-1.6 15.7-.4 11.4.5 22.7 2.4 34 .3 8.8 7.2 16 15.9 16.6 7.5 2.5 15.7-.5 19.8-7.3 9-13.3 16-27.9 20.8-43.2 5-6.1 7.5-13.9 6.9-21.9 4.7-15.7 14.5-29.8 14.1-46.9l3.7-7.2c3.9-4 6.5-9 7.7-14.4 6.3-8.3 8.9-18.8 7.1-29l1.4-14.1c10.9-6.9 14.3-18.8 20.2-29.4 3.3-2.6 4.7-6.8 3.7-10.9 2.5-8.4 5.1-16.8 7.7-25.2 3.1-2.6 4.6-6.7 4.1-10.7 2.2-1.2 3.4-3.7 3-6.2 5.5-8 9.3-17 11.3-26.4 5.2-10.2 8.9-21.2 10.8-32.5 8.6-20.7 27.7-34.8 35.3-56.3 7.5-19.7 20.1-37 36.5-50.3 17.6-15.3 18.8-29 8.3-53.7M560.4 729.2c.6-.3 1.3-.6 2-.8l-2 .8zM540 63.7c-263 0-476.3 213.2-476.4 476.2-.1 263 213.1 476.3 476.2 476.4 263 .1 476.3-213.1 476.4-476.2v-.1c0-263-213.1-476.2-476.2-476.3.1 0 0 0 0 0zm0 917.8c-243.9-.1-441.5-197.8-441.5-441.7.1-243.9 197.8-441.5 441.7-441.5S981.7 296.1 981.7 540c.1 243.8-197.5 441.6-441.3 441.7h-.4v-.2z"/></svg>