<svg xmlns="http://www.w3.org/2000/svg" version="1.1" viewBox="0 0 1080 1080"><style>.st0{fill:#fff}</style><circle cx="540" cy="540" r="537.5" class="st0"/><circle cx="540" cy="540" r="515" fill="#f3ba2f"/><path d="m547.4 360.2 116.4 116.4c4 4 10.9 4 15.4 0l61.4-61.4c4-4 4-10.9 0-15.4L547.4 206.6c-4-4-10.9-4-15.4 0L338.9 399.8c-4 4-4 10.9 0 15.4l61.4 61.4c4 4 10.9 4 15.4 0l116.4-116.4c4.4-4 11.4-4 15.3 0zM270 469.7l-61.4 61.4c-4 4-4 10.9 0 15.4l61.4 61.4c4 4 10.9 4 15.4 0l61.4-61.4c4-4 4-10.9 0-15.4l-61.4-61.4c-4.5-4.5-11.4-4.5-15.4 0zM547.4 870l193.2-193.2c4-4 4-10.9 0-15.4L679.2 600c-4-4-10.9-4-15.4 0L547.4 716.4c-4 4-10.9 4-15.4 0L415.6 600c-4-4-10.9-4-15.4 0l-61.4 61.4c-4 4-4 10.9 0 15.4L532.1 870c4.4 4.4 11.4 4.4 15.3 0zm247.7-400.3-61.4 61.4c-4 4-4 10.9 0 15.4l61.4 61.4c4 4 10.9 4 15.4 0l61.4-61.4c4-4 4-10.9 0-15.4l-61.4-61.4c-4.5-4.5-11.4-4.5-15.4 0z" class="st0"/><path d="m610.3 531.1-62.4-62.4c-4-4-10.9-4-15.4 0l-62.4 62.4c-4 4-4 10.9 0 15.4l62.4 62.4c4 4 10.9 4 15.4 0l62.4-62.4c4-4.5 4-11.4 0-15.4z" class="st0"/></svg>