<svg width="24" height="24" viewBox="0 0 24 24" fill="none" xmlns="http://www.w3.org/2000/svg">
<path d="M23.5 12C23.5 18.3513 18.3513 23.5 12 23.5C5.64873 23.5 0.5 18.3513 0.5 12C0.5 5.64873 5.64873 0.5 12 0.5C18.3513 0.5 23.5 5.64873 23.5 12Z" fill="#FAE3AC" stroke="white"/>
<path d="M12.1972 7.36583L15.2282 10.3968C15.3378 10.5064 15.513 10.5064 15.6226 10.3968L17.2221 8.79734C17.3316 8.68778 17.3316 8.5125 17.2221 8.40294L12.1972 3.37806C12.0876 3.26851 11.9124 3.26851 11.8028 3.37806L6.77793 8.40294C6.66837 8.5125 6.66837 8.68778 6.77793 8.79734L8.37742 10.3968C8.48697 10.5064 8.66226 10.5064 8.77181 10.3968L11.8028 7.36583C11.9124 7.25628 12.0876 7.25628 12.1972 7.36583Z" fill="#F3BA2F"/>
<path d="M4.97755 10.2033L3.37806 11.8028C3.26851 11.9124 3.26851 12.0877 3.37806 12.1972L4.97755 13.7967C5.08711 13.9062 5.26239 13.9062 5.37195 13.7967L6.97144 12.1972C7.08099 12.0877 7.08099 11.9124 6.97144 11.8028L5.37195 10.2033C5.26239 10.0938 5.08711 10.0938 4.97755 10.2033Z" fill="#F3BA2F"/>
<path d="M12.1972 20.6219L17.2221 15.5971C17.3317 15.4875 17.3317 15.3122 17.2221 15.2027L15.6226 13.6068C15.5131 13.4973 15.3378 13.4973 15.2282 13.6068L12.1972 16.6378C12.0877 16.7474 11.9124 16.7474 11.8028 16.6378L8.77185 13.6068C8.6623 13.4973 8.48701 13.4973 8.37746 13.6068L6.77797 15.2027C6.66841 15.3122 6.66841 15.4875 6.77797 15.5971L11.8028 20.6219C11.9124 20.7315 12.0877 20.7315 12.1972 20.6219Z" fill="#F3BA2F"/>
<path d="M18.6279 10.2033L17.0285 11.8028C16.9189 11.9124 16.9189 12.0877 17.0285 12.1972L18.6279 13.7967C18.7375 13.9063 18.9128 13.9063 19.0223 13.7967L20.6218 12.1972C20.7314 12.0877 20.7314 11.9124 20.6218 11.8028L19.0223 10.2033C18.9128 10.0974 18.7375 10.0974 18.6279 10.2033Z" fill="#F3BA2F"/>
<path d="M13.826 11.8028L12.1973 10.1741C12.0878 10.0645 11.9125 10.0645 11.8029 10.1741L10.1742 11.8028C10.0647 11.9123 10.0647 12.0876 10.1742 12.1972L11.8029 13.8259C11.9125 13.9354 12.0878 13.9354 12.1973 13.8259L13.826 12.1972C13.9356 12.0876 13.9356 11.9123 13.826 11.8028Z" fill="#F3BA2F"/>
</svg>
