<svg xmlns="http://www.w3.org/2000/svg" version="1.1" viewBox="0 0 1080 1080"><style>.st0{fill:#fff}</style><circle cx="540" cy="540" r="537.5" class="st0"/><g id="Layer_x0020_1"><g id="_1421344023328"><path fill="#f7931a" d="M1039.6 664.6c-68.8 275.9-348.3 443.9-624.2 375-275.9-68.8-443.8-348.2-375-624.1 68.8-276 348.2-443.9 624.1-375.1 276 68.7 443.9 348.3 375.1 624.2z"/><path d="M767.1 466.6c10.3-68.5-41.9-105.4-113.3-130l23.1-92.8-56.5-14.1-22.5 90.4c-14.9-3.7-30.1-7.2-45.3-10.7l22.7-91-56.5-14.1-23.2 92.8c-12.3-2.8-24.4-5.6-36.1-8.5l.1-.3-77.9-19.3-15 60.4s41.9 9.6 41 10.2c22.9 5.7 27 20.9 26.3 32.9l-26.4 105.8c1.6.4 3.6 1 5.9 1.9-1.9-.5-3.9-1-6-1.5l-37 148.2c-2.8 7-9.9 17.4-25.9 13.4.6.8-41.1-10.3-41.1-10.3l-28.1 64.7L349 713c13.7 3.4 27.1 7 40.3 10.4l-23.4 93.9 56.5 14.1 23.2-92.9c15.4 4.2 30.4 8 45 11.7l-23.1 92.5 56.5 14.1 23.4-93.7c96.4 18.2 168.8 10.9 199.3-76.3 24.6-70.2-1.2-110.7-51.9-137.1 37.1-8.6 64.9-32.9 72.3-83.1zM638 647.7c-17.5 70.2-135.6 32.2-173.9 22.7l31-124.4c38.3 9.6 161.1 28.5 142.9 101.7zm17.5-182.1c-15.9 63.8-114.3 31.4-146.2 23.5l28.1-112.8c31.9 7.9 134.7 22.7 118.1 89.3z" class="st0"/></g></g></svg>