<svg xmlns="http://www.w3.org/2000/svg" version="1.1" viewBox="0 0 1080 1080"><style>.st2{fill:#fec803}</style><circle cx="540" cy="540" r="537.5" fill="#fff"/><circle cx="540" cy="540" r="515" fill="#2a2a2a"/><path d="M792.948 476.327c-22.882 0-45.789.323-68.67-.186-7.58-.16-10.423 2.62-11.842 9.393-4.927 23.773-10.021 47.543-15.561 71.171-1.873 7.978.498 9.951 8.479 9.88 33.943-.349 67.886.045 101.83-.279 7.818-.071 9.925 1.275 7.937 9.579-7.558 31.517-14.685 63.149-20.845 94.944-1.657 8.513-5.473 9.278-12.6 9.23-33.542-.256-67.106.115-100.644-.279-7.981-.093-11.701 1.576-13.503 9.995-11.299 52.782-23.569 105.378-34.749 158.208-1.943 9.137-5.354 11.712-14.566 11.667-131.414-.628-262.828-.884-394.242-1.371-10.634-.045-21.246-1.23-31.885-1.576-6.465-.208-8.149-3.337-6.844-9 7.532-32.721 11.463-66.025 16.84-99.095 1.089-6.752 4.05-8.698 10.898-8.557 20.916.394 41.832.115 62.747-.045 82.43-.65 164.859-1.553 247.289-1.787 9.709-.022 12.908-3.708 14.685-11.92 19.638-91.258 39.465-182.49 59.195-273.727 5.544-25.65 11.106-51.299 16.201-77.016 1.776-9.044 4.76-13.659 15.799-13.105 31.859 1.576 63.933 1.902 95.695 1.252 53.224-1.089 106.448.372 159.65-1.182 11.37-.323 12.08 3.85 10.044 12.73-7.153 31.216-14.142 62.476-20.633 93.807-1.419 6.841-5.161 7.376-10.824 7.353-23.315-.177-46.598-.084-69.881-.084z" class="st2"/><path d="M503.236 362.864c15.725-1.089 30.424 1.345 45.146 1.252 9.397-.071 10.397 3.103 8.691 11.493-10.423 51.255-20.318 102.621-30.491 153.92-10.33 52.109-20.912 104.152-31.082 156.284-1.706 8.78-4.708 12.652-14.633 12.489-24.962-.394-49.947.903-74.928 1.483-3.415.07-6.826.07-10.241-.186-16.84-1.249-17.204-1.364-13.882-18.441 15.361-78.524 30.922-156.982 46.421-235.484 4.685-23.796 9.694-47.52 13.856-71.413 1.248-7.205 4.117-9.78 11.058-9.754 17.001.096 33.933-3.286 50.085-1.643zm-179.417 88.635c15.654 0 31.353.624 46.963-.242 9.271-.528 10.415 2.883 8.758 11.53-11.378 59.403-22.439 118.851-33.635 178.303-3.002 16-6.228 31.948-9.092 47.992-1.007 5.67-2.464 9.033-9.07 9.104-29.406.215-58.809 1.442-88.237 1.631-19.953.145-21.41-2.018-17.289-22.313 14.67-72.468 29.54-144.913 44.095-217.407 1.367-6.844 4.121-8.933 10.527-8.721 15.649.461 31.325.123 46.98.123zm374.378-213.268c16.241 0 32.479.16 48.721-.093 5.67-.093 6.986 1.267 5.774 7.833-4.288 23.242-7.981 46.644-11.422 70.049-1.233 8.338-4.544 11.01-12.463 10.872-29.997-.554-60.013-.483-90.01-.045-8.152.115-11.422-1.475-9.449-11.355 4.563-22.759 8.702-45.629 11.994-68.641 1.126-7.9 4.203-8.869 10.296-8.732 15.499.342 31.02.112 46.559.112z" class="st2"/></svg>