<svg xmlns="http://www.w3.org/2000/svg" version="1.1" viewBox="0 0 1080 1080"><style>.st1{fill:#373737}</style><circle cx="540" cy="540" r="537.5" fill="#fff"/><circle cx="540" cy="540" r="515" class="st1"/><circle cx="540" cy="540" r="498.4" class="st1"/><path fill="#fec803" d="M382.5 432.3c-74.6-1.2-150.4 0-226.1 0-10.7 0-14.2 4.7-13 14.2 1.2 28.4 22.5 52.1 50.9 59.2h158.6v9.5H220.3c0 1.2 1.2 1.2 1.2 2.4 7.1 33.1 26 53.3 55.6 62.7h75.8v9.5h-54.5s0 1.2 1.2 1.2c9.5 34.3 36.7 54.5 73.4 55.6 63.9 2.4 117.2-42.6 118.4-105.4 3.6-55.7-47.3-107.8-108.9-108.9zm542.3 0c-74.6 0-150.4-1.2-226.1 0-62.7 1.2-113.7 52.1-110.1 110.1 3.6 62.7 55.6 107.7 118.4 105.4 36.7-1.2 63.9-21.3 73.4-55.6 0 0 0-1.2 1.2-1.2h-54.5v-9.5h77c29.6-9.5 47.4-29.6 55.6-62.7 0-1.2 1.2-1.2 1.2-2.4H729.4v-9.5h157.5c29.6-8.3 49.7-33.1 50.9-59.2 0-10.7-3.6-15.4-13-15.4z"/></svg>