<svg viewBox="0 0 512 512" xmlns="http://www.w3.org/2000/svg" xml:space="preserve" style="fill-rule:evenodd;clip-rule:evenodd;stroke-linejoin:round;stroke-miterlimit:2"><ellipse cx="259.75" cy="255" rx="260.25" ry="255" style="fill:#4895da" transform="matrix(.98367 0 0 1.00392 .492 0)"/><path d="M329.5 81.5a51.491 51.491 0 0 1-4 15c13.195.392 26.195-1.275 39-5 .886.825 1.219 1.825 1 3a381.191 381.191 0 0 0-3 17c-1.067 3.84-2.734 7.506-5 11a3.647 3.647 0 0 0 1 1.5 239.357 239.357 0 0 0 45 8.5 182.226 182.226 0 0 1-15 17c26.392 4.297 46.725-4.703 61-27 8.449 11.225 12.116 23.891 11 38-.856 7.069-3.023 13.736-6.5 20a289.889 289.889 0 0 1-13.5 15 288.16 288.16 0 0 0-18 11.5c-7.06 3.199-14.06 6.366-21 9.5-3.786.645-7.12 2.145-10 4.5a266.79 266.79 0 0 0 8 15.5 360.786 360.786 0 0 0 10 23 204.58 204.58 0 0 0 10 21 82.775 82.775 0 0 0 9 19h-19a243.232 243.232 0 0 0 4 15 256.016 256.016 0 0 1-1 27 109.602 109.602 0 0 1-12 21 13578.64 13578.64 0 0 0-30 27 129.426 129.426 0 0 0-16 15 212.557 212.557 0 0 0-29 31c-5.456-7.372-8.123-15.705-8-25-17.851 8.677-36.518 15.51-56 20.5-30.695 7.639-60.695 5.639-90-6a386.222 386.222 0 0 1-47-23.5 336.816 336.816 0 0 1-24-20c-5.585-7.077-9.252-15.077-11-24a200.883 200.883 0 0 1 5-42 142.15 142.15 0 0 1 3-10.5l-1-2.5c-5.338 5.505-11.672 7.172-19 5a149.473 149.473 0 0 0 20-30c4.04-5.414 7.04-11.414 9-18a264.519 264.519 0 0 0 7-17c.768-.763 1.268-1.763 1.5-3 .499-4.989.666-9.989.5-15-17.579 3.685-33.579.352-48-10a105.353 105.353 0 0 0-7.5-10 111.902 111.902 0 0 1-7.5-17 92.28 92.28 0 0 1-5-26 73.133 73.133 0 0 1 1-17c7.584 10.417 16.917 18.917 28 25.5 3.759 1.913 7.759 2.747 12 2.5 17.132-1.655 33.132-6.822 48-15.5a277.399 277.399 0 0 1 24-24.5 221.668 221.668 0 0 1 29-19c20.857-12.38 43.524-17.88 68-16.5 14.289-1.874 27.622-6.541 40-14 6.362-4.177 12.695-8.344 19-12.5 3.982-2.976 7.982-5.976 12-9 .997 6.634 1.33 13.3 1 20Zm-68.663 76.513h.148c5.056.014 8.394 2.843 10.015 8.487l2.5 18c8.069-5.568 14.569-12.568 19.5-21 6.984 7.333 12.468 15.63 16.453 24.891 0 0 2.272 3.213 3.047 5.109.502 1.021 1.168 1.188 2 .5 5.074-3.979 8.241-9.146 9.5-15.5 11.878 12.618 18.545 27.618 20 45 .828 15.506.661 30.839-.5 46l-.013.14A192.216 192.216 0 0 1 341 287.5c-2.247-8.493-6.08-16.16-11.5-23-2.663 6.317-5.329 12.65-8 19l-.013.06c-1.144 5.086-3.473 9.566-6.987 13.44a192.848 192.848 0 0 1-50 10.5l-.159.015c-13.474 1.304-27.087 1.132-40.841-.515-.909-.276-9.473-2.079-13-3.5a152.12 152.12 0 0 1-12-20l-.039-.069c-3.273-5.852-5.593-12.163-6.961-18.931-11.16 7.644-17.16 18.31-18 32-6.248-9.542-15-31-15-31-2.255-4.266-5.194-25.106-5-31 .114-8.735.947-17.402 2.5-26a88.85 88.85 0 0 1 6-15 25.14 25.14 0 0 1 4.5-4l.03-.035c2.553-2.942 5.543-5.431 8.97-7.465 26.068-11.69 53.234-19.523 81.5-23.5 1.372-.315 2.651-.477 3.837-.487Zm-68.448 51.229A2396.441 2396.441 0 0 1 250.5 233a3.943 3.943 0 0 1 1 2c-2.1 5.697-5.085 10.846-8.954 15.446l-.046.054c-16.51 9.46-32.843 8.96-49-1.5-3.327-3.16-5.64-6.924-6.939-11.292l-.061-.208c-1.768-9.512-1.101-18.846 2-28l2-1 1.889.742Zm124.159 38.207-.048.051c-9.838 10.002-21.171 12.169-34 6.5-2.788-1.719-5.121-3.885-7-6.5l-.036-.042c-3.05-3.572-5.539-7.558-7.464-11.958-.684-1.284-.517-2.451.5-3.5a1687.522 1687.522 0 0 0 54-16.5 4.933 4.933 0 0 1 2.5 1c2.513 11.903-.304 22.219-8.452 30.949Z" style="fill:#fefefe"/><path d="M175.5 68.5a403.986 403.986 0 0 0 8.5 26c.798 1.759.631 3.426-.5 5l-13 6a119.617 119.617 0 0 1-13-13 919.838 919.838 0 0 1-28-31 182.389 182.389 0 0 1 22-13l14-7c3.34 9.023 6.673 18.023 10 27Z" style="fill:#fbfdfe"/><path d="M207.5 89.5a49.05 49.05 0 0 0-9.5 2l-2.5-1a198.118 198.118 0 0 0-8-21l-7-20a382.28 382.28 0 0 1 27-5v45Z" style="fill:#fcfefe"/><path d="M139.5 92.5a454.965 454.965 0 0 0 18.5 17c.667 1 .667 2 0 3a10.515 10.515 0 0 0-2.5 3c-2.673 1.676-5.34 3.343-8 5a441.35 441.35 0 0 1-35-13.5c-.951-.718-1.117-1.551-.5-2.5a155.012 155.012 0 0 0 9.5-12 45.409 45.409 0 0 0 8-8 56.72 56.72 0 0 0 10 8Z" style="fill:#fafcfe"/><g><path d="M242.5 250.5c-16.51 9.46-32.843 8.96-49-1.5-3.38-3.21-5.713-7.043-7-11.5-1.768-9.512-1.101-18.846 2-28l2-1a2390.415 2390.415 0 0 1 60 24.5 3.943 3.943 0 0 1 1 2c-2.108 5.719-5.108 10.886-9 15.5Z" style="fill:#fcfdfe"/><path d="M316.5 247.5c-9.838 10.002-21.171 12.169-34 6.5-2.788-1.719-5.121-3.885-7-6.5-3.067-3.583-5.567-7.583-7.5-12-.684-1.284-.517-2.451.5-3.5a1687.522 1687.522 0 0 0 54-16.5 4.933 4.933 0 0 1 2.5 1c2.518 11.927-.315 22.26-8.5 31Z" style="fill:#fbfcfe"/></g></svg>