<svg xmlns="http://www.w3.org/2000/svg" xml:space="preserve" x="0" y="0" version="1.1" viewBox="0 0 1080 1080"><style>.st0{fill:#fff}</style><circle cx="540" cy="540" r="537.5" class="st0"/><path d="M681.6 621.5c0-75.1-45.1-100.9-135.2-111.6-64.4-8.6-77.2-25.8-77.2-55.8 0-30 21.5-49.4 64.4-49.4 38.6 0 60.1 12.9 70.8 45.1 2.1 6.4 8.6 10.7 15 10.7h34.3c8.6 0 15-6.4 15-15v-2.1c-8.6-47.2-47.2-83.7-96.6-88V304c0-8.6-6.4-15-17.2-17.2h-32.2c-8.6 0-15 6.4-17.2 17.2v49.4c-64.4 8.6-105.1 51.5-105.1 105.1 0 70.8 42.9 98.7 133 109.4 60.1 10.7 79.4 23.6 79.4 57.9s-30 57.9-70.8 57.9c-55.8 0-75.1-23.6-81.5-55.8-2.1-8.6-8.6-12.9-15-12.9H409c-8.6 0-15 6.4-15 15v2.1c8.6 53.6 42.9 92.3 113.7 103v51.5c0 8.6 6.4 15 17.2 17.2h32.2c8.6 0 15-6.4 17.2-17.2v-51.5c64.4-10.6 107.3-55.6 107.3-113.6z" class="st0"/><linearGradient id="SVGID_1_" x1="528.353" x2="550.715" y1="1074.222" y2="44.46" gradientTransform="matrix(1 0 0 -1 0 1077.89)" gradientUnits="userSpaceOnUse"><stop offset="0" stop-color="#7ad9f2"/><stop offset="1" stop-color="#1450c2"/></linearGradient><circle cx="540" cy="540" r="515" fill="url(#SVGID_1_)"/><path d="M259.6 624.1c-12.6 6.7-21.7 14.3-35.4 11.2 32.3-45.7 65.6-90.2 67-150.5-4.9.7-8.5 1.4-12.1 1.7-27.6 2-53.2-3.1-74.4-21.9-11.5-10.2-18.7-23.6-22.7-38.2-5.2-18.9-9.5-38-13.1-57.3-1.5-7.9-.3-16.3-.3-22.1 9.7 8.3 19.5 16.5 29 24.9 19.5 17.5 40.9 25.6 67.5 17.4 22.2-6.8 45.5-11.1 64.3-25.8 8.2-6.3 15-14.4 22-22.1 21.7-24.1 48.1-41.9 76.4-57.2 20.5-11.1 41.5-21 64.9-24.1 9.2-1.2 18.5-2.7 27.6-2.3 46.9 2 86.5-16.6 123.5-42.8 10-7 19.8-14.4 31-22.5 1.7 22.1 2 43.1-8.2 66.1 25.8-3.5 49.4-6.8 75.2-10.4-3.5 13.7-7 27.6-10.6 41.5-.5 2-1.1 4.1-2.1 5.9-3.9 6.5-.8 9.1 5.4 10.2 22.5 4.2 45.1 8.5 67.6 12.7 1.4.3 2.8.3 6.4.8-9.3 10.7-17.5 20.2-26.5 30.5 22.9 5.7 43.8 3 64-4.7 20.5-7.8 35.5-22.5 45.3-43.5 11.8 14.7 18.1 30.5 20.1 47.8 4.3 36.5-10 64.5-39.9 85.4-23.1 16-48 28.1-74.2 37.7-2.8 1-5.5 2.1-10.4 3.9 21.7 47.6 43.2 94.7 65.1 142.8h-33.1c1.2 4.6 2 8 3 11.4 11.4 41.1 7.4 78.3-26.4 108.5-12 10.8-23.7 21.9-35.4 33.1-24.5 23.4-49.2 46.8-73.4 70.5-6.6 6.4-11.9 14.1-19.5 23.3-5.1-15.9-9.9-30.3-14.9-45.9-1.5.6-5 1.7-8.3 3.4-40.5 20.5-83.2 34.3-128.3 39.4-39.3 4.4-77.8.2-114.7-14.6-38.8-15.6-76.6-32.9-110-58.5-18.7-14.4-35.5-30.6-43.7-53.6-4.9-13.8-4.7-27.6-1.2-42 5.1-22.3 8.7-45.1 13.5-70.1zm169.2-67.6c3.3 27.2 16.9 48.4 31.4 69 1.3 1.9 4.4 2.9 6.9 3.4 52.3 9.8 103.9 8.4 156-4.3 23.7-5.8 37.3-17.1 43-40.1 2.3-9.2 6.2-18.1 9.4-27.1 1-.2 2-.4 3-.5 6.4 13 12.9 26.1 19.9 40.4.6-2.7 1.2-4 1.2-5.4 1.6-33 4.2-65.9 4.4-98.9.2-30.2-9.9-57.7-29.1-81.5-2.1-2.6-4.9-4.5-6.5-6-7.2 9.9-13.6 18.8-20.9 28.8-10.5-23.6-20.9-44.1-37.2-62.5-6.9 18.3-20.3 28.7-33.6 40.6-2.1-12.4-3.3-22.8-5.7-33-2.8-12-7.4-15.2-19.5-15.2-3.9 0-8-.4-11.7.5-27 6.5-54.1 12.4-80.7 20.2-21.7 6.3-43.4 12.8-62.8 25.5-14.8 9.7-26.2 21.5-29.6 38.9-2.9 14.6-4.3 29.6-5.8 44.4-4.2 42.3 7.3 80.7 30.3 115.9 1.1 1.7 1.7 3.7 2.5 5.6.9-.6 1.7-1.3 2.5-1.9 2.3-23.5 10.4-43.5 32.6-56.8zM317.1 190.6c21.1-11.4 41.7-22.4 63.5-34.1 2.9 8.5 5.8 16.7 8.6 24.8 7.8 23.1 15.3 46.2 23.4 69.1 2 5.6.9 8.1-4.1 10.4-23.6 10.8-15.2 12.6-32.2-5-19.3-20-37.5-40.9-56.2-61.4-1.1-.9-1.8-2.2-3-3.8zm91.9-19.3c15.9-3.7 31.2-7.3 47.6-11.1 0 25.3.1 49.8-.2 74.3 0 2.2-2.7 5.2-4.9 6.3-4.2 2.1-9 3.1-14.1 4.8-9.4-24.6-18.7-49-28.4-74.3z" class="st0"/><path d="M315.5 233.7c17.8 15.8 34.8 31 53.1 47.3-6.4 5.1-11.7 9.7-17.6 13.4-1.9 1.2-5.7.4-8.2-.5-19.1-7.3-38.1-14.8-57.9-22.6 10.3-12.5 20.2-24.7 30.6-37.6zm107.9 220.8c4.9 1.9 8.7 3.3 12.5 4.9 31.3 13 62.5 26.3 93.8 39 6.4 2.6 7.2 5.4 4.6 11.4-9.9 23.3-33.6 37.1-58.8 33.6-5-.7-10.1-1.2-15.1-2.3-35-7.8-49.9-30.2-43.2-65.3 1.5-7 4-13.7 6.2-21.3zm141.2 46c34.4-11 68.2-21.8 101.9-32.5 11.8 26.6-5.6 60.9-36.3 72.9-26.3 10.3-54.2-6.4-65.6-40.4z" class="st0"/></svg>