<?xml version="1.0" encoding="utf-8"?>
<!-- Generator: Adobe Illustrator 24.0.2, SVG Export Plug-In . SVG Version: 6.00 Build 0)  -->
<svg version="1.1" id="Layer_1" xmlns="http://www.w3.org/2000/svg" x="0px" y="0px"
     viewBox="0 0 952 1080" style="enable-background:new 0 0 952 1080;" xml:space="preserve">
<style type="text/css">
	.st0{fill:#FFFFFF;stroke:#FFFFFF;stroke-width:46.3412;stroke-miterlimit:10;}
	
		.st1{opacity:0.35;fill:none;stroke:#E6AD22;stroke-width:18.5365;stroke-linecap:round;stroke-miterlimit:10;enable-background:new    ;}
	.st2{fill:#FFFFFF;stroke:#FFFFFF;stroke-width:33.9836;stroke-miterlimit:10;}
	.st3{fill:none;}
	.st4{fill:#FFF4CA;}
	.st5{fill:#FFFFFF;}
	.st6{fill:none;stroke:#FFFFFF;stroke-width:33.9836;stroke-miterlimit:10;}
	.st7{fill:#6F619A;stroke:#FFFFFF;stroke-width:18.5365;stroke-miterlimit:10;}
	.st8{fill:#E6AD22;stroke:#E6AD22;stroke-width:12.3576;stroke-miterlimit:10;}
	.st9{fill:#F0C618;}
	.st10{opacity:0.45;}
	.st11{fill:#E6AD22;}
	.st12{fill:#F8F9E7;}
	.st13{opacity:0.8;fill:#F8F9E7;enable-background:new    ;}
	.st14{opacity:0.95;fill:#F8F9E7;enable-background:new    ;}
	.st15{opacity:0.2;}
	.st16{opacity:0.35;stroke:#000000;stroke-width:11.5398;stroke-linecap:round;stroke-miterlimit:10;enable-background:new    ;}
	.st17{stroke:#000000;stroke-width:5.095;stroke-miterlimit:10;}
	.st18{stroke:#000000;stroke-miterlimit:10;}
	.st19{opacity:0.3;stroke:#000000;stroke-miterlimit:10;enable-background:new    ;}
	.st20{stroke:#000000;stroke-width:10.6772;stroke-linecap:round;stroke-miterlimit:10;}
	.st21{opacity:0.1;stroke:#000000;stroke-miterlimit:10;enable-background:new    ;}
	
		.st22{opacity:0.35;fill:none;stroke:#E5AC23;stroke-width:11.5398;stroke-linecap:round;stroke-miterlimit:10;enable-background:new    ;}
	.st23{fill:#6E6199;stroke:#FFFFFF;stroke-width:5.095;stroke-miterlimit:10;}
	.st24{fill:#948FC4;}
	.st25{opacity:0.3;fill:#635EA8;enable-background:new    ;}
	.st26{fill:none;stroke:#5F6062;stroke-width:10.6772;stroke-linecap:round;stroke-miterlimit:10;}
	.st27{fill:#9590C5;}
	.st28{fill:#635DA8;}
	.st29{fill:#E7E5EA;}
	.st30{opacity:0.1;fill:#635DA8;enable-background:new    ;}
	
		.st31{opacity:0.35;fill:none;stroke:#E6AD22;stroke-width:10.813;stroke-linecap:round;stroke-miterlimit:10;enable-background:new    ;}
	.st32{fill:#4D9BA5;}
	.st33{opacity:0.12;fill:#193437;enable-background:new    ;}
	.st34{fill:#2F5A61;}
	.st35{opacity:0.6;fill:#193437;enable-background:new    ;}
	.st36{opacity:0.25;fill:#BAB1CB;enable-background:new    ;}
	
		.st37{opacity:0.12;fill:none;stroke:#E4EDF8;stroke-width:12.7308;stroke-linecap:round;stroke-miterlimit:10;enable-background:new    ;}
	.st38{fill:#6F619A;stroke:#FFFFFF;stroke-width:4.7741;stroke-miterlimit:10;}
	
		.st39{opacity:0.15;fill:none;stroke:#E4EDF8;stroke-width:11.3868;stroke-linecap:round;stroke-miterlimit:10;enable-background:new    ;}
	
		.st40{opacity:0.14;fill:none;stroke:#E3EBF5;stroke-width:12.7308;stroke-linecap:round;stroke-miterlimit:10;enable-background:new    ;}
	.st41{fill:#F8F3CC;}
	.st42{fill:#DDC723;}
	.st43{opacity:0.15;}
</style>
<g>
	<g>
		<path class="st0" d="M620.418,165.474c-57.027,0-108.051,25.512-142.367,65.831c-21.01-25.112-52.525-41.119-87.742-41.119
			c-63.13,0-114.354,51.124-114.354,114.354c0,1,0.1,2.101,0.1,3.101c-6.003-1-12.306-1.501-18.609-1.501
			c-62.329,0-112.853,50.524-112.853,112.853c0,0,225.507,3.101,225.407,3.101h76.736c27.613,68.833,94.845,117.456,173.482,117.456
			c103.249,0,186.988-83.64,186.988-186.988S723.667,165.474,620.418,165.474z"/>
	</g>
	<g>
		<path class="st1" d="M445.836,357.765"/>
		<path class="st2" d="M849.927,491.329c86.641,197.593,4.002,430.704-191.29,528.45
			c-201.595,100.848-446.711,19.209-547.559-182.386c-56.227-112.353-55.726-238.313-9.304-345.263"/>
		<path class="st3" d="M500.562,244.712"/>
		<path class="st4" d="M500.762,244.712"/>
		<path class="st4" d="M512.467,226.303"/>
		<g>
			<path class="st5" d="M899.15,438.404c0-31.415-33.216-57.127-73.735-57.127h-698.83c-40.519,0-73.735,25.712-73.735,57.127
				s33.216,57.127,73.735,57.127h698.83C865.934,495.531,899.15,469.818,899.15,438.404z"/>
			<path class="st6" d="M899.15,438.404c0-31.415-33.216-57.127-73.735-57.127h-698.83c-40.519,0-73.735,25.712-73.735,57.127
				s33.216,57.127,73.735,57.127h698.83C865.934,495.531,899.15,469.818,899.15,438.404z"/>
		</g>
		<path class="st7" d="M560.59,396.184"/>
	</g>
</g>
<g>
	<path class="st8" d="M620.418,165.474c-57.027,0-108.051,25.512-142.367,65.831c-21.01-25.112-52.525-41.119-87.742-41.119
		c-63.13,0-114.354,51.124-114.354,114.354c0,1,0.1,2.101,0.1,3.101c-6.003-1-12.306-1.501-18.609-1.501
		c-62.329,0-112.853,50.524-112.853,112.853c0,0,225.507,3.101,225.407,3.101h76.736c27.613,68.833,94.845,117.456,173.482,117.456
		c103.249,0,186.988-83.64,186.988-186.988S723.667,165.474,620.418,165.474z"/>
	<g>
		<path class="st9" d="M620.418,165.474c-57.027,0-108.051,25.512-142.367,65.831c-21.01-25.112-52.525-41.119-87.742-41.119
			c-63.13,0-114.354,51.124-114.354,114.354c0,1,0.1,2.101,0.1,3.101c-6.003-1-12.306-1.501-18.609-1.501
			c-62.329,0-112.853,50.524-112.853,112.853c0,0,225.507,3.101,225.407,3.101h76.736c27.613,68.833,94.845,117.456,173.482,117.456
			c103.249,0,186.988-83.64,186.988-186.988S723.667,165.474,620.418,165.474z"/>
		<g class="st10">
			<path class="st11" d="M498.06,242.011c5.002-6.003,10.405-11.706,16.308-16.908c0.8-0.7,1.401-1.301,2.201-2.001l2.301-1.901
				c1.501-1.201,3.001-2.601,4.602-3.702l4.702-3.502c1.601-1.101,3.302-2.201,4.902-3.302c0.9-0.6,1.601-1.101,2.501-1.601
				l2.601-1.501c1.701-0.9,3.402-2.001,5.202-2.901c3.502-1.801,7.003-3.702,10.705-5.303c7.203-3.402,14.707-6.003,22.511-8.104
				l5.803-1.501c2.001-0.5,3.902-0.9,5.903-1.201l2.901-0.6c0.9-0.2,2.001-0.3,2.901-0.5l6.003-0.9l6.003-0.6l3.001-0.3l3.001-0.1
				l6.003-0.2l6.003,0.1c2.001,0,4.002,0.1,6.003,0.3c2.001,0.2,4.002,0.2,6.003,0.5l6.003,0.7l6.003,0.9
				c2.001,0.3,4.002,0.8,6.003,1.101c2.001,0.3,4.002,0.8,5.903,1.301c2.001,0.5,3.902,0.9,5.903,1.501l5.803,1.801
				c7.704,2.601,15.107,5.603,22.31,9.204c7.203,3.702,14.107,7.804,20.71,12.406s12.806,9.705,18.609,15.207
				c1.401,1.401,2.901,2.701,4.302,4.202l4.202,4.302c1.301,1.501,2.601,3.001,4.002,4.502c1.301,1.501,2.601,3.101,3.802,4.602
				c4.902,6.203,9.505,12.906,13.206,19.809c3.902,6.903,7.404,14.107,10.105,21.51c0.4,0.9,0.7,1.901,1,2.801l0.9,2.801l0.9,2.801
				l0.9,2.801c0.6,1.901,1.1,3.802,1.601,5.703l1.301,5.803c0.4,1.901,0.8,3.902,1,5.803c0.4,1.901,0.7,3.902,0.9,5.903
				c0.6,3.902,0.8,7.804,1,11.706c-0.9-3.802-1.601-7.704-2.601-11.305c-0.9-3.802-2.101-7.504-3.201-11.205
				c-2.501-7.303-5.302-14.507-8.704-21.41l-2.601-5.102l-2.701-5.002c-0.9-1.701-1.901-3.302-2.901-4.902l-1.501-2.501
				c-0.5-0.9-1-1.601-1.601-2.401c-1-1.601-2.101-3.202-3.202-4.702l-3.402-4.602c-2.401-3.001-4.602-6.003-7.203-8.804
				c-19.809-22.911-45.722-40.319-74.535-49.623c-7.103-2.501-14.507-4.202-21.81-5.603c-7.404-1.501-14.907-2.201-22.411-2.601
				l-5.703-0.2l-5.703,0.1h-2.801l-2.801,0.2l-5.703,0.4l-5.703,0.7c-0.9,0.1-1.901,0.2-2.801,0.3l-2.801,0.5
				c-1.901,0.3-3.802,0.6-5.603,0.9l-5.603,1.201C548.884,205.994,520.971,220.901,498.06,242.011z"/>
		</g>
		<g class="st10">
			<path class="st11" d="M313.573,258.018c4.302-9.605,10.805-18.609,18.709-26.012c7.804-7.604,17.408-13.406,27.613-17.508
				c5.202-1.901,10.505-3.702,16.008-4.502l2.101-0.4c0.7-0.1,1.401-0.2,2.101-0.3l4.202-0.5c1.401-0.1,2.701-0.2,4.202-0.3
				c1.401-0.1,2.701-0.2,4.202-0.1c11.205-0.1,22.311,2.101,32.816,6.003c21.01,7.904,38.518,24.111,48.423,43.921
				c4.902,9.905,7.804,20.71,8.804,31.615c0.9,10.905-0.3,21.71-3.702,31.915c1-10.605,0.7-21.11-1.601-31.115
				c-2.201-10.005-5.903-19.609-11.005-28.313c-10.305-17.308-26.312-30.815-44.821-37.918c-4.602-1.801-9.404-3.202-14.307-4.202
				c-1.201-0.2-2.501-0.5-3.702-0.7l-3.702-0.5l-3.702-0.4c-1.201-0.1-2.501-0.1-3.702-0.2c-9.905-0.4-19.909,1-29.614,4.002
				C343.387,228.404,326.079,240.91,313.573,258.018z"/>
		</g>
		<g class="st10">
			<path class="st11" d="M225.932,328.352c3.702-2.501,7.804-4.202,11.906-5.603c4.302-1.301,8.604-2.201,13.106-2.501
				c8.904-0.6,18.109,0.6,26.713,3.702c4.302,1.501,8.304,3.602,12.206,5.903l2.801,1.901c0.5,0.3,0.9,0.7,1.401,0.9l1.301,1
				l2.601,2.101l2.501,2.301c0.4,0.4,0.9,0.8,1.201,1.101l1.101,1.201c0.8,0.9,1.501,1.601,2.301,2.501
				c0.7,0.9,1.301,1.801,2.001,2.601l0.9,1.301l0.9,1.401l1.701,2.801c0.5,0.9,1,2.001,1.501,2.901l0.8,1.501l0.6,1.501
				c0.4,1,0.8,2.101,1.101,3.101c-0.9-0.8-1.601-1.401-2.501-2.201l-1.101-1.101l-1.201-1c-0.9-0.7-1.601-1.401-2.401-2.101
				l-2.501-2.001l-1.101-1l-1.201-0.9l-2.501-1.901c-1.701-1.101-3.302-2.401-5.002-3.402c-3.302-2.301-6.803-4.202-10.305-6.003
				c-0.9-0.4-1.801-0.9-2.601-1.201l-1.301-0.7l-1.301-0.6l-2.701-1.101l-2.701-1c-7.403-2.701-15.107-4.402-23.111-5.403
				C242.84,327.851,234.636,327.951,225.932,328.352z"/>
		</g>
		<g>
			<polygon class="st12" points="540.881,261.52 529.875,267.623 523.873,278.528 517.87,267.623 506.865,261.52 517.87,255.617 
				523.873,244.612 529.875,255.617 			"/>
			<polygon class="st13" points="369.4,323.449 358.494,329.552 352.492,340.457 346.489,329.552 335.484,323.449 346.489,317.446 
				352.492,306.441 358.494,317.446 			"/>
			<polygon class="st14" points="747.979,342.058 736.873,348.061 730.971,359.066 724.868,348.061 713.862,342.058 
				724.868,336.055 730.971,324.95 736.873,336.055 			"/>
		</g>
	</g>
	<g>
		<g class="st15">
			<path class="st16" d="M285.999,376.046"/>
			<path class="st17" d="M182.196,452.884"/>
			<g>
				<path class="st18" d="M104.484,311.734c0.868,3.488,5.076,26.402-33.502,28.484c-2.842,0.153-5.44-1.627-6.292-4.343
					L9.063,158.569c-0.957-3.051,0.56-6.331,3.506-7.576l19.322-8.17c3.222-1.362,6.933,0.205,8.203,3.465l64.152,164.701
					C104.342,311.234,104.42,311.478,104.484,311.734z"/>
				<path class="st19" d="M104.484,311.734c0.868,3.488,5.076,26.402-33.502,28.484c-2.842,0.153-5.44-1.627-6.292-4.343
					L9.063,158.569c-0.957-3.051,0.56-6.331,3.506-7.576l19.322-8.17c3.222-1.362,6.933,0.205,8.203,3.465l64.152,164.701
					C104.342,311.234,104.42,311.478,104.484,311.734z"/>
				<path class="st18" d="M90.443,326.543c21.982-31.816,78.026-55.514,168.151-59.688c90.125-4.174,115.638-60.306,115.638-60.306
					L313.669,15.872c0,0-25.514,56.132-115.638,60.306c-77.609,3.595-129.946,21.666-157.022,46.933
					c-7.178,6.699-9.79,16.969-6.817,26.327L90.443,326.543z"/>
				<path class="st19" d="M142.031,274.939c29.369-14.319,61.558-20.623,92.815-29.333c26.298-7.328,58.133-16.588,72.417-42.118
					c6.738-12.042,9.845-26.467,12.159-39.944c2.683-15.623,3.25-31.522,2.596-47.34c-1.336-32.353,1.145-66.397-8.427-97.69
					c-0.154-0.504-0.349-0.951-0.574-1.349c0.442-0.83,0.652-1.291,0.652-1.291l60.563,190.677c0,0-25.514,56.132-115.638,60.306
					c-90.124,4.174-146.169,27.871-168.151,59.688l-1.835-5.778C101.014,300.607,120.475,285.449,142.031,274.939z"/>
			</g>
			<line class="st20" x1="314.966" y1="8" x2="529.429" y2="668.052"/>
			<g>
				<path class="st18" d="M175.557,209.917c-0.873-0.024-1.755-0.063-2.645-0.117l-0.003,0.022
					C173.8,209.869,174.683,209.9,175.557,209.917z"/>
				<path class="st18" d="M228.772,191.703l-0.027-0.029c-0.337,0.299-1.006,0.874-1.988,1.643
					C227.634,192.648,228.308,192.095,228.772,191.703z"/>
				<path class="st18" d="M129.664,189.042c6.066,18.669,19.891,32.649,36.745,39.529c0.175-7.781,3.501-15.97,5.525-20.262
					c-0.513-1.447-1.129-3.915-1.001-7.185c1.105,1.909,5.673,1.916,9.425,1.563c5.472-0.515,12.454-2.088,19.66-4.43
					c7.206-2.341,13.779-5.173,18.509-7.972c3.243-1.919,6.934-4.61,6.706-6.804c2.026,2.57,2.978,4.929,3.414,6.401
					c4.16,2.282,11.664,6.953,16.379,13.145c9.591-15.473,12.559-34.909,6.493-53.578c-10.933-33.649-47.075-52.065-80.725-41.131
					S118.731,155.392,129.664,189.042z M137.384,173.902c-2.193-6.748,1.441-13.99,8.127-16.285
					c1.196-15.955,12.498-30.676,29.537-36.212s34.835-0.27,45.181,11.935c6.758-2.073,13.954,1.65,16.147,8.398
					c2.099,6.459-1.14,13.37-7.284,15.963c-0.052,8.644-3.1,17.053-8.46,23.992c2.27,0.17,3.657,0.719,3.944,1.604
					c0.9,2.769-8.829,9.207-24.746,14.379c-15.917,5.172-27.572,5.681-28.472,2.913c-0.287-0.884,0.511-2.144,2.248-3.616
					c-8.414-2.463-15.823-7.474-20.946-14.437C146.165,184.048,139.483,180.361,137.384,173.902z"/>
				<path class="st18" d="M227.263,145.95c1.263,3.889,1.852,7.844,1.829,11.751c6.144-2.593,9.383-9.504,7.284-15.963
					c-2.193-6.748-9.389-10.471-16.147-8.398C223.302,136.965,225.72,141.201,227.263,145.95z M229.541,147.541
					c-0.406-1.25,0.278-2.592,1.528-2.998c1.25-0.406,2.592,0.278,2.998,1.528c0.406,1.25-0.278,2.592-1.528,2.998
					C231.289,149.475,229.947,148.791,229.541,147.541z M227.435,141.06c-0.406-1.25,0.278-2.592,1.528-2.998
					s2.592,0.278,2.998,1.528c0.406,1.25-0.278,2.592-1.528,2.998C229.184,142.994,227.841,142.31,227.435,141.06z"/>
				<ellipse class="st18" cx="229.695" cy="140.326" rx="2.38" ry="2.38"/>
				<ellipse class="st18" cx="231.802" cy="146.8" rx="2.379" ry="2.379"/>
				<path class="st18" d="M234.916,199.186c1.72,2.901,3.637,6.453,5.413,10.448c0.765-0.943,1.502-1.907,2.21-2.89
					c-0.137-0.21-0.278-0.42-0.424-0.632C240.264,203.437,237.699,201.133,234.916,199.186z"/>
				<path class="st18" d="M171.935,208.309c-2.024,4.292-5.35,12.481-5.525,20.262c1.38,0.563,2.78,1.078,4.198,1.545
					c-0.012-0.25-0.022-0.503-0.028-0.761c-0.075-3.251,0.646-6.623,1.753-9.834c0.314,3.358,0.85,7.358,1.762,11.634
					c0.019,0.005,0.038,0.01,0.057,0.015c2.187-4.976,4.622-12.72,3.726-21.239c-0.767,0.007-1.54,0.002-2.321-0.013
					c-0.874-0.017-1.757-0.048-2.648-0.095l0.003-0.022c-0.114-0.007-0.228-0.013-0.343-0.02
					C172.569,209.78,172.275,209.269,171.935,208.309z"/>
				<path class="st18" d="M170.579,229.355c0.006,0.258,0.016,0.51,0.028,0.761c1.151,0.379,2.314,0.725,3.487,1.039
					c-0.912-4.275-1.448-8.276-1.762-11.634C171.225,222.731,170.504,226.104,170.579,229.355z"/>
				<path class="st18" d="M199.447,196.498c-8.788,2.855-17.776,2.835-25.841,0.474c-1.737,1.472-2.535,2.731-2.248,3.616
					c0.9,2.769,12.555,2.259,28.472-2.913c15.917-5.172,25.646-11.61,24.746-14.379c-0.287-0.884-1.674-1.434-3.944-1.604
					C215.495,188.343,208.235,193.643,199.447,196.498z"/>
				<path class="st18" d="M237.494,207.927c0.976,0.66,1.917,1.244,2.795,1.756c0.014-0.017,0.027-0.033,0.041-0.05
					c-1.775-3.995-3.692-7.546-5.413-10.448c2.782,1.947,5.348,4.252,7.198,6.926c0.147,0.212,0.287,0.422,0.424,0.632
					c0.873-1.211,1.703-2.451,2.488-3.717c-4.715-6.192-12.219-10.862-16.379-13.145c0.289,0.976,0.352,1.563,0.352,1.563
					s-0.086,0.08-0.255,0.23l0.027,0.029c-0.463,0.392-1.138,0.944-2.014,1.614c-0.564,0.431-1.211,0.91-1.939,1.426
					C228.434,200.967,233.622,205.31,237.494,207.927z"/>
				<path class="st18" d="M184.153,209.633c0.877,9.079-1.416,17.241-3.742,22.874c9.726,1.574,19.962,0.92,29.977-2.335
					c10.013-3.253,18.677-8.739,25.62-15.727c-5.187-3.187-11.833-8.435-16.46-16.282
					C211.7,202.831,199.528,208.307,184.153,209.633z"/>
				<path class="st18" d="M177.877,209.931c0.896,8.519-1.539,16.263-3.726,21.239c2.058,0.548,4.147,0.996,6.26,1.338
					c2.326-5.633,4.619-13.796,3.742-22.874c15.375-1.326,27.547-6.802,35.396-11.47c4.627,7.847,11.273,13.096,16.46,16.282
					c1.509-1.519,2.936-3.109,4.279-4.762c-0.878-0.512-1.818-1.096-2.795-1.756c-3.871-2.617-9.06-6.96-12.676-13.184
					c0.728-0.516,1.375-0.995,1.939-1.426c0.982-0.769,1.651-1.344,1.988-1.643c0.169-0.15,0.255-0.23,0.255-0.23
					s-0.063-0.587-0.352-1.563c-0.436-1.472-1.387-3.831-3.414-6.401c0.228,2.194-3.464,4.885-6.706,6.804
					c-4.73,2.8-11.303,5.631-18.509,7.972c-7.206,2.341-14.188,3.914-19.66,4.43c-3.752,0.353-8.32,0.346-9.425-1.563
					c-0.129,3.27,0.488,5.738,1.001,7.185c0.34,0.96,0.634,1.472,0.634,1.472c0.115,0.007,0.229,0.014,0.343,0.02
					c0.89,0.054,1.772,0.092,2.645,0.117C176.337,209.933,177.111,209.937,177.877,209.931z"/>
				<path class="st18" d="M137.384,173.902c2.099,6.459,8.781,10.146,15.276,8.633c-2.316-3.147-4.164-6.693-5.428-10.582
					c-1.543-4.749-2.077-9.597-1.721-14.336C138.825,159.912,135.192,167.154,137.384,173.902z M144.219,168.099
					c0.406,1.25-0.278,2.592-1.528,2.998c-1.25,0.406-2.592-0.278-2.998-1.528c-0.406-1.25,0.278-2.592,1.528-2.998
					S143.813,166.849,144.219,168.099z M141.798,176.05c-0.406-1.25,0.278-2.592,1.528-2.998c1.25-0.406,2.592,0.278,2.998,1.528
					c0.406,1.25-0.278,2.592-1.528,2.998C143.547,177.984,142.205,177.3,141.798,176.05z"/>
				<ellipse class="st18" cx="144.064" cy="175.315" rx="2.38" ry="2.38"/>
				<ellipse class="st18" cx="141.949" cy="168.832" rx="2.38" ry="2.38"/>
				<path class="st18" d="M147.232,171.953c1.263,3.889,3.112,7.434,5.428,10.582c5.123,6.963,12.532,11.974,20.946,14.437
					c8.065,2.361,17.054,2.381,25.841-0.474c8.788-2.855,16.047-8.155,21.185-14.806c5.36-6.939,8.408-15.347,8.46-23.992
					c0.023-3.907-0.565-7.863-1.829-11.751c-1.543-4.749-3.961-8.985-7.034-12.61c-10.346-12.205-28.142-17.471-45.181-11.935
					s-28.341,20.257-29.537,36.212C145.156,162.356,145.689,167.204,147.232,171.953z M152.656,168.694
					c-5.189-15.969,5.896-33.882,24.757-40.01s38.358,1.849,43.547,17.817s2.135,31.273-24.757,40.01
					S157.844,184.663,152.656,168.694z"/>
				<path class="st18" d="M152.656,168.694c5.189,15.969,16.655,26.555,43.547,17.817s29.946-24.042,24.757-40.01l0,0l0,0
					c-4.702-14.472-21.155-22.38-38.237-19.174c-0.884,0.166-1.769,0.361-2.654,0.587c-0.59,0.151-1.181,0.315-1.771,0.493
					c-0.295,0.089-0.59,0.181-0.885,0.277s-0.588,0.194-0.878,0.296c-0.582,0.203-1.156,0.417-1.722,0.642
					c-0.566,0.225-1.124,0.461-1.674,0.707c-0.516,0.231-1.024,0.473-1.525,0.722c-0.3,0.149-0.598,0.301-0.892,0.456
					c-0.262,0.138-0.522,0.279-0.78,0.423c-0.306,0.17-0.608,0.344-0.908,0.521c-0.656,0.387-1.298,0.79-1.923,1.207
					c-0.293,0.195-0.583,0.393-0.869,0.595c-11.525,8.137-17.401,21.421-13.816,33.691
					C152.498,168.195,152.575,168.445,152.656,168.694z"/>
				<path class="st21" d="M234.916,199.186c1.72,2.901,3.637,6.453,5.413,10.448c0.765-0.943,1.502-1.907,2.21-2.89
					c-0.137-0.21-0.278-0.42-0.424-0.632C240.264,203.437,237.699,201.133,234.916,199.186z"/>
				<path class="st21" d="M170.579,229.355c0.006,0.258,0.016,0.51,0.028,0.761c1.151,0.379,2.314,0.725,3.487,1.039
					c-0.912-4.275-1.448-8.276-1.762-11.634C171.225,222.731,170.504,226.104,170.579,229.355z"/>
			</g>
		</g>
		<g class="st15">
			<path class="st16" d="M666.001,376.046"/>
			<path class="st17" d="M769.804,452.884"/>
			<g>
				<path class="st18" d="M847.516,311.734c-0.868,3.488-5.076,26.402,33.502,28.484c2.842,0.153,5.44-1.627,6.292-4.343
					l55.627-177.305c0.957-3.051-0.56-6.331-3.506-7.576l-19.322-8.17c-3.222-1.362-6.933,0.205-8.203,3.465l-64.152,164.701
					C847.658,311.234,847.58,311.478,847.516,311.734z"/>
				<path class="st19" d="M847.516,311.734c-0.868,3.488-5.076,26.402,33.502,28.484c2.842,0.153,5.44-1.627,6.292-4.343
					l55.627-177.305c0.957-3.051-0.56-6.331-3.506-7.576l-19.322-8.17c-3.222-1.362-6.933,0.205-8.203,3.465l-64.152,164.701
					C847.658,311.234,847.58,311.478,847.516,311.734z"/>
				<path class="st18" d="M861.557,326.543c-21.982-31.816-78.026-55.514-168.151-59.688
					c-90.125-4.174-115.638-60.306-115.638-60.306l60.563-190.677c0,0,25.514,56.132,115.638,60.306
					c77.609,3.595,129.946,21.666,157.022,46.933c7.178,6.699,9.79,16.969,6.817,26.327L861.557,326.543z"/>
				<path class="st19" d="M809.969,274.939c-29.369-14.319-61.558-20.623-92.815-29.333c-26.298-7.328-58.133-16.588-72.417-42.118
					c-6.738-12.042-9.845-26.467-12.159-39.944c-2.683-15.623-3.25-31.522-2.596-47.34c1.336-32.353-1.145-66.397,8.427-97.69
					c0.154-0.504,0.349-0.951,0.574-1.349c-0.442-0.83-0.652-1.291-0.652-1.291L577.768,206.55c0,0,25.514,56.132,115.638,60.306
					c90.124,4.174,146.169,27.871,168.151,59.688l1.835-5.778C850.986,300.607,831.525,285.449,809.969,274.939z"/>
			</g>
			<line class="st20" x1="637.034" y1="8" x2="422.571" y2="668.052"/>
			<g>
				<path class="st18" d="M779.091,209.822l-0.003-0.022c-0.89,0.054-1.772,0.092-2.645,0.117
					C777.318,209.9,778.2,209.869,779.091,209.822z"/>
				<path class="st18" d="M725.243,193.317c-0.982-0.769-1.651-1.344-1.988-1.643l-0.027,0.029
					C723.692,192.095,724.366,192.648,725.243,193.317z"/>
				<path class="st18" d="M781.204,108.317c-33.649-10.933-69.791,7.482-80.724,41.131c-6.066,18.669-3.098,38.105,6.493,53.578
					c4.715-6.192,12.219-10.862,16.379-13.145c0.436-1.472,1.387-3.831,3.414-6.401c-0.228,2.194,3.463,4.885,6.706,6.804
					c4.73,2.8,11.303,5.631,18.509,7.972c7.206,2.341,14.188,3.914,19.66,4.43c3.752,0.353,8.32,0.346,9.425-1.563
					c0.129,3.27-0.488,5.738-1.001,7.185c2.024,4.292,5.35,12.481,5.525,20.262c16.854-6.88,30.679-20.86,36.745-39.529
					C833.269,155.392,814.854,119.251,781.204,108.317z M799.34,182.535c-5.123,6.963-12.532,11.974-20.946,14.437
					c1.737,1.472,2.535,2.731,2.248,3.616c-0.9,2.769-12.555,2.259-28.472-2.913c-15.917-5.172-25.646-11.61-24.746-14.379
					c0.287-0.884,1.674-1.434,3.944-1.604c-5.359-6.939-8.408-15.347-8.46-23.992c-6.144-2.593-9.383-9.504-7.284-15.963
					c2.193-6.748,9.389-10.471,16.147-8.398c10.346-12.205,28.142-17.471,45.181-11.935s28.341,20.257,29.537,36.212
					c6.686,2.295,10.319,9.537,8.127,16.285C812.517,180.361,805.835,184.048,799.34,182.535z"/>
				<path class="st18" d="M731.771,133.34c-6.758-2.073-13.954,1.65-16.147,8.398c-2.099,6.459,1.14,13.37,7.284,15.963
					c-0.023-3.907,0.565-7.863,1.829-11.751C726.28,141.201,728.698,136.965,731.771,133.34z M719.461,149.069
					c-1.25-0.406-1.934-1.749-1.528-2.998c0.406-1.25,1.749-1.934,2.998-1.528c1.25,0.406,1.934,1.749,1.528,2.998
					C722.053,148.791,720.711,149.475,719.461,149.069z M721.566,142.588c-1.25-0.406-1.934-1.749-1.528-2.998
					c0.406-1.25,1.749-1.934,2.998-1.528s1.934,1.749,1.528,2.998C724.159,142.31,722.816,142.994,721.566,142.588z"/>
				<ellipse class="st18" cx="722.305" cy="140.326" rx="2.38" ry="2.38"/>
				<ellipse class="st18" cx="720.198" cy="146.8" rx="2.379" ry="2.379"/>
				<path class="st18" d="M709.885,206.111c-0.147,0.212-0.287,0.422-0.424,0.632c0.708,0.983,1.446,1.947,2.21,2.89
					c1.775-3.995,3.693-7.546,5.412-10.448C714.301,201.133,711.736,203.437,709.885,206.111z"/>
				<path class="st18" d="M779.431,209.78c-0.115,0.007-0.229,0.014-0.343,0.02l0.003,0.022c-0.891,0.046-1.774,0.078-2.648,0.095
					c-0.78,0.015-1.554,0.02-2.321,0.013c-0.896,8.519,1.539,16.263,3.726,21.239c0.019-0.005,0.038-0.01,0.057-0.015
					c0.912-4.275,1.448-8.276,1.762-11.634c1.106,3.211,1.828,6.583,1.753,9.834c-0.006,0.258-0.016,0.511-0.028,0.761
					c1.418-0.467,2.818-0.982,4.198-1.545c-0.175-7.781-3.501-15.97-5.525-20.262C779.725,209.269,779.431,209.78,779.431,209.78z"
					/>
				<path class="st18" d="M779.668,219.52c-0.314,3.358-0.85,7.358-1.762,11.634c1.173-0.314,2.336-0.66,3.487-1.039
					c0.012-0.25,0.022-0.503,0.028-0.761C781.496,226.104,780.775,222.731,779.668,219.52z"/>
				<path class="st18" d="M731.368,181.692c-2.27,0.17-3.657,0.719-3.944,1.604c-0.9,2.769,8.829,9.207,24.746,14.379
					c15.917,5.172,27.572,5.681,28.472,2.913c0.287-0.884-0.511-2.144-2.248-3.616c-8.065,2.361-17.054,2.381-25.841-0.474
					C743.765,193.643,736.505,188.343,731.368,181.692z"/>
				<path class="st18" d="M727.182,194.743c-0.728-0.516-1.375-0.995-1.939-1.426c-0.877-0.67-1.551-1.222-2.014-1.614l0.027-0.029
					c-0.169-0.15-0.255-0.23-0.255-0.23s0.063-0.587,0.352-1.563c-4.16,2.282-11.664,6.953-16.379,13.145
					c0.785,1.267,1.615,2.506,2.488,3.717c0.137-0.21,0.278-0.42,0.424-0.632c1.85-2.674,4.416-4.979,7.198-6.926
					c-1.72,2.901-3.637,6.453-5.413,10.448c0.014,0.017,0.027,0.033,0.041,0.05c0.878-0.512,1.818-1.096,2.795-1.756
					C718.378,205.31,723.566,200.967,727.182,194.743z"/>
				<path class="st18" d="M732.451,198.163c-4.627,7.847-11.273,13.096-16.46,16.282c6.943,6.988,15.607,12.474,25.62,15.727
					c10.015,3.254,20.251,3.908,29.978,2.335c-2.326-5.633-4.619-13.796-3.742-22.874
					C752.472,208.307,740.3,202.831,732.451,198.163z"/>
				<path class="st18" d="M776.443,209.917c0.873-0.024,1.755-0.063,2.645-0.117c0.114-0.007,0.228-0.013,0.343-0.02
					c0,0,0.294-0.512,0.634-1.472c0.513-1.448,1.129-3.915,1.001-7.185c-1.105,1.909-5.673,1.916-9.425,1.563
					c-5.472-0.515-12.454-2.088-19.66-4.43c-7.206-2.341-13.779-5.173-18.509-7.972c-3.243-1.919-6.934-4.61-6.706-6.804
					c-2.026,2.57-2.978,4.929-3.414,6.401c-0.289,0.977-0.352,1.563-0.352,1.563s0.086,0.08,0.255,0.23
					c0.337,0.299,1.006,0.874,1.988,1.643c0.564,0.431,1.211,0.91,1.939,1.426c-3.616,6.223-8.804,10.567-12.676,13.184
					c-0.976,0.66-1.917,1.244-2.795,1.756c1.343,1.653,2.77,3.243,4.279,4.762c5.187-3.187,11.833-8.435,16.46-16.282
					c7.849,4.668,20.021,10.144,35.396,11.47c-0.877,9.079,1.416,17.241,3.742,22.874c2.113-0.342,4.202-0.79,6.26-1.338
					c-2.187-4.976-4.622-12.72-3.726-21.239C774.889,209.937,775.663,209.933,776.443,209.917z"/>
				<path class="st18" d="M806.489,157.617c0.355,4.739-0.178,9.587-1.721,14.336c-1.263,3.889-3.112,7.434-5.428,10.582
					c6.494,1.513,13.177-2.174,15.276-8.633C816.808,167.154,813.175,159.912,806.489,157.617z M810.779,166.571
					c1.25,0.406,1.934,1.749,1.528,2.998c-0.406,1.25-1.749,1.934-2.998,1.528c-1.25-0.406-1.934-1.749-1.528-2.998
					C808.187,166.849,809.53,166.165,810.779,166.571z M807.203,177.578c-1.25-0.406-1.934-1.749-1.528-2.998
					c0.406-1.25,1.749-1.934,2.998-1.528s1.934,1.749,1.528,2.998C809.795,177.3,808.453,177.984,807.203,177.578z"/>
				<ellipse class="st18" cx="807.936" cy="175.315" rx="2.38" ry="2.38"/>
				<ellipse class="st18" cx="810.05" cy="168.832" rx="2.38" ry="2.38"/>
				<path class="st18" d="M806.489,157.617c-1.196-15.955-12.498-30.676-29.537-36.212s-34.835-0.27-45.181,11.935
					c-3.073,3.625-5.491,7.861-7.034,12.61c-1.263,3.889-1.852,7.844-1.829,11.751c0.052,8.644,3.1,17.053,8.46,23.992
					c5.137,6.651,12.397,11.95,21.185,14.806c8.787,2.855,17.776,2.835,25.841,0.474c8.414-2.463,15.823-7.474,20.946-14.437
					c2.316-3.147,4.164-6.693,5.428-10.582C806.311,167.204,806.844,162.356,806.489,157.617z M755.798,186.511
					c-26.892-8.738-29.946-24.042-24.757-40.01c5.189-15.969,24.685-23.946,43.547-17.817s29.946,24.042,24.757,40.01
					C794.156,184.663,782.69,195.249,755.798,186.511z"/>
				<path class="st18" d="M799.575,167.944c3.585-12.27-2.292-25.554-13.816-33.691c-0.286-0.202-0.576-0.399-0.869-0.595
					c-0.626-0.418-1.267-0.821-1.923-1.207c-0.3-0.177-0.602-0.351-0.908-0.521c-0.258-0.143-0.518-0.284-0.78-0.423
					c-0.294-0.156-0.592-0.307-0.892-0.456c-0.501-0.249-1.009-0.491-1.525-0.722c-0.55-0.246-1.108-0.482-1.674-0.707
					c-0.566-0.225-1.14-0.439-1.722-0.642c-0.291-0.102-0.584-0.2-0.878-0.296c-0.295-0.096-0.59-0.188-0.885-0.277
					c-0.59-0.178-1.18-0.342-1.77-0.493c-0.885-0.226-1.771-0.421-2.654-0.587c-17.082-3.206-33.535,4.702-38.237,19.174l0,0l0,0
					c-5.188,15.969-2.135,31.273,24.757,40.01s38.358-1.848,43.547-17.817C799.425,168.445,799.502,168.195,799.575,167.944z"/>
				<path class="st21" d="M709.885,206.111c-0.147,0.212-0.287,0.422-0.424,0.632c0.708,0.983,1.446,1.947,2.21,2.89
					c1.775-3.995,3.693-7.546,5.412-10.448C714.301,201.133,711.736,203.437,709.885,206.111z"/>
				<path class="st21" d="M779.668,219.52c-0.314,3.358-0.85,7.358-1.762,11.634c1.173-0.314,2.336-0.66,3.487-1.039
					c0.012-0.25,0.022-0.503,0.028-0.761C781.496,226.104,780.775,222.731,779.668,219.52z"/>
			</g>
		</g>
		<g>
			<path class="st22" d="M282.999,376.046"/>
			<path class="st23" d="M179.196,452.884"/>
			<g>
				<path class="st24" d="M101.484,311.734c0.868,3.488,5.076,26.402-33.502,28.484c-2.842,0.153-5.44-1.627-6.292-4.343
					L6.063,158.569c-0.957-3.051,0.56-6.331,3.506-7.576l19.322-8.17c3.222-1.362,6.933,0.205,8.203,3.465l64.152,164.701
					C101.342,311.234,101.42,311.478,101.484,311.734z"/>
				<path class="st25" d="M101.484,311.734c0.868,3.488,5.076,26.402-33.502,28.484c-2.842,0.153-5.44-1.627-6.292-4.343
					L6.063,158.569c-0.957-3.051,0.56-6.331,3.506-7.576l19.322-8.17c3.222-1.362,6.933,0.205,8.203,3.465l64.152,164.701
					C101.342,311.234,101.42,311.478,101.484,311.734z"/>
				<path class="st24" d="M87.443,326.543c21.982-31.816,78.026-55.514,168.151-59.688c90.125-4.174,115.638-60.306,115.638-60.306
					L310.669,15.872c0,0-25.514,56.132-115.638,60.306c-77.609,3.595-129.946,21.666-157.022,46.933
					c-7.178,6.699-9.79,16.969-6.817,26.327L87.443,326.543z"/>
				<path class="st25" d="M139.031,274.939c29.369-14.319,61.558-20.623,92.815-29.333c26.298-7.328,58.133-16.588,72.417-42.118
					c6.738-12.042,9.845-26.467,12.159-39.944c2.683-15.623,3.25-31.522,2.596-47.34c-1.336-32.353,1.145-66.397-8.427-97.69
					c-0.154-0.504-0.349-0.951-0.574-1.349c0.442-0.83,0.652-1.291,0.652-1.291l60.563,190.677c0,0-25.514,56.132-115.638,60.306
					c-90.124,4.174-146.169,27.871-168.151,59.688l-1.835-5.778C98.014,300.607,117.475,285.449,139.031,274.939z"/>
			</g>
			<line class="st26" x1="311.966" y1="8" x2="526.429" y2="668.052"/>
			<g>
				<path class="st27" d="M172.557,209.917c-0.873-0.024-1.755-0.063-2.645-0.117l-0.003,0.022
					C170.8,209.869,171.683,209.9,172.557,209.917z"/>
				<path class="st27" d="M225.772,191.703l-0.027-0.029c-0.337,0.299-1.006,0.874-1.988,1.643
					C224.634,192.648,225.308,192.095,225.772,191.703z"/>
				<path class="st27" d="M126.664,189.042c6.066,18.669,19.891,32.649,36.745,39.529c0.175-7.781,3.501-15.97,5.525-20.262
					c-0.513-1.447-1.129-3.915-1.001-7.185c1.105,1.909,5.673,1.916,9.425,1.563c5.472-0.515,12.454-2.088,19.66-4.43
					c7.206-2.341,13.779-5.173,18.509-7.972c3.243-1.919,6.934-4.61,6.706-6.804c2.026,2.57,2.978,4.929,3.414,6.401
					c4.16,2.282,11.664,6.953,16.379,13.145c9.591-15.473,12.559-34.909,6.493-53.578c-10.933-33.649-47.075-52.065-80.725-41.131
					S115.731,155.392,126.664,189.042z M134.384,173.902c-2.193-6.748,1.441-13.99,8.127-16.285
					c1.196-15.955,12.498-30.676,29.537-36.212s34.835-0.27,45.181,11.935c6.758-2.073,13.954,1.65,16.147,8.398
					c2.099,6.459-1.14,13.37-7.284,15.963c-0.052,8.644-3.1,17.053-8.46,23.992c2.27,0.17,3.657,0.719,3.944,1.604
					c0.9,2.769-8.829,9.207-24.746,14.379c-15.917,5.172-27.572,5.681-28.472,2.913c-0.287-0.884,0.511-2.144,2.248-3.616
					c-8.414-2.463-15.823-7.474-20.946-14.437C143.165,184.048,136.483,180.361,134.384,173.902z"/>
				<path class="st28" d="M224.263,145.95c1.263,3.889,1.852,7.844,1.829,11.751c6.144-2.593,9.383-9.504,7.284-15.963
					c-2.193-6.748-9.389-10.471-16.147-8.398C220.302,136.965,222.72,141.201,224.263,145.95z M226.541,147.541
					c-0.406-1.25,0.278-2.592,1.528-2.998c1.25-0.406,2.592,0.278,2.998,1.528c0.406,1.25-0.278,2.592-1.528,2.998
					C228.289,149.475,226.947,148.791,226.541,147.541z M224.435,141.06c-0.406-1.25,0.278-2.592,1.528-2.998
					s2.592,0.278,2.998,1.528c0.406,1.25-0.278,2.592-1.528,2.998C226.184,142.994,224.841,142.31,224.435,141.06z"/>
				<ellipse class="st29" cx="226.695" cy="140.326" rx="2.38" ry="2.38"/>
				<ellipse class="st29" cx="228.802" cy="146.8" rx="2.379" ry="2.379"/>
				<path class="st29" d="M231.916,199.186c1.72,2.901,3.637,6.453,5.413,10.448c0.765-0.943,1.502-1.907,2.21-2.89
					c-0.137-0.21-0.278-0.42-0.424-0.632C237.264,203.437,234.699,201.133,231.916,199.186z"/>
				<path class="st29" d="M168.935,208.309c-2.024,4.292-5.35,12.481-5.525,20.262c1.38,0.563,2.78,1.078,4.198,1.545
					c-0.012-0.25-0.022-0.503-0.028-0.761c-0.075-3.251,0.646-6.623,1.753-9.834c0.314,3.358,0.85,7.358,1.762,11.634
					c0.019,0.005,0.038,0.01,0.057,0.015c2.187-4.976,4.622-12.72,3.726-21.239c-0.767,0.007-1.54,0.002-2.321-0.013
					c-0.874-0.017-1.757-0.048-2.648-0.095l0.003-0.022c-0.114-0.007-0.228-0.013-0.343-0.02
					C169.569,209.78,169.275,209.269,168.935,208.309z"/>
				<path class="st29" d="M167.579,229.355c0.006,0.258,0.016,0.51,0.028,0.761c1.151,0.379,2.314,0.725,3.487,1.039
					c-0.912-4.275-1.448-8.276-1.762-11.634C168.225,222.731,167.504,226.104,167.579,229.355z"/>
				<path class="st28" d="M196.447,196.498c-8.788,2.855-17.776,2.835-25.841,0.474c-1.737,1.472-2.535,2.731-2.248,3.616
					c0.9,2.769,12.555,2.259,28.472-2.913c15.917-5.172,25.646-11.61,24.746-14.379c-0.287-0.884-1.674-1.434-3.944-1.604
					C212.495,188.343,205.235,193.643,196.447,196.498z"/>
				<path class="st29" d="M234.494,207.927c0.976,0.66,1.917,1.244,2.795,1.756c0.014-0.017,0.027-0.033,0.041-0.05
					c-1.775-3.995-3.692-7.546-5.413-10.448c2.782,1.947,5.348,4.252,7.198,6.926c0.147,0.212,0.287,0.422,0.424,0.632
					c0.873-1.211,1.703-2.451,2.488-3.717c-4.715-6.192-12.219-10.862-16.379-13.145c0.289,0.976,0.352,1.563,0.352,1.563
					s-0.086,0.08-0.255,0.23l0.027,0.029c-0.463,0.392-1.138,0.944-2.014,1.614c-0.564,0.431-1.211,0.91-1.939,1.426
					C225.434,200.967,230.622,205.31,234.494,207.927z"/>
				<path class="st29" d="M181.153,209.633c0.877,9.079-1.416,17.241-3.742,22.874c9.726,1.574,19.962,0.92,29.977-2.335
					c10.013-3.253,18.677-8.739,25.62-15.727c-5.187-3.187-11.833-8.435-16.46-16.282
					C208.7,202.831,196.528,208.307,181.153,209.633z"/>
				<path class="st28" d="M174.877,209.931c0.896,8.519-1.539,16.263-3.726,21.239c2.058,0.548,4.147,0.996,6.26,1.338
					c2.326-5.633,4.619-13.796,3.742-22.874c15.375-1.326,27.547-6.802,35.396-11.47c4.627,7.847,11.273,13.096,16.46,16.282
					c1.509-1.519,2.936-3.109,4.279-4.762c-0.878-0.512-1.818-1.096-2.795-1.756c-3.871-2.617-9.06-6.96-12.676-13.184
					c0.728-0.516,1.375-0.995,1.939-1.426c0.982-0.769,1.651-1.344,1.988-1.643c0.169-0.15,0.255-0.23,0.255-0.23
					s-0.063-0.587-0.352-1.563c-0.436-1.472-1.387-3.831-3.414-6.401c0.228,2.194-3.464,4.885-6.706,6.804
					c-4.73,2.8-11.303,5.631-18.509,7.972c-7.206,2.341-14.188,3.914-19.66,4.43c-3.752,0.353-8.32,0.346-9.425-1.563
					c-0.129,3.27,0.488,5.738,1.001,7.185c0.34,0.96,0.634,1.472,0.634,1.472c0.115,0.007,0.229,0.014,0.343,0.02
					c0.89,0.054,1.772,0.092,2.645,0.117C173.337,209.933,174.111,209.937,174.877,209.931z"/>
				<path class="st28" d="M134.384,173.902c2.099,6.459,8.781,10.146,15.276,8.633c-2.316-3.147-4.164-6.693-5.428-10.582
					c-1.543-4.749-2.077-9.597-1.721-14.336C135.825,159.912,132.192,167.154,134.384,173.902z M141.219,168.099
					c0.406,1.25-0.278,2.592-1.528,2.998c-1.25,0.406-2.592-0.278-2.998-1.528c-0.406-1.25,0.278-2.592,1.528-2.998
					S140.813,166.849,141.219,168.099z M138.798,176.05c-0.406-1.25,0.278-2.592,1.528-2.998s2.592,0.278,2.998,1.528
					c0.406,1.25-0.278,2.592-1.528,2.998C140.547,177.984,139.205,177.3,138.798,176.05z"/>
				<ellipse class="st29" cx="141.064" cy="175.315" rx="2.38" ry="2.38"/>
				<ellipse class="st29" cx="138.949" cy="168.832" rx="2.38" ry="2.38"/>
				<path class="st29" d="M144.232,171.953c1.263,3.889,3.112,7.434,5.428,10.582c5.123,6.963,12.532,11.974,20.946,14.437
					c8.065,2.361,17.054,2.381,25.841-0.474c8.787-2.855,16.047-8.155,21.185-14.806c5.36-6.939,8.408-15.347,8.46-23.992
					c0.023-3.907-0.565-7.863-1.829-11.751c-1.543-4.749-3.961-8.985-7.034-12.61c-10.346-12.205-28.142-17.471-45.181-11.935
					s-28.341,20.257-29.537,36.212C142.156,162.356,142.689,167.204,144.232,171.953z M149.656,168.694
					c-5.189-15.969,5.896-33.882,24.757-40.01s38.358,1.849,43.547,17.817c5.188,15.969,2.135,31.273-24.757,40.01
					S154.844,184.663,149.656,168.694z"/>
				<path class="st28" d="M149.656,168.694c5.189,15.969,16.655,26.555,43.547,17.817s29.946-24.042,24.757-40.01l0,0l0,0
					c-4.702-14.472-21.155-22.38-38.237-19.174c-0.884,0.166-1.769,0.361-2.654,0.587c-0.59,0.151-1.181,0.315-1.771,0.493
					c-0.295,0.089-0.59,0.181-0.885,0.277s-0.588,0.194-0.878,0.296c-0.582,0.203-1.156,0.417-1.722,0.642
					c-0.566,0.225-1.124,0.461-1.674,0.707c-0.516,0.231-1.024,0.473-1.525,0.722c-0.3,0.149-0.598,0.301-0.892,0.456
					c-0.262,0.138-0.522,0.279-0.78,0.423c-0.306,0.17-0.608,0.344-0.908,0.521c-0.656,0.387-1.298,0.79-1.923,1.207
					c-0.293,0.195-0.583,0.393-0.869,0.595c-11.525,8.137-17.401,21.421-13.816,33.691
					C149.498,168.195,149.575,168.445,149.656,168.694z"/>
				<path class="st30" d="M231.916,199.186c1.72,2.901,3.637,6.453,5.413,10.448c0.765-0.943,1.502-1.907,2.21-2.89
					c-0.137-0.21-0.278-0.42-0.424-0.632C237.264,203.437,234.699,201.133,231.916,199.186z"/>
				<path class="st30" d="M167.579,229.355c0.006,0.258,0.016,0.51,0.028,0.761c1.151,0.379,2.314,0.725,3.487,1.039
					c-0.912-4.275-1.448-8.276-1.762-11.634C168.225,222.731,167.504,226.104,167.579,229.355z"/>
			</g>
		</g>
		<g>
			<path class="st22" d="M669.001,376.046"/>
			<path class="st23" d="M772.804,452.884"/>
			<g>
				<path class="st24" d="M850.516,311.734c-0.868,3.488-5.076,26.402,33.502,28.484c2.842,0.153,5.44-1.627,6.292-4.343
					l55.627-177.305c0.957-3.051-0.56-6.331-3.506-7.576l-19.322-8.17c-3.222-1.362-6.933,0.205-8.203,3.465l-64.152,164.701
					C850.658,311.234,850.58,311.478,850.516,311.734z"/>
				<path class="st25" d="M850.516,311.734c-0.868,3.488-5.076,26.402,33.502,28.484c2.842,0.153,5.44-1.627,6.292-4.343
					l55.627-177.305c0.957-3.051-0.56-6.331-3.506-7.576l-19.322-8.17c-3.222-1.362-6.933,0.205-8.203,3.465l-64.152,164.701
					C850.658,311.234,850.58,311.478,850.516,311.734z"/>
				<path class="st24" d="M864.557,326.543c-21.982-31.816-78.026-55.514-168.151-59.688
					c-90.125-4.174-115.638-60.306-115.638-60.306l60.563-190.677c0,0,25.514,56.132,115.638,60.306
					c77.609,3.595,129.946,21.666,157.022,46.933c7.178,6.699,9.79,16.969,6.817,26.327L864.557,326.543z"/>
				<path class="st25" d="M812.969,274.939c-29.369-14.319-61.558-20.623-92.815-29.333c-26.299-7.328-58.133-16.588-72.417-42.118
					c-6.738-12.042-9.845-26.467-12.159-39.944c-2.683-15.623-3.25-31.522-2.597-47.34c1.336-32.353-1.145-66.397,8.427-97.69
					c0.154-0.504,0.349-0.951,0.574-1.349c-0.442-0.83-0.652-1.291-0.652-1.291L580.768,206.55c0,0,25.514,56.132,115.638,60.306
					c90.124,4.174,146.169,27.871,168.151,59.688l1.835-5.778C853.986,300.607,834.525,285.449,812.969,274.939z"/>
			</g>
			<line class="st26" x1="640.034" y1="8" x2="425.571" y2="668.052"/>
			<g>
				<path class="st27" d="M782.091,209.822l-0.003-0.022c-0.89,0.054-1.772,0.092-2.645,0.117
					C780.318,209.9,781.2,209.869,782.091,209.822z"/>
				<path class="st27" d="M728.243,193.317c-0.982-0.769-1.651-1.344-1.988-1.643l-0.027,0.029
					C726.692,192.095,727.366,192.648,728.243,193.317z"/>
				<path class="st27" d="M784.204,108.317c-33.649-10.933-69.791,7.482-80.724,41.131c-6.066,18.669-3.098,38.105,6.493,53.578
					c4.715-6.192,12.219-10.862,16.379-13.145c0.436-1.472,1.387-3.831,3.414-6.401c-0.228,2.194,3.463,4.885,6.706,6.804
					c4.73,2.8,11.303,5.631,18.509,7.972c7.206,2.341,14.188,3.914,19.66,4.43c3.752,0.353,8.32,0.346,9.425-1.563
					c0.129,3.27-0.488,5.738-1.001,7.185c2.024,4.292,5.35,12.481,5.525,20.262c16.854-6.88,30.679-20.86,36.745-39.529
					C836.269,155.392,817.854,119.251,784.204,108.317z M802.34,182.535c-5.123,6.963-12.532,11.974-20.946,14.437
					c1.737,1.472,2.535,2.731,2.248,3.616c-0.9,2.769-12.555,2.259-28.472-2.913c-15.917-5.172-25.646-11.61-24.746-14.379
					c0.287-0.884,1.674-1.434,3.944-1.604c-5.359-6.939-8.408-15.347-8.46-23.992c-6.144-2.593-9.383-9.504-7.284-15.963
					c2.193-6.748,9.389-10.471,16.147-8.398c10.346-12.205,28.142-17.471,45.181-11.935s28.341,20.257,29.537,36.212
					c6.686,2.295,10.319,9.537,8.127,16.285C815.517,180.361,808.835,184.048,802.34,182.535z"/>
				<path class="st28" d="M734.771,133.34c-6.758-2.073-13.954,1.65-16.147,8.398c-2.099,6.459,1.14,13.37,7.284,15.963
					c-0.023-3.907,0.565-7.863,1.829-11.751C729.28,141.201,731.698,136.965,734.771,133.34z M722.461,149.069
					c-1.25-0.406-1.934-1.749-1.528-2.998c0.406-1.25,1.749-1.934,2.998-1.528c1.25,0.406,1.934,1.749,1.528,2.998
					C725.053,148.791,723.711,149.475,722.461,149.069z M724.566,142.588c-1.25-0.406-1.934-1.749-1.528-2.998
					c0.406-1.25,1.749-1.934,2.998-1.528s1.934,1.749,1.528,2.998C727.159,142.31,725.816,142.994,724.566,142.588z"/>
				<ellipse class="st29" cx="725.305" cy="140.326" rx="2.38" ry="2.38"/>
				<ellipse class="st29" cx="723.198" cy="146.8" rx="2.379" ry="2.379"/>
				<path class="st29" d="M712.885,206.111c-0.147,0.212-0.287,0.422-0.424,0.632c0.708,0.983,1.446,1.947,2.21,2.89
					c1.775-3.995,3.693-7.546,5.412-10.448C717.301,201.133,714.736,203.437,712.885,206.111z"/>
				<path class="st29" d="M782.431,209.78c-0.115,0.007-0.229,0.014-0.343,0.02l0.003,0.022c-0.891,0.046-1.774,0.078-2.648,0.095
					c-0.78,0.015-1.554,0.02-2.321,0.013c-0.896,8.519,1.539,16.263,3.726,21.239c0.019-0.005,0.038-0.01,0.057-0.015
					c0.912-4.275,1.448-8.276,1.762-11.634c1.106,3.211,1.828,6.583,1.753,9.834c-0.006,0.258-0.016,0.511-0.028,0.761
					c1.418-0.467,2.818-0.982,4.198-1.545c-0.175-7.781-3.501-15.97-5.525-20.262C782.725,209.269,782.431,209.78,782.431,209.78z"
					/>
				<path class="st29" d="M782.668,219.52c-0.314,3.358-0.85,7.358-1.762,11.634c1.173-0.314,2.336-0.66,3.487-1.039
					c0.012-0.25,0.022-0.503,0.028-0.761C784.496,226.104,783.775,222.731,782.668,219.52z"/>
				<path class="st28" d="M734.368,181.692c-2.27,0.17-3.657,0.719-3.944,1.604c-0.9,2.769,8.829,9.207,24.746,14.379
					c15.917,5.172,27.572,5.681,28.472,2.913c0.287-0.884-0.511-2.144-2.248-3.616c-8.065,2.361-17.054,2.381-25.841-0.474
					C746.765,193.643,739.505,188.343,734.368,181.692z"/>
				<path class="st29" d="M730.182,194.743c-0.728-0.516-1.375-0.995-1.939-1.426c-0.877-0.67-1.551-1.222-2.014-1.614l0.027-0.029
					c-0.169-0.15-0.255-0.23-0.255-0.23s0.063-0.587,0.352-1.563c-4.16,2.282-11.664,6.953-16.379,13.145
					c0.785,1.267,1.615,2.506,2.488,3.717c0.137-0.21,0.278-0.42,0.424-0.632c1.85-2.674,4.416-4.979,7.198-6.926
					c-1.72,2.901-3.637,6.453-5.413,10.448c0.014,0.017,0.027,0.033,0.041,0.05c0.878-0.512,1.818-1.096,2.795-1.756
					C721.378,205.31,726.566,200.967,730.182,194.743z"/>
				<path class="st29" d="M735.451,198.163c-4.627,7.847-11.273,13.096-16.46,16.282c6.943,6.988,15.607,12.474,25.62,15.727
					c10.015,3.254,20.251,3.908,29.978,2.335c-2.326-5.633-4.619-13.796-3.742-22.874
					C755.472,208.307,743.3,202.831,735.451,198.163z"/>
				<path class="st28" d="M779.443,209.917c0.873-0.024,1.755-0.063,2.645-0.117c0.114-0.007,0.228-0.013,0.343-0.02
					c0,0,0.294-0.512,0.634-1.472c0.513-1.448,1.129-3.915,1.001-7.185c-1.105,1.909-5.673,1.916-9.425,1.563
					c-5.472-0.515-12.454-2.088-19.66-4.43c-7.206-2.341-13.779-5.173-18.509-7.972c-3.243-1.919-6.934-4.61-6.706-6.804
					c-2.026,2.57-2.978,4.929-3.414,6.401c-0.289,0.977-0.352,1.563-0.352,1.563s0.086,0.08,0.255,0.23
					c0.337,0.299,1.006,0.874,1.988,1.643c0.564,0.431,1.211,0.91,1.939,1.426c-3.616,6.223-8.804,10.567-12.676,13.184
					c-0.976,0.66-1.917,1.244-2.795,1.756c1.343,1.653,2.77,3.243,4.279,4.762c5.187-3.187,11.833-8.435,16.46-16.282
					c7.849,4.668,20.021,10.144,35.396,11.47c-0.877,9.079,1.416,17.241,3.742,22.874c2.113-0.342,4.202-0.79,6.26-1.338
					c-2.187-4.976-4.622-12.72-3.726-21.239C777.889,209.937,778.663,209.933,779.443,209.917z"/>
				<path class="st28" d="M809.489,157.617c0.355,4.739-0.178,9.587-1.721,14.336c-1.263,3.889-3.112,7.434-5.428,10.582
					c6.494,1.513,13.177-2.174,15.276-8.633C819.808,167.154,816.175,159.912,809.489,157.617z M813.779,166.571
					c1.25,0.406,1.934,1.749,1.528,2.998c-0.406,1.25-1.749,1.934-2.998,1.528c-1.25-0.406-1.934-1.749-1.528-2.998
					C811.187,166.849,812.53,166.165,813.779,166.571z M810.203,177.578c-1.25-0.406-1.934-1.749-1.528-2.998
					c0.406-1.25,1.749-1.934,2.998-1.528s1.934,1.749,1.528,2.998C812.795,177.3,811.453,177.984,810.203,177.578z"/>
				<ellipse class="st29" cx="810.936" cy="175.315" rx="2.38" ry="2.38"/>
				<ellipse class="st29" cx="813.05" cy="168.832" rx="2.38" ry="2.38"/>
				<path class="st29" d="M809.489,157.617c-1.196-15.955-12.498-30.676-29.537-36.212s-34.835-0.27-45.181,11.935
					c-3.073,3.625-5.491,7.861-7.034,12.61c-1.263,3.889-1.852,7.844-1.829,11.751c0.052,8.644,3.1,17.053,8.46,23.992
					c5.137,6.651,12.397,11.95,21.185,14.806c8.788,2.855,17.776,2.835,25.841,0.474c8.414-2.463,15.823-7.474,20.946-14.437
					c2.316-3.147,4.164-6.693,5.428-10.582C809.311,167.204,809.844,162.356,809.489,157.617z M758.798,186.511
					c-26.892-8.738-29.946-24.042-24.757-40.01c5.189-15.969,24.685-23.946,43.547-17.817s29.946,24.042,24.757,40.01
					C797.156,184.663,785.69,195.249,758.798,186.511z"/>
				<path class="st28" d="M802.575,167.944c3.585-12.27-2.292-25.554-13.816-33.691c-0.286-0.202-0.576-0.399-0.869-0.595
					c-0.626-0.418-1.267-0.821-1.923-1.207c-0.3-0.177-0.602-0.351-0.908-0.521c-0.258-0.143-0.518-0.284-0.78-0.423
					c-0.294-0.156-0.592-0.307-0.892-0.456c-0.501-0.249-1.009-0.491-1.525-0.722c-0.55-0.246-1.108-0.482-1.674-0.707
					c-0.566-0.225-1.14-0.439-1.722-0.642c-0.291-0.102-0.584-0.2-0.878-0.296c-0.295-0.096-0.59-0.188-0.885-0.277
					c-0.59-0.178-1.18-0.342-1.771-0.493c-0.885-0.226-1.771-0.421-2.654-0.587c-17.082-3.206-33.535,4.702-38.237,19.174l0,0l0,0
					c-5.188,15.969-2.135,31.273,24.757,40.01s38.358-1.848,43.547-17.817C802.425,168.445,802.502,168.195,802.575,167.944z"/>
				<path class="st30" d="M712.885,206.111c-0.147,0.212-0.287,0.422-0.424,0.632c0.708,0.983,1.446,1.947,2.21,2.89
					c1.775-3.995,3.693-7.546,5.412-10.448C717.301,201.133,714.736,203.437,712.885,206.111z"/>
				<path class="st30" d="M782.668,219.52c-0.314,3.358-0.85,7.358-1.762,11.634c1.173-0.314,2.336-0.66,3.487-1.039
					c0.012-0.25,0.022-0.503,0.028-0.761C784.496,226.104,783.775,222.731,782.668,219.52z"/>
			</g>
		</g>
	</g>
</g>
<path class="st31" d="M445.836,357.765"/>
<path class="st32" d="M849.927,491.329c86.641,197.593,4.002,430.704-191.29,528.45
	c-201.595,100.848-446.711,19.209-547.559-182.386c-56.227-112.353-55.726-238.313-9.304-345.263"/>
<path class="st33" d="M644.33,799.374c-199.694,80.138-426.502-16.808-506.74-216.502c-9.505-23.711-16.408-47.823-21.01-72.034
	c-33.216,88.042-35.217,188.089,2.601,282.233c80.138,199.694,307.045,296.74,506.74,216.502
	c175.983-70.633,272.029-255.121,237.512-434.706C826.316,673.515,749.88,757.054,644.33,799.374z"/>
<g>
	<path class="st34" d="M165.503,603.982c0.4,0,0.9,0,1.201,0.1C166.304,604.082,165.903,604.082,165.503,603.982z"/>
	<path class="st34" d="M163.802,603.982c-0.2,0-0.4,0-0.6,0C163.402,603.982,163.602,603.982,163.802,603.982L163.802,603.982z"/>
	<path class="st34" d="M200.019,688.222c-6.003,6.403-13.807,11.205-22.311,13.606c20.81-6.003,36.017-25.212,36.017-47.923
		c0-5.803-0.9-11.205-2.701-16.408c-1-1.601-28.313-45.321-79.938-21.21c6.003-5.302,13.206-9.004,21.01-10.905
		c-21.91,5.302-38.218,25.012-38.218,48.523c0,4.502,0.6,8.904,1.701,12.906C116.08,668.012,142.892,724.639,200.019,688.222z"/>
	<path class="st34" d="M158.5,604.182c0.4,0,0.9-0.1,1.201-0.1C159.3,604.082,158.9,604.082,158.5,604.182z"/>
	<path class="st34" d="M177.709,701.828c-0.8,0.2-1.601,0.5-2.401,0.7C176.108,702.328,176.909,702.028,177.709,701.828z"/>
	<path class="st34" d="M155.498,604.582c0.6-0.1,1.101-0.2,1.701-0.3C156.699,604.382,156.099,604.482,155.498,604.582z"/>
	<path class="st34" d="M180.11,606.683c0.8,0.3,1.401,0.6,2.201,0.9C181.511,607.283,180.91,606.983,180.11,606.683z"/>
	<path class="st34" d="M182.911,607.684c0.9,0.4,1.701,0.8,2.601,1.101C184.612,608.484,183.812,608.084,182.911,607.684z"/>
	<path class="st34" d="M168.104,604.082c0.6,0.1,1.101,0.1,1.701,0.2C169.205,604.182,168.705,604.182,168.104,604.082z"/>
	<path class="st34" d="M170.906,604.382c0.9,0.1,1.801,0.3,2.601,0.5C172.607,604.682,171.706,604.582,170.906,604.382z"/>
	<path class="st34" d="M177.009,605.783c0.9,0.2,1.601,0.5,2.501,0.8C178.609,606.183,177.809,605.883,177.009,605.783z"/>
	<path class="st34" d="M116.98,671.214c-0.1-0.2-0.1-0.4-0.2-0.6C116.78,670.913,116.88,671.014,116.98,671.214z"/>
	<path class="st34" d="M152.397,605.282c0.8-0.2,1.401-0.3,2.201-0.5C153.898,604.882,153.197,605.082,152.397,605.282z"/>
	<path class="st34" d="M151.897,702.328c-0.3-0.1-0.7-0.2-0.9-0.2C151.296,702.228,151.597,702.328,151.897,702.328z"/>
	<path class="st34" d="M153.898,702.829c-0.3-0.1-0.5-0.1-0.8-0.2C153.497,702.729,153.698,702.729,153.898,702.829z"/>
	<path class="st34" d="M156.199,703.229L156.199,703.229L156.199,703.229z"/>
	<path class="st34" d="M146.694,700.728L146.694,700.728L146.694,700.728z"/>
	<path class="st34" d="M148.995,701.628c-0.1,0-0.3-0.1-0.4-0.1C148.795,701.528,148.895,701.528,148.995,701.628z"/>
	<path class="st34" d="M116.18,669.213c-0.1-0.2-0.2-0.5-0.2-0.7C116.08,668.712,116.18,668.912,116.18,669.213z"/>
	<path class="st34" d="M173.407,702.829c0.3-0.1,0.6-0.1,0.9-0.2C174.007,702.729,173.707,702.729,173.407,702.829z"/>
	<path class="st34" d="M118.781,675.516C118.781,675.516,118.781,675.416,118.781,675.516
		C118.781,675.416,118.781,675.516,118.781,675.516z"/>
	<path class="st34" d="M117.881,673.515c-0.1-0.1-0.1-0.2-0.2-0.4C117.681,673.215,117.781,673.415,117.881,673.515z"/>
	<path class="st34" d="M173.607,604.882c1,0.2,2.001,0.5,3.001,0.7C175.608,605.382,174.607,605.082,173.607,604.882z"/>
	<path class="st34" d="M200.42,619.989c0.6,0.6,1,1.101,1.601,1.801C201.52,621.19,200.92,620.59,200.42,619.989z"/>
	<path class="st34" d="M195.417,615.287C195.517,615.287,195.517,615.287,195.417,615.287
		C195.517,615.287,195.517,615.287,195.417,615.287z"/>
	<path class="st34" d="M202.12,621.99c0.7,0.8,1.201,1.501,1.801,2.301C203.421,623.491,202.821,622.791,202.12,621.99z"/>
	<path class="st34" d="M207.223,629.394c1.401,2.501,2.601,5.102,3.602,7.804C209.924,634.496,208.724,631.795,207.223,629.394z"/>
	<path class="st34" d="M198.519,618.089c0.4,0.4,0.8,0.8,1,1C199.319,618.789,198.919,618.489,198.519,618.089z"/>
	<path class="st34" d="M186.313,609.284c0.6,0.3,1,0.6,1.501,0.9C187.313,609.785,186.813,609.584,186.313,609.284z"/>
	<path class="st34" d="M196.718,616.288c0.3,0.3,0.7,0.6,0.9,0.9C197.318,616.888,196.918,616.588,196.718,616.288z"/>
	<path class="st34" d="M191.515,612.386c0.3,0.2,0.6,0.4,0.9,0.6C192.016,612.686,191.716,612.586,191.515,612.386z"/>
	<path class="st34" d="M189.114,610.885c0.4,0.2,0.8,0.4,1,0.7C189.815,611.185,189.515,610.985,189.114,610.885z"/>
	<path class="st34" d="M205.722,626.893c0.5,0.8,1,1.601,1.401,2.401C206.823,628.393,206.322,627.693,205.722,626.893z"/>
	<path class="st34" d="M204.021,624.391c0.6,0.8,1.101,1.501,1.601,2.401C205.122,625.892,204.622,625.092,204.021,624.391z"/>
	<path class="st35" d="M176.708,605.683L176.708,605.683c0,0,0.2,0.1,0.3,0.1C176.909,605.783,176.809,605.683,176.708,605.683z"/>
	<path class="st35" d="M190.115,611.485c0.5,0.3,0.9,0.6,1.301,0.9C191.015,612.086,190.615,611.786,190.115,611.485z"/>
	<path class="st35" d="M182.311,607.484c0.2,0.1,0.5,0.2,0.7,0.3C182.711,607.583,182.511,607.583,182.311,607.484z"/>
	<path class="st35" d="M159.8,604.082c1.101-0.1,2.301-0.2,3.402-0.2C162.102,603.982,160.901,604.082,159.8,604.082z"/>
	<path class="st35" d="M187.914,610.085c0.4,0.2,0.9,0.5,1.201,0.8C188.614,610.585,188.214,610.385,187.914,610.085z"/>
	<path class="st35" d="M185.413,608.884c0.3,0.1,0.6,0.3,0.9,0.5C186.013,609.184,185.713,609.084,185.413,608.884z"/>
	<path class="st35" d="M163.902,603.982c0.6,0,1.101,0,1.701,0C164.903,603.982,164.403,603.982,163.902,603.982z"/>
	<path class="st35" d="M166.704,604.082c0.5,0,0.9,0.1,1.401,0.1C167.604,604.082,167.204,604.082,166.704,604.082z"/>
	<path class="st35" d="M173.507,604.882L173.507,604.882C173.607,604.882,173.507,604.882,173.507,604.882z"/>
	<path class="st35" d="M169.805,604.282c0.4,0,0.7,0.1,1,0.1C170.506,604.382,170.205,604.282,169.805,604.282z"/>
	<path class="st35" d="M179.51,606.483c0.2,0.1,0.5,0.2,0.7,0.2C179.81,606.583,179.61,606.583,179.51,606.483z"/>
	<path class="st35" d="M205.622,626.693c0,0.1,0.1,0.1,0.1,0.2C205.722,626.793,205.622,626.693,205.622,626.693z"/>
	<path class="st35" d="M203.921,624.291C204.021,624.291,204.021,624.391,203.921,624.291
		C204.021,624.391,204.021,624.291,203.921,624.291z"/>
	<path class="st35" d="M207.223,629.294C207.223,629.294,207.223,629.394,207.223,629.294
		C207.223,629.394,207.223,629.294,207.223,629.294z"/>
	<path class="st35" d="M192.316,612.886c1,0.8,2.201,1.501,3.202,2.401C194.517,614.387,193.316,613.686,192.316,612.886z"/>
	<path class="st35" d="M201.92,621.79c0.1,0.1,0.1,0.2,0.2,0.2C202.12,621.89,202.02,621.79,201.92,621.79z"/>
	<path class="st35" d="M199.719,619.189c0.3,0.3,0.5,0.6,0.8,0.8C200.22,619.689,199.919,619.489,199.719,619.189z"/>
	<path class="st35" d="M195.517,615.387c0.4,0.3,0.8,0.7,1.101,1C196.318,616.088,195.918,615.687,195.517,615.387z"/>
	<path class="st35" d="M210.925,637.498c0-0.1-0.1-0.2-0.1-0.3C210.825,637.298,210.825,637.398,210.925,637.498L210.925,637.498z"
		/>
	<path class="st35" d="M197.618,617.188c0.4,0.3,0.7,0.7,0.9,0.9C198.319,617.788,197.918,617.488,197.618,617.188z"/>
	<path class="st35" d="M157.199,604.382c0.4-0.1,0.9-0.1,1.201-0.2C158.1,604.182,157.699,604.282,157.199,604.382z"/>
	<path class="st35" d="M151.997,605.382c0.1,0,0.3-0.1,0.4-0.1C152.297,605.282,152.097,605.282,151.997,605.382z"/>
	<path class="st35" d="M154.698,604.782c0.3-0.1,0.6-0.1,0.9-0.2C155.298,604.682,154.998,604.682,154.698,604.782z"/>
	<path class="st34" d="M210.925,637.398c0-0.1-0.1-0.2-0.1-0.3c-0.9-2.701-2.201-5.403-3.602-7.804c0,0,0,0,0-0.1
		c-0.5-0.9-0.9-1.601-1.401-2.401c0-0.1-0.1-0.1-0.1-0.2c-0.5-0.8-1-1.601-1.601-2.401c0,0,0,0,0-0.1
		c-0.6-0.8-1.101-1.501-1.801-2.301c-0.1-0.1-0.1-0.2-0.2-0.2c-0.5-0.6-1-1.201-1.601-1.801c-0.3-0.3-0.5-0.6-0.8-0.8
		c-0.4-0.4-0.8-0.8-1-1c-0.3-0.3-0.7-0.7-0.9-0.9c-0.3-0.3-0.7-0.6-0.9-0.9c-0.4-0.4-0.8-0.7-1.101-1l0,0
		c-1-0.9-2.101-1.601-3.202-2.401c-0.3-0.2-0.6-0.4-0.9-0.6c-0.5-0.3-0.9-0.6-1.301-0.9c-0.4-0.2-0.7-0.5-1-0.7
		c-0.4-0.3-0.9-0.5-1.201-0.8c-0.5-0.3-1-0.6-1.501-0.9c-0.3-0.2-0.6-0.3-0.9-0.5c-0.9-0.4-1.701-0.8-2.601-1.101
		c-0.2-0.1-0.4-0.2-0.7-0.3c-0.8-0.3-1.401-0.6-2.201-0.9c-0.2-0.1-0.5-0.2-0.7-0.2c-0.9-0.3-1.601-0.5-2.501-0.8
		c-0.1,0-0.3-0.1-0.4-0.1c-1-0.3-2.001-0.5-3.001-0.7h-0.1c-0.9-0.2-1.801-0.3-2.601-0.5c-0.4-0.1-0.7-0.1-1-0.1
		c-0.6-0.1-1.101-0.1-1.701-0.2c-0.5,0-0.9-0.1-1.401-0.1c-0.4,0-0.9,0-1.201-0.1c-0.6,0-1.101,0-1.701,0c-0.2,0-0.5,0-0.7,0
		c-1.101,0-2.301,0.1-3.402,0.2c-0.4,0-0.9,0.1-1.201,0.1c-0.4,0-0.9,0.1-1.201,0.2c-0.6,0.1-1.101,0.2-1.701,0.3
		c-0.3,0.1-0.6,0.1-0.9,0.2c-0.8,0.1-1.501,0.3-2.201,0.5c-0.1,0-0.3,0.1-0.4,0.1c-7.804,1.901-14.907,5.703-21.01,10.905
		C182.711,592.176,209.924,635.797,210.925,637.398z"/>
	<path class="st35" d="M210.925,637.398c0-0.1-0.1-0.2-0.1-0.3c-0.9-2.701-2.201-5.403-3.602-7.804c0,0,0,0,0-0.1
		c-0.5-0.9-0.9-1.601-1.401-2.401c0-0.1-0.1-0.1-0.1-0.2c-0.5-0.8-1-1.601-1.601-2.401c0,0,0,0,0-0.1
		c-0.6-0.8-1.101-1.501-1.801-2.301c-0.1-0.1-0.1-0.2-0.2-0.2c-0.5-0.6-1-1.201-1.601-1.801c-0.3-0.3-0.5-0.6-0.8-0.8
		c-0.4-0.4-0.8-0.8-1-1c-0.3-0.3-0.7-0.7-0.9-0.9c-0.3-0.3-0.7-0.6-0.9-0.9c-0.4-0.4-0.8-0.7-1.101-1l0,0
		c-1-0.9-2.101-1.601-3.202-2.401c-0.3-0.2-0.6-0.4-0.9-0.6c-0.5-0.3-0.9-0.6-1.301-0.9c-0.4-0.2-0.7-0.5-1-0.7
		c-0.4-0.3-0.9-0.5-1.201-0.8c-0.5-0.3-1-0.6-1.501-0.9c-0.3-0.2-0.6-0.3-0.9-0.5c-0.9-0.4-1.701-0.8-2.601-1.101
		c-0.2-0.1-0.4-0.2-0.7-0.3c-0.8-0.3-1.401-0.6-2.201-0.9c-0.2-0.1-0.5-0.2-0.7-0.2c-0.9-0.3-1.601-0.5-2.501-0.8
		c-0.1,0-0.3-0.1-0.4-0.1c-1-0.3-2.001-0.5-3.001-0.7h-0.1c-0.9-0.2-1.801-0.3-2.601-0.5c-0.4-0.1-0.7-0.1-1-0.1
		c-0.6-0.1-1.101-0.1-1.701-0.2c-0.5,0-0.9-0.1-1.401-0.1c-0.4,0-0.9,0-1.201-0.1c-0.6,0-1.101,0-1.701,0c-0.2,0-0.5,0-0.7,0
		c-1.101,0-2.301,0.1-3.402,0.2c-0.4,0-0.9,0.1-1.201,0.1c-0.4,0-0.9,0.1-1.201,0.2c-0.6,0.1-1.101,0.2-1.701,0.3
		c-0.3,0.1-0.6,0.1-0.9,0.2c-0.8,0.1-1.501,0.3-2.201,0.5c-0.1,0-0.3,0.1-0.4,0.1c-7.804,1.901-14.907,5.703-21.01,10.905
		C182.711,592.176,209.924,635.797,210.925,637.398z"/>
	<path class="st36" d="M153.197,702.628c-0.5-0.1-0.9-0.2-1.301-0.3C152.297,702.428,152.797,702.528,153.197,702.628z"/>
	<path class="st36" d="M118.781,675.416c-0.3-0.7-0.6-1.201-0.9-1.901C118.081,674.215,118.381,674.715,118.781,675.416z"/>
	<path class="st36" d="M175.308,702.428c-0.4,0.1-0.7,0.2-1,0.3C174.507,702.528,174.908,702.528,175.308,702.428z"/>
	<path class="st36" d="M156.099,703.229c-0.8-0.1-1.401-0.3-2.201-0.4C154.698,702.929,155.398,703.129,156.099,703.229z"/>
	<path class="st36" d="M150.796,702.128c0.1,0,0.1,0,0.2,0c-0.7-0.2-1.301-0.4-1.901-0.6
		C149.596,701.828,150.196,701.928,150.796,702.128z"/>
	<path class="st36" d="M177.709,701.828L177.709,701.828L177.709,701.828z"/>
	<path class="st36" d="M148.595,701.428c-0.7-0.2-1.301-0.5-2.001-0.7C147.295,701.028,147.995,701.228,148.595,701.428z"/>
	<path class="st36" d="M117.681,673.115c-0.3-0.7-0.6-1.301-0.8-2.001C117.18,671.814,117.48,672.514,117.681,673.115z"/>
	<path class="st36" d="M156.199,703.229c5.903,0.9,11.605,0.8,17.208-0.4c-3.101,0.6-6.303,0.9-9.605,0.9
		C161.201,703.829,158.7,703.629,156.199,703.229z"/>
	<path class="st36" d="M118.781,675.516c5.503,11.305,15.207,20.61,27.813,25.212C134.388,696.225,124.384,687.121,118.781,675.516z
		"/>
	<path class="st36" d="M115.58,666.812c0.2,0.6,0.3,1.101,0.5,1.701C115.78,667.912,115.78,667.412,115.58,666.812L115.58,666.812z"
		/>
	<path class="st36" d="M116.78,670.713c-0.2-0.5-0.4-1-0.5-1.501C116.38,669.613,116.58,670.113,116.78,670.713z"/>
	<path class="st34" d="M175.308,702.428c0.9-0.2,1.601-0.4,2.401-0.7l0,0c8.504-2.501,16.208-7.203,22.311-13.606
		c-57.127,36.417-83.84-20.109-84.44-21.41c0.2,0.6,0.3,1.101,0.5,1.601c0.1,0.2,0.2,0.5,0.2,0.7c0.2,0.5,0.3,1,0.5,1.501
		c0.1,0.2,0.1,0.4,0.2,0.6c0.3,0.7,0.5,1.301,0.8,2.001c0.1,0.1,0.1,0.2,0.2,0.4c0.3,0.7,0.6,1.301,0.9,1.901c0,0,0,0.1,0.1,0.1
		c5.603,11.605,15.607,20.71,27.813,25.212h0.1c0.7,0.3,1.301,0.5,2.001,0.7c0.1,0,0.3,0.1,0.4,0.1c0.7,0.2,1.301,0.4,1.901,0.6
		c0.3,0.1,0.7,0.2,0.9,0.2c0.5,0.1,0.9,0.2,1.301,0.3c0.3,0.1,0.5,0.1,0.8,0.2c0.8,0.2,1.401,0.3,2.201,0.4c0,0,0,0,0.1,0
		c2.501,0.4,5.002,0.6,7.604,0.6c3.302,0,6.503-0.3,9.605-0.9c0.3-0.1,0.6-0.1,0.9-0.2
		C174.507,702.528,174.908,702.528,175.308,702.428z"/>
	<path class="st36" d="M175.308,702.428c0.9-0.2,1.601-0.4,2.401-0.7l0,0c8.504-2.501,16.208-7.203,22.311-13.606
		c-57.127,36.417-83.84-20.109-84.44-21.41c0.2,0.6,0.3,1.101,0.5,1.601c0.1,0.2,0.2,0.5,0.2,0.7c0.2,0.5,0.3,1,0.5,1.501
		c0.1,0.2,0.1,0.4,0.2,0.6c0.3,0.7,0.5,1.301,0.8,2.001c0.1,0.1,0.1,0.2,0.2,0.4c0.3,0.7,0.6,1.301,0.9,1.901c0,0,0,0.1,0.1,0.1
		c5.603,11.605,15.607,20.71,27.813,25.212h0.1c0.7,0.3,1.301,0.5,2.001,0.7c0.1,0,0.3,0.1,0.4,0.1c0.7,0.2,1.301,0.4,1.901,0.6
		c0.3,0.1,0.7,0.2,0.9,0.2c0.5,0.1,0.9,0.2,1.301,0.3c0.3,0.1,0.5,0.1,0.8,0.2c0.8,0.2,1.401,0.3,2.201,0.4c0,0,0,0,0.1,0
		c2.501,0.4,5.002,0.6,7.604,0.6c3.302,0,6.503-0.3,9.605-0.9c0.3-0.1,0.6-0.1,0.9-0.2
		C174.507,702.528,174.908,702.528,175.308,702.428z"/>
	<path class="st34" d="M629.423,814.882L629.423,814.882C629.523,814.982,629.523,814.882,629.423,814.882z"/>
	<path class="st34" d="M629.623,815.282c-0.5-0.9-13.406-21.41-37.818-10.205c-5.102,4.302-8.304,10.805-8.304,18.109
		c0,2.201,0.3,4.302,0.9,6.403c1.301,2.701,14.107,26.312,40.019,10.005c4.102-4.302,6.603-10.005,6.603-16.408
		C631.023,820.384,630.523,817.783,629.623,815.282z"/>
	<path class="st35" d="M629.423,814.882c-2.601-7.003-8.404-12.706-16.108-14.707c-7.904-2.101-16.008,0-21.71,5.002
		c0.1,0,0.1-0.1,0.2-0.1c4.202-3.502,9.505-5.703,15.407-5.703C617.417,799.374,626.121,805.777,629.423,814.882z"/>
	<path class="st35" d="M629.623,815.282c0-0.1-0.1-0.2-0.1-0.3C629.523,815.082,629.523,815.182,629.623,815.282L629.623,815.282z"
		/>
	<path class="st34" d="M629.623,815.282c0-0.1-0.1-0.2-0.1-0.3v-0.1c-3.302-9.104-12.006-15.507-22.211-15.507
		c-5.903,0-11.205,2.201-15.407,5.703C616.216,793.872,629.122,814.381,629.623,815.282z"/>
	<path class="st35" d="M629.623,815.282c0-0.1-0.1-0.2-0.1-0.3v-0.1c-3.302-9.104-12.006-15.507-22.211-15.507
		c-5.903,0-11.205,2.201-15.407,5.703C616.216,793.872,629.122,814.381,629.623,815.282z"/>
	<path class="st36" d="M607.212,846.897c-10.905,0-20.009-7.404-22.911-17.308c-0.1-0.2-0.1-0.3-0.1-0.3
		c2.201,7.904,8.304,14.607,16.808,16.808c8.704,2.401,17.608-0.5,23.311-6.603c0,0,0,0-0.1,0
		C620.118,843.995,613.915,846.897,607.212,846.897z"/>
	<path class="st34" d="M584.401,829.589c2.801,10.005,12.006,17.308,22.911,17.308c6.703,0,12.906-2.801,17.108-7.404
		C598.408,855.801,585.802,832.29,584.401,829.589z"/>
	<path class="st36" d="M584.401,829.589c2.801,10.005,12.006,17.308,22.911,17.308c6.703,0,12.906-2.801,17.108-7.404
		C598.408,855.801,585.802,832.29,584.401,829.589z"/>
	<path class="st34" d="M674.444,575.068c-0.1-0.1-0.2-0.3-0.2-0.4C674.244,574.868,674.344,574.968,674.444,575.068z"/>
	<path class="st34" d="M722.867,548.656c0.1,0.1,0.1,0.2,0.2,0.4C723.067,548.856,722.967,548.756,722.867,548.656z"/>
	<path class="st34" d="M672.943,571.967c-0.1-0.4-0.3-0.7-0.4-1C672.743,571.366,672.843,571.667,672.943,571.967z"/>
	<path class="st34" d="M673.844,573.868c-0.2-0.5-0.4-0.9-0.6-1.301C673.443,573.067,673.643,573.367,673.844,573.868z"/>
	<path class="st34" d="M672.443,570.466c-0.1-0.4-0.3-0.8-0.4-1.101C672.243,569.666,672.343,570.066,672.443,570.466z"/>
	<path class="st34" d="M675.044,576.269C675.044,576.269,675.044,576.169,675.044,576.269
		C675.044,576.169,675.044,576.269,675.044,576.269z"/>
	<path class="st34" d="M718.365,581.271c4.902-5.002,7.904-11.806,7.904-19.409c0-3.202-0.6-6.303-1.601-9.204
		c-0.9-1.501-15.908-24.612-43.921-11.906c-6.003,5.102-9.805,12.706-9.805,21.11c0,2.501,0.4,4.902,0.9,7.203
		C672.443,570.066,687.15,600.58,718.365,581.271z"/>
	<path class="st34" d="M722.266,547.455c0,0.1,0.1,0.2,0.1,0.2C722.367,547.555,722.367,547.455,722.266,547.455z"/>
	<path class="st35" d="M722.266,547.455c-3.602-5.903-9.304-10.405-16.408-12.406c-9.204-2.501-18.609,0-25.312,5.903
		c0.2-0.1,0.3-0.1,0.5-0.2c4.802-4.102,11.105-6.503,17.808-6.503C708.56,534.249,717.364,539.551,722.266,547.455z"/>
	<path class="st35" d="M724.768,552.758c-0.5-1.301-1-2.601-1.701-3.802C723.767,550.156,724.267,551.357,724.768,552.758
		L724.768,552.758z"/>
	<path class="st35" d="M722.367,547.655c0.2,0.3,0.4,0.7,0.6,0.9C722.667,548.355,722.467,547.955,722.367,547.655z"/>
	<path class="st34" d="M724.668,552.658c-0.5-1.301-1-2.601-1.601-3.802c-0.1-0.1-0.1-0.2-0.2-0.4c-0.2-0.3-0.4-0.7-0.6-0.9
		c0-0.1-0.1-0.2-0.1-0.2c-4.802-7.904-13.606-13.206-23.511-13.206c-6.803,0-12.906,2.501-17.808,6.503
		C708.86,528.146,723.867,551.157,724.668,552.658z"/>
	<path class="st35" d="M724.668,552.658c-0.5-1.301-1-2.601-1.601-3.802c-0.1-0.1-0.1-0.2-0.2-0.4c-0.2-0.3-0.4-0.7-0.6-0.9
		c0-0.1-0.1-0.2-0.1-0.2c-4.802-7.904-13.606-13.206-23.511-13.206c-6.803,0-12.906,2.501-17.808,6.503
		C708.86,528.146,723.867,551.157,724.668,552.658z"/>
	<path class="st36" d="M698.655,589.475c-10.005,0-18.709-5.302-23.611-13.206c3.602,5.903,9.304,10.505,16.508,12.406
		c10.105,2.701,20.51-0.6,27.213-7.704c-0.2,0.1-0.4,0.2-0.5,0.3C713.362,586.373,706.359,589.475,698.655,589.475z"/>
	<path class="st36" d="M672.543,571.066c-0.1-0.2-0.1-0.4-0.2-0.5C672.443,570.666,672.543,570.866,672.543,571.066z"/>
	<path class="st36" d="M675.044,576.169c-0.2-0.4-0.4-0.7-0.6-1C674.644,575.468,674.844,575.869,675.044,576.169z"/>
	<path class="st36" d="M673.243,572.567c-0.1-0.2-0.1-0.4-0.2-0.6C673.043,572.167,673.143,572.367,673.243,572.567z"/>
	<path class="st36" d="M674.244,574.768c-0.2-0.3-0.3-0.6-0.5-0.9C673.944,574.168,674.144,574.468,674.244,574.768z"/>
	<path class="st36" d="M672.043,569.065c0,0.1,0.1,0.2,0.1,0.3C672.143,569.265,672.043,569.165,672.043,569.065L672.043,569.065z"
		/>
	<path class="st34" d="M672.043,569.065c0,0.1,0,0.2,0.1,0.2c0.1,0.4,0.2,0.8,0.4,1.101c0.1,0.2,0.1,0.4,0.2,0.5
		c0.1,0.4,0.3,0.7,0.4,1c0.1,0.2,0.1,0.4,0.2,0.6c0.2,0.5,0.4,0.9,0.6,1.301c0.2,0.3,0.3,0.6,0.5,0.9c0.1,0.1,0.1,0.3,0.2,0.4
		c0.2,0.4,0.4,0.7,0.6,1l0,0c4.802,7.904,13.606,13.206,23.611,13.206c7.704,0,14.607-3.101,19.709-8.204
		C687.15,600.58,672.443,570.066,672.043,569.065z"/>
	<path class="st36" d="M672.043,569.065c0,0.1,0,0.2,0.1,0.2c0.1,0.4,0.2,0.8,0.4,1.101c0.1,0.2,0.1,0.4,0.2,0.5
		c0.1,0.4,0.3,0.7,0.4,1c0.1,0.2,0.1,0.4,0.2,0.6c0.2,0.5,0.4,0.9,0.6,1.301c0.2,0.3,0.3,0.6,0.5,0.9c0.1,0.1,0.1,0.3,0.2,0.4
		c0.2,0.4,0.4,0.7,0.6,1l0,0c4.802,7.904,13.606,13.206,23.611,13.206c7.704,0,14.607-3.101,19.709-8.204
		C687.15,600.58,672.443,570.066,672.043,569.065z"/>
	<path class="st34" d="M590.904,929.836c0,1,0.2,2.001,0.4,3.001c0.5,0.9,6.603,13.006,19.509,4.802
		c-2.801,2.901-7.103,4.302-11.305,3.202c-4.002-1.1-7.003-4.202-8.004-7.904c1.301,4.902,5.803,8.404,11.105,8.404
		c6.303,0,11.505-5.202,11.505-11.505c0-3.802-1.801-7.203-4.602-9.304c1.901,1.401,3.202,3.302,4.002,5.503
		c0,0-6.303-10.605-18.409-4.902C592.405,923.133,590.904,926.334,590.904,929.836z"/>
	<path class="st34" d="M604.311,918.431c0.3,0,0.6,0.1,0.9,0.2C604.911,918.531,604.611,918.431,604.311,918.431z"/>
	<path class="st34" d="M594.806,921.132c0.2-0.2,0.5-0.4,0.8-0.6C595.306,920.732,595.106,920.932,594.806,921.132z"/>
	<path class="st34" d="M605.511,918.731c1.401,0.4,2.601,1,3.702,1.801C608.112,919.631,606.912,919.131,605.511,918.731z"/>
	<path class="st34" d="M603.51,918.331c0.1,0,0.1,0,0.2,0C603.51,918.331,603.51,918.331,603.51,918.331z"/>
	<path class="st35" d="M603.51,918.331c-2.901-0.3-5.703,0.6-7.804,2.201c1.901-1.401,4.302-2.301,6.803-2.301
		C602.81,918.23,603.21,918.23,603.51,918.331z"/>
	<path class="st35" d="M603.61,918.331c0.2,0,0.5,0.1,0.7,0.1C604.111,918.331,603.81,918.331,603.61,918.331z"/>
	<path class="st35" d="M609.213,920.531L609.213,920.531L609.213,920.531z"/>
	<path class="st35" d="M605.311,918.631c-0.1,0-0.2,0-0.2,0c0.1,0,0.3,0.1,0.4,0.1C605.411,918.631,605.411,918.631,605.311,918.631
		z"/>
	<path class="st35" d="M594.806,921.132L594.806,921.132L594.806,921.132L594.806,921.132z"/>
	<path class="st34" d="M613.315,926.034c-0.8-2.201-2.201-4.102-4.002-5.503c0,0-0.1,0-0.1-0.1c-1-0.8-2.401-1.401-3.702-1.801
		c-0.1,0-0.3-0.1-0.4-0.1c-0.3-0.1-0.6-0.1-0.9-0.2c-0.2,0-0.5-0.1-0.7-0.1c-0.1,0-0.1,0-0.2,0c-0.4,0-0.7-0.1-1-0.1
		c-2.601,0-4.902,0.9-6.803,2.301c-0.3,0.2-0.5,0.4-0.8,0.6l0,0C606.912,915.429,613.315,926.034,613.315,926.034z"/>
	<path class="st35" d="M613.315,926.034c-0.8-2.201-2.201-4.102-4.002-5.503c0,0-0.1,0-0.1-0.1c-1-0.8-2.401-1.401-3.702-1.801
		c-0.1,0-0.3-0.1-0.4-0.1c-0.3-0.1-0.6-0.1-0.9-0.2c-0.2,0-0.5-0.1-0.7-0.1c-0.1,0-0.1,0-0.2,0c-0.4,0-0.7-0.1-1-0.1
		c-2.601,0-4.902,0.9-6.803,2.301c-0.3,0.2-0.5,0.4-0.8,0.6l0,0C606.912,915.429,613.315,926.034,613.315,926.034z"/>
	<path class="st36" d="M591.305,932.737c0,0.1,0,0.1,0.1,0.2C591.305,932.837,591.305,932.837,591.305,932.737L591.305,932.737z"/>
	<path class="st34" d="M599.408,940.841c4.302,1.101,8.504-0.3,11.305-3.202c-12.906,8.204-19.009-4.002-19.509-4.802v0.1
		C592.405,936.739,595.406,939.741,599.408,940.841z"/>
	<path class="st36" d="M599.408,940.841c4.302,1.101,8.504-0.3,11.305-3.202c-12.906,8.204-19.009-4.002-19.509-4.802v0.1
		C592.405,936.739,595.406,939.741,599.408,940.841z"/>
	<path class="st34" d="M769.089,706.03c-0.1-0.1-0.2-0.1-0.3-0.2C768.888,705.93,768.989,705.93,769.089,706.03z"/>
	<path class="st34" d="M783.796,704.329c-1.701,1.801-3.902,2.901-6.303,3.402c5.403-0.9,9.504-5.703,9.504-11.305
		c0-3.802-1.801-7.203-4.602-9.304c1.901,1.401,3.202,3.302,4.002,5.503c0,0-6.303-10.505-18.409-4.902
		c-2.501,2.101-4.002,5.202-4.002,8.704c0,1.1,0.2,2.201,0.5,3.201C765.187,701.028,771.29,712.333,783.796,704.329z"/>
	<path class="st34" d="M776.692,707.831L776.692,707.831L776.692,707.831z"/>
	<path class="st34" d="M772.09,707.431L772.09,707.431C771.99,707.431,772.09,707.431,772.09,707.431z"/>
	<path class="st34" d="M767.888,687.721c0.2-0.2,0.5-0.4,0.8-0.6C768.388,687.321,768.188,687.521,767.888,687.721z"/>
	<path class="st34" d="M776.492,685.02c0.1,0,0.1,0,0.2,0C776.592,685.02,776.592,685.02,776.492,685.02z"/>
	<path class="st34" d="M778.593,685.32c1.401,0.4,2.601,1,3.702,1.801C781.094,686.321,779.894,685.721,778.593,685.32z"/>
	<path class="st34" d="M777.393,685.12c0.3,0,0.6,0.1,0.9,0.2C777.893,685.12,777.593,685.12,777.393,685.12z"/>
	<path class="st34" d="M770.189,706.73c-0.1-0.1-0.2-0.1-0.3-0.2C769.989,706.63,770.089,706.63,770.189,706.73z"/>
	<path class="st35" d="M776.692,685.02c0.2,0,0.5,0.1,0.7,0.1C777.192,685.02,776.892,685.02,776.692,685.02z"/>
	<path class="st35" d="M782.295,687.121L782.295,687.121L782.295,687.121z"/>
	<path class="st35" d="M767.888,687.721L767.888,687.721L767.888,687.721L767.888,687.721z"/>
	<path class="st35" d="M776.492,685.02c-2.901-0.3-5.703,0.6-7.804,2.201c1.901-1.401,4.302-2.301,6.803-2.301
		C775.792,684.92,776.192,684.92,776.492,685.02z"/>
	<path class="st35" d="M778.393,685.22c-0.1,0-0.2,0-0.2,0c0.1,0,0.3,0.1,0.4,0.1C778.493,685.22,778.493,685.22,778.393,685.22z"/>
	<path class="st34" d="M786.297,692.624c-0.8-2.201-2.201-4.102-4.002-5.503c0,0-0.1,0-0.1-0.1c-1-0.8-2.401-1.401-3.702-1.801
		c-0.1,0-0.3-0.1-0.4-0.1c-0.3-0.1-0.6-0.1-0.9-0.2c-0.2,0-0.5-0.1-0.7-0.1c-0.1,0-0.1,0-0.2,0c-0.4,0-0.7-0.1-1-0.1
		c-2.601,0-4.902,0.9-6.803,2.301c-0.3,0.2-0.5,0.4-0.8,0.6l0,0C779.994,682.119,786.297,692.624,786.297,692.624z"/>
	<path class="st35" d="M786.297,692.624c-0.8-2.201-2.201-4.102-4.002-5.503c0,0-0.1,0-0.1-0.1c-1-0.8-2.401-1.401-3.702-1.801
		c-0.1,0-0.3-0.1-0.4-0.1c-0.3-0.1-0.6-0.1-0.9-0.2c-0.2,0-0.5-0.1-0.7-0.1c-0.1,0-0.1,0-0.2,0c-0.4,0-0.7-0.1-1-0.1
		c-2.601,0-4.902,0.9-6.803,2.301c-0.3,0.2-0.5,0.4-0.8,0.6l0,0C779.994,682.119,786.297,692.624,786.297,692.624z"/>
	<path class="st36" d="M777.493,707.731c-0.3,0-0.5,0.1-0.8,0.1C776.992,707.831,777.292,707.831,777.493,707.731z"/>
	<path class="st36" d="M772.09,707.431c0.1,0,0.3,0.1,0.4,0.1c1.401,0.4,2.801,0.5,4.202,0.3c-0.4,0-0.8,0.1-1.101,0.1
		C774.191,707.931,773.091,707.731,772.09,707.431z"/>
	<path class="st36" d="M771.99,707.431c-0.6-0.2-1.201-0.5-1.701-0.8C770.689,707.031,771.29,707.231,771.99,707.431z"/>
	<path class="st36" d="M768.888,705.83c-2.201-1.501-3.802-3.702-4.502-6.303c-0.1-0.1-0.1-0.2-0.1-0.2
		C764.987,702.128,766.687,704.329,768.888,705.83z"/>
	<path class="st36" d="M769.889,706.53c-0.3-0.2-0.6-0.3-0.8-0.5C769.389,706.23,769.589,706.33,769.889,706.53z"/>
	<path class="st34" d="M768.888,705.83c0.1,0.1,0.2,0.1,0.3,0.2c0.3,0.2,0.5,0.3,0.8,0.5c0.1,0.1,0.2,0.1,0.3,0.2
		c0.6,0.3,1.101,0.6,1.701,0.8h0.1c1,0.4,2.301,0.5,3.402,0.5c0.4,0,0.8,0,1.101-0.1h0.1c0.3,0,0.5-0.1,0.8-0.1
		c2.401-0.5,4.602-1.701,6.303-3.402c-12.506,7.904-18.609-3.302-19.409-4.702C765.187,702.228,766.787,704.329,768.888,705.83z"/>
	<path class="st36" d="M768.888,705.83c0.1,0.1,0.2,0.1,0.3,0.2c0.3,0.2,0.5,0.3,0.8,0.5c0.1,0.1,0.2,0.1,0.3,0.2
		c0.6,0.3,1.101,0.6,1.701,0.8h0.1c1,0.4,2.301,0.5,3.402,0.5c0.4,0,0.8,0,1.101-0.1h0.1c0.3,0,0.5-0.1,0.8-0.1
		c2.401-0.5,4.602-1.701,6.303-3.402c-12.506,7.904-18.609-3.302-19.409-4.702C765.187,702.228,766.787,704.329,768.888,705.83z"/>
	<path class="st34" d="M281.158,775.063c0.1,0.2,0.2,0.3,0.3,0.5C281.258,775.363,281.158,775.163,281.158,775.063z"/>
	<path class="st34" d="M280.357,773.962c0.1,0.2,0.3,0.3,0.4,0.5C280.658,774.262,280.458,774.162,280.357,773.962z"/>
	<path class="st34" d="M258.547,779.465c-1.101,6.703,3.502,13.006,10.105,14.107c3.902,0.7,7.704-0.7,10.305-3.101
		c-3.001,2.701-7.303,4.002-11.505,2.801c-4.402-1.201-7.604-4.602-8.704-8.704c0,0,6.503,14.407,20.81,5.302
		c1.601-1.701,2.701-4.002,3.101-6.403c0.4-2.201,0.1-4.302-0.6-6.103c-0.7-0.9-7.203-10.805-19.409-5.302
		C260.548,773.762,258.947,776.463,258.547,779.465z"/>
	<path class="st34" d="M281.758,776.263c0,0.1,0.1,0.1,0.1,0.2C281.858,776.463,281.758,776.363,281.758,776.263z"/>
	<path class="st34" d="M279.557,772.962c0.1,0.1,0.2,0.2,0.3,0.4C279.757,773.262,279.657,773.162,279.557,772.962z"/>
	<path class="st35" d="M281.358,775.563c0.1,0.2,0.3,0.5,0.4,0.8C281.658,776.063,281.458,775.763,281.358,775.563z"/>
	<path class="st35" d="M272.554,769.36c2.801,0.5,5.202,1.801,7.003,3.802c-1.501-1.601-3.502-2.901-5.803-3.502
		c-4.102-1.101-8.204,0-11.205,2.601c0.1,0,0.2-0.1,0.2-0.1C265.45,769.76,268.952,768.76,272.554,769.36z"/>
	<path class="st35" d="M279.857,773.362c0.2,0.2,0.3,0.4,0.5,0.6C280.257,773.762,280.057,773.562,279.857,773.362z"/>
	<path class="st35" d="M280.758,774.462c0.1,0.2,0.3,0.4,0.4,0.6C281.058,774.763,280.858,774.663,280.758,774.462z"/>
	<path class="st35" d="M282.258,777.364c-0.1-0.3-0.3-0.7-0.4-0.9C281.958,776.663,282.058,776.964,282.258,777.364L282.258,777.364
		z"/>
	<path class="st34" d="M282.158,777.264c-0.1-0.3-0.2-0.6-0.4-0.9c0-0.1-0.1-0.1-0.1-0.2c-0.1-0.3-0.3-0.5-0.4-0.8
		c-0.1-0.2-0.2-0.3-0.3-0.5c-0.1-0.2-0.3-0.4-0.4-0.6c-0.1-0.2-0.3-0.3-0.4-0.5c-0.2-0.2-0.3-0.4-0.5-0.6c-0.1-0.1-0.2-0.2-0.3-0.4
		c-1.801-1.901-4.202-3.302-7.003-3.802c-3.602-0.6-7.203,0.5-9.805,2.601C274.955,766.559,281.558,776.363,282.158,777.264z"/>
	<path class="st35" d="M282.158,777.264c-0.1-0.3-0.2-0.6-0.4-0.9c0-0.1-0.1-0.1-0.1-0.2c-0.1-0.3-0.3-0.5-0.4-0.8
		c-0.1-0.2-0.2-0.3-0.3-0.5c-0.1-0.2-0.3-0.4-0.4-0.6c-0.1-0.2-0.3-0.3-0.4-0.5c-0.2-0.2-0.3-0.4-0.5-0.6c-0.1-0.1-0.2-0.2-0.3-0.4
		c-1.801-1.901-4.202-3.302-7.003-3.802c-3.602-0.6-7.203,0.5-9.805,2.601C274.955,766.559,281.558,776.363,282.158,777.264z"/>
	<path class="st36" d="M279.057,790.37c0.2-0.2,0.4-0.4,0.6-0.6l0,0C279.457,790.07,279.257,790.17,279.057,790.37z"/>
	<path class="st34" d="M258.747,784.567c1.101,4.102,4.302,7.504,8.704,8.704c4.302,1.1,8.504-0.1,11.505-2.801
		c0.2-0.2,0.4-0.4,0.6-0.6C265.35,798.874,258.747,784.567,258.747,784.567z"/>
	<path class="st36" d="M258.747,784.567c1.101,4.102,4.302,7.504,8.704,8.704c4.302,1.1,8.504-0.1,11.505-2.801
		c0.2-0.2,0.4-0.4,0.6-0.6C265.35,798.874,258.747,784.567,258.747,784.567z"/>
	<path class="st34" d="M119.381,828.088c0.9-0.2,1.701-0.4,2.601-0.6C121.182,827.688,120.282,827.888,119.381,828.088z"/>
	<path class="st34" d="M111.278,830.789c0.9-0.4,1.601-0.7,2.501-1C112.878,830.089,112.078,830.389,111.278,830.789z"/>
	<path class="st34" d="M113.779,829.789c1.801-0.7,3.602-1.201,5.503-1.701C117.38,828.488,115.58,829.088,113.779,829.789z"/>
	<path class="st34" d="M160.401,913.528c0.7-0.6,1.301-1,2.001-1.601C161.701,912.528,161.001,913.028,160.401,913.528
		L160.401,913.528z"/>
	<path class="st34" d="M130.687,826.687c-2.801,0-5.703,0.3-8.404,0.8c6.703-1.1,13.807-0.9,20.91,0.9
		c16.208,4.302,28.213,16.308,33.316,30.915c0,0-22.811-38.118-66.732-24.912c0.5,0.9,0.9,2.001,1.401,2.901
		c13.606,27.213,29.914,52.325,48.323,74.935c2.101-1.101,4.302-2.401,6.403-3.802c-1.101,1.101-2.301,2.301-3.502,3.302
		c10.305-8.904,16.808-22.01,16.808-36.717C179.21,848.497,157.399,826.687,130.687,826.687z"/>
	<path class="st34" d="M108.876,831.89c0.6-0.3,1.101-0.6,1.701-0.9C110.077,831.389,109.477,831.589,108.876,831.89z"/>
	<path class="st35" d="M119.181,828.088c0.1,0,0.2,0,0.2-0.1C119.381,828.088,119.281,828.088,119.181,828.088z"/>
	<path class="st35" d="M110.577,831.089c0.2-0.1,0.5-0.2,0.7-0.3C110.977,830.889,110.777,830.989,110.577,831.089z"/>
	<path class="st35" d="M113.779,829.789L113.779,829.789L113.779,829.789z"/>
	<path class="st35" d="M122.083,827.487c0.1,0,0.2,0,0.3,0C122.283,827.487,122.183,827.487,122.083,827.487z"/>
	<path class="st35" d="M108.476,832.09L108.476,832.09c0.1-0.1,0.3-0.1,0.4-0.2C108.776,831.89,108.676,831.99,108.476,832.09z"/>
	<path class="st34" d="M176.408,859.303c-5.102-14.607-17.108-26.713-33.316-30.915c-7.003-1.901-14.107-2.201-20.91-0.9
		c-0.1,0-0.2,0-0.3,0c-0.9,0.2-1.701,0.4-2.601,0.6c-0.1,0-0.2,0-0.2,0.1c-1.901,0.5-3.702,1-5.503,1.701l0,0
		c-0.9,0.3-1.601,0.7-2.501,1c-0.2,0.1-0.5,0.2-0.7,0.3c-0.6,0.3-1.101,0.6-1.701,0.9c-0.1,0.1-0.3,0.1-0.4,0.2
		c0.4,0.8,0.8,1.601,1.101,2.401C153.698,821.185,176.408,859.303,176.408,859.303z"/>
	<path class="st35" d="M176.408,859.303c-5.102-14.607-17.108-26.713-33.316-30.915c-7.003-1.901-14.107-2.201-20.91-0.9
		c-0.1,0-0.2,0-0.3,0c-0.9,0.2-1.701,0.4-2.601,0.6c-0.1,0-0.2,0-0.2,0.1c-1.901,0.5-3.702,1-5.503,1.701l0,0
		c-0.9,0.3-1.601,0.7-2.501,1c-0.2,0.1-0.5,0.2-0.7,0.3c-0.6,0.3-1.101,0.6-1.701,0.9c-0.1,0.1-0.3,0.1-0.4,0.2
		c0.4,0.8,0.8,1.601,1.101,2.401C153.698,821.185,176.408,859.303,176.408,859.303z"/>
	<path class="st36" d="M162.302,911.927L162.302,911.927L162.302,911.927z"/>
	<path class="st34" d="M165.803,908.626c-2.201,1.401-4.302,2.601-6.403,3.802c0.3,0.4,0.7,0.8,0.9,1.201
		c0.7-0.6,1.301-1,2.001-1.601l0,0C163.602,910.827,164.703,909.726,165.803,908.626z"/>
	<path class="st36" d="M165.803,908.626c-2.201,1.401-4.302,2.601-6.403,3.802c0.3,0.4,0.7,0.8,0.9,1.201
		c0.7-0.6,1.301-1,2.001-1.601l0,0C163.602,910.827,164.703,909.726,165.803,908.626z"/>
	<path class="st34" d="M390.41,845.296c0.8,0.1,1.501,0.2,2.301,0.3C391.91,845.396,391.21,845.396,390.41,845.296z"/>
	<path class="st34" d="M387.508,845.096c0.4,0,0.8,0,1.101,0.1C388.208,845.096,387.908,845.096,387.508,845.096z"/>
	<path class="st34" d="M406.117,848.598c-4.002-1.301-8.104-2.301-12.406-2.901c2.701,0.4,5.603,0.9,8.304,1.701
		C403.516,847.697,404.916,848.097,406.117,848.598z"/>
	<path class="st34" d="M384.407,844.996c-0.3,0-0.5,0-0.8,0c0.4,0,0.9,0,1.201,0C384.607,844.996,384.607,844.996,384.407,844.996z"
		/>
	<path class="st34" d="M448.837,890.617c-2.901-4.702-40.319-61.029-109.252-28.814c10.905-9.505,24.512-15.307,39.018-16.508
		c-35.117,2.801-62.73,32.215-62.73,68.032c0,37.718,30.614,68.332,68.332,68.332c19.309,0,36.717-7.904,49.123-20.81
		c-16.708,17.208-42.02,25.012-66.732,18.409c-24.412-6.503-42.22-25.512-48.323-48.323c0,0,36.517,79.638,115.655,29.314
		c11.605-12.306,18.709-28.814,18.709-47.022C452.739,905.424,451.338,897.721,448.837,890.617z"/>
	<path class="st34" d="M379.004,845.196c1-0.1,2.001-0.1,3.001-0.2C381.005,845.096,379.905,845.196,379.004,845.196z"/>
	<path class="st34" d="M410.719,850.298c0.2,0.1,0.4,0.1,0.5,0.2C411.119,850.398,410.919,850.398,410.719,850.298z"/>
	<path class="st34" d="M406.617,848.698c0.6,0.2,1.201,0.4,1.801,0.7C407.718,849.098,407.117,848.798,406.617,848.698z"/>
	<path class="st35" d="M382.006,845.096c0.6,0,1.101,0,1.601,0C383.006,844.996,382.506,844.996,382.006,845.096z"/>
	<path class="st35" d="M378.704,845.296c0.1,0,0.2,0,0.3,0C378.904,845.296,378.804,845.296,378.704,845.296z"/>
	<path class="st35" d="M448.837,890.617c0.1,0.2,0.2,0.3,0.2,0.3c-6.103-17.908-19.709-32.815-37.818-40.519
		C428.728,857.902,442.534,872.609,448.837,890.617z"/>
	<path class="st35" d="M406.117,848.598c0.1,0,0.3,0.1,0.4,0.1C406.417,848.698,406.317,848.598,406.117,848.598z"/>
	<path class="st35" d="M392.711,845.496c0.4,0,0.8,0.1,1.101,0.2C393.411,845.496,393.111,845.496,392.711,845.496z"/>
	<path class="st35" d="M408.418,849.298c0.9,0.3,1.601,0.7,2.401,0.9C410.019,849.898,409.118,849.598,408.418,849.298z"/>
	<path class="st35" d="M388.609,845.196c0.6,0,1.201,0.1,1.801,0.1C389.809,845.196,389.209,845.196,388.609,845.196z"/>
	<path class="st35" d="M384.807,844.996c0.9,0,1.701,0,2.601,0.1C386.508,844.996,385.707,844.996,384.807,844.996z"/>
	<path class="st34" d="M448.837,890.617c-6.303-18.109-20.109-32.615-37.618-40.219c-0.2-0.1-0.3-0.2-0.5-0.2
		c-0.8-0.4-1.601-0.7-2.401-0.9c-0.6-0.2-1.201-0.5-1.801-0.7c-0.1,0-0.3-0.1-0.4-0.1c-1.301-0.5-2.601-0.9-4.002-1.201
		c-2.701-0.8-5.603-1.301-8.304-1.701c-0.4-0.1-0.8-0.1-1.101-0.2c-0.8-0.1-1.501-0.2-2.301-0.3c-0.6-0.1-1.201-0.1-1.801-0.1
		c-0.4,0-0.8-0.1-1.101-0.1c-0.9,0-1.701-0.1-2.601-0.1c-0.4,0-0.9,0-1.201,0c-0.6,0-1.101,0-1.601,0c-1,0-2.001,0.1-3.001,0.2
		c-0.1,0-0.2,0-0.3,0c-14.607,1.201-28.313,7.203-39.018,16.508C408.618,829.689,445.936,885.915,448.837,890.617z"/>
	<path class="st35" d="M448.837,890.617c-6.303-18.109-20.109-32.615-37.618-40.219c-0.2-0.1-0.3-0.2-0.5-0.2
		c-0.8-0.4-1.601-0.7-2.401-0.9c-0.6-0.2-1.201-0.5-1.801-0.7c-0.1,0-0.3-0.1-0.4-0.1c-1.301-0.5-2.601-0.9-4.002-1.201
		c-2.701-0.8-5.603-1.301-8.304-1.701c-0.4-0.1-0.8-0.1-1.101-0.2c-0.8-0.1-1.501-0.2-2.301-0.3c-0.6-0.1-1.201-0.1-1.801-0.1
		c-0.4,0-0.8-0.1-1.101-0.1c-0.9,0-1.701-0.1-2.601-0.1c-0.4,0-0.9,0-1.201,0c-0.6,0-1.101,0-1.601,0c-1,0-2.001,0.1-3.001,0.2
		c-0.1,0-0.2,0-0.3,0c-14.607,1.201-28.313,7.203-39.018,16.508C408.618,829.689,445.936,885.915,448.837,890.617z"/>
	<path class="st36" d="M434.03,960.35L434.03,960.35c-0.2,0.2-0.4,0.4-0.6,0.6C433.63,960.75,433.83,960.55,434.03,960.35z"/>
	<path class="st34" d="M318.375,931.036c6.103,22.811,23.911,41.82,48.323,48.323c24.812,6.603,50.024-1.201,66.732-18.409
		c0.2-0.2,0.4-0.4,0.6-0.6C354.893,1010.674,318.375,931.036,318.375,931.036z"/>
	<path class="st36" d="M318.375,931.036c6.103,22.811,23.911,41.82,48.323,48.323c24.812,6.603,50.024-1.201,66.732-18.409
		c0.2-0.2,0.4-0.4,0.6-0.6C354.893,1010.674,318.375,931.036,318.375,931.036z"/>
	<path class="st34" d="M744.877,768.96c-15.607,13.506-25.512,33.616-25.512,55.926c0,6.703,0.9,13.106,2.601,19.409
		c2.101,4.302,29.614,59.128,86.041,48.023c21.51-30.114,38.618-62.83,51.124-97.246
		C847.326,779.665,808.607,739.346,744.877,768.96z"/>
	<path class="st35" d="M812.409,753.452c-24.712-6.603-49.724,0.1-67.632,15.607c0,0,0.1,0,0.1-0.1
		c12.906-11.205,29.814-18.009,48.323-18.009c29.414,0,54.726,17.208,66.631,42.12v-0.1
		C850.927,774.162,834.119,759.255,812.409,753.452z"/>
	<path class="st34" d="M793.2,750.951c-18.409,0-35.317,6.803-48.323,18.009c63.63-29.614,102.448,10.605,114.254,26.012
		c0.3-0.7,0.5-1.301,0.8-2.001C848.026,768.159,822.614,750.951,793.2,750.951z"/>
	<path class="st35" d="M793.2,750.951c-18.409,0-35.317,6.803-48.323,18.009c63.63-29.614,102.448,10.605,114.254,26.012
		c0.3-0.7,0.5-1.301,0.8-2.001C848.026,768.159,822.614,750.951,793.2,750.951z"/>
	<path class="st36" d="M721.966,844.195c-0.1-0.2-0.1-0.3-0.1-0.3c6.603,24.712,25.812,45.221,52.325,52.325
		c10.005,2.601,20.009,3.201,29.714,1.801l0.1-0.1c-3.502,0.5-7.003,0.8-10.605,0.8C759.184,898.721,730.47,875.61,721.966,844.195z
		"/>
	<path class="st34" d="M721.966,844.195c8.504,31.415,37.117,54.426,71.334,54.426c3.602,0,7.203-0.3,10.605-0.8
		c1.401-1.901,2.701-3.802,4.202-5.703C751.58,903.323,724.067,848.497,721.966,844.195z"/>
	<path class="st36" d="M721.966,844.195c8.504,31.415,37.117,54.426,71.334,54.426c3.602,0,7.203-0.3,10.605-0.8
		c1.401-1.901,2.701-3.802,4.202-5.703C751.58,903.323,724.067,848.497,721.966,844.195z"/>
</g>
<g>
	<path class="st34" d="M872.337,449.009c0-29.014-31.015-52.825-68.833-52.825H142.292c-37.918,0-68.833,23.711-68.833,52.825
		c0,29.114,31.015,52.825,68.833,52.825h661.113C841.323,501.934,872.337,478.122,872.337,449.009z"/>
</g>
<g>
	<path class="st32" d="M899.15,438.404c0-31.415-33.216-57.127-73.735-57.127h-698.83c-40.519,0-73.735,25.712-73.735,57.127
		s33.216,57.127,73.735,57.127h698.83C865.934,495.531,899.15,469.818,899.15,438.404z"/>
</g>
<line class="st37" x1="132.287" y1="406.288" x2="573.096" y2="406.288"/>
<path class="st38" d="M560.59,396.184"/>
<line class="st39" x1="604.911" y1="406.288" x2="636.726" y2="406.288"/>
<line class="st40" x1="669.341" y1="406.288" x2="807.507" y2="406.288"/>
<g>
	<g>
		<circle class="st41" cx="566.603" cy="640" r="105"/>
		<g>
			
				<rect x="523.633" y="588.012" transform="matrix(0.7071 -0.7071 0.7071 0.7071 -261.9559 567.5426)" class="st42" width="60.947" height="23.937"/>
			
				<rect x="503.345" y="626.819" transform="matrix(0.7071 -0.7071 0.7071 0.7071 -300.7592 551.4781)" class="st42" width="23.937" height="23.937"/>
			
				<rect x="517.9" y="626.201" transform="matrix(0.7071 -0.7071 0.7071 0.7071 -285.2921 587.5815)" class="st42" width="97.455" height="23.937"/>
			
				<rect x="543.39" y="652.261" transform="matrix(0.7071 -0.7071 0.7071 0.7071 -296.2537 613.2386)" class="st42" width="97.455" height="23.937"/>
		</g>
	</g>
	<circle class="st43" cx="386.899" cy="639.511" r="104.511"/>
	<g>
		<path class="st27" d="M432.8,693.553l-0.015-0.032c-1.354,0.532-2.703,1.037-4.045,1.514
			C430.087,694.568,431.441,694.074,432.8,693.553z"/>
		<path class="st27" d="M340.933,695.091c-1.911-0.698-3.239-1.253-3.912-1.547l-0.027,0.058
			C337.909,693.977,339.235,694.494,340.933,695.091z"/>
		<path class="st27" d="M384.908,535c-57.72,0-104.511,46.791-104.511,104.511c0,32.023,14.403,60.683,37.084,79.854
			c4.194-11.984,13.482-23.013,18.786-28.651c-0.066-2.504,0.221-6.644,2.07-11.653c0.752,3.518,7.836,5.833,13.835,7.176
			c8.75,1.959,20.376,3.039,32.736,3.039s23.986-1.079,32.736-3.039c5.999-1.343,13.083-3.657,13.835-7.176
			c1.848,5.009,2.135,9.148,2.07,11.653c5.304,5.639,14.592,16.668,18.786,28.651c22.681-19.171,37.084-47.83,37.084-79.854
			C489.419,581.791,442.628,535,384.908,535z M450.461,641.008c-4.438,13.386-13.407,24.896-25.22,32.959
			c3.437,1.409,5.311,2.96,5.311,4.477c0,4.749-18.34,9.834-45.643,9.834c-27.303,0-45.643-5.085-45.643-9.834
			c0-1.517,1.874-3.068,5.311-4.477c-11.813-8.063-20.783-19.573-25.22-32.959c-10.839-0.926-19.349-10.016-19.349-21.095
			c0-11.575,9.289-20.979,20.818-21.169c9.9-24.152,34.856-41.294,64.083-41.294c29.227,0,54.183,17.142,64.083,41.294
			c11.53,0.19,20.818,9.594,20.818,21.169C469.809,630.992,461.3,640.082,450.461,641.008z"/>
		<path class="st28" d="M320.825,598.743c-11.53,0.19-20.818,9.594-20.818,21.169c0,11.079,8.509,20.169,19.349,21.095
			c-2.006-6.051-3.087-12.484-3.087-19.154C316.269,613.708,317.885,605.917,320.825,598.743z M309.655,629.353
			c-2.144,0-3.882-1.738-3.882-3.882s1.738-3.882,3.882-3.882c2.144,0,3.882,1.738,3.882,3.882S311.799,629.353,309.655,629.353z
			 M309.655,618.236c-2.144,0-3.882-1.738-3.882-3.882c0-2.144,1.738-3.882,3.882-3.882c2.144,0,3.882,1.738,3.882,3.882
			C313.537,616.498,311.799,618.236,309.655,618.236z"/>
		<ellipse class="st29" cx="309.66" cy="614.355" rx="3.882" ry="3.882"/>
		<ellipse class="st29" cx="309.655" cy="625.461" rx="3.882" ry="3.882"/>
		<path class="st29" d="M323.555,722.683c-0.121,0.403-0.233,0.8-0.34,1.195c1.595,1.168,3.224,2.291,4.886,3.369
			c0.741-7.093,1.925-13.57,3.131-18.938C327.897,712.733,325.077,717.602,323.555,722.683z"/>
		<path class="st29" d="M433.307,693.316c-0.174,0.069-0.348,0.136-0.522,0.205l0.015,0.032c-1.359,0.521-2.713,1.014-4.06,1.482
			c-1.203,0.417-2.401,0.814-3.594,1.19c2.905,13.669,10.587,24.457,16.488,31.075c0.027-0.018,0.054-0.035,0.081-0.053
			c-0.741-7.093-1.925-13.57-3.131-18.938c3.335,4.424,6.154,9.293,7.677,14.374c0.121,0.403,0.233,0.8,0.34,1.195
			c1.964-1.439,3.877-2.944,5.734-4.513c-4.194-11.984-13.482-23.013-18.786-28.651
			C433.505,692.374,433.307,693.316,433.307,693.316z"/>
		<path class="st29" d="M438.584,708.309c1.206,5.369,2.39,11.845,3.131,18.938c1.661-1.078,3.291-2.201,4.886-3.369
			c-0.107-0.394-0.219-0.792-0.34-1.195C444.739,717.602,441.92,712.733,438.584,708.309z"/>
		<path class="st28" d="M344.576,673.967c-3.437,1.409-5.311,2.96-5.311,4.477c0,4.749,18.341,9.834,45.643,9.834
			c27.303,0,45.643-5.085,45.643-9.834c0-1.517-1.874-3.068-5.311-4.477c-11.323,7.729-25.259,12.291-40.332,12.291
			S355.899,681.695,344.576,673.967z"/>
		<path class="st29" d="M344.66,696.326c-1.39-0.434-2.636-0.851-3.728-1.235c-1.698-0.597-3.023-1.114-3.939-1.489l0.027-0.058
			c-0.338-0.147-0.511-0.228-0.511-0.228s-0.198-0.942-0.242-2.603c-5.304,5.639-14.592,16.668-18.786,28.651
			c1.857,1.569,3.77,3.074,5.734,4.513c0.107-0.394,0.219-0.792,0.34-1.195c1.523-5.082,4.342-9.951,7.677-14.374
			c-1.206,5.369-2.39,11.845-3.131,18.938c0.029,0.019,0.059,0.038,0.088,0.057c1.104-1.237,2.268-2.617,3.451-4.133
			C336.327,717.159,342.187,707.805,344.66,696.326z"/>
		<path class="st29" d="M354.559,698.976c-3.224,14.508-10.888,26.001-17.33,33.56c14.295,7.342,30.503,11.486,47.679,11.486
			c17.179,0,33.39-4.146,47.688-11.49c-6.448-7.567-14.12-19.076-17.337-33.603C390.736,704.621,369.09,702.261,354.559,698.976z"/>
		<path class="st28" d="M428.739,695.035c1.343-0.478,2.691-0.982,4.045-1.514c0.174-0.068,0.348-0.135,0.522-0.205
			c0,0,0.198-0.942,0.242-2.603c0.066-2.504-0.221-6.644-2.07-11.653c-0.752,3.518-7.836,5.833-13.835,7.176
			c-8.75,1.959-20.375,3.039-32.736,3.039s-23.986-1.079-32.736-3.039c-5.999-1.343-13.083-3.657-13.835-7.176
			c-1.848,5.009-2.135,9.148-2.07,11.653c0.043,1.661,0.242,2.603,0.242,2.603s0.173,0.081,0.511,0.228
			c0.673,0.293,2.001,0.849,3.912,1.547c1.092,0.384,2.338,0.801,3.728,1.235c-2.473,11.479-8.333,20.833-13.02,26.845
			c-1.182,1.516-2.347,2.896-3.451,4.133c2.917,1.888,5.933,3.636,9.04,5.232c6.442-7.559,14.106-19.052,17.33-33.56
			c14.531,3.285,36.176,5.645,60.699-0.048c3.217,14.528,10.889,26.036,17.337,33.603c3.106-1.596,6.122-3.344,9.038-5.232
			c-5.902-6.618-13.584-17.406-16.488-31.075C426.338,695.849,427.537,695.452,428.739,695.035z"/>
		<path class="st28" d="M448.991,598.743c2.94,7.174,4.556,14.965,4.556,23.11c0,6.67-1.081,13.103-3.087,19.154
			c10.839-0.926,19.349-10.016,19.349-21.095C469.809,608.338,460.521,598.933,448.991,598.743z M460.161,610.473
			c2.144,0,3.882,1.738,3.882,3.882s-1.738,3.882-3.882,3.882s-3.882-1.738-3.882-3.882S458.017,610.473,460.161,610.473z
			 M460.161,629.353c-2.144,0-3.882-1.738-3.882-3.882s1.738-3.882,3.882-3.882s3.882,1.738,3.882,3.882
			C464.043,627.615,462.305,629.353,460.161,629.353z"/>
		<ellipse class="st29" cx="460.157" cy="625.472" rx="3.882" ry="3.882"/>
		<ellipse class="st29" cx="460.17" cy="614.349" rx="3.882" ry="3.882"/>
		<path class="st29" d="M448.991,598.743c-9.9-24.152-34.856-41.294-64.083-41.294c-29.227,0-54.183,17.142-64.083,41.294
			c-2.941,7.174-4.556,14.965-4.556,23.11c0,6.67,1.081,13.103,3.087,19.154c4.438,13.386,13.407,24.896,25.22,32.959
			c11.323,7.729,25.259,12.292,40.332,12.292s29.009-4.563,40.332-12.292c11.813-8.063,20.783-19.573,25.22-32.959
			c2.006-6.051,3.087-12.484,3.087-19.154C453.547,613.708,451.931,605.917,448.991,598.743z M384.908,669.128
			c-46.128,0-58.581-22.205-58.581-49.596s26.228-49.596,58.581-49.596s58.581,22.205,58.581,49.596
			S431.036,669.128,384.908,669.128z"/>
		<path class="st28" d="M443.47,618.252c-0.624-20.844-16.438-38.493-38.42-45.307c-0.545-0.169-1.096-0.329-1.649-0.485
			c-1.181-0.333-2.379-0.634-3.593-0.904c-0.554-0.123-1.111-0.242-1.671-0.351c-0.472-0.092-0.947-0.18-1.424-0.262
			c-0.535-0.093-1.074-0.178-1.614-0.258c-0.903-0.134-1.813-0.253-2.731-0.351c-0.977-0.105-1.962-0.19-2.954-0.254
			c-0.992-0.064-1.99-0.107-2.995-0.128c-0.503-0.011-1.006-0.016-1.512-0.016c-0.506,0-1.01,0.005-1.512,0.016
			c-1.005,0.022-2.003,0.065-2.995,0.128c-1.488,0.096-2.96,0.239-4.414,0.427c-28.119,3.638-49.66,24.202-49.66,49.025l0,0l0,0
			c0,27.391,12.453,49.596,58.581,49.596s58.581-22.205,58.581-49.596C443.49,619.104,443.483,618.677,443.47,618.252z"/>
		<path class="st30" d="M323.555,722.683c-0.121,0.403-0.233,0.8-0.34,1.195c1.595,1.168,3.224,2.291,4.886,3.369
			c0.741-7.093,1.925-13.57,3.131-18.938C327.897,712.733,325.077,717.602,323.555,722.683z"/>
		<path class="st30" d="M438.584,708.309c1.206,5.369,2.39,11.845,3.131,18.938c1.661-1.078,3.291-2.201,4.886-3.369
			c-0.107-0.394-0.219-0.792-0.34-1.195C444.739,717.602,441.92,712.733,438.584,708.309z"/>
	</g>
</g>
</svg>
