<svg xmlns="http://www.w3.org/2000/svg" viewBox="0 0 24 24"><path d="M12 .444C5.619.444.444 5.62.444 12 .444 18.381 5.62 23.556 12 23.556c6.381 0 11.556-5.175 11.556-11.556C23.556 5.619 18.38.444 12 .444Zm6.234 14.61a1.632 1.632 0 0 1-1.397 1.27c-1.602.178-3.223.18-4.837.178-1.615.001-3.236 0-4.838-.179a1.631 1.631 0 0 1-1.396-1.27C5.54 14.076 5.54 13.008 5.54 12c0-1.007.003-2.076.228-3.054a1.632 1.632 0 0 1 1.396-1.27c1.602-.178 3.224-.18 4.838-.178 1.615-.001 3.236 0 4.838.179a1.632 1.632 0 0 1 1.396 1.27c.225.978.224 2.046.224 3.053 0 1.007-.001 2.075-.226 3.054Z"/><path d="m10.333 14.005 4.107-2.13-4.107-2.142v4.272Z"/></svg>