<svg xmlns="http://www.w3.org/2000/svg" viewBox="0 0 218 44"><path fill="#E84142" d="M58.752 14.33h2.362l6.607 15.337h-3.12l-1.43-3.51h-6.65l-1.387 3.51H52.08l6.672-15.338Zm3.466 9.488-2.36-6.24-2.406 6.24h4.766Zm8.431-9.488h3.141l4.181 11.59 4.311-11.59h2.947l-6.196 15.337h-2.361l-6.023-15.338Zm24.335 0h2.362l6.606 15.337h-3.119l-1.43-3.51h-6.65l-1.387 3.51H88.31l6.673-15.338Zm3.466 9.488-2.361-6.24-2.405 6.24h4.766Zm11.54-9.488h2.73v12.867h6.52v2.47h-9.25V14.329Zm20.527 0h2.362l6.606 15.337h-3.119l-1.429-3.51h-6.651l-1.387 3.51h-3.054l6.672-15.338Zm3.466 9.488-2.361-6.24-2.405 6.24h4.766Zm11.54-9.488h3.618l7.43 11.394h.044V14.33h2.729v15.338h-3.466l-7.582-11.763h-.043v11.763h-2.73V14.329Zm32.103 3.595c-.563-.606-1.112-1.01-1.646-1.213a4.341 4.341 0 0 0-1.582-.303c-.794 0-1.516.144-2.166.433a4.777 4.777 0 0 0-1.647 1.17 5.338 5.338 0 0 0-1.083 1.733 6.127 6.127 0 0 0-.368 2.145c0 .823.122 1.581.368 2.274a5.49 5.49 0 0 0 1.083 1.798 5.037 5.037 0 0 0 1.647 1.192c.65.289 1.372.433 2.166.433.621 0 1.22-.144 1.798-.433.592-.303 1.141-.78 1.647-1.43l2.252 1.603c-.693.953-1.537 1.647-2.534 2.08a7.9 7.9 0 0 1-3.184.65c-1.185 0-2.275-.188-3.271-.563a7.797 7.797 0 0 1-2.557-1.625 7.656 7.656 0 0 1-1.668-2.535c-.405-.982-.607-2.072-.607-3.271 0-1.228.202-2.34.607-3.336.404-1.011.96-1.87 1.668-2.578a7.354 7.354 0 0 1 2.557-1.625c.996-.39 2.086-.585 3.271-.585 1.039 0 2 .188 2.88.563.896.361 1.726.982 2.492 1.864l-2.123 1.56Zm8.635-3.595h2.729v6.108h7.17V14.33h2.73v15.338h-2.73v-6.76h-7.17v6.76h-2.729V14.329Zm20.389 0h10.161v2.469h-7.431v3.77h7.041v2.469h-7.041v4.16h7.821v2.469H206.65V14.329Z"/><path fill="#fff" class="nochange" d="M22 39.24c9.521 0 17.24-7.719 17.24-17.24 0-9.521-7.719-17.24-17.24-17.24-9.52 0-17.24 7.72-17.24 17.24 0 9.521 7.719 17.24 17.24 17.24Z"/><path fill="#E84142" fill-rule="evenodd" d="M44 22c0 12.15-9.85 22-22 22S0 34.15 0 22 9.85 0 22 0s22 9.85 22 22Zm-28.234 8.754h-4.27c-.897 0-1.34 0-1.61-.173a1.085 1.085 0 0 1-.492-.848c-.016-.319.205-.708.649-1.486L20.584 9.665c.448-.79.675-1.184.962-1.33a1.09 1.09 0 0 1 .983 0c.287.146.514.54.962 1.33l2.168 3.783.01.02c.485.846.73 1.275.838 1.726.119.491.119 1.01 0 1.502-.108.454-.351.886-.843 1.746l-5.538 9.788-.014.026c-.488.853-.735 1.286-1.077 1.612a3.22 3.22 0 0 1-1.314.762c-.448.124-.95.124-1.956.124Zm10.782 0h6.118c.903 0 1.357 0 1.627-.177a1.08 1.08 0 0 0 .492-.854c.015-.309-.202-.683-.626-1.416l-.045-.076-3.064-5.242-.035-.06c-.43-.728-.648-1.095-.927-1.237a1.076 1.076 0 0 0-.978 0c-.281.145-.508.53-.957 1.302L25.1 28.236l-.01.018c-.448.772-.671 1.158-.655 1.474.021.346.2.665.492.854.265.173.718.173 1.621.173Z" /></svg>