<svg xmlns="http://www.w3.org/2000/svg" viewBox="0 0 225 40"><path fill="#F3BA2F" d="M45.064 7.69h10.711c2.722 0 4.712.739 6 2.008 1.258 1.092 1.814 2.568 1.814 4.014 0 .561 0 1.27-.175 1.83a7.513 7.513 0 0 1-1.64 2.568c-.35.354-.731.561-1.082.738 1.258.354 2.37 1.092 3.278 2.007.731.915 1.082 2.007 1.082 3.66 0 .915-.175 2.007-.556 2.745-.35.738-1.082 1.476-1.814 2.007-.907.561-1.815.915-2.722 1.27-1.083.354-2.37.354-3.629.354H45.24V7.63h-.176v.06Zm9.804 9.505c.907 0 1.814-.177 2.722-.56.731-.355 1.082-1.093 1.082-1.83 0-.739-.35-1.476-.907-1.83-.731-.561-1.639-.739-2.546-.561h-5.092v4.929h4.712v-.148h.03Zm1.258 9.357c.908 0 1.815-.177 2.722-.56.732-.355 1.083-1.093.907-2.008 0-.738-.35-1.476-.907-1.83-.556-.354-1.639-.738-2.897-.738h-6v5.136h6.175ZM92.673 7.69h10.711c2.721 0 4.711.739 5.999 2.008 1.258 1.092 1.815 2.568 1.815 4.014 0 .561 0 1.27-.176 1.83a7.505 7.505 0 0 1-1.639 2.568c-.351.354-.732.561-1.083.738 1.259.354 2.371 1.092 3.278 2.007.732.915 1.083 2.007 1.083 3.66 0 .915-.176 2.007-.556 2.745-.351.738-1.083 1.476-1.815 2.007-.907.561-1.814.915-2.721 1.27-1.083.354-2.371.354-3.629.354H92.848V7.63h-.175v.06Zm9.803 9.505c.908 0 1.815-.177 2.722-.56.732-.355 1.083-1.093 1.083-1.83 0-.739-.351-1.476-.907-1.83-.732-.561-1.639-.739-2.546-.561h-5.093v4.929h4.712v-.148h.029Zm1.259 9.357c.907 0 1.814-.177 2.722-.56.731-.355 1.082-1.093.907-2.008 0-.738-.351-1.476-.907-1.83-.557-.354-1.639-.738-2.898-.738h-6v5.136h6.176ZM67.596 7.632h4.724l10.915 14.354V7.632h5.076V30.89H83.97L72.496 16.156v14.735h-4.9V7.63Zm64.119 23.258c-1.501 0-3.003-.24-4.545-1.005-2.759-1.248-5.031-3.26-6.046-5.996-.487-1.489-1.014-2.978-.771-4.507 0-1.489.244-2.978.771-4.507 1.015-2.736 3.287-4.99 6.046-6.237 1.502-.483 3.003-1.006 4.788-1.006 1.015 0 2.029 0 2.76.241.771.242 1.501.483 2.272.765.771.241 1.258.764 2.029 1.006.487.483 1.258 1.006 1.745 1.489l-2.516 2.978a11.55 11.55 0 0 0-2.759-2.012c-1.015-.483-2.273-.765-3.531-.765-1.014 0-2.029.242-3.002.483-1.015.483-1.745 1.006-2.516 1.73-.771.765-1.258 1.49-1.501 2.495-.244 1.006-.487 2.012-.487 2.978 0 1.006.243 2.012.487 2.978.243.965.77 1.73 1.501 2.495.771.764 1.501 1.247 2.516 1.73 1.014.483 2.028.765 3.002.483 1.258 0 2.516-.242 3.531-.765 1.014-.483 2.028-1.247 3.002-2.253l2.516 2.495-1.745 1.73c-.771.483-1.258 1.006-2.029 1.247-.771.242-1.501.765-2.515.765-1.015.966-2.029.966-3.003.966Zm13.29-22.532h3.755v9.247h10.782V8.358h3.998v22.533h-3.998v-9.53H148.76v9.53h-3.755V8.358Zm32.263-.363h3.756l9.772 22.532h-4.24l-2.262-5.492h-10.498l-2.262 5.492h-3.997l9.731-22.532Zm5.532 13.77-3.755-9.005-3.755 9.005h7.51Zm11.993-13.407h3.998v22.533h-3.998V8.358Zm9.813 0h3.528l12.083 15.506V8.358h4.014V30.89h-3.284l-12.286-16.03v16.03h-4.055V8.358ZM20.629 32.743v4.421l-3.856 2.266-3.745-2.266v-4.421l3.745 2.265 3.856-2.265ZM0 17.449l3.746 2.266v7.583l6.45 3.855v4.422L0 29.563V17.45Zm33.547 0v12.133L23.24 35.593v-4.422l6.45-3.855v-7.583l3.856-2.284Zm-10.324-6.011 3.855 2.266v4.421l-6.45 3.856v7.692l-3.745 2.266-3.727-2.266v-7.71l-6.688-3.856v-4.422l3.855-2.265 6.45 3.855 6.45-3.837ZM6.468 21.286l3.746 2.266v4.422l-3.746-2.266v-4.422Zm20.61 0v4.422l-3.745 2.266v-4.422l3.745-2.266ZM3.746 7.583 7.6 9.848l-3.855 2.266v4.422L0 14.27V9.848l3.746-2.265Zm26.055 0 3.855 2.265v4.422l-3.855 2.266v-4.422l-3.746-2.266 3.746-2.265Zm-13.028 0 3.856 2.265-3.856 2.266-3.745-2.266 3.745-2.265Zm0-7.583 10.305 6.011-3.745 2.266-6.45-3.855-6.578 3.855L6.56 6.011 16.773 0Z"/></svg>