<svg xmlns="http://www.w3.org/2000/svg" viewBox="0 0 171 44"><path fill="#1969FF" d="M15.58.421c1.08-.561 2.72-.561 3.798 0L30.38 6.156c.65.338 1.006.843 1.07 1.363h.01v28.825c-.014.568-.373 1.132-1.08 1.5L19.378 43.58c-1.078.562-2.719.562-3.797 0L4.579 37.844c-.704-.366-1.041-.934-1.058-1.5a2.032 2.032 0 0 1 0-.14v-28.5a1.448 1.448 0 0 1 0-.093V7.52h.005c.05-.526.39-1.017 1.053-1.363L15.58.421Zm14.149 23.18-10.351 5.394c-1.078.562-2.719.562-3.797 0L5.253 23.612v12.675l10.328 5.355c.583.307 1.188.607 1.78.645l.119.004c.616.002 1.215-.307 1.822-.6l10.427-5.45V23.6ZM1.732 35.716c0 1.105.13 1.83.388 2.342.214.424.535.748 1.122 1.142l.033.022c.129.086.27.176.443.28l.204.124.625.372-.897 1.462-.699-.417-.118-.07c-.202-.124-.37-.23-.526-.334C.636 39.528.012 38.316 0 35.794v-.077h1.732Zm14.881-19.842a1.58 1.58 0 0 0-.223.094L5.387 21.703a1.105 1.105 0 0 0-.033.018l-.009.006.017.01.025.013 11.003 5.734c.068.036.143.067.223.094V15.875Zm1.733 0v11.703c.08-.027.155-.058.223-.094l11.003-5.734a1.56 1.56 0 0 0 .033-.018l.009-.005-.017-.01-.025-.014-11.003-5.734a1.575 1.575 0 0 0-.223-.094Zm11.383-6.31-9.87 5.143 9.87 5.145V9.564Zm-24.476.011V19.84l9.847-5.133-9.847-5.132Zm13.316-7.643c-.572-.299-1.607-.299-2.18 0L5.388 7.667a1.176 1.176 0 0 0-.033.018l-.009.005.017.01.025.014 11.003 5.734c.572.298 1.607.298 2.18 0l11.002-5.734.033-.018.009-.006-.017-.01-.025-.013L18.57 1.933Zm12.786.628.7.417.117.072c.202.123.37.229.526.333 1.671 1.112 2.295 2.324 2.307 4.846v.077h-1.732c0-1.105-.13-1.83-.388-2.342-.214-.424-.535-.748-1.122-1.142L31.73 4.8a13.58 13.58 0 0 0-.443-.281l-.204-.123-.625-.372.897-1.463Zm21.243 32.582V19.067h4.494v-2.943h-4.494v-2.113c0-2.39 1.054-3.585 3.161-3.585.61 0 1.258.1 1.943.302V7.596c-.838-.251-1.765-.377-2.78-.377-1.956 0-3.473.553-4.552 1.66-1.08 1.107-1.62 2.717-1.62 4.83v2.415h-3.694v2.943h3.695v16.075h3.847Zm15.617.264c1.473 0 2.761-.302 3.866-.905a5.848 5.848 0 0 0 2.495-2.604v3.245h3.809V16.124h-3.81v3.094a6.218 6.218 0 0 0-2.513-2.622c-1.092-.617-2.374-.925-3.847-.925-1.65 0-3.124.415-4.419 1.245-1.295.83-2.304 2-3.028 3.51-.723 1.51-1.085 3.245-1.085 5.207 0 1.962.355 3.68 1.066 5.15.711 1.472 1.708 2.61 2.99 3.416 1.283.805 2.774 1.207 4.476 1.207Zm.914-3.018c-1.752 0-3.117-.592-4.095-1.774-.977-1.182-1.466-2.843-1.466-4.98 0-2.164.489-3.856 1.466-5.076.978-1.22 2.33-1.83 4.057-1.83 1.752 0 3.104.59 4.056 1.773.953 1.182 1.429 2.868 1.429 5.057 0 2.163-.476 3.842-1.429 5.037-.952 1.195-2.291 1.793-4.018 1.793Zm18.702 2.754v-10.83c0-1.685.489-3.031 1.466-4.037.978-1.006 2.28-1.51 3.905-1.51 1.422 0 2.456.378 3.104 1.133.648.754.971 1.962.971 3.622v11.622h3.847V23.294c0-5.082-2.298-7.623-6.894-7.623-1.473 0-2.787.321-3.942.962-1.156.642-2.038 1.566-2.648 2.774l-.342-3.283h-3.58c.203 1.585.304 3.371.304 5.358v13.66h3.809Zm26.168.264c1.066 0 2.018-.138 2.856-.415v-3.094a7.14 7.14 0 0 1-2.018.302c-1.016 0-1.81-.27-2.381-.811-.571-.541-.857-1.466-.857-2.774v-9.547h5.295v-2.943h-5.295v-6.075l-3.847 1.32v4.755h-3.733v2.943h3.733v9.849c0 2.113.546 3.723 1.638 4.83 1.092 1.107 2.628 1.66 4.609 1.66Zm14.702 0c1.854 0 3.492-.402 4.914-1.207 1.422-.805 2.52-1.95 3.295-3.434.774-1.484 1.161-3.22 1.161-5.207 0-1.988-.387-3.73-1.161-5.227-.775-1.496-1.873-2.647-3.295-3.452-1.422-.805-3.06-1.208-4.914-1.208-1.879 0-3.529.403-4.951 1.208-1.422.805-2.521 1.956-3.295 3.452-.774 1.497-1.162 3.24-1.162 5.227s.388 3.723 1.162 5.207c.774 1.484 1.873 2.629 3.295 3.434 1.422.805 3.072 1.207 4.951 1.207Zm-.038-3.018c-1.752 0-3.104-.58-4.056-1.736-.953-1.158-1.429-2.855-1.429-5.094 0-2.189.483-3.875 1.448-5.057.964-1.182 2.323-1.773 4.075-1.773 1.727 0 3.067.59 4.019 1.773.952 1.182 1.428 2.868 1.428 5.057 0 2.239-.47 3.936-1.409 5.094-.94 1.157-2.298 1.736-4.076 1.736Zm17.712 2.754V24.388c0-1.736.432-3.107 1.295-4.113.863-1.006 2.031-1.51 3.504-1.51 1.27 0 2.19.378 2.762 1.133.571.754.857 1.95.857 3.584v11.66h3.847V24.388c0-1.736.425-3.107 1.276-4.113.851-1.006 2.012-1.51 3.485-1.51 1.27 0 2.19.378 2.761 1.133.572.754.858 1.95.858 3.584v11.66h3.847V23.294c0-5.082-2.133-7.623-6.399-7.623-1.422 0-2.698.327-3.828.981a6.47 6.47 0 0 0-2.571 2.68c-.915-2.44-2.857-3.66-5.828-3.66-1.397 0-2.616.314-3.657.943s-1.841 1.522-2.399 2.679l-.343-3.17h-3.581c.203 1.585.305 3.371.305 5.358v13.66h3.809Z"/></svg>