<svg xmlns="http://www.w3.org/2000/svg" viewBox="0 0 182 44"><path fill="#8247e5" d="M48.167 23.067v11.37a4.247 4.247 0 0 1-.521 2.019 4.013 4.013 0 0 1-1.405 1.487l-9.4 5.672a3.631 3.631 0 0 1-1.926.556 3.63 3.63 0 0 1-1.925-.556l-9.402-5.672a4.013 4.013 0 0 1-1.404-1.487 4.248 4.248 0 0 1-.52-2.02v-3.19l4.813-2.927v5.546l8.423 5.122 8.423-5.122V23.646L34.9 18.525 15.165 30.501a3.78 3.78 0 0 1-1.925.53 3.784 3.784 0 0 1-1.925-.53l-9.402-5.697a4.019 4.019 0 0 1-1.378-1.493 4.25 4.25 0 0 1-.502-2.009V9.932a4.248 4.248 0 0 1 .521-2.018 4.012 4.012 0 0 1 1.404-1.487L11.36.754a3.664 3.664 0 0 1 1.925-.55c.677 0 1.342.19 1.925.55l9.401 5.673c.583.36 1.067.872 1.405 1.487.337.614.517 1.31.52 2.019v3.19l-4.843 2.908v-5.515L13.27 5.395l-8.424 5.12v10.208l8.424 5.122 19.735-11.976a3.783 3.783 0 0 1 1.925-.53 3.77 3.77 0 0 1 1.925.53l9.401 5.696c.58.362 1.06.874 1.395 1.488.335.613.513 1.307.516 2.014Zm16.752 15.502v-8.86c.917 1.21 2.583 1.887 4.512 1.887 4.926 0 8.254-3.664 8.254-9.25s-3.057-9.25-7.844-9.25c-2.207 0-3.907.855-4.926 2.242v-1.97h-4.716v25.19l4.72.011Zm3.93-11.243c-2.55 0-4.213-1.994-4.213-4.98 0-2.986 1.663-5.015 4.212-5.015 2.478 0 4.178 1.97 4.178 5.015s-1.688 4.98-4.178 4.98Zm19.555 4.27c5.265 0 9.025-3.916 9.025-9.25s-3.76-9.25-9.025-9.25c-5.265 0-9.025 3.912-9.025 9.25s3.76 9.25 9.025 9.25Zm0-4.27c-2.546 0-4.28-2.03-4.28-4.98 0-2.95 1.738-5.015 4.28-5.015 2.542 0 4.279 2.025 4.279 5.015 0 2.99-1.73 4.98-4.279 4.98Zm16.609 3.987V5.588h-4.719v25.725h4.719Zm14.188-17.933-3.565 11.562-3.599-11.562h-4.832l6.212 17.787-2.512 7.402h4.513l2.425-7.323 6.216-17.858-4.858-.008Zm18.115 1.78c-.952-1.244-2.632-2.064-4.72-2.064-4.993 0-8.013 3.664-8.013 9.25s3.008 9.25 8.081 9.25c2.004 0 3.802-.788 4.686-2.1v2.364c0 1.67-1.053 2.844-2.478 2.844h-7.879v3.88h8.627c3.869 0 6.449-2.454 6.449-6.192V13.38h-4.753v1.78Zm-3.904 12.166c-2.515 0-4.177-1.97-4.177-4.98 0-3.01 1.662-5.015 4.177-5.015 2.516 0 4.208 1.97 4.208 5.015s-1.662 4.98-4.208 4.98Zm20.558 4.27c5.265 0 9.025-3.916 9.025-9.25s-3.76-9.25-9.025-9.25c-5.264 0-9.025 3.912-9.025 9.25s3.761 9.25 9.025 9.25Zm0-4.27c-2.549 0-4.279-2.03-4.279-4.98 0-2.95 1.73-5.015 4.279-5.015 2.55 0 4.28 2.025 4.28 5.015 0 2.99-1.734 4.98-4.28 4.98Zm16.369 3.987V21.49c0-2.312 1.459-3.982 3.531-3.982 1.971 0 3.294 1.575 3.294 3.734v10.07h4.753V20.14c0-4.128-2.511-7.044-6.392-7.044-2.343 0-4.242 1.032-5.193 2.758V13.38h-4.746v17.932h4.753Z"/></svg>