<svg xmlns="http://www.w3.org/2000/svg" fill="none" viewBox="0 0 120 120"><path fill="#fff" d="M17.82 61.413c-.019-.063-.036-.127-.054-.191.018.064.035.128.054.191Zm.26.74c-.023-.058-.044-.117-.066-.175.021.058.043.117.066.175Zm-.528-1.862-.036-.219.036.22Zm-.062-.373Zm.227 1.122-.049-.2.049.2Zm.226.745-.06-.183.06.183Zm-.316-1.119c-.016-.07-.03-.14-.043-.21.014.07.027.14.043.21Zm-.233-1.852Zm1.582 3.078c2.713 2.02 5.312 2.387 6.268 3.763 2.112 3.041 7.4 5.38 11.72 7.273a8.38 8.38 0 0 1 3.355 2.667l9.167-9.947c-3.494-.427-6.614-1.111-9.259-1.99a29.705 29.705 0 0 1-3.1-1.211c-2.653-1.224-5.043-2.588-8.323-5.077-.596-.45-3.865-2.588-3.865-2.588s-3.76-2.851-6.021-.886c-.947.823-1.537 2.595-1.531 4.597.284 1.194.55 2.626 1.589 3.4Zm-1.564-2.713Zm.034.368Zm1.348 4.031-.083-.14.083.14Zm-.205-.348c-.028-.05-.054-.101-.081-.152l.08.152Zm-.186-.352c-.027-.053-.051-.107-.077-.161.026.054.05.108.077.161Zm-.171-.36-.072-.168.072.168Zm.785 1.398-.076-.115.076.115Z"/><path fill="#fff" d="M40.32 75.595a8.38 8.38 0 0 0-3.355-2.667c-4.32-1.894-9.609-4.232-11.72-7.273-.956-1.376-3.556-1.743-6.268-3.763-1.04-.773-1.305-2.205-1.59-3.399v-.004l.001.072c0 .084.002.168.005.253l.006.12c.003.08.008.163.013.245l.011.131c.007.079.013.158.022.237l.017.143c.009.076.018.152.029.228.007.052.016.103.024.154l.036.22.033.164.042.21.041.173c.016.067.032.134.05.2.015.061.033.122.05.182.018.065.035.129.055.192.019.063.04.125.06.188l.06.184.072.193c.021.058.042.117.066.175.026.066.054.131.082.197l.07.168c.03.066.063.132.094.198.026.054.05.108.077.161.034.068.07.135.106.201l.081.153c.039.07.08.137.121.206l.083.14c.047.075.097.15.146.223l.076.115c.077.112.157.221.24.33 3.527 4.594 10.886 9.327 19.613 12.923 0 0 1.644 17.621 4.382 26.657l2.543-2.353c-1.835-6.05-3.178-15.95-3.865-21.832a8.39 8.39 0 0 0-1.61-4.045Z"/><path fill="#371A45" d="M40.32 75.595a8.38 8.38 0 0 0-3.355-2.667c-4.32-1.894-9.609-4.232-11.72-7.273-.956-1.376-3.556-1.743-6.268-3.763-1.04-.773-1.305-2.205-1.59-3.399v-.004l.001.072c0 .084.002.168.005.253l.006.12c.003.08.008.163.013.245l.011.131c.007.079.013.158.022.237l.017.143c.009.076.018.152.029.228.007.052.016.103.024.154l.036.22.033.164.042.21.041.173c.016.067.032.134.05.2.015.061.033.122.05.182.018.065.035.129.055.192.019.063.04.125.06.188l.06.184.072.193c.021.058.042.117.066.175.026.066.054.131.082.197l.07.168c.03.066.063.132.094.198.026.054.05.108.077.161.034.068.07.135.106.201l.081.153c.039.07.08.137.121.206l.083.14c.047.075.097.15.146.223l.076.115c.077.112.157.221.24.33 3.527 4.594 10.886 9.327 19.613 12.923 0 0 1.644 17.621 4.382 26.657l2.543-2.353c-1.835-6.05-3.178-15.95-3.865-21.832a8.39 8.39 0 0 0-1.61-4.045Z" opacity=".15"/><path fill="#331B42" d="M20.092 53.571c.672-.142 3.6 1.145 2.862 3.575-.621 2.045-.547 3.703-2.091 4.125-1.282.35-2.165.639-2.764.042-.6-.597-2.27-6.842 1.993-7.742Z" opacity=".15"/><path fill="#fff" d="M19.849 53.486c.67-.153 3.62 1.083 2.923 3.525-.585 2.056-.482 3.712-2.02 4.16-1.274.373-2.152.677-2.762.09-.61-.586-2.388-6.801 1.859-7.775Z"/><path fill="#331B42" d="M17.599 55.81c-.697 2.225-.013 5.076.372 5.46.6.598 1.483.308 2.764-.042 1.093-.299 1.376-1.215 1.668-2.45-.244.433-.59.745-1.147.897-1.282.35-1.815.434-2.448-.128-.733-.652-1.265-2.185-1.21-3.736Z" opacity=".15"/><path fill="#fff" d="M87.692 68.23s.94 7.468-1.835 11.139c-1.34 1.772-5.065.285-7.65.284-9.555-.002-8.517 9.033-3.352 11.55 6.649 3.239 22.68 3.547 20.693-11.701-1.186-9.103-11.095-18.204-11.095-18.204"/><path fill="#fff" d="M87.69 68.23s.94 7.469-1.835 11.14c-1.34 1.772-5.065.285-7.649.284-9.556-.002-8.518 9.033-3.353 11.55 6.649 3.239 22.68 3.547 20.693-11.701C94.36 70.4 84.451 61.298 84.451 61.298"/><path fill="#000" d="M83.872 68.23s.939 7.469-1.835 11.14c-1.34 1.772-5.065.285-7.65.284-9.555-.002-8.518 9.033-3.352 11.55 6.649 3.239 22.68 3.547 20.693-11.701C90.54 70.4 80.632 61.298 80.632 61.298" opacity=".15"/><path fill="#371A45" d="M38.662 80c1.357 3.657 1.026 7.072-.113 9l.113-9Z" opacity=".15"/><path fill="#fff" d="M64.338 101.293c2.633 4.39 3.256 7.971 3.256 7.971v4.614h14.323c-.159-2.227.319-3.977.319-3.977 14.959-16.385 4.296-45.815 4.296-45.815-24.03 9.545-44.56 0-44.56 0S31.31 93.516 46.27 109.9c0 0 .477 1.75.318 3.977H60.91v-4.614s.637-3.658 3.342-8.113l.086.142Z"/><path fill="#233A4F" d="M74.713 116.69c3.986 0 7.217-1.188 7.217-2.654 0-1.465-3.23-2.653-7.217-2.653-3.986 0-7.217 1.188-7.217 2.653 0 1.466 3.231 2.654 7.217 2.654Zm-20.91 0c3.986 0 7.217-1.188 7.217-2.654 0-1.465-3.231-2.653-7.217-2.653-3.986 0-7.217 1.188-7.217 2.653 0 1.466 3.231 2.654 7.217 2.654Z"/><path fill="#260E43" d="M64.267 62.2c11.492 0 20.808-2.086 20.808-4.658 0-2.573-9.316-4.658-20.808-4.658-11.492 0-20.808 2.085-20.808 4.658 0 2.572 9.316 4.657 20.808 4.657Z"/><path fill="#46739B" d="M86.089 64.246s.636-3.022-1.114-7.158c0 .477-.319 4.772-20.689 4.772h-.046c-20.37 0-20.689-4.295-20.689-4.772-1.75 4.136-1.114 7.158-1.114 7.158s20.052 9.386 43.652 0Z"/><path fill="#7CACD8" d="M50.567 66.797a57.713 57.713 0 0 1-4.464-1.194c-1.115 5.174-3.758 9.39-5.872 12.1a36.6 36.6 0 0 1-1.604 1.918 63.31 63.31 0 0 0-.318 4.898c.33.213.753.462 1.26.735C42.39 82.64 48.5 76.09 50.566 66.797Zm39.31 12.816c-.51-.57-1.05-1.207-1.597-1.91-2.12-2.718-4.772-6.951-5.881-12.146a59.693 59.693 0 0 1-4.46 1.218c2.024 9.135 7.958 15.623 10.847 18.332.47-.206.94-.417 1.41-.634a63.33 63.33 0 0 0-.319-4.86ZM63.29 102.862a54.63 54.63 0 0 1-10.462-.966c-5.886-1.13-10.574-3.115-13.164-4.5a32.516 32.516 0 0 0 2.263 6.112 54.808 54.808 0 0 0 9.785 2.87 58.94 58.94 0 0 0 9.67 1.073 28.02 28.02 0 0 1 1.908-4.589Zm25.616-5.718c-6.498 2.858-13.052 4.664-19.51 5.372a57.99 57.99 0 0 1-4.2.309 28.1 28.1 0 0 1 1.894 4.521c.88-.057 1.76-.132 2.642-.226 5.675-.607 11.406-1.999 17.103-4.149a32.971 32.971 0 0 0 2.07-5.827Z"/><path fill="#7CACD8" d="M90.196 84.473a77.6 77.6 0 0 1-1.41.634c-6.459 2.828-12.971 4.616-19.389 5.32-5.629.618-11.204.409-16.57-.621-5.958-1.144-10.69-3.164-13.26-4.552a19.544 19.544 0 0 1-1.26-.735 53.419 53.419 0 0 0 .125 5.334c2.704 1.354 7.241 3.249 13.28 4.435a59.104 59.104 0 0 0 11.398 1.098c2.195 0 4.405-.118 6.622-.356 6.758-.723 13.595-2.559 20.361-5.462.119-1.721.146-3.428.103-5.095Z"/><path fill="#46739B" stroke="#46739B" stroke-miterlimit="10" stroke-width="7.539" d="M66.49 71.879c-.879 0-1.666.394-2.195 1.014a1.762 1.762 0 0 0-3.116 1.128l.001.049a1.738 1.738 0 0 0-2.026 1.714l3.477.047h1.184a2.883 2.883 0 0 0 5.558-1.071 2.882 2.882 0 0 0-2.882-2.881Z"/><path fill="#46739B" d="M70.029 76.9a6.289 6.289 0 0 1-2.95 8.146 6.293 6.293 0 0 1-8.442-2.81 6.274 6.274 0 0 1-.143-5.322"/><path stroke="#46739B" stroke-miterlimit="10" stroke-width="5.529" d="M70.029 76.9a6.289 6.289 0 0 1-2.95 8.146 6.293 6.293 0 0 1-8.442-2.81 6.274 6.274 0 0 1-.143-5.322"/><path fill="#46739B" d="M70.788 76.085c0-.484-.511-.88-1.137-.88H58.875c-.625 0-1.137.395-1.137.88s.512.881 1.137.881h10.776c.626 0 1.137-.396 1.137-.88Z"/><path stroke="#46739B" stroke-miterlimit="10" stroke-width="5.529" d="M70.788 76.085c0-.484-.511-.88-1.137-.88H58.875c-.625 0-1.137.395-1.137.88s.512.881 1.137.881h10.776c.626 0 1.137-.396 1.137-.88Z"/><path fill="#E7AB3B" stroke="#E7AB3B" stroke-miterlimit="10" stroke-width="2.01" d="M66.49 71.879c-.879 0-1.666.394-2.195 1.015a1.762 1.762 0 0 0-3.116 1.128l.001.048a1.738 1.738 0 0 0-2.026 1.714l3.477.047h1.184a2.883 2.883 0 0 0 5.558-1.071 2.882 2.882 0 0 0-2.882-2.881Z"/><path fill="#F1C543" d="M66.49 71.879c-.879 0-1.666.394-2.195 1.015a1.762 1.762 0 0 0-3.116 1.128l.001.048a1.738 1.738 0 0 0-2.026 1.714l3.477.047h1.184a2.883 2.883 0 0 0 5.558-1.071 2.882 2.882 0 0 0-2.882-2.881Z"/><path fill="#E7AB3B" d="M64.603 73.058c.98-1.208 2.936-1.138 3.87.091.302.384.483.86.512 1.346a2.745 2.745 0 0 0-.613-1.263c-.954-1.123-2.703-1.184-3.769-.174Zm-2.845.247c.474-1.031 1.974-1.002 2.468.004.15.306.182.666.079.977a1.51 1.51 0 0 0-.194-.915c-.52-.877-1.768-.893-2.353-.066Zm-1.352 1.085c.473-.3 1.196-.038 1.367.495a2.176 2.176 0 0 0-.3-.24c-.317-.213-.687-.283-1.067-.255Z" opacity=".45"/><path fill="#F9FAE4" d="m65.264 73.36-.17.092-.092.17-.092-.17-.17-.092.17-.093.092-.17.093.17.17.093Z"/><path fill="#F9FAE4" d="m62.622 74.314-.17.092-.092.17-.093-.17-.17-.092.17-.093.093-.17.092.17.17.093Z" opacity=".8"/><path fill="#F9FAE4" d="m68.458 74.6-.17.092-.092.17-.093-.17-.17-.092.17-.093.093-.17.092.17.17.093Z" opacity=".95"/><path fill="#7CACD8" d="M70.029 76.9a6.289 6.289 0 0 1-2.95 8.146 6.293 6.293 0 0 1-8.442-2.81 6.274 6.274 0 0 1-.143-5.322"/><path stroke="#7CACD8" stroke-miterlimit="10" stroke-width=".251" d="M70.029 76.9a6.289 6.289 0 0 1-2.95 8.146 6.293 6.293 0 0 1-8.442-2.81 6.274 6.274 0 0 1-.143-5.322"/><path fill="#5D81A1" d="M66.86 81.65a6.01 6.01 0 0 1-8.138-4.449 5.975 5.975 0 0 0 .04 4.35 6.01 6.01 0 0 0 7.814 3.338 6.006 6.006 0 0 0 3.663-6.7 5.984 5.984 0 0 1-3.38 3.46Z" opacity=".15"/><path fill="#46739B" d="M64.555 77.633Zm-.977.099Zm.36-.094Zm.852.042Zm-1.105.016Zm.987-.043Zm-.389-.042Zm.151.009Zm-.266-.006Zm-.699.161Zm1.469-.048Zm.896.631Zm-.178-.193Zm.102.105Zm.144.177Zm.063.093Zm.075.122Zm-.882-.842Zm.102.052Zm-1.924-.036Zm1.714-.064Zm.432.248Zm.09.07Zm-.185-.139Zm-1.522 3.668Zm-.515-.179Zm-.13-.072Zm.246.126Zm-.566-.363Zm.34-3.241Zm-.229 3.334Zm.575.316Zm.154.05Zm.413.066Zm.125.002Zm-.281-.018Zm2.095-2.872ZM63.115 81.3Zm-.726-.904Zm-.049-.128Zm.595-2.161Zm.115-.09Zm.095-.067Zm-.705 2.558Zm.2.332Zm.085.11Zm.089.096Zm-.245-.304Zm-.069-.115Zm1.555-3.005Zm1.247 3.749Zm.114-.072Zm-.858.339Zm-.144.014Zm1.21-.517Zm-.68.406Zm.118-.047Zm-.382.121Zm.151-.037Zm.366-.148Zm.331-.215Zm.611-2.345Zm-.406 2.157c.224-.236.395-.53.485-.868a2.014 2.014 0 0 0-.042-1.187c-.007-.01-1.116-1.853-3.242-.864a2.014 2.014 0 0 0-.627 1.003 2.01 2.01 0 0 0 .002 1.05c.041.089 1.125 2.328 3.424.866Zm.001 0Z"/><path fill="#172734" d="m65.357 77.932.03.019-.03-.02Zm-.455-.217.035.012-.035-.012Zm.112.041Zm.242.114.004.003-.004-.003Zm.818.862Zm-.949-.928.033.015-.033-.015Zm.684.524Zm.15.202.007.009-.007-.01Zm.217.442-.004-.012.004.011Zm-.051-.135.014.033-.014-.033Zm-.242-.419.021.029-.021-.029Zm-.235-.26.007.006-.007-.006Zm.086.086.023.025-.023-.025Zm-.189-.177.028.023-.028-.023Zm-.094-.071Zm.572.637.016.029-.016-.03Zm-2.482-.888.037-.014-.037.014Zm.592-.13.035-.002-.035.002Zm-.695.173.031-.014-.032.014Zm-.228.12.03-.018-.03.018Zm.442-.202.033-.01-.033.01Zm.25-.063.035-.005-.035.005Zm.114-.017Zm.382-.011.036.003-.036-.003Zm.239.032.036.006-.036-.007Zm-1.524.323Zm1.403-.343Zm-1.494.41.027-.02-.027.02Z" opacity=".5"/><path fill="#46739B" d="m66.177 78.971-.005-.011c-.01-.03-.022-.06-.034-.09l-.014-.034a1.907 1.907 0 0 0-.085-.174l-.016-.03a2.021 2.021 0 0 0-.057-.094l-.007-.01a1.916 1.916 0 0 0-.056-.081l-.022-.03a1.96 1.96 0 0 0-.124-.148l-.022-.025a2.021 2.021 0 0 0-.079-.08l-.007-.006a1.997 1.997 0 0 0-.077-.068l-.027-.023a1.778 1.778 0 0 0-.159-.117l-.029-.02a1.957 1.957 0 0 0-.097-.058l-.004-.002a2.145 2.145 0 0 0-.098-.051c-.01-.006-.022-.01-.033-.016a2.225 2.225 0 0 0-.188-.077l-.035-.012a2.106 2.106 0 0 0-.23-.061l-.036-.007a1.918 1.918 0 0 0-.203-.028c-.012 0-.023-.002-.035-.003a2.014 2.014 0 0 0-.23-.002l-.035.002a1.897 1.897 0 0 0-.196.023l-.034.005a2.232 2.232 0 0 0-.218.052l-.033.011a1.882 1.882 0 0 0-.183.068l-.032.013a2 2 0 0 0-.197.102l-.03.018a2.147 2.147 0 0 0-.16.11 1.992 1.992 0 0 0-.114.091c2.125-.99 3.235.853 3.24.863Z"/><path fill="#172734" d="m66.177 78.971-.005-.011c-.01-.03-.022-.06-.034-.09l-.014-.034a1.907 1.907 0 0 0-.085-.174l-.016-.03a2.021 2.021 0 0 0-.057-.094l-.007-.01a1.916 1.916 0 0 0-.056-.081l-.022-.03a1.96 1.96 0 0 0-.124-.148l-.022-.025a2.021 2.021 0 0 0-.079-.08l-.007-.006a1.997 1.997 0 0 0-.077-.068l-.027-.023a1.778 1.778 0 0 0-.159-.117l-.029-.02a1.957 1.957 0 0 0-.097-.058l-.004-.002a2.145 2.145 0 0 0-.098-.051c-.01-.006-.022-.01-.033-.016a2.225 2.225 0 0 0-.188-.077l-.035-.012a2.106 2.106 0 0 0-.23-.061l-.036-.007a1.918 1.918 0 0 0-.203-.028c-.012 0-.023-.002-.035-.003a2.014 2.014 0 0 0-.23-.002l-.035.002a1.897 1.897 0 0 0-.196.023l-.034.005a2.232 2.232 0 0 0-.218.052l-.033.011a1.882 1.882 0 0 0-.183.068l-.032.013a2 2 0 0 0-.197.102l-.03.018a2.147 2.147 0 0 0-.16.11 1.992 1.992 0 0 0-.114.091c2.125-.99 3.235.853 3.24.863Z" opacity=".5"/><path fill="#B8B0CA" d="m62.4 80.426-.011-.029c.003.01.008.02.012.029Zm.26.442Zm-.072-.099-.018-.027.018.027Zm-.08-.127-.008-.015.008.015Zm-.055-.104Zm2.637.944-.028.013.029-.013Zm.243-.129Zm-.116.067-.02.01.02-.01Zm.217-.134-.018.013.018-.013Zm-.457.244-.032.011.032-.012Zm.671-.419-.025.024.025-.024Zm-.095.084-.024.02.024-.02Zm-1.24.463Zm-2.004-1.5.004.016-.003-.013-.001-.003Zm.039.129-.006-.02.006.02Zm2.365 1.321-.033.008.033-.008Zm-.277.043-.022.002.022-.002Zm.153-.018-.03.005.03-.005Zm-.561.012-.032-.004.032.004Zm-1.009-.415-.01-.006.01.007Zm.337.214-.006-.004.006.004Zm-.429-.289-.027-.024.027.024Zm.573.353Zm-.25-.122-.031-.019.03.019Zm-.108-.066-.029-.02.029.02Zm-.408-.36-.01-.01.01.01Zm1.441.696h-.023.023Zm-.275-.031-.035-.007.036.007Zm-1.062-.555-.023-.023.023.023Zm.782.483Z" opacity=".25"/><path fill="#46739B" d="m64.414 81.653.022-.001c.04-.003.08-.008.12-.014l.03-.005a1.882 1.882 0 0 0 .357-.092l.032-.012a2 2 0 0 0 .086-.034l.028-.012.107-.052.02-.01.086-.05.03-.017a2.03 2.03 0 0 0 .083-.055l.018-.012c.032-.023.064-.047.095-.072l.023-.02c.024-.019.048-.039.07-.06.01-.007.018-.015.026-.023.03-.027.058-.055.086-.084-2.299 1.46-3.383-.778-3.424-.866l.003.013c.009.032.018.063.029.094l.006.02c.012.036.026.073.04.109l.013.028.037.081.015.032c.015.03.03.06.047.088l.008.016c.02.034.04.067.062.1l.017.026a1.902 1.902 0 0 0 .137.18l.01.012c.026.03.052.058.08.086l.023.023.064.061.026.024c.027.024.054.047.082.069l.01.007c.03.024.063.048.095.07l.028.019a2.108 2.108 0 0 0 .208.121l.006.003a2.1 2.1 0 0 0 .11.051l.033.014.086.032.035.013a2.116 2.116 0 0 0 .377.087l.032.004c.041.005.082.009.123.011l.023.001a2.05 2.05 0 0 0 .24-.004Z"/><path fill="#B8B0CA" d="m64.414 81.653.022-.001c.04-.003.08-.008.12-.014l.03-.005a1.882 1.882 0 0 0 .357-.092l.032-.012a2 2 0 0 0 .086-.034l.028-.012.107-.052.02-.01.086-.05.03-.017a2.03 2.03 0 0 0 .083-.055l.018-.012c.032-.023.064-.047.095-.072l.023-.02c.024-.019.048-.039.07-.06.01-.007.018-.015.026-.023.03-.027.058-.055.086-.084-2.299 1.46-3.383-.778-3.424-.866l.003.013c.009.032.018.063.029.094l.006.02c.012.036.026.073.04.109l.013.028.037.081.015.032c.015.03.03.06.047.088l.008.016c.02.034.04.067.062.1l.017.026a1.902 1.902 0 0 0 .137.18l.01.012c.026.03.052.058.08.086l.023.023.064.061.026.024c.027.024.054.047.082.069l.01.007c.03.024.063.048.095.07l.028.019a2.108 2.108 0 0 0 .208.121l.006.003a2.1 2.1 0 0 0 .11.051l.033.014.086.032.035.013a2.116 2.116 0 0 0 .377.087l.032.004c.041.005.082.009.123.011l.023.001a2.05 2.05 0 0 0 .24-.004Z" opacity=".25"/><path fill="#46739B" d="M59.653 80.148Zm.107-1.445Zm-.11-.04Zm.192.081Zm.072.049Zm-.531-.153Zm-.113.018Zm.293-.013Zm-.09-.007Zm.373 1.428Zm.075-.052Zm-.171.101Zm-.188.053Zm.446-.232a.765.765 0 0 0 .168-.782.934.934 0 0 0-1.232-.328.766.766 0 0 0-.236.784c.03.06.442.871 1.3.326Zm.047-1.006Zm-.077-.082Zm.127.154Zm.04.075Zm-.135.859Zm-1.275-.251Zm.157.249Zm.245.174Zm.113.042Zm-.417-.286Zm.514.304Zm-.373-.158Zm.078.055Zm-.017-1.305Zm-.257 1.022Zm.669.393Zm-.336-1.459Zm-.166.11Zm.245-.143Z"/><path fill="#172734" d="m60.133 79.053.012.024-.012-.024Zm-1.121-.279.022-.014-.022.014Zm1.078.204Zm.088.176-.002-.006.002.006Zm-.141-.244.016.02-.016-.02Zm-.06-.065.004.003-.004-.003Zm-.243-.154.026.012-.026-.012Zm-.379-.048.027-.002c-.009 0-.018 0-.026.002Zm.086-.005Zm.375.092Zm-.73 0Zm.804.047.023.016-.022-.016Zm-.357-.134c.01 0 .018.001.028.003l-.028-.003Zm-.369.049.025-.01-.025.01Z" opacity=".5"/><path fill="#46739B" d="m60.178 79.154-.002-.005a.78.78 0 0 0-.03-.072l-.013-.024a.82.82 0 0 0-.08-.123l-.015-.02a.784.784 0 0 0-.058-.062l-.003-.003a.78.78 0 0 0-.063-.052l-.022-.016a.733.733 0 0 0-.132-.074l-.025-.011a.794.794 0 0 0-.173-.046l-.028-.004a.746.746 0 0 0-.061-.004h-.03a.608.608 0 0 0-.061.003l-.027.002a.79.79 0 0 0-.165.04l-.024.01a.812.812 0 0 0-.131.067l-.023.014a.793.793 0 0 0-.067.052c.806-.375 1.227.32 1.233.328Z"/><path fill="#172734" d="m60.178 79.154-.002-.005a.78.78 0 0 0-.03-.072l-.013-.024a.82.82 0 0 0-.08-.123l-.015-.02a.784.784 0 0 0-.058-.062l-.003-.003a.78.78 0 0 0-.063-.052l-.022-.016a.733.733 0 0 0-.132-.074l-.025-.011a.794.794 0 0 0-.173-.046l-.028-.004a.746.746 0 0 0-.061-.004h-.03a.608.608 0 0 0-.061.003l-.027.002a.79.79 0 0 0-.165.04l-.024.01a.812.812 0 0 0-.131.067l-.023.014a.793.793 0 0 0-.067.052c.806-.375 1.227.32 1.233.328Z" opacity=".5"/><path fill="#B8B0CA" d="m58.783 79.789-.004-.008.004.008Zm.982.319-.015.007.015-.007Zm-.855-.155-.02-.02.02.02Zm.252.165-.025-.01.025.01Zm.701-.064-.02.012.02-.012Zm.079-.056-.02.016.02-.016Zm-.868.08-.023-.014.023.014Zm.505.086-.017.003c.006 0 .012-.002.017-.003Zm-.602-.151c-.002 0-.003-.002-.004-.003l.004.003Zm.493.162h-.025.024Zm-.726-.465-.01-.025.01.025Zm.104.173-.016-.02.016.02Zm-.141-.277.005.015-.003-.012-.002-.003Zm.666.565c-.01 0-.018-.002-.027-.003l.027.003Zm.279-.023Z" opacity=".25"/><path fill="#46739B" d="m59.747 80.115.016-.007a.769.769 0 0 0 .08-.041l.02-.013a.76.76 0 0 0 .057-.04l.02-.016a.77.77 0 0 0 .068-.062c-.859.545-1.271-.265-1.301-.327a.738.738 0 0 0 .025.075l.01.025c.01.025.022.05.035.073l.004.007c.015.026.032.05.05.074l.015.02a.802.802 0 0 0 .125.127c.002 0 .003.002.004.003a.76.76 0 0 0 .075.05l.023.014c.02.011.04.021.062.03.008.005.016.008.025.012a.774.774 0 0 0 .184.049l.028.003a.778.778 0 0 0 .072.004h.024a.699.699 0 0 0 .092-.007l.017-.004a.768.768 0 0 0 .17-.05Z"/><path fill="#B8B0CA" d="m59.747 80.115.016-.007a.769.769 0 0 0 .08-.041l.02-.013a.76.76 0 0 0 .057-.04l.02-.016a.77.77 0 0 0 .068-.062c-.859.545-1.271-.265-1.301-.327a.738.738 0 0 0 .025.075l.01.025c.01.025.022.05.035.073l.004.007c.015.026.032.05.05.074l.015.02a.802.802 0 0 0 .125.127c.002 0 .003.002.004.003a.76.76 0 0 0 .075.05l.023.014c.02.011.04.021.062.03.008.005.016.008.025.012a.774.774 0 0 0 .184.049l.028.003a.778.778 0 0 0 .072.004h.024a.699.699 0 0 0 .092-.007l.017-.004a.768.768 0 0 0 .17-.05Z" opacity=".25"/><path fill="#46739B" d="m66.23 81.653.01-.002-.01.002Zm-.214.607Zm-.045-.06-.002-.003.002.004Zm-.027-.06Zm.59.143-.01.01.01-.01Zm-.06.047-.011.005.01-.006Zm-.376-.629a.329.329 0 0 1 .011-.007l-.011.007Zm.066-.032.01-.003-.01.003Zm.111.711-.017-.001a.32.32 0 0 0 .017 0Zm.284-.61.006.007-.006-.008Zm-.495.534-.001-.001.001.001Zm.276.073h-.008.008Zm.17-.653.008.006-.008-.006Zm-.463.014a.364.364 0 0 0-.11.378c.026.05.22.397.611.153a.362.362 0 0 0 .085-.375.444.444 0 0 0-.586-.156Zm.555.088.006.012-.006-.012Zm-.47.518Zm.311-.66.013.005-.013-.005Zm-.14-.034Zm.112.706-.015.006.015-.006Z"/><path fill="#172734" d="M66.11 81.695Zm.408.035Zm.048.046Zm.067.119Zm-.586-.157Zm.41-.048Zm-.141-.04Zm-.14.017Zm.064-.016Zm.143.009Z" opacity=".5"/><path fill="#46739B" d="M66.633 81.894a.366.366 0 0 0-.026-.056l-.006-.012a.36.36 0 0 0-.036-.05l-.007-.007a.37.37 0 0 0-.04-.039l-.009-.007a.355.355 0 0 0-.053-.033l-.012-.006a.363.363 0 0 0-.204-.033l-.01.002a.367.367 0 0 0-.055.013l-.01.003a.378.378 0 0 0-.118.069.445.445 0 0 1 .586.156Z"/><path fill="#172734" d="M66.633 81.894a.366.366 0 0 0-.026-.056l-.006-.012a.36.36 0 0 0-.036-.05l-.007-.007a.37.37 0 0 0-.04-.039l-.009-.007a.355.355 0 0 0-.053-.033l-.012-.006a.363.363 0 0 0-.204-.033l-.01.002a.367.367 0 0 0-.055.013l-.01.003a.378.378 0 0 0-.118.069.445.445 0 0 1 .586.156Z" opacity=".5"/><path fill="#B8B0CA" d="M66.462 82.335Zm-.061.026Zm-.069.016Zm-.139-.009Zm.064.01Zm-.141-.041Zm-.054-.034Zm-.128-.195.005.017-.002-.01-.003-.007Zm.074.14Zm.546.018-.005.002-.014.015.02-.017Zm-.031.027Zm-.552-.095Z" opacity=".25"/><path fill="#46739B" d="M65.938 82.115a.367.367 0 0 0 .125.188h.001a.36.36 0 0 0 .13.065.363.363 0 0 0 .138.01l.008-.002a.369.369 0 0 0 .061-.014l.015-.006a.367.367 0 0 0 .047-.021l.01-.006a.362.362 0 0 0 .051-.036l.01-.01c.006-.004.01-.01.015-.014-.391.244-.586-.103-.612-.154Z"/><path fill="#B8B0CA" d="M65.938 82.115a.367.367 0 0 0 .125.188h.001a.36.36 0 0 0 .13.065.363.363 0 0 0 .138.01l.008-.002a.369.369 0 0 0 .061-.014l.015-.006a.367.367 0 0 0 .047-.021l.01-.006a.362.362 0 0 0 .051-.036l.01-.01c.006-.004.01-.01.015-.014-.391.244-.586-.103-.612-.154Z" opacity=".25"/><path fill="#46739B" d="m67.848 78.387-.018.006.018-.006Zm.067-.031-.013.006.013-.006Zm.07-.054-.012.011.012-.011Zm-.355-.733.013-.003-.012.002Zm-.075.018.011-.004-.011.004Zm.16-.024h.016-.016Zm.242.087.01.007-.01-.008Zm.057.053.007.008-.007-.008Zm.049.067Zm-.183-.167.015.007-.014-.007Zm-.402.021.014-.008-.014.008Zm-.04.702-.002-.002.002.002Zm.079.046Zm-.134-.099Zm.377.137-.01.001h.01Zm-.076.003Zm-.354-.209-.002-.003.002.003Z"/><path fill="#46739B" d="M68.003 78.285a.422.422 0 0 0 .099-.437c-.004-.006-.237-.388-.683-.181a.425.425 0 0 0-.128.44c.03.058.257.462.712.178Zm-.704-.15Z"/><path fill="#172734" d="M67.732 77.564Zm-.088.002Zm.165.01Zm-.317.041Zm.074-.033Zm-.148.083Zm.547-.009Zm-.071-.047Zm.128.099Zm.078.14a.445.445 0 0 0 0-.001Z" opacity=".5"/><path fill="#46739B" d="M68.1 77.848a.43.43 0 0 0-.03-.065l-.007-.014a.436.436 0 0 0-.041-.058l-.008-.008a.429.429 0 0 0-.048-.045l-.01-.008a.418.418 0 0 0-.061-.04l-.015-.006a.426.426 0 0 0-.148-.04l-.016-.001a.429.429 0 0 0-.073.003l-.012.002a.436.436 0 0 0-.064.015l-.011.004a.435.435 0 0 0-.065.03l-.014.007a.427.427 0 0 0-.059.043.518.518 0 0 1 .682.181Z"/><path fill="#172734" d="M68.1 77.848a.43.43 0 0 0-.03-.065l-.007-.014a.436.436 0 0 0-.041-.058l-.008-.008a.429.429 0 0 0-.048-.045l-.01-.008a.418.418 0 0 0-.061-.04l-.015-.006a.426.426 0 0 0-.148-.04l-.016-.001a.429.429 0 0 0-.073.003l-.012.002a.436.436 0 0 0-.064.015l-.011.004a.435.435 0 0 0-.065.03l-.014.007a.427.427 0 0 0-.059.043.518.518 0 0 1 .682.181Z" opacity=".5"/><path fill="#B8B0CA" d="m67.287 78.099.007.019-.003-.012a.203.203 0 0 1-.004-.007Zm.15.225Zm.536-.01Zm-.143.079Zm.177-.112-.006.003-.017.018.023-.02Zm-.419.119Zm.077.012Zm.085-.002Zm.153-.049Zm-.573-.16Zm.04.059Zm.13.104Z" opacity=".25"/><path fill="#46739B" d="M67.29 78.106a.271.271 0 0 0 .009.029.425.425 0 0 0 .029.065l.002.003a.421.421 0 0 0 .185.17.435.435 0 0 0 .148.039h.02a.41.41 0 0 0 .066-.002h.009a.415.415 0 0 0 .07-.017l.018-.007a.427.427 0 0 0 .055-.025l.013-.006a.435.435 0 0 0 .058-.042l.013-.012.016-.017c-.455.285-.682-.12-.712-.178Z"/><path fill="#B8B0CA" d="M67.29 78.106a.271.271 0 0 0 .009.029.425.425 0 0 0 .029.065l.002.003a.421.421 0 0 0 .185.17.435.435 0 0 0 .148.039h.02a.41.41 0 0 0 .066-.002h.009a.415.415 0 0 0 .07-.017l.018-.007a.427.427 0 0 0 .055-.025l.013-.006a.435.435 0 0 0 .058-.042l.013-.012.016-.017c-.455.285-.682-.12-.712-.178Z" opacity=".25"/><path fill="#46739B" d="M66.17 83.83Zm-.072-.305Zm.114.311Zm.048-.349Zm-.202.258Zm.082-.247Zm.164.312Zm-.124-.324Zm-.097.294Zm.172.05Zm.083-.045Zm-.22.021Zm.222-.271Zm.023.03Zm-.144-.084Zm-.121.044a.177.177 0 0 0-.054.182c.013.025.107.193.297.075a.176.176 0 0 0 .041-.182.215.215 0 0 0-.284-.075Zm.211-.015Z"/><path fill="#172734" d="m66.357 83.556.008.01-.008-.01Zm-.228-.053.011-.005-.011.005Zm.201.022Zm-.033-.022.01.007-.01-.007Zm-.133-.014Zm.216.111.002.001-.001-.001Zm-.173-.118h.012-.012Z" opacity=".5"/><path fill="#46739B" d="m66.365 83.566-.007-.01a.183.183 0 0 0-.05-.047l-.01-.007a.178.178 0 0 0-.038-.015.178.178 0 0 0-.04-.005h-.013a.167.167 0 0 0-.066.016l-.011.005a.18.18 0 0 0-.032.022.216.216 0 0 1 .284.075.179.179 0 0 0-.017-.034Z"/><path fill="#172734" d="m66.365 83.566-.007-.01a.183.183 0 0 0-.05-.047l-.01-.007a.178.178 0 0 0-.038-.015.178.178 0 0 0-.04-.005h-.013a.167.167 0 0 0-.066.016l-.011.005a.18.18 0 0 0-.032.022.216.216 0 0 1 .284.075.179.179 0 0 0-.017-.034Z" opacity=".5"/><path fill="#B8B0CA" d="m66.06 83.747-.001-.002v.002Zm.251.06-.006.004.006-.004Zm-.27-.102.002.005v-.001l-.002-.004Zm.087.108-.01-.006a.13.13 0 0 0 .01.006Zm.138.014-.01.003.01-.003Zm.075-.046-.002.002-.003.003.005-.005Zm-.118.054h-.012.012Zm-.13-.047-.009-.009.009.009Z" opacity=".25"/><path fill="#46739B" d="M66.043 83.707v.002a.18.18 0 0 0 .015.035l.001.002a.182.182 0 0 0 .025.033l.008.008a.181.181 0 0 0 .025.02l.01.006a.178.178 0 0 0 .04.016c.015.004.03.006.044.006h.012a.185.185 0 0 0 .032-.005l.01-.003a.182.182 0 0 0 .039-.017l.006-.004a.18.18 0 0 0 .027-.022l.002-.003c-.19.119-.284-.05-.296-.074Z"/><path fill="#B8B0CA" d="M66.043 83.707v.002a.18.18 0 0 0 .015.035l.001.002a.182.182 0 0 0 .025.033l.008.008a.181.181 0 0 0 .025.02l.01.006a.178.178 0 0 0 .04.016c.015.004.03.006.044.006h.012a.185.185 0 0 0 .032-.005l.01-.003a.182.182 0 0 0 .039-.017l.006-.004a.18.18 0 0 0 .027-.022l.002-.003c-.19.119-.284-.05-.296-.074Z" opacity=".25"/><path fill="#46739B" d="M68.928 79.89Zm-.041-.005Zm-.007.354Zm.168-.235c-.002-.003-.099-.162-.284-.076a.177.177 0 0 0-.054.183c.013.024.107.193.297.074a.176.176 0 0 0 .041-.181Zm-.262.206Zm.062-.321Zm.075.345Zm-.114-.332Zm.165.313Zm-.137.019Zm.171-.295Zm.025.031Zm-.267-.042Zm.239.261Zm-.254-.006Zm-.025-.033Zm.251-.237Z"/><path fill="#172734" d="M68.998 79.93Zm.027.029.008.01-.008-.01Zm.025.046-.001-.002v.001Zm-.085-.099.01.007-.01-.007Zm-.168 0 .011-.005-.011.005Zm.078-.02h.012-.012Zm-.041.006Z" opacity=".5"/><path fill="#46739B" d="M69.05 80.004a.181.181 0 0 0-.017-.034l-.007-.01a.178.178 0 0 0-.05-.046l-.01-.007a.18.18 0 0 0-.038-.016.178.178 0 0 0-.04-.005h-.013a.165.165 0 0 0-.066.016l-.011.005a.184.184 0 0 0-.032.022c.185-.086.282.073.284.075Z"/><path fill="#172734" d="M69.05 80.004a.181.181 0 0 0-.017-.034l-.007-.01a.178.178 0 0 0-.05-.046l-.01-.007a.18.18 0 0 0-.038-.016.178.178 0 0 0-.04-.005h-.013a.165.165 0 0 0-.066.016l-.011.005a.184.184 0 0 0-.032.022c.185-.086.282.073.284.075Z" opacity=".5"/><path fill="#B8B0CA" d="m68.796 80.217-.01-.007.01.007Zm-.068-.067-.001-.002v.003Zm.035.042-.01-.008.01.008Zm-.053-.084.003.006v-.002l-.002-.004Zm.27.102-.007.005.006-.005Zm-.046.021c-.003.002-.007.002-.01.003a.02.02 0 0 0 .01-.003Zm.077-.046-.002.001-.003.003.005-.004Zm-.12.053h-.012.012Z" opacity=".25"/><path fill="#46739B" d="m68.71 80.111.001.002a.176.176 0 0 0 .015.036l.001.002a.177.177 0 0 0 .025.032l.008.008a.175.175 0 0 0 .025.02l.01.006a.178.178 0 0 0 .04.017.177.177 0 0 0 .088 0l.01-.003a.18.18 0 0 0 .039-.016l.006-.005a.18.18 0 0 0 .027-.022l.002-.002c-.19.118-.284-.05-.296-.075Z"/><path fill="#B8B0CA" d="m68.71 80.111.001.002a.176.176 0 0 0 .015.036l.001.002a.177.177 0 0 0 .025.032l.008.008a.175.175 0 0 0 .025.02l.01.006a.178.178 0 0 0 .04.017.177.177 0 0 0 .088 0l.01-.003a.18.18 0 0 0 .039-.016l.006-.005a.18.18 0 0 0 .027-.022l.002-.002c-.19.118-.284-.05-.296-.075Z" opacity=".25"/><path fill="#46739B" d="M61.23 81.506Zm-.235.024Zm.198.003Zm-.279-.211a.187.187 0 0 0 .002.102c.013.026.114.205.316.08a.188.188 0 0 0 .044-.195.23.23 0 0 0-.303-.08.189.189 0 0 0-.059.093Zm.018.142Zm.028.036Zm.187-.312Zm-.174.04Zm.047-.028Zm.212.04Zm-.088.315Zm-.095-.001Zm.011-.367Zm.043-.004Zm.094.029Zm.061.06Zm-.162.288Z"/><path fill="#172734" d="m61.008 81.205.012-.006-.012.006Zm-.035.025v-.002.002Zm.117-.047h.013-.013Zm-.043.007Zm.229.12v-.002.001Zm-.053-.08Zm.027.032.008.01-.008-.01Zm-.062-.057.011.007-.011-.007Z" opacity=".5"/><path fill="#46739B" d="M61.276 81.31v-.002a.194.194 0 0 0-.018-.036l-.008-.01a.194.194 0 0 0-.052-.05l-.011-.007a.185.185 0 0 0-.084-.022h-.014a.19.19 0 0 0-.07.017l-.012.005a.189.189 0 0 0-.034.023c.198-.091.301.079.303.081Z"/><path fill="#172734" d="M61.276 81.31v-.002a.194.194 0 0 0-.018-.036l-.008-.01a.194.194 0 0 0-.052-.05l-.011-.007a.185.185 0 0 0-.084-.022h-.014a.19.19 0 0 0-.07.017l-.012.005a.189.189 0 0 0-.034.023c.198-.091.301.079.303.081Z" opacity=".5"/><path fill="#B8B0CA" d="m61.008 81.537-.012-.008.011.008Zm.101.023a.14.14 0 0 1-.013 0h.013Zm-.174-.094-.001-.002v.002Zm-.021-.046.002.005v-.001a.169.169 0 0 1-.002-.004Zm.054.089-.009-.009.01.009Zm.232.021-.007.004.007-.005Zm.036-.028s-.002 0-.003.002l-.002.002.005-.004Zm-.082.05-.011.002.01-.002Z" opacity=".25"/><path fill="#46739B" d="M60.916 81.424v.001c.004.014.01.027.016.039l.001.002a.186.186 0 0 0 .026.035l.01.008a.192.192 0 0 0 .026.02l.01.008a.184.184 0 0 0 .09.023h.013a.189.189 0 0 0 .035-.005l.01-.003a.186.186 0 0 0 .041-.018l.007-.005a.192.192 0 0 0 .029-.023l.002-.003c-.202.127-.303-.053-.316-.08Z"/><path fill="#B8B0CA" d="M60.916 81.424v.001c.004.014.01.027.016.039l.001.002a.186.186 0 0 0 .026.035l.01.008a.192.192 0 0 0 .026.02l.01.008a.184.184 0 0 0 .09.023h.013a.189.189 0 0 0 .035-.005l.01-.003a.186.186 0 0 0 .041-.018l.007-.005a.192.192 0 0 0 .029-.023l.002-.003c-.202.127-.303-.053-.316-.08Z" opacity=".25"/><path fill="#46739B" d="M58.871 82.074Zm.447.101Zm-.633-.06Zm.081-.025Zm.624.132Zm.063.053Zm.072.081Zm-.478-.276Zm.435 1.252Zm-.349-1.236Zm-.523.052Zm1.003.35Zm-.998-.308.022.045c.21.42.462.804.746 1.154a1.5 1.5 0 0 0 .098-.057.744.744 0 0 0 .164-.76c-.005-.008-.357-.585-1.03-.382Zm.345-.119Zm.278.064Zm.336.291Z"/><path fill="#172734" d="m58.662 82.125.024-.01-.024.01Zm-.064.028.012-.006-.012.006Zm.961.248Zm-.192-.194.022.015-.022-.015Zm.083.066.002.003-.003-.003Zm-.602-.197.026-.002-.026.002Zm.66.259.015.02-.015-.02Zm-.488-.259.026.003-.026-.003Zm.195.048.025.01-.025-.01Zm.078.036Zm-.363-.089h.03-.03Zm.672.404.012.023-.012-.023Zm.043.099-.002-.006.002.006Z" opacity=".5"/><path fill="#46739B" d="m59.645 82.573-.002-.005a.742.742 0 0 0-.03-.07l-.011-.023a.727.727 0 0 0-.078-.12l-.015-.02a.76.76 0 0 0-.057-.06l-.002-.002a.752.752 0 0 0-.061-.051l-.022-.015a.73.73 0 0 0-.128-.072l-.024-.011a.748.748 0 0 0-.169-.045l-.026-.003a.75.75 0 0 0-.06-.004h-.03c-.02 0-.039 0-.058.002l-.026.003a.74.74 0 0 0-.16.038l-.024.01a.743.743 0 0 0-.053.023l-.011.006.017.036c.673-.203 1.025.375 1.03.383Z"/><path fill="#172734" d="m59.645 82.573-.002-.005a.742.742 0 0 0-.03-.07l-.011-.023a.727.727 0 0 0-.078-.12l-.015-.02a.76.76 0 0 0-.057-.06l-.002-.002a.752.752 0 0 0-.061-.051l-.022-.015a.73.73 0 0 0-.128-.072l-.024-.011a.748.748 0 0 0-.169-.045l-.026-.003a.75.75 0 0 0-.06-.004h-.03c-.02 0-.039 0-.058.002l-.026.003a.74.74 0 0 0-.16.038l-.024.01a.743.743 0 0 0-.053.023l-.011.006.017.036c.673-.203 1.025.375 1.03.383Z" opacity=".5"/><path fill="#B8B0CA" d="m59.398 83.407.02-.014-.02.014Z" opacity=".25"/><path fill="#46739B" d="m59.397 83.407.02-.015a.753.753 0 0 0 .064-.06 1.45 1.45 0 0 1-.098.057l.014.018Z"/><path fill="#B8B0CA" d="m59.397 83.407.02-.015a.753.753 0 0 0 .064-.06 1.45 1.45 0 0 1-.098.057l.014.018Z" opacity=".25"/><path fill="#46739B" d="M62.883 82.353Zm.504.145Zm-.383-.135Zm.484.201Zm-.211-.123Zm.299.199Zm-1.08-.226Zm.262-.057Zm.367.03Zm.003 2.033Zm-.822-.115Zm.117.061Zm.837.009Zm.237-.139Zm-.107.073Zm-.386.138Zm-.424-.024Zm1.225-1.469Zm-1.646-.344a1.048 1.048 0 0 0-.324 1.073c.04.084.606 1.194 1.78.447a1.049 1.049 0 0 0 .231-1.07c-.007-.013-.585-.963-1.687-.45Zm1.458 1.52Zm-.771.327Zm-.138-.01Zm-.319-1.987Zm-.385 1.57Zm-.134-.244Zm1.808-1.034Zm.07.1Zm-1.467-.332Zm-.35 1.4Zm.157.208Zm.11.103Z"/><path fill="#172734" d="m62.723 82.36.036-.004-.036.004Zm.849.277.005.004-.005-.004Zm-.605-.279.037.005-.037-.005Zm.49.185.03.021-.03-.021Zm-.617-.191Zm.402.074c.012.004.023.01.035.015l-.035-.015Zm.11.052Zm-1.1.061.03-.02-.03.02Zm1.475.278Zm.06.104.017.033-.017-.033Zm-.131-.196.022.028c-.007-.01-.014-.02-.022-.028Zm.19.328.002.007-.002-.007Zm-1.494-.575Zm.108-.051.035-.013-.034.013Z" opacity=".5"/><path fill="#46739B" d="m63.804 82.954-.017-.033a1.098 1.098 0 0 0-.11-.168l-.021-.028a1.053 1.053 0 0 0-.08-.085l-.003-.003a1.053 1.053 0 0 0-.086-.072l-.03-.021a1.056 1.056 0 0 0-.181-.102l-.035-.015a1.062 1.062 0 0 0-.237-.064l-.038-.004a1.032 1.032 0 0 0-.208-.002l-.037.003c-.077.01-.153.028-.226.054l-.033.014a1.082 1.082 0 0 0-.18.092l-.03.02a1.04 1.04 0 0 0-.092.07c1.103-.513 1.68.437 1.688.45l-.003-.007a1.055 1.055 0 0 0-.041-.099Z"/><path fill="#172734" d="m63.804 82.954-.017-.033a1.098 1.098 0 0 0-.11-.168l-.021-.028a1.053 1.053 0 0 0-.08-.085l-.003-.003a1.053 1.053 0 0 0-.086-.072l-.03-.021a1.056 1.056 0 0 0-.181-.102l-.035-.015a1.062 1.062 0 0 0-.237-.064l-.038-.004a1.032 1.032 0 0 0-.208-.002l-.037.003c-.077.01-.153.028-.226.054l-.033.014a1.082 1.082 0 0 0-.18.092l-.03.02a1.04 1.04 0 0 0-.092.07c1.103-.513 1.68.437 1.688.45l-.003-.007a1.055 1.055 0 0 0-.041-.099Z" opacity=".5"/><path fill="#B8B0CA" d="m62.025 84.058-.021-.027.021.027Zm.086.095-.025-.026.025.026Zm.094.083-.006-.005.006.005Zm.131.087-.031-.017.031.017Zm-.502-.645.007.022-.004-.017a.126.126 0 0 1-.003-.005Zm.105.252-.005-.01.005.01Zm-.054-.11-.014-.035.014.034Zm.571.56-.034-.015.034.015Zm.708.03Zm.119-.044-.021.009.021-.009Zm.135-.074-.027.017.027-.017Zm.108-.077-.028.022.028-.022Zm-.499.228-.023.005.023-.005Zm-.281.008a.233.233 0 0 1-.037-.004l.037.004Zm.132.006h-.032.032Z" opacity=".25"/><path fill="#46739B" d="m61.836 83.684.005.016c.008.03.018.058.03.086.003.012.008.023.013.035.014.034.03.067.048.099l.006.01c.02.035.042.069.067.101.006.01.014.019.021.028a.988.988 0 0 0 .06.069l.025.026a.915.915 0 0 0 .087.078l.005.004a.931.931 0 0 0 .103.07l.031.018a.94.94 0 0 0 .084.042l.035.015a1.075 1.075 0 0 0 .253.067.94.94 0 0 0 .137.01h.032a.868.868 0 0 0 .126-.01l.023-.004a1.042 1.042 0 0 0 .233-.069l.022-.008c.038-.017.074-.036.11-.057l.026-.017c.027-.018.053-.036.079-.056l.028-.022a.917.917 0 0 0 .092-.085c-1.175.747-1.74-.362-1.781-.446Z"/><path fill="#B8B0CA" d="m61.836 83.684.005.016c.008.03.018.058.03.086.003.012.008.023.013.035.014.034.03.067.048.099l.006.01c.02.035.042.069.067.101.006.01.014.019.021.028a.988.988 0 0 0 .06.069l.025.026a.915.915 0 0 0 .087.078l.005.004a.931.931 0 0 0 .103.07l.031.018a.94.94 0 0 0 .084.042l.035.015a1.075 1.075 0 0 0 .253.067.94.94 0 0 0 .137.01h.032a.868.868 0 0 0 .126-.01l.023-.004a1.042 1.042 0 0 0 .233-.069l.022-.008c.038-.017.074-.036.11-.057l.026-.017c.027-.018.053-.036.079-.056l.028-.022a.917.917 0 0 0 .092-.085c-1.175.747-1.74-.362-1.781-.446Z" opacity=".25"/><path fill="#46739B" d="M68.329 82.821Zm.237.193Zm-.116-.081Zm-.21-.216Zm-.146-.264Zm.068.143Zm.246-1.416Zm.909 1.988-.018.002.018-.002Zm-.224.01-.013-.001h.013Zm-.401-.099Zm.298.087-.027-.004.027.004Zm-.129-.025Zm.356.037-.026.001.026-.001Zm.723-1.965Zm-.096-.08Zm-.108-.073Zm-.121-.061Zm.435.336Zm-1.641-.155a1.133 1.133 0 0 0-.35 1.16c.036.076.46.908 1.325.738a6.3 6.3 0 0 0 .788-1.498c-.183-.238-.78-.856-1.763-.4Zm1.716.262Zm-1.584-.358Zm.231-.114Zm-.118.05Zm.236-.088Zm.43-.018Zm.131.026Zm-.261-.037Zm-.135.004Z"/><path fill="#172734" d="m69.281 80.91.041.005-.04-.005Zm-.265 0 .04-.003-.04.004Zm-.282.074.037-.014-.037.014Zm.41-.082h.046-.046Zm1.04.647-.016-.031.016.03Zm-.489-.509Zm.33.265.024.03-.024-.03Zm-.215-.195c.011.007.023.014.033.022l-.032-.023Zm.126.1.004.004-.004-.004Zm-1.319-.17Zm-.109.065.032-.021-.032.021Zm1.594.301Zm-.524-.424.038.017-.038-.017Z" opacity=".5"/><path fill="#46739B" d="M70.124 81.442a1 1 0 0 0-.075-.107l-.024-.03a1.154 1.154 0 0 0-.086-.092l-.004-.003a1.156 1.156 0 0 0-.092-.078l-.033-.023a1.069 1.069 0 0 0-.196-.11l-.037-.016a1.136 1.136 0 0 0-.257-.069l-.04-.005a1.11 1.11 0 0 0-.091-.006h-.045c-.03 0-.06.001-.09.004l-.039.004a1.125 1.125 0 0 0-.245.058l-.036.015a1.163 1.163 0 0 0-.194.1l-.033.02a1.163 1.163 0 0 0-.099.077c.983-.457 1.58.16 1.763.4l.012-.032-.016-.032a1.064 1.064 0 0 0-.043-.075Z"/><path fill="#172734" d="M70.124 81.442a1 1 0 0 0-.075-.107l-.024-.03a1.154 1.154 0 0 0-.086-.092l-.004-.003a1.156 1.156 0 0 0-.092-.078l-.033-.023a1.069 1.069 0 0 0-.196-.11l-.037-.016a1.136 1.136 0 0 0-.257-.069l-.04-.005a1.11 1.11 0 0 0-.091-.006h-.045c-.03 0-.06.001-.09.004l-.039.004a1.125 1.125 0 0 0-.245.058l-.036.015a1.163 1.163 0 0 0-.194.1l-.033.02a1.163 1.163 0 0 0-.099.077c.983-.457 1.58.16 1.763.4l.012-.032-.016-.032a1.064 1.064 0 0 0-.043-.075Z" opacity=".5"/><path fill="#B8B0CA" d="M69.3 83.17Zm-1.243-.835.008.024-.005-.018-.003-.006Zm.208.411-.023-.03.023.03Zm.09.104-.027-.029.027.029Zm-.245-.36-.014-.038.014.037Zm1.081.689Zm-.736-.24-.006-.005.006.005Zm-.285-.331-.006-.011.006.011Zm.91.569Zm-.117-.015Zm-.234-.066-.038-.017.038.017Zm-.129-.063-.034-.02.035.02Z" opacity=".25"/><path fill="#46739B" d="m68.059 82.34.005.018c.009.032.02.063.032.094l.014.037c.016.036.033.072.053.107l.006.011a.99.99 0 0 0 .072.11l.023.03c.02.025.042.05.065.074l.027.029c.03.029.06.057.094.084l.005.004c.035.028.073.052.111.076l.034.019c.03.016.06.032.092.046l.037.016a1.139 1.139 0 0 0 .35.081l.013.001c.034.002.067.002.1.001h.025l.082-.008.018-.002.066-.09c-.864.17-1.288-.662-1.324-.737Z"/><path fill="#B8B0CA" d="m68.059 82.34.005.018c.009.032.02.063.032.094l.014.037c.016.036.033.072.053.107l.006.011a.99.99 0 0 0 .072.11l.023.03c.02.025.042.05.065.074l.027.029c.03.029.06.057.094.084l.005.004c.035.028.073.052.111.076l.034.019c.03.016.06.032.092.046l.037.016a1.139 1.139 0 0 0 .35.081l.013.001c.034.002.067.002.1.001h.025l.082-.008.018-.002.066-.09c-.864.17-1.288-.662-1.324-.737Z" opacity=".25"/><path fill="#2F4D69" d="M70.373 76.25c0-.449-.478-.815-1.062-.815H59.117c-.584 0-1.062.366-1.062.814 0 .448.478.815 1.062.815H69.31c.584 0 1.062-.367 1.062-.815Z" opacity=".6"/><path fill="#7CACD8" d="M70.788 76.085c0-.484-.511-.88-1.137-.88H58.875c-.625 0-1.137.395-1.137.88s.512.881 1.137.881h10.776c.626 0 1.137-.396 1.137-.88Z"/><path stroke="#E3EDF6" stroke-linecap="round" stroke-miterlimit="10" stroke-width="2.071" d="M58.963 75.59h6.797" opacity=".1"/><path stroke="#E3EDF6" stroke-linecap="round" stroke-miterlimit="10" stroke-width="1.853" d="M66.252 75.59h.49" opacity=".15"/><path stroke="#E3EDF6" stroke-linecap="round" stroke-miterlimit="10" stroke-width="2.071" d="M67.246 75.59h2.13" opacity=".2"/><path fill="#260E43" d="M64.549 62c11.598 0 21-2.015 21-4.5s-9.402-4.5-21-4.5-21 2.015-21 4.5 9.402 4.5 21 4.5Z"/><path fill="#46739B" d="M86.436 63.95s.638-2.934-1.118-6.95c0 .463-.319 4.633-20.746 4.633h-.046c-20.428 0-20.747-4.17-20.747-4.633-1.755 4.016-1.117 6.95-1.117 6.95s20.108 9.112 43.774 0Zm6.566-23.248c5.273 0 9.548-4.273 9.548-9.545 0-5.271-4.275-9.545-9.548-9.545-5.274 0-9.549 4.274-9.549 9.545s4.275 9.545 9.549 9.545Z"/><path fill="#F1C543" d="M98.2 35.413a1.75 1.75 0 1 0 0-3.5 1.75 1.75 0 0 0 0 3.5Zm0-5.012a1.75 1.75 0 1 0 0-3.5 1.75 1.75 0 0 0 0 3.5Z"/><path fill="#46739B" d="M35.525 40.702c5.274 0 9.549-4.273 9.549-9.545 0-5.271-4.275-9.545-9.549-9.545-5.273 0-9.548 4.274-9.548 9.545s4.275 9.545 9.548 9.545Z"/><path fill="#F1C543" d="M30.329 35.412a1.75 1.75 0 1 0 0-3.5 1.75 1.75 0 0 0 0 3.5Zm0-5.011a1.75 1.75 0 1 0 0-3.5 1.75 1.75 0 0 0 0 3.5Z"/><path fill="#260E43" d="M64.262 3C47.167 3 33.31 15.998 33.31 32.032s13.858 29.032 30.953 29.032 30.954-12.998 30.954-29.032S81.357 3 64.262 3Z"/><path fill="#fff" d="M64.262 3C47.167 3 33.31 15.998 33.31 32.032s13.858 29.032 30.953 29.032 30.954-12.998 30.954-29.032S81.357 3 64.262 3Zm0 50.342c-20.802 0-26.418-10.01-26.418-22.357S49.672 8.628 64.262 8.628 90.68 18.638 90.68 30.985c0 12.348-5.616 22.357-26.418 22.357Z"/><path fill="#D2CDD7" d="M64.549 53c-21.26 0-27-9.85-27-22 1.301 5.075 9.759 21.512 27 22Z" opacity=".2"/><path fill="#F4F3F5" d="M85.549 24.62c0 6.417-20.812-11.62-13.407-11.62 7.404 0 13.407 5.202 13.407 11.62Z" opacity=".2"/><path fill="#46739B" d="M58.295 94.85c0 .543.441.984.985.984h9.965a.985.985 0 0 0 .986-.985v-3.83a.985.985 0 0 0-.986-.986H59.28a.985.985 0 0 0-.985.985v3.831Z"/><path fill="#fff" d="M68.533 91.347h-8.54v1.094h8.54v-1.094Zm0 1.97h-8.54v1.095h8.54v-1.095Z"/><path fill="#BDD890" d="M26.673 57.153a.813.813 0 0 0 .071.074.563.563 0 0 0 .084.059l.023.075-.5.155-.033-.108.36-.111a.64.64 0 0 1-.078-.086l.073-.058Zm.086.787a.347.347 0 0 1-.208.013.16.16 0 0 1-.109-.111.16.16 0 0 1 .027-.154.347.347 0 0 1 .178-.107.466.466 0 0 1 .115-.022.257.257 0 0 1 .093.011.17.17 0 0 1 .068.041.166.166 0 0 1 .04.07.16.16 0 0 1-.026.152.345.345 0 0 1-.178.108Zm-.034-.109a.598.598 0 0 0 .067-.025.256.256 0 0 0 .05-.027.086.086 0 0 0 .027-.033.052.052 0 0 0 .002-.037.05.05 0 0 0-.023-.03.09.09 0 0 0-.041-.01.191.191 0 0 0-.057.004.639.639 0 0 0-.136.042.237.237 0 0 0-.05.028.092.092 0 0 0-.028.033.05.05 0 0 0-.002.037.051.051 0 0 0 .023.03c.011.006.025.01.042.01a.26.26 0 0 0 .056-.004.614.614 0 0 0 .07-.018Zm.161.519a.346.346 0 0 1-.208.012.16.16 0 0 1-.109-.111.16.16 0 0 1 .027-.153.346.346 0 0 1 .178-.108.465.465 0 0 1 .115-.022.255.255 0 0 1 .093.011.165.165 0 0 1 .108.11.16.16 0 0 1-.026.153.345.345 0 0 1-.178.108Zm-.034-.11a.612.612 0 0 0 .067-.024.255.255 0 0 0 .05-.028.087.087 0 0 0 .027-.032.051.051 0 0 0 .002-.038.05.05 0 0 0-.023-.03.09.09 0 0 0-.041-.01.191.191 0 0 0-.057.004.622.622 0 0 0-.186.07.091.091 0 0 0-.028.033.05.05 0 0 0-.002.037.051.051 0 0 0 .023.03c.011.007.025.01.041.011a.255.255 0 0 0 .057-.005.633.633 0 0 0 .07-.018Zm-6.185.776a.714.714 0 0 0 .112.106c.014.01.028.02.043.026l.023.075-.5.155-.032-.107.359-.112a.676.676 0 0 1-.078-.085l.073-.058Zm.084.788a.346.346 0 0 1-.208.012.16.16 0 0 1-.108-.111.16.16 0 0 1 .026-.153.347.347 0 0 1 .178-.108.466.466 0 0 1 .115-.022.257.257 0 0 1 .093.011.165.165 0 0 1 .108.11.16.16 0 0 1-.026.153.345.345 0 0 1-.178.108Zm-.034-.11a.592.592 0 0 0 .067-.024.255.255 0 0 0 .05-.028.086.086 0 0 0 .027-.032.052.052 0 0 0 .002-.038.05.05 0 0 0-.023-.03.09.09 0 0 0-.04-.01.24.24 0 0 0-.058.004.61.61 0 0 0-.186.07.092.092 0 0 0-.027.033.05.05 0 0 0-.002.037.05.05 0 0 0 .022.03c.011.007.025.01.042.011a.255.255 0 0 0 .056-.005.606.606 0 0 0 .07-.018Zm.163.518a.346.346 0 0 1-.208.012.16.16 0 0 1-.109-.111.16.16 0 0 1 .027-.153.346.346 0 0 1 .178-.108.466.466 0 0 1 .115-.022.26.26 0 0 1 .093.012.166.166 0 0 1 .108.11.16.16 0 0 1-.026.153.345.345 0 0 1-.178.107Zm-.034-.11a.598.598 0 0 0 .067-.024.252.252 0 0 0 .05-.028.086.086 0 0 0 .027-.032.052.052 0 0 0 .002-.038.05.05 0 0 0-.023-.03.09.09 0 0 0-.041-.01.231.231 0 0 0-.057.004.616.616 0 0 0-.186.07.092.092 0 0 0-.028.033.05.05 0 0 0-.001.037.05.05 0 0 0 .022.03c.011.007.025.01.042.011a.254.254 0 0 0 .056-.005.612.612 0 0 0 .07-.017Z"/><path fill="#BDD890" d="m20.265 58.949 6.391-.854-1.886-14.1-6.391.854 1.886 14.1Z"/><path fill="#598D3F" d="m25.343 43.245-7.714 1.031 2.063 15.422 7.714-1.03-2.063-15.423Zm-4.006 15.336a.89.89 0 0 0-1.216-.705l-1.599-11.955a.89.89 0 0 0 .93-1.216l4.245-.567a.89.89 0 0 0 1.217.93l1.599 11.954a.887.887 0 0 0-.93 1.216l-4.246.567a.885.885 0 0 0 0-.224Zm-.362-8.118h-.001Zm.279 2.311Z"/><path fill="#598D3F" d="M25.273 51.104a2.78 2.78 0 0 0-5.136-1.064c.343.03.7.246.89.379a.789.789 0 0 1 .322.009c.006-.002.011-.006.017-.006l.01-.001c.047 0 .095.045.141.12.165-.313.42-.57.735-.724a.541.541 0 0 1 1.075-.104c.646.17 1.165.742 1.264 1.482.099.74-.252 1.429-.83 1.762a.541.541 0 0 1-1.065.182 1.653 1.653 0 0 1-.9-.506c-.025.091-.063.149-.113.156a.07.07 0 0 1-.01 0l-.01-.002a.817.817 0 0 1-.285.092c-.14.17-.431.49-.764.617a2.779 2.779 0 0 0 4.659-2.392Z"/><path fill="#BCD68F" d="M21.378 52.879c-.042.004-.066.002-.066.002l-.007-.013a.348.348 0 0 0 .02.038s-.146.075-.377.16a1.28 1.28 0 0 1-.452.245l-.05.012c.053.06.11.118.169.173.332-.128.624-.446.763-.617Z"/><path fill="#557D39" d="m21.255 52.775-.001-.002v.002Z"/><path fill="#557D39" d="M20.948 53.066a4.21 4.21 0 0 1-.579.168l.076.09.051-.013a1.28 1.28 0 0 0 .452-.245Z" opacity=".15"/><path fill="#BCD68F" d="M20.517 50.34c.282.021.471.062.471.062l-.016.06h.001l.01-.033s.016-.005.042-.01c-.19-.133-.546-.35-.89-.379-.04.07-.08.14-.116.213a1.218 1.218 0 0 1 .498.088Z"/><path fill="#557D39" d="M20.517 50.341a1.22 1.22 0 0 0-.497-.088 2.751 2.751 0 0 0-.04.084 3.902 3.902 0 0 1 .537.004Z" opacity=".15"/><path fill="#BCD68F" d="M20.956 50.544a2.47 2.47 0 0 1 .035-.141s-.19-.041-.472-.062a4.173 4.173 0 0 0-.425-.01c.187.128.486.286.841.314l.02-.102Zm.297 2.23a3.001 3.001 0 0 1-.044-.089 1.79 1.79 0 0 0-.732.525 4.242 4.242 0 0 0 .846-.304l-.02-.037a3.428 3.428 0 0 1-.05-.094v-.001Zm-.146-.33a3.403 3.403 0 0 1-.208-1.54 2.063 2.063 0 0 1-.993-.383 2.757 2.757 0 0 0-.166 1.032c.001.006.003.011.003.017v.046a2.765 2.765 0 0 0 .505 1.46c.162-.199.45-.482.859-.632Z"/><path fill="#557D39" d="M20.899 50.905a3.4 3.4 0 0 1 .035-.26 1.792 1.792 0 0 1-.841-.313 3.902 3.902 0 0 0-.112.005c-.027.06-.052.122-.075.185.209.148.56.345.993.383Zm.311 1.78a3.315 3.315 0 0 1-.103-.24c-.409.15-.697.432-.859.63.039.054.079.107.121.159l.11-.025a1.79 1.79 0 0 1 .732-.524Z"/><path fill="#BCD68F" d="M19.738 51.554c0 .02.003.042.004.063v-.046a.047.047 0 0 0-.004-.017Z"/><path fill="#557D39" d="M20.974 50.463a1.928 1.928 0 0 0-.04.182 3.403 3.403 0 0 0 .37 2.223l.007.013s.025.002.066-.002a.817.817 0 0 0 .286-.092c-.091-.01-.173-.18-.227-.326a4.02 4.02 0 0 1-.188-.819c-.075-.561-.056-1.152.1-1.214a.791.791 0 0 0-.322-.01l-.043.011-.01.034Z"/><path fill="#557D39" d="M21.502 50.571c-.045-.078-.088-.12-.125-.12h-.006c-.12.016-.185.496-.093 1.187.042.311.108.6.186.813.075.201.155.316.216.308.038-.005.07-.059.094-.151a1.821 1.821 0 0 1-.447-.977c-.05-.38.018-.747.175-1.06Z"/><path fill="#BCD68F" d="M21.25 51.642c.041.313.108.604.188.82.053.146.135.314.227.325l.01.002h.01c.05-.007.087-.065.113-.156l-.023-.025c-.024.093-.056.146-.095.151-.06.009-.14-.107-.215-.308a3.99 3.99 0 0 1-.186-.813c-.093-.69-.027-1.171.093-1.187h.006c.037 0 .08.042.125.12l.015-.03c-.046-.075-.093-.12-.14-.12h-.01c-.006.001-.012.005-.018.007-.157.062-.176.653-.1 1.214Z"/><path fill="#557D39" d="M22.695 53.14a.541.541 0 0 0 1.066-.183 1.552 1.552 0 0 1-1.066.182Zm.695.056a.1.1 0 1 1 .027.197.1.1 0 0 1-.027-.197Zm-.255.235a.1.1 0 1 1-.027-.197.1.1 0 0 1 .027.197Z"/><path fill="#BCD68F" d="M23.11 53.233a.1.1 0 1 0 .026.197.1.1 0 0 0-.026-.197Zm.307.16a.1.1 0 1 0-.026-.197.1.1 0 0 0 .026.197Z"/><path fill="#557D39" d="M23.328 49.713a.541.541 0 0 0-1.075.104 1.552 1.552 0 0 1 1.075-.104Zm-.446-.33a.1.1 0 1 1 .026.197.1.1 0 0 1-.026-.197Zm-.256.234a.1.1 0 1 1-.026-.197.1.1 0 0 1 .026.197Z"/><path fill="#BCD68F" d="M22.598 49.42a.1.1 0 1 0 .026.198.1.1 0 0 0-.026-.197Zm.309.16a.1.1 0 1 0-.026-.197.1.1 0 0 0 .026.196Zm-1.407.992a1.822 1.822 0 0 0-.175 1.06 1.821 1.821 0 0 0 .47 1c.242.26.555.442.9.507a1.552 1.552 0 0 0 1.065-.182c.578-.333.928-1.022.83-1.762-.1-.74-.619-1.312-1.264-1.482a1.551 1.551 0 0 0-1.076.104c-.315.154-.57.41-.735.725l-.015.03Zm1.318-.65c.694-.093 1.345.496 1.455 1.316.11.82-.364 1.559-1.058 1.651-.695.093-1.3-.147-1.456-1.316-.156-1.168.364-1.559 1.059-1.652Z"/><path fill="#557D39" d="M23.216 52.889c.694-.093 1.168-.832 1.059-1.652-.11-.82-.761-1.409-1.456-1.316-.694.093-1.168.832-1.058 1.652.11.82.761 1.409 1.455 1.316Z"/><path fill="#598D3F" d="M23.114 57.044a1.112 1.112 0 1 0 0-2.223 1.112 1.112 0 0 0 0 2.223Z"/><path fill="#BCD68F" d="m23.538 56.364.03-.003a.274.274 0 0 0 .112-.501.167.167 0 0 0-.145-.28l-.005.002c0-.01 0-.019-.002-.028a.165.165 0 0 0-.116-.136m-.071 1.042a.613.613 0 0 0 .014-.008l-.145-1.085a.597.597 0 0 0-.494.075.071.071 0 0 1-.108.091.597.597 0 0 0 .148.931.108.108 0 1 1 .163.061c.14.03.29.01.422-.065Zm-.296-.093a.017.017 0 1 1-.004.034.017.017 0 0 1 .004-.034Zm-.069-.806a.073.073 0 1 1 .02-.145.073.073 0 0 1-.02.145Zm-.157.125a.018.018 0 0 1-.015-.02.018.018 0 0 1 .02-.016c.01.001.017.01.015.02a.018.018 0 0 1-.02.016Zm-.18.272a.1.1 0 1 1 .026-.199.1.1 0 0 1-.026.199Zm.195-.039a.192.192 0 1 1 .381.05.192.192 0 0 1-.38-.05Zm-.166.276a.017.017 0 1 1 .004-.033.017.017 0 0 1-.004.033Zm.154.004a.035.035 0 1 1 .009-.069.035.035 0 0 1-.01.069Zm.361.042a.04.04 0 1 1 .08.01.04.04 0 0 1-.08-.01Zm.348.181c-.003.047-.031.084-.069.09-.038.004-.074-.024-.09-.067l-.143-1.076c.004-.045.032-.081.069-.086.037-.005.073.023.09.066l.143 1.074Z"/><path fill="#BDD890" d="M24.612 43.679a.69.69 0 0 0 .088.117.279.279 0 0 0 .035.03l.01.074-.489.065-.014-.105.352-.047a.608.608 0 0 1-.059-.092l.077-.042Zm-.044.747a.327.327 0 0 1-.196-.022.151.151 0 0 1-.083-.12.152.152 0 0 1 .048-.139.337.337 0 0 1 .184-.072.435.435 0 0 1 .11-.002.24.24 0 0 1 .084.025.156.156 0 0 1 .084.12.152.152 0 0 1-.049.137.326.326 0 0 1-.182.073Zm-.015-.108a.573.573 0 0 0 .067-.012.243.243 0 0 0 .05-.018.08.08 0 0 0 .03-.026.049.049 0 0 0 .009-.035.047.047 0 0 0-.017-.03.086.086 0 0 0-.037-.017.227.227 0 0 0-.053-.005.568.568 0 0 0-.184.036.086.086 0 0 0-.031.026.047.047 0 0 0-.008.034.048.048 0 0 0 .016.032c.01.008.022.013.037.017a.247.247 0 0 0 .054.004c.02 0 .043-.002.067-.006Zm.067.508a.327.327 0 0 1-.195-.022.151.151 0 0 1-.083-.12.151.151 0 0 1 .048-.138.315.315 0 0 1 .183-.072.435.435 0 0 1 .11-.003.257.257 0 0 1 .085.025.16.16 0 0 1 .057.05.16.16 0 0 1 .027.07.151.151 0 0 1-.05.138.326.326 0 0 1-.181.072Zm-.014-.107a.59.59 0 0 0 .066-.013.24.24 0 0 0 .05-.018.082.082 0 0 0 .032-.026.048.048 0 0 0 .007-.034.046.046 0 0 0-.016-.031.085.085 0 0 0-.037-.017.221.221 0 0 0-.053-.005.59.59 0 0 0-.134.018.232.232 0 0 0-.05.019.085.085 0 0 0-.032.025.047.047 0 0 0-.007.035.048.048 0 0 0 .016.031.08.08 0 0 0 .037.017.241.241 0 0 0 .054.004c.02 0 .043-.002.067-.005Zm-5.875-.254a.711.711 0 0 0 .088.117.279.279 0 0 0 .035.03l.01.074-.489.065-.014-.105.352-.047a.641.641 0 0 1-.059-.092l.077-.042Zm-.044.745a.327.327 0 0 1-.196-.02.151.151 0 0 1-.083-.121.151.151 0 0 1 .049-.139c.04-.037.1-.06.183-.072a.435.435 0 0 1 .11-.002.23.23 0 0 1 .084.025.16.16 0 0 1 .057.05.16.16 0 0 1 .027.07.152.152 0 0 1-.049.138.326.326 0 0 1-.182.072Zm-.015-.106a.59.59 0 0 0 .067-.013.239.239 0 0 0 .05-.018.081.081 0 0 0 .031-.026.048.048 0 0 0 .008-.034.047.047 0 0 0-.017-.032.087.087 0 0 0-.036-.016.232.232 0 0 0-.054-.005.567.567 0 0 0-.184.036.085.085 0 0 0-.031.026.046.046 0 0 0-.008.035.048.048 0 0 0 .017.031.076.076 0 0 0 .036.017.24.24 0 0 0 .054.004.59.59 0 0 0 .067-.005Zm.069.508a.327.327 0 0 1-.195-.022.151.151 0 0 1-.083-.12.151.151 0 0 1 .048-.138.33.33 0 0 1 .183-.072.435.435 0 0 1 .11-.003.284.284 0 0 1 .085.025.16.16 0 0 1 .057.05.16.16 0 0 1 .027.07.151.151 0 0 1-.049.138.325.325 0 0 1-.183.072Zm-.014-.107a.57.57 0 0 0 .066-.013.241.241 0 0 0 .05-.018.082.082 0 0 0 .032-.025.049.049 0 0 0 .007-.035.047.047 0 0 0-.016-.031.086.086 0 0 0-.037-.017.227.227 0 0 0-.053-.005.57.57 0 0 0-.184.037.085.085 0 0 0-.031.025.047.047 0 0 0-.008.035.048.048 0 0 0 .016.031.08.08 0 0 0 .037.017.247.247 0 0 0 .054.004c.02 0 .043-.002.067-.005Z"/><path stroke="#598D3F" stroke-miterlimit="10" stroke-width=".469" d="M18.775 46.141a1.113 1.113 0 0 0 .955-1.249l3.747-.5a1.113 1.113 0 0 0 1.25.954l1.532 11.456a1.113 1.113 0 0 0-.955 1.25l-3.747.5a1.113 1.113 0 0 0-1.25-.954L18.776 46.14Z"/><path fill="#598D3F" d="M21.92 48.125a1.112 1.112 0 1 0 0-2.223 1.112 1.112 0 0 0 0 2.223Z"/><path fill="#BCD68F" d="m22.345 47.445.03-.002a.274.274 0 0 0 .111-.502.167.167 0 0 0-.145-.279h-.005v-.027a.165.165 0 0 0-.117-.136m-.071 1.042a.49.49 0 0 0 .014-.008l-.145-1.085a.597.597 0 0 0-.494.075.071.071 0 0 1-.108.091.598.598 0 0 0 .147.931.108.108 0 1 1 .163.061c.14.03.291.01.423-.065Zm-.296-.093c.009.002.015.01.014.02a.017.017 0 1 1-.014-.019Zm-.069-.806a.073.073 0 1 1 .019-.145.073.073 0 0 1-.019.145Zm-.157.125a.018.018 0 0 1-.016-.02.018.018 0 0 1 .02-.016c.01.001.017.01.016.02a.018.018 0 0 1-.02.016Zm-.18.272a.1.1 0 1 1 .026-.199.1.1 0 0 1-.026.199ZM21.64 47a.192.192 0 1 1 .381.05.192.192 0 0 1-.381-.05Zm-.166.276a.017.017 0 0 1-.015-.019.017.017 0 1 1 .015.019Zm.153.004a.035.035 0 1 1 .01-.069.035.035 0 1 1-.01.069Zm.362.042a.04.04 0 1 1 .08.01.04.04 0 0 1-.08-.01Zm.349.182c-.004.046-.032.083-.07.088-.037.005-.073-.023-.09-.066l-.143-1.076c.005-.045.032-.081.07-.086.037-.005.073.023.09.066l.143 1.074Z"/><path fill="#331B42" d="M19.995 53.521c.672-.142 3.6 1.145 2.862 3.575-.622 2.045-.547 3.703-2.092 4.125-1.281.35-2.164.64-2.764.042-.6-.596-2.27-6.842 1.994-7.742Z" opacity=".15"/><path fill="#fff" d="M19.751 53.437c.67-.154 3.62 1.082 2.924 3.524-.586 2.056-.483 3.712-2.02 4.16-1.275.373-2.153.677-2.763.091-.61-.586-2.388-6.802 1.86-7.775Z"/><path fill="#331B42" d="M17.501 55.76c-.697 2.224-.012 5.075.373 5.46.6.597 1.483.308 2.764-.042 1.093-.3 1.375-1.215 1.667-2.45-.244.432-.59.744-1.147.896-1.281.35-1.814.434-2.447-.128-.734-.652-1.266-2.185-1.21-3.736Zm9.837 4.563c-.066-.63-3.201-2.592-2.193-3.6 1.27-1.27 3.892 1.049 3.892 1.049" opacity=".15"/><path fill="#fff" d="M27.422 60.24c-.066-.629-3.201-2.591-2.193-3.6 1.27-1.27 3.892 1.05 3.892 1.05"/></svg>