<svg xmlns="http://www.w3.org/2000/svg" viewBox="0 0 2000 1600"><style>.st1{fill:#fff}.st2{fill:#371a45;enable-background:new}.st2,.st3{opacity:.15}.st4{fill:#331b42}.st6{fill:#233a4f}.st7{fill:#260e43}.st8{fill:#46739b}.st9{fill:#7cacd8}.st17{fill:#f1c543}.st18{opacity:.45}.st19{fill:#e7ab3b}.st25,.st26{opacity:.5;fill:#172734;enable-background:new}.st26{opacity:.25;fill:#b8b0ca}.st35{fill:#9590c5}.st36{fill:#635da8}.st37{fill:#e7e5ea}.st41{fill:#bdd890}.st42{fill:#598d3f}.st43{fill:#bcd68f}.st44,.st45{fill:#557d39}.st45{opacity:.15;enable-background:new}</style><path d="M300 1450c466.595-10.314 933.406-10.396 1400-.002-466.594 10.398-933.405 10.316-1400 .002z" class="st1" opacity=".75"/><path d="M500.457 866.55c-.205-.672-.389-1.348-.578-2.023.19.675.373 1.35.578 2.024zm2.721 7.81c-.244-.615-.465-1.235-.696-1.853.23.618.452 1.238.696 1.853zm-5.572-19.65c-.14-.77-.261-1.54-.383-2.31.122.77.243 1.539.383 2.31zm-.638-3.94zm2.378 11.84c-.184-.705-.348-1.411-.517-2.117.169.706.333 1.412.517 2.116zm2.387 7.862c-.225-.645-.428-1.293-.639-1.94.211.647.414 1.295.639 1.94zm-3.336-11.812c-.162-.738-.306-1.475-.452-2.213.146.738.29 1.475.452 2.213zm-2.46-19.547zm16.707 32.493c28.62 21.32 56.047 25.192 66.127 39.712 22.285 32.1 78.077 56.778 123.66 76.77a88.416 88.416 0 0 1 35.391 28.148l96.727-104.99c-36.87-4.511-69.781-11.73-97.69-21.004-11.834-3.915-22.76-8.201-32.703-12.786-28-12.92-53.215-27.314-87.823-53.587-6.281-4.748-40.77-27.314-40.77-27.314s-39.684-30.097-63.53-9.348c-9.986 8.686-16.214 27.39-16.156 48.52 3.004 12.6 5.805 27.713 16.767 35.88zm-16.506-28.643zm.342 3.889zm14.24 42.539c-.304-.488-.582-.987-.876-1.48.294.493.572.992.876 1.48zm-2.156-3.656c-.297-.531-.57-1.072-.855-1.608.286.536.558 1.077.855 1.608zm-1.974-3.73c-.282-.564-.54-1.136-.81-1.703.27.567.528 1.14.81 1.703zm-1.794-3.795c-.262-.589-.502-1.184-.752-1.776.25.592.49 1.187.752 1.775zm8.265 14.75c-.277-.4-.53-.812-.8-1.216.27.404.523.816.8 1.217z" class="st1"/><path d="M737.822 1016.236a88.416 88.416 0 0 0-35.39-28.147c-45.584-19.993-101.376-44.67-123.66-76.77-10.081-14.52-37.507-18.393-66.128-39.713-10.962-8.166-13.763-23.278-16.766-35.878l-.01-.04c0 .252.013.51.015.762.009.884.023 1.77.054 2.663.014.42.037.842.056 1.264.04.86.084 1.72.145 2.586.032.462.074.927.113 1.39.069.832.14 1.664.229 2.499.053.503.119 1.008.18 1.512.096.802.193 1.603.308 2.407.078.542.169 1.085.255 1.629.122.77.243 1.54.383 2.31.104.579.225 1.158.34 1.737.145.738.289 1.475.451 2.213.135.611.287 1.222.432 1.833.169.706.333 1.412.517 2.116.167.64.353 1.279.533 1.918.19.675.373 1.35.578 2.024.2.662.422 1.32.637 1.98.211.648.414 1.296.639 1.94.237.682.497 1.358.75 2.036.23.618.451 1.238.695 1.853.275.695.574 1.383.866 2.074.25.592.49 1.187.752 1.775.314.703.653 1.396.984 2.093.27.567.528 1.14.81 1.703.358.713.743 1.416 1.12 2.122.285.536.557 1.077.854 1.608.41.733.849 1.452 1.28 2.176.294.493.572.992.876 1.48.494.794 1.02 1.572 1.541 2.353.27.404.523.816.8 1.217a86.55 86.55 0 0 0 2.53 3.473c37.213 48.496 114.854 98.45 206.933 136.408 0 0 17.341 185.99 46.233 281.358l26.823-24.828c-19.355-63.868-33.526-168.358-40.777-230.435a88.589 88.589 0 0 0-16.98-42.7z" class="st1"/><path d="M737.822 1016.236a88.416 88.416 0 0 0-35.39-28.147c-45.584-19.993-101.376-44.67-123.66-76.77-10.081-14.52-37.507-18.393-66.128-39.713-10.962-8.166-13.763-23.278-16.766-35.878l-.01-.04c0 .252.013.51.015.762.009.884.023 1.77.054 2.663.014.42.037.842.056 1.264.04.86.084 1.72.145 2.586.032.462.074.927.113 1.39.069.832.14 1.664.229 2.499.053.503.119 1.008.18 1.512.096.802.193 1.603.308 2.407.078.542.169 1.085.255 1.629.122.77.243 1.54.383 2.31.104.579.225 1.158.34 1.737.145.738.289 1.475.451 2.213.135.611.287 1.222.432 1.833.169.706.333 1.412.517 2.116.167.64.353 1.279.533 1.918.19.675.373 1.35.578 2.024.2.662.422 1.32.637 1.98.211.648.414 1.296.639 1.94.237.682.497 1.358.75 2.036.23.618.451 1.238.695 1.853.275.695.574 1.383.866 2.074.25.592.49 1.187.752 1.775.314.703.653 1.396.984 2.093.27.567.528 1.14.81 1.703.358.713.743 1.416 1.12 2.122.285.536.557 1.077.854 1.608.41.733.849 1.452 1.28 2.176.294.493.572.992.876 1.48.494.794 1.02 1.572 1.541 2.353.27.404.523.816.8 1.217a86.55 86.55 0 0 0 2.53 3.473c37.213 48.496 114.854 98.45 206.933 136.408 0 0 17.341 185.99 46.233 281.358l26.823-24.828c-19.355-63.868-33.526-168.358-40.777-230.435a88.589 88.589 0 0 0-16.98-42.7z" class="st2"/><g class="st3"><path d="M524.427 783.776c7.09-1.496 37.983 12.086 30.195 37.73-6.557 21.59-5.772 39.089-22.066 43.54-13.52 3.693-22.835 6.747-29.164.447-6.33-6.3-23.95-72.218 21.035-81.717z" class="st4"/></g><path d="M521.852 782.885c7.062-1.62 38.186 11.426 30.844 37.2-6.182 21.701-5.094 39.183-21.308 43.916-13.454 3.927-22.715 7.142-29.152.953s-25.199-71.792 19.616-82.07z" class="st1"/><g class="st3"><path d="M498.109 807.407c-7.355 23.477-.133 53.57 3.931 57.63 6.328 6.302 15.642 3.249 29.162-.445 11.53-3.155 14.515-12.823 17.59-25.86-2.576 4.562-6.224 7.86-12.1 9.461-13.519 3.694-19.144 4.583-25.823-1.353-7.736-6.882-13.35-23.057-12.76-39.433z" class="st4"/></g><path d="M1237.64 938.503s9.905 78.824-19.366 117.569c-14.138 18.713-53.439 3.012-80.702 3.006-100.82-.023-89.873 95.34-35.372 121.9 70.147 34.188 239.29 37.443 218.322-123.503-12.517-96.078-117.064-192.14-117.064-192.14" class="st1"/><path d="M1237.64 938.503s9.905 78.824-19.366 117.569c-14.138 18.713-53.439 3.012-80.702 3.006-100.82-.023-89.873 95.34-35.372 121.9 70.147 34.188 239.29 37.443 218.322-123.503-12.517-96.078-117.064-192.14-117.064-192.14" class="st1"/><path d="M1197.35 938.503s9.904 78.824-19.367 117.569c-14.138 18.713-53.438 3.012-80.702 3.006-100.82-.023-89.873 95.34-35.372 121.9 70.148 34.188 239.29 37.443 218.322-123.503-12.517-96.078-117.064-192.14-117.064-192.14" class="st3"/><path d="M719.119 1064.123c22.763 39.754 17.214 76.88-1.89 97.845" class="st2"/><path d="M991.229 1287.483c27.783 46.335 34.358 84.137 34.358 84.137v48.693h151.116c-1.68-23.507 3.358-41.977 3.358-41.977 157.833-172.944 45.335-483.572 45.335-483.572-253.54 100.744-470.14 0-470.14 0s-112.498 310.628 45.335 483.572c0 0 5.037 18.47 3.358 41.977h151.116v-48.693s6.717-38.619 35.261-85.633l.903 1.496z" class="st1"/><ellipse cx="1100.69" cy="1421.992" class="st6" rx="76.146" ry="28.008"/><ellipse cx="880.076" cy="1421.992" class="st6" rx="76.146" ry="28.008"/><ellipse cx="990.475" cy="825.68" class="st7" rx="219.539" ry="49.163"/><path d="M1220.717 896.443s6.716-31.903-11.754-75.558c0 5.037-3.358 50.372-218.28 50.372h-.487c-214.922 0-218.28-45.335-218.28-50.372-18.47 43.655-11.753 75.558-11.753 75.558s211.563 99.065 460.554 0z" class="st8"/><path d="M845.928 923.372c-18.157-4.105-33.977-8.51-47.1-12.607-11.765 54.614-39.648 99.12-61.949 127.726a386.201 386.201 0 0 1-16.922 20.232c-1.716 16.625-2.917 33.95-3.364 51.702 3.495 2.248 7.943 4.874 13.29 7.763 29.78-27.596 94.25-96.727 116.045-194.816zm414.76 135.275a386.048 386.048 0 0 1-16.855-20.156c-22.366-28.69-50.347-73.375-62.051-128.21a629.82 629.82 0 0 1-47.05 12.864c21.35 96.421 83.956 164.895 114.435 193.494a815.332 815.332 0 0 0 14.881-6.7c-.457-17.61-1.656-34.796-3.36-51.292zm-280.52 245.386c-37.404.119-74.34-3.274-110.378-10.194-62.108-11.926-111.565-32.871-138.89-47.5 5.815 22.077 13.631 43.749 23.875 64.514 27.075 10.845 61.807 22.154 103.237 30.296 33.413 6.567 67.515 10.337 102.023 11.322 3.762-12.104 10.055-29.086 20.133-48.438zm270.275-60.349c-68.552 30.167-137.7 49.232-205.832 56.71a612.233 612.233 0 0 1-44.329 3.252c9.895 18.935 16.166 35.619 19.989 47.725 9.277-.6 18.571-1.39 27.877-2.386 59.876-6.412 120.338-21.103 180.451-43.792 9.312-19.87 16.473-40.516 21.844-61.51z" class="st9"/><path d="M1264.048 1109.939a815.332 815.332 0 0 1-14.881 6.7c-68.134 29.842-136.846 48.714-204.556 56.146-59.389 6.52-118.207 4.315-174.821-6.556-62.869-12.071-112.798-33.392-139.906-48.04-5.348-2.89-9.796-5.516-13.291-7.764-.464 18.415-.113 37.285 1.312 56.299 28.538 14.292 76.405 34.296 140.107 46.816 39.29 7.722 79.532 11.592 120.27 11.592 23.156 0 46.476-1.251 69.866-3.756 71.301-7.636 143.434-27.014 214.819-57.658 1.254-18.164 1.539-36.181 1.081-53.78z" class="st9"/><path fill="#46739b" stroke="#46739b" stroke-miterlimit="10" stroke-width="7.539" d="M1013.937 977.009c-9.279 0-17.586 4.157-23.163 10.71-3.412-4.088-8.542-6.69-14.282-6.69-10.27 0-18.597 8.327-18.597 18.598 0 .169.008.336.013.504a18.452 18.452 0 0 0-3.029-.253c-10.132 0-18.345 8.213-18.345 18.345l36.678.503h12.49c4.489 11.194 15.438 19.1 28.235 19.1 16.794 0 30.409-13.615 30.409-30.409 0-16.794-13.615-30.408-30.409-30.408z"/><path fill="#46739b" stroke="#46739b" stroke-miterlimit="10" stroke-width="5.529" d="M1051.26 1030.008c14.105 32.165.648 70.088-31.116 85.98-32.788 16.406-72.668 3.125-89.073-29.664-9.15-18.286-9.066-38.777-1.514-56.172"/><path d="M1059.282 1021.402c0-5.114-5.398-9.299-11.995-9.299H933.592c-6.597 0-11.994 4.185-11.994 9.299s5.397 9.299 11.994 9.299h113.695c6.597 0 11.995-4.185 11.995-9.299z" class="st8"/><path fill="none" stroke="#46739b" stroke-miterlimit="10" stroke-width="5.529" d="M1059.282 1021.402c0-5.114-5.398-9.299-11.995-9.299H933.592c-6.597 0-11.994 4.185-11.994 9.299s5.397 9.299 11.994 9.299h113.695c6.597 0 11.995-4.185 11.995-9.299z"/><path fill="#e7ab3b" stroke="#e7ab3b" stroke-miterlimit="10" stroke-width="2.01" d="M1013.937 977.009c-9.279 0-17.586 4.157-23.163 10.71-3.412-4.088-8.542-6.69-14.282-6.69-10.27 0-18.597 8.327-18.597 18.598 0 .169.008.336.013.504a18.452 18.452 0 0 0-3.029-.253c-10.132 0-18.345 8.213-18.345 18.345l36.678.503h12.49c4.489 11.194 15.438 19.1 28.235 19.1 16.794 0 30.409-13.615 30.409-30.409 0-16.794-13.615-30.408-30.409-30.408z"/><path d="M1013.937 977.009c-9.279 0-17.586 4.157-23.163 10.71-3.412-4.088-8.542-6.69-14.282-6.69-10.27 0-18.597 8.327-18.597 18.598 0 .169.008.336.013.504a18.452 18.452 0 0 0-3.029-.253c-10.132 0-18.345 8.213-18.345 18.345l36.678.503h12.49c4.489 11.194 15.438 19.1 28.235 19.1 16.794 0 30.409-13.615 30.409-30.409 0-16.794-13.615-30.408-30.409-30.408z" class="st17"/><g class="st18"><path d="M994.022 989.445c10.324-12.746 30.967-12.011 40.82.968a25.557 25.557 0 0 1 5.408 14.204c-1.003-4.934-3.174-9.558-6.468-13.332-10.06-11.855-28.52-12.496-39.76-1.84z" class="st19"/></g><g class="st18"><path d="M964.004 992.066c5.001-10.883 20.834-10.58 26.038.043 1.589 3.227 1.918 7.028.832 10.315.357-3.434-.39-6.835-2.039-9.66-5.495-9.258-18.653-9.425-24.831-.698z" class="st19"/></g><g class="st18"><path d="M949.753 1003.507c4.99-3.155 12.61-.398 14.417 5.228-1.054-.958-2.06-1.829-3.163-2.54-3.341-2.24-7.244-2.977-11.254-2.688z" class="st19"/></g><g fill="#f9fae4"><path d="m1000.99 992.636-1.787.978-.977 1.787-.978-1.787-1.787-.978 1.787-.977.978-1.787.977 1.787z"/><path d="m973.107 1002.71-1.787.977-.978 1.787-.977-1.787-1.787-.977 1.787-.978.977-1.787.978 1.787z" opacity=".8"/><path d="m1034.678 1005.725-1.787.978-.978 1.787-.977-1.787-1.787-.978 1.787-.977.977-1.787.978 1.787z" opacity=".95"/></g><path fill="#7cacd8" stroke="#7cacd8" stroke-miterlimit="10" stroke-width=".251" d="M1051.26 1030.008c14.105 32.165.648 70.088-31.116 85.98-32.788 16.406-72.668 3.125-89.073-29.664-9.15-18.286-9.066-38.777-1.514-56.172"/><path fill="#5d81a1" d="M1017.822 1080.136c-32.494 13.036-69.403-2.736-82.44-35.23a63.628 63.628 0 0 1-3.418-11.724c-5.396 14.32-5.723 30.597.425 45.919 13.036 32.494 49.946 48.267 82.44 35.23 28.632-11.487 44.253-41.51 38.648-70.716-6.048 16.05-18.483 29.632-35.655 36.521z" opacity=".15"/><path d="M993.509 1037.743zm-10.309 1.043zm3.787-.986zm8.981.445zm-11.64.165zm10.417-.451zm-4.107-.446zm1.589.083zm-2.794-.057zm-7.382 1.701zm15.485-.503zm9.469 6.662zm-1.88-2.037zm1.069 1.097zm1.536 1.881zm.662.965zm.771 1.306zm-9.293-8.899zm1.073.561zm-20.283-.385zm18.085-.686zm4.558 2.623zm.94.75zm-1.966-1.476zm-16.048 38.713zm-5.435-1.875zm-1.388-.773zm2.617 1.342zm-5.969-3.843zm3.581-34.207zm-2.432 35.187zm6.077 3.351zm1.632.514zm4.348.698zm1.32.029zm-2.955-.19zm22.104-30.329zm-31.421 26.742zm-7.652-9.535zm-.5-1.363zm6.267-22.802zm1.202-.962zm1.005-.71zm-7.46 26.99zm2.118 3.521zm.908 1.146zm.938 1.031zm-2.571-3.214zm-.735-1.213zm16.397-31.715zm13.172 39.573zm1.193-.767zm-9.058 3.575zm-1.502.164zm12.743-5.47zm-7.159 4.285zm1.245-.492zm-4.036 1.28zm1.587-.392zm3.875-1.558zm3.498-2.278zm6.428-24.75zm-4.265 22.77a21.264 21.264 0 0 0 5.125-9.167 21.258 21.258 0 0 0-.452-12.53c-.064-.108-11.77-19.554-34.196-9.117a21.26 21.26 0 0 0-6.615 10.59c-1.01 3.77-.94 7.573.011 11.088.439.931 11.874 24.558 36.127 9.136zm0 0z" class="st8"/><path d="M1001.973 1040.896c.103.066.203.135.304.203-.101-.068-.201-.137-.304-.203zm-4.805-2.288c.124.04.245.086.368.13-.123-.044-.244-.09-.368-.13zm1.176.43zm2.557 1.212.042.023-.042-.023zm8.649 9.097zm-10.027-9.798c.116.054.233.107.348.163-.115-.056-.232-.109-.348-.163zm7.219 5.533zm1.582 2.122.068.1-.068-.1zm2.298 4.676c-.014-.043-.033-.085-.048-.127.015.04.031.08.045.122l.003.005zm-.56-1.428c.05.117.101.233.15.35-.049-.117-.1-.233-.15-.35zm-2.56-4.415c.076.1.153.2.227.303-.074-.102-.151-.202-.227-.303zm-2.449-2.741c.023.023.049.044.072.066-.023-.022-.049-.043-.072-.066zm.901.9c.082.086.16.175.24.263-.08-.088-.158-.177-.24-.263zm-2.004-1.862c.097.08.197.16.293.241-.096-.082-.196-.16-.294-.24zm-.981-.756zm6.027 6.727c.058.101.111.205.167.306-.056-.101-.11-.205-.167-.306zm-26.182-9.375zm6.248-1.367c.124-.008.247-.018.371-.024-.124.006-.247.016-.371.024zm-7.344 1.819c.11-.05.222-.095.333-.142-.11.047-.223.093-.333.142zm-2.394 1.263c.104-.063.206-.128.31-.19-.104.062-.206.127-.31.19zm4.655-2.123c.116-.037.232-.076.35-.111-.118.035-.234.074-.35.111zm2.645-.662c.12-.023.242-.04.363-.06-.12.02-.242.037-.363.06zm1.19-.18zm4.036-.117c.125.009.25.022.377.033-.126-.011-.252-.024-.378-.033zm2.511.324c.128.024.256.045.384.072-.128-.027-.256-.048-.384-.072zm-16.069 3.427zm14.789-3.629zm-15.748 4.329c.096-.074.194-.145.292-.218-.098.073-.196.144-.292.218z" class="st25"/><path d="M1010.62 1051.875c-.015-.041-.032-.081-.046-.122a21.34 21.34 0 0 0-.363-.951c-.048-.117-.1-.233-.15-.35a21.558 21.558 0 0 0-.898-1.84c-.056-.102-.11-.205-.167-.307a21.44 21.44 0 0 0-.604-1l-.068-.1c-.19-.294-.39-.582-.595-.865-.074-.102-.151-.202-.227-.303a21.55 21.55 0 0 0-1.308-1.578c-.08-.088-.158-.177-.24-.263a21.201 21.201 0 0 0-.829-.834c-.023-.022-.049-.043-.072-.066a21.254 21.254 0 0 0-.81-.72c-.096-.083-.196-.161-.294-.242a21.2 21.2 0 0 0-1.672-1.235c-.101-.068-.201-.137-.304-.203a21.199 21.199 0 0 0-1.03-.623c-.013-.008-.028-.015-.042-.022a21.262 21.262 0 0 0-1.03-.54c-.115-.055-.232-.108-.348-.162a21.259 21.259 0 0 0-1.987-.812c-.123-.043-.244-.088-.368-.13-.395-.13-.794-.253-1.2-.362a21.405 21.405 0 0 0-1.223-.286c-.128-.027-.256-.048-.384-.072a21.67 21.67 0 0 0-1.28-.202 21.24 21.24 0 0 0-.854-.09c-.126-.01-.252-.023-.378-.032a21.025 21.025 0 0 0-1.211-.05c-.403-.004-.805.007-1.205.026-.124.006-.247.016-.371.024a21.14 21.14 0 0 0-2.075.237c-.12.02-.242.037-.363.06-.777.141-1.543.325-2.296.55-.117.036-.233.075-.35.112a21.32 21.32 0 0 0-1.927.718c-.11.047-.223.093-.333.142-.357.16-.71.327-1.058.506-.348.18-.688.37-1.025.568-.105.061-.207.126-.31.189a21.495 21.495 0 0 0-1.7 1.15c-.098.074-.196.145-.292.22-.31.24-.614.486-.91.743 22.426-10.437 34.132 9.01 34.196 9.117z" class="st8"/><path d="M1010.62 1051.875c-.015-.041-.032-.081-.046-.122a21.34 21.34 0 0 0-.363-.951c-.048-.117-.1-.233-.15-.35a21.558 21.558 0 0 0-.898-1.84c-.056-.102-.11-.205-.167-.307a21.44 21.44 0 0 0-.604-1l-.068-.1c-.19-.294-.39-.582-.595-.865-.074-.102-.151-.202-.227-.303a21.55 21.55 0 0 0-1.308-1.578c-.08-.088-.158-.177-.24-.263a21.201 21.201 0 0 0-.829-.834c-.023-.022-.049-.043-.072-.066a21.254 21.254 0 0 0-.81-.72c-.096-.083-.196-.161-.294-.242a21.2 21.2 0 0 0-1.672-1.235c-.101-.068-.201-.137-.304-.203a21.199 21.199 0 0 0-1.03-.623c-.013-.008-.028-.015-.042-.022a21.262 21.262 0 0 0-1.03-.54c-.115-.055-.232-.108-.348-.162a21.259 21.259 0 0 0-1.987-.812c-.123-.043-.244-.088-.368-.13-.395-.13-.794-.253-1.2-.362a21.405 21.405 0 0 0-1.223-.286c-.128-.027-.256-.048-.384-.072a21.67 21.67 0 0 0-1.28-.202 21.24 21.24 0 0 0-.854-.09c-.126-.01-.252-.023-.378-.032a21.025 21.025 0 0 0-1.211-.05c-.403-.004-.805.007-1.205.026-.124.006-.247.016-.371.024a21.14 21.14 0 0 0-2.075.237c-.12.02-.242.037-.363.06-.777.141-1.543.325-2.296.55-.117.036-.233.075-.35.112a21.32 21.32 0 0 0-1.927.718c-.11.047-.223.093-.333.142-.357.16-.71.327-1.058.506-.348.18-.688.37-1.025.568-.105.061-.207.126-.31.189a21.495 21.495 0 0 0-1.7 1.15c-.098.074-.196.145-.292.22-.31.24-.614.486-.91.743 22.426-10.437 34.132 9.01 34.196 9.117z" class="st25"/><path d="M970.784 1067.22c-.043-.099-.087-.197-.128-.297.04.1.085.198.128.298zm2.73 4.679c-.077-.1-.151-.2-.226-.302l.226.302zm-.763-1.06c-.062-.093-.127-.185-.188-.28.061.095.126.187.188.28zm-.833-1.328c-.031-.054-.06-.11-.09-.164.03.054.059.11.09.164zm-.584-1.095zm27.822 9.958c-.098.044-.198.084-.297.127.1-.043.199-.083.297-.127zm2.56-1.364zm-1.224.707c-.07.037-.137.076-.207.113.07-.037.138-.076.207-.113zm2.288-1.409c-.062.045-.127.086-.19.13.063-.044.128-.085.19-.13zm-4.827 2.558c-.113.043-.226.086-.34.126.114-.04.227-.083.34-.126zm7.088-4.403c-.088.083-.178.163-.268.244.09-.08.18-.161.268-.244zm-1.009.884c-.083.068-.165.138-.249.205.084-.067.166-.137.25-.205zm-13.072 4.883zm-21.155-15.826c.015.057.035.112.05.169-.012-.046-.023-.092-.036-.137l-.014-.032zm.417 1.363c-.024-.069-.044-.139-.066-.208.022.07.042.14.066.208zm24.958 13.936c-.118.027-.238.052-.357.077.12-.025.239-.05.358-.077zm-2.916.459c-.078.006-.157.01-.235.015.078-.006.157-.009.235-.015zm1.589-.202c-.107.018-.214.037-.321.053.107-.016.214-.035.32-.053zm-5.896.13c-.11-.013-.222-.03-.332-.045.11.015.221.032.332.045zm-10.661-4.371c-.032-.025-.062-.052-.093-.076.031.024.061.051.093.076zm3.559 2.25-.06-.032.06.032zm-4.522-3.054c-.094-.083-.186-.168-.279-.252.093.084.185.169.279.252zm6.039 3.733c-.117-.047-.234-.093-.349-.142.115.05.232.095.349.142zm-2.642-1.29c-.109-.063-.216-.129-.324-.194.108.065.215.13.324.194zm-1.124-.701c-.1-.066-.2-.13-.298-.198.098.067.199.132.298.198zm-4.31-3.793-.1-.121c.034.04.066.082.1.121zm15.205 7.35c-.08-.004-.16-.004-.241-.008.08.004.16.004.241.008zm-2.895-.331c-.126-.023-.251-.045-.377-.07.126.025.251.047.377.07zm-11.227-5.864c-.082-.082-.165-.162-.245-.245.08.083.163.163.245.245zm8.266 5.103c-.123-.04-.243-.085-.365-.128.122.043.242.087.365.128z" class="st26"/><path d="M992.03 1080.177c.077-.006.156-.009.234-.015.425-.037.848-.087 1.268-.15.107-.015.214-.034.32-.052.326-.053.65-.113.97-.18.12-.025.24-.05.359-.077.413-.095.824-.197 1.229-.315.406-.119.806-.253 1.204-.396.113-.04.226-.083.339-.126.305-.115.607-.237.906-.365.099-.043.199-.083.297-.127.382-.171.759-.352 1.13-.544l.206-.113a21.411 21.411 0 0 0 2.098-1.28c.063-.043.128-.084.19-.129.342-.241.676-.494 1.003-.756.084-.067.166-.137.25-.205.25-.208.498-.42.74-.64a21.366 21.366 0 0 0 1.172-1.135c-24.252 15.422-35.687-8.205-36.126-9.136l.037.137c.092.331.192.66.3.986.022.07.042.14.066.208.133.39.279.775.434 1.156.04.1.085.198.128.298a21.333 21.333 0 0 0 1.044 2.126c.03.054.059.11.09.164.204.356.42.705.645 1.049.061.094.126.186.188.279.174.256.352.51.537.758l.226.302c.22.287.447.568.682.844.034.04.066.082.1.121.27.312.55.614.838.91.08.083.163.163.245.245.22.219.445.434.675.644.093.084.185.169.279.252.283.25.572.493.87.728.031.024.061.051.093.076.328.257.667.502 1.012.74.098.067.199.132.298.198.262.175.529.344.8.507.108.065.215.13.324.194.349.201.702.396 1.064.578l.06.033c.382.19.773.368 1.17.537.114.05.231.095.348.142.298.122.601.237.908.346.122.043.242.087.365.128.416.14.837.27 1.267.386.438.117.878.216 1.317.304.126.026.251.048.377.071.34.063.68.116 1.019.162.11.015.221.032.332.045.435.052.87.091 1.303.116.08.004.16.004.241.008a21.225 21.225 0 0 0 2.528-.037z" class="st8"/><path d="M992.03 1080.177c.077-.006.156-.009.234-.015.425-.037.848-.087 1.268-.15.107-.015.214-.034.32-.052.326-.053.65-.113.97-.18.12-.025.24-.05.359-.077.413-.095.824-.197 1.229-.315.406-.119.806-.253 1.204-.396.113-.04.226-.083.339-.126.305-.115.607-.237.906-.365.099-.043.199-.083.297-.127.382-.171.759-.352 1.13-.544l.206-.113a21.411 21.411 0 0 0 2.098-1.28c.063-.043.128-.084.19-.129.342-.241.676-.494 1.003-.756.084-.067.166-.137.25-.205.25-.208.498-.42.74-.64a21.366 21.366 0 0 0 1.172-1.135c-24.252 15.422-35.687-8.205-36.126-9.136l.037.137c.092.331.192.66.3.986.022.07.042.14.066.208.133.39.279.775.434 1.156.04.1.085.198.128.298a21.333 21.333 0 0 0 1.044 2.126c.03.054.059.11.09.164.204.356.42.705.645 1.049.061.094.126.186.188.279.174.256.352.51.537.758l.226.302c.22.287.447.568.682.844.034.04.066.082.1.121.27.312.55.614.838.91.08.083.163.163.245.245.22.219.445.434.675.644.093.084.185.169.279.252.283.25.572.493.87.728.031.024.061.051.093.076.328.257.667.502 1.012.74.098.067.199.132.298.198.262.175.529.344.8.507.108.065.215.13.324.194.349.201.702.396 1.064.578l.06.033c.382.19.773.368 1.17.537.114.05.231.095.348.142.298.122.601.237.908.346.122.043.242.087.365.128.416.14.837.27 1.267.386.438.117.878.216 1.317.304.126.026.251.048.377.071.34.063.68.116 1.019.162.11.015.221.032.332.045.435.052.87.091 1.303.116.08.004.16.004.241.008a21.225 21.225 0 0 0 2.528-.037z" class="st26"/><path d="M941.781 1064.294zm1.136-15.254zm-1.166-.42zm2.028.86zm.765.508zm-5.617-1.605zm-1.168.182zm3.062-.132zm-.936-.079zm3.923 15.081zm.812-.56zm-1.82 1.067zm-1.976.558zm4.721-2.448a8.084 8.084 0 0 0 1.949-3.486 8.082 8.082 0 0 0-.173-4.766c-.055-.092-4.504-7.418-13-3.464a8.083 8.083 0 0 0-2.516 4.027 8.071 8.071 0 0 0 .019 4.246c.313.648 4.668 9.2 13.721 3.443zm.469-10.618zm-.781-.868zm1.318 1.634zm.433.79zm-1.439 9.062zm-13.458-2.651zm1.661 2.631zm2.588 1.838zm1.212.439zm-4.424-3.019zm5.426 3.214zm-3.937-1.67zm.829.572zm-.18-13.764zm-2.696 10.786zm7.038 4.15zm-3.53-15.396zm-1.754 1.154zm2.583-1.51z" class="st8"/><path d="M946.854 1052.736c.043.084.09.167.13.253-.04-.086-.087-.168-.13-.253zm-11.827-2.943c.077-.053.157-.1.235-.151-.078.05-.158.098-.235.151zm11.356 2.144zm.94 1.867c-.006-.019-.016-.036-.023-.055.006.017.015.033.02.051l.003.004zm-1.48-2.586c.06.07.114.144.17.216-.056-.072-.11-.146-.17-.216zm-.641-.678c.01.009.021.016.031.026l-.03-.027zm-2.552-1.618c.09.037.178.079.267.118-.09-.04-.176-.081-.268-.118zm-4.005-.514c.093-.011.188-.016.282-.025-.094.009-.189.014-.282.025zm.918-.058zm3.935.97zm-7.701.004zm8.513.499c.078.055.158.107.234.165-.076-.058-.156-.11-.234-.165zm-3.78-1.423c.098.011.194.019.291.033-.097-.014-.193-.022-.29-.032zm-3.887.53c.087-.035.172-.072.26-.104-.088.032-.173.07-.26.104z" class="st25"/><path d="M947.32 1053.8c-.005-.018-.014-.034-.02-.051a8.144 8.144 0 0 0-.316-.76c-.04-.086-.087-.169-.13-.253a8.148 8.148 0 0 0-.471-.799 8.203 8.203 0 0 0-.37-.503c-.056-.072-.11-.146-.17-.216a8.141 8.141 0 0 0-.61-.652l-.03-.027a8.102 8.102 0 0 0-.659-.551c-.076-.058-.156-.11-.234-.165a7.988 7.988 0 0 0-.812-.502 8.085 8.085 0 0 0-.58-.281c-.09-.04-.177-.081-.269-.118a8.174 8.174 0 0 0-.898-.302 8.203 8.203 0 0 0-.93-.187c-.097-.014-.194-.022-.29-.032a8.081 8.081 0 0 0-.646-.047 8.093 8.093 0 0 0-.958.03c-.094.008-.189.013-.282.024a8.11 8.11 0 0 0-.886.157c-.292.07-.576.16-.856.261-.088.032-.173.07-.26.104a8.092 8.092 0 0 0-.846.394c-.183.099-.36.206-.535.318-.078.05-.158.098-.235.151a8.149 8.149 0 0 0-.707.543c8.497-3.954 12.946 3.372 13 3.464z" class="st8"/><path d="M947.32 1053.8c-.005-.018-.014-.034-.02-.051a8.144 8.144 0 0 0-.316-.76c-.04-.086-.087-.169-.13-.253a8.148 8.148 0 0 0-.471-.799 8.203 8.203 0 0 0-.37-.503c-.056-.072-.11-.146-.17-.216a8.141 8.141 0 0 0-.61-.652l-.03-.027a8.102 8.102 0 0 0-.659-.551c-.076-.058-.156-.11-.234-.165a7.988 7.988 0 0 0-.812-.502 8.085 8.085 0 0 0-.58-.281c-.09-.04-.177-.081-.269-.118a8.174 8.174 0 0 0-.898-.302 8.203 8.203 0 0 0-.93-.187c-.097-.014-.194-.022-.29-.032a8.081 8.081 0 0 0-.646-.047 8.093 8.093 0 0 0-.958.03c-.094.008-.189.013-.282.024a8.11 8.11 0 0 0-.886.157c-.292.07-.576.16-.856.261-.088.032-.173.07-.26.104a8.092 8.092 0 0 0-.846.394c-.183.099-.36.206-.535.318-.078.05-.158.098-.235.151a8.149 8.149 0 0 0-.707.543c8.497-3.954 12.946 3.372 13 3.464z" class="st25"/><path d="M932.608 1060.509c-.015-.027-.027-.055-.042-.081.015.026.027.054.042.08zm10.356 3.367c-.053.024-.11.043-.164.066.055-.023.11-.042.164-.066zm-9.021-1.64c-.067-.067-.13-.136-.195-.204.065.069.128.137.195.204zm2.658 1.75c-.09-.037-.177-.078-.265-.117.088.04.175.08.265.117zm7.414-.684c-.07.044-.137.09-.207.133.07-.042.138-.09.207-.133zm.822-.597c-.071.059-.144.114-.216.17.072-.056.145-.111.216-.17zm-9.151.838c-.082-.045-.164-.089-.244-.137.08.048.162.092.244.137zm5.314.923c-.06.01-.117.025-.176.034.06-.009.117-.024.176-.034zm-6.348-1.598c-.013-.01-.025-.023-.039-.034l.04.034zm5.204 1.712c-.084.002-.168-.002-.252-.002.084 0 .168.004.252.002zm-7.664-4.916c-.037-.087-.07-.175-.105-.263.034.088.068.176.105.263zm1.098 1.836c-.056-.07-.113-.139-.166-.21.053.072.11.14.165.21zm-1.486-2.934c.015.057.04.11.056.167l-.036-.124-.02-.043zm7.032 5.97c-.095-.01-.19-.018-.286-.032.096.014.19.022.286.032zm2.945-.242z" class="st26"/><path d="M942.8 1063.942c.054-.023.11-.042.164-.066.29-.13.571-.279.844-.441.07-.042.138-.089.207-.133.208-.133.41-.275.606-.426.072-.057.145-.112.216-.17a8.1 8.1 0 0 0 .708-.654c-9.053 5.757-13.408-2.795-13.721-3.443l.036.124c.066.226.142.45.227.668a8.17 8.17 0 0 0 .48 1.026c.014.027.026.055.041.082.155.27.33.53.516.78.053.072.11.14.165.21a8.1 8.1 0 0 0 .46.533c.064.068.127.137.194.204.212.21.434.412.67.598.014.011.026.024.04.034.249.195.515.372.79.538.079.048.161.092.243.137.21.118.427.227.65.326.088.04.175.08.266.117.305.123.619.235.946.323.334.09.668.15 1.002.195.095.014.19.022.286.032.257.026.513.04.768.042.084 0 .168.004.252.002a7.98 7.98 0 0 0 .968-.08c.06-.009.117-.024.176-.034a8.059 8.059 0 0 0 1.8-.524z" class="st8"/><path d="M942.8 1063.942c.054-.023.11-.042.164-.066.29-.13.571-.279.844-.441.07-.042.138-.089.207-.133.208-.133.41-.275.606-.426.072-.057.145-.112.216-.17a8.1 8.1 0 0 0 .708-.654c-9.053 5.757-13.408-2.795-13.721-3.443l.036.124c.066.226.142.45.227.668a8.17 8.17 0 0 0 .48 1.026c.014.027.026.055.041.082.155.27.33.53.516.78.053.072.11.14.165.21a8.1 8.1 0 0 0 .46.533c.064.068.127.137.194.204.212.21.434.412.67.598.014.011.026.024.04.034.249.195.515.372.79.538.079.048.161.092.243.137.21.118.427.227.65.326.088.04.175.08.266.117.305.123.619.235.946.323.334.09.668.15 1.002.195.095.014.19.022.286.032.257.026.513.04.768.042.084 0 .168.004.252.002a7.98 7.98 0 0 0 .968-.08c.06-.009.117-.024.176-.034a8.059 8.059 0 0 0 1.8-.524z" class="st26"/><path d="m1011.182 1080.18.107-.02-.107.02zm-2.252 6.4zm-.474-.638-.018-.027.018.027zm-.29-.624zm6.224 1.514c-.037.034-.073.07-.112.104.04-.033.075-.07.113-.104zm-.643.482c-.036.021-.075.039-.113.059.038-.02.076-.037.113-.059zm-3.957-6.624c.04-.024.08-.049.121-.072-.041.023-.08.048-.121.072zm.708-.34c.034-.011.069-.02.103-.03-.034.01-.069.019-.103.03zm1.158 7.493zm2.994-6.438.07.075c-.022-.026-.047-.05-.07-.075zm-5.225 5.641-.015-.01.015.01zm2.911.766c-.028.004-.057.004-.085.007.028-.003.057-.003.085-.007zm1.794-6.89c.03.022.057.048.085.07-.029-.023-.055-.048-.085-.07z" class="st8"/><path d="M1009.251 1081.074a3.844 3.844 0 0 0-1.196 1.916 3.827 3.827 0 0 0 .033 2.066c.27.531 2.326 4.199 6.45 1.62a3.821 3.821 0 0 0 .98-1.687 3.843 3.843 0 0 0-.085-2.27c-.035-.059-2.149-3.522-6.182-1.645zm5.844.932c.024.04.046.082.07.123l-.07-.123zm-4.961 5.468zm3.307-6.968c.044.021.088.041.131.064-.043-.023-.087-.043-.13-.064zm-1.491-.371c.047.002.096.007.145.01-.05-.003-.097-.008-.146-.01zm1.185 7.465c-.052.02-.104.04-.158.058.054-.017.105-.038.158-.057z" class="st8"/><path d="M1009.911 1080.618zm4.304.375zm.505.487zm.717 1.244zm-6.186-1.65zm4.321-.504zm-1.477-.424zm-1.495.174zm.69-.16zm1.496.098z" class="st25"/><path d="M1015.433 1082.719a3.872 3.872 0 0 0-.269-.59l-.069-.123a3.886 3.886 0 0 0-.375-.526c-.022-.026-.047-.05-.07-.075a3.854 3.854 0 0 0-.435-.412c-.028-.023-.055-.049-.085-.071a3.84 3.84 0 0 0-.558-.352c-.043-.023-.087-.043-.13-.064a3.88 3.88 0 0 0-.656-.248 3.867 3.867 0 0 0-.691-.112c-.049-.004-.098-.009-.146-.011a3.83 3.83 0 0 0-.66.026c-.036.005-.071.013-.107.019a3.865 3.865 0 0 0-.581.14c-.034.01-.07.019-.103.03a3.883 3.883 0 0 0-.587.268l-.121.072a3.888 3.888 0 0 0-.539.384c4.033-1.877 6.147 1.586 6.182 1.645z" class="st8"/><path d="M1015.433 1082.719a3.872 3.872 0 0 0-.269-.59l-.069-.123a3.886 3.886 0 0 0-.375-.526c-.022-.026-.047-.05-.07-.075a3.854 3.854 0 0 0-.435-.412c-.028-.023-.055-.049-.085-.071a3.84 3.84 0 0 0-.558-.352c-.043-.023-.087-.043-.13-.064a3.88 3.88 0 0 0-.656-.248 3.867 3.867 0 0 0-.691-.112c-.049-.004-.098-.009-.146-.011a3.83 3.83 0 0 0-.66.026c-.036.005-.071.013-.107.019a3.865 3.865 0 0 0-.581.14c-.034.01-.07.019-.103.03a3.883 3.883 0 0 0-.587.268l-.121.072a3.888 3.888 0 0 0-.539.384c4.033-1.877 6.147 1.586 6.182 1.645z" class="st25"/><path d="M1013.634 1087.373zm-.657.285zm-.727.162zm-1.463-.1zm.689.113zm-1.496-.437zm-.57-.36zm-1.356-2.047c.016.06.04.115.059.173-.011-.034-.015-.071-.025-.106l-.034-.067zm.767 1.465zm5.769.193c-.017.012-.034.018-.052.03-.05.05-.095.106-.147.155.067-.062.137-.119.2-.185zm-.312.289zm-5.84-1.021z" class="st26"/><path d="M1008.088 1085.056c.01.035.014.072.025.106a3.885 3.885 0 0 0 .325.753l.018.027a3.887 3.887 0 0 0 .473.638c.148.163.306.32.481.456l.015.01a3.842 3.842 0 0 0 .71.428c.207.098.422.185.652.247a3.862 3.862 0 0 0 .869.122c.2.006.4 0 .595-.024.028-.003.057-.003.085-.007.22-.031.433-.086.641-.154.054-.017.106-.038.158-.057.172-.065.339-.14.5-.228.037-.02.076-.038.112-.059.187-.11.364-.238.53-.378.04-.033.076-.07.114-.104.052-.049.097-.105.147-.156-4.124 2.579-6.18-1.089-6.45-1.62z" class="st8"/><path d="M1008.088 1085.056c.01.035.014.072.025.106a3.885 3.885 0 0 0 .325.753l.018.027a3.887 3.887 0 0 0 .473.638c.148.163.306.32.481.456l.015.01a3.842 3.842 0 0 0 .71.428c.207.098.422.185.652.247a3.862 3.862 0 0 0 .869.122c.2.006.4 0 .595-.024.028-.003.057-.003.085-.007.22-.031.433-.086.641-.154.054-.017.106-.038.158-.057.172-.065.339-.14.5-.228.037-.02.076-.038.112-.059.187-.11.364-.238.53-.378.04-.033.076-.07.114-.104.052-.049.097-.105.147-.156-4.124 2.579-6.18-1.089-6.45-1.62z" class="st26"/><path d="M1028.24 1045.7c-.062.023-.122.047-.184.067.062-.02.122-.044.183-.067zm.712-.334c-.042.025-.088.045-.132.069.044-.024.09-.044.132-.07zm.75-.562c-.044.04-.086.083-.132.122.046-.039.087-.081.132-.122zm-3.737-7.744c.042-.007.083-.017.125-.023-.042.006-.083.016-.125.022zm-.795.198c.038-.014.08-.024.12-.037-.04.013-.081.023-.12.037zm1.688-.251zm2.54.916c.035.026.066.056.1.083-.034-.027-.065-.056-.1-.083zm.605.563c.027.03.056.057.082.088-.026-.03-.055-.058-.082-.088zm.518.7c.029.047.055.095.081.143-.026-.048-.052-.096-.08-.143zm-1.925-1.746c.051.024.103.047.152.073-.05-.026-.1-.05-.152-.073zm-4.251.214zm-.425 7.4-.017-.011.016.01zm.826.498zm-1.403-1.041zm3.967 1.435c-.033.005-.067.004-.1.008.033-.004.067-.003.1-.008zm-.793.035zm-3.725-2.211c-.006-.011-.015-.021-.021-.033.006.012.015.022.021.033z" class="st8"/><path d="M1029.873 1044.624a4.45 4.45 0 0 0 1.14-1.965c.243-.906.19-1.82-.097-2.643-.04-.067-2.501-4.101-7.199-1.915a4.477 4.477 0 0 0-1.392 2.23 4.46 4.46 0 0 0 .037 2.406c.314.617 2.71 4.89 7.511 1.887zm-7.419-1.581z" class="st8"/><path d="M1027.029 1037.02zm-.939.017zm1.743.113zm-3.347.42zm.804-.349zm-1.573.879zm5.78-.094zm-.749-.493zm1.337 1.061zm.835 1.448z" class="st25"/><path d="M1030.916 1040.016a4.522 4.522 0 0 0-.314-.687c-.026-.048-.052-.096-.08-.143a4.525 4.525 0 0 0-.437-.612c-.026-.03-.055-.058-.082-.088a4.508 4.508 0 0 0-.506-.48c-.033-.027-.064-.057-.099-.083a4.461 4.461 0 0 0-.65-.41c-.05-.026-.1-.05-.152-.073a4.489 4.489 0 0 0-.763-.29 4.505 4.505 0 0 0-.804-.13c-.057-.005-.114-.01-.17-.013a4.474 4.474 0 0 0-.769.03c-.042.006-.083.016-.125.022-.23.037-.456.091-.676.162-.04.013-.08.023-.12.037a4.478 4.478 0 0 0-.824.396c-.22.133-.433.278-.628.447 4.698-2.186 7.158 1.848 7.199 1.915z" class="st8"/><path d="M1030.916 1040.016a4.522 4.522 0 0 0-.314-.687c-.026-.048-.052-.096-.08-.143a4.525 4.525 0 0 0-.437-.612c-.026-.03-.055-.058-.082-.088a4.508 4.508 0 0 0-.506-.48c-.033-.027-.064-.057-.099-.083a4.461 4.461 0 0 0-.65-.41c-.05-.026-.1-.05-.152-.073a4.489 4.489 0 0 0-.763-.29 4.505 4.505 0 0 0-.804-.13c-.057-.005-.114-.01-.17-.013a4.474 4.474 0 0 0-.769.03c-.042.006-.083.016-.125.022-.23.037-.456.091-.676.162-.04.013-.08.023-.12.037a4.478 4.478 0 0 0-.824.396c-.22.133-.433.278-.628.447 4.698-2.186 7.158 1.848 7.199 1.915z" class="st25"/><path d="M1022.324 1042.659c.018.069.046.133.068.201-.013-.04-.018-.083-.03-.123a4.318 4.318 0 0 1-.038-.078zm1.579 2.384zm5.667-.117zm-1.514.841zm1.879-1.177c-.022.013-.041.02-.062.034-.058.06-.11.125-.171.18.078-.071.16-.138.233-.214zm-4.43 1.25zm.802.13zm.903-.016zm1.61-.519zm-6.05-1.698zm.446.628zm1.35 1.097z" class="st26"/><path d="M1022.362 1042.737c.012.04.017.083.03.123a4.514 4.514 0 0 0 .379.877c.006.012.015.022.021.033a4.513 4.513 0 0 0 .55.741c.173.19.356.372.56.532l.017.01a4.469 4.469 0 0 0 .827.499 4.5 4.5 0 0 0 .76.288 4.491 4.491 0 0 0 1.011.141c.234.009.466.001.693-.027.033-.004.067-.003.1-.008.254-.037.503-.1.746-.179.062-.02.122-.044.183-.067.2-.075.395-.163.581-.265.044-.024.09-.044.132-.07.218-.128.424-.276.618-.44.046-.038.088-.08.132-.12.06-.056.113-.122.171-.181-4.802 3.002-7.197-1.27-7.51-1.887z" class="st8"/><path d="M1022.362 1042.737c.012.04.017.083.03.123a4.514 4.514 0 0 0 .379.877c.006.012.015.022.021.033a4.513 4.513 0 0 0 .55.741c.173.19.356.372.56.532l.017.01a4.469 4.469 0 0 0 .827.499 4.5 4.5 0 0 0 .76.288 4.491 4.491 0 0 0 1.011.141c.234.009.466.001.693-.027.033-.004.067-.003.1-.008.254-.037.503-.1.746-.179.062-.02.122-.044.183-.067.2-.075.395-.163.581-.265.044-.024.09-.044.132-.07.218-.128.424-.276.618-.44.046-.038.088-.08.132-.12.06-.056.113-.122.171-.181-4.802 3.002-7.197-1.27-7.51-1.887z" class="st26"/><path d="M1010.521 1103.155zm-.744-3.223zm1.205 3.28zm.508-3.676zm-2.117 2.722zm.859-2.608zm1.732 3.302zm-1.322-3.437zm-.999 3.107zm1.811.533zm.86-.479zm-2.324.234zm2.35-2.869zm.257.324zm-1.535-.887zm-1.285.454a1.856 1.856 0 0 0-.564 1.93c.13.257 1.127 2.037 3.127.786.218-.222.389-.496.475-.818a1.864 1.864 0 0 0-.04-1.1c-.016-.026-1.041-1.709-2.998-.798zm2.225-.162z" class="st8"/><path d="M1012.522 1100.26c.025.036.053.069.075.105-.023-.036-.05-.07-.075-.104zm-2.405-.558c.037-.02.076-.035.115-.053-.039.018-.078.033-.115.053zm2.119.24zm-.346-.242c.04.02.075.046.112.07-.037-.024-.072-.05-.112-.07zm-1.389-.15zm2.269 1.169c0 .004.003.007.004.01l.002.003c-.002-.005-.005-.008-.006-.013zm-1.84-1.236c.044-.002.088-.007.132-.005-.044-.002-.087.003-.132.005z" class="st25"/><path d="M1012.597 1100.365c-.022-.036-.05-.07-.075-.104a1.887 1.887 0 0 0-.286-.32 1.87 1.87 0 0 0-.234-.171c-.037-.024-.072-.05-.112-.07a1.863 1.863 0 0 0-.4-.164 1.87 1.87 0 0 0-.428-.058c-.044-.002-.088.003-.132.005a1.877 1.877 0 0 0-.429.066 1.85 1.85 0 0 0-.269.1c-.039.018-.078.033-.116.053-.12.065-.235.14-.34.23 1.958-.91 2.983.772 2.998.798l-.004-.011a1.882 1.882 0 0 0-.173-.354z" class="st8"/><path d="M1012.597 1100.365c-.022-.036-.05-.07-.075-.104a1.887 1.887 0 0 0-.286-.32 1.87 1.87 0 0 0-.234-.171c-.037-.024-.072-.05-.112-.07a1.863 1.863 0 0 0-.4-.164 1.87 1.87 0 0 0-.428-.058c-.044-.002-.088.003-.132.005a1.877 1.877 0 0 0-.429.066 1.85 1.85 0 0 0-.269.1c-.039.018-.078.033-.116.053-.12.065-.235.14-.34.23 1.958-.91 2.983.772 2.998.798l-.004-.011a1.882 1.882 0 0 0-.173-.354z" class="st25"/><path d="M1009.382 1102.278c-.004-.007-.005-.014-.01-.02.005.006.006.013.01.02zm2.648.627c-.023.015-.043.033-.066.047.023-.014.043-.032.066-.047zm-2.833-1.075c.004.017.014.031.02.048l-.004-.016-.016-.032zm.904 1.149c-.038-.021-.074-.046-.11-.07.036.024.072.049.11.07zm1.462.151c-.036.01-.073.016-.11.025.037-.009.074-.015.11-.026zm.803-.496-.026.014-.026.028c.016-.016.036-.026.052-.042zm-1.254.573c-.043.002-.086.006-.13.005.044 0 .087-.003.13-.005zm-1.378-.499c-.031-.028-.063-.055-.091-.086.028.03.06.057.09.086z" class="st26"/><path d="m1009.213 1101.862.003.016c.04.132.09.26.157.38.004.006.005.013.01.02.07.125.16.238.26.344.028.03.06.058.09.086.08.074.166.141.258.201.036.024.072.049.11.07.131.072.27.135.42.176.154.04.309.055.461.057.044 0 .087-.003.13-.005.116-.007.23-.024.342-.052.036-.009.073-.015.109-.026a1.89 1.89 0 0 0 .401-.177c.023-.014.043-.032.066-.047.101-.066.196-.143.284-.23l.026-.027c-2 1.25-2.997-.529-3.127-.786z" class="st8"/><path d="m1009.213 1101.862.003.016c.04.132.09.26.157.38.004.006.005.013.01.02.07.125.16.238.26.344.028.03.06.058.09.086.08.074.166.141.258.201.036.024.072.049.11.07.131.072.27.135.42.176.154.04.309.055.461.057.044 0 .087-.003.13-.005.116-.007.23-.024.342-.052.036-.009.073-.015.109-.026a1.89 1.89 0 0 0 .401-.177c.023-.014.043-.032.066-.047.101-.066.196-.143.284-.23l.026-.027c-2 1.25-2.997-.529-3.127-.786z" class="st26"/><path d="M1039.644 1061.578zm-.428-.058zm-.08 3.734zm1.792-2.483c-.017-.027-1.042-1.707-2.998-.797a1.854 1.854 0 0 0-.564 1.93c.13.258 1.128 2.037 3.128.786.217-.222.388-.496.475-.818a1.863 1.863 0 0 0-.041-1.1zm-2.784 2.18zm.651-3.393zm.812 3.64zm-1.221-3.507zm1.732 3.303zm-1.443.203zm1.819-3.114zm.256.325zm-2.82-.434zm2.538 2.744zm-2.672-.054zm-.27-.364zm2.63-2.488z" class="st8"/><path d="M1040.389 1061.984zm.287.318c.025.036.052.069.075.106-.023-.037-.05-.07-.075-.106zm.254.472c-.002-.005-.006-.009-.007-.014l.005.011.001.003zm-.886-1.033c.04.021.075.047.112.071-.037-.024-.072-.05-.112-.07zm-1.774.003c.037-.02.077-.035.116-.053-.039.018-.078.033-.116.053zm.814-.219c.044-.002.088-.007.132-.005-.045-.002-.088.003-.132.005zm-.429.066z" class="st25"/><path d="m1040.928 1062.771-.005-.01a1.877 1.877 0 0 0-.172-.353c-.023-.037-.05-.07-.075-.106a1.884 1.884 0 0 0-.287-.318 1.847 1.847 0 0 0-.233-.172c-.037-.024-.073-.05-.112-.07a1.868 1.868 0 0 0-.4-.164 1.865 1.865 0 0 0-.428-.058c-.044-.002-.088.003-.132.005a1.852 1.852 0 0 0-.43.066c-.092.026-.181.06-.268.1-.039.018-.079.033-.116.053a1.88 1.88 0 0 0-.34.23c1.956-.91 2.981.77 2.998.797z" class="st8"/><path d="m1040.928 1062.771-.005-.01a1.877 1.877 0 0 0-.172-.353c-.023-.037-.05-.07-.075-.106a1.884 1.884 0 0 0-.287-.318 1.847 1.847 0 0 0-.233-.172c-.037-.024-.073-.05-.112-.07a1.868 1.868 0 0 0-.4-.164 1.865 1.865 0 0 0-.428-.058c-.044-.002-.088.003-.132.005a1.852 1.852 0 0 0-.43.066c-.092.026-.181.06-.268.1-.039.018-.079.033-.116.053a1.88 1.88 0 0 0-.34.23c1.956-.91 2.981.77 2.998.797z" class="st25"/><path d="M1038.255 1065.021c-.039-.021-.074-.046-.11-.07.036.024.071.049.11.07zm-.719-.701-.01-.02.01.02zm.351.43c-.03-.028-.062-.055-.09-.086.028.03.06.058.09.086zm-.537-.878c.005.017.015.032.02.049l-.004-.016-.016-.033zm2.834 1.075c-.023.015-.043.033-.066.047.023-.014.043-.032.066-.047zm-.467.224c-.036.012-.073.017-.11.027.037-.01.074-.015.11-.027zm.803-.495-.026.014-.026.028c.016-.016.036-.026.051-.042zm-1.254.574c-.044.002-.086.005-.13.004.044 0 .086-.002.13-.005z" class="st26"/><path d="m1037.366 1063.905.004.016c.04.131.09.259.156.378l.01.021a1.851 1.851 0 0 0 .608.631c.037.024.072.049.11.07.132.073.27.135.42.176.155.041.31.055.462.057a1.853 1.853 0 0 0 .471-.057c.037-.009.074-.014.11-.026a1.86 1.86 0 0 0 .4-.177c.024-.014.044-.032.067-.047.101-.066.196-.143.284-.23l.026-.027c-2 1.25-2.997-.528-3.128-.785z" class="st8"/><path d="m1037.366 1063.905.004.016c.04.131.09.259.156.378l.01.021a1.851 1.851 0 0 0 .608.631c.037.024.072.049.11.07.132.073.27.135.42.176.155.041.31.055.462.057a1.853 1.853 0 0 0 .471-.057c.037-.009.074-.014.11-.026a1.86 1.86 0 0 0 .4-.177c.024-.014.044-.032.067-.047.101-.066.196-.143.284-.23l.026-.027c-2 1.25-2.997-.528-3.128-.785z" class="st26"/><path d="M958.425 1078.625zm-2.479.249zm2.106.046zm-2.954-2.232a1.98 1.98 0 0 0 .017 1.069c.14.274 1.204 2.173 3.338.838.233-.237.415-.53.507-.873a1.989 1.989 0 0 0-.043-1.174c-.017-.027-1.11-1.824-3.2-.852a1.99 1.99 0 0 0-.619.992zm.188 1.49zm.288.39zm1.973-3.294zm-1.828.421zm.484-.3zm2.25.418zm-.946 3.324zm-.995-.001zm.128-3.884zm.45-.041zm1.003.312zm.635.637zm-1.724 3.037z" class="st8"/><path d="M956.08 1075.45c.04-.02.082-.037.123-.055-.041.018-.083.034-.123.056zm-.363.246h.001l.001-.001zm1.232-.479c.047-.002.093-.007.14-.006-.047-.001-.093.004-.14.006zm-.458.07zm2.427 1.263c-.001-.005-.005-.009-.006-.013l.005.01.001.003zm-.577-.843zm.306.34c.027.037.056.073.08.112-.024-.04-.053-.075-.08-.112zm-.674-.599c.042.022.08.05.12.075-.04-.025-.078-.053-.12-.075z" class="st25"/><path d="m958.917 1076.548-.005-.011a2.007 2.007 0 0 0-.184-.378c-.025-.04-.054-.075-.08-.112a1.999 1.999 0 0 0-.307-.34 1.985 1.985 0 0 0-.248-.184c-.04-.025-.078-.053-.12-.075a1.988 1.988 0 0 0-.426-.174 1.992 1.992 0 0 0-.457-.063c-.048-.001-.094.004-.141.006a1.998 1.998 0 0 0-.458.07 2.026 2.026 0 0 0-.288.108c-.04.018-.083.034-.123.056-.128.07-.25.149-.361.244l-.001.001c2.088-.972 3.182.825 3.199.852z" class="st8"/><path d="m958.917 1076.548-.005-.011a2.007 2.007 0 0 0-.184-.378c-.025-.04-.054-.075-.08-.112a1.999 1.999 0 0 0-.307-.34 1.985 1.985 0 0 0-.248-.184c-.04-.025-.078-.053-.12-.075a1.988 1.988 0 0 0-.426-.174 1.992 1.992 0 0 0-.457-.063c-.048-.001-.094.004-.141.006a1.998 1.998 0 0 0-.458.07 2.026 2.026 0 0 0-.288.108c-.04.018-.083.034-.123.056-.128.07-.25.149-.361.244l-.001.001c2.088-.972 3.182.825 3.199.852z" class="st25"/><path d="M956.063 1078.948c-.04-.022-.078-.049-.117-.074.039.025.076.051.117.074zm1.079.244c-.046.002-.091.006-.138.005.047 0 .092-.003.138-.005zm-1.846-.992-.01-.022.01.022zm-.198-.478c.005.018.016.034.021.051l-.004-.016-.017-.035zm.572.938c-.032-.031-.066-.06-.096-.092.03.032.064.06.097.091zm2.453.21c-.025.015-.046.035-.071.05.025-.015.046-.035.07-.05zm.357-.29-.027.015-.028.03c.017-.017.04-.027.056-.045zm-.856.529c-.038.012-.078.018-.117.028.04-.01.079-.016.117-.028z" class="st26"/><path d="m955.115 1077.757.004.016c.042.141.096.278.167.405l.01.022c.077.133.173.255.278.368.03.032.064.06.097.091.084.08.176.151.275.215.039.025.077.052.117.074.14.078.288.145.449.188.164.044.33.06.492.061.047 0 .092-.003.138-.005.124-.007.246-.026.365-.055.039-.01.079-.016.117-.028.15-.047.294-.11.428-.19.025-.014.046-.034.07-.05.11-.071.21-.153.303-.244l.028-.03c-2.134 1.335-3.199-.564-3.338-.838z" class="st8"/><path d="m955.115 1077.757.004.016c.042.141.096.278.167.405l.01.022c.077.133.173.255.278.368.03.032.064.06.097.091.084.08.176.151.275.215.039.025.077.052.117.074.14.078.288.145.449.188.164.044.33.06.492.061.047 0 .092-.003.138-.005.124-.007.246-.026.365-.055.039-.01.079-.016.117-.028.15-.047.294-.11.428-.19.025-.014.046-.034.07-.05.11-.071.21-.153.303-.244l.028-.03c-2.134 1.335-3.199-.564-3.338-.838z" class="st26"/><path d="M933.55 1084.624zm4.713 1.064zm-6.678-.634zm.831-.254zm6.591 1.382zm.669.561zm.758.843zm-5.044-2.914zm4.59 13.228zm-3.686-13.046zm-5.514.545zm10.597 3.698zm-10.535-3.251c.078.16.15.32.229.478a66.57 66.57 0 0 0 7.868 12.18c.34-.182.686-.378 1.04-.604a7.853 7.853 0 0 0 1.893-3.385 7.85 7.85 0 0 0-.168-4.63c-.052-.087-3.763-6.183-10.862-4.039zm3.638-1.252zm2.947.667zm3.529 3.069z" class="st8"/><path d="M931.333 1085.154c.084-.033.167-.07.252-.1-.086.03-.168.067-.252.1zm-.678.3c0 .003.002.005.003.007.04-.02.08-.042.122-.062-.041.02-.085.034-.125.055zm10.138 2.622zm-2.013-2.054c.076.053.154.104.227.16-.074-.056-.151-.107-.227-.16zm.872.7.024.02-.024-.02zm-6.375-2.074c.09-.011.182-.016.273-.024-.091.008-.182.013-.273.024zm6.993 2.729c.057.068.109.14.164.209-.055-.07-.107-.141-.165-.21zm-5.16-2.737c.093.01.187.018.28.032-.093-.014-.187-.021-.28-.032zm2.057.507c.088.035.173.076.26.114-.087-.038-.172-.079-.26-.114zm.825.387zm-3.822-.943zm7.08 4.26c.043.082.088.163.127.246-.04-.083-.084-.164-.127-.246zm.457 1.038c-.007-.02-.017-.037-.024-.056.007.017.015.034.02.052l.004.004z" class="st25"/><path d="m941.704 1089.885-.02-.052a7.902 7.902 0 0 0-.307-.736c-.04-.083-.084-.164-.127-.246a7.943 7.943 0 0 0-.457-.775 7.926 7.926 0 0 0-.36-.49c-.054-.07-.106-.141-.164-.21a7.887 7.887 0 0 0-.593-.633l-.024-.021a7.863 7.863 0 0 0-.645-.54c-.073-.056-.151-.107-.227-.16a7.882 7.882 0 0 0-.788-.488 7.81 7.81 0 0 0-.565-.273c-.087-.038-.172-.079-.26-.114a7.953 7.953 0 0 0-.873-.293 7.98 7.98 0 0 0-.903-.183c-.094-.013-.188-.02-.282-.03a7.939 7.939 0 0 0-.94-.05 7.927 7.927 0 0 0-.62.033c-.09.008-.182.013-.272.024-.29.036-.578.084-.86.152a7.84 7.84 0 0 0-.832.254c-.085.03-.168.067-.252.1a7.882 7.882 0 0 0-.553.245l-.122.062c.062.129.121.257.184.385 7.1-2.144 10.81 3.952 10.862 4.039z" class="st8"/><path d="m941.704 1089.885-.02-.052a7.902 7.902 0 0 0-.307-.736c-.04-.083-.084-.164-.127-.246a7.943 7.943 0 0 0-.457-.775 7.926 7.926 0 0 0-.36-.49c-.054-.07-.106-.141-.164-.21a7.887 7.887 0 0 0-.593-.633l-.024-.021a7.863 7.863 0 0 0-.645-.54c-.073-.056-.151-.107-.227-.16a7.882 7.882 0 0 0-.788-.488 7.81 7.81 0 0 0-.565-.273c-.087-.038-.172-.079-.26-.114a7.953 7.953 0 0 0-.873-.293 7.98 7.98 0 0 0-.903-.183c-.094-.013-.188-.02-.282-.03a7.939 7.939 0 0 0-.94-.05 7.927 7.927 0 0 0-.62.033c-.09.008-.182.013-.272.024-.29.036-.578.084-.86.152a7.84 7.84 0 0 0-.832.254c-.085.03-.168.067-.252.1a7.882 7.882 0 0 0-.553.245l-.122.062c.062.129.121.257.184.385 7.1-2.144 10.81 3.952 10.862 4.039z" class="st25"/><path d="M939.094 1098.69c.067-.05.133-.102.198-.155-.065.053-.132.104-.198.155z" class="st26"/><path d="M939.094 1098.69c.066-.051.133-.102.198-.155a7.9 7.9 0 0 0 .687-.635c-.354.226-.7.422-1.04.603l.155.187z" class="st8"/><path d="M939.094 1098.69c.066-.051.133-.102.198-.155a7.9 7.9 0 0 0 .687-.635c-.354.226-.7.422-1.04.603l.155.187z" class="st26"/><path d="M975.862 1087.561zm5.332 1.541zm-4.05-1.432zm5.099 2.13zm-2.228-1.299zm3.171 2.089zm-11.407-2.381zm2.771-.607zm3.868.325zm.041 21.463zm-8.679-1.216zm1.222.633zm8.852.1zm2.493-1.46zm-1.112.765zm-4.088 1.459zm-4.485-.261zm12.922-15.5zm-17.342-3.634c.309-.268.634-.513.97-.744a11.069 11.069 0 0 0-4.388 12.072c.428.885 6.39 12.6 18.79 4.715a11.07 11.07 0 0 0 2.668-4.773c.599-2.235.47-4.494-.237-6.527-.08-.132-6.171-10.156-17.803-4.743zm15.371 16.044zm-8.135 3.458zm-1.444-.101zm-3.39-20.982zm-4.04 16.581zm-1.42-2.587zm19.071-10.909zm.737 1.05zm-15.462-3.504zm-3.687 14.773zm1.617 2.193zm1.185 1.1z" class="st8"/><path d="M974.165 1087.637c.127-.016.257-.023.385-.035-.129.012-.258.019-.385.035zm8.98 2.918c.013.013.028.023.041.036-.013-.013-.028-.023-.041-.036zm-6.398-2.929c.132.014.265.024.397.044-.133-.02-.264-.03-.397-.044zm5.175 1.948c.107.075.217.147.32.225-.103-.079-.213-.15-.32-.225zm-6.499-2.017zm4.225.783c.125.05.245.108.367.161-.123-.053-.242-.111-.367-.16zm1.162.546zm-11.599.646c.104-.073.213-.137.32-.206-.107.069-.215.133-.32.206zm15.549 2.936zm.644 1.093c.06.116.124.23.18.348-.056-.118-.12-.232-.18-.348zm-1.382-2.078c.08.096.155.198.233.297-.078-.1-.152-.2-.233-.297zm1.993 3.463.03.073.003.006c-.01-.027-.023-.052-.033-.079zm-15.751-6.055zm1.16-.541c.118-.047.235-.098.355-.141-.12.043-.237.094-.355.142z" class="st25"/><path d="M985.584 1093.91c-.056-.119-.12-.233-.18-.349a11.218 11.218 0 0 0-.644-1.093 11.186 11.186 0 0 0-.505-.688c-.078-.1-.152-.2-.233-.297-.263-.31-.54-.611-.836-.892-.013-.013-.028-.023-.041-.036a11.099 11.099 0 0 0-.902-.756c-.104-.078-.214-.15-.32-.225a11.037 11.037 0 0 0-1.112-.688 11.103 11.103 0 0 0-.796-.385c-.123-.053-.242-.111-.367-.16a10.829 10.829 0 0 0-1.23-.414c-.424-.114-.85-.195-1.274-.257-.132-.02-.265-.03-.397-.044a11.133 11.133 0 0 0-1.324-.07c-.293.004-.584.02-.873.046-.129.012-.258.019-.385.035-.82.102-1.62.295-2.386.572-.12.043-.237.094-.355.142a11.187 11.187 0 0 0-1.16.54c-.25.135-.494.281-.733.435-.107.069-.216.133-.32.206-.335.231-.66.476-.969.744 11.632-5.413 17.723 4.611 17.803 4.743l-.03-.073a11.157 11.157 0 0 0-.431-1.037z" class="st8"/><path d="M985.584 1093.91c-.056-.119-.12-.233-.18-.349a11.218 11.218 0 0 0-.644-1.093 11.186 11.186 0 0 0-.505-.688c-.078-.1-.152-.2-.233-.297-.263-.31-.54-.611-.836-.892-.013-.013-.028-.023-.041-.036a11.099 11.099 0 0 0-.902-.756c-.104-.078-.214-.15-.32-.225a11.037 11.037 0 0 0-1.112-.688 11.103 11.103 0 0 0-.796-.385c-.123-.053-.242-.111-.367-.16a10.829 10.829 0 0 0-1.23-.414c-.424-.114-.85-.195-1.274-.257-.132-.02-.265-.03-.397-.044a11.133 11.133 0 0 0-1.324-.07c-.293.004-.584.02-.873.046-.129.012-.258.019-.385.035-.82.102-1.62.295-2.386.572-.12.043-.237.094-.355.142a11.187 11.187 0 0 0-1.16.54c-.25.135-.494.281-.733.435-.107.069-.216.133-.32.206-.335.231-.66.476-.969.744 11.632-5.413 17.723 4.611 17.803 4.743l-.03-.073a11.157 11.157 0 0 0-.431-1.037z" class="st25"/><path d="M966.83 1105.563c-.075-.095-.153-.19-.226-.287.073.098.15.191.227.287zm.896 1.007c-.092-.09-.178-.184-.266-.278.088.094.174.188.266.278zm.971.867c-.018-.014-.034-.03-.052-.045.018.014.034.03.052.045zm1.416.925c-.112-.063-.225-.123-.334-.188.11.066.222.125.334.188zm-5.316-6.816c.02.078.054.151.077.228l-.05-.17-.027-.058zm1.101 2.659c-.02-.034-.036-.071-.055-.106.02.035.035.072.055.106zm-.57-1.155c-.05-.12-.097-.24-.144-.361.047.12.093.241.144.36zm6.038 5.917c-.123-.05-.243-.106-.364-.16.121.054.24.11.364.16zm7.467.313zm1.247-.463c-.074.033-.151.058-.226.09.075-.032.151-.057.225-.09zm1.438-.787c-.095.061-.187.125-.283.182.096-.057.188-.12.283-.181zm1.126-.817c-.097.08-.197.157-.297.234.1-.077.2-.153.297-.234zm-5.253 2.412c-.082.014-.162.034-.244.046.082-.012.162-.032.244-.046zm-2.964.095a8.736 8.736 0 0 1-.393-.043c.131.018.262.03.393.044zm1.395.061c-.114.003-.23-.003-.344-.003.115 0 .23.006.344.003z" class="st26"/><path d="m964.824 1101.604.05.17c.09.31.194.615.31.915.047.12.093.242.145.36.154.359.323.71.514 1.05.02.035.035.072.055.106.212.371.452.726.706 1.07.073.099.151.193.227.288.198.252.408.495.629.73.088.093.174.187.266.277.29.289.595.566.919.822.018.014.034.03.052.045.342.267.707.51 1.082.737.109.066.222.125.334.188.287.16.584.31.89.445.12.054.24.11.363.16.42.17.848.323 1.296.443.457.122.915.204 1.372.267.131.018.262.03.393.044.352.036.702.055 1.05.057.115 0 .23.006.345.003.446-.011.89-.046 1.325-.11.082-.012.162-.032.244-.046a11.075 11.075 0 0 0 2.463-.718c.075-.032.152-.057.225-.09.398-.178.782-.382 1.156-.605.096-.057.188-.12.283-.181.285-.182.561-.377.83-.584.099-.077.199-.153.296-.234.338-.28.666-.574.97-.894-12.4 7.885-18.362-3.83-18.79-4.715z" class="st8"/><path d="m964.824 1101.604.05.17c.09.31.194.615.31.915.047.12.093.242.145.36.154.359.323.71.514 1.05.02.035.035.072.055.106.212.371.452.726.706 1.07.073.099.151.193.227.288.198.252.408.495.629.73.088.093.174.187.266.277.29.289.595.566.919.822.018.014.034.03.052.045.342.267.707.51 1.082.737.109.066.222.125.334.188.287.16.584.31.89.445.12.054.24.11.363.16.42.17.848.323 1.296.443.457.122.915.204 1.372.267.131.018.262.03.393.044.352.036.702.055 1.05.057.115 0 .23.006.345.003.446-.011.89-.046 1.325-.11.082-.012.162-.032.244-.046a11.075 11.075 0 0 0 2.463-.718c.075-.032.152-.057.225-.09.398-.178.782-.382 1.156-.605.096-.057.188-.12.283-.181.285-.182.561-.377.83-.584.099-.077.199-.153.296-.234.338-.28.666-.574.97-.894-12.4 7.885-18.362-3.83-18.79-4.715z" class="st26"/><path d="M1033.322 1092.509zm2.508 2.034zm-1.226-.845zm-2.207-2.288zm-1.534-2.796zm.71 1.522zm2.595-14.94zm9.583 20.974.001-.001c-.062.009-.126.014-.189.022.063-.008.126-.012.188-.02zm-2.372.1c-.045-.002-.09-.008-.135-.011.045.003.09.01.135.012zm-4.228-1.042zm3.151.926zm-1.356-.274zm3.752.388c-.09.005-.178.01-.268.013.09-.002.179-.008.268-.013zm7.624-20.732zm-1.02-.856zm-1.132-.753zm-1.277-.65zm4.585 3.545zm-17.31-1.626a11.966 11.966 0 0 0-3.722 5.96 11.95 11.95 0 0 0 .027 6.285c.383.793 4.861 9.575 13.977 7.778a66.541 66.541 0 0 0 8.32-15.807c-1.937-2.516-8.231-9.042-18.602-4.216zm18.105 2.759zm-16.713-3.785zm2.431-1.209zm-1.227.527zm2.494-.913zm4.533-.196zm1.377.277zm-2.763-.395zm-1.42.045z" class="st8"/><path d="M1043.361 1072.331c.144.016.287.027.43.048-.144-.021-.286-.032-.43-.048zm-2.79.012c.137-.017.276-.025.414-.037-.138.012-.277.02-.414.037zm-2.963.771c.127-.05.253-.106.383-.153-.13.047-.255.102-.383.153zm4.322-.857zm10.96 6.821.003-.006c-.053-.11-.116-.215-.172-.324.057.11.116.219.17.33zm-5.135-5.384zm3.47 2.806c.088.105.168.215.253.322-.085-.107-.165-.217-.253-.321zm-2.269-2.063c.116.081.234.158.346.243-.112-.085-.23-.162-.346-.243zm1.325 1.063c.013.013.028.023.04.036-.012-.013-.027-.023-.04-.035zm-13.927-1.802zm-1.138.693c.112-.078.23-.148.345-.222-.115.075-.233.144-.345.222zm16.808 3.175zm-5.526-4.462c.134.053.263.115.395.173-.132-.058-.26-.12-.395-.173z" class="st25"/><path d="M1052.273 1077.955a12.02 12.02 0 0 0-.796-1.133c-.084-.107-.164-.217-.252-.321a11.977 11.977 0 0 0-.903-.965c-.013-.013-.028-.023-.04-.035a12.05 12.05 0 0 0-.98-.82c-.112-.086-.23-.163-.346-.244a11.867 11.867 0 0 0-1.201-.743 11.96 11.96 0 0 0-.862-.417c-.132-.058-.26-.12-.395-.173a12.12 12.12 0 0 0-1.33-.448 12.09 12.09 0 0 0-1.377-.277c-.143-.021-.286-.032-.43-.048a11.95 11.95 0 0 0-1.43-.074c-.318.003-.633.02-.946.049-.138.012-.277.02-.414.037-.443.055-.882.128-1.313.232-.43.103-.852.237-1.267.386-.13.047-.256.102-.383.154a12.125 12.125 0 0 0-1.254.583c-.27.147-.534.305-.793.471-.115.074-.233.144-.345.222-.362.25-.715.516-1.048.805 10.37-4.826 16.666 1.7 18.603 4.216l.12-.334c-.054-.111-.113-.22-.17-.33-.14-.27-.288-.535-.448-.793z" class="st8"/><path d="M1052.273 1077.955a12.02 12.02 0 0 0-.796-1.133c-.084-.107-.164-.217-.252-.321a11.977 11.977 0 0 0-.903-.965c-.013-.013-.028-.023-.04-.035a12.05 12.05 0 0 0-.98-.82c-.112-.086-.23-.163-.346-.244a11.867 11.867 0 0 0-1.201-.743 11.96 11.96 0 0 0-.862-.417c-.132-.058-.26-.12-.395-.173a12.12 12.12 0 0 0-1.33-.448 12.09 12.09 0 0 0-1.377-.277c-.143-.021-.286-.032-.43-.048a11.95 11.95 0 0 0-1.43-.074c-.318.003-.633.02-.946.049-.138.012-.277.02-.414.037-.443.055-.882.128-1.313.232-.43.103-.852.237-1.267.386-.13.047-.256.102-.383.154a12.125 12.125 0 0 0-1.254.583c-.27.147-.534.305-.793.471-.115.074-.233.144-.345.222-.362.25-.715.516-1.048.805 10.37-4.826 16.666 1.7 18.603 4.216l.12-.334c-.054-.111-.113-.22-.17-.33-.14-.27-.288-.535-.448-.793z" class="st25"/><path d="M1043.563 1096.191zm-13.12-8.812c.023.084.06.163.084.247-.018-.061-.037-.123-.054-.185l-.03-.062zm2.199 4.342c-.081-.103-.166-.205-.245-.31.079.106.163.207.245.31zm.968 1.089c-.099-.098-.193-.2-.288-.301.095.101.189.203.288.301zm-2.591-3.806c-.056-.129-.106-.26-.156-.39.05.13.1.261.156.39zm11.411 7.277zm-7.77-2.534c-.02-.016-.037-.034-.056-.049.019.016.036.033.056.049zm-3.026-3.493c-.022-.039-.04-.08-.061-.118.022.038.039.08.06.118zm9.61 6.005zm-1.226-.149zm-2.473-.71c-.133-.053-.263-.114-.394-.172.131.058.26.119.394.173zm-1.355-.653c-.12-.068-.243-.133-.36-.204.117.072.24.136.36.204z" class="st26"/><path d="M1030.473 1087.441c.017.062.036.124.054.185.098.335.21.664.336.988.05.13.1.261.156.39.166.387.349.765.554 1.132.022.038.039.08.06.118.231.4.49.784.764 1.156.079.106.164.208.245.311.215.272.442.535.68.788.095.101.19.203.288.301.315.312.644.611.994.888.02.015.036.033.056.049.37.288.763.55 1.17.796.117.071.24.136.36.204.311.173.632.334.961.481.131.058.26.119.394.173.453.183.917.349 1.4.478a12.12 12.12 0 0 0 1.357.275c.314.047.629.083.942.105.045.003.09.01.135.012.352.02.702.021 1.05.01.09-.002.18-.008.27-.013.29-.015.578-.04.864-.077.063-.008.127-.013.19-.022.233-.316.47-.63.697-.95-9.116 1.797-13.594-6.985-13.977-7.778z" class="st8"/><path d="M1030.473 1087.441c.017.062.036.124.054.185.098.335.21.664.336.988.05.13.1.261.156.39.166.387.349.765.554 1.132.022.038.039.08.06.118.231.4.49.784.764 1.156.079.106.164.208.245.311.215.272.442.535.68.788.095.101.19.203.288.301.315.312.644.611.994.888.02.015.036.033.056.049.37.288.763.55 1.17.796.117.071.24.136.36.204.311.173.632.334.961.481.131.058.26.119.394.173.453.183.917.349 1.4.478a12.12 12.12 0 0 0 1.357.275c.314.047.629.083.942.105.045.003.09.01.135.012.352.02.702.021 1.05.01.09-.002.18-.008.27-.013.29-.015.578-.04.864-.077.063-.008.127-.013.19-.022.233-.316.47-.63.697-.95-9.116 1.797-13.594-6.985-13.977-7.778z" class="st26"/><path fill="#2f4d69" d="M1054.905 1023.139c0-4.729-5.042-8.598-11.205-8.598H936.144c-6.163 0-11.205 3.87-11.205 8.598s5.042 8.597 11.205 8.597H1043.7c6.163 0 11.205-3.868 11.205-8.597z" opacity=".6"/><path d="M1059.282 1021.402c0-5.114-5.398-9.299-11.995-9.299H933.592c-6.597 0-11.994 4.185-11.994 9.299s5.397 9.299 11.994 9.299h113.695c6.597 0 11.995-4.185 11.995-9.299z" class="st9"/><path fill="none" stroke="#e3edf6" stroke-linecap="round" stroke-miterlimit="10" stroke-width="2.071" d="M934.518 1016.181h71.714" opacity=".1"/><path fill="none" stroke="#e3edf6" stroke-linecap="round" stroke-miterlimit="10" stroke-width="1.853" d="M1011.41 1016.181h5.178" opacity=".15"/><path fill="none" stroke="#e3edf6" stroke-linecap="round" stroke-miterlimit="10" stroke-width="2.071" d="M1021.896 1016.181h22.481" opacity=".2"/><ellipse cx="990.475" cy="825.68" class="st7" rx="219.539" ry="49.163"/><path d="M1220.717 896.443s6.716-31.903-11.754-75.558c0 5.037-3.358 50.372-218.28 50.372h-.487c-214.922 0-218.28-45.335-218.28-50.372-18.47 43.655-11.753 75.558-11.753 75.558s211.563 99.065 460.554 0z" class="st8"/><circle cx="1293.648" cy="547.196" r="100.744" class="st8"/><circle cx="1348.488" cy="573.641" r="18.47" class="st17"/><circle cx="1348.488" cy="520.75" r="18.47" class="st17"/><circle cx="687.232" cy="547.196" r="100.744" class="st8"/><circle cx="632.391" cy="573.641" r="18.47" class="st17"/><circle cx="632.391" cy="520.75" r="18.47" class="st17"/><path fill="#fffff1" d="M1601.602 706.476c-78.47-31.28-166.073-2.028-211.16 65.528l-96.794-17.12 69.639 85.244c-13.752 80.047 29.704 161.542 108.175 192.822 90.154 35.937 192.37-8.014 228.308-98.167 35.937-90.153-8.014-192.37-98.168-228.307z"/><path d="m1602.94 944.097-.021-.045a181.18 181.18 0 0 1-5.57 2.085c1.856-.643 3.72-1.323 5.59-2.04zm-126.476 2.117a96.977 96.977 0 0 1-5.386-2.13l-.037.08c1.261.516 3.086 1.228 5.423 2.05z" class="st35"/><path d="M1537.006 725.814c-79.464 0-143.882 64.418-143.882 143.882 0 44.087 19.829 83.543 51.054 109.936 5.775-16.498 18.561-31.682 25.864-39.445-.09-3.448.304-9.147 2.849-16.042 1.035 4.844 10.788 8.03 19.047 9.879 12.046 2.697 28.051 4.183 45.068 4.183s33.022-1.486 45.068-4.183c8.259-1.85 18.011-5.035 19.047-9.88 2.544 6.897 2.94 12.595 2.85 16.043 7.302 7.762 20.088 22.947 25.862 39.445 31.226-26.393 51.055-65.849 51.055-109.936 0-79.464-64.418-143.882-143.882-143.882zm90.247 145.943c-6.11 18.428-18.457 34.274-34.72 45.375 4.73 1.94 7.31 4.075 7.31 6.163 0 6.539-25.249 13.54-62.837 13.54-37.588 0-62.837-7.001-62.837-13.54 0-2.088 2.58-4.224 7.311-6.163-16.263-11.101-28.611-26.947-34.72-45.375-14.923-1.275-26.638-13.79-26.638-29.042 0-15.936 12.787-28.882 28.66-29.144 13.63-33.25 47.987-56.85 88.224-56.85s74.595 23.6 88.224 56.85c15.873.261 28.661 13.208 28.661 29.144 0 15.253-11.715 27.767-26.638 29.042z" class="st35"/><path d="M1448.782 813.57c-15.873.262-28.661 13.21-28.661 29.145 0 15.253 11.715 27.767 26.637 29.041a83.609 83.609 0 0 1-4.249-26.369 83.642 83.642 0 0 1 6.273-31.816zm-15.379 42.141a5.345 5.345 0 1 1 0-10.689 5.345 5.345 0 0 1 0 10.69zm0-15.304a5.345 5.345 0 1 1 0-10.69 5.345 5.345 0 0 1 0 10.69z" class="st36"/><circle cx="1433.417" cy="835.064" r="5.345" class="st37"/><ellipse cx="1433.399" cy="850.345" class="st37" rx="5.344" ry="5.343"/><path d="M1452.54 984.2c-.166.555-.32 1.102-.468 1.645a144.375 144.375 0 0 0 6.727 4.64c1.02-9.766 2.65-18.683 4.31-26.074-4.592 6.091-8.473 12.794-10.57 19.79zm151.097-40.43c-.24.096-.479.188-.719.282l.021.045a184.46 184.46 0 0 1-10.538 3.679c4 18.817 14.576 33.67 22.7 42.78l.112-.072c-1.02-9.765-2.65-18.682-4.31-26.073 4.592 6.091 8.472 12.794 10.569 19.79.166.554.32 1.101.468 1.644a144.624 144.624 0 0 0 7.893-6.213c-5.774-16.498-18.56-31.682-25.863-39.445-.06 2.287-.333 3.583-.333 3.583z" class="st37"/><path d="M1610.903 964.412c1.66 7.39 3.291 16.307 4.31 26.072a144.452 144.452 0 0 0 6.727-4.639 68.466 68.466 0 0 0-.468-1.644c-2.096-6.996-5.977-13.699-10.569-19.79z" class="st37"/><path d="M1481.48 917.132c-4.731 1.94-7.312 4.075-7.312 6.163 0 6.539 25.25 13.54 62.838 13.54s62.837-7.001 62.837-13.54c0-2.088-2.58-4.224-7.311-6.163-15.588 10.64-34.774 16.922-55.526 16.922-20.752 0-39.938-6.282-55.526-16.922z" class="st36"/><path d="M1481.596 947.914a152.385 152.385 0 0 1-5.132-1.7 116.86 116.86 0 0 1-5.423-2.05l.037-.08c-.464-.202-.703-.314-.703-.314s-.273-1.296-.333-3.583c-7.303 7.763-20.09 22.947-25.864 39.445a144.43 144.43 0 0 0 7.894 6.213c.147-.543.302-1.09.468-1.644 2.096-6.996 5.977-13.7 10.569-19.79-1.66 7.391-3.291 16.308-4.31 26.073l.121.08a111.86 111.86 0 0 0 4.75-5.691c6.453-8.278 14.521-21.155 17.926-36.959zm13.628 3.649c-4.438 19.973-14.99 35.796-23.858 46.203 19.68 10.107 41.994 15.812 65.64 15.812 23.651 0 45.969-5.707 65.652-15.819-8.877-10.418-19.44-26.262-23.868-46.262-33.761 7.837-63.561 4.589-83.566.066z" class="st37"/><path d="M1597.35 946.137a182.324 182.324 0 0 0 5.57-2.084c.239-.095.478-.187.718-.282 0 0 .273-1.297.333-3.583.09-3.448-.305-9.147-2.85-16.042-1.035 4.844-10.788 8.03-19.046 9.879-12.046 2.697-28.052 4.183-45.068 4.183-17.017 0-33.023-1.486-45.069-4.183-8.258-1.85-18.011-5.036-19.046-9.88-2.545 6.897-2.94 12.595-2.85 16.043.06 2.286.333 3.583.333 3.583s.24.112.704.314c.927.404 2.755 1.17 5.386 2.13 1.503.529 3.219 1.103 5.132 1.7-3.405 15.803-11.473 28.681-17.925 36.958a111.624 111.624 0 0 1-4.75 5.69c4.015 2.6 8.167 5.006 12.445 7.203 8.868-10.407 19.42-26.23 23.858-46.203 20.005 4.523 49.805 7.772 83.566-.066 4.429 20 14.991 35.845 23.869 46.263a143.722 143.722 0 0 0 12.443-7.203c-8.125-9.111-18.701-23.964-22.7-42.781 1.641-.518 3.29-1.064 4.947-1.639zm27.88-132.567a83.643 83.643 0 0 1 6.273 31.817c0 9.183-1.488 18.04-4.25 26.37 14.923-1.275 26.638-13.79 26.638-29.042 0-15.936-12.788-28.883-28.661-29.144zm15.379 16.149a5.345 5.345 0 1 1 0 10.69 5.345 5.345 0 0 1 0-10.69zm0 25.992a5.345 5.345 0 1 1 0-10.689 5.345 5.345 0 0 1 0 10.69z" class="st36"/><circle cx="1640.603" cy="850.369" r="5.344" class="st37"/><circle cx="1640.636" cy="835.041" r="5.345" class="st37"/><path d="M1625.23 813.57c-13.63-33.25-47.987-56.85-88.224-56.85s-74.595 23.6-88.224 56.85a83.643 83.643 0 0 0-6.273 31.817 83.61 83.61 0 0 0 4.25 26.37c6.109 18.428 18.457 34.274 34.72 45.375 15.59 10.64 34.775 16.922 55.527 16.922s39.937-6.282 55.526-16.922c16.264-11.101 28.612-26.947 34.721-45.375a83.609 83.609 0 0 0 4.25-26.37 83.637 83.637 0 0 0-6.273-31.816zm-88.224 96.9c-63.506 0-80.65-30.57-80.65-68.28s36.108-68.28 80.65-68.28 80.65 30.57 80.65 68.28-17.144 68.28-80.65 68.28z" class="st37"/><path d="M1617.63 840.428c-.86-28.696-22.63-52.993-52.894-62.375a90.432 90.432 0 0 0-2.27-.667 91.383 91.383 0 0 0-4.946-1.244 91.849 91.849 0 0 0-4.261-.845 92.57 92.57 0 0 0-2.222-.355 93.54 93.54 0 0 0-7.826-.833 96.167 96.167 0 0 0-8.288-.176 94.925 94.925 0 0 0-10.2.764c-38.712 5.008-68.368 33.319-68.368 67.494 0 37.71 17.145 68.28 80.65 68.28s80.65-30.57 80.65-68.28c.001-.59-.008-1.177-.025-1.763z" class="st36"/><path fill="#635da8" d="M1452.54 984.2c-.166.555-.32 1.102-.468 1.645a144.375 144.375 0 0 0 6.727 4.64c1.02-9.766 2.65-18.683 4.31-26.074-4.592 6.091-8.473 12.794-10.57 19.79zm158.363-19.788c1.66 7.39 3.291 16.307 4.31 26.072a144.452 144.452 0 0 0 6.727-4.639 68.466 68.466 0 0 0-.468-1.644c-2.096-6.996-5.977-13.699-10.569-19.79z" opacity=".1"/><path d="M990.44 250c-180.365 0-326.58 137.194-326.58 306.43s146.215 306.431 326.58 306.431 326.58-137.193 326.58-306.43S1170.804 250 990.44 250z" class="st7"/><path d="M990.44 250c-180.365 0-326.58 137.194-326.58 306.43s146.215 306.431 326.58 306.431 326.58-137.193 326.58-306.43S1170.804 250 990.44 250zm0 531.36c-219.475 0-278.726-105.651-278.726-235.977s124.79-235.977 278.726-235.977 278.726 105.65 278.726 235.977-59.251 235.976-278.726 235.976z" class="st1"/><path fill="#d2cdd7" d="M990.44 781.36c-219.475 0-278.726-105.651-278.726-235.977 13.432 54.435 100.744 230.738 278.726 235.976z" opacity=".2"/><path fill="#f4f3f5" d="M1211.134 474.827c0 65.875-218.694-119.276-140.885-119.276 77.808 0 140.885 53.402 140.885 119.276z" opacity=".2"/><path d="M927.474 1219.465c0 5.743 4.656 10.398 10.398 10.398h105.135c5.743 0 10.398-4.655 10.398-10.398v-40.436c0-5.743-4.655-10.398-10.398-10.398H937.872c-5.742 0-10.398 4.655-10.398 10.398v40.436z" class="st8"/><path d="M945.382 1182.495h90.115v11.553h-90.115zm0 20.796h90.115v11.553h-90.115z" class="st1"/><path d="M593.835 821.59c.106.128.223.26.351.395a6.259 6.259 0 0 0 .835.732c.147.107.296.199.447.274l.245.79-5.265 1.633-.351-1.132 3.791-1.176a3.618 3.618 0 0 1-.435-.423 6.945 6.945 0 0 1-.386-.48l.768-.613zm.905 8.315c-.887.275-1.62.318-2.198.127-.578-.19-.959-.58-1.142-1.173s-.092-1.131.278-1.615c.369-.484.997-.863 1.883-1.138a4.86 4.86 0 0 1 1.211-.23 2.71 2.71 0 0 1 .978.118c.285.094.524.24.718.435.194.195.336.437.425.726.184.593.091 1.13-.278 1.614-.37.484-.995.863-1.876 1.136zm-.36-1.155c.264-.082.5-.168.707-.26.208-.093.381-.19.52-.295a.908.908 0 0 0 .295-.341.541.541 0 0 0 .018-.397.526.526 0 0 0-.238-.314c-.116-.067-.26-.105-.436-.115s-.374.007-.597.048a6.433 6.433 0 0 0-.73.185c-.263.082-.5.169-.71.262a2.55 2.55 0 0 0-.523.3.962.962 0 0 0-.294.34.525.525 0 0 0-.02.394.54.54 0 0 0 .24.317c.116.07.261.108.435.115.175.007.375-.01.6-.053.226-.042.47-.104.734-.186zm1.698 5.47c-.887.276-1.62.318-2.197.128-.578-.19-.96-.581-1.143-1.174-.184-.592-.091-1.13.278-1.614.369-.484.997-.863 1.883-1.138a4.86 4.86 0 0 1 1.212-.23c.367-.017.692.022.977.117.285.095.525.24.718.436.194.195.336.437.426.726.183.592.09 1.13-.279 1.614-.369.484-.994.862-1.875 1.136zm-.359-1.154c.264-.082.5-.169.707-.26.207-.093.38-.191.52-.296a.908.908 0 0 0 .294-.34.54.54 0 0 0 .019-.398.526.526 0 0 0-.239-.313c-.115-.067-.26-.105-.435-.115s-.375.007-.598.048a6.446 6.446 0 0 0-.73.185 6.44 6.44 0 0 0-.71.262c-.21.092-.384.192-.523.3a.961.961 0 0 0-.294.34.525.525 0 0 0-.02.394.54.54 0 0 0 .24.317c.116.07.261.107.436.115.174.006.374-.011.6-.053a6.69 6.69 0 0 0 .733-.186zm-65.249 8.175c.107.128.224.26.352.395a6.259 6.259 0 0 0 .835.732c.147.107.296.198.448.274l.245.79-5.266 1.633-.351-1.132 3.791-1.176a3.618 3.618 0 0 1-.435-.423 6.945 6.945 0 0 1-.386-.48l.768-.613zm.905 8.315c-.886.275-1.618.317-2.196.127-.579-.19-.96-.581-1.143-1.174s-.091-1.13.278-1.614c.369-.484.997-.863 1.883-1.138a4.86 4.86 0 0 1 1.212-.23c.366-.017.692.022.977.117.285.095.524.24.718.436.194.195.336.437.425.726.184.592.091 1.13-.278 1.614-.369.484-.994.862-1.876 1.136zm-.358-1.155c.264-.082.499-.169.707-.26.207-.093.38-.191.52-.296a.908.908 0 0 0 .294-.34.541.541 0 0 0 .019-.398.526.526 0 0 0-.24-.313c-.114-.067-.26-.105-.435-.115s-.374.007-.597.048a6.433 6.433 0 0 0-.73.185 6.44 6.44 0 0 0-.71.262c-.21.092-.384.192-.523.3a.962.962 0 0 0-.294.34.525.525 0 0 0-.02.394.54.54 0 0 0 .24.317c.116.07.261.108.436.115.174.006.374-.011.6-.053a6.69 6.69 0 0 0 .733-.186zm1.697 5.47c-.887.275-1.62.318-2.197.128-.578-.19-.96-.581-1.143-1.174-.184-.593-.091-1.13.278-1.615.37-.483.997-.863 1.884-1.138a4.86 4.86 0 0 1 1.211-.23c.367-.016.693.023.977.118.285.095.525.24.719.435.193.196.335.438.425.726.183.593.09 1.131-.278 1.615-.37.484-.995.862-1.876 1.135zm-.359-1.155c.264-.081.5-.168.707-.26.207-.092.38-.19.52-.295a.908.908 0 0 0 .295-.341.54.54 0 0 0 .018-.397.526.526 0 0 0-.239-.313.964.964 0 0 0-.435-.115 2.546 2.546 0 0 0-.597.048 6.446 6.446 0 0 0-.73.184c-.264.082-.5.17-.71.262a2.55 2.55 0 0 0-.524.3.96.96 0 0 0-.294.34.525.525 0 0 0-.02.394.54.54 0 0 0 .24.317c.117.07.262.108.436.115.174.007.374-.01.6-.052a6.59 6.59 0 0 0 .733-.187z" class="st41"/><path d="M515.98 686.544h68.037v150.151H515.98z" class="st41" transform="rotate(-7.615 549.99 761.627)"/><path d="m579.811 674.788-81.39 10.881 21.763 162.78 81.39-10.882-21.763-162.779zM537.543 836.66a9.384 9.384 0 0 0-10.545-8.059 9.369 9.369 0 0 0-2.285.616l-16.869-126.182c.77.092 1.562.101 2.366-.006a9.384 9.384 0 0 0 8.059-10.545 9.369 9.369 0 0 0-.616-2.285l44.793-5.988a9.371 9.371 0 0 0 .006 2.366 9.385 9.385 0 0 0 10.545 8.058 9.37 9.37 0 0 0 2.284-.616l16.87 126.183a9.372 9.372 0 0 0-2.367.006 9.384 9.384 0 0 0-8.058 10.545c.108.804.325 1.566.616 2.284l-44.793 5.989a9.37 9.37 0 0 0-.006-2.366z" class="st42"/><path d="m533.71 750.965-.012-.004a24.5 24.5 0 0 0-.194.851c.08-.361.152-.646.206-.847zm2.956 24.4c.167.33.345.661.526.992l.005-.003c-.184-.33-.36-.66-.53-.99z" class="st42"/><path d="M579.065 757.732c-2.146-16.053-16.9-27.328-32.954-25.182-9.186 1.229-16.8 6.588-21.238 13.954 3.622.31 7.382 2.59 9.384 3.995.608-.125 1.819-.254 3.407.096.06-.024.119-.058.184-.066a.751.751 0 0 1 .104-.007c.496 0 .999.477 1.484 1.277 1.741-3.317 4.424-6.029 7.751-7.647a5.71 5.71 0 0 1 4.946-5.926 5.71 5.71 0 0 1 6.404 4.829c6.81 1.785 12.288 7.826 13.332 15.64 1.045 7.812-2.654 15.08-8.756 18.592a5.71 5.71 0 0 1-4.91 6.341 5.71 5.71 0 0 1-6.33-4.419c-3.634-.687-6.934-2.598-9.486-5.34-.276.963-.669 1.574-1.2 1.645a.795.795 0 0 1-.107.007c-.033 0-.065-.018-.097-.022-1.262.66-2.351.895-3.015.965-1.47 1.806-4.549 5.17-8.056 6.519 6.204 5.826 14.878 8.919 23.971 7.703 16.054-2.146 27.328-16.9 25.182-32.954z" class="st42"/><path d="M537.968 776.464c-.44.047-.697.028-.697.028-.026-.046-.049-.092-.074-.138l-.005.003c.07.13.136.261.21.392 0 0-1.538.798-3.976 1.698-1.43 1.134-3.06 2.125-4.762 2.583-.185.05-.36.086-.538.126a29.427 29.427 0 0 0 1.786 1.827c3.507-1.349 6.586-4.713 8.056-6.519z" class="st43"/><path d="m536.667 775.365-.004-.008.003.008z" class="st44"/><path d="M533.426 778.447a44.535 44.535 0 0 1-4.952 1.51c-.377.09-.761.176-1.151.258.262.319.528.634.803.94.177-.039.354-.076.538-.125 1.703-.458 3.332-1.45 4.762-2.583z" class="st45"/><path d="M528.899 749.679c2.973.217 4.97.649 4.97.649s-.07.223-.171.633l.012.004c.062-.23.1-.355.1-.355s.168-.054.447-.111c-2.002-1.404-5.762-3.686-9.384-3.995-.44.73-.851 1.478-1.227 2.246.227-.014.457-.024.7-.025 1.514-.005 3.077.39 4.553.954z" class="st43"/><path d="M528.899 749.679c-1.476-.565-3.04-.96-4.554-.954-.242 0-.472.011-.7.025-.142.291-.278.585-.41.881.396-.024.787-.041 1.173-.053 1.635-.048 3.16.004 4.491.101z" class="st45"/><path d="M533.504 751.812a24.5 24.5 0 0 1 .194-.851c.102-.41.17-.633.17-.633s-1.996-.432-4.969-.649a44.125 44.125 0 0 0-4.491-.1c1.977 1.34 5.135 3.007 8.88 3.307.075-.41.148-.769.216-1.074zm3.159 23.545a35.13 35.13 0 0 1-.46-.932c-3.549 1.268-6.169 3.713-7.73 5.531 1.87-.45 3.559-.995 4.953-1.51 2.438-.899 3.975-1.697 3.975-1.697-.073-.131-.138-.261-.21-.392-.18-.33-.358-.662-.525-.992 0-.003-.002-.005-.003-.008zm-1.555-3.474c-2.46-6.4-2.574-12.3-2.194-16.255-4.565-.401-8.275-2.48-10.472-4.042a29.124 29.124 0 0 0-1.76 10.89.576.576 0 0 1 .036.177v.485c.042.785.106 1.573.212 2.366a29.188 29.188 0 0 0 5.116 13.034c1.712-2.087 4.753-5.072 9.062-6.655z" class="st43"/><path d="M532.914 755.628c.102-1.064.238-1.988.375-2.742-3.746-.3-6.904-1.967-8.881-3.308-.386.012-.778.03-1.174.053a29.15 29.15 0 0 0-.792 1.955c2.197 1.562 5.907 3.64 10.472 4.042zm3.29 18.797a35.095 35.095 0 0 1-1.096-2.542c-4.31 1.583-7.35 4.568-9.062 6.655.407.575.832 1.135 1.277 1.677.39-.082.774-.168 1.15-.259 1.561-1.818 4.181-4.263 7.73-5.531z" class="st44"/><path d="M520.682 762.475c.007.22.024.442.036.663v-.485a.576.576 0 0 0-.036-.178z" class="st43"/><path d="M533.71 750.965c-.054.201-.125.486-.206.847-.068.305-.141.665-.215 1.074a33.314 33.314 0 0 0-.375 2.742c-.38 3.956-.267 9.856 2.194 16.255.323.84.688 1.688 1.096 2.542.148.31.298.62.459.932 0 .003.002.005.004.008.17.329.346.659.53.989.025.046.048.092.074.138 0 0 .257.019.697-.028.664-.07 1.753-.305 3.015-.965-.966-.116-1.83-1.895-2.4-3.438-.836-2.271-1.541-5.343-1.983-8.65-.792-5.923-.59-12.161 1.064-12.816-1.588-.35-2.799-.221-3.407-.096-.28.057-.446.11-.446.11s-.04.125-.101.356z" class="st44"/><path d="M539.273 752.112c-.472-.829-.928-1.278-1.318-1.278a.498.498 0 0 0-.066.004c-1.26.169-1.953 5.245-.98 12.532.44 3.284 1.138 6.332 1.968 8.583.782 2.12 1.626 3.34 2.27 3.251.404-.054.749-.62 1-1.597-2.46-2.748-4.182-6.29-4.72-10.308s.194-7.889 1.846-11.187z" class="st44"/><path d="M536.6 763.411c.442 3.307 1.147 6.379 1.983 8.65.57 1.543 1.434 3.322 2.4 3.438.032.004.064.022.097.022a.795.795 0 0 0 .107-.007c.531-.071.924-.682 1.2-1.646-.08-.086-.161-.172-.24-.26-.251.976-.596 1.542-1 1.596-.644.089-1.488-1.13-2.27-3.251-.83-2.25-1.528-5.299-1.967-8.583-.974-7.287-.28-12.363.979-12.532a.498.498 0 0 1 .066-.004c.39 0 .846.45 1.318 1.278.053-.105.108-.209.163-.313-.485-.8-.988-1.277-1.484-1.277a.75.75 0 0 0-.104.007c-.065.008-.123.042-.184.066-1.654.655-1.856 6.893-1.064 12.816z" class="st43"/><path d="M551.874 779.21a5.71 5.71 0 0 0 6.328 4.418 5.71 5.71 0 0 0 4.911-6.341 16.362 16.362 0 0 1-6.011 2.062c-1.782.239-3.54.18-5.228-.14zm7.33.602a1.047 1.047 0 1 1 .279 2.076 1.047 1.047 0 0 1-.278-2.076zm-2.694 2.473a1.047 1.047 0 1 1-.278-2.076 1.047 1.047 0 0 1 .278 2.076z" class="st44"/><path d="M556.233 780.21a1.047 1.047 0 1 0 .277 2.075 1.047 1.047 0 0 0-.277-2.076zm3.249 1.678a1.047 1.047 0 1 0-.277-2.076 1.047 1.047 0 0 0 .277 2.076z" class="st43"/><path d="M558.537 743.055a5.71 5.71 0 0 0-6.404-4.83 5.71 5.71 0 0 0-4.946 5.927 16.384 16.384 0 0 1 5.008-1.509 16.35 16.35 0 0 1 6.342.412zm-4.712-3.486a1.047 1.047 0 1 1 .277 2.076 1.047 1.047 0 0 1-.277-2.076zm-2.695 2.473a1.047 1.047 0 1 1-.277-2.076 1.047 1.047 0 0 1 .277 2.076z" class="st44"/><path d="M550.853 739.966a1.047 1.047 0 1 0 .277 2.076 1.047 1.047 0 0 0-.277-2.076zm3.249 1.679a1.047 1.047 0 1 0-.277-2.076 1.047 1.047 0 0 0 .277 2.076zm-14.829 10.467c-1.652 3.298-2.383 7.168-1.845 11.187s2.259 7.56 4.719 10.308c.079.089.16.175.24.261 2.552 2.743 5.852 4.654 9.487 5.341 1.688.32 3.446.379 5.228.14a16.362 16.362 0 0 0 6.011-2.062c6.102-3.512 9.8-10.78 8.756-18.593-1.044-7.813-6.523-13.854-13.332-15.64a16.361 16.361 0 0 0-6.342-.41 16.384 16.384 0 0 0-5.008 1.508c-3.327 1.618-6.01 4.33-7.751 7.647-.055.104-.11.208-.163.313zm13.902-6.862c7.324-.98 14.2 5.24 15.356 13.89 1.156 8.651-3.844 16.458-11.168 17.437s-13.706-1.557-15.355-13.89c-1.649-12.335 3.843-16.458 11.167-17.437z" class="st43"/><ellipse cx="555.266" cy="760.913" class="st44" rx="13.379" ry="15.803" transform="rotate(-7.614 555.268 760.915)"/><circle cx="556.293" cy="808.708" r="11.731" class="st42"/><path d="M560.773 813.259a2.889 2.889 0 0 0 1.491-5.317 1.767 1.767 0 0 0-1.535-2.946l-.047.007a1.743 1.743 0 0 0-1.241-1.727m-.745 11.006.144-.085-1.53-11.454a6.293 6.293 0 0 0-5.21.794.75.75 0 0 1-1.141.962 6.309 6.309 0 0 0 1.557 9.825 1.142 1.142 0 1 1 1.723.645 6.289 6.289 0 0 0 4.457-.687m-3.128-.981a.178.178 0 1 1-.046.353.178.178 0 0 1 .046-.353zm-.723-8.516a.772.772 0 1 1 .198-1.53.772.772 0 0 1-.198 1.53zm-1.66 1.321a.19.19 0 1 1 .05-.376.19.19 0 0 1-.05.376zm-1.899 2.873a1.056 1.056 0 1 1 .272-2.096 1.056 1.056 0 0 1-.272 2.096zm2.058-.407a2.029 2.029 0 1 1 4.024.522 2.029 2.029 0 0 1-4.024-.522zm-1.75 2.909a.178.178 0 1 1 .045-.353.178.178 0 0 1-.046.353zm1.62.042a.367.367 0 1 1 .094-.728.367.367 0 0 1-.095.728zm3.811.448a.427.427 0 1 1 .848.11.427.427 0 0 1-.848-.11zm3.673 1.909c-.042.487-.334.882-.733.935-.395.053-.777-.244-.947-.696l-1.516-11.362c.05-.474.338-.854.73-.906.395-.053.777.244.947.696l1.519 11.333z" class="st43"/><path d="M572.11 679.368c.08.136.168.277.266.423a5.902 5.902 0 0 0 .662.813c.119.123.243.231.372.325l.104.774-5.157.69-.149-1.11 3.714-.496a3.412 3.412 0 0 1-.339-.462 6.596 6.596 0 0 1-.283-.508l.81-.449zm-.468 7.879c-.869.116-1.557.04-2.064-.227-.509-.268-.801-.692-.879-1.273-.077-.58.094-1.066.513-1.458.42-.392 1.064-.646 1.932-.762.432-.058.82-.066 1.164-.023.344.042.64.13.89.263s.45.306.6.518c.15.213.244.46.281.743.078.58-.093 1.066-.513 1.458-.42.392-1.061.646-1.924.761zm-.152-1.13a6.13 6.13 0 0 0 .699-.132c.207-.053.384-.117.53-.192a.857.857 0 0 0 .328-.271.51.51 0 0 0 .08-.367.496.496 0 0 0-.173-.329.91.91 0 0 0-.387-.175 2.402 2.402 0 0 0-.563-.05c-.215.003-.45.022-.709.057s-.492.078-.701.132c-.21.053-.389.118-.535.196a.906.906 0 0 0-.327.27.495.495 0 0 0-.08.364.51.51 0 0 0 .173.333.855.855 0 0 0 .387.175c.16.034.35.05.567.046.216-.004.453-.023.711-.058zm.717 5.357c-.868.116-1.557.04-2.064-.228-.508-.268-.801-.692-.879-1.272-.077-.58.094-1.067.513-1.459.42-.392 1.064-.646 1.932-.762.432-.057.82-.065 1.164-.023.344.043.64.13.89.264.25.133.45.306.6.518.15.212.244.46.281.743.078.58-.093 1.066-.513 1.458-.42.392-1.061.646-1.924.761zm-.152-1.131c.258-.035.491-.078.699-.131.207-.053.384-.117.53-.192a.857.857 0 0 0 .328-.271.51.51 0 0 0 .08-.367.496.496 0 0 0-.173-.33c-.097-.08-.226-.138-.387-.175s-.35-.053-.563-.05c-.215.004-.45.023-.708.058a6.17 6.17 0 0 0-.702.131c-.21.054-.389.119-.535.197a.906.906 0 0 0-.327.27.496.496 0 0 0-.08.363.51.51 0 0 0 .173.333.855.855 0 0 0 .387.176c.161.034.35.049.567.045.216-.003.453-.023.711-.057zm-62.001-2.679c.079.136.167.277.265.423a5.893 5.893 0 0 0 .662.813c.12.123.243.231.372.325l.104.774-5.157.69-.148-1.11 3.713-.496a3.414 3.414 0 0 1-.338-.462 6.557 6.557 0 0 1-.284-.507l.811-.45zm-.469 7.88c-.868.116-1.556.04-2.064-.228s-.801-.692-.879-1.272c-.077-.581.094-1.067.514-1.459.42-.392 1.063-.646 1.931-.762.432-.058.82-.065 1.164-.023s.64.13.89.263c.25.134.45.306.6.519s.244.46.282.742c.077.58-.094 1.067-.514 1.459-.42.392-1.061.645-1.924.76zm-.151-1.131c.258-.035.49-.079.698-.131.207-.054.384-.118.53-.193a.857.857 0 0 0 .328-.27.51.51 0 0 0 .08-.367.497.497 0 0 0-.173-.33.91.91 0 0 0-.387-.175 2.403 2.403 0 0 0-.563-.05c-.214.004-.45.023-.708.057a6.156 6.156 0 0 0-.702.132c-.21.053-.389.119-.535.196a.907.907 0 0 0-.327.271.495.495 0 0 0-.08.363.51.51 0 0 0 .173.333.855.855 0 0 0 .387.175c.161.034.35.05.567.046.216-.004.454-.023.712-.057zm.716 5.357c-.868.116-1.556.04-2.064-.227-.508-.268-.801-.692-.879-1.273-.077-.58.094-1.066.514-1.458.42-.392 1.063-.646 1.931-.762.432-.058.82-.066 1.164-.023.344.042.64.13.89.263.251.133.45.306.6.518.15.213.244.46.282.743.077.58-.094 1.066-.514 1.458-.42.392-1.061.646-1.924.761zm-.151-1.13a6.12 6.12 0 0 0 .698-.132c.207-.053.384-.117.53-.192a.857.857 0 0 0 .328-.271.51.51 0 0 0 .08-.367.497.497 0 0 0-.173-.329.91.91 0 0 0-.387-.175 2.402 2.402 0 0 0-.563-.05 5.92 5.92 0 0 0-.708.057 6.17 6.17 0 0 0-.702.132 2.41 2.41 0 0 0-.535.196.907.907 0 0 0-.327.27.495.495 0 0 0-.08.364.51.51 0 0 0 .173.333.855.855 0 0 0 .387.175c.161.034.35.05.567.046a6.18 6.18 0 0 0 .712-.058z" class="st41"/><path fill="none" stroke="#598d3f" stroke-miterlimit="10" stroke-width=".469" d="M510.521 705.354c6.412-.857 10.93-6.77 10.073-13.181l39.532-5.285c.857 6.411 6.77 10.93 13.182 10.072l16.166 120.922c-6.412.857-10.93 6.77-10.073 13.182l-39.532 5.285c-.857-6.412-6.77-10.93-13.182-10.073l-16.166-120.922z"/><circle cx="543.706" cy="714.56" r="11.731" class="st42"/><path d="M548.187 719.11a2.889 2.889 0 0 0 1.491-5.317 1.767 1.767 0 0 0-1.535-2.946l-.047.008a1.743 1.743 0 0 0-1.241-1.727m-.745 11.006c.048-.028.096-.056.144-.086l-1.531-11.453a6.293 6.293 0 0 0-5.209.794.75.75 0 0 1-1.141.962 6.309 6.309 0 0 0 1.557 9.825 1.142 1.142 0 1 1 1.723.645 6.289 6.289 0 0 0 4.457-.687m-3.129-.981a.178.178 0 1 1-.046.353.178.178 0 0 1 .046-.353zm-.723-8.516a.772.772 0 1 1 .199-1.53.772.772 0 0 1-.199 1.53zm-1.66 1.321a.19.19 0 1 1 .05-.377.19.19 0 0 1-.05.377zm-1.898 2.873a1.056 1.056 0 1 1 .271-2.096 1.056 1.056 0 0 1-.271 2.096zm2.058-.407a2.03 2.03 0 1 1 4.024.522 2.03 2.03 0 0 1-4.024-.522zm-1.751 2.909a.178.178 0 1 1 .046-.353.178.178 0 0 1-.046.353zm1.62.042a.367.367 0 1 1 .094-.728.367.367 0 0 1-.094.728zm3.812.448a.427.427 0 1 1 .847.11.427.427 0 0 1-.847-.11zm3.672 1.909c-.041.487-.333.882-.733.935-.395.053-.777-.245-.947-.696l-1.516-11.362c.05-.474.339-.854.73-.907.395-.052.777.245.948.697l1.518 11.333z" class="st43"/><g class="st3"><path d="M523.396 783.252c7.09-1.497 37.983 12.086 30.195 37.73-6.557 21.59-5.772 39.088-22.066 43.54-13.52 3.693-22.835 6.747-29.164.447-6.33-6.3-23.95-72.218 21.035-81.717z" class="st4"/></g><path d="M520.82 782.36c7.063-1.619 38.187 11.426 30.845 37.2-6.182 21.702-5.094 39.184-21.308 43.917-13.454 3.927-22.715 7.142-29.152.953-6.438-6.19-25.199-71.793 19.616-82.07z" class="st1"/><g class="st3"><path d="M497.077 806.883c-7.354 23.477-.133 53.57 3.932 57.63 6.328 6.301 15.642 3.249 29.162-.445 11.53-3.155 14.515-12.823 17.59-25.86-2.576 4.562-6.224 7.86-12.1 9.46-13.519 3.695-19.144 4.584-25.823-1.353-7.737-6.881-13.35-23.056-12.76-39.432z" class="st4"/></g><path fill="#331b42" d="M600.875 855.04c-.692-6.643-33.774-27.356-23.135-37.994 13.405-13.406 41.065 11.072 41.065 11.072" opacity=".15"/><path d="M601.739 854.175c-.691-6.642-33.773-27.355-23.135-37.993 13.406-13.406 41.066 11.072 41.066 11.072" class="st1"/></svg>