<svg xmlns="http://www.w3.org/2000/svg" fill="none" viewBox="0 0 120 120"><path fill="#F3C70D" d="M107.605 119.943c-.015.077-95.591.077-95.605 0 0-16.493 8.36-31.035 21.076-39.622 7.629-5.152 17.453-2.679 27.353-2.679 9.717 0 18.13-2.584 25.675 2.395 12.954 8.548 21.501 23.229 21.501 39.906Z"/><path fill="#EDBD35" d="M107.605 119.942c-.015.077-95.591.077-95.605 0 61.976-14.09 74.142-39.918 74.104-39.905 12.954 8.547 21.501 23.229 21.501 39.905Z" opacity=".45"/><path fill="#F3C70D" d="M33.074 80.32c7.63-5.151 17.454-2.678 27.354-2.678 9.717 0 18.13-2.584 25.675 2.395"/><path fill="#fff" d="M85.436 59.74c-.09-1.22-.456-2.454-1.157-3.681H37.021c-.7 1.227-1.07 2.46-1.159 3.68-.217 2.926 1.168 5.786 3.408 8.393 1.728 2.013 3.967 3.874 6.376 5.493a45.792 45.792 0 0 0 3.427 2.09c4.43 2.45 8.892 4.005 11.443 4.166h.268c2.551-.16 7.01-1.716 11.442-4.165a43.857 43.857 0 0 0 5.451-3.542c1.512-1.16 2.907-2.413 4.086-3.734 2.396-2.688 3.899-5.66 3.673-8.7Z"/><path fill="#fff" d="M85.151 60.194c-.088 1.207-.45 2.426-1.144 3.64H37.289c-.693-1.214-1.057-2.433-1.146-3.64-.214-2.892 1.155-5.719 3.369-8.296 1.708-1.99 3.922-3.83 6.303-5.43a45.281 45.281 0 0 1 3.388-2.067c4.38-2.422 8.79-3.959 11.313-4.118h.264c2.523.159 6.93 1.696 11.311 4.118a43.346 43.346 0 0 1 5.39 3.501c1.494 1.146 2.874 2.386 4.039 3.691 2.368 2.657 3.854 5.596 3.631 8.601Z"/><path fill="#371A45" d="M40.339 62.29c1.7 2.969 1.285 5.741-.142 7.307l.142-7.307Z" opacity=".15"/><path fill="#fff" d="M60.665 78.969c2.075 3.46 2.566 6.282 2.566 6.282v3.636h11.29c-.126-1.755.25-3.134.25-3.134 11.79-12.914 3.386-36.11 3.386-36.11-18.94 7.523-35.12 0-35.12 0s-8.403 23.196 3.387 36.11c0 0 .376 1.379.25 3.134h11.29v-3.636s.501-2.884 2.633-6.394l.068.112Z"/><path fill="#233A4F" d="M68.84 91.104c3.142 0 5.689-.936 5.689-2.091 0-1.155-2.547-2.092-5.688-2.092-3.142 0-5.689.937-5.689 2.092s2.547 2.091 5.689 2.091Zm-16.478 0c3.142 0 5.688-.936 5.688-2.091 0-1.155-2.546-2.092-5.688-2.092s-5.688.937-5.688 2.092 2.547 2.091 5.688 2.091Z"/><path fill="#260E43" d="M60.609 48.156c9.057 0 16.4-1.644 16.4-3.671 0-2.028-7.343-3.671-16.4-3.671-9.058 0-16.4 1.643-16.4 3.67 0 2.028 7.342 3.672 16.4 3.672Z"/><path fill="#46739D" d="M77.81 49.77s.5-2.383-.879-5.643c0 .376-.25 3.762-16.305 3.762h-.037c-16.055 0-16.306-3.386-16.306-3.762-1.38 3.26-.878 5.642-.878 5.642s15.804 7.398 34.404 0Z"/><path fill="#7DAEDA" d="M80.031 75.699c-5.12 2.252-10.286 3.676-15.376 4.234a45.747 45.747 0 0 1-3.311.243 22.184 22.184 0 0 1 1.493 3.564 49.866 49.866 0 0 0 2.082-.178c4.473-.48 8.99-1.576 13.48-3.27a25.98 25.98 0 0 0 1.632-4.593ZM59.84 80.205a42.992 42.992 0 0 1-8.246-.761c-4.64-.89-8.334-2.455-10.375-3.547a25.617 25.617 0 0 0 1.783 4.817 43.191 43.191 0 0 0 7.712 2.262c2.496.49 5.044.772 7.621.846.281-.904.752-2.172 1.504-3.617Zm20.955-18.323a28.842 28.842 0 0 1-1.259-1.505c-1.67-2.143-3.76-5.48-4.635-9.574a46.7 46.7 0 0 1-3.515.96c1.595 7.2 6.272 12.313 8.549 14.449-5.09 2.228-10.223 3.637-15.28 4.192-4.437.487-8.83.322-13.06-.49-4.697-.9-8.426-2.493-10.451-3.586 2.224-2.061 7.04-7.223 8.668-14.547a45.55 45.55 0 0 1-3.518-.942c-.879 4.078-2.962 7.401-4.628 9.538a28.59 28.59 0 0 1-1.264 1.51c-.26 2.53-.362 5.276-.153 8.065 2.132 1.067 5.707 2.56 10.466 3.496 2.935.576 5.941.865 8.984.865 1.73 0 3.472-.093 5.22-.28 5.326-.57 10.714-2.017 16.047-4.306.187-2.713.084-5.383-.17-7.845Z"/><path fill="#F6F5F7" d="M76.665 17.255c.312 4.909-16.868-7.854-11.067-8.222 5.8-.368 10.755 3.313 11.067 8.222Z" opacity=".2"/><path fill="#46739D" d="M83.159 29.781a7.524 7.524 0 0 0 7.525-7.523 7.524 7.524 0 0 0-7.525-7.522 7.524 7.524 0 0 0-7.526 7.522 7.524 7.524 0 0 0 7.526 7.523Z"/><path fill="#F3C70D" d="M87.372 25.349a1.38 1.38 0 1 0 0-2.76 1.38 1.38 0 0 0 0 2.76Zm-.25-3.942a1.38 1.38 0 1 0 0-2.759 1.38 1.38 0 0 0 0 2.76Z"/><path fill="#46739D" d="M37.95 32.65a7.524 7.524 0 0 0 7.525-7.523 7.524 7.524 0 0 0-7.526-7.523 7.524 7.524 0 0 0-7.525 7.523 7.524 7.524 0 0 0 7.526 7.522Z"/><path fill="#F3C70D" d="M33.987 28.735a1.38 1.38 0 1 0 0-2.759 1.38 1.38 0 0 0 0 2.76Zm-.252-3.941a1.38 1.38 0 1 0 0-2.76 1.38 1.38 0 0 0 0 2.76Z"/><path fill="#260E43" d="M62.047 47.215c13.447-.853 23.698-11.768 22.897-24.38-.8-12.611-12.35-22.143-25.796-21.29C45.7 2.398 35.45 13.313 36.25 25.925c.8 12.611 12.35 22.143 25.796 21.29Z"/><path fill="#fff" d="M84.945 22.835C84.144 10.224 72.595.692 59.148 1.545 45.7 2.398 35.45 13.313 36.25 25.925c.8 12.611 12.35 22.144 25.797 21.29 13.446-.853 23.697-11.768 22.897-24.38ZM61.662 41.142C45.3 42.18 40.382 34.587 39.766 24.875 39.15 15.163 47.953 6.7 59.43 5.972c11.476-.728 21.28 6.554 21.896 16.266.617 9.712-3.3 17.866-19.663 18.904Z"/><path fill="#D4CFD9" d="M61.661 41.142C45.3 42.18 40.382 34.587 39.766 24.875c1.259 3.993 8.602 16.719 21.895 16.267Z" opacity=".2"/><path fill="#F6F5F7" d="M76.665 17.255c.312 4.909-16.868-7.854-11.067-8.222 5.8-.368 10.755 3.313 11.067 8.222Z" opacity=".2"/><path fill="#46739D" stroke="#46739D" stroke-miterlimit="10" stroke-width="6.649" d="M62.352 55.785c-.693 0-1.313.31-1.73.8a1.389 1.389 0 0 0-2.456.89l.001.036a1.37 1.37 0 0 0-1.597 1.351l2.74.038h.933a2.272 2.272 0 0 0 4.381-.845 2.271 2.271 0 0 0-2.272-2.27Z"/><path fill="#46739D" d="M65.14 59.742a4.956 4.956 0 0 1-2.324 6.42 4.96 4.96 0 0 1-6.767-6.41"/><path stroke="#46739D" stroke-miterlimit="10" stroke-width="4.876" d="M65.14 59.742a4.956 4.956 0 0 1-2.324 6.42 4.96 4.96 0 0 1-6.767-6.41"/><path fill="#46739D" d="M65.74 59.099c0-.382-.403-.694-.896-.694h-8.493c-.493 0-.896.312-.896.694 0 .382.403.694.896.694h8.493c.493 0 .896-.312.896-.694Z"/><path stroke="#46739D" stroke-miterlimit="10" stroke-width="4.876" d="M65.74 59.099c0-.382-.403-.694-.896-.694h-8.493c-.493 0-.896.312-.896.694 0 .382.403.694.896.694h8.493c.493 0 .896-.312.896-.694Z"/><path fill="#E9AD02" stroke="#E9AD03" stroke-miterlimit="10" stroke-width="1.773" d="M62.352 55.785c-.693 0-1.313.31-1.73.8a1.389 1.389 0 0 0-2.456.89l.001.036a1.37 1.37 0 0 0-1.597 1.351l2.74.038h.933a2.272 2.272 0 0 0 4.381-.845 2.271 2.271 0 0 0-2.272-2.27Z"/><path fill="#F3C70D" d="M62.352 55.785c-.693 0-1.313.31-1.73.8a1.389 1.389 0 0 0-2.456.89l.001.036a1.37 1.37 0 0 0-1.597 1.351l2.74.038h.933a2.272 2.272 0 0 0 4.381-.845 2.271 2.271 0 0 0-2.272-2.27Z"/><path fill="#E9AD03" d="M60.863 56.713c.772-.952 2.314-.897 3.05.072.238.302.38.678.404 1.06a2.164 2.164 0 0 0-.484-.995c-.747-.884-2.134-.933-2.97-.137Zm-2.242.196c.371-.812 1.56-.79 1.945.003.12.241.142.525.062.77a1.184 1.184 0 0 0-.152-.721c-.405-.69-1.399-.703-1.855-.052Zm-1.062.855c.372-.238.945-.027 1.077.39a1.315 1.315 0 0 0-1.077-.39Z" opacity=".45"/><path fill="#FBFCE6" d="m61.386 56.95-.134.074-.073.133-.073-.133-.133-.073.133-.073.073-.133.073.133.134.073Z"/><path fill="#FBFCE6" d="m59.304 57.703-.134.073-.073.133-.073-.133-.133-.073.133-.073.073-.134.073.134.134.073Z" opacity=".8"/><path fill="#FBFCE6" d="m63.903 57.928-.133.073-.073.134-.073-.134-.134-.073.134-.072.073-.134.073.133.133.073Z" opacity=".95"/><path fill="#7DAEDA" d="M65.14 59.742a4.96 4.96 0 1 1-9.091.01"/><path stroke="#7DAEDA" stroke-miterlimit="10" stroke-width=".222" d="M65.14 59.742a4.96 4.96 0 1 1-9.091.01"/><path fill="#5E83A3" d="M62.643 63.485a4.736 4.736 0 0 1-6.414-3.506 4.71 4.71 0 0 0 .032 3.429 4.736 4.736 0 0 0 9.045-2.65 4.717 4.717 0 0 1-2.663 2.727Z" opacity=".15"/><path fill="#46739D" d="M60.6 63.493a1.595 1.595 0 1 0 0-3.19 1.595 1.595 0 0 0 0 3.19Z"/><path fill="#172734" d="M62.105 61.376a1.594 1.594 0 0 0-2.554-.681c1.68-.782 2.554.68 2.554.68Z" opacity=".5"/><path fill="#BAB2CC" d="M59.059 62.31a1.595 1.595 0 0 0 2.7.685c-1.849 1.175-2.7-.684-2.7-.684Z" opacity=".25"/><path fill="#46739D" d="M56.806 62.325a.607.607 0 1 0 0-1.214.607.607 0 0 0 0 1.214Z"/><path fill="#172734" d="M57.38 61.52a.606.606 0 0 0-.972-.26.738.738 0 0 1 .972.26Z" opacity=".5"/><path fill="#BAB2CC" d="M56.219 61.875a.606.606 0 0 0 1.026.26c-.702.447-1.026-.26-1.026-.26Z" opacity=".25"/><path fill="#46739D" d="M62.193 64.062a.289.289 0 1 0 0-.577.289.289 0 0 0 0 .577Z"/><path fill="#172734" d="M62.466 63.679a.288.288 0 0 0-.462-.123.351.351 0 0 1 .462.123Z" opacity=".5"/><path fill="#BAB2CC" d="M61.914 63.848a.288.288 0 0 0 .488.124c-.334.212-.488-.124-.488-.124Z" opacity=".25"/><path fill="#46739D" d="M63.305 60.936a.336.336 0 1 0 0-.672.336.336 0 0 0 0 .672Z"/><path fill="#172734" d="M63.622 60.49a.336.336 0 0 0-.538-.144.409.409 0 0 1 .538.144Z" opacity=".5"/><path fill="#BAB2CC" d="M62.98 60.687a.336.336 0 0 0 .569.144c-.39.247-.569-.144-.569-.144Z" opacity=".25"/><path fill="#46739D" d="M62.136 65.209a.14.14 0 1 0 0-.28.14.14 0 0 0 0 .28Z"/><path fill="#172734" d="M62.267 65.023a.14.14 0 0 0-.224-.06.17.17 0 0 1 .224.06Z" opacity=".5"/><path fill="#BAB2CC" d="M62 65.105a.14.14 0 0 0 .237.06c-.162.103-.237-.06-.237-.06Z" opacity=".25"/><path fill="#46739D" d="M64.238 62.375a.14.14 0 1 0 0-.28.14.14 0 0 0 0 .28Z"/><path fill="#172734" d="M64.368 62.19a.14.14 0 0 0-.224-.06c.148-.07.224.06.224.06Z" opacity=".5"/><path fill="#BAB2CC" d="M64.102 62.27a.14.14 0 0 0 .236.06c-.162.104-.236-.06-.236-.06Z" opacity=".25"/><path fill="#46739D" d="M58.102 63.416a.15.15 0 1 0 0-.299.15.15 0 0 0 0 .3Z"/><path fill="#172734" d="M58.243 63.218a.15.15 0 0 0-.24-.064.183.183 0 0 1 .24.064Z" opacity=".5"/><path fill="#BAB2CC" d="M57.957 63.305a.15.15 0 0 0 .253.064c-.173.11-.253-.064-.253-.064Z" opacity=".25"/><path fill="#46739D" d="M56.402 64.996a.59.59 0 1 0 0-1.178.59.59 0 0 0 0 1.178Z"/><path fill="#172734" d="M56.96 64.214a.589.589 0 0 0-.944-.252.716.716 0 0 1 .943.252Z" opacity=".5"/><path fill="#BAB2CC" d="M55.832 64.559a.589.589 0 0 0 .997.253c-.682.434-.997-.253-.997-.253Z" opacity=".25"/><path fill="#46739D" d="M59.485 65.7a.83.83 0 1 0 0-1.662.83.83 0 0 0 0 1.661Z"/><path fill="#172734" d="M60.27 64.597a.83.83 0 0 0-1.33-.355c.874-.407 1.33.355 1.33.355Z" opacity=".5"/><path fill="#BAB2CC" d="M58.684 65.084a.83.83 0 0 0 1.405.357c-.962.611-1.405-.357-1.405-.357Z" opacity=".25"/><path fill="#46739D" d="M64.455 64.691a.898.898 0 1 0 0-1.795.898.898 0 0 0 0 1.795Z"/><path fill="#172734" d="M65.303 63.5a.897.897 0 0 0-1.438-.384c.946-.44 1.438.384 1.438.384Z" opacity=".5"/><path fill="#BAB2CC" d="M63.586 64.026a.898.898 0 0 0 1.52.385c-1.04.661-1.52-.385-1.52-.385Z" opacity=".25"/><path fill="#2F4D69" d="M65.414 59.23c0-.354-.377-.643-.837-.643h-8.035c-.46 0-.837.29-.837.642 0 .353.377.642.837.642h8.035c.46 0 .837-.289.837-.642Z" opacity=".6"/><path fill="#7DAEDA" d="M65.74 59.099c0-.382-.403-.694-.896-.694h-8.493c-.493 0-.896.312-.896.694 0 .382.403.694.896.694h8.493c.493 0 .896-.312.896-.694Z"/><path stroke="#E5EFF8" stroke-linecap="round" stroke-miterlimit="10" stroke-width="1.827" d="M56.42 58.71h5.357" opacity=".1"/><path stroke="#E5EFF8" stroke-linecap="round" stroke-miterlimit="10" stroke-width="1.634" d="M62.164 58.71h.387" opacity=".15"/><path stroke="#E5EFF8" stroke-linecap="round" stroke-miterlimit="10" stroke-width="1.827" d="M62.947 58.71h1.68" opacity=".2"/><path fill="#fff" d="M56.364 54.91s.226 1.17-.377 1.63c-.932.71-2.331-1.89-2.844-1.975"/><path fill="#fff" d="M56.523 54.631s.388 1.128-.145 1.666c-.824.833-2.573-1.545-3.093-1.557"/><path fill="#46739D" d="M55.902 73.89c0 .429.348.776.777.776h7.854a.777.777 0 0 0 .776-.776v-3.02a.777.777 0 0 0-.776-.776h-7.854a.777.777 0 0 0-.777.777v3.019Z"/><path fill="#fff" d="M63.972 71.13H57.24v.862h6.732v-.863Zm0 1.552H57.24v.863h6.732v-.863Z"/><path fill="#000" stroke="#000" stroke-miterlimit="10" stroke-width="4.85" d="M48.716 82.761a3.135 3.135 0 1 0 .001-6.27 3.135 3.135 0 0 0-.001 6.27Z" opacity=".12"/><path stroke="#000" stroke-miterlimit="10" stroke-width="1.608" d="M48.685 75.588v-2.042m-.783 2.354v-2.014m1.567 2.041v-2.013" opacity=".12"/><path fill="#000" stroke="#000" stroke-miterlimit="10" stroke-width="4.85" d="M71.278 86.356a3.135 3.135 0 1 0 .002-6.27 3.135 3.135 0 0 0-.002 6.27Z" opacity=".12"/><path fill="#000" d="M43.566 70.64c-3.969-9.046-.149-19.598 8.697-24.021a18.44 18.44 0 0 1 14.165-1.01 18.432 18.432 0 0 1 10.73 9.297 18.507 18.507 0 0 1 .424 15.694l-1.398-.607a16.987 16.987 0 0 0-.389-14.405 16.917 16.917 0 0 0-9.849-8.534 16.926 16.926 0 0 0-13.001.927c-8.119 4.06-11.625 13.745-7.983 22.048l-1.396.612Z" opacity=".25"/><path stroke="#000" stroke-miterlimit="10" stroke-width="1.608" d="M71.248 79.183V77.14m-.783 2.354V77.48m1.566 2.042V77.51" opacity=".12"/><path fill="#F3C70D" stroke="#E7AD22" stroke-miterlimit="10" stroke-width="4.85" d="M48.45 82.72a3.135 3.135 0 1 0 .001-6.27 3.135 3.135 0 0 0 0 6.27Z"/><path stroke="#E7AD22" stroke-miterlimit="10" stroke-width="1.608" d="M48.42 75.546v-2.042m-.783 2.353v-2.013m1.566 2.041v-2.013"/><path fill="#000" stroke="#000" stroke-miterlimit="10" stroke-width="4.85" d="M57.872 79.252a3.135 3.135 0 1 0 .001-6.27 3.135 3.135 0 0 0-.001 6.27Z" opacity=".12"/><path stroke="#000" stroke-miterlimit="10" stroke-width="1.608" d="M57.84 72.077v-2.041m-.783 2.352v-2.013m1.566 2.042v-2.013" opacity=".12"/><path fill="#000" stroke="#000" stroke-miterlimit="10" stroke-width="4.85" d="M65.147 76.117a3.135 3.135 0 1 0 .002-6.27 3.135 3.135 0 0 0-.002 6.27Z" opacity=".12"/><path stroke="#000" stroke-miterlimit="10" stroke-width="1.608" d="M65.115 68.944v-2.042m-.783 2.353v-2.013m1.566 2.041V67.27" opacity=".12"/><path fill="#F3C70D" stroke="#E7AD22" stroke-miterlimit="10" stroke-width="4.85" d="M71.026 86.607a3.135 3.135 0 1 0 .002-6.27 3.135 3.135 0 0 0-.002 6.27Zm-13.42-7.272a3.135 3.135 0 1 0 .002-6.27 3.135 3.135 0 0 0-.002 6.27Zm7.276-3.26a3.135 3.135 0 1 0 .001-6.27 3.135 3.135 0 0 0-.001 6.27Z"/><path fill="#7DAEDA" d="M44.132 70.127c-3.81-8.686-.175-18.926 8.406-23.218 8.858-4.43 19.632-.844 24.064 8.01a17.883 17.883 0 0 1 .409 15.17"/><path stroke="#7DAEDA" stroke-miterlimit="10" stroke-width=".802" d="M44.132 70.127c-3.81-8.686-.175-18.926 8.406-23.218 8.858-4.43 19.632-.844 24.064 8.01a17.883 17.883 0 0 1 .409 15.17"/><path fill="#5E83A3" d="M53.168 56.59c8.778-3.521 18.75.738 22.271 9.513a17.12 17.12 0 0 1 .924 3.166c1.457-3.867 1.546-8.263-.115-12.4-3.522-8.775-13.493-13.034-22.271-9.514-7.735 3.102-11.956 11.21-10.441 19.096 1.634-4.334 4.993-8.001 9.632-9.862Z" opacity=".15"/><path fill="#46739D" d="m62.2 67.863-.052.014.051-.014Zm3.898-7.166.016.056-.016-.056Zm-.088-.272.014.04-.014-.04Zm-8.754 6.634-.035-.025.035.025Zm-.496-9.065.023-.021-.023.02Zm9.043 1.918c.005.013.011.024.017.036-.006-.012-.012-.023-.017-.036Zm-.256-.489.019.032-.02-.032Zm-4.177 8.62-.04.006.04-.006Zm-3.864-.819-.045-.028.045.028Zm8.178-7.556.027.053c-.01-.017-.018-.035-.027-.053Zm-.28-.478.033.05-.033-.05Zm-3.738 8.803-.053.01.053-.01Zm4.248-7.821.022.055a5.17 5.17 0 0 0-.022-.055Zm-8.941-2.355.05-.038-.05.038Zm5.495 9.959-.038.013.038-.013Zm-5.28-10.121.038-.028-.038.028Zm-.592 8.865-.008-.008.008.008Zm-.547-.599-.022-.026.022.026Zm.171.206-.029-.034.03.034Zm7.706.892-.033.023.033-.023ZM55.883 65.7l-.031-.043.03.043Zm.667-7.514Zm.272 8.535-.04-.035.04.035Zm7.338.12-.04.033.04-.033Zm1.086-7.88.02.027-.02-.027Zm-8.827 7.382-.036-.037.036.037Zm7.291.823-.034.023.033-.023Zm-.725.401-.047.022.047-.022Zm-.272.117-.037.015.037-.015Zm-7.498-3.192Zm.499.962-.009-.014.009.014Zm1.327 1.445-.03-.023.03.023Zm-1.457-1.658-.025-.043.025.043Zm-.26-.498-.014-.028.014.028Zm8.146 2.571-.046.026.046-.026Zm-8.027-2.328-.021-.041.02.04Zm8.417-7.392.05.036-.05-.036Zm-2.126-.911Zm-3.468 10.939-.038-.016.038.016Zm-1.89-9.259a5.74 5.74 0 0 0-1.385 2.475 5.738 5.738 0 0 0 .122 3.384c.035.058 3.197 5.272 9.238 2.462a5.74 5.74 0 0 0 1.787-2.86 5.737 5.737 0 0 0-.003-2.994c-.119-.252-3.208-6.632-9.76-2.467Zm3.303 9.667-.042-.006.042.006Zm1.794-11.395.032.006-.032-.006Zm-2.282.093.064-.015-.064.015Zm3.422.211.007.002-.007-.002Zm-3.959-.05.062-.022-.062.022Zm3.659-.055ZM59.95 68.066l-.042-.005.042.005Z"/><path fill="#46739D" d="m60.313 56.567.058-.002c-.02 0-.039 0-.059.002Zm-.297.021.049-.005-.05.005Zm1.136.005.066.007-.066-.007Zm-1.683.074.031-.007-.031.007Zm-.652 11.16-.053-.017.053.017ZM62.86 57.04Zm-1.97-.468c.017 0 .034.002.05.003l-.05-.003Zm-2.37 11.153-.04-.016.04.016Zm.863.251-.055-.012.055.012Zm1.195-11.413h.06-.06Zm-2.668.647.043-.022-.043.021Zm6.61.92.019.017-.02-.018Zm-6.793 9.224-.006-.003.006.003Zm2.528.737-.054-.003.054.003Zm4.05-10.153Zm-6.879-.448.048-.03-.048.03Zm7.652 1.25.037.047-.037-.047Zm-.176-.211.02.022-.02-.022Zm-7.254-1.174.05-.028-.05.028Zm7.065.965.042.045-.042-.044Zm-3.606 9.755c-.014 0-.027.002-.04.004l.04-.004Zm2.989-10.307.018.014-.018-.014ZM58 67.499l-.049-.025.05.025Zm5.14-10.329.012.005-.011-.006Zm-4.72-.195.03-.01-.03.01Zm4.957.318Zm.258.153.015.009-.015-.01Zm-3.889-.826.063-.008-.063.008Zm1.074 11.474-.054.002.054-.002Zm-2.683-10.995.057-.026c-.02.008-.038.017-.057.026Z"/><path fill="#172734" d="M55.31 64.715Zm2.918 2.89Zm-2.806-2.66Zm.282.495Zm2.248 2.033Zm-1.57-1.167Zm-.53-.65Zm.735.855Zm-.559-.617Zm.163.2Zm1.032.939Zm.24.162Zm.258.155Zm-.939-.664Zm-1.669-2.466a5.77 5.77 0 0 0 .001.001Zm.444.977ZM60.51 68.1Zm2.167-.402Zm-1.911.398Zm.3-.017Zm1.871-.491Zm-1.607.46Zm-1.13.04Zm-3.19-1.212Zm4.898 1.064Zm-2 .121Zm1.704-.058Zm.818-.213Zm-.281.087Zm2.201-1.193Zm-5.587 1.126Zm.308.092Zm4.821-.86Zm-4.564.922Zm4.791-1.09Zm-.444.314Zm-.251.152Zm-4.942.37Zm1.153.313Zm3.572-.565Z" opacity=".5"/><path fill="#46739D" d="M55.113 64.221c.026.074.053.147.082.22l.02.05c.03.075.062.15.096.223l.013.029c.031.068.064.135.098.202l.02.04c.038.072.076.142.116.212l.025.043c.04.067.08.134.122.2l.009.014c.044.068.09.136.137.202l.031.044c.047.066.096.13.146.194l.02.026c.047.059.095.116.143.173l.03.034c.052.06.107.12.162.178l.036.037c.055.058.112.114.17.17l.008.007c.06.057.121.112.184.166l.04.036c.062.052.125.104.19.155l.03.022c.059.046.12.091.181.135l.036.025c.067.047.135.092.204.137l.045.028c.07.044.142.086.214.127l.006.004a5.873 5.873 0 0 0 .502.25l.037.017c.071.03.143.06.216.088l.04.016c.08.03.16.058.242.084l.053.017a5.84 5.84 0 0 0 .513.138l.054.012c.084.017.168.033.252.047l.042.006c.077.012.154.023.23.032l.043.005c.083.009.167.016.25.021l.055.003a5.777 5.777 0 0 0 .51.005l.054-.001c.082-.004.164-.01.246-.016l.04-.004c.075-.007.15-.016.224-.026l.041-.005c.08-.012.161-.025.241-.04l.052-.01a5.75 5.75 0 0 0 .485-.116l.05-.015a5.73 5.73 0 0 0 .232-.073l.038-.014c.07-.025.14-.05.208-.078l.038-.014c.074-.03.148-.062.221-.095l.048-.022a5.696 5.696 0 0 0 .692-.378l.033-.022a5.78 5.78 0 0 0 .184-.124l.033-.023c.065-.047.13-.096.193-.145l.042-.033c.064-.051.128-.104.19-.158-6.041 2.81-9.203-2.404-9.238-2.462Z"/><path fill="#172734" d="M55.113 64.221c.026.074.053.147.082.22l.02.05c.03.075.062.15.096.223l.013.029c.031.068.064.135.098.202l.02.04c.038.072.076.142.116.212l.025.043c.04.067.08.134.122.2l.009.014c.044.068.09.136.137.202l.031.044c.047.066.096.13.146.194l.02.026c.047.059.095.116.143.173l.03.034c.052.06.107.12.162.178l.036.037c.055.058.112.114.17.17l.008.007c.06.057.121.112.184.166l.04.036c.062.052.125.104.19.155l.03.022c.059.046.12.091.181.135l.036.025c.067.047.135.092.204.137l.045.028c.07.044.142.086.214.127l.006.004a5.873 5.873 0 0 0 .502.25l.037.017c.071.03.143.06.216.088l.04.016c.08.03.16.058.242.084l.053.017a5.84 5.84 0 0 0 .513.138l.054.012c.084.017.168.033.252.047l.042.006c.077.012.154.023.23.032l.043.005c.083.009.167.016.25.021l.055.003a5.777 5.777 0 0 0 .51.005l.054-.001c.082-.004.164-.01.246-.016l.04-.004c.075-.007.15-.016.224-.026l.041-.005c.08-.012.161-.025.241-.04l.052-.01a5.75 5.75 0 0 0 .485-.116l.05-.015a5.73 5.73 0 0 0 .232-.073l.038-.014c.07-.025.14-.05.208-.078l.038-.014c.074-.03.148-.062.221-.095l.048-.022a5.696 5.696 0 0 0 .692-.378l.033-.022a5.78 5.78 0 0 0 .184-.124l.033-.023c.065-.047.13-.096.193-.145l.042-.033c.064-.051.128-.104.19-.158-6.041 2.81-9.203-2.404-9.238-2.462Z" opacity=".5"/><path fill="#BAB2CC" d="M59.5 56.66Zm.309-.048Zm1.132-.037Zm.859.123Zm.259.062Zm.316.095Zm-1.736-.292Zm-.574.02Zm.308-.017Zm-3.775 1.576Zm.185-.168Zm.694-.514Zm-.252.167Zm-.203.152Zm-.647.583Zm4.844-1.762Zm-2.502.266Zm-.267.098Zm.804-.252Zm-.303.08Zm-1.256.534Zm.5-.254Zm-.242.116Zm5.199-.014Zm2.114 1.814Zm-.149-.201Zm.906 1.677Zm-1.099-1.913Zm-.17-.185Zm.682.874Zm.502.987Zm-.118-.279Zm-.11-.227Zm-.144-.267Zm.574 1.384-.025-.085c.008.026.014.051.02.077a.64.64 0 0 0 .005.008Zm-3.519-3.896Zm-.888-.259Zm1.919.772Zm.888.692Zm-1.62-1.082Zm.514.26Zm.918.654Zm-.442-.348Zm.203.151Z" opacity=".25"/><path fill="#46739D" d="M61.473 56.635a5.893 5.893 0 0 0-.255-.035l-.066-.007a5.694 5.694 0 0 0-.212-.018c-.017 0-.034-.002-.05-.003a5.754 5.754 0 0 0-.252-.009h-.06c-.069 0-.138 0-.206.003l-.06.002a5.694 5.694 0 0 0-.248.016l-.049.005c-.07.006-.138.014-.207.023l-.063.009a5.836 5.836 0 0 0-.244.04l-.032.006a5.785 5.785 0 0 0-1.02.298l-.03.011c-.075.03-.15.063-.224.097-.02.008-.038.017-.057.026a5.62 5.62 0 0 0-.185.09l-.043.021a5.832 5.832 0 0 0-.214.117l-.05.029a5.819 5.819 0 0 0-.171.105l-.049.03c-.068.044-.135.09-.202.137l-.038.028a5.64 5.64 0 0 0-.165.123l-.05.039a5.63 5.63 0 0 0-.188.156l-.024.02a5.77 5.77 0 0 0-.384.369c6.552-4.165 9.641 2.215 9.76 2.467l-.02-.076-.017-.057a5.657 5.657 0 0 0-.074-.232l-.014-.04a5.751 5.751 0 0 0-.191-.476l-.017-.036a5.694 5.694 0 0 0-.093-.191l-.027-.053a5.867 5.867 0 0 0-.117-.214l-.018-.031a5.805 5.805 0 0 0-.112-.183l-.032-.051a5.842 5.842 0 0 0-.137-.202l-.02-.027a5.78 5.78 0 0 0-.323-.41l-.02-.022a5.845 5.845 0 0 0-.149-.163l-.042-.045a5.803 5.803 0 0 0-.174-.173l-.02-.018a5.956 5.956 0 0 0-.405-.348l-.018-.014a5.678 5.678 0 0 0-.444-.312l-.016-.01a5.627 5.627 0 0 0-.482-.27l-.012-.006a5.814 5.814 0 0 0-.52-.228l-.007-.003a5.891 5.891 0 0 0-.814-.241l-.067-.014a5.883 5.883 0 0 0-.228-.043l-.032-.006Z"/><path fill="#BAB2CC" d="M61.473 56.635a5.893 5.893 0 0 0-.255-.035l-.066-.007a5.694 5.694 0 0 0-.212-.018c-.017 0-.034-.002-.05-.003a5.754 5.754 0 0 0-.252-.009h-.06c-.069 0-.138 0-.206.003l-.06.002a5.694 5.694 0 0 0-.248.016l-.049.005c-.07.006-.138.014-.207.023l-.063.009a5.836 5.836 0 0 0-.244.04l-.032.006a5.785 5.785 0 0 0-1.02.298l-.03.011c-.075.03-.15.063-.224.097-.02.008-.038.017-.057.026a5.62 5.62 0 0 0-.185.09l-.043.021a5.832 5.832 0 0 0-.214.117l-.05.029a5.819 5.819 0 0 0-.171.105l-.049.03c-.068.044-.135.09-.202.137l-.038.028a5.64 5.64 0 0 0-.165.123l-.05.039a5.63 5.63 0 0 0-.188.156l-.024.02a5.77 5.77 0 0 0-.384.369c6.552-4.165 9.641 2.215 9.76 2.467l-.02-.076-.017-.057a5.657 5.657 0 0 0-.074-.232l-.014-.04a5.751 5.751 0 0 0-.191-.476l-.017-.036a5.694 5.694 0 0 0-.093-.191l-.027-.053a5.867 5.867 0 0 0-.117-.214l-.018-.031a5.805 5.805 0 0 0-.112-.183l-.032-.051a5.842 5.842 0 0 0-.137-.202l-.02-.027a5.78 5.78 0 0 0-.323-.41l-.02-.022a5.845 5.845 0 0 0-.149-.163l-.042-.045a5.803 5.803 0 0 0-.174-.173l-.02-.018a5.956 5.956 0 0 0-.405-.348l-.018-.014a5.678 5.678 0 0 0-.444-.312l-.016-.01a5.627 5.627 0 0 0-.482-.27l-.012-.006a5.814 5.814 0 0 0-.52-.228l-.007-.003a5.891 5.891 0 0 0-.814-.241l-.067-.014a5.883 5.883 0 0 0-.228-.043l-.032-.006Z" opacity=".25"/><path fill="#46739D" d="M75.762 61.362Zm-.038 3.275c-.03.026-.062.051-.093.076.365-.283.644-.683.772-1.164a2.18 2.18 0 0 0 0-1.138c-.046-.096-1.22-2.522-3.712-.938a2.183 2.183 0 0 0-.526.941c-.118.44-.093.886.046 1.287.007.01 1.21 2.007 3.513.936Zm.229-3.079Zm-.096-.106Zm.19.224Zm.323.62Zm-1.08 2.636Zm-.143.066Zm-.117.047Zm.572-.309Zm-.103.073Zm-.105.064Zm.922-2.716Zm-.119-.249Zm-1.557 3.238Zm.274-.063Zm-.403.08Zm1.61-3.38Zm.145.254Zm-1.469 3.079Zm-1.375-4.148Zm-.508.302Zm-.55 2.766Zm.076.134Zm-.184-.36Zm1.588 1.32Zm.259.038Zm-1.29-3.811Zm2.831-.097Zm-1.927 3.84Zm-1.026-3.627Zm-.388 2.45Zm.566.733Zm.096.076Zm.105.075Zm.363.196Zm-.923-.734Zm.807.681Zm-.54-.375Zm.779.475Zm-.972-.685Zm.084.098Zm1.302.689Zm.749-4.32Zm.134.032Zm-.581-.074Zm.134.002Zm.614.124Zm-.446-.107Zm.844.295Zm.113.073Zm-.254-.152Zm-.127-.059Zm-1.314-.131Zm-.563.202Zm1.117 4.136Zm-1.183-.281ZM73.16 61.1Zm1.105 4.075Zm-.296-4.362Zm-.929.367Zm1.081-.385Zm-.572.122Zm.123-.04Z"/><path fill="#172734" d="M72.323 63.96Zm.677.798Zm1.95.314-.036.011.036-.011Zm.119-.042Zm-1.967-.202-.032-.021.032.02Zm.25.138-.036-.016.036.016Zm2.183-.181Zm-.352.199-.035.015.035-.015Zm.244-.13-.033.02.033-.02Zm-1.287.316c-.013 0-.025-.002-.038-.003l.038.004Zm1.492-.457-.03.023.03-.023Zm-.954.427-.037.006.037-.006Zm-.124.019Zm-1.079-.14Zm.914.154c.013 0 .025-.002.038-.003l-.038.003Zm-.374-.015Zm-.421-.095-.037-.013c.012.005.025.01.037.013Zm.289.074-.04-.008.04.008Zm-.672-.243-.004-.002.004.002Zm-.941-1.047-.016-.036.016.036Zm-.057-.147.005.014-.005-.013Zm.479.79-.024-.028.024.027Zm-.312-.423-.017-.031.017.031Zm.404.515-.007-.006.007.006Zm-.336-.402-.007-.01.007.01Zm.162.218Zm.287.282-.03-.024.03.024Zm-.364-.38-.023-.031.023.031Z" opacity=".5"/><path fill="#46739D" d="M74.513 65.163a1.98 1.98 0 0 0 .127-.017l.038-.006a2.258 2.258 0 0 0 .235-.057l.036-.011a2.211 2.211 0 0 0 .198-.074l.035-.015a2.207 2.207 0 0 0 .213-.11l.033-.02a2.19 2.19 0 0 0 .174-.118l.03-.022c.032-.025.063-.05.093-.076-2.303 1.071-3.505-.925-3.512-.937l.005.013c.011.033.024.065.037.097l.015.037a2.021 2.021 0 0 0 .092.188l.018.032c.02.035.04.07.062.103l.007.01.06.089.024.031.051.065.027.033.056.064.025.027c.028.03.056.058.085.086l.007.006c.027.025.055.05.084.074l.03.025a2.236 2.236 0 0 0 .172.127l.031.02c.035.023.07.044.106.065l.004.002c.035.02.07.038.106.055l.036.017a2.213 2.213 0 0 0 .204.084l.037.013a2.281 2.281 0 0 0 .25.066l.039.008a2.203 2.203 0 0 0 .219.03l.039.003a2.17 2.17 0 0 0 .248.002l.038-.002.086-.007Z"/><path fill="#172734" d="M74.513 65.163a1.98 1.98 0 0 0 .127-.017l.038-.006a2.258 2.258 0 0 0 .235-.057l.036-.011a2.211 2.211 0 0 0 .198-.074l.035-.015a2.207 2.207 0 0 0 .213-.11l.033-.02a2.19 2.19 0 0 0 .174-.118l.03-.022c.032-.025.063-.05.093-.076-2.303 1.071-3.505-.925-3.512-.937l.005.013c.011.033.024.065.037.097l.015.037a2.021 2.021 0 0 0 .092.188l.018.032c.02.035.04.07.062.103l.007.01.06.089.024.031.051.065.027.033.056.064.025.027c.028.03.056.058.085.086l.007.006c.027.025.055.05.084.074l.03.025a2.236 2.236 0 0 0 .172.127l.031.02c.035.023.07.044.106.065l.004.002c.035.02.07.038.106.055l.036.017a2.213 2.213 0 0 0 .204.084l.037.013a2.281 2.281 0 0 0 .25.066l.039.008a2.203 2.203 0 0 0 .219.03l.039.003a2.17 2.17 0 0 0 .248.002l.038-.002.086-.007Z" opacity=".5"/><path fill="#BAB2CC" d="m74.098 60.797.024-.002-.024.002Zm1.734.63.025.025-.025-.025Zm.27.327.019.029-.02-.029Zm-.079-.109.023.03-.023-.03Zm-.08-.1.01.012-.01-.012Zm-.558-.461.033.02-.033-.02Zm.115.073.03.02-.03-.02Zm.234.178.029.026-.029-.026Zm-.099-.083.009.008-.01-.008Zm.67.873.013.031-.013-.03Zm.101.289-.006-.017a.732.732 0 0 1 .006.017Zm-1.136-1.392c.002 0 .004.002.005.003l-.006-.003Zm-2.143.098.033-.02-.033.02Zm-.342.262.028-.025-.028.025Zm3.403.508.009.017-.01-.017Zm.06.112Zm.115.273.007.021-.007-.021Zm-3.473-.985c.01-.006.017-.013.026-.02l-.025.02Zm.364-.243.02-.011-.02.01Zm1.129-.256.024.001h-.024Zm-.869.139.035-.014-.035.013Zm1.166-.105.038.007-.038-.007Zm-.746-.008.032-.005-.032.005Zm-.135.027.036-.008-.036.008Zm.741-.04.033.005-.034-.005Zm-.308-.014Zm-1.214.402.02-.013-.02.013Zm1.966-.288.038.013c-.013-.005-.025-.01-.038-.013Zm-1.594.076.03-.013-.03.013Zm1.723-.028.036.014-.036-.014Z" opacity=".25"/><path fill="#46739D" d="m76.402 62.412-.004-.014a2.224 2.224 0 0 0-.03-.102l-.007-.021a2.166 2.166 0 0 0-.045-.119l-.013-.03a2.232 2.232 0 0 0-.04-.088 2.063 2.063 0 0 0-.068-.13l-.008-.018a2.282 2.282 0 0 0-.067-.107l-.019-.029a2.112 2.112 0 0 0-.055-.078l-.023-.03a2.15 2.15 0 0 0-.07-.087l-.01-.013a2.168 2.168 0 0 0-.087-.093l-.025-.025a2.178 2.178 0 0 0-.07-.066 2.155 2.155 0 0 0-.118-.1l-.009-.009a2.116 2.116 0 0 0-.104-.076l-.03-.02a2.102 2.102 0 0 0-.082-.052l-.034-.02a2.223 2.223 0 0 0-.11-.06c-.002 0-.003-.002-.005-.003a2.13 2.13 0 0 0-.12-.055l-.036-.015a2.28 2.28 0 0 0-.094-.035c-.012-.005-.024-.01-.037-.013a2.2 2.2 0 0 0-.265-.071l-.04-.008a2.243 2.243 0 0 0-.104-.016l-.034-.005a2.17 2.17 0 0 0-.134-.012h-.024a2.168 2.168 0 0 0-.26.003l-.024.002a2.157 2.157 0 0 0-.13.015l-.033.006a2.375 2.375 0 0 0-.1.018l-.037.008a2.25 2.25 0 0 0-.25.073l-.035.013a2.134 2.134 0 0 0-.093.038l-.03.012c-.04.018-.078.037-.116.056l-.021.012a2.249 2.249 0 0 0-.093.053l-.033.02c-.03.018-.06.038-.09.058l-.02.014c-.035.024-.069.05-.103.077l-.025.021a2.252 2.252 0 0 0-.197.183c2.492-1.584 3.666.842 3.711.938Z"/><path fill="#BAB2CC" d="m76.402 62.412-.004-.014a2.224 2.224 0 0 0-.03-.102l-.007-.021a2.166 2.166 0 0 0-.045-.119l-.013-.03a2.232 2.232 0 0 0-.04-.088 2.063 2.063 0 0 0-.068-.13l-.008-.018a2.282 2.282 0 0 0-.067-.107l-.019-.029a2.112 2.112 0 0 0-.055-.078l-.023-.03a2.15 2.15 0 0 0-.07-.087l-.01-.013a2.168 2.168 0 0 0-.087-.093l-.025-.025a2.178 2.178 0 0 0-.07-.066 2.155 2.155 0 0 0-.118-.1l-.009-.009a2.116 2.116 0 0 0-.104-.076l-.03-.02a2.102 2.102 0 0 0-.082-.052l-.034-.02a2.223 2.223 0 0 0-.11-.06c-.002 0-.003-.002-.005-.003a2.13 2.13 0 0 0-.12-.055l-.036-.015a2.28 2.28 0 0 0-.094-.035c-.012-.005-.024-.01-.037-.013a2.2 2.2 0 0 0-.265-.071l-.04-.008a2.243 2.243 0 0 0-.104-.016l-.034-.005a2.17 2.17 0 0 0-.134-.012h-.024a2.168 2.168 0 0 0-.26.003l-.024.002a2.157 2.157 0 0 0-.13.015l-.033.006a2.375 2.375 0 0 0-.1.018l-.037.008a2.25 2.25 0 0 0-.25.073l-.035.013a2.134 2.134 0 0 0-.093.038l-.03.012c-.04.018-.078.037-.116.056l-.021.012a2.249 2.249 0 0 0-.093.053l-.033.02c-.03.018-.06.038-.09.058l-.02.014c-.035.024-.069.05-.103.077l-.025.021a2.252 2.252 0 0 0-.197.183c2.492-1.584 3.666.842 3.711.938Z" opacity=".25"/><path fill="#46739D" d="M54.95 54.518Zm-.183 2.073Zm.595-.165Zm.193-1.592Zm-.298 1.651Zm-.367.102Zm.15-.023Zm.111-.034Zm.486-1.6Zm.07.11Zm.063.132Zm-.287 1.164Zm-1.628-.34Zm.33-1.29.01-.007-.01.007Zm.356-.167.02-.006-.02.006Zm.106 2.042Zm-.119-.024Zm-.258-1.906.02-.011-.02.011Zm.796-.11Zm.159.057Zm-1.12.172.018-.016-.017.016Zm-.195 1.326Zm1.573.24a1.038 1.038 0 0 0 .32-1.063c-.04-.083-.6-1.181-1.763-.442a1.038 1.038 0 0 0-.228 1.06c.007.012.579.953 1.67.445Zm-.835-1.82.018-.002-.018.002Zm-.668 1.68Zm.1.111Zm1.365-1.577Zm-1.178 1.717Zm.086-1.842.016-.007-.016.008Zm.389-.098h.024-.024Zm-.291.058.02-.006-.02.006Zm-.282 1.815Zm.208.123Zm.478-1.995.012.001h-.011Zm.485.15Z"/><path fill="#172734" d="m54.686 56.585-.038-.005.038.005Zm-.273-.068-.034-.015.034.015Zm-.6-.626.002.007-.002-.007Zm.189.332-.022-.027.022.027Zm-.07-.093Zm.37.337Zm-.43-.439-.017-.032.017.032Zm.326.374-.03-.02.03.02Zm-.114-.092-.004-.003.004.003Zm.843.274-.036.004.036-.004Zm-.118.008Zm.376-.075c-.01.004-.022.01-.033.013l.033-.013Zm.206-.11-.03.019.03-.02Zm-.098.059Z" opacity=".5"/><path fill="#46739D" d="m53.813 55.891.002.007c.012.033.026.065.04.097l.018.033a1.033 1.033 0 0 0 .108.167l.021.028c.025.029.05.057.079.083l.004.004a.944.944 0 0 0 .084.07l.03.022a1.075 1.075 0 0 0 .18.1l.034.015a1.056 1.056 0 0 0 .235.063l.037.005a1.057 1.057 0 0 0 .206.002l.036-.004a1.05 1.05 0 0 0 .224-.053l.033-.013a1.093 1.093 0 0 0 .178-.092c.01-.006.02-.012.03-.02a.76.76 0 0 0 .091-.07c-1.092.509-1.663-.432-1.67-.444Z"/><path fill="#172734" d="m53.813 55.891.002.007c.012.033.026.065.04.097l.018.033a1.033 1.033 0 0 0 .108.167l.021.028c.025.029.05.057.079.083l.004.004a.944.944 0 0 0 .084.07l.03.022a1.075 1.075 0 0 0 .18.1l.034.015a1.056 1.056 0 0 0 .235.063l.037.005a1.057 1.057 0 0 0 .206.002l.036-.004a1.05 1.05 0 0 0 .224-.053l.033-.013a1.093 1.093 0 0 0 .178-.092c.01-.006.02-.012.03-.02a.76.76 0 0 0 .091-.07c-1.092.509-1.663-.432-1.67-.444Z" opacity=".5"/><path fill="#BAB2CC" d="M54.766 54.507Zm.674.22.005.004-.005-.004Zm-.133-.087.03.018-.03-.018Zm.224.168.025.026-.025-.026Zm-.664-.3Zm-.577.132Zm.378-.125Zm-.627.317Zm.329-.235Zm-.247.157Zm.07-.055Zm.997-.116.034.015-.034-.015Zm.425.32.021.026-.02-.026Zm-.64-.381Zm.728.508.005.01-.005-.01Zm.103.25-.007-.022a.956.956 0 0 1 .007.021Zm-.05-.142.013.034-.013-.034Zm-1.286-.579Zm.093-.027Z" opacity=".25"/><path fill="#46739D" d="m55.804 55.274-.005-.016a.984.984 0 0 0-.029-.086l-.013-.034a1.032 1.032 0 0 0-.048-.098l-.006-.01a1.043 1.043 0 0 0-.066-.1l-.021-.027a1.065 1.065 0 0 0-.06-.069 1.035 1.035 0 0 0-.111-.103l-.004-.004a1.066 1.066 0 0 0-.102-.07l-.031-.017a1.047 1.047 0 0 0-.084-.042l-.034-.015a1.035 1.035 0 0 0-.32-.074l-.012-.001a1.029 1.029 0 0 0-.092-.001h-.023l-.075.008a1.02 1.02 0 0 0-.105.019c-.007 0-.014.003-.02.004a1.006 1.006 0 0 0-.07.021l-.02.007a1.05 1.05 0 0 0-.083.032l-.015.008a.682.682 0 0 0-.066.034l-.02.01-.074.049-.01.007a1.005 1.005 0 0 0-.144.126c1.163-.74 1.723.359 1.763.442Z"/><path fill="#BAB2CC" d="m55.804 55.274-.005-.016a.984.984 0 0 0-.029-.086l-.013-.034a1.032 1.032 0 0 0-.048-.098l-.006-.01a1.043 1.043 0 0 0-.066-.1l-.021-.027a1.065 1.065 0 0 0-.06-.069 1.035 1.035 0 0 0-.111-.103l-.004-.004a1.066 1.066 0 0 0-.102-.07l-.031-.017a1.047 1.047 0 0 0-.084-.042l-.034-.015a1.035 1.035 0 0 0-.32-.074l-.012-.001a1.029 1.029 0 0 0-.092-.001h-.023l-.075.008a1.02 1.02 0 0 0-.105.019c-.007 0-.014.003-.02.004a1.006 1.006 0 0 0-.07.021l-.02.007a1.05 1.05 0 0 0-.083.032l-.015.008a.682.682 0 0 0-.066.034l-.02.01-.074.049-.01.007a1.005 1.005 0 0 0-.144.126c1.163-.74 1.723.359 1.763.442Z" opacity=".25"/><path fill="#46739D" d="m50.71 65.812.028-.001-.027.001Zm-.767 2.094Zm1.549.1-.017.013.017-.013Zm-.646-2.194.014.001-.014-.001Zm1.076.809.004.011-.004-.01Zm-.969-.797Zm.463.166Zm-.096-.052.003.001-.003-.001Zm.504.472.005.008-.005-.008Zm-.066-.1Zm-.928 1.928h-.017.017Zm-.113-.001h-.018.018Zm-.892-.46Zm2.054-1.267.01.024-.01-.024Zm-.276-.375.02.018a1.062 1.062 0 0 0-.02-.018Zm-.083-.072.004.003-.005-.003Zm.17.16.005.006-.005-.006Zm-1.72-.106Zm1.227-.232.026.01-.026-.01Z"/><path fill="#46739D" d="M51.575 67.942a1.208 1.208 0 0 0 .374-1.238c-.047-.096-.699-1.376-2.053-.515a1.21 1.21 0 0 0-.266 1.235c.009.014.674 1.109 1.945.518Zm-1.202-2.063.023-.008-.023.008Zm-.111.047.018-.009-.018.01Zm-.199.115.01-.007-.01.007Zm.225 2.094Zm.893.035-.02.006.02-.007Zm.209-.096-.015.008.015-.008Zm-.098.05-.015.008.015-.008Zm-1.132-2.146.023-.013-.023.013Zm0 2.092Zm-.48-.526Zm.915.681-.023-.004.023.004Zm-.551-.232Zm-.3-.331Zm.861-1.84.02-.002-.02.002Zm.351 2.403Zm-.494-.027Zm.016-2.351.024-.006-.024.006Z"/><path fill="#172734" d="m49.946 67.91-.005-.003c.002 0 .003.002.005.003Zm-.313-.479-.004-.008.004.008Zm.217.378c-.01-.01-.017-.022-.026-.032l.026.032Zm-.08-.107Zm.31.315-.035-.024.035.024Zm-.38-.435-.02-.038.02.038Zm1.36.623Zm.414-.187Zm-1.145.135-.04-.018.04.018Zm.243.068Zm1.002-.281Zm-.761.298Zm.561-.157Zm-.439.148Zm-.733-.137Zm1.074.039Zm-.576.106Zm.46-.061Z" opacity=".5"/><path fill="#46739D" d="M49.68 67.544a1.233 1.233 0 0 0 .145.233l.025.032c.029.034.059.067.091.098l.005.004c.03.029.064.056.098.082l.035.025a1.2 1.2 0 0 0 .209.117l.04.018a1.212 1.212 0 0 0 .243.068l.023.004c.035.006.07.01.106.012h.017c.032.002.065.002.096.002h.018a1.177 1.177 0 0 0 .35-.07.848.848 0 0 0 .095-.037l.015-.007.083-.043.015-.008a1.22 1.22 0 0 0 .085-.055l.018-.013c.028-.02.056-.042.082-.065-1.27.591-1.936-.503-1.945-.518 0 .003.002.005.003.008.014.039.03.076.047.113Z"/><path fill="#172734" d="M49.68 67.544a1.233 1.233 0 0 0 .145.233l.025.032c.029.034.059.067.091.098l.005.004c.03.029.064.056.098.082l.035.025a1.2 1.2 0 0 0 .209.117l.04.018a1.212 1.212 0 0 0 .243.068l.023.004c.035.006.07.01.106.012h.017c.032.002.065.002.096.002h.018a1.177 1.177 0 0 0 .35-.07.848.848 0 0 0 .095-.037l.015-.007.083-.043.015-.008a1.22 1.22 0 0 0 .085-.055l.018-.013c.028-.02.056-.042.082-.065-1.27.591-1.936-.503-1.945-.518 0 .003.002.005.003.008.014.039.03.076.047.113Z" opacity=".5"/><path fill="#BAB2CC" d="M50.398 65.872Zm.106-.03Zm.121-.022Zm.113-.01Zm.122.003Zm-.786.221Zm-.179.155Zm.382-.272Zm-.285.181Zm.192-.132Zm.8-.137Zm.966.881a1.188 1.188 0 0 0-.024-.079.871.871 0 0 1 .02.073.38.38 0 0 1 .004.006Zm-.255-.481Zm.078.101Zm.057.088Zm-.207-.265Zm-.531-.303Zm.795.684Zm-.664-.639Zm.099.044Zm.203.128Zm-.087-.062Z" opacity=".25"/><path fill="#46739D" d="M51.947 66.704c-.006-.024-.012-.049-.02-.072l-.005-.011a1.168 1.168 0 0 0-.092-.202l-.005-.008a1.248 1.248 0 0 0-.052-.08l-.015-.021a1.244 1.244 0 0 0-.063-.082l-.005-.005a1.173 1.173 0 0 0-.166-.157l-.004-.003a1.266 1.266 0 0 0-.083-.058l-.022-.014a1.204 1.204 0 0 0-.093-.052l-.003-.001a1.214 1.214 0 0 0-.097-.043l-.026-.01a1.235 1.235 0 0 0-.337-.072l-.014-.001a1.177 1.177 0 0 0-.106-.001h-.027c-.03.002-.059.005-.088.009l-.02.002a1.237 1.237 0 0 0-.102.02l-.024.005a1.218 1.218 0 0 0-.082.024l-.023.008a1.195 1.195 0 0 0-.095.038l-.018.009a1.266 1.266 0 0 0-.077.04l-.023.012a1.25 1.25 0 0 0-.087.056l-.01.008a1.234 1.234 0 0 0-.072.057l-.021.018a1.192 1.192 0 0 0-.075.072c1.354-.861 2.006.418 2.052.515Z"/><path fill="#BAB2CC" d="M51.947 66.704c-.006-.024-.012-.049-.02-.072l-.005-.011a1.168 1.168 0 0 0-.092-.202l-.005-.008a1.248 1.248 0 0 0-.052-.08l-.015-.021a1.244 1.244 0 0 0-.063-.082l-.005-.005a1.173 1.173 0 0 0-.166-.157l-.004-.003a1.266 1.266 0 0 0-.083-.058l-.022-.014a1.204 1.204 0 0 0-.093-.052l-.003-.001a1.214 1.214 0 0 0-.097-.043l-.026-.01a1.235 1.235 0 0 0-.337-.072l-.014-.001a1.177 1.177 0 0 0-.106-.001h-.027c-.03.002-.059.005-.088.009l-.02.002a1.237 1.237 0 0 0-.102.02l-.024.005a1.218 1.218 0 0 0-.082.024l-.023.008a1.195 1.195 0 0 0-.095.038l-.018.009a1.266 1.266 0 0 0-.077.04l-.023.012a1.25 1.25 0 0 0-.087.056l-.01.008a1.234 1.234 0 0 0-.072.057l-.021.018a1.192 1.192 0 0 0-.075.072c1.354-.861 2.006.418 2.052.515Z" opacity=".25"/><path fill="#46739D" d="M54.7 50.462Zm-.06.053Zm.297.848Zm-.185-.066Zm.061-.901Zm.062-.022Zm-.125.054Zm-.17.699Zm-.03-.048Zm.385-.717Zm.19.992Zm-.464-.124Zm.351-.873Zm.271.93Zm.039-.822Zm-.446.886Zm.354-.035Zm-.617-.14Zm.762-.66Zm.105.164Zm-.14.565Zm.076-.683Zm.034.054Zm-.457.751Zm-.29-.102Zm.477.073Zm.09-.908Zm-.055-.03Zm-.137-.038Zm.062.011Zm-.087.993Zm.287-.122a.504.504 0 0 0 .156-.515c-.02-.04-.291-.573-.855-.215a.503.503 0 0 0-.11.514.615.615 0 0 0 .81.216Zm-.534.081Z"/><path fill="#172734" d="m54.533 51.031-.002-.003.002.003Zm.288.301-.016-.007.016.007Zm-.159-.101-.002-.001.002.001Zm-.073-.086Zm-.03-.051-.008-.016.008.016Zm.159.182-.015-.01.015.01Zm.049.031Zm-.143-.117-.01-.014.01.014Zm.672.088-.015.01.015-.01Zm-.224.086-.017.001.017-.001Zm-.058.004h-.02.02Zm.182-.037-.016.007.016-.007Zm-.068.023Zm-.174.01-.019-.001c.007 0 .013 0 .019.002Zm.294-.057Z" opacity=".5"/><path fill="#46739D" d="m54.552 51.078.008.016a.495.495 0 0 0 .053.081l.01.014a.503.503 0 0 0 .038.04l.002.002a.507.507 0 0 0 .041.034l.015.01a.48.48 0 0 0 .087.05l.016.006a.517.517 0 0 0 .114.03l.018.003a.5.5 0 0 0 .04.003h.02c.014 0 .027 0 .04-.002.006 0 .012 0 .018-.002a.482.482 0 0 0 .108-.026l.017-.006a.51.51 0 0 0 .086-.044l.014-.01a.494.494 0 0 0 .044-.034.615.615 0 0 1-.81-.215l.002.003a.523.523 0 0 0 .02.047Z"/><path fill="#172734" d="m54.552 51.078.008.016a.495.495 0 0 0 .053.081l.01.014a.503.503 0 0 0 .038.04l.002.002a.507.507 0 0 0 .041.034l.015.01a.48.48 0 0 0 .087.05l.016.006a.517.517 0 0 0 .114.03l.018.003a.5.5 0 0 0 .04.003h.02c.014 0 .027 0 .04-.002.006 0 .012 0 .018-.002a.482.482 0 0 0 .108-.026l.017-.006a.51.51 0 0 0 .086-.044l.014-.01a.494.494 0 0 0 .044-.034.615.615 0 0 1-.81-.215l.002.003a.523.523 0 0 0 .02.047Z" opacity=".5"/><path fill="#BAB2CC" d="m55.498 50.731-.004-.01a.23.23 0 0 1 .004.01Zm-.135-.229.012.013-.012-.013Zm.11.16.006.017-.006-.017Zm-.067-.112a.419.419 0 0 1 .01.012l-.01-.013Zm.041.06.003.006-.003-.005Zm-.587-.23Zm.066-.016.01-.002-.01.002Zm-.19.072.013-.008-.013.008Zm-.051.038.014-.01-.014.01Zm.115-.074c.004 0 .008-.002.011-.003l-.01.004Zm.196-.043h.016-.016Zm.063.003a.05.05 0 0 1 .017.002l-.017-.002Zm.141.034.016.007-.017-.007Zm.056.027.015.009-.015-.009Zm.064.042.002.002-.002-.002Z" opacity=".25"/><path fill="#46739D" d="m55.495 50.729-.002-.008a.506.506 0 0 0-.014-.042l-.006-.016a.501.501 0 0 0-.024-.048l-.002-.005a.506.506 0 0 0-.033-.048l-.01-.013a.495.495 0 0 0-.028-.033l-.012-.013a.498.498 0 0 0-.042-.038c-.001 0-.002 0-.003-.002a.496.496 0 0 0-.049-.033l-.015-.009a.51.51 0 0 0-.04-.02l-.017-.007a.518.518 0 0 0-.122-.032l-.017-.002a.484.484 0 0 0-.048-.003h-.016c-.02 0-.04.002-.06.005l-.011.002a.505.505 0 0 0-.112.033l-.01.004a.496.496 0 0 0-.053.027l-.013.008a.494.494 0 0 0-.038.027l-.013.01a.499.499 0 0 0-.044.041c.564-.358.835.174.855.215Z"/><path fill="#BAB2CC" d="m55.495 50.729-.002-.008a.506.506 0 0 0-.014-.042l-.006-.016a.501.501 0 0 0-.024-.048l-.002-.005a.506.506 0 0 0-.033-.048l-.01-.013a.495.495 0 0 0-.028-.033l-.012-.013a.498.498 0 0 0-.042-.038c-.001 0-.002 0-.003-.002a.496.496 0 0 0-.049-.033l-.015-.009a.51.51 0 0 0-.04-.02l-.017-.007a.518.518 0 0 0-.122-.032l-.017-.002a.484.484 0 0 0-.048-.003h-.016c-.02 0-.04.002-.06.005l-.011.002a.505.505 0 0 0-.112.033l-.01.004a.496.496 0 0 0-.053.027l-.013.008a.494.494 0 0 0-.038.027l-.013.01a.499.499 0 0 0-.044.041c.564-.358.835.174.855.215Z" opacity=".25"/><path fill="#46739D" d="M47.406 60.608Zm-.26.939Zm.327-.935Zm-.419.868Zm.819-.55Zm-.775.586Zm.578.021Zm.06-.042Zm-.348.122Zm.06-.001Zm.072-.012Zm-.189.009Zm.242-.025Zm-.375-.013Zm-.193-.149Zm.62.14Zm-.355.035Zm.265-.978Zm.182.092Zm-.51-.068Zm-.062.031Zm.125-.053Zm.465.869a.503.503 0 0 0 .155-.515c-.02-.04-.29-.573-.855-.215a.504.504 0 0 0-.11.514.614.614 0 0 0 .81.216Zm-.071-.814Zm.145.132Zm.035.054Zm-.75-.152Zm-.059.051Zm.735.001Zm-.16-.116Zm-.28-.038Zm-.384.717Zm.026.049Z"/><path fill="#172734" d="M46.983 61.395Zm-.058-.114-.001-.003.001.003Zm.028.063-.008-.016.008.016Zm.103.137-.001-.001.002.001Zm.16.101-.017-.007.017.007Zm.426-.025-.017.009.017-.009Zm-.294.058-.018-.002.018.002Zm.242-.034-.016.007.016-.007Zm.1-.053-.014.009.014-.01Zm-.283.09h-.02.02Zm-.245-.061Zm-.05-.031-.014-.01.014.01Zm-.096-.086-.01-.014.01.014Zm.451.174-.018.001.018-.001Z" opacity=".5"/><path fill="#46739D" d="m46.947 61.33.008.015a.548.548 0 0 0 .052.081l.01.014a.521.521 0 0 0 .039.04l.002.002a.502.502 0 0 0 .04.034l.015.01a.517.517 0 0 0 .087.05l.017.006a.511.511 0 0 0 .114.03l.018.003a.5.5 0 0 0 .04.003h.02c.013 0 .027 0 .04-.002.006 0 .012 0 .017-.002a.51.51 0 0 0 .109-.026l.016-.006a.49.49 0 0 0 .086-.044l.015-.01a.495.495 0 0 0 .044-.034.615.615 0 0 1-.81-.215l.001.003a.476.476 0 0 0 .02.047Z"/><path fill="#172734" d="m46.947 61.33.008.015a.548.548 0 0 0 .052.081l.01.014a.521.521 0 0 0 .039.04l.002.002a.502.502 0 0 0 .04.034l.015.01a.517.517 0 0 0 .087.05l.017.006a.511.511 0 0 0 .114.03l.018.003a.5.5 0 0 0 .04.003h.02c.013 0 .027 0 .04-.002.006 0 .012 0 .017-.002a.51.51 0 0 0 .109-.026l.016-.006a.49.49 0 0 0 .086-.044l.015-.01a.495.495 0 0 0 .044-.034.615.615 0 0 1-.81-.215l.001.003a.476.476 0 0 0 .02.047Z" opacity=".5"/><path fill="#BAB2CC" d="M47.453 60.61c.006 0 .012 0 .018.002l-.018-.002Zm.346.19Zm-.479-.186.011-.002-.01.002Zm.547.299Zm-.613-.283Zm.461.083.002.002-.002-.002Zm-.325-.106h.016-.015Zm.5.374-.003-.01a.23.23 0 0 1 .003.01Zm-.242-.309.016.009-.016-.009Zm-.453-.022c.004 0 .007-.002.01-.003l-.01.004Zm.647.21.002.006-.002-.005Zm-.762-.136.014-.01-.014.01Zm.05-.038.014-.008-.013.008Zm.628.067a.483.483 0 0 1 .012.013l-.012-.013Zm-.166-.109.016.007-.016-.007Z" opacity=".25"/><path fill="#46739D" d="m47.89 60.979-.002-.008a.476.476 0 0 0-.014-.042l-.007-.016a.501.501 0 0 0-.023-.048l-.003-.005a.523.523 0 0 0-.032-.048l-.01-.013a.47.47 0 0 0-.029-.033l-.012-.013a.515.515 0 0 0-.042-.038l-.002-.002a.51.51 0 0 0-.05-.033l-.015-.009a.51.51 0 0 0-.04-.02l-.017-.007a.512.512 0 0 0-.121-.032l-.018-.002a.482.482 0 0 0-.048-.003h-.015c-.02 0-.04.002-.06.005l-.012.002a.497.497 0 0 0-.112.033l-.01.004a.517.517 0 0 0-.053.027l-.012.008a.516.516 0 0 0-.038.027l-.014.01a.484.484 0 0 0-.044.041c.564-.358.836.174.855.215Z"/><path fill="#BAB2CC" d="m47.89 60.979-.002-.008a.476.476 0 0 0-.014-.042l-.007-.016a.501.501 0 0 0-.023-.048l-.003-.005a.523.523 0 0 0-.032-.048l-.01-.013a.47.47 0 0 0-.029-.033l-.012-.013a.515.515 0 0 0-.042-.038l-.002-.002a.51.51 0 0 0-.05-.033l-.015-.009a.51.51 0 0 0-.04-.02l-.017-.007a.512.512 0 0 0-.121-.032l-.018-.002a.482.482 0 0 0-.048-.003h-.015c-.02 0-.04.002-.06.005l-.012.002a.497.497 0 0 0-.112.033l-.01.004a.517.517 0 0 0-.053.027l-.012.008a.516.516 0 0 0-.038.027l-.014.01a.484.484 0 0 0-.044.041c.564-.358.836.174.855.215Z" opacity=".25"/><path fill="#46739D" d="M69.167 57.715Zm.778.074a.537.537 0 0 0 .166-.55c-.02-.043-.31-.612-.912-.229a.537.537 0 0 0-.118.549.656.656 0 0 0 .864.23Zm-.842-.177Zm.028.053Zm.679-.776Zm.253.228Zm-.399-.27Zm.207.073Zm.055.037Zm.097.103Zm-.041-.049Zm-.252-.151Zm-.47.096Zm.053-.038Zm-.113.092Zm.394-.168Zm-.374.931Zm.292-.926Zm-.132.037Zm.07 1.018Zm.061.013Zm-.136-.041Zm-.11-.062Zm.052.034Zm.257.074Zm.52-.734Zm-.211.648Zm-.245.084Zm.307-.13Zm-.118.078Zm-.055.023Zm-.057.018Zm-.265-1.047Z"/><path fill="#172734" d="m69.11 57.63-.008-.017.008.016Zm.225.226Zm-.054-.033-.015-.011.015.01Zm.109.06-.017-.008.018.008Zm-.246-.201Zm.036.048-.012-.015.011.014Zm-.098-.168-.002-.004.002.004Zm.138.213-.001-.001.002.001Zm.437.141-.018.002c.006 0 .012 0 .018-.002Zm-.127.001c-.005 0-.012 0-.018-.002l.019.002Zm.26-.035-.017.007.018-.007Zm.056-.026Zm.052-.031-.015.01.015-.01Zm-.303.095Z" opacity=".5"/><path fill="#46739D" d="m69.103 57.613.008.017a.543.543 0 0 0 .056.086l.011.015c.013.015.026.03.04.043a.558.558 0 0 0 .046.038l.016.011a.561.561 0 0 0 .093.052l.018.008a.557.557 0 0 0 .121.033l.02.002a.521.521 0 0 0 .106.001c.007 0 .013 0 .019-.002a.531.531 0 0 0 .116-.028l.017-.006a.61.61 0 0 0 .038-.017l.018-.01a.53.53 0 0 0 .036-.02l.016-.01a.528.528 0 0 0 .047-.037.656.656 0 0 1-.865-.23l.001.003a.545.545 0 0 0 .022.05Z"/><path fill="#172734" d="m69.103 57.613.008.017a.543.543 0 0 0 .056.086l.011.015c.013.015.026.03.04.043a.558.558 0 0 0 .046.038l.016.011a.561.561 0 0 0 .093.052l.018.008a.557.557 0 0 0 .121.033l.02.002a.521.521 0 0 0 .106.001c.007 0 .013 0 .019-.002a.531.531 0 0 0 .116-.028l.017-.006a.61.61 0 0 0 .038-.017l.018-.01a.53.53 0 0 0 .036-.02l.016-.01a.528.528 0 0 0 .047-.037.656.656 0 0 1-.865-.23l.001.003a.545.545 0 0 0 .022.05Z" opacity=".5"/><path fill="#BAB2CC" d="m69.246 56.967.014-.012-.014.012Zm.054-.04.014-.009-.013.01Zm.2-.077.012-.003-.012.002Zm.613.392c0-.004-.002-.007-.004-.011l.003.008a.05.05 0 0 1 .001.003Zm-.32-.361.017.008-.017-.008Zm.176.116.013.014-.013-.014Zm-.325-.152Zm.209.065.017.01-.017-.01Zm.161.136.01.014-.01-.014Zm-.643-.157.011-.005-.01.005Zm.207-.047h.017-.017Zm-.148.024Zm.656.302.007.018-.007-.018Zm-.164-.213.003.003-.003-.003Zm.137.158.002.005-.002-.005Z" opacity=".25"/><path fill="#46739D" d="m70.112 57.24-.003-.01a.539.539 0 0 0-.015-.044l-.007-.017a.558.558 0 0 0-.025-.051l-.002-.005a.536.536 0 0 0-.035-.052l-.01-.014a.541.541 0 0 0-.031-.035l-.013-.014a.547.547 0 0 0-.045-.04l-.002-.002a.534.534 0 0 0-.053-.036l-.016-.009a.528.528 0 0 0-.043-.022l-.018-.007a.543.543 0 0 0-.2-.04h-.016a.53.53 0 0 0-.065.005l-.012.003a.527.527 0 0 0-.051.011l-.019.006a.564.564 0 0 0-.05.018l-.01.004a.554.554 0 0 0-.056.03l-.014.008a.562.562 0 0 0-.04.029l-.015.01a.551.551 0 0 0-.047.044c.602-.383.892.186.913.23Z"/><path fill="#BAB2CC" d="m70.112 57.24-.003-.01a.539.539 0 0 0-.015-.044l-.007-.017a.558.558 0 0 0-.025-.051l-.002-.005a.536.536 0 0 0-.035-.052l-.01-.014a.541.541 0 0 0-.031-.035l-.013-.014a.547.547 0 0 0-.045-.04l-.002-.002a.534.534 0 0 0-.053-.036l-.016-.009a.528.528 0 0 0-.043-.022l-.018-.007a.543.543 0 0 0-.2-.04h-.016a.53.53 0 0 0-.065.005l-.012.003a.527.527 0 0 0-.051.011l-.019.006a.564.564 0 0 0-.05.018l-.01.004a.554.554 0 0 0-.056.03l-.014.008a.562.562 0 0 0-.04.029l-.015.01a.551.551 0 0 0-.047.044c.602-.383.892.186.913.23Z" opacity=".25"/><path fill="#46739D" d="M76.58 55.217Zm-2.385-3.425Zm1.242 3.574Zm-.245-.05Zm1.525-.163Zm-2.697-.645Zm2.068.852Zm-.775-.016Zm.53.042Zm-.277-.006Zm-1.476-.777Zm1.632.787Zm-1.55-.694Zm.141-3.016Zm.247 3.351Zm-.194-.147Zm-.088-.079Zm.524.365Zm-.364-3.595a2.506 2.506 0 0 0-.026.02l.026-.02Zm.597 3.692Zm-.576-.307Zm2.208.087-.063-.128a17.992 17.992 0 0 0-2.123-3.292c-.092.05-.187.104-.283.166a2.12 2.12 0 0 0-.512.914c-.114.428-.09.86.045 1.25.006.01 1.01 1.673 2.936 1.09Zm-2.897-.984Zm.183.35Zm2.011.964Zm-2.088-1.095Zm1.039.938Zm-1.097-1.048Zm2.647 1.09Zm-1.769-.149Zm1.658.187Z"/><path fill="#172734" d="M76.503 55.247Zm.111-.045-.034.015.034-.015Zm-.733.182-.037.002.037-.002Zm.125-.012Zm-1.81-.65-.024-.026.024.026Zm.201.186-.03-.024.03.024Zm-.111-.097-.007-.006.007.006Zm.307.241-.03-.02.03.02Zm-.1-.068Zm1.895.304-.035.012.035-.012Zm-.908.083Zm-.78-.255-.005-.002.005.002Zm.254.12Zm.118.044-.037-.013.037.013Zm.281.071-.038-.007.038.007Zm.251.033c-.013 0-.025-.002-.038-.003.013.001.025.003.038.003Zm.52-.029-.036.006.036-.006Zm-1.286-.169-.035-.017.035.017Zm-.946-.874-.017-.03c.006.01.01.02.017.03Zm.068.111-.007-.01.007.01Zm-.23-.467.005.013-.004-.012Zm.055.142-.016-.035.016.035Zm.053.112-.018-.038.018.037Zm.28.423Zm-.078-.095-.022-.03.022.03Z" opacity=".5"/><path fill="#46739D" d="m73.73 53.956.005.012c.011.032.023.064.036.095l.015.035a2.092 2.092 0 0 0 .09.184l.016.03.06.1.008.01c.019.03.039.058.059.086l.022.03a2.36 2.36 0 0 0 .13.158l.025.026c.027.029.054.056.083.083l.007.007c.026.025.053.048.08.072l.03.024a1.98 1.98 0 0 0 .166.123l.031.02c.034.022.068.043.103.062l.004.003a2 2 0 0 0 .103.053l.035.017a2.068 2.068 0 0 0 .198.08l.037.014a2.185 2.185 0 0 0 .241.064l.039.007a2.129 2.129 0 0 0 .213.03l.037.003a2.14 2.14 0 0 0 .241.002l.037-.002a2.093 2.093 0 0 0 .207-.024l.037-.006a1.99 1.99 0 0 0 .228-.055l.035-.01a2.162 2.162 0 0 0 .192-.072l.034-.015c.035-.015.07-.032.104-.05l-.052-.105c-1.926.583-2.93-1.08-2.935-1.09Z"/><path fill="#172734" d="m73.73 53.956.005.012c.011.032.023.064.036.095l.015.035a2.092 2.092 0 0 0 .09.184l.016.03.06.1.008.01c.019.03.039.058.059.086l.022.03a2.36 2.36 0 0 0 .13.158l.025.026c.027.029.054.056.083.083l.007.007c.026.025.053.048.08.072l.03.024a1.98 1.98 0 0 0 .166.123l.031.02c.034.022.068.043.103.062l.004.003a2 2 0 0 0 .103.053l.035.017a2.068 2.068 0 0 0 .198.08l.037.014a2.185 2.185 0 0 0 .241.064l.039.007a2.129 2.129 0 0 0 .213.03l.037.003a2.14 2.14 0 0 0 .241.002l.037-.002a2.093 2.093 0 0 0 .207-.024l.037-.006a1.99 1.99 0 0 0 .228-.055l.035-.01a2.162 2.162 0 0 0 .192-.072l.034-.015c.035-.015.07-.032.104-.05l-.052-.105c-1.926.583-2.93-1.08-2.935-1.09Z" opacity=".5"/><path fill="#BAB2CC" d="m74.387 51.615.024-.02-.024.02Zm-.1.088.027-.024-.027.024Z" opacity=".25"/><path fill="#46739D" d="m74.437 51.575-.026.02-.025.02-.074.064-.026.025c-.031.029-.062.058-.09.089.096-.062.19-.116.283-.166l-.042-.052Z"/><path fill="#BAB2CC" d="m74.437 51.575-.026.02-.025.02-.074.064-.026.025c-.031.029-.062.058-.09.089.096-.062.19-.116.283-.166l-.042-.052Z" opacity=".25"/><path fill="#46739D" d="M63.205 48.92Zm4.238 1.726Zm-5.035-1.126Zm.166-.16Zm4.428.437Zm.298.495Zm-3.718-1.535Zm-.176.069Zm3.469.81Zm.496.818Zm-4.658-1.214Zm.167-.124Zm4.327.998Zm-.465-.624Zm.364.453Zm-4.057-.935Zm.701-.306Zm1.617-.017Zm-.611-.099Zm.228.024Zm.614.147Zm-.416-.115Zm.763.264Zm-.172-.081Zm.788 5.027Zm-2.405-5.239Zm2.295.615Zm-2.478-.581Zm2.64.719Zm-2.043-.784Zm-.203.008Zm1.773.424Zm.157.1Zm-3.033 5.166Zm-1.106-.932Zm-.093-.136Zm-.256-.492Zm2.351 1.837Zm.401.033Zm-.748-.104Zm.526.091Zm-2.462-1.704Zm.08.156Zm2.027 1.497Zm-1.204-.543Zm-.132-.105Zm-.388-.398Zm.114.132Zm1.216.805Zm-.665-.332Zm.497.267Zm-.311-.151Zm-.588-.435Zm3.247.58Zm-1.038.239Zm.876-.175Zm-.158.053Zm.942-.476Zm-1.104.519Zm.822-.331Zm.14-.089Zm.312-.234c.437-.38.77-.889.93-1.49a2.986 2.986 0 0 0 0-1.558c-.063-.131-1.671-3.453-5.082-1.285a2.989 2.989 0 0 0-.721 1.29 2.987 2.987 0 0 0 .063 1.76c.019.031 1.665 2.746 4.81 1.283Zm-1.66.721Zm.173-.023Z"/><path fill="#172734" d="M61.902 52.925Zm2.316 1.64Zm2.08-.51Zm-.481.272-.047.02.047-.02Zm-.154.063Zm-.537.15c-.017.004-.035.006-.052.009.017-.003.035-.005.052-.009Zm.372-.092-.049.015.05-.015Zm.655-.299-.044.026.044-.026Zm-4.174-1.077-.024-.043.024.043Zm2.804 1.51-.052.004.052-.004Zm-.22.008Zm1.869-.634-.041.031.04-.03Zm-2.041.626-.053-.005.053.005Zm-2.641-2.013.007.017-.007-.017Zm.08.201c-.007-.017-.015-.033-.021-.05l.02.05Zm3.13 1.796Zm-1.482-.191Zm-.788-.464-.042-.034.042.034Zm-.5-.521-.032-.042.032.043Zm.928.815-.007-.003.007.003Zm-.29-.187Zm.141.095-.043-.029.043.03Zm.341.19-.048-.023.049.023Zm.334.132c-.018-.005-.035-.012-.052-.018.017.006.034.013.052.018Zm-1.111-.659-.01-.01.01.01Zm-.459-.549-.01-.015.01.015Zm.335.422-.034-.037.034.037Zm1.629.888-.054-.01.054.01Zm-1.741-1.012Z" opacity=".5"/><path fill="#46739D" d="m61.75 52.57.006.017c.016.045.033.09.051.133l.022.05a2.976 2.976 0 0 0 .126.258l.023.044c.027.047.056.094.085.14l.01.015c.027.04.055.081.084.12a2.878 2.878 0 0 0 .216.264c.01.014.022.026.033.038.038.04.077.08.117.118l.01.008c.036.035.075.07.114.102l.041.034a3.149 3.149 0 0 0 .235.174l.043.028c.048.03.096.06.145.088l.006.003c.047.027.096.052.145.076l.049.023a2.901 2.901 0 0 0 .28.114l.051.018a2.997 2.997 0 0 0 .34.091l.055.01a3.173 3.173 0 0 0 .3.041l.053.005a2.979 2.979 0 0 0 .34.003l.052-.003a3.023 3.023 0 0 0 .292-.033l.051-.009a3.07 3.07 0 0 0 .323-.077l.05-.016a3.013 3.013 0 0 0 .27-.1c.016-.008.032-.014.047-.02.1-.046.198-.096.293-.152l.044-.026a3.088 3.088 0 0 0 .239-.162l.04-.031a2.57 2.57 0 0 0 .129-.105c-3.146 1.464-4.792-1.25-4.81-1.281Z"/><path fill="#172734" d="m61.75 52.57.006.017c.016.045.033.09.051.133l.022.05a2.976 2.976 0 0 0 .126.258l.023.044c.027.047.056.094.085.14l.01.015c.027.04.055.081.084.12a2.878 2.878 0 0 0 .216.264c.01.014.022.026.033.038.038.04.077.08.117.118l.01.008c.036.035.075.07.114.102l.041.034a3.149 3.149 0 0 0 .235.174l.043.028c.048.03.096.06.145.088l.006.003c.047.027.096.052.145.076l.049.023a2.901 2.901 0 0 0 .28.114l.051.018a2.997 2.997 0 0 0 .34.091l.055.01a3.173 3.173 0 0 0 .3.041l.053.005a2.979 2.979 0 0 0 .34.003l.052-.003a3.023 3.023 0 0 0 .292-.033l.051-.009a3.07 3.07 0 0 0 .323-.077l.05-.016a3.013 3.013 0 0 0 .27-.1c.016-.008.032-.014.047-.02.1-.046.198-.096.293-.152l.044-.026a3.088 3.088 0 0 0 .239-.162l.04-.031a2.57 2.57 0 0 0 .129-.105c-3.146 1.464-4.792-1.25-4.81-1.281Z" opacity=".5"/><path fill="#BAB2CC" d="m67.195 50.09.013.024-.013-.024Zm-.225-.336.032.043-.031-.043Zm-3.439-.979.048-.018-.048.018Zm3.329.843.014.018-.015-.018Zm.218.286.027.039-.027-.04Zm-3.715-1.06.042-.017-.042.017Zm-.359.191Zm4.273 1.21Zm.157.372.009.03-.01-.03Zm-.727-1.161.035.035-.035-.035Zm.785 1.352-.008-.023a9578010675.483 9578010675.483 0 0 0 .008.023Zm-4.957-1.414.038-.034-.038.034Zm.143-.124.035-.03-.035.03Zm.175-.135.028-.018-.028.018Zm4.503 1.277.018.043-.018-.043Zm-4.18-1.476.028-.016-.028.016Zm2.549-.131.049.02-.05-.02Zm.213.095.008.005-.008-.004Zm-.809-.268.053.01-.053-.01Zm1.125.453.042.028-.042-.028Zm-2.332-.427.05-.011-.05.01Zm2.174.329.046.027-.046-.027Zm-1.158-.384.046.006-.046-.006Zm.607.136.051.018-.051-.018Zm-1.435-.118.045-.007-.046.007Zm.222-.029.033-.002-.033.002Zm2.108.625.012.01-.013-.01Zm.134.113.04.036-.04-.036Zm-1.851-.745c.01 0 .022 0 .033.002l-.033-.002Zm-.207-.002Z" opacity=".25"/><path fill="#46739D" d="m67.49 50.804-.006-.02a2.98 2.98 0 0 0-.042-.138l-.01-.03a3.012 3.012 0 0 0-.06-.162l-.018-.042a3 3 0 0 0-.147-.298l-.013-.024a2.92 2.92 0 0 0-.09-.147l-.027-.04a3.03 3.03 0 0 0-.075-.106l-.032-.042a3.567 3.567 0 0 0-.096-.119l-.014-.017a3.02 3.02 0 0 0-.118-.128l-.035-.035-.094-.09-.04-.036c-.04-.035-.08-.07-.122-.102l-.013-.01a3 3 0 0 0-.142-.105l-.043-.028a2.87 2.87 0 0 0-.112-.07c-.015-.01-.03-.02-.046-.028a2.936 2.936 0 0 0-.149-.081l-.009-.005a3.026 3.026 0 0 0-.164-.076l-.049-.02a3.01 3.01 0 0 0-.128-.048l-.051-.018a3.033 3.033 0 0 0-.56-.13l-.047-.006a3.082 3.082 0 0 0-.183-.017h-.034a2.961 2.961 0 0 0-.355.005c-.011 0-.022 0-.033.002-.06.005-.12.012-.179.02l-.045.008a2.847 2.847 0 0 0-.136.026l-.05.01a2.979 2.979 0 0 0-.343.1l-.048.018a3.052 3.052 0 0 0-.127.051l-.042.018c-.053.024-.106.05-.159.077l-.028.015a2.963 2.963 0 0 0-.296.18l-.027.019a3.09 3.09 0 0 0-.14.106l-.036.029a2.91 2.91 0 0 0-.104.09l-.038.034a2.89 2.89 0 0 0-.127.125c3.411-2.168 5.02 1.154 5.082 1.285Z"/><path fill="#BAB2CC" d="m67.49 50.804-.006-.02a2.98 2.98 0 0 0-.042-.138l-.01-.03a3.012 3.012 0 0 0-.06-.162l-.018-.042a3 3 0 0 0-.147-.298l-.013-.024a2.92 2.92 0 0 0-.09-.147l-.027-.04a3.03 3.03 0 0 0-.075-.106l-.032-.042a3.567 3.567 0 0 0-.096-.119l-.014-.017a3.02 3.02 0 0 0-.118-.128l-.035-.035-.094-.09-.04-.036c-.04-.035-.08-.07-.122-.102l-.013-.01a3 3 0 0 0-.142-.105l-.043-.028a2.87 2.87 0 0 0-.112-.07c-.015-.01-.03-.02-.046-.028a2.936 2.936 0 0 0-.149-.081l-.009-.005a3.026 3.026 0 0 0-.164-.076l-.049-.02a3.01 3.01 0 0 0-.128-.048l-.051-.018a3.033 3.033 0 0 0-.56-.13l-.047-.006a3.082 3.082 0 0 0-.183-.017h-.034a2.961 2.961 0 0 0-.355.005c-.011 0-.022 0-.033.002-.06.005-.12.012-.179.02l-.045.008a2.847 2.847 0 0 0-.136.026l-.05.01a2.979 2.979 0 0 0-.343.1l-.048.018a3.052 3.052 0 0 0-.127.051l-.042.018c-.053.024-.106.05-.159.077l-.028.015a2.963 2.963 0 0 0-.296.18l-.027.019a3.09 3.09 0 0 0-.14.106l-.036.029a2.91 2.91 0 0 0-.104.09l-.038.034a2.89 2.89 0 0 0-.127.125c3.411-2.168 5.02 1.154 5.082 1.285Z" opacity=".25"/><path fill="#46739D" d="M49.55 54.077Zm-3.171-1.84Zm-2.605 4.797Zm4.794 1.036Zm-4.578-.69Zm-.1-.148Zm5.739-2.981Zm-3.472-1.991Zm3.548 2.2Zm-.953 3.464Zm-.857.534Zm-.175.07Zm-.172.056Zm-.403.093Zm-3.044-1.155Zm.123.143Zm.164.167Zm4.028.346Zm-.154.096Zm-.802-5.936Zm1.349.737Zm.641.808Zm-.503-.673Zm-1.238-.794Zm.756.386Zm.168.124Zm-.547-.348Zm-.188-.088Zm-1.099-.257Zm2.539 1.466Zm-2.74-1.471Zm2.629 1.312Zm-.137-.173Zm-2.043-1.111Zm.215.036ZM45.78 58.61Zm-.239-.076Zm-.355-.147Zm.17.077Zm-.333-.162Zm-.203-.127Zm3.479-5.48Zm-3.634 5.371Zm1.488.62Zm.196.022Zm-.384-.055Zm2.786-.729c.473-.41.832-.96 1.006-1.61a3.228 3.228 0 0 0-.002-1.685c-.055-.117-1.264-2.612-3.783-2.114a17.971 17.971 0 0 0-2.25 4.267c.521.677 2.223 2.447 5.03 1.142Zm-4.228.028Zm2.25.765Zm-.183.003Zm.367-.017Z"/><path fill="#172734" d="m48.311 58.245-.047.029.047-.03Zm-3.914-.404-.01-.009.01.01Zm3.205.727-.053.017.053-.017Zm-3.036-.58-.044-.036.044.036Zm2.264.725-.057.004.057-.004Zm1.115-.276-.05.022.05-.022Zm-.165.069Zm-2.913-.299-.047-.03.047.03Zm1.35.488Zm-1.502-.592Zm3.753.04Zm-1.448.553Zm-.615.017-.057-.005.057.005Zm-.382-.049-.058-.011.058.01Zm-.993-.359-.007-.004.007.004Zm.209.107-.053-.025.053.025Zm3.374-.376-.045.034.045-.034Zm-3.195.454Zm.179.065-.056-.02.056.02Zm1.603.113-.056.01.056-.01Zm-3.51-1.796Zm.109.208-.026-.047.026.047Zm.102.168-.01-.015.01.015Zm.126.177-.035-.046.035.046Zm.114.145Zm.119.135-.035-.04.036.04Z" opacity=".5"/><path fill="#46739D" d="m44.521 57.952.045.036a3.219 3.219 0 0 0 .254.188l.047.03c.05.034.103.065.156.095l.007.004c.05.029.103.056.156.082l.053.025a3.312 3.312 0 0 0 .302.123l.056.02a3.182 3.182 0 0 0 .368.098l.059.011a3.11 3.11 0 0 0 .324.044l.058.005a3.252 3.252 0 0 0 .367.004c.019 0 .038-.002.057-.004a3.345 3.345 0 0 0 .315-.036c.018-.003.037-.005.055-.009a3.24 3.24 0 0 0 .35-.084l.052-.016a3.24 3.24 0 0 0 .293-.11l.051-.021c.109-.049.214-.103.317-.163l.047-.03a3.384 3.384 0 0 0 .258-.174l.045-.033a3.32 3.32 0 0 0 .138-.113c-2.806 1.305-4.508-.465-5.028-1.142l-.033.089a3.44 3.44 0 0 0 .083.163l.026.047c.029.051.06.102.092.152l.01.015c.029.045.06.088.09.131l.035.047a3.358 3.358 0 0 0 .199.24l.036.04c.041.042.083.085.126.126l.01.009c.04.038.082.075.124.11Z"/><path fill="#172734" d="m44.521 57.952.045.036a3.219 3.219 0 0 0 .254.188l.047.03c.05.034.103.065.156.095l.007.004c.05.029.103.056.156.082l.053.025a3.312 3.312 0 0 0 .302.123l.056.02a3.182 3.182 0 0 0 .368.098l.059.011a3.11 3.11 0 0 0 .324.044l.058.005a3.252 3.252 0 0 0 .367.004c.019 0 .038-.002.057-.004a3.345 3.345 0 0 0 .315-.036c.018-.003.037-.005.055-.009a3.24 3.24 0 0 0 .35-.084l.052-.016a3.24 3.24 0 0 0 .293-.11l.051-.021c.109-.049.214-.103.317-.163l.047-.03a3.384 3.384 0 0 0 .258-.174l.045-.033a3.32 3.32 0 0 0 .138-.113c-2.806 1.305-4.508-.465-5.028-1.142l-.033.089a3.44 3.44 0 0 0 .083.163l.026.047c.029.051.06.102.092.152l.01.015c.029.045.06.088.09.131l.035.047a3.358 3.358 0 0 0 .199.24l.036.04c.041.042.083.085.126.126l.01.009c.04.038.082.075.124.11Z" opacity=".5"/><path fill="#BAB2CC" d="m49.438 53.858.014.025-.014-.025Zm-1.59-1.388.053.02-.053-.02Zm1.062.702.038.037-.038-.037Zm-1.258-.775.056.02-.056-.02Zm-.449-.115.058.01-.058-.01Zm1.871 1.066.016.019-.016-.019Zm.684 1.286-.008-.025.005.02a.145.145 0 0 1 .003.005Zm-.992-1.598.042.039-.042-.039Zm-.149-.122.014.012-.014-.012Zm-.369-.249.05.03-.05-.03Zm.945.83.035.045-.035-.045Zm-1.115-.922.009.004-.009-.004Zm1.445 1.451Zm-2.527-1.774.051.007-.05-.007Zm2.614 1.955.019.046-.02-.046Zm.085.221.01.032-.01-.032Zm-3.351-2.187.036-.002-.036.002Zm.197-.01.058-.001h-.058Zm2.768 1.428.028.042-.028-.042Zm-2.545-1.427.036.002-.036-.001Zm1.654.542.046.03-.046-.03Z" opacity=".25"/><path fill="#46739D" d="m49.756 54.63-.006-.022-.045-.15-.01-.031a3.302 3.302 0 0 0-.066-.176l-.02-.045a3.435 3.435 0 0 0-.058-.13l-.025-.052a3.21 3.21 0 0 0-.075-.14l-.014-.026a3.33 3.33 0 0 0-.098-.16l-.029-.042a3.194 3.194 0 0 0-.081-.115l-.035-.046a3.337 3.337 0 0 0-.103-.128l-.016-.019a3.194 3.194 0 0 0-.127-.138l-.037-.037a3.267 3.267 0 0 0-.278-.247l-.014-.012a3.191 3.191 0 0 0-.154-.112l-.045-.03a3.356 3.356 0 0 0-.121-.077l-.05-.03a3.228 3.228 0 0 0-.162-.088l-.009-.005a3.259 3.259 0 0 0-.178-.081l-.052-.022a3.314 3.314 0 0 0-.139-.053l-.055-.019a3.353 3.353 0 0 0-.393-.105l-.058-.01a3.197 3.197 0 0 0-.154-.025l-.05-.007a3.246 3.246 0 0 0-.199-.018h-.036a3.326 3.326 0 0 0-.385.005l-.036.002a3.123 3.123 0 0 0-.186.022c-.063.084-.124.169-.184.254 2.52-.498 3.728 1.997 3.783 2.114Z"/><path fill="#BAB2CC" d="m49.756 54.63-.006-.022-.045-.15-.01-.031a3.302 3.302 0 0 0-.066-.176l-.02-.045a3.435 3.435 0 0 0-.058-.13l-.025-.052a3.21 3.21 0 0 0-.075-.14l-.014-.026a3.33 3.33 0 0 0-.098-.16l-.029-.042a3.194 3.194 0 0 0-.081-.115l-.035-.046a3.337 3.337 0 0 0-.103-.128l-.016-.019a3.194 3.194 0 0 0-.127-.138l-.037-.037a3.267 3.267 0 0 0-.278-.247l-.014-.012a3.191 3.191 0 0 0-.154-.112l-.045-.03a3.356 3.356 0 0 0-.121-.077l-.05-.03a3.228 3.228 0 0 0-.162-.088l-.009-.005a3.259 3.259 0 0 0-.178-.081l-.052-.022a3.314 3.314 0 0 0-.139-.053l-.055-.019a3.353 3.353 0 0 0-.393-.105l-.058-.01a3.197 3.197 0 0 0-.154-.025l-.05-.007a3.246 3.246 0 0 0-.199-.018h-.036a3.326 3.326 0 0 0-.385.005l-.036.002a3.123 3.123 0 0 0-.186.022c-.063.084-.124.169-.184.254 2.52-.498 3.728 1.997 3.783 2.114Z" opacity=".25"/><path fill="#2F4D69" d="M43.148 71.981c0 1.277 1.363 2.322 3.028 2.322h29.056c1.665 0 3.027-1.045 3.027-2.322 0-1.277-1.362-2.322-3.027-2.322H46.176c-1.665 0-3.028 1.045-3.028 2.322Z" opacity=".6"/><path fill="#7DAEDA" d="M41.967 72.45c0 1.381 1.458 2.511 3.24 2.511h30.715c1.782 0 3.24-1.13 3.24-2.511 0-1.381-1.458-2.511-3.24-2.511H45.207c-1.782 0-3.24 1.13-3.24 2.51Z"/><path stroke="#E5EFF8" stroke-linecap="round" stroke-miterlimit="10" stroke-width="6.606" d="M75.67 73.86H56.298" opacity=".1"/><path stroke="#E5EFF8" stroke-linecap="round" stroke-miterlimit="10" stroke-width="5.909" d="M54.899 73.86H53.5" opacity=".15"/><path stroke="#E5EFF8" stroke-linecap="round" stroke-miterlimit="10" stroke-width="6.606" d="M52.066 73.86h-6.074" opacity=".2"/><path fill="#371A45" d="M44.949 63.108c.814 3.038.256 6.24-1.914 6.822-2.17.58-4.589-1.41-5.403-4.449-.814-3.037.285-5.971 2.454-6.552 2.17-.581 4.048 1.141 4.863 4.18Z" opacity=".15"/><path fill="#fff" d="M44.699 63.36c.814 3.037.256 6.24-1.914 6.82-2.17.582-4.589-1.41-5.403-4.448-.814-3.037.285-5.971 2.454-6.552 2.17-.581 4.048 1.141 4.863 4.18Z"/><path fill="#371A45" d="M76.204 62.928c-1.027 2.973-.698 6.207 1.425 6.94 2.123.734 4.678-1.081 5.705-4.054 1.028-2.972.14-5.977-1.983-6.71-2.123-.733-4.119.852-5.147 3.824Z" opacity=".15"/><path fill="#fff" d="M76.456 63.18c-1.027 2.972-.698 6.206 1.425 6.94 2.123.733 4.678-1.082 5.705-4.055 1.028-2.972.14-5.977-1.983-6.71-2.124-.733-4.119.852-5.147 3.824Z"/><path stroke="#E7AD22" stroke-miterlimit="10" stroke-width="1.608" d="M70.996 79.433V77.39m-.783 2.354V77.73m1.567 2.043V77.76"/><path fill="#EAEA1B" d="M52.84 101.606a.808.808 0 0 0 .34-.025c.258-.093.37-.418.308-.685-.062-.267-.251-.484-.446-.677-.52-.515-3.685-2.791-3.735-1.132-.041 1.384 2.484 2.429 3.534 2.519Zm9.23 3.24-.41.328c-.088.07-.184.157-.183.269 0 .164.195.249.357.274.62.095 1.248-.073 1.854-.239.645-.178 1.371-.421 1.641-1.033.068-.154.09-.357-.034-.47-.102-.091-.257-.081-.393-.063a9.653 9.653 0 0 0-3.044.937l.212-.003Zm20.385-15.529c.044.187.277.248.47.27.838.093 1.686.107 2.528.04.667-.052 1.395-.19 1.818-.709.082-.1.152-.228.122-.354-.05-.21-.322-.261-.538-.266-.464-.009-4.636.014-4.4 1.019ZM71.218 99.28c-.536.533-.941 1.237-.956 1.992-.002.116.014.25.111.314.051.033.116.04.177.039.523-.005.935-.429 1.28-.821.387-.437 2.251-2.186 1.86-2.754-.46-.668-2.138.898-2.472 1.23Zm-39.41-11.567c.237.097.49.181.745.148.254-.034.505-.218.535-.472.03-.242-.14-.46-.313-.633-.9-.89-2.354-1.42-3.609-1.128.146.916 1.869 1.77 2.642 2.085Zm4.237 8.026c-.268.162-.192.568-.057.85a5.05 5.05 0 0 0 1.446 1.79c.137.107.352.2.466.07.048-.057.057-.136.062-.21a3.705 3.705 0 0 0-.922-2.656c-.15-.169-.336-.333-.561-.347-.226-.016-.468.2-.397.414l-.037.089Z"/><path fill="#fff" d="M86.065 101.092a5.944 5.944 0 0 1-2.413 3.901c1.067-.662 2.312-1.159 3.556-.992 1.23.164 2.286.95 3.166 1.823.88.873 1.655 1.863 2.644 2.609a14.665 14.665 0 0 1-2.21-2.582c-.31-.461-.597-.951-.715-1.494-.296-1.367.538-2.723 1.5-3.74-.758.194-1.403.787-2.185.814-1.08.038-1.861-.98-2.432-1.897a110.023 110.023 0 0 1-2.995-5.106c1.083 1.965 2.44 4.35 2.084 6.664Z" opacity=".34"/><path fill="#fff" d="M86.944 101.488c.018.606-.25 1.259-.796 1.524.72-.343 1.607-.133 2.26.323.655.457 1.126 1.124 1.583 1.778-.283-.432-.512-.909-.588-1.419-.076-.511.012-1.059.315-1.477-.53.113-1.117.164-1.58-.116-.234-.141-.415-.355-.583-.57a11.912 11.912 0 0 1-1.378-2.221c.352.686.743 1.386.767 2.178Z" opacity=".7"/><path fill="#fff" d="M43.433 103.103a4.537 4.537 0 0 1-3.074 1.667c.957-.034 1.969.108 2.729.69.75.574 1.151 1.494 1.403 2.405.252.91.389 1.858.76 2.727a11.163 11.163 0 0 1-.483-2.546c-.03-.422-.035-.855.093-1.258.322-1.017 1.388-1.598 2.41-1.906-.576-.159-1.227-.011-1.755-.289-.728-.384-.86-1.353-.89-2.176a83.67 83.67 0 0 1-.046-4.511c-.029 1.71-.035 3.801-1.147 5.197Z" opacity=".34"/><path fill="#fff" d="M43.865 103.697c-.217.408-.642.738-1.103.707.606.046 1.113.52 1.373 1.07.26.549.318 1.169.373 1.775-.024-.393.006-.795.149-1.162.143-.366.409-.695.768-.857-.393-.126-.801-.315-1.002-.675-.101-.182-.14-.392-.17-.598a9.047 9.047 0 0 1-.07-1.991c-.027.587-.033 1.198-.318 1.731Z" opacity=".7"/></svg>