<svg xmlns="http://www.w3.org/2000/svg" viewBox="0 0 2000 1600"><style>.st0{opacity:.75}.st1{fill:#fff}.st2,.st3{fill:#393a3d}.st3{stroke:#393a3d;stroke-width:1.54472;stroke-miterlimit:10}.st4{opacity:.15}.st6{fill:#dcb663}.st8{fill:#2c2b2b}.st9{fill:#1f1438}.st10{fill:none;stroke:#1f1e1f;stroke-width:6.10256;stroke-miterlimit:10}.st11,.st12{fill:#1f1c1d}.st12{opacity:.75;enable-background:new}.st13{fill:#42688f}.st14{opacity:.2;fill:#f3f3f4;enable-background:new}.st15{fill:#ecbf3d}.st17{fill:#e8bb4b}.st18{fill:#9a7b36}.st21{fill:#393a3d;stroke:#393a3d;stroke-width:1.56213;stroke-miterlimit:10}.st27{fill:#331b42}.st29{opacity:.95}.st30{fill:#598d3f}.st31{opacity:.4}.st32{opacity:.5}.st33{fill:#ebebeb}.st34{fill:#f5f5f5}.st35{fill:#fafafa}</style><g class="st0"><path d="M300 1450c466.595-10.314 933.406-10.396 1400-.002-466.594 10.398-933.405 10.316-1400 .002z" class="st1"/></g><path d="M1244.416 1061.222c84.884-34.991 156.457-81.042 190.762-125.748 26.1-34.003 21.297-85.021 3.28-100.692-21.983-19.128-58.566 8.618-58.566 8.618s-31.793 20.802-37.584 25.18c-31.903 24.219-55.148 37.488-80.96 49.398-9.166 4.227-19.238 8.179-30.147 11.788-25.728 8.548-56.067 15.203-90.057 19.361" class="st1"/><path d="M1244.416 1061.222c51.587-21.266 98.259-46.616 134.636-73.268.305.256-46.802-111.853-51.54-108.478-24.666 17.564-44.512 28.511-66.163 38.502-9.167 4.227-19.239 8.179-30.148 11.788-25.728 8.548-56.067 15.203-90.057 19.361" class="st2"/><path d="M779.528 988.713s-9.113 72.53 17.82 108.18c13.009 17.22 49.171 2.772 74.258 2.766 92.769-.021 82.695 87.726 32.547 112.166-64.546 31.457-220.182 34.453-200.888-113.64 11.518-88.406 107.716-176.796 107.716-176.796" class="st3"/><path d="M808.878 988.713s-9.113 72.53 17.82 108.18c13.009 17.22 49.171 2.772 74.257 2.766 92.77-.021 82.696 87.726 32.548 112.166-64.546 31.457-220.182 34.453-200.888-113.64 11.518-88.406 107.716-176.796 107.716-176.796" class="st4"/><path d="M772.593 1312.896c-12.09-5.7-13.686-22.58-14.984-34.257-2.562-23.056-3.27-46.76-2.293-69.96-.453-.347-.968-.708-1.263-1.156-1.228 19.55-2.713 38.964-1.072 58.548.411 4.925.677 11.328 1.417 17.934.272 2.404.612 4.839 1.04 7.24 1.576 8.807 4.431 17.135 10.1 21.919" class="st6"/><path d="M1000.96 1300.487c25.561 42.627 31.61 77.405 31.61 77.405v44.797h139.024c-1.545-21.626 3.09-38.618 3.09-38.618 145.203-159.106 41.707-444.88 41.707-444.88-233.253 92.684-432.521 0-432.521 0s-103.497 285.774 41.707 444.88c0 0 4.634 16.992 3.09 38.618H967.69v-44.797s6.18-35.529 32.44-78.78l.83 1.375z" class="st1"/><path d="M1000.96 1300.487c25.561 42.627 31.61 77.405 31.61 77.405v44.797h139.024c-1.545-21.626 3.09-38.618 3.09-38.618 145.203-159.106 41.707-444.88 41.707-444.88 0 .526-113.57 234.551-215.488 234.551-101.985 0-217.033-234.55-217.033-234.55s-103.497 285.773 41.707 444.879c0 0 4.634 16.992 3.09 38.618H967.69v-44.797s6.18-35.529 32.44-78.78l.83 1.375z" class="st3"/><path d="M765.538 1313.164c15.619 13.176 33.58-1.394 39.053-17.187 5.286-15.257 7.325-31.144 6.21-47.242-.748-.282-1.637-.78-2.052-1.503.222 16.894-2.172 32.274-9.476 47.792-4.34 9.223-14.25 23.723-26.68 17.872" class="st6"/><path d="M755.438 1291.245a114.578 114.578 0 0 1-1.04-7.24c.296 2.296.62 4.74 1.04 7.24z"/><ellipse cx="1101.716" cy="1424.233" class="st8" rx="70.053" ry="25.767"/><ellipse cx="898.754" cy="1424.233" class="st8" rx="70.053" ry="25.767"/><ellipse cx="1000.163" cy="875.636" class="st9" rx="201.972" ry="45.229"/><path d="M759.154 1242.482c10.039 51.348 241.796-18.995 241.796-18.995s230.118 70.344 240.156 18.995" class="st10"/><path d="M1000.96 1220.162s232.996 71.223 243.16 19.232c28.394-145.236-27.729-300.202-27.729-300.202 0 .097-48.659-18.681-46.342 14.479-28.577 98.038-169.919 157.51-169.919 157.51s-130.528-67.195-169.919-166.057c-40.935 0-46.341-5.932-46.341-5.932s-56.123 154.966-27.73 300.202c10.165 51.99 244.82-19.232 244.82-19.232z" class="st3"/><path d="m792.301 580.41-.731-.107s.54-.036.549-.045c.01-.008.182.152.182.152z"/><path d="M785.107 936.805s5.256 6.067 46.178 7.099c36.885 99.823 168.845 167.277 168.845 167.277s-291.43-24.346-215.023-174.376z" class="st11"/><circle cx="1000.13" cy="1134.862" r="9.15" class="st12"/><circle cx="1000.13" cy="1161.899" r="9.15" class="st12"/><circle cx="1000.13" cy="1191.546" r="9.15" class="st12"/><path d="M788.274 933.795s5.255 6.066 46.177 7.098c36.886 99.824 165.68 170.288 165.68 170.288s-288.265-27.356-211.857-177.386z" class="st2"/><path d="M1214.434 936.805s-5.255 6.067-46.177 7.099c-36.886 99.823-168.846 167.277-168.846 167.277s291.43-24.346 215.023-174.376z" class="st11"/><path d="M1211.268 933.795s-5.256 6.066-46.178 7.098c-36.886 99.824-165.68 170.288-165.68 170.288s288.265-27.356 211.858-177.386z" class="st2"/><path d="M1211.981 940.736s6.18-29.35-10.813-69.512c0 4.634-3.089 46.341-200.813 46.341h-.45c-197.723 0-200.813-41.707-200.813-46.341-16.992 40.163-10.813 69.512-10.813 69.512s194.635 91.139 423.702 0z" class="st13"/><path d="M1203.165 552.857c0 60.604-201.195-109.733-129.612-109.733s129.612 49.13 129.612 109.733z" class="st14"/><circle cx="1279.077" cy="619.435" r="92.683" class="st13"/><circle cx="1329.529" cy="643.764" r="16.992" class="st15"/><circle cx="1329.529" cy="595.105" r="16.992" class="st15"/><circle cx="721.184" cy="619.435" r="92.683" class="st13"/><circle cx="670.731" cy="643.764" r="16.992" class="st15"/><circle cx="670.731" cy="595.105" r="16.992" class="st15"/><ellipse cx="1000.13" cy="627.931" class="st9" rx="300.448" ry="281.911"/><path d="M1000.13 346.02c-165.933 0-300.448 126.215-300.448 281.91s134.515 281.912 300.448 281.912 300.448-126.216 300.448-281.911-134.515-281.912-300.448-281.912zm0 488.841c-201.913 0-256.423-97.196-256.423-217.094s114.805-217.095 256.423-217.095 256.424 97.197 256.424 217.095-54.51 217.094-256.424 217.094z" class="st1"/><path fill="#cdc8d2" d="M1000.13 834.861c-201.913 0-256.423-97.196-256.423-217.094 12.358 50.08 92.683 212.275 256.423 217.094z" opacity=".2"/><path d="M1203.165 552.857c0 60.604-201.195-109.733-129.612-109.733s129.612 49.13 129.612 109.733z" class="st14"/><path d="M1046.614 948.244c0-8.958 5.908-25.076-.128-28.624-6.041-3.547-24.033 14.43-24.033 14.43l-16.657 10-16.657-10s-17.99-17.977-24.03-14.43c-6.037 3.55-.13 20.576-.13 28.624 0 8.048-6.137 25.014-.132 28.62 6.01 3.605 24.162-14.194 24.162-14.194l16.787-9.863 16.79 9.863s18.151 17.8 24.16 14.194c6.005-3.606-.132-19.664-.132-28.62z" class="st17"/><path d="m1011.748 940.751 16.656-10s6.31-6.303 12.713-10.708c-7.679 3.163-18.558 14.029-18.558 14.029l-10.968 6.586.157.093zm-40.951 32.814c-6.005-3.604.133-20.572.133-28.622 0-6.599-3.97-19.228-2.07-25.518-1.433-.362-2.69-.34-3.642.22-6.044 3.552-.134 20.574-.134 28.623 0 8.051-6.138 25.016-.13 28.621 2.499 1.499 7.096-.703 11.616-3.79-2.323.981-4.377 1.305-5.773.466zm57.738-14.19-16.787-9.865-5.749 3.38 16.688 9.803s18.158 17.803 24.165 14.196c1.087-.654 1.774-1.72 2.17-3.07-7.656-1.866-20.487-14.444-20.487-14.444z" class="st18"/><path fill="#22163f" d="M1037.031 942.787c-.285-.06-.632-.126-1.025-.203-.398-.078-.85-.113-1.343-.18a15.338 15.338 0 0 0-1.597-.15c-.569-.024-1.17-.098-1.797-.075-.62.014-1.266-.02-1.92.04-.651.045-1.32.067-1.981.159-1.33.137-2.643.385-3.875.658-1.22.285-2.353.603-3.307.94-.963.317-1.744.648-2.294.883a9.886 9.886 0 0 0-.645.298l-.22.11.266.497.206 1.208s.154-.03.428-.08a24.654 24.654 0 0 1 3.072-.292 19.916 19.916 0 0 1 2.081.026c.71.046 1.413.147 2.067.267.324.086.64.163.934.238.29.097.568.19.824.274.243.113.468.216.667.307.207.082.358.2.496.278l.429.261s-.143-.115-.395-.314c-.124-.097-.267-.241-.46-.351a94.207 94.207 0 0 0-.64-.402c-.248-.123-.517-.258-.8-.397-.29-.124-.605-.241-.929-.367a17.685 17.685 0 0 0-2.092-.568 20.785 20.785 0 0 0-2.146-.324 17.13 17.13 0 0 0-.948-.078c.177-.079.35-.16.543-.236a32.545 32.545 0 0 1 3.132-1.146c1.166-.35 2.429-.693 3.715-.914.64-.137 1.287-.21 1.926-.301.634-.106 1.27-.119 1.883-.177.614-.07 1.206-.039 1.768-.06.565-.023 1.097.003 1.59.032.492.03.945.031 1.344.079.4.05.745.086 1.032.124.572.071.901.11.901.11l-.89-.174zm-62.239 0c.285-.06.632-.126 1.025-.203.396-.078.85-.113 1.341-.18a15.477 15.477 0 0 1 1.6-.15c.568-.024 1.169-.098 1.794-.075.621.014 1.268-.02 1.92.04.653.045 1.322.067 1.982.159 1.328.137 2.646.385 3.872.658 1.224.285 2.357.603 3.313.94.96.317 1.743.648 2.292.883.274.119.491.218.645.298l.22.11-.264.497-.208 1.208-.428-.08a24.586 24.586 0 0 0-3.074-.292 19.917 19.917 0 0 0-2.081.026c-.707.046-1.41.147-2.065.267-.326.086-.638.163-.938.238l-.818.274-.671.307c-.205.082-.355.2-.497.278-.27.168-.426.261-.426.261l.39-.314c.13-.097.27-.241.463-.351.19-.122.408-.256.64-.402l.802-.397c.293-.124.607-.241.927-.367.658-.22 1.37-.422 2.094-.568a20.674 20.674 0 0 1 2.147-.324c.327-.038.642-.06.947-.078-.176-.079-.35-.16-.545-.236a32.666 32.666 0 0 0-3.128-1.146c-1.17-.35-2.433-.693-3.717-.914-.638-.137-1.287-.21-1.925-.301-.64-.106-1.272-.119-1.884-.177-.612-.07-1.206-.039-1.77-.06a15.887 15.887 0 0 0-1.587.032c-.493.03-.944.031-1.347.079-.396.05-.743.086-1.03.124l-.901.11.89-.174z"/><path d="M1037.031 942.787c-.285-.06-.632-.126-1.025-.203-.398-.078-.85-.113-1.343-.18a15.338 15.338 0 0 0-1.597-.15c-.569-.024-1.17-.098-1.797-.075-.62.014-1.266-.02-1.92.04-.651.045-1.32.067-1.981.159-1.33.137-2.643.385-3.875.658-1.22.285-2.353.603-3.307.94-.963.317-1.744.648-2.294.883a9.886 9.886 0 0 0-.645.298l-.22.11.266.497.206 1.208s.154-.03.428-.08a24.654 24.654 0 0 1 3.072-.292 19.916 19.916 0 0 1 2.081.026c.71.046 1.413.147 2.067.267.324.086.64.163.934.238.29.097.568.19.824.274.243.113.468.216.667.307.207.082.358.2.496.278l.429.261s-.143-.115-.395-.314c-.124-.097-.267-.241-.46-.351a94.207 94.207 0 0 0-.64-.402c-.248-.123-.517-.258-.8-.397-.29-.124-.605-.241-.929-.367a17.685 17.685 0 0 0-2.092-.568 20.785 20.785 0 0 0-2.146-.324 17.13 17.13 0 0 0-.948-.078c.177-.079.35-.16.543-.236a32.545 32.545 0 0 1 3.132-1.146c1.166-.35 2.429-.693 3.715-.914.64-.137 1.287-.21 1.926-.301.634-.106 1.27-.119 1.883-.177.614-.07 1.206-.039 1.768-.06.565-.023 1.097.003 1.59.032.492.03.945.031 1.344.079.4.05.745.086 1.032.124.572.071.901.11.901.11l-.89-.174zm-62.239 0c.285-.06.632-.126 1.025-.203.396-.078.85-.113 1.341-.18a15.477 15.477 0 0 1 1.6-.15c.568-.024 1.169-.098 1.794-.075.621.014 1.268-.02 1.92.04.653.045 1.322.067 1.982.159 1.328.137 2.646.385 3.872.658 1.224.285 2.357.603 3.313.94.96.317 1.743.648 2.292.883.274.119.491.218.645.298l.22.11-.264.497-.208 1.208-.428-.08a24.586 24.586 0 0 0-3.074-.292 19.917 19.917 0 0 0-2.081.026c-.707.046-1.41.147-2.065.267-.326.086-.638.163-.938.238l-.818.274-.671.307c-.205.082-.355.2-.497.278-.27.168-.426.261-.426.261l.39-.314c.13-.097.27-.241.463-.351.19-.122.408-.256.64-.402l.802-.397c.293-.124.607-.241.927-.367.658-.22 1.37-.422 2.094-.568a20.674 20.674 0 0 1 2.147-.324c.327-.038.642-.06.947-.078-.176-.079-.35-.16-.545-.236a32.666 32.666 0 0 0-3.128-1.146c-1.17-.35-2.433-.693-3.717-.914-.638-.137-1.287-.21-1.925-.301-.64-.106-1.272-.119-1.884-.177-.612-.07-1.206-.039-1.77-.06a15.887 15.887 0 0 0-1.587.032c-.493.03-.944.031-1.347.079-.396.05-.743.086-1.03.124l-.901.11.89-.174z" class="st1"/><path d="M1037.031 942.787c-.285-.06-.632-.126-1.025-.203-.398-.078-.85-.113-1.343-.18a15.338 15.338 0 0 0-1.597-.15c-.569-.024-1.17-.098-1.797-.075-.62.014-1.266-.02-1.92.04-.651.045-1.32.067-1.981.159-1.33.137-2.643.385-3.875.658-1.22.285-2.353.603-3.307.94-.963.317-1.744.648-2.294.883a9.886 9.886 0 0 0-.645.298l-.22.11.266.497.206 1.208s.154-.03.428-.08a24.654 24.654 0 0 1 3.072-.292 19.916 19.916 0 0 1 2.081.026c.71.046 1.413.147 2.067.267.324.086.64.163.934.238.29.097.568.19.824.274.243.113.468.216.667.307.207.082.358.2.496.278l.429.261s-.143-.115-.395-.314c-.124-.097-.267-.241-.46-.351a94.207 94.207 0 0 0-.64-.402c-.248-.123-.517-.258-.8-.397-.29-.124-.605-.241-.929-.367a17.685 17.685 0 0 0-2.092-.568 20.785 20.785 0 0 0-2.146-.324 17.13 17.13 0 0 0-.948-.078c.177-.079.35-.16.543-.236a32.545 32.545 0 0 1 3.132-1.146c1.166-.35 2.429-.693 3.715-.914.64-.137 1.287-.21 1.926-.301.634-.106 1.27-.119 1.883-.177.614-.07 1.206-.039 1.768-.06.565-.023 1.097.003 1.59.032.492.03.945.031 1.344.079.4.05.745.086 1.032.124.572.071.901.11.901.11l-.89-.174zm-62.239 0c.285-.06.632-.126 1.025-.203.396-.078.85-.113 1.341-.18a15.477 15.477 0 0 1 1.6-.15c.568-.024 1.169-.098 1.794-.075.621.014 1.268-.02 1.92.04.653.045 1.322.067 1.982.159 1.328.137 2.646.385 3.872.658 1.224.285 2.357.603 3.313.94.96.317 1.743.648 2.292.883.274.119.491.218.645.298l.22.11-.264.497-.208 1.208-.428-.08a24.586 24.586 0 0 0-3.074-.292 19.917 19.917 0 0 0-2.081.026c-.707.046-1.41.147-2.065.267-.326.086-.638.163-.938.238l-.818.274-.671.307c-.205.082-.355.2-.497.278-.27.168-.426.261-.426.261l.39-.314c.13-.097.27-.241.463-.351.19-.122.408-.256.64-.402l.802-.397c.293-.124.607-.241.927-.367.658-.22 1.37-.422 2.094-.568a20.674 20.674 0 0 1 2.147-.324c.327-.038.642-.06.947-.078-.176-.079-.35-.16-.545-.236a32.666 32.666 0 0 0-3.128-1.146c-1.17-.35-2.433-.693-3.717-.914-.638-.137-1.287-.21-1.925-.301-.64-.106-1.272-.119-1.884-.177-.612-.07-1.206-.039-1.77-.06a15.887 15.887 0 0 0-1.587.032c-.493.03-.944.031-1.347.079-.396.05-.743.086-1.03.124l-.901.11.89-.174z" class="st18"/><path d="M1017.39 955.76c0 5.185-4.088 9.39-9.129 9.39h-4.727c-5.042 0-9.128-4.205-9.128-9.39v-15.014c0-5.19 4.086-9.393 9.128-9.393h4.727c5.04 0 9.129 4.203 9.129 9.393v15.014z" class="st17"/><path d="M1014.11 961.825h-4.726c-5.042 0-9.129-4.2-9.129-9.389v-15.014c0-2.274.786-4.353 2.09-5.978-4.478.601-7.934 4.53-7.934 9.302v15.014c0 5.183 4.086 9.388 9.128 9.388h4.726c2.835 0 5.366-1.329 7.041-3.41a9.241 9.241 0 0 1-1.197.087z" class="st18"/><path d="M1068.187 1157.366s48.653 14.303 117.396 14.764m-253.51-14.764s-48.653 14.303-117.396 14.764" class="st10" opacity=".25"/><g id="XMLID_00000117655401383240329940000008728311702009887146_"><path id="XMLID_00000130634441718003405830000013974361515116274839_" d="m1005.27 346.98.59-.001h-2.115 1.526z" class="st9"/><path id="XMLID_00000069360374144871708300000000506351306933080996_" d="M868.457 298.206h263.347l-.006.282c1.985-53.13 6.712-106.105 14.168-158.492 1.56-10.967-4.327-21.63-14.456-26.117-41.773-18.505-220.986-18.505-262.76 0-10.129 4.487-16.016 15.15-14.455 26.117 7.451 52.355 12.177 105.298 14.164 158.397l-.002-.127v-.06z" class="st21"/><path id="XMLID_00000170975772677132519590000016349071082935047320_" d="m994.99 346.98 1.526-.001H994.4h.59z" class="st9"/><path id="XMLID_00000078741362632910176520000000284540987245286335_" fill="#e0b253" d="M905.24 343.035c29.544 3.287 59.709 3.935 89.16 3.944h2.116l3.614-.004 3.615.004h2.115c29.451-.009 59.616-.657 89.16-3.944 11.21-1.248 23.75-2.33 35.912-4.815l.866-39.732.006-.282H868.457v.06l.002.127.869 39.827c12.163 2.485 24.703 3.567 35.912 4.815z"/><path id="XMLID_00000146469411026708365320000009028615106691979925_" d="M1190.454 294.996c-9.087 2.743-10.752 14.87-16.303 21.304-10.84 12.563-26.68 18.541-43.219 21.92-12.163 2.485-24.703 3.567-35.912 4.815-29.544 3.287-59.709 3.935-89.16 3.944h-.59a2057.839 2057.839 0 0 1-5.14-.005l-3.614.005H994.4c-29.451-.009-59.616-.657-89.16-3.944-11.21-1.248-23.75-2.33-35.912-4.815-16.538-3.379-32.378-9.357-43.219-21.92-5.55-6.433-7.215-18.56-16.303-21.304-13.683-4.13-17.865 14.496-17.473 23.105.801 17.609 15.503 33.873 29.024 43.704 17.26 12.548 38.529 19.578 59.035 24.646 37.324 9.224 76.282 11.494 114.598 11.494 1.668 0 5.008-.019 5.008-.019s3.605.02 5.273.02c38.316 0 77.274-2.271 114.597-11.495 20.507-5.068 41.776-12.098 59.036-24.646 13.52-9.83 28.222-26.095 29.024-43.704.392-8.61-3.79-27.235-17.474-23.105z" class="st21"/></g><path fill="#cbcbca" d="M1374.465 934.393h31.672v-214.42h-39.073c-9.618 40.791-14.314 97.25 32.841 101.772v94.64c-14.494 1.649-25.44 9.1-25.44 18.008z"/><path fill="#b2b1b0" d="M1437.805 934.393h-31.668v-214.42h39.07c9.616 40.791 14.313 97.25-32.842 101.772v94.64c14.495 1.649 25.44 9.1 25.44 18.008z"/><path fill="#ed2e2d" d="M1406.139 738.307v74.59h-.043c-41.012-.044-43.035-39.793-37.038-74.59h37.08z"/><path fill="#e31e26" d="M1406.17 812.896h-.031v-74.589h37.067c6 34.848 4.02 74.59-37.036 74.59z"/><g class="st4"><path d="M1417.001 826.759c-7.396-.792-37.536 16.293-26.915 41.674 8.942 21.37 9.96 39.323 27.063 42.175 14.193 2.366 24.025 4.517 29.834-2.576 5.81-7.092 16.952-76.25-29.982-81.273z" class="st27"/></g><path d="M1419.54 825.58c-7.382-.92-37.814 15.64-27.635 41.202 8.57 21.521 9.277 39.49 26.329 42.638 14.15 2.612 23.943 4.932 29.874-2.059 5.931-6.99 18.27-75.945-28.569-81.78z" class="st1"/><g class="st4"><path d="M1446.339 848.157c9.953 23.213 5.706 54.699 1.977 59.27-5.807 7.093-15.638 4.944-29.83 2.577-12.105-2.023-16.158-11.587-20.655-24.583 3.106 4.391 7.174 7.381 13.342 8.405 14.192 2.367 20.03 2.69 26.234-4.068 7.186-7.833 11.237-24.937 8.932-41.601z" class="st27"/></g><path fill="#331b42" d="M1375.707 857.607s14.762-5.43 22.017 1.454c11.217 10.619-19.663 34.355-19.678 41.21" opacity=".15"/><path d="M1376.342 901.443c.016-6.856 30.895-30.592 19.678-41.21-7.255-6.884-22.016-1.454-22.016-1.454l-18.775 17.032" class="st1"/><g class="st29"><path d="M1795.751 848.329s-43.909-5.673-61.5-56.017c-10.879-31.166-40.444-88.294-65.225-83.551l-57.719 44.595s30.9 31.252 43.662 74.046c12.536 42.063 69.56 80.23 69.56 80.23l71.222-59.303z" class="st30"/><g class="st31"><path d="M1664.617 823.353c-9.94-21.602 3.826-43.578 21.404-48.18 17.58-4.603 37.659 13.952 42.262 31.523 4.597 17.588-5.93 35.562-23.508 40.166-17.58 4.601-32.562-6.997-40.158-23.509z" class="st1"/></g><path d="M1673.176 812.407c.527-.18 1.39.926 2.647 2.886 1.276 1.928 2.96 4.794 5.61 7.362 1.295 1.242 2.91 2.378 4.697 3.067 1.733.687 3.74.832 5.107.214 1.514-.577 2.89-2.118 3.212-3.682.38-1.411-.219-3.482-1.684-6.104-.706-1.302-1.548-2.693-2.328-4.283-.776-1.589-1.534-3.413-1.83-5.54a12.614 12.614 0 0 1 .01-3.286 10.15 10.15 0 0 1 1.006-3.248c1.008-2.024 2.603-3.556 4.345-4.562a11.398 11.398 0 0 1 5.61-1.527c1.97.01 3.614.475 5.088 1.153 2.924 1.354 4.877 3.376 6.336 5.294 1.458 1.968 2.325 3.864 2.964 5.549a26.696 26.696 0 0 1 1.233 4.324c.46 2.418.407 3.806-.087 3.988-.512.199-1.443-.86-2.733-2.84-1.318-1.912-2.972-4.895-5.567-7.41-1.303-1.225-2.91-2.36-4.593-2.894-1.732-.537-3.172-.391-4.498.53-.629.446-1.114 1.03-1.355 1.64-.139.315-.192.615-.223.966-.03.383-.012.77.063 1.21.259 1.77 1.773 4.21 3.443 7.21.823 1.525 1.663 3.217 2.189 5.234a14.89 14.89 0 0 1 .447 3.189c.015 1.123-.097 2.277-.414 3.337a12.517 12.517 0 0 1-8.274 8.57c-3.955 1.238-7.566.244-10.244-1.168-2.705-1.43-4.658-3.368-6.12-5.304-2.815-3.898-3.759-7.473-4.245-9.874-.444-2.432-.313-3.837.188-4.001z" class="st30"/><path d="M1675.185 832.208c-.645-.864 8.346-8.684 20.089-17.453 11.746-8.788 21.79-15.21 22.435-14.345.646.864-8.344 8.684-20.09 17.47-11.736 8.788-21.787 15.192-22.434 14.328zm-2.493-5.563c-.654-.864 7.472-8.031 18.129-15.987 10.666-7.975 19.837-13.724 20.481-12.86.647.863-7.473 8.03-18.136 15.987-10.658 7.972-19.828 13.723-20.474 12.86z" class="st30"/><g class="st32"><path d="m1621.031 754.767 52.664-40.37.625.276c29.137 12.724 45.958 57.594 57.093 87.29 1.917 5.115 3.728 9.948 5.395 14.052 11.139 27.51 42.105 34.83 44.704 34.005l1.243 1.944-56.103 44.479-.658-.325c-40.128-19.894-62.143-58.446-68.802-85.413-6.222-25.178-34.954-54.707-35.246-55l-.915-.938zm52.983-37.688-49.498 37.943c5.086 5.358 29.121 31.603 34.927 55.123 6.51 26.34 27.927 63.928 66.921 83.56l52.39-41.536c-2.56-.417-5.45-1.346-6.283-1.62-6.559-2.177-28.66-11.04-37.821-33.658-1.67-4.136-3.489-8.982-5.414-14.114-10.914-29.108-27.366-72.994-55.222-85.698z" class="st1"/></g><path d="M1802.6 163.46s4.837 28.412-23.146 48.957c-17.325 12.712-47.25 42.003-39.574 56.524l38.759 27.426s13.563-25.19 37.767-41.29c23.793-15.82 36.681-58.588 36.681-58.588l-50.488-33.029z" class="st30"/><g class="st31"><path d="M1812.047 249.844c-11.552 10.305-27.853 5.925-34.068-4.14-6.216-10.065 1.506-26.1 11.566-32.314 10.07-6.213 23.265-3.087 29.481 6.977 6.215 10.066 1.851 21.602-6.979 29.477z" class="st1"/></g><path d="M1803.602 246.603c-.212-.294.312-1.042 1.293-2.198.957-1.162 2.42-2.756 3.513-4.895.526-1.043.926-2.265 1.014-3.508.097-1.21-.195-2.486-.84-3.22-.649-.832-1.87-1.395-2.905-1.297-.95.032-2.125.8-3.479 2.211-.675.688-1.38 1.477-2.221 2.265-.842.786-1.833 1.606-3.1 2.196a8.21 8.21 0 0 1-2.047.62 6.6 6.6 0 0 1-2.214-.007c-1.451-.242-2.709-.943-3.667-1.835a7.418 7.418 0 0 1-2.02-3.201 7.838 7.838 0 0 1-.252-3.387c.285-2.079 1.171-3.679 2.088-4.953.947-1.283 1.96-2.184 2.888-2.903a17.383 17.383 0 0 1 2.457-1.591c1.417-.747 2.291-.979 2.499-.706.221.28-.26 1.062-1.247 2.243-.94 1.184-2.48 2.783-3.55 4.877-.516 1.044-.916 2.261-.927 3.41-.004 1.18.36 2.05 1.187 2.7.397.306.854.496 1.28.53.222.026.419.002.643-.045.244-.054.482-.14.74-.27 1.053-.499 2.284-1.907 3.833-3.518.792-.802 1.685-1.647 2.84-2.36a9.66 9.66 0 0 1 1.9-.885c.696-.224 1.436-.374 2.156-.379a8.148 8.148 0 0 1 6.912 3.517c1.524 2.225 1.593 4.663 1.225 6.599-.375 1.956-1.209 3.54-2.135 4.82-1.89 2.495-3.935 3.764-5.337 4.524-1.43.74-2.329.927-2.527.646z" class="st30"/><path d="M1815.545 241.578c-.415.566-6.996-3.54-14.693-9.178-7.708-5.636-13.62-10.664-13.204-11.23.414-.567 6.995 3.54 14.703 9.174 7.706 5.631 13.608 10.667 13.194 11.234zm-2.988 2.612c-.413.572-6.423-3.12-13.406-8.237-6.997-5.119-12.323-9.731-11.909-10.297.414-.567 6.424 3.12 13.408 8.242 6.994 5.114 12.321 9.726 11.907 10.293z" class="st30"/><g class="st32"><path d="M1777.663 290.046 1742.5 264.96l.052-.441c2.366-20.561 27.09-39.584 43.451-52.175 2.818-2.168 5.482-4.216 7.718-6.036 15-12.176 13.656-32.847 12.646-34.307l.973-1.144 38.379 26.443-.077.471c-4.735 28.77-24.535 49.82-40.05 59.105-14.487 8.672-27.392 32.184-27.518 32.422l-.41.748zm-33.556-25.796 33.051 23.578c2.366-4.187 14.121-24.15 27.654-32.246 15.154-9.072 34.469-29.568 39.257-57.581l-35.84-24.693c.229 1.673.202 3.65.19 4.22-.105 4.496-1.41 19.943-13.742 29.956-2.256 1.828-4.926 3.884-7.753 6.06-16.038 12.341-40.219 30.947-42.817 50.706z" class="st1"/></g><path d="M1584.374 404.613s-43.815 6.358-74.31-37.39c-18.869-27.086-62.724-74.145-85.313-62.904l-43.58 58.488s38.173 21.779 61.986 59.556c23.398 37.134 88.592 58.539 88.592 58.539l52.625-76.289z" class="st30"/><g class="st31"><path d="M1451.359 415.866c-15.39-18.128-8.05-42.998 7.64-52.163 15.692-9.167 40.026 3.297 49.19 18.98 9.161 15.7 3.864 35.845-11.826 45.011-15.692 9.166-33.243 2.029-45.004-11.828z" class="st1"/></g><path d="M1456.653 403.02c.46-.316 1.589.517 3.327 2.067 1.748 1.514 4.142 3.82 7.386 5.58 1.581.847 3.443 1.507 5.348 1.689 1.855.194 3.826-.206 4.977-1.17 1.303-.963 2.213-2.817 2.101-4.41-.013-1.461-1.147-3.295-3.265-5.426-1.03-1.063-2.215-2.177-3.394-3.497-1.176-1.322-2.397-2.875-3.255-4.842a12.586 12.586 0 0 1-.875-3.168 10.152 10.152 0 0 1 .094-3.4c.427-2.22 1.55-4.125 2.957-5.563a11.398 11.398 0 0 1 4.991-2.98c1.9-.522 3.609-.516 5.211-.261 3.181.517 5.605 1.938 7.528 3.393 1.934 1.503 3.28 3.095 4.349 4.546a26.7 26.7 0 0 1 2.35 3.833c1.095 2.204 1.418 3.555.99 3.864-.439.329-1.62-.44-3.397-2-1.783-1.487-4.18-3.913-7.356-5.636-1.584-.83-3.438-1.49-5.202-1.552-1.812-.05-3.16.478-4.19 1.722-.485.599-.795 1.292-.863 1.945-.049.34-.02.643.046.99.073.377.196.745.385 1.148.727 1.635 2.843 3.578 5.259 6.017 1.202 1.247 2.466 2.65 3.517 4.451.519.91.958 1.89 1.288 2.95.318 1.079.52 2.22.5 3.326 0 4.515-2.373 8.335-5.66 10.482-3.476 2.257-7.222 2.271-10.18 1.633-2.99-.65-5.394-1.99-7.322-3.46-3.762-2.997-5.633-6.186-6.748-8.367-1.082-2.223-1.335-3.611-.897-3.904z" class="st30"/><path d="M1463.92 421.548c-.854-.657 5.7-10.61 14.648-22.217 8.946-11.625 16.89-20.514 17.745-19.855.855.658-5.699 10.61-14.644 22.234-8.937 11.623-16.894 20.497-17.75 19.838zm-3.899-4.686c-.862-.655 5.034-9.746 13.155-20.278 8.126-10.55 15.41-18.557 16.263-17.899.855.657-5.035 9.746-13.162 20.28-8.118 10.547-15.401 18.555-16.256 17.897z" class="st30"/><g class="st32"><path d="m1390.916 361.547 39.85-53.057.675.097c31.487 4.41 59.769 43.094 78.488 68.695 3.223 4.41 6.268 8.577 8.979 12.08 18.134 23.495 49.928 22.209 52.208 20.714l1.72 1.537-42.054 57.941-.722-.135c-44.003-8.356-75.585-39.556-89.258-63.734-12.771-22.574-48.392-43.277-48.753-43.481l-1.133-.657zm40.879-50.56-37.454 49.868c6.34 3.791 36.554 22.596 48.478 43.684 13.36 23.614 44.108 54.048 86.948 62.457l39.272-54.107c-2.578.286-5.612.17-6.487.13-6.902-.33-30.574-2.916-45.487-22.233-2.723-3.532-5.778-7.71-9.014-12.134-18.348-25.094-46.009-62.93-76.256-67.666z" class="st1"/></g><path d="M1616.178 952.211s-4.217 35.652-44.884 50.355c-25.175 9.093-71.24 33.563-67.178 53.615l36.663 46.412s25.07-25.328 59.658-36.049c33.997-10.53 64.447-57.1 64.447-57.1l-48.706-57.233z" class="st30"/><g class="st31"><path d="M1597.07 1058.757c-17.43 8.248-35.368-2.722-39.253-16.935-3.885-14.214 10.985-30.657 25.192-34.543 14.22-3.88 28.887 4.498 32.772 18.711 3.885 14.215-5.389 26.464-18.71 32.767z" class="st1"/></g><path d="M1588.12 1051.913c-.151-.426.739-1.135 2.317-2.172 1.553-1.051 3.861-2.442 5.92-4.613.996-1.061 1.904-2.38 2.447-3.834.54-1.412.641-3.04.128-4.144-.481-1.223-1.742-2.325-3.013-2.572-1.148-.296-2.822.208-4.935 1.418-1.05.584-2.17 1.28-3.452 1.925-1.282.644-2.755 1.274-4.476 1.533-.873.119-1.77.134-2.665.02a8.238 8.238 0 0 1-2.643-.787c-1.65-.8-2.905-2.08-3.737-3.483a9.245 9.245 0 0 1-1.286-4.536c-.01-1.598.354-2.934.89-4.136 1.073-2.383 2.695-3.983 4.237-5.183 1.584-1.2 3.113-1.92 4.474-2.452a21.62 21.62 0 0 1 3.495-1.037c1.957-.394 3.083-.364 3.235.036.166.413-.685 1.177-2.279 2.24-1.54 1.086-3.943 2.453-5.96 4.579-.982 1.067-1.889 2.38-2.307 3.749-.42 1.409-.289 2.575.469 3.643.368.506.845.894 1.343 1.085.256.109.5.15.784.171.311.022.625.003.98-.06 1.434-.227 3.4-1.476 5.818-2.856 1.228-.68 2.593-1.376 4.224-1.82a12.034 12.034 0 0 1 2.581-.39c.911-.023 1.848.059 2.71.306a10.15 10.15 0 0 1 7.021 6.634c1.038 3.196.264 6.133-.858 8.316-1.136 2.206-2.69 3.807-4.247 5.008-3.137 2.317-6.027 3.114-7.97 3.53-1.967.38-3.108.287-3.245-.118z" class="st30"/><path d="M1604.158 1050.111c-.695.53-7.114-6.691-14.327-16.137-7.228-9.447-12.522-17.535-11.826-18.066.694-.531 7.113 6.69 14.34 16.137 7.228 9.44 12.508 17.534 11.813 18.066zm-4.489 2.07c-.695.538-6.577-5.989-13.121-14.56-6.559-8.58-11.3-15.965-10.606-16.495.694-.532 6.577 5.99 13.12 14.566 6.558 8.572 11.301 15.957 10.607 16.49z" class="st30"/><g class="st32"><path d="m1541.837 1094.696-33.191-42.35.218-.509c10.063-23.736 46.298-37.767 70.28-47.054 4.13-1.599 8.034-3.11 11.347-4.497 22.208-9.271 27.875-34.444 27.183-36.544l1.565-1.025 36.554 45.103-.257.536c-15.782 32.71-46.849 50.898-68.656 56.532-20.362 5.265-44.055 28.819-44.29 29.058l-.753.75zm-31.02-42.632 31.197 39.804c4.3-4.17 25.372-23.888 44.392-28.8 21.3-5.508 51.591-23.202 67.17-54.99l-34.135-42.118c-.317 2.079-1.045 4.431-1.26 5.108-1.707 5.337-8.702 23.335-26.962 30.96-3.338 1.391-7.252 2.907-11.396 4.513-23.507 9.103-58.947 22.826-69.006 45.523z" class="st1"/></g></g><g class="st0"><path d="M1764.41 519.274s-21.815 28.512-64.293 20.412c-26.291-5.023-78.395-7.475-85.13 11.844l7.857 58.621s34.484-8.994 69.701-.57c34.613 8.285 84.56-16.236 84.56-16.236l-12.695-74.071z" class="st33"/><path d="M1693.622 601.165c-19.199-1.798-29.03-20.384-25.122-34.59 3.91-14.208 25.087-20.765 39.29-16.859 14.209 3.918 22.55 18.605 18.641 32.812-3.91 14.207-18.135 20.011-32.809 18.637z" class="st34"/><path d="M1689.415 590.713c.088-.444 1.215-.6 3.101-.687 1.872-.112 4.567-.13 7.446-.947 1.397-.405 2.851-1.076 4.06-2.05 1.185-.938 2.102-2.287 2.224-3.498.21-1.297-.313-2.889-1.28-3.75-.836-.84-2.532-1.26-4.968-1.297-1.2-.034-2.519-.008-3.95-.106-1.431-.1-3.02-.31-4.632-.965a10.197 10.197 0 0 1-2.302-1.342 8.236 8.236 0 0 1-1.872-2.025c-1.01-1.53-1.438-3.271-1.437-4.902a9.242 9.242 0 0 1 1.207-4.558c.807-1.379 1.801-2.343 2.876-3.103 2.138-1.502 4.35-2.051 6.288-2.296 1.974-.224 3.656-.063 5.099.172 1.427.236 2.61.573 3.536.892 1.883.659 2.836 1.26 2.763 1.681-.068.44-1.19.663-3.103.765-1.878.147-4.643.098-7.462.897-1.389.417-2.839 1.084-3.897 2.048-1.08.998-1.562 2.067-1.455 3.372.058.623.271 1.2.602 1.618.164.225.353.384.587.548.257.177.536.321.874.448 1.348.536 3.676.465 6.46.511 1.404.042 2.933.14 4.562.59.817.234 1.627.553 2.42.981.794.446 1.558.993 2.173 1.646a10.148 10.148 0 0 1 2.655 9.288c-.737 3.278-2.902 5.409-4.98 6.715-2.103 1.317-4.256 1.901-6.208 2.14-3.88.393-6.772-.396-8.655-1.03-1.886-.676-2.82-1.338-2.732-1.756z" class="st33"/><path d="M1704.128 597.344c-.868.102-2.704-9.384-4.09-21.188-1.397-11.812-1.825-21.47-.955-21.571.868-.103 2.705 9.383 4.102 21.195 1.4 11.806 1.813 21.462.943 21.564zm-4.916-.51c-.872.11-2.602-8.505-3.858-19.216-1.265-10.725-1.575-19.496-.707-19.598.868-.103 2.6 8.507 3.854 19.222 1.267 10.718 1.579 19.49.71 19.592z" class="st33"/><g class="st32"><path d="m1627.783 603.9-6.944-53.358.448-.327c20.763-15.281 59.087-8.864 84.451-4.618 4.368.732 8.496 1.424 12.053 1.921 23.831 3.355 41.547-15.405 42.023-17.564l1.869-.083 8.431 57.44-.495.33c-30.26 20.083-66.259 19.877-87.89 13.598-20.198-5.859-52.592 2.313-52.916 2.399l-1.03.261zm-4.932-52.493 6.527 50.15c5.826-1.393 34.007-7.603 52.873-2.125 21.13 6.129 56.21 6.363 85.825-13.03l-7.874-53.639c-1.332 1.626-3.159 3.278-3.69 3.75-4.19 3.72-19.388 15.632-38.983 12.875-3.58-.507-7.72-1.2-12.104-1.932-24.862-4.162-62.344-10.44-82.574 3.951z" class="st35"/></g></g><g class="st0"><path d="M1548.724 169.5s-34.021 11.462-64.728-18.986c-19-18.853-60.846-49.994-77.225-37.733l-26.231 53.01s33.626 11.804 58.13 38.464c24.08 26.208 79.205 33.772 79.205 33.772l30.85-68.528z" class="st33"/><path d="M1444.265 197.877c-14.92-12.216-12.692-33.124-1.514-42.724 11.18-9.6 32.407-3.208 42.005 7.966 9.598 11.187 8.31 28.029-2.868 37.628-11.18 9.6-26.22 6.467-37.623-2.87z" class="st34"/><path d="M1446.615 186.857c.32-.319 1.342.182 2.955 1.164 1.615.952 3.86 2.443 6.705 3.373 1.385.445 2.966.7 4.512.568 1.508-.116 3.022-.722 3.8-1.659.898-.959 1.354-2.57 1.032-3.824-.224-1.164-1.396-2.461-3.396-3.852-.976-.698-2.084-1.413-3.217-2.295-1.13-.883-2.331-1.943-3.303-3.387a10.225 10.225 0 0 1-1.16-2.4 8.225 8.225 0 0 1-.42-2.725c.016-1.833.634-3.517 1.546-4.869a9.244 9.244 0 0 1 3.548-3.105c1.439-.693 2.802-.938 4.118-.968 2.613-.051 4.754.729 6.499 1.609 1.762.916 3.067 1.99 4.132 2.991a21.656 21.656 0 0 1 2.434 2.714c1.195 1.6 1.65 2.63 1.354 2.939-.303.326-1.358-.115-3.002-1.1-1.64-.926-3.905-2.512-6.69-3.423-1.385-.431-2.96-.688-4.375-.48-1.453.225-2.452.843-3.092 1.985-.3.549-.445 1.147-.404 1.678.01.278.078.516.18.782.114.29.266.566.476.86.818 1.199 2.789 2.44 5.071 4.033 1.142.82 2.355 1.754 3.455 3.038.547.65 1.04 1.367 1.459 2.165.41.813.737 1.694.883 2.58a10.15 10.15 0 0 1-2.987 9.186c-2.442 2.307-5.428 2.865-7.882 2.787-2.479-.081-4.591-.8-6.344-1.692-3.437-1.842-5.395-4.112-6.603-5.69-1.187-1.614-1.591-2.685-1.284-2.983z" class="st33"/><path d="M1455.113 200.577c-.777-.4 3-9.294 8.444-19.858 5.44-10.578 10.48-18.827 11.258-18.426.778.4-2.998 9.294-8.438 19.871-5.433 10.575-10.485 18.814-11.264 18.413zm-3.793-3.169c-.783-.397 2.594-8.508 7.536-18.094 4.942-9.601 9.584-17.05 10.36-16.65.779.4-2.594 8.51-7.54 18.097-4.937 9.597-9.578 17.047-10.356 16.647z" class="st33"/><g class="st32"><path d="m1388.13 163.365 24.047-48.134.553-.02c25.76-1.077 53.96 25.655 72.626 43.346 3.214 3.047 6.251 5.927 8.924 8.326 17.892 16.096 43.065 10.432 44.666 8.907l1.596.975-25.094 52.352-.595-.003c-36.318-.247-66.06-20.527-80.494-37.819-13.48-16.143-44.913-27.461-45.23-27.572l-1-.358zm25.232-46.293-22.601 45.242c5.61 2.098 32.453 12.691 45.04 27.773 14.102 16.887 43.067 36.679 78.465 37.137l23.433-48.887c-2.014.604-4.451.954-5.155 1.05-5.554.743-24.814 2.134-39.526-11.1-2.687-2.42-5.734-5.307-8.96-8.363-18.296-17.341-45.878-43.487-70.696-42.852z" class="st35"/></g></g><g class="st0"><path d="M1835.621 372.496s-19.621 15.181-46.56 2.246c-16.67-8.011-51.039-18.878-58.96-7.168l-5.135 40.548s24.626.1 46.658 11.965c21.652 11.665 59.356 4.134 59.356 4.134l4.641-51.725z" class="st34"/><path d="M1773.834 414.656c-12.506-4.6-15.781-18.757-10.653-27.554 5.127-8.797 20.434-9.426 29.228-4.301 8.798 5.133 11.768 16.421 6.64 25.218-5.128 8.798-15.658 10.155-25.215 6.637z" class="st33"/><path d="M1772.875 406.93c.137-.281.918-.186 2.193.09 1.27.257 3.073.722 5.14.687 1.006-.023 2.096-.214 3.076-.65.958-.417 1.81-1.156 2.105-1.943.37-.83.303-1.985-.19-2.731-.41-.71-1.469-1.291-3.09-1.747-.795-.235-1.68-.45-2.62-.77-.937-.32-1.96-.742-2.922-1.465a7.035 7.035 0 0 1-1.3-1.304 5.687 5.687 0 0 1-.892-1.685c-.404-1.2-.38-2.44-.091-3.529a6.385 6.385 0 0 1 1.614-2.83 6.749 6.749 0 0 1 2.47-1.563c1.695-.625 3.269-.6 4.607-.42 1.358.2 2.453.605 3.375 1.018.911.41 1.642.846 2.204 1.222 1.141.774 1.671 1.344 1.548 1.612-.123.282-.912.232-2.208-.038-1.28-.234-3.119-.758-5.143-.723-1.002.033-2.088.221-2.966.678-.897.475-1.41 1.104-1.57 1.995-.07.426-.03.85.116 1.187.07.179.168.319.295.47.14.163.301.31.505.454.805.597 2.373.962 4.224 1.486.93.276 1.934.612 2.943 1.201.504.301.988.658 1.442 1.085.452.437.865.939 1.16 1.484a7.014 7.014 0 0 1 .129 6.674c-1.074 2.059-2.897 3.099-4.517 3.603-1.637.508-3.179.516-4.525.33-2.661-.425-4.453-1.465-5.598-2.221-1.14-.786-1.647-1.394-1.514-1.658z" class="st34"/><path d="M1781.528 413.965c-.598-.085-.145-6.747 1.02-14.876 1.16-8.138 2.585-14.664 3.183-14.578.599.085.145 6.747-1.013 14.883-1.156 8.135-2.591 14.657-3.19 14.571zm-3.194-1.211c-.601-.082-.231-6.142.827-13.519 1.055-7.387 2.402-13.301 3-13.216.597.085.23 6.143-.831 13.522-1.053 7.384-2.398 13.298-2.996 13.213z" class="st34"/><g class="st32"><path d="m1729.372 404.82 4.814-36.869.356-.139c16.576-6.53 41.037 4.546 57.227 11.874 2.788 1.263 5.423 2.457 7.71 3.418 15.324 6.463 30.48-2.93 31.18-4.288l1.263.276-4.542 39.86-.39.132c-23.769 8.055-47.777 1.541-61.113-6.484-12.454-7.492-35.539-7.771-35.77-7.772l-.735-.007zm6.004-35.934-4.524 34.653c4.139.101 24.063.945 35.693 7.946 13.028 7.836 36.418 14.207 59.635 6.499l4.241-37.223c-1.178.85-2.69 1.63-3.128 1.852-3.458 1.742-15.72 7.006-28.32 1.694-2.302-.973-4.944-2.169-7.742-3.434-15.87-7.184-39.794-18.016-55.855-11.987z" class="st33"/></g></g><g class="st0"><path d="M557.753 363.133s-9.821 34.044-51.78 41.843c-25.975 4.82-74.756 21.267-74.014 41.445l28.265 51.074s28.474-20.647 63.875-25.543c34.795-4.807 71.912-45.277 71.912-45.277l-38.258-63.542z" class="st34"/><path d="M522.068 463.828c-18.296 5.239-34.006-8.32-35.511-22.783-1.506-14.465 15.61-28.094 30.069-29.601 14.47-1.5 27.41 9.01 28.916 23.474 1.504 14.465-9.49 24.907-23.474 28.91z" class="st33"/><path d="M514.449 455.73c-.08-.44.901-.988 2.605-1.745 1.68-.775 4.151-1.759 6.504-3.543 1.14-.874 2.235-2.014 2.997-3.343.753-1.287 1.112-2.857.79-4.014-.273-1.268-1.325-2.543-2.523-2.987-1.07-.472-2.78-.25-5.033.59-1.116.4-2.318.897-3.67 1.32-1.352.422-2.887.8-4.604.776a10.084 10.084 0 0 1-2.599-.407 8.13 8.13 0 0 1-2.447-1.19c-1.478-1.044-2.497-2.491-3.081-3.992a9.118 9.118 0 0 1-.526-4.623c.247-1.557.815-2.8 1.53-3.885 1.426-2.148 3.262-3.447 4.957-4.368 1.734-.915 3.339-1.37 4.75-1.671a21.368 21.368 0 0 1 3.57-.45c1.968-.07 3.06.14 3.144.554.095.428-.856 1.036-2.579 1.817-1.673.81-4.233 1.756-6.537 3.503-1.128.882-2.221 2.015-2.848 3.281-.634 1.305-.695 2.462-.127 3.623.276.552.68 1.006 1.133 1.271.232.148.463.226.737.293.299.071.608.103.964.098 1.432.01 3.547-.892 6.123-1.848 1.305-.466 2.746-.925 4.405-1.096a11.87 11.87 0 0 1 2.577.034c.89.124 1.79.354 2.589.733a10.015 10.015 0 0 1 5.775 7.586c.498 3.278-.727 6.014-2.169 7.96-1.46 1.967-3.23 3.276-4.938 4.197-3.427 1.754-6.369 2.066-8.327 2.16-1.978.054-3.073-.219-3.142-.635z" class="st34"/><path d="M530.356 456.545c-.762.405-5.856-7.657-11.366-18.011-5.524-10.359-9.384-19.084-8.621-19.489.761-.407 5.855 7.655 11.38 18.013 5.524 10.352 9.37 19.08 8.607 19.487zm-4.704 1.295c-.762.414-5.444-6.885-10.444-16.281-5.011-9.406-8.445-17.359-7.684-17.764.761-.406 5.444 6.887 10.443 16.288 5.011 9.4 8.447 17.352 7.685 17.758z" class="st34"/><g class="st32"><path d="m462.52 489.974-25.535-46.562.294-.46c13.604-21.502 51.14-29.358 75.983-34.559 4.278-.895 8.322-1.74 11.77-2.56 23.114-5.47 32.667-29.075 32.33-31.231l1.688-.747 28.369 49.78-.337.482c-20.612 29.326-53.78 42.057-75.92 44.048-20.673 1.864-47.521 21.004-47.79 21.199l-.852.61zm-23.375-46.488 24 43.762c4.857-3.372 28.537-19.196 47.847-20.932 21.625-1.949 53.96-14.325 74.226-42.784l-26.491-46.487c-.642 1.973-1.728 4.148-2.046 4.772-2.518 4.924-12.214 21.33-31.218 25.83-3.474.819-7.529 1.668-11.821 2.568-24.352 5.097-61.064 12.78-74.497 33.271z" class="st33"/></g><path d="M267.898 635.16s-6.967 23.473-36.003 28.64c-17.974 3.192-51.77 14.3-51.364 28.247l19.26 35.442s19.786-14.116 44.275-17.312c24.069-3.137 49.932-30.906 49.932-30.906l-26.1-44.11z" class="st34"/><path d="M242.706 704.553c-12.67 3.523-23.455-5.93-24.418-15.932-.964-10.003 10.935-19.33 20.935-20.295 10.006-.96 18.892 6.371 19.856 16.374.963 10.004-6.69 17.161-16.373 19.853z" class="st33"/><path d="M237.483 698.916c-.052-.304.628-.678 1.81-1.191 1.165-.527 2.878-1.194 4.513-2.414.792-.598 1.555-1.38 2.089-2.294.527-.886.783-1.968.567-2.77-.182-.878-.902-1.764-1.728-2.078-.736-.332-1.92-.187-3.48.382-.773.27-1.607.607-2.544.893-.936.284-1.999.537-3.185.51a6.96 6.96 0 0 1-1.794-.294 5.618 5.618 0 0 1-1.685-.835 6.057 6.057 0 0 1-2.107-2.775 6.302 6.302 0 0 1-.34-3.197 6.662 6.662 0 0 1 1.078-2.677c.998-1.477 2.273-2.365 3.449-2.992 1.203-.623 2.314-.93 3.29-1.13a14.76 14.76 0 0 1 2.47-.292c1.36-.037 2.114.114 2.17.4.063.296-.597.711-1.792 1.242-1.16.55-2.934 1.19-4.535 2.386-.784.603-1.546 1.38-1.986 2.252-.445.898-.493 1.697-.107 2.503.188.383.465.699.776.884.16.103.319.159.508.206.206.051.42.075.666.073.99.015 2.455-.597 4.24-1.244.905-.315 1.903-.625 3.05-.734a8.19 8.19 0 0 1 1.78.037c.615.09 1.235.254 1.786.52a6.921 6.921 0 0 1 3.95 5.273c.327 2.268-.534 4.152-1.54 5.49-1.02 1.35-2.25 2.246-3.436 2.873-2.376 1.194-4.411 1.394-5.764 1.448-1.367.027-2.123-.167-2.169-.455z" class="st34"/><path d="M248.471 699.564c-.529.276-4.005-5.322-7.758-12.506-3.763-7.188-6.383-13.237-5.854-13.513.528-.277 4.005 5.321 7.767 12.508 3.763 7.182 6.374 13.234 5.845 13.51zm-3.257.871c-.529.28-3.726-4.787-7.13-11.307-3.414-6.526-5.745-12.04-5.217-12.316.529-.276 3.727 4.789 7.13 11.311 3.414 6.522 5.746 12.035 5.217 12.312z" class="st34"/><g class="st32"><path d="m201.418 722.305-17.398-32.31.206-.317c9.514-14.787 35.494-20.016 52.688-23.478 2.962-.596 5.76-1.159 8.147-1.707 16.001-3.657 22.727-19.918 22.506-21.41l1.17-.507 19.34 34.55-.236.33c-14.398 20.156-37.386 28.777-52.695 30.036-14.295 1.178-32.95 14.262-33.135 14.395l-.593.418zm-15.906-32.249 16.354 30.368c3.373-2.304 19.82-13.114 33.172-14.21 14.954-1.233 37.364-9.613 51.519-29.172l-18.06-32.263c-.454 1.36-1.216 2.857-1.439 3.287-1.766 3.389-8.553 14.674-21.709 17.682-2.405.548-5.211 1.114-8.182 1.713-16.854 3.393-42.264 8.507-51.655 22.595z" class="st33"/></g></g><g class="st29"><path d="M136.265 243.31s22.655-11.894 47.692 6.081c15.494 11.132 48.448 28.342 58.596 17.87L255.052 227s-24.994-4.525-45.24-20.532c-19.896-15.737-59.544-14.86-59.544-14.86l-14.003 51.702z" class="st30"/><g class="st31"><path d="M206.592 211.587c11.875 6.92 12.66 21.885 5.872 29.9-6.789 8.014-22.448 5.903-30.46-.882-8.013-6.794-9.002-18.792-2.214-26.805 6.788-8.015 17.726-7.502 26.802-2.213z" class="st1"/></g><path d="M206.178 219.607c-.19.26-.965.023-2.21-.486-1.245-.489-2.993-1.285-5.099-1.62-1.025-.158-2.167-.16-3.24.108-1.048.251-2.046.848-2.487 1.595-.525.775-.664 1.961-.297 2.808.289.794 1.26 1.575 2.823 2.329.766.38 1.626.76 2.523 1.253.895.494 1.86 1.105 2.705 2.012a7.32 7.32 0 0 1 1.087 1.558c.299.58.514 1.225.602 1.871.195 1.292-.05 2.546-.54 3.601a6.59 6.59 0 0 1-2.148 2.585 6.965 6.965 0 0 1-2.79 1.144c-1.833.33-3.427.022-4.754-.4-1.344-.448-2.383-1.057-3.245-1.642a15.404 15.404 0 0 1-2.019-1.636c-1.02-.991-1.456-1.665-1.283-1.916.176-.264.968-.072 2.236.436 1.258.468 3.031 1.329 5.093 1.657 1.024.148 2.162.151 3.134-.155.998-.321 1.63-.868 1.953-1.744.149-.42.184-.858.096-1.227a1.686 1.686 0 0 0-.215-.53 2.8 2.8 0 0 0-.431-.552c-.711-.751-2.238-1.403-4.024-2.268-.895-.447-1.854-.97-2.773-1.749a8.586 8.586 0 0 1-1.27-1.36c-.38-.526-.71-1.11-.912-1.716a7.238 7.238 0 0 1 1.068-6.802c1.46-1.898 3.499-2.626 5.234-2.848 1.755-.221 3.322.047 4.656.478 2.627.91 4.26 2.287 5.287 3.26 1.017 1.004 1.423 1.712 1.24 1.956z" class="st30"/><path d="M198.653 210.907c.592.194-1.065 6.88-3.709 14.927-2.639 8.056-5.258 14.429-5.85 14.234-.593-.193 1.064-6.878 3.703-14.935 2.634-8.053 5.263-14.42 5.856-14.226zm3.027 1.804c.595.191-.869 6.28-3.269 13.582-2.398 7.314-4.828 13.078-5.42 12.884-.592-.194.87-6.28 3.273-13.584 2.395-7.31 4.823-13.076 5.415-12.882z" class="st30"/><g class="st32"><path d="m249.983 229.562-11.51 36.583-.387.077c-18.008 3.655-40.864-11.987-55.991-22.338-2.605-1.784-5.067-3.469-7.218-4.856-14.403-9.317-31.482-2.498-32.438-1.245l-1.233-.507 11.772-39.668.42-.065c25.588-3.912 48.803 7.016 60.906 17.562 11.303 9.846 34.7 14.276 34.935 14.317l.744.14zm-12.551 35.42 10.818-34.384c-4.185-.846-24.27-5.281-34.825-14.48-11.824-10.3-34.437-20.97-59.401-17.311L143.03 235.85c1.35-.652 3.026-1.172 3.51-1.319 3.826-1.148 17.224-4.293 29.067 3.366 2.164 1.401 4.633 3.09 7.248 4.878 14.827 10.147 37.181 25.446 54.577 22.207z" class="st1"/></g></g><g class="st29"><path d="M239.726 948.655s-27.551 5.22-48.044-21.629c-12.68-16.623-41.717-45.203-55.704-37.473L110 927.755s24.75 12.737 40.852 35.991c15.82 22.859 57.659 34.621 57.659 34.621l31.215-49.712z" class="st30"/><g class="st31"><path d="M155.864 959.411c-10.234-11.05-6.269-26.989 3.41-33.217 9.678-6.229 25.416.992 31.644 10.666 6.226 9.684 3.425 22.577-6.253 28.806-9.679 6.228-20.98 2.192-28.8-6.255z" class="st1"/></g><path d="M158.863 951.137c.282-.212 1.02.285 2.162 1.217 1.147.91 2.725 2.305 4.826 3.33 1.024.492 2.22.859 3.43.922 1.179.072 2.416-.235 3.117-.876.798-.645 1.324-1.843 1.21-2.848-.05-.924-.817-2.054-2.215-3.344-.68-.645-1.461-1.317-2.243-2.12-.78-.805-1.596-1.754-2.192-2.976a7.961 7.961 0 0 1-.64-1.98 6.424 6.424 0 0 1-.034-2.154c.21-1.417.868-2.653 1.719-3.601a7.216 7.216 0 0 1 3.077-2.022 7.625 7.625 0 0 1 3.29-.308c2.028.24 3.6 1.074 4.856 1.941 1.265.899 2.16 1.87 2.876 2.758.708.88 1.22 1.694 1.593 2.361.753 1.365.994 2.212.732 2.419-.269.22-1.038-.234-2.204-1.173-1.17-.892-2.752-2.362-4.81-3.366-1.024-.482-2.216-.85-3.334-.84-1.148.019-1.986.39-2.604 1.204-.29.393-.468.84-.493 1.255-.021.216.006.408.056.625.057.237.145.466.276.716.504 1.015 1.896 2.186 3.491 3.664.796.756 1.634 1.61 2.348 2.72.353.562.658 1.17.896 1.832.23.674.39 1.39.407 2.09a7.926 7.926 0 0 1-3.296 6.788c-2.137 1.523-4.507 1.635-6.397 1.312-1.91-.33-3.467-1.112-4.727-1.99-2.462-1.793-3.734-3.76-4.499-5.11-.745-1.377-.943-2.248-.674-2.446z" class="st30"/><path d="M163.968 962.664c-.559-.393 3.316-6.87 8.661-14.46 5.344-7.6 10.128-13.442 10.686-13.049.56.393-3.315 6.87-8.658 14.47-5.338 7.6-10.13 13.432-10.69 13.039zm-2.596-2.859c-.563-.391 2.92-6.305 7.77-13.191 4.854-6.899 9.244-12.164 9.802-11.771.56.392-2.92 6.305-7.774 13.192-4.849 6.896-9.238 12.162-9.798 11.77z" class="st30"/><g class="st32"><path d="m116.132 926.691 23.767-34.663.43.044c20.044 1.929 38.997 25.635 51.543 41.323 2.16 2.702 4.2 5.256 6.011 7.399 12.117 14.371 32.2 12.688 33.603 11.68l1.13.926-25.027 37.813-.46-.066c-28.073-4.084-48.91-22.964-58.223-37.89-8.699-13.935-31.805-26.062-32.038-26.181l-.736-.385zm24.485-33.111-22.336 32.58c4.115 2.225 23.748 13.299 31.87 26.317 9.1 14.577 29.388 32.995 56.726 37.145l23.371-35.312c-1.623.252-3.546.262-4.101.26-4.377-.02-19.426-1.01-29.39-12.825-1.82-2.16-3.868-4.72-6.036-7.432-12.297-15.378-30.834-38.563-50.104-40.733z" class="st1"/></g></g><g class="st29"><path d="M568.212 777.067s-32.976 11.472-63.128-17.844c-18.658-18.153-59.65-48.036-75.46-35.956l-25.002 51.802s32.813 11.157 56.898 36.85c23.667 25.256 77.347 32.084 77.347 32.084l29.345-66.936z" class="st30"/><g class="st31"><path d="M466.9 805.662c-14.627-11.737-12.66-32.09-1.881-41.533 10.78-9.443 31.484-3.43 40.924 7.345 9.44 10.787 8.35 27.177-2.43 36.62-10.779 9.442-25.436 6.54-36.614-2.432z" class="st1"/></g><path d="M469.079 794.923c.308-.313 1.307.164 2.885 1.104 1.58.91 3.778 2.339 6.552 3.216 1.351.42 2.891.653 4.394.509 1.465-.127 2.932-.731 3.678-1.65.866-.94 1.293-2.512.969-3.729-.23-1.13-1.381-2.38-3.34-3.713-.956-.67-2.04-1.354-3.15-2.2-1.109-.848-2.286-1.868-3.244-3.263a9.944 9.944 0 0 1-1.152-2.322 8.018 8.018 0 0 1-.435-2.647c-.001-1.783.583-3.426 1.458-4.75a8.987 8.987 0 0 1 3.42-3.053c1.393-.688 2.716-.939 3.995-.98 2.54-.076 4.63.663 6.336 1.501 1.723.875 3.002 1.907 4.047 2.87a21.029 21.029 0 0 1 2.393 2.616c1.177 1.544 1.629 2.542 1.344 2.845-.29.32-1.32-.099-2.929-1.04-1.603-.886-3.821-2.406-6.538-3.266-1.351-.405-2.885-.64-4.26-.424-1.41.232-2.376.842-2.987 1.96-.287.536-.423 1.119-.378 1.635.013.27.082.5.184.759.113.281.263.548.47.831.807 1.158 2.735 2.346 4.97 3.874 1.118.786 2.307 1.684 3.389 2.92a11.734 11.734 0 0 1 1.439 2.093c.407.787.734 1.64.884 2.5a9.869 9.869 0 0 1-2.817 8.962c-2.353 2.267-5.251 2.838-7.638 2.786-2.412-.056-4.473-.734-6.186-1.585-3.36-1.758-5.286-3.947-6.475-5.47-1.17-1.559-1.574-2.596-1.278-2.889z" class="st30"/><path d="M477.475 808.184c-.76-.382 2.827-9.067 8.02-19.392 5.19-10.339 10.013-18.409 10.773-18.026.76.381-2.826 9.067-8.015 19.404-5.184 10.336-10.017 18.397-10.778 18.014zm-3.72-3.046c-.765-.378 2.442-8.298 7.156-17.667 4.714-9.384 9.157-16.672 9.917-16.29.76.38-2.443 8.299-7.161 17.67-4.71 9.38-9.151 16.669-9.912 16.287z" class="st30"/><g class="st32"><path d="m411.979 772.637 22.926-47.039.537-.026c25.04-1.292 52.72 24.434 71.041 41.46 3.155 2.932 6.136 5.704 8.758 8.011 17.553 15.482 41.98 9.734 43.522 8.235l1.561.933-23.902 51.15-.58.004c-35.32.107-64.437-19.331-78.639-36.009-13.263-15.57-43.939-26.276-44.248-26.38l-.976-.339zm24.095-45.26-21.546 44.212c5.476 1.987 31.681 12.032 44.066 26.578 13.875 16.288 42.231 35.258 76.66 35.366l22.32-47.766c-1.952.607-4.32.97-5.003 1.07-5.394.776-24.11 2.312-38.544-10.416-2.636-2.328-5.626-5.106-8.793-8.048-17.958-16.688-45.03-41.85-69.16-40.996z" class="st1"/></g></g><g class="st29"><path d="M324.437 449.683s-34.308 27.06-81.965 4.725c-29.494-13.836-90.203-32.408-103.96-11.652l-8.376 71.498s43.374-.23 82.372 20.303c38.326 20.187 104.608 6.301 104.608 6.301l7.32-91.174z" class="st30"/><g class="st31"><path d="M216.31 524.956c-22.1-7.898-28.102-32.775-19.216-48.353 8.886-15.579 35.834-16.938 51.407-8.058 15.58 8.896 20.995 28.728 12.11 44.306-8.887 15.578-27.41 18.142-44.3 12.105z" class="st1"/></g><path d="M214.495 511.363c.237-.497 1.613-.341 3.864.125 2.24.43 5.425 1.22 9.065 1.123 1.77-.057 3.687-.412 5.405-1.196 1.68-.75 3.168-2.064 3.676-3.456.638-1.467.501-3.5-.38-4.807-.734-1.242-2.608-2.25-5.47-3.025-1.405-.4-2.967-.767-4.626-1.314-1.658-.549-3.468-1.273-5.172-2.532a12.445 12.445 0 0 1-2.312-2.275 10.019 10.019 0 0 1-1.597-2.952c-.732-2.108-.712-4.29-.22-6.214a11.245 11.245 0 0 1 2.796-5.01c1.366-1.384 2.829-2.222 4.324-2.795 2.974-1.128 5.748-1.11 8.108-.816 2.395.33 4.33 1.026 5.96 1.738a26.294 26.294 0 0 1 3.902 2.116c2.023 1.344 2.966 2.34 2.753 2.814-.212.498-1.602.424-3.89-.032-2.258-.39-5.504-1.282-9.069-1.187-1.764.073-3.674.423-5.212 1.242-1.573.851-2.465 1.968-2.731 3.539-.12.752-.042 1.497.222 2.089.127.314.302.559.528.823.249.286.535.54.896.79 1.428 1.04 4.196 1.656 7.464 2.548 1.644.472 3.417 1.048 5.203 2.068a14.64 14.64 0 0 1 2.558 1.886c.803.764 1.54 1.64 2.068 2.595a12.352 12.352 0 0 1 .336 11.752c-1.856 3.644-5.05 5.506-7.894 6.42-2.876.922-5.591.962-7.965.657-4.694-.704-7.868-2.506-9.897-3.82-2.022-1.365-2.923-2.427-2.693-2.894z" class="st30"/><path d="M229.85 523.612c-1.054-.14-.365-11.88 1.553-26.218 1.908-14.352 4.31-25.87 5.365-25.727 1.055.14.367 11.88-1.54 26.23-1.902 14.345-4.321 25.856-5.377 25.715zm-5.644-2.08c-1.061-.135-.509-10.815 1.234-23.824 1.736-13.028 4.01-23.466 5.063-23.325 1.055.14.508 10.815-1.24 23.829-1.73 13.02-4.002 23.46-5.057 23.32z" class="st30"/><g class="st32"><path d="m137.842 508.367 7.87-65.015.625-.25c29.086-11.774 72.35 7.328 100.985 19.968 4.931 2.178 9.591 4.237 13.637 5.893 27.094 11.129 53.632-5.664 54.843-8.067l2.229.464-7.343 70.278-.683.24c-41.73 14.578-84.122 3.502-107.742-10.413-22.057-12.988-62.719-13.1-63.128-13.097l-1.293-.001zm9.981-63.389-7.395 61.107c7.29.11 42.394 1.268 62.994 13.405 23.073 13.587 64.373 24.42 105.136 10.462l6.857-65.627c-2.061 1.517-4.712 2.916-5.48 3.313-6.062 3.125-27.569 12.6-49.848 3.451-4.071-1.674-8.745-3.737-13.693-5.92-28.068-12.391-70.383-31.074-98.571-20.19z" class="st1"/></g></g><g class="st29"><path d="M458.399 110s4.807 38.235-33.77 64.05c-23.883 15.97-65.562 53.355-56.155 73.2l50.178 38.894s19.584-32.86 52.855-52.957c32.703-19.747 52.41-76.127 52.41-76.127L458.399 110z" class="st30"/><g class="st31"><path d="M465.989 225.942c-16.032 13.092-37.553 6.292-45.27-7.514-7.716-13.807 3.533-34.776 17.333-42.492 13.815-7.712 31.258-2.768 38.975 11.037 7.716 13.808 1.215 28.963-11.038 38.969z" class="st1"/></g><path d="M454.897 221.122c-.268-.406.476-1.374 1.853-2.862 1.347-1.496 3.394-3.54 4.978-6.334.764-1.363 1.37-2.972 1.56-4.627.2-1.61-.116-3.333-.936-4.35-.817-1.15-2.416-1.973-3.803-1.902-1.272-.012-2.887.944-4.776 2.752-.943.879-1.931 1.892-3.1 2.896-1.17 1.001-2.542 2.038-4.267 2.752-.88.35-1.81.597-2.772.709a8.826 8.826 0 0 1-2.957-.138c-1.925-.408-3.564-1.417-4.792-2.665a9.923 9.923 0 0 1-2.511-4.394c-.423-1.662-.39-3.148-.14-4.538.502-2.76 1.78-4.846 3.077-6.495 1.34-1.658 2.747-2.803 4.028-3.71a23.218 23.218 0 0 1 3.374-1.982c1.937-.915 3.118-1.174 3.38-.797.278.387-.41 1.403-1.796 2.923-1.325 1.528-3.476 3.573-5.028 6.308-.748 1.365-1.354 2.968-1.437 4.502-.073 1.576.364 2.758 1.43 3.674.512.433 1.11.714 1.678.784.295.048.56.027.862-.024a4.17 4.17 0 0 0 1.005-.316c1.435-.606 3.161-2.414 5.324-4.476 1.105-1.027 2.348-2.103 3.932-2.987a12.93 12.93 0 0 1 2.589-1.073c.943-.258 1.94-.415 2.902-.38a10.894 10.894 0 0 1 9.028 5.1c1.906 3.062 1.857 6.322 1.252 8.886-.614 2.591-1.82 4.66-3.132 6.314-2.67 3.224-5.477 4.8-7.393 5.734-1.952.904-3.165 1.102-3.412.716z" class="st30"/><path d="M471.141 215.105c-.586.732-9.138-5.136-19.091-13.116-9.97-7.978-17.573-15.038-16.985-15.77.586-.734 9.139 5.134 19.107 13.111 9.966 7.97 17.557 15.041 16.97 15.775zm-4.142 3.315c-.585.74-8.398-4.542-17.43-11.784-9.046-7.246-15.893-13.717-15.307-14.45.587-.732 8.399 4.544 17.43 11.792 9.045 7.238 15.893 13.709 15.307 14.442z" class="st30"/><g class="st32"><path d="m417.717 277.642-45.513-35.558.096-.586c4.359-27.328 38.491-51.299 61.081-67.166 3.89-2.731 7.568-5.313 10.662-7.613 20.746-15.392 20.153-43.082 18.89-45.091l1.366-1.472 49.727 37.558-.13.626c-8 38.154-35.675 65.121-56.943 76.62-19.856 10.74-38.462 41.396-38.646 41.706l-.59.976zm-43.323-36.412 42.777 33.42c3.404-5.455 20.27-31.437 38.819-41.464 20.771-11.236 47.765-37.49 55.793-74.631l-46.437-35.072c.207 2.247.056 4.886.006 5.647-.402 6.001-3.044 26.558-20.1 39.216-3.12 2.31-6.806 4.901-10.71 7.644-22.142 15.552-55.526 38.996-60.148 65.24z" class="st1"/></g></g><g class="st29"><path d="M460.9 954.176s4.162 35.186 44.297 49.697c24.847 8.974 70.31 33.125 66.3 52.915l-36.183 45.805s-24.744-24.997-58.88-35.578c-33.552-10.393-63.604-56.354-63.604-56.354l48.07-56.485z" class="st30"/><g class="st31"><path d="M468.581 1050.677c-12.19-14.614-6.144-34.465 6.476-41.691 12.62-7.228 32.007 2.915 39.233 15.529 7.223 12.627 2.844 28.712-9.775 35.938-12.62 7.227-26.617 1.395-35.934-9.776z" class="st1"/></g><path d="M472.907 1040.433c.37-.25 1.268.426 2.649 1.677 1.388 1.224 3.288 3.086 5.871 4.517 1.26.688 2.745 1.23 4.269 1.389 1.482.168 3.063-.139 3.99-.902 1.05-.762 1.79-2.24 1.713-3.515-.001-1.17-.896-2.645-2.576-4.365-.817-.858-1.758-1.757-2.692-2.822-.932-1.066-1.898-2.317-2.571-3.897a10.098 10.098 0 0 1-.679-2.541 8.127 8.127 0 0 1 .1-2.72c.356-1.774 1.268-3.29 2.403-4.432a9.124 9.124 0 0 1 4.016-2.35c1.524-.405 2.89-.388 4.172-.173 2.542.436 4.472 1.59 6 2.767 1.537 1.216 2.603 2.5 3.449 3.668a21.34 21.34 0 0 1 1.855 3.083c.86 1.772 1.11 2.856.765 3.1-.353.26-1.294-.363-2.704-1.624-1.418-1.202-3.318-3.16-5.848-4.562-1.263-.674-2.742-1.216-4.153-1.277-1.45-.053-2.532.36-3.365 1.348-.392.477-.645 1.03-.704 1.552a2.32 2.32 0 0 0 .03.791c.056.303.152.599.3.922.57 1.314 2.25 2.883 4.167 4.852.954 1.006 1.956 2.138 2.784 3.586.409.733.754 1.52 1.01 2.37.247.865.4 1.78.378 2.665a10.016 10.016 0 0 1-4.603 8.349c-2.797 1.782-5.794 1.768-8.158 1.236-2.388-.54-4.302-1.629-5.835-2.82-2.99-2.423-4.465-4.988-5.342-6.741-.85-1.786-1.043-2.9-.69-3.13z" class="st30"/><path d="M478.594 1055.311c-.678-.532 4.635-8.451 11.876-17.678 7.24-9.242 13.659-16.3 14.337-15.767.68.532-4.633 8.451-11.871 17.692-7.233 9.24-13.661 16.286-14.342 15.753zm-3.087-3.777c-.686-.53 4.096-7.764 10.668-16.137 6.575-8.387 12.459-14.744 13.138-14.212.68.532-4.097 7.765-10.674 16.139-6.569 8.384-12.452 14.742-13.132 14.21z" class="st30"/><g class="st32"><path d="m534.269 1094.8 32.758-41.798-.215-.502c-9.932-23.426-45.694-37.273-69.362-46.44-4.077-1.577-7.93-3.068-11.199-4.437-21.918-9.15-27.51-33.994-26.827-36.067l-1.545-1.011-36.077 44.513.255.53c15.575 32.283 46.236 50.232 67.758 55.792 20.096 5.197 43.48 28.443 43.712 28.679l.742.74zm30.615-42.076-30.79 39.284c-4.243-4.116-25.04-23.576-43.81-28.424-21.023-5.436-50.918-22.899-66.294-54.272l33.69-41.567c.312 2.052 1.03 4.373 1.243 5.041 1.685 5.268 8.588 23.03 26.61 30.556 3.294 1.373 7.157 2.87 11.246 4.454 23.2 8.984 58.178 22.528 68.105 44.928z" class="st1"/></g></g></svg>