<svg xmlns="http://www.w3.org/2000/svg" fill="none" viewBox="0 0 180 120"><g clip-path="url(#a)"><path fill="#fff" d="M111.765 85.06c7.558-3.119 13.931-7.222 16.985-11.206 2.324-3.03 1.896-7.576.292-8.972-1.957-1.705-5.214.767-5.214.767s-2.831 1.854-3.347 2.244c-2.84 2.158-4.91 3.34-7.208 4.402-.816.377-1.713.729-2.684 1.05-2.291.762-4.992 1.355-8.019 1.726"/><path fill="#393A3D" d="M111.765 85.06c4.593-1.896 8.749-4.155 11.988-6.53.027.023-4.167-9.967-4.589-9.666-2.196 1.565-3.963 2.54-5.891 3.431-.816.377-1.713.729-2.684 1.05-2.291.762-4.992 1.355-8.019 1.726m-32.198 3.528s-.811 6.463 1.587 9.64c1.158 1.534 4.378.247 6.611.246 8.26-.002 7.363 7.817 2.898 9.995-5.747 2.803-19.604 3.07-17.886-10.126 1.025-7.878 9.59-15.754 9.59-15.754"/><path stroke="#393A3D" stroke-miterlimit="10" stroke-width="1.545" d="M70.372 78.599s-.811 6.463 1.587 9.64c1.158 1.534 4.378.247 6.611.246 8.26-.002 7.363 7.817 2.898 9.995-5.747 2.803-19.604 3.07-17.886-10.126 1.025-7.878 9.59-15.754 9.59-15.754"/><path fill="#000" d="M72.985 78.599s-.811 6.463 1.587 9.64c1.158 1.534 4.378.247 6.612.246 8.26-.002 7.362 7.817 2.897 9.995-5.746 2.803-19.604 3.07-17.886-10.126 1.026-7.878 9.59-15.754 9.59-15.754" opacity=".15"/><path fill="#DCB663" d="M69.754 107.486c-1.076-.508-1.218-2.012-1.334-3.052a41.175 41.175 0 0 1-.204-6.234c-.04-.031-.086-.063-.112-.103-.11 1.742-.242 3.472-.096 5.217.037.439.06 1.009.126 1.598.024.214.055.431.093.645.14.785.394 1.527.899 1.953"/><path fill="#fff" d="M90.088 106.381c2.276 3.799 2.814 6.898 2.814 6.898v3.991h12.379c-.138-1.927.275-3.441.275-3.441 12.928-14.177 3.713-39.642 3.713-39.642-20.768 8.258-38.51 0-38.51 0s-9.215 25.465 3.714 39.642c0 0 .412 1.514.275 3.441h12.378v-3.991s.55-3.166 2.888-7.02l.074.122Z"/><path fill="#393A3D" stroke="#393A3D" stroke-miterlimit="10" stroke-width="1.545" d="M90.088 106.381c2.276 3.799 2.814 6.898 2.814 6.898v3.991h12.379c-.138-1.927.275-3.441.275-3.441 12.928-14.177 3.713-39.642 3.713-39.642 0 .046-10.112 20.9-19.186 20.9-9.08 0-19.324-20.9-19.324-20.9s-9.215 25.465 3.714 39.642c0 0 .412 1.514.275 3.441h12.378v-3.991s.55-3.166 2.888-7.02l.074.122Z"/><path fill="#DCB663" d="M69.127 107.511c1.39 1.174 2.99-.124 3.477-1.532.47-1.359.652-2.775.553-4.209a.359.359 0 0 1-.183-.134c.02 1.505-.193 2.876-.844 4.258-.386.822-1.268 2.114-2.375 1.593"/><path fill="#000" d="M68.227 105.557Z"/><path fill="#2C2B2B" d="M99.06 119.704c3.444 0 6.237-1.028 6.237-2.296 0-1.268-2.793-2.296-6.237-2.296-3.445 0-6.238 1.028-6.238 2.296 0 1.268 2.793 2.296 6.237 2.296Zm-18.073-.001c3.445 0 6.238-1.028 6.238-2.296 0-1.268-2.793-2.296-6.238-2.296-3.444 0-6.237 1.028-6.237 2.296 0 1.268 2.793 2.296 6.237 2.296Z"/><path fill="#1F1438" d="M90.018 72.553c9.932 0 17.983-1.805 17.983-4.03 0-2.226-8.051-4.03-17.983-4.03s-17.983 1.804-17.983 4.03c0 2.225 8.051 4.03 17.983 4.03Z"/><path stroke="#1F1E1F" stroke-miterlimit="10" stroke-width="6.103" d="M68.559 101.212c.893 4.576 21.528-1.692 21.528-1.692s20.489 6.268 21.383 1.692"/><path fill="#393A3D" stroke="#393A3D" stroke-miterlimit="10" stroke-width="1.545" d="M90.088 99.223s20.745 6.346 21.65 1.714c2.528-12.942-2.469-26.751-2.469-26.751 0 .008-4.332-1.665-4.126 1.29-2.544 8.736-15.129 14.036-15.129 14.036s-11.622-5.988-15.129-14.797c-3.645 0-4.126-.53-4.126-.53s-4.997 13.81-2.469 26.752c.905 4.632 21.798-1.714 21.798-1.714Z"/><path fill="#000" d="m71.51 42.216-.065-.01.05-.004.015.014Z"/><path fill="#1F1C1D" d="M70.87 73.974s.467.54 4.11.632c3.285 8.895 15.034 14.906 15.034 14.906s-25.948-2.17-19.145-15.538Z"/><path fill="#1F1C1D" d="M90.014 92.437a.815.815 0 1 0 0-1.63.815.815 0 0 0 0 1.63Zm0 2.41a.815.815 0 1 0 0-1.63.815.815 0 0 0 0 1.63Zm0 2.641a.815.815 0 1 0 0-1.63.815.815 0 0 0 0 1.63Z" opacity=".75"/><path fill="#393A3D" d="M71.151 73.705s.468.54 4.112.633c3.284 8.895 14.751 15.174 14.751 15.174s-25.666-2.438-18.862-15.807Z"/><path fill="#1F1C1D" d="M109.094 73.974s-.468.54-4.111.632c-3.285 8.895-15.034 14.906-15.034 14.906s25.948-2.17 19.145-15.538Z"/><path fill="#393A3D" d="M108.812 73.705s-.468.54-4.111.633c-3.285 8.895-14.752 15.174-14.752 15.174s25.666-2.438 18.863-15.807Z"/><path fill="#42688F" d="M108.877 74.324s.55-2.615-.963-6.194c0 .413-.275 4.13-17.88 4.13h-.04c-17.604 0-17.879-3.717-17.879-4.13-1.513 3.579-.963 6.194-.963 6.194s17.33 8.121 37.725 0Z"/><path fill="#F3F3F4" d="M108.091 39.76c0 5.4-17.914-9.778-11.54-9.778 6.373 0 11.54 4.378 11.54 9.779Z" opacity=".2"/><path fill="#42688F" d="M114.85 53.951c4.557 0 8.252-3.697 8.252-8.258 0-4.562-3.695-8.26-8.252-8.26-4.558 0-8.252 3.698-8.252 8.26 0 4.56 3.694 8.258 8.252 8.258Z"/><path fill="#ECBF3D" d="M119.341 49.375a1.513 1.513 0 1 0 0-3.027 1.513 1.513 0 0 0 0 3.027Zm0-4.336a1.513 1.513 0 1 0 0-3.027 1.513 1.513 0 0 0 0 3.027Z"/><path fill="#42688F" d="M65.178 53.951c4.558 0 8.252-3.697 8.252-8.258 0-4.562-3.695-8.26-8.252-8.26-4.558 0-8.252 3.698-8.252 8.26 0 4.56 3.694 8.258 8.252 8.258Z"/><path fill="#ECBF3D" d="M60.687 49.375a1.513 1.513 0 1 0-.001-3.027 1.513 1.513 0 0 0 0 3.027Zm0-4.336a1.513 1.513 0 1 0-.001-3.027 1.513 1.513 0 0 0 0 3.027Z"/><path fill="#1F1438" d="M90.014 71.57c14.774 0 26.751-11.246 26.751-25.12s-11.977-25.12-26.75-25.12c-14.775 0-26.751 11.246-26.751 25.12s11.976 25.12 26.75 25.12Z"/><path fill="#fff" d="M90.014 21.33c-14.774 0-26.75 11.246-26.75 25.12s11.976 25.12 26.75 25.12 26.751-11.246 26.751-25.12-11.977-25.12-26.75-25.12Zm0 43.56c-17.977 0-22.83-8.662-22.83-19.346S77.404 26.2 90.013 26.2c12.61 0 22.831 8.661 22.831 19.345s-4.853 19.345-22.83 19.345Z"/><path fill="#CDC8D2" d="M90.014 64.889c-17.977 0-22.83-8.661-22.83-19.345 1.1 4.463 8.252 18.916 22.83 19.345Z" opacity=".2"/><path fill="#F3F3F4" d="M108.091 39.76c0 5.4-17.914-9.778-11.54-9.778 6.373 0 11.54 4.378 11.54 9.779Z" opacity=".2"/><path fill="#E8BB4B" d="M94.154 74.992c0-.798.526-2.234-.012-2.55-.538-.316-2.14 1.286-2.14 1.286l-1.483.89-1.483-.89s-1.602-1.602-2.14-1.286c-.537.316-.011 1.833-.011 2.55 0 .718-.546 2.23-.012 2.55.535.322 2.152-1.264 2.152-1.264l1.494-.88 1.495.88s1.616 1.586 2.151 1.265c.535-.322-.011-1.753-.011-2.55Z"/><path fill="#9A7B36" d="m91.05 74.324 1.482-.891s.562-.562 1.132-.955c-.684.282-1.652 1.25-1.652 1.25l-.977.588.014.008Zm-3.647 2.924c-.534-.32.012-1.833.012-2.55 0-.588-.353-1.714-.184-2.274-.128-.032-.24-.03-.324.02-.538.316-.012 1.833-.012 2.55 0 .718-.547 2.23-.012 2.55.223.134.632-.062 1.035-.337-.207.087-.39.116-.515.041Zm5.141-1.264-1.495-.88-.512.302 1.486.873s1.617 1.587 2.151 1.265a.45.45 0 0 0 .194-.273c-.682-.167-1.824-1.287-1.824-1.287Z"/><path fill="#22163F" d="m93.3 74.506-.09-.018c-.036-.007-.076-.01-.12-.016s-.092-.012-.143-.014c-.05-.002-.104-.008-.16-.007-.055.002-.112-.001-.17.004-.058.004-.118.006-.177.014a3.053 3.053 0 0 0-.843.221.85.85 0 0 0-.058.027l-.02.01.024.044.018.108.039-.008a2.274 2.274 0 0 1 .458-.023c.063.004.126.013.184.024l.084.02c.026.01.05.018.073.025l.06.028c.018.007.031.017.043.024l.039.024-.035-.028c-.011-.009-.024-.022-.041-.032a7.79 7.79 0 0 0-.057-.035l-.072-.036-.082-.032a1.599 1.599 0 0 0-.378-.08 1.598 1.598 0 0 0-.084-.007l.048-.021a2.9 2.9 0 0 1 .61-.183c.057-.013.114-.02.171-.027.057-.01.114-.011.168-.016.055-.006.107-.004.157-.005.05-.002.098 0 .142.002.044.003.084.003.12.007l.091.011.08.01-.079-.015Zm-5.541 0c.025-.006.056-.011.091-.018.035-.007.076-.01.12-.016s.091-.012.142-.014c.05-.002.104-.008.16-.007.055.002.113-.001.17.004.059.004.118.006.177.014a3.033 3.033 0 0 1 .844.221l.057.027.02.01-.024.044-.018.108-.038-.008a2.238 2.238 0 0 0-.46-.023 1.586 1.586 0 0 0-.183.024 6.087 6.087 0 0 1-.083.02c-.026.01-.05.018-.073.025l-.06.028c-.018.007-.032.017-.044.024a2.69 2.69 0 0 1-.038.024l.034-.028c.012-.009.025-.022.042-.032l.057-.035.071-.036.083-.032a1.617 1.617 0 0 1 .377-.08 1.56 1.56 0 0 1 .084-.007l-.048-.021a2.9 2.9 0 0 0-.61-.183c-.056-.013-.114-.02-.17-.027-.058-.01-.114-.011-.168-.016-.055-.006-.108-.004-.158-.005-.05-.002-.098 0-.141.002-.044.003-.084.003-.12.007l-.092.011-.08.01.079-.015Z"/><path fill="#fff" d="m93.3 74.506-.09-.018c-.036-.007-.076-.01-.12-.016s-.092-.012-.143-.014c-.05-.002-.104-.008-.16-.007-.055.002-.112-.001-.17.004-.058.004-.118.006-.177.014a3.053 3.053 0 0 0-.843.221.85.85 0 0 0-.058.027l-.02.01.024.044.018.108.039-.008a2.274 2.274 0 0 1 .458-.023c.063.004.126.013.184.024l.084.02c.026.01.05.018.073.025l.06.028c.018.007.031.017.043.024l.039.024-.035-.028c-.011-.009-.024-.022-.041-.032a7.79 7.79 0 0 0-.057-.035l-.072-.036-.082-.032a1.599 1.599 0 0 0-.378-.08 1.598 1.598 0 0 0-.084-.007l.048-.021a2.9 2.9 0 0 1 .61-.183c.057-.013.114-.02.171-.027.057-.01.114-.011.168-.016.055-.006.107-.004.157-.005.05-.002.098 0 .142.002.044.003.084.003.12.007l.091.011.08.01-.079-.015Zm-5.541 0c.025-.006.056-.011.091-.018.035-.007.076-.01.12-.016s.091-.012.142-.014c.05-.002.104-.008.16-.007.055.002.113-.001.17.004.059.004.118.006.177.014a3.033 3.033 0 0 1 .844.221l.057.027.02.01-.024.044-.018.108-.038-.008a2.238 2.238 0 0 0-.46-.023 1.586 1.586 0 0 0-.183.024 6.087 6.087 0 0 1-.083.02c-.026.01-.05.018-.073.025l-.06.028c-.018.007-.032.017-.044.024a2.69 2.69 0 0 1-.038.024l.034-.028c.012-.009.025-.022.042-.032l.057-.035.071-.036.083-.032a1.617 1.617 0 0 1 .377-.08 1.56 1.56 0 0 1 .084-.007l-.048-.021a2.9 2.9 0 0 0-.61-.183c-.056-.013-.114-.02-.17-.027-.058-.01-.114-.011-.168-.016-.055-.006-.108-.004-.158-.005-.05-.002-.098 0-.141.002-.044.003-.084.003-.12.007l-.092.011-.08.01.079-.015Z"/><path fill="#9A7B36" d="m93.3 74.506-.09-.018c-.036-.007-.076-.01-.12-.016s-.092-.012-.143-.014c-.05-.002-.104-.008-.16-.007-.055.002-.112-.001-.17.004-.058.004-.118.006-.177.014a3.053 3.053 0 0 0-.843.221.85.85 0 0 0-.058.027l-.02.01.024.044.018.108.039-.008a2.274 2.274 0 0 1 .458-.023c.063.004.126.013.184.024l.084.02c.026.01.05.018.073.025l.06.028c.018.007.031.017.043.024l.039.024-.035-.028c-.011-.009-.024-.022-.041-.032a7.79 7.79 0 0 0-.057-.035l-.072-.036-.082-.032a1.599 1.599 0 0 0-.378-.08 1.598 1.598 0 0 0-.084-.007l.048-.021a2.9 2.9 0 0 1 .61-.183c.057-.013.114-.02.171-.027.057-.01.114-.011.168-.016.055-.006.107-.004.157-.005.05-.002.098 0 .142.002.044.003.084.003.12.007l.091.011.08.01-.079-.015Zm-5.541 0c.025-.006.056-.011.091-.018.035-.007.076-.01.12-.016s.091-.012.142-.014c.05-.002.104-.008.16-.007.055.002.113-.001.17.004.059.004.118.006.177.014a3.033 3.033 0 0 1 .844.221l.057.027.02.01-.024.044-.018.108-.038-.008a2.238 2.238 0 0 0-.46-.023 1.586 1.586 0 0 0-.183.024 6.087 6.087 0 0 1-.083.02c-.026.01-.05.018-.073.025l-.06.028c-.018.007-.032.017-.044.024a2.69 2.69 0 0 1-.038.024l.034-.028c.012-.009.025-.022.042-.032l.057-.035.071-.036.083-.032a1.617 1.617 0 0 1 .377-.08 1.56 1.56 0 0 1 .084-.007l-.048-.021a2.9 2.9 0 0 0-.61-.183c-.056-.013-.114-.02-.17-.027-.058-.01-.114-.011-.168-.016-.055-.006-.108-.004-.158-.005-.05-.002-.098 0-.141.002-.044.003-.084.003-.12.007l-.092.011-.08.01.079-.015Z"/><path fill="#E8BB4B" d="M91.55 75.662a.825.825 0 0 1-.812.837h-.421a.825.825 0 0 1-.813-.837v-1.338c0-.462.364-.837.813-.837h.42c.45 0 .813.375.813.837v1.338Z"/><path fill="#9A7B36" d="M91.26 76.202h-.421a.825.825 0 0 1-.813-.836v-1.338a.85.85 0 0 1 .186-.533.828.828 0 0 0-.706.829v1.338c0 .462.364.836.813.836h.42a.803.803 0 0 0 .627-.303.833.833 0 0 1-.106.007Z"/><path stroke="#1F1E1F" stroke-miterlimit="10" stroke-width="6.103" d="M96.074 93.627s4.332 1.274 10.453 1.316m-22.573-1.316s-4.331 1.274-10.452 1.316" opacity=".25"/><path fill="#1F1438" d="M90.472 21.414h.052-.188.136Z"/><path fill="#393A3D" stroke="#393A3D" stroke-miterlimit="10" stroke-width="1.562" d="M78.29 17.068h23.448v.025c.177-4.734.597-9.455 1.261-14.123a2.204 2.204 0 0 0-1.287-2.327c-3.72-1.649-19.676-1.649-23.395 0A2.204 2.204 0 0 0 77.03 2.97a136.568 136.568 0 0 1 1.261 14.115v-.017Z"/><path fill="#1F1438" d="M89.556 21.414h.136-.188.052Z"/><path fill="#E0B253" d="M81.564 21.063c2.63.293 5.316.35 7.939.352h1.02c2.622-.001 5.308-.059 7.938-.352.998-.111 2.115-.208 3.198-.429l.077-3.54.001-.026H78.289v.017l.078 3.549c1.083.221 2.2.318 3.197.429Z"/><path fill="#393A3D" stroke="#393A3D" stroke-miterlimit="10" stroke-width="1.562" d="M106.959 16.782c-.809.244-.957 1.325-1.451 1.898-.966 1.12-2.376 1.653-3.848 1.954-1.083.221-2.2.317-3.198.429-2.63.293-5.316.35-7.938.351h-1.021c-2.622 0-5.308-.058-7.938-.351-.998-.111-2.115-.208-3.198-.43-1.472-.3-2.883-.833-3.848-1.953-.494-.573-.642-1.654-1.451-1.898-1.218-.368-1.59 1.292-1.556 2.059.071 1.569 1.38 3.018 2.584 3.894 1.537 1.118 3.43 1.745 5.256 2.196 3.324.822 6.792 1.025 10.204 1.025l.446-.002.47.002c3.41 0 6.88-.203 10.202-1.025 1.826-.451 3.72-1.078 5.257-2.196 1.204-.876 2.513-2.325 2.584-3.894.035-.767-.338-2.427-1.556-2.059Z"/><path fill="#CBCBCA" d="M123.344 73.758h2.819V54.651h-3.478c-.857 3.635-1.275 8.666 2.924 9.07v8.432c-1.291.147-2.265.811-2.265 1.605Z"/><path fill="#B2B1B0" d="M128.984 73.758h-2.82V54.651h3.479c.856 3.635 1.274 8.666-2.924 9.07v8.432c1.29.147 2.265.811 2.265 1.605Z"/><path fill="#ED2E2D" d="M126.164 56.285v6.647h-.004c-3.652-.004-3.832-3.546-3.298-6.647h3.302Z"/><path fill="#E31E26" d="M126.167 62.932h-.003v-6.647h3.3c.535 3.106.358 6.647-3.297 6.647Z"/><path fill="#331B42" d="M127.131 64.166c-.658-.07-3.342 1.452-2.396 3.714.796 1.904.887 3.504 2.41 3.758 1.263.211 2.139.403 2.656-.23.517-.631 1.509-6.794-2.67-7.242Z" opacity=".15"/><path fill="#fff" d="M127.357 64.062c-.657-.082-3.367 1.394-2.461 3.671.764 1.918.826 3.52 2.345 3.8 1.26.233 2.132.44 2.66-.184.528-.623 1.626-6.767-2.544-7.287Z"/><path fill="#331B42" d="M129.743 66.073c.886 2.069.508 4.875.176 5.282-.517.632-1.393.44-2.656.23-1.078-.18-1.439-1.033-1.839-2.191.276.391.639.658 1.188.749 1.263.21 1.783.24 2.335-.363.64-.698 1.001-2.222.796-3.707Zm-6.29.843s1.314-.484 1.96.13c.999.945-1.75 3.06-1.752 3.671" opacity=".15"/><path fill="#fff" d="M123.511 70.822c.001-.611 2.75-2.726 1.752-3.672-.646-.614-1.961-.13-1.961-.13l-1.671 1.518"/><g opacity=".95"><g opacity=".95"><path fill="#598D3F" d="M160.85 66.088s-3.91-.505-5.476-4.991c-.968-2.777-3.601-7.868-5.807-7.445l-5.139 3.974s2.751 2.784 3.887 6.598c1.116 3.748 6.194 7.149 6.194 7.149l6.341-5.285Z" opacity=".95"/><g opacity=".95"><path fill="#fff" d="M149.174 63.863c-.885-1.925.341-3.884 1.906-4.294 1.565-.41 3.353 1.243 3.763 2.81a2.933 2.933 0 0 1-2.093 3.578c-1.566.41-2.899-.623-3.576-2.094Z" opacity=".4"/><path fill="#598D3F" d="M149.935 62.887c.047-.016.124.083.236.258.114.171.264.427.5.655.115.111.259.212.418.274.154.06.333.074.454.019a.482.482 0 0 0 .286-.328c.034-.126-.019-.31-.15-.544-.062-.116-.137-.24-.207-.382a1.648 1.648 0 0 1-.163-.493 1.149 1.149 0 0 1 .001-.293.966.966 0 0 1 .477-.696 1.012 1.012 0 0 1 .952-.034c.26.121.434.301.564.472.13.175.207.344.264.495.056.148.089.28.11.385.041.215.036.34-.008.355-.045.018-.128-.076-.243-.253-.118-.17-.265-.436-.496-.66a1.123 1.123 0 0 0-.409-.258c-.154-.048-.282-.035-.4.047a.337.337 0 0 0-.121.147.275.275 0 0 0-.02.086.402.402 0 0 0 .006.107c.023.158.158.375.306.643.074.136.148.286.195.466.023.09.037.185.04.284.001.1-.009.203-.037.298a1.114 1.114 0 0 1-.736.763c-.353.11-.674.022-.913-.104-.24-.127-.414-.3-.544-.472a2.18 2.18 0 0 1-.378-.88c-.04-.217-.028-.342.016-.357Z" opacity=".95"/><path fill="#598D3F" d="M150.116 64.652c-.057-.077.743-.774 1.789-1.555 1.046-.783 1.94-1.356 1.997-1.279.058.077-.743.774-1.788 1.557-1.045.783-1.94 1.354-1.998 1.277Zm-.222-.496c-.058-.077.665-.715 1.614-1.424.95-.71 1.766-1.223 1.824-1.146.057.077-.666.715-1.615 1.424-.949.71-1.766 1.223-1.823 1.146Z" opacity=".95"/></g><path fill="#fff" d="m145.293 57.752 4.689-3.598.056.025c2.594 1.134 4.092 5.132 5.083 7.778.171.456.332.887.48 1.252.992 2.452 3.749 3.104 3.981 3.03l.11.174-4.995 3.963-.059-.029c-3.572-1.773-5.533-5.208-6.125-7.61-.554-2.244-3.113-4.876-3.139-4.902l-.081-.084Zm4.717-3.359-4.407 3.381c.453.478 2.593 2.816 3.11 4.912.58 2.347 2.487 5.697 5.958 7.446l4.665-3.701a4.107 4.107 0 0 1-.559-.144c-.584-.194-2.552-.984-3.368-3-.149-.368-.31-.8-.482-1.257-.972-2.594-2.436-6.505-4.917-7.637Z" opacity=".5"/></g><g opacity=".95"><path fill="#598D3F" d="M161.46 5.06s.431 2.532-2.061 4.363c-1.542 1.133-4.207 3.743-3.523 5.037l3.451 2.444s1.207-2.245 3.362-3.68c2.119-1.41 3.266-5.22 3.266-5.22L161.46 5.06Z" opacity=".95"/><g opacity=".95"><path fill="#fff" d="M162.302 12.758c-1.028.918-2.48.528-3.033-.37-.554-.896.134-2.325 1.03-2.879a1.907 1.907 0 0 1 2.625.622c.553.897.164 1.925-.622 2.627Z" opacity=".4"/><path fill="#598D3F" d="M161.549 12.469c-.019-.027.028-.093.115-.196.085-.104.216-.246.313-.437a.82.82 0 0 0 .09-.312.405.405 0 0 0-.074-.287.316.316 0 0 0-.259-.116c-.085.003-.189.072-.31.197-.06.062-.123.132-.198.202-.074.07-.163.143-.275.196a.734.734 0 0 1-.183.055.587.587 0 0 1-.197 0 .657.657 0 0 1-.529-.75.984.984 0 0 1 .186-.442c.084-.115.175-.195.257-.259.082-.063.157-.109.219-.142.126-.066.204-.087.223-.063.019.025-.024.095-.111.2-.084.106-.221.248-.317.435a.743.743 0 0 0-.082.304c0 .105.032.182.106.24a.22.22 0 0 0 .114.047.17.17 0 0 0 .057-.004.273.273 0 0 0 .066-.024c.094-.044.203-.17.341-.313.07-.072.15-.147.253-.21a.861.861 0 0 1 .169-.08.648.648 0 0 1 .192-.033.724.724 0 0 1 .615.313.765.765 0 0 1 .109.588 1.057 1.057 0 0 1-.19.43c-.168.222-.35.335-.475.403-.127.066-.207.083-.225.058Z" opacity=".95"/><path fill="#598D3F" d="M162.613 12.02c-.037.05-.623-.315-1.309-.817-.686-.503-1.212-.95-1.175-1.001.037-.05.623.315 1.309.817.686.502 1.212.95 1.175 1.002Zm-.265.234c-.037.051-.572-.278-1.194-.734-.623-.456-1.097-.867-1.06-.917.037-.05.572.278 1.194.734.622.456 1.097.867 1.06.917Z" opacity=".95"/></g><path fill="#fff" d="m159.24 16.34-3.131-2.235.005-.04c.211-1.831 2.412-3.526 3.869-4.648.251-.194.488-.376.687-.538 1.336-1.085 1.216-2.927 1.126-3.057l.087-.102 3.417 2.356-.007.042c-.422 2.564-2.185 4.44-3.566 5.267-1.29.773-2.439 2.868-2.45 2.889l-.037.066Zm-2.987-2.298 2.942 2.1c.211-.372 1.258-2.151 2.463-2.873 1.349-.808 3.068-2.634 3.495-5.13l-3.191-2.2c.02.148.018.324.017.375-.01.4-.126 1.777-1.224 2.67-.201.162-.438.346-.69.54-1.428 1.1-3.581 2.757-3.812 4.518Z" opacity=".5"/></g><g opacity=".95"><path fill="#598D3F" d="M142.03 26.55s-3.901.566-6.616-3.332c-1.68-2.413-5.585-6.607-7.596-5.605l-3.88 5.212s3.398 1.94 5.519 5.306c2.083 3.31 7.887 5.217 7.887 5.217l4.686-6.798Z" opacity=".95"/><g opacity=".95"><path fill="#fff" d="M130.187 27.553c-1.37-1.615-.716-3.832.681-4.648 1.397-.817 3.563.294 4.379 1.691a2.934 2.934 0 0 1-1.053 4.011c-1.397.817-2.959.18-4.007-1.054Z" opacity=".4"/><path fill="#598D3F" d="M130.659 26.409c.041-.029.141.046.296.184.156.135.369.34.658.497.14.075.306.134.476.15.165.018.34-.018.443-.104a.484.484 0 0 0 .187-.393c-.001-.13-.102-.293-.291-.483-.091-.095-.197-.194-.302-.312a1.636 1.636 0 0 1-.29-.431 1.17 1.17 0 0 1-.078-.283.906.906 0 0 1 .009-.303.978.978 0 0 1 .263-.495 1.018 1.018 0 0 1 .908-.29c.284.047.499.174.671.303.172.134.292.276.387.405.094.128.161.246.209.342.098.196.126.317.088.344-.039.03-.144-.039-.302-.178-.159-.132-.372-.349-.655-.502a1.121 1.121 0 0 0-.463-.139c-.162-.004-.282.043-.373.154a.333.333 0 0 0-.077.173.24.24 0 0 0 .004.088.4.4 0 0 0 .034.103c.065.145.253.319.468.536.107.111.22.236.313.397.047.08.086.168.115.262.028.096.046.198.045.297 0 .402-.212.742-.504.934-.31.2-.643.202-.907.145a1.647 1.647 0 0 1-.652-.308 2.19 2.19 0 0 1-.6-.746c-.097-.198-.119-.321-.08-.348Z" opacity=".95"/><path fill="#598D3F" d="M131.305 28.059c-.076-.059.508-.946 1.305-1.98.796-1.036 1.504-1.828 1.58-1.77.076.06-.508.946-1.304 1.982s-1.504 1.826-1.581 1.768Zm-.346-.417c-.077-.059.448-.869 1.171-1.807.723-.94 1.372-1.654 1.448-1.595.076.058-.448.868-1.172 1.807-.723.94-1.371 1.653-1.447 1.595Z" opacity=".95"/></g><path fill="#fff" d="m124.805 22.712 3.548-4.728.06.01c2.803.392 5.321 3.84 6.988 6.12.287.393.558.765.8 1.077 1.614 2.094 4.445 1.979 4.648 1.846l.153.137-3.744 5.163-.064-.012c-3.918-.745-6.73-3.525-7.948-5.68-1.137-2.011-4.308-3.856-4.34-3.874l-.101-.059Zm3.639-4.505-3.334 4.444c.564.337 3.254 2.013 4.316 3.892 1.19 2.105 3.927 4.816 7.741 5.566l3.497-4.822c-.229.026-.5.015-.577.012-.615-.03-2.723-.26-4.05-1.981a53.8 53.8 0 0 1-.803-1.082c-1.634-2.236-4.096-5.607-6.79-6.03Z" opacity=".5"/></g><g opacity=".95"><path fill="#598D3F" d="M144.861 75.346s-.375 3.177-3.996 4.487c-2.242.81-6.343 2.99-5.981 4.777l3.264 4.136s2.232-2.257 5.312-3.212c3.027-.939 5.738-5.088 5.738-5.088l-4.337-5.1Z" opacity=".95"/><g opacity=".95"><path fill="#fff" d="M143.16 84.84c-1.552.735-3.149-.243-3.495-1.51-.346-1.266.978-2.731 2.243-3.078a2.376 2.376 0 0 1 2.918 1.668c.346 1.266-.48 2.358-1.666 2.92Z" opacity=".4"/><path fill="#598D3F" d="M142.363 84.23c-.014-.039.066-.102.206-.194.138-.094.344-.218.527-.411.089-.095.17-.212.218-.342a.512.512 0 0 0 .012-.37.394.394 0 0 0-.269-.228c-.102-.027-.251.018-.439.126-.094.052-.193.114-.307.171a1.33 1.33 0 0 1-.399.137.912.912 0 0 1-.237.002.738.738 0 0 1-.236-.07.823.823 0 0 1-.368-1.083c.096-.213.24-.355.378-.462a1.847 1.847 0 0 1 .709-.311c.174-.035.275-.032.288.003.015.037-.061.105-.203.2-.137.097-.351.218-.53.408a.917.917 0 0 0-.206.334c-.037.125-.025.23.042.325.033.044.075.08.12.096.022.01.044.013.069.015.028.002.056 0 .088-.005.127-.02.302-.132.518-.254a1.67 1.67 0 0 1 .376-.163c.073-.019.15-.031.23-.034a.808.808 0 0 1 .241.027.903.903 0 0 1 .625.591.962.962 0 0 1-.076.741c-.102.197-.24.34-.379.446a1.767 1.767 0 0 1-.709.315c-.175.034-.277.025-.289-.01Z" opacity=".95"/><path fill="#598D3F" d="M143.791 84.069c-.062.047-.633-.597-1.276-1.438-.643-.842-1.114-1.563-1.053-1.61.062-.047.634.596 1.277 1.438.644.841 1.114 1.562 1.052 1.61Zm-.399.184c-.062.048-.586-.533-1.168-1.297-.584-.764-1.006-1.423-.945-1.47.062-.047.586.534 1.169 1.298.583.764 1.006 1.422.944 1.47Z" opacity=".95"/></g><path fill="#fff" d="m138.242 88.043-2.955-3.774.019-.045c.896-2.115 4.123-3.366 6.258-4.193a47.02 47.02 0 0 0 1.01-.401c1.978-.826 2.482-3.07 2.421-3.256l.139-.092 3.255 4.02-.023.047c-1.406 2.915-4.172 4.535-6.113 5.037-1.813.47-3.923 2.569-3.944 2.59l-.067.067Zm-2.762-3.8 2.778 3.548c.383-.372 2.259-2.129 3.953-2.567 1.896-.49 4.593-2.067 5.98-4.9l-3.039-3.753a3.338 3.338 0 0 1-.112.455c-.152.476-.775 2.08-2.401 2.76-.297.123-.646.258-1.015.401-2.093.812-5.248 2.034-6.144 4.057Z" opacity=".5"/></g></g><g opacity=".75"><path fill="#EBEBEB" d="M158.062 36.767s-1.942 2.54-5.725 1.819c-2.34-.448-6.979-.667-7.579 1.055l.699 5.224s3.071-.802 6.206-.051c3.082.738 7.529-1.447 7.529-1.447l-1.13-6.6Z" opacity=".75"/><g opacity=".75"><path fill="#F5F5F5" d="M151.759 44.063c-1.709-.16-2.584-1.816-2.236-3.082.348-1.266 2.233-1.85 3.498-1.502a2.379 2.379 0 0 1 1.66 2.924c-.349 1.266-1.615 1.783-2.922 1.66Z" opacity=".75"/><path fill="#EBEBEB" d="M151.384 43.132c.008-.04.108-.053.276-.061.167-.01.407-.012.663-.084a1.05 1.05 0 0 0 .362-.183c.105-.084.187-.204.198-.312a.395.395 0 0 0-.114-.334c-.075-.075-.226-.112-.443-.116-.107-.003-.224 0-.352-.009a1.321 1.321 0 0 1-.412-.086.908.908 0 0 1-.205-.12.74.74 0 0 1-.167-.18.816.816 0 0 1 .236-1.12c.19-.133.387-.182.56-.204.176-.02.325-.006.454.015.127.021.232.051.315.08.167.059.252.112.246.15-.006.039-.106.059-.277.068-.167.013-.413.008-.664.08a.907.907 0 0 0-.347.182c-.096.09-.139.184-.129.3a.278.278 0 0 0 .053.145c.015.02.032.034.052.049a.352.352 0 0 0 .078.04c.12.047.328.041.575.045.125.004.262.013.407.053.072.02.145.049.215.087.071.04.139.089.194.147.227.233.298.55.236.827a.956.956 0 0 1-.443.599 1.32 1.32 0 0 1-.553.19 1.772 1.772 0 0 1-.771-.091c-.168-.06-.251-.12-.243-.157Z" opacity=".75"/><path fill="#EBEBEB" d="M152.694 43.723c-.077.01-.24-.836-.364-1.888s-.162-1.913-.085-1.922c.077-.009.241.836.366 1.889.124 1.052.161 1.912.083 1.921Zm-.437-.045c-.078.01-.232-.758-.344-1.713-.112-.956-.14-1.737-.063-1.746.078-.01.232.758.344 1.713.112.955.14 1.736.063 1.745Z" opacity=".75"/></g><path fill="#FAFAFA" d="m145.896 44.307-.619-4.754.04-.03c1.849-1.36 5.261-.789 7.519-.41.389.065.757.126 1.074.17 2.121.3 3.699-1.372 3.741-1.565l.166-.007.751 5.118-.044.03c-2.694 1.79-5.899 1.771-7.825 1.212-1.799-.523-4.683.206-4.712.213l-.091.023Zm-.44-4.677.582 4.469c.518-.124 3.027-.678 4.707-.19 1.881.547 5.005.568 7.642-1.16l-.701-4.78a3.4 3.4 0 0 1-.329.334c-.373.331-1.726 1.393-3.471 1.147-.319-.045-.687-.107-1.077-.172-2.214-.371-5.551-.93-7.353.352Z" opacity=".5"/></g><g opacity=".75"><path fill="#EBEBEB" d="M138.857 5.599s-3.029 1.021-5.763-1.692c-1.692-1.68-5.417-4.455-6.876-3.362l-2.335 4.723s2.994 1.052 5.176 3.428c2.144 2.335 7.052 3.01 7.052 3.01l2.746-6.107Z" opacity=".75"/><g opacity=".75"><path fill="#F5F5F5" d="M129.556 8.127c-1.328-1.089-1.13-2.952-.135-3.807.996-.855 2.886-.286 3.74.71a2.38 2.38 0 0 1-.255 3.353c-.995.855-2.335.576-3.35-.256Z" opacity=".75"/><path fill="#EBEBEB" d="M129.765 7.145c.028-.029.119.016.263.104.144.084.344.217.597.3.123.04.264.062.401.05.135-.01.27-.064.339-.147.08-.086.12-.23.092-.341-.02-.104-.125-.22-.303-.343-.087-.062-.185-.126-.286-.205a1.303 1.303 0 0 1-.294-.302.906.906 0 0 1-.103-.213.717.717 0 0 1-.038-.243.818.818 0 0 1 .82-.797c.233-.005.424.065.579.143a1.89 1.89 0 0 1 .585.509c.106.142.146.234.12.262-.027.029-.121-.01-.267-.098-.146-.083-.348-.224-.596-.305a.907.907 0 0 0-.389-.043c-.13.02-.219.075-.276.177a.288.288 0 0 0-.036.15.329.329 0 0 0 .059.146c.073.106.248.217.451.359.102.073.21.156.308.27.049.059.093.123.13.194a.905.905 0 0 1-.187 1.049.956.956 0 0 1-.702.247 1.33 1.33 0 0 1-.565-.15 1.78 1.78 0 0 1-.588-.507c-.106-.144-.142-.24-.114-.266Z" opacity=".75"/><path fill="#EBEBEB" d="M130.523 8.368c-.069-.036.267-.828.752-1.77.484-.942.933-1.677 1.002-1.642.069.036-.267.829-.751 1.771s-.934 1.676-1.003 1.64Zm-.339-.282c-.07-.036.231-.759.671-1.613.44-.855.853-1.519.922-1.483.07.035-.231.758-.671 1.612-.44.855-.853 1.52-.922 1.484Z" opacity=".75"/></g><path fill="#FAFAFA" d="M124.559 5.053 126.7.763l.049-.001c2.293-.096 4.804 2.286 6.466 3.862.286.272.557.528.795.742 1.593 1.434 3.834.93 3.977.794l.142.087-2.234 4.665h-.053c-3.234-.023-5.882-1.83-7.167-3.37-1.2-1.439-3.999-2.448-4.027-2.457l-.089-.032Zm2.246-4.125-2.012 4.03c.499.188 2.889 1.132 4.01 2.476 1.256 1.505 3.835 3.268 6.986 3.31l2.087-4.357c-.18.054-.397.085-.459.093-.495.067-2.21.19-3.52-.989-.239-.215-.51-.473-.797-.745-1.629-1.545-4.085-3.875-6.295-3.818Z" opacity=".5"/></g><g opacity=".75"><path fill="#F5F5F5" d="M164.401 23.688s-1.747 1.352-4.145.2c-1.485-.714-4.545-1.683-5.25-.639l-.457 3.613s2.192.01 4.154 1.066c1.928 1.04 5.285.369 5.285.369l.413-4.61Z" opacity=".75"/><g opacity=".75"><path fill="#EBEBEB" d="M158.902 27.444c-1.114-.41-1.406-1.671-.949-2.455.457-.784 1.819-.84 2.602-.383a1.644 1.644 0 0 1 .592 2.247c-.457.784-1.395.905-2.245.591Z" opacity=".75"/><path fill="#F5F5F5" d="M158.816 26.756c.013-.025.082-.017.196.008.113.023.273.064.457.061a.719.719 0 0 0 .274-.058.353.353 0 0 0 .188-.173.278.278 0 0 0-.017-.243c-.037-.063-.131-.115-.275-.156-.071-.02-.15-.04-.234-.068a.922.922 0 0 1-.26-.131.635.635 0 0 1-.116-.116.546.546 0 0 1-.087-.465.568.568 0 0 1 .363-.391.836.836 0 0 1 .411-.038c.12.018.218.054.3.091.081.037.146.075.196.109.102.069.149.12.138.144-.011.025-.081.02-.197-.004-.113-.02-.277-.067-.457-.064a.626.626 0 0 0-.264.06c-.08.043-.126.099-.14.178a.185.185 0 0 0 .01.106.145.145 0 0 0 .026.042.266.266 0 0 0 .045.04c.072.053.212.086.376.133.083.024.173.054.262.107a.764.764 0 0 1 .129.096.625.625 0 0 1 .115.727.66.66 0 0 1-.403.321.915.915 0 0 1-.402.03 1.228 1.228 0 0 1-.499-.198c-.101-.07-.147-.125-.135-.148Z" opacity=".75"/><path fill="#F5F5F5" d="M159.586 27.383c-.053-.008-.013-.602.091-1.326.103-.725.23-1.307.283-1.3.054.008.013.602-.09 1.327s-.231 1.306-.284 1.299Zm-.283-.108c-.054-.007-.021-.547.074-1.205.094-.658.213-1.185.267-1.177.053.007.02.547-.074 1.204-.094.658-.214 1.185-.267 1.178Z" opacity=".75"/></g><path fill="#EBEBEB" d="m154.941 26.568.429-3.285.032-.013c1.476-.581 3.654.405 5.095 1.058.248.113.483.22.687.305 1.364.576 2.713-.261 2.776-.382l.112.024-.404 3.552-.035.012c-2.116.718-4.254.137-5.441-.578-1.109-.667-3.165-.692-3.185-.692h-.066Zm.535-3.202-.403 3.088c.369.009 2.143.084 3.178.708 1.16.698 3.243 1.266 5.31.579l.377-3.317a2.252 2.252 0 0 1-.278.165c-.308.155-1.4.625-2.522.151-.205-.086-.44-.193-.689-.306-1.413-.64-3.543-1.605-4.973-1.068Z" opacity=".5"/></g><g opacity=".75"><g opacity=".75"><path fill="#F5F5F5" d="M50.625 22.854s-.875 3.033-4.61 3.728c-2.313.43-6.657 1.895-6.59 3.693l2.516 4.551s2.535-1.84 5.687-2.276c3.098-.428 6.403-4.034 6.403-4.034l-3.406-5.662Z" opacity=".75"/><g opacity=".75"><path fill="#EBEBEB" d="M47.447 31.826c-1.629.467-3.027-.741-3.161-2.03-.135-1.289 1.39-2.503 2.677-2.638a2.346 2.346 0 0 1 2.574 2.092c.134 1.289-.844 2.22-2.09 2.576Z" opacity=".75"/><path fill="#F5F5F5" d="M46.769 31.104c-.007-.039.08-.088.232-.155.15-.07.37-.157.579-.316a1.03 1.03 0 0 0 .267-.298c.067-.114.099-.254.07-.357a.387.387 0 0 0-.225-.267c-.095-.042-.247-.022-.448.053-.1.036-.206.08-.327.118a1.3 1.3 0 0 1-.41.069.902.902 0 0 1-.23-.036.724.724 0 0 1-.219-.107.782.782 0 0 1-.274-.355.814.814 0 0 1 .09-.758c.126-.192.29-.307.44-.39a1.6 1.6 0 0 1 .424-.148c.124-.027.232-.037.317-.04.176-.007.273.012.28.049.009.038-.076.092-.23.162-.148.072-.376.156-.581.312a.901.901 0 0 0-.254.292c-.056.117-.062.22-.011.323.024.05.06.09.1.113a.21.21 0 0 0 .066.027.34.34 0 0 0 .086.008c.128.001.316-.08.545-.165.117-.041.245-.082.393-.097.074-.007.15-.007.229.003a.8.8 0 0 1 .23.065c.294.133.472.4.515.676a.943.943 0 0 1-.193.71c-.13.175-.288.291-.44.373a1.747 1.747 0 0 1-.742.193c-.175.005-.273-.02-.28-.057Z" opacity=".75"/><path fill="#F5F5F5" d="M48.187 31.177c-.068.036-.522-.682-1.012-1.605-.492-.923-.836-1.7-.768-1.737.068-.036.521.682 1.013 1.605.492.923.834 1.7.767 1.737Zm-.421.116c-.068.037-.485-.614-.93-1.45-.446-.839-.752-1.548-.684-1.584.068-.036.485.614.93 1.452.446.837.752 1.546.684 1.582Z" opacity=".75"/></g><path fill="#EBEBEB" d="m42.145 34.156-2.274-4.15.026-.04c1.212-1.916 4.554-2.616 6.766-3.08.38-.08.74-.155 1.048-.228 2.057-.487 2.908-2.59 2.878-2.783l.15-.066 2.526 4.435-.03.043c-1.835 2.614-4.788 3.748-6.76 3.925-1.84.166-4.23 1.872-4.254 1.89l-.076.054Zm-2.082-4.143 2.137 3.9c.433-.3 2.541-1.71 4.26-1.865 1.926-.174 4.805-1.277 6.61-3.813l-2.36-4.142a3.13 3.13 0 0 1-.182.425c-.224.439-1.087 1.9-2.78 2.302-.308.073-.67.148-1.052.229-2.168.454-5.437 1.138-6.633 2.964Z" opacity=".5"/></g><g opacity=".75"><path fill="#F5F5F5" d="M24.816 47.094s-.62 2.091-3.205 2.552c-1.6.284-4.61 1.274-4.574 2.517l1.715 3.158s1.762-1.258 3.942-1.543c2.143-.28 4.446-2.754 4.446-2.754l-2.324-3.93Z" opacity=".75"/><g opacity=".75"><path fill="#EBEBEB" d="M22.573 53.278c-1.128.314-2.088-.529-2.174-1.42-.085-.891.974-1.722 1.864-1.808a1.621 1.621 0 0 1 1.768 1.459c.086.891-.595 1.529-1.457 1.769Z" opacity=".75"/><path fill="#F5F5F5" d="M22.109 52.776c-.005-.028.056-.06.161-.107.104-.046.256-.106.402-.215a.712.712 0 0 0 .186-.204c.047-.079.07-.175.05-.247a.268.268 0 0 0-.154-.185c-.065-.03-.17-.017-.31.034-.068.024-.142.054-.226.08a.894.894 0 0 1-.284.045.622.622 0 0 1-.16-.026.54.54 0 0 1-.338-.322.562.562 0 0 1 .067-.523.825.825 0 0 1 .307-.267 1.28 1.28 0 0 1 .513-.127c.121-.003.188.01.193.036.006.026-.053.063-.16.11-.103.05-.26.107-.403.213a.621.621 0 0 0-.177.201c-.04.08-.044.151-.01.223a.187.187 0 0 0 .07.079.137.137 0 0 0 .045.018.239.239 0 0 0 .059.007c.088.001.219-.054.377-.111.081-.028.17-.056.272-.066a.734.734 0 0 1 .159.004c.054.008.11.022.159.046a.617.617 0 0 1 .214.96c-.09.12-.2.2-.306.255a1.209 1.209 0 0 1-.513.13c-.122.002-.19-.016-.193-.041Z" opacity=".75"/><path fill="#F5F5F5" d="M23.087 52.833c-.047.025-.357-.474-.69-1.114-.336-.64-.569-1.18-.522-1.204.047-.025.357.474.692 1.114.335.64.567 1.18.52 1.204Zm-.29.077c-.047.026-.331-.426-.634-1.007-.304-.581-.512-1.073-.465-1.097.047-.025.332.426.635 1.008.304.58.511 1.072.464 1.097Z" opacity=".75"/></g><path fill="#EBEBEB" d="m18.897 54.86-1.55-2.88.019-.028c.847-1.317 3.16-1.783 4.691-2.092.264-.053.513-.103.726-.152 1.424-.326 2.023-1.775 2.003-1.908l.104-.045 1.722 3.079-.02.029c-1.282 1.796-3.33 2.564-4.692 2.676-1.273.105-2.934 1.271-2.95 1.283l-.053.037Zm-1.416-2.874 1.455 2.706c.3-.206 1.765-1.169 2.954-1.267 1.331-.11 3.327-.856 4.587-2.599l-1.608-2.875c-.04.121-.108.255-.128.293-.157.302-.761 1.308-1.933 1.576-.214.048-.464.099-.728.152-1.501.303-3.763.758-4.6 2.014Z" opacity=".5"/></g></g><g opacity=".95"><path fill="#598D3F" d="M13.096 12.176s2.017-1.06 4.246.542c1.38.992 4.314 2.525 5.217 1.592l1.113-3.587s-2.225-.403-4.028-1.83c-1.771-1.402-5.301-1.324-5.301-1.324l-1.247 4.607Z" opacity=".95"/><g opacity=".95"><path fill="#fff" d="M19.358 9.35c1.057.616 1.127 1.95.523 2.664-.605.714-1.999.526-2.712-.079a1.696 1.696 0 0 1-.197-2.388c.604-.714 1.578-.669 2.386-.197Z" opacity=".4"/><path fill="#598D3F" d="M19.321 10.064c-.017.024-.086.002-.197-.043-.11-.044-.266-.115-.454-.144a.744.744 0 0 0-.288.01.36.36 0 0 0-.222.141.28.28 0 0 0-.026.25c.026.071.112.14.251.208.068.034.145.068.225.112.08.044.166.098.24.18.038.04.071.087.098.138a.565.565 0 0 1 .005.488.587.587 0 0 1-.44.332.862.862 0 0 1-.423-.036 1.15 1.15 0 0 1-.289-.146 1.374 1.374 0 0 1-.18-.146c-.09-.088-.13-.148-.114-.17.016-.024.086-.007.2.038.111.042.27.119.453.148a.647.647 0 0 0 .279-.014c.089-.029.145-.077.174-.155a.196.196 0 0 0 .008-.11.15.15 0 0 0-.019-.047.252.252 0 0 0-.038-.05c-.064-.066-.2-.124-.359-.201a1.195 1.195 0 0 1-.246-.156.766.766 0 0 1-.114-.121.645.645 0 0 1 .48-1.013.947.947 0 0 1 .415.042c.234.081.38.204.47.291.091.09.127.152.111.174Z" opacity=".95"/><path fill="#598D3F" d="M18.65 9.29c.054.017-.094.612-.33 1.33-.234.718-.468 1.285-.52 1.268-.053-.017.095-.613.33-1.33.234-.719.468-1.286.52-1.269Zm.272.16c.053.017-.077.56-.291 1.21-.214.652-.43 1.165-.483 1.148-.052-.017.078-.56.292-1.21.213-.652.43-1.166.482-1.148Z" opacity=".95"/></g><path fill="#fff" d="m23.22 10.951-1.025 3.26-.034.007c-1.603.325-3.638-1.068-4.985-1.99-.232-.16-.451-.31-.643-.434-1.282-.83-2.803-.222-2.888-.11l-.11-.046 1.048-3.534.038-.006c2.278-.349 4.345.625 5.423 1.565 1.006.877 3.09 1.272 3.11 1.276l.066.012Zm-1.117 3.156.963-3.064c-.373-.075-2.16-.47-3.1-1.29-1.053-.918-3.067-1.869-5.29-1.543l-.978 3.301c.12-.058.269-.104.312-.117.34-.103 1.534-.383 2.588.3.193.125.413.275.645.434 1.32.905 3.31 2.268 4.86 1.98Z" opacity=".5"/></g><g opacity=".95"><path fill="#598D3F" d="M22.308 75.029s-2.453.465-4.278-1.927c-1.129-1.482-3.714-4.029-4.96-3.34l-2.312 3.404s2.204 1.136 3.637 3.208c1.409 2.037 5.134 3.085 5.134 3.085l2.78-4.43Z" opacity=".95"/><g opacity=".95"><path fill="#fff" d="M14.842 75.987c-.911-.984-.558-2.405.303-2.96.862-.555 2.264.089 2.818.95a1.859 1.859 0 0 1-.557 2.568c-.861.555-1.868.195-2.564-.558Z" opacity=".4"/><path fill="#598D3F" d="M15.108 75.25c.025-.02.09.025.192.108.102.081.243.205.43.297a.817.817 0 0 0 .305.082c.105.006.215-.021.278-.078a.307.307 0 0 0 .108-.254c-.005-.082-.073-.183-.197-.298-.061-.058-.13-.117-.2-.189a1.03 1.03 0 0 1-.195-.265.706.706 0 0 1-.057-.177.618.618 0 0 1 .15-.513.644.644 0 0 1 .566-.207.955.955 0 0 1 .433.173 1.44 1.44 0 0 1 .398.456c.067.122.088.197.065.216-.024.02-.093-.021-.196-.105-.104-.08-.245-.21-.428-.3a.712.712 0 0 0-.297-.075c-.103.002-.177.035-.232.108a.215.215 0 0 0-.044.112.147.147 0 0 0 .005.055.268.268 0 0 0 .024.064c.045.09.17.195.311.327.071.067.146.143.21.242.03.05.058.104.08.163a.706.706 0 0 1-.257.791.745.745 0 0 1-.57.117 1.04 1.04 0 0 1-.422-.177 1.385 1.385 0 0 1-.4-.456c-.066-.122-.084-.2-.06-.218Z" opacity=".95"/><path fill="#598D3F" d="M15.563 76.277c-.05-.035.296-.612.772-1.288.475-.678.901-1.198.951-1.163.05.035-.295.612-.77 1.29-.476.676-.903 1.196-.953 1.161Zm-.23-.254c-.05-.035.26-.562.692-1.175.432-.615.823-1.084.873-1.05.05.036-.26.562-.692 1.176-.432.615-.823 1.084-.873 1.049Z" opacity=".95"/></g><path fill="#fff" d="m11.305 73.071 2.116-3.089.038.004c1.785.172 3.472 2.285 4.59 3.682.192.241.373.469.535.66 1.078 1.28 2.867 1.13 2.991 1.04l.101.083-2.228 3.37-.041-.006c-2.5-.364-4.355-2.047-5.184-3.377-.775-1.241-2.832-2.322-2.853-2.333l-.065-.034Zm2.18-2.95-1.989 2.903c.367.198 2.114 1.185 2.838 2.345.81 1.299 2.616 2.94 5.05 3.31l2.081-3.147a2.595 2.595 0 0 1-.365.023c-.39-.001-1.73-.09-2.617-1.142a35.53 35.53 0 0 1-.537-.663c-1.095-1.37-2.746-3.436-4.461-3.63Z" opacity=".5"/></g><g opacity=".95"><path fill="#598D3F" d="M51.556 59.739s-2.936 1.022-5.621-1.59c-1.661-1.618-5.311-4.281-6.719-3.205L36.99 59.56s2.922.995 5.066 3.284c2.108 2.25 6.887 2.86 6.887 2.86l2.613-5.965Z" opacity=".95"/><g opacity=".95"><path fill="#fff" d="M42.535 62.286c-1.302-1.046-1.127-2.86-.167-3.7.96-.842 2.803-.306 3.644.654.84.961.743 2.421-.217 3.263-.96.841-2.264.583-3.26-.217Z" opacity=".4"/><path fill="#598D3F" d="M42.729 61.329c.028-.028.116.015.257.098.14.081.336.209.583.287.12.037.258.058.392.045a.488.488 0 0 0 .327-.147.382.382 0 0 0 .086-.332c-.02-.1-.123-.212-.297-.33-.085-.06-.182-.122-.28-.197a1.283 1.283 0 0 1-.29-.29.888.888 0 0 1-.102-.208.715.715 0 0 1-.039-.236.8.8 0 0 1 .79-.783c.227-.006.413.06.564.135a1.837 1.837 0 0 1 .574.488c.105.138.145.227.12.254-.026.029-.118-.009-.261-.093-.143-.079-.34-.214-.582-.29a.885.885 0 0 0-.38-.038.342.342 0 0 0-.266.174.267.267 0 0 0-.033.146.203.203 0 0 0 .016.068.33.33 0 0 0 .042.074c.072.103.243.209.442.345.1.07.206.15.302.26.048.056.091.118.128.186.036.07.066.147.079.223a.88.88 0 0 1-.25.799.928.928 0 0 1-.68.248 1.294 1.294 0 0 1-.552-.141 1.724 1.724 0 0 1-.576-.488c-.104-.139-.14-.23-.114-.257Z" opacity=".95"/><path fill="#598D3F" d="M43.478 62.511c-.068-.034.252-.808.714-1.728.462-.921.891-1.64.96-1.606.067.034-.253.808-.715 1.729-.461.921-.892 1.64-.96 1.605Zm-.333-.271c-.068-.035.217-.74.637-1.575.42-.836.815-1.486.883-1.452.068.034-.218.74-.638 1.575-.419.836-.815 1.485-.882 1.451Z" opacity=".95"/></g><path fill="#fff" d="m37.645 59.344 2.04-4.192.049-.002c2.23-.115 4.694 2.177 6.325 3.694.28.261.546.508.78.714 1.563 1.38 3.737.867 3.875.734l.139.083-2.129 4.558h-.051c-3.145.01-5.737-1.722-7.002-3.209-1.18-1.387-3.912-2.341-3.94-2.35l-.087-.03Zm2.145-4.034-1.919 3.94c.488.177 2.821 1.072 3.924 2.368 1.235 1.452 3.76 3.142 6.825 3.152l1.988-4.256a3.239 3.239 0 0 1-.446.095c-.48.07-2.146.206-3.431-.928a46.36 46.36 0 0 1-.783-.717c-1.6-1.487-4.01-3.73-6.158-3.654Z" opacity=".5"/></g><g opacity=".95"><path fill="#598D3F" d="M29.85 30.566s-3.054 2.411-7.297.421c-2.626-1.233-8.032-2.888-9.256-1.038l-.746 6.37s3.862-.02 7.334 1.81c3.412 1.799 9.314.562 9.314.562l.652-8.125Z" opacity=".95"/><g opacity=".95"><path fill="#fff" d="M20.223 37.273c-1.968-.703-2.503-2.92-1.711-4.308.79-1.388 3.19-1.51 4.577-.718a2.896 2.896 0 0 1 1.078 3.948c-.791 1.388-2.44 1.617-3.945 1.078Z" opacity=".4"/><path fill="#598D3F" d="M20.062 36.062c.02-.044.143-.03.344.011.2.038.483.109.807.1a1.27 1.27 0 0 0 .481-.107c.15-.066.282-.183.327-.307a.478.478 0 0 0-.034-.429c-.065-.11-.232-.2-.486-.27-.126-.035-.265-.068-.412-.116a1.603 1.603 0 0 1-.46-.226 1.107 1.107 0 0 1-.207-.203.894.894 0 0 1-.142-.263.964.964 0 0 1-.02-.553 1.001 1.001 0 0 1 .634-.696c.265-.1.512-.099.722-.073.214.03.386.092.531.155.144.063.259.13.348.189.18.12.264.208.245.25-.02.045-.143.038-.347-.002-.2-.035-.49-.115-.807-.106a1.107 1.107 0 0 0-.464.11c-.14.076-.22.176-.244.316a.335.335 0 0 0 .02.186c.012.028.027.05.047.073a.423.423 0 0 0 .08.07c.127.093.374.148.665.228.146.042.304.093.463.184.08.047.156.102.228.168a.987.987 0 0 1 .184.231c.198.344.186.74.03 1.048-.166.324-.45.49-.703.572a1.618 1.618 0 0 1-.71.058 2.155 2.155 0 0 1-.88-.34c-.18-.122-.26-.217-.24-.258Z" opacity=".95"/><path fill="#598D3F" d="M21.427 37.154c-.094-.012-.033-1.058.138-2.336.17-1.279.384-2.305.478-2.292.094.012.032 1.058-.137 2.337-.17 1.278-.385 2.304-.48 2.291Zm-.502-.186c-.095-.012-.045-.964.11-2.123.154-1.16.357-2.09.45-2.078.095.012.046.963-.11 2.123-.154 1.16-.356 2.09-.45 2.078Z" opacity=".95"/></g><path fill="#fff" d="m13.238 35.795.7-5.793.057-.022c2.59-1.05 6.441.653 8.991 1.78.439.193.854.377 1.214.524 2.413.992 4.775-.505 4.883-.719l.199.042-.654 6.262-.061.022c-3.716 1.299-7.49.312-9.593-.928-1.964-1.158-5.584-1.168-5.62-1.168h-.116Zm.889-5.648-.659 5.445c.65.01 3.775.113 5.61 1.195 2.054 1.21 5.73 2.176 9.36.932l.61-5.848c-.183.135-.419.26-.487.295-.54.279-2.455 1.123-4.439.308-.362-.15-.778-.333-1.219-.528-2.499-1.104-6.266-2.769-8.776-1.8Z" opacity=".5"/></g><g opacity=".95"><path fill="#598D3F" d="M41.778.297s.428 3.407-3.007 5.707c-2.126 1.423-5.837 4.755-5 6.523l4.468 3.466s1.744-2.928 4.706-4.72c2.912-1.759 4.666-6.783 4.666-6.783L41.778.297Z" opacity=".95"/><g opacity=".95"><path fill="#fff" d="M42.454 10.628c-1.428 1.167-3.344.56-4.03-.67-.688-1.23.314-3.098 1.542-3.786a2.55 2.55 0 0 1 3.47.984c.688 1.23.109 2.58-.982 3.472Z" opacity=".4"/><path fill="#598D3F" d="M41.467 10.199c-.024-.037.042-.123.165-.255.12-.134.302-.316.443-.565.068-.121.122-.265.139-.412.017-.144-.01-.297-.084-.388a.42.42 0 0 0-.338-.17c-.114 0-.257.085-.425.246-.084.078-.172.169-.276.258-.105.09-.227.182-.38.245a.976.976 0 0 1-.247.063.785.785 0 0 1-.263-.012.849.849 0 0 1-.427-.237.885.885 0 0 1-.236-.796c.045-.246.158-.432.274-.579.12-.148.244-.25.358-.33.113-.08.217-.137.3-.177.173-.082.278-.105.302-.071.025.034-.037.125-.16.26-.118.136-.31.319-.448.562a.98.98 0 0 0-.128.401c-.006.141.033.246.127.328a.296.296 0 0 0 .15.07.25.25 0 0 0 .077-.002.37.37 0 0 0 .09-.029c.127-.053.28-.215.473-.398.099-.092.21-.188.35-.267a1.15 1.15 0 0 1 .23-.095.87.87 0 0 1 .26-.034.97.97 0 0 1 .803.454c.17.273.165.564.112.792a1.43 1.43 0 0 1-.28.563 1.903 1.903 0 0 1-.658.51c-.173.081-.281.099-.303.065Z" opacity=".95"/><path fill="#598D3F" d="M42.912 9.663c-.052.065-.813-.458-1.7-1.17-.887-.71-1.564-1.34-1.512-1.404.052-.066.814.457 1.701 1.168.888.71 1.563 1.34 1.511 1.406Zm-.369.295c-.052.066-.748-.405-1.552-1.05-.806-.646-1.415-1.222-1.363-1.288.052-.065.748.405 1.552 1.051.805.645 1.415 1.222 1.363 1.287Z" opacity=".95"/></g><path fill="#fff" d="m38.156 15.236-4.053-3.169.009-.052C34.5 9.58 37.539 7.444 39.55 6.03c.347-.244.674-.474.95-.679 1.847-1.371 1.794-3.839 1.682-4.018l.121-.13 4.428 3.346-.012.056c-.712 3.4-3.176 5.803-5.07 6.827-1.768.957-3.424 3.689-3.44 3.717l-.053.087Zm-3.858-3.245 3.81 2.978c.302-.486 1.804-2.801 3.455-3.695 1.85-1.001 4.253-3.34 4.968-6.65l-4.134-3.125c.018.2.004.435 0 .503-.036.535-.271 2.366-1.79 3.494-.277.206-.606.437-.953.681-1.972 1.386-4.944 3.475-5.356 5.814Z" opacity=".5"/></g><g opacity=".95"><path fill="#598D3F" d="M42 75.52s.371 3.136 3.945 4.429c2.212.8 6.26 2.952 5.903 4.715l-3.222 4.082s-2.203-2.228-5.242-3.17c-2.988-.927-5.663-5.022-5.663-5.022L42 75.52Z" opacity=".95"/><g opacity=".95"><path fill="#fff" d="M42.685 84.12c-1.086-1.303-.547-3.072.576-3.716 1.124-.644 2.85.26 3.493 1.384a2.348 2.348 0 0 1-.87 3.203c-1.124.644-2.37.124-3.2-.871Z" opacity=".4"/><path fill="#598D3F" d="M43.07 83.207c.033-.022.112.038.235.15.124.108.293.274.523.402.112.061.245.11.38.124.132.014.273-.013.355-.08.094-.069.16-.2.153-.314 0-.104-.08-.236-.23-.389-.072-.076-.156-.156-.239-.251a1.3 1.3 0 0 1-.229-.348.9.9 0 0 1-.06-.226.726.726 0 0 1 .008-.243.782.782 0 0 1 .215-.394.813.813 0 0 1 .729-.225c.226.039.398.142.534.246.137.109.231.223.307.327.074.103.127.198.165.275.077.158.099.254.068.276-.031.023-.115-.032-.24-.145-.127-.107-.296-.281-.521-.406a.9.9 0 0 0-.37-.114c-.13-.005-.226.032-.3.12a.272.272 0 0 0-.062.138.208.208 0 0 0 .002.071.35.35 0 0 0 .027.082c.05.117.2.257.371.433.085.09.174.19.248.32.036.064.067.135.09.21a.8.8 0 0 1 .033.238.893.893 0 0 1-.41.744.942.942 0 0 1-.726.11 1.311 1.311 0 0 1-.52-.251 1.75 1.75 0 0 1-.475-.601c-.076-.16-.093-.258-.061-.28Z" opacity=".95"/><path fill="#598D3F" d="M43.575 84.533c-.06-.048.413-.754 1.058-1.576.645-.823 1.216-1.452 1.276-1.405.06.048-.412.753-1.057 1.577-.644.823-1.216 1.451-1.276 1.404Zm-.272-.338c-.061-.047.364-.691.95-1.438.585-.747 1.109-1.313 1.17-1.266.06.047-.366.692-.951 1.438-.585.747-1.109 1.314-1.17 1.266Z" opacity=".95"/></g><path fill="#fff" d="m48.533 88.051 2.917-3.724-.02-.045c-.884-2.087-4.068-3.321-6.175-4.138-.363-.14-.706-.274-.997-.396-1.952-.815-2.45-3.029-2.389-3.213l-.137-.09-3.212 3.966.022.047c1.387 2.877 4.117 4.476 6.033 4.972 1.79.463 3.871 2.534 3.892 2.555l.066.066Zm2.726-3.749-2.741 3.5c-.378-.366-2.23-2.1-3.901-2.532-1.872-.485-4.534-2.04-5.903-4.836l3-3.704c.028.182.092.39.11.449.15.47.765 2.052 2.37 2.723.293.122.637.255 1.001.397 2.066.8 5.18 2.007 6.064 4.003Z" opacity=".5"/></g></g><defs><clipPath id="a"><path fill="#fff" d="M0 0h178.072v120H0z" transform="translate(.965)"/></clipPath></defs></svg>