<svg xmlns="http://www.w3.org/2000/svg" xmlns:xlink="http://www.w3.org/1999/xlink" xml:space="preserve" id="Layer_1" x="0" y="0" version="1.1" viewBox="0 0 1080 1080"><style>.st0{fill:#fff}.st3{opacity:.15}.st5{fill:#233a4f}.st6{fill:#260e43}.st7{fill:#46739d}.st9{fill:#7daeda}.st10{opacity:.2}.st11{fill:#f6f5f7}.st12{fill:#f3c70d}.st14{opacity:.35}.st19{fill:#e9ad03}.st20{opacity:.45}.st21{fill:#fbfce6}.st26{opacity:.5}.st27{fill:#172734}.st28{opacity:.25}.st29{fill:#bab2cc}.st30{opacity:.6}.st31{fill:#2f4d69}.st33{fill:#b1cee9}.st34{fill:#e5eff8}.st42{fill:#020000}</style><path d="M540 1065c-70.864 0-139.62-13.885-204.361-41.268-62.52-26.443-118.663-64.294-166.87-112.5-48.207-48.208-86.058-104.351-112.502-166.87C28.884 679.621 15 610.862 15 540c0-70.864 13.884-139.62 41.267-204.361 26.444-62.52 64.295-118.663 112.502-166.87 48.207-48.207 104.35-86.058 166.87-112.502C400.379 28.884 469.136 15 540 15c70.863 0 139.621 13.884 204.361 41.267 62.52 26.444 118.663 64.295 166.87 112.502 48.207 48.207 86.058 104.35 112.501 166.87C1051.115 400.379 1065 469.136 1065 540c0 70.863-13.885 139.621-41.268 204.361-26.443 62.52-64.294 118.663-112.5 166.87s-104.351 86.058-166.87 112.501C679.621 1051.115 610.862 1065 540 1065zm0-1000c-64.136 0-126.34 12.556-184.884 37.318-56.56 23.922-107.36 58.175-150.992 101.806s-77.884 94.433-101.806 150.992C77.556 413.66 65 475.864 65 540s12.556 126.34 37.318 184.884c23.922 56.56 58.175 107.36 101.806 150.992 43.631 43.63 94.433 77.884 150.992 101.807C413.66 1002.444 475.864 1015 540 1015s126.34-12.556 184.884-37.317c56.56-23.923 107.36-58.176 150.992-101.807 43.63-43.632 77.884-94.433 101.807-150.992C1002.444 666.34 1015 604.136 1015 540s-12.556-126.34-37.317-184.884c-23.923-56.56-58.176-107.36-101.807-150.992-43.632-43.631-94.433-77.884-150.992-101.806C666.34 77.556 604.136 65 540 65z" class="st0"/><circle cx="540" cy="540" r="500" fill="#625da4"/><path d="M709.938 576.984c-.614 8.351-3.121 16.787-7.917 25.186H378.793c-4.797-8.4-7.315-16.835-7.93-25.186-1.482-20.017 7.99-39.587 23.306-57.423 11.822-13.774 27.139-26.511 43.612-37.586a313.237 313.237 0 0 1 23.44-14.305c30.307-16.762 60.82-27.403 78.27-28.5h1.832c17.45 1.097 47.95 11.738 78.258 28.5 12.798 7.074 25.56 15.233 37.285 24.235 10.34 7.93 19.884 16.51 27.946 25.548 16.39 18.39 26.669 38.73 25.126 59.53z" class="st0"/><path fill="#371a45" d="M378.478 614.695c13.557 23.676 10.252 45.786-1.126 58.273" class="st3"/><path d="M540.538 747.72C557.085 775.317 561 797.83 561 797.83v29h90c-1-14 2-25 2-25 94-103 27-288 27-288-151 60-280 0-280 0s-67 185 27 288c0 0 3 11 2 25h90v-29s4-23 21-51l.538.89z" class="st0"/><ellipse cx="605.729" cy="827.83" class="st5" rx="45.35" ry="16.68"/><ellipse cx="474.339" cy="827.83" class="st5" rx="45.35" ry="16.68"/><ellipse cx="540.089" cy="472.686" class="st6" rx="130.75" ry="29.28"/><path d="M677.213 514.83s4-19-7-45c0 3-2 30-130 30h-.29c-128 0-130-27-130-30-11 26-7 45-7 45s126 59 274.29 0z" class="st7"/><defs><path id="SVGID_1_" d="M540.538 747.72C557.085 775.317 561 797.83 561 797.83v29h90c-1-14 2-25 2-25 94-103 27-288 27-288-151 60-280 0-280 0s-67 185 27 288c0 0 3 11 2 25h90v-29s4-23 21-51l.538.89z"/></defs><clipPath id="SVGID_00000001642941252816123800000004154885539697405063_"><use xlink:href="#SVGID_1_" overflow="visible"/></clipPath><g clip-path="url(#SVGID_00000001642941252816123800000004154885539697405063_)"><path d="m375.806 654.766-17.826-22.871 8.913 11.435-8.933-11.42c.587-.46 58.803-46.885 69.656-117.532l28.661 4.403c-12.64 82.28-77.707 133.83-80.47 135.985zm328.424 0c-2.764-2.155-67.83-53.704-80.471-135.985l28.66-4.403c10.854 70.647 69.07 117.072 69.657 117.532l-17.847 22.856zM532.827 786.587c-24.263 0-48.229-2.306-71.629-6.904-62.907-12.364-99.9-36.986-101.444-38.028l16.222-24.035-8.11 12.018 8.083-12.036c11.757 7.857 46.172 25.054 92.263 33.904 33.717 6.473 68.744 7.786 104.119 3.905 44.307-4.864 89.335-17.95 133.834-38.891l12.348 26.236c-47.757 22.475-96.23 36.47-144.076 41.594a390.69 390.69 0 0 1-41.61 2.237z" class="st9"/><path d="M532.827 710.587c-24.263 0-48.229-2.306-71.629-6.904-62.907-12.364-99.9-36.986-101.444-38.028l16.222-24.035-8.11 12.018 8.083-12.036c11.757 7.857 46.172 25.054 92.263 33.904 33.717 6.473 68.744 7.785 104.119 3.905 44.307-4.864 89.335-17.95 133.834-38.891l12.348 26.236c-47.757 22.475-96.23 36.47-144.076 41.594a390.69 390.69 0 0 1-41.61 2.237z" class="st9"/><path d="M502.568 707.211a6.193 6.193 0 0 0 6.192 6.193h62.615a6.193 6.193 0 0 0 6.193-6.193V683.13a6.193 6.193 0 0 0-6.193-6.193H508.76a6.193 6.193 0 0 0-6.192 6.193v24.082z" class="st7"/><path d="M513.233 685.193h53.669v6.881h-53.669zm0 12.385h53.669v6.881h-53.669z" class="st0"/></g><ellipse cx="540.089" cy="472.686" class="st6" rx="130.75" ry="29.28"/><path d="M677.213 514.83s4-19-7-45c0 3-2 30-130 30h-.29c-128 0-130-27-130-30-11 26-7 45-7 45s126 59 274.29 0z" class="st7"/><g class="st10"><path d="M668.096 255.502c2.485 39.154-134.485-62.645-88.238-65.58 46.247-2.936 85.752 26.426 88.238 65.58z" class="st11"/></g><circle cx="719.87" cy="295.402" r="60" class="st7"/><circle cx="753.463" cy="309.052" r="11" class="st12"/><circle cx="751.468" cy="277.615" r="11" class="st12"/><circle cx="359.434" cy="318.279" r="60" class="st7"/><circle cx="327.835" cy="336.067" r="11" class="st12"/><circle cx="325.84" cy="304.63" r="11" class="st12"/><ellipse cx="540" cy="312.33" class="st6" rx="194.5" ry="182.5" transform="rotate(-3.633 540.014 312.36)"/><path d="M734.11 300.01c-6.385-100.59-98.466-176.618-205.67-169.814S339.506 224.06 345.89 324.65c6.385 100.59 98.466 176.618 205.67 169.813S740.494 400.6 734.11 300.01zM548.484 446.02c-130.45 8.28-169.652-52.28-174.568-129.743-4.916-77.461 65.27-144.964 156.764-150.771 91.495-5.807 169.652 52.28 174.569 129.742 4.916 77.463-26.315 142.493-156.765 150.773z" class="st0"/><path fill="#d4cfd9" d="M548.485 446.021c-130.45 8.28-169.652-52.28-174.568-129.743 10.037 31.848 68.584 133.344 174.568 129.743z" class="st10"/><g class="st10"><path d="M668.096 255.502c2.485 39.154-134.485-62.645-88.238-65.58 46.247-2.936 85.752 26.426 88.238 65.58z" class="st11"/></g><path d="M553.994 562.812a18.07 18.07 0 0 0-13.795 6.378 11.051 11.051 0 0 0-8.506-3.983c-6.117 0-11.075 4.959-11.075 11.076 0 .1.004.2.007.3a10.985 10.985 0 0 0-1.804-.15c-6.034 0-10.926 4.891-10.926 10.925l21.845.3h7.439c2.673 6.666 9.194 11.375 16.815 11.375 10.002 0 18.11-8.108 18.11-18.11s-8.108-18.11-18.11-18.11z" class="st7"/><path d="M553.994 601.278c-7.848 0-14.863-4.417-18.272-11.375h-5.982l-21.875-.3-2.215-.03v-2.215c0-7.167 5.755-13.015 12.887-13.168 1.007-6.354 6.523-11.228 13.156-11.228 3.121 0 6.098 1.084 8.463 3.033a20.324 20.324 0 0 1 13.838-5.428c11.224 0 20.356 9.132 20.356 20.356s-9.132 20.355-20.356 20.355zm-24.254-15.865h8.957l.566 1.41a15.798 15.798 0 0 0 14.731 9.965c8.748 0 15.865-7.117 15.865-15.865s-7.117-15.865-15.865-15.865a15.848 15.848 0 0 0-12.085 5.588l-1.726 2.028-1.707-2.045a8.816 8.816 0 0 0-6.783-3.177c-4.869 0-8.83 3.962-8.83 8.831l.073 2.96-2.68-.445c-.478-.08-.96-.12-1.435-.12-4.023 0-7.415 2.75-8.395 6.47l18.406.252c.24.003.562.008.908.05v-.037z" class="st7"/><path d="M576.223 594.377c8.4 19.156.386 41.742-18.532 51.207-19.528 9.77-43.279 1.86-53.05-17.667-5.448-10.89-5.398-23.094-.901-33.454" class="st7"/><path d="M540.067 651.405c-15.114.001-29.688-8.34-36.898-22.752a41.105 41.105 0 0 1-.939-34.845l3.02 1.31a37.824 37.824 0 0 0 .864 32.063c9.349 18.684 32.157 26.28 50.841 16.93 18.063-9.037 25.864-30.592 17.76-49.073l3.015-1.322c8.81 20.088.33 43.517-19.302 53.34a40.957 40.957 0 0 1-18.361 4.35z" class="st7"/><path d="M581 589.252c0-3.046-3.215-5.539-7.144-5.539h-67.712c-3.93 0-7.144 2.493-7.144 5.539s3.215 5.538 7.144 5.538h67.712c3.93 0 7.144-2.493 7.144-5.538z" class="st7"/><path d="M573.856 596.437h-67.712c-4.847 0-8.79-3.223-8.79-7.185s3.943-7.185 8.79-7.185h67.712c4.847 0 8.79 3.223 8.79 7.185s-3.943 7.185-8.79 7.185zm-67.712-11.077c-2.98 0-5.498 1.783-5.498 3.892s2.518 3.892 5.498 3.892h67.712c2.98 0 5.498-1.783 5.498-3.892s-2.518-3.892-5.498-3.892h-67.712z" class="st7"/><path fill="#e9ad02" d="M553.994 562.812a18.07 18.07 0 0 0-13.795 6.378 11.051 11.051 0 0 0-8.506-3.983c-6.117 0-11.075 4.959-11.075 11.076 0 .1.004.2.007.3a10.985 10.985 0 0 0-1.804-.15c-6.034 0-10.926 4.891-10.926 10.925l21.845.3h7.439c2.673 6.666 9.194 11.375 16.815 11.375 10.002 0 18.11-8.108 18.11-18.11s-8.108-18.11-18.11-18.11z"/><path d="M553.994 599.632c-7.555 0-14.267-4.45-17.216-11.375h-7.038l-21.853-.3-.59-.008v-.59c0-6.355 5.17-11.525 11.524-11.525.4 0 .802.021 1.204.063.204-6.26 5.36-11.289 11.668-11.289 3.239 0 6.3 1.332 8.505 3.68a18.683 18.683 0 0 1 13.796-6.074c10.317 0 18.71 8.392 18.71 18.709s-8.393 18.709-18.71 18.709zM529.74 587.06h7.843l.151.376a17.437 17.437 0 0 0 16.26 10.999c9.656 0 17.512-7.856 17.512-17.512s-7.856-17.512-17.512-17.512a17.492 17.492 0 0 0-13.339 6.167l-.46.541-.455-.545a10.458 10.458 0 0 0-8.047-3.768c-5.776 0-10.477 4.7-10.477 10.477l.025 1.009-.714-.118a10.388 10.388 0 0 0-1.706-.143c-5.496 0-10.003 4.317-10.31 9.738l17.824.244c1.877.025 2.874.039 3.405.107v-.06z" class="st19"/><path d="M553.994 562.812a18.07 18.07 0 0 0-13.795 6.378 11.051 11.051 0 0 0-8.506-3.983c-6.117 0-11.075 4.959-11.075 11.076 0 .1.004.2.007.3a10.985 10.985 0 0 0-1.804-.15c-6.034 0-10.926 4.891-10.926 10.925l21.845.3h7.439c2.673 6.666 9.194 11.375 16.815 11.375 10.002 0 18.11-8.108 18.11-18.11s-8.108-18.11-18.11-18.11z" class="st12"/><g class="st20"><path d="M542.133 570.219c.959-1.172 2.123-2.181 3.402-3.027a15.978 15.978 0 0 1 4.203-1.883 14.8 14.8 0 0 1 4.6-.57c1.556.008 3.103.31 4.585.78a15.664 15.664 0 0 1 7.517 5.28c.934 1.231 1.722 2.57 2.28 4.001.511 1.447.857 2.943.945 4.455-.604-2.961-1.898-5.73-3.847-7.944a16.09 16.09 0 0 0-3.297-2.888 14.662 14.662 0 0 0-3.925-1.91c-1.382-.457-2.83-.746-4.293-.786-1.462-.106-2.93.06-4.369.36-2.873.64-5.573 2.092-7.8 4.132z" class="st19"/></g><g class="st20"><path d="M524.256 571.78c.85-1.873 2.486-3.444 4.49-4.22a8.783 8.783 0 0 1 6.33-.01c2.022.786 3.734 2.33 4.687 4.256.955 1.922 1.128 4.185.496 6.143a9.458 9.458 0 0 0-1.215-5.754c-1.006-1.67-2.549-2.985-4.345-3.667-1.785-.713-3.82-.76-5.682-.2a9.399 9.399 0 0 0-4.761 3.452z" class="st19"/></g><g class="st20"><path d="M515.768 578.594c1.44-.915 3.362-1.004 5.007-.413.824.305 1.59.766 2.21 1.379a5.166 5.166 0 0 1 1.37 2.147c-1.229-1.15-2.488-2.034-3.936-2.542-.711-.276-1.464-.425-2.236-.526-.776-.093-1.57-.091-2.415-.045z" class="st19"/></g><path d="m546.283 572.12-1.064.582-.582 1.064-.582-1.064-1.064-.582 1.064-.582.582-1.065.582 1.065z" class="st21"/><path d="m529.677 578.119-1.064.582-.582 1.064-.582-1.064-1.065-.582 1.065-.582.582-1.064.582 1.064z" class="st21" opacity=".8"/><path d="m566.347 579.915-1.065.582-.582 1.064-.582-1.064-1.064-.582 1.064-.582.582-1.064.582 1.064z" class="st21" opacity=".95"/><path d="M576.223 594.377c8.4 19.156.386 41.742-18.532 51.207-19.528 9.77-43.279 1.86-53.05-17.667-5.448-10.89-5.398-23.094-.901-33.454" class="st9"/><path d="M540.064 649.834c-14.537.001-28.554-8.022-35.49-21.884a39.538 39.538 0 0 1-.903-33.517l.138.06a39.389 39.389 0 0 0 .9 33.39c9.736 19.46 33.49 27.37 52.95 17.634 18.81-9.413 26.936-31.863 18.495-51.11l.137-.06c8.473 19.32.317 41.856-18.566 51.304a39.394 39.394 0 0 1-17.66 4.183z" class="st9"/><path fill="#5e83a3" d="M556.308 624.232c-19.352 7.764-41.334-1.63-49.099-20.983a37.894 37.894 0 0 1-2.035-6.982c-3.214 8.528-3.408 18.223.253 27.348 7.764 19.352 29.746 28.746 49.098 20.982 17.053-6.841 26.356-24.722 23.018-42.116-3.602 9.558-11.008 17.647-21.235 21.75z" class="st3"/><defs><path id="SVGID_00000079463750583997960080000016138166976302249877_" d="M571.676 586.554a39.776 39.776 0 0 1 3.682 5.98c9.77 19.528 1.861 43.28-17.667 53.05-19.528 9.77-43.279 1.86-53.05-17.667-6.916-13.824-4.972-29.765 3.681-41.364"/></defs><clipPath id="SVGID_00000144334745779514463940000005223781949444771717_"><use xlink:href="#SVGID_00000079463750583997960080000016138166976302249877_" overflow="visible"/></clipPath><g clip-path="url(#SVGID_00000144334745779514463940000005223781949444771717_)"><circle cx="540" cy="611.57" r="12.721" class="st7"/><g class="st26"><path d="M552.02 607.403a12.708 12.708 0 0 0-8.728-8.12 12.708 12.708 0 0 0-11.64 2.687c13.393-6.232 20.368 5.433 20.368 5.433z" class="st27"/></g><g class="st28"><path d="M527.71 614.862a12.716 12.716 0 0 0 8.998 8.996 12.718 12.718 0 0 0 12.527-3.536c-14.733 9.369-21.525-5.46-21.525-5.46z" class="st29"/></g><circle cx="509.751" cy="610.134" r="4.837" class="st7"/><g class="st26"><path d="M514.321 608.55a4.832 4.832 0 0 0-3.318-3.088 4.832 4.832 0 0 0-4.426 1.022c5.092-2.37 7.744 2.065 7.744 2.065z" class="st27"/></g><g class="st28"><path d="M505.078 611.385a4.835 4.835 0 0 0 3.421 3.42 4.836 4.836 0 0 0 4.763-1.344c-5.601 3.562-8.184-2.076-8.184-2.076z" class="st29"/></g><circle cx="552.713" cy="626.526" r="2.301" class="st7"/><g class="st26"><path d="M554.887 625.773a2.298 2.298 0 0 0-3.683-.983c2.422-1.127 3.683.983 3.683.983z" class="st27"/></g><g class="st28"><path d="M550.49 627.122a2.3 2.3 0 0 0 3.894.987c-2.665 1.695-3.893-.987-3.893-.987z" class="st29"/></g><circle cx="561.577" cy="601.218" r="2.679" class="st7"/><g class="st26"><path d="M564.108 600.34a2.676 2.676 0 0 0-1.838-1.71 2.676 2.676 0 0 0-2.45.567c2.82-1.313 4.288 1.144 4.288 1.144z" class="st27"/></g><g class="st28"><path d="M558.99 601.912a2.677 2.677 0 0 0 4.532 1.15c-3.103 1.972-4.533-1.15-4.533-1.15z" class="st29"/></g><circle cx="552.249" cy="636.863" r="1.115" class="st7"/><g class="st26"><path d="M553.303 636.498a1.114 1.114 0 0 0-1.786-.477c1.174-.546 1.786.477 1.786.477z" class="st27"/></g><g class="st28"><path d="M551.171 637.152a1.115 1.115 0 0 0 1.887.479c-1.291.821-1.887-.48-1.887-.48z" class="st29"/></g><circle cx="569.016" cy="614.257" r="1.115" class="st7"/><g class="st26"><path d="M570.07 613.891a1.114 1.114 0 0 0-1.786-.476c1.174-.547 1.786.476 1.786.476z" class="st27"/></g><g class="st28"><path d="M567.938 614.545a1.115 1.115 0 0 0 1.888.48c-1.292.82-1.888-.48-1.888-.48z" class="st29"/></g><circle cx="520.102" cy="622.486" r="1.191" class="st7"/><g class="st26"><path d="M521.227 622.096a1.19 1.19 0 0 0-1.906-.509c1.253-.583 1.906.509 1.906.509z" class="st27"/></g><g class="st28"><path d="M518.952 622.794a1.19 1.19 0 0 0 2.014.51c-1.379.878-2.014-.51-2.014-.51z" class="st29"/></g><circle cx="506.537" cy="631.579" r="4.698" class="st7"/><g class="st26"><path d="M510.976 630.04a4.693 4.693 0 0 0-3.223-2.999 4.693 4.693 0 0 0-4.3.993c4.947-2.302 7.523 2.006 7.523 2.006z" class="st27"/></g><g class="st28"><path d="M501.998 632.795a4.696 4.696 0 0 0 3.323 3.322 4.697 4.697 0 0 0 4.627-1.306c-5.441 3.46-7.95-2.016-7.95-2.016z" class="st29"/></g><circle cx="531.126" cy="635.269" r="6.623" class="st7"/><g class="st26"><path d="M537.385 633.1a6.616 6.616 0 0 0-4.544-4.229 6.616 6.616 0 0 0-6.061 1.4c6.973-3.246 10.605 2.828 10.605 2.828z" class="st27"/></g><g class="st28"><path d="M524.728 636.983a6.62 6.62 0 0 0 4.684 4.683 6.622 6.622 0 0 0 6.523-1.84c-7.671 4.877-11.207-2.843-11.207-2.843z" class="st29"/></g><circle cx="570.742" cy="626.692" r="7.159" class="st7"/><g class="st26"><path d="M577.507 624.347a7.152 7.152 0 0 0-4.912-4.57 7.152 7.152 0 0 0-6.552 1.512c7.538-3.508 11.464 3.058 11.464 3.058z" class="st27"/></g><g class="st28"><path d="M563.825 628.545a7.157 7.157 0 0 0 5.064 5.063 7.158 7.158 0 0 0 7.05-1.99c-8.292 5.273-12.114-3.073-12.114-3.073z" class="st29"/></g></g><g class="st30"><path d="M578.394 590.286c0-2.816-3.004-5.12-6.674-5.12h-64.057c-3.67 0-6.673 2.304-6.673 5.12 0 2.816 3.003 5.12 6.673 5.12h64.057c3.67 0 6.674-2.304 6.674-5.12z" class="st31"/></g><path d="M581 589.252c0-3.046-3.215-5.539-7.144-5.539h-67.712c-3.93 0-7.144 2.493-7.144 5.539s3.215 5.538 7.144 5.538h67.712c3.93 0 7.144-2.493 7.144-5.538z" class="st9"/><g opacity=".1"><path d="M506.695 586.142h42.711" class="st33"/><path d="M549.405 586.759h-42.71a.617.617 0 0 1 0-1.235h42.71a.617.617 0 0 1 0 1.235z" class="st34"/></g><g class="st3"><path d="M552.49 586.142h3.083" class="st33"/><path d="M555.573 586.693h-3.084a.552.552 0 0 1 0-1.103h3.084a.552.552 0 0 1 0 1.103z" class="st34"/></g><g class="st10"><path d="M558.734 586.142h13.389" class="st33"/><path d="M572.123 586.759h-13.389a.617.617 0 0 1 0-1.235h13.389a.617.617 0 0 1 0 1.235z" class="st34"/></g><path d="M506.244 555.834s1.803 9.336-3.01 12.995c-7.427 5.66-18.585-15.074-22.674-15.75" class="st0"/><path d="M507.517 553.607s3.092 8.992-1.162 13.289c-6.562 6.643-20.511-12.326-24.655-12.424" class="st0"/><path d="M754.952 621.45c49.85 113.676 2.29 247.703-109.97 303.87-115.881 57.98-256.824 11.042-314.804-104.84-32.335-64.625-32.039-137.044-5.351-198.522" class="st9"/><path d="M540.227 950.688c-24.995 0-50.097-4.036-74.502-12.164-59.573-19.84-107.853-61.69-135.949-117.842-31.205-62.37-33.159-134.866-5.36-198.903l.823.358c-27.693 63.792-25.746 136.012 5.34 198.142 27.988 55.939 76.085 97.63 135.43 117.394 24.308 8.096 49.322 12.115 74.217 12.116 35.882.002 71.53-8.346 104.555-24.87 111.633-55.855 159.846-189.075 109.76-303.288l.822-.361c50.278 114.652 1.881 248.383-110.18 304.453-33.149 16.585-68.94 24.965-104.956 24.965z" class="st9"/><g class="st3"><path d="M636.773 798.612C521.934 844.685 391.49 788.94 345.415 674.1c-5.475-13.645-9.409-27.517-12.08-41.435-19.072 50.609-20.224 108.138 1.5 162.288 46.074 114.84 176.52 170.585 291.36 124.512 101.194-40.6 156.402-146.707 136.591-249.926-21.376 56.721-65.323 104.724-126.013 129.073z" class="st7"/></g><path d="M599.078 676.49c.093.117.188.231.28.348-.092-.117-.187-.231-.28-.348zm-10.105-10.472zm7.862 7.774c.127.146.252.295.378.443-.126-.148-.25-.297-.378-.443zm-4.923-5.138.107.105-.107-.105zm2.327 2.316c.155.162.312.322.466.484-.154-.162-.31-.322-.466-.483zm-31.369-19.424c.231.073.464.146.695.222a51.33 51.33 0 0 0-.696-.222zm3.852 1.33c.177.067.352.139.528.207-.176-.068-.35-.14-.528-.207zm19.387 10.817c.128.099.258.195.386.295-.128-.1-.258-.196-.386-.295zm-16.035-9.456c.163.07.329.138.491.21-.162-.072-.328-.14-.491-.21zm-14.631-4.645c.24.05.48.104.72.156-.24-.052-.48-.106-.72-.156zm45.816 29.784zM583.268 661.6l.46.33-.46-.33zM580 659.445c.195.123.392.244.587.368-.195-.124-.392-.245-.588-.368zm-6.454-3.6zm3.584 1.887.076.044-.076-.044zm28.037 27.663c.111.19.224.38.333.57-.11-.191-.221-.38-.333-.57zM581.05 786.82c-.21.137-.423.268-.635.402.212-.134.425-.265.636-.402zm-9.307 5.137c-.248.115-.495.23-.744.343.249-.112.496-.228.744-.343zm2.977-1.455c-.186.096-.375.187-.562.282.187-.095.376-.186.561-.282zm3.444-1.907c-.216.126-.43.255-.647.38.217-.125.431-.254.647-.38zm-10.11 4.965c-.129.052-.26.099-.39.15.13-.051.261-.098.39-.15zm-13.735 4.044c-.136.026-.271.057-.408.083.137-.026.272-.057.408-.083zm-3.605.608c-.274.04-.55.074-.826.111.276-.036.552-.072.826-.111zm7.252-1.412zm7.028-2.096zm43.568-102.8c.057.124.118.246.174.37-.057-.124-.117-.246-.174-.37zm-1.554-3.178c.092.178.18.357.271.536-.09-.178-.179-.358-.271-.536zm-55.407-39.837c.184.029.367.054.55.084-.183-.03-.366-.055-.55-.084zm32.598 135.774c-.17.122-.337.249-.508.37.17-.121.338-.248.508-.37zm25.786-89.47zm-22.988 87.354c-.215.17-.432.337-.649.505.217-.168.434-.335.649-.505zm2.782-2.32c-.105.09-.206.186-.31.276.104-.09.205-.185.31-.276zm2.731-2.516zm10.95-95.111c.04.061.078.125.117.186-.04-.061-.076-.124-.116-.186zm-120.22 90.645c-.088-.1-.18-.199-.267-.3.088.101.18.2.268.3zm5.026 5.215c-.084-.079-.171-.155-.255-.235.084.08.17.156.255.235zm-2.532-2.504c-.187-.193-.37-.389-.555-.583.184.194.368.39.555.583zm5.329 5.009zm56.973-132.553c.182.02.365.045.548.066-.183-.021-.366-.046-.548-.066zm-54.232 134.785c-.077-.06-.158-.118-.236-.179.078.06.158.118.236.179zm-17.106-18.609c-.143-.22-.283-.443-.424-.665.14.222.28.445.424.665zm4.24 5.895c-.166-.21-.33-.42-.494-.631.164.21.327.422.494.63zm-7.893-12.159c-.121-.232-.238-.465-.356-.698.118.233.235.466.356.698zm5.702 9.262c-.087-.121-.178-.24-.264-.36.086.12.177.239.264.36zm38.4 27.827zm-3.965-1.369-.09-.032c.03.01.06.02.09.032zm-3.218-1.312zm14.751 4.66zm-24.895-9.991c-.066-.042-.134-.08-.2-.123.066.042.134.081.2.123zm-2.926-1.94zm9.394 5.57-.151-.073.151.073zm-3.084-1.631zm-28.39-27.87c-.08-.14-.165-.276-.246-.415.08.14.165.276.246.414zm43.795-110.45c.222-.066.446-.13.67-.193-.224.064-.448.127-.67.193zm7.006-1.716c.228-.044.456-.09.685-.132-.229.043-.457.088-.685.132zm-13.738 4.059c.164-.066.33-.127.494-.192-.164.065-.33.126-.493.192zm17.576-4.709c.178-.025.357-.045.535-.069-.178.024-.357.044-.535.07zm-14.364 3.506c.168-.06.335-.122.503-.18-.168.058-.335.12-.503.18zm-43.614 102.906c-.073-.157-.149-.31-.22-.468.071.157.147.311.22.468zm61.435-106.815c.18-.017.36-.037.54-.053-.18.016-.36.036-.54.053zm3.757-.261zm7.375.042c.239.013.477.025.716.04-.239-.015-.477-.027-.716-.04zm-51.082 16.351c.18-.144.362-.289.544-.431-.182.142-.363.287-.545.431zm-24.204 83.981c-.062-.175-.127-.348-.187-.523.06.175.125.348.187.523zm-1.155-3.562c-.073-.245-.141-.492-.211-.738.07.246.138.493.211.738zm2.402 6.87c-.097-.24-.19-.481-.285-.722.095.241.188.482.285.722zm31.994-93.471c.2-.116.4-.23.602-.345-.201.115-.402.229-.602.345zm6.348-3.307c.21-.096.418-.194.629-.288-.21.094-.42.192-.629.288zm-9.482 5.238c.147-.096.293-.195.441-.29-.148.095-.293.194-.441.29zm-2.833 1.928c.144-.103.29-.202.434-.304-.144.102-.29.2-.433.303z" class="st7"/><path d="M594.802 775.412c8.38-8.828 14.741-19.813 18.113-32.398 4.064-15.167 3.203-30.492-1.596-44.283-.455-.757-41.819-69.003-120.858-32.222l.004-.004c-10.982 9.531-19.333 22.331-23.38 37.435a75.11 75.11 0 0 0 .038 39.183c1.55 3.293 41.965 86.795 127.679 32.29zm-62.5 23.158c-.285-.029-.57-.057-.856-.09.286.033.57.061.856.09zm-4.188-.544c-.144-.023-.287-.052-.431-.076.144.024.287.053.43.076z" class="st7"/><path d="M547.179 798.633c-.214.02-.426.045-.64.064.214-.019.426-.044.64-.064zm-11.441.222c-.216-.013-.433-.032-.65-.047.217.015.434.034.65.047zm7.551.052c-.256.01-.513.016-.77.024.257-.008.514-.013.77-.024zm-3.479.065c-.259-.001-.517.001-.775-.002.258.003.516 0 .774.002zm71.509-100.242.01.018a75.73 75.73 0 0 0-1.344-3.555 75.801 75.801 0 0 0-1.25-2.92c-.055-.123-.116-.245-.173-.369-.41-.89-.839-1.77-1.283-2.642-.09-.179-.179-.358-.271-.536a76.001 76.001 0 0 0-1.508-2.761c-.11-.191-.221-.38-.333-.57a75.84 75.84 0 0 0-1.59-2.609c-.04-.061-.076-.125-.116-.186a75.952 75.952 0 0 0-2.202-3.224 75.781 75.781 0 0 0-1.901-2.538c-.092-.117-.187-.231-.28-.348a75.82 75.82 0 0 0-1.865-2.255c-.126-.148-.25-.297-.378-.443a75.49 75.49 0 0 0-2.13-2.338c-.154-.162-.31-.322-.466-.483a75.352 75.352 0 0 0-2.22-2.212l-.107-.105a75.333 75.333 0 0 0-2.406-2.175 75.035 75.035 0 0 0-3.011-2.49c-.128-.1-.258-.197-.386-.296a75.057 75.057 0 0 0-2.38-1.762c-.154-.11-.306-.222-.461-.33a74.948 74.948 0 0 0-2.681-1.788c-.195-.124-.392-.245-.588-.368a74.908 74.908 0 0 0-2.793-1.669c-.026-.014-.05-.03-.077-.044a75.098 75.098 0 0 0-2.943-1.565 75.237 75.237 0 0 0-3.62-1.72c-.163-.072-.329-.14-.492-.21a75.529 75.529 0 0 0-2.824-1.154c-.176-.068-.35-.14-.528-.207a75.991 75.991 0 0 0-3.157-1.108c-.231-.076-.464-.149-.696-.222a76.586 76.586 0 0 0-3.332-.984 76.666 76.666 0 0 0-3.375-.814c-.24-.052-.48-.106-.719-.156a75.987 75.987 0 0 0-3.291-.62c-.184-.03-.367-.054-.55-.083a75.455 75.455 0 0 0-3.018-.411c-.183-.021-.366-.046-.548-.066a75.082 75.082 0 0 0-3.278-.28c-.239-.015-.477-.027-.716-.04a74.933 74.933 0 0 0-6.669-.068c-.235.008-.471.016-.706.026a74.904 74.904 0 0 0-3.217.208c-.18.016-.36.036-.54.053a74.58 74.58 0 0 0-2.922.334c-.178.024-.357.044-.535.07-1.056.15-2.107.324-3.153.517-.229.043-.457.088-.685.132a75.306 75.306 0 0 0-6.337 1.523c-.223.064-.447.127-.67.193-1.012.3-2.018.619-3.016.96-.169.058-.335.12-.503.18-.913.32-1.819.657-2.718 1.01-.164.066-.33.127-.494.193-.977.393-1.944.81-2.904 1.243-.21.094-.419.192-.628.288a75.909 75.909 0 0 0-5.746 2.962c-.201.115-.402.229-.602.345a75.906 75.906 0 0 0-2.693 1.642c-.148.094-.294.193-.441.289a75.85 75.85 0 0 0-2.399 1.624c-.144.102-.29.2-.433.303a75.847 75.847 0 0 0-2.527 1.893c-.182.142-.363.287-.545.431a75.619 75.619 0 0 0-2.494 2.062l-.004.004c79.04-36.781 120.403 31.465 120.858 32.222z" class="st7"/><path d="M528.114 798.026c1.112.179 2.222.326 3.332.454.286.033.57.061.856.09.93.097 1.859.177 2.787.238.216.015.433.034.649.047a75 75 0 0 0 3.297.115c.258.003.516 0 .774.002.906.002 1.81-.01 2.71-.04.257-.01.514-.014.77-.025a74.855 74.855 0 0 0 3.25-.21c.214-.019.426-.044.64-.064a74.94 74.94 0 0 0 2.71-.31c.275-.037.55-.072.825-.111a75.126 75.126 0 0 0 3.197-.525c.137-.026.272-.057.408-.083a75.033 75.033 0 0 0 3.647-.803 75.482 75.482 0 0 0 9.699-3.091c.13-.051.26-.098.39-.15.99-.398 1.971-.82 2.944-1.26.249-.112.496-.228.744-.343a75.93 75.93 0 0 0 2.415-1.173c.187-.095.376-.186.562-.282.943-.49 1.875-1 2.797-1.528.217-.124.431-.253.647-.38a75.9 75.9 0 0 0 2.251-1.372c.212-.134.425-.265.636-.402a75.928 75.928 0 0 0 2.64-1.787c.17-.121.338-.248.508-.37a75.824 75.824 0 0 0 2.15-1.61c.216-.169.433-.336.648-.506a75.673 75.673 0 0 0 2.471-2.044c.105-.09.207-.185.31-.276a75.61 75.61 0 0 0 2.733-2.516 75.304 75.304 0 0 0 2.29-2.299c-85.713 54.506-126.127-28.996-127.678-32.289l-.052-.111c.1.373.213.741.319 1.112.07.246.138.493.211.738.302 1.02.623 2.034.968 3.039.06.175.125.348.187.523.305.868.626 1.73.962 2.586.095.241.188.483.285.722.398.984.813 1.96 1.252 2.926.071.157.147.311.22.468.389.84.794 1.674 1.214 2.5.118.233.235.466.356.698.49.94.995 1.872 1.523 2.79.08.14.165.277.246.415.472.808.959 1.605 1.46 2.394.14.222.28.445.424.665.578.89 1.17 1.772 1.785 2.638.086.12.177.239.264.36a75.9 75.9 0 0 0 1.697 2.266c.164.21.328.422.494.63a75.8 75.8 0 0 0 2.035 2.462c.088.102.18.2.268.301.631.722 1.279 1.43 1.938 2.127a75.43 75.43 0 0 0 2.832 2.853c.084.08.17.156.255.235a75.286 75.286 0 0 0 2.797 2.505c.82.7 1.653 1.387 2.506 2.053.077.06.158.118.235.179a74.961 74.961 0 0 0 3.09 2.264 74.57 74.57 0 0 0 2.726 1.817c.066.042.134.081.2.123a74.95 74.95 0 0 0 3.384 1.998c.965.538 1.94 1.062 2.933 1.56.05.024.101.047.151.072a75.199 75.199 0 0 0 3.676 1.701c1.031.446 2.07.878 3.129 1.28a76.185 76.185 0 0 0 4.054 1.401 76.61 76.61 0 0 0 3.316.979 76.643 76.643 0 0 0 4.252 1c.99.205 1.979.393 2.968.558.144.024.287.053.43.076zM366.388 743.04zm-1.737.314zm3.863-.838zm14.243-45.675zm-16.474-9.997zm1.643.385zm-7.162-.984zm2.137.111zm1.719.197zm9.993 3.401zm-1.443-.755zm-1.514-.686zm-1.623-.623zm-17.746-.44zm-4.931 1.986zm1.872-.873zm1.539-.608zm-4.788 2.243zm11.543-3.793zm-1.662.225zm20.546 4.434zm-17.261-4.784zm-5.33.754zm26.415 7.069zm-1.802 43.257zm-1.605 1.19zm2.934-2.324zm-4.535 3.354zm-3.41 1.742zm-1.674.661zm11.196-7.284a28.573 28.573 0 0 0 6.887-12.318 28.566 28.566 0 0 0-.607-16.838c-.171-.285-15.899-26.236-45.952-12.251a28.568 28.568 0 0 0-8.888 14.232 28.558 28.558 0 0 0 .015 14.898c.59 1.254 15.956 33 48.545 12.277zm-7.605 5.721zm7.605-5.721zm-36.705-43.655zm33.154.996zm3.885 3.54zm2.062 2.526zm-4.684-5.06zm5.576 6.357zm1.796 3.24zm.648 1.459zm-1.409-2.946zm-41.462 37.422zm-7.72-7.926zm11.063 9.913zm1.65.765zm1.688.655zm-10.946-7.015zm-4.446-5.955zm-.882-1.703zm18.467 15.364zm-14.402-9.095zm4.043 3.901zm-1.544-1.318zm4.503 3.361zm16.965 4.05zm-25.184-11.529zm-3.538-6.283zm-.672-1.835zm8.422-30.636zm1.616-1.293zm15.634 51.614zm1.772.04zm-5.845-.569zm1.872.313z" class="st7"/><path d="m387.614 705.543.004.007c-.02-.056-.043-.11-.063-.167a28.78 28.78 0 0 0-.49-1.281c-.064-.159-.133-.314-.201-.471a28.862 28.862 0 0 0-1.207-2.475c-.075-.136-.147-.274-.224-.409a29.57 29.57 0 0 0-.811-1.344c-.03-.047-.065-.093-.096-.14a28.796 28.796 0 0 0-.796-1.157c-.1-.138-.203-.272-.305-.407a28.755 28.755 0 0 0-1.02-1.284c-.24-.284-.486-.561-.737-.836-.108-.118-.213-.238-.323-.355a28.668 28.668 0 0 0-1.114-1.12c-.03-.029-.062-.055-.092-.083-.355-.334-.72-.658-1.093-.975-.13-.11-.262-.215-.394-.322a28.541 28.541 0 0 0-1.319-1.018c-.304-.22-.613-.433-.927-.642-.137-.091-.273-.185-.412-.275-.452-.29-.91-.57-1.38-.835l-.067-.035c-.45-.252-.91-.491-1.377-.72-.153-.075-.31-.146-.466-.219a28.69 28.69 0 0 0-1.583-.686 28.826 28.826 0 0 0-1.088-.405c-.165-.058-.328-.118-.495-.173a29.19 29.19 0 0 0-1.612-.487 29.08 29.08 0 0 0-1.643-.385c-.171-.036-.343-.065-.515-.097a28.844 28.844 0 0 0-1.722-.272 28.595 28.595 0 0 0-1.145-.12c-.17-.014-.34-.031-.51-.043a28.501 28.501 0 0 0-1.627-.067 29.067 29.067 0 0 0-1.619.034c-.167.008-.333.022-.5.032a28.447 28.447 0 0 0-1.677.157c-.37.046-.74.1-1.108.161-.163.027-.327.051-.49.08a28.6 28.6 0 0 0-1.555.325c-.514.123-1.023.265-1.528.416-.159.048-.315.1-.473.15a28.75 28.75 0 0 0-1.562.547c-.345.132-.686.271-1.024.416-.15.065-.303.127-.452.194-.48.215-.954.439-1.42.679-.467.24-.925.497-1.377.762-.142.083-.28.17-.42.256a28.977 28.977 0 0 0-1.386.9c-.303.208-.6.424-.895.645-.131.098-.264.194-.393.294-.416.323-.825.654-1.223.999 30.053-13.985 45.78 11.966 45.952 12.251zm-17.476 36.44c.152-.055.303-.113.455-.17.41-.154.817-.318 1.22-.491.132-.057.265-.112.397-.17.513-.23 1.02-.473 1.519-.732.092-.048.18-.1.272-.15a28.9 28.9 0 0 0 2.822-1.72c.085-.058.173-.114.258-.174a28.8 28.8 0 0 0 1.347-1.015c.113-.09.223-.185.335-.277a28.7 28.7 0 0 0 .994-.858c.122-.11.243-.219.363-.33.414-.388.822-.784 1.214-1.197-32.589 20.723-47.955-11.023-48.545-12.277l-.02-.042c.02.076.048.15.069.227.123.444.257.884.401 1.32.031.095.059.191.09.285.18.523.375 1.04.583 1.55.056.137.116.27.173.405a28.78 28.78 0 0 0 1.4 2.848c.042.076.081.154.124.23.275.477.565.946.866 1.407.083.126.169.248.253.373.233.345.474.686.722 1.021a28.784 28.784 0 0 0 1.217 1.535c.047.056.091.113.139.168a28.7 28.7 0 0 0 1.124 1.222c.108.111.22.219.33.328.295.295.598.583.907.865a28.603 28.603 0 0 0 1.544 1.317c.042.034.082.07.125.103.44.345.896.674 1.36.994.132.091.267.178.401.268.351.233.708.46 1.072.679.146.088.291.176.439.262.468.271.944.532 1.43.778.027.013.052.029.08.042.512.257 1.037.495 1.57.722.155.066.312.128.468.192.402.163.808.318 1.22.464.164.058.326.117.492.172a29.09 29.09 0 0 0 1.701.519c.59.158 1.18.29 1.77.408.169.035.338.065.507.096.455.084.91.156 1.365.217.151.02.302.044.453.061a28.65 28.65 0 0 0 1.748.155c.109.006.217.007.326.012a28.571 28.571 0 0 0 3.396-.05c.105-.008.21-.012.315-.02a28.476 28.476 0 0 0 1.702-.2c.146-.022.29-.048.434-.072.437-.07.871-.151 1.303-.242.16-.034.32-.067.48-.104a28.66 28.66 0 0 0 1.646-.421l.012-.004a28.77 28.77 0 0 0 1.612-.53zm250.799 57.766zm1.448.738zm2.445 1.826zm-1.158-.971zm3.374 3.719zm-.904-1.287zm-22.478 15.35c-.018-.029-.037-.057-.054-.086.017.03.036.057.054.086zm12.508 6.736-.306.014c.103-.003.204-.01.306-.015zm-2.722-.13zm1.224.132c-.052-.003-.104-.01-.155-.014.051.004.103.011.155.014zm-3.949-.827z" class="st7"/><path d="M606.484 801.927a13.589 13.589 0 0 0-4.228 6.77 13.57 13.57 0 0 0 .032 7.137c.526 1.09 7.846 15.468 23.066 5.789a13.592 13.592 0 0 0 3.276-5.86 13.587 13.587 0 0 0-.29-8.013c-.097-.159-7.575-12.469-21.856-5.823zm2.863 22.52-.028-.012.028.012zm-1.073-.602zm-1.182-.813-.046-.033.046.033zm15.279.956c-.085.05-.172.098-.259.147.087-.049.174-.097.26-.147z" class="st7"/><path d="M617.385 825.744c-.076.011-.153.018-.23.027.077-.01.154-.016.23-.027zm7.122-3.31zm-1.044.839c-.04.03-.079.061-.12.09.041-.029.08-.06.12-.09zm-4.666 2.186c-.09.023-.178.048-.268.069.09-.021.179-.046.268-.07zm.18-26.416zm.997 26.063c-.086.03-.174.057-.26.085.086-.028.174-.055.26-.085zm1.278-.528c-.07.033-.137.068-.207.1.07-.032.137-.067.207-.1zm-7.826-25.848c.083-.012.166-.025.25-.036a10.02 10.02 0 0 0-.25.037zm-3.762 1.137.173-.083-.173.083zm5.171-1.277.196-.004c-.065.002-.131.002-.196.005zm-3.937.77.238-.08-.238.08zm16.875 7.028zm-21.617 15.844zm11.338-23.495c.087.013.174.029.26.044l-.26-.044zm-1.384-.14c.066.004.132.004.199.009-.067-.005-.133-.005-.2-.009zm-13.03 19.412-.12-.264.12.264zm1.332 2.255zm.774.974-.056-.061.056.06zm2.219-20.036c.067-.049.134-.098.202-.145-.068.047-.135.096-.202.145zm-4.836 15.562-.044-.117.044.117zm5.998-16.324c.055-.033.111-.062.167-.093-.056.031-.112.06-.167.092z" class="st7"/><path d="m628.34 807.75.004.008c-.012-.033-.029-.063-.04-.096a13.735 13.735 0 0 0-.53-1.274c-.07-.145-.147-.284-.22-.427a13.724 13.724 0 0 0-.792-1.342 13.71 13.71 0 0 0-.62-.845c-.096-.122-.187-.246-.287-.365a13.64 13.64 0 0 0-1.026-1.096l-.047-.04c-.35-.33-.723-.638-1.11-.93-.128-.098-.263-.186-.394-.278a13.519 13.519 0 0 0-1.365-.844 13.63 13.63 0 0 0-.976-.472c-.15-.066-.297-.137-.451-.198-.489-.194-.99-.369-1.51-.508a13.565 13.565 0 0 0-1.221-.262l-.26-.044c-.397-.06-.792-.106-1.186-.131-.067-.005-.133-.005-.2-.009-.36-.018-.72-.021-1.078-.01-.065.001-.131 0-.196.004-.39.017-.776.053-1.16.103-.083.011-.166.024-.25.037-.781.117-1.547.301-2.29.55-.079.026-.159.052-.237.08-.36.127-.714.267-1.06.423-.06.027-.116.056-.174.083a13.72 13.72 0 0 0-.93.48c-.056.031-.112.06-.167.092-.33.192-.649.399-.96.618-.068.047-.135.096-.202.145-.316.23-.625.468-.921.725 14.281-6.646 21.76 5.664 21.855 5.823zm-26.052 8.084a9.713 9.713 0 0 1-.034-.07c.08.297.171.592.271.883l.044.117c.117.333.25.659.392.98a13.736 13.736 0 0 0 .65 1.293c.016.03.035.058.053.087a13.74 13.74 0 0 0 .748 1.14c.227.313.464.62.718.913l.056.06a13.661 13.661 0 0 0 .97.995c.286.266.58.525.89.767l.046.033a13.558 13.558 0 0 0 1.182.813c.339.21.685.41 1.045.59l.028.012a13.649 13.649 0 0 0 1.378.588c.387.142.78.274 1.185.382a13.769 13.769 0 0 0 1.54.313c.357.053.713.094 1.069.118.051.004.103.011.155.014.4.023.797.024 1.192.012.102-.003.204-.01.306-.015.33-.018.658-.047.983-.088.077-.01.154-.016.23-.027a13.33 13.33 0 0 0 1.144-.216c.09-.021.179-.046.268-.07.31-.078.614-.167.916-.267.087-.028.175-.055.261-.085.363-.128.72-.27 1.071-.428.07-.032.137-.067.207-.1.292-.138.578-.286.86-.443.087-.049.174-.097.26-.147.331-.196.657-.402.972-.625l.119-.09a13.698 13.698 0 0 0 1.044-.84c.292-.258.578-.526.847-.81-15.22 9.679-22.54-4.7-23.066-5.789zm72.812-168.03c.07.034.137.072.206.108-.069-.036-.136-.074-.206-.108zm1.305.727c.062.039.126.075.188.114-.062-.04-.126-.075-.188-.114zm-2.863-1.391c.095.034.19.069.285.106-.094-.037-.19-.072-.285-.107zm-3.111-.804c.1.015.201.033.302.05-.1-.017-.201-.035-.302-.05zm-16.102 23.742c-.021-.036-.045-.07-.065-.106.02.036.044.07.065.106zm2.9 3.615zm1.091.932-.055-.04.055.04zm-2.222-2.091c-.02-.024-.043-.046-.064-.07.02.024.044.046.064.07zm3.595 3.036zm-4.495-4.168zm13.621-25.229c.077.004.154.005.23.01-.077-.005-.153-.006-.23-.01z" class="st7"/><path d="M679.582 672.983a15.825 15.825 0 0 0 3.815-6.822 15.82 15.82 0 0 0-.34-9.33c-.107-.18-8.814-14.52-25.447-6.78a15.823 15.823 0 0 0-4.922 7.881 15.8 15.8 0 0 0 .036 8.311c.614 1.27 9.137 18.01 26.858 6.74zm-20.899-23.777.235-.17c-.08.056-.157.113-.235.17zm-5.036 19.57zm6.389-20.459c.063-.037.129-.07.193-.106-.064.036-.13.07-.193.106z" class="st7"/><path d="M665.692 646.328c.097-.014.195-.03.293-.042-.098.013-.195.028-.293.042zm-4.377 1.322c.067-.03.132-.064.199-.094-.067.03-.132.064-.199.095zm6.019-1.485c.076-.003.152-.002.227-.004-.075.002-.151.001-.227.004zm-4.584.897c.091-.033.184-.063.275-.094-.092.031-.183.061-.275.094zm14.952 2.363.232.182-.232-.182zm-16.757 26.848c-.01-.006-.023-.01-.034-.016l.034.016zm15.164-.536c-.1.059-.201.114-.302.17.1-.056.202-.111.302-.17zm2.486-1.81zm3.85-18.593zm-10.499 22.116c-.104.026-.207.055-.31.08.104-.025.206-.054.31-.08zm-1.643.332c-.089.013-.179.02-.268.031.09-.011.18-.018.268-.031zm11.429-23.803.104.172-.104-.172zm-8.416 23.06c-.099.035-.2.065-.3.098.1-.033.201-.063.3-.098zm1.489-.615c-.08.038-.16.08-.24.116.08-.037.16-.078.24-.116zm2.575-1.519-.139.104c.047-.033.092-.07.139-.104zm-10.234 3.014c-.06-.004-.12-.012-.18-.016.06.004.12.012.18.016zm-1.426-.154zm3.17.151c-.119.006-.236.013-.355.017.119-.004.236-.011.355-.017zm-6.341-.96zm16.424-26.454.026.026-.026-.026zm-25.922 16.823c-.016-.046-.035-.09-.05-.135.015.045.034.09.05.135zm26.873-15.83c.064.072.128.143.19.216-.062-.073-.126-.144-.19-.216zm1.011 1.259c.047.064.09.13.135.195-.046-.065-.088-.13-.135-.195z" class="st7"/><path d="m683.058 656.831.005.008c-.146-.42-.316-.83-.496-1.236a15.964 15.964 0 0 0-.73-1.451c-.035-.059-.071-.115-.105-.173a15.998 15.998 0 0 0-.662-1.03c-.046-.065-.088-.13-.135-.195a15.946 15.946 0 0 0-.82-1.043l-.19-.216a15.875 15.875 0 0 0-.926-.967l-.026-.026c-.33-.314-.68-.61-1.039-.895l-.232-.182a15.756 15.756 0 0 0-1.11-.78c-.06-.04-.125-.075-.187-.114a15.76 15.76 0 0 0-1.099-.62c-.069-.035-.136-.073-.206-.107a15.903 15.903 0 0 0-1.273-.558c-.094-.037-.19-.072-.286-.107-.451-.166-.91-.32-1.385-.447a16.02 16.02 0 0 0-1.423-.305 15.868 15.868 0 0 0-1.683-.204c-.077-.005-.154-.006-.231-.01-.421-.02-.84-.025-1.258-.012-.075.002-.151.001-.227.004-.453.02-.903.062-1.35.12l-.292.043c-.91.137-1.802.352-2.667.64-.091.031-.184.061-.275.094-.419.148-.832.311-1.236.494-.067.03-.132.064-.199.095a16 16 0 0 0-1.086.56c-.064.036-.13.07-.193.106-.383.224-.755.465-1.118.72-.08.055-.157.112-.235.169-.368.267-.728.545-1.073.844 16.633-7.74 25.34 6.602 25.448 6.781zm-30.334 9.412-.04-.083c.094.348.2.69.317 1.03.015.045.034.09.05.135a15.929 15.929 0 0 0 .596 1.45c.19.407.393.808.617 1.197.02.036.044.07.065.106a15.983 15.983 0 0 0 .869 1.324c.265.364.54.72.836 1.062.02.024.044.046.064.07a15.884 15.884 0 0 0 1.13 1.159c.334.31.676.61 1.037.892l.055.04a15.793 15.793 0 0 0 1.373.945c.395.244.798.477 1.218.687l.034.016a15.908 15.908 0 0 0 1.604.683c.45.165.907.319 1.379.445a16.036 16.036 0 0 0 1.791.364c.417.062.833.11 1.247.138.06.004.12.012.18.016.465.027.928.028 1.39.014.118-.004.235-.011.354-.017.384-.02.766-.055 1.145-.103.09-.011.18-.018.268-.031.45-.065.893-.15 1.332-.252.104-.025.207-.054.31-.08a15.85 15.85 0 0 0 1.072-.313c.1-.033.2-.063.3-.098.423-.15.84-.315 1.248-.5.08-.036.16-.077.24-.115.34-.16.674-.333 1.002-.516.1-.057.202-.112.302-.17.387-.229.766-.47 1.132-.729.047-.033.092-.07.139-.104a15.949 15.949 0 0 0 1.215-.978c.34-.302.673-.613.987-.944-17.721 11.27-26.244-5.47-26.858-6.74zm-44.848 211.865zm1.38 1.12zm-.674-.465zm-1.215-1.26zm-1.075-5.646a6.58 6.58 0 0 0 .015 3.46c.254.526 3.803 7.5 11.184 2.807a6.59 6.59 0 0 0 1.588-2.841 6.587 6.587 0 0 0-.14-3.885c-.023-.038-3.65-6.057-10.597-2.824a6.589 6.589 0 0 0-2.05 3.283zm.23 4.107zm.391.838zm5.184-9.819zm3.253.535zm-.951-.342zm1.652.7zm1.822 1.594zm-1.198-1.18zm-3.035-1.267zm3.597 1.739zm-4.36-1.803zm-3.105.674zm.212 11.972zm-.874-11.597zm2.034-.877zm-.698.213zm-2.101 1.228zm5.298 11.548zm4.669-10.025zm-7.34 9.869zm.818.159zm2.633-.172zm-1.773.232zm4.088-1.388zm1.926-8.057zm-2.589 8.512zm1.416-1.126zm-2.238 1.54z" class="st7"/><path d="m618.938 871.398.002.003c-.005-.016-.014-.031-.02-.047a6.648 6.648 0 0 0-.256-.616c-.034-.071-.071-.14-.108-.21a6.664 6.664 0 0 0-.383-.649 6.604 6.604 0 0 0-.3-.409c-.046-.059-.09-.12-.14-.177a6.616 6.616 0 0 0-.496-.531l-.025-.022a6.57 6.57 0 0 0-.537-.45c-.062-.046-.127-.089-.19-.134a6.555 6.555 0 0 0-.662-.409 6.62 6.62 0 0 0-.474-.229c-.073-.032-.144-.066-.219-.096a6.668 6.668 0 0 0-.731-.246 6.673 6.673 0 0 0-.759-.153c-.079-.011-.157-.017-.236-.026a6.611 6.611 0 0 0-.527-.038c-.088-.003-.175-.004-.262-.003a6.557 6.557 0 0 0-.518.027c-.077.007-.154.011-.23.02a6.705 6.705 0 0 0-.723.128c-.237.057-.47.13-.698.213-.071.026-.14.056-.21.085a6.621 6.621 0 0 0-.692.322 6.7 6.7 0 0 0-.434.257c-.064.042-.13.08-.192.124a6.75 6.75 0 0 0-.573.44l-.003.002c6.947-3.233 10.574 2.786 10.596 2.824zm-12.631 3.919-.016-.034c.012.046.032.09.045.135.054.185.116.367.186.546a6.656 6.656 0 0 0 .391.838c.012.02.021.043.033.064.127.22.27.432.42.637.044.058.09.114.135.17.118.15.243.295.375.435.052.056.104.112.158.166a6.6 6.6 0 0 0 .548.49l.03.025c.204.16.42.303.644.439.065.04.132.075.199.112.171.095.348.184.53.265.072.032.142.065.216.095.25.1.505.192.771.264.272.073.545.121.817.159a6.591 6.591 0 0 0 .86.06c.068 0 .136.003.204.002.266-.007.53-.028.79-.066.048-.007.095-.019.143-.027a6.609 6.609 0 0 0 1.467-.428c.045-.019.09-.034.134-.053.237-.106.466-.228.688-.36.058-.034.112-.072.168-.108.17-.108.335-.224.495-.348.059-.046.118-.09.175-.138a6.47 6.47 0 0 0 .578-.533c-7.38 4.693-10.93-2.28-11.184-2.807zm100.56-131.965zm.509.605zm.704.654zm.677.466zm-2.735-3.264zm10.969 2.161a6.59 6.59 0 0 0 1.589-2.841 6.587 6.587 0 0 0-.142-3.885c-.021-.036-3.648-6.058-10.596-2.824a6.588 6.588 0 0 0-2.05 3.282 6.58 6.58 0 0 0 .015 3.46c.256.53 3.805 7.5 11.184 2.808zm-7.506 1.481zm-3.073-2.805zm2.198-8.791zm6.24-.491zm-.951-.342zm-.759-.153zm3.035 1.267zm-3.798-1.332zm3.173.917zm-5.077 12.088zm-2.631-11.389zm8.895.187zm-7.466-1.128zm1.373-.503zm.951-.147zm-1.649.361zm7.045 10.78zm-2.238 1.54zm-.83.286zm1.653-.7zm-2.433.869zm-1.853.003zm4.947-1.327zm-4.089 1.387zm5.225-10.713zm.791 1.268zm-.353-.644z" class="st7"/><path d="m718.438 737.248.002.003c-.005-.016-.013-.03-.018-.045a6.642 6.642 0 0 0-.258-.62c-.033-.07-.07-.137-.107-.206a6.637 6.637 0 0 0-.383-.65 6.637 6.637 0 0 0-.301-.411c-.047-.059-.09-.12-.139-.176a6.62 6.62 0 0 0-.497-.532c-.008-.007-.016-.012-.023-.02a6.296 6.296 0 0 0-.539-.45c-.062-.048-.126-.09-.19-.134a6.59 6.59 0 0 0-.662-.41 6.6 6.6 0 0 0-.474-.23c-.073-.031-.144-.066-.219-.095a6.668 6.668 0 0 0-.731-.246 6.673 6.673 0 0 0-.758-.153c-.08-.012-.158-.018-.237-.026a6.59 6.59 0 0 0-.788-.041 6.56 6.56 0 0 0-.52.027c-.077.006-.153.01-.229.02-.243.03-.485.07-.723.128-.237.057-.47.13-.698.213-.07.025-.14.056-.21.084a6.691 6.691 0 0 0-.69.322c-.15.08-.295.167-.437.259-.064.04-.128.079-.19.122-.2.138-.394.284-.577.443 6.948-3.234 10.575 2.788 10.596 2.824zm-12.601 4.021c.054.184.115.366.185.544.028.072.055.143.085.214.092.213.192.42.305.622l.034.067c.127.22.27.431.42.636.044.059.09.115.136.172.118.15.243.294.374.433.052.056.104.112.159.166.173.172.353.336.546.488a6.58 6.58 0 0 0 .676.466c.064.04.132.075.198.112.171.096.348.184.53.266.072.032.143.065.216.095.25.1.505.192.772.263.272.073.544.122.817.16.077.01.155.017.232.025a6.3 6.3 0 0 0 .626.034c.069 0 .138.004.206.002.266-.006.529-.027.789-.065.048-.007.095-.02.144-.028a6.592 6.592 0 0 0 1.466-.427c.045-.019.09-.034.135-.054.236-.106.465-.227.688-.36.057-.034.111-.072.168-.108.17-.108.334-.224.493-.347.06-.046.12-.091.177-.14.201-.166.396-.34.577-.531-7.38 4.692-10.928-2.279-11.184-2.807l-.016-.035c.012.047.032.09.046.137zm-282.895 53.974zm-2.85-.167zm.872.17zm-5.867-8.822a7.022 7.022 0 0 0 .016 3.694c.273.565 4.061 8.003 11.937 2.995a7.034 7.034 0 0 0 1.695-3.032 7.03 7.03 0 0 0-.15-4.147c-.05-.083-3.92-6.452-11.31-3.014a7.032 7.032 0 0 0-2.188 3.504zm4.434-4.817zm4.244 13.456zm-4.736-.369zm-2.252-1.598zm-.543-.646zm1.295 1.343zm-2.197-2.987zm2.919 3.485zm-2.501-2.589zm2.343-9.385zm6.66-.524zm-1.013-.365zm1.763.747zm.667.443zm-4.888-1.396zm-2.482.695zm4.13-.652zm-.815-.069zm4.653 1.924zm.272 9.993zm-9.765-10.193zm8.254 11.396zm2.763-9.086zm-2.057 8.6zm-1.584.927zm2.796-10.881zm.468.666zm-6.043 10.768z" class="st7"/><path d="m428.594 785.934.003.004c-.006-.017-.015-.033-.021-.05a7.089 7.089 0 0 0-.274-.659c-.036-.075-.076-.147-.114-.22a7.095 7.095 0 0 0-.41-.695 6.81 6.81 0 0 0-.32-.438c-.05-.063-.097-.127-.149-.188a7.068 7.068 0 0 0-.53-.568l-.026-.021a7.042 7.042 0 0 0-.574-.481c-.066-.05-.136-.096-.204-.144a7.018 7.018 0 0 0-.705-.436 7.05 7.05 0 0 0-.507-.245c-.078-.034-.153-.07-.232-.102a7.38 7.38 0 0 0-.781-.263 7.11 7.11 0 0 0-.81-.163c-.084-.013-.168-.019-.252-.028a7.04 7.04 0 0 0-.842-.044c-.186.002-.37.012-.554.029-.082.007-.164.012-.245.022a7.044 7.044 0 0 0-1.516.363c-.076.028-.15.06-.225.09a7.071 7.071 0 0 0-.736.343 7.26 7.26 0 0 0-.467.277c-.068.044-.137.085-.203.13-.212.148-.42.303-.615.473 7.39-3.438 11.26 2.93 11.31 3.014zm-13.481 4.184-.018-.037c.014.05.035.096.05.145.057.197.123.39.197.58.03.077.059.154.091.23.098.227.206.45.327.666.012.022.022.046.035.068.135.236.287.461.449.68.046.062.095.122.143.182.127.16.26.315.4.464.056.06.111.12.17.177.184.183.377.358.582.52l.035.03c.217.17.448.324.687.468.07.042.14.08.212.12.183.102.372.196.566.283.076.034.152.07.23.101.266.108.539.205.823.281.291.078.582.13.872.17a7.036 7.036 0 0 0 .917.064c.074 0 .146.004.22.002.283-.007.564-.029.841-.07.052-.007.103-.02.155-.029a7.056 7.056 0 0 0 1.564-.456c.048-.02.097-.036.144-.057a7.11 7.11 0 0 0 .734-.384c.061-.037.12-.077.18-.116a7.32 7.32 0 0 0 .526-.37c.064-.05.127-.098.189-.149.215-.178.423-.365.616-.568-7.876 5.008-11.664-2.43-11.937-2.995zm-54.522 31.844zm-6.857-4.764zm4.48 2.759zm-3.079-2.026zm1.743 1.079zm-9.833-4.1zm3.64 1.016zm1.579.607zm-3.624-1.249zm11.492 47.592zm-.692-41.941zm2.224 40.458zm4.198-32.581zm-3.873-5.416zm2.868 3.714zm-.866-1.26zm-.946-1.23zm-19.287-10.184zm22.843 15.82zm-37.921-12.838zm1.799-.838zm-1.131 2.204c.277.566.547 1.133.83 1.697a235.405 235.405 0 0 0 27.776 43.077 56.273 56.273 0 0 0 3.71-2.165 27.754 27.754 0 0 0 6.689-11.964 27.747 27.747 0 0 0-.59-16.355c-.155-.258-13.278-21.902-38.415-14.29zm29.157 45.458c.113-.087.224-.174.335-.263-.11.089-.228.17-.34.257l.005.006zm-26.531-48.252zm35.257 15.685zm-25.548-17.346zm-1.572.033zm5.319.266zm-6.896-.144zm-5.086 1.016zm3.473-.798z" class="st7"/><path d="m367.764 833.074.004.006c-.02-.054-.043-.107-.062-.162a27.97 27.97 0 0 0-.475-1.243c-.063-.155-.13-.307-.197-.46a27.98 27.98 0 0 0-1.172-2.403c-.073-.132-.142-.265-.217-.396a28.058 28.058 0 0 0-.788-1.306c-.03-.047-.064-.093-.095-.141a29.562 29.562 0 0 0-.77-1.119c-.097-.134-.198-.264-.297-.396a28.084 28.084 0 0 0-.992-1.247 27.887 27.887 0 0 0-.714-.81c-.105-.116-.208-.233-.315-.346-.351-.372-.71-.737-1.083-1.09-.028-.026-.058-.05-.086-.077a27.8 27.8 0 0 0-1.064-.95c-.126-.105-.254-.207-.382-.311a27.744 27.744 0 0 0-1.282-.99c-.295-.213-.595-.42-.899-.622-.134-.09-.266-.181-.402-.268a27.651 27.651 0 0 0-1.341-.812 27.845 27.845 0 0 0-1.4-.733c-.15-.073-.304-.142-.455-.213a27.73 27.73 0 0 0-1.537-.666 27.989 27.989 0 0 0-1.057-.393c-.16-.056-.318-.115-.48-.169a28.31 28.31 0 0 0-1.566-.473 28.26 28.26 0 0 0-1.595-.373c-.168-.035-.335-.063-.502-.095a28.024 28.024 0 0 0-1.671-.264 27.978 27.978 0 0 0-1.114-.116c-.165-.014-.33-.03-.494-.042a27.719 27.719 0 0 0-1.581-.065c-.526-.005-1.05.009-1.572.033-.162.008-.324.02-.486.031a27.64 27.64 0 0 0-1.629.153c-.36.044-.718.097-1.075.156-.16.026-.319.05-.477.078a27.806 27.806 0 0 0-2.996.72c-.153.046-.304.097-.456.145a28.125 28.125 0 0 0-1.52.532 27.84 27.84 0 0 0-.993.403c-.147.063-.295.123-.44.189-.459.205-.913.42-1.36.65.22.455.446.91.669 1.365 25.137-7.612 38.26 14.032 38.416 14.29zm-9.264 31.162c.112-.087.23-.168.34-.257.11-.088.218-.18.327-.27.327-.27.65-.547.965-.833.118-.106.236-.211.351-.32.403-.376.8-.761 1.18-1.162a56.268 56.268 0 0 1-3.71 2.164c.184.225.364.453.547.678zm136.764-38.619zM493.03 903zm-.043-77.78zm7.413 1.83zm-19.406-1.726zm-2.803.554zm12.441-.928zm11.992 2.954zm-19.354-2.887zm21.426 3.826zm-17.1 74.566zm26.767-67.85zm-1.621-1.447zm3.589 3.467zm-9.661-7.702zm4.343 2.856zm-15.604 69.837zm13.718-71.173zm-18.863 71.905zm25.607-12.151zm-50.259-59.781zm1.848-1.158zm-5.91 4.235zm2.213-1.771zm5.583-3.509zm4.674-2.028zm-2.109.833zm28.633 73.15zm2.293-.905zm2.623-1.235zm-29.363-72.533zm22.231 75.401zm11.37-5.428zm-2.192 1.41zm4.389-3.039zm1.822-1.555zm-16.203-67.093zm-35.964 8.302a39.12 39.12 0 0 0-12.171 19.489 39.105 39.105 0 0 0 .02 20.4c.808 1.715 21.849 45.19 66.475 16.812a39.128 39.128 0 0 0 9.431-16.868 39.117 39.117 0 0 0-.83-23.056c-.238-.394-21.773-35.927-62.925-16.777zm-.68 58.708zm-3.416-3.531zm1.726 1.898zm3.808 3.439zm4.049 2.796zm-2.017-1.297zm-11.928-13.092zm2.69 4.147zm-5.765-11.115zm67.806-37.092zm-66.885 39.604zm18.66 20.27zm-15.15-13.575zm-2.565-4.572zm30.278 22.025zm38.215-60.244zm-40.782 59.815zm42.201-57.413zm-2.639-4.179zm-29.22-16.149zm-4.765 78.465zm38.553-54.104zm-49.554 51.875zm3 .945zm-5.315-1.844zm50.98-52.977z" class="st7"/><path d="m524.474 851.224.006.009c-.027-.077-.06-.152-.088-.23a39.4 39.4 0 0 0-.668-1.752c-.09-.217-.185-.432-.277-.648a39.47 39.47 0 0 0-.94-2.028 39.658 39.658 0 0 0-.712-1.357c-.103-.187-.202-.377-.308-.562a39.588 39.588 0 0 0-1.11-1.84c-.042-.065-.088-.126-.13-.19a39.574 39.574 0 0 0-1.091-1.587c-.137-.188-.278-.372-.418-.558a39.405 39.405 0 0 0-1.398-1.757 39.336 39.336 0 0 0-1.009-1.145c-.147-.162-.291-.326-.441-.485a39.268 39.268 0 0 0-1.527-1.535c-.04-.038-.082-.074-.122-.111a39.223 39.223 0 0 0-1.5-1.336c-.177-.15-.36-.296-.54-.443a39.121 39.121 0 0 0-1.806-1.393c-.415-.302-.84-.593-1.268-.879-.188-.125-.374-.254-.565-.376a39.033 39.033 0 0 0-1.891-1.144c-.029-.017-.059-.03-.087-.047a39.123 39.123 0 0 0-1.888-.987c-.211-.104-.427-.2-.64-.3a39.138 39.138 0 0 0-2.167-.94c-.49-.194-.988-.377-1.49-.554-.226-.079-.449-.162-.677-.237-.726-.24-1.46-.467-2.208-.667-.75-.201-1.5-.372-2.25-.527-.234-.049-.468-.089-.703-.133a39.575 39.575 0 0 0-2.358-.372 39.161 39.161 0 0 0-1.571-.164c-.232-.02-.464-.044-.696-.06a39.013 39.013 0 0 0-4.445-.044c-.23.01-.457.029-.685.044a38.967 38.967 0 0 0-2.298.215 38.97 38.97 0 0 0-1.514.22c-.225.037-.45.07-.673.11-.715.13-1.426.275-2.13.444-.705.17-1.402.363-2.094.57-.216.066-.428.137-.643.205a39.428 39.428 0 0 0-2.144.75c-.47.18-.936.371-1.399.57-.207.088-.415.172-.62.264-.656.294-1.306.601-1.945.93-.639.33-1.266.681-1.886 1.045-.193.113-.382.233-.573.35a39.571 39.571 0 0 0-1.9 1.231c-.414.286-.82.581-1.224.883-.18.135-.362.267-.54.405-.568.441-1.129.894-1.673 1.366 41.152-19.15 62.687 16.383 62.924 16.777zm-75.075 23.113a16.535 16.535 0 0 1-.027-.058c.028.104.065.206.094.31.17.609.353 1.213.55 1.812.043.128.08.259.124.387.245.717.513 1.424.798 2.124.076.185.157.366.235.55a39.484 39.484 0 0 0 1.919 3.906c.057.102.11.208.17.31.375.655.773 1.297 1.186 1.929.112.172.23.34.345.51.32.473.65.94.99 1.398a38.975 38.975 0 0 0 1.671 2.109c.062.073.12.15.183.222a39.99 39.99 0 0 0 1.542 1.676c.148.151.3.298.45.447.405.404.819.8 1.242 1.186.17.155.34.311.514.464.522.46 1.055.909 1.603 1.342.057.045.111.093.168.138.605.472 1.228.923 1.863 1.36.181.126.366.245.55.367.48.32.97.63 1.468.93.2.121.398.242.6.359.642.372 1.294.73 1.961 1.067l.106.056c.702.352 1.422.678 2.151.99.212.09.426.174.64.261.551.224 1.11.436 1.675.637.223.08.444.16.669.235a40.3 40.3 0 0 0 2.33.71c.808.216 1.617.397 2.425.56.231.047.462.088.692.13a39.4 39.4 0 0 0 1.875.298c.205.028.41.06.614.084.8.094 1.6.167 2.396.212.15.008.297.009.445.015a38.986 38.986 0 0 0 4.648-.068c.145-.01.29-.016.436-.028a38.26 38.26 0 0 0 2.33-.274c.2-.029.395-.065.593-.097a39.031 39.031 0 0 0 1.786-.332c.219-.047.438-.091.655-.141a39.505 39.505 0 0 0 2.264-.58 39.317 39.317 0 0 0 2.216-.728c.208-.075.414-.154.622-.232a39.45 39.45 0 0 0 1.67-.673c.182-.078.364-.152.544-.233a39.524 39.524 0 0 0 2.08-1.002c.126-.066.248-.137.373-.204a39.506 39.506 0 0 0 3.865-2.356c.117-.08.237-.157.352-.238.629-.445 1.243-.91 1.845-1.391.155-.124.305-.253.459-.38.463-.38.917-.773 1.363-1.175.165-.15.33-.298.494-.45a39.227 39.227 0 0 0 1.66-1.637l.004-.003c-44.627 28.378-65.668-15.097-66.476-16.811zm248.896-26.151zm4.945 2.94zm2.446 1.133zm-5.208-2.67zm7.708 3.641zm-16.204-10.382zm1.831 1.767zm2.287 1.95zm-5.981-5.765zm35.469 14.782zm-2.885.116zm5.791-.428.003-.004c-.81.117-1.623.216-2.442.286a42.25 42.25 0 0 0 2.44-.282zm-14.444-.413zm6.03.783zm-8.65-1.388zm5.395 1.068zm42.844-62.525zm-28.679-21.188zm27.145 18.59zm-24.713-18.02zm23.395 16.1zM743.32 776.21zm-42.386.363zm25.051-5.688zm-31.44 10.267a43.194 43.194 0 0 1 1.81-1.478 42.291 42.291 0 0 0-14.966 22.544 42.273 42.273 0 0 0 .021 22.054c.727 1.542 16.536 34.19 49.495 27.668a235.264 235.264 0 0 0 29.424-55.839c-6.81-8.864-29.077-32.03-65.784-14.95zm11.198-6.999zm9.819-2.863zm32.452 8.009zm1.869 1.49zm-3.907-2.934zm-4.79-2.761zm10.45 7.259zm3.739 4.052zm-1.613-1.869zm-17.222-11.382zm2.405.925zm-10.415-2.902zm-20.506 2.075zm12.402-2.481zm-37.352 58.445zm-.997-2.717zm4.791 9.955zm1.443 2.065zm-2.908-4.484zm-1.308-2.523zm33.928-60.555zm-5.489.931zm-2.263.617zm-13.334 6.733zm1.998-1.412zm23.885-7.106z" class="st7"/><path d="M759.669 792.795c-.111-.203-.218-.407-.332-.608a42.752 42.752 0 0 0-1.202-1.99c-.043-.068-.091-.133-.135-.2a42.781 42.781 0 0 0-1.183-1.72c-.148-.203-.301-.402-.453-.603a42.698 42.698 0 0 0-1.51-1.9c-.355-.42-.72-.831-1.092-1.238-.159-.174-.314-.351-.476-.523a42.375 42.375 0 0 0-1.65-1.66c-.044-.042-.09-.08-.134-.121a42.37 42.37 0 0 0-1.619-1.443c-.192-.163-.39-.32-.585-.48a42.065 42.065 0 0 0-1.952-1.505c-.449-.326-.907-.64-1.37-.95-.204-.135-.404-.274-.61-.406a42.106 42.106 0 0 0-2.046-1.238c-.03-.016-.06-.03-.09-.047a42.284 42.284 0 0 0-2.044-1.07c-.229-.112-.462-.216-.693-.325a42.256 42.256 0 0 0-2.342-1.014c-.53-.21-1.069-.41-1.612-.6-.243-.086-.484-.175-.73-.256a43.044 43.044 0 0 0-2.387-.721 43.11 43.11 0 0 0-2.432-.57c-.254-.053-.507-.096-.761-.144a42.649 42.649 0 0 0-2.55-.402 42.404 42.404 0 0 0-1.694-.177c-.252-.021-.505-.047-.756-.064a42.254 42.254 0 0 0-2.409-.1 42.16 42.16 0 0 0-2.394.051c-.249.012-.496.032-.744.048a42.273 42.273 0 0 0-2.48.232 42.29 42.29 0 0 0-1.64.238c-.242.04-.485.076-.725.12-.773.14-1.542.296-2.303.48a42.42 42.42 0 0 0-2.263.616c-.234.07-.465.148-.697.222a42.598 42.598 0 0 0-2.316.81c-.51.195-1.014.402-1.515.616-.222.095-.446.186-.666.285a42.731 42.731 0 0 0-4.143 2.135c-.208.122-.412.251-.618.377a42.857 42.857 0 0 0-2.054 1.332c-.448.31-.89.63-1.325.956-.194.145-.39.287-.582.436-.615.477-1.22.967-1.81 1.478 36.707-17.082 58.974 6.085 65.784 14.949.143-.392.296-.78.437-1.172a42.794 42.794 0 0 0-1.097-2.134zm-78.259 31.477-.029-.063c.03.113.07.223.102.336.183.657.38 1.308.594 1.954.046.14.087.283.134.423.265.774.555 1.538.863 2.294.082.201.17.399.255.598a42.689 42.689 0 0 0 2.074 4.221c.062.11.119.224.182.334.406.708.836 1.402 1.283 2.085.121.186.249.367.373.551.346.512.702 1.017 1.07 1.514a42.541 42.541 0 0 0 1.808 2.28c.067.078.129.16.196.237.536.62 1.095 1.222 1.667 1.812.16.164.324.322.486.484.439.437.887.864 1.345 1.283.184.167.366.335.553.5.564.497 1.14.982 1.733 1.45.062.05.12.101.183.15.653.51 1.327.998 2.013 1.47.196.136.396.265.594.397.52.346 1.05.682 1.589 1.007.215.13.429.26.647.386.692.4 1.395.788 2.115 1.15.041.021.08.045.12.065.76.38 1.538.732 2.326 1.069.228.098.46.189.69.283.596.242 1.2.471 1.81.688.241.085.481.173.725.255.828.276 1.665.538 2.52.767.872.233 1.745.428 2.618.605.251.05.501.095.752.141.675.124 1.35.231 2.024.322.221.03.443.064.665.09.865.103 1.729.181 2.59.23.16.009.319.01.478.016a42.256 42.256 0 0 0 5.03-.074c.155-.011.312-.016.467-.03.82-.07 1.633-.17 2.442-.286a241.869 241.869 0 0 0 2.408-3.326c-32.96 6.522-48.768-26.126-49.495-27.668z" class="st7"/><path fill="#172734" d="m611.319 698.73.01.018a75.73 75.73 0 0 0-1.344-3.555 75.801 75.801 0 0 0-1.25-2.92c-.055-.123-.116-.245-.173-.369-.41-.89-.839-1.77-1.283-2.642-.09-.179-.179-.358-.271-.536a76.001 76.001 0 0 0-1.508-2.761c-.11-.191-.221-.38-.333-.57a75.84 75.84 0 0 0-1.59-2.609c-.04-.061-.076-.125-.116-.186a75.952 75.952 0 0 0-2.202-3.224 75.781 75.781 0 0 0-1.901-2.538c-.092-.117-.187-.231-.28-.348a75.82 75.82 0 0 0-1.865-2.255c-.126-.148-.25-.297-.378-.443a75.49 75.49 0 0 0-2.13-2.338c-.154-.162-.31-.322-.466-.483a75.352 75.352 0 0 0-2.22-2.212l-.107-.105a75.333 75.333 0 0 0-2.406-2.175 75.035 75.035 0 0 0-3.011-2.49c-.128-.1-.258-.197-.386-.296a75.057 75.057 0 0 0-2.38-1.762c-.154-.11-.306-.222-.461-.33a74.948 74.948 0 0 0-2.681-1.788c-.195-.124-.392-.245-.588-.368a74.908 74.908 0 0 0-2.793-1.669c-.026-.014-.05-.03-.077-.044a75.098 75.098 0 0 0-2.943-1.565 75.237 75.237 0 0 0-3.62-1.72c-.163-.072-.329-.14-.492-.21a75.529 75.529 0 0 0-2.824-1.154c-.176-.068-.35-.14-.528-.207a75.991 75.991 0 0 0-3.157-1.108c-.231-.076-.464-.149-.696-.222a76.586 76.586 0 0 0-3.332-.984 76.666 76.666 0 0 0-3.375-.814c-.24-.052-.48-.106-.719-.156a75.987 75.987 0 0 0-3.291-.62c-.184-.03-.367-.054-.55-.083a75.455 75.455 0 0 0-3.018-.411c-.183-.021-.366-.046-.548-.066a75.082 75.082 0 0 0-3.278-.28c-.239-.015-.477-.027-.716-.04a74.933 74.933 0 0 0-6.669-.068c-.235.008-.471.016-.706.026a74.904 74.904 0 0 0-3.217.208c-.18.016-.36.036-.54.053a74.58 74.58 0 0 0-2.922.334c-.178.024-.357.044-.535.07-1.056.15-2.107.324-3.153.517-.229.043-.457.088-.685.132a75.306 75.306 0 0 0-6.337 1.523c-.223.064-.447.127-.67.193-1.012.3-2.018.619-3.016.96-.169.058-.335.12-.503.18-.913.32-1.819.657-2.718 1.01-.164.066-.33.127-.494.193-.977.393-1.944.81-2.904 1.243-.21.094-.419.192-.628.288a75.909 75.909 0 0 0-5.746 2.962c-.201.115-.402.229-.602.345a75.906 75.906 0 0 0-2.693 1.642c-.148.094-.294.193-.441.289a75.85 75.85 0 0 0-2.399 1.624c-.144.102-.29.2-.433.303a75.847 75.847 0 0 0-2.527 1.893c-.182.142-.363.287-.545.431a75.619 75.619 0 0 0-2.494 2.062l-.004.004c79.04-36.781 120.403 31.465 120.858 32.222zm-223.705 6.813.004.007c-.02-.056-.043-.11-.063-.167a28.78 28.78 0 0 0-.49-1.281c-.064-.159-.133-.314-.201-.471a28.862 28.862 0 0 0-1.207-2.475c-.075-.136-.147-.274-.224-.409a29.57 29.57 0 0 0-.811-1.344c-.03-.047-.065-.093-.096-.14a28.796 28.796 0 0 0-.796-1.157c-.1-.138-.203-.272-.305-.407a28.755 28.755 0 0 0-1.02-1.284c-.24-.284-.486-.561-.737-.836-.108-.118-.213-.238-.323-.355a28.668 28.668 0 0 0-1.114-1.12c-.03-.029-.062-.055-.092-.083-.355-.334-.72-.658-1.093-.975-.13-.11-.262-.215-.394-.322a28.541 28.541 0 0 0-1.319-1.018c-.304-.22-.613-.433-.927-.642-.137-.091-.273-.185-.412-.275-.452-.29-.91-.57-1.38-.835l-.067-.035c-.45-.252-.91-.491-1.377-.72-.153-.075-.31-.146-.466-.219a28.69 28.69 0 0 0-1.583-.686 28.826 28.826 0 0 0-1.088-.405c-.165-.058-.328-.118-.495-.173a29.19 29.19 0 0 0-1.612-.487 29.08 29.08 0 0 0-1.643-.385c-.171-.036-.343-.065-.515-.097a28.844 28.844 0 0 0-1.722-.272 28.595 28.595 0 0 0-1.145-.12c-.17-.014-.34-.031-.51-.043a28.501 28.501 0 0 0-1.627-.067 29.067 29.067 0 0 0-1.619.034c-.167.008-.333.022-.5.032a28.447 28.447 0 0 0-1.677.157c-.37.046-.74.1-1.108.161-.163.027-.327.051-.49.08a28.6 28.6 0 0 0-1.555.325c-.514.123-1.023.265-1.528.416-.159.048-.315.1-.473.15a28.75 28.75 0 0 0-1.562.547c-.345.132-.686.271-1.024.416-.15.065-.303.127-.452.194-.48.215-.954.439-1.42.679-.467.24-.925.497-1.377.762-.142.083-.28.17-.42.256a28.977 28.977 0 0 0-1.386.9c-.303.208-.6.424-.895.645-.131.098-.264.194-.393.294-.416.323-.825.654-1.223.999 30.053-13.985 45.78 11.966 45.952 12.251zM628.34 807.75l.004.008c-.012-.033-.029-.063-.04-.096a13.735 13.735 0 0 0-.53-1.274c-.07-.145-.147-.284-.22-.427a13.724 13.724 0 0 0-.792-1.342 13.71 13.71 0 0 0-.62-.845c-.096-.122-.187-.246-.287-.365a13.64 13.64 0 0 0-1.026-1.096l-.047-.04c-.35-.33-.723-.638-1.11-.93-.128-.098-.263-.186-.394-.278a13.519 13.519 0 0 0-1.365-.844 13.63 13.63 0 0 0-.976-.472c-.15-.066-.297-.137-.451-.198-.489-.194-.99-.369-1.51-.508a13.565 13.565 0 0 0-1.221-.262l-.26-.044c-.397-.06-.792-.106-1.186-.131-.067-.005-.133-.005-.2-.009-.36-.018-.72-.021-1.078-.01-.065.001-.131 0-.196.004-.39.017-.776.053-1.16.103-.083.011-.166.024-.25.037-.781.117-1.547.301-2.29.55-.079.026-.159.052-.237.08-.36.127-.714.267-1.06.423-.06.027-.116.056-.174.083a13.72 13.72 0 0 0-.93.48c-.056.031-.112.06-.167.092-.33.192-.649.399-.96.618-.068.047-.135.096-.202.145-.316.23-.625.468-.921.725 14.281-6.646 21.76 5.664 21.855 5.823zm54.718-150.919.005.008c-.146-.42-.316-.83-.496-1.236a15.964 15.964 0 0 0-.73-1.451c-.035-.059-.071-.115-.105-.173a15.998 15.998 0 0 0-.662-1.03c-.046-.065-.088-.13-.135-.195a15.946 15.946 0 0 0-.82-1.043l-.19-.216a15.875 15.875 0 0 0-.926-.967l-.026-.026c-.33-.314-.68-.61-1.039-.895l-.232-.182a15.756 15.756 0 0 0-1.11-.78c-.06-.04-.125-.075-.187-.114a15.76 15.76 0 0 0-1.099-.62c-.069-.035-.136-.073-.206-.107a15.903 15.903 0 0 0-1.273-.558c-.094-.037-.19-.072-.286-.107-.451-.166-.91-.32-1.385-.447a16.02 16.02 0 0 0-1.423-.305 15.868 15.868 0 0 0-1.683-.204c-.077-.005-.154-.006-.231-.01-.421-.02-.84-.025-1.258-.012-.075.002-.151.001-.227.004-.453.02-.903.062-1.35.12l-.292.043c-.91.137-1.802.352-2.667.64-.091.031-.184.061-.275.094-.419.148-.832.311-1.236.494-.067.03-.132.064-.199.095a16 16 0 0 0-1.086.56c-.064.036-.13.07-.193.106-.383.224-.755.465-1.118.72-.08.055-.157.112-.235.169-.368.267-.728.545-1.073.844 16.633-7.74 25.34 6.602 25.448 6.781zm-64.12 214.567.002.003c-.005-.016-.014-.031-.02-.047a6.648 6.648 0 0 0-.256-.616c-.034-.071-.071-.14-.108-.21a6.664 6.664 0 0 0-.383-.649 6.604 6.604 0 0 0-.3-.409c-.046-.059-.09-.12-.14-.177a6.616 6.616 0 0 0-.496-.531l-.025-.022a6.57 6.57 0 0 0-.537-.45c-.062-.046-.127-.089-.19-.134a6.555 6.555 0 0 0-.662-.409 6.62 6.62 0 0 0-.474-.229c-.073-.032-.144-.066-.219-.096a6.668 6.668 0 0 0-.731-.246 6.673 6.673 0 0 0-.759-.153c-.079-.011-.157-.017-.236-.026a6.611 6.611 0 0 0-.527-.038c-.088-.003-.175-.004-.262-.003a6.557 6.557 0 0 0-.518.027c-.077.007-.154.011-.23.02a6.705 6.705 0 0 0-.723.128c-.237.057-.47.13-.698.213-.071.026-.14.056-.21.085a6.621 6.621 0 0 0-.692.322 6.7 6.7 0 0 0-.434.257c-.064.042-.13.08-.192.124a6.75 6.75 0 0 0-.573.44l-.003.002c6.947-3.233 10.574 2.786 10.596 2.824zm99.5-134.15.002.003c-.005-.016-.013-.03-.018-.045a6.642 6.642 0 0 0-.258-.62c-.033-.07-.07-.137-.107-.206a6.637 6.637 0 0 0-.383-.65 6.637 6.637 0 0 0-.301-.411c-.047-.059-.09-.12-.139-.176a6.62 6.62 0 0 0-.497-.532c-.008-.007-.016-.012-.023-.02a6.296 6.296 0 0 0-.539-.45c-.062-.048-.126-.09-.19-.134a6.59 6.59 0 0 0-.662-.41 6.6 6.6 0 0 0-.474-.23c-.073-.031-.144-.066-.219-.095a6.668 6.668 0 0 0-.731-.246 6.673 6.673 0 0 0-.758-.153c-.08-.012-.158-.018-.237-.026a6.59 6.59 0 0 0-.788-.041 6.56 6.56 0 0 0-.52.027c-.077.006-.153.01-.229.02-.243.03-.485.07-.723.128-.237.057-.47.13-.698.213-.07.025-.14.056-.21.084a6.691 6.691 0 0 0-.69.322c-.15.08-.295.167-.437.259-.064.04-.128.079-.19.122-.2.138-.394.284-.577.443 6.948-3.234 10.575 2.788 10.596 2.824zm-289.844 48.686.003.004c-.006-.017-.015-.033-.021-.05a7.089 7.089 0 0 0-.274-.659c-.036-.075-.076-.147-.114-.22a7.095 7.095 0 0 0-.41-.695 6.81 6.81 0 0 0-.32-.438c-.05-.063-.097-.127-.149-.188a7.068 7.068 0 0 0-.53-.568l-.026-.021a7.042 7.042 0 0 0-.574-.481c-.066-.05-.136-.096-.204-.144a7.018 7.018 0 0 0-.705-.436 7.05 7.05 0 0 0-.507-.245c-.078-.034-.153-.07-.232-.102a7.38 7.38 0 0 0-.781-.263 7.11 7.11 0 0 0-.81-.163c-.084-.013-.168-.019-.252-.028a7.04 7.04 0 0 0-.842-.044c-.186.002-.37.012-.554.029-.082.007-.164.012-.245.022a7.044 7.044 0 0 0-1.516.363c-.076.028-.15.06-.225.09a7.071 7.071 0 0 0-.736.343 7.26 7.26 0 0 0-.467.277c-.068.044-.137.085-.203.13-.212.148-.42.303-.615.473 7.39-3.438 11.26 2.93 11.31 3.014zm-60.83 47.14.004.006c-.02-.054-.043-.107-.062-.162a27.97 27.97 0 0 0-.475-1.243c-.063-.155-.13-.307-.197-.46a27.98 27.98 0 0 0-1.172-2.403c-.073-.132-.142-.265-.217-.396a28.058 28.058 0 0 0-.788-1.306c-.03-.047-.064-.093-.095-.141a29.562 29.562 0 0 0-.77-1.119c-.097-.134-.198-.264-.297-.396a28.084 28.084 0 0 0-.992-1.247 27.887 27.887 0 0 0-.714-.81c-.105-.116-.208-.233-.315-.346-.351-.372-.71-.737-1.083-1.09-.028-.026-.058-.05-.086-.077a27.8 27.8 0 0 0-1.064-.95c-.126-.105-.254-.207-.382-.311a27.744 27.744 0 0 0-1.282-.99c-.295-.213-.595-.42-.899-.622-.134-.09-.266-.181-.402-.268a27.651 27.651 0 0 0-1.341-.812 27.845 27.845 0 0 0-1.4-.733c-.15-.073-.304-.142-.455-.213a27.73 27.73 0 0 0-1.537-.666 27.989 27.989 0 0 0-1.057-.393c-.16-.056-.318-.115-.48-.169a28.31 28.31 0 0 0-1.566-.473 28.26 28.26 0 0 0-1.595-.373c-.168-.035-.335-.063-.502-.095a28.024 28.024 0 0 0-1.671-.264 27.978 27.978 0 0 0-1.114-.116c-.165-.014-.33-.03-.494-.042a27.719 27.719 0 0 0-1.581-.065c-.526-.005-1.05.009-1.572.033-.162.008-.324.02-.486.031a27.64 27.64 0 0 0-1.629.153c-.36.044-.718.097-1.075.156-.16.026-.319.05-.477.078a27.806 27.806 0 0 0-2.996.72c-.153.046-.304.097-.456.145a28.125 28.125 0 0 0-1.52.532 27.84 27.84 0 0 0-.993.403c-.147.063-.295.123-.44.189-.459.205-.913.42-1.36.65.22.455.446.91.669 1.365 25.137-7.612 38.26 14.032 38.416 14.29zm156.71 18.15.006.009c-.027-.077-.06-.152-.088-.23a39.4 39.4 0 0 0-.668-1.752c-.09-.217-.185-.432-.277-.648a39.47 39.47 0 0 0-.94-2.028 39.658 39.658 0 0 0-.712-1.357c-.103-.187-.202-.377-.308-.562a39.588 39.588 0 0 0-1.11-1.84c-.042-.065-.088-.126-.13-.19a39.574 39.574 0 0 0-1.091-1.587c-.137-.188-.278-.372-.418-.558a39.405 39.405 0 0 0-1.398-1.757 39.336 39.336 0 0 0-1.009-1.145c-.147-.162-.291-.326-.441-.485a39.268 39.268 0 0 0-1.527-1.535c-.04-.038-.082-.074-.122-.111a39.223 39.223 0 0 0-1.5-1.336c-.177-.15-.36-.296-.54-.443a39.121 39.121 0 0 0-1.806-1.393c-.415-.302-.84-.593-1.268-.879-.188-.125-.374-.254-.565-.376a39.033 39.033 0 0 0-1.891-1.144c-.029-.017-.059-.03-.087-.047a39.123 39.123 0 0 0-1.888-.987c-.211-.104-.427-.2-.64-.3a39.138 39.138 0 0 0-2.167-.94c-.49-.194-.988-.377-1.49-.554-.226-.079-.449-.162-.677-.237-.726-.24-1.46-.467-2.208-.667-.75-.201-1.5-.372-2.25-.527-.234-.049-.468-.089-.703-.133a39.575 39.575 0 0 0-2.358-.372 39.161 39.161 0 0 0-1.571-.164c-.232-.02-.464-.044-.696-.06a39.013 39.013 0 0 0-4.445-.044c-.23.01-.457.029-.685.044a38.967 38.967 0 0 0-2.298.215 38.97 38.97 0 0 0-1.514.22c-.225.037-.45.07-.673.11-.715.13-1.426.275-2.13.444-.705.17-1.402.363-2.094.57-.216.066-.428.137-.643.205a39.428 39.428 0 0 0-2.144.75c-.47.18-.936.371-1.399.57-.207.088-.415.172-.62.264-.656.294-1.306.601-1.945.93-.639.33-1.266.681-1.886 1.045-.193.113-.382.233-.573.35a39.571 39.571 0 0 0-1.9 1.231c-.414.286-.82.581-1.224.883-.18.135-.362.267-.54.405-.568.441-1.129.894-1.673 1.366 41.152-19.15 62.687 16.383 62.924 16.777zm235.195-58.429c-.111-.203-.218-.407-.332-.608a42.752 42.752 0 0 0-1.202-1.99c-.043-.068-.091-.133-.135-.2a42.781 42.781 0 0 0-1.183-1.72c-.148-.203-.301-.402-.453-.603a42.698 42.698 0 0 0-1.51-1.9c-.355-.42-.72-.831-1.092-1.238-.159-.174-.314-.351-.476-.523a42.375 42.375 0 0 0-1.65-1.66c-.044-.042-.09-.08-.134-.121a42.37 42.37 0 0 0-1.619-1.443c-.192-.163-.39-.32-.585-.48a42.065 42.065 0 0 0-1.952-1.505c-.449-.326-.907-.64-1.37-.95-.204-.135-.404-.274-.61-.406a42.106 42.106 0 0 0-2.046-1.238c-.03-.016-.06-.03-.09-.047a42.284 42.284 0 0 0-2.044-1.07c-.229-.112-.462-.216-.693-.325a42.256 42.256 0 0 0-2.342-1.014c-.53-.21-1.069-.41-1.612-.6-.243-.086-.484-.175-.73-.256a43.044 43.044 0 0 0-2.387-.721 43.11 43.11 0 0 0-2.432-.57c-.254-.053-.507-.096-.761-.144a42.649 42.649 0 0 0-2.55-.402 42.404 42.404 0 0 0-1.694-.177c-.252-.021-.505-.047-.756-.064a42.254 42.254 0 0 0-2.409-.1 42.16 42.16 0 0 0-2.394.051c-.249.012-.496.032-.744.048a42.273 42.273 0 0 0-2.48.232 42.29 42.29 0 0 0-1.64.238c-.242.04-.485.076-.725.12-.773.14-1.542.296-2.303.48a42.42 42.42 0 0 0-2.263.616c-.234.07-.465.148-.697.222a42.598 42.598 0 0 0-2.316.81c-.51.195-1.014.402-1.515.616-.222.095-.446.186-.666.285a42.731 42.731 0 0 0-4.143 2.135c-.208.122-.412.251-.618.377a42.857 42.857 0 0 0-2.054 1.332c-.448.31-.89.63-1.325.956-.194.145-.39.287-.582.436-.615.477-1.22.967-1.81 1.478 36.707-17.082 58.974 6.085 65.784 14.949.143-.392.296-.78.437-1.172a42.794 42.794 0 0 0-1.097-2.134z" opacity=".25"/><path fill="#bab2cc" d="M528.114 798.026c1.112.179 2.222.326 3.332.454.286.033.57.061.856.09.93.097 1.859.177 2.787.238.216.015.433.034.649.047a75 75 0 0 0 3.297.115c.258.003.516 0 .774.002.906.002 1.81-.01 2.71-.04.257-.01.514-.014.77-.025a74.855 74.855 0 0 0 3.25-.21c.214-.019.426-.044.64-.064a74.94 74.94 0 0 0 2.71-.31c.275-.037.55-.072.825-.111a75.126 75.126 0 0 0 3.197-.525c.137-.026.272-.057.408-.083a75.033 75.033 0 0 0 3.647-.803 75.482 75.482 0 0 0 9.699-3.091c.13-.051.26-.098.39-.15.99-.398 1.971-.82 2.944-1.26.249-.112.496-.228.744-.343a75.93 75.93 0 0 0 2.415-1.173c.187-.095.376-.186.562-.282.943-.49 1.875-1 2.797-1.528.217-.124.431-.253.647-.38a75.9 75.9 0 0 0 2.251-1.372c.212-.134.425-.265.636-.402a75.928 75.928 0 0 0 2.64-1.787c.17-.121.338-.248.508-.37a75.824 75.824 0 0 0 2.15-1.61c.216-.169.433-.336.648-.506a75.673 75.673 0 0 0 2.471-2.044c.105-.09.207-.185.31-.276a75.61 75.61 0 0 0 2.733-2.516 75.304 75.304 0 0 0 2.29-2.299c-85.713 54.506-126.127-28.996-127.678-32.289l-.052-.111c.1.373.213.741.319 1.112.07.246.138.493.211.738.302 1.02.623 2.034.968 3.039.06.175.125.348.187.523.305.868.626 1.73.962 2.586.095.241.188.483.285.722.398.984.813 1.96 1.252 2.926.071.157.147.311.22.468.389.84.794 1.674 1.214 2.5.118.233.235.466.356.698.49.94.995 1.872 1.523 2.79.08.14.165.277.246.415.472.808.959 1.605 1.46 2.394.14.222.28.445.424.665.578.89 1.17 1.772 1.785 2.638.086.12.177.239.264.36a75.9 75.9 0 0 0 1.697 2.266c.164.21.328.422.494.63a75.8 75.8 0 0 0 2.035 2.462c.088.102.18.2.268.301.631.722 1.279 1.43 1.938 2.127a75.43 75.43 0 0 0 2.832 2.853c.084.08.17.156.255.235a75.286 75.286 0 0 0 2.797 2.505c.82.7 1.653 1.387 2.506 2.053.077.06.158.118.235.179a74.961 74.961 0 0 0 3.09 2.264 74.57 74.57 0 0 0 2.726 1.817c.066.042.134.081.2.123a74.95 74.95 0 0 0 3.384 1.998c.965.538 1.94 1.062 2.933 1.56.05.024.101.047.151.072a75.199 75.199 0 0 0 3.676 1.701c1.031.446 2.07.878 3.129 1.28a76.185 76.185 0 0 0 4.054 1.401 76.61 76.61 0 0 0 3.316.979 76.643 76.643 0 0 0 4.252 1c.99.205 1.979.393 2.968.558.144.024.287.053.43.076zm-157.976-56.043c.152-.055.303-.113.455-.17.41-.154.817-.318 1.22-.491.132-.057.265-.112.397-.17.513-.23 1.02-.473 1.519-.732.092-.048.18-.1.272-.15a28.9 28.9 0 0 0 2.822-1.72c.085-.058.173-.114.258-.174a28.8 28.8 0 0 0 1.347-1.015c.113-.09.223-.185.335-.277a28.7 28.7 0 0 0 .994-.858c.122-.11.243-.219.363-.33.414-.388.822-.784 1.214-1.197-32.589 20.723-47.955-11.023-48.545-12.277l-.02-.042c.02.076.048.15.069.227.123.444.257.884.401 1.32.031.095.059.191.09.285.18.523.375 1.04.583 1.55.056.137.116.27.173.405a28.78 28.78 0 0 0 1.4 2.848c.042.076.081.154.124.23.275.477.565.946.866 1.407.083.126.169.248.253.373.233.345.474.686.722 1.021a28.784 28.784 0 0 0 1.217 1.535c.047.056.091.113.139.168a28.7 28.7 0 0 0 1.124 1.222c.108.111.22.219.33.328.295.295.598.583.907.865a28.603 28.603 0 0 0 1.544 1.317c.042.034.082.07.125.103.44.345.896.674 1.36.994.132.091.267.178.401.268.351.233.708.46 1.072.679.146.088.291.176.439.262.468.271.944.532 1.43.778.027.013.052.029.08.042.512.257 1.037.495 1.57.722.155.066.312.128.468.192.402.163.808.318 1.22.464.164.058.326.117.492.172a29.09 29.09 0 0 0 1.701.519c.59.158 1.18.29 1.77.408.169.035.338.065.507.096.455.084.91.156 1.365.217.151.02.302.044.453.061a28.65 28.65 0 0 0 1.748.155c.109.006.217.007.326.012a28.571 28.571 0 0 0 3.396-.05c.105-.008.21-.012.315-.02a28.476 28.476 0 0 0 1.702-.2c.146-.022.29-.048.434-.072.437-.07.871-.151 1.303-.242.16-.034.32-.067.48-.104a28.66 28.66 0 0 0 1.646-.421l.012-.004a28.77 28.77 0 0 0 1.612-.53zm232.15 73.851a9.713 9.713 0 0 1-.034-.07c.08.297.171.592.271.883l.044.117c.117.333.25.659.392.98a13.736 13.736 0 0 0 .65 1.293c.016.03.035.058.053.087a13.74 13.74 0 0 0 .748 1.14c.227.313.464.62.718.913l.056.06a13.661 13.661 0 0 0 .97.995c.286.266.58.525.89.767l.046.033a13.558 13.558 0 0 0 1.182.813c.339.21.685.41 1.045.59l.028.012a13.649 13.649 0 0 0 1.378.588c.387.142.78.274 1.185.382a13.769 13.769 0 0 0 1.54.313c.357.053.713.094 1.069.118.051.004.103.011.155.014.4.023.797.024 1.192.012.102-.003.204-.01.306-.015.33-.018.658-.047.983-.088.077-.01.154-.016.23-.027a13.33 13.33 0 0 0 1.144-.216c.09-.021.179-.046.268-.07.31-.078.614-.167.916-.267.087-.028.175-.055.261-.085.363-.128.72-.27 1.071-.428.07-.032.137-.067.207-.1.292-.138.578-.286.86-.443.087-.049.174-.097.26-.147.331-.196.657-.402.972-.625l.119-.09a13.698 13.698 0 0 0 1.044-.84c.292-.258.578-.526.847-.81-15.22 9.679-22.54-4.7-23.066-5.789zm50.436-149.591-.04-.083c.094.348.2.69.317 1.03.015.045.034.09.05.135a15.929 15.929 0 0 0 .596 1.45c.19.407.393.808.617 1.197.02.036.044.07.065.106a15.983 15.983 0 0 0 .869 1.324c.265.364.54.72.836 1.062.02.024.044.046.064.07a15.884 15.884 0 0 0 1.13 1.159c.334.31.676.61 1.037.892l.055.04a15.793 15.793 0 0 0 1.373.945c.395.244.798.477 1.218.687l.034.016a15.908 15.908 0 0 0 1.604.683c.45.165.907.319 1.379.445a16.036 16.036 0 0 0 1.791.364c.417.062.833.11 1.247.138.06.004.12.012.18.016.465.027.928.028 1.39.014.118-.004.235-.011.354-.017.384-.02.766-.055 1.145-.103.09-.011.18-.018.268-.031.45-.065.893-.15 1.332-.252.104-.025.207-.054.31-.08a15.85 15.85 0 0 0 1.072-.313c.1-.033.2-.063.3-.098.423-.15.84-.315 1.248-.5.08-.036.16-.077.24-.115.34-.16.674-.333 1.002-.516.1-.057.202-.112.302-.17.387-.229.766-.47 1.132-.729.047-.033.092-.07.139-.104a15.949 15.949 0 0 0 1.215-.978c.34-.302.673-.613.987-.944-17.721 11.27-26.244-5.47-26.858-6.74zm-46.417 209.074-.016-.034c.012.046.032.09.045.135.054.185.116.367.186.546a6.656 6.656 0 0 0 .391.838c.012.02.021.043.033.064.127.22.27.432.42.637.044.058.09.114.135.17.118.15.243.295.375.435.052.056.104.112.158.166a6.6 6.6 0 0 0 .548.49l.03.025c.204.16.42.303.644.439.065.04.132.075.199.112.171.095.348.184.53.265.072.032.142.065.216.095.25.1.505.192.771.264.272.073.545.121.817.159a6.591 6.591 0 0 0 .86.06c.068 0 .136.003.204.002.266-.007.53-.028.79-.066.048-.007.095-.019.143-.027a6.609 6.609 0 0 0 1.467-.428c.045-.019.09-.034.134-.053.237-.106.466-.228.688-.36.058-.034.112-.072.168-.108.17-.108.335-.224.495-.348.059-.046.118-.09.175-.138a6.47 6.47 0 0 0 .578-.533c-7.38 4.693-10.93-2.28-11.184-2.807zm99.53-134.048c.054.184.115.366.185.544.028.072.055.143.085.214.092.213.192.42.305.622l.034.067c.127.22.27.431.42.636.044.059.09.115.136.172.118.15.243.294.374.433.052.056.104.112.159.166.173.172.353.336.546.488a6.58 6.58 0 0 0 .676.466c.064.04.132.075.198.112.171.096.348.184.53.266.072.032.143.065.216.095.25.1.505.192.772.263.272.073.544.122.817.16.077.01.155.017.232.025a6.3 6.3 0 0 0 .626.034c.069 0 .138.004.206.002.266-.006.529-.027.789-.065.048-.007.095-.02.144-.028a6.592 6.592 0 0 0 1.466-.427c.045-.019.09-.034.135-.054.236-.106.465-.227.688-.36.057-.034.111-.072.168-.108.17-.108.334-.224.493-.347.06-.046.12-.091.177-.14.201-.166.396-.34.577-.531-7.38 4.692-10.928-2.279-11.184-2.807l-.016-.035c.012.047.032.09.046.137zm-290.724 48.849-.018-.037c.014.05.035.096.05.145.057.197.123.39.197.58.03.077.059.154.091.23.098.227.206.45.327.666.012.022.022.046.035.068.135.236.287.461.449.68.046.062.095.122.143.182.127.16.26.315.4.464.056.06.111.12.17.177.184.183.377.358.582.52l.035.03c.217.17.448.324.687.468.07.042.14.08.212.12.183.102.372.196.566.283.076.034.152.07.23.101.266.108.539.205.823.281.291.078.582.13.872.17a7.036 7.036 0 0 0 .917.064c.074 0 .146.004.22.002.283-.007.564-.029.841-.07.052-.007.103-.02.155-.029a7.056 7.056 0 0 0 1.564-.456c.048-.02.097-.036.144-.057a7.11 7.11 0 0 0 .734-.384c.061-.037.12-.077.18-.116a7.32 7.32 0 0 0 .526-.37c.064-.05.127-.098.189-.149.215-.178.423-.365.616-.568-7.876 5.008-11.664-2.43-11.937-2.995zM358.5 864.236c.112-.087.23-.168.34-.257.11-.088.218-.18.327-.27.327-.27.65-.547.965-.833.118-.106.236-.211.351-.32.403-.376.8-.761 1.18-1.162a56.268 56.268 0 0 1-3.71 2.164c.184.225.364.453.547.678zm90.899 10.101a16.535 16.535 0 0 1-.027-.058c.028.104.065.206.094.31.17.609.353 1.213.55 1.812.043.128.08.259.124.387.245.717.513 1.424.798 2.124.076.185.157.366.235.55a39.484 39.484 0 0 0 1.919 3.906c.057.102.11.208.17.31.375.655.773 1.297 1.186 1.929.112.172.23.34.345.51.32.473.65.94.99 1.398a38.975 38.975 0 0 0 1.671 2.109c.062.073.12.15.183.222a39.99 39.99 0 0 0 1.542 1.676c.148.151.3.298.45.447.405.404.819.8 1.242 1.186.17.155.34.311.514.464.522.46 1.055.909 1.603 1.342.057.045.111.093.168.138.605.472 1.228.923 1.863 1.36.181.126.366.245.55.367.48.32.97.63 1.468.93.2.121.398.242.6.359.642.372 1.294.73 1.961 1.067l.106.056c.702.352 1.422.678 2.151.99.212.09.426.174.64.261.551.224 1.11.436 1.675.637.223.08.444.16.669.235a40.3 40.3 0 0 0 2.33.71c.808.216 1.617.397 2.425.56.231.047.462.088.692.13a39.4 39.4 0 0 0 1.875.298c.205.028.41.06.614.084.8.094 1.6.167 2.396.212.15.008.297.009.445.015a38.986 38.986 0 0 0 4.648-.068c.145-.01.29-.016.436-.028a38.26 38.26 0 0 0 2.33-.274c.2-.029.395-.065.593-.097a39.031 39.031 0 0 0 1.786-.332c.219-.047.438-.091.655-.141a39.505 39.505 0 0 0 2.264-.58 39.317 39.317 0 0 0 2.216-.728c.208-.075.414-.154.622-.232a39.45 39.45 0 0 0 1.67-.673c.182-.078.364-.152.544-.233a39.524 39.524 0 0 0 2.08-1.002c.126-.066.248-.137.373-.204a39.506 39.506 0 0 0 3.865-2.356c.117-.08.237-.157.352-.238.629-.445 1.243-.91 1.845-1.391.155-.124.305-.253.459-.38.463-.38.917-.773 1.363-1.175.165-.15.33-.298.494-.45a39.227 39.227 0 0 0 1.66-1.637l.004-.003c-44.627 28.378-65.668-15.097-66.476-16.811zm232.011-50.065-.029-.063c.03.113.07.223.102.336.183.657.38 1.308.594 1.954.046.14.087.283.134.423.265.774.555 1.538.863 2.294.082.201.17.399.255.598a42.689 42.689 0 0 0 2.074 4.221c.062.11.119.224.182.334.406.708.836 1.402 1.283 2.085.121.186.249.367.373.551.346.512.702 1.017 1.07 1.514a42.541 42.541 0 0 0 1.808 2.28c.067.078.129.16.196.237.536.62 1.095 1.222 1.667 1.812.16.164.324.322.486.484.439.437.887.864 1.345 1.283.184.167.366.335.553.5.564.497 1.14.982 1.733 1.45.062.05.12.101.183.15.653.51 1.327.998 2.013 1.47.196.136.396.265.594.397.52.346 1.05.682 1.589 1.007.215.13.429.26.647.386.692.4 1.395.788 2.115 1.15.041.021.08.045.12.065.76.38 1.538.732 2.326 1.069.228.098.46.189.69.283.596.242 1.2.471 1.81.688.241.085.481.173.725.255.828.276 1.665.538 2.52.767.872.233 1.745.428 2.618.605.251.05.501.095.752.141.675.124 1.35.231 2.024.322.221.03.443.064.665.09.865.103 1.729.181 2.59.23.16.009.319.01.478.016a42.256 42.256 0 0 0 5.03-.074c.155-.011.312-.016.467-.03.82-.07 1.633-.17 2.442-.286a241.869 241.869 0 0 0 2.408-3.326c-32.96 6.522-48.768-26.126-49.495-27.668z" opacity=".25"/><g class="st30"><path d="M767.834 597.172c0-16.712-17.821-30.385-39.603-30.385H348.11c-21.782 0-39.603 13.673-39.603 30.385 0 16.712 17.821 30.386 39.603 30.386h380.12c21.782 0 39.603-13.674 39.603-30.386z" class="st31"/></g><path d="M783.301 591.034c0-18.075-19.076-32.864-42.391-32.864H339.09c-23.315 0-42.391 14.789-42.391 32.864 0 18.075 19.076 32.864 42.391 32.864h401.82c23.315 0 42.391-14.789 42.391-32.864z" class="st9"/><path d="M740.91 624.348H339.09c-23.622 0-42.84-14.945-42.84-33.314s19.218-33.313 42.84-33.313h401.82c23.621 0 42.84 14.944 42.84 33.313s-19.219 33.314-42.84 33.314zm-401.82-65.729c-23.127 0-41.943 14.541-41.943 32.415s18.816 32.415 41.943 32.415h401.82c23.126 0 41.942-14.54 41.942-32.415s-18.816-32.415-41.943-32.415H339.09z" class="st9"/><path d="M342.361 572.582h253.454m-.001 3.66H342.361a3.66 3.66 0 1 1 0-7.32h253.453a3.66 3.66 0 1 1 0 7.32z" class="st29" opacity=".3"/><path d="M614.115 572.582h18.3m0 3.273h-18.3a3.274 3.274 0 0 1 0-6.546h18.3a3.274 3.274 0 0 1 0 6.546z" class="st29" opacity=".4"/><g class="st26"><path d="M651.172 572.582h79.453m0 3.66h-79.453a3.66 3.66 0 1 1 0-7.32h79.453a3.66 3.66 0 1 1 0 7.32z" class="st29"/></g><g class="st14"><path d="M494.534 555.314c-.246 1.245-19.043.046-19.043.046s2.61 21.643-6.523 26.573c-7.652 4.13-21.162 5.389-27.51 5.404-6.347.016-25.614 2.622-35.738-11.495-8.35-11.642-10.27-46.945 29.055-58.467 39.326-11.521 62.266 25.238 59.759 37.939z" class="st42"/></g><path d="M492.534 557.314c-.246 1.245-19.043.046-19.043.046s2.61 21.643-6.523 26.573c-7.652 4.13-21.162 5.389-27.51 5.404-6.347.016-25.614 2.622-35.738-11.495-8.35-11.642-10.27-46.945 29.055-58.467 39.326-11.521 62.266 25.238 59.759 37.939z" class="st0"/><g class="st14"><path d="M592.988 555.314c.246 1.245 19.042.046 19.042.046s-2.61 21.643 6.523 26.573c7.652 4.13 21.162 5.389 27.51 5.404 6.347.016 25.614 2.622 35.738-11.495 8.35-11.642 10.27-46.945-29.055-58.467-39.326-11.521-62.266 25.238-59.758 37.939z" class="st42"/></g><path d="M594.988 557.314c.246 1.245 19.042.046 19.042.046s-2.61 21.643 6.523 26.573c7.652 4.13 21.162 5.389 27.51 5.404 6.347.016 25.614 2.622 35.738-11.495 8.35-11.642 10.27-46.945-29.055-58.467-39.326-11.521-62.266 25.238-59.758 37.939z" class="st0"/></svg>