<svg xmlns="http://www.w3.org/2000/svg" xmlns:xlink="http://www.w3.org/1999/xlink" viewBox="0 0 1080 1080"><defs><path id="b" fill="#F4F3F5" d="M673.822 357.859c0 39.233-130.247-71.037-83.907-71.037 46.341-.001 83.907 31.804 83.907 71.037z" opacity=".2"/><path id="a" fill="#517298" d="M678.041 609.02s4-19-7-45c0 3-2 30-130 30h-.291c-128 0-130-27-130-30-11 26-7 45-7 45s126 59 274.291 0z"/></defs><circle cx="540" cy="540" r="500" fill="none" stroke="#FFF" stroke-miterlimit="10" stroke-width="50"/><circle cx="540" cy="540" r="500" fill="#625DA4"/><path fill="#535363" d="M256.96 577.558L241 576l.086-1.594 16.018 1.157z"/><path fill="#FFF" d="M688.194 634.018s5.9 46.953-11.536 70.032c-8.421 11.147-31.832 1.794-48.072 1.79-60.056-.014-53.535 56.791-21.07 72.613 41.785 20.364 142.538 22.304 130.048-73.567-7.456-57.231-69.732-114.451-69.732-114.451M257.837 698.953c-.325-.252-.643-.51-.962-.767.318.258.636.515.962.767zm1.701 1.267c-.323-.231-.639-.469-.956-.706.317.236.633.474.956.706zm1.762 1.21c-.32-.211-.632-.429-.947-.645.315.216.627.434.947.645zm-5.1-3.793zm6.924 4.944c-.317-.192-.628-.391-.94-.589.312.197.622.397.94.589zm6.547-2.317c18.705-1.744-9.337-40.49 6.365-44.943 1.457-.413-1.161 6.888 6.027 18.247 8.48 13.4 18.404 16.804 27.461 18.932 20.024 4.704 50.539-5.299 75.41-13.537a46.534 46.534 0 0123.758-1.455l.845-75.142c-16.009 11.225-31.424 19.995-45.607 26.2-6.007 2.638-11.791 4.81-17.295 6.52-15.502 4.81-30.435 8.064-53.226 9.98-4.129.356-25.568 3.68-25.568 3.68s-26.124 2.208-28.14 18.724c-.846 6.915 3.307 16.424 10.774 24.668 5.612 3.87 12.032 8.794 19.196 8.126zm-17.979-6.821zm2.938 2.836c-.331-.297-.654-.6-.976-.902.322.302.645.604.976.902zm-1.504-1.401zm11.878 8.786c-.315-.173-.623-.355-.934-.534.31.179.618.361.934.534zm8.048 3.563c-.303-.103-.601-.219-.901-.328.301.109.598.225.901.328zm-6.114-2.551c-.31-.154-.614-.318-.92-.478.306.16.61.324.92.478zm4.029 1.788c-.31-.121-.613-.254-.919-.382.306.127.609.261.919.382zm-2.039-.853c-.309-.137-.612-.285-.917-.428.305.143.608.291.917.428zm6.255 2.287c-.287-.083-.568-.179-.852-.267.284.088.565.184.852.267zm2.174.571c-.246-.058-.487-.129-.732-.192.244.063.486.134.732.192z"/><path fill="#FFF" d="M430.376 688.223a46.631 46.631 0 00-21.684-10.715 46.546 46.546 0 00-23.758 1.455c-24.872 8.239-55.386 18.242-75.41 13.537-9.058-2.128-18.982-5.532-27.461-18.932-7.188-11.359-4.57-18.66-6.027-18.247-15.702 4.453 12.339 43.199-6.365 44.943-7.164.668-13.584-4.256-19.197-8.126l-.018-.012c.088.098.183.193.272.29.316.344.636.688.963 1.027.152.157.307.312.462.469.32.324.643.647.973.966.174.167.352.332.528.498.322.303.645.605.976.902.197.177.398.349.598.524.321.28.643.56.972.835.222.185.449.366.675.549.318.258.636.515.962.767.245.19.496.374.745.56.317.237.633.475.956.706.268.192.543.377.816.565.314.216.627.434.947.645.291.192.588.375.883.562.312.197.623.397.94.589.311.188.63.367.946.549.311.179.619.361.934.534.334.184.675.357 1.014.534.306.16.61.324.92.478.353.175.714.34 1.072.507.306.143.608.291.917.428.369.164.746.315 1.12.471.306.127.61.26.919.382.391.153.788.292 1.184.435.301.109.598.225.901.328.422.144.851.271 1.279.404.284.088.565.184.852.267.476.137.96.257 1.442.38.245.062.486.133.732.192.731.173 1.469.33 2.213.467 31.639 5.858 79.603-1.956 128.988-19.548 0 0 72.303 66.634 117.2 93.756l1.744-19.16c-30.068-18.16-72.42-54.036-97.125-75.761z"/><path fill="#331B42" d="M430.376 688.223a46.631 46.631 0 00-21.684-10.715 46.546 46.546 0 00-23.758 1.455c-24.872 8.239-55.386 18.242-75.41 13.537-9.058-2.128-18.982-5.532-27.461-18.932-7.188-11.359-4.57-18.66-6.027-18.247-15.702 4.453 12.339 43.199-6.365 44.943-7.164.668-13.584-4.256-19.197-8.126l-.018-.012c.088.098.183.193.272.29.316.344.636.688.963 1.027.152.157.307.312.462.469.32.324.643.647.973.966.174.167.352.332.528.498.322.303.645.605.976.902.197.177.398.349.598.524.321.28.643.56.972.835.222.185.449.366.675.549.318.258.636.515.962.767.245.19.496.374.745.56.317.237.633.475.956.706.268.192.543.377.816.565.314.216.627.434.947.645.291.192.588.375.883.562.312.197.623.397.94.589.311.188.63.367.946.549.311.179.619.361.934.534.334.184.675.357 1.014.534.306.16.61.324.92.478.353.175.714.34 1.072.507.306.143.608.291.917.428.369.164.746.315 1.12.471.306.127.61.26.919.382.391.153.788.292 1.184.435.301.109.598.225.901.328.422.144.851.271 1.279.404.284.088.565.184.852.267.476.137.96.257 1.442.38.245.062.486.133.732.192.731.173 1.469.33 2.213.467 31.639 5.858 79.603-1.956 128.988-19.548 0 0 72.303 66.634 117.2 93.756l1.744-19.16c-30.068-18.16-72.42-54.036-97.125-75.761z" opacity=".1"/><path fill="#545362" d="M246.504 555.515l-1.865 19.172-15.559-1.371 2.052-19.061s-12.729 4.076-14.675 17.408c-1.946 13.332 13.148 22.109 13.148 22.109l12.539 13.713 2.835 10.99 15.173-3.914-3.257-12.623 3.719-15.056 2.304-.278-.636-10.448-3.794.028c0-.002.873-17.492-11.984-20.669z"/><path fill="#AEACB2" d="M256.618 576.719l.031-.629c.008-.149.584-14.012-8.539-18.088l-1.733 17.814 10.241.903z"/><path fill="#AEACB2" d="M256.575 577.586l-10.281-.906-19.246-1.696 1.909-17.737c-3.557 1.932-9.462 6.335-10.68 14.68-1.741 11.923 12.114 20.172 12.252 20.253l.243.141 13.039 14.259 2.49 9.651 11.608-2.995-2.913-11.291 4.135-16.742 1.844-.222-.425-6.975-3.975-.42z"/><path fill="#FFF" d="M256.659 575.531c.002-2.647-.474-13.921-8.549-17.529l-.074.765c7.166 3.576 8.025 13.371 8.104 16.727" opacity=".2"/><path fill="#FFF" d="M256.093 577.544l-29.044-2.56 1.909-17.737c-1.68.913-3.881 2.385-5.868 4.555 1.845-1.875 3.819-3.173 5.355-4.008l-1.909 17.737 29.527 2.602 3.976.421.396 6.492.541-.065-.425-6.975-3.976-.421m2.045 8.167l-4.135 16.742 2.812 10.901.613-.158-2.913-11.291 4.011-16.241z" opacity=".2"/><path fill="#A38A40" d="M296.014 720.336l-35.862-105.777-15.173 3.914 28.032 108.66c1.551 6.014 7.685 9.632 13.699 8.08l1.462-.377c6.333-1.633 9.942-8.306 7.842-14.5zm-9.281 10.534a6.614 6.614 0 11-3.305-12.81 6.614 6.614 0 013.305 12.81z"/><path fill="#BBBCBE" d="M240.202 592.746l.404-4.583 15.559 1.371-.404 4.583z"/><path fill="#D4D5D6" d="M255.175 594.971a.69.69 0 01-.855-.563l-.792-5.141a.68.68 0 01.577-.787.69.69 0 01.787.577l.792 5.141a.69.69 0 01-.509.773zm-1.868-.165a.69.69 0 01-.855-.563l-.792-5.142a.682.682 0 01.577-.787.69.69 0 01.787.577l.792 5.141a.69.69 0 01-.509.774zm-1.868-.165a.69.69 0 01-.855-.563l-.792-5.142a.684.684 0 01.577-.787.69.69 0 01.787.577l.792 5.141a.69.69 0 01-.509.774zm-1.868-.164a.69.69 0 01-.855-.563l-.792-5.141a.681.681 0 01.577-.787.69.69 0 01.787.577l.792 5.142a.69.69 0 01-.509.772zm-1.868-.165a.69.69 0 01-.855-.563l-.792-5.141a.678.678 0 01.577-.787.69.69 0 01.787.577l.792 5.142a.69.69 0 01-.509.772zm-1.868-.164a.69.69 0 01-.855-.563l-.792-5.142a.683.683 0 01.577-.787.69.69 0 01.787.577l.792 5.141a.692.692 0 01-.509.774zm-1.869-.165a.69.69 0 01-.855-.563l-.792-5.141a.681.681 0 01.577-.787.69.69 0 01.787.577l.792 5.142a.69.69 0 01-.509.772zm-1.868-.165a.69.69 0 01-.855-.563l-.792-5.141a.683.683 0 01.577-.787.69.69 0 01.787.577l.792 5.142a.689.689 0 01-.509.772z"/><path fill="#ECC146" d="M293.441 719.336l-33.932-103.661-12.725 3.283 27.397 106.198c1.529 5.927 6.858 9.677 11.901 8.376l1.226-.316c5.312-1.371 8.134-7.758 6.133-13.88z"/><path fill="#ECC146" d="M286.83 731.072c-3.748.967-7.597-1.389-8.596-5.262-.999-3.873 1.23-7.797 4.978-8.764 3.748-.967 7.597 1.389 8.596 5.262.999 3.874-1.23 7.797-4.978 8.764z"/><path fill="#FFF" d="M263.043 653.587c4.07.798 8.564 2.992 12.224 5.557l-4.504-13.284c-8.09-.153-16.836 5.939-7.72 7.727zm23.085 37.59l-6.936-20.459c-7.81-7.891-22.025-5.003-22.025-5.003l4.732 18.341c15.094-3.894 24.229 7.121 24.229 7.121z" opacity=".2"/><path fill="#FFF" d="M277.809 726.529c.999 3.873 4.848 6.229 8.596 5.262 1.968-.508 3.511-1.835 4.394-3.538a6.848 6.848 0 01-3.97 2.819c-3.748.967-7.597-1.389-8.596-5.262a7.34 7.34 0 01.584-5.226 7.328 7.328 0 00-1.008 5.945zm15.632-7.193l-33.932-103.661-12.725 3.283.147.571 12.153-3.135 33.932 103.661c1.092 3.343.739 6.759-.665 9.4 1.75-2.721 2.285-6.463 1.09-10.119z" opacity=".2"/><path fill="#331B42" d="M272.149 651.462s-3.092 8.992 1.162 13.289c6.562 6.643 20.511-12.326 24.655-12.424" opacity=".15"/><path fill="#331B42" d="M275.677 670.182c-.376-13.327-13.845-17.192-21.176-17.03 7.477.155 19.93 4.223 20.292 17.03.116 4.1.532 7.867.846 11.294l.002-.007a108.801 108.801 0 01.302 4.029c.012.225.022.45.031.672.009.235.015.467.021.698a39.802 39.802 0 01.007 1.537 27.104 27.104 0 01-.05 1.244c-.008.121-.013.244-.022.364-.027.354-.063.701-.107 1.044-.014.108-.031.214-.046.321-.039.268-.083.534-.133.795-.019.099-.037.199-.058.297-.073.344-.154.684-.249 1.015l-.038.119a12.835 12.835 0 01-.799 2.031l-.012.027c-.161.317-.341.625-.534.928-.034.054-.071.107-.107.161-.174.262-.36.519-.56.771l-.093.12c-.236.288-.489.57-.762.843l-.074.071a12.55 12.55 0 01-.794.715c-.058.048-.116.097-.175.144-.315.253-.642.501-.998.739-5.401 3.615-9.491 6.554-13.286 6.784 4.048.221 8.346-2.888 14.169-6.784 8.709-5.83 4.799-15.973 4.403-29.972z" opacity=".2"/><path fill="#FFF" d="M271.385 699.416c-.315.253-.645.5-1.001.739-7.229 4.838-12.109 8.47-17.075 6.009-3.192-1.589-13.372-17.877-13.67-33.143 2.88 9.754 9.371 18.167 15.28 20.693 5.1 2.178 8.236.546 15.465-4.292 3.14-2.098 4.637-4.756 5.255-7.945-.313-3.427-.73-7.194-.846-11.294-.362-12.807-12.815-16.876-20.292-17.03-2.23-.046-4.023.252-4.913.775-24.604 14.455-1.244 49.778 3.722 52.238a7.343 7.343 0 003.791.774c3.794-.231 7.884-3.17 13.286-6.784.356-.239.683-.487.998-.74z"/><path fill="#FFF" d="M270.384 689.421c-7.229 4.838-10.364 6.47-15.465 4.292-5.909-2.525-12.4-10.939-15.28-20.693.298 15.266 10.478 31.554 13.67 33.143 4.966 2.462 9.846-1.171 17.075-6.009.356-.238.686-.486 1.001-.739l.175-.144c.28-.233.546-.471.794-.715.024-.024.051-.047.074-.071.273-.274.526-.555.762-.843.032-.039.062-.08.093-.12.2-.251.386-.508.56-.771l.107-.161c.193-.303.373-.611.534-.928l.012-.027a11.751 11.751 0 00.501-1.15c.109-.289.209-.582.298-.881l.038-.119c.095-.332.176-.671.249-1.015.021-.098.039-.198.058-.297.05-.261.094-.526.133-.795.015-.107.032-.213.046-.321.044-.342.08-.69.107-1.044.009-.12.015-.243.022-.364a23.816 23.816 0 00.05-1.244 39.802 39.802 0 00-.028-2.235 52.77 52.77 0 00-.031-.672c-.009-.169-.018-.34-.029-.511-.067-1.131-.162-2.3-.273-3.518a.019.019 0 01-.002.007c-.614 3.189-2.11 5.847-5.251 7.945z"/><path fill="#331B42" d="M270.384 689.421c-7.229 4.838-10.364 6.47-15.465 4.292-5.909-2.525-12.4-10.939-15.28-20.693.298 15.266 10.478 31.554 13.67 33.143 4.966 2.462 9.846-1.171 17.075-6.009.356-.238.686-.486 1.001-.739l.175-.144c.28-.233.546-.471.794-.715.024-.024.051-.047.074-.071.273-.274.526-.555.762-.843.032-.039.062-.08.093-.12.2-.251.386-.508.56-.771l.107-.161c.193-.303.373-.611.534-.928l.012-.027a11.751 11.751 0 00.501-1.15c.109-.289.209-.582.298-.881l.038-.119c.095-.332.176-.671.249-1.015.021-.098.039-.198.058-.297.05-.261.094-.526.133-.795.015-.107.032-.213.046-.321.044-.342.08-.69.107-1.044.009-.12.015-.243.022-.364a23.816 23.816 0 00.05-1.244 39.802 39.802 0 00-.028-2.235 52.77 52.77 0 00-.031-.672c-.009-.169-.018-.34-.029-.511-.067-1.131-.162-2.3-.273-3.518a.019.019 0 01-.002.007c-.614 3.189-2.11 5.847-5.251 7.945z" opacity=".2"/><path fill="#331B42" d="M379.306 708.885c13.557 23.676 10.252 45.787-1.126 58.273" opacity=".15"/><path fill="#FFF" d="M541.366 841.911c16.547 27.595 20.463 50.109 20.463 50.109v29h90c-1-14 2-25 2-25 94-103 27-288 27-288-151 60-280 0-280 0s-67 185 27 288c0 0 3 11 2 25h90v-29s4-23 21-51l.537.891z"/><ellipse cx="606.557" cy="922.021" fill="#293A4D" rx="45.35" ry="16.68"/><ellipse cx="475.167" cy="922.021" fill="#293A4D" rx="45.35" ry="16.68"/><ellipse cx="540.917" cy="566.876" fill="#22113F" rx="130.75" ry="29.28"/><use xlink:href="#a"/><ellipse cx="540.917" cy="566.876" fill="#22113F" rx="130.75" ry="29.28"/><use xlink:href="#a"/><path fill="#517298" stroke="#517298" stroke-miterlimit="10" stroke-width="4.49" d="M556.378 656.941c-5.526 0-10.473 2.476-13.795 6.378a11.052 11.052 0 00-8.506-3.984c-6.117 0-11.076 4.959-11.076 11.076 0 .101.005.2.008.3a10.943 10.943 0 00-1.804-.151c-6.034 0-10.926 4.892-10.926 10.926l21.845.299h7.439c2.673 6.667 9.194 11.375 16.815 11.375 10.002 0 18.11-8.108 18.11-18.11s-8.108-18.109-18.11-18.109z"/><path fill="#517298" stroke="#517298" stroke-miterlimit="10" stroke-width="3.293" d="M578.607 688.506c8.4 19.156.386 41.742-18.532 51.207-19.528 9.771-43.279 1.861-53.049-17.667-5.449-10.89-5.399-23.094-.902-33.454"/><path fill="#517298" d="M583.384 683.381c0-3.046-3.215-5.538-7.144-5.538h-67.713c-3.929 0-7.144 2.492-7.144 5.538s3.215 5.538 7.144 5.538h67.713c3.929 0 7.144-2.492 7.144-5.538z"/><path fill="none" stroke="#517298" stroke-miterlimit="10" stroke-width="3.293" d="M583.384 683.381c0-3.046-3.215-5.538-7.144-5.538h-67.713c-3.929 0-7.144 2.492-7.144 5.538s3.215 5.538 7.144 5.538h67.713c3.929 0 7.144-2.492 7.144-5.538z"/><path fill="#DCAE44" stroke="#DCAE44" stroke-miterlimit="10" stroke-width="1.197" d="M556.378 656.941c-5.526 0-10.473 2.476-13.795 6.378a11.052 11.052 0 00-8.506-3.984c-6.117 0-11.076 4.959-11.076 11.076 0 .101.005.2.008.3a10.943 10.943 0 00-1.804-.151c-6.034 0-10.926 4.892-10.926 10.926l21.845.299h7.439c2.673 6.667 9.194 11.375 16.815 11.375 10.002 0 18.11-8.108 18.11-18.11s-8.108-18.109-18.11-18.109z"/><path fill="#E8C647" d="M556.378 656.941c-5.526 0-10.473 2.476-13.795 6.378a11.052 11.052 0 00-8.506-3.984c-6.117 0-11.076 4.959-11.076 11.076 0 .101.005.2.008.3a10.943 10.943 0 00-1.804-.151c-6.034 0-10.926 4.892-10.926 10.926l21.845.299h7.439c2.673 6.667 9.194 11.375 16.815 11.375 10.002 0 18.11-8.108 18.11-18.11s-8.108-18.109-18.11-18.109z"/><path fill="#DCAE44" d="M544.517 664.348c.959-1.172 2.123-2.181 3.402-3.027a15.98 15.98 0 014.203-1.883 14.814 14.814 0 014.6-.571c1.556.009 3.104.311 4.585.781a15.658 15.658 0 017.517 5.28c.934 1.231 1.722 2.57 2.279 4.001.512 1.447.858 2.943.946 4.455-.604-2.961-1.898-5.73-3.847-7.944a16.104 16.104 0 00-3.297-2.889 14.666 14.666 0 00-3.924-1.909c-1.382-.458-2.83-.747-4.293-.787-1.462-.106-2.931.06-4.369.36-2.874.64-5.574 2.093-7.802 4.133zm-17.877 1.561c.851-1.872 2.487-3.444 4.49-4.22a8.786 8.786 0 016.33-.01c2.022.785 3.734 2.329 4.687 4.255.954 1.922 1.128 4.185.496 6.143a9.456 9.456 0 00-1.214-5.754c-1.006-1.669-2.549-2.985-4.345-3.668-1.785-.713-3.82-.759-5.682-.199a9.41 9.41 0 00-4.762 3.453zm-8.488 6.814c1.439-.915 3.362-1.005 5.007-.413.823.305 1.59.767 2.21 1.379a5.162 5.162 0 011.37 2.148c-1.229-1.15-2.488-2.034-3.936-2.542-.711-.276-1.464-.425-2.236-.526-.776-.094-1.569-.092-2.415-.046z" opacity=".45"/><g fill="#F8F9E7"><path d="M548.667 666.249l-1.064.582-.582 1.064-.582-1.064-1.064-.582 1.064-.582.582-1.065.582 1.065z"/><path d="M532.061 672.248l-1.064.582-.582 1.065-.582-1.065-1.065-.582 1.065-.582.582-1.064.582 1.064z" opacity=".8"/><path d="M568.731 674.044l-1.065.582-.582 1.065-.582-1.065-1.064-.582 1.064-.582.582-1.064.582 1.064z" opacity=".95"/></g><path fill="#88ACD4" stroke="#88ACD4" stroke-miterlimit="10" stroke-width=".15" d="M578.607 688.506c8.4 19.156.386 41.742-18.532 51.207-19.528 9.771-43.279 1.861-53.049-17.667-5.449-10.89-5.399-23.094-.902-33.454"/><path fill="#66809E" d="M558.692 718.361c-19.352 7.764-41.334-1.63-49.099-20.982a37.92 37.92 0 01-2.036-6.982c-3.214 8.528-3.408 18.223.253 27.348 7.764 19.352 29.746 28.746 49.099 20.982 17.053-6.842 26.356-24.722 23.018-42.116-3.602 9.557-11.008 17.647-21.235 21.75z" opacity=".15"/><path fill="#517298" d="M545.676 693.412zm3.176 1.345zm-1.349-.687zm3.626 2.389zm-1.078-.905zm-2.257 21.652c-.064.03-.126.063-.19.092l.19-.092zm-4.732 1.192c-.094.005-.188.011-.282.014.094-.003.188-.009.282-.014zm-1.81-25.357zm2.967.078zm-1.467-.125zm6.087 23.661c-.079.047-.16.091-.24.136.08-.045.16-.089.24-.136zm3.514-18.835zm-6.845 20.206c-.083.021-.165.044-.248.064.083-.02.165-.043.248-.064zm4.348-2.037c-.037.027-.073.057-.111.084.038-.027.074-.057.111-.084zm-11.775-22.254zm8.525 23.961c-.08.028-.162.053-.243.08.081-.027.162-.051.243-.08zm4.223-2.489z"/><path fill="#517298" d="M551.619 714.451a12.666 12.666 0 003.052-5.46 12.661 12.661 0 00-.271-7.466c-.088-.145-7.055-11.619-20.364-5.426a12.664 12.664 0 00-3.939 6.308 12.652 12.652 0 00.029 6.65c.489 1.013 7.31 14.413 21.493 5.394zm1.576-15.432z"/><path fill="#517298" d="M544.194 718.291c-.071.01-.144.016-.215.025.071-.009.143-.014.215-.025zm9.679-18.035zm-14.451-6.93zm-4.925 22.353zm1.297.894zm-2.653-2.153zm-.979-1.162zm5.031 4.04zm4.474 1.103c-.048-.003-.095-.009-.143-.013.047.003.095.01.143.013zm-4.885-24.109zm3.744 23.986zm-1.434-.291zm-8.554-7.687zm.753 1.611zm2.745-15.812zm1.474-1.086z"/><path fill="#1B2733" d="M536.349 694.515zm-1.205.733c.119-.083.244-.157.366-.235-.122.079-.247.153-.366.235zm14.54.049c.122.086.248.168.366.258-.118-.091-.243-.172-.366-.258zm-12.008-1.4c.135-.054.268-.112.404-.162-.136.049-.269.108-.404.162zm15.992 5.962c.068.132.141.262.205.397-.064-.135-.136-.265-.205-.397zm-2.58-3.436c.013.013.029.023.042.036l-.042-.036zm.998 1.057c.093.11.178.226.267.339-.09-.112-.174-.228-.267-.339zm2.318 4.052c-.01-.03-.026-.058-.037-.088.01.028.023.054.033.082l.004.006zm-1.473-2.924zm-4.518-4.098zm-4.65-1.442c.152.017.304.028.456.051-.152-.023-.303-.034-.456-.051zm-2.952.012c.146-.018.294-.026.441-.039-.148.013-.295.021-.441.039zm6.271.805c.143.057.28.123.421.184-.14-.061-.277-.127-.421-.184zm-4.833-.896z" opacity=".5"/><path fill="#517298" d="M554.4 701.526c-.01-.028-.023-.054-.033-.082a12.6 12.6 0 00-.495-1.188c-.064-.135-.136-.265-.205-.397a12.825 12.825 0 00-.738-1.251c-.182-.27-.376-.532-.578-.788-.089-.113-.174-.229-.267-.339a12.803 12.803 0 00-.956-1.022c-.013-.013-.029-.023-.042-.036a12.58 12.58 0 00-1.037-.869c-.119-.09-.244-.172-.366-.258a12.613 12.613 0 00-1.272-.787 12.313 12.313 0 00-.91-.44c-.14-.062-.277-.128-.421-.184-.455-.18-.922-.343-1.406-.473-.485-.13-.972-.222-1.457-.294-.152-.022-.304-.034-.456-.051a12.795 12.795 0 00-1.514-.079c-.335.003-.667.022-.997.052-.147.013-.295.021-.441.039-.468.059-.933.136-1.388.245-.456.11-.902.251-1.341.409-.137.049-.27.108-.404.162a12.5 12.5 0 00-1.327.618c-.286.155-.565.322-.839.498-.122.078-.247.153-.366.235a12.82 12.82 0 00-1.108.851c13.309-6.191 20.276 5.283 20.364 5.429z"/><path fill="#1B2733" d="M554.4 701.526c-.01-.028-.023-.054-.033-.082a12.6 12.6 0 00-.495-1.188c-.064-.135-.136-.265-.205-.397a12.825 12.825 0 00-.738-1.251c-.182-.27-.376-.532-.578-.788-.089-.113-.174-.229-.267-.339a12.803 12.803 0 00-.956-1.022c-.013-.013-.029-.023-.042-.036a12.58 12.58 0 00-1.037-.869c-.119-.09-.244-.172-.366-.258a12.613 12.613 0 00-1.272-.787 12.313 12.313 0 00-.91-.44c-.14-.062-.277-.128-.421-.184-.455-.18-.922-.343-1.406-.473-.485-.13-.972-.222-1.457-.294-.152-.022-.304-.034-.456-.051a12.795 12.795 0 00-1.514-.079c-.335.003-.667.022-.997.052-.147.013-.295.021-.441.039-.468.059-.933.136-1.388.245-.456.11-.902.251-1.341.409-.137.049-.27.108-.404.162a12.5 12.5 0 00-1.327.618c-.286.155-.565.322-.839.498-.122.078-.247.153-.366.235a12.82 12.82 0 00-1.108.851c13.309-6.191 20.276 5.283 20.364 5.429z" opacity=".5"/><path fill="#B7B0C8" d="M549.746 716.072zm-3.383 1.704zm-15.009-5.743c-.023-.04-.04-.082-.063-.122.022.04.04.083.063.122zm1.067 1.553c-.087-.109-.176-.217-.259-.329.083.113.172.22.259.329zm15.183 3.711zm-3.626 1.02zm1.282-.228zm-14.557-7.379c-.058-.135-.111-.273-.164-.411.053.139.105.276.164.411zm-.609-1.719c.024.089.063.172.088.261-.019-.065-.039-.129-.057-.195a4.953 4.953 0 00-.031-.066zm21.525 5.46zm-1.007.943zm-10.386 2.836zm8.373-1.439zm-5.82 1.621zm-5.17-.932c-.141-.057-.278-.121-.416-.182.139.061.275.125.416.182zm3.915.908zm-6.968-2.658c-.021-.016-.039-.035-.059-.051l.059.051zm1.619 1.058c-.127-.071-.257-.14-.381-.215.125.075.254.143.381.215zm-2.73-2.049c-.104-.104-.204-.211-.304-.318.101.107.199.214.304.318z" opacity=".25"/><path fill="#517298" d="M543.978 718.317c.072-.009.144-.015.215-.025.359-.052.715-.12 1.066-.202.083-.019.165-.042.248-.064.288-.073.573-.157.855-.25.081-.027.163-.051.243-.08.339-.12.672-.252.998-.399.064-.029.126-.062.19-.092.273-.129.541-.267.805-.415.08-.045.161-.089.24-.136.31-.182.614-.375.907-.583.038-.027.073-.056.111-.084a12.662 12.662 0 00.973-.782c.272-.241.539-.491.79-.756-14.183 9.019-21.004-4.381-21.493-5.394l.057.195c.104.355.222.705.356 1.048.054.137.106.275.164.411.176.41.371.812.589 1.201.022.04.04.082.063.122.244.424.517.83.808 1.224.083.112.172.219.259.329.228.288.467.566.72.834.101.107.2.215.304.318.333.33.681.647 1.052.94l.059.051c.391.306.808.583 1.238.843.124.075.254.144.381.215.329.184.669.354 1.018.51.138.062.275.125.416.182.479.194.97.369 1.482.507a12.688 12.688 0 001.434.291c.333.05.666.088.998.111.048.003.095.01.143.013.373.021.744.023 1.113.011.094-.003.188-.009.282-.014.307-.015.613-.042.916-.08z"/><path fill="#B7B0C8" d="M543.978 718.317c.072-.009.144-.015.215-.025.359-.052.715-.12 1.066-.202.083-.019.165-.042.248-.064.288-.073.573-.157.855-.25.081-.027.163-.051.243-.08.339-.12.672-.252.998-.399.064-.029.126-.062.19-.092.273-.129.541-.267.805-.415.08-.045.161-.089.24-.136.31-.182.614-.375.907-.583.038-.027.073-.056.111-.084a12.662 12.662 0 00.973-.782c.272-.241.539-.491.79-.756-14.183 9.019-21.004-4.381-21.493-5.394l.057.195c.104.355.222.705.356 1.048.054.137.106.275.164.411.176.41.371.812.589 1.201.022.04.04.082.063.122.244.424.517.83.808 1.224.083.112.172.219.259.329.228.288.467.566.72.834.101.107.2.215.304.318.333.33.681.647 1.052.94l.059.051c.391.306.808.583 1.238.843.124.075.254.144.381.215.329.184.669.354 1.018.51.138.062.275.125.416.182.479.194.97.369 1.482.507a12.688 12.688 0 001.434.291c.333.05.666.088.998.111.048.003.095.01.143.013.373.021.744.023 1.113.011.094-.003.188-.009.282-.014.307-.015.613-.042.916-.08z" opacity=".25"/><path fill="#517298" d="M515.58 707.627a4.788 4.788 0 001.227-2.112 4.807 4.807 0 00-.106-2.843c-.044-.072-2.69-4.409-7.74-2.059a4.786 4.786 0 00-1.457 4.985c.337.665 2.913 5.258 8.076 2.029z"/><path fill="#517298" d="M512.823 709.049c-.035.005-.071.005-.107.009.036-.004.072-.004.107-.009zm1.384-9.147c.055.026.11.051.164.079-.054-.028-.109-.053-.164-.079zm-.383 8.882c-.066.025-.131.051-.198.072.067-.021.132-.047.198-.072zm.766-.359c-.046.027-.095.049-.142.074.047-.025.096-.047.142-.074zm.48-8.003c.037.028.071.06.107.09-.037-.03-.07-.062-.107-.09zm.326 7.399c-.047.043-.093.089-.142.131.05-.042.095-.087.142-.131zm.323-6.795c.029.032.061.063.09.096-.029-.033-.06-.063-.09-.096zm-3.748 8.061c-.075-.003-.15-.006-.225-.012.076.006.15.01.225.012zm-2.793-.997l-.018-.012.018.012zm1.344-8.383c.042-.015.086-.026.129-.039-.043.013-.086.024-.129.039zm-2.556 7.002l-.023-.035.023.035zm1.669-6.577zm-1.077 7.374c-.047-.051-.091-.104-.136-.157.044.053.089.105.136.157zm1.509 1.119zm2.272-9.188c.061.003.121.008.182.013-.061-.005-.121-.011-.182-.013zm-4.737 6.49zm3.776-6.434c.045-.007.089-.018.135-.024-.046.006-.09.017-.135.024zm4.9 2.287c.03.051.058.102.087.154-.029-.052-.057-.103-.087-.154z"/><path fill="#1B2733" d="M515.809 701.122zm-3.288-1.672zm-1.009.019zm5.193 3.209zm-1.528-2.166zm-.806-.531zm-.984-.39zm-3.6.451zm-.826.571zm1.69-.946z" opacity=".5"/><path fill="#517298" d="M516.701 702.672a4.864 4.864 0 00-.337-.738 4.67 4.67 0 00-.556-.812c-.028-.033-.06-.063-.09-.096a4.893 4.893 0 00-.542-.515c-.036-.029-.07-.061-.107-.09a4.812 4.812 0 00-.698-.441c-.054-.028-.109-.053-.164-.079a4.852 4.852 0 00-.82-.311 4.839 4.839 0 00-.866-.141c-.061-.005-.121-.011-.182-.013a4.827 4.827 0 00-.826.032c-.045.006-.09.017-.135.024-.248.04-.49.098-.727.174-.043.014-.087.024-.129.039-.255.09-.499.204-.735.335-.051.029-.101.06-.152.09a4.897 4.897 0 00-.675.481c5.051-2.348 7.698 1.989 7.741 2.061z"/><path fill="#1B2733" d="M516.701 702.672a4.864 4.864 0 00-.337-.738 4.67 4.67 0 00-.556-.812c-.028-.033-.06-.063-.09-.096a4.893 4.893 0 00-.542-.515c-.036-.029-.07-.061-.107-.09a4.812 4.812 0 00-.698-.441c-.054-.028-.109-.053-.164-.079a4.852 4.852 0 00-.82-.311 4.839 4.839 0 00-.866-.141c-.061-.005-.121-.011-.182-.013a4.827 4.827 0 00-.826.032c-.045.006-.09.017-.135.024-.248.04-.49.098-.727.174-.043.014-.087.024-.129.039-.255.09-.499.204-.735.335-.051.029-.101.06-.152.09a4.897 4.897 0 00-.675.481c5.051-2.348 7.698 1.989 7.741 2.061z" opacity=".5"/><path fill="#B7B0C8" d="M512.823 709.049zm-5.361-3.535c.02.074.05.144.073.217-.014-.043-.019-.089-.032-.133l-.041-.084zm5.255 3.544zm-3.557-.98zm-1.217-1.404zm3.803 2.401zm3.9-1.485l-.066.037c-.062.064-.118.134-.184.194.084-.076.172-.148.25-.231zm-4.763 1.345zm-1.009-.406zm-1.452-1.18zm6.026 1.15zm.806-.547z" opacity=".25"/><path fill="#517298" d="M513.824 708.784c.215-.08.424-.175.624-.285.047-.026.096-.047.142-.074.234-.138.456-.297.664-.473.049-.041.094-.087.142-.131.066-.06.122-.13.184-.194-5.163 3.229-7.739-1.364-8.076-2.029.013.044.018.09.032.133a4.798 4.798 0 00.407.943l.023.035a4.85 4.85 0 00.592.796c.185.205.383.4.603.572l.018.012a4.867 4.867 0 00.889.536c.26.123.529.232.817.31a4.804 4.804 0 001.088.152c.251.009.5.001.745-.029.035-.004.071-.004.107-.009.274-.04.542-.108.802-.193.066-.021.131-.047.197-.072z"/><path fill="#B7B0C8" d="M513.824 708.784c.215-.08.424-.175.624-.285.047-.026.096-.047.142-.074.234-.138.456-.297.664-.473.049-.041.094-.087.142-.131.066-.06.122-.13.184-.194-5.163 3.229-7.739-1.364-8.076-2.029.013.044.018.09.032.133a4.798 4.798 0 00.407.943l.023.035a4.85 4.85 0 00.592.796c.185.205.383.4.603.572l.018.012a4.867 4.867 0 00.889.536c.26.123.529.232.817.31a4.804 4.804 0 001.088.152c.251.009.5.001.745-.029.035-.004.071-.004.107-.009.274-.04.542-.108.802-.193.066-.021.131-.047.197-.072z" opacity=".25"/><path fill="#517298" d="M555.647 722.879zm-1.145-.001zm-.652-.302zm-.427-.352zm2.899-3.504zm-1.155-.359zm.526.072zm-.625 4.516zm-.418-4.541zm-1.062.511zm-.497 2.857zm3.183.853zm-2.686-3.71a2.28 2.28 0 00-.693 2.372c.16.316 1.385 2.501 3.842.965.267-.273.477-.609.583-1.005a2.29 2.29 0 00-.05-1.352c-.019-.031-1.278-2.098-3.682-.98zm.558-.347zm2.59.482zm-.032 3.236zm.348-2.838z"/><path fill="#1B2733" d="M556.184 718.633c.048.026.092.058.138.087-.047-.029-.09-.061-.138-.087zm1.087 1.269l-.008-.015.006.013c.001-.001.002.002.002.002zm-2.793-1.453zm-.473.188c.046-.025.094-.043.142-.065-.048.022-.096.04-.142.065zm.999-.269c.054-.002.108-.008.163-.006-.055-.003-.108.003-.163.006zm1.956.955c.031.043.064.084.092.129-.028-.045-.061-.086-.092-.129zm-.353-.392z" opacity=".5"/><path fill="#517298" d="M557.269 719.899l-.006-.013a2.273 2.273 0 00-.212-.435c-.028-.045-.061-.086-.092-.129a2.393 2.393 0 00-.352-.391 2.293 2.293 0 00-.286-.211c-.046-.029-.09-.061-.138-.087a2.288 2.288 0 00-.491-.2 2.28 2.28 0 00-.526-.072c-.055-.002-.108.004-.163.006a2.324 2.324 0 00-.527.081 2.266 2.266 0 00-.331.123c-.047.022-.096.04-.142.065-.148.08-.29.172-.417.283 2.406-1.118 3.665.949 3.683.98z"/><path fill="#1B2733" d="M557.269 719.899l-.006-.013a2.273 2.273 0 00-.212-.435c-.028-.045-.061-.086-.092-.129a2.393 2.393 0 00-.352-.391 2.293 2.293 0 00-.286-.211c-.046-.029-.09-.061-.138-.087a2.288 2.288 0 00-.491-.2 2.28 2.28 0 00-.526-.072c-.055-.002-.108.004-.163.006a2.324 2.324 0 00-.527.081 2.266 2.266 0 00-.331.123c-.047.022-.096.04-.142.065-.148.08-.29.172-.417.283 2.406-1.118 3.665.949 3.683.98z" opacity=".5"/><path fill="#B7B0C8" d="M552.875 721.251c.006.021.018.039.024.059l-.005-.019-.019-.04zm2.906 1.596c-.044.014-.09.021-.134.032.045-.011.09-.018.134-.032zm-2.678-1.046c-.005-.008-.007-.017-.012-.025.005.008.007.017.012.025zm2.125 1.141c-.053.003-.106.007-.16.006.054.001.106-.003.16-.006zm-1.694-.612c-.037-.035-.077-.068-.112-.106.036.038.074.07.112.106zm2.821.242c-.028.018-.052.041-.081.057.029-.017.053-.039.081-.057zm-2.369.09c-.047-.026-.091-.057-.136-.086.045.03.088.06.136.086zm2.782-.423l-.031.017-.032.034c.019-.019.044-.032.063-.051z" opacity=".25"/><path fill="#517298" d="M552.894 721.291l.005.019c.048.162.11.319.192.466.005.008.007.017.012.025.088.153.199.293.32.423.035.037.074.071.112.106.097.091.203.173.316.247.045.029.089.06.136.086.161.089.331.166.516.216.189.051.379.068.566.071.054.001.107-.003.16-.006.143-.008.283-.029.419-.063.045-.011.09-.018.134-.032.172-.054.338-.126.493-.218.028-.017.053-.039.081-.057.125-.082.242-.176.349-.282l.032-.034c-2.457 1.534-3.682-.651-3.843-.967z"/><path fill="#B7B0C8" d="M552.894 721.291l.005.019c.048.162.11.319.192.466.005.008.007.017.012.025.088.153.199.293.32.423.035.037.074.071.112.106.097.091.203.173.316.247.045.029.089.06.136.086.161.089.331.166.516.216.189.051.379.068.566.071.054.001.107-.003.16-.006.143-.008.283-.029.419-.063.045-.011.09-.018.134-.032.172-.054.338-.126.493-.218.028-.017.053-.039.081-.057.125-.082.242-.176.349-.282l.032-.034c-2.457 1.534-3.682-.651-3.843-.967z" opacity=".25"/><path fill="#517298" d="M566.237 693.946zm-.851-.852zm.483.388zm-3.858 3.691zm3.821.077zm-2.977-4.329zm1.187-.245zm-1.839.65zm1.237-.596zm1.214.03zm-.052 5.176zm-1.334-.001zm.66.082zm-1.419-.433zm-.883-.931zm4.243.558c.311-.318.556-.709.679-1.17a2.658 2.658 0 00-.059-1.575c-.026-.044-1.492-2.441-4.287-1.14a2.647 2.647 0 00-.807 2.761c.188.368 1.614 2.912 4.474 1.124zm-.538.434z"/><path fill="#1B2733" d="M563.853 692.683c.063-.003.125-.009.188-.007-.063-.002-.125.005-.188.007zm-1.165.314c.054-.029.111-.051.167-.076-.056.026-.113.047-.167.076zm.551-.219zm2.481.562zm.772 1.13l-.011-.022.008.018.003.004zm-.362-.674c.036.05.075.098.107.15-.033-.053-.071-.1-.107-.15zm-.904-.803c.056.03.107.067.16.101-.054-.034-.104-.071-.16-.101z" opacity=".5"/><path fill="#517298" d="M566.49 694.466l-.008-.018a2.68 2.68 0 00-.245-.502c-.032-.052-.071-.1-.107-.15a2.691 2.691 0 00-.41-.456 2.544 2.544 0 00-.334-.246c-.053-.034-.104-.071-.16-.101a2.67 2.67 0 00-.572-.233 2.652 2.652 0 00-.613-.084c-.063-.002-.126.005-.188.007a2.719 2.719 0 00-.614.095c-.132.037-.26.086-.384.143-.056.025-.113.047-.167.076-.172.093-.337.2-.485.329 2.795-1.301 4.26 1.096 4.287 1.14z"/><path fill="#1B2733" d="M566.49 694.466l-.008-.018a2.68 2.68 0 00-.245-.502c-.032-.052-.071-.1-.107-.15a2.691 2.691 0 00-.41-.456 2.544 2.544 0 00-.334-.246c-.053-.034-.104-.071-.16-.101a2.67 2.67 0 00-.572-.233 2.652 2.652 0 00-.613-.084c-.063-.002-.126.005-.188.007a2.719 2.719 0 00-.614.095c-.132.037-.26.086-.384.143-.056.025-.113.047-.167.076-.172.093-.337.2-.485.329 2.795-1.301 4.26 1.096 4.287 1.14z" opacity=".5"/><path fill="#B7B0C8" d="M565.906 697.19l-.037.02c-.013.013-.024.027-.037.039.022-.021.052-.035.074-.059zm-3.765.106c-.043-.041-.089-.079-.129-.123.04.044.085.082.129.123zm3.284.282c-.032.021-.061.047-.094.067.034-.02.062-.045.094-.067zm-3.787-.897l-.013-.028c.006.009.008.019.013.028zm2.474 1.329a2.27 2.27 0 01-.185.007c.063.001.123-.003.185-.007zm-1.445-.326c-.055-.03-.106-.066-.158-.1.052.034.103.069.158.1zm2.091.215c-.051.016-.104.024-.156.037.052-.013.104-.021.156-.037zm-3.385-1.858c.007.024.021.045.028.069l-.005-.023-.023-.046z" opacity=".25"/><path fill="#517298" d="M561.396 696.087l.005.023c.056.189.129.372.224.543l.013.028c.103.179.231.341.373.493.041.043.086.082.129.123.113.106.236.202.368.288.052.034.103.069.158.1.187.104.385.193.601.251.221.059.441.079.66.082.062.001.123-.004.185-.007.167-.01.33-.034.49-.074.052-.013.105-.021.156-.037a2.7 2.7 0 00.574-.253c.033-.02.062-.046.094-.067a2.723 2.723 0 00.443-.367c-2.86 1.786-4.286-.758-4.473-1.126z"/><path fill="#B7B0C8" d="M561.396 696.087l.005.023c.056.189.129.372.224.543l.013.028c.103.179.231.341.373.493.041.043.086.082.129.123.113.106.236.202.368.288.052.034.103.069.158.1.187.104.385.193.601.251.221.059.441.079.66.082.062.001.123-.004.185-.007.167-.01.33-.034.49-.074.052-.013.105-.021.156-.037a2.7 2.7 0 00.574-.253c.033-.02.062-.046.094-.067a2.723 2.723 0 00.443-.367c-2.86 1.786-4.286-.758-4.473-1.126z" opacity=".25"/><path fill="#517298" d="M553.555 730.704c-.062.231-.028.457.049.666.156.268.731 1.046 1.785.415a1.08 1.08 0 00.32-.504 1.091 1.091 0 00-.066-.715c-.149-.204-.722-.851-1.693-.432-.18.143-.33.329-.395.57zm1.283 1.376zm-.394-2.181c.027-.005.054-.006.081-.009l-.081.009zm1.141.52c.011.018.017.037.027.056-.009-.019-.016-.038-.027-.056zm-1.913 1.137l-.006-.008.006.008zm1.526.395c-.014.008-.029.012-.043.019.014-.007.03-.01.043-.019zm.079-1.859c.022.016.044.031.065.048-.021-.018-.043-.032-.065-.048zm-1.287 1.802zm.053-1.84c.017-.011.033-.024.051-.034-.019.01-.034.023-.051.034z"/><path fill="#1B2733" d="M555.687 730.627c-.019-.053-.048-.102-.074-.152.015.028.019.061.031.091.026.035.043.061.043.061zm-1.594-.607zm1.249.12zm-.421-.225zm-1.02.236c.018-.008.033-.009.051-.017.032-.025.057-.058.091-.08-.049.031-.099.059-.142.097zm.624-.261z" opacity=".5"/><path fill="#517298" d="M555.644 730.566c-.013-.03-.016-.063-.031-.091-.01-.018-.016-.038-.027-.056a1.12 1.12 0 00-.243-.28c-.021-.017-.043-.032-.065-.048a1.1 1.1 0 00-.356-.177 1.086 1.086 0 00-.396-.025l-.081.009a1.117 1.117 0 00-.351.121c-.018.01-.033.023-.051.034-.034.022-.06.054-.091.08.97-.418 1.543.229 1.692.433z"/><path fill="#1B2733" d="M555.644 730.566c-.013-.03-.016-.063-.031-.091-.01-.018-.016-.038-.027-.056a1.12 1.12 0 00-.243-.28c-.021-.017-.043-.032-.065-.048a1.1 1.1 0 00-.356-.177 1.086 1.086 0 00-.396-.025l-.081.009a1.117 1.117 0 00-.351.121c-.018.01-.033.023-.051.034-.034.022-.06.054-.091.08.97-.418 1.543.229 1.692.433z" opacity=".5"/><path fill="#B7B0C8" d="M554.344 732.07zm-.789-.789a1.1 1.1 0 00.111.267c-.031-.055-.04-.12-.062-.179a2.721 2.721 0 01-.049-.088zm1.184.814zm-.825-.26zm1.528-.075c-.019.012-.034.014-.053.025-.062.059-.119.123-.191.167.09-.053.173-.116.244-.192zm-.287.211z" opacity=".25"/><path fill="#517298" d="M553.604 731.369c.022.059.03.124.062.179l.006.008a1.108 1.108 0 00.318.338c.106.075.221.14.354.176.133.036.266.037.395.025.034-.003.067-.009.1-.015.111-.021.218-.056.317-.109.014-.007.03-.011.043-.019.073-.043.13-.108.191-.167-1.055.63-1.629-.148-1.786-.416z"/><path fill="#B7B0C8" d="M553.604 731.369c.022.059.03.124.062.179l.006.008a1.108 1.108 0 00.318.338c.106.075.221.14.354.176.133.036.266.037.395.025.034-.003.067-.009.1-.015.111-.021.218-.056.317-.109.014-.007.03-.011.043-.019.073-.043.13-.108.191-.167-1.055.63-1.629-.148-1.786-.416z" opacity=".25"/><path fill="#517298" d="M572.045 707.485c.022.016.044.031.065.048l-.065-.048zm-1.288 1.803zm1.596-1.475c.011.018.018.037.027.056-.01-.019-.016-.038-.027-.056zm-.387 1.532c-.014.008-.03.012-.044.019.014-.007.03-.011.044-.019zm.511-.67a1.091 1.091 0 00-.066-.715c-.149-.204-.722-.851-1.693-.432a1.089 1.089 0 00-.396.57c-.062.231-.028.457.049.666.156.268.731 1.046 1.786.415.144-.137.265-.299.32-.504z"/><path fill="#517298" d="M571.606 709.473a1.095 1.095 0 01-.1.015c.034-.003.066-.009.1-.015zm-1.167-.523l-.006-.008c.002.003.005.005.006.008zm.773-1.657c.027-.005.054-.006.081-.009a.717.717 0 00-.081.009zm-.402.155c.017-.011.033-.024.051-.034-.018.01-.033.023-.051.034z"/><path fill="#1B2733" d="M570.668 707.544c.018-.008.033-.009.051-.017.032-.025.057-.058.091-.08-.048.031-.099.059-.142.097zm.193-.13zm.431-.13zm.397.024zm.765.713c-.019-.053-.048-.102-.074-.152.015.028.019.061.031.091.026.035.043.061.043.061zm-.345-.488z" opacity=".5"/><path fill="#517298" d="M572.411 707.959c-.012-.03-.016-.062-.031-.091-.01-.018-.016-.038-.027-.056a1.104 1.104 0 00-.244-.28c-.021-.017-.043-.032-.065-.048a1.1 1.1 0 00-.356-.177 1.086 1.086 0 00-.396-.025l-.081.009a1.117 1.117 0 00-.351.121c-.018.01-.033.023-.051.034-.034.022-.06.054-.091.08.971-.417 1.544.229 1.693.433z"/><path fill="#1B2733" d="M572.411 707.959c-.012-.03-.016-.062-.031-.091-.01-.018-.016-.038-.027-.056a1.104 1.104 0 00-.244-.28c-.021-.017-.043-.032-.065-.048a1.1 1.1 0 00-.356-.177 1.086 1.086 0 00-.396-.025l-.081.009a1.117 1.117 0 00-.351.121c-.018.01-.033.023-.051.034-.034.022-.06.054-.091.08.971-.417 1.544.229 1.693.433z" opacity=".5"/><path fill="#B7B0C8" d="M570.322 708.675a1.1 1.1 0 00.111.267c-.031-.055-.04-.12-.062-.179a5.2 5.2 0 01-.049-.088zm1.184.813zm.416-.124zm.288-.211c-.019.012-.034.014-.052.025-.062.059-.118.123-.191.166.088-.052.171-.115.243-.191zm-1.099.31zm-.429-.235z" opacity=".25"/><path fill="#517298" d="M570.372 708.763c.022.059.03.124.062.179l.006.008a1.108 1.108 0 00.318.338c.106.075.221.14.354.176.133.036.266.037.395.025.034-.003.067-.009.1-.015.111-.021.218-.056.316-.109.014-.008.03-.011.044-.019.073-.043.13-.108.191-.166-1.055.629-1.63-.149-1.786-.417z"/><path fill="#B7B0C8" d="M570.372 708.763c.022.059.03.124.062.179l.006.008a1.108 1.108 0 00.318.338c.106.075.221.14.354.176.133.036.266.037.395.025.034-.003.067-.009.1-.015.111-.021.218-.056.316-.109.014-.008.03-.011.044-.019.073-.043.13-.108.191-.166-1.055.629-1.63-.149-1.786-.417z" opacity=".25"/><path fill="#517298" d="M521.857 715.614c.018-.012.035-.026.054-.036-.02.01-.036.024-.054.036zm1.646.39c.011.019.019.04.029.059-.011-.02-.018-.04-.029-.059zm-2.042 1.213l-.007-.009.007.009zm-.125-.91c-.066.247-.029.488.053.711.167.286.78 1.117 1.906.443a1.16 1.16 0 00.342-.538 1.163 1.163 0 00-.071-.763c-.159-.218-.77-.908-1.807-.461a1.159 1.159 0 00-.423.608zm.949-.859c.028-.005.057-.007.086-.01-.029.003-.057.005-.086.01zm.805 2.19c-.015.009-.032.013-.047.021.015-.008.032-.012.047-.021zm-.384.137zm.468-2.121c.023.017.047.033.069.051-.022-.019-.046-.034-.069-.051zm-1.374 1.923z"/><path fill="#1B2733" d="M522.371 715.439zm.423.026zm-1.089.252c.019-.009.035-.01.054-.018.034-.027.061-.062.098-.085-.052.032-.106.062-.152.103zm1.538-.012zm.368.52c-.02-.057-.051-.109-.079-.162.016.03.02.065.033.097l.046.065zm-1.701-.648z" opacity=".5"/><path fill="#517298" d="M523.565 716.16c-.013-.032-.017-.067-.033-.097-.01-.019-.018-.041-.029-.059a1.194 1.194 0 00-.26-.299c-.022-.018-.046-.034-.069-.051a1.187 1.187 0 00-.38-.189 1.167 1.167 0 00-.423-.026c-.029.003-.058.005-.086.01a1.2 1.2 0 00-.375.129c-.019.01-.035.025-.054.036-.037.023-.064.058-.098.085 1.037-.447 1.648.243 1.807.461z"/><path fill="#1B2733" d="M523.565 716.16c-.013-.032-.017-.067-.033-.097-.01-.019-.018-.041-.029-.059a1.194 1.194 0 00-.26-.299c-.022-.018-.046-.034-.069-.051a1.187 1.187 0 00-.38-.189 1.167 1.167 0 00-.423-.026c-.029.003-.058.005-.086.01a1.2 1.2 0 00-.375.129c-.019.01-.035.025-.054.036-.037.023-.064.058-.098.085 1.037-.447 1.648.243 1.807.461z" opacity=".5"/><path fill="#B7B0C8" d="M521.719 717.514zm.459.251zm.421.026zm-1.263-.868c.027.1.067.196.118.285-.034-.058-.042-.128-.066-.191-.031-.053-.052-.094-.052-.094zm2.014.511c-.02.013-.036.015-.056.027-.066.063-.126.132-.204.178.095-.057.183-.124.26-.205zm-.307.225z" opacity=".25"/><path fill="#517298" d="M521.388 717.017c.023.063.032.132.066.191l.007.009a1.198 1.198 0 00.339.36c.113.081.236.15.378.188a1.158 1.158 0 00.528.01c.118-.023.232-.06.337-.116.015-.008.032-.012.047-.021.078-.046.138-.115.204-.178-1.125.674-1.739-.157-1.906-.443z"/><path fill="#B7B0C8" d="M521.388 717.017c.023.063.032.132.066.191l.007.009a1.198 1.198 0 00.339.36c.113.081.236.15.378.188a1.158 1.158 0 00.528.01c.118-.023.232-.06.337-.116.015-.008.032-.012.047-.021.078-.046.138-.115.204-.178-1.125.674-1.739-.157-1.906-.443z" opacity=".25"/><path fill="#517298" d="M508.185 721.075c.044-.007.087-.017.131-.023-.044.006-.087.016-.131.023zm-.831.208c.041-.015.083-.025.125-.038-.041.013-.084.023-.125.038zm4.735 7.881c-.046.042-.09.087-.138.127.048-.04.091-.084.138-.127zm.314-6.599c.028.031.059.06.086.092-.027-.032-.058-.061-.086-.092zm-.632-.588c.036.028.069.059.104.087-.035-.028-.068-.059-.104-.087zm-.837-.505c.053.025.107.05.159.077-.052-.027-.106-.051-.159-.077zm-1.815-.451c.059.003.118.008.177.013-.06-.005-.118-.011-.177-.013zm3.826 2.276c.029.049.057.099.084.149-.028-.05-.055-.1-.084-.149zm-6.048-1.532c.046.093.082.188.128.281a39.646 39.646 0 004.678 7.243c.186-.099.37-.192.564-.313a4.642 4.642 0 001.191-2.052 4.673 4.673 0 00-.103-2.761c-.038-.066-2.245-3.664-6.458-2.398z"/><path fill="#1B2733" d="M506.787 721.524l.007.014c.183-.093.366-.187.56-.256-.194.07-.384.149-.567.242zm3.35-.354zm1.738.894zm1.485 2.105a4.63 4.63 0 00-.004-.006l.004.006zm-2.267-2.62zm-1.797-.516zm3.193 1.624zm-5.01-1.412zm.837-.193z" opacity=".5"/><path fill="#517298" d="M513.356 724.163a4.683 4.683 0 00-.327-.717c-.028-.05-.055-.1-.084-.149a4.634 4.634 0 00-.456-.639c-.027-.032-.058-.061-.086-.092a4.638 4.638 0 00-.528-.501c-.035-.029-.068-.059-.104-.087a4.685 4.685 0 00-.679-.428c-.052-.027-.106-.052-.159-.077a4.666 4.666 0 00-.797-.302 4.754 4.754 0 00-.841-.137c-.059-.005-.118-.01-.177-.013a4.664 4.664 0 00-.803.031c-.044.006-.087.016-.131.023a4.654 4.654 0 00-.706.169c-.041.013-.084.023-.125.038a4.633 4.633 0 00-.56.256c.036.075.067.151.103.226 4.214-1.265 6.421 2.333 6.46 2.399z"/><path fill="#1B2733" d="M513.356 724.163a4.683 4.683 0 00-.327-.717c-.028-.05-.055-.1-.084-.149a4.634 4.634 0 00-.456-.639c-.027-.032-.058-.061-.086-.092a4.638 4.638 0 00-.528-.501c-.035-.029-.068-.059-.104-.087a4.685 4.685 0 00-.679-.428c-.052-.027-.106-.052-.159-.077a4.666 4.666 0 00-.797-.302 4.754 4.754 0 00-.841-.137c-.059-.005-.118-.01-.177-.013a4.664 4.664 0 00-.803.031c-.044.006-.087.016-.131.023a4.654 4.654 0 00-.706.169c-.041.013-.084.023-.125.038a4.633 4.633 0 00-.56.256c.036.075.067.151.103.226 4.214-1.265 6.421 2.333 6.46 2.399z" opacity=".5"/><path fill="#B7B0C8" d="M511.804 729.411a4.23 4.23 0 00.146-.12c-.048.041-.104.071-.154.11l.008.01zm.527-.471c-.022.014-.042.022-.064.036-.061.062-.115.13-.179.188.082-.074.167-.143.243-.224z" opacity=".25"/><path fill="#517298" d="M511.796 729.402c.05-.039.106-.069.154-.11.048-.04.092-.085.138-.127.064-.058.118-.127.179-.188-.194.121-.378.214-.564.313.031.037.063.074.093.112z"/><path fill="#B7B0C8" d="M511.796 729.402c.05-.039.106-.069.154-.11.048-.04.092-.085.138-.127.064-.058.118-.127.179-.188-.194.121-.378.214-.564.313.031.037.063.074.093.112z" opacity=".25"/><path fill="#517298" d="M529.931 723.834zm-2.588 7.96zm7.123-8.946zm-.764-.065zm-5.004 11.155zm-.51-.605zm-.453-.7zm7.489-9.632zm-3.954.167zm5.608.533zm-1.629 12.082zm.927-12.44zm-2.702 12.671zm-1.501-13.059zm.64 13zm.308-13.148zm4.581 1.309zm-5.706 11.679zm-.989-.359zm-.728-.377zm-.674-.465zm5.063 1.357zm1.612-.455zm3.412-8.932zm-.353-.644zm-9.975-1.52c.184-.159.378-.305.577-.443a6.597 6.597 0 00-2.613 7.189c.255.527 3.806 7.504 11.19 2.808a6.6 6.6 0 001.589-2.842 6.586 6.586 0 00-.141-3.887c-.023-.039-3.651-6.06-10.602-2.825zm7.738 10.682zm-6.308-11.624zm6.971 11.168zm.753-.671zm.383-8.66zm-.637-.708z"/><path fill="#1B2733" d="M531.964 722.957zm-.906.296c.071-.028.141-.059.212-.085-.072.026-.141.057-.212.085zm8.69 3.926l.018.045.002.003c-.005-.015-.014-.031-.02-.048zm-1.186-2.06c.048.057.093.118.139.177-.047-.06-.091-.12-.139-.177zm-8.821-1.163c.062-.043.127-.081.19-.122-.063.041-.128.08-.19.122zm9.26 1.75zm-8.633-2.131zm7.671.99l.025.022-.025-.022zm1.346 1.791c.036.069.074.137.107.208-.033-.071-.071-.138-.107-.208zm-6.694-3.528c.076-.01.153-.014.23-.021-.077.007-.154.011-.23.021zm4.619 1.153c.064.045.13.088.192.135-.062-.047-.127-.09-.192-.135zm-3.081-1.16c.079.009.158.015.238.026-.08-.011-.159-.017-.238-.026zm-.789-.041c.087-.001.174 0 .262.003-.088-.003-.175-.004-.262-.003zm3.209.792zm-.692-.325c.075.03.146.064.219.096-.073-.032-.145-.066-.219-.096z" opacity=".5"/><path fill="#517298" d="M539.492 726.564c-.033-.07-.071-.139-.107-.208a6.67 6.67 0 00-.384-.65 6.343 6.343 0 00-.301-.41c-.046-.059-.091-.119-.139-.177a6.573 6.573 0 00-.498-.532l-.025-.022a6.432 6.432 0 00-.536-.449c-.062-.047-.128-.09-.192-.135a6.935 6.935 0 00-.662-.409 6.88 6.88 0 00-.473-.229c-.073-.032-.144-.067-.219-.096a6.55 6.55 0 00-.732-.246 6.608 6.608 0 00-.758-.153c-.079-.012-.158-.018-.238-.026a6.701 6.701 0 00-.527-.038c-.087-.003-.175-.003-.262-.003a6.882 6.882 0 00-.519.027c-.077.007-.154.011-.23.021a6.419 6.419 0 00-.727.129c-.236.057-.466.13-.693.211-.072.026-.142.057-.212.085a6.602 6.602 0 00-1.127.58c-.063.041-.128.079-.19.122a6.844 6.844 0 00-.577.443c6.951-3.235 10.579 2.786 10.602 2.825l-.018-.045a6.872 6.872 0 00-.256-.615z"/><path fill="#1B2733" d="M539.492 726.564c-.033-.07-.071-.139-.107-.208a6.67 6.67 0 00-.384-.65 6.343 6.343 0 00-.301-.41c-.046-.059-.091-.119-.139-.177a6.573 6.573 0 00-.498-.532l-.025-.022a6.432 6.432 0 00-.536-.449c-.062-.047-.128-.09-.192-.135a6.935 6.935 0 00-.662-.409 6.88 6.88 0 00-.473-.229c-.073-.032-.144-.067-.219-.096a6.55 6.55 0 00-.732-.246 6.608 6.608 0 00-.758-.153c-.079-.012-.158-.018-.238-.026a6.701 6.701 0 00-.527-.038c-.087-.003-.175-.003-.262-.003a6.882 6.882 0 00-.519.027c-.077.007-.154.011-.23.021a6.419 6.419 0 00-.727.129c-.236.057-.466.13-.693.211-.072.026-.142.057-.212.085a6.602 6.602 0 00-1.127.58c-.063.041-.128.079-.19.122a6.844 6.844 0 00-.577.443c6.951-3.235 10.579 2.786 10.602 2.825l-.018-.045a6.872 6.872 0 00-.256-.615z" opacity=".5"/><path fill="#B7B0C8" d="M528.857 734.104c-.055-.054-.106-.11-.159-.166.052.056.104.112.159.166zm5.755 1.82c-.048.008-.096.02-.144.027.048-.007.096-.019.144-.027zm.859-.206c-.074.023-.148.044-.222.065.074-.021.148-.042.222-.065zm-1.793.298c-.068.002-.136-.002-.204-.002.068.001.136.004.204.002zm4.063-1.529c-.058.048-.117.093-.176.139.059-.046.118-.091.176-.139zm-4.894 1.493c-.078-.008-.156-.015-.234-.026.078.011.156.019.234.026zm4.223-1.006c-.056.036-.11.074-.167.108.056-.034.111-.072.167-.108zm-.856.468c-.044.02-.09.035-.134.054.044-.019.09-.034.134-.054zm-8.786-3.435c-.03-.07-.057-.142-.085-.213.028.071.055.142.085.213zm3.596 3.525c-.074-.03-.145-.063-.217-.095.073.032.144.065.217.095zm-2.701-2.028c-.045-.057-.092-.113-.135-.171.044.059.09.114.135.171zm-1.211-2.392c.012.046.032.089.046.135l-.029-.101-.017-.034zm.655 1.583c-.012-.02-.021-.042-.032-.062.012.02.021.042.032.062zm1.668 1.925c-.01-.008-.019-.018-.03-.026.01.009.019.018.03.026zm.843.551c-.066-.037-.134-.073-.199-.112.065.039.132.075.199.112z" opacity=".25"/><path fill="#517298" d="M527.128 731.146l.029.101c.054.185.116.368.186.547.028.071.055.143.085.213.092.214.193.424.307.626l.032.062c.127.221.269.432.421.638.043.058.09.114.135.171.118.15.243.295.375.434.052.056.104.112.159.166.174.172.355.337.548.49.01.008.019.018.03.026.204.159.421.304.645.439.065.039.132.075.199.112.171.096.348.184.529.265.072.032.143.065.217.095.25.101.505.192.772.264.272.073.545.122.817.159.078.011.156.018.234.026.21.021.419.033.627.034.068 0 .136.004.204.002.266-.007.53-.027.79-.065.049-.007.096-.019.144-.027a6.512 6.512 0 00.859-.206c.207-.064.41-.138.609-.222.044-.019.09-.034.134-.054a6.63 6.63 0 00.689-.36c.057-.034.111-.072.167-.108.17-.109.335-.225.495-.348.059-.046.118-.091.176-.139a6.61 6.61 0 00.578-.533c-7.386 4.696-10.937-2.281-11.192-2.808z"/><path fill="#B7B0C8" d="M527.128 731.146l.029.101c.054.185.116.368.186.547.028.071.055.143.085.213.092.214.193.424.307.626l.032.062c.127.221.269.432.421.638.043.058.09.114.135.171.118.15.243.295.375.434.052.056.104.112.159.166.174.172.355.337.548.49.01.008.019.018.03.026.204.159.421.304.645.439.065.039.132.075.199.112.171.096.348.184.529.265.072.032.143.065.217.095.25.101.505.192.772.264.272.073.545.122.817.159.078.011.156.018.234.026.21.021.419.033.627.034.068 0 .136.004.204.002.266-.007.53-.027.79-.065.049-.007.096-.019.144-.027a6.512 6.512 0 00.859-.206c.207-.064.41-.138.609-.222.044-.019.09-.034.134-.054a6.63 6.63 0 00.689-.36c.057-.034.111-.072.167-.108.17-.109.335-.225.495-.348.059-.046.118-.091.176-.139a6.61 6.61 0 00.578-.533c-7.386 4.696-10.937-2.281-11.192-2.808z" opacity=".25"/><path fill="#517298" d="M567.373 725.075zm1.057-9.659zm-.507 10.313zm-1.041-1.411zm3.822-10.23zm-.731.313zm-.716.406zm-2.799 8.602zm6.628 4.565zm1.049-.064l.002-.003c-.273.039-.55.062-.83.069a7.11 7.11 0 00.828-.066zm-1.978-.001zm-.884-.172zm-1.068-.388zm-1.517-.91zm.729.502zm8.631-11.32zm-6.589-1.764zm7.277 2.53zm-1.296-1.275zm1.77 1.95zm-10.783-1.644a7.132 7.132 0 00-2.2 7.293c.229.473 2.895 5.702 8.324 4.632a39.637 39.637 0 004.956-9.414c-1.154-1.498-4.903-5.385-11.08-2.511zm8.339-.755zm-3.434-.992zm-.844.026zm1.671.044zm1.846.535zm-1.026-.37z"/><path fill="#1B2733" d="M572.24 713.719c.082-.01.166-.015.248-.022-.083.008-.166.012-.248.022zm-3.813 1.699l.003-.002zm.624-.478c.067-.047.138-.089.207-.133-.07.044-.14.086-.207.133zm7.468-.416zm-.748-.351c.08.032.157.069.235.103-.079-.035-.155-.072-.235-.103zm-1.869-.461c.086.009.171.016.257.029-.086-.013-.171-.019-.257-.029zm-.852-.044zm-2.574.511c.076-.03.151-.063.228-.091-.077.028-.152.06-.228.091zm-.747.348zm7.506.44c.069.048.139.094.206.145-.067-.051-.138-.097-.206-.145zm2.343 2.764l.001-.003c-.032-.066-.069-.128-.102-.193.034.065.069.129.101.196zm-.992-1.535c.053.062.1.128.151.191-.051-.064-.099-.129-.151-.191zm.475.634zm-1.038-1.231l.025.022-.025-.022z" opacity=".5"/><path fill="#517298" d="M579.21 717.062a6.987 6.987 0 00-.474-.675c-.05-.064-.098-.129-.151-.191a7.293 7.293 0 00-.538-.575l-.025-.022a7.189 7.189 0 00-.582-.488c-.067-.05-.137-.096-.206-.145a6.96 6.96 0 00-.716-.443 6.752 6.752 0 00-.514-.248c-.078-.034-.155-.071-.235-.103a7.29 7.29 0 00-.792-.267 7.214 7.214 0 00-.82-.165c-.086-.013-.171-.019-.257-.029a6.824 6.824 0 00-.57-.041c-.094-.003-.189-.004-.282-.003a7.498 7.498 0 00-.562.029c-.083.007-.166.012-.248.022a7.244 7.244 0 00-.781.138 7.23 7.23 0 00-.755.23c-.077.028-.152.061-.228.091a7.302 7.302 0 00-.746.347 7.23 7.23 0 00-.472.28c-.069.044-.139.086-.207.133a7.127 7.127 0 00-.623.478c6.176-2.874 9.925 1.013 11.079 2.511l.072-.199c-.032-.066-.067-.131-.101-.196a8.133 8.133 0 00-.266-.469z"/><path fill="#1B2733" d="M579.21 717.062a6.987 6.987 0 00-.474-.675c-.05-.064-.098-.129-.151-.191a7.293 7.293 0 00-.538-.575l-.025-.022a7.189 7.189 0 00-.582-.488c-.067-.05-.137-.096-.206-.145a6.96 6.96 0 00-.716-.443 6.752 6.752 0 00-.514-.248c-.078-.034-.155-.071-.235-.103a7.29 7.29 0 00-.792-.267 7.214 7.214 0 00-.82-.165c-.086-.013-.171-.019-.257-.029a6.824 6.824 0 00-.57-.041c-.094-.003-.189-.004-.282-.003a7.498 7.498 0 00-.562.029c-.083.007-.166.012-.248.022a7.244 7.244 0 00-.781.138 7.23 7.23 0 00-.755.23c-.077.028-.152.061-.228.091a7.302 7.302 0 00-.746.347 7.23 7.23 0 00-.472.28c-.069.044-.139.086-.207.133a7.127 7.127 0 00-.623.478c6.176-2.874 9.925 1.013 11.079 2.511l.072-.199c-.032-.066-.067-.131-.101-.196a8.133 8.133 0 00-.266-.469z" opacity=".5"/><path fill="#B7B0C8" d="M568.72 726.467l-.032-.028.032.028zm1.718.985c-.079-.032-.156-.068-.234-.102.078.034.155.07.234.102zm-.807-.39c-.071-.04-.144-.078-.214-.12.07.042.142.08.214.12zm3.676.914c-.073.002-.147-.002-.221-.002.074 0 .148.004.221.002zm-.899-.039c-.084-.009-.167-.016-.251-.028.084.012.167.02.251.028zm-5.857-4.295a6.646 6.646 0 01-.093-.233c.031.079.06.156.093.233zm.367.744c-.013-.022-.023-.046-.035-.068.012.022.022.046.035.068zm-.709-1.712c.014.05.036.098.05.148l-.032-.11a4.914 4.914 0 01-.018-.038zm1.886 3.235c-.059-.058-.115-.119-.172-.18.057.061.113.122.172.18zm-.576-.648c-.049-.062-.099-.122-.146-.186.046.064.097.124.146.186z" opacity=".25"/><path fill="#517298" d="M566.227 722.712l.032.11c.058.199.124.395.199.587.03.078.06.156.093.233.099.231.208.457.331.675.013.022.022.046.035.068.137.239.291.467.455.689.047.063.097.124.146.186.128.162.263.318.404.469.057.06.113.121.172.18.188.186.384.365.593.53l.032.028c.22.172.455.328.697.475.07.042.142.081.214.12.186.104.377.2.574.287.078.035.154.07.234.102.27.109.546.208.834.285.294.079.59.132.884.172.084.012.167.019.251.028.227.023.453.035.679.037.074 0 .148.004.221.002.279-.007.556-.03.83-.069.139-.187.279-.374.414-.564-5.429 1.072-8.096-4.157-8.324-4.63z"/><path fill="#B7B0C8" d="M566.227 722.712l.032.11c.058.199.124.395.199.587.03.078.06.156.093.233.099.231.208.457.331.675.013.022.022.046.035.068.137.239.291.467.455.689.047.063.097.124.146.186.128.162.263.318.404.469.057.06.113.121.172.18.188.186.384.365.593.53l.032.028c.22.172.455.328.697.475.07.042.142.081.214.12.186.104.377.2.574.287.078.035.154.07.234.102.27.109.546.208.834.285.294.079.59.132.884.172.084.012.167.019.251.028.227.023.453.035.679.037.074 0 .148.004.221.002.279-.007.556-.03.83-.069.139-.187.279-.374.414-.564-5.429 1.072-8.096-4.157-8.324-4.63z" opacity=".25"/><path fill="#364C67" d="M580.778 684.415c0-2.816-3.003-5.12-6.674-5.12h-64.056c-3.671 0-6.674 2.304-6.674 5.12 0 2.816 3.003 5.12 6.674 5.12h64.056c3.67.001 6.674-2.304 6.674-5.12z" opacity=".6"/><path fill="#88ACD4" d="M583.384 683.381c0-3.046-3.215-5.538-7.144-5.538h-67.713c-3.929 0-7.144 2.492-7.144 5.538s3.215 5.538 7.144 5.538h67.713c3.929 0 7.144-2.492 7.144-5.538z"/><path fill="#B5CAE2" stroke="#E5ECF5" stroke-linecap="round" stroke-miterlimit="10" stroke-width="1.234" d="M509.079 680.271h42.711" opacity=".1"/><path fill="#B5CAE2" stroke="#E5ECF5" stroke-linecap="round" stroke-miterlimit="10" stroke-width="1.103" d="M554.873 680.271h3.084" opacity=".15"/><path fill="#B5CAE2" stroke="#E5ECF5" stroke-linecap="round" stroke-miterlimit="10" stroke-width="1.234" d="M561.118 680.271h13.389" opacity=".2"/><use xlink:href="#b"/><circle cx="722.965" cy="400.959" r="60" fill="#517298"/><circle cx="755.626" cy="416.709" r="11" fill="#E8C647"/><circle cx="755.626" cy="385.209" r="11" fill="#E8C647"/><circle cx="361.803" cy="400.959" r="60" fill="#517298"/><circle cx="329.142" cy="416.709" r="11" fill="#E8C647"/><circle cx="329.142" cy="385.209" r="11" fill="#E8C647"/><ellipse cx="542.384" cy="406.459" fill="#FFF" rx="194.5" ry="182.5"/><ellipse cx="542.384" cy="399.879" fill="#22113F" rx="166" ry="140.54"/><path fill="#D2CDD6" d="M542.384 540.419c-130.712 0-166-62.922-166-140.54 8 32.42 60 137.42 166 140.54z" opacity=".2"/><use xlink:href="#b"/><g><path fill="#88ACD4" d="M695.75 815.808c-40.828 17.967-82.012 29.339-122.591 33.794a365.103 365.103 0 01-26.402 1.935c5.893 11.277 9.628 21.214 11.905 28.424a394.296 394.296 0 0016.603-1.421c35.661-3.819 71.67-12.573 107.473-26.086 5.548-11.839 9.813-24.139 13.012-36.646zm-160.971 35.959c-22.278.07-44.274-1.95-65.738-6.071-36.989-7.102-66.444-19.576-82.718-28.288 3.463 13.145 8.116 26.049 14.215 38.414 16.129 6.461 36.803 13.2 61.489 18.051 19.9 3.911 40.212 6.146 60.765 6.733 2.24-7.208 5.987-17.319 11.987-28.839zm167.058-146.241c-16.768-18.793-38.734-49.523-46.99-88.273a375.12 375.12 0 01-28.017 7.664c12.709 57.413 49.981 98.19 68.14 115.231-39.359 17.237-79.039 28.325-118.187 33.014a6.161 6.161 0 011.612 4.157v24.083c0 .262-.022.519-.053.773 41.463-4.767 83.373-16.175 124.862-33.986 1.497-21.674.669-42.997-1.367-62.663zm-198.441 71.793c0-1.012.248-1.964.678-2.808a337.918 337.918 0 01-35.033-4.815c-37.442-7.189-67.179-19.886-83.323-28.611 17.737-16.436 56.134-57.61 69.113-116.03-10.812-2.445-20.234-5.066-28.047-7.506-8.31 38.641-30.237 69.281-46.967 88.022-2.089 20.197-2.901 42.141-1.232 64.416 16.994 8.513 45.494 20.427 83.443 27.885 13.745 2.701 27.689 4.589 41.77 5.705a6.163 6.163 0 01-.401-2.176v-24.082z"/><path fill="#517298" d="M578.396 777.319a6.164 6.164 0 00-1.612-4.157 6.171 6.171 0 00-4.58-2.035h-62.615a6.189 6.189 0 00-5.515 3.385 6.165 6.165 0 00-.678 2.808v24.083c0 .767.146 1.498.401 2.176a6.19 6.19 0 005.792 4.017h62.615a6.19 6.19 0 006.139-5.419c.032-.254.053-.511.053-.773v-24.085zm-10.666 14.45v6.881h-53.669v-6.881h53.669zm-53.669-5.504v-6.881h53.669v6.881h-53.669z"/><path fill="#FFF" d="M514.061 779.384h53.669v6.881h-53.669zm0 12.385h53.669v6.881h-53.669z"/></g><g><path fill="#5C5B60" d="M600.981 635.114l.454-1.198-.865.436-1.384.7-1.372.69 4.275 35.268 8.242 16.329s6.484.67 8.491.796c6.056.376 2.308-8.01 2.308-8.01l-10.735-22.753h.008l-.608-1.855-1.511-.035-.307-1.547-1.579-.38.529-1.555-1.259-.542.667-1.208-1.419-1.368 1.067-.919-.952-1.379 1.379-.732-.7-1.505.419-1.128-1.238-.353.453-1.205-1.237-.346.456-1.202-1.238-.35.453-1.205-1.236-.347.453-1.203-1.237-.349.456-1.2-1.233-.345zm2.625-1.325l-1.234-.346.864-.437 1.385-.698 1.37-.692 25.833 24.388 8.239 16.329s-3.312 5.617-4.403 7.303c-3.294 5.097-7.815-2.899-7.815-2.899l-11.927-22.151-.004.004-1.131-1.588.87-1.236-1.063-1.169.631-1.496-1.564-.499.313-1.332-1.368-.183-.257-1.955-1.372.313-.545-1.583-1.409.673-.794-1.457-1.158-.332.452-1.207-1.238-.35.454-1.201-1.236-.35.453-1.203-1.238-.35.454-1.201-1.235-.35.453-1.203-1.236-.347.456-1.195zm32.031 62.68l7.565-7.014-6.042-6.403-7.566 7.015z"/><path fill="#ECC146" d="M653.058 693.077l-10.195-4.636-8.7 7.931 3.768 7.447s13.853 2.297 26.114 26.917c9.992 20.063 18.567 54.948 27.175 50.604 9.912-5.003-6.83-48.555-28.217-71.476.001-.001-12.623-10.874-9.945-16.787z"/><path fill="#5C5B60" d="M632.377 698.115l-10.137 1.919-1.561-8.665 10.137-1.92z"/><path fill="#ECC146" d="M619.298 710.114l2.328-10.954 11.547-2.29 3.754 7.455s-6.381 12.509 6.14 36.998c10.205 19.955 33.176 47.575 24.567 51.919-9.914 5.004-35.004-34.335-40.739-65.155 0-.001-1.247-16.614-7.597-17.973z"/><path fill="#A38A40" d="M639.943 686.029l.12-13.696-8.239-16.329-.906 1.603 6.342 18.728.289 7.22zm-18.459 9.48l-11.09-8.04-8.241-16.328 1.826.224 11.301 16.228 5.636 4.52z"/><path fill="#5C5B60" d="M636.784 674.258c3.202 6.342.655 14.074-5.684 17.273s-14.073.654-17.273-5.687c-3.199-6.339-.653-14.071 5.686-17.27 6.34-3.199 14.073-.654 17.271 5.684z"/><path fill="#A38A40" d="M631.533 676.909a6.816 6.816 0 11-12.17 6.14 6.816 6.816 0 0112.17-6.14zm35.268 37.203c10.784 19.591 15.735 45.418 17.901 56.582 1.286 6.628 3.998 9.489 6.323 10.707.084-.033.167-.047.25-.09 9.326-4.706-4.945-43.532-24.474-67.199zM628.17 733.61c9.354 20.312 27.19 39.637 34.885 48.011 4.569 4.971 5.258 8.85 4.856 11.447-.076.047-.137.105-.221.147-9.325 4.706-32.083-29.836-39.52-59.605z"/></g><g><path fill="#5C5B60" d="M679.643 628.29c-.68 5.246-10.015 52.185-10.015 52.185l4.285.83s9.331-49.189 10.103-52.167c1.331-5.124 2.868-7.851 3.56-11.414l3.08-15.878-6.968-1.352-3.078 15.878c-.693 3.566-.285 6.671-.967 11.918z"/><path fill="#ECC146" d="M652.371 711.94c-1.224 5.364-6.532 34.937-6.532 34.937s-1.225 4.407 2.168 6.92c1.949 1.442 5.28 3.273 8.866 4.072 3.624.6 7.398.146 9.746-.463 4.083-1.062 4.596-5.608 4.596-5.608s6.13-29.414 6.999-34.848c.871-5.434.074-7.817-.919-14.101-.99-6.285 4.28-12.011 4.28-12.011 1.51-.701 2.462-3.681 2.607-6.504.201-3.968-6.604-6.851-10.317-7.81a16.26 16.26 0 00-1.172-.253 16.36 16.36 0 00-1.181-.202c-3.799-.499-11.166-.36-12.486 3.387-.899 2.556-1.152 5.791-.012 7.008 0 0 2.747 7.283-.521 12.739-3.268 5.458-4.899 7.371-6.122 12.737z"/><path fill="#A38A40" d="M663.297 709.419a5.297 5.297 0 016.212-4.193 5.301 5.301 0 014.193 6.211l-7.814 40.292a5.299 5.299 0 01-10.405-2.018l7.814-40.292zm.025-26.481l1.323-6.824c-2.618.409-4.953 1.381-5.641 3.338-.902 2.556-1.154 5.793-.015 7.006 0 0 .091.24.216.659a5.302 5.302 0 004.117-4.179zm-12.763 65.818l7.813-40.291a5.3 5.3 0 00-2.256-5.413c-1.78 2.918-2.884 4.998-3.769 8.883-1.224 5.364-6.532 34.937-6.532 34.937s-.944 3.402 1.13 5.932a5.297 5.297 0 003.614-4.048zm17.688-64.864a5.302 5.302 0 004.194 6.213 5.302 5.302 0 006.211-4.194l1.339-6.908c-2.04-1.181-4.413-2.034-6.126-2.477a16.26 16.26 0 00-1.172-.253 16.36 16.36 0 00-1.181-.202 24.826 24.826 0 00-1.718-.162l-1.547 7.983z"/></g><g><path fill="#AEACB2" d="M681.322 761.983l4.025 26.576s11.153-8.72 9.026-22.766c-2.128-14.047-15.534-20.133-19.276-20.208l-12.305-81.572s15.092-7.416 12.513-24.436c-2.297-15.165-15.45-19.646-15.45-19.646l4.025 26.578-23.693 3.59-4.03-26.578s-11.316 7.6-9.021 22.767c2.297 15.165 15.422 19.45 19.317 20.227l12.266 81.552s-15.075 7.515-12.427 25.008c2.231 14.738 15.362 19.074 15.362 19.074l-4.053-26.78 23.721-3.386z"/><path fill="#5C5B60" d="M666.421 744.021c-3.365.502-6.521-1.873-7.031-5.294l-9.423-63.16c-.512-3.419 1.813-6.612 5.179-7.114s6.521 1.873 7.031 5.292l9.424 63.162c.513 3.421-1.812 6.612-5.18 7.114z"/><path fill="#868489" d="M655.574 671.318c-1.813.271-3.065 1.988-2.79 3.83l9.424 63.162c.275 1.841 1.975 3.119 3.786 2.849 1.813-.271 3.063-1.988 2.788-3.832l-9.423-63.16c-.274-1.845-1.972-3.12-3.785-2.849zm-18.58-17.154l31.399-4.756-4.133-27.29c-2.425-1.582-4.269-2.207-4.269-2.207l4.028 26.576-23.695 3.588-4.032-26.575s-1.593 1.072-3.463 3.209l4.165 27.455z"/><path fill="#5C5B60" d="M636.464 654.849l32.636-4.94-4.139-27.326-.703-.465 4.135 27.29-31.401 4.754-4.162-27.442c-.177.203-.356.418-.536.639l4.17 27.49z"/><path fill="#868489" d="M684.515 757.915l-31.399 4.756 4.135 27.288c2.425 1.582 4.269 2.209 4.269 2.209l-4.027-26.576 23.693-3.588 4.032 26.575s1.592-1.07 3.463-3.209l-4.166-27.455z"/><path fill="#5C5B60" d="M685.047 757.227l-32.636 4.944 4.138 27.324.704.463-4.133-27.289 31.399-4.754 4.164 27.442c.177-.203.357-.416.538-.637l-4.174-27.493z"/></g><g><path fill="#331B42" d="M622.952 704.951c17.066.004 41.666 9.832 50.515-1.881 4.972-6.581 8.136-15.011 10.11-23.8l-.346-.151c-2.191 8.287-5.885 16.035-11.866 21.849-10.527 10.233-33.45 1.885-50.515 1.881-55.626-.013-56.892 46.356-33.049 68.739-21.613-23.053-18.786-66.65 35.151-66.637z" opacity=".15"/><path fill="#FFF" d="M737.47 703.948l-51.88-74.471s3.289 26.194-2.013 49.792c-1.974 8.789-5.138 17.219-10.11 23.8-8.849 11.713-33.45 1.885-50.515 1.881-53.937-.012-56.765 43.585-35.151 66.638 3.675 3.92 8.052 7.25 13.01 9.666 43.909 21.4 149.784 23.438 136.659-77.306z"/></g><g><path fill="#FFF" d="M666.198 792.798c-.495.034-.99.07-1.485.099.495-.029.99-.064 1.485-.099zm2.612-.209c-.392.036-.784.074-1.176.105.392-.032.784-.07 1.176-.105zm10.536-1.44l-.151.029.151-.029zm-78.471-9.898c-21.353-10.405-32.019-37.668-21.564-56.614 2.086 13.982 11.412 27.704 25.182 34.417 36.501 17.787 115.829 22.196 134.007-34.708.034-.892.07-1.781.081-2.693l-67.602-16.114c-10.354 7.694-32.364-.585-48.026-.588-63.109-.014-56.256 59.678-22.141 76.304 14.598 7.115 36.046 12.083 57.693 11.851-21.625.222-43.046-4.747-57.63-11.855zm60.17 11.803zm10.388-.732c-.296.033-.59.069-.886.1.296-.031.591-.067.886-.1zm-7.825.63c-.608.03-1.216.06-1.825.081.608-.021 1.217-.051 1.825-.081zm13.105-1.349c-.128.021-.256.043-.385.063.129-.02.257-.042.385-.063zm-2.646.392c-.206.028-.412.058-.619.085.207-.027.413-.057.619-.085z"/><path fill="#FFF" d="M604.493 759.055c-13.77-6.714-23.096-20.436-25.182-34.417-10.455 18.946.21 46.209 21.564 56.614 14.585 7.108 36.005 12.077 57.63 11.855l.352-.002c.729-.009 1.459-.029 2.189-.05.246-.007.492-.012.738-.021.609-.021 1.217-.051 1.825-.081.368-.018.737-.034 1.105-.055.495-.029.99-.065 1.485-.099.479-.033.957-.065 1.436-.104.393-.032.784-.07 1.176-.105.58-.052 1.159-.106 1.737-.167.296-.031.591-.067.886-.1.673-.076 1.345-.155 2.015-.242.207-.027.412-.057.619-.085.756-.103 1.51-.211 2.261-.328l.385-.063a113.728 113.728 0 002.633-.454c30.973-5.741 57.748-24.844 59.235-67.042-.026.081-.055.159-.081.24-18.179 56.901-97.506 52.493-134.008 34.706z"/><path fill="#331B42" d="M604.493 759.055c-13.77-6.714-23.096-20.436-25.182-34.417-10.455 18.946.21 46.209 21.564 56.614 14.585 7.108 36.005 12.077 57.63 11.855l.352-.002c.729-.009 1.459-.029 2.189-.05.246-.007.492-.012.738-.021.609-.021 1.217-.051 1.825-.081.368-.018.737-.034 1.105-.055.495-.029.99-.065 1.485-.099.479-.033.957-.065 1.436-.104.393-.032.784-.07 1.176-.105.58-.052 1.159-.106 1.737-.167.296-.031.591-.067.886-.1.673-.076 1.345-.155 2.015-.242.207-.027.412-.057.619-.085.756-.103 1.51-.211 2.261-.328l.385-.063a113.728 113.728 0 002.633-.454c30.973-5.741 57.748-24.844 59.235-67.042-.026.081-.055.159-.081.24-18.179 56.901-97.506 52.493-134.008 34.706z" opacity=".1"/></g><g><path fill="#E7BB4C" d="M679.704 272.462c0 8.954-60.73 23.762-135.649 23.762-74.931 0-135.671-14.808-135.671-23.762 0-8.949 60.74-16.205 135.671-16.205 74.919 0 135.649 7.256 135.649 16.205z"/><path fill="#F0BE58" d="M542.942 290.099c-63.807 0-115.529-12.611-115.529-20.233 0-1.897 3.204-3.704 8.985-5.347-14.019 2.283-22.321 5.105-22.321 8.154 0 7.622 51.734 20.236 115.53 20.236 37.288 0 70.431-4.314 91.566-9.411-20.576 3.779-48.048 6.601-78.231 6.601z"/><path fill="#E7BB4C" d="M671.156 268.082c-.156-.082.491-.821.491-8.891 0-61.108-57.663-110.642-128.788-110.642-71.115 0-128.78 49.534-128.78 110.642 0 8.07.921 8.809.599 9.753 0 0 145.455 30.312 256.478-.862z"/><path fill="#ECC869" d="M626.389 276.241c5.715-.51 11.262-1.931 16.987-2.463 1.923-.175 3.814-.328 5.738-.464 1.197-5.794 1.86-11.747 1.86-17.84 0-56.611-53.423-102.501-119.312-102.501-3.709 0-7.407.168-11.049.454 60.73 4.789 108.274 48.637 108.274 102.046 0 7.124-.897 14.06-2.498 20.768z"/><path fill="#AD8B38" d="M542.858 148.044c-71.115 0-128.78 49.537-128.78 110.64 0 3.466.224 6.88.599 10.26.46.113.907.273 1.334.452 13.76.82 27.309 4.421 40.975 6.824a95.351 95.351 0 01-1.645-17.535c0-55.07 46.85-100.726 108.157-109.209a150.328 150.328 0 00-20.64-1.432z"/><path fill="#4B3B12" d="M480.16 162.145s38.399 13.481 34.125 105.937c0 0-10.78-87.991-50.921-96.458-.001 0 10.042-6.503 16.796-9.479zm121.49-1.464s-37.943 14.683-30.76 106.963c0 0 7.983-88.289 47.857-98.023.001 0-10.242-6.187-17.097-8.94z" opacity=".5"/><path fill="#E7BB4C" d="M515.453 275.358s.32-83.389-39.138-106.608c0 0-3.9-5.103 1.796-8.902 0 0 48.014-36.975 118.212-6.517 0 0 13.42 3.594 3.685 13.863 0 0-32.094 41.754-32.521 108.164h-52.034z"/><path fill="#ECC869" d="M588.384 158.44c-21.337-9.257-40.388-11.628-56.328-10.719 12.993.764 27.576 3.843 43.422 10.719 0 0 12.169 3.261 3.332 12.569 0 0-31.614 44.114-32.01 104.342h12.906c.386-60.228 32.01-104.342 32.01-104.342 8.838-9.308-3.332-12.569-3.332-12.569z"/><path fill="#AD8B38" d="M497.246 174.984s-3.9-5.11 1.794-8.907c0 0 35.687-27.429 90.475-15.512-66.478-25.316-111.404 9.282-111.404 9.282-5.697 3.797-1.796 8.898-1.796 8.898 39.458 23.22 39.138 106.606 39.138 106.606h20.758c-.821-19.772-6.056-81.004-38.965-100.367z"/><path fill="#A5A6A9" d="M671.156 271.082s-108.029 26.867-257.077.641c0 .001 141.632 35.442 257.077-.641z" opacity=".45"/></g><g><path fill="#FFF" d="M272.835 650.417s-3.092 8.992 1.162 13.289c6.562 6.643 20.511-12.326 24.655-12.424"/></g></svg>