<svg xmlns="http://www.w3.org/2000/svg" viewBox="0 0 2700 620"><path fill="#FFF" d="M793.358 216.799c3.598 6.578 7.741 14.703 12.441 24.369 4.695 9.671 9.592 20.136 14.688 31.395a1642.642 1642.642 0 0115.142 34.534c4.994 11.765 9.689 22.827 14.09 33.189a60646.5 60646.5 0 0114.091-33.189 1614.873 1614.873 0 0115.137-34.534c5.097-11.259 9.993-21.724 14.693-31.395 4.695-9.666 8.844-17.791 12.441-24.369h42.458c1.99 13.754 3.835 29.152 5.531 46.195 1.691 17.044 3.187 34.787 4.484 53.223a5099.657 5099.657 0 013.589 55.464 5238.619 5238.619 0 012.84 52.325h-45.448c-.598-20.131-1.396-42.056-2.392-65.779-1-23.72-2.495-47.64-4.485-71.761-3.602 8.372-7.601 17.642-11.997 27.808-4.4 10.166-8.75 20.332-13.049 30.498a4336.568 4336.568 0 01-12.445 29.152c-3.999 9.269-7.4 17.192-10.199 23.771h-32.591a5800.306 5800.306 0 00-10.198-23.771 4402.715 4402.715 0 01-12.451-29.152 4029.257 4029.257 0 00-13.044-30.498 11852.1 11852.1 0 01-11.997-27.808 1771.14 1771.14 0 00-4.485 71.761c-.999 23.724-1.794 45.648-2.392 65.779h-45.448a4983.271 4983.271 0 012.841-52.325 4861.002 4861.002 0 013.588-55.464c1.294-18.436 2.789-36.179 4.485-53.223 1.691-17.043 3.536-32.441 5.531-46.195h44.551zM1150.66 345.07c0 12.361-1.794 23.672-5.383 33.937-3.588 10.269-8.773 19.038-15.548 26.312-6.778 7.279-14.903 12.908-24.368 16.894-9.47 3.985-20.084 5.98-31.844 5.98-11.562 0-22.079-1.995-31.544-5.98-9.47-3.985-17.595-9.614-24.369-16.894-6.778-7.273-12.062-16.043-15.847-26.312-3.789-10.265-5.681-21.575-5.681-33.937 0-12.357 1.943-23.621 5.83-33.787s9.27-18.837 16.146-26.013c6.877-7.177 15.048-12.755 24.518-16.744 9.465-3.985 19.78-5.98 30.946-5.98 11.362 0 21.775 1.995 31.246 5.98 9.465 3.989 17.589 9.567 24.368 16.744 6.774 7.176 12.058 15.847 15.847 26.013 3.786 10.166 5.683 21.43 5.683 33.787zm-45.448 0c0-13.754-2.742-24.564-8.223-32.441-5.484-7.872-13.306-11.811-23.472-11.811s-18.043 3.938-23.621 11.811c-5.583 7.877-8.372 18.688-8.372 32.441s2.789 24.667 8.372 32.74c5.578 8.073 13.455 12.109 23.621 12.109s17.987-4.036 23.472-12.109c5.481-8.073 8.223-18.986 8.223-32.74zm226.939 0c0 12.361-1.794 23.672-5.382 33.937-3.588 10.269-8.774 19.038-15.548 26.312-6.779 7.279-14.903 12.908-24.369 16.894-9.47 3.985-20.084 5.98-31.843 5.98-11.563 0-22.08-1.995-31.545-5.98-9.47-3.985-17.595-9.614-24.368-16.894-6.779-7.273-12.063-16.043-15.848-26.312-3.789-10.265-5.681-21.575-5.681-33.937 0-12.357 1.943-23.621 5.83-33.787 3.888-10.166 9.27-18.837 16.146-26.013 6.877-7.177 15.048-12.755 24.518-16.744 9.466-3.985 19.781-5.98 30.947-5.98 11.361 0 21.775 1.995 31.245 5.98 9.465 3.989 17.59 9.567 24.368 16.744 6.774 7.176 12.059 15.847 15.848 26.013 3.786 10.166 5.682 21.43 5.682 33.787zm-45.448 0c0-13.754-2.742-24.564-8.223-32.441-5.484-7.872-13.306-11.811-23.471-11.811-10.166 0-18.043 3.938-23.621 11.811-5.583 7.877-8.372 18.688-8.372 32.441s2.789 24.667 8.372 32.74c5.578 8.073 13.455 12.109 23.621 12.109 10.165 0 17.986-4.036 23.471-12.109 5.481-8.073 8.223-18.986 8.223-32.74zm79.831-72.956c7.573-2.191 17.343-4.232 29.303-6.13 11.96-1.892 24.518-2.84 37.674-2.84 13.352 0 24.467 1.747 33.338 5.232 8.867 3.489 15.895 8.423 21.08 14.8 5.181 6.382 8.867 13.955 11.062 22.725 2.191 8.773 3.289 18.538 3.289 29.302v88.803h-44.551v-83.421c0-14.352-1.896-24.518-5.681-30.498-3.789-5.979-10.867-8.97-21.229-8.97-3.19 0-6.578.149-10.166.448s-6.778.649-9.567 1.047v121.394h-44.552V272.114zm322.319 73.255c0 12.161-1.494 23.224-4.484 33.188-2.99 9.971-7.377 18.538-13.156 25.715-5.784 7.176-12.96 12.759-21.528 16.743-8.572 3.985-18.439 5.98-29.601 5.98-6.181 0-11.96-.598-17.342-1.794s-10.568-2.888-15.548-5.083v59.202h-44.552V272.114c3.985-1.196 8.568-2.341 13.754-3.438a242.35 242.35 0 0116.296-2.841 322.745 322.745 0 0117.342-1.943c5.877-.495 11.512-.747 16.894-.747 12.955 0 24.519 1.943 34.685 5.83s18.733 9.372 25.714 16.445c6.975 7.077 12.306 15.697 15.996 25.863 3.685 10.166 5.53 21.529 5.53 34.086zm-45.448 1.196c0-13.754-3.093-24.766-9.27-33.04-6.181-8.269-15.352-12.408-27.508-12.408-3.99 0-7.676.149-11.063.448-3.392.299-6.181.649-8.371 1.047v80.431c2.789 1.794 6.428 3.289 10.913 4.485a52.61 52.61 0 0013.604 1.794c21.127 0 31.695-14.249 31.695-42.757zm226.938-1.495c0 12.361-1.794 23.672-5.382 33.937-3.588 10.269-8.774 19.038-15.548 26.312-6.779 7.279-14.903 12.908-24.369 16.894-9.47 3.985-20.084 5.98-31.843 5.98-11.563 0-22.08-1.995-31.545-5.98-9.47-3.985-17.595-9.614-24.368-16.894-6.779-7.273-12.063-16.043-15.848-26.312-3.789-10.265-5.681-21.575-5.681-33.937 0-12.357 1.943-23.621 5.83-33.787 3.888-10.166 9.27-18.837 16.146-26.013 6.877-7.177 15.048-12.755 24.518-16.744 9.466-3.985 19.781-5.98 30.947-5.98 11.361 0 21.775 1.995 31.245 5.98 9.465 3.989 17.59 9.567 24.368 16.744 6.774 7.176 12.059 15.847 15.848 26.013 3.785 10.166 5.682 21.43 5.682 33.787zm-45.448 0c0-13.754-2.742-24.564-8.223-32.441-5.484-7.872-13.306-11.811-23.471-11.811-10.166 0-18.043 3.938-23.621 11.811-5.583 7.877-8.372 18.688-8.372 32.441s2.789 24.667 8.372 32.74c5.578 8.073 13.455 12.109 23.621 12.109 10.165 0 17.986-4.036 23.471-12.109 5.48-8.073 8.223-18.986 8.223-32.74zm78.335-117.507l44.552-7.177v46.346h53.521v37.075h-53.521v55.315c0 9.372 1.645 16.847 4.934 22.425 3.289 5.583 9.913 8.372 19.883 8.372 4.784 0 9.718-.448 14.801-1.346 5.083-.896 9.718-2.14 13.903-3.737l6.279 34.685c-5.382 2.195-11.362 4.088-17.94 5.681s-14.65 2.392-24.219 2.392c-12.161 0-22.229-1.645-30.199-4.934-7.975-3.288-14.352-7.872-19.136-13.754-4.784-5.877-8.124-13.006-10.017-21.378-1.896-8.372-2.841-17.642-2.841-27.808V227.563zm166.54 183.586c0 4.588-1.448 8.475-4.335 11.661-2.893 3.186-6.929 4.783-12.109 4.783-5.187 0-9.223-1.598-12.109-4.783-2.893-3.187-4.336-7.073-4.336-11.661 0-4.583 1.443-8.471 4.336-11.661 2.887-3.187 6.923-4.784 12.109-4.784 5.181 0 9.217 1.598 12.109 4.784 2.886 3.191 4.335 7.078 4.335 11.661zm110.028 16.146c-11.96 0-22.528-1.896-31.694-5.681-9.171-3.784-16.795-9.218-22.873-16.296-6.083-7.073-10.718-15.548-13.904-25.415-3.19-9.867-4.783-20.78-4.783-32.74 0-12.156 1.645-23.219 4.934-33.189 3.289-9.965 8.021-18.537 14.202-25.714 6.176-7.176 13.651-12.707 22.425-16.594 8.77-3.888 18.637-5.831 29.602-5.831 8.371 0 16.192.701 23.471 2.093 7.274 1.397 12.904 3.191 16.894 5.383l-5.083 16.743c-3.989-1.99-8.475-3.588-13.455-4.783-4.984-1.196-11.66-1.794-20.032-1.794-17.146 0-30.152 5.531-39.02 16.594-8.872 11.063-13.306 26.761-13.306 47.093 0 9.171.995 17.595 2.99 25.266 1.99 7.676 5.232 14.254 9.717 19.734 4.485 5.484 10.265 9.769 17.343 12.856 7.072 3.093 15.697 4.635 25.863 4.635 8.372 0 15.398-.944 21.079-2.841 5.681-1.892 9.815-3.536 12.408-4.934l4.187 16.744c-3.588 1.995-9.223 3.938-16.894 5.831-7.678 1.892-15.699 2.84-24.071 2.84zm205.41-80.431c0 12.161-1.747 23.224-5.232 33.188-3.49 9.97-8.372 18.44-14.651 25.415-6.279 6.98-13.707 12.409-22.275 16.296-8.573 3.887-18.043 5.83-28.405 5.83-10.366 0-19.837-1.943-28.405-5.83-8.572-3.887-15.996-9.315-22.275-16.296-6.278-6.975-11.165-15.445-14.65-25.415-3.49-9.965-5.232-21.027-5.232-33.188 0-12.156 1.742-23.22 5.232-33.189 3.485-9.965 8.372-18.486 14.65-25.564 6.279-7.073 13.703-12.558 22.275-16.444 8.568-3.888 18.039-5.831 28.405-5.831 10.362 0 19.832 1.943 28.405 5.831 8.568 3.887 15.996 9.371 22.275 16.444 6.279 7.078 11.161 15.6 14.651 25.564 3.485 9.97 5.232 21.033 5.232 33.189zm-20.631 0c0-19.332-4.485-34.73-13.455-46.195-8.971-11.461-21.131-17.192-36.479-17.192-15.352 0-27.508 5.731-36.478 17.192-8.971 11.465-13.455 26.863-13.455 46.195 0 19.337 4.484 34.684 13.455 46.046 8.97 11.362 21.126 17.043 36.478 17.043 15.348 0 27.508-5.681 36.479-17.043 8.97-11.362 13.455-26.709 13.455-46.046zm62.785-72.059c5.779-1.593 13.306-3.387 22.574-5.382 9.27-1.99 21.276-2.99 36.03-2.99 19.533 0 33.684 5.682 42.458 17.044.995-.795 2.938-2.141 5.83-4.037 2.888-1.892 6.526-3.836 10.913-5.83 4.383-1.99 9.517-3.687 15.399-5.083 5.877-1.393 12.408-2.094 19.584-2.094 11.759 0 21.275 1.748 28.555 5.233 7.274 3.489 12.903 8.372 16.894 14.65 3.985 6.279 6.676 13.806 8.073 22.574 1.392 8.774 2.093 18.342 2.093 28.704v86.411h-19.436v-80.132c0-10.166-.448-18.986-1.345-26.461-.897-7.476-2.691-13.651-5.383-18.538-2.69-4.883-6.531-8.568-11.511-11.063-4.985-2.49-11.465-3.737-19.436-3.737-5.979 0-11.413.551-16.295 1.645-4.887 1.098-9.12 2.443-12.708 4.036-3.588 1.598-6.531 3.191-8.82 4.784-2.294 1.598-3.938 2.794-4.934 3.588 1.794 5.186 3.14 11.017 4.036 17.491.897 6.48 1.346 13.306 1.346 20.482v87.905h-19.435v-80.132c0-10.166-.449-18.986-1.346-26.461-.897-7.476-2.742-13.651-5.531-18.538-2.794-4.883-6.728-8.568-11.811-11.063-5.083-2.49-11.811-3.737-20.183-3.737-9.372 0-17.295.5-23.771 1.495-6.48 1-10.614 1.896-12.408 2.69v135.746h-19.436v-149.2z"/><path fill="#FFF" stroke="#FFF" stroke-miterlimit="10" stroke-width="47.421" d="M392.636 28.973c-35.718 0-67.694 16.003-89.165 41.225-13.132-15.732-32.882-25.747-54.976-25.747-39.536 0-71.587 32.05-71.587 71.587 0 .651.032 1.295.049 1.942a70.985 70.985 0 00-11.658-.975c-39.002 0-70.619 31.617-70.619 70.619l141.19 1.935h48.081c17.275 43.089 59.423 73.522 108.685 73.522 64.647 0 117.054-52.407 117.054-117.054S457.284 28.973 392.636 28.973z"/><path fill="#FFF" stroke="#FFF" stroke-miterlimit="10" stroke-width="39.053" d="M536.308 232.99c54.296 123.814 2.495 269.794-119.777 330.971-126.217 63.151-279.729 12.026-342.88-114.19-35.218-70.389-34.896-149.268-5.828-216.228"/><path fill="#FFF" d="M567.185 199.861c0-19.687-20.777-35.795-46.172-35.795H83.358c-25.395 0-46.172 16.108-46.172 35.795s20.778 35.795 46.172 35.795h437.656c25.394 0 46.171-16.108 46.171-35.795z"/><path fill="none" stroke="#FFF" stroke-miterlimit="10" stroke-width="39.053" d="M567.185 199.861c0-19.687-20.777-35.795-46.172-35.795H83.358c-25.395 0-46.172 16.108-46.172 35.795s20.778 35.795 46.172 35.795h437.656c25.394 0 46.171-16.108 46.171-35.795z"/><path fill="#E9AD02" stroke="#E9AD03" stroke-miterlimit="10" stroke-width="7.739" d="M392.636 28.973c-35.718 0-67.694 16.003-89.165 41.225-13.132-15.732-32.882-25.747-54.976-25.747-39.536 0-71.587 32.05-71.587 71.587 0 .651.032 1.295.049 1.942a70.985 70.985 0 00-11.658-.975c-39.002 0-70.619 31.617-70.619 70.619l141.19 1.935h48.081c17.275 43.089 59.423 73.522 108.685 73.522 64.647 0 117.054-52.407 117.054-117.054S457.284 28.973 392.636 28.973z"/><path fill="#F3C70D" d="M392.636 28.973c-35.718 0-67.694 16.003-89.165 41.225-13.132-15.732-32.882-25.747-54.976-25.747-39.536 0-71.587 32.05-71.587 71.587 0 .651.032 1.295.049 1.942a70.985 70.985 0 00-11.658-.975c-39.002 0-70.619 31.617-70.619 70.619l141.19 1.935h48.081c17.275 43.089 59.423 73.522 108.685 73.522 64.647 0 117.054-52.407 117.054-117.054S457.284 28.973 392.636 28.973z"/><path fill="#E9AD03" d="M315.974 76.844c12.387-15.161 29.869-26.424 49.149-31.773 4.805-1.413 9.748-2.303 14.716-2.996l3.745-.37 1.875-.18 1.88-.078 3.764-.148 3.767.033c10.05.205 20.08 1.938 29.659 5.054 19.178 6.221 36.345 18.355 48.621 34.154 12.366 15.714 19.85 35.144 20.774 54.709-3.749-19.191-12.368-36.993-24.853-51.35-12.483-14.335-28.699-25.248-46.652-31.081a104.351 104.351 0 00-27.766-5.082l-3.545-.13-3.548.044-1.775.023-1.771.108-3.546.212-3.531.396-1.766.204-1.755.282c-1.17.19-2.347.353-3.515.564l-3.486.734c-18.564 4.177-36.017 13.476-50.441 26.671zm-115.55 10.091c5.43-12.162 16.113-22.227 29.023-27.273 12.889-5.086 27.844-5.201 40.913-.063 13.094 5.021 24.147 15.065 30.295 27.501l2.072 4.755c.615 1.61 1.099 3.272 1.608 4.911.282.812.441 1.659.607 2.503l.506 2.521c.406 1.663.479 3.385.656 5.077.06.85.162 1.694.186 2.542l-.045 2.549c-.042 1.694-.008 3.379-.252 5.054-.383 3.347-1.08 6.641-2.135 9.796.316-3.31.425-6.601.258-9.858-.063-1.63-.297-3.245-.493-4.85l-.295-2.401c-.136-.794-.348-1.577-.517-2.362-.37-1.565-.586-3.151-1.15-4.659l-.728-2.279c-.237-.759-.465-1.519-.814-2.239-.663-1.449-1.197-2.939-1.88-4.363l-2.23-4.176c-6.514-10.802-16.501-19.241-28.086-23.704-11.557-4.556-24.677-4.911-36.727-1.289-12.054 3.74-22.898 11.606-30.772 22.307zm-54.86 44.042c4.61-2.98 10.107-4.597 15.69-4.991 5.588-.383 11.351.338 16.675 2.32 2.688.925 5.215 2.251 7.649 3.686l1.76 1.185.873.597.829.66 1.646 1.323 1.538 1.445c.522.467 1.005.976 1.467 1.506.469.521.941 1.035 1.392 1.565.842 1.122 1.734 2.181 2.449 3.38l1.085 1.767c.316.62.641 1.227.932 1.854.635 1.213 1.072 2.542 1.514 3.827-4.06-3.687-7.927-7.043-12.189-9.759-2.078-1.416-4.281-2.593-6.459-3.758-1.138-.492-2.202-1.125-3.364-1.549l-1.695-.734-1.736-.629c-4.614-1.726-9.455-2.771-14.45-3.379-5.01-.632-10.14-.614-15.606-.316z" opacity=".45"/><g fill="#FBFCE6"><path d="M342.798 89.131l-6.879 3.762-3.762 6.879-3.762-6.879-6.879-3.762 6.879-3.763 3.762-6.879 3.762 6.879z"/><path d="M235.464 127.907l-6.879 3.762-3.762 6.879-3.762-6.879-6.879-3.762 6.879-3.763 3.762-6.878 3.762 6.878z" opacity=".8"/><path d="M472.475 139.515l-6.879 3.763-3.763 6.879-3.762-6.879-6.879-3.763 6.879-3.762 3.762-6.879 3.763 6.879z" opacity=".95"/></g><path fill="#7DAEDA" stroke="#7DAEDA" stroke-miterlimit="10" stroke-width=".967" d="M536.308 232.99c54.296 123.814 2.495 269.794-119.777 330.971-126.217 63.151-279.729 12.026-342.88-114.19-35.218-70.389-34.896-149.268-5.828-216.228"/><path fill="#5E83A3" d="M407.59 425.951c-125.081 50.183-267.16-10.533-317.344-135.616-5.963-14.862-10.247-29.971-13.157-45.131-20.773 55.122-22.028 117.783 1.635 176.762 50.183 125.081 192.262 185.799 317.344 135.616 110.219-44.22 170.351-159.791 148.774-272.215-23.283 61.78-71.15 114.064-137.252 140.584z" opacity=".15"/><path fill="#46739D" d="M332.742 420.449c-.141.056-.284.107-.425.163.141-.055.284-.106.425-.163zm-10.99 3.53c-.301.074-.604.145-.906.216.302-.07.605-.141.906-.216zm-24.207 2.237c-.237-.014-.475-.035-.712-.051.237.016.475.037.712.051zm-3.744-.309c-.31-.032-.621-.063-.932-.099.311.036.621.067.932.099zm-4.561-.593c-.157-.025-.314-.057-.471-.083.157.026.314.058.471.083z"/><path fill="#46739D" d="M361.875 400.683c9.128-9.615 16.056-21.58 19.729-35.287 4.427-16.52 3.489-33.213-1.738-48.233-.5-.83-45.552-75.155-131.636-35.096-11.959 10.381-21.054 24.321-25.461 40.769a81.813 81.813 0 00.042 42.679c1.76 3.735 45.787 94.483 139.064 35.168zm-25.114 18.019c-.271.126-.541.253-.813.376.272-.123.542-.25.813-.376z"/><path fill="#46739D" d="M301.978 426.344c-.282-.001-.563.002-.844-.002.282.004.563.001.844.002zm27.431-4.649c-.294.103-.587.206-.882.306.295-.1.588-.203.882-.306zm-11.629 3.159c-.148.029-.294.062-.442.09.148-.028.294-.061.442-.09zm-3.924.662c-.299.043-.6.081-.9.121.3-.04.601-.078.9-.121zm-3.853.459c-.232.022-.463.049-.695.07.232-.021.463-.048.695-.07zm-4.236.298c-.279.012-.559.018-.839.027.28-.01.56-.015.839-.027zm36.86-153.765l.08.047-.08-.047zM224.584 371.28c-.066-.187-.136-.372-.2-.559.065.187.135.372.2.559zm-1.255-3.873c-.079-.266-.153-.534-.229-.801.076.268.15.535.229.801zm2.616 7.483c-.105-.259-.206-.521-.308-.781.103.26.203.521.308.781zm1.601 3.692c-.078-.168-.16-.334-.236-.502.077.168.158.334.236.502zm3.64 6.98c-.088-.151-.181-.3-.268-.452.088.152.18.301.268.452zm19.763-105.745c.198-.157.395-.315.593-.47l-.593.47zM229.258 382.07c-.131-.251-.258-.505-.386-.757.128.252.255.505.386.757zm31.535-108.986c.218-.127.437-.251.656-.376-.219.125-.438.249-.656.376zm10.763-5.27c.177-.071.357-.138.534-.208-.178.07-.357.137-.534.208zm3.5-1.312c.181-.064.361-.131.543-.193-.182.062-.362.129-.543.193zm3.831-1.24c.242-.072.486-.141.729-.21-.244.069-.487.138-.729.21zm-21.508 9.926c.161-.105.32-.213.482-.316-.162.103-.321.211-.482.316zm-3.085 2.099c.157-.112.317-.221.475-.332-.158.111-.318.219-.475.332zm-21.056 111.607c-.156-.241-.309-.483-.463-.726.154.243.307.486.463.726zm34.469-119.412c.228-.105.456-.212.685-.315-.229.104-.457.21-.685.315zM248.882 406.73c-.224-.191-.447-.385-.669-.578.222.193.444.386.669.578zm16.587 10.966c-.055-.028-.112-.053-.168-.081.056.028.113.053.168.081zm4.001 1.851zm-7.361-3.629zm23.427 8.705zm-12.56-3.647l-.097-.035.097.035zm-14.552-7.234c-.073-.046-.148-.089-.221-.135.073.046.148.089.221.135zm18.87 8.726zm-25.424-13.306c-.085-.066-.173-.129-.258-.195.085.066.173.129.258.195zm3.364 2.466a95.932 95.932 0 01-.732-.516c.244.172.487.345.732.516zm-17.379-16.315c-.18-.227-.358-.456-.536-.685.178.229.355.458.536.685zm5.224 5.962c-.203-.21-.403-.423-.604-.635.201.212.401.425.604.635zm96.923 15.843c-.204.105-.41.205-.615.309.205-.104.412-.204.615-.309zm-94.163-13.113c-.092-.087-.188-.171-.28-.258.092.087.188.171.28.258zm-10.374-11.852c-.093-.129-.189-.255-.281-.385.092.13.188.256.281.385zm51.051-128.759c.249-.049.498-.098.748-.144-.25.046-.499.095-.748.144zm-46.155 134.925c-.095-.108-.193-.214-.288-.323.095.109.193.215.288.323zm126.172-105.38c.101.127.205.251.305.379-.101-.128-.205-.252-.305-.379zm2.375 3.143c.149.207.295.414.442.622-.147-.208-.293-.416-.442-.622zm2.398 3.511c.043.067.083.135.126.202-.042-.067-.083-.135-.126-.202zm1.86 3.046c.121.206.243.412.361.619-.119-.208-.241-.413-.361-.619zm-11.905-15.713c.17.176.34.35.508.527-.168-.177-.338-.351-.508-.527zm-5.735-5.394c.195.166.388.334.581.502-.193-.168-.386-.336-.581-.502zM364.09 290c.138.159.273.32.41.48-.137-.16-.272-.321-.41-.48zm11.08 16.268c.1.192.195.387.294.58-.098-.194-.194-.388-.294-.58zm-16.444-21.865l.118.116-.118-.116zm-8.398 126.354c-.186.134-.37.273-.557.406.188-.133.371-.272.557-.406zm-3.43 2.351c-.23.149-.463.293-.695.439.232-.146.465-.29.695-.439zm6.477-4.655c-.235.186-.472.369-.709.553.237-.184.474-.367.709-.553zm-9.62 6.587c-.236.138-.469.279-.707.415.237-.136.471-.277.707-.415zm34.658-101.729c.096.237.19.474.284.711l-.284-.711zm-22.009 92.615c-.114.1-.224.203-.338.302.114-.099.224-.202.338-.302zm20.457-96.201c.063.136.129.27.191.406-.062-.136-.128-.27-.191-.406zm-17.48 93.461c-.224.217-.451.432-.678.646.227-.215.453-.429.678-.646zm-6.976-124.187c.14.108.283.213.422.322-.139-.108-.282-.214-.422-.322zm-37.583-16.123c.2.031.4.058.599.091-.2-.033-.4-.06-.599-.091zm-24.121-.191c.191-.027.383-.049.574-.075-.191.026-.383.048-.574.075zm36.394 3.084c.252.08.505.159.756.242-.251-.082-.504-.161-.756-.242zm-16.157-3.413c.199.022.398.049.597.072-.199-.023-.398-.05-.597-.072zm-12.384-.394c.257-.011.514-.019.772-.028-.258.009-.515.017-.772.028zm-4.09.284c.196-.018.391-.041.587-.058-.196.017-.391.04-.587.058zm36.827 4.973c.193.073.382.15.574.224-.192-.074-.381-.151-.574-.224zm-24.703-5.212c.26.014.52.028.78.044-.261-.016-.52-.029-.78-.044zm12.418 1.634c.26.055.521.113.781.17-.26-.057-.52-.115-.781-.17zm19.717 6.811zm10.587 6.268c.171.119.338.243.507.363-.169-.12-.336-.244-.507-.363zm-3.559-2.347c.214.134.43.267.643.402-.214-.136-.429-.268-.643-.402zm-10.806-5.67c.176.076.354.149.529.226-.175-.078-.353-.15-.529-.226z"/><path fill="#172734" d="M327.851 266.011zm14.856 6.544zm-10.842-5.112zm-16.444-4.476zm30.972 11.808zm-22.928-10.077zm15.956 6.106zm-19.634-6.993zm15.687 5.118zm-48.21-5.679zm-25.815 9.458zm3.089-1.687zm11.061-4.712zm-3.509 1.297zm-3.698 1.561zm-16.849 10.18zm6.318-4.476zm-9.632 7.196zm6.54-5.112zm48.179-15.075zm-3.622.054zm-4.275.254zm-15.435 2.863zm27.752-2.999zm4.167.376zm-28.493 1.712zm8.233-1.529zm58.542 14.472zm17.02 16.235zm-5.068-5.865zm11.758 15.805zm1.937 3.589zM364.5 290.48zm6.932 9.315zm-18.604-20.473zm27.049 37.86a81.402 81.402 0 00-1.181-3.159 84.375 84.375 0 011.169 3.14.409.409 0 01.012.019zm-10.527-20.478zm-13.243-14.67zm20.945 28.097zm-18.207-25.612z" opacity=".5"/><path fill="#46739D" d="M379.865 317.162a80.954 80.954 0 00-1.169-3.14c-.094-.237-.188-.475-.284-.711a82.547 82.547 0 00-1.361-3.18c-.062-.136-.128-.27-.191-.406a83.863 83.863 0 00-1.397-2.878c-.098-.193-.194-.387-.294-.58a83.397 83.397 0 00-1.643-3.01c-.119-.207-.241-.413-.361-.619a83.245 83.245 0 00-1.733-2.844c-.043-.067-.083-.135-.126-.202a82.705 82.705 0 00-1.956-2.89c-.147-.208-.294-.416-.442-.622a82.847 82.847 0 00-2.071-2.764c-.1-.127-.204-.252-.305-.379a82.044 82.044 0 00-2.033-2.459c-.137-.16-.272-.321-.41-.48a83.323 83.323 0 00-2.32-2.547c-.168-.177-.339-.352-.508-.527a83.124 83.124 0 00-2.416-2.408l-.118-.116a81.915 81.915 0 00-2.62-2.369c-.193-.168-.386-.336-.581-.502a82.12 82.12 0 00-2.698-2.211c-.139-.109-.282-.214-.422-.322a80.434 80.434 0 00-2.588-1.916c-.17-.121-.337-.244-.507-.363a83.003 83.003 0 00-2.917-1.945 53.187 53.187 0 00-.643-.402c-1-.624-2.011-1.235-3.043-1.818l-.08-.047a81.575 81.575 0 00-3.206-1.704c-.232-.118-.464-.236-.698-.352a80.863 80.863 0 00-3.248-1.523c-.175-.077-.353-.15-.529-.226a82.705 82.705 0 00-3.08-1.26c-.192-.074-.381-.151-.574-.224a82.642 82.642 0 00-3.44-1.208c-.251-.082-.504-.162-.756-.242a83.977 83.977 0 00-3.629-1.072 84.285 84.285 0 00-3.678-.887c-.26-.057-.521-.115-.781-.17a82.35 82.35 0 00-3.585-.674c-.2-.033-.4-.06-.599-.091a82.53 82.53 0 00-3.287-.448c-.199-.023-.398-.05-.597-.072a83.15 83.15 0 00-3.57-.305c-.26-.017-.52-.03-.78-.044a82.266 82.266 0 00-3.64-.127 80.862 80.862 0 00-3.622.054c-.257.009-.515.017-.772.028-1.172.051-2.34.125-3.503.226-.196.017-.391.039-.587.058-1.067.101-2.13.222-3.189.364-.191.026-.383.047-.574.075a80.412 80.412 0 00-3.437.565c-.25.046-.499.096-.748.144-1.164.227-2.324.47-3.474.746a81.406 81.406 0 00-3.426.911l-.729.21a81.027 81.027 0 00-3.288 1.047c-.182.062-.362.129-.543.193-.996.349-1.985.717-2.966 1.104-.178.07-.357.137-.534.208a81.715 81.715 0 00-3.164 1.354c-.229.103-.457.21-.685.315a82.602 82.602 0 00-3.169 1.539 82.398 82.398 0 00-3.089 1.687c-.219.125-.438.249-.656.376a81.848 81.848 0 00-2.932 1.787c-.162.104-.321.211-.482.316a81.796 81.796 0 00-2.61 1.767c-.158.111-.318.22-.475.332a83.1 83.1 0 00-2.751 2.061c-.199.155-.396.313-.593.47a81.948 81.948 0 00-2.721 2.25c86.081-40.056 131.133 34.27 131.633 35.099z"/><path fill="#172734" d="M379.865 317.162a80.954 80.954 0 00-1.169-3.14c-.094-.237-.188-.475-.284-.711a82.547 82.547 0 00-1.361-3.18c-.062-.136-.128-.27-.191-.406a83.863 83.863 0 00-1.397-2.878c-.098-.193-.194-.387-.294-.58a83.397 83.397 0 00-1.643-3.01c-.119-.207-.241-.413-.361-.619a83.245 83.245 0 00-1.733-2.844c-.043-.067-.083-.135-.126-.202a82.705 82.705 0 00-1.956-2.89c-.147-.208-.294-.416-.442-.622a82.847 82.847 0 00-2.071-2.764c-.1-.127-.204-.252-.305-.379a82.044 82.044 0 00-2.033-2.459c-.137-.16-.272-.321-.41-.48a83.323 83.323 0 00-2.32-2.547c-.168-.177-.339-.352-.508-.527a83.124 83.124 0 00-2.416-2.408l-.118-.116a81.915 81.915 0 00-2.62-2.369c-.193-.168-.386-.336-.581-.502a82.12 82.12 0 00-2.698-2.211c-.139-.109-.282-.214-.422-.322a80.434 80.434 0 00-2.588-1.916c-.17-.121-.337-.244-.507-.363a83.003 83.003 0 00-2.917-1.945 53.187 53.187 0 00-.643-.402c-1-.624-2.011-1.235-3.043-1.818l-.08-.047a81.575 81.575 0 00-3.206-1.704c-.232-.118-.464-.236-.698-.352a80.863 80.863 0 00-3.248-1.523c-.175-.077-.353-.15-.529-.226a82.705 82.705 0 00-3.08-1.26c-.192-.074-.381-.151-.574-.224a82.642 82.642 0 00-3.44-1.208c-.251-.082-.504-.162-.756-.242a83.977 83.977 0 00-3.629-1.072 84.285 84.285 0 00-3.678-.887c-.26-.057-.521-.115-.781-.17a82.35 82.35 0 00-3.585-.674c-.2-.033-.4-.06-.599-.091a82.53 82.53 0 00-3.287-.448c-.199-.023-.398-.05-.597-.072a83.15 83.15 0 00-3.57-.305c-.26-.017-.52-.03-.78-.044a82.266 82.266 0 00-3.64-.127 80.862 80.862 0 00-3.622.054c-.257.009-.515.017-.772.028-1.172.051-2.34.125-3.503.226-.196.017-.391.039-.587.058-1.067.101-2.13.222-3.189.364-.191.026-.383.047-.574.075a80.412 80.412 0 00-3.437.565c-.25.046-.499.096-.748.144-1.164.227-2.324.47-3.474.746a81.406 81.406 0 00-3.426.911l-.729.21a81.027 81.027 0 00-3.288 1.047c-.182.062-.362.129-.543.193-.996.349-1.985.717-2.966 1.104-.178.07-.357.137-.534.208a81.715 81.715 0 00-3.164 1.354c-.229.103-.457.21-.685.315a82.602 82.602 0 00-3.169 1.539 82.398 82.398 0 00-3.089 1.687c-.219.125-.438.249-.656.376a81.848 81.848 0 00-2.932 1.787c-.162.104-.321.211-.482.316a81.796 81.796 0 00-2.61 1.767c-.158.111-.318.22-.475.332a83.1 83.1 0 00-2.751 2.061c-.199.155-.396.313-.593.47a81.948 81.948 0 00-2.721 2.25c86.081-40.056 131.133 34.27 131.633 35.099z" opacity=".5"/><path fill="#BAB2CC" d="M335.948 419.078zm-18.61 5.866zm25.71-9.489zm-10.731 5.157zm7.071-3.185zm-10.861 4.574zm-59.903-2.826zm-28.551-21.179zm80.773 26.2zm4.321-1.125zm-59.865-5.456zm80.901-4.068zm-100.643-9.801zm15.754 11.722zm-3.111-1.861zm-6.59-4.64zm2.89 2.144zm-12.028-10.471zm119.4.043zm-5.809 5.545zm-3.4 2.778zm6.037-5.174zm-8.932 7.331zm-124.134-37.054zm1.673 3.971zm1.562 3.232zm56.664 43.311zm-48.217-29.995zm75.637 31.009zm-28.385-1.22zm-49.387-32.649zm13.029 14.383zm-17.295-21.04zm1.857 3.058zm48.13 35.365zm-56.521-52.813zm72.448 55.445zm8.097.134zm-3.795.042zm-28.256-5.401zm36.43 5.103zm-86.555-60.651c.109.407.232.809.347 1.213-.103-.362-.192-.728-.29-1.091l-.057-.122zm70.116 60.415zm-16.473-3.631z" opacity=".25"/><path fill="#46739D" d="M289.24 425.314c1.211.195 2.421.355 3.629.494.311.036.621.066.932.099 1.012.105 2.023.192 3.032.259.237.016.475.037.712.051 1.199.069 2.396.109 3.589.126.282.004.563.001.844.002.986.003 1.97-.012 2.951-.044.279-.009.559-.015.839-.027a79.95 79.95 0 003.54-.229c.232-.02.463-.048.695-.07a85.173 85.173 0 002.953-.337c.3-.04.601-.078.9-.121a82.529 82.529 0 003.482-.572c.148-.028.294-.061.442-.09a83.068 83.068 0 003.066-.658c.302-.071.605-.142.906-.216a82.441 82.441 0 003.415-.909 81.404 81.404 0 004.241-1.376 83.114 83.114 0 002.908-1.083c.141-.056.284-.107.425-.163a82.333 82.333 0 003.206-1.372c.272-.123.543-.25.813-.376.883-.41 1.759-.835 2.627-1.276.204-.104.411-.203.615-.309a82.337 82.337 0 003.046-1.663c.237-.136.471-.277.707-.415a81.594 81.594 0 002.449-1.493c.231-.147.465-.29.695-.439a81.814 81.814 0 002.874-1.946c.187-.133.371-.271.557-.406a84.651 84.651 0 002.338-1.751c.237-.184.474-.366.709-.553a81.381 81.381 0 002.691-2.225c.114-.099.225-.202.338-.302a81.13 81.13 0 002.299-2.095 82.91 82.91 0 003.172-3.149c-93.277 59.316-137.304-31.432-139.065-35.168.098.363.187.73.29 1.091.076.267.15.535.229.801.33 1.112.679 2.218 1.055 3.313.064.187.134.372.2.559.333.95.685 1.893 1.053 2.829.102.261.203.522.308.781a82.39 82.39 0 001.365 3.19c.076.168.159.334.236.502.425.919.868 1.828 1.326 2.73.128.253.255.506.386.757a82.737 82.737 0 001.66 3.041c.087.152.18.3.268.452a83.502 83.502 0 001.589 2.607c.154.242.306.485.463.726.63.97 1.276 1.93 1.946 2.874.092.13.189.256.281.385a82.589 82.589 0 001.854 2.475c.178.229.355.458.536.685a83.462 83.462 0 002.218 2.683c.094.109.193.214.288.323a82.75 82.75 0 002.114 2.32c.201.212.401.425.604.635.81.839 1.634 1.666 2.48 2.472.092.087.187.171.28.258a82.041 82.041 0 003.043 2.725 80.774 80.774 0 002.731 2.237c.085.066.173.129.258.195a81.677 81.677 0 003.364 2.465 82.299 82.299 0 002.969 1.98c.073.046.148.089.221.135a81.9 81.9 0 002.89 1.726 80.913 80.913 0 003.988 2.147c.055.028.112.053.168.081a81.049 81.049 0 003.154 1.479 82.432 82.432 0 004.255 1.766l.097.035a83.673 83.673 0 004.318 1.491c1.192.378 2.392.74 3.612 1.066a83.677 83.677 0 004.63 1.088c1.078.224 2.156.429 3.233.608.154.032.311.064.468.089z"/><path fill="#BAB2CC" d="M289.24 425.314c1.211.195 2.421.355 3.629.494.311.036.621.066.932.099 1.012.105 2.023.192 3.032.259.237.016.475.037.712.051 1.199.069 2.396.109 3.589.126.282.004.563.001.844.002.986.003 1.97-.012 2.951-.044.279-.009.559-.015.839-.027a79.95 79.95 0 003.54-.229c.232-.02.463-.048.695-.07a85.173 85.173 0 002.953-.337c.3-.04.601-.078.9-.121a82.529 82.529 0 003.482-.572c.148-.028.294-.061.442-.09a83.068 83.068 0 003.066-.658c.302-.071.605-.142.906-.216a82.441 82.441 0 003.415-.909 81.404 81.404 0 004.241-1.376 83.114 83.114 0 002.908-1.083c.141-.056.284-.107.425-.163a82.333 82.333 0 003.206-1.372c.272-.123.543-.25.813-.376.883-.41 1.759-.835 2.627-1.276.204-.104.411-.203.615-.309a82.337 82.337 0 003.046-1.663c.237-.136.471-.277.707-.415a81.594 81.594 0 002.449-1.493c.231-.147.465-.29.695-.439a81.814 81.814 0 002.874-1.946c.187-.133.371-.271.557-.406a84.651 84.651 0 002.338-1.751c.237-.184.474-.366.709-.553a81.381 81.381 0 002.691-2.225c.114-.099.225-.202.338-.302a81.13 81.13 0 002.299-2.095 82.91 82.91 0 003.172-3.149c-93.277 59.316-137.304-31.432-139.065-35.168.098.363.187.73.29 1.091.076.267.15.535.229.801.33 1.112.679 2.218 1.055 3.313.064.187.134.372.2.559.333.95.685 1.893 1.053 2.829.102.261.203.522.308.781a82.39 82.39 0 001.365 3.19c.076.168.159.334.236.502.425.919.868 1.828 1.326 2.73.128.253.255.506.386.757a82.737 82.737 0 001.66 3.041c.087.152.18.3.268.452a83.502 83.502 0 001.589 2.607c.154.242.306.485.463.726.63.97 1.276 1.93 1.946 2.874.092.13.189.256.281.385a82.589 82.589 0 001.854 2.475c.178.229.355.458.536.685a83.462 83.462 0 002.218 2.683c.094.109.193.214.288.323a82.75 82.75 0 002.114 2.32c.201.212.401.425.604.635.81.839 1.634 1.666 2.48 2.472.092.087.187.171.28.258a82.041 82.041 0 003.043 2.725 80.774 80.774 0 002.731 2.237c.085.066.173.129.258.195a81.677 81.677 0 003.364 2.465 82.299 82.299 0 002.969 1.98c.073.046.148.089.221.135a81.9 81.9 0 002.89 1.726 80.913 80.913 0 003.988 2.147c.055.028.112.053.168.081a81.049 81.049 0 003.154 1.479 82.432 82.432 0 004.255 1.766l.097.035a83.673 83.673 0 004.318 1.491c1.192.378 2.392.74 3.612 1.066a83.677 83.677 0 004.63 1.088c1.078.224 2.156.429 3.233.608.154.032.311.064.468.089z" opacity=".25"/><path fill="#46739D" d="M109.292 303.684zm1.907 62.082zm-.033-61.867zm-4.202-.336zm-3.529.174zm5.563 62.269zm-3.797-62.405zm9.564 1.034zm10.737 5.24zm-12.527-5.66zm11.027 4.598zm2.875 2.159zm1.29 1.151zm1.565 1.607zm-7.684-6.127zm-1.57-.822zm-13.6 59.31zm6.213-.667zm5.738-59.389zm-1.772-.682zm-40.072 39.255zm3.524 7.322zm2.389 3.194zm-1.328-1.675zm-2.141-3.302zm16.766 14.128zm-17.726-15.981zm8.834 11.078zm1.615 1.192zm-11.2-13.957zm12.805 14.988zm3.832 1.965zm-8.737-5.626zm16.006-53.952zm-9.063 58.747zm3.514-57.303zm-1.677.663zm36.52 9.015zm-38.558-8.065zm12.588 59.009zm-7.219-61.171zm4.822 60.935zm-3.968-.785zm-12.424-53.788zm1.761-1.409zm12.59 55.642zm-11.121-56.681zm1.472-.922zm-6.589 48.766zm50.634-35.212zm-12.195 40.233zm-1.626.914zm8.284-6.232zm-3.165 2.899zm-1.748 1.297zm3.198-2.535zm7.958-34.985zm-6.243 33.324a31.114 31.114 0 007.501-13.417 31.11 31.11 0 00-.661-18.339c-.187-.311-17.317-28.576-50.05-13.344a31.12 31.12 0 00-9.681 15.501 31.108 31.108 0 00.016 16.227c.642 1.365 17.379 35.945 52.875 13.372zm4.708-36.533zM119 363.551zm12.979-47.069zm.97 1.413zm-19.338 47.417z"/><path fill="#172734" d="M130.535 314.641zm-5.525-5.13zm-1.458-.998c.152.097.3.2.45.3-.15-.1-.298-.203-.45-.3zm-13.014-4.699zm15.908 6.805c.144.118.289.233.431.353-.141-.12-.287-.236-.431-.353zm-8.201-4.824zm-5.829-1.685c.186.035.372.067.558.105-.186-.038-.372-.07-.558-.105zm4.106 1.056c.18.06.357.125.535.188-.178-.063-.354-.129-.535-.188zm11.546 6.867c.032.031.067.059.099.09-.032-.031-.067-.06-.099-.09zm-6.089-4.467l.069.037c-.022-.013-.046-.024-.069-.037zm12.665 13.318zm.747 1.614c.074.172.15.343.221.516-.071-.173-.147-.344-.221-.516zm-6.01-9.154c.12.127.234.257.352.386-.118-.129-.233-.26-.352-.386zm6.832 11.246c-.022-.062-.048-.122-.07-.184.021.059.045.117.066.176l.004.008zm-2.379-5.231c.084.147.162.297.243.446-.081-.149-.159-.299-.243-.446zm-2.187-3.32c.111.147.223.293.331.443-.108-.15-.22-.296-.331-.443zm1.2 1.705c.033.051.069.1.102.151-.032-.051-.068-.1-.102-.151zm-12.881-11.203c.171.08.343.157.512.24-.169-.083-.341-.16-.512-.24zm-26.059-.242c.162-.073.327-.14.491-.21-.164.07-.328.137-.491.21zm1.608-.664zm-5.113 2.514c.153-.093.305-.189.46-.28-.156.091-.307.186-.46.28zm6.817-3.11c.17-.054.339-.111.51-.163-.171.052-.34.109-.51.163zm-8.326 4.088zm-1.403 1.025c.142-.11.287-.215.43-.322-.144.107-.289.212-.43.322zm13.599-6.082c.177-.032.356-.058.534-.088-.178.029-.356.055-.534.088zm7.648-.433c.185.012.37.032.555.047-.185-.016-.37-.035-.555-.047zm-4.08-.001c.181-.012.362-.027.544-.035-.182.008-.363.023-.544.035zm-1.828.171z" opacity=".5"/><path fill="#46739D" d="M136.209 324.583c-.021-.059-.045-.117-.066-.176a31.18 31.18 0 00-.531-1.393c-.071-.173-.147-.344-.221-.516a31.43 31.43 0 00-.747-1.613 32.522 32.522 0 00-.567-1.079c-.081-.148-.16-.299-.243-.446a31.07 31.07 0 00-.884-1.464c-.033-.051-.069-.1-.102-.151a30.335 30.335 0 00-.869-1.262c-.108-.149-.221-.295-.331-.443a31.245 31.245 0 00-1.112-1.398 31.45 31.45 0 00-.802-.911c-.117-.129-.232-.259-.352-.386a31.06 31.06 0 00-1.214-1.221c-.032-.031-.067-.059-.099-.09a31.589 31.589 0 00-1.19-1.061c-.141-.12-.287-.236-.431-.353a32.476 32.476 0 00-1.436-1.108c-.33-.239-.667-.471-1.008-.698-.15-.1-.298-.202-.45-.3a31.604 31.604 0 00-1.504-.91l-.069-.037a31.368 31.368 0 00-1.501-.785c-.169-.083-.341-.16-.512-.24a33.25 33.25 0 00-1.722-.746 31.099 31.099 0 00-1.187-.442c-.178-.063-.355-.128-.535-.188a32.47 32.47 0 00-1.757-.531 31.95 31.95 0 00-1.79-.42c-.186-.038-.372-.07-.558-.105a32.008 32.008 0 00-1.878-.296 31.183 31.183 0 00-1.247-.13c-.185-.016-.37-.035-.555-.047a31.016 31.016 0 00-1.773-.073c-.59-.006-1.177.01-1.763.037-.182.009-.363.023-.544.035a29.16 29.16 0 00-1.828.171c-.404.05-.805.11-1.205.175-.178.029-.357.055-.534.088a31.062 31.062 0 00-3.36.807c-.171.051-.34.108-.51.163a30.14 30.14 0 00-2.821 1.049c-.164.07-.329.137-.491.21-.522.234-1.039.478-1.547.74a31.69 31.69 0 00-1.499.83c-.155.091-.306.187-.46.28a31.371 31.371 0 00-1.508.978c-.329.227-.653.463-.974.703-.143.107-.289.212-.43.322-.452.351-.898.711-1.331 1.087 32.731-15.233 49.861 13.032 50.048 13.344z"/><path fill="#172734" d="M136.209 324.583c-.021-.059-.045-.117-.066-.176a31.18 31.18 0 00-.531-1.393c-.071-.173-.147-.344-.221-.516a31.43 31.43 0 00-.747-1.613 32.522 32.522 0 00-.567-1.079c-.081-.148-.16-.299-.243-.446a31.07 31.07 0 00-.884-1.464c-.033-.051-.069-.1-.102-.151a30.335 30.335 0 00-.869-1.262c-.108-.149-.221-.295-.331-.443a31.245 31.245 0 00-1.112-1.398 31.45 31.45 0 00-.802-.911c-.117-.129-.232-.259-.352-.386a31.06 31.06 0 00-1.214-1.221c-.032-.031-.067-.059-.099-.09a31.589 31.589 0 00-1.19-1.061c-.141-.12-.287-.236-.431-.353a32.476 32.476 0 00-1.436-1.108c-.33-.239-.667-.471-1.008-.698-.15-.1-.298-.202-.45-.3a31.604 31.604 0 00-1.504-.91l-.069-.037a31.368 31.368 0 00-1.501-.785c-.169-.083-.341-.16-.512-.24a33.25 33.25 0 00-1.722-.746 31.099 31.099 0 00-1.187-.442c-.178-.063-.355-.128-.535-.188a32.47 32.47 0 00-1.757-.531 31.95 31.95 0 00-1.79-.42c-.186-.038-.372-.07-.558-.105a32.008 32.008 0 00-1.878-.296 31.183 31.183 0 00-1.247-.13c-.185-.016-.37-.035-.555-.047a31.016 31.016 0 00-1.773-.073c-.59-.006-1.177.01-1.763.037-.182.009-.363.023-.544.035a29.16 29.16 0 00-1.828.171c-.404.05-.805.11-1.205.175-.178.029-.357.055-.534.088a31.062 31.062 0 00-3.36.807c-.171.051-.34.108-.51.163a30.14 30.14 0 00-2.821 1.049c-.164.07-.329.137-.491.21-.522.234-1.039.478-1.547.74a31.69 31.69 0 00-1.499.83c-.155.091-.306.187-.46.28a31.371 31.371 0 00-1.508.978c-.329.227-.653.463-.974.703-.143.107-.289.212-.43.322-.452.351-.898.711-1.331 1.087 32.731-15.233 49.861 13.032 50.048 13.344z" opacity=".5"/><path fill="#BAB2CC" d="M94.865 363.769c-.17-.069-.342-.137-.51-.209.169.072.34.14.51.209zm1.864.693c-.179-.06-.356-.124-.534-.188.178.064.355.128.534.188zm-4.085-1.689l-.083-.044.083.044zm-5.208-3.292c-.045-.035-.088-.074-.134-.109.046.035.089.073.134.109zM91 361.88a25.017 25.017 0 01-.477-.285c.159.096.316.192.477.285zm-1.644-1.025c-.146-.097-.294-.192-.438-.292.144.1.292.195.438.292zm15.944 5.205c-.117-.005-.234-.006-.352-.012.117.007.234.007.352.012zm8.311-.748c-.173.039-.346.075-.52.112.174-.037.347-.072.52-.112zm5.819-1.945c-.142.064-.287.122-.43.184.143-.061.288-.12.43-.184zm-7.761 2.322c-.157.026-.313.054-.471.077.158-.023.314-.052.471-.077zm-25.641-7.384a35.992 35.992 0 01-.41-.37c.136.123.271.248.41.37zm23.317 7.679c-.115.01-.231.014-.347.022.115-.009.232-.012.347-.022zm-6.303-.105c-.163-.019-.327-.045-.491-.067.164.022.327.048.491.067zm4.394.204zm-6.372-.507c-.185-.034-.369-.067-.554-.104.185.037.369.07.554.104zm-24.592-22.655c.022.083.052.164.075.247-.019-.067-.035-.134-.053-.201a1.95 1.95 0 00-.022-.046zm8.161 14.073c-.12-.12-.242-.238-.361-.359.118.121.24.239.361.359zm43.411.65c-.129.12-.26.238-.39.356.131-.119.262-.236.39-.356zm-50.961-12.728c-.035-.102-.064-.206-.098-.308.034.103.063.207.098.308zm46.095 16.455zm1.558-1.027c-.092.065-.188.126-.281.19.094-.064.189-.125.281-.19zm-7.067 3.744c-.165.062-.329.125-.495.184.166-.059.33-.122.495-.184zm3.715-1.682c-.1.054-.199.111-.3.164.102-.053.2-.11.3-.164zm-43.479-15.362c-.062-.146-.127-.29-.187-.437.06.147.125.291.187.437zm48.661 11.894c-.121.099-.24.201-.362.299.123-.098.241-.199.362-.299zm-47-8.54c-.047-.083-.09-.168-.137-.251.047.083.09.168.137.251zm2.335 3.492c-.112-.146-.221-.294-.331-.442.11.149.219.296.331.442zm-1.116-1.552c-.092-.136-.186-.27-.276-.407.09.137.184.271.276.407zm2.262 2.966c-.051-.059-.098-.12-.148-.18.05.059.097.121.148.18zm-4.336-6.511c-.083-.165-.162-.332-.242-.499.08.167.159.333.242.499z" opacity=".25"/><path fill="#46739D" d="M117.669 364.088c.448-.169.891-.348 1.33-.536.143-.062.288-.12.43-.184.559-.25 1.111-.515 1.655-.797.101-.053.199-.11.3-.164a32.026 32.026 0 003.072-1.871c.093-.064.188-.125.281-.19.5-.354.989-.724 1.468-1.107.122-.098.241-.2.362-.299.37-.304.732-.617 1.088-.939.131-.118.262-.235.39-.356a31.33 31.33 0 001.324-1.305c-35.496 22.572-52.232-12.007-52.875-13.372l.053.201c.135.484.28.965.438 1.441.034.102.063.206.098.308.195.57.408 1.133.635 1.69.06.147.125.291.187.437.179.421.367.838.564 1.25.08.167.159.333.242.499.229.457.468.909.718 1.354.047.083.089.168.137.251.299.52.615 1.03.943 1.533.09.137.184.272.276.407a31.776 31.776 0 002.113 2.787c.05.059.098.121.148.18.394.456.804.898 1.225 1.331.118.122.24.239.361.359.321.32.65.634.986.94.136.124.271.249.41.37.415.366.839.722 1.275 1.067.045.036.088.074.134.109.481.375.977.734 1.482 1.083.144.099.292.195.438.292.383.255.772.501 1.167.74.159.096.317.192.477.285.511.296 1.03.581 1.561.849l.083.044c.558.28 1.131.539 1.711.787.168.072.34.139.51.209.438.178.881.347 1.33.506.178.063.355.127.534.188a31.86 31.86 0 001.854.565c.642.172 1.285.315 1.927.445.185.037.369.07.554.104.496.091.992.17 1.487.236.164.022.327.048.491.067.636.075 1.272.133 1.906.169.118.007.234.007.352.012a30.854 30.854 0 003.698-.053c.115-.009.232-.013.347-.022.622-.053 1.24-.127 1.854-.218.158-.023.314-.052.471-.077.477-.077.951-.166 1.422-.265.173-.036.347-.072.52-.112a31.514 31.514 0 003.564-1.04l.492-.188z"/><path fill="#BAB2CC" d="M117.669 364.088c.448-.169.891-.348 1.33-.536.143-.062.288-.12.43-.184.559-.25 1.111-.515 1.655-.797.101-.053.199-.11.3-.164a32.026 32.026 0 003.072-1.871c.093-.064.188-.125.281-.19.5-.354.989-.724 1.468-1.107.122-.098.241-.2.362-.299.37-.304.732-.617 1.088-.939.131-.118.262-.235.39-.356a31.33 31.33 0 001.324-1.305c-35.496 22.572-52.232-12.007-52.875-13.372l.053.201c.135.484.28.965.438 1.441.034.102.063.206.098.308.195.57.408 1.133.635 1.69.06.147.125.291.187.437.179.421.367.838.564 1.25.08.167.159.333.242.499.229.457.468.909.718 1.354.047.083.089.168.137.251.299.52.615 1.03.943 1.533.09.137.184.272.276.407a31.776 31.776 0 002.113 2.787c.05.059.098.121.148.18.394.456.804.898 1.225 1.331.118.122.24.239.361.359.321.32.65.634.986.94.136.124.271.249.41.37.415.366.839.722 1.275 1.067.045.036.088.074.134.109.481.375.977.734 1.482 1.083.144.099.292.195.438.292.383.255.772.501 1.167.74.159.096.317.192.477.285.511.296 1.03.581 1.561.849l.083.044c.558.28 1.131.539 1.711.787.168.072.34.139.51.209.438.178.881.347 1.33.506.178.063.355.127.534.188a31.86 31.86 0 001.854.565c.642.172 1.285.315 1.927.445.185.037.369.07.554.104.496.091.992.17 1.487.236.164.022.327.048.491.067.636.075 1.272.133 1.906.169.118.007.234.007.352.012a30.854 30.854 0 003.698-.053c.115-.009.232-.013.347-.022.622-.053 1.24-.127 1.854-.218.158-.023.314-.052.471-.077.477-.077.951-.166 1.422-.265.173-.036.347-.072.52-.112a31.514 31.514 0 003.564-1.04l.492-.188z" opacity=".25"/><path fill="#46739D" d="M389.291 454.809c-.093.033-.188.062-.282.093.095-.032.189-.06.282-.093zm-2.699-28.721zm-1.508-.152c.072.004.143.004.215.009-.072-.005-.143-.005-.215-.009zm5.255 1.253zm-2.133-.768zm-4.512-.492c.071-.003.142-.002.213-.005-.07.002-.142.001-.213.005zm-5.632 1.39c.063-.03.125-.062.189-.09-.063.029-.125.061-.189.09zm-1.194.623c.06-.035.121-.066.181-.1-.06.034-.122.065-.181.1zm5.291-1.861c.091-.014.181-.028.273-.04-.091.012-.182.026-.273.04zm-2.752.686c.085-.03.171-.058.257-.087-.086.029-.172.057-.257.087zm18.38 7.654z"/><path fill="#46739D" d="M374.599 429.563a14.8 14.8 0 00-4.605 7.373 14.783 14.783 0 00.034 7.774c.573 1.185 8.546 16.848 25.124 6.305a14.8 14.8 0 003.568-6.382c.801-2.99.63-6.01-.317-8.728-.102-.17-8.247-13.582-23.804-6.342zm1.002-.79c.073-.053.146-.107.221-.159-.074.052-.147.106-.221.159zm21.393 4.203zm-2.765 18.922zm-.91-22.973zm-1.401-.931zm2.662 1.989zm1.429 1.59zm-25.673 14.153c-.016-.044-.034-.087-.049-.131.015.044.033.087.049.131zm13.183 9.906c-.056-.003-.113-.011-.169-.015.056.004.113.012.169.015z"/><path fill="#46739D" d="M388.008 455.194c-.097.025-.193.052-.29.074.098-.023.194-.05.29-.074zm-8.789-.462a12.214 12.214 0 01-.318-.121c.106.041.212.082.318.121zm2.966.756zm2.965.141c-.11.006-.221.013-.331.016.11-.003.22-.01.331-.016zm7.941-2.816c-.044.032-.085.066-.129.097.044-.031.086-.066.129-.097zm-2.407 1.421c-.075.036-.149.074-.225.109.076-.035.149-.074.225-.109zm1.219-.643c-.093.055-.188.107-.282.16.094-.053.189-.105.282-.16zm-5.431 1.913c-.083.012-.167.019-.25.029.083-.01.167-.017.25-.029zm-14.942-7.205l-.062-.101.062.101zm.813 1.237zm-1.451-2.457c-.045-.096-.088-.193-.131-.29.043.098.086.194.131.29zm2.293 3.516l-.061-.066.061.066zm1.057 1.084a12.318 12.318 0 01-.234-.223c.078.075.155.15.234.223zm2.306 1.757c-.093-.058-.186-.116-.277-.176l.277.176zm-1.283-.884c-.018-.014-.037-.026-.054-.04.017.015.036.027.054.04zm2.455 1.541l-.034-.015c.011.005.023.009.034.015z"/><path fill="#172734" d="M391.405 427.705zm-1.555-.73c.167.066.326.143.49.215-.164-.072-.323-.149-.49-.215zm4.679 2.964c.016.015.035.028.051.044-.016-.015-.034-.028-.051-.044zm-1.638-1.315c.143.1.289.196.428.301-.139-.105-.285-.2-.428-.301zm5.517 7.289c-.012-.035-.03-.068-.043-.103.011.032.027.063.038.095a.136.136 0 00.005.008zm-.86-1.956c.08.154.164.307.239.464-.075-.158-.159-.309-.239-.464zm-.862-1.462zm-9.811-6.359zm8.823 5.041c.108.128.207.263.311.395-.104-.131-.202-.266-.311-.395zm-17.447-3.948zm-2.429 1.385zm3.842-1.934zm1.231-.36zm-6.296 3.243zm2.45-1.721zm5.383-1.801zm1.476-.117zm1.391.021z" opacity=".5"/><path fill="#46739D" d="M398.403 435.906c-.011-.032-.027-.063-.038-.095a14.957 14.957 0 00-.578-1.39c-.075-.157-.159-.309-.239-.464a15.245 15.245 0 00-.862-1.462c-.213-.316-.44-.623-.676-.923-.104-.132-.203-.267-.311-.395a14.83 14.83 0 00-1.118-1.194l-.051-.044a14.923 14.923 0 00-1.21-1.014c-.139-.105-.285-.201-.428-.301a15.133 15.133 0 00-.973-.631 14.519 14.519 0 00-1.578-.804c-.163-.072-.323-.149-.49-.215a14.823 14.823 0 00-1.644-.553 14.976 14.976 0 00-1.331-.286l-.283-.048a15.05 15.05 0 00-1.292-.143c-.072-.005-.143-.005-.215-.009-.394-.02-.786-.024-1.176-.012-.071.002-.142.001-.213.005-.424.019-.845.058-1.262.113-.091.012-.182.026-.273.04-.426.064-.849.14-1.265.239-.417.1-.826.224-1.231.36-.086.029-.172.057-.257.087-.392.139-.778.292-1.156.462-.064.029-.126.061-.189.09-.344.161-.682.335-1.013.522-.06.034-.122.066-.181.1-.358.209-.706.434-1.045.672-.074.052-.147.106-.221.159-.344.25-.681.51-1.003.789 15.555-7.238 23.7 6.174 23.802 6.345z"/><path fill="#172734" d="M398.403 435.906c-.011-.032-.027-.063-.038-.095a14.957 14.957 0 00-.578-1.39c-.075-.157-.159-.309-.239-.464a15.245 15.245 0 00-.862-1.462c-.213-.316-.44-.623-.676-.923-.104-.132-.203-.267-.311-.395a14.83 14.83 0 00-1.118-1.194l-.051-.044a14.923 14.923 0 00-1.21-1.014c-.139-.105-.285-.201-.428-.301a15.133 15.133 0 00-.973-.631 14.519 14.519 0 00-1.578-.804c-.163-.072-.323-.149-.49-.215a14.823 14.823 0 00-1.644-.553 14.976 14.976 0 00-1.331-.286l-.283-.048a15.05 15.05 0 00-1.292-.143c-.072-.005-.143-.005-.215-.009-.394-.02-.786-.024-1.176-.012-.071.002-.142.001-.213.005-.424.019-.845.058-1.262.113-.091.012-.182.026-.273.04-.426.064-.849.14-1.265.239-.417.1-.826.224-1.231.36-.086.029-.172.057-.257.087-.392.139-.778.292-1.156.462-.064.029-.126.061-.189.09-.344.161-.682.335-1.013.522-.06.034-.122.066-.181.1-.358.209-.706.434-1.045.672-.074.052-.147.106-.221.159-.344.25-.681.51-1.003.789 15.555-7.238 23.7 6.174 23.802 6.345z" opacity=".5"/><path fill="#BAB2CC" d="M372.158 449.275zm.966 1.254zm-1.656-2.331zm2.54 3.258zm-3.247-4.666zm4.449 5.723zm-5.219-7.88c.087.325.187.645.295.962-.099-.29-.177-.588-.258-.885l-.037-.077zm23.984 7.484zm-4.965 2.784zm-1.291.367zm-1.497.265zm-1.404.112zm10.334-4.63zm-2.189 1.895zm-9.613 2.707zm-7.079-2.357zm14.187 1.082zm1.163-.591zm-9.786 1.682zm-4.149-1.356zm2.822 1.071zm-1.606-.537z" opacity=".25"/><path fill="#46739D" d="M370.028 444.71c.082.297.159.595.258.885.015.044.034.087.049.131a14.826 14.826 0 00.556 1.354c.178.38.367.755.576 1.119l.062.101a14.716 14.716 0 00.813 1.238c.248.34.505.674.781.993l.061.066a15.178 15.178 0 001.057 1.084c.311.289.631.57.968.833l.054.04a14.863 14.863 0 001.283.883c.369.228.746.445 1.138.642l.034.015a14.717 14.717 0 001.5.639c.421.154.848.298 1.289.416a15.304 15.304 0 001.676.341c.389.058.778.102 1.165.129.056.004.113.012.169.015.436.025.869.026 1.3.013.111-.003.221-.01.331-.016.36-.019.717-.051 1.072-.096.083-.011.167-.017.25-.029.42-.061.836-.14 1.247-.236.097-.023.193-.05.29-.074.338-.086.672-.183 1.001-.292.094-.031.189-.06.282-.093.396-.14.785-.294 1.167-.466.076-.034.15-.073.225-.109.318-.15.63-.311.937-.483.094-.053.189-.105.282-.16.362-.213.717-.438 1.06-.681.044-.031.085-.066.129-.097a15.145 15.145 0 001.137-.914c.318-.282.629-.573.923-.883-16.576 10.54-24.549-5.122-25.122-6.308z"/><path fill="#BAB2CC" d="M370.028 444.71c.082.297.159.595.258.885.015.044.034.087.049.131a14.826 14.826 0 00.556 1.354c.178.38.367.755.576 1.119l.062.101a14.716 14.716 0 00.813 1.238c.248.34.505.674.781.993l.061.066a15.178 15.178 0 001.057 1.084c.311.289.631.57.968.833l.054.04a14.863 14.863 0 001.283.883c.369.228.746.445 1.138.642l.034.015a14.717 14.717 0 001.5.639c.421.154.848.298 1.289.416a15.304 15.304 0 001.676.341c.389.058.778.102 1.165.129.056.004.113.012.169.015.436.025.869.026 1.3.013.111-.003.221-.01.331-.016.36-.019.717-.051 1.072-.096.083-.011.167-.017.25-.029.42-.061.836-.14 1.247-.236.097-.023.193-.05.29-.074.338-.086.672-.183 1.001-.292.094-.031.189-.06.282-.093.396-.14.785-.294 1.167-.466.076-.034.15-.073.225-.109.318-.15.63-.311.937-.483.094-.053.189-.105.282-.16.362-.213.717-.438 1.06-.681.044-.031.085-.066.129-.097a15.145 15.145 0 001.137-.914c.318-.282.629-.573.923-.883-16.576 10.54-24.549-5.122-25.122-6.308z" opacity=".25"/><path fill="#46739D" d="M444.109 294.346c-.096.014-.193.022-.29.034.097-.013.194-.021.29-.034zm-14.24-4.454zm16.028 4.092c-.112.028-.223.06-.335.086.112-.026.223-.057.335-.086zm-14.445-30.763c.085-.062.17-.125.257-.185l-.257.185zm12.798-3.126c.109.017.219.036.328.055-.11-.019-.219-.038-.328-.055zm-1.68 34.396c-.128.007-.256.015-.385.019.128-.004.256-.012.385-.019zm4.822-.955c-.108.038-.218.071-.326.107.108-.036.218-.069.326-.107zm-11.728-.09zm3.454.881zm-8.06-3.419l-.061-.044c.02.015.042.028.061.044zm1.496 1.029zm8.117 2.558c-.066-.004-.132-.013-.197-.017.065.004.131.013.197.017zm-6.755-1.794l-.035-.016.035.016zm19.637-28.068l.026.027a.331.331 0 00-.026-.027zm-12.677-4.724c.082-.004.165-.003.247-.005-.082.003-.165.002-.247.005zm11.292 3.55c.085.065.169.132.253.199-.084-.067-.167-.134-.253-.199zm-26.2 21.077a14.377 14.377 0 01-.151-.336c.05.112.099.224.151.336zm28.621-18.821c.069.078.139.155.206.234-.067-.079-.137-.156-.206-.234zm-27.878 20.24c-.023-.039-.049-.077-.071-.116.022.039.048.076.071.116zm-1.391-2.999c-.017-.049-.038-.097-.055-.147.016.05.037.097.055.147zm25.436-20.47c.068.042.138.081.205.124-.068-.043-.138-.082-.205-.124zm4.935 4.6c.05.069.096.141.145.211-.049-.07-.095-.142-.145-.211zm-8.054-6.116zm1.696.723c.077.038.151.08.228.119-.076-.039-.151-.081-.228-.119zm-6.84-1.775c.084.004.167.005.251.01-.084-.005-.167-.006-.251-.01zm-9.566 2.336c.069-.041.141-.077.211-.117-.071.039-.142.076-.211.117z"/><path fill="#46739D" d="M454.216 289.119a17.233 17.233 0 004.154-7.431 17.231 17.231 0 00-.369-10.162c-.121-.2-9.604-15.814-27.717-7.385l.002-.002a17.24 17.24 0 00-5.364 8.587 17.211 17.211 0 00.04 9.052c.668 1.381 9.952 19.616 29.254 7.341z"/><path fill="#46739D" d="M439.088 260.087c.106-.016.212-.032.319-.046-.107.013-.213.03-.319.046zm-4.769 1.441c.073-.034.144-.071.217-.104-.072.033-.144.069-.217.104zm17.497 29.685c-.05.037-.098.076-.149.112.051-.036.099-.076.149-.112zm-23.176-2.582c-.023-.027-.049-.051-.072-.078.023.027.048.051.072.078zm20.371 4.236c-.087.041-.172.086-.26.125.089-.039.173-.084.26-.125zm1.422-.749c-.108.064-.218.124-.328.185.11-.061.22-.121.328-.185zm-14.55-31.232c.1-.035.201-.068.301-.102-.101.033-.201.066-.301.102zm17.258 29.261c-.097.086-.196.17-.295.254.099-.083.198-.167.295-.254zm3.416-21.728c.037.063.077.125.114.188-.036-.063-.076-.124-.114-.188zm-28.9 18.977c-.073-.1-.144-.201-.214-.303.071.102.141.203.214.303zm29.678-17.5c.045.097.089.195.132.292-.044-.098-.087-.195-.132-.292z"/><path fill="#172734" d="M441.123 259.904zm-10.836 4.235zm5.897-3.355zm6.56-.856zm1.834.222zm-5.172-.11zm-6.269 2.097zm1.4-.713zm23.47 10.111a17.045 17.045 0 00-.541-1.347c.195.439.377.884.535 1.338a.14.14 0 01.006.009zm-11.879-11.052zm3.433 1.329zm5.234 4.137zm-3.835-3.339zm1.461 1.048zm-4.473-2.572zm-16.239 1.95zm24.962 5.572zm-.835-1.311zm-2.256-2.638z" opacity=".5"/><path fill="#46739D" d="M458.002 271.526a17.344 17.344 0 00-.667-1.63 17.203 17.203 0 00-.664-1.288c-.036-.064-.076-.125-.114-.188a17.818 17.818 0 00-.721-1.122c-.049-.07-.095-.142-.145-.211a17.46 17.46 0 00-.895-1.137c-.068-.079-.137-.156-.206-.234a17.34 17.34 0 00-1.01-1.056l-.026-.027c-.36-.342-.741-.663-1.132-.974-.084-.067-.168-.134-.253-.199a17.195 17.195 0 00-1.208-.849c-.067-.043-.137-.082-.205-.124a17.403 17.403 0 00-1.195-.674c-.076-.039-.151-.081-.228-.119a17.529 17.529 0 00-1.385-.608c-.103-.04-.207-.077-.31-.116a17.363 17.363 0 00-1.509-.487 17.86 17.86 0 00-1.55-.333c-.109-.019-.219-.039-.328-.055a17.224 17.224 0 00-1.505-.167c-.084-.005-.167-.006-.251-.01a17.413 17.413 0 00-1.37-.014c-.082.002-.165.002-.247.005-.494.022-.984.068-1.47.131-.107.014-.213.03-.319.046-.992.149-1.963.383-2.904.697-.1.034-.201.067-.301.102-.456.162-.906.339-1.346.538-.073.033-.145.07-.217.104-.402.188-.796.391-1.182.609-.07.04-.141.076-.211.117-.417.243-.822.505-1.217.782-.087.061-.172.123-.257.185-.399.291-.791.593-1.165.917l-.002.002c18.111-8.427 27.594 7.187 27.715 7.387z"/><path fill="#172734" d="M458.002 271.526a17.344 17.344 0 00-.667-1.63 17.203 17.203 0 00-.664-1.288c-.036-.064-.076-.125-.114-.188a17.818 17.818 0 00-.721-1.122c-.049-.07-.095-.142-.145-.211a17.46 17.46 0 00-.895-1.137c-.068-.079-.137-.156-.206-.234a17.34 17.34 0 00-1.01-1.056l-.026-.027c-.36-.342-.741-.663-1.132-.974-.084-.067-.168-.134-.253-.199a17.195 17.195 0 00-1.208-.849c-.067-.043-.137-.082-.205-.124a17.403 17.403 0 00-1.195-.674c-.076-.039-.151-.081-.228-.119a17.529 17.529 0 00-1.385-.608c-.103-.04-.207-.077-.31-.116a17.363 17.363 0 00-1.509-.487 17.86 17.86 0 00-1.55-.333c-.109-.019-.219-.039-.328-.055a17.224 17.224 0 00-1.505-.167c-.084-.005-.167-.006-.251-.01a17.413 17.413 0 00-1.37-.014c-.082.002-.165.002-.247.005-.494.022-.984.068-1.47.131-.107.014-.213.03-.319.046-.992.149-1.963.383-2.904.697-.1.034-.201.067-.301.102-.456.162-.906.339-1.346.538-.073.033-.145.07-.217.104-.402.188-.796.391-1.182.609-.07.04-.141.076-.211.117-.417.243-.822.505-1.217.782-.087.061-.172.123-.257.185-.399.291-.791.593-1.165.917l-.002.002c18.111-8.427 27.594 7.187 27.715 7.387z" opacity=".5"/><path fill="#BAB2CC" d="M440.474 294.477zm-15.554-12.789c.102.378.218.752.344 1.121-.116-.338-.206-.686-.301-1.031l-.043-.09zm13.79 12.574zm-6.477-2.529zm-6.416-7.533zm21.249 9.443zm-1.504.427zm-18.922-8.231zm23.465 6.465zm-7.921 2.206zm1.635-.13zm7.848-3.055zm-16.371 1.981zm13.456-.314zm-17.755-2.129zm2.883 1.822zm-4.282-3.052zm-2.155-2.54zm26.773 2.026zm-17.05 4.812zm15.68-3.529zm-24.278-1.849z" opacity=".25"/><path fill="#46739D" d="M424.963 281.778c.095.346.185.693.301 1.031.017.05.038.098.055.147.149.422.317.836.497 1.244.05.112.099.225.151.336.207.443.428.879.672 1.303l.071.116c.228.389.474.768.732 1.139.071.102.141.203.214.303.288.396.589.785.91 1.156.023.027.049.052.072.078a17.403 17.403 0 001.229 1.261c.363.337.735.665 1.128.971l.061.044c.377.292.771.564 1.174.825a17.323 17.323 0 001.647.952l.035.016a17.238 17.238 0 001.749.745c.49.18.988.347 1.501.485a17.281 17.281 0 001.952.396c.453.067.905.119 1.356.15.066.005.132.014.197.017a16.99 16.99 0 001.513.015c.129-.004.257-.012.385-.019.419-.022.836-.059 1.25-.112.096-.012.194-.02.29-.034.49-.071.974-.163 1.453-.275.113-.026.223-.057.335-.086.394-.1.784-.214 1.168-.341.109-.036.218-.069.326-.107.461-.163.915-.343 1.36-.544.088-.039.173-.084.26-.125.371-.175.736-.363 1.094-.564.109-.061.219-.122.328-.185.421-.248.835-.51 1.234-.793.051-.036.099-.076.149-.112a17.063 17.063 0 001.325-1.065c.371-.329.733-.668 1.076-1.029-19.299 12.277-28.583-5.958-29.25-7.339z"/><path fill="#BAB2CC" d="M424.963 281.778c.095.346.185.693.301 1.031.017.05.038.098.055.147.149.422.317.836.497 1.244.05.112.099.225.151.336.207.443.428.879.672 1.303l.071.116c.228.389.474.768.732 1.139.071.102.141.203.214.303.288.396.589.785.91 1.156.023.027.049.052.072.078a17.403 17.403 0 001.229 1.261c.363.337.735.665 1.128.971l.061.044c.377.292.771.564 1.174.825a17.323 17.323 0 001.647.952l.035.016a17.238 17.238 0 001.749.745c.49.18.988.347 1.501.485a17.281 17.281 0 001.952.396c.453.067.905.119 1.356.15.066.005.132.014.197.017a16.99 16.99 0 001.513.015c.129-.004.257-.012.385-.019.419-.022.836-.059 1.25-.112.096-.012.194-.02.29-.034.49-.071.974-.163 1.453-.275.113-.026.223-.057.335-.086.394-.1.784-.214 1.168-.341.109-.036.218-.069.326-.107.461-.163.915-.343 1.36-.544.088-.039.173-.084.26-.125.371-.175.736-.363 1.094-.564.109-.061.219-.122.328-.185.421-.248.835-.51 1.234-.793.051-.036.099-.076.149-.112a17.063 17.063 0 001.325-1.065c.371-.329.733-.668 1.076-1.029-19.299 12.277-28.583-5.958-29.25-7.339z" opacity=".25"/><path fill="#46739D" d="M384.255 501.004zm.764.389zm.68.452zm.611.513zm-3.917-1.894zm-3.982 13.704zm3.152-13.774zm-2.076 14.165zm7.516-11.43zm-3.784-2.498zm.027 13.914zm-.85.183zm2.649-.945zm.722-.497zm-9.145-11.132a7.179 7.179 0 00-2.233 3.575 7.156 7.156 0 00.017 3.769c.277.574 4.143 8.169 12.181 3.057a7.18 7.18 0 001.73-3.094 7.18 7.18 0 00-.154-4.232c-.048-.08-3.997-6.586-11.541-3.075zm11.243 2.355zm-6.551 10.288zm6.166-10.989zm-7.103 10.924zm-.702-14.15zm1.036-.161zm-5.151 11.457zm3.355-11.064zm-2.801 11.723zm-1.474-2.335zm9.512 4.03zm-6.694-12.694zm.721-.409zm-1.557 1.025zm-1.556 8.96zm11.521 1.441zm-9.704.695zm.735.507z"/><path fill="#172734" d="M386.852 502.937c.053.062.101.128.151.192-.05-.064-.098-.13-.151-.192zm-1.361-1.238c.069.049.14.095.207.146-.067-.051-.137-.097-.207-.146zm.794.637l.026.022-.026-.022zm-4.15-1.9c.086.01.172.016.258.029-.086-.013-.172-.02-.258-.029zm-1.673.007c.083-.01.166-.015.249-.022-.083.007-.167.011-.249.022zm-2.529.813zm6.837-.003zm-7.52.419c.068-.047.138-.089.208-.133-.07.044-.14.086-.208.133zm4.027-1.281zm2.739.508c.081.032.159.07.239.105-.08-.035-.157-.073-.239-.105zm3.315 2.677zm-8.647-2.67c.077-.031.153-.064.231-.092-.078.028-.154.061-.231.092zm9.065 3.379c.039.075.079.148.115.224-.035-.076-.076-.149-.115-.224zm.397.899l.018.045.002.004-.02-.049z" opacity=".5"/><path fill="#46739D" d="M387.865 504.509c-.036-.076-.077-.149-.115-.224a7.199 7.199 0 00-.746-1.157c-.05-.064-.099-.13-.151-.192a7.047 7.047 0 00-.542-.579l-.026-.022a7.081 7.081 0 00-.586-.491c-.067-.051-.138-.097-.207-.146a7.47 7.47 0 00-.721-.446 7.008 7.008 0 00-.516-.249c-.08-.035-.157-.072-.239-.105a7.168 7.168 0 00-.797-.268 7.104 7.104 0 00-.826-.166c-.086-.013-.172-.019-.258-.029a7.394 7.394 0 00-.859-.045 7.55 7.55 0 00-.565.029c-.083.007-.167.012-.249.022a7.114 7.114 0 00-.787.139 7.163 7.163 0 00-.76.232c-.078.028-.154.061-.231.092a7.34 7.34 0 00-.751.35 7.347 7.347 0 00-.476.282c-.069.045-.14.087-.208.133a7.31 7.31 0 00-.628.482c7.544-3.511 11.493 2.995 11.542 3.075l-.018-.045a7.389 7.389 0 00-.28-.672z"/><path fill="#172734" d="M387.865 504.509c-.036-.076-.077-.149-.115-.224a7.199 7.199 0 00-.746-1.157c-.05-.064-.099-.13-.151-.192a7.047 7.047 0 00-.542-.579l-.026-.022a7.081 7.081 0 00-.586-.491c-.067-.051-.138-.097-.207-.146a7.47 7.47 0 00-.721-.446 7.008 7.008 0 00-.516-.249c-.08-.035-.157-.072-.239-.105a7.168 7.168 0 00-.797-.268 7.104 7.104 0 00-.826-.166c-.086-.013-.172-.019-.258-.029a7.394 7.394 0 00-.859-.045 7.55 7.55 0 00-.565.029c-.083.007-.167.012-.249.022a7.114 7.114 0 00-.787.139 7.163 7.163 0 00-.76.232c-.078.028-.154.061-.231.092a7.34 7.34 0 00-.751.35 7.347 7.347 0 00-.476.282c-.069.045-.14.087-.208.133a7.31 7.31 0 00-.628.482c7.544-3.511 11.493 2.995 11.542 3.075l-.018-.045a7.389 7.389 0 00-.28-.672z" opacity=".5"/><path fill="#BAB2CC" d="M374.388 509.461c.014.05.035.098.05.147l-.032-.11-.018-.037zm1.9 3.257c-.06-.059-.116-.121-.174-.181.058.061.114.122.174.181zm-.581-.652c-.049-.062-.1-.124-.148-.188.048.064.099.125.148.188zm-.605-.881c-.013-.023-.023-.047-.036-.07.013.023.023.047.036.07zm9.194 2.99c-.047.021-.096.037-.144.057.048-.02.097-.036.144-.057zm-9.563-3.74a6.646 6.646 0 01-.093-.233c.03.078.06.156.093.233zm8.755 4.04c-.08.025-.161.048-.242.071.081-.023.161-.046.242-.071zm1.741-.81c-.061.039-.121.081-.183.118.062-.038.121-.079.183-.118zm.73-.53c-.063.052-.128.101-.192.151.064-.05.129-.099.192-.151zm-9.042.145l-.034-.029.034.029zm1.73.992c-.08-.032-.158-.068-.236-.103.079.034.156.07.236.103zm-.812-.392c-.073-.041-.146-.08-.217-.122.071.042.145.081.217.122zm3.701.92c-.074.002-.148-.002-.222-.002.074 0 .148.003.222.002zm-.904-.04c-.085-.009-.17-.016-.255-.028.085.012.17.02.255.028zm1.92-.061c-.052.009-.103.022-.156.03.052-.008.104-.021.156-.03z" opacity=".25"/><path fill="#46739D" d="M374.406 509.498l.032.11c.059.201.126.399.202.594.03.078.06.156.093.233.1.232.21.459.333.68.013.023.023.048.036.07.138.24.293.47.458.693.047.064.098.125.148.188.129.163.264.32.407.471.057.061.114.122.174.181.189.187.386.366.595.532l.034.029c.222.173.458.33.701.478.071.043.145.082.217.122.186.104.379.2.576.289.078.035.156.071.236.103.272.11.55.209.84.287.296.079.593.133.89.173.085.012.17.02.255.028.228.023.456.035.682.037.074 0 .149.004.222.002.29-.007.577-.03.86-.071.053-.008.104-.021.156-.03a7.327 7.327 0 00.936-.224 7.02 7.02 0 00.664-.243c.047-.02.097-.036.144-.057.258-.115.507-.248.75-.392.062-.037.122-.079.183-.118.185-.118.364-.244.538-.379.064-.05.129-.099.192-.151.219-.182.432-.372.629-.58-8.04 5.114-11.906-2.481-12.183-3.055z"/><path fill="#BAB2CC" d="M374.406 509.498l.032.11c.059.201.126.399.202.594.03.078.06.156.093.233.1.232.21.459.333.68.013.023.023.048.036.07.138.24.293.47.458.693.047.064.098.125.148.188.129.163.264.32.407.471.057.061.114.122.174.181.189.187.386.366.595.532l.034.029c.222.173.458.33.701.478.071.043.145.082.217.122.186.104.379.2.576.289.078.035.156.071.236.103.272.11.55.209.84.287.296.079.593.133.89.173.085.012.17.02.255.028.228.023.456.035.682.037.074 0 .149.004.222.002.29-.007.577-.03.86-.071.053-.008.104-.021.156-.03a7.327 7.327 0 00.936-.224 7.02 7.02 0 00.664-.243c.047-.02.097-.036.144-.057.258-.115.507-.248.75-.392.062-.037.122-.079.183-.118.185-.118.364-.244.538-.379.064-.05.129-.099.192-.151.219-.182.432-.372.629-.58-8.04 5.114-11.906-2.481-12.183-3.055z" opacity=".25"/><path fill="#46739D" d="M494.962 366.44a7.18 7.18 0 001.73-3.094 7.18 7.18 0 00-.154-4.232c-.05-.083-3.999-6.585-11.542-3.075a7.179 7.179 0 00-2.233 3.575 7.156 7.156 0 00.017 3.769c.279.576 4.144 8.169 12.182 3.057zm-6.913-11.973zm4.476 13.651zm-6.532-.475zm7.427.025zm-6.131-12.969zm.573 13.745zm-3.373-2.02zm.769.712zm1.528.918zm8.176-1.614zm-11.52-1.437zm6.494-10.724zm6.303 4.116zm-13.225 5.692zm11.127 3.085zm1.236-10.159zm-6.29-2.707zm-5.153 11.458zm11.921-8.07zm-1.782-1.964zm-4.387 12.953zm-3.855-13.259zm8.853.819zm-3.914 12.371zm1.859-13.725zm.764.389zm-2.625-.928zm-5.772 1.689zm6.598-1.523zm.026 13.915zm-2.869.187zm-2.198-13.603z"/><path fill="#172734" d="M495.227 356.822c.052.062.1.127.15.191-.051-.064-.098-.129-.15-.191zm.478.639zm-1.046-1.24l.026.022-.026-.022zm-1.514-1.083zm-2.635-.817c.086.009.172.016.258.029-.087-.013-.172-.019-.258-.029zm3.356 1.263c.069.049.14.095.207.146-.067-.051-.138-.097-.207-.146zm-4.215-1.308c.095-.001.19 0 .285.003-.095-.003-.19-.003-.285-.003zm2.74.508c.081.032.159.07.239.105-.081-.035-.158-.072-.239-.105zm-6.084.357zm.752-.35c.076-.031.152-.064.229-.092-.077.028-.152.061-.229.092zm-1.435.766c.067-.047.138-.089.207-.133-.069.044-.139.086-.207.133zm10.916 3.561c-.006-.017-.015-.033-.021-.05l.019.046.002.004zm-.417-.948c.039.075.079.148.115.224-.035-.076-.076-.149-.115-.224zm-7.288-3.842c.083-.01.168-.015.251-.022-.083.007-.167.012-.251.022z" opacity=".5"/><path fill="#46739D" d="M496.538 359.115c-.005-.016-.013-.031-.019-.046a7.356 7.356 0 00-.28-.674c-.036-.076-.077-.149-.115-.224a7.199 7.199 0 00-.418-.709 6.869 6.869 0 00-.329-.448c-.05-.064-.098-.129-.15-.191a6.89 6.89 0 00-.542-.579l-.026-.022a7.081 7.081 0 00-.586-.491c-.067-.051-.138-.097-.207-.146a7.47 7.47 0 00-.721-.446 7.008 7.008 0 00-.516-.249c-.08-.035-.157-.072-.239-.105a7.168 7.168 0 00-.797-.268 7.104 7.104 0 00-.826-.166c-.086-.013-.172-.019-.258-.029a7.42 7.42 0 00-.859-.045 7.55 7.55 0 00-.564.029c-.084.008-.168.012-.251.022a7.096 7.096 0 00-.786.139 7.092 7.092 0 00-.76.232c-.078.028-.153.061-.229.092a7.156 7.156 0 00-.752.35 7.1 7.1 0 00-.476.283c-.069.044-.139.086-.207.133a7.31 7.31 0 00-.628.482c7.542-3.51 11.491 2.993 11.541 3.076z"/><path fill="#172734" d="M496.538 359.115c-.005-.016-.013-.031-.019-.046a7.356 7.356 0 00-.28-.674c-.036-.076-.077-.149-.115-.224a7.199 7.199 0 00-.418-.709 6.869 6.869 0 00-.329-.448c-.05-.064-.098-.129-.15-.191a6.89 6.89 0 00-.542-.579l-.026-.022a7.081 7.081 0 00-.586-.491c-.067-.051-.138-.097-.207-.146a7.47 7.47 0 00-.721-.446 7.008 7.008 0 00-.516-.249c-.08-.035-.157-.072-.239-.105a7.168 7.168 0 00-.797-.268 7.104 7.104 0 00-.826-.166c-.086-.013-.172-.019-.258-.029a7.42 7.42 0 00-.859-.045 7.55 7.55 0 00-.564.029c-.084.008-.168.012-.251.022a7.096 7.096 0 00-.786.139 7.092 7.092 0 00-.76.232c-.078.028-.153.061-.229.092a7.156 7.156 0 00-.752.35 7.1 7.1 0 00-.476.283c-.069.044-.139.086-.207.133a7.31 7.31 0 00-.628.482c7.542-3.51 11.491 2.993 11.541 3.076z" opacity=".5"/><path fill="#BAB2CC" d="M487.021 368.157c-.08-.032-.157-.068-.235-.103.078.035.155.071.235.103zm-4.208-4.663l-.032-.111-.018-.038c.013.052.035.099.05.149zm8.113 5.09c-.052.009-.104.022-.156.03.053-.008.104-.021.156-.03zm-4.717-.819c-.072-.04-.146-.079-.216-.122.07.043.143.081.216.122zm-3.102-3.445zm8.756 4.04zm-6.572-1.195c-.012-.009-.022-.02-.033-.029.011.009.021.02.033.029zm3.715 1.481c-.085-.009-.17-.016-.255-.028.085.011.17.019.255.028zm.905.039c-.074.002-.149-.002-.224-.002.074 0 .149.004.224.002zm4.422-1.665c-.063.052-.128.101-.192.151.064-.049.129-.098.192-.151zm-10.252-1.07c-.049-.062-.1-.123-.146-.186.046.063.097.124.146.186zm8.589 2.11c-.047.021-.097.038-.145.058.048-.02.097-.037.145-.058zm-9.194-2.99l-.034-.067c.012.022.021.045.034.067zm1.185 1.533c-.059-.058-.115-.119-.172-.18.057.061.113.122.172.18zm8.942.947c-.061.039-.121.08-.183.118.062-.037.121-.079.183-.118z" opacity=".25"/><path fill="#46739D" d="M483.014 364.087c.03.078.06.156.093.233.1.233.211.462.335.683l.034.067c.138.241.293.471.458.694.047.063.097.124.146.186.129.163.265.321.409.474.057.06.113.121.172.18.189.187.386.367.597.533.012.009.022.02.033.029.222.173.458.33.702.478.07.043.144.081.216.122.187.104.379.201.578.289.078.035.155.071.235.103.272.11.55.209.84.287.296.079.593.133.89.173.085.012.17.02.255.028.228.023.455.035.681.037.075 0 .15.004.224.002a7.21 7.21 0 00.859-.071c.053-.008.104-.021.156-.03a7.375 7.375 0 001.598-.466c.048-.02.098-.037.145-.058.258-.115.507-.247.75-.392.062-.037.122-.079.183-.118.185-.118.364-.244.538-.378.065-.05.129-.099.192-.151.219-.182.432-.372.629-.58-8.037 5.111-11.903-2.481-12.181-3.057l.032.111c.058.2.125.398.201.592z"/><path fill="#BAB2CC" d="M483.014 364.087c.03.078.06.156.093.233.1.233.211.462.335.683l.034.067c.138.241.293.471.458.694.047.063.097.124.146.186.129.163.265.321.409.474.057.06.113.121.172.18.189.187.386.367.597.533.012.009.022.02.033.029.222.173.458.33.702.478.07.043.144.081.216.122.187.104.379.201.578.289.078.035.155.071.235.103.272.11.55.209.84.287.296.079.593.133.89.173.085.012.17.02.255.028.228.023.455.035.681.037.075 0 .15.004.224.002a7.21 7.21 0 00.859-.071c.053-.008.104-.021.156-.03a7.375 7.375 0 001.598-.466c.048-.02.098-.037.145-.058.258-.115.507-.247.75-.392.062-.037.122-.079.183-.118.185-.118.364-.244.538-.378.065-.05.129-.099.192-.151.219-.182.432-.372.629-.58-8.037 5.111-11.903-2.481-12.181-3.057l.032.111c.058.2.125.398.201.592z" opacity=".25"/><path fill="#46739D" d="M178.866 409.079zm1.249 1.548zm-10.697-2.423zm10.187 1.697zm-2.117-1.852zm-6.515-.618zm.811-.248zm-1.597.585zm2.702-.757zm.909-.028zm-5.269 1.875zm8.143-1.225zm-1.105-.398zm-.881-.177zm3.527 1.473zm-7.778 13.153zm4.253.598zm-3.104-.181zm1.949.255zm-1-.07zm-3.727-1.58zm.783.539zm-3.18-3.795zm-.266-4.773a7.642 7.642 0 00.018 4.023c.297.614 4.423 8.718 13.001 3.263a7.657 7.657 0 001.846-3.303 7.656 7.656 0 00-.164-4.517c-.056-.092-4.271-7.027-12.318-3.282a7.647 7.647 0 00-2.383 3.816zm1.841 7.267zm-.592-.704zm13.133-7.865zm-13.66 7.05zm9.696 3.328zm.956-.481zm.77-.53zm.875-.78zm-3.567 2.125z"/><path fill="#172734" d="M178.838 409.055l.028.024-.028-.024zm.606.642c.056.066.107.136.161.205-.053-.069-.105-.139-.161-.205zm-1.452-1.322c.074.052.15.101.221.156-.072-.054-.147-.104-.221-.156zm2.41 2.76c.041.08.085.159.124.24-.039-.081-.083-.16-.124-.24zm-3.179-3.236zm2.732 2.48zm.892 1.768l-.023-.055.02.051a.04.04 0 01.003.004zm-6.437-5.12c.092.01.184.017.276.031-.092-.014-.184-.021-.276-.031zm-3.683.502c.082-.033.163-.068.246-.098-.083.03-.164.065-.246.098zm5.691-.007c.087.034.169.074.254.111-.085-.037-.168-.077-.254-.111zm-6.493.381zm-1.399.958l.003-.003zm4.968-1.881zm-.87.055c.088-.011.177-.016.265-.024-.088.008-.177.013-.265.024zm-3.428 1.311c.072-.05.148-.095.222-.143-.074.048-.15.093-.222.143z" opacity=".5"/><path fill="#46739D" d="M180.844 412.143l-.02-.051a8.019 8.019 0 00-.298-.717c-.039-.081-.082-.16-.124-.24a7.677 7.677 0 00-.446-.757 7.782 7.782 0 00-.35-.477c-.054-.068-.105-.138-.161-.205a7.841 7.841 0 00-.578-.618l-.028-.024a7.49 7.49 0 00-.625-.523c-.072-.054-.148-.104-.221-.156a7.35 7.35 0 00-1.32-.742c-.085-.037-.168-.077-.254-.111a7.656 7.656 0 00-.851-.286 7.9 7.9 0 00-.881-.178c-.092-.014-.184-.02-.276-.031a7.471 7.471 0 00-1.521-.017c-.089.008-.177.013-.265.024a7.563 7.563 0 00-.84.148 7.747 7.747 0 00-.811.247c-.083.03-.164.065-.246.098a7.635 7.635 0 00-1.309.675c-.074.048-.15.093-.222.143a7.66 7.66 0 00-.67.514c8.047-3.743 12.261 3.192 12.317 3.284z"/><path fill="#172734" d="M180.844 412.143l-.02-.051a8.019 8.019 0 00-.298-.717c-.039-.081-.082-.16-.124-.24a7.677 7.677 0 00-.446-.757 7.782 7.782 0 00-.35-.477c-.054-.068-.105-.138-.161-.205a7.841 7.841 0 00-.578-.618l-.028-.024a7.49 7.49 0 00-.625-.523c-.072-.054-.148-.104-.221-.156a7.35 7.35 0 00-1.32-.742c-.085-.037-.168-.077-.254-.111a7.656 7.656 0 00-.851-.286 7.9 7.9 0 00-.881-.178c-.092-.014-.184-.02-.276-.031a7.471 7.471 0 00-1.521-.017c-.089.008-.177.013-.265.024a7.563 7.563 0 00-.84.148 7.747 7.747 0 00-.811.247c-.083.03-.164.065-.246.098a7.635 7.635 0 00-1.309.675c-.074.048-.15.093-.222.143a7.66 7.66 0 00-.67.514c8.047-3.743 12.261 3.192 12.317 3.284z" opacity=".5"/><path fill="#BAB2CC" d="M168.84 420.736l-.034-.029c.012.008.022.019.034.029zm-.672-.6c-.063-.063-.123-.128-.184-.193.061.065.121.131.184.193zm1.652 1.24c-.077-.043-.156-.085-.232-.131.076.046.155.088.232.131zm-2.271-1.937c-.052-.066-.106-.131-.156-.199.049.068.103.133.156.199zm-1.039-1.739c-.036-.083-.068-.167-.1-.25.032.084.064.168.1.25zm-.369-1.04c.015.054.038.105.054.159l-.035-.119-.019-.04zm.762 1.84c-.014-.024-.025-.05-.038-.074.013.024.024.05.038.074zm5.902 3.816a8.371 8.371 0 01-.272-.03c.091.013.181.021.272.03zm4.905-1.168c-.065.041-.128.085-.193.124.066-.039.128-.083.193-.124zm-3.939 1.21c-.079.002-.159-.002-.238-.002.079 0 .159.004.238.002zm2.945-.667c-.051.023-.104.041-.156.062.052-.022.105-.039.156-.062zm1.774-1.109c-.066.055-.135.107-.203.16.068-.053.137-.105.203-.16zm-2.637 1.429zm-.998.239c-.056.009-.11.023-.167.032.056-.008.111-.022.167-.032zm-4.168-.455c-.085-.035-.168-.073-.252-.111.084.037.167.076.252.111z" opacity=".25"/><path fill="#46739D" d="M166.16 416.7l.035.119c.063.214.134.425.214.632.033.084.065.168.1.25.106.248.224.49.355.725.014.024.024.05.038.074.147.257.313.502.489.741.05.068.104.133.156.199.138.174.283.342.435.505.061.065.121.13.184.193.202.2.413.392.638.57l.034.029c.237.185.489.352.749.51.076.046.154.087.232.131.199.111.404.214.615.308.084.037.167.076.252.111.29.117.587.223.897.306.316.085.633.141.949.185.091.013.181.021.272.03.244.025.486.038.728.039.079 0 .159.004.238.002.309-.008.615-.032.918-.076.056-.008.111-.022.167-.032a7.474 7.474 0 00.999-.239c.24-.075.476-.161.707-.258.052-.022.105-.039.156-.062a7.51 7.51 0 00.8-.419c.066-.039.129-.083.193-.124.198-.126.391-.262.577-.406.068-.053.137-.105.203-.16.234-.194.461-.398.672-.619-8.579 5.454-12.705-2.65-13.002-3.264z"/><path fill="#BAB2CC" d="M166.16 416.7l.035.119c.063.214.134.425.214.632.033.084.065.168.1.25.106.248.224.49.355.725.014.024.024.05.038.074.147.257.313.502.489.741.05.068.104.133.156.199.138.174.283.342.435.505.061.065.121.13.184.193.202.2.413.392.638.57l.034.029c.237.185.489.352.749.51.076.046.154.087.232.131.199.111.404.214.615.308.084.037.167.076.252.111.29.117.587.223.897.306.316.085.633.141.949.185.091.013.181.021.272.03.244.025.486.038.728.039.079 0 .159.004.238.002.309-.008.615-.032.918-.076.056-.008.111-.022.167-.032a7.474 7.474 0 00.999-.239c.24-.075.476-.161.707-.258.052-.022.105-.039.156-.062a7.51 7.51 0 00.8-.419c.066-.039.129-.083.193-.124.198-.126.391-.262.577-.406.068-.053.137-.105.203-.16.234-.194.461-.398.672-.619-8.579 5.454-12.705-2.65-13.002-3.264z" opacity=".25"/><path fill="#46739D" d="M108.296 452.944zm-31.084-8.598zm-3.234 1.177zm30.21 3.678zm2.589 2.184zm-31.171-6.506zm29.917 5.387zm3.926 4.015zm-1.508 40.055zm-3.437 3.099l.365-.286c-.121.097-.248.185-.37.279a.018.018 0 00.005.007zm8.818-37.016zm.686 1.544zm-41.99-15.527zm40.5 12.411zm-1.096-1.856zm-.943-1.373zm-12.772-10.147zm-16.715-1.994zm1.761-.238zm-10.007 4.684c.302.616.596 1.233.904 1.848a256.45 256.45 0 0030.253 46.919 61.115 61.115 0 004.041-2.357 30.228 30.228 0 007.286-13.032 30.215 30.215 0 00-.642-17.813c-.171-.285-14.464-23.855-41.842-15.565zm13.435-4.853zm7.578 1.041zm2.229.699zm-3.968-1.106zm-1.758-.307zm-1.818-.209zm12.389 3.806zm1.897 1.175zm-18.26-5.062zm21.807 52.84zm-6.97-49.751z"/><path fill="#172734" d="M109.076 453.83zm-3.969-3.905c.139.114.28.225.417.341-.138-.116-.278-.228-.417-.341zm9.485 13.569c-.021-.061-.047-.119-.069-.18.021.058.044.115.064.172a.257.257 0 01.005.008zm-41.093-17.766c.159-.071.32-.137.479-.205-.16.068-.321.134-.479.205zm3.215-1.223c.166-.053.331-.109.498-.159-.167.05-.332.106-.498.159zm37.08 16.957c.072.167.146.333.215.502-.07-.169-.144-.335-.215-.502zm-33.318-17.9c.171-.031.344-.056.516-.085-.172.029-.344.054-.516.085zm-5.417 1.521zm37.222 13.33c.082.143.158.289.237.434-.08-.145-.156-.291-.237-.434zm.787 1.481zm-2.912-4.706c.108.143.218.286.323.431-.105-.146-.215-.288-.323-.431zm1.165 1.654l.101.149c-.032-.05-.068-.099-.101-.149zm-4.642-5.545c.032.03.066.058.097.088-.031-.031-.065-.059-.097-.088zm1.277 1.274c.115.122.226.248.339.372-.113-.123-.223-.249-.339-.372zm-25.79-9.264zm16.646 2.657c.165.077.332.152.495.232-.163-.08-.33-.155-.495-.232zm1.958.996l.063.034c-.021-.012-.043-.022-.063-.034zm1.525.918c.147.094.29.194.435.29-.145-.096-.288-.195-.435-.29zm1.416.97zm-6.573-3.61zm-9.236-2.097c.18.012.361.031.542.046-.181-.015-.361-.033-.542-.046zm-3.963 0c.177-.011.353-.026.53-.034-.177.008-.353.022-.53.034zm7.538.461c.181.034.362.065.543.102-.181-.038-.362-.068-.543-.102zm3.988 1.024c.176.058.349.122.523.184-.175-.061-.347-.125-.523-.184zm-5.811-1.312z" opacity=".5"/><path fill="#46739D" d="M114.588 463.487c-.02-.058-.044-.115-.064-.172a29.342 29.342 0 00-.516-1.351c-.069-.168-.143-.335-.215-.502a30.495 30.495 0 00-1.276-2.615c-.079-.144-.155-.291-.237-.434a30.661 30.661 0 00-.859-1.422l-.101-.149a31.962 31.962 0 00-.842-1.224c-.105-.145-.215-.287-.323-.431a30.653 30.653 0 00-1.08-1.358 29.782 29.782 0 00-.781-.886c-.113-.124-.224-.25-.339-.372a30.71 30.71 0 00-1.18-1.187l-.097-.088a30.55 30.55 0 00-1.156-1.03c-.137-.116-.278-.228-.417-.341a31.12 31.12 0 00-1.396-1.077 27.996 27.996 0 00-.981-.679c-.145-.097-.288-.196-.435-.29a29.854 29.854 0 00-1.462-.884l-.063-.034a30.656 30.656 0 00-1.462-.765c-.163-.08-.33-.155-.495-.232a29.666 29.666 0 00-2.825-1.154c-.174-.061-.347-.125-.523-.184a30.609 30.609 0 00-1.706-.515 31.01 31.01 0 00-1.739-.408c-.181-.037-.362-.068-.543-.102a30.193 30.193 0 00-1.823-.288 29.359 29.359 0 00-1.21-.126c-.181-.015-.361-.034-.542-.046a30.113 30.113 0 00-1.721-.071 29.556 29.556 0 00-1.712.036c-.177.008-.354.023-.53.034a29.158 29.158 0 00-2.947.337c-.172.028-.344.054-.516.085a30.286 30.286 0 00-3.264.784c-.167.05-.332.106-.498.159a28.85 28.85 0 00-2.737 1.019c-.16.068-.321.134-.479.205-.499.224-.994.458-1.48.708.24.496.484.992.728 1.487 27.38-8.291 41.673 15.279 41.844 15.563z"/><path fill="#172734" d="M114.588 463.487c-.02-.058-.044-.115-.064-.172a29.342 29.342 0 00-.516-1.351c-.069-.168-.143-.335-.215-.502a30.495 30.495 0 00-1.276-2.615c-.079-.144-.155-.291-.237-.434a30.661 30.661 0 00-.859-1.422l-.101-.149a31.962 31.962 0 00-.842-1.224c-.105-.145-.215-.287-.323-.431a30.653 30.653 0 00-1.08-1.358 29.782 29.782 0 00-.781-.886c-.113-.124-.224-.25-.339-.372a30.71 30.71 0 00-1.18-1.187l-.097-.088a30.55 30.55 0 00-1.156-1.03c-.137-.116-.278-.228-.417-.341a31.12 31.12 0 00-1.396-1.077 27.996 27.996 0 00-.981-.679c-.145-.097-.288-.196-.435-.29a29.854 29.854 0 00-1.462-.884l-.063-.034a30.656 30.656 0 00-1.462-.765c-.163-.08-.33-.155-.495-.232a29.666 29.666 0 00-2.825-1.154c-.174-.061-.347-.125-.523-.184a30.609 30.609 0 00-1.706-.515 31.01 31.01 0 00-1.739-.408c-.181-.037-.362-.068-.543-.102a30.193 30.193 0 00-1.823-.288 29.359 29.359 0 00-1.21-.126c-.181-.015-.361-.034-.542-.046a30.113 30.113 0 00-1.721-.071 29.556 29.556 0 00-1.712.036c-.177.008-.354.023-.53.034a29.158 29.158 0 00-2.947.337c-.172.028-.344.054-.516.085a30.286 30.286 0 00-3.264.784c-.167.05-.332.106-.498.159a28.85 28.85 0 00-2.737 1.019c-.16.068-.321.134-.479.205-.499.224-.994.458-1.48.708.24.496.484.992.728 1.487 27.38-8.291 41.673 15.279 41.844 15.563z" opacity=".5"/><path fill="#BAB2CC" d="M107.944 494.333l-.003.003zm-1.286 1.266c-.126.118-.254.232-.382.348.128-.115.256-.23.382-.348zm-1.434 1.256c-.119.098-.235.198-.355.294.12-.096.237-.196.355-.294z" opacity=".25"/><path fill="#46739D" d="M104.498 497.428c.122-.095.249-.183.37-.279.12-.096.237-.196.355-.294.357-.294.708-.597 1.052-.908.128-.115.256-.23.382-.348.438-.409.868-.828 1.282-1.264l.003-.003a61.115 61.115 0 01-4.041 2.357c.201.246.397.495.597.739z"/><path fill="#BAB2CC" d="M104.498 497.428c.122-.095.249-.183.37-.279.12-.096.237-.196.355-.294.357-.294.708-.597 1.052-.908.128-.115.256-.23.382-.348.438-.409.868-.828 1.282-1.264l.003-.003a61.115 61.115 0 01-4.041 2.357c.201.246.397.495.597.739z" opacity=".25"/><path fill="#46739D" d="M284.457 481.107zm-59.227-21.875zm2.793-1.301zm48.383 10.464zm-53.23-8.025zm-2.013 1.261zm9.157-4.608zm50.492 17.075zm1.545 2.617zm-65.618-11.732a42.605 42.605 0 00-13.256 21.226 42.597 42.597 0 00.022 22.22c.879 1.867 23.797 49.22 72.404 18.311a42.613 42.613 0 0010.272-18.372 42.61 42.61 0 00-.905-25.113c-.261-.431-23.717-39.129-68.537-18.272zm61.291 5.294zm-2.122 56.464zm3.575-54.577zm-18.008-14.307zm22.016 21.073zm-27.58-22.99zm12.648 5.721zm-15.099-6.295zm5.592 1.559zm-39.903 6.13zm54.41 65.961zm-9.826-70.137zm6.88 4.237zm-35.749-7.466zm37.633 8.968zm-32.101-9.907zm2.421-.187zm-10.234 1.747zm5.334-1.225zm13.065-.113zm23.281 11.261zm-29.035-11.721zm3.188.165zm17.467 5.366zm-45.366 72.522zm2.199 1.413zm2.789 1.552zm-9.507-6.565zm2.306 1.966zm9.66 5.738zm5.788 2.008zm5.434 1.076zm-8.704-2.106zm-16.327-10.462zm2.584-62.163zm-10.531 50.741zm-1.028-2.311zm2.347 4.856zm-3.35-7.591zm6.278 12.105zm1.817 2.292zm30.195 14.961zm29.107-9.326zm-62.571-10.005zm27.388 18.543zm14.636.402zm8.182-2.045zm5.356-2.332zm-2.858 1.345zm-8.09 2.564zm3.18-.785zm-8.783 1.582zm21.165-7.492zm-2.385 1.534zm-21.686 6.074z"/><path fill="#172734" d="M280.67 473.889c.046.071.096.138.142.209-.046-.071-.096-.139-.142-.209zm4.611 9.377c-.03-.085-.066-.168-.097-.253.029.081.062.161.09.243l.007.01zm-6.255-11.712c.153.203.308.404.457.61-.149-.206-.304-.407-.457-.61zm2.996 4.548c.115.202.223.409.335.613-.112-.204-.22-.41-.335-.613zm2.133 4.299c.101.235.205.469.302.706-.097-.237-.201-.471-.302-.706zm-1.023-2.21zm-64.57-14.697c.193-.15.391-.293.587-.44-.196.147-.394.29-.587.44zm18.621-8.328c.244-.044.489-.08.734-.121-.244.041-.49.077-.734.121zm2.383-.36zm8.09-.233c.253.017.507.043.76.065-.254-.021-.507-.048-.76-.065zm-5.591-.001c.251-.016.5-.037.752-.049-.252.013-.501.033-.752.049zm-10.183 1.923c.234-.074.466-.153.701-.223-.235.07-.467.148-.701.223zm-2.333.815zm20.575-2.494zm-27.572 5.934c.208-.127.414-.257.624-.38-.21.123-.416.253-.624.38zm-2.069 1.342zm6.866-3.873c.223-.1.449-.192.674-.288-.225.096-.451.188-.674.288zm33.326-.69zm9.265 5.089zm-17.246-7.396c.255.048.511.091.766.144-.256-.053-.511-.096-.766-.144zm19.213 8.913c.197.161.396.319.59.483-.194-.164-.393-.322-.59-.483zm4.017 3.731c.164.174.321.353.482.529-.161-.177-.318-.356-.482-.529zm-1.802-1.799c.046.043.095.084.141.128-.046-.044-.095-.085-.141-.128zm-6.178-4.816c.208.133.41.273.615.41-.205-.137-.407-.277-.615-.41zm9.561 8.391zm-11.71-9.685l.088.047c-.029-.016-.059-.03-.088-.047zm-7.479-3.29c.248.082.491.172.736.258-.245-.086-.488-.176-.736-.258zm4.719 1.885c.233.109.468.214.698.327-.23-.113-.465-.218-.698-.327z" opacity=".5"/><path fill="#46739D" d="M285.275 483.256c-.028-.082-.062-.161-.09-.243a44.22 44.22 0 00-.727-1.906c-.097-.237-.201-.471-.302-.706a44.083 44.083 0 00-1.023-2.21 44.106 44.106 0 00-.775-1.476c-.112-.204-.219-.411-.335-.613a43.306 43.306 0 00-1.21-2.004c-.046-.071-.096-.139-.142-.209a42.874 42.874 0 00-1.187-1.725c-.149-.206-.304-.407-.457-.61a42.139 42.139 0 00-2.621-3.16c-.161-.176-.318-.355-.482-.529-.539-.57-1.09-1.13-1.661-1.671-.046-.044-.095-.084-.141-.128a42.313 42.313 0 00-1.626-1.449c-.194-.164-.393-.322-.59-.483a42.932 42.932 0 00-1.967-1.517 42.88 42.88 0 00-1.381-.957c-.205-.136-.407-.277-.615-.41a42.711 42.711 0 00-2.061-1.247l-.088-.047a42.37 42.37 0 00-2.062-1.078c-.23-.113-.465-.218-.698-.327a41.27 41.27 0 00-3.983-1.626c-.245-.086-.488-.176-.736-.258a44.015 44.015 0 00-2.405-.727 43.195 43.195 0 00-2.451-.574c-.255-.053-.511-.096-.766-.144a44.638 44.638 0 00-2.57-.406c-.57-.072-1.139-.13-1.708-.178-.253-.022-.507-.048-.76-.065a42.072 42.072 0 00-2.428-.1 42.024 42.024 0 00-2.411.051c-.251.012-.501.032-.752.049a42.013 42.013 0 00-2.499.234c-.552.069-1.101.15-1.649.24-.245.04-.49.076-.734.121-.778.142-1.553.299-2.319.483a42.16 42.16 0 00-2.281.622c-.235.07-.467.149-.701.223a42.839 42.839 0 00-2.334.816c-.513.197-1.021.405-1.526.621-.225.096-.451.189-.674.288-.715.32-1.423.655-2.118 1.013-.696.359-1.379.742-2.054 1.138-.21.123-.416.254-.624.38a42.76 42.76 0 00-2.07 1.342c-.451.312-.895.634-1.334.962-.196.147-.394.29-.587.44-.62.481-1.23.974-1.823 1.489 44.822-20.859 68.278 17.839 68.538 18.271z"/><path fill="#172734" d="M285.275 483.256c-.028-.082-.062-.161-.09-.243a44.22 44.22 0 00-.727-1.906c-.097-.237-.201-.471-.302-.706a44.083 44.083 0 00-1.023-2.21 44.106 44.106 0 00-.775-1.476c-.112-.204-.219-.411-.335-.613a43.306 43.306 0 00-1.21-2.004c-.046-.071-.096-.139-.142-.209a42.874 42.874 0 00-1.187-1.725c-.149-.206-.304-.407-.457-.61a42.139 42.139 0 00-2.621-3.16c-.161-.176-.318-.355-.482-.529-.539-.57-1.09-1.13-1.661-1.671-.046-.044-.095-.084-.141-.128a42.313 42.313 0 00-1.626-1.449c-.194-.164-.393-.322-.59-.483a42.932 42.932 0 00-1.967-1.517 42.88 42.88 0 00-1.381-.957c-.205-.136-.407-.277-.615-.41a42.711 42.711 0 00-2.061-1.247l-.088-.047a42.37 42.37 0 00-2.062-1.078c-.23-.113-.465-.218-.698-.327a41.27 41.27 0 00-3.983-1.626c-.245-.086-.488-.176-.736-.258a44.015 44.015 0 00-2.405-.727 43.195 43.195 0 00-2.451-.574c-.255-.053-.511-.096-.766-.144a44.638 44.638 0 00-2.57-.406c-.57-.072-1.139-.13-1.708-.178-.253-.022-.507-.048-.76-.065a42.072 42.072 0 00-2.428-.1 42.024 42.024 0 00-2.411.051c-.251.012-.501.032-.752.049a42.013 42.013 0 00-2.499.234c-.552.069-1.101.15-1.649.24-.245.04-.49.076-.734.121-.778.142-1.553.299-2.319.483a42.16 42.16 0 00-2.281.622c-.235.07-.467.149-.701.223a42.839 42.839 0 00-2.334.816c-.513.197-1.021.405-1.526.621-.225.096-.451.189-.674.288-.715.32-1.423.655-2.118 1.013-.696.359-1.379.742-2.054 1.138-.21.123-.416.254-.624.38a42.76 42.76 0 00-2.07 1.342c-.451.312-.895.634-1.334.962-.196.147-.394.29-.587.44-.62.481-1.23.974-1.823 1.489 44.822-20.859 68.278 17.839 68.538 18.271z" opacity=".5"/><path fill="#BAB2CC" d="M267.43 533.633zm-2.458 1.418c-.136.073-.27.151-.407.222.137-.071.271-.149.407-.222zm-5.083 2.301c-.226.085-.452.172-.68.253.228-.082.453-.168.68-.253zm2.411-.987c-.196.088-.396.169-.593.254.198-.086.397-.167.593-.254zm-7.968 2.664c-.238.054-.477.103-.715.154.239-.051.478-.1.715-.154zm15.234-6.804c-.127.09-.259.173-.387.262.128-.089.259-.172.387-.262zm4.53-3.698c-.177.166-.357.327-.537.49.179-.163.36-.324.537-.49zm-2.024 1.772c-.166.137-.33.277-.498.412.169-.135.332-.275.498-.412zm-32.214 9.506c-.224-.026-.448-.061-.672-.092.224.031.448.066.672.092zm-30.478-18.543c-.126-.186-.255-.37-.377-.557.123.188.252.371.377.557zm1.529 2.127c-.154-.2-.304-.403-.454-.606.151.203.3.405.454.606zm1.569 1.935c-.07-.081-.136-.167-.206-.249.07.082.136.168.206.249zm4.081 4.109c-.189-.167-.375-.337-.561-.507.187.17.372.34.561.507zm1.93 1.611c-.063-.049-.122-.102-.185-.151.062.049.122.102.185.151zm-3.84-3.405c-.165-.164-.333-.326-.495-.493.163.166.33.328.495.493zm-9.211-13.624c-.085-.201-.175-.399-.257-.602.082.203.171.401.257.602zm-1.963-5.648c.031.114.071.224.103.338l-.073-.275-.03-.063zm3.066 8.042a43.194 43.194 0 01-.332-.685c.109.229.218.458.332.685zm1.169 2.195c-.063-.11-.121-.224-.183-.335.063.111.12.225.183.335zm20.95 18.311c-.232-.095-.466-.186-.696-.285.23.099.464.19.696.285zm17.218 3.169zm-2.927-.031c-.161-.007-.322-.008-.484-.017.162.009.323.01.484.017zm-5.803-.663c-.252-.046-.505-.091-.757-.142.253.051.505.096.757.142zm-16.032-6.465c-.2-.133-.402-.263-.599-.399.197.136.399.266.599.399zm27.372 7.023c-.157.013-.316.019-.473.031.157-.012.316-.017.473-.031zm-22.868-4.395l-.116-.062c.04.02.077.042.116.062zm-2.252-1.224c-.22-.127-.436-.259-.652-.39.217.131.432.263.652.39zm28.305 5.215c-.216.035-.43.074-.647.106.217-.031.432-.071.647-.106zm-20.459-1.679c-.246-.082-.489-.171-.732-.257.244.086.486.175.732.257zM204.311 511.1c-.048-.14-.088-.282-.135-.422.047.14.087.282.135.422z" opacity=".25"/><path fill="#46739D" d="M203.504 508.43l.073.275c.184.663.384 1.321.599 1.973.046.14.087.283.135.422.267.78.559 1.551.869 2.313.082.202.172.401.257.602a42.906 42.906 0 001.103 2.394c.314.628.642 1.248.987 1.86.062.111.12.225.183.335.409.713.843 1.412 1.292 2.101.123.188.252.371.377.557.347.514.706 1.021 1.075 1.521.15.203.3.406.454.606a43.1 43.1 0 001.363 1.687c.07.082.135.167.206.249a41.789 41.789 0 001.677 1.821c.162.167.33.329.495.493.44.438.889.867 1.349 1.287.186.17.372.341.561.507.568.5 1.148.988 1.744 1.459.063.049.122.102.185.151a42.629 42.629 0 002.028 1.482c.197.136.399.266.599.399.525.349 1.058.687 1.6 1.014.217.131.433.263.652.39.699.405 1.409.795 2.136 1.162l.116.062c.765.383 1.549.738 2.344 1.078.23.098.464.19.696.285a42.2 42.2 0 001.821.693c.244.086.486.175.732.257.834.279 1.677.542 2.538.773.879.236 1.759.432 2.64.61.252.051.505.096.757.142.68.125 1.359.232 2.037.324.224.03.448.065.672.092.871.103 1.742.182 2.609.231.162.009.322.01.484.017a43.205 43.205 0 005.064-.074c.158-.012.316-.017.473-.031a41.956 41.956 0 002.539-.298c.216-.032.431-.071.647-.106.652-.106 1.3-.226 1.944-.362.239-.05.478-.099.715-.154a41.941 41.941 0 002.464-.632 42.746 42.746 0 002.412-.792c.228-.081.454-.168.68-.253a43.38 43.38 0 001.818-.733c.198-.085.397-.166.593-.254a44.036 44.036 0 002.265-1.091c.137-.071.27-.149.407-.222a42.353 42.353 0 002.459-1.418c.592-.368 1.175-.75 1.748-1.146.128-.089.26-.172.387-.262a43.958 43.958 0 002.009-1.514c.168-.134.332-.275.498-.412a43.052 43.052 0 002.023-1.772 42.976 42.976 0 001.812-1.786c-48.605 30.908-71.523-16.445-72.402-18.312z"/><path fill="#BAB2CC" d="M203.504 508.43l.073.275c.184.663.384 1.321.599 1.973.046.14.087.283.135.422.267.78.559 1.551.869 2.313.082.202.172.401.257.602a42.906 42.906 0 001.103 2.394c.314.628.642 1.248.987 1.86.062.111.12.225.183.335.409.713.843 1.412 1.292 2.101.123.188.252.371.377.557.347.514.706 1.021 1.075 1.521.15.203.3.406.454.606a43.1 43.1 0 001.363 1.687c.07.082.135.167.206.249a41.789 41.789 0 001.677 1.821c.162.167.33.329.495.493.44.438.889.867 1.349 1.287.186.17.372.341.561.507.568.5 1.148.988 1.744 1.459.063.049.122.102.185.151a42.629 42.629 0 002.028 1.482c.197.136.399.266.599.399.525.349 1.058.687 1.6 1.014.217.131.433.263.652.39.699.405 1.409.795 2.136 1.162l.116.062c.765.383 1.549.738 2.344 1.078.23.098.464.19.696.285a42.2 42.2 0 001.821.693c.244.086.486.175.732.257.834.279 1.677.542 2.538.773.879.236 1.759.432 2.64.61.252.051.505.096.757.142.68.125 1.359.232 2.037.324.224.03.448.065.672.092.871.103 1.742.182 2.609.231.162.009.322.01.484.017a43.205 43.205 0 005.064-.074c.158-.012.316-.017.473-.031a41.956 41.956 0 002.539-.298c.216-.032.431-.071.647-.106.652-.106 1.3-.226 1.944-.362.239-.05.478-.099.715-.154a41.941 41.941 0 002.464-.632 42.746 42.746 0 002.412-.792c.228-.081.454-.168.68-.253a43.38 43.38 0 001.818-.733c.198-.085.397-.166.593-.254a44.036 44.036 0 002.265-1.091c.137-.071.27-.149.407-.222a42.353 42.353 0 002.459-1.418c.592-.368 1.175-.75 1.748-1.146.128-.089.26-.172.387-.262a43.958 43.958 0 002.009-1.514c.168-.134.332-.275.498-.412a43.052 43.052 0 002.023-1.772 42.976 42.976 0 001.812-1.786c-48.605 30.908-71.523-16.445-72.402-18.312z" opacity=".25"/><path fill="#46739D" d="M493.595 487.556c-.088-.014-.176-.032-.265-.047l.265.047zm-2.083-.389c-.182-.038-.364-.076-.546-.116.182.04.364.078.546.116zm13.769.761c-.13.012-.26.028-.391.039.131-.012.26-.027.391-.039zm-9.12-.039c-.174-.018-.348-.035-.522-.055.174.02.348.037.522.055zm-21.563-7.942zm-2.392-1.766zm26.063 9.882c-.133-.008-.267-.02-.4-.028.134.009.267.021.4.028zm-12.9-2.623zm-5.38-2.288zm2.659 1.231zm18.117 3.752c-.158 0-.317.001-.475-.001.158.002.316.001.475.001zm2.132-.04c-.157.007-.315.01-.472.015.158-.005.315-.008.472-.015zm4.551-.425c-.167.024-.335.045-.503.068.168-.023.336-.044.503-.068zm-18.543-1.116zm-11.93-5.079zm61.364-66.78zm-17.025-14.359zm-2.44-1.105zm4.764 2.321zm2.892 1.79zm-10.274-5.118zm-6.047-1.686zm2.649.621zm15.893 7.756z"/><path fill="#46739D" d="M470.514 406.934a46.598 46.598 0 011.972-1.61 46.056 46.056 0 00-16.301 24.556 46.04 46.04 0 00.024 24.02c.79 1.677 18.009 37.24 53.909 30.136a256.217 256.217 0 0032.048-60.819c-7.419-9.654-31.672-34.888-71.652-16.283zm33.42-11.253zm26.853 10.858zm-23.259-10.469zm32.247 20.716zm1.669 2.827zm-4.676-6.958zm-4.071-4.412zm2.316 2.378zm-38.926-14.791zm-36.956 65.955zm1.424 2.746zm44.203-68.78zm-46.739 63.534zm4.132 7.883zm1.571 2.248zm4 4.716zm-2.035-2.237zm-8.753-15.568zm36.472-60.135zm-5.764 1.325zm-14.524 7.333zm-3.405 71.205zm15.481-77.725zm-9.899 4.982zm2.178-1.365zm5.238-2.636z"/><path fill="#172734" d="M503.934 395.681c.274.018.549.047.824.07-.275-.023-.55-.051-.824-.07zm5.446.701c.276.052.553.099.829.156-.276-.057-.552-.104-.829-.156zm-11.487-.702c.27-.017.539-.04.81-.052-.271.013-.54.035-.81.052zm8.711.264zm23.547 10.074c.212.173.427.344.636.521-.209-.177-.424-.347-.636-.521zm-6.609-4.517c.032.018.065.034.097.051-.032-.018-.066-.033-.097-.051zm-8.085-3.557c.269.089.533.187.799.281-.266-.094-.53-.192-.799-.281zm19.036 12.106c.177.187.346.38.52.57-.174-.189-.343-.382-.52-.57zm-8.626-7.15c.224.144.442.295.663.442-.221-.147-.439-.298-.663-.442zm6.68 5.208c.049.046.101.089.149.135-.048-.046-.1-.089-.149-.135zm5.301 5.932c.164.218.331.435.491.656-.16-.222-.327-.438-.491-.656zm-1.646-2.069zm-15.642-11.989c.251.118.505.231.753.353-.248-.121-.502-.235-.753-.353zm20.525 18.973c.124.217.239.439.359.658-.12-.219-.235-.441-.359-.658zm1.554 2.988l.001-.003a48.952 48.952 0 00-.001.003zm-24.631-23.066zm21.618 17.689c.049.074.101.146.15.221-.049-.075-.102-.147-.15-.221zm-11.602-12.188zm-53.462-.57zm-2.077 1.516c.208-.162.422-.316.632-.474-.21.158-.423.313-.632.474zm4.314-2.966c.225-.137.447-.278.674-.411-.227.133-.45.274-.674.411zm18.391-6.425zm-10.828 2.707zm2.523-.882c.252-.08.503-.165.757-.241-.254.076-.505.16-.757.241zm5.73-1.436c.263-.048.528-.087.791-.13-.264.044-.528.082-.791.13zm-10.631 3.3c.241-.108.485-.208.728-.311-.243.104-.488.204-.728.311z" opacity=".5"/><path fill="#46739D" d="M541.444 419.613c-.12-.219-.236-.441-.359-.658a46.404 46.404 0 00-1.31-2.169c-.048-.075-.101-.146-.15-.221a45.884 45.884 0 00-1.287-1.87c-.16-.221-.327-.437-.491-.656a48.051 48.051 0 00-1.645-2.069 46.095 46.095 0 00-1.19-1.35c-.174-.19-.343-.383-.52-.57a46.366 46.366 0 00-1.796-1.807c-.049-.046-.1-.089-.149-.135a45.296 45.296 0 00-1.761-1.569c-.209-.177-.424-.347-.636-.521a45.537 45.537 0 00-2.126-1.641c-.49-.355-.989-.699-1.494-1.035-.221-.147-.439-.299-.663-.442a46.235 46.235 0 00-2.228-1.348c-.032-.018-.065-.034-.097-.051a46.523 46.523 0 00-2.228-1.165c-.248-.122-.502-.236-.753-.353a45.646 45.646 0 00-2.553-1.105 46.317 46.317 0 00-1.752-.652c-.266-.094-.53-.191-.799-.281a46.8 46.8 0 00-2.599-.785 47.62 47.62 0 00-2.649-.621c-.276-.057-.553-.104-.829-.156a46.162 46.162 0 00-2.777-.438 46.382 46.382 0 00-1.846-.193c-.275-.023-.55-.052-.824-.07a45.935 45.935 0 00-5.231-.053c-.271.013-.54.035-.81.052a47.084 47.084 0 00-2.703.252 46.14 46.14 0 00-1.784.259c-.264.043-.529.082-.791.13a46.206 46.206 0 00-4.973 1.194c-.254.076-.504.161-.757.241a46.64 46.64 0 00-2.523.882c-.555.213-1.105.438-1.651.671-.243.104-.487.203-.728.311a46.619 46.619 0 00-4.511 2.325c-.227.133-.449.274-.674.411a47.012 47.012 0 00-2.236 1.45 45.93 45.93 0 00-1.444 1.042c-.211.158-.424.312-.632.474-.67.52-1.33 1.053-1.972 1.61 39.98-18.605 64.234 6.628 71.651 16.283.156-.426.322-.847.475-1.274a44.846 44.846 0 00-.355-.731c-.269-.538-.55-1.07-.84-1.598z"/><path fill="#172734" d="M541.444 419.613c-.12-.219-.236-.441-.359-.658a46.404 46.404 0 00-1.31-2.169c-.048-.075-.101-.146-.15-.221a45.884 45.884 0 00-1.287-1.87c-.16-.221-.327-.437-.491-.656a48.051 48.051 0 00-1.645-2.069 46.095 46.095 0 00-1.19-1.35c-.174-.19-.343-.383-.52-.57a46.366 46.366 0 00-1.796-1.807c-.049-.046-.1-.089-.149-.135a45.296 45.296 0 00-1.761-1.569c-.209-.177-.424-.347-.636-.521a45.537 45.537 0 00-2.126-1.641c-.49-.355-.989-.699-1.494-1.035-.221-.147-.439-.299-.663-.442a46.235 46.235 0 00-2.228-1.348c-.032-.018-.065-.034-.097-.051a46.523 46.523 0 00-2.228-1.165c-.248-.122-.502-.236-.753-.353a45.646 45.646 0 00-2.553-1.105 46.317 46.317 0 00-1.752-.652c-.266-.094-.53-.191-.799-.281a46.8 46.8 0 00-2.599-.785 47.62 47.62 0 00-2.649-.621c-.276-.057-.553-.104-.829-.156a46.162 46.162 0 00-2.777-.438 46.382 46.382 0 00-1.846-.193c-.275-.023-.55-.052-.824-.07a45.935 45.935 0 00-5.231-.053c-.271.013-.54.035-.81.052a47.084 47.084 0 00-2.703.252 46.14 46.14 0 00-1.784.259c-.264.043-.529.082-.791.13a46.206 46.206 0 00-4.973 1.194c-.254.076-.504.161-.757.241a46.64 46.64 0 00-2.523.882c-.555.213-1.105.438-1.651.671-.243.104-.487.203-.728.311a46.619 46.619 0 00-4.511 2.325c-.227.133-.449.274-.674.411a47.012 47.012 0 00-2.236 1.45 45.93 45.93 0 00-1.444 1.042c-.211.158-.424.312-.632.474-.67.52-1.33 1.053-1.972 1.61 39.98-18.605 64.234 6.628 71.651 16.283.156-.426.322-.847.475-1.274a44.846 44.846 0 00-.355-.731c-.269-.538-.55-1.07-.84-1.598z" opacity=".5"/><path fill="#BAB2CC" d="M475.245 480.378c-.216-.144-.434-.284-.647-.431.213.147.431.288.647.431zm20.394 7.456zm-23.234-9.489c-.068-.053-.132-.11-.199-.163.067.053.131.11.199.163zm-2.084-1.741a45.494 45.494 0 01-.607-.549c.201.184.402.368.607.549zm-12.023-16.666c-.093-.218-.19-.434-.279-.653.089.22.187.435.279.653zm7.61 12.223c-.076-.087-.146-.179-.22-.267.074.089.144.18.22.267zm-6.418-9.638zm-3.314-8.692c.033.123.077.243.111.366-.028-.099-.052-.199-.079-.298a1.417 1.417 0 01-.032-.068zm.904 2.955c-.052-.152-.096-.307-.146-.46.05.153.094.308.146.46zm7.131 13.282c-.166-.216-.327-.434-.489-.653.162.219.324.438.489.653zm-1.651-2.296c-.136-.201-.276-.4-.409-.604.133.203.273.402.409.604zm-1.805-2.874c-.069-.121-.132-.245-.2-.367.068.122.13.247.2.367zm7.498 9.763c-.177-.176-.357-.35-.531-.529.174.179.354.353.531.529zm22.713 12.39zm9.324 1.083zm-14.128-2.415c-.267-.089-.529-.185-.794-.279.265.094.528.189.794.279zm16.263 2.391zm-9.094-.601zm4.539.526zm9.075-.298zm-23.544-3.045c-.252-.102-.505-.202-.754-.308.25.106.503.205.754.308zm-3.286-1.473c-.043-.021-.083-.045-.126-.067.043.021.083.045.126.067zm-2.435-1.323c-.237-.137-.471-.28-.705-.421.235.141.468.284.705.421zm27.21 6.071zm2.6-.303l.001-.001-.042.007.041-.006z" opacity=".25"/><path fill="#46739D" d="M456.208 453.9l.079.298c.199.716.414 1.425.647 2.129.05.153.094.308.146.46.288.843.603 1.675.939 2.499.089.219.187.435.279.653.265.622.542 1.238.833 1.847.118.247.236.494.358.738.339.678.693 1.348 1.065 2.008.068.121.131.246.2.367.442.77.91 1.526 1.396 2.27.133.203.273.402.409.604.376.556.763 1.104 1.163 1.644.162.218.323.437.489.653.477.62.968 1.23 1.476 1.827.075.088.145.179.22.267a46.202 46.202 0 001.814 1.971c.174.179.354.353.531.529.476.474.963.939 1.46 1.393.201.184.402.368.607.549a46.825 46.825 0 001.885 1.578c.068.053.132.11.199.163a44.766 44.766 0 002.193 1.602c.213.147.431.288.647.431.567.377 1.144.743 1.73 1.097.234.141.468.284.705.421a46.56 46.56 0 002.309 1.256c.043.021.083.046.126.067.827.414 1.674.798 2.533 1.165.249.106.502.206.754.308.647.263 1.303.513 1.968.748.264.094.527.189.794.279.901.301 1.812.586 2.742.835.687.184 1.374.346 2.062.497.182.04.364.078.546.116.606.126 1.213.241 1.819.342.088.015.176.033.265.047.682.11 1.363.2 2.044.278.174.02.348.037.522.055.57.059 1.14.108 1.709.146.133.009.267.021.4.028.675.039 1.348.062 2.02.071.159.002.317.001.475.001.555.002 1.108-.007 1.66-.025.157-.005.315-.008.472-.015a45.441 45.441 0 001.993-.129c.13-.011.26-.027.391-.039a46.062 46.062 0 001.665-.19c.168-.022.336-.044.503-.068l.042-.007a254.515 254.515 0 002.625-3.627c-35.901 7.102-53.12-28.46-53.909-30.137z"/><path fill="#BAB2CC" d="M456.208 453.9l.079.298c.199.716.414 1.425.647 2.129.05.153.094.308.146.46.288.843.603 1.675.939 2.499.089.219.187.435.279.653.265.622.542 1.238.833 1.847.118.247.236.494.358.738.339.678.693 1.348 1.065 2.008.068.121.131.246.2.367.442.77.91 1.526 1.396 2.27.133.203.273.402.409.604.376.556.763 1.104 1.163 1.644.162.218.323.437.489.653.477.62.968 1.23 1.476 1.827.075.088.145.179.22.267a46.202 46.202 0 001.814 1.971c.174.179.354.353.531.529.476.474.963.939 1.46 1.393.201.184.402.368.607.549a46.825 46.825 0 001.885 1.578c.068.053.132.11.199.163a44.766 44.766 0 002.193 1.602c.213.147.431.288.647.431.567.377 1.144.743 1.73 1.097.234.141.468.284.705.421a46.56 46.56 0 002.309 1.256c.043.021.083.046.126.067.827.414 1.674.798 2.533 1.165.249.106.502.206.754.308.647.263 1.303.513 1.968.748.264.094.527.189.794.279.901.301 1.812.586 2.742.835.687.184 1.374.346 2.062.497.182.04.364.078.546.116.606.126 1.213.241 1.819.342.088.015.176.033.265.047.682.11 1.363.2 2.044.278.174.02.348.037.522.055.57.059 1.14.108 1.709.146.133.009.267.021.4.028.675.039 1.348.062 2.02.071.159.002.317.001.475.001.555.002 1.108-.007 1.66-.025.157-.005.315-.008.472-.015a45.441 45.441 0 001.993-.129c.13-.011.26-.027.391-.039a46.062 46.062 0 001.665-.19c.168-.022.336-.044.503-.068l.042-.007a254.515 254.515 0 002.625-3.627c-35.901 7.102-53.12-28.46-53.909-30.137z" opacity=".25"/><path fill="#2F4D69" d="M550.339 206.547c0-18.203-19.411-33.096-43.135-33.096H93.18c-23.724 0-43.135 14.893-43.135 33.096s19.411 33.096 43.135 33.096h414.023c23.725-.001 43.136-14.894 43.136-33.096z" opacity=".6"/><path fill="#7DAEDA" d="M567.185 199.861c0-19.687-20.777-35.795-46.172-35.795H83.358c-25.395 0-46.172 16.108-46.172 35.795s20.778 35.795 46.172 35.795h437.656c25.394 0 46.171-16.108 46.171-35.795z"/><path fill="#B1CEE9" stroke="#E5EFF8" stroke-linecap="round" stroke-miterlimit="10" stroke-width="7.131" d="M382.91 179.763h19.932" opacity=".15"/><path fill="#B1CEE9" stroke="#E5EFF8" stroke-linecap="round" stroke-miterlimit="10" stroke-width="7.973" d="M423.272 179.763h86.539" opacity=".2"/><path fill="#B1CEE9" stroke="#E5EFF8" stroke-linecap="round" stroke-miterlimit="10" stroke-width="7.973" d="M86.92 179.763h276.058" opacity=".1"/></svg>