<svg xmlns="http://www.w3.org/2000/svg" viewBox="0 0 952 1080"><style>.st5{fill:#fff}.st10{opacity:.45}.st11{fill:#e6ad22}.st16{opacity:.2}.st19,.st20,.st21{stroke:#000;stroke-miterlimit:10}.st20{opacity:.3;enable-background:new}.st21{fill:none;stroke-width:10.6772;stroke-linecap:round}.st22{opacity:.1;stroke:#000;enable-background:new;stroke-miterlimit:10}.st25{fill:#948fc4}.st26{opacity:.3;fill:#635ea8;enable-background:new}.st27{fill:none;stroke:#5f6062;stroke-width:10.6772;stroke-linecap:round;stroke-miterlimit:10}.st28{fill:#9590c5}.st29{fill:#635da8}.st30{fill:#e7e5ea}.st31{opacity:.1;fill:#635da8;enable-background:new}.st32{fill:#60b491}.st34{fill:#3c6158}.st35,.st36{opacity:.75;fill:#324e48;enable-background:new}.st36{opacity:.25;fill:#bab1cb}.st42{fill:#2775ca}</style><path fill="#fff" stroke="#fff" stroke-miterlimit="10" stroke-width="46.341" d="M620.4 165.5c-57 0-108.1 25.5-142.4 65.8-21-25.2-52.5-41.1-87.8-41.1-63.2 0-114.3 51.2-114.3 114.3 0 1 .1 2.1.1 3.1-6.1-1-12.3-1.5-18.6-1.5-62.3 0-112.8 50.5-112.8 112.8 0 0 225.5 3.1 225.4 3.1h76.8c27.6 68.8 94.8 117.4 173.5 117.4 103.3 0 186.9-83.7 186.9-186.9s-83.6-187-186.8-187z"/><path fill="#fff" stroke="#fff" stroke-miterlimit="10" stroke-width="33.983" d="M849.9 491.3c86.6 197.6 4 430.7-191.3 528.5-201.5 100.8-446.7 19.2-547.5-182.4-56.3-112.3-55.8-238.3-9.4-345.2"/><path d="M899.1 438.4c0-31.4-33.2-57.1-73.8-57.1H126.6c-40.6 0-73.8 25.7-73.8 57.1s33.2 57.1 73.8 57.1h698.9c40.5.1 73.6-25.6 73.6-57.1z" class="st5"/><path fill="none" stroke="#fff" stroke-miterlimit="10" stroke-width="33.983" d="M899.1 438.4c0-31.4-33.2-57.1-73.8-57.1H126.6c-40.6 0-73.8 25.7-73.8 57.1s33.2 57.1 73.8 57.1h698.9c40.5.1 73.6-25.6 73.6-57.1z"/><path fill="#e6ad22" stroke="#e6ad22" stroke-miterlimit="10" stroke-width="12.358" d="M620.4 165.5c-57 0-108.1 25.5-142.4 65.8-21-25.2-52.5-41.1-87.8-41.1-63.2 0-114.3 51.2-114.3 114.3 0 1 .1 2.1.1 3.1-6.1-1-12.3-1.5-18.6-1.5-62.3 0-112.8 50.5-112.8 112.8 0 0 225.5 3.1 225.4 3.1h76.8c27.6 68.8 94.8 117.4 173.5 117.4 103.3 0 186.9-83.7 186.9-186.9s-83.6-187-186.8-187z"/><path fill="#f0c618" d="M620.4 165.5c-57 0-108.1 25.5-142.4 65.8-21-25.2-52.5-41.1-87.8-41.1-63.2 0-114.3 51.2-114.3 114.3 0 1 .1 2.1.1 3.1-6.1-1-12.3-1.5-18.6-1.5-62.3 0-112.8 50.5-112.8 112.8 0 0 225.5 3.1 225.4 3.1h76.8c27.6 68.8 94.8 117.4 173.5 117.4 103.3 0 186.9-83.7 186.9-186.9s-83.6-187-186.8-187z"/><g class="st10"><path d="M498 242c5-6 10.4-11.7 16.3-16.9.8-.7 1.4-1.3 2.2-2l2.3-1.9c1.5-1.2 3-2.6 4.6-3.7l4.7-3.5c1.6-1.1 3.3-2.2 4.9-3.3.9-.6 1.6-1.1 2.5-1.6l2.6-1.5c1.7-.9 3.4-2 5.2-2.9 3.5-1.8 7-3.7 10.7-5.3 7.2-3.4 14.8-6 22.5-8.1l5.8-1.5c2-.5 3.9-.9 5.9-1.2l2.9-.6c.9-.2 2-.3 2.9-.5l6-.9 6-.6 3-.3 3-.1 6.1-.2 6.1.1c2 0 4 .1 6.1.3 2 .2 4 .2 6 .5l6 .7 6 .9c2 .3 4 .8 6 1.1 2 .4 4 .8 5.9 1.3 2 .5 3.9.9 5.9 1.5l5.8 1.8c7.7 2.6 15.1 5.6 22.3 9.2 7.2 3.7 14.1 7.8 20.7 12.4s12.8 9.7 18.6 15.2c1.4 1.4 2.9 2.7 4.3 4.2l4.2 4.4c1.3 1.5 2.6 3 4 4.5 1.3 1.5 2.6 3.1 3.8 4.6 4.9 6.2 9.5 13 13.2 19.9 3.9 6.9 7.4 14.1 10.1 21.6.4.9.7 1.9 1 2.8l.9 2.8.9 2.8.9 2.8c.6 1.9 1.1 3.8 1.6 5.7l1.3 5.8c.4 1.9.8 3.9 1 5.8.4 1.9.7 3.9.9 5.9.6 3.9.8 7.8 1 11.7-.9-3.8-1.6-7.7-2.6-11.3-.9-3.8-2.1-7.5-3.2-11.2-2.5-7.3-5.3-14.5-8.7-21.4l-2.6-5.1-2.7-5c-.9-1.7-1.9-3.3-2.9-4.9l-1.5-2.5c-.5-.9-1-1.6-1.6-2.4-1-1.6-2.1-3.2-3.2-4.7l-3.4-4.6c-2.4-3-4.6-6-7.2-8.8-19.9-22.9-45.8-40.3-74.5-49.6-7.1-2.5-14.5-4.2-21.8-5.6-7.4-1.5-14.9-2.2-22.4-2.6l-5.7-.2-5.7.1h-2.8l-2.8.2-5.7.4-5.7.7c-.9.1-1.9.2-2.8.3l-2.8.5c-1.9.3-3.8.6-5.6.9l-5.6 1.2C548.9 206 521 220.9 498 242z" class="st11"/></g><g class="st10"><path d="M313.5 258c4.4-9.6 10.8-18.6 18.7-26 7.8-7.6 17.4-13.4 27.6-17.5 5.2-1.9 10.5-3.7 16-4.5l2.1-.4 2.1-.3 4.2-.5c1.4-.1 2.7-.2 4.2-.3 1.4-.1 2.7-.2 4.2-.1 11.2-.1 22.3 2.1 32.8 6.1 21 7.9 38.5 24.1 48.4 44 4.9 9.9 7.8 20.7 8.8 31.6.9 10.9-.3 21.7-3.7 31.9 1-10.6.7-21.1-1.6-31.1-2.2-10-5.9-19.6-11-28.3-10.3-17.3-26.3-30.8-44.8-37.9-4.6-1.8-9.4-3.2-14.3-4.2-1.2-.2-2.5-.5-3.7-.7l-3.7-.5-3.7-.4c-1.2-.1-2.5-.1-3.7-.2-9.9-.4-20 1-29.6 4-19.4 5.7-36.7 18.2-49.3 35.3z" class="st11"/></g><g class="st10"><path d="M225.9 328.4c3.7-2.5 7.8-4.2 11.9-5.6 4.3-1.3 8.6-2.2 13.1-2.5 8.9-.6 18.2.6 26.7 3.7 4.3 1.5 8.3 3.6 12.2 5.9l2.8 1.9c.5.3.9.7 1.4.9l1.3 1 2.6 2.1 2.5 2.3c.4.4.9.8 1.2 1.1l1.1 1.2c.8.9 1.5 1.6 2.3 2.5.7.9 1.3 1.8 2 2.6l.9 1.3.9 1.4 1.7 2.8c.5.9 1 2 1.5 2.9l.8 1.5.6 1.5c.4 1 .8 2.1 1.1 3.1-.9-.8-1.6-1.4-2.5-2.2l-1.1-1.1-1.2-1c-.9-.7-1.6-1.4-2.4-2.1l-2.5-2-1.1-1-1.2-.9-2.5-1.9c-1.7-1.1-3.3-2.4-5-3.4-3.3-2.3-6.8-4.2-10.3-6-.9-.4-1.8-.9-2.6-1.2l-1.3-.7-1.3-.6-2.7-1.1-2.7-1c-7.4-2.7-15.1-4.4-23.1-5.4-8.2-.6-16.3-.5-25.1 0z" class="st11"/></g><g fill="#f8f9e7"><path d="m540.9 261.5-11 6.1-6.1 11-5.9-11-11.1-6.1 11.1-5.9 5.9-11 6.1 11z"/><path d="m369.4 323.5-10.9 6-6 11-6-11-11-6 11-6.1 6-10.9 6 10.9z" opacity=".8"/><path d="m747.9 342-11 6.1-6 10.9-6-10.9-11-6.1 11-5.9 6-11.1 6 11.1z" opacity=".95"/></g><g class="st16"><path d="M104.5 311.7c.9 3.5 5.1 26.4-33.5 28.5-2.8.2-5.4-1.6-6.3-4.3L9.1 158.6c-1-3.1.6-6.3 3.5-7.6l19.3-8.2c3.2-1.4 6.9.2 8.2 3.5L104.2 311c.1.2.2.5.3.7z" class="st19"/><path d="M104.5 311.7c.9 3.5 5.1 26.4-33.5 28.5-2.8.2-5.4-1.6-6.3-4.3L9.1 158.6c-1-3.1.6-6.3 3.5-7.6l19.3-8.2c3.2-1.4 6.9.2 8.2 3.5L104.2 311c.1.2.2.5.3.7z" class="st20"/><path d="M90.4 326.5c22-31.8 78-55.5 168.2-59.7 90.1-4.2 115.6-60.3 115.6-60.3L313.7 15.9S288.2 72 198.1 76.2c-77.6 3.6-129.9 21.7-157 46.9-7.2 6.7-9.8 17-6.8 26.3l56.1 177.1z" class="st19"/><path d="M142 274.9c29.4-14.3 61.6-20.6 92.8-29.3 26.3-7.3 58.1-16.6 72.4-42.1 6.7-12 9.8-26.5 12.2-39.9 2.7-15.6 3.2-31.5 2.6-47.3-1.3-32.4 1.1-66.4-8.4-97.7-.2-.5-.3-1-.6-1.3.4-.8.7-1.3.7-1.3l60.6 190.7s-25.5 56.1-115.6 60.3-146.2 27.9-168.2 59.7l-1.8-5.8c12.3-20.3 31.8-35.5 53.3-46z" class="st20"/><path d="m315 8 214.4 660.1" class="st21"/><path d="M175.6 209.9c-.9 0-1.8-.1-2.6-.1.8.1 1.7.1 2.6.1zm53.2-18.2c-.4.3-1 .8-2 1.6.8-.7 1.5-1.2 2-1.6z" class="st19"/><path d="M129.7 189c6.1 18.7 19.9 32.6 36.7 39.5.2-7.8 3.5-16 5.5-20.3-.5-1.4-1.1-3.9-1-7.2 1.1 1.9 5.7 1.9 9.4 1.6 5.5-.5 12.5-2.1 19.7-4.4 7.2-2.3 13.8-5.2 18.5-8 3.2-1.9 6.9-4.6 6.7-6.8 2 2.6 3 4.9 3.4 6.4 4.2 2.3 11.7 7 16.4 13.1 9.6-15.5 12.6-34.9 6.5-53.6-10.9-33.6-47.1-52.1-80.7-41.1s-52.1 47.2-41.1 80.8zm7.7-15.1c-2.2-6.7 1.4-14 8.1-16.3 1.2-16 12.5-30.7 29.5-36.2s34.8-.3 45.2 11.9c6.8-2.1 14 1.6 16.1 8.4 2.1 6.5-1.1 13.4-7.3 16-.1 8.6-3.1 17.1-8.5 24 2.3.2 3.7.7 3.9 1.6.9 2.8-8.8 9.2-24.7 14.4s-27.6 5.7-28.5 2.9c-.3-.9.5-2.1 2.2-3.6-8.4-2.5-15.8-7.5-20.9-14.4-6.3 1.4-13-2.2-15.1-8.7z" class="st19"/><path d="M227.3 145.9c1.3 3.9 1.9 7.8 1.8 11.8 6.1-2.6 9.4-9.5 7.3-16-2.2-6.7-9.4-10.5-16.1-8.4 3 3.7 5.4 7.9 7 12.6zm2.2 1.6c-.4-1.2.3-2.6 1.5-3s2.6.3 3 1.5-.3 2.6-1.5 3-2.6-.2-3-1.5zm-2.1-6.4c-.4-1.2.3-2.6 1.5-3s2.6.3 3 1.5-.3 2.6-1.5 3c-1.2.4-2.6-.3-3-1.5z" class="st19"/><circle cx="229.7" cy="140.3" r="2.4" class="st19"/><circle cx="231.8" cy="146.8" r="2.4" class="st19"/><path d="M234.9 199.2c1.7 2.9 3.6 6.5 5.4 10.4.8-.9 1.5-1.9 2.2-2.9-.1-.2-.3-.4-.4-.6-1.8-2.7-4.4-5-7.2-6.9zm-63 9.1c-2 4.3-5.4 12.5-5.5 20.3 1.4.6 2.8 1.1 4.2 1.5v-.8c-.1-3.3.6-6.6 1.8-9.8.3 3.4.9 7.4 1.8 11.6h.1c2.2-5 4.6-12.7 3.7-21.2h-2.3c-.9 0-1.8 0-2.6-.1h-.3c-.2 0-.5-.5-.9-1.5z" class="st19"/><path d="M170.6 229.4v.8c1.2.4 2.3.7 3.5 1-.9-4.3-1.4-8.3-1.8-11.6-1.1 3.1-1.8 6.5-1.7 9.8zm28.8-32.9c-8.8 2.9-17.8 2.8-25.8.5-1.7 1.5-2.5 2.7-2.2 3.6.9 2.8 12.6 2.3 28.5-2.9s25.6-11.6 24.7-14.4c-.3-.9-1.7-1.4-3.9-1.6-5.2 6.6-12.5 11.9-21.3 14.8zm38.1 11.4c1 .7 1.9 1.2 2.8 1.8v-.1c-1.8-4-3.7-7.5-5.4-10.4 2.8 1.9 5.3 4.3 7.2 6.9.1.2.3.4.4.6.9-1.2 1.7-2.5 2.5-3.7-4.7-6.2-12.2-10.9-16.4-13.1.3 1 .4 1.6.4 1.6s-.1.1-.3.2c-.5.4-1.1.9-2 1.6-.6.4-1.2.9-1.9 1.4 3.6 6.3 8.8 10.6 12.7 13.2zm-53.3 1.7c.9 9.1-1.4 17.2-3.7 22.9 9.7 1.6 20 .9 30-2.3 10-3.3 18.7-8.7 25.6-15.7-5.2-3.2-11.8-8.4-16.5-16.3-7.9 4.6-20.1 10.1-35.4 11.4z" class="st19"/><path d="M177.9 209.9c.9 8.5-1.5 16.3-3.7 21.2 2.1.5 4.1 1 6.3 1.3 2.3-5.6 4.6-13.8 3.7-22.9 15.4-1.3 27.5-6.8 35.4-11.5 4.6 7.8 11.3 13.1 16.5 16.3 1.5-1.5 2.9-3.1 4.3-4.8-.9-.5-1.8-1.1-2.8-1.8-3.9-2.6-9.1-7-12.7-13.2.7-.5 1.4-1 1.9-1.4 1-.8 1.7-1.3 2-1.6.2-.1.3-.2.3-.2s-.1-.6-.4-1.6c-.4-1.5-1.4-3.8-3.4-6.4.2 2.2-3.5 4.9-6.7 6.8-4.7 2.8-11.3 5.6-18.5 8-7.2 2.3-14.2 3.9-19.7 4.4-3.8.4-8.3.3-9.4-1.6-.1 3.3.5 5.7 1 7.2.3 1 .6 1.5.6 1.5h.3c.9.1 1.8.1 2.6.1.8.2 1.6.2 2.4.2zm-40.5-36c2.1 6.5 8.8 10.1 15.3 8.6-2.3-3.1-4.2-6.7-5.4-10.6-1.5-4.7-2.1-9.6-1.7-14.3-6.8 2.3-10.4 9.6-8.2 16.3zm6.8-5.8c.4 1.2-.3 2.6-1.5 3s-2.6-.3-3-1.5.3-2.6 1.5-3 2.6.2 3 1.5zm-2.4 8c-.4-1.2.3-2.6 1.5-3s2.6.3 3 1.5-.3 2.6-1.5 3c-1.3.4-2.6-.3-3-1.5z" class="st19"/><circle cx="144.1" cy="175.3" r="2.4" class="st19"/><circle cx="141.9" cy="168.8" r="2.4" class="st19"/><path d="M147.2 172c1.3 3.9 3.1 7.4 5.4 10.6 5.1 7 12.5 12 20.9 14.4 8.1 2.4 17.1 2.4 25.8-.5 8.8-2.9 16-8.2 21.2-14.8 5.4-6.9 8.4-15.3 8.5-24 0-3.9-.6-7.9-1.8-11.8-1.5-4.7-4-9-7-12.6-10.3-12.2-28.1-17.5-45.2-11.9s-28.3 20.3-29.5 36.2c-.3 4.8.2 9.6 1.7 14.4zm5.5-3.3c-5.2-16 5.9-33.9 24.8-40s38.4 1.8 43.5 17.8 2.1 31.3-24.8 40-38.4-1.8-43.5-17.8z" class="st19"/><path d="M152.7 168.7c5.2 16 16.7 26.6 43.5 17.8s29.9-24 24.8-40c-4.7-14.5-21.2-22.4-38.2-19.2l-2.7.6c-.6.2-1.2.3-1.8.5l-.9.3-.9.3c-.6.2-1.2.4-1.7.6-.6.2-1.1.5-1.7.7-.5.2-1 .5-1.5.7-.3.1-.6.3-.9.5-.3.1-.5.3-.8.4-.3.2-.6.3-.9.5-.7.4-1.3.8-1.9 1.2l-.9.6c-11.5 8.1-17.4 21.4-13.8 33.7.1.3.2.5.3.8z" class="st19"/><path d="M234.9 199.2c1.7 2.9 3.6 6.5 5.4 10.4.8-.9 1.5-1.9 2.2-2.9-.1-.2-.3-.4-.4-.6-1.8-2.7-4.4-5-7.2-6.9zm-64.3 30.2v.8c1.2.4 2.3.7 3.5 1-.9-4.3-1.4-8.3-1.8-11.6-1.1 3.1-1.8 6.5-1.7 9.8z" class="st22"/></g><g class="st16"><path d="M847.5 311.7c-.9 3.5-5.1 26.4 33.5 28.5 2.8.2 5.4-1.6 6.3-4.3l55.6-177.3c1-3.1-.6-6.3-3.5-7.6l-19.3-8.2c-3.2-1.4-6.9.2-8.2 3.5L847.8 311c-.1.2-.2.5-.3.7z" class="st19"/><path d="M847.5 311.7c-.9 3.5-5.1 26.4 33.5 28.5 2.8.2 5.4-1.6 6.3-4.3l55.6-177.3c1-3.1-.6-6.3-3.5-7.6l-19.3-8.2c-3.2-1.4-6.9.2-8.2 3.5L847.8 311c-.1.2-.2.5-.3.7z" class="st20"/><path d="M861.6 326.5c-22-31.8-78-55.5-168.2-59.7-90.1-4.2-115.6-60.3-115.6-60.3l60.6-190.7S663.9 71.9 754 76.1c77.6 3.6 129.9 21.7 157 46.9 7.2 6.7 9.8 17 6.8 26.3l-56.2 177.2z" class="st19"/><path d="M810 274.9c-29.4-14.3-61.6-20.6-92.8-29.3-26.3-7.3-58.1-16.6-72.4-42.1-6.7-12-9.8-26.5-12.2-39.9-2.7-15.6-3.2-31.5-2.6-47.3 1.3-32.4-1.1-66.4 8.4-97.7.2-.5.3-1 .6-1.3-.4-.8-.7-1.3-.7-1.3l-60.6 190.7s25.5 56.1 115.6 60.3 146.2 27.9 168.2 59.7l1.8-5.8c-12.3-20.3-31.8-35.5-53.3-46z" class="st20"/><path d="M637 8 422.6 668.1" class="st21"/><path d="M779.1 209.8c-.9 0-1.8.1-2.6.1.8 0 1.7 0 2.6-.1zm-53.9-16.5c-1-.8-1.7-1.3-2-1.6.5.4 1.2.9 2 1.6z" class="st19"/><path d="M781.2 108.3c-33.6-10.9-69.8 7.5-80.7 41.1-6.1 18.7-3.1 38.1 6.5 53.6 4.7-6.2 12.2-10.9 16.4-13.1.4-1.5 1.4-3.8 3.4-6.4-.2 2.2 3.5 4.9 6.7 6.8 4.7 2.8 11.3 5.6 18.5 8s14.2 3.9 19.7 4.4c3.8.4 8.3.3 9.4-1.6.1 3.3-.5 5.7-1 7.2 2 4.3 5.3 12.5 5.5 20.3 16.9-6.9 30.7-20.9 36.7-39.5 11-33.7-7.4-69.8-41.1-80.8zm18.1 74.2c-5.1 7-12.5 12-20.9 14.4 1.7 1.5 2.5 2.7 2.2 3.6-.9 2.8-12.6 2.3-28.5-2.9s-25.6-11.6-24.7-14.4c.3-.9 1.7-1.4 3.9-1.6-5.4-6.9-8.4-15.3-8.5-24-6.1-2.6-9.4-9.5-7.3-16 2.2-6.7 9.4-10.5 16.1-8.4 10.3-12.2 28.1-17.5 45.2-11.9s28.3 20.3 29.5 36.2c6.7 2.3 10.3 9.5 8.1 16.3-1.9 6.6-8.6 10.2-15.1 8.7z" class="st19"/><path d="M731.8 133.3c-6.8-2.1-14 1.6-16.1 8.4-2.1 6.5 1.1 13.4 7.3 16 0-3.9.6-7.9 1.8-11.8 1.5-4.7 3.9-8.9 7-12.6zm-12.3 15.8c-1.2-.4-1.9-1.7-1.5-3 .4-1.2 1.7-1.9 3-1.5 1.2.4 1.9 1.7 1.5 3-.4 1.2-1.8 1.9-3 1.5zm2.1-6.5c-1.2-.4-1.9-1.7-1.5-3 .4-1.2 1.7-1.9 3-1.5s1.9 1.7 1.5 3c-.4 1.2-1.8 1.9-3 1.5z" class="st19"/><circle cx="722.3" cy="140.3" r="2.4" class="st19"/><circle cx="720.2" cy="146.8" r="2.4" class="st19"/><path d="M709.9 206.1c-.1.2-.3.4-.4.6.7 1 1.4 1.9 2.2 2.9 1.8-4 3.7-7.5 5.4-10.4-2.8 1.9-5.4 4.2-7.2 6.9zm69.5 3.7h-.3c-.9 0-1.8.1-2.6.1h-2.3c-.9 8.5 1.5 16.3 3.7 21.2h.1c.9-4.3 1.4-8.3 1.8-11.6 1.1 3.2 1.8 6.6 1.8 9.8v.8l4.2-1.5c-.2-7.8-3.5-16-5.5-20.3l-.9 1.5z" class="st19"/><path d="M779.7 219.5c-.3 3.4-.8 7.4-1.8 11.6 1.2-.3 2.3-.7 3.5-1v-.8c.1-3.2-.6-6.6-1.7-9.8zm-48.3-37.8c-2.3.2-3.7.7-3.9 1.6-.9 2.8 8.8 9.2 24.7 14.4s27.6 5.7 28.5 2.9c.3-.9-.5-2.1-2.2-3.6-8.1 2.4-17.1 2.4-25.8-.5-8.9-2.9-16.2-8.2-21.3-14.8zm-4.2 13c-.7-.5-1.4-1-1.9-1.4-.9-.7-1.6-1.2-2-1.6-.2-.1-.3-.2-.3-.2s.1-.6.4-1.6c-4.2 2.3-11.7 7-16.4 13.1.8 1.3 1.6 2.5 2.5 3.7.1-.2.3-.4.4-.6 1.8-2.7 4.4-5 7.2-6.9-1.7 2.9-3.6 6.5-5.4 10.4v.1c.9-.5 1.8-1.1 2.8-1.8 3.9-2.6 9.1-6.9 12.7-13.2zm5.3 3.5c-4.6 7.8-11.3 13.1-16.5 16.3 6.9 7 15.6 12.5 25.6 15.7 10 3.3 20.3 3.9 30 2.3-2.3-5.6-4.6-13.8-3.7-22.9-15.4-1.3-27.6-6.8-35.4-11.4z" class="st19"/><path d="M776.4 209.9c.9 0 1.8-.1 2.6-.1h.3s.3-.5.6-1.5c.5-1.4 1.1-3.9 1-7.2-1.1 1.9-5.7 1.9-9.4 1.6-5.5-.5-12.5-2.1-19.7-4.4-7.2-2.3-13.8-5.2-18.5-8-3.2-1.9-6.9-4.6-6.7-6.8-2 2.6-3 4.9-3.4 6.4-.3 1-.4 1.6-.4 1.6s.1.1.3.2c.3.3 1 .9 2 1.6.6.4 1.2.9 1.9 1.4-3.6 6.2-8.8 10.6-12.7 13.2-1 .7-1.9 1.2-2.8 1.8 1.3 1.7 2.8 3.2 4.3 4.8 5.2-3.2 11.8-8.4 16.5-16.3 7.8 4.7 20 10.1 35.4 11.5-.9 9.1 1.4 17.2 3.7 22.9 2.1-.3 4.2-.8 6.3-1.3-2.2-5-4.6-12.7-3.7-21.2.9-.2 1.7-.2 2.4-.2zm30.1-52.3c.4 4.7-.2 9.6-1.7 14.3-1.3 3.9-3.1 7.4-5.4 10.6 6.5 1.5 13.2-2.2 15.3-8.6 2.1-6.7-1.5-14-8.2-16.3zm4.3 9c1.2.4 1.9 1.7 1.5 3-.4 1.2-1.7 1.9-3 1.5-1.2-.4-1.9-1.7-1.5-3 .4-1.3 1.7-1.9 3-1.5zm-3.6 11c-1.2-.4-1.9-1.7-1.5-3 .4-1.2 1.7-1.9 3-1.5s1.9 1.7 1.5 3c-.4 1.2-1.7 1.9-3 1.5z" class="st19"/><circle cx="807.9" cy="175.3" r="2.4" class="st19"/><circle cx="810" cy="168.8" r="2.4" class="st19"/><path d="M806.5 157.6c-1.2-16-12.5-30.7-29.5-36.2s-34.8-.3-45.2 11.9c-3.1 3.6-5.5 7.9-7 12.6-1.3 3.9-1.9 7.8-1.8 11.8.1 8.6 3.1 17.1 8.5 24 5.1 6.7 12.4 11.9 21.2 14.8 8.8 2.9 17.8 2.8 25.8.5 8.4-2.5 15.8-7.5 20.9-14.4 2.3-3.1 4.2-6.7 5.4-10.6 1.5-4.8 2-9.6 1.7-14.4zm-50.7 28.9c-26.9-8.7-29.9-24-24.8-40 5.2-16 24.7-23.9 43.5-17.8s29.9 24 24.8 40c-5.1 16-16.6 26.5-43.5 17.8z" class="st19"/><path d="M799.6 167.9c3.6-12.3-2.3-25.6-13.8-33.7l-.9-.6c-.6-.4-1.3-.8-1.9-1.2-.3-.2-.6-.4-.9-.5-.3-.1-.5-.3-.8-.4-.3-.2-.6-.3-.9-.5-.5-.2-1-.5-1.5-.7-.5-.2-1.1-.5-1.7-.7-.6-.2-1.1-.4-1.7-.6l-.9-.3-.9-.3c-.6-.2-1.2-.3-1.8-.5l-2.7-.6c-17.1-3.2-33.5 4.7-38.2 19.2-5.2 16-2.1 31.3 24.8 40s38.4-1.8 43.5-17.8c.1-.3.2-.5.3-.8z" class="st19"/><path d="M709.9 206.1c-.1.2-.3.4-.4.6.7 1 1.4 1.9 2.2 2.9 1.8-4 3.7-7.5 5.4-10.4-2.8 1.9-5.4 4.2-7.2 6.9zm69.8 13.4c-.3 3.4-.8 7.4-1.8 11.6 1.2-.3 2.3-.7 3.5-1v-.8c.1-3.2-.6-6.6-1.7-9.8z" class="st22"/></g><path d="M101.5 311.7c.9 3.5 5.1 26.4-33.5 28.5-2.8.2-5.4-1.6-6.3-4.3L6.1 158.6c-1-3.1.6-6.3 3.5-7.6l19.3-8.2c3.2-1.4 6.9.2 8.2 3.5L101.2 311c.1.2.2.5.3.7z" class="st25"/><path d="M101.5 311.7c.9 3.5 5.1 26.4-33.5 28.5-2.8.2-5.4-1.6-6.3-4.3L6.1 158.6c-1-3.1.6-6.3 3.5-7.6l19.3-8.2c3.2-1.4 6.9.2 8.2 3.5L101.2 311c.1.2.2.5.3.7z" class="st26"/><path d="M87.4 326.5c22-31.8 78-55.5 168.2-59.7 90.1-4.2 115.6-60.3 115.6-60.3L310.7 15.9S285.2 72 195.1 76.2c-77.6 3.6-129.9 21.7-157 46.9-7.2 6.7-9.8 17-6.8 26.3l56.1 177.1z" class="st25"/><path d="M139 274.9c29.4-14.3 61.6-20.6 92.8-29.3 26.3-7.3 58.1-16.6 72.4-42.1 6.7-12 9.8-26.5 12.2-39.9 2.7-15.6 3.2-31.5 2.6-47.3-1.3-32.4 1.1-66.4-8.4-97.7-.2-.5-.3-1-.6-1.3.4-.8.7-1.3.7-1.3l60.6 190.7s-25.5 56.1-115.6 60.3-146.2 27.9-168.2 59.7l-1.8-5.8c12.3-20.3 31.8-35.5 53.3-46z" class="st26"/><path d="m312 8 214.4 660.1" class="st27"/><path d="M172.6 209.9c-.9 0-1.8-.1-2.6-.1.8.1 1.7.1 2.6.1zm53.2-18.2c-.4.3-1 .8-2 1.6.8-.7 1.5-1.2 2-1.6z" class="st28"/><path d="M126.7 189c6.1 18.7 19.9 32.6 36.7 39.5.2-7.8 3.5-16 5.5-20.3-.5-1.4-1.1-3.9-1-7.2 1.1 1.9 5.7 1.9 9.4 1.6 5.5-.5 12.5-2.1 19.7-4.4 7.2-2.3 13.8-5.2 18.5-8 3.2-1.9 6.9-4.6 6.7-6.8 2 2.6 3 4.9 3.4 6.4 4.2 2.3 11.7 7 16.4 13.1 9.6-15.5 12.6-34.9 6.5-53.6-10.9-33.6-47.1-52.1-80.7-41.1s-52.1 47.2-41.1 80.8zm7.7-15.1c-2.2-6.7 1.4-14 8.1-16.3 1.2-16 12.5-30.7 29.5-36.2s34.8-.3 45.2 11.9c6.8-2.1 14 1.6 16.1 8.4 2.1 6.5-1.1 13.4-7.3 16-.1 8.6-3.1 17.1-8.5 24 2.3.2 3.7.7 3.9 1.6.9 2.8-8.8 9.2-24.7 14.4s-27.6 5.7-28.5 2.9c-.3-.9.5-2.1 2.2-3.6-8.4-2.5-15.8-7.5-20.9-14.4-6.3 1.4-13-2.2-15.1-8.7z" class="st28"/><path d="M224.3 145.9c1.3 3.9 1.9 7.8 1.8 11.8 6.1-2.6 9.4-9.5 7.3-16-2.2-6.7-9.4-10.5-16.1-8.4 3 3.7 5.4 7.9 7 12.6zm2.2 1.6c-.4-1.2.3-2.6 1.5-3s2.6.3 3 1.5-.3 2.6-1.5 3-2.6-.2-3-1.5zm-2.1-6.4c-.4-1.2.3-2.6 1.5-3s2.6.3 3 1.5-.3 2.6-1.5 3c-1.2.4-2.6-.3-3-1.5z" class="st29"/><circle cx="226.7" cy="140.3" r="2.4" class="st30"/><circle cx="228.8" cy="146.8" r="2.4" class="st30"/><path d="M231.9 199.2c1.7 2.9 3.6 6.5 5.4 10.4.8-.9 1.5-1.9 2.2-2.9-.1-.2-.3-.4-.4-.6-1.8-2.7-4.4-5-7.2-6.9zm-63 9.1c-2 4.3-5.4 12.5-5.5 20.3 1.4.6 2.8 1.1 4.2 1.5v-.8c-.1-3.3.6-6.6 1.8-9.8.3 3.4.9 7.4 1.8 11.6h.1c2.2-5 4.6-12.7 3.7-21.2h-2.3c-.9 0-1.8 0-2.6-.1h-.3c-.2 0-.5-.5-.9-1.5z" class="st30"/><path d="M167.6 229.4v.8c1.2.4 2.3.7 3.5 1-.9-4.3-1.4-8.3-1.8-11.6-1.1 3.1-1.8 6.5-1.7 9.8z" class="st30"/><path d="M196.4 196.5c-8.8 2.9-17.8 2.8-25.8.5-1.7 1.5-2.5 2.7-2.2 3.6.9 2.8 12.6 2.3 28.5-2.9s25.6-11.6 24.7-14.4c-.3-.9-1.7-1.4-3.9-1.6-5.2 6.6-12.5 11.9-21.3 14.8z" class="st29"/><path d="M234.5 207.9c1 .7 1.9 1.2 2.8 1.8v-.1c-1.8-4-3.7-7.5-5.4-10.4 2.8 1.9 5.3 4.3 7.2 6.9.1.2.3.4.4.6.9-1.2 1.7-2.5 2.5-3.7-4.7-6.2-12.2-10.9-16.4-13.1.3 1 .4 1.6.4 1.6s-.1.1-.3.2c-.5.4-1.1.9-2 1.6-.6.4-1.2.9-1.9 1.4 3.6 6.3 8.8 10.6 12.7 13.2zm-53.3 1.7c.9 9.1-1.4 17.2-3.7 22.9 9.7 1.6 20 .9 30-2.3 10-3.3 18.7-8.7 25.6-15.7-5.2-3.2-11.8-8.4-16.5-16.3-7.9 4.6-20.1 10.1-35.4 11.4z" class="st30"/><path d="M174.9 209.9c.9 8.5-1.5 16.3-3.7 21.2 2.1.5 4.1 1 6.3 1.3 2.3-5.6 4.6-13.8 3.7-22.9 15.4-1.3 27.5-6.8 35.4-11.5 4.6 7.8 11.3 13.1 16.5 16.3 1.5-1.5 2.9-3.1 4.3-4.8-.9-.5-1.8-1.1-2.8-1.8-3.9-2.6-9.1-7-12.7-13.2.7-.5 1.4-1 1.9-1.4 1-.8 1.7-1.3 2-1.6.2-.1.3-.2.3-.2s-.1-.6-.4-1.6c-.4-1.5-1.4-3.8-3.4-6.4.2 2.2-3.5 4.9-6.7 6.8-4.7 2.8-11.3 5.6-18.5 8-7.2 2.3-14.2 3.9-19.7 4.4-3.8.4-8.3.3-9.4-1.6-.1 3.3.5 5.7 1 7.2.3 1 .6 1.5.6 1.5h.3c.9.1 1.8.1 2.6.1.8.2 1.6.2 2.4.2zm-40.5-36c2.1 6.5 8.8 10.1 15.3 8.6-2.3-3.1-4.2-6.7-5.4-10.6-1.5-4.7-2.1-9.6-1.7-14.3-6.8 2.3-10.4 9.6-8.2 16.3zm6.8-5.8c.4 1.2-.3 2.6-1.5 3s-2.6-.3-3-1.5.3-2.6 1.5-3 2.6.2 3 1.5zm-2.4 8c-.4-1.2.3-2.6 1.5-3s2.6.3 3 1.5-.3 2.6-1.5 3c-1.3.4-2.6-.3-3-1.5z" class="st29"/><circle cx="141.1" cy="175.3" r="2.4" class="st30"/><circle cx="138.9" cy="168.8" r="2.4" class="st30"/><path d="M144.2 172c1.3 3.9 3.1 7.4 5.4 10.6 5.1 7 12.5 12 20.9 14.4 8.1 2.4 17.1 2.4 25.8-.5s16-8.2 21.2-14.8c5.4-6.9 8.4-15.3 8.5-24 0-3.9-.6-7.9-1.8-11.8-1.5-4.7-4-9-7-12.6-10.3-12.2-28.1-17.5-45.2-11.9s-28.3 20.3-29.5 36.2c-.3 4.8.2 9.6 1.7 14.4zm5.5-3.3c-5.2-16 5.9-33.9 24.8-40s38.4 1.8 43.5 17.8c5.2 16 2.1 31.3-24.8 40s-38.4-1.8-43.5-17.8z" class="st30"/><path d="M149.7 168.7c5.2 16 16.7 26.6 43.5 17.8s29.9-24 24.8-40c-4.7-14.5-21.2-22.4-38.2-19.2l-2.7.6c-.6.2-1.2.3-1.8.5l-.9.3-.9.3c-.6.2-1.2.4-1.7.6-.6.2-1.1.5-1.7.7-.5.2-1 .5-1.5.7-.3.1-.6.3-.9.5-.3.1-.5.3-.8.4-.3.2-.6.3-.9.5-.7.4-1.3.8-1.9 1.2l-.9.6c-11.5 8.1-17.4 21.4-13.8 33.7.1.3.2.5.3.8z" class="st29"/><path d="M231.9 199.2c1.7 2.9 3.6 6.5 5.4 10.4.8-.9 1.5-1.9 2.2-2.9-.1-.2-.3-.4-.4-.6-1.8-2.7-4.4-5-7.2-6.9zm-64.3 30.2v.8c1.2.4 2.3.7 3.5 1-.9-4.3-1.4-8.3-1.8-11.6-1.1 3.1-1.8 6.5-1.7 9.8z" class="st31"/><path d="M850.5 311.7c-.9 3.5-5.1 26.4 33.5 28.5 2.8.2 5.4-1.6 6.3-4.3l55.6-177.3c1-3.1-.6-6.3-3.5-7.6l-19.3-8.2c-3.2-1.4-6.9.2-8.2 3.5L850.8 311c-.1.2-.2.5-.3.7z" class="st25"/><path d="M850.5 311.7c-.9 3.5-5.1 26.4 33.5 28.5 2.8.2 5.4-1.6 6.3-4.3l55.6-177.3c1-3.1-.6-6.3-3.5-7.6l-19.3-8.2c-3.2-1.4-6.9.2-8.2 3.5L850.8 311c-.1.2-.2.5-.3.7z" class="st26"/><path d="M864.6 326.5c-22-31.8-78-55.5-168.2-59.7-90.1-4.2-115.6-60.3-115.6-60.3l60.6-190.7S666.9 71.9 757 76.1c77.6 3.6 129.9 21.7 157 46.9 7.2 6.7 9.8 17 6.8 26.3l-56.2 177.2z" class="st25"/><path d="M813 274.9c-29.4-14.3-61.6-20.6-92.8-29.3-26.3-7.3-58.1-16.6-72.4-42.1-6.7-12-9.8-26.5-12.2-39.9-2.7-15.6-3.2-31.5-2.6-47.3 1.3-32.4-1.1-66.4 8.4-97.7.2-.5.3-1 .6-1.3-.4-.8-.7-1.3-.7-1.3l-60.6 190.7s25.5 56.1 115.6 60.3 146.2 27.9 168.2 59.7l1.8-5.8c-12.3-20.3-31.8-35.5-53.3-46z" class="st26"/><path d="M640 8 425.6 668.1" class="st27"/><path d="M782.1 209.8c-.9 0-1.8.1-2.6.1.8 0 1.7 0 2.6-.1zm-53.9-16.5c-1-.8-1.7-1.3-2-1.6.5.4 1.2.9 2 1.6z" class="st28"/><path d="M784.2 108.3c-33.6-10.9-69.8 7.5-80.7 41.1-6.1 18.7-3.1 38.1 6.5 53.6 4.7-6.2 12.2-10.9 16.4-13.1.4-1.5 1.4-3.8 3.4-6.4-.2 2.2 3.5 4.9 6.7 6.8 4.7 2.8 11.3 5.6 18.5 8s14.2 3.9 19.7 4.4c3.8.4 8.3.3 9.4-1.6.1 3.3-.5 5.7-1 7.2 2 4.3 5.3 12.5 5.5 20.3 16.9-6.9 30.7-20.9 36.7-39.5 11-33.7-7.4-69.8-41.1-80.8zm18.1 74.2c-5.1 7-12.5 12-20.9 14.4 1.7 1.5 2.5 2.7 2.2 3.6-.9 2.8-12.6 2.3-28.5-2.9s-25.6-11.6-24.7-14.4c.3-.9 1.7-1.4 3.9-1.6-5.4-6.9-8.4-15.3-8.5-24-6.1-2.6-9.4-9.5-7.3-16 2.2-6.7 9.4-10.5 16.1-8.4 10.3-12.2 28.1-17.5 45.2-11.9s28.3 20.3 29.5 36.2c6.7 2.3 10.3 9.5 8.1 16.3-1.9 6.6-8.6 10.2-15.1 8.7z" class="st28"/><path d="M734.8 133.3c-6.8-2.1-14 1.6-16.1 8.4-2.1 6.5 1.1 13.4 7.3 16 0-3.9.6-7.9 1.8-11.8 1.5-4.7 3.9-8.9 7-12.6zm-12.3 15.8c-1.2-.4-1.9-1.7-1.5-3 .4-1.2 1.7-1.9 3-1.5 1.2.4 1.9 1.7 1.5 3-.4 1.2-1.8 1.9-3 1.5zm2.1-6.5c-1.2-.4-1.9-1.7-1.5-3 .4-1.2 1.7-1.9 3-1.5s1.9 1.7 1.5 3c-.4 1.2-1.8 1.9-3 1.5z" class="st29"/><circle cx="725.3" cy="140.3" r="2.4" class="st30"/><circle cx="723.2" cy="146.8" r="2.4" class="st30"/><path d="M712.9 206.1c-.1.2-.3.4-.4.6.7 1 1.4 1.9 2.2 2.9 1.8-4 3.7-7.5 5.4-10.4-2.8 1.9-5.4 4.2-7.2 6.9zm69.5 3.7h-.3c-.9 0-1.8.1-2.6.1h-2.3c-.9 8.5 1.5 16.3 3.7 21.2h.1c.9-4.3 1.4-8.3 1.8-11.6 1.1 3.2 1.8 6.6 1.8 9.8v.8l4.2-1.5c-.2-7.8-3.5-16-5.5-20.3l-.9 1.5z" class="st30"/><path d="M782.7 219.5c-.3 3.4-.8 7.4-1.8 11.6 1.2-.3 2.3-.7 3.5-1v-.8c.1-3.2-.6-6.6-1.7-9.8z" class="st30"/><path d="M734.4 181.7c-2.3.2-3.7.7-3.9 1.6-.9 2.8 8.8 9.2 24.7 14.4s27.6 5.7 28.5 2.9c.3-.9-.5-2.1-2.2-3.6-8.1 2.4-17.1 2.4-25.8-.5-8.9-2.9-16.2-8.2-21.3-14.8z" class="st29"/><path d="M730.2 194.7c-.7-.5-1.4-1-1.9-1.4-.9-.7-1.6-1.2-2-1.6-.2-.1-.3-.2-.3-.2s.1-.6.4-1.6c-4.2 2.3-11.7 7-16.4 13.1.8 1.3 1.6 2.5 2.5 3.7.1-.2.3-.4.4-.6 1.8-2.7 4.4-5 7.2-6.9-1.7 2.9-3.6 6.5-5.4 10.4v.1c.9-.5 1.8-1.1 2.8-1.8 3.9-2.6 9.1-6.9 12.7-13.2zm5.3 3.5c-4.6 7.8-11.3 13.1-16.5 16.3 6.9 7 15.6 12.5 25.6 15.7 10 3.3 20.3 3.9 30 2.3-2.3-5.6-4.6-13.8-3.7-22.9-15.4-1.3-27.6-6.8-35.4-11.4z" class="st30"/><path d="M779.4 209.9c.9 0 1.8-.1 2.6-.1h.3s.3-.5.6-1.5c.5-1.4 1.1-3.9 1-7.2-1.1 1.9-5.7 1.9-9.4 1.6-5.5-.5-12.5-2.1-19.7-4.4-7.2-2.3-13.8-5.2-18.5-8-3.2-1.9-6.9-4.6-6.7-6.8-2 2.6-3 4.9-3.4 6.4-.3 1-.4 1.6-.4 1.6s.1.1.3.2c.3.3 1 .9 2 1.6.6.4 1.2.9 1.9 1.4-3.6 6.2-8.8 10.6-12.7 13.2-1 .7-1.9 1.2-2.8 1.8 1.3 1.7 2.8 3.2 4.3 4.8 5.2-3.2 11.8-8.4 16.5-16.3 7.8 4.7 20 10.1 35.4 11.5-.9 9.1 1.4 17.2 3.7 22.9 2.1-.3 4.2-.8 6.3-1.3-2.2-5-4.6-12.7-3.7-21.2.9-.2 1.7-.2 2.4-.2zm30.1-52.3c.4 4.7-.2 9.6-1.7 14.3-1.3 3.9-3.1 7.4-5.4 10.6 6.5 1.5 13.2-2.2 15.3-8.6 2.1-6.7-1.5-14-8.2-16.3zm4.3 9c1.2.4 1.9 1.7 1.5 3-.4 1.2-1.7 1.9-3 1.5-1.2-.4-1.9-1.7-1.5-3 .4-1.3 1.7-1.9 3-1.5zm-3.6 11c-1.2-.4-1.9-1.7-1.5-3 .4-1.2 1.7-1.9 3-1.5s1.9 1.7 1.5 3c-.4 1.2-1.7 1.9-3 1.5z" class="st29"/><circle cx="810.9" cy="175.3" r="2.4" class="st30"/><circle cx="813" cy="168.8" r="2.4" class="st30"/><path d="M809.5 157.6c-1.2-16-12.5-30.7-29.5-36.2s-34.8-.3-45.2 11.9c-3.1 3.6-5.5 7.9-7 12.6-1.3 3.9-1.9 7.8-1.8 11.8.1 8.6 3.1 17.1 8.5 24 5.1 6.7 12.4 11.9 21.2 14.8 8.8 2.9 17.8 2.8 25.8.5 8.4-2.5 15.8-7.5 20.9-14.4 2.3-3.1 4.2-6.7 5.4-10.6 1.5-4.8 2-9.6 1.7-14.4zm-50.7 28.9c-26.9-8.7-29.9-24-24.8-40 5.2-16 24.7-23.9 43.5-17.8s29.9 24 24.8 40c-5.1 16-16.6 26.5-43.5 17.8z" class="st30"/><path d="M802.6 167.9c3.6-12.3-2.3-25.6-13.8-33.7l-.9-.6c-.6-.4-1.3-.8-1.9-1.2-.3-.2-.6-.4-.9-.5-.3-.1-.5-.3-.8-.4-.3-.2-.6-.3-.9-.5-.5-.2-1-.5-1.5-.7-.5-.2-1.1-.5-1.7-.7-.6-.2-1.1-.4-1.7-.6l-.9-.3-.9-.3c-.6-.2-1.2-.3-1.8-.5l-2.7-.6c-17.1-3.2-33.5 4.7-38.2 19.2-5.2 16-2.1 31.3 24.8 40s38.4-1.8 43.5-17.8c.1-.3.2-.5.3-.8z" class="st29"/><path d="M712.9 206.1c-.1.2-.3.4-.4.6.7 1 1.4 1.9 2.2 2.9 1.8-4 3.7-7.5 5.4-10.4-2.8 1.9-5.4 4.2-7.2 6.9zm69.8 13.4c-.3 3.4-.8 7.4-1.8 11.6 1.2-.3 2.3-.7 3.5-1v-.8c.1-3.2-.6-6.6-1.7-9.8z" class="st31"/><path d="M849.9 491.3c86.6 197.6 4 430.7-191.3 528.5-201.5 100.8-446.7 19.2-547.5-182.4-56.3-112.3-55.8-238.3-9.4-345.2" class="st32"/><path fill="#3c6158" d="M644.3 799.4c-199.7 80.1-426.5-16.8-506.7-216.5-9.6-23.7-16.4-47.8-21-72.1-33.2 88-35.2 188.1 2.6 282.3 80.1 199.7 307 296.7 506.7 216.5 176-70.6 272-255.1 237.5-434.7-37.1 98.6-113.6 182.1-219.1 224.5z" opacity=".14"/><path d="M165.5 603.9c.4 0 .9 0 1.2.1-.4 0-.8 0-1.2-.1zm-1.7 0h-.6.6zm36.2 84.3c-6.1 6.4-13.8 11.2-22.3 13.6 20.8-6.1 36-25.2 36-47.9 0-5.8-.9-11.3-2.7-16.5-1-1.6-28.3-45.3-79.9-21.2 6.1-5.3 13.2-9 21-10.9-21.9 5.3-38.2 25-38.2 48.5 0 4.5.6 8.9 1.7 13 .5 1.2 27.3 57.8 84.4 21.4zm-41.5-84c.4 0 .9-.1 1.2-.1-.4 0-.8 0-1.2.1z" class="st34"/><path d="M177.7 701.8c-.8.2-1.6.5-2.4.7.8-.2 1.6-.5 2.4-.7zm-22.2-97.2c.6-.1 1.1-.2 1.7-.3-.5.1-1.1.2-1.7.3zm24.6 2.1c.8.3 1.4.6 2.2.9-.8-.4-1.4-.6-2.2-.9zm2.8 1c.9.4 1.7.8 2.6 1.1-.9-.3-1.7-.7-2.6-1.1zm-14.8-3.6c.6.1 1.1.1 1.7.2-.5-.1-1.1-.1-1.7-.2zm2.8.3c.9.1 1.8.3 2.6.5-.8-.2-1.8-.3-2.6-.5zm6.1 1.3c.9.2 1.6.5 2.5.8-.9-.3-1.6-.6-2.5-.8zm-60 65.5c-.1-.2-.1-.4-.2-.6 0 .3.1.4.2.6zm35.4-65.9c.8-.2 1.4-.3 2.2-.5-.7.1-1.4.3-2.2.5zm-.5 97.1c-.3-.1-.7-.2-.9-.2.3 0 .6.1.9.2zm2 .4c-.3-.1-.5-.1-.8-.2.4.2.6.2.8.2zm2.3.4zm-9.5-2.4zm2.3.8c-.1 0-.3-.1-.4-.1.2 0 .3 0 .4.1zm-32.8-32.4c-.1-.2-.2-.5-.2-.7.1.2.2.4.2.7zm57.2 33.6c.3-.1.6-.1.9-.2-.3.2-.6.2-.9.2zm-54.6-27.3s0-.1 0 0c0-.1 0 0 0 0zm-.9-2c-.1-.1-.1-.2-.2-.4 0 .1.1.3.2.4zm55.7-68.6c1 .2 2 .5 3 .7-1-.2-2-.5-3-.7zm26.9 15.1c.6.6 1 1.1 1.6 1.8-.6-.7-1.2-1.2-1.6-1.8zm-5.1-4.7c.1 0 .1 0 0 0 .1 0 .1 0 0 0zm6.8 6.7c.7.8 1.2 1.5 1.8 2.3-.6-.8-1.2-1.5-1.8-2.3zm5.1 7.4c1.4 2.5 2.6 5.1 3.6 7.8-1-2.7-2.2-5.4-3.6-7.8zm-8.7-11.3 1 1c-.3-.3-.7-.6-1-1zm-12.3-8.8c.6.3 1 .6 1.5.9-.5-.4-1-.6-1.5-.9zm10.4 7c.3.3.7.6.9.9l-.9-.9zm-5.2-3.9.9.6c-.4-.3-.6-.5-.9-.6zm-2.4-1.6c.4.2.8.4 1 .7-.3-.3-.6-.5-1-.7zm16.7 16.1c.5.8 1 1.6 1.4 2.4-.4-.9-.9-1.6-1.4-2.4zm-1.7-2.5c.6.8 1.1 1.5 1.6 2.4-.6-.9-1.1-1.7-1.6-2.4z" class="st34"/><path d="M176.7 605.6s.2.1.3.1c-.1 0-.2-.1-.3-.1zm13.5 5.9c.5.3.9.6 1.3.9-.5-.3-.9-.6-1.3-.9zm-7.9-4c.2.1.5.2.7.3-.3-.2-.5-.2-.7-.3zm-22.5-3.4c1.1-.1 2.3-.2 3.4-.2-1.1 0-2.3.1-3.4.2zm28.1 6c.4.2.9.5 1.2.8-.5-.3-.8-.5-1.2-.8zm-2.5-1.2c.3.1.6.3.9.5-.3-.3-.6-.4-.9-.5zm-21.5-5h1.7-1.7zm2.8.1c.5 0 .9.1 1.4.1-.5 0-.9-.1-1.4-.1zm6.8.9c.1 0 0 0 0 0zm-3.7-.6c.4 0 .7.1 1 .1-.3 0-.6-.1-1-.1zm9.7 2.2c.2.1.5.2.7.2-.4-.1-.5-.1-.7-.2zm26.2 20.2c0 .1.1.1.1.2 0-.1-.1-.2-.1-.2zm-1.7-2.4c.1 0 .1.1 0 0 .1.1.1 0 0 0zm3.3 5s0 .1 0 0c0 .1 0 0 0 0zm-15-16.4c1 .8 2.2 1.5 3.2 2.4-1-.9-2.1-1.6-3.2-2.4zm9.7 8.9c.1.1.1.2.2.2 0-.1-.1-.2-.2-.2zm-2.3-2.6c.3.3.5.6.8.8l-.8-.8zm-4.2-3.8c.4.3.8.7 1.1 1-.3-.4-.7-.7-1.1-1zm15.5 22.1c0-.1-.1-.2-.1-.3 0 .1 0 .2.1.3zm-13.4-20.3c.4.3.7.7.9.9-.2-.4-.6-.6-.9-.9zm-40.4-12.8c.4-.1.9-.1 1.2-.2-.3 0-.7.1-1.2.2zm-5.2 1c.1 0 .3-.1.4-.1-.1 0-.3 0-.4.1zm2.7-.6c.3-.1.6-.1.9-.2-.3.1-.6.1-.9.2z" class="st35"/><path d="M211 637.4c0-.1-.1-.2-.1-.3-.9-2.7-2.2-5.4-3.6-7.8v-.1c-.5-.9-.9-1.6-1.4-2.4 0-.1-.1-.1-.1-.2-.5-.8-1-1.6-1.6-2.4v-.1c-.6-.8-1.1-1.5-1.8-2.3-.1-.1-.1-.2-.2-.2-.5-.6-1-1.2-1.6-1.8-.3-.3-.5-.6-.8-.8l-1-1-.9-.9c-.2-.2-.7-.6-.9-.9-.4-.4-.8-.7-1.1-1-1-.9-2.1-1.6-3.2-2.4l-.9-.6c-.5-.3-.9-.6-1.3-.9-.4-.2-.7-.5-1-.7-.4-.3-.9-.5-1.2-.8l-1.5-.9c-.3-.2-.6-.3-.9-.5-.9-.4-1.7-.8-2.6-1.1-.2-.1-.4-.2-.7-.3-.8-.3-1.4-.6-2.2-.9-.2-.1-.5-.2-.7-.2-.9-.3-1.6-.5-2.5-.8-.1 0-.3-.1-.4-.1-1-.3-2-.5-3-.7h-.1c-.9-.2-1.8-.3-2.6-.5-.4-.1-.7-.1-1-.1-.6-.1-1.1-.1-1.7-.2-.5 0-.9-.1-1.4-.1-.4 0-.9 0-1.2-.1h-2.4c-1.1 0-2.3.1-3.4.2-.4 0-.9.1-1.2.1s-.9.1-1.2.2c-.6.1-1.1.2-1.7.3-.3.1-.6.1-.9.2-.8.1-1.5.3-2.2.5-.1 0-.3.1-.4.1-7.8 1.9-14.9 5.7-21 10.9 51.3-23.6 78.5 20 79.6 21.6z" class="st34"/><path d="M211 637.4c0-.1-.1-.2-.1-.3-.9-2.7-2.2-5.4-3.6-7.8v-.1c-.5-.9-.9-1.6-1.4-2.4 0-.1-.1-.1-.1-.2-.5-.8-1-1.6-1.6-2.4v-.1c-.6-.8-1.1-1.5-1.8-2.3-.1-.1-.1-.2-.2-.2-.5-.6-1-1.2-1.6-1.8-.3-.3-.5-.6-.8-.8l-1-1-.9-.9c-.2-.2-.7-.6-.9-.9-.4-.4-.8-.7-1.1-1-1-.9-2.1-1.6-3.2-2.4l-.9-.6c-.5-.3-.9-.6-1.3-.9-.4-.2-.7-.5-1-.7-.4-.3-.9-.5-1.2-.8l-1.5-.9c-.3-.2-.6-.3-.9-.5-.9-.4-1.7-.8-2.6-1.1-.2-.1-.4-.2-.7-.3-.8-.3-1.4-.6-2.2-.9-.2-.1-.5-.2-.7-.2-.9-.3-1.6-.5-2.5-.8-.1 0-.3-.1-.4-.1-1-.3-2-.5-3-.7h-.1c-.9-.2-1.8-.3-2.6-.5-.4-.1-.7-.1-1-.1-.6-.1-1.1-.1-1.7-.2-.5 0-.9-.1-1.4-.1-.4 0-.9 0-1.2-.1h-2.4c-1.1 0-2.3.1-3.4.2-.4 0-.9.1-1.2.1s-.9.1-1.2.2c-.6.1-1.1.2-1.7.3-.3.1-.6.1-.9.2-.8.1-1.5.3-2.2.5-.1 0-.3.1-.4.1-7.8 1.9-14.9 5.7-21 10.9 51.3-23.6 78.5 20 79.6 21.6z" class="st35"/><path d="M153.2 702.7c-.5-.1-.9-.2-1.3-.3.4.1.9.2 1.3.3zm-34.4-27.3c-.3-.7-.6-1.2-.9-1.9.2.7.5 1.3.9 1.9zm56.5 27.1c-.4.1-.7.2-1 .3.3-.2.6-.2 1-.3zm-19.2.7c-.8-.1-1.4-.3-2.2-.4.8.1 1.5.3 2.2.4zm-5.3-1.1h.2c-.7-.2-1.3-.4-1.9-.6.5.3 1.1.4 1.7.6zm26.9-.3zm-29.1-.4c-.7-.2-1.3-.5-2-.7.7.3 1.4.5 2 .7zm-30.9-28.2c-.3-.7-.6-1.3-.8-2 .3.6.5 1.3.8 2zm38.5 30c5.9.9 11.6.8 17.2-.4-3.1.6-6.3.9-9.6.9-2.6.1-5.1-.1-7.6-.5zm-37.4-27.7c5.5 11.3 15.2 20.6 27.8 25.2-12.2-4.5-22.2-13.6-27.8-25.2zm-3.3-8.7c.2.6.3 1.1.5 1.7-.2-.5-.3-1.1-.5-1.7zm1.3 3.9c-.2-.5-.4-1-.5-1.5.1.5.3.9.5 1.5z" class="st36"/><path d="M175.3 702.5c.9-.2 1.6-.4 2.4-.7 8.5-2.5 16.2-7.2 22.3-13.6-57.1 36.4-83.9-20.1-84.4-21.4.2.6.3 1.1.5 1.6.1.2.2.5.2.7.2.5.3 1 .5 1.5.1.2.1.4.2.6.3.7.5 1.3.8 2 .1.1.1.2.2.4.3.7.6 1.3.9 1.9 0 0 0 .1.1.1 5.6 11.6 15.6 20.7 27.8 25.2h.1c.7.3 1.3.5 2 .7.1 0 .3.1.4.1.7.2 1.3.4 1.9.6.3.1.7.2.9.2.5.1.9.2 1.3.3.3.1.5.1.8.2.8.2 1.4.3 2.2.4h.1c2.5.4 5 .6 7.6.6 3.3 0 6.5-.3 9.6-.9.3-.1.6-.1.9-.2 0-.2.3-.2.7-.3z" class="st34"/><path d="M175.3 702.5c.9-.2 1.6-.4 2.4-.7 8.5-2.5 16.2-7.2 22.3-13.6-57.1 36.4-83.9-20.1-84.4-21.4.2.6.3 1.1.5 1.6.1.2.2.5.2.7.2.5.3 1 .5 1.5.1.2.1.4.2.6.3.7.5 1.3.8 2 .1.1.1.2.2.4.3.7.6 1.3.9 1.9 0 0 0 .1.1.1 5.6 11.6 15.6 20.7 27.8 25.2h.1c.7.3 1.3.5 2 .7.1 0 .3.1.4.1.7.2 1.3.4 1.9.6.3.1.7.2.9.2.5.1.9.2 1.3.3.3.1.5.1.8.2.8.2 1.4.3 2.2.4h.1c2.5.4 5 .6 7.6.6 3.3 0 6.5-.3 9.6-.9.3-.1.6-.1.9-.2 0-.2.3-.2.7-.3z" class="st36"/><path d="M629.5 814.9c.1.1.1 0 0 0zm.2.4c-.5-.9-13.4-21.4-37.8-10.2-5.1 4.3-8.3 10.8-8.3 18.1 0 2.2.3 4.3.9 6.4 1.3 2.7 14.1 26.3 40 10 4.1-4.3 6.6-10 6.6-16.4-.1-2.8-.6-5.5-1.4-7.9z" class="st34"/><path d="M629.5 814.9c-2.6-7-8.4-12.7-16.1-14.8-7.9-2.1-16 0-21.7 5 .1 0 .1-.1.2-.1 4.2-3.5 9.5-5.7 15.4-5.7 10.2.1 18.9 6.5 22.2 15.6zm.2.4c0-.1-.1-.2-.1-.3 0 .1 0 .2.1.3z" class="st35"/><path d="M629.7 815.3c0-.1-.1-.2-.1-.3v-.1c-3.3-9.1-12-15.5-22.2-15.5-5.9 0-11.3 2.2-15.4 5.7 24.2-11.2 37.1 9.3 37.7 10.2z" class="st34"/><path d="M629.7 815.3c0-.1-.1-.2-.1-.3v-.1c-3.3-9.1-12-15.5-22.2-15.5-5.9 0-11.3 2.2-15.4 5.7 24.2-11.2 37.1 9.3 37.7 10.2z" class="st35"/><path d="M607.2 846.9c-10.9 0-20-7.4-22.9-17.3-.1-.2-.1-.3-.1-.3 2.2 7.9 8.3 14.6 16.8 16.8 8.7 2.4 17.6-.5 23.4-6.6h-.1c-4.2 4.5-10.3 7.4-17.1 7.4z" class="st36"/><path d="M584.4 829.6c2.8 10 12 17.3 22.9 17.3 6.7 0 12.9-2.8 17.1-7.4-25.9 16.3-38.6-7.2-40-9.9z" class="st34"/><path d="M584.4 829.6c2.8 10 12 17.3 22.9 17.3 6.7 0 12.9-2.8 17.1-7.4-25.9 16.3-38.6-7.2-40-9.9z" class="st36"/><path d="M674.5 575.1c-.1-.1-.2-.3-.2-.4 0 .2.1.3.2.4zm48.4-26.5c.1.1.1.2.2.4 0-.2-.1-.3-.2-.4zM673 572c-.1-.4-.3-.7-.4-1 .2.3.3.7.4 1zm.8 1.9c-.2-.5-.4-.9-.6-1.3.2.4.4.8.6 1.3zm-1.3-3.4c-.1-.4-.3-.8-.4-1.1.1.3.2.7.4 1.1zm2.5 5.7s0-.1 0 0c0-.1 0 0 0 0z" class="st34"/><path d="M718.4 581.2c4.9-5 7.9-11.8 7.9-19.4 0-3.2-.6-6.3-1.6-9.2-.9-1.5-15.9-24.6-43.9-11.9-6 5.1-9.8 12.7-9.8 21.1 0 2.5.4 4.9.9 7.2.6 1.1 15.2 31.6 46.5 12.2zm3.8-33.7c0 .1.1.2.1.2 0-.1 0-.2-.1-.2z" class="st34"/><path d="M722.2 547.5c-3.6-5.9-9.3-10.4-16.5-12.4-9.2-2.5-18.6 0-25.3 5.9.2-.1.3-.1.5-.2 4.8-4.1 11.1-6.5 17.8-6.5 9.9-.1 18.7 5.2 23.5 13.2zm2.6 5.3c-.5-1.3-1-2.6-1.7-3.8.6 1.1 1.2 2.4 1.7 3.8zm-2.4-5.1c.2.3.4.7.6.9-.3-.3-.5-.6-.6-.9z" class="st35"/><path d="M724.7 552.7c-.5-1.3-1-2.6-1.6-3.8-.1-.1-.1-.2-.2-.4-.2-.3-.4-.7-.6-.9 0-.1-.1-.2-.1-.2-4.8-7.9-13.6-13.2-23.5-13.2-6.8 0-13 2.5-17.8 6.5 28-12.6 42.9 10.5 43.8 12z" class="st34"/><path d="M724.7 552.7c-.5-1.3-1-2.6-1.6-3.8-.1-.1-.1-.2-.2-.4-.2-.3-.4-.7-.6-.9 0-.1-.1-.2-.1-.2-4.8-7.9-13.6-13.2-23.5-13.2-6.8 0-13 2.5-17.8 6.5 28-12.6 42.9 10.5 43.8 12z" class="st35"/><path d="M698.7 589.5c-10 0-18.7-5.3-23.6-13.2 3.6 5.9 9.3 10.5 16.5 12.4 10.1 2.7 20.5-.6 27.2-7.7-.2.1-.4.2-.5.3-5 5.1-12 8.2-19.6 8.2zM672.6 571c-.1-.2-.1-.4-.2-.5.1.2.2.3.2.5zm2.4 5.1c-.2-.4-.4-.7-.6-1 .3.4.5.8.6 1zm-1.8-3.6c-.1-.2-.1-.4-.2-.6.1.3.2.5.2.6zm1.1 2.2c-.2-.3-.3-.6-.5-.9.1.4.3.6.5.9zM672 569c0 .1.1.2.1.3 0-.1-.1-.2-.1-.3z" class="st36"/><path d="M672 569c0 .1 0 .2.1.2.1.4.2.8.4 1.1.1.2.1.4.2.5.1.4.3.7.4 1 .1.2.1.4.2.6.2.5.4.9.6 1.3.2.3.3.6.5.9.1.1.1.3.2.4.2.4.4.7.6 1 4.8 7.9 13.6 13.2 23.6 13.2 7.7 0 14.7-3.1 19.7-8.2-31.4 19.6-46-10.9-46.5-12z" class="st34"/><path d="M672 569c0 .1 0 .2.1.2.1.4.2.8.4 1.1.1.2.1.4.2.5.1.4.3.7.4 1 .1.2.1.4.2.6.2.5.4.9.6 1.3.2.3.3.6.5.9.1.1.1.3.2.4.2.4.4.7.6 1 4.8 7.9 13.6 13.2 23.6 13.2 7.7 0 14.7-3.1 19.7-8.2-31.4 19.6-46-10.9-46.5-12z" class="st36"/><path d="M590.9 929.8c0 1 .2 2 .4 3 .5.9 6.6 13 19.5 4.8-2.8 2.9-7.1 4.3-11.3 3.2-4-1.1-7-4.2-8-7.9 1.3 4.9 5.8 8.4 11.1 8.4 6.3 0 11.5-5.2 11.5-11.5 0-3.8-1.8-7.2-4.6-9.3 1.9 1.4 3.2 3.3 4 5.5 0 0-6.3-10.6-18.4-4.9-2.7 2.1-4.2 5.2-4.2 8.7zm13.4-11.4c.3 0 .6.1.9.2-.3-.1-.6-.2-.9-.2zm-9.4 2.7c.2-.2.5-.4.8-.6-.4.2-.6.4-.8.6zm10.6-2.4zm-2-.4h.2-.2z" class="st34"/><path d="M603.5 918.3c-2.9-.3-5.7.6-7.8 2.2 1.9-1.4 4.3-2.3 6.8-2.3.3 0 .7 0 1 .1zm.2 0c.2 0 .5.1.7.1-.3-.1-.6-.1-.7-.1zm5.5 2.2zm-3.8-1.9h-.2c.1 0 .3.1.4.1-.1-.1-.1-.1-.2-.1zm-10.5 2.5z" class="st35"/><path d="M613.3 926c-.8-2.2-2.2-4.1-4-5.5 0 0-.1 0-.1-.1-1-.8-2.4-1.4-3.7-1.8-.1 0-.3-.1-.4-.1-.3-.1-.6-.1-.9-.2-.2 0-.5-.1-.7-.1h-.2c-.4 0-.7-.1-1-.1-2.6 0-4.9.9-6.8 2.3-.3.2-.5.4-.8.6 12.3-5.6 18.6 5 18.6 5z" class="st34"/><path d="M613.3 926c-.8-2.2-2.2-4.1-4-5.5 0 0-.1 0-.1-.1-1-.8-2.4-1.4-3.7-1.8-.1 0-.3-.1-.4-.1-.3-.1-.6-.1-.9-.2-.2 0-.5-.1-.7-.1h-.2c-.4 0-.7-.1-1-.1-2.6 0-4.9.9-6.8 2.3-.3.2-.5.4-.8.6 12.3-5.6 18.6 5 18.6 5z" class="st35"/><path d="M591.3 932.7c0 .1 0 .1.1.2-.1-.1-.1-.1-.1-.2z" class="st36"/><path d="M599.4 940.8c4.3 1.1 8.5-.3 11.3-3.2-12.9 8.2-19-4-19.5-4.8v.1c1.2 3.8 4.2 6.8 8.2 7.9z" class="st34"/><path d="M599.4 940.8c4.3 1.1 8.5-.3 11.3-3.2-12.9 8.2-19-4-19.5-4.8v.1c1.2 3.8 4.2 6.8 8.2 7.9z" class="st36"/><path d="M769.1 706.1c-.1-.1-.2-.1-.3-.2.1.1.2.1.3.2z" class="st34"/><path d="M783.8 704.4c-1.7 1.8-3.9 2.9-6.3 3.4 5.4-.9 9.5-5.7 9.5-11.3 0-3.8-1.8-7.2-4.6-9.3 1.9 1.4 3.2 3.3 4 5.5 0 0-6.3-10.5-18.4-4.9-2.5 2.1-4 5.2-4 8.7 0 1.1.2 2.2.5 3.2.7 1.3 6.8 12.6 19.3 4.7zm-7.1 3.5zm-4.6-.4c-.1-.1 0-.1 0 0zm-4.2-19.8c.2-.2.5-.4.8-.6-.3.2-.5.4-.8.6zm8.6-2.7h.2-.2z" class="st34"/><path d="M778.6 685.4c1.4.4 2.6 1 3.7 1.8-1.2-.9-2.4-1.5-3.7-1.8zm-1.2-.3c.3 0 .6.1.9.2-.4-.1-.7-.2-.9-.2zm-7.2 21.6c-.1-.1-.2-.1-.3-.2.1.1.2.1.3.2z" class="st34"/><path d="M776.7 685c.2 0 .5.1.7.1-.2-.1-.5-.1-.7-.1zm5.6 2.1zm-14.4.6zm8.6-2.7c-2.9-.3-5.7.6-7.8 2.2 1.9-1.4 4.3-2.3 6.8-2.3.3 0 .7 0 1 .1zm1.9.3h-.2c.1 0 .3.1.4.1-.1-.1-.1-.1-.2-.1z" class="st35"/><path d="M786.3 692.6c-.8-2.2-2.2-4.1-4-5.5 0 0-.1 0-.1-.1-1-.8-2.4-1.4-3.7-1.8-.1 0-.3-.1-.4-.1-.3-.1-.6-.1-.9-.2-.2 0-.5-.1-.7-.1h-.2c-.4 0-.7-.1-1-.1-2.6 0-4.9.9-6.8 2.3-.3.2-.5.4-.8.6 12.3-5.5 18.6 5 18.6 5z" class="st34"/><path d="M786.3 692.6c-.8-2.2-2.2-4.1-4-5.5 0 0-.1 0-.1-.1-1-.8-2.4-1.4-3.7-1.8-.1 0-.3-.1-.4-.1-.3-.1-.6-.1-.9-.2-.2 0-.5-.1-.7-.1h-.2c-.4 0-.7-.1-1-.1-2.6 0-4.9.9-6.8 2.3-.3.2-.5.4-.8.6 12.3-5.5 18.6 5 18.6 5z" class="st35"/><path d="M777.5 707.8c-.3 0-.5.1-.8.1.3 0 .6 0 .8-.1zm-5.4-.3c.1 0 .3.1.4.1 1.4.4 2.8.5 4.2.3-.4 0-.8.1-1.1.1-1.4 0-2.5-.2-3.5-.5zm-.1-.1c-.6-.2-1.2-.5-1.7-.8.4.4 1 .6 1.7.8zm-3.2-1.5c-2.2-1.5-3.8-3.7-4.5-6.3-.1-.1-.1-.2-.1-.2.8 2.7 2.5 5 4.6 6.5zm1.1.6c-.3-.2-.6-.3-.8-.5.3.2.5.3.8.5z" class="st36"/><path d="M768.8 705.9c.1.1.2.1.3.2.3.2.5.3.8.5.1.1.2.1.3.2.6.3 1.1.6 1.7.8h.1c1 .4 2.3.5 3.4.5.4 0 .8 0 1.1-.1h.1c.3 0 .5-.1.8-.1 2.4-.5 4.6-1.7 6.3-3.4-12.5 7.9-18.6-3.3-19.4-4.7.9 2.4 2.5 4.6 4.5 6.1z" class="st34"/><path d="M768.8 705.9c.1.1.2.1.3.2.3.2.5.3.8.5.1.1.2.1.3.2.6.3 1.1.6 1.7.8h.1c1 .4 2.3.5 3.4.5.4 0 .8 0 1.1-.1h.1c.3 0 .5-.1.8-.1 2.4-.5 4.6-1.7 6.3-3.4-12.5 7.9-18.6-3.3-19.4-4.7.9 2.4 2.5 4.6 4.5 6.1z" class="st36"/><path d="M281.1 775.1c.1.2.2.3.3.5-.1-.2-.2-.4-.3-.5zm-.7-1.1c.1.2.3.3.4.5-.2-.3-.3-.4-.4-.5zm-21.9 5.4c-1.1 6.7 3.5 13 10.1 14.1 3.9.7 7.7-.7 10.3-3.1-3 2.7-7.3 4-11.5 2.8-4.4-1.2-7.6-4.6-8.7-8.7 0 0 6.5 14.4 20.8 5.3 1.6-1.7 2.7-4 3.1-6.4.4-2.2.1-4.3-.6-6.1-.7-.9-7.2-10.8-19.4-5.3-2 1.8-3.6 4.4-4.1 7.4zm23.3-3.2c0 .1.1.1.1.2 0 0-.1-.1-.1-.2zm-2.2-3.2c.1.1.2.2.3.4-.1-.1-.2-.2-.3-.4z" class="st34"/><path d="M281.4 775.6c.1.2.3.5.4.8-.1-.4-.3-.6-.4-.8zm-8.8-6.3c2.8.5 5.2 1.8 7 3.8-1.5-1.6-3.5-2.9-5.8-3.5-4.1-1.1-8.2 0-11.3 2.6.1 0 .2-.1.2-.1 2.7-2.3 6.2-3.3 9.9-2.8zm7.3 4.1c.2.2.3.4.5.6-.1-.2-.3-.4-.5-.6zm.8 1c.1.2.3.4.4.6-.1-.2-.3-.4-.4-.6zm1.6 3c-.1-.3-.3-.7-.4-.9.1.2.2.5.4.9z" class="st35"/><path d="M282.2 777.3c-.1-.3-.2-.6-.4-.9 0-.1-.1-.1-.1-.2-.1-.3-.3-.5-.4-.8-.1-.2-.2-.3-.3-.5s-.3-.4-.4-.6-.3-.3-.4-.5c-.2-.2-.3-.4-.5-.6-.1-.1-.2-.2-.3-.4-1.8-1.9-4.2-3.3-7-3.8-3.6-.6-7.2.5-9.8 2.6 12.4-5 19 4.7 19.6 5.7z" class="st34"/><path d="M282.2 777.3c-.1-.3-.2-.6-.4-.9 0-.1-.1-.1-.1-.2-.1-.3-.3-.5-.4-.8-.1-.2-.2-.3-.3-.5s-.3-.4-.4-.6-.3-.3-.4-.5c-.2-.2-.3-.4-.5-.6-.1-.1-.2-.2-.3-.4-1.8-1.9-4.2-3.3-7-3.8-3.6-.6-7.2.5-9.8 2.6 12.4-5 19 4.7 19.6 5.7z" class="st35"/><path d="m279 790.4.6-.6-.6.6z" class="st36"/><path d="M258.8 784.5c1.1 4.1 4.3 7.5 8.7 8.7 4.3 1.1 8.5-.1 11.5-2.8l.6-.6c-14.3 9.1-20.8-5.3-20.8-5.3z" class="st34"/><path d="M258.8 784.5c1.1 4.1 4.3 7.5 8.7 8.7 4.3 1.1 8.5-.1 11.5-2.8l.6-.6c-14.3 9.1-20.8-5.3-20.8-5.3z" class="st36"/><path d="M119.4 828c.9-.2 1.7-.4 2.6-.6-.8.3-1.7.5-2.6.6zm-8.1 2.8c.9-.4 1.6-.7 2.5-1-.9.3-1.8.6-2.5 1zm2.4-1.1c1.8-.7 3.6-1.2 5.5-1.7-1.9.5-3.7 1.1-5.5 1.7zm46.7 83.8c.7-.6 1.3-1 2-1.6-.7.6-1.4 1.1-2 1.6zm-29.7-86.8c-2.8 0-5.7.3-8.4.8 6.7-1.1 13.8-.9 20.9.9 16.2 4.3 28.2 16.3 33.3 30.9 0 0-22.8-38.1-66.8-24.9.5.9.9 2 1.4 2.9 13.6 27.2 29.9 52.3 48.3 75 2.1-1.1 4.3-2.4 6.4-3.8-1.1 1.1-2.3 2.3-3.5 3.3 10.3-8.9 16.8-22 16.8-36.7.1-26.6-21.7-48.4-48.4-48.4zm-21.8 5.2c.6-.3 1.1-.6 1.7-.9-.5.3-1.1.6-1.7.9z" class="st34"/><path d="M119.2 828c.1 0 .2 0 .2-.1 0 .1-.1.1-.2.1zm-8.6 3.1c.2-.1.5-.2.7-.3-.3.1-.5.2-.7.3zm3.1-1.4zm8.4-2.2h.3-.3zm-13.6 4.6c.1-.1.3-.1.4-.2-.2 0-.3.1-.4.2z" class="st35"/><path d="M176.4 859.3c-5.1-14.7-17.1-26.7-33.3-30.9-7-1.9-14.1-2.2-20.9-.9h-.3c-.9.2-1.7.4-2.6.6-.1 0-.2 0-.2.1-1.9.5-3.7 1-5.5 1.7-.9.3-1.6.7-2.5 1-.2.1-.5.2-.7.3-.6.3-1.1.6-1.7.9-.1.1-.3.1-.4.2.4.8.8 1.6 1.1 2.4 44.3-13.5 67 24.6 67 24.6z" class="st34"/><path d="M176.4 859.3c-5.1-14.7-17.1-26.7-33.3-30.9-7-1.9-14.1-2.2-20.9-.9h-.3c-.9.2-1.7.4-2.6.6-.1 0-.2 0-.2.1-1.9.5-3.7 1-5.5 1.7-.9.3-1.6.7-2.5 1-.2.1-.5.2-.7.3-.6.3-1.1.6-1.7.9-.1.1-.3.1-.4.2.4.8.8 1.6 1.1 2.4 44.3-13.5 67 24.6 67 24.6z" class="st35"/><path d="M162.4 911.9z" class="st36"/><path d="M165.9 908.6c-2.2 1.4-4.4 2.6-6.4 3.8.3.4.7.8.9 1.2.7-.6 1.3-1 2-1.6 1.2-1.1 2.3-2.3 3.5-3.4z" class="st34"/><path d="M165.9 908.6c-2.2 1.4-4.4 2.6-6.4 3.8.3.4.7.8.9 1.2.7-.6 1.3-1 2-1.6 1.2-1.1 2.3-2.3 3.5-3.4z" class="st36"/><path d="M390.4 845.2c.8.1 1.5.2 2.3.3-.8-.1-1.5-.2-2.3-.3zm-2.9-.1c.4 0 .8 0 1.1.1-.4-.1-.7-.1-1.1-.1zm18.6 3.5c-4-1.3-8.1-2.3-12.4-2.9 2.7.4 5.6.9 8.3 1.7 1.5.3 2.9.7 4.1 1.2zm-21.7-3.6h-.8 1.2-.4zm64.5 45.6c-2.9-4.7-40.3-61-109.2-28.8a67.78 67.78 0 0 1 39.1-16.5c-35.1 2.8-62.7 32.2-62.7 68.1 0 37.7 30.6 68.4 68.4 68.4 19.3 0 36.7-7.9 49.1-20.8-16.7 17.2-42 25.1-66.8 18.4-24.4-6.5-42.2-25.5-48.3-48.3 0 0 36.5 79.6 115.6 29.3 11.6-12.3 18.7-28.8 18.7-47-.1-8-1.5-15.7-3.9-22.8zM379 845.2c1-.1 2-.1 3-.2-1 .1-2.1.2-3 .2zm31.8 5.1c.2.1.4.1.5.2-.2-.1-.4-.1-.5-.2zm-4.2-1.6c.6.2 1.2.4 1.8.7-.7-.3-1.2-.6-1.8-.7z" class="st34"/><path d="M382 845.1h1.6c-.6-.1-1.1-.1-1.6 0zm-3.3.1h.3-.3zm70.2 45.4c.1.2.2.3.2.3-6.1-17.9-19.7-32.8-37.8-40.5 17.4 7.5 31.2 22.2 37.6 40.2zm-42.8-42c.1 0 .3.1.4.1-.1 0-.2-.1-.4-.1zm-13.4-3.1c.4 0 .8.1 1.1.2-.3-.2-.7-.2-1.1-.2zm15.7 3.8c.9.3 1.6.7 2.4.9-.8-.3-1.7-.6-2.4-.9zm-19.8-4.1c.6 0 1.2.1 1.8.1-.5-.1-1.2-.1-1.8-.1zm-3.8-.2c.9 0 1.7 0 2.6.1-.9-.1-1.7-.1-2.6-.1z" class="st35"/><path d="M448.9 890.6c-6.3-18.1-20.1-32.6-37.6-40.2-.2-.1-.3-.2-.5-.2-.8-.4-1.6-.7-2.4-.9-.6-.2-1.2-.5-1.8-.7-.1 0-.3-.1-.4-.1-1.3-.5-2.6-.9-4-1.2-2.7-.8-5.6-1.3-8.3-1.7-.4-.1-.8-.1-1.1-.2-.8-.1-1.5-.2-2.3-.3-.6-.1-1.2-.1-1.8-.1-.4 0-.8-.1-1.1-.1-.9 0-1.7-.1-2.6-.1h-2.8c-1 0-2 .1-3 .2h-.3c-14.6 1.2-28.3 7.2-39.1 16.5 68.8-31.9 106.1 24.4 109.1 29.1z" class="st34"/><path d="M448.9 890.6c-6.3-18.1-20.1-32.6-37.6-40.2-.2-.1-.3-.2-.5-.2-.8-.4-1.6-.7-2.4-.9-.6-.2-1.2-.5-1.8-.7-.1 0-.3-.1-.4-.1-1.3-.5-2.6-.9-4-1.2-2.7-.8-5.6-1.3-8.3-1.7-.4-.1-.8-.1-1.1-.2-.8-.1-1.5-.2-2.3-.3-.6-.1-1.2-.1-1.8-.1-.4 0-.8-.1-1.1-.1-.9 0-1.7-.1-2.6-.1h-2.8c-1 0-2 .1-3 .2h-.3c-14.6 1.2-28.3 7.2-39.1 16.5 68.8-31.9 106.1 24.4 109.1 29.1z" class="st35"/><path d="m434 960.3-.6.6.6-.6z" class="st36"/><path d="M318.4 931c6.1 22.8 23.9 41.8 48.3 48.3 24.8 6.6 50-1.2 66.8-18.4l.6-.6c-79.2 50.3-115.7-29.3-115.7-29.3z" class="st34"/><path d="M318.4 931c6.1 22.8 23.9 41.8 48.3 48.3 24.8 6.6 50-1.2 66.8-18.4l.6-.6c-79.2 50.3-115.7-29.3-115.7-29.3z" class="st36"/><path d="M744.9 768.9a73.838 73.838 0 0 0-25.5 55.9c0 6.7.9 13.1 2.6 19.4 2.1 4.3 29.6 59.1 86 48 21.5-30.1 38.6-62.8 51.2-97.2-11.9-15.4-50.5-55.7-114.3-26.1z" class="st34"/><path d="M812.4 753.4c-24.7-6.6-49.7.1-67.6 15.6 0 0 .1 0 .1-.1 13-11.3 29.8-18 48.3-18 29.4 0 54.7 17.2 66.7 42.1-9-18.9-25.8-33.7-47.5-39.6z" class="st35"/><path d="M793.2 751c-18.4 0-35.4 6.8-48.3 18 63.6-29.6 102.4 10.6 114.2 26 .3-.7.5-1.3.8-2-11.9-24.8-37.3-42-66.7-42z" class="st34"/><path d="M793.2 751c-18.4 0-35.4 6.8-48.3 18 63.6-29.6 102.4 10.6 114.2 26 .3-.7.5-1.3.8-2-11.9-24.8-37.3-42-66.7-42z" class="st35"/><path d="M721.9 844.2c-.1-.2-.1-.3-.1-.3 6.6 24.7 25.8 45.2 52.3 52.3 10 2.6 20 3.2 29.7 1.8l.1-.1c-3.5.5-7 .8-10.6.8-34.1 0-62.8-23.1-71.4-54.5z" class="st36"/><path d="M721.9 844.2c8.5 31.4 37.2 54.5 71.3 54.5 3.6 0 7.2-.3 10.6-.8 1.4-1.9 2.7-3.8 4.2-5.7-56.5 11.1-84-43.7-86.1-48z" class="st34"/><path d="M721.9 844.2c8.5 31.4 37.2 54.5 71.3 54.5 3.6 0 7.2-.3 10.6-.8 1.4-1.9 2.7-3.8 4.2-5.7-56.5 11.1-84-43.7-86.1-48z" class="st36"/><path d="M872.3 449.1c0-29-31-52.9-68.8-52.9H142.3c-37.9 0-68.8 23.7-68.8 52.9s31 52.9 68.8 52.9h661.1c37.9-.1 68.9-23.9 68.9-52.9z" class="st34"/><path d="M899.1 438.4c0-31.4-33.2-57.1-73.8-57.1H126.6c-40.6 0-73.8 25.7-73.8 57.1s33.2 57.1 73.8 57.1h698.9c40.5.1 73.6-25.6 73.6-57.1z" class="st32"/><path fill="none" stroke="#e4edf8" stroke-linecap="round" stroke-miterlimit="10" stroke-width="12.731" d="M132.3 406.3h440.8" opacity=".12"/><path fill="none" stroke="#e4edf8" stroke-linecap="round" stroke-miterlimit="10" stroke-width="11.387" d="M604.9 406.3h31.8" opacity=".15"/><path fill="none" stroke="#e3ebf5" stroke-linecap="round" stroke-miterlimit="10" stroke-width="12.731" d="M669.4 406.3h138.1" opacity=".14"/><circle cx="409.7" cy="730.1" r="69.3" class="st5"/><path fill="#53ae94" d="M409.7 663.7c36.6 0 66.4 29.8 66.4 66.4 0 36.6-29.8 66.4-66.4 66.4s-66.4-29.7-66.4-66.4c0-36.6 29.8-66.4 66.4-66.4"/><path d="M417.9 721.3v-9.9h22.6v-15H379v15h22.6v9.9c-18.4.8-32.2 4.5-32.2 8.9s13.8 8 32.2 8.9v31.7H418V739c18.4-.8 32.1-4.5 32.1-8.9-.2-4.3-13.9-7.9-32.2-8.8m0 15c-.5 0-2.8.2-8.1.2-4.3 0-7.1-.1-8.2-.2-16.2-.7-28.3-3.5-28.3-7 0-3.4 12.1-6.2 28.3-6.9v11c1.1.1 4.1.3 8.3.3 5.1 0 7.6-.2 8-.3v-11c16.2.7 28.2 3.5 28.2 6.9.1 3.5-12 6.3-28.2 7m124.4-75.4c38.3 0 69.3 30.9 69.3 69.3s-30.9 69.3-69.3 69.3-69.3-30.9-69.3-69.4 31-69.2 69.3-69.2z" class="st5"/><path d="M542.3 663.7c36.7 0 66.4 29.6 66.4 66.4s-29.6 66.4-66.4 66.4-66.4-29.6-66.4-66.4 29.7-66.4 66.4-66.4z" class="st42"/><path d="M522.7 719.9c0 10.1 6.1 13.6 18.2 15 8.7 1.2 10.4 3.4 10.4 7.5s-2.9 6.6-8.7 6.6c-5.1 0-8-1.7-9.5-6.1-.3-.9-1.2-1.4-2-1.4h-4.6c-1.2 0-2 .9-2 2v.3c1.2 6.3 6.3 11.2 13 11.9v6.9c0 1.2.9 2 2.3 2.3h4.3c1.2 0 2-.9 2.3-2.3V756c8.7-1.2 14.1-7 14.1-14.1 0-9.5-5.8-13.3-17.9-14.7-8-1.4-10.7-3.2-10.7-7.8s4.1-7.8 9.5-7.8c7.5 0 10.1 3.2 10.9 7.5.3 1.2 1.2 1.7 2 1.7h4.9c1.2 0 2-.9 2-2v-.3c-1.2-7.2-5.8-12.4-15.3-13.8v-7c0-1.2-.9-2-2.3-2.3h-4.3c-1.2 0-2 .9-2.3 2.3v7c-8.5 1.3-14.3 7.4-14.3 15.2z" class="st5"/><path d="M527.6 689.7c-22.5 8-34 33.2-25.7 55.3 4.3 12.1 13.8 21.3 25.7 25.7 1.2.6 1.7 1.4 1.7 2.9v4.1c0 1.2-.6 2-1.7 2.3-.3 0-.9 0-1.2-.3-27.4-8.7-42.4-37.8-33.7-65.2 5.1-16.2 17.6-28.6 33.7-33.7 1.2-.6 2.3 0 2.6 1.2.3.3.3.6.3 1.2v4.1c0 .7-.8 1.9-1.7 2.4zm30.5 90c-1.2.6-2.3 0-2.6-1.2-.3-.3-.3-.6-.3-1.2v-4.1c0-1.2.9-2.3 1.7-2.9 22.5-8 34-33.2 25.7-55.3-4.3-12.1-13.8-21.3-25.7-25.7-1.2-.6-1.7-1.4-1.7-2.9v-4.1c0-1.2.6-2 1.7-2.3.3 0 .9 0 1.2.3 27.4 8.7 42.4 37.8 33.7 65.2-5.1 16.7-17.7 29.1-33.7 34.2z" class="st5"/><path d="M542.3 660.9c38.3 0 69.3 30.9 69.3 69.3s-30.9 69.3-69.3 69.3-69.3-30.9-69.3-69.4 31-69.2 69.3-69.2z" class="st5"/><path d="M542.3 663.7c36.7 0 66.4 29.6 66.4 66.4s-29.6 66.4-66.4 66.4-66.4-29.6-66.4-66.4 29.7-66.4 66.4-66.4z" class="st42"/><path d="M522.7 719.9c0 10.1 6.1 13.6 18.2 15 8.7 1.2 10.4 3.4 10.4 7.5s-2.9 6.6-8.7 6.6c-5.1 0-8-1.7-9.5-6.1-.3-.9-1.2-1.4-2-1.4h-4.6c-1.2 0-2 .9-2 2v.3c1.2 6.3 6.3 11.2 13 11.9v6.9c0 1.2.9 2 2.3 2.3h4.3c1.2 0 2-.9 2.3-2.3V756c8.7-1.2 14.1-7 14.1-14.1 0-9.5-5.8-13.3-17.9-14.7-8-1.4-10.7-3.2-10.7-7.8s4.1-7.8 9.5-7.8c7.5 0 10.1 3.2 10.9 7.5.3 1.2 1.2 1.7 2 1.7h4.9c1.2 0 2-.9 2-2v-.3c-1.2-7.2-5.8-12.4-15.3-13.8v-7c0-1.2-.9-2-2.3-2.3h-4.3c-1.2 0-2 .9-2.3 2.3v7c-8.5 1.3-14.3 7.4-14.3 15.2z" class="st5"/><path d="M527.6 689.7c-22.5 8-34 33.2-25.7 55.3 4.3 12.1 13.8 21.3 25.7 25.7 1.2.6 1.7 1.4 1.7 2.9v4.1c0 1.2-.6 2-1.7 2.3-.3 0-.9 0-1.2-.3-27.4-8.7-42.4-37.8-33.7-65.2 5.1-16.2 17.6-28.6 33.7-33.7 1.2-.6 2.3 0 2.6 1.2.3.3.3.6.3 1.2v4.1c0 .7-.8 1.9-1.7 2.4zm30.5 90c-1.2.6-2.3 0-2.6-1.2-.3-.3-.3-.6-.3-1.2v-4.1c0-1.2.9-2.3 1.7-2.9 22.5-8 34-33.2 25.7-55.3-4.3-12.1-13.8-21.3-25.7-25.7-1.2-.6-1.7-1.4-1.7-2.9v-4.1c0-1.2.6-2 1.7-2.3.3 0 .9 0 1.2.3 27.4 8.7 42.4 37.8 33.7 65.2-5.1 16.7-17.7 29.1-33.7 34.2z" class="st5"/><path d="M542.3 660.9c38.3 0 69.3 30.9 69.3 69.3s-30.9 69.3-69.3 69.3-69.3-30.9-69.3-69.4 31-69.2 69.3-69.2z" class="st5"/><path d="M542.3 663.7c36.7 0 66.4 29.6 66.4 66.4s-29.6 66.4-66.4 66.4-66.4-29.6-66.4-66.4 29.7-66.4 66.4-66.4z" class="st42"/><path d="M522.7 719.9c0 10.1 6.1 13.6 18.2 15 8.7 1.2 10.4 3.4 10.4 7.5s-2.9 6.6-8.7 6.6c-5.1 0-8-1.7-9.5-6.1-.3-.9-1.2-1.4-2-1.4h-4.6c-1.2 0-2 .9-2 2v.3c1.2 6.3 6.3 11.2 13 11.9v6.9c0 1.2.9 2 2.3 2.3h4.3c1.2 0 2-.9 2.3-2.3V756c8.7-1.2 14.1-7 14.1-14.1 0-9.5-5.8-13.3-17.9-14.7-8-1.4-10.7-3.2-10.7-7.8s4.1-7.8 9.5-7.8c7.5 0 10.1 3.2 10.9 7.5.3 1.2 1.2 1.7 2 1.7h4.9c1.2 0 2-.9 2-2v-.3c-1.2-7.2-5.8-12.4-15.3-13.8v-7c0-1.2-.9-2-2.3-2.3h-4.3c-1.2 0-2 .9-2.3 2.3v7c-8.5 1.3-14.3 7.4-14.3 15.2z" class="st5"/><path d="M527.6 689.7c-22.5 8-34 33.2-25.7 55.3 4.3 12.1 13.8 21.3 25.7 25.7 1.2.6 1.7 1.4 1.7 2.9v4.1c0 1.2-.6 2-1.7 2.3-.3 0-.9 0-1.2-.3-27.4-8.7-42.4-37.8-33.7-65.2 5.1-16.2 17.6-28.6 33.7-33.7 1.2-.6 2.3 0 2.6 1.2.3.3.3.6.3 1.2v4.1c0 .7-.8 1.9-1.7 2.4zm30.5 90c-1.2.6-2.3 0-2.6-1.2-.3-.3-.3-.6-.3-1.2v-4.1c0-1.2.9-2.3 1.7-2.9 22.5-8 34-33.2 25.7-55.3-4.3-12.1-13.8-21.3-25.7-25.7-1.2-.6-1.7-1.4-1.7-2.9v-4.1c0-1.2.6-2 1.7-2.3.3 0 .9 0 1.2.3 27.4 8.7 42.4 37.8 33.7 65.2-5.1 16.7-17.7 29.1-33.7 34.2zM409.7 676c-38.3 0-69.3-31-69.3-69.3 0-38.2 31-69.3 69.3-69.3s69.3 31 69.3 69.3-31.1 69.3-69.3 69.3z" class="st5"/><path fill="#ed9a21" d="M409.7 673.1c-36.7 0-66.4-29.8-66.4-66.4 0-36.6 29.8-66.4 66.4-66.4s66.4 29.8 66.4 66.4c0 36.7-29.9 66.4-66.4 66.4z"/><path fill="#fdfdfb" d="M410.7 602.1h25.4c.6 0 .8 0 .8.7.2 2.6.2 5.1 0 7.8 0 .6-.2.7-.8.7h-50.5c-.6 0-.8-.2-.8-.8v-7.4c0-1 0-1 1-1h24.9zm23.4 17.8c.1.2.1.4 0 .6-.5.9-1 1.8-1.4 2.6-.9 1.4-1.9 2.7-3.1 3.9-.6.7-1.2 1.4-1.9 1.8-3.6 3.1-8 5.2-12.5 6.3-2.3.6-4.7.7-7.1.7h-22.5c-.6 0-.7-.2-.7-.8v-14.8c0-.6 0-.8.8-.8h48.2s.5.1.6.4l-.4.1zm0-26.5c-.7.1-1.4.1-2.2 0h-46.3c-.6 0-.8 0-.8-.8V578c0-.6 0-.8.8-.8H407c1-.1 2.1 0 3.1.2 3.1.2 6.2.9 9.1 2 1 .4 2.1.8 3.1 1.4h.3c5.1 2.6 9.1 6.8 11.7 11.7-.2.1.1.7-.2.9zm-57.7-23.7v23.2c0 .6 0 .6-.6.6h-9.1c-.6 0-.7 0-.7.6v8h9.7c.6 0 .7 0 .7.7v7.9c0 .6 0 .6-.6.6h-9.1c-.6 0-.7 0-.7.6v7.3c0 .5 0 .6.6.6h9c.6 0 .8 0 .8.8v22.5c0 .6 0 .8.8.8h31.3c2.3-.1 4.5-.4 6.8-.7 4.6-.8 9.1-2.5 13.1-4.8 2.6-1.5 5.1-3.4 7.3-5.7 1.6-1.7 3.1-3.5 4.4-5.5 1.4-2 2.3-4.2 3.3-6.3.1-.6.6-1 1.3-.9h7.5c1 0 1 0 1-.9v-6.9c0-.6-.2-.8-.9-.8h-5.8c-.6 0-.7 0-.7-.7.2-2.5.2-5.1 0-7.6 0-.7 0-.8.8-.8h6.6c.3-.4 0-.7 0-1.1.1-.6.1-1 0-1.4v-5.1c0-.7-.2-.9-.8-.9h-8c-.6.1-1.1-.2-1.2-.8-1.8-4.9-4.9-9.2-8.8-12.8-1.4-1.3-2.9-2.5-4.4-3.5-1.7-1-3.4-2-5.1-2.7-3.2-1.4-6.4-2.4-9.9-3.1-3.3-.6-6.5-.8-9.8-.8l-28.8-.4z"/><circle cx="542.3" cy="606.7" r="69.3" class="st5"/><circle cx="542.3" cy="606.7" r="66.4" fill="#f1b90c"/><path d="M515.1 573.9h38.5V589h-38.5z" class="st5" transform="rotate(-45.001 534.39 581.45)"/><path d="M502.3 598.4h15.1v15.1h-15.1z" class="st5" transform="rotate(-45.001 509.866 605.96)"/><path d="M511.5 598h61.6v15.1h-61.6z" class="st5" transform="rotate(-45.001 542.307 605.59)"/><path d="M527.6 614.5h61.6v15.1h-61.6z" class="st5" transform="rotate(-45.001 558.422 622.061)"/></svg>