<svg xmlns="http://www.w3.org/2000/svg" viewBox="0 0 3840 616"><path fill="#fff" fill-rule="nonzero" d="M3840 615.33V0c-184.38 0-345.45 99.73-432.24 248.19-55.39-21.13-115.5-32.71-178.31-32.71-109.68 0-211.11 35.3-293.57 95.15-42.15-76.04-123.16-127.55-216.26-127.55-76.78 0-145.37 35-190.71 89.92-66.38-103.59-182.43-172.31-314.61-172.31-157.48 0-292.11 97.52-347.02 235.43-54.91-40.93-122.99-65.16-196.74-65.16-117.87 0-221.22 61.92-279.45 154.98-44.05-40.73-102.93-65.64-167.66-65.64-76.78 0-145.37 35.01-190.71 89.93-66.384-103.59-182.434-172.32-314.608-172.32-89.001 0-170.695 31.16-234.833 83.14a544.064 544.064 0 0 0-13.216-32.5C399.985 136.84 215.974 0 0 0v615.33h3840Z"/></svg>