<svg xmlns="http://www.w3.org/2000/svg" viewBox="0 0 1440 209"><path fill="#fff" d="M0 209.562h1440v-210c-81.95 6.078-150.55 60.072-177.85 134.082-24.06-19.493-54.69-31.175-88.07-31.175-49.56 0-93.08 25.77-117.98 64.618-17-20.595-42.72-33.722-71.511-33.722-24.273 0-46.355 9.338-62.872 24.612-21.836-34.897-60.592-58.116-104.794-58.116-27.655 0-53.186 9.087-73.777 24.434C722.552 72.58 672.068 36.01 613.011 36.01c-49.565 0-93.083 25.77-117.978 64.618-17-20.595-42.724-33.723-71.515-33.723-35.759 0-66.766 20.263-82.224 49.92a70.024 70.024 0 0 0-18.702-2.546c-22.832 0-43.107 10.932-55.891 27.842-26.048-29.679-64.235-48.44-106.827-48.44-54.955 0-102.59 31.213-126.237 76.858C24.292 161.186 12.816 153.964 0 149.66v59.902Z"/></svg>