<svg xmlns="http://www.w3.org/2000/svg" viewBox="0 0 216 216"><path fill="#3C4144" d="M154.826 155.34c26.381-26.381 26.381-69.153 0-95.534-26.381-26.38-69.153-26.38-95.534 0-26.38 26.381-26.38 69.153 0 95.534 26.381 26.381 69.153 26.381 95.534 0Z"/><path fill="#3C4144" d="M104.085 56.091c-10.143 1.002-16.442 5.055-24.479 10.99-6.748 4.986-12.393 12.111-19.492 16.095-4.84 2.717-11.974 6.887-18.463 7.573a67.482 67.482 0 0 0-2.1 13.762c14.027-6.18 32.317-14.098 40.62-26.638C85.519 69.8 92.33 65.875 101.819 63.81c8.184-1.781 15.684.296 23.926-.013 9.547-.357 17.403-3.081 25.943-6.633a67.736 67.736 0 0 0-10.199-7.432c-3.894 2.675-11.992 5.183-13.831 5.477-7.597 1.217-15.907.125-23.572.882Zm26.198 58.327c-17.351 7.921-35.127 13.714-52.995 20.12-8.82 3.162-17.867 7.418-27.028 9.936a67.752 67.752 0 0 0 5.166 6.961c5.881-3.682 12.858-6.725 19.218-8.763 14.232-4.561 27.882-10.05 42.051-14.968 12.932-4.489 25.744-9.716 38.411-14.962a1171.308 1171.308 0 0 1 16.714-6.789c.839-.333 1.742-.774 2.679-1.234a67.539 67.539 0 0 0-1.475-11.309c-11.797 10.021-29.448 14.939-42.741 21.008Zm12.424 32.142c-10.783 5.602-22.494 9.271-33.511 13.903-5.018 2.109-9.445 4.823-13.812 8.137-1.201.912-3.558 2.878-4.972 4.729a67.348 67.348 0 0 0 7.67 1.47c1.853-1.545 3.574-3.374 5.198-4.375 4.554-2.81 9.945-4.258 14.742-6.901 11.709-6.45 24.121-11.063 36.026-17.337 3.765-1.984 8.185-5.084 12.456-6.307a67.187 67.187 0 0 0 4.703-10.939c-.917.315-1.754.61-2.402.915-9.253 4.365-16.907 11.93-26.098 16.705Zm4.658-24.152c-6.498 3.472-13.087 4.872-19.788 7.552-8.025 3.208-15.835 7.027-24.273 8.985-10.674 2.478-19.883 7.751-30.031 11.763-3.29 1.3-7.835 4.105-12.421 6.435a67.705 67.705 0 0 0 15.71 11.002c3.307-2.22 9.11-4.193 12.001-5.756 8.164-4.411 16.68-8.047 24.759-12.544 12.104-6.736 23.994-13.562 36.671-19.083 5.91-2.574 11.756-5.444 17.886-7.445 1.053-.344 3.152-1.081 5.261-1.582a67.8 67.8 0 0 0 1.423-12.986c-1.613.889-3.162 1.679-4.319 2.318-7.443 4.117-15.357 7.323-22.879 11.341Zm11.026 27.935c-5.618 2.867-11.233 5.719-16.809 8.774-9.061 4.966-17.606 10.263-26.152 15.752 18.116-2.249 34.008-11.67 44.744-25.336-.614.252-1.211.518-1.783.81Zm-45.699-39.515c13.918-3.231 25.874-9.668 38.538-16.208 3.21-1.658 12.207-7.022 19.577-9.066a67.457 67.457 0 0 0-11.563-20.568c-4.335 1.373-8.922 2.4-12.549 4.126-11.244 5.352-13.846 16.148-19.844 26.415-4.637 7.935-12.163 14.568-21.86 13.147-8.657-1.269-15.66-5.88-24.83-4.985-11.489 1.122-22.863 7.469-32.963 12.691-1.73.894-4.038 2.318-6.596 3.824a67.06 67.06 0 0 0 4.282 14.173c7.177-3.9 15.605-5.427 23.39-7.685 15.054-4.367 29.151-12.318 44.418-15.864Z"/><path fill="#3C4144" d="M45.732 79.762c9.563-1.548 16.158-2.664 22.53-10.525 13.4-16.533 33.107-18.019 53.048-18.132 3.077-.018 8.762-3.03 13.673-4.778-8.521-3.88-17.989-6.043-27.962-6.043-27.302 0-50.818 16.198-61.47 39.506l.181-.028Zm108.959-19.951c-1.11-.885-19.899 7.13-21.165 7.455-10.381 2.67-20.492-1.2-30.827 1.858-7.628 2.257-12.132 7.486-17.085 13.464-1.502 1.813-2.51 4.04-4.094 5.874-2.925 3.386-7.462 5.78-11.186 8.196-2.362 1.532-4.911 2.112-7.45 3.188-3.133 1.329-6.142 3.071-9.251 4.492-3.818 1.745-8.827 4.018-11.972 6.044l-1.41.605c-2.292 4.139 4.915.552 6.453-.207 4.383-2.159 8.798-4.506 13.443-6.19 4.525-1.641 8.734-3.391 13.014-5.58 3.218-1.646 6.5-3.236 9.743-4.79 1.98-.95 4.24-2.098 6.508-1.78 4.193.59 6.463 4.81 10.835 5.048 4.201.228 6.696-1.446 9.06-4.678 2.104-2.876 3.509-5.716 1.115-8.598-2.561-3.083-4.845-4.404-8.917-3.25-3.128.886-7.178 5.075-3.581 7.817.832.635 3.584 1.565 4.386.408.899-1.295-1.744-2.739 1.004-3.39 1.667-.394 3.344.993 3.228 2.624-.117 1.653-1.793 2.65-3.027 3.465-2.924 1.93-6.67 1.499-9.015-1.299-5.742-6.85.8-13.835 7.605-16.219 7.807-2.735 16.7-.337 24.737-2.016 3.489-.728 6.954-2.001 10.315-3.121 1.207-.403 19.53-7.827 17.534-9.42Z"/><path fill="#3C4144" d="M125.33 82.367c-.807-3.336-3.833-4.805-6.906-5.224-1.734-.236-9.947-.328-6.235 2.771 2.682 2.239 6.598-.383 7.242 4.478.442 3.337-.269 6.694-2.06 9.42-4.145 6.305-12.041 6.452-18.692 4.835-6.954-1.69-14.716-2.405-21.267.605-7.311 3.358-14.804 6.993-22.656 8.556-1.593.318-8.635.627-9.272 2.167-1.3 3.138 36.472-10.472 36.472-10.472 4.084-1.177 9.252-.444 13.5.856 4.28 1.31 9.601 3.207 14.102 2.972 9.153-.478 18.031-11.621 15.772-20.965Zm45.076 7.466c-1.967-.82-6.999 2.374-8.506 3.57-3.833 3.042-8.271 5.427-12.874 7.299-18.284 7.434-35.409 19.123-54.97 23.029-6.062 1.211-11.923 3.4-17.892 4.987-4.333 1.151-8.51 2.651-12.737 4.084-5.05 1.713-10.074 3.516-15.117 5.184l.404 1.41c.324.385.745.053 1.46-.151 3.21-.919 6.159-2.29 9.42-3.067 4.803-1.145 9.622-2.747 14.304-4.438 8.009-2.893 16.327-4.985 24.38-6.806 7.431-1.68 13.573-5.612 20.55-8.306 3.801-1.467 7.34-3.436 11.081-5.193 5.05-2.371 10.573-4.015 15.476-6.649 6.226-3.344 12.531-6.566 18.934-9.763 1.22-.61 9.172-3.905 6.087-5.19Zm-28.561 38.123c-15.439 5.12-30.718 10.915-45.842 17.032-7.246 2.93-14.762 5.171-21.663 8.768-1.717.895-3.632 1.604-4.724 3.315-.957 1.498-.478 2.906-.554 4.085l2.619 3.424c.984 2.631 5.676-.21 7.007-1.264 4.272-3.384 9.103-6.986 14.087-9.369 3.934-1.881 8.329-2.596 12.184-4.669 4.779-2.57 9.3-5.76 14.05-8.438 6.074-3.423 12.669-5.856 19.028-8.688 1.719-.765 32.952-13.857 32.771-15.926-2.421.736-26.491 10.91-28.963 11.73Z"/><path fill="#fff" d="M165.551 166.084c31.982-31.982 31.982-83.835 0-115.817-31.982-31.981-83.835-31.981-115.816 0-31.982 31.982-31.982 83.835 0 115.817 31.981 31.982 83.834 31.982 115.816 0Z" opacity=".2"/><path fill="#fff" d="M183.476 184.009c41.881-41.881 41.881-109.785 0-151.667C141.594-9.54 73.69-9.54 31.808 32.342c-41.881 41.882-41.881 109.786 0 151.667 41.882 41.882 109.786 41.882 151.668 0Z" opacity=".15"/><path fill="#099291" d="M154.826 155.34c26.381-26.381 26.381-69.153 0-95.534-26.381-26.38-69.153-26.38-95.534 0-26.38 26.381-26.38 69.153 0 95.534 26.381 26.381 69.153 26.381 95.534 0Z" opacity=".4"/><g fill="#4AC3C9" opacity=".4"><path d="M104.085 56.091c-10.143 1.002-16.442 5.055-24.479 10.99-6.748 4.986-12.393 12.111-19.492 16.095-4.84 2.717-11.974 6.887-18.463 7.573a67.482 67.482 0 0 0-2.1 13.762c14.027-6.18 32.317-14.098 40.62-26.638C85.519 69.8 92.33 65.875 101.819 63.81c8.184-1.781 15.684.296 23.926-.013 9.547-.357 17.403-3.081 25.943-6.633a67.736 67.736 0 0 0-10.199-7.432c-3.894 2.675-11.992 5.183-13.831 5.477-7.597 1.217-15.907.125-23.572.882Zm26.198 58.327c-17.351 7.921-35.127 13.714-52.995 20.12-8.82 3.162-17.867 7.418-27.028 9.936a67.752 67.752 0 0 0 5.166 6.961c5.881-3.682 12.858-6.725 19.218-8.763 14.232-4.561 27.882-10.05 42.051-14.968 12.932-4.489 25.744-9.716 38.411-14.962a1171.308 1171.308 0 0 1 16.714-6.789c.839-.333 1.742-.774 2.679-1.234a67.539 67.539 0 0 0-1.475-11.309c-11.797 10.021-29.448 14.939-42.741 21.008Zm12.424 32.142c-10.783 5.602-22.494 9.271-33.511 13.903-5.018 2.109-9.445 4.823-13.812 8.137-1.201.912-3.558 2.878-4.972 4.729a67.348 67.348 0 0 0 7.67 1.47c1.853-1.545 3.574-3.374 5.198-4.375 4.554-2.81 9.945-4.258 14.742-6.901 11.709-6.45 24.121-11.063 36.026-17.337 3.765-1.984 8.185-5.084 12.456-6.307a67.187 67.187 0 0 0 4.703-10.939c-.917.315-1.754.61-2.402.915-9.253 4.365-16.907 11.93-26.098 16.705Zm4.658-24.152c-6.498 3.472-13.087 4.872-19.788 7.552-8.025 3.208-15.835 7.027-24.273 8.985-10.674 2.478-19.883 7.751-30.031 11.763-3.29 1.3-7.835 4.105-12.421 6.435a67.705 67.705 0 0 0 15.71 11.002c3.307-2.22 9.11-4.193 12.001-5.756 8.164-4.411 16.68-8.047 24.759-12.544 12.104-6.736 23.994-13.562 36.671-19.083 5.91-2.574 11.756-5.444 17.886-7.445 1.053-.344 3.152-1.081 5.261-1.582a67.8 67.8 0 0 0 1.423-12.986c-1.613.889-3.162 1.679-4.319 2.318-7.443 4.117-15.357 7.323-22.879 11.341Zm11.026 27.935c-5.618 2.867-11.233 5.719-16.809 8.774-9.061 4.966-17.606 10.263-26.152 15.752 18.116-2.249 34.008-11.67 44.744-25.336-.614.252-1.211.518-1.783.81Zm-45.699-39.515c13.918-3.231 25.874-9.668 38.538-16.208 3.21-1.658 12.207-7.022 19.577-9.066a67.457 67.457 0 0 0-11.563-20.568c-4.335 1.373-8.922 2.4-12.549 4.126-11.244 5.352-13.846 16.148-19.844 26.415-4.637 7.935-12.163 14.568-21.86 13.147-8.657-1.269-15.66-5.88-24.83-4.985-11.489 1.122-22.863 7.469-32.963 12.691-1.73.894-4.038 2.318-6.596 3.824a67.06 67.06 0 0 0 4.282 14.173c7.177-3.9 15.605-5.427 23.39-7.685 15.054-4.367 29.151-12.318 44.418-15.864Z" opacity=".4"/><path d="M45.732 79.762c9.563-1.548 16.158-2.664 22.53-10.525 13.4-16.533 33.107-18.019 53.048-18.132 3.077-.018 8.762-3.03 13.673-4.778-8.521-3.88-17.989-6.043-27.962-6.043-27.302 0-50.818 16.198-61.47 39.506l.181-.028Z" opacity=".4"/></g><path fill="#6FCCD6" d="M154.691 59.811c-1.11-.885-19.899 7.13-21.165 7.455-10.381 2.67-20.492-1.2-30.827 1.858-7.628 2.257-12.132 7.486-17.085 13.464-1.502 1.813-2.51 4.04-4.094 5.874-2.925 3.386-7.462 5.78-11.186 8.196-2.362 1.532-4.911 2.112-7.45 3.188-3.133 1.329-6.142 3.071-9.251 4.492-3.818 1.745-8.827 4.018-11.972 6.044l-1.41.605c-2.292 4.139 4.915.552 6.453-.207 4.383-2.159 8.798-4.506 13.443-6.19 4.525-1.641 8.734-3.391 13.014-5.58 3.218-1.646 6.5-3.236 9.743-4.79 1.98-.95 4.24-2.098 6.508-1.78 4.193.59 6.463 4.81 10.835 5.048 4.201.228 6.696-1.446 9.06-4.678 2.104-2.876 3.509-5.716 1.115-8.598-2.561-3.083-4.845-4.404-8.917-3.25-3.128.886-7.178 5.075-3.581 7.817.832.635 3.584 1.565 4.386.408.899-1.295-1.744-2.739 1.004-3.39 1.667-.394 3.344.993 3.228 2.624-.117 1.653-1.793 2.65-3.027 3.465-2.924 1.93-6.67 1.499-9.015-1.299-5.742-6.85.8-13.835 7.605-16.219 7.807-2.735 16.7-.337 24.737-2.016 3.489-.728 6.954-2.001 10.315-3.121 1.207-.403 19.53-7.827 17.534-9.42Z" opacity=".4"/><path fill="#6FCCD6" d="M125.33 82.367c-.807-3.336-3.833-4.805-6.906-5.224-1.734-.236-9.947-.328-6.235 2.771 2.682 2.239 6.598-.383 7.242 4.478.442 3.337-.269 6.694-2.06 9.42-4.145 6.305-12.041 6.452-18.692 4.835-6.954-1.69-14.716-2.405-21.267.605-7.311 3.358-14.804 6.993-22.656 8.556-1.593.318-8.635.627-9.272 2.167-1.3 3.138 36.472-10.472 36.472-10.472 4.084-1.177 9.252-.444 13.5.856 4.28 1.31 9.601 3.207 14.102 2.972 9.153-.478 18.031-11.621 15.772-20.965Zm45.076 7.466c-1.967-.82-6.999 2.374-8.506 3.57-3.833 3.042-8.271 5.427-12.874 7.299-18.284 7.434-35.409 19.123-54.97 23.029-6.062 1.211-11.923 3.4-17.892 4.987-4.333 1.151-8.51 2.651-12.737 4.084-5.05 1.713-10.074 3.516-15.117 5.184l.404 1.41c.324.385.745.053 1.46-.151 3.21-.919 6.159-2.29 9.42-3.067 4.803-1.145 9.622-2.747 14.304-4.438 8.009-2.893 16.327-4.985 24.38-6.806 7.431-1.68 13.573-5.612 20.55-8.306 3.801-1.467 7.34-3.436 11.081-5.193 5.05-2.371 10.573-4.015 15.476-6.649 6.226-3.344 12.531-6.566 18.934-9.763 1.22-.61 9.172-3.905 6.087-5.19Z" opacity=".4"/><path fill="#6FCCD6" d="M141.845 127.956c-15.439 5.12-30.718 10.915-45.842 17.032-7.246 2.93-14.762 5.171-21.663 8.768-1.717.895-3.632 1.604-4.724 3.315-.957 1.498-.478 2.906-.554 4.085l2.619 3.424c.984 2.631 5.676-.21 7.007-1.264 4.272-3.384 9.103-6.986 14.087-9.369 3.934-1.881 8.329-2.596 12.184-4.669 4.779-2.57 9.3-5.76 14.05-8.438 6.074-3.423 12.669-5.856 19.028-8.688 1.719-.765 32.952-13.857 32.771-15.926-2.421.736-26.491 10.91-28.963 11.73Z" opacity=".2"/></svg>