<svg xmlns="http://www.w3.org/2000/svg" viewBox="0 0 143 94"><path fill="#111110" fill-rule="nonzero" d="M104.624 80.007c18.303-18.303 18.303-47.978.001-66.28-18.303-18.303-47.978-18.303-66.28 0-18.303 18.302-18.303 47.977 0 66.28 18.302 18.302 47.977 18.302 66.279 0Z"/><path fill="#111110" fill-opacity=".75" fill-rule="nonzero" d="M117.451 37.84c.027.138.072.268.098.406.345 1.846.545 3.684.669 5.513-.202.254-.431.485-.638.736 8.753 5.92 13.513 12.063 12.215 17.173-2.731 10.76-31.053 12.855-63.259 4.68s-56.1-23.524-53.368-34.284c1.263-4.977 8.045-8.073 18.11-9.184 1.237-2.071 2.676-4.01 4.213-5.87C16.085 16.667 2.303 20.738.26 28.788c-3.336 13.141 25.847 31.888 65.182 41.873 39.334 9.984 73.926 7.425 77.261-5.716 2.04-8.035-8.091-18.163-25.252-27.105Z"/><g fill-rule="nonzero" opacity=".9"><path fill="#eadda7" fill-opacity=".9" d="M104.624 80.007c18.303-18.303 18.303-47.978.001-66.28-18.303-18.303-47.978-18.303-66.28 0-18.303 18.302-18.303 47.977 0 66.28 18.302 18.302 47.977 18.302 66.279 0Z"/><path fill="#ead88b" fill-opacity=".9" d="M24.829 42.792C30.31 61.22 48.94 72.901 68.255 69.286c20.642-3.862 34.244-23.727 30.382-44.369-1.783-9.527-7-17.522-14.104-23.025 16.432 4.784 29.653 18.382 33.016 36.354 4.761 25.443-12.005 49.927-37.447 54.688-25.442 4.761-49.926-12.005-54.687-37.447-.803-4.293-.946-8.548-.586-12.695Z"/><path fill="#bf9dae" fill-opacity=".1" d="M37.503 23.125c-15.25 26.794 29.961 41.437 38.881 7.225 8.137-31.21-24.838-31.9-38.881-7.225Z"/><path fill="#f4f2e9" fill-opacity=".3" d="M49.853 76.922c.908.027 1.741.017 2.578.006.833.001 1.703-.026 2.586-.063 1.758-.059 3.545-.17 5.352-.322 3.613-.293 7.303-.732 11.004-1.246 7.399-1.053 14.867-2.276 21.946-3.256 6.676-.926 13.007-1.542 18.597-1.555a47.21 47.21 0 0 1-2.793 4.218c-4.557.524-9.58 1.439-14.883 2.587-6.877 1.466-14.21 3.324-21.712 4.805-3.749.752-7.535 1.438-11.314 1.975-1.888.274-3.776.506-5.656.683-.935.095-1.874.183-2.838.24a69.14 69.14 0 0 1-2.776.161c-1.814.06-3.579.097-5.308.104a46.988 46.988 0 0 1-10.027-9.499c1.712.236 3.482.452 5.361.606 3.11.263 6.477.478 9.883.556ZM32.858 46.981c2.334-.343 4.971-.689 7.852-1.025 2.879-.343 6.005-.658 9.313-.944 3.309-.286 6.806-.511 10.424-.692l5.516-.194 5.657-.055 5.75.107c1.927.069 3.862.196 5.793.292 3.867.286 7.735.684 11.435 1.143 3.736.447 7.417.91 10.966 1.398l10.213 1.475c.887.131 1.642.201 2.5.319a45.758 45.758 0 0 1-.143 2.134c-.865-.048-1.709-.087-2.599-.145l-10.272-.632a638.899 638.899 0 0 0-10.975-.492 229.137 229.137 0 0 0-11.259-.199c-1.878.061-3.752.091-5.619.178l-5.57.353-5.474.504-5.33.628c-3.495.465-6.865.961-10.052 1.501a282.95 282.95 0 0 0-8.952 1.659 260.401 260.401 0 0 0-7.516 1.615c-2.23.503-4.164.982-5.749 1.38l-2.747.719c-.205-.839-.444-1.662-.605-2.521-.452-2.416-.651-4.816-.726-7.198l2.121-.372c1.678-.278 3.711-.608 6.048-.936ZM64.562 3.877c1.478.685 2.997 1.343 4.476 2.069l4.418 2.237 8.642 4.599c2.833 1.535 5.623 2.943 8.331 4.299 2.729 1.276 5.346 2.551 7.901 3.519 1.274.491 2.479 1.07 3.703 1.446l3.51 1.164 1.647.548c.537.157 1.062.268 1.572.4l2.892.722c.499.114.936.21 1.387.325 1.565 3.006 2.79 6.234 3.688 9.625-3.833.094-7.832.118-11.977.058-2.256-.02-4.551-.132-6.871-.196-2.32-.086-4.668-.253-7.033-.379-2.364-.159-4.744-.388-7.132-.581l-7.102-.723c-9.508-1.028-18.923-2.316-27.732-3.287a245.66 245.66 0 0 0-12.686-1.08 199.9 199.9 0 0 0-7.805-.192c.471-1.101 1.011-2.166 1.564-3.225 2.038-.091 4.142-.152 6.32-.191 4.124-.013 8.474.075 12.947.293 4.472.213 9.082.494 13.744.778l14.111.794 7.087.329c2.335.059 4.656.155 6.963.184 2.308-.005 4.594.032 6.855-.008l.356-.007c-.827-.399-1.652-.839-2.512-1.248-2.624-1.234-5.238-2.759-7.96-4.295-2.667-1.597-5.423-3.262-8.133-5.008l-8.237-5.219-4.155-2.515c-1.389-.818-2.802-1.56-4.191-2.337-1.378-.807-2.81-1.443-4.211-2.119-1.261-.599-2.504-1.194-3.773-1.677a46.754 46.754 0 0 1 3.968-1.285c.31.121.62.212.932.332 1.493.585 3.031 1.137 4.496 1.851Z" opacity=".3"/><path fill="#bfac5c" fill-opacity=".75" d="M117.451 37.84c.027.138.072.268.098.406.345 1.846.545 3.684.669 5.513-.202.254-.431.485-.638.736 8.753 5.92 13.513 12.063 12.215 17.173-2.731 10.76-31.053 12.855-63.259 4.68s-56.1-23.524-53.368-34.284c1.263-4.977 8.045-8.073 18.11-9.184 1.237-2.071 2.676-4.01 4.213-5.87C16.085 16.667 2.303 20.738.26 28.788c-3.336 13.141 25.847 31.888 65.182 41.873 39.334 9.984 73.926 7.425 77.261-5.716 2.04-8.035-8.091-18.163-25.252-27.105Z"/></g></svg>