<svg xmlns="http://www.w3.org/2000/svg" viewBox="0 0 530 672"><g clip-path="url(#a)"><path fill="url(#b)" d="M422.224 723.266c-1.325-10.914-9.068-25.674-17.293-32.968h-.001c-8.225-7.294-15.968-22.054-17.294-32.968h.001c-1.326-10.913-9.069-25.673-17.294-32.967l-.001-.001c-8.225-7.294-15.967-22.054-17.293-32.967-1.326-10.914-9.069-25.673-17.294-32.968-8.226-7.294-15.968-22.054-17.294-32.967v-.001c-1.326-10.913-9.069-25.673-17.294-32.967-8.225-7.295-15.968-22.054-17.294-32.968-1.326-10.914-9.068-25.674-17.294-32.968-8.225-7.294-15.968-22.054-17.294-32.967v-.001c-1.325-10.913-9.068-25.673-17.294-32.967-8.225-7.294-15.968-22.054-17.293-32.968h-.001c-1.169-9.627-7.334-22.231-14.416-30.079l-54.988 28.845c7.082 7.848 13.247 20.452 14.417 30.079 1.326 10.913 9.069 25.673 17.294 32.967v.001c8.225 7.294 15.968 22.053 17.294 32.967 1.325 10.914 9.068 25.674 17.294 32.968 8.225 7.294 15.968 22.054 17.294 32.967v.001c1.325 10.913 9.068 25.673 17.294 32.967l-.001.001c8.226 7.294 15.969 22.054 17.294 32.967 1.326 10.914 9.069 25.674 17.294 32.968 8.226 7.294 15.968 22.054 17.294 32.968 1.326 10.913 9.069 25.673 17.294 32.967 8.226 7.295 15.968 22.055 17.294 32.968 1.326 10.914 9.068 25.674 17.294 32.968 8.225 7.294 15.968 22.054 17.294 32.967v.001c1.325 10.913 9.068 25.673 17.294 32.967l12.049 10.685 54.987-28.845-12.049-10.685c-8.225-7.294-15.968-22.054-17.294-32.967Z"/><path fill="url(#c)" d="M345.72 763.397c-1.325-10.914-9.068-25.674-17.293-32.968h-.001c-8.225-7.294-15.968-22.054-17.293-32.968-1.326-10.913-9.069-25.673-17.294-32.967v-.001c-8.226-7.294-15.968-22.054-17.294-32.967-1.326-10.914-9.069-25.674-17.294-32.968-8.226-7.294-15.968-22.054-17.294-32.968-1.326-10.913-9.068-25.673-17.294-32.967v-.001c-8.225-7.294-15.968-22.054-17.294-32.967-1.326-10.914-9.068-25.674-17.294-32.968-8.225-7.294-15.968-22.054-17.294-32.968-1.325-10.913-9.068-25.673-17.293-32.967h-.001c-8.225-7.295-15.967-22.055-17.293-32.968-1.17-9.627-7.335-22.231-14.417-30.079L68.789 366.55c7.083 7.848 13.248 20.452 14.417 30.079 1.326 10.913 9.069 25.673 17.294 32.967 8.225 7.294 15.968 22.054 17.294 32.968 1.326 10.914 9.068 25.674 17.294 32.968 8.225 7.294 15.968 22.054 17.294 32.967v.001c1.325 10.913 9.068 25.673 17.294 32.967 8.225 7.294 15.968 22.055 17.293 32.968 1.326 10.914 9.069 25.674 17.294 32.968 8.226 7.294 15.969 22.054 17.294 32.968 1.326 10.913 9.069 25.673 17.294 32.967 8.226 7.295 15.968 22.055 17.294 32.968 1.326 10.914 9.069 25.673 17.294 32.968 8.225 7.294 15.968 22.054 17.294 32.967v.001c1.326 10.913 9.068 25.673 17.294 32.967l12.049 10.685 54.987-28.845-12.049-10.685c-8.225-7.294-15.968-22.054-17.294-32.967Z"/><path fill="url(#d)" d="M517.991 715.068c-8.226-7.294-15.968-22.054-17.294-32.967-1.326-10.914-9.068-25.674-17.294-32.968-8.225-7.294-15.968-22.054-17.294-32.968-1.325-10.913-9.068-25.673-17.294-32.967v-.001c-8.225-7.294-15.968-22.054-17.294-32.967-1.325-10.914-9.068-25.673-17.293-32.968-8.226-7.294-15.969-22.054-17.294-32.967v-.001c-1.326-10.913-9.069-25.673-17.294-32.967-8.226-7.294-15.969-22.054-17.294-32.968-1.326-10.914-9.069-25.674-17.294-32.968-8.225-7.294-15.968-22.054-17.294-32.967v-.001c-1.326-10.913-9.068-25.673-17.294-32.967-8.225-7.294-15.968-22.054-17.294-32.968-1.169-9.627-7.334-22.231-14.417-30.079l-54.987 28.845c7.082 7.848 13.247 20.452 14.417 30.079 1.325 10.913 9.068 25.673 17.294 32.967v.001c8.225 7.294 15.968 22.054 17.294 32.967 1.325 10.914 9.068 25.674 17.293 32.968 8.226 7.294 15.969 22.054 17.294 32.967v.001c1.326 10.913 9.069 25.673 17.294 32.967v.001c8.226 7.294 15.968 22.054 17.294 32.967 1.326 10.914 9.069 25.674 17.294 32.968 8.225 7.294 15.968 22.054 17.294 32.968 1.326 10.913 9.068 25.673 17.294 32.967 8.225 7.295 15.968 22.055 17.294 32.968 1.325 10.914 9.068 25.674 17.294 32.968 8.225 7.294 15.968 22.054 17.293 32.967l.001.001c1.325 10.913 9.068 25.673 17.293 32.967l12.049 10.685 54.988-28.845-12.049-10.685Z"/><path fill="#F3C70D" d="m81.326 368.935 89.996 133.238 4.651-2.44-58.465-149.778-36.182 18.98Z" opacity=".3"/><path fill="#F3C70D" d="m159.373 330.002 89.996 133.237 4.651-2.439-58.465-149.779-36.182 18.981Z" opacity=".45"/><path fill="#F3C70D" d="m273.203 268.282-36.182 18.98L327.018 420.5l4.651-2.44-58.466-149.778Z" opacity=".3"/><path fill="url(#e)" d="M74.336 44.135a81.203 81.203 0 0 0-46.15-39.287L13.207-.162A4.612 4.612 0 0 0 7.32 2.907L2.843 18.074a81.203 81.203 0 0 0 5.97 60.714l8.093 15.428 65.639-34.433-8.209-15.648Z"/><path fill="url(#f)" d="M28.185 4.847 24.037 3.46a81.163 81.163 0 0 1 15.864 21.02c4.534 8.642 1.203 19.323-7.44 23.857L2.803 63.895a81.17 81.17 0 0 0 6.01 14.893l8.093 15.427 65.64-34.432-8.21-15.649a81.201 81.201 0 0 0-46.15-39.287Z"/><path fill="url(#g)" d="M47.448 149.044 17.896 263.828a86.441 86.441 0 0 0 7.163 61.707l10.582 20.172c3.654 6.967 12.264 9.652 19.231 5.998l77.547-40.679-84.97-161.982Z"/><path fill="url(#h)" d="m278.808 218.148-10.582-20.172a86.443 86.443 0 0 0-46.697-40.968l-111.236-40.931 84.971 161.982 77.547-40.679c6.966-3.655 9.652-12.265 5.997-19.232Z"/><path fill="url(#i)" d="m47.448 149.044-23.264 90.361 55.415-29.07-32.151-61.291Z"/><path fill="url(#j)" d="m88.447 227.2-70.653 37.062a86.492 86.492 0 0 0-2.582 23.651l82.407-43.228-9.172-17.485Z"/><path fill="url(#k)" d="m110.293 116.077 32.151 61.291 55.416-29.069-87.567-32.222Z"/><path fill="url(#l)" d="m221.943 157.172-70.652 37.062 9.172 17.485 82.406-43.228a86.467 86.467 0 0 0-20.926-11.319Z"/><path fill="url(#m)" d="M170.153 162.834C138.002 101.543 72.886 41.368 72.886 41.368L7.245 75.801s6.898 77.122 44.647 149.069c15.91 30.323 88.425 104.608 88.425 104.608l65.639-34.432s-19.897-101.888-35.804-132.212Z"/><path fill="url(#n)" d="M75.541 212.465c-37.749-71.947-44.647-149.07-44.647-149.07L7.246 75.802s6.898 77.122 44.647 149.069c15.91 30.323 88.425 104.608 88.425 104.608l23.648-12.405s-72.515-74.285-88.425-104.608Z"/><path fill="url(#o)" d="M210.289 292.773a9.315 9.315 0 0 0-12.577-3.923l-57.806 30.323a9.317 9.317 0 0 0 8.656 16.5l57.805-30.323c4.556-2.39 6.313-8.021 3.922-12.577Z"/><path fill="url(#p)" d="M104.086 298.869c-8.072-15.388-27.09-21.319-42.48-13.247-15.388 8.072-21.319 27.091-13.247 42.48l20.288 38.675 55.727-29.232-20.288-38.676Z"/><path fill="url(#q)" d="M104.087 298.869c-8.072-15.389-27.09-21.319-42.48-13.247-.194.102-.369.226-.56.331 9.182 1.688 17.53 7.399 22.203 16.308l20.288 38.675-37.991 19.929 3.101 5.912 55.727-29.232-20.288-38.676Z"/><path fill="url(#r)" d="M260.071 217.045c-8.073-15.389-27.092-21.32-42.48-13.247-15.389 8.072-21.32 27.091-13.247 42.48l20.288 38.675 55.727-29.233-20.288-38.675Z"/><path fill="url(#s)" d="M260.072 217.045c-8.073-15.389-27.092-21.32-42.48-13.247-.195.102-.369.226-.561.331 9.183 1.687 17.53 7.399 22.203 16.308l20.288 38.675-37.991 19.929 3.102 5.912 55.727-29.233-20.288-38.675Z"/><path fill="url(#t)" d="M96.532 211.535c25.064 0 45.383-20.318 45.383-45.383s-20.319-45.383-45.383-45.383c-25.065 0-45.384 20.318-45.384 45.383s20.32 45.383 45.384 45.383Z"/><path fill="url(#u)" d="M91.347 182.773Z"/><path fill="url(#v)" d="M104.584 136.081Z"/><path fill="url(#w)" d="M100.092 134.926Z"/><path fill="url(#x)" d="M102.381 135.398Z"/><path fill="url(#y)" d="M118.486 161.219Z"/><path fill="url(#z)" d="M93.359 182.276Z"/><path fill="url(#A)" d="m118.944 158.705-.01.1.01-.1Z"/><path fill="url(#B)" d="M115.968 166.74Z"/><path fill="url(#C)" d="M89.422 183.093Z"/><path fill="url(#D)" d="M67.424 156.662Z"/><path fill="url(#E)" d="M70.602 148.972Z"/><path fill="url(#F)" d="M110.541 172.725Z"/><path fill="url(#G)" d="M87.334 199.403c.173-.75.388-1.508.636-2.269-.613-1.045-1.566-3.096-1.814-6.082a.197.197 0 0 0 .01.018c-.06-.649.35-1.508 1.15-2.509-5.651-.705-10.985-2.955-15.29-6.613-4.41 2.191-9.836.679-12.442-3.604-2.723-4.477-1.34-10.299 3.077-13.083-1.853-11.667 3.759-24.163 15.06-31.037 11.3-6.874 24.977-6.11 34.485.899 4.504-2.642 10.309-1.193 13.032 3.284 2.606 4.284 1.453 9.798-2.52 12.705 1.557 6.757.52 13.913-2.739 20.186 1.414-.133 2.448.005 2.991.444l-.001-.001c2.687 2.207 3.801 4.48 4.171 5.408.145.046.285.098.428.147l.05-.058.127.118c.179.063.363.12.539.186 2.377.894 4.451 2.094 5.982 3.653a41.675 41.675 0 0 0 1.853-5.507 41.434 41.434 0 0 0 .981-15.866 41.272 41.272 0 0 0-5.119-15.097 41.572 41.572 0 0 0-5.224-7.221 44.007 44.007 0 0 0-2.875-2.88 41.673 41.673 0 0 0-3.114-2.558 41.432 41.432 0 0 0-14.286-6.835 41.469 41.469 0 0 0-12.925-1.264 41.107 41.107 0 0 0-10.58 2.056 41.539 41.539 0 0 0-3.785 1.479c-.787.352-1.568.728-2.341 1.133a41.847 41.847 0 0 0-8.553 5.958 40.61 40.61 0 0 0-3.847 3.985 40.834 40.834 0 0 0-4.805 7.062 41.719 41.719 0 0 0-3.622 9.228 41.916 41.916 0 0 0-.961 4.873 41.427 41.427 0 0 0-.376 5.974 41.094 41.094 0 0 0 3.8 16.874c.297.641.61 1.278.942 1.91a41.276 41.276 0 0 0 11.147 13.382 41.35 41.35 0 0 0 7.633 4.724 41.618 41.618 0 0 0 8.776 3.039c-.314-1.933-.155-4.053.35-6.241Z"/><path fill="url(#H)" d="M71.988 146.915Z"/><path fill="url(#I)" d="M108.953 138.268Z"/><path fill="url(#J)" d="M76.33 142.218Z"/><path fill="url(#K)" d="M111.629 171.76Z"/><path fill="#fff" d="M128.286 177.542c-.176-.066-.361-.123-.54-.186.541.509 2.792 2.673 5.543 6.01l.111-.225c.306-.641.594-1.29.867-1.946-1.53-1.559-3.604-2.759-5.981-3.653Zm-2.317 1.54a60.955 60.955 0 0 0 1.6-1.787c-.142-.048-.283-.1-.427-.147.11.276.157.438.157.438a57.44 57.44 0 0 1-1.33 1.496Zm-34.994 18.591c-1.57.222-2.47.263-2.47.263s-.225-.275-.534-.802a26.7 26.7 0 0 0-.636 2.269c-.504 2.188-.663 4.308-.35 6.241a41.79 41.79 0 0 0 2.858.541c-1.365-4.798-1.826-8.173-1.826-8.173s1.085-.052 2.958-.339Zm30.293-14.008c-8.661 7.551-17.893 11.121-24.342 12.8.956 3.554 1.19 7.024 1.043 10.155a41.087 41.087 0 0 0 11.539-2.2 6.337 6.337 0 0 1-.817-2.541l-.339.178-.046-.087-.281.147-.822-1.566 1.353-.71a1.742 1.742 0 0 1 1.177-1.903l-.024-.042a1.77 1.77 0 0 1 2.244-2.456 2.893 2.893 0 0 1 5.383-.708c.07.135.126.273.173.413l1.292-.678.822 1.567-.369.193.046.087-.252.132a6.25 6.25 0 0 1 1.623 2.111 40.715 40.715 0 0 0 4.655-3.999c.48-.48.946-.97 1.4-1.469.453-.5.893-1.01 1.32-1.529.338-.412.664-.831.985-1.254-2.66-1.662-5.383-3.83-7.763-6.641Z"/><path fill="#fff" d="M92.395 197.448c-.52.09-.995.164-1.42.224-1.872.287-2.957.339-2.957.339s.46 3.375 1.825 8.173c1.15.176 2.31.305 3.474.384.15-2.824-.044-5.953-.922-9.12Zm35.351-20.092-.127-.118-.05.058a60.907 60.907 0 0 1-1.6 1.786c-.439.479-.881.945-1.326 1.399 2.11 2.541 4.574 4.489 6.983 5.975.472-.794.918-1.601 1.335-2.423.112-.221.22-.444.328-.667-2.751-3.338-5.001-5.501-5.543-6.01Z"/><path fill="#7DAEDA" d="M96.926 196.464a55.436 55.436 0 0 1-4.532.984c.88 3.167 1.073 6.296.922 9.12 1.544.104 3.097.121 4.653.051.147-3.131-.087-6.601-1.043-10.155Zm27.717-15.983a59.23 59.23 0 0 1-3.373 3.184c2.38 2.811 5.102 4.979 7.763 6.641.084-.111.17-.22.252-.332a41.282 41.282 0 0 0 2.228-3.325l.113-.193c-2.409-1.486-4.873-3.434-6.983-5.975Z"/><path fill="#260E43" d="m106.768 185.651.041-.022c18.09-9.489 16.386-13.457 16.162-13.886-.543-.439-1.578-.577-2.991-.444-2.616 5.036-6.66 9.503-11.964 12.729-6.527 3.971-13.847 5.389-20.7 4.534-.8 1.001-1.21 1.859-1.15 2.508.273.497 2.726 3.958 20.602-5.419Zm-9.112-4.929Z"/><path fill="#46739D" d="M90.975 197.673c.425-.06.9-.135 1.42-.224a55.497 55.497 0 0 0 4.531-.985c6.45-1.678 15.681-5.249 24.343-12.799a59.23 59.23 0 0 0 4.699-4.583c.447-.487.891-.983 1.331-1.496 0 0-.048-.162-.158-.438-.37-.927-1.484-3.201-4.171-5.407l.001.001c.224.43 1.928 4.398-16.162 13.887l-.041.022c-17.876 9.377-20.329 5.916-20.602 5.419a.226.226 0 0 1-.01-.018c.248 2.986 1.202 5.037 1.815 6.082.31.527.534.802.534.802s.9-.041 2.47-.263Zm28.433-54.691a27.447 27.447 0 0 1 3.311 8.13c3.973-2.908 5.126-8.422 2.52-12.705-2.723-4.477-8.528-5.926-13.032-3.285a27.487 27.487 0 0 1 7.201 7.86Zm4.909-1.07a1.756 1.756 0 1 1-3 1.826 1.756 1.756 0 0 1 3-1.826Zm-5.028-4.886a1.757 1.757 0 1 1 1.826 3.002 1.757 1.757 0 0 1-1.826-3.002Zm-9.702 1.666c-.208-.147-.422-.285-.636-.424.214.139.428.277.636.424Z"/><path fill="#F3C70D" d="M121.315 143.738a1.756 1.756 0 1 0 3.002-1.824 1.756 1.756 0 0 0-3.002 1.824Zm-.2-3.709a1.757 1.757 0 1 0-1.827-3.002 1.757 1.757 0 0 0 1.827 3.002Z"/><path fill="#46739D" d="M66.33 175.27a27.491 27.491 0 0 1-3.668-10.009c-4.416 2.784-5.8 8.606-3.076 13.083 2.605 4.283 8.032 5.795 12.44 3.604a27.482 27.482 0 0 1-5.696-6.678Zm-5.822-.431a1.757 1.757 0 1 1 3.002-1.826 1.757 1.757 0 0 1-3.002 1.826Zm5.029 4.886a1.757 1.757 0 1 1-1.826-3.002 1.757 1.757 0 0 1 1.826 3.002Z"/><path fill="#F3C70D" d="M63.71 176.723a1.757 1.757 0 1 0 1.825 3.002 1.757 1.757 0 0 0-1.826-3.002Zm-.2-3.711a1.757 1.757 0 1 0-3.002 1.826 1.757 1.757 0 0 0 3.002-1.826Z"/><path fill="#260E43" d="M103.988 177.405a56.85 56.85 0 0 0 3.852-2.554 46.871 46.871 0 0 0 2.005-1.543c.238-.194.47-.389.697-.584.376-.321.739-.642 1.087-.964a32.366 32.366 0 0 0 1.555-1.536 26.31 26.31 0 0 0 2.4-2.921c.132-.188.26-.375.384-.563 1.15-1.744 1.948-3.492 2.44-5.237a16.581 16.581 0 0 0 .527-2.698l.01-.1c.214-2.066.034-4.124-.462-6.163a21.332 21.332 0 0 0-.276-1.026 24.931 24.931 0 0 0-.702-2.04 29.416 29.416 0 0 0-1.397-3.03 35.065 35.065 0 0 0-.548-1c-.19-.333-.385-.665-.586-.996a19.367 19.367 0 0 0-5.386-5.757c-.208-.148-.422-.286-.636-.425a20.436 20.436 0 0 0-1.269-.773 21.657 21.657 0 0 0-3.1-1.414 23.426 23.426 0 0 0-2.202-.683 24.315 24.315 0 0 0-2.29-.472 25.691 25.691 0 0 0-3.563-.308 27.253 27.253 0 0 0-2.436.065 28.593 28.593 0 0 0-3.7.512 29.988 29.988 0 0 0-6.15 1.979 31.43 31.43 0 0 0-3.584 1.878 31.228 31.228 0 0 0-4.328 3.166 30.127 30.127 0 0 0-2.752 2.734 29.32 29.32 0 0 0-1.59 1.964 28.245 28.245 0 0 0-2.002 3.114 25.626 25.626 0 0 0-2.561 6.632 22.981 22.981 0 0 0-.522 3.406 21.561 21.561 0 0 0-.054 2.266c.044 1.504.248 2.994.621 4.446a19.383 19.383 0 0 0 1.127 3.194c.315.692.673 1.37 1.075 2.032 3.783 3.76 19.593 13.771 34.316 5.399Zm-14.563-38.549c6.323-3.846 14.089-2.624 17.345 2.729 3.256 5.353-23.668 1.118-17.345-2.729Z"/><path fill="#260E43" d="M89.423 183.093a24.641 24.641 0 0 0 2.584-.466c.444-.103.894-.221 1.351-.351a35.251 35.251 0 0 0 4.298-1.554 43.47 43.47 0 0 0 1.517-.692 54.522 54.522 0 0 0 4.814-2.626c-14.722 8.373-30.533-1.638-34.315-5.398 1.51 2.482 3.217 4.693 5.176 6.485.914.835 1.883 1.58 2.913 2.218.294.182.593.355.897.52a16.644 16.644 0 0 0 6.046 1.906 18.531 18.531 0 0 0 2.286.121 21.642 21.642 0 0 0 2.432-.163Z"/><path fill="#D4CFD9" d="M89.423 183.093a24.641 24.641 0 0 0 2.584-.466c.444-.103.894-.221 1.351-.351a35.251 35.251 0 0 0 4.298-1.554 43.47 43.47 0 0 0 1.517-.692 54.522 54.522 0 0 0 4.814-2.626c-14.722 8.373-30.533-1.638-34.315-5.398 1.51 2.482 3.217 4.693 5.176 6.485.914.835 1.883 1.58 2.913 2.218.294.182.593.355.897.52a16.644 16.644 0 0 0 6.046 1.906 18.531 18.531 0 0 0 2.286.121 21.642 21.642 0 0 0 2.432-.163Z" opacity=".2"/><path fill="#260E43" d="M106.77 141.585c-3.257-5.353-11.022-6.575-17.345-2.728-6.324 3.846 20.601 8.082 17.345 2.728Z"/><path fill="#F6F5F7" d="M106.77 141.585c-3.257-5.353-11.022-6.575-17.345-2.728-6.324 3.846 20.601 8.082 17.345 2.728Z" opacity=".2"/><path fill="#fff" d="M108.016 184.028c5.303-3.226 9.347-7.694 11.963-12.73 3.259-6.273 4.296-13.429 2.739-20.186a27.447 27.447 0 0 0-3.311-8.13 27.47 27.47 0 0 0-7.201-7.859c-9.508-7.01-23.185-7.773-34.486-.899-11.3 6.873-16.912 19.37-15.06 31.036a27.485 27.485 0 0 0 3.669 10.009 27.487 27.487 0 0 0 5.696 6.679c4.306 3.658 9.64 5.908 15.291 6.613 6.853.855 14.173-.563 20.7-4.533Zm-22.187-.798c-.381-.02-.756-.052-1.126-.095a16.645 16.645 0 0 1-6.046-1.906 18.222 18.222 0 0 1-.897-.52 19.775 19.775 0 0 1-2.913-2.218c-1.958-1.792-3.666-4.003-5.176-6.485a19.246 19.246 0 0 1-2.202-5.226 20.217 20.217 0 0 1-.621-4.447 21.602 21.602 0 0 1 .054-2.266 22.8 22.8 0 0 1 .522-3.405 25.623 25.623 0 0 1 2.561-6.632 28.028 28.028 0 0 1 2.002-3.114 29.04 29.04 0 0 1 1.59-1.964 30.126 30.126 0 0 1 2.752-2.734 31.588 31.588 0 0 1 7.912-5.044 30.445 30.445 0 0 1 3.676-1.358 30.008 30.008 0 0 1 2.473-.621 28.592 28.592 0 0 1 3.701-.512 27.64 27.64 0 0 1 2.436-.066c1.208.022 2.399.125 3.563.308.776.123 1.541.28 2.29.473.75.193 1.485.421 2.202.683a21.657 21.657 0 0 1 3.1 1.414c.434.241.855.502 1.269.773.214.139.428.277.636.424a19.37 19.37 0 0 1 5.386 5.758 40.926 40.926 0 0 1 1.134 1.996 29.573 29.573 0 0 1 1.591 3.539c.187.509.357 1.019.508 1.531.101.341.193.683.276 1.025.496 2.04.676 4.098.462 6.164l-.01.099a16.57 16.57 0 0 1-.527 2.698c-.492 1.746-1.29 3.494-2.44 5.238-.124.188-.252.375-.384.563a26.211 26.211 0 0 1-2.4 2.92 31.906 31.906 0 0 1-1.555 1.536 36.42 36.42 0 0 1-1.087.965 35.196 35.196 0 0 1-1.341 1.099c-.437.343-.891.685-1.361 1.027a56.475 56.475 0 0 1-3.852 2.554 54.573 54.573 0 0 1-4.814 2.626c-.513.246-1.019.476-1.517.692a35.251 35.251 0 0 1-4.298 1.554 27.347 27.347 0 0 1-3.304.73 21.651 21.651 0 0 1-3.064.251 18.53 18.53 0 0 1-1.161-.027Z"/><path fill="#F3C70D" d="M117.336 194.732a2.892 2.892 0 0 0-5.383.708 1.77 1.77 0 0 0-2.22 2.498 1.739 1.739 0 0 0-1.176 1.903l8.953-4.697a2.935 2.935 0 0 0-.174-.412Zm-6.316 2.913-.003.193-.162-.107-.193-.004.107-.161.003-.193.162.107.193.003-.107.162Zm1.904-2.081-.004.194-.161-.108-.194-.003.108-.161.003-.194.161.107.194.004-.107.161Zm3.416-.386-.004.194-.161-.108-.194-.003.108-.161.003-.194.161.107.194.004-.107.161Z"/><path fill="#FBFCE6" d="m112.677 195.292-.003.194-.108.161.194.003.161.108.004-.194.107-.161-.194-.004-.161-.107Z"/><path fill="#F3C70D" d="m110.773 197.372-.004.194-.107.161.194.003.161.108.004-.194.107-.161-.194-.004-.161-.107Z"/><path fill="#FBFCE6" d="m110.773 197.372-.004.194-.107.161.194.003.161.108.004-.194.107-.161-.194-.004-.161-.107Z" opacity=".8"/><path fill="#F3C70D" d="m116.093 194.906-.003.194-.108.161.194.004.161.107.004-.194.107-.161-.194-.003-.161-.108Z"/><path fill="#FBFCE6" d="m116.093 194.906-.003.194-.108.161.194.004.161.107.004-.194.107-.161-.194-.003-.161-.108Z" opacity=".95"/><path fill="#7DAEDA" d="m119.048 196.445-10.357 5.433c.089.89.364 1.757.817 2.541.118-.04.234-.084.352-.126a6.05 6.05 0 0 1-.852-2.426c.237.299.505.58.806.837.104.089.213.167.322.247l.019-.022.045-.039a.758.758 0 0 1 .1-.067c.015-.009.03-.019.047-.027a.773.773 0 0 1 .167-.061.832.832 0 0 1 .178-.017c.018 0 .036.003.054.004.04.004.079.009.118.019.019.004.038.01.057.016a.805.805 0 0 1 .109.045c.016.008.032.015.047.024a.728.728 0 0 1 .136.1l-.001-.001c.109.102.19.237.226.394a.773.773 0 0 1-.013.368c.007.004.015.006.023.009a41.801 41.801 0 0 0 2.097-.912 2.015 2.015 0 0 1-.276-2.277l.035-.061a1.795 1.795 0 0 1 .223-.318l.046-.053a1.813 1.813 0 0 1 .397-.333c.044-.029.09-.056.137-.082.023-.012.047-.025.071-.036a1.973 1.973 0 0 1 .217-.092 2.071 2.071 0 0 1 .462-.104l.073-.005a2.18 2.18 0 0 1 .161-.005l.081.002c.053.003.105.008.158.015.023.003.047.005.07.009.071.012.142.027.211.046l.009.002a2.195 2.195 0 0 1 .482.209 1.779 1.779 0 0 1 .188.125c.054.041.107.084.158.131l.012.01-.001-.001c.274.258.478.595.576.985a41.211 41.211 0 0 0 2.205-1.389.03.03 0 0 1 .005-.007l.016-.017a.178.178 0 0 1 .058-.03c.105-.071.21-.141.314-.213.124-.634.15-1.281.071-1.918.323.406.586.846.791 1.307l.176-.128a6.26 6.26 0 0 0-1.623-2.111Zm-1.284 2.054a.428.428 0 0 1-.049.109l-.011.014a.413.413 0 0 1-.119.116.398.398 0 0 1-.29.066l-.037-.007a.436.436 0 0 1-.131-.051l-.004-.002a.445.445 0 0 1-.085-.071l.032.021a.418.418 0 0 1-.135-.217.417.417 0 0 1 .033-.264c-.005.006-.01.008-.014.015.008-.021.02-.04.031-.059l.011-.02a.44.44 0 0 1 .098-.104l.025-.017a.406.406 0 0 1 .139-.062.416.416 0 0 1 .153-.004l.03.005c.047.01.092.027.133.052l.019.014c.018.012.036.023.052.038l-.025-.013a.42.42 0 0 1 .15.231.418.418 0 0 1-.019.228c.004-.007.009-.01.013-.018Z"/><path fill="#7DAEDA" d="M111.422 203.706h.002l.004-.007-.003.006.024-.009-.024-.008-.003.018Z"/><path fill="#5E83A3" d="M111.422 203.706h.002l.004-.007-.003.006.024-.009-.024-.008-.003.018Z" opacity=".15"/><path fill="#7DAEDA" d="M110.263 204.136a.758.758 0 0 1-.131-.109c-.005-.005-.011-.008-.016-.014l.012.009a.764.764 0 0 1-.164-.813l.001-.001a.78.78 0 0 1 .079-.148c.01-.015.022-.028.033-.042a.9.9 0 0 1 .059-.066c-.109-.08-.218-.158-.322-.247a6.051 6.051 0 0 1-.806-.837 6.05 6.05 0 0 0 .852 2.426c.139-.049.278-.098.417-.149l-.007-.004a.018.018 0 0 1-.007-.005Z"/><path fill="#5E83A3" d="M110.263 204.136a.758.758 0 0 1-.131-.109c-.005-.005-.011-.008-.016-.014l.012.009a.764.764 0 0 1-.164-.813l.001-.001a.78.78 0 0 1 .079-.148c.01-.015.022-.028.033-.042a.9.9 0 0 1 .059-.066c-.109-.08-.218-.158-.322-.247a6.051 6.051 0 0 1-.806-.837 6.05 6.05 0 0 0 .852 2.426c.139-.049.278-.098.417-.149l-.007-.004a.018.018 0 0 1-.007-.005Z" opacity=".15"/><path fill="#7DAEDA" d="M119.633 199.296c.29-.201.578-.404.862-.612a6.028 6.028 0 0 0-.791-1.306 6.088 6.088 0 0 1-.071 1.918Z"/><path fill="#5E83A3" d="M119.633 199.296c.29-.201.578-.404.862-.612a6.028 6.028 0 0 0-.791-1.306 6.088 6.088 0 0 1-.071 1.918Z" opacity=".15"/><path fill="#46739D" d="M113.176 200.71a2.012 2.012 0 0 0 .369 2.075 41.7 41.7 0 0 0 3.491-1.833 2.026 2.026 0 0 0-.577-.986c-.011-.006-1.855-1.126-3.283.744Z"/><path fill="#7DAEDA" d="m116.461 199.967-.012-.01.011.009.001.001Z"/><path fill="#172734" d="m116.461 199.967-.012-.01.011.009.001.001Z" opacity=".5"/><path fill="#46739D" d="m116.459 199.966-.011-.009a1.8 1.8 0 0 0-.217-.172 1.779 1.779 0 0 0-.337-.191 2.195 2.195 0 0 0-.274-.102l-.009-.002a2.141 2.141 0 0 0-.211-.046c-.023-.004-.047-.006-.07-.009a2.06 2.06 0 0 0-.158-.015l-.081-.002a2.18 2.18 0 0 0-.161.005l-.073.005a2.11 2.11 0 0 0-.462.104l-.068.027c-.051.02-.1.041-.149.065-.024.011-.048.024-.071.036a2.066 2.066 0 0 0-.197.12 1.838 1.838 0 0 0-.337.295l-.046.053a2.254 2.254 0 0 0-.142.186 2.22 2.22 0 0 0-.081.132l-.035.061a2.071 2.071 0 0 0-.093.203c1.427-1.87 3.272-.751 3.283-.744Z"/><path fill="#172734" d="m116.459 199.966-.011-.009a1.8 1.8 0 0 0-.217-.172 1.779 1.779 0 0 0-.337-.191 2.195 2.195 0 0 0-.274-.102l-.009-.002a2.141 2.141 0 0 0-.211-.046c-.023-.004-.047-.006-.07-.009a2.06 2.06 0 0 0-.158-.015l-.081-.002a2.18 2.18 0 0 0-.161.005l-.073.005a2.11 2.11 0 0 0-.462.104l-.068.027c-.051.02-.1.041-.149.065-.024.011-.048.024-.071.036a2.066 2.066 0 0 0-.197.12 1.838 1.838 0 0 0-.337.295l-.046.053a2.254 2.254 0 0 0-.142.186 2.22 2.22 0 0 0-.081.132l-.035.061a2.071 2.071 0 0 0-.093.203c1.427-1.87 3.272-.751 3.283-.744Z" opacity=".5"/><path fill="#46739D" d="M111.438 203.32a.77.77 0 0 0-.225-.395c-.012-.007-.708-.423-1.248.283a.774.774 0 0 0-.034.451.774.774 0 0 0 .198.363c.026.018.096.064.193.106a40.76 40.76 0 0 0 1.1-.421l.004-.019a.761.761 0 0 0 .012-.368Z"/><path fill="#7DAEDA" d="m111.214 202.926-.005-.004.004.003.001.001Z"/><path fill="#172734" d="m111.214 202.926-.005-.004.004.003.001.001Z" opacity=".5"/><path fill="#46739D" d="M110.045 203.06a.755.755 0 0 0-.08.148v.001c.54-.707 1.235-.29 1.247-.283l-.004-.003a.752.752 0 0 0-.13-.096c-.015-.009-.032-.016-.048-.024a.725.725 0 0 0-.108-.045c-.019-.007-.038-.012-.057-.017a.795.795 0 0 0-.119-.018c-.018-.001-.036-.004-.054-.004a.764.764 0 0 0-.345.077c-.016.008-.031.019-.047.028a.747.747 0 0 0-.144.106l-.02.022c-.02.021-.041.043-.059.066-.011.014-.023.027-.032.042Z"/><path fill="#172734" d="M110.045 203.06a.755.755 0 0 0-.08.148v.001c.54-.707 1.235-.29 1.247-.283l-.004-.003a.752.752 0 0 0-.13-.096c-.015-.009-.032-.016-.048-.024a.725.725 0 0 0-.108-.045c-.019-.007-.038-.012-.057-.017a.795.795 0 0 0-.119-.018c-.018-.001-.036-.004-.054-.004a.764.764 0 0 0-.345.077c-.016.008-.031.019-.047.028a.747.747 0 0 0-.144.106l-.02.022c-.02.021-.041.043-.059.066-.011.014-.023.027-.032.042Z" opacity=".5"/><path fill="#7DAEDA" d="m110.134 204.027-.004-.005-.013-.009.017.014Z"/><path fill="#5E83A3" d="m110.134 204.027-.004-.005-.013-.009.017.014Z" opacity=".15"/><path fill="#BAB2CC" d="m110.134 204.027-.004-.005-.013-.009.017.014Z" opacity=".25"/><path fill="#7DAEDA" d="m111.424 203.706.002-.001.002-.006-.004.007Z"/><path fill="#5E83A3" d="m111.424 203.706.002-.001.002-.006-.004.007Z" opacity=".15"/><path fill="#BAB2CC" d="m111.424 203.706.002-.001.002-.006-.004.007Z" opacity=".25"/><path fill="#46739D" d="M110.133 204.027c.04.04.083.077.13.108l.007.006a.049.049 0 0 1 .007.003l.045-.016a1.067 1.067 0 0 1-.193-.107l.004.006Z"/><path fill="#BAB2CC" d="M110.133 204.027c.04.04.083.077.13.108l.007.006a.049.049 0 0 1 .007.003l.045-.016a1.067 1.067 0 0 1-.193-.107l.004.006Z" opacity=".25"/><path fill="#46739D" d="M117.772 198.289a.42.42 0 0 0-.15-.231.513.513 0 0 0-.652.155.417.417 0 0 0-.033.264c.02.09.072.16.135.217.101.063.435.226.681-.177a.428.428 0 0 0 .019-.228Z"/><path fill="#7DAEDA" d="M117.646 198.072c-.016-.015-.034-.026-.052-.039.01.007.017.018.027.026l.025.013Z"/><path fill="#172734" d="M117.646 198.072c-.016-.015-.034-.026-.052-.039.01.007.017.018.027.026l.025.013Z" opacity=".5"/><path fill="#7DAEDA" d="M116.955 198.228c.005-.006.01-.009.014-.015.007-.014.01-.03.017-.043-.011.019-.023.038-.031.058Z"/><path fill="#172734" d="M116.955 198.228c.005-.006.01-.009.014-.015.007-.014.01-.03.017-.043-.011.019-.023.038-.031.058Z" opacity=".5"/><path fill="#46739D" d="M117.62 198.058c-.009-.008-.016-.018-.026-.025l-.019-.014a.424.424 0 0 0-.133-.052l-.031-.005a.41.41 0 0 0-.152.004.406.406 0 0 0-.139.062l-.026.017a.435.435 0 0 0-.097.104c-.005.006-.007.014-.011.02-.008.014-.011.03-.017.044a.512.512 0 0 1 .651-.155Z"/><path fill="#172734" d="M117.62 198.058c-.009-.008-.016-.018-.026-.025l-.019-.014a.424.424 0 0 0-.133-.052l-.031-.005a.41.41 0 0 0-.152.004.406.406 0 0 0-.139.062l-.026.017a.435.435 0 0 0-.097.104c-.005.006-.007.014-.011.02-.008.014-.011.03-.017.044a.512.512 0 0 1 .651-.155Z" opacity=".5"/><path fill="#7DAEDA" d="m117.766 198.5-.014.018c-.01.031-.018.063-.035.091a.428.428 0 0 0 .049-.109Z"/><path fill="#BAB2CC" d="m117.766 198.5-.014.018c-.01.031-.018.063-.035.091a.428.428 0 0 0 .049-.109Z" opacity=".25"/><path fill="#7DAEDA" d="m117.072 198.695-.033-.021a.423.423 0 0 0 .086.071c-.021-.013-.035-.034-.053-.05Z"/><path fill="#BAB2CC" d="m117.072 198.695-.033-.021a.423.423 0 0 0 .086.071c-.021-.013-.035-.034-.053-.05Z" opacity=".25"/><path fill="#46739D" d="M117.07 198.695c.018.016.033.036.053.049l.004.002c.04.025.085.041.131.052l.037.006c.049.007.1.008.151-.003a.438.438 0 0 0 .139-.062l.031-.023a.43.43 0 0 0 .088-.093l.012-.015c.017-.027.024-.059.035-.09-.246.402-.58.24-.681.177Z"/><path fill="#BAB2CC" d="M117.07 198.695c.018.016.033.036.053.049l.004.002c.04.025.085.041.131.052l.037.006c.049.007.1.008.151-.003a.438.438 0 0 0 .139-.062l.031-.023a.43.43 0 0 0 .088-.093l.012-.015c.017-.027.024-.059.035-.09-.246.402-.58.24-.681.177Z" opacity=".25"/><path fill="#46739D" d="m119.245 199.556-.005.007.08-.054a.197.197 0 0 0-.058.029l-.017.018Z"/><path fill="#172734" d="m119.245 199.556-.005.007.08-.054a.197.197 0 0 0-.058.029l-.017.018Z" opacity=".5"/><path fill="#2F4D69" d="m118.105 196.941 1.07-.561c.069-.036.115-.086.103-.11-.013-.024-.448.18-.967.452l-9.06 4.752c-.519.273-.933.515-.921.539.013.024.1.004.193-.045l1.113-.584 8.469-4.443Z" opacity=".6"/><path fill="#7DAEDA" d="m118.244 196.756 1.194-.626c.102-.054 0-.45-.226-.88-.226-.431-.702-.631-1.057-.445l-1.656.869-6.932 3.636-1.687.885c-.372.195-.492.707-.266 1.138.226.431.475.75.552.71l1.151-.604 8.927-4.683Zm-2.412-.294 1.894-.994-1.894.994Zm-.447.234-.436.229.436-.229Zm-.872.458-6.041 3.169 6.041-3.169Z"/><path fill="#020000" d="M123.603 196.492c.169.113 2.155-2.146 2.155-2.146s2.151 2.738 3.739 2.262c1.33-.398 2.997-1.783 3.715-2.498.719-.716 3.188-2.598 2.736-5.336-.373-2.257-4.145-6.459-9.886-3.317-5.741 3.143-4.177 9.885-2.459 11.035Z" opacity=".15"/><path fill="#fff" d="M123.83 196.266c.168.113 2.155-2.146 2.155-2.146s2.15 2.738 3.738 2.262c1.331-.398 2.998-1.782 3.716-2.498.718-.715 3.188-2.598 2.736-5.335-.373-2.258-4.145-6.46-9.886-3.317s-4.177 9.884-2.459 11.034Z"/><path fill="#020000" d="M105.883 205.247c-.003.203-2.991.553-2.991.553s1.031 3.326-.263 4.362c-1.084.868-3.171 1.453-4.168 1.637-.997.184-3.95 1.146-5.945-.782-1.645-1.59-2.958-7.082 2.89-10.019 5.85-2.937 10.507 2.182 10.477 4.249Z" opacity=".15"/><path fill="#fff" d="M105.568 205.305c-.002.202-2.99.552-2.99.552s1.03 3.326-.264 4.362c-1.084.868-3.17 1.453-4.167 1.638-.997.184-3.95 1.145-5.945-.783-1.645-1.59-2.958-7.082 2.89-10.018 5.849-2.937 10.507 2.181 10.476 4.249Z"/><path fill="url(#L)" d="M282.479 254.607a7.8 7.8 0 0 0-10.531-3.284L223.78 276.59a7.802 7.802 0 0 0 7.247 13.816l48.168-25.268a7.8 7.8 0 0 0 3.284-10.531Z"/><path fill="url(#M)" d="m116.335 332.954-48.168 25.267a7.802 7.802 0 0 0 7.247 13.816l48.168-25.267a7.802 7.802 0 0 0-7.247-13.816Z"/></g><defs><linearGradient id="b" x1="288.318" x2="304.073" y1="207.288" y2="736.059" gradientUnits="userSpaceOnUse"><stop stop-color="#F0EFF7" stop-opacity="0"/><stop offset=".6" stop-color="#fff"/></linearGradient><linearGradient id="c" x1="211.814" x2="227.569" y1="247.419" y2="776.189" gradientUnits="userSpaceOnUse"><stop stop-color="#F0EFF7" stop-opacity="0"/><stop offset=".6" stop-color="#fff"/></linearGradient><linearGradient id="d" x1="366.791" x2="382.546" y1="166.123" y2="694.893" gradientUnits="userSpaceOnUse"><stop stop-color="#F0EFF7" stop-opacity="0"/><stop offset=".6" stop-color="#fff"/></linearGradient><linearGradient id="e" x1="-14.024" x2="58.805" y1="41.956" y2="54.589" gradientUnits="userSpaceOnUse"><stop stop-color="#6A23E8"/><stop offset="1" stop-color="#48189F"/></linearGradient><linearGradient id="f" x1="-14.644" x2="58.228" y1="41.564" y2="56.665" gradientUnits="userSpaceOnUse"><stop stop-color="#6A23E8"/><stop offset="1" stop-color="#48189F"/></linearGradient><linearGradient id="g" x1="73.793" x2="73.793" y1="206.331" y2="326.907" gradientUnits="userSpaceOnUse"><stop stop-color="#48189F"/><stop offset="1" stop-color="#6A23E8"/></linearGradient><linearGradient id="h" x1="132.189" x2="233.528" y1="197.068" y2="197.068" gradientUnits="userSpaceOnUse"><stop stop-color="#48189F"/><stop offset="1" stop-color="#6A23E8"/></linearGradient><linearGradient id="i" x1="-50.826" x2="-170.035" y1="194.224" y2="194.224" gradientUnits="userSpaceOnUse"><stop stop-color="#48189F"/><stop offset="1" stop-color="#6A23E8"/></linearGradient><linearGradient id="j" x1="-52.04" x2="-171.06" y1="257.557" y2="257.557" gradientUnits="userSpaceOnUse"><stop stop-color="#48189F"/><stop offset="1" stop-color="#6A23E8"/></linearGradient><linearGradient id="k" x1="-43.679" x2="-159.463" y1="146.723" y2="146.723" gradientUnits="userSpaceOnUse"><stop stop-color="#48189F"/><stop offset="1" stop-color="#6A23E8"/></linearGradient><linearGradient id="l" x1="-49.915" x2="-168.17" y1="184.445" y2="184.445" gradientUnits="userSpaceOnUse"><stop stop-color="#48189F"/><stop offset="1" stop-color="#6A23E8"/></linearGradient><linearGradient id="m" x1="7.246" x2="205.957" y1="185.423" y2="185.423" gradientUnits="userSpaceOnUse"><stop stop-color="#8180FF"/><stop offset="1" stop-color="#605FC0"/></linearGradient><linearGradient id="n" x1="131.104" x2="-61.793" y1="202.001" y2="178.41" gradientUnits="userSpaceOnUse"><stop stop-color="#8180FF" stop-opacity="0"/><stop offset="1" stop-color="#fff"/></linearGradient><linearGradient id="o" x1="134.916" x2="211.358" y1="312.262" y2="312.262" gradientUnits="userSpaceOnUse"><stop stop-color="#48189F"/><stop offset="1" stop-color="#6A23E8"/></linearGradient><linearGradient id="p" x1="-11.204" x2="111.226" y1="324.396" y2="324.396" gradientUnits="userSpaceOnUse"><stop stop-color="#48189F"/><stop offset="1" stop-color="#6A23E8"/></linearGradient><linearGradient id="q" x1="92.711" x2="92.711" y1="247.313" y2="403.006" gradientUnits="userSpaceOnUse"><stop stop-color="#48189F"/><stop offset="1" stop-color="#6A23E8"/></linearGradient><linearGradient id="r" x1="126.892" x2="267.418" y1="242.572" y2="242.572" gradientUnits="userSpaceOnUse"><stop stop-color="#48189F"/><stop offset="1" stop-color="#6A23E8"/></linearGradient><linearGradient id="s" x1="248.695" x2="248.695" y1="170.034" y2="301.542" gradientUnits="userSpaceOnUse"><stop stop-color="#48189F"/><stop offset="1" stop-color="#6A23E8"/></linearGradient><linearGradient id="t" x1="96.532" x2="96.532" y1="94.421" y2="353.697" gradientUnits="userSpaceOnUse"><stop stop-color="#48189F"/><stop offset="1" stop-color="#6A23E8"/></linearGradient><linearGradient id="u" x1="90.701" x2="90.701" y1="112.858" y2="597.43" gradientUnits="userSpaceOnUse"><stop stop-color="#7526FF"/><stop offset="1" stop-color="#080039"/></linearGradient><linearGradient id="v" x1="105.632" x2="105.632" y1="112.863" y2="597.394" gradientUnits="userSpaceOnUse"><stop stop-color="#7526FF"/><stop offset="1" stop-color="#080039"/></linearGradient><linearGradient id="w" x1="101.237" x2="101.237" y1="112.862" y2="597.404" gradientUnits="userSpaceOnUse"><stop stop-color="#7526FF"/><stop offset="1" stop-color="#080039"/></linearGradient><linearGradient id="x" x1="103.482" x2="103.482" y1="112.862" y2="597.414" gradientUnits="userSpaceOnUse"><stop stop-color="#7526FF"/><stop offset="1" stop-color="#080039"/></linearGradient><linearGradient id="y" x1="118.447" x2="118.447" y1="112.868" y2="597.353" gradientUnits="userSpaceOnUse"><stop stop-color="#7526FF"/><stop offset="1" stop-color="#080039"/></linearGradient><linearGradient id="z" x1="92.683" x2="92.683" y1="112.865" y2="597.387" gradientUnits="userSpaceOnUse"><stop stop-color="#7526FF"/><stop offset="1" stop-color="#080039"/></linearGradient><linearGradient id="A" x1="118.939" x2="118.939" y1="112.693" y2="599.019" gradientUnits="userSpaceOnUse"><stop stop-color="#7526FF"/><stop offset="1" stop-color="#080039"/></linearGradient><linearGradient id="B" x1="115.776" x2="115.776" y1="112.865" y2="597.381" gradientUnits="userSpaceOnUse"><stop stop-color="#7526FF"/><stop offset="1" stop-color="#080039"/></linearGradient><linearGradient id="C" x1="88.805" x2="88.805" y1="112.871" y2="597.349" gradientUnits="userSpaceOnUse"><stop stop-color="#7526FF"/><stop offset="1" stop-color="#080039"/></linearGradient><linearGradient id="D" x1="68.704" x2="68.704" y1="112.863" y2="597.403" gradientUnits="userSpaceOnUse"><stop stop-color="#7526FF"/><stop offset="1" stop-color="#080039"/></linearGradient><linearGradient id="E" x1="71.295" x2="71.295" y1="112.863" y2="597.4" gradientUnits="userSpaceOnUse"><stop stop-color="#7526FF"/><stop offset="1" stop-color="#080039"/></linearGradient><linearGradient id="F" x1="110.193" x2="110.193" y1="112.862" y2="597.403" gradientUnits="userSpaceOnUse"><stop stop-color="#7526FF"/><stop offset="1" stop-color="#080039"/></linearGradient><linearGradient id="G" x1="96.072" x2="96.072" y1="112.863" y2="597.403" gradientUnits="userSpaceOnUse"><stop stop-color="#7526FF"/><stop offset="1" stop-color="#080039"/></linearGradient><linearGradient id="H" x1="72.783" x2="72.783" y1="112.862" y2="597.402" gradientUnits="userSpaceOnUse"><stop stop-color="#7526FF"/><stop offset="1" stop-color="#080039"/></linearGradient><linearGradient id="I" x1="108.318" x2="108.318" y1="112.863" y2="597.404" gradientUnits="userSpaceOnUse"><stop stop-color="#7526FF"/><stop offset="1" stop-color="#080039"/></linearGradient><linearGradient id="J" x1="78.494" x2="78.494" y1="112.863" y2="597.403" gradientUnits="userSpaceOnUse"><stop stop-color="#7526FF"/><stop offset="1" stop-color="#080039"/></linearGradient><linearGradient id="K" x1="112.406" x2="112.406" y1="112.863" y2="597.398" gradientUnits="userSpaceOnUse"><stop stop-color="#7526FF"/><stop offset="1" stop-color="#080039"/></linearGradient><linearGradient id="L" x1="252.079" x2="251.015" y1="235.383" y2="299.246" gradientUnits="userSpaceOnUse"><stop stop-color="#48189F"/><stop offset="1" stop-color="#6A23E8"/></linearGradient><linearGradient id="M" x1="96.466" x2="95.401" y1="317.014" y2="380.877" gradientUnits="userSpaceOnUse"><stop stop-color="#48189F"/><stop offset="1" stop-color="#6A23E8"/></linearGradient><clipPath id="a"><path fill="#fff" d="M0 0h530v672H0z"/></clipPath></defs></svg>