<svg xmlns="http://www.w3.org/2000/svg" fill="none" viewBox="0 0 1440 810"><g fill="#fff" opacity=".25"><g opacity=".5"><path d="M136.566 346.382a1.148 1.148 0 1 0 0-2.296 1.148 1.148 0 0 0 0 2.296Z" opacity=".84"/><path d="M1380.4 785.88a1.5 1.5 0 1 1-3 0 1.5 1.5 0 1 1 3 0Z" opacity=".93"/><path d="M1233.04 201.373a2.06 2.06 0 0 0 2.06-2.061c0-1.138-.92-2.06-2.06-2.06-1.14 0-2.06.922-2.06 2.06a2.06 2.06 0 0 0 2.06 2.061Z" opacity=".64"/><path d="M1040.65 757.574c0 .565-.46 1.023-1.02 1.023-.57 0-1.02-.458-1.02-1.023s.45-1.023 1.02-1.023c.56 0 1.02.458 1.02 1.023Z" opacity=".65"/><path d="M945.973 243.612a1.49 1.49 0 1 1-2.98.002 1.49 1.49 0 0 1 2.98-.002Z" opacity=".8"/><path d="M1229.33 380.379a1.659 1.659 0 1 1-3.32 0 1.659 1.659 0 1 1 3.32 0Z" opacity=".72"/><path d="M264.506 463.782a2.828 2.828 0 1 0-.001-5.655 2.828 2.828 0 0 0 .001 5.655Z" opacity=".73"/><path d="M1234.83 649.858c.64 0 1.17-.524 1.17-1.169s-.53-1.168-1.17-1.168a1.167 1.167 0 1 0 0 2.337Z" opacity=".71"/><path d="M526.073 688.207a2.93 2.93 0 1 1-5.859.001 2.93 2.93 0 0 1 5.859-.001Z" opacity=".74"/><path d="M1320.45 370.821c0 .525-.42.95-.95.95a.953.953 0 0 1-.95-.95c0-.524.43-.949.95-.949.53 0 .95.425.95.949Z" opacity=".6"/><path d="M98.449 516a2.61 2.61 0 1 1-5.22 0 2.61 2.61 0 0 1 5.22 0Z" opacity=".76"/><path d="M449.156 335.205a1.996 1.996 0 1 1-3.992 0 1.996 1.996 0 0 1 3.992 0Z" opacity=".95"/><path d="M884.278 793.372a2.458 2.458 0 1 1-4.919 0 2.46 2.46 0 0 1 4.919 0Z" opacity=".9"/><path d="M1096.9 681.249a2.926 2.926 0 0 1-5.85 0 2.926 2.926 0 0 1 5.85 0Z" opacity=".99"/><path d="M435.017 123.939a3.3 3.3 0 1 1-6.6 0 3.3 3.3 0 0 1 6.6 0Z" opacity=".72"/><path d="M205.386 763.385a.767.767 0 1 1-1.535.001.767.767 0 0 1 1.535-.001Z" opacity=".84"/><path d="M651.507 401.716a2.042 2.042 0 1 0 .002-4.084 2.042 2.042 0 0 0-.002 4.084Z" opacity=".79"/><path d="M828.793 550.294a4.398 4.398 0 1 1-8.795-.001 4.398 4.398 0 0 1 8.795.001Zm-135.211-71.191a2.689 2.689 0 1 1-5.377-.001 2.689 2.689 0 0 1 5.377.001Z" opacity=".85"/><path d="M1238.3 135.337a3.06 3.06 0 1 1-6.12 0 3.06 3.06 0 0 1 6.12 0Z" opacity=".7"/><path d="M541.86 319.32a4.043 4.043 0 1 0 0-8.086 4.043 4.043 0 0 0 0 8.086Z" opacity=".97"/><path d="M1035.99 738.7a1.7 1.7 0 1 1-3.398.002 1.7 1.7 0 0 1 3.398-.002Z" opacity=".61"/><path d="M282.031 614.742a2.878 2.878 0 1 1-5.756 0 2.878 2.878 0 0 1 5.756 0Z" opacity=".85"/><path d="M291.606 731.37a1.176 1.176 0 1 1-2.352 0 1.176 1.176 0 0 1 2.352 0Z" opacity=".67"/><path d="M220.12 564.05a4.012 4.012 0 1 1-8.024-.002 4.012 4.012 0 0 1 8.024.002Z" opacity=".85"/><path d="M777.335 259.06a.67.67 0 1 0 0-1.34.67.67 0 0 0 0 1.34Z" opacity=".97"/><path d="M242.944 37.777a4.952 4.952 0 1 1-9.903-.001 4.952 4.952 0 0 1 9.903 0Z" opacity=".89"/><path d="M621.836 182.252a.905.905 0 1 1-1.81 0 .905.905 0 0 1 1.81 0Z" opacity=".71"/><path d="M1308.08 731.963a1.03 1.03 0 1 0 0-2.064 1.03 1.03 0 0 0 0 2.064Z" opacity=".94"/><path d="M559.662 708.102a.983.983 0 1 1-1.966 0 .983.983 0 0 1 1.966 0Z" opacity=".71"/><path d="M355.576 718.383a1.761 1.761 0 1 1-3.523 0 1.761 1.761 0 0 1 3.523 0Z" opacity=".77"/><path d="M202.254 497.435a2.502 2.502 0 1 0-.001-5.003 2.502 2.502 0 0 0 .001 5.003Z" opacity=".89"/><path d="M816.628 351.698a3.608 3.608 0 1 1-7.216-.002 3.608 3.608 0 0 1 7.216.002ZM365.814 316.52a1.604 1.604 0 1 0 0-3.207 1.604 1.604 0 0 0 0 3.207Z" opacity=".96"/><path d="M120.15 107.181a2.89 2.89 0 1 1-5.779 0 2.89 2.89 0 0 1 5.779 0Z" opacity=".94"/><path d="M1348.95 629.367c0 .861-.7 1.56-1.56 1.56a1.56 1.56 0 1 1 1.56-1.56Z" opacity=".75"/><path d="M492.683 576.35a4.032 4.032 0 1 1-8.064 0 4.032 4.032 0 0 1 8.064 0Z" opacity=".79"/><path d="M1095.24 489.099a2.725 2.725 0 1 1-5.45 0 2.726 2.726 0 1 1 5.45 0Z" opacity=".72"/><path d="M1393.86 288.943c0 .938-.76 1.698-1.7 1.698-.93 0-1.7-.76-1.7-1.698s.77-1.698 1.7-1.698c.94 0 1.7.76 1.7 1.698Z" opacity=".98"/><path d="M1118.36 674.587a3.688 3.688 0 0 1-3.69 3.689 3.695 3.695 0 0 1-3.69-3.689 3.694 3.694 0 0 1 3.69-3.688c2.04 0 3.69 1.651 3.69 3.688Z" opacity=".9"/><path d="M1287.77 469.803a1.765 1.765 0 0 1-3.53 0 1.765 1.765 0 0 1 3.53 0Z" opacity=".64"/><path d="M100.917 238.214a1.15 1.15 0 1 1-2.298 0 1.15 1.15 0 0 1 2.298 0Z" opacity=".92"/><path d="M679.95 550.655a2.444 2.444 0 1 1-4.888-.002 2.444 2.444 0 0 1 4.888.002Z" opacity=".87"/><path d="M172.033 425.694a3.529 3.529 0 1 0-.002-7.058 3.529 3.529 0 0 0 .002 7.058Z" opacity=".77"/><path d="M1012.14 16.6c0 1.853-1.5 3.354-3.36 3.354a3.352 3.352 0 0 1-3.35-3.354 3.354 3.354 0 0 1 6.71 0Z" opacity=".76"/><path d="M1210.87 576.988c0 1.822-1.47 3.3-3.3 3.3-1.82 0-3.3-1.478-3.3-3.3 0-1.823 1.48-3.3 3.3-3.3 1.83 0 3.3 1.477 3.3 3.3Z" opacity=".77"/><path d="M64.14 230.728a1.107 1.107 0 1 1-2.214 0 1.107 1.107 0 0 1 2.215 0Z" opacity=".85"/><path d="M695.112 356.554a2.91 2.91 0 1 0 0-5.821 2.91 2.91 0 0 0 0 5.821Z" opacity=".72"/><path d="M332.766 649.062a.955.955 0 1 0 0-1.91.955.955 0 0 0 0 1.91Z" opacity=".71"/><path d="M868.2 452.213a1.43 1.43 0 1 1-2.861 0 1.43 1.43 0 0 1 2.861 0Z" opacity=".77"/><path d="M84.163 657.647a1.058 1.058 0 1 1-2.115 0 1.058 1.058 0 0 1 2.115 0Z" opacity=".67"/><path d="M1201 205.111a1.295 1.295 0 1 1-2.59 0 1.295 1.295 0 1 1 2.59 0Z" opacity=".61"/><path d="M171.819 420.844a.775.775 0 1 1-1.55 0 .775.775 0 0 1 1.55 0Z" opacity=".75"/><path d="M1222.4 339.292a3.178 3.178 0 0 1-3.18 3.182 3.178 3.178 0 0 1-3.18-3.182 3.18 3.18 0 1 1 6.36 0Z" opacity=".64"/><path d="M966.893 545.474a2.777 2.777 0 1 0 0-5.553 2.777 2.777 0 0 0 0 5.553Z" opacity=".67"/><path d="M773.839 101.875a1.467 1.467 0 1 1-2.935 0 1.467 1.467 0 0 1 2.935 0Z" opacity=".66"/><path d="M629.403 551.915a3.513 3.513 0 1 0-.002-7.026 3.513 3.513 0 0 0 .002 7.026Z" opacity=".71"/><path d="M1157.96 193.614c0 2.09-1.69 3.785-3.78 3.785a3.79 3.79 0 0 1-3.79-3.785 3.79 3.79 0 0 1 3.79-3.785c2.09 0 3.78 1.695 3.78 3.785Z" opacity=".89"/><path d="M997.69 178.945a4.083 4.083 0 1 1-8.166.002 4.083 4.083 0 0 1 8.166-.002Z" opacity=".69"/><path d="M481.416 730.672a3.973 3.973 0 1 0 0-7.945 3.973 3.973 0 0 0 0 7.945Z" opacity=".87"/><path d="M538.255 545.116a2.94 2.94 0 1 1-5.88 0 2.94 2.94 0 0 1 5.88 0Z" opacity=".92"/><path d="M1394.93 338.616c0 .684-.56 1.238-1.24 1.238-.68 0-1.24-.554-1.24-1.238 0-.684.56-1.238 1.24-1.238.68 0 1.24.554 1.24 1.238Z" opacity=".63"/><path d="M320.822 642.765a3.283 3.283 0 1 1-6.566 0 3.283 3.283 0 0 1 6.566 0Z" opacity=".96"/><path d="M196.288 105.835a2.815 2.815 0 1 0 0-5.63 2.815 2.815 0 0 0 0 5.63Z" opacity=".93"/><path d="M1070.62 587.856c.72 0 1.31-.59 1.31-1.318a1.316 1.316 0 1 0-2.63 0c0 .728.59 1.318 1.32 1.318Z" opacity=".77"/><path d="M733.592 462.908a1.885 1.885 0 1 0-.002-3.77 1.885 1.885 0 0 0 .002 3.77Z" opacity=".8"/><path d="M748.774 785.775a.77.77 0 1 1-1.54-.002.77.77 0 0 1 1.54.002Z" opacity=".81"/><path d="M160.178 686.152a1.345 1.345 0 1 1-2.69-.001 1.345 1.345 0 0 1 2.69.001Z" opacity=".8"/><path d="M295.174 679.697a1.283 1.283 0 1 0 0-2.567 1.283 1.283 0 0 0 0 2.567Z" opacity=".86"/><path d="M407.159 759.431a3.404 3.404 0 1 0-.001-6.807 3.404 3.404 0 0 0 .001 6.807Z" opacity=".66"/><path d="M655.781 771.875a.756.756 0 1 1-1.512 0 .756.756 0 0 1 1.512 0Z" opacity=".69"/><path d="M821.22 644.63a1.142 1.142 0 1 1-2.283 0 1.142 1.142 0 0 1 2.283 0Z" opacity=".97"/><path d="M642.925 112.299a1.778 1.778 0 1 0 0-3.556 1.778 1.778 0 0 0 0 3.556Z" opacity=".72"/><path d="M873.036 346.517a.86.86 0 1 1-1.722-.002.86.86 0 0 1 1.722.002Z" opacity=".69"/><path d="M434.551 116.515a1.03 1.03 0 1 0 0-2.06 1.03 1.03 0 0 0 0 2.06Z" opacity=".83"/><path d="M1302.37 230.333a2.375 2.375 0 1 1-4.75 0 2.375 2.375 0 1 1 4.75 0Z" opacity=".84"/><path d="M933.394 325.942a1.605 1.605 0 1 1-3.21 0 1.605 1.605 0 0 1 3.21 0Z" opacity=".7"/><path d="M1197.78 631.895a3.446 3.446 0 1 1-6.89 0 3.444 3.444 0 1 1 6.89 0Z" opacity=".82"/><path d="M175.216 138.7a3.555 3.555 0 1 1-7.111-.001 3.555 3.555 0 0 1 7.111.001Z" opacity=".61"/><path d="M918.429 85.397a1.243 1.243 0 1 0 0-2.486 1.243 1.243 0 0 0 0 2.486Z" opacity=".81"/><path d="M419.039 506.542a2.824 2.824 0 1 1-5.648 0 2.824 2.824 0 0 1 5.648 0Z" opacity=".93"/><path d="M824.935 191.201a.836.836 0 1 1-1.673 0 .836.836 0 0 1 1.673 0Z" opacity=".95"/><path d="M1092.6 19.867a2.528 2.528 0 1 0 0-5.057 2.534 2.534 0 0 0-2.53 2.528 2.534 2.534 0 0 0 2.53 2.529Z" opacity=".89"/><path d="M347.671 117.978a1.644 1.644 0 1 1-3.288 0 1.644 1.644 0 0 1 3.288 0Z" opacity=".96"/><path d="M135.218 59.68a1.936 1.936 0 1 1-3.871-.002 1.936 1.936 0 0 1 3.871.001Z" opacity=".76"/><path d="M743.56 677.613a1.09 1.09 0 1 0 0-2.18 1.09 1.09 0 0 0 0 2.18Z" opacity=".95"/><path d="M970.697 212.601a.923.923 0 1 1-1.845 0 .923.923 0 0 1 1.845 0Z" opacity=".8"/><path d="M855.982 682.056a1.309 1.309 0 1 0 0-2.618 1.309 1.309 0 0 0 0 2.618Z" opacity=".9"/><path d="M1028.44 406.626a1.465 1.465 0 0 1-2.93 0 1.466 1.466 0 0 1 2.93 0Z" opacity=".69"/><path d="M71.93 96.098a3.032 3.032 0 1 1-6.065 0 3.032 3.032 0 0 1 6.064 0Z" opacity=".67"/><path d="M1305.61 185.513c.96 0 1.73-.774 1.73-1.729 0-.954-.77-1.728-1.73-1.728-.95 0-1.73.774-1.73 1.728 0 .955.78 1.729 1.73 1.729Z" opacity=".79"/><path d="M1355.17 102.28c.81 0 1.48-.663 1.48-1.482a1.486 1.486 0 0 0-2.97 0c0 .819.67 1.482 1.49 1.482Z" opacity=".97"/><path d="M1227.16 706.516c0 .607-.49 1.1-1.1 1.1-.61 0-1.1-.493-1.1-1.1a1.099 1.099 0 1 1 2.2 0Z" opacity=".73"/><path d="M383.075 198.744a1.352 1.352 0 1 1-2.703 0 1.352 1.352 0 0 1 2.703 0Z" opacity=".9"/><path d="M1378.87 709.63a1.007 1.007 0 1 0 0-2.015c-.55 0-1 .451-1 1.008 0 .556.45 1.007 1 1.007Z" opacity=".95"/><path d="M240.814 191.486a1.608 1.608 0 1 1-3.217.001 1.608 1.608 0 0 1 3.217-.001Z" opacity=".71"/><path d="M773.583 79.98a.632.632 0 1 1-1.263-.001.632.632 0 0 1 1.263 0Z" opacity=".68"/><path d="M1200.84 86.743c.71 0 1.29-.577 1.29-1.288a1.29 1.29 0 0 0-2.58 0c0 .711.58 1.288 1.29 1.288Z" opacity=".83"/><path d="M448.836 278.168a.853.853 0 1 1-1.706 0 .853.853 0 0 1 1.706 0Z" opacity=".91"/><path d="M109.333 734.297a.896.896 0 1 1-1.792 0 .896.896 0 0 1 1.792 0Z" opacity=".95"/><path d="M80.97 638.957a1.631 1.631 0 1 1-3.261 0 1.631 1.631 0 0 1 3.262 0Z" opacity=".66"/><path d="M985.902 790.824a1.969 1.969 0 1 1-3.937-.001 1.969 1.969 0 0 1 3.937.001Z" opacity=".64"/><path d="M725.225 663.99a2.216 2.216 0 1 1-4.432 0 2.216 2.216 0 0 1 4.432 0Z" opacity=".71"/><path d="M364.887 250.931a3.564 3.564 0 1 0 0-7.127 3.564 3.564 0 0 0 0 7.127Z" opacity=".74"/><path d="M292.496 176.154a1.2 1.2 0 1 1-2.401 0 1.2 1.2 0 0 1 2.401 0Z" opacity=".75"/><path d="M539.791 159.59a.815.815 0 1 1-1.63 0 .815.815 0 0 1 1.63 0Z" opacity=".88"/><path d="M1421.96 425.535a1.31 1.31 0 0 1-1.31 1.305c-.72 0-1.3-.584-1.3-1.305 0-.72.58-1.305 1.3-1.305.72 0 1.31.585 1.31 1.305Z" opacity=".83"/><path d="M1071.2 82.57a1.37 1.37 0 1 1-2.74 0 1.37 1.37 0 1 1 2.74 0Z" opacity=".79"/><path d="M1156.17 567.61a.733.733 0 0 0 0-1.465c-.41 0-.74.328-.74.732 0 .405.33.733.74.733Z" opacity=".67"/><path d="M77.221 149.991a1.71 1.71 0 1 0 0-3.418 1.71 1.71 0 0 0 0 3.418Z" opacity=".6"/><path d="M542.65 462.51a.753.753 0 1 1-1.505-.001.753.753 0 0 1 1.505.001Z" opacity=".94"/><path d="M332.559 486.252a1.505 1.505 0 1 0 0-3.01 1.505 1.505 0 0 0 0 3.01Z" opacity=".77"/><path d="M323.478 108.147a.916.916 0 1 0 0-1.831.916.916 0 0 0 0 1.831Z" opacity=".87"/><path d="M84.286 320.283a1.543 1.543 0 1 0 0-3.085 1.543 1.543 0 0 0 0 3.085Z" opacity=".9"/><path d="M354.511 444.913a3.365 3.365 0 1 1-6.73 0 3.365 3.365 0 0 1 6.73 0Z" opacity=".73"/><path d="M649.138 82.474a3.676 3.676 0 1 0 0-7.352 3.676 3.676 0 0 0 0 7.352Z" opacity=".8"/><path d="M257.752 458.828a1.796 1.796 0 1 1-3.592 0 1.796 1.796 0 0 1 3.592 0Z" opacity=".75"/><path d="M516.125 407.363a2.428 2.428 0 1 1-4.856 0 2.428 2.428 0 0 1 4.856 0Z" opacity=".66"/><path d="M537.12 236.882a1.775 1.775 0 1 1-3.55 0 1.775 1.775 0 0 1 3.55 0Z" opacity=".98"/><path d="M1186.91 335.073a2.63 2.63 0 0 1-2.63 2.626 2.62 2.62 0 0 1-2.62-2.626c0-1.45 1.17-2.626 2.62-2.626a2.63 2.63 0 0 1 2.63 2.626Z" opacity=".77"/><path d="M713.414 191.671a2.028 2.028 0 1 1-4.055-.001 2.028 2.028 0 0 1 4.055.001Z" opacity=".94"/><path d="M118.861 578.38a3.87 3.87 0 1 0 0-7.742 3.87 3.87 0 0 0 0 7.742Z" opacity=".62"/><path d="M215.376 130.381a.911.911 0 1 1-1.822-.002.911.911 0 0 1 1.822.002Z" opacity=".93"/><path d="M295.692 308.389a1.048 1.048 0 1 1-2.095.001 1.048 1.048 0 0 1 2.095-.001Z" opacity=".95"/><path d="M323.608 251.698a1.519 1.519 0 1 1-3.038 0 1.519 1.519 0 0 1 3.038 0Z" opacity=".62"/><path d="M806.088 87.148a1.203 1.203 0 1 0 0-2.406 1.203 1.203 0 0 0 0 2.406Z" opacity=".6"/><path d="M1051.98 491.574a1.625 1.625 0 0 1-3.25 0 1.625 1.625 0 0 1 3.25 0Z" opacity=".72"/><path d="M728.949 620.852a1.761 1.761 0 1 1-3.523 0 1.761 1.761 0 0 1 3.523 0Z" opacity=".88"/><path d="M632.648 537.313a1.282 1.282 0 1 1-2.564 0 1.282 1.282 0 0 1 2.564 0Z" opacity=".72"/><path d="M475.134 18.597a3.416 3.416 0 1 1-6.831.001 3.416 3.416 0 0 1 6.831 0Z" opacity=".86"/><path d="M594.221 58.603a3.095 3.095 0 1 1-6.19 0 3.095 3.095 0 0 1 6.19 0Z" opacity=".6"/><path d="M199.69 304.75a1.327 1.327 0 1 0 0-2.654 1.327 1.327 0 0 0 0 2.654Z" opacity=".71"/><path d="M1307.38 561.157a1.74 1.74 0 1 1-3.481-.001 1.74 1.74 0 0 1 3.481.001Z" opacity=".86"/><path d="M890.905 116.29a1.06 1.06 0 1 1-2.12.002 1.06 1.06 0 0 1 2.12-.002Z" opacity=".81"/><path d="M470.57 590.921a2.515 2.515 0 1 0 .001-5.03 2.515 2.515 0 0 0-.001 5.03Z" opacity=".83"/><path d="M774.778 283.001a1.69 1.69 0 1 0-.001-3.38 1.69 1.69 0 0 0 .001 3.38Z" opacity=".78"/><path d="M1055.83 305.75c.73 0 1.31-.586 1.31-1.309 0-.724-.58-1.31-1.31-1.31-.72 0-1.31.586-1.31 1.31 0 .723.59 1.309 1.31 1.309Z" opacity=".9"/><path d="M375.21 142.77a2.728 2.728 0 1 1-5.456 0 2.728 2.728 0 0 1 5.456 0Z" opacity=".74"/><path d="M1287.37 732.97a2.565 2.565 0 1 1-5.13-.002 2.565 2.565 0 0 1 5.13.002Z" opacity=".95"/><path d="M115.352 429.209a1.447 1.447 0 1 1-2.894-.002 1.447 1.447 0 0 1 2.894.002ZM19.279 261.453a1.235 1.235 0 1 0 0-2.47 1.235 1.235 0 0 0 0 2.47Z" opacity=".83"/><path d="M922.446 418.499a.825.825 0 1 0 0-1.65.825.825 0 0 0 0 1.65Z" opacity=".82"/><path d="M970.225 362.882a.587.587 0 1 0 0-1.173.587.587 0 0 0 0 1.173Z" opacity=".92"/><path d="M808.667 797.214a1.664 1.664 0 1 1-3.328 0 1.664 1.664 0 0 1 3.328 0Z" opacity=".61"/><path d="M820.599 555.838a2.433 2.433 0 1 0 0-4.867 2.433 2.433 0 0 0 0 4.867Z" opacity=".75"/><path d="M118.344 735.293a1.051 1.051 0 1 1-2.102.002 1.051 1.051 0 0 1 2.102-.002Z" opacity=".76"/><path d="M107.146 417.668a3.473 3.473 0 1 1-6.947 0 3.473 3.473 0 0 1 6.947 0Z" opacity=".9"/><path d="M1312.64 258.128a1.195 1.195 0 0 1-2.39 0 1.195 1.195 0 0 1 2.39 0Z" opacity=".92"/><path d="M1311.57 14.46c0 1.845-1.49 3.34-3.34 3.34a3.343 3.343 0 0 1-3.34-3.34c0-1.844 1.5-3.339 3.34-3.339 1.85 0 3.34 1.495 3.34 3.34Z" opacity=".7"/><path d="M986.413 245.695a1.485 1.485 0 1 0 0-2.97 1.485 1.485 0 0 0 0 2.97Z" opacity=".95"/></g><g opacity=".5"><path d="M136.566 346.382a1.148 1.148 0 1 0 0-2.296 1.148 1.148 0 0 0 0 2.296Z" opacity=".84"/><path d="M1380.4 785.88a1.5 1.5 0 1 1-3 0 1.5 1.5 0 1 1 3 0Z" opacity=".93"/><path d="M1233.04 201.373a2.06 2.06 0 0 0 2.06-2.061c0-1.138-.92-2.06-2.06-2.06-1.14 0-2.06.922-2.06 2.06a2.06 2.06 0 0 0 2.06 2.061Z" opacity=".64"/><path d="M1040.65 757.574c0 .565-.46 1.023-1.02 1.023-.57 0-1.02-.458-1.02-1.023s.45-1.023 1.02-1.023c.56 0 1.02.458 1.02 1.023Z" opacity=".65"/><path d="M945.973 243.612a1.49 1.49 0 1 1-2.98.002 1.49 1.49 0 0 1 2.98-.002Z" opacity=".8"/><path d="M1229.33 380.379a1.659 1.659 0 1 1-3.32 0 1.659 1.659 0 1 1 3.32 0Z" opacity=".72"/><path d="M264.506 463.782a2.828 2.828 0 1 0-.001-5.655 2.828 2.828 0 0 0 .001 5.655Z" opacity=".73"/><path d="M1234.83 649.858c.64 0 1.17-.524 1.17-1.169s-.53-1.168-1.17-1.168a1.167 1.167 0 1 0 0 2.337Z" opacity=".71"/><path d="M526.073 688.207a2.93 2.93 0 1 1-5.859.001 2.93 2.93 0 0 1 5.859-.001Z" opacity=".74"/><path d="M1320.45 370.821c0 .525-.42.95-.95.95a.953.953 0 0 1-.95-.95c0-.524.43-.949.95-.949.53 0 .95.425.95.949Z" opacity=".6"/><path d="M98.449 516a2.61 2.61 0 1 1-5.22 0 2.61 2.61 0 0 1 5.22 0Z" opacity=".76"/><path d="M449.156 335.205a1.996 1.996 0 1 1-3.992 0 1.996 1.996 0 0 1 3.992 0Z" opacity=".95"/><path d="M884.278 793.372a2.458 2.458 0 1 1-4.919 0 2.46 2.46 0 0 1 4.919 0Z" opacity=".9"/><path d="M1096.9 681.249a2.926 2.926 0 0 1-5.85 0 2.926 2.926 0 0 1 5.85 0Z" opacity=".99"/><path d="M435.017 123.939a3.3 3.3 0 1 1-6.6 0 3.3 3.3 0 0 1 6.6 0Z" opacity=".72"/><path d="M205.386 763.385a.767.767 0 1 1-1.535.001.767.767 0 0 1 1.535-.001Z" opacity=".84"/><path d="M651.507 401.716a2.042 2.042 0 1 0 .002-4.084 2.042 2.042 0 0 0-.002 4.084Z" opacity=".79"/><path d="M828.793 550.294a4.398 4.398 0 1 1-8.795-.001 4.398 4.398 0 0 1 8.795.001Zm-135.211-71.191a2.689 2.689 0 1 1-5.377-.001 2.689 2.689 0 0 1 5.377.001Z" opacity=".85"/><path d="M1238.3 135.337a3.06 3.06 0 1 1-6.12 0 3.06 3.06 0 0 1 6.12 0Z" opacity=".7"/><path d="M541.86 319.32a4.043 4.043 0 1 0 0-8.086 4.043 4.043 0 0 0 0 8.086Z" opacity=".97"/><path d="M1035.99 738.7a1.7 1.7 0 1 1-3.398.002 1.7 1.7 0 0 1 3.398-.002Z" opacity=".61"/><path d="M282.031 614.742a2.878 2.878 0 1 1-5.756 0 2.878 2.878 0 0 1 5.756 0Z" opacity=".85"/><path d="M291.606 731.37a1.176 1.176 0 1 1-2.352 0 1.176 1.176 0 0 1 2.352 0Z" opacity=".67"/><path d="M220.12 564.05a4.012 4.012 0 1 1-8.024-.002 4.012 4.012 0 0 1 8.024.002Z" opacity=".85"/><path d="M777.335 259.06a.67.67 0 1 0 0-1.34.67.67 0 0 0 0 1.34Z" opacity=".97"/><path d="M242.944 37.777a4.952 4.952 0 1 1-9.903-.001 4.952 4.952 0 0 1 9.903 0Z" opacity=".89"/><path d="M621.836 182.252a.905.905 0 1 1-1.81 0 .905.905 0 0 1 1.81 0Z" opacity=".71"/><path d="M1308.08 731.963a1.03 1.03 0 1 0 0-2.064 1.03 1.03 0 0 0 0 2.064Z" opacity=".94"/><path d="M559.662 708.102a.983.983 0 1 1-1.966 0 .983.983 0 0 1 1.966 0Z" opacity=".71"/><path d="M355.576 718.383a1.761 1.761 0 1 1-3.523 0 1.761 1.761 0 0 1 3.523 0Z" opacity=".77"/><path d="M202.254 497.435a2.502 2.502 0 1 0-.001-5.003 2.502 2.502 0 0 0 .001 5.003Z" opacity=".89"/><path d="M816.628 351.698a3.608 3.608 0 1 1-7.216-.002 3.608 3.608 0 0 1 7.216.002ZM365.814 316.52a1.604 1.604 0 1 0 0-3.207 1.604 1.604 0 0 0 0 3.207Z" opacity=".96"/><path d="M120.15 107.181a2.89 2.89 0 1 1-5.779 0 2.89 2.89 0 0 1 5.779 0Z" opacity=".94"/><path d="M1348.95 629.367c0 .861-.7 1.56-1.56 1.56a1.56 1.56 0 1 1 1.56-1.56Z" opacity=".75"/><path d="M492.683 576.35a4.032 4.032 0 1 1-8.064 0 4.032 4.032 0 0 1 8.064 0Z" opacity=".79"/><path d="M1095.24 489.099a2.725 2.725 0 1 1-5.45 0 2.726 2.726 0 1 1 5.45 0Z" opacity=".72"/><path d="M1393.86 288.943c0 .938-.76 1.698-1.7 1.698-.93 0-1.7-.76-1.7-1.698s.77-1.698 1.7-1.698c.94 0 1.7.76 1.7 1.698Z" opacity=".98"/><path d="M1118.36 674.587a3.688 3.688 0 0 1-3.69 3.689 3.695 3.695 0 0 1-3.69-3.689 3.694 3.694 0 0 1 3.69-3.688c2.04 0 3.69 1.651 3.69 3.688Z" opacity=".9"/><path d="M1287.77 469.803a1.765 1.765 0 0 1-3.53 0 1.765 1.765 0 0 1 3.53 0Z" opacity=".64"/><path d="M100.917 238.214a1.15 1.15 0 1 1-2.298 0 1.15 1.15 0 0 1 2.298 0Z" opacity=".92"/><path d="M679.95 550.655a2.444 2.444 0 1 1-4.888-.002 2.444 2.444 0 0 1 4.888.002Z" opacity=".87"/><path d="M172.033 425.694a3.529 3.529 0 1 0-.002-7.058 3.529 3.529 0 0 0 .002 7.058Z" opacity=".77"/><path d="M1012.14 16.6c0 1.853-1.5 3.354-3.36 3.354a3.352 3.352 0 0 1-3.35-3.354 3.354 3.354 0 0 1 6.71 0Z" opacity=".76"/><path d="M1210.87 576.988c0 1.822-1.47 3.3-3.3 3.3-1.82 0-3.3-1.478-3.3-3.3 0-1.823 1.48-3.3 3.3-3.3 1.83 0 3.3 1.477 3.3 3.3Z" opacity=".77"/><path d="M64.14 230.728a1.107 1.107 0 1 1-2.214 0 1.107 1.107 0 0 1 2.215 0Z" opacity=".85"/><path d="M695.112 356.554a2.91 2.91 0 1 0 0-5.821 2.91 2.91 0 0 0 0 5.821Z" opacity=".72"/><path d="M332.766 649.062a.955.955 0 1 0 0-1.91.955.955 0 0 0 0 1.91Z" opacity=".71"/><path d="M868.2 452.213a1.43 1.43 0 1 1-2.861 0 1.43 1.43 0 0 1 2.861 0Z" opacity=".77"/><path d="M84.163 657.647a1.058 1.058 0 1 1-2.115 0 1.058 1.058 0 0 1 2.115 0Z" opacity=".67"/><path d="M1201 205.111a1.295 1.295 0 1 1-2.59 0 1.295 1.295 0 1 1 2.59 0Z" opacity=".61"/><path d="M171.819 420.844a.775.775 0 1 1-1.55 0 .775.775 0 0 1 1.55 0Z" opacity=".75"/><path d="M1222.4 339.292a3.178 3.178 0 0 1-3.18 3.182 3.178 3.178 0 0 1-3.18-3.182 3.18 3.18 0 1 1 6.36 0Z" opacity=".64"/><path d="M966.893 545.474a2.777 2.777 0 1 0 0-5.553 2.777 2.777 0 0 0 0 5.553Z" opacity=".67"/><path d="M773.839 101.875a1.467 1.467 0 1 1-2.935 0 1.467 1.467 0 0 1 2.935 0Z" opacity=".66"/><path d="M629.403 551.915a3.513 3.513 0 1 0-.002-7.026 3.513 3.513 0 0 0 .002 7.026Z" opacity=".71"/><path d="M1157.96 193.614c0 2.09-1.69 3.785-3.78 3.785a3.79 3.79 0 0 1-3.79-3.785 3.79 3.79 0 0 1 3.79-3.785c2.09 0 3.78 1.695 3.78 3.785Z" opacity=".89"/><path d="M997.69 178.945a4.083 4.083 0 1 1-8.166.002 4.083 4.083 0 0 1 8.166-.002Z" opacity=".69"/><path d="M481.416 730.672a3.973 3.973 0 1 0 0-7.945 3.973 3.973 0 0 0 0 7.945Z" opacity=".87"/><path d="M538.255 545.116a2.94 2.94 0 1 1-5.88 0 2.94 2.94 0 0 1 5.88 0Z" opacity=".92"/><path d="M1394.93 338.616c0 .684-.56 1.238-1.24 1.238-.68 0-1.24-.554-1.24-1.238 0-.684.56-1.238 1.24-1.238.68 0 1.24.554 1.24 1.238Z" opacity=".63"/><path d="M320.822 642.765a3.283 3.283 0 1 1-6.566 0 3.283 3.283 0 0 1 6.566 0Z" opacity=".96"/><path d="M196.288 105.835a2.815 2.815 0 1 0 0-5.63 2.815 2.815 0 0 0 0 5.63Z" opacity=".93"/><path d="M1070.62 587.856c.72 0 1.31-.59 1.31-1.318a1.316 1.316 0 1 0-2.63 0c0 .728.59 1.318 1.32 1.318Z" opacity=".77"/><path d="M733.592 462.908a1.885 1.885 0 1 0-.002-3.77 1.885 1.885 0 0 0 .002 3.77Z" opacity=".8"/><path d="M748.774 785.775a.77.77 0 1 1-1.54-.002.77.77 0 0 1 1.54.002Z" opacity=".81"/><path d="M160.178 686.152a1.345 1.345 0 1 1-2.69-.001 1.345 1.345 0 0 1 2.69.001Z" opacity=".8"/><path d="M295.174 679.697a1.283 1.283 0 1 0 0-2.567 1.283 1.283 0 0 0 0 2.567Z" opacity=".86"/><path d="M407.159 759.431a3.404 3.404 0 1 0-.001-6.807 3.404 3.404 0 0 0 .001 6.807Z" opacity=".66"/><path d="M655.781 771.875a.756.756 0 1 1-1.512 0 .756.756 0 0 1 1.512 0Z" opacity=".69"/><path d="M821.22 644.63a1.142 1.142 0 1 1-2.283 0 1.142 1.142 0 0 1 2.283 0Z" opacity=".97"/><path d="M642.925 112.299a1.778 1.778 0 1 0 0-3.556 1.778 1.778 0 0 0 0 3.556Z" opacity=".72"/><path d="M873.036 346.517a.86.86 0 1 1-1.722-.002.86.86 0 0 1 1.722.002Z" opacity=".69"/><path d="M434.551 116.515a1.03 1.03 0 1 0 0-2.06 1.03 1.03 0 0 0 0 2.06Z" opacity=".83"/><path d="M1302.37 230.333a2.375 2.375 0 1 1-4.75 0 2.375 2.375 0 1 1 4.75 0Z" opacity=".84"/><path d="M933.394 325.942a1.605 1.605 0 1 1-3.21 0 1.605 1.605 0 0 1 3.21 0Z" opacity=".7"/><path d="M1197.78 631.895a3.446 3.446 0 1 1-6.89 0 3.444 3.444 0 1 1 6.89 0Z" opacity=".82"/><path d="M175.216 138.7a3.555 3.555 0 1 1-7.111-.001 3.555 3.555 0 0 1 7.111.001Z" opacity=".61"/><path d="M918.429 85.397a1.243 1.243 0 1 0 0-2.486 1.243 1.243 0 0 0 0 2.486Z" opacity=".81"/><path d="M419.039 506.542a2.824 2.824 0 1 1-5.648 0 2.824 2.824 0 0 1 5.648 0Z" opacity=".93"/><path d="M824.935 191.201a.836.836 0 1 1-1.673 0 .836.836 0 0 1 1.673 0Z" opacity=".95"/><path d="M1092.6 19.867a2.528 2.528 0 1 0 0-5.057 2.534 2.534 0 0 0-2.53 2.528 2.534 2.534 0 0 0 2.53 2.529Z" opacity=".89"/><path d="M347.671 117.978a1.644 1.644 0 1 1-3.288 0 1.644 1.644 0 0 1 3.288 0Z" opacity=".96"/><path d="M135.218 59.68a1.936 1.936 0 1 1-3.871-.002 1.936 1.936 0 0 1 3.871.001Z" opacity=".76"/><path d="M743.56 677.613a1.09 1.09 0 1 0 0-2.18 1.09 1.09 0 0 0 0 2.18Z" opacity=".95"/><path d="M970.697 212.601a.923.923 0 1 1-1.845 0 .923.923 0 0 1 1.845 0Z" opacity=".8"/><path d="M855.982 682.056a1.309 1.309 0 1 0 0-2.618 1.309 1.309 0 0 0 0 2.618Z" opacity=".9"/><path d="M1028.44 406.626a1.465 1.465 0 0 1-2.93 0 1.466 1.466 0 0 1 2.93 0Z" opacity=".69"/><path d="M71.93 96.098a3.032 3.032 0 1 1-6.065 0 3.032 3.032 0 0 1 6.064 0Z" opacity=".67"/><path d="M1305.61 185.513c.96 0 1.73-.774 1.73-1.729 0-.954-.77-1.728-1.73-1.728-.95 0-1.73.774-1.73 1.728 0 .955.78 1.729 1.73 1.729Z" opacity=".79"/><path d="M1355.17 102.28c.81 0 1.48-.663 1.48-1.482a1.486 1.486 0 0 0-2.97 0c0 .819.67 1.482 1.49 1.482Z" opacity=".97"/><path d="M1227.16 706.516c0 .607-.49 1.1-1.1 1.1-.61 0-1.1-.493-1.1-1.1a1.099 1.099 0 1 1 2.2 0Z" opacity=".73"/><path d="M383.075 198.744a1.352 1.352 0 1 1-2.703 0 1.352 1.352 0 0 1 2.703 0Z" opacity=".9"/><path d="M1378.87 709.63a1.007 1.007 0 1 0 0-2.015c-.55 0-1 .451-1 1.008 0 .556.45 1.007 1 1.007Z" opacity=".95"/><path d="M240.814 191.486a1.608 1.608 0 1 1-3.217.001 1.608 1.608 0 0 1 3.217-.001Z" opacity=".71"/><path d="M773.583 79.98a.632.632 0 1 1-1.263-.001.632.632 0 0 1 1.263 0Z" opacity=".68"/><path d="M1200.84 86.743c.71 0 1.29-.577 1.29-1.288a1.29 1.29 0 0 0-2.58 0c0 .711.58 1.288 1.29 1.288Z" opacity=".83"/><path d="M448.836 278.168a.853.853 0 1 1-1.706 0 .853.853 0 0 1 1.706 0Z" opacity=".91"/><path d="M109.333 734.297a.896.896 0 1 1-1.792 0 .896.896 0 0 1 1.792 0Z" opacity=".95"/><path d="M80.97 638.957a1.631 1.631 0 1 1-3.261 0 1.631 1.631 0 0 1 3.262 0Z" opacity=".66"/><path d="M985.902 790.824a1.969 1.969 0 1 1-3.937-.001 1.969 1.969 0 0 1 3.937.001Z" opacity=".64"/><path d="M725.225 663.99a2.216 2.216 0 1 1-4.432 0 2.216 2.216 0 0 1 4.432 0Z" opacity=".71"/><path d="M364.887 250.931a3.564 3.564 0 1 0 0-7.127 3.564 3.564 0 0 0 0 7.127Z" opacity=".74"/><path d="M292.496 176.154a1.2 1.2 0 1 1-2.401 0 1.2 1.2 0 0 1 2.401 0Z" opacity=".75"/><path d="M539.791 159.59a.815.815 0 1 1-1.63 0 .815.815 0 0 1 1.63 0Z" opacity=".88"/><path d="M1421.96 425.535a1.31 1.31 0 0 1-1.31 1.305c-.72 0-1.3-.584-1.3-1.305 0-.72.58-1.305 1.3-1.305.72 0 1.31.585 1.31 1.305Z" opacity=".83"/><path d="M1071.2 82.57a1.37 1.37 0 1 1-2.74 0 1.37 1.37 0 1 1 2.74 0Z" opacity=".79"/><path d="M1156.17 567.61a.733.733 0 0 0 0-1.465c-.41 0-.74.328-.74.732 0 .405.33.733.74.733Z" opacity=".67"/><path d="M77.221 149.991a1.71 1.71 0 1 0 0-3.418 1.71 1.71 0 0 0 0 3.418Z" opacity=".6"/><path d="M542.65 462.51a.753.753 0 1 1-1.505-.001.753.753 0 0 1 1.505.001Z" opacity=".94"/><path d="M332.559 486.252a1.505 1.505 0 1 0 0-3.01 1.505 1.505 0 0 0 0 3.01Z" opacity=".77"/><path d="M323.478 108.147a.916.916 0 1 0 0-1.831.916.916 0 0 0 0 1.831Z" opacity=".87"/><path d="M84.286 320.283a1.543 1.543 0 1 0 0-3.085 1.543 1.543 0 0 0 0 3.085Z" opacity=".9"/><path d="M354.511 444.913a3.365 3.365 0 1 1-6.73 0 3.365 3.365 0 0 1 6.73 0Z" opacity=".73"/><path d="M649.138 82.474a3.676 3.676 0 1 0 0-7.352 3.676 3.676 0 0 0 0 7.352Z" opacity=".8"/><path d="M257.752 458.828a1.796 1.796 0 1 1-3.592 0 1.796 1.796 0 0 1 3.592 0Z" opacity=".75"/><path d="M516.125 407.363a2.428 2.428 0 1 1-4.856 0 2.428 2.428 0 0 1 4.856 0Z" opacity=".66"/><path d="M537.12 236.882a1.775 1.775 0 1 1-3.55 0 1.775 1.775 0 0 1 3.55 0Z" opacity=".98"/><path d="M1186.91 335.073a2.63 2.63 0 0 1-2.63 2.626 2.62 2.62 0 0 1-2.62-2.626c0-1.45 1.17-2.626 2.62-2.626a2.63 2.63 0 0 1 2.63 2.626Z" opacity=".77"/><path d="M713.414 191.671a2.028 2.028 0 1 1-4.055-.001 2.028 2.028 0 0 1 4.055.001Z" opacity=".94"/><path d="M118.861 578.38a3.87 3.87 0 1 0 0-7.742 3.87 3.87 0 0 0 0 7.742Z" opacity=".62"/><path d="M215.376 130.381a.911.911 0 1 1-1.822-.002.911.911 0 0 1 1.822.002Z" opacity=".93"/><path d="M295.692 308.389a1.048 1.048 0 1 1-2.095.001 1.048 1.048 0 0 1 2.095-.001Z" opacity=".95"/><path d="M323.608 251.698a1.519 1.519 0 1 1-3.038 0 1.519 1.519 0 0 1 3.038 0Z" opacity=".62"/><path d="M806.088 87.148a1.203 1.203 0 1 0 0-2.406 1.203 1.203 0 0 0 0 2.406Z" opacity=".6"/><path d="M1051.98 491.574a1.625 1.625 0 0 1-3.25 0 1.625 1.625 0 0 1 3.25 0Z" opacity=".72"/><path d="M728.949 620.852a1.761 1.761 0 1 1-3.523 0 1.761 1.761 0 0 1 3.523 0Z" opacity=".88"/><path d="M632.648 537.313a1.282 1.282 0 1 1-2.564 0 1.282 1.282 0 0 1 2.564 0Z" opacity=".72"/><path d="M475.134 18.597a3.416 3.416 0 1 1-6.831.001 3.416 3.416 0 0 1 6.831 0Z" opacity=".86"/><path d="M594.221 58.603a3.095 3.095 0 1 1-6.19 0 3.095 3.095 0 0 1 6.19 0Z" opacity=".6"/><path d="M199.69 304.75a1.327 1.327 0 1 0 0-2.654 1.327 1.327 0 0 0 0 2.654Z" opacity=".71"/><path d="M1307.38 561.157a1.74 1.74 0 1 1-3.481-.001 1.74 1.74 0 0 1 3.481.001Z" opacity=".86"/><path d="M890.905 116.29a1.06 1.06 0 1 1-2.12.002 1.06 1.06 0 0 1 2.12-.002Z" opacity=".81"/><path d="M470.57 590.921a2.515 2.515 0 1 0 .001-5.03 2.515 2.515 0 0 0-.001 5.03Z" opacity=".83"/><path d="M774.778 283.001a1.69 1.69 0 1 0-.001-3.38 1.69 1.69 0 0 0 .001 3.38Z" opacity=".78"/><path d="M1055.83 305.75c.73 0 1.31-.586 1.31-1.309 0-.724-.58-1.31-1.31-1.31-.72 0-1.31.586-1.31 1.31 0 .723.59 1.309 1.31 1.309Z" opacity=".9"/><path d="M375.21 142.77a2.728 2.728 0 1 1-5.456 0 2.728 2.728 0 0 1 5.456 0Z" opacity=".74"/><path d="M1287.37 732.97a2.565 2.565 0 1 1-5.13-.002 2.565 2.565 0 0 1 5.13.002Z" opacity=".95"/><path d="M115.352 429.209a1.447 1.447 0 1 1-2.894-.002 1.447 1.447 0 0 1 2.894.002ZM19.279 261.453a1.235 1.235 0 1 0 0-2.47 1.235 1.235 0 0 0 0 2.47Z" opacity=".83"/><path d="M922.446 418.499a.825.825 0 1 0 0-1.65.825.825 0 0 0 0 1.65Z" opacity=".82"/><path d="M970.225 362.882a.587.587 0 1 0 0-1.173.587.587 0 0 0 0 1.173Z" opacity=".92"/><path d="M808.667 797.214a1.664 1.664 0 1 1-3.328 0 1.664 1.664 0 0 1 3.328 0Z" opacity=".61"/><path d="M820.599 555.838a2.433 2.433 0 1 0 0-4.867 2.433 2.433 0 0 0 0 4.867Z" opacity=".75"/><path d="M118.344 735.293a1.051 1.051 0 1 1-2.102.002 1.051 1.051 0 0 1 2.102-.002Z" opacity=".76"/><path d="M107.146 417.668a3.473 3.473 0 1 1-6.947 0 3.473 3.473 0 0 1 6.947 0Z" opacity=".9"/><path d="M1312.64 258.128a1.195 1.195 0 0 1-2.39 0 1.195 1.195 0 0 1 2.39 0Z" opacity=".92"/><path d="M1311.57 14.46c0 1.845-1.49 3.34-3.34 3.34a3.343 3.343 0 0 1-3.34-3.34c0-1.844 1.5-3.339 3.34-3.339 1.85 0 3.34 1.495 3.34 3.34Z" opacity=".7"/><path d="M986.413 245.695a1.485 1.485 0 1 0 0-2.97 1.485 1.485 0 0 0 0 2.97Z" opacity=".95"/></g></g></svg>