<svg xmlns="http://www.w3.org/2000/svg" fill-rule="evenodd" stroke-linejoin="round" stroke-miterlimit="2" clip-rule="evenodd" viewBox="0 0 500 500"><g fill="#f2f2f2" opacity=".1"><path fill-rule="nonzero" d="M486.6 498.3c-1.2 0-2.3.7-2.9 1.7h5.9c-.7-1-1.8-1.7-3-1.7Zm-194.9.7c-.7 0-1.3.4-1.7 1h3.3c-.3-.6-.9-1-1.6-1ZM500 108.9c-1.1.7-1.9 2-1.9 3.4s.8 2.7 1.9 3.4v-6.8Zm-1.9-89.3c0 1.2.8 2.2 1.9 2.6V17c-1.1.4-1.9 1.4-1.9 2.6ZM185.3 380.5c2 0 3.6-1.6 3.6-3.6s-1.6-3.6-3.6-3.6-3.6 1.6-3.6 3.6 1.6 3.6 3.6 3.6Zm260.1 101.8c1.1 0 2-.9 2-2s-.9-2-2-2-2 .9-2 2c-.1 1.1.9 2 2 2Zm-229.6-69.1c1.2 0 2.2-1 2.2-2.2 0-1.2-1-2.2-2.2-2.2-1.2 0-2.2 1-2.2 2.2 0 1.3 1 2.2 2.2 2.2Zm21.5-11.5c1.7 0 3-1.4 3-3 0-1.7-1.4-3-3-3-1.7 0-3 1.4-3 3-.1 1.7 1.3 3 3 3Zm-36-151.2c2.2 0 4-1.8 4-4s-1.8-4-4-4-4 1.8-4 4 1.8 4 4 4Zm-188.4 236c-1.5 0-2.6 1.2-2.6 2.6 0 1.5 1.2 2.6 2.6 2.6 1.5 0 2.6-1.2 2.6-2.6.1-1.4-1.1-2.6-2.6-2.6Zm199-122.6c1.9 0 3.4-1.5 3.4-3.4s-1.5-3.4-3.4-3.4-3.4 1.5-3.4 3.4 1.5 3.4 3.4 3.4Zm189-12.6c1 0 1.9-.8 1.9-1.9 0-1.1-.8-1.9-1.9-1.9-1.1 0-1.9.8-1.9 1.9 0 1.1.9 1.9 1.9 1.9Z"/><circle cx="206.6" cy="217.1" r="1.7"/><path fill-rule="nonzero" d="M455.8 6.3c-1.1 0-1.9.9-1.9 1.9 0 1.1.9 1.9 1.9 1.9 1.1 0 1.9-.9 1.9-1.9 0-1.1-.9-1.9-1.9-1.9ZM106.9 352.7c0-2.2-1.8-4-4-4s-4 1.8-4 4 1.8 4 4 4 4-1.8 4-4Zm90.7 50.2c0-2.2-1.8-4-4-4s-4 1.8-4 4 1.8 4 4 4 4-1.8 4-4Zm216.9-370c0-.8-.7-1.5-1.5-1.5s-1.5.7-1.5 1.5.7 1.5 1.5 1.5c.8.1 1.5-.6 1.5-1.5Zm57 466.1c1.6 0 3-1.3 3-3 0-1.6-1.3-3-3-3-1.6 0-3 1.3-3 3 .1 1.7 1.4 3 3 3Zm-55.2-38.7c2.3 0 4.2-1.9 4.2-4.2 0-2.3-1.9-4.2-4.2-4.2-2.3 0-4.2 1.9-4.2 4.2 0 2.3 1.9 4.2 4.2 4.2Zm-144.6-82.1c0-2.2-1.8-4-4-4s-4 1.8-4 4 1.8 4 4 4 4-1.8 4-4ZM70.1 355.9c0-1.9-1.5-3.4-3.4-3.4s-3.4 1.5-3.4 3.4 1.5 3.4 3.4 3.4c1.8-.1 3.4-1.6 3.4-3.4Z"/><circle cx="341.9" cy="21.4" r="3.2"/><path fill-rule="nonzero" d="M469.3 441.1c1.3 0 2.4-1.1 2.4-2.4 0-1.3-1.1-2.4-2.4-2.4-1.3 0-2.4 1.1-2.4 2.4 0 1.3 1.1 2.4 2.4 2.4Zm-414.9-234c-1.3 0-2.4 1.1-2.4 2.4 0 1.3 1.1 2.4 2.4 2.4 1.3 0 2.4-1.1 2.4-2.4 0-1.3-1.1-2.4-2.4-2.4Zm84.2-105.5c1.5 0 2.7-1.2 2.7-2.7 0-1.5-1.2-2.7-2.7-2.7-1.5 0-2.7 1.2-2.7 2.7 0 1.5 1.2 2.7 2.7 2.7Z"/><circle cx="298.9" cy="237.8" r="2.5"/><path fill-rule="nonzero" d="M308.1 47.4c0-2.3-1.9-4.2-4.2-4.2-2.3 0-4.2 1.9-4.2 4.2 0 2.3 1.9 4.2 4.2 4.2 2.3 0 4.2-1.9 4.2-4.2ZM167.1 367c2.1 0 3.7-1.7 3.7-3.7s-1.7-3.7-3.7-3.7c-2.1 0-3.7 1.7-3.7 3.7s1.6 3.7 3.7 3.7ZM309.8 97.6c-2 0-3.6 1.6-3.6 3.6s1.6 3.6 3.6 3.6 3.6-1.6 3.6-3.6-1.6-3.6-3.6-3.6ZM201.5 472.1c1.3 0 2.3-1 2.3-2.3 0-1.3-1-2.3-2.3-2.3-1.3 0-2.3 1-2.3 2.3.1 1.2 1.1 2.3 2.3 2.3Zm156.1-250c0-1.7-1.4-3.1-3.1-3.1-1.7 0-3.1 1.4-3.1 3.1 0 1.7 1.4 3.1 3.1 3.1 1.7 0 3.1-1.4 3.1-3.1Z"/><circle cx="316.9" cy="198.7" r="1.7"/><circle cx="373.8" cy="46.2" r="2.6"/><circle cx="468.5" cy="338.7" r="2.5"/><path fill-rule="nonzero" d="M342.6 67.3c0-.9-.8-1.7-1.7-1.7-.9 0-1.7.8-1.7 1.7 0 .9.8 1.7 1.7 1.7.9 0 1.7-.8 1.7-1.7ZM187.7 85.8c0 .9.7 1.6 1.6 1.6.9 0 1.6-.7 1.6-1.6 0-.9-.7-1.6-1.6-1.6-.9 0-1.6.7-1.6 1.6Z"/><circle cx="178.2" cy="318.2" r="1.6"/><circle cx="182.4" cy="298.4" r="1.8"/><path fill-rule="nonzero" d="M211.6 307.9c0 .9.7 1.6 1.6 1.6.9 0 1.6-.7 1.6-1.6 0-.9-.7-1.6-1.6-1.6-.9 0-1.6.7-1.6 1.6Z"/><circle cx="445.1" cy="29.3" r="1.7"/><path fill-rule="nonzero" d="M118.4 335.2c1.1 0 2-.9 2-2s-.9-2-2-2-2 .9-2 2 .8 2 2 2Zm357-17.8c0-1.3-1.1-2.4-2.4-2.4-1.3 0-2.4 1.1-2.4 2.4 0 1.3 1.1 2.4 2.4 2.4 1.3 0 2.4-1 2.4-2.4ZM117.5 183.5c2 0 3.6-1.6 3.6-3.6s-1.6-3.6-3.6-3.6-3.6 1.6-3.6 3.6 1.6 3.6 3.6 3.6Zm123.7-52.1c2.2 0 3.9-1.8 3.9-3.9 0-2.2-1.8-3.9-3.9-3.9-2.2 0-3.9 1.8-3.9 3.9-.1 2.1 1.7 3.9 3.9 3.9Zm-168 13.3c1.3 0 2.3-1 2.3-2.3 0-1.3-1-2.3-2.3-2.3-1.3 0-2.3 1-2.3 2.3 0 1.3 1.1 2.3 2.3 2.3Zm264.9 170.6c0-.9-.7-1.6-1.6-1.6-.9 0-1.6.7-1.6 1.6 0 .9.7 1.6 1.6 1.6.8 0 1.6-.7 1.6-1.6Z"/><circle cx="61.9" cy="382.1" r="3.7"/><circle cx="459.9" cy="47.9" r="3.1"/><path fill-rule="nonzero" d="M423.2 7.6c-1 0-1.8.8-1.8 1.8s.8 1.8 1.8 1.8 1.8-.8 1.8-1.8-.8-1.8-1.8-1.8Zm-87 419.7c0-1.9-1.6-3.5-3.5-3.5s-3.5 1.6-3.5 3.5 1.6 3.5 3.5 3.5 3.5-1.6 3.5-3.5Z"/><circle cx="58.9" cy="486.7" r="3.2"/><path fill-rule="nonzero" d="M417.2 247.3c0 1.7 1.4 3.1 3.1 3.1 1.7 0 3.1-1.4 3.1-3.1 0-1.7-1.4-3.1-3.1-3.1-1.7.1-3.1 1.4-3.1 3.1ZM483.1 1.8c0 1.9 1.5 3.5 3.5 3.5s3.5-1.5 3.5-3.5c0-.7-.2-1.3-.5-1.8h-5.9c-.4.5-.6 1.1-.6 1.8Z"/><circle cx="205.8" cy="385.6" r="1.9"/><path fill-rule="nonzero" d="M7.4 191.1c0 2.2 1.8 3.9 3.9 3.9 2.2 0 3.9-1.8 3.9-3.9 0-2.1-1.8-3.9-3.9-3.9-2.1-.1-3.9 1.7-3.9 3.9Z"/><circle cx="463.2" cy="25.5" r="2.2"/><path fill-rule="nonzero" d="M171.1 245.7c-.9 0-1.7.8-1.7 1.7 0 .9.8 1.7 1.7 1.7.9 0 1.7-.8 1.7-1.7 0-1-.8-1.7-1.7-1.7Zm183.4-79.8c2.2 0 4-1.8 4-4s-1.8-4-4-4-4 1.8-4 4c-.1 2.2 1.7 4 4 4Z"/><circle cx="187.4" cy="429.4" r="3.5"/><circle cx="131" cy="358.5" r="3.6"/><circle cx="298.8" cy="445.7" r="2.3"/><path fill-rule="nonzero" d="M233.9 290.6c-1.9 0-3.5 1.6-3.5 3.5s1.6 3.5 3.5 3.5 3.5-1.6 3.5-3.5-1.5-3.5-3.5-3.5ZM41.8 485.5c1.4 0 2.5-1.1 2.5-2.5s-1.1-2.5-2.5-2.5-2.5 1.1-2.5 2.5c-.1 1.3 1.1 2.5 2.5 2.5Zm117.9-61.3c0-1.8-1.5-3.3-3.3-3.3-1.8 0-3.3 1.5-3.3 3.3 0 1.8 1.5 3.3 3.3 3.3 1.8 0 3.3-1.4 3.3-3.3Zm-.9-410.3c-1.4 0-2.5 1.1-2.5 2.5s1.1 2.5 2.5 2.5 2.5-1.1 2.5-2.5-1.1-2.5-2.5-2.5Z"/><circle cx="408.7" cy="59.5" r="2.6"/><path fill-rule="nonzero" d="M385 470.3c-1.1 0-1.9.9-1.9 1.9 0 1.1.9 1.9 1.9 1.9 1.1 0 1.9-.9 1.9-1.9.1-1-.8-1.9-1.9-1.9Zm-222.1-330c0-1.1-.9-2-2-2s-2 .9-2 2 .9 2 2 2 2-.9 2-2Zm110.7 149.5c-1 0-1.8.8-1.8 1.8s.8 1.8 1.8 1.8 1.8-.8 1.8-1.8-.8-1.8-1.8-1.8Z"/><circle cx="128.6" cy="401.4" r="2.4"/><path fill-rule="nonzero" d="M15.6 65.7c-1.4 0-2.5 1.1-2.5 2.5s1.1 2.5 2.5 2.5 2.5-1.1 2.5-2.5-1.1-2.5-2.5-2.5Z"/><circle cx="282.3" cy="131.3" r="3.8"/><path fill-rule="nonzero" d="M378.6 137.5c-1 0-1.9.8-1.9 1.9 0 1.1.8 1.9 1.9 1.9 1.1 0 1.9-.8 1.9-1.9 0-1.1-.9-1.9-1.9-1.9Zm-181.3-21.6c-1.2 0-2.2 1-2.2 2.2 0 1.2 1 2.2 2.2 2.2 1.2 0 2.2-1 2.2-2.2 0-1.2-1-2.2-2.2-2.2ZM243 223c1.3 0 2.4-1.1 2.4-2.4 0-1.3-1.1-2.4-2.4-2.4-1.3 0-2.4 1.1-2.4 2.4 0 1.3 1.1 2.4 2.4 2.4Zm215.7 79.7c0-1-.8-1.9-1.9-1.9-1 0-1.9.8-1.9 1.9 0 1 .8 1.9 1.9 1.9 1 0 1.9-.9 1.9-1.9Z"/><circle cx="100.3" cy="459.5" r="2.3"/><path fill-rule="nonzero" d="M325.4 242.2c0-1.8-1.4-3.2-3.2-3.2-1.8 0-3.2 1.4-3.2 3.2 0 1.8 1.4 3.2 3.2 3.2 1.8.1 3.2-1.4 3.2-3.2Z"/><circle cx="408.2" cy="481.9" r="2.5"/><path fill-rule="nonzero" d="M6.3 112.3c0-2.3-1.8-4.1-4.1-4.1-.8 0-1.6.2-2.2.7v6.9c.6.4 1.4.7 2.2.7 2.3-.1 4.1-1.9 4.1-4.2Z"/><circle cx="407.9" cy="210.9" r="2.5"/><path fill-rule="nonzero" d="M332 451.5c0-1.3-1.1-2.4-2.4-2.4-1.3 0-2.4 1.1-2.4 2.4 0 1.3 1.1 2.4 2.4 2.4 1.3 0 2.4-1.1 2.4-2.4Z"/><circle cx="287.7" cy="153.7" r="3.9"/><path fill-rule="nonzero" d="M491.3 351.5c-1.9 0-3.5 1.6-3.5 3.5s1.6 3.5 3.5 3.5 3.5-1.6 3.5-3.5c0-2-1.6-3.5-3.5-3.5ZM390.6 314c1.1 0 1.9-.9 1.9-1.9 0-1.1-.9-1.9-1.9-1.9-1.1 0-1.9.9-1.9 1.9 0 1 .8 1.9 1.9 1.9Zm-94 175.7c1.1 0 2-.9 2-2s-.9-2-2-2-2 .9-2 2 .9 2 2 2Zm29-267.7c0 1.5 1.2 2.8 2.8 2.8 1.5 0 2.8-1.2 2.8-2.8 0-1.5-1.2-2.8-2.8-2.8-1.6 0-2.8 1.2-2.8 2.8Zm-34.5 89.4c0 1 .8 1.8 1.8 1.8s1.8-.8 1.8-1.8-.8-1.8-1.8-1.8c-.9 0-1.8.8-1.8 1.8ZM27.5 245.3c2.2 0 3.9-1.8 3.9-3.9 0-2.2-1.8-3.9-3.9-3.9-2.1 0-3.9 1.8-3.9 3.9 0 2.1 1.7 3.9 3.9 3.9Zm291.3 89.2c1.3 0 2.4-1.1 2.4-2.4 0-1.3-1.1-2.4-2.4-2.4-1.3 0-2.4 1.1-2.4 2.4 0 1.3 1.1 2.4 2.4 2.4Zm-155-151.1c.9 0 1.6-.7 1.6-1.6 0-.9-.7-1.6-1.6-1.6-.9 0-1.6.7-1.6 1.6 0 .9.7 1.6 1.6 1.6Zm216 40.8c0-1.5-1.2-2.7-2.7-2.7-1.5 0-2.7 1.2-2.7 2.7 0 1.5 1.2 2.7 2.7 2.7 1.5 0 2.7-1.2 2.7-2.7ZM34.5 45.8c1.8 0 3.2-1.4 3.2-3.2 0-1.8-1.4-3.2-3.2-3.2-1.8 0-3.2 1.4-3.2 3.2 0 1.8 1.4 3.2 3.2 3.2Zm-2.3 287.7c1.8 0 3.2-1.4 3.2-3.2 0-1.8-1.4-3.2-3.2-3.2-1.8 0-3.2 1.4-3.2 3.2 0 1.8 1.5 3.2 3.2 3.2ZM302.5 275c0 .9.8 1.7 1.7 1.7.9 0 1.7-.8 1.7-1.7 0-.9-.8-1.7-1.7-1.7-1 0-1.7.8-1.7 1.7ZM9.4 339.7c0 1 .8 1.8 1.8 1.8s1.8-.8 1.8-1.8-.8-1.8-1.8-1.8-1.8.8-1.8 1.8Zm311.5-208.4c1.5 0 2.8-1.3 2.8-2.8 0-1.5-1.3-2.8-2.8-2.8-1.5 0-2.8 1.3-2.8 2.8 0 1.6 1.2 2.8 2.8 2.8ZM120.8 443.7c1.9 0 3.5-1.6 3.5-3.5s-1.6-3.5-3.5-3.5-3.5 1.6-3.5 3.5 1.6 3.5 3.5 3.5Z"/><circle cx="189" cy="53.1" r="1.9"/><path fill-rule="nonzero" d="M488.7 472.7c1.9 0 3.4-1.5 3.4-3.4s-1.5-3.4-3.4-3.4-3.4 1.5-3.4 3.4c-.1 1.8 1.5 3.4 3.4 3.4Zm-85.4-187.5c-1.2 0-2.2 1-2.2 2.2 0 1.2 1 2.2 2.2 2.2 1.2 0 2.2-1 2.2-2.2 0-1.2-1-2.2-2.2-2.2ZM214.1 61.9c0-2.2-1.7-3.9-3.9-3.9s-3.9 1.7-3.9 3.9 1.7 3.9 3.9 3.9 3.9-1.7 3.9-3.9Zm250.4 116.3c0 .8.7 1.5 1.5 1.5s1.5-.7 1.5-1.5-.7-1.5-1.5-1.5c-.9 0-1.5.7-1.5 1.5ZM227.8 490.7c1.8 0 3.3-1.5 3.3-3.3 0-1.8-1.5-3.3-3.3-3.3-1.8 0-3.3 1.5-3.3 3.3-.1 1.8 1.4 3.3 3.3 3.3Zm-167.4-86c0-.8-.7-1.5-1.5-1.5s-1.5.7-1.5 1.5.7 1.5 1.5 1.5 1.5-.6 1.5-1.5Z"/><circle cx="28.7" cy="85.4" r="1.5"/><path fill-rule="nonzero" d="M329.9 76.1c-1.1 0-1.9.9-1.9 1.9 0 1.1.9 1.9 1.9 1.9 1.1 0 1.9-.9 1.9-1.9 0-1-.8-1.9-1.9-1.9Zm52.3 347.1c0-1.1-.9-1.9-1.9-1.9-1 0-1.9.9-1.9 1.9 0 1 .9 1.9 1.9 1.9 1 0 1.9-.8 1.9-1.9Z"/><circle cx="388.7" cy="201.6" r="1.5"/><path fill-rule="nonzero" d="M107 196.8c0 .8.7 1.5 1.5 1.5s1.5-.7 1.5-1.5-.7-1.5-1.5-1.5-1.5.7-1.5 1.5ZM38.3 456.4c2.1 0 3.8-1.7 3.8-3.8 0-2.1-1.7-3.8-3.8-3.8-2.1 0-3.8 1.7-3.8 3.8 0 2.1 1.7 3.8 3.8 3.8Z"/><circle cx="185.3" cy="223.7" r="4.2"/><path fill-rule="nonzero" d="M361.1 19.6c1 0 1.7-.8 1.7-1.7 0-1-.8-1.7-1.7-1.7-1 0-1.7.8-1.7 1.7 0 .9.8 1.7 1.7 1.7Zm-169.4 476c1.7 0 3.1-1.4 3.1-3.1 0-1.7-1.4-3.1-3.1-3.1-1.7 0-3.1 1.4-3.1 3.1.1 1.7 1.4 3.1 3.1 3.1Z"/><circle cx="400.6" cy="71" r="4.1"/><path fill-rule="nonzero" d="M391.4 159.9c0-1.1-.9-2.1-2.1-2.1-1.2 0-2.1.9-2.1 2.1 0 1.2.9 2.1 2.1 2.1 1.2-.1 2.1-1 2.1-2.1Z"/><circle cx="355.5" cy="386.1" r="3.1"/><path fill-rule="nonzero" d="M169.3 272.1c1.5 0 2.7-1.2 2.7-2.7 0-1.5-1.2-2.7-2.7-2.7-1.5 0-2.7 1.2-2.7 2.7 0 1.5 1.2 2.7 2.7 2.7Z"/><circle cx="17.2" cy="171.3" r="2.2"/><path fill-rule="nonzero" d="M79.1 26.8c0 .9.7 1.6 1.6 1.6.9 0 1.6-.7 1.6-1.6 0-.9-.7-1.6-1.6-1.6-.9 0-1.6.7-1.6 1.6Zm284.3 262.6c0-2.3-1.9-4.2-4.2-4.2-2.3 0-4.2 1.9-4.2 4.2 0 2.3 1.9 4.2 4.2 4.2 2.4 0 4.2-1.9 4.2-4.2Zm47.8-168.1c0-.8-.7-1.5-1.5-1.5s-1.5.7-1.5 1.5.7 1.5 1.5 1.5 1.5-.7 1.5-1.5ZM443 322.4c1.5 0 2.7-1.2 2.7-2.7 0-1.5-1.2-2.7-2.7-2.7-1.5 0-2.7 1.2-2.7 2.7.1 1.5 1.3 2.7 2.7 2.7ZM314.9 26.5c0-1.3-1-2.3-2.3-2.3-1.3 0-2.3 1-2.3 2.3 0 1.3 1 2.3 2.3 2.3 1.3 0 2.3-1 2.3-2.3ZM79.5 244.3c1.7 0 3.1-1.4 3.1-3.1 0-1.7-1.4-3.1-3.1-3.1-1.7 0-3.1 1.4-3.1 3.1 0 1.7 1.4 3.1 3.1 3.1Zm-47.1 34.2c0 1.7 1.4 3.1 3.1 3.1 1.7 0 3.1-1.4 3.1-3.1 0-1.7-1.4-3.1-3.1-3.1-1.8 0-3.1 1.4-3.1 3.1Z"/><circle cx="129" cy="491.8" r="3.1"/><path fill-rule="nonzero" d="M158.7 340.3c1 0 1.8-.8 1.8-1.8s-.8-1.8-1.8-1.8-1.8.8-1.8 1.8c-.1 1 .8 1.8 1.8 1.8Z"/><circle cx="266.9" cy="464.1" r="1.6"/><path fill-rule="nonzero" d="M405.5 386c1.7 0 3-1.4 3-3 0-1.7-1.4-3-3-3-1.7 0-3 1.4-3 3 0 1.7 1.3 3 3 3Zm-247.2-97.4c0-1.4-1.1-2.5-2.5-2.5s-2.5 1.1-2.5 2.5 1.1 2.5 2.5 2.5 2.5-1.1 2.5-2.5Zm-40.9-164.2c0-.8-.7-1.5-1.5-1.5s-1.5.7-1.5 1.5.7 1.5 1.5 1.5c.9 0 1.5-.6 1.5-1.5Zm-34.6-12.1c-1.1 0-2.1.9-2.1 2.1 0 1.1.9 2.1 2.1 2.1 1.1 0 2.1-.9 2.1-2.1-.1-1.2-1-2.1-2.1-2.1Zm204.8 268.2c-2.2 0-3.9 1.8-3.9 3.9 0 2.2 1.8 3.9 3.9 3.9 2.2 0 3.9-1.8 3.9-3.9 0-2.2-1.7-3.9-3.9-3.9Zm-35.7 108.4c1.1 0 2-.9 2-2s-.9-2-2-2-2 .9-2 2 .9 2 2 2Zm101.2-360.6c0-2.1-1.7-3.8-3.8-3.8-2.1 0-3.8 1.7-3.8 3.8 0 2.1 1.7 3.8 3.8 3.8 2.1 0 3.8-1.7 3.8-3.8ZM0 22.2c.3.1.5.1.8.1 1.5 0 2.7-1.2 2.7-2.7 0-1.5-1.2-2.7-2.7-2.7-.3 0-.6.1-.8.1v5.2Z"/><circle cx="250.8" cy="173.8" r="3"/><circle cx="327.5" cy="480.2" r="3.3"/><path fill-rule="nonzero" d="M303.5 63.8c-1.8 0-3.2 1.4-3.2 3.2 0 1.8 1.4 3.2 3.2 3.2 1.8 0 3.2-1.4 3.2-3.2 0-1.8-1.4-3.2-3.2-3.2Zm-281 351.9c.8 0 1.5-.7 1.5-1.5s-.7-1.5-1.5-1.5-1.5.7-1.5 1.5.6 1.5 1.5 1.5Zm349.2-76.6c2 0 3.6-1.6 3.6-3.6s-1.6-3.6-3.6-3.6-3.6 1.6-3.6 3.6 1.6 3.6 3.6 3.6Zm-166.4-17.7c-1.5 0-2.8 1.2-2.8 2.8 0 1.5 1.2 2.8 2.8 2.8 1.6 0 2.8-1.2 2.8-2.8 0-1.5-1.2-2.8-2.8-2.8ZM310.4 464c1.5 0 2.8-1.2 2.8-2.8 0-1.5-1.2-2.8-2.8-2.8-1.5 0-2.8 1.2-2.8 2.8 0 1.6 1.3 2.8 2.8 2.8Zm172.1-174c0-1-.8-1.7-1.7-1.7-.9 0-1.8.7-1.8 1.7s.8 1.7 1.7 1.7c.9 0 1.8-.7 1.8-1.7Z"/><circle cx="235.3" cy="341.6" r="4.1"/><path fill-rule="nonzero" d="M126.9 55.7c0 1.1.9 1.9 1.9 1.9 1.1 0 1.9-.9 1.9-1.9 0-1.1-.9-1.9-1.9-1.9-1.1 0-1.9.9-1.9 1.9Zm6.7 328.1c.9 0 1.6-.7 1.6-1.6 0-.9-.7-1.6-1.6-1.6-.9 0-1.6.7-1.6 1.6 0 .9.7 1.6 1.6 1.6Z"/><circle cx="170.8" cy="435.6" r="1.8"/><circle cx="304.3" cy="295" r="4.1"/><path fill-rule="nonzero" d="M422.8 269.1c-1.1 0-2 .9-2 2s.9 2 2 2 2-.9 2-2c-.1-1.1-.9-2-2-2ZM7.8 440.3c-2.3 0-4.1 1.9-4.1 4.1 0 2.3 1.9 4.1 4.1 4.1 2.3 0 4.1-1.9 4.1-4.1.1-2.2-1.8-4.1-4.1-4.1ZM153 237.9c0 1.5 1.2 2.8 2.8 2.8 1.5 0 2.8-1.2 2.8-2.8 0-1.5-1.2-2.8-2.8-2.8-1.5 0-2.8 1.3-2.8 2.8ZM451.7 82.7c-1.4 0-2.5 1.1-2.5 2.5s1.1 2.5 2.5 2.5 2.5-1.1 2.5-2.5-1.2-2.5-2.5-2.5Zm36.5 127.4c0 1.4 1.1 2.5 2.5 2.5s2.5-1.1 2.5-2.5-1.1-2.5-2.5-2.5-2.5 1.1-2.5 2.5Z"/><circle cx="240.4" cy="106.8" r="2.5"/><circle cx="477.3" cy="122.7" r="1.8" transform="rotate(-22.392 477.36 122.674)"/><path fill-rule="nonzero" d="M456.1 133.4c2.2 0 4-1.8 4-4s-1.8-4-4-4-4 1.8-4 4c-.1 2.2 1.8 4 4 4ZM110.9 479.8c1.9 0 3.5-1.6 3.5-3.5s-1.6-3.5-3.5-3.5-3.5 1.6-3.5 3.5c0 2 1.6 3.5 3.5 3.5Z"/><circle cx="224.6" cy="17.1" r="4"/><path fill-rule="nonzero" d="M74.3 68.6c-1.7 0-3.1 1.4-3.1 3.1 0 1.7 1.4 3.1 3.1 3.1 1.7 0 3.1-1.4 3.1-3.1-.1-1.7-1.4-3.1-3.1-3.1ZM376.4 192c0-.9-.7-1.6-1.6-1.6-.9 0-1.6.7-1.6 1.6 0 .9.7 1.6 1.6 1.6.8 0 1.6-.7 1.6-1.6Zm-159.2-91.2c0-1.3-1-2.3-2.3-2.3-1.3 0-2.3 1-2.3 2.3 0 1.3 1 2.3 2.3 2.3 1.3 0 2.3-1 2.3-2.3Zm-115 206.6c-1.6 0-2.9 1.3-2.9 2.9 0 1.6 1.3 2.9 2.9 2.9 1.6 0 2.9-1.3 2.9-2.9 0-1.6-1.3-2.9-2.9-2.9Zm324 106c.8 0 1.5-.7 1.5-1.5s-.7-1.5-1.5-1.5-1.5.7-1.5 1.5.7 1.5 1.5 1.5Zm-95-144.5c0 1.8 1.5 3.3 3.3 3.3 1.8 0 3.3-1.5 3.3-3.3 0-1.8-1.5-3.3-3.3-3.3-1.8-.1-3.3 1.4-3.3 3.3ZM55.6 80.1c-2 0-3.6 1.6-3.6 3.6s1.6 3.6 3.6 3.6 3.6-1.6 3.6-3.6-1.6-3.6-3.6-3.6ZM353.7 259c0 1.9 1.6 3.5 3.5 3.5s3.5-1.6 3.5-3.5-1.6-3.5-3.5-3.5-3.5 1.6-3.5 3.5Zm-67.9 151.7c1.9 0 3.4-1.5 3.4-3.4s-1.5-3.4-3.4-3.4-3.4 1.5-3.4 3.4 1.5 3.4 3.4 3.4ZM107.1 55.1c-1.4 0-2.5 1.1-2.5 2.5s1.1 2.5 2.5 2.5 2.5-1.1 2.5-2.5c0-1.3-1.1-2.5-2.5-2.5Zm134.8 10.6c.9 0 1.7-.8 1.7-1.7 0-.9-.8-1.7-1.7-1.7-.9 0-1.7.8-1.7 1.7 0 .9.8 1.7 1.7 1.7Z"/><circle cx="374" cy="489.6" r="2.4"/><path fill-rule="nonzero" d="M384.1 368.6c-2.1 0-3.8 1.7-3.8 3.8 0 2.1 1.7 3.8 3.8 3.8 2.1 0 3.8-1.7 3.8-3.8 0-2.1-1.7-3.8-3.8-3.8ZM55.8 450c0 .9.7 1.5 1.5 1.5.9 0 1.5-.7 1.5-1.5 0-.9-.7-1.5-1.5-1.5s-1.5.7-1.5 1.5Zm-18-69.5c2.2 0 4-1.8 4-4s-1.8-4-4-4-4 1.8-4 4 1.8 4 4 4Zm318.5-66.8c-1.4 0-2.5 1.1-2.5 2.5s1.1 2.5 2.5 2.5 2.5-1.1 2.5-2.5c0-1.3-1.1-2.5-2.5-2.5Zm131.7-209c1.3 0 2.4-1.1 2.4-2.4 0-1.3-1.1-2.4-2.4-2.4-1.3 0-2.4 1.1-2.4 2.4 0 1.4 1 2.4 2.4 2.4ZM146.6 122c-1.1 0-1.9.9-1.9 1.9 0 1 .9 1.9 1.9 1.9 1.1 0 1.9-.9 1.9-1.9 0-1-.8-1.9-1.9-1.9Z"/><circle cx="25.5" cy="11.6" r="1.8"/><path fill-rule="nonzero" d="M292.5 463.7c2.2 0 3.9-1.8 3.9-3.9 0-2.2-1.8-3.9-3.9-3.9-2.2 0-3.9 1.8-3.9 3.9 0 2.2 1.8 3.9 3.9 3.9Zm51.8-52.2c1.2 0 2.1-.9 2.1-2.1 0-1.2-.9-2.1-2.1-2.1-1.2 0-2.1.9-2.1 2.1 0 1.1.9 2.1 2.1 2.1Z"/><circle cx="486.5" cy="142.3" r="4.1"/><path fill-rule="nonzero" d="M294.3 81.7c-1.3 0-2.4 1.1-2.4 2.4 0 1.3 1.1 2.4 2.4 2.4 1.3 0 2.4-1.1 2.4-2.4 0-1.3-1-2.4-2.4-2.4Z"/><circle cx="259.1" cy="237.6" r="1.9"/><path fill-rule="nonzero" d="M488.7 396.4c-1.6 0-2.9 1.3-2.9 2.9 0 1.6 1.3 2.9 2.9 2.9 1.6 0 2.9-1.3 2.9-2.9 0-1.6-1.3-2.9-2.9-2.9Zm-182-221.1c0-1.3-1.1-2.4-2.4-2.4-1.3 0-2.4 1.1-2.4 2.4 0 1.3 1.1 2.4 2.4 2.4 1.4 0 2.4-1.1 2.4-2.4Zm165.6 45.4c0-.9-.7-1.6-1.6-1.6-.9 0-1.6.7-1.6 1.6 0 .9.7 1.6 1.6 1.6.9 0 1.6-.7 1.6-1.6Zm-6.6 255.6c2.2 0 4.1-1.8 4.1-4.1s-1.8-4.1-4.1-4.1c-2.2 0-4.1 1.8-4.1 4.1s1.8 4.1 4.1 4.1ZM454.3 357c.8 0 1.5-.7 1.5-1.5s-.7-1.5-1.5-1.5-1.5.7-1.5 1.5c-.1.8.6 1.5 1.5 1.5Zm-208.8-42.7c0 1.3 1.1 2.4 2.4 2.4 1.3 0 2.4-1.1 2.4-2.4 0-1.3-1.1-2.4-2.4-2.4-1.3 0-2.4 1.1-2.4 2.4Zm194.2-53.6c1.3 0 2.3-1 2.3-2.3 0-1.3-1-2.3-2.3-2.3-1.3 0-2.3 1-2.3 2.3.1 1.3 1.1 2.3 2.3 2.3Zm-8 180.4c.9 0 1.7-.7 1.7-1.7s-.7-1.7-1.7-1.7c-.9 0-1.7.7-1.7 1.7s.8 1.7 1.7 1.7Zm-122.8-57c1 0 1.7-.8 1.7-1.7 0-1-.8-1.7-1.7-1.7-1 0-1.7.8-1.7 1.7 0 .9.8 1.7 1.7 1.7Zm189.5-216.5c0-1-.8-1.8-1.8-1.8s-1.8.8-1.8 1.8.8 1.8 1.8 1.8 1.8-.8 1.8-1.8ZM102 375.8c0-1.1-.9-2-2-2s-2 .9-2 2 .9 2 2 2 2-.9 2-2Zm393.5-132.3c-1 0-1.8.8-1.8 1.8s.8 1.8 1.8 1.8 1.8-.8 1.8-1.8-.8-1.8-1.8-1.8ZM289.8 1c0 1.1.9 1.9 1.9 1.9 1 0 1.9-.9 1.9-1.9 0-.3-.1-.7-.3-1H290c-.1.3-.2.6-.2 1ZM143.7 184.9c0 1.9 1.5 3.4 3.4 3.4s3.4-1.5 3.4-3.4-1.5-3.4-3.4-3.4-3.4 1.5-3.4 3.4Zm-12.4 80.7c-1.6 0-2.8 1.3-2.8 2.8 0 1.6 1.3 2.8 2.8 2.8 1.6 0 2.8-1.3 2.8-2.8 0-1.5-1.2-2.8-2.8-2.8Zm39.2-168.7c-1.6 0-2.8 1.3-2.8 2.8 0 1.5 1.3 2.8 2.8 2.8 1.6 0 2.8-1.3 2.8-2.8 0-1.5-1.2-2.8-2.8-2.8Zm105.7-51.1c-2 0-3.7 1.6-3.7 3.7 0 2 1.6 3.7 3.7 3.7 2 0 3.7-1.6 3.7-3.7s-1.6-3.7-3.7-3.7Zm211.9-10.1c-1.9 0-3.4 1.5-3.4 3.4s1.5 3.4 3.4 3.4 3.4-1.5 3.4-3.4-1.5-3.4-3.4-3.4ZM422 305.8c1 0 1.8-.8 1.8-1.8s-.8-1.8-1.8-1.8-1.8.8-1.8 1.8.8 1.8 1.8 1.8ZM178.3 458c1 0 1.9-.8 1.9-1.9 0-1-.8-1.9-1.9-1.9-1 0-1.9.8-1.9 1.9 0 1 .9 1.9 1.9 1.9Z"/><circle cx="439.4" cy="218.9" r="3"/><path fill-rule="nonzero" d="M177.2 170.2c2.3 0 4.1-1.8 4.1-4.1s-1.8-4.1-4.1-4.1-4.1 1.8-4.1 4.1c0 2.2 1.8 4.1 4.1 4.1ZM38.4 152c-1.6 0-2.9 1.3-2.9 2.9 0 1.6 1.3 2.9 2.9 2.9 1.6 0 2.9-1.3 2.9-2.9 0-1.6-1.3-2.9-2.9-2.9Zm355.3-37.8c0-1.4-1.1-2.5-2.5-2.5s-2.5 1.1-2.5 2.5 1.1 2.5 2.5 2.5 2.5-1.1 2.5-2.5ZM89.4 163.7c1.4 0 2.5-1.1 2.5-2.5s-1.1-2.5-2.5-2.5-2.5 1.1-2.5 2.5c0 1.3 1.1 2.5 2.5 2.5Zm388.8 209.9c0 1.3 1.1 2.4 2.4 2.4 1.3 0 2.4-1.1 2.4-2.4 0-1.3-1.1-2.4-2.4-2.4-1.3.1-2.4 1.1-2.4 2.4ZM7.8 260.6c0 1.2 1 2.2 2.2 2.2 1.2 0 2.2-1 2.2-2.2 0-1.2-1-2.2-2.2-2.2-1.2 0-2.2 1-2.2 2.2ZM162 64.4c-1 0-1.9.8-1.9 1.9 0 1.1.8 1.9 1.9 1.9 1.1 0 1.9-.8 1.9-1.9 0-1.1-.8-1.9-1.9-1.9Zm-124.2 61c0-1.2-1-2.2-2.2-2.2-1.2 0-2.2 1-2.2 2.2 0 1.2 1 2.2 2.2 2.2 1.2 0 2.2-1 2.2-2.2Zm287.7 254.4c2.1 0 3.8-1.7 3.8-3.8 0-2.1-1.7-3.8-3.8-3.8-2.1 0-3.8 1.7-3.8 3.8-.1 2.1 1.7 3.8 3.8 3.8ZM161.9 216.1c0-1-.8-1.8-1.8-1.8s-1.8.8-1.8 1.8.8 1.8 1.8 1.8c.9 0 1.8-.8 1.8-1.8Zm227.6 68.1c0-1.2-1-2.2-2.2-2.2-1.2 0-2.2 1-2.2 2.2 0 1.2 1 2.2 2.2 2.2 1.2 0 2.2-1 2.2-2.2Zm37.8-91.7c0-1.4-1.2-2.6-2.6-2.6-1.4 0-2.6 1.2-2.6 2.6 0 1.4 1.2 2.6 2.6 2.6 1.4 0 2.6-1.1 2.6-2.6Zm-412.8-55c1.1 0 1.9-.9 1.9-1.9 0-1.1-.9-1.9-1.9-1.9-1.1 0-1.9.9-1.9 1.9-.1 1 .8 1.9 1.9 1.9Zm51.2 139c-.9 0-1.6.7-1.6 1.6 0 .9.7 1.6 1.6 1.6.9 0 1.6-.7 1.6-1.6.1-.9-.6-1.6-1.6-1.6Zm132.9-113.3c0 1.4 1.2 2.6 2.6 2.6 1.4 0 2.6-1.2 2.6-2.6 0-1.4-1.2-2.6-2.6-2.6-1.4 0-2.6 1.2-2.6 2.6Zm-61.5 75.5c0-.9-.7-1.6-1.6-1.6-.9 0-1.6.7-1.6 1.6 0 .9.7 1.6 1.6 1.6.9 0 1.6-.8 1.6-1.6Zm121.6 119.9c1.1 0 2.1-.9 2.1-2.1 0-1.1-.9-2.1-2.1-2.1-1.1 0-2.1.9-2.1 2.1.1 1.2 1 2.1 2.1 2.1Zm97.9 74.1c0-1.4-1.1-2.4-2.4-2.4-1.4 0-2.4 1.1-2.4 2.4 0 1.4 1.1 2.4 2.4 2.4 1.4 0 2.4-1.1 2.4-2.4ZM215.7 196.4c0-1.8-1.4-3.2-3.2-3.2-1.8 0-3.2 1.4-3.2 3.2 0 1.8 1.4 3.2 3.2 3.2 1.7 0 3.2-1.4 3.2-3.2Z"/><circle cx="111.5" cy="251.3" r="4"/><path fill-rule="nonzero" d="M50.8 15.9c0-1.1-.9-2-2-2s-2 .9-2 2 .9 2 2 2 2-.9 2-2Zm327.7 62.5c-1.1 0-2.1.9-2.1 2.1 0 1.1.9 2.1 2.1 2.1 1.1 0 2.1-.9 2.1-2.1-.1-1.2-1-2.1-2.1-2.1Zm45.3 312.8c1.2 0 2.2-1 2.2-2.2 0-1.2-1-2.2-2.2-2.2-1.2 0-2.2 1-2.2 2.2 0 1.2 1 2.2 2.2 2.2ZM123.9 87.8c0-1.7-1.4-3.1-3.1-3.1-1.7 0-3.1 1.4-3.1 3.1 0 1.7 1.4 3.1 3.1 3.1 1.7 0 3.1-1.4 3.1-3.1Z"/><circle cx="41.6" cy="302.9" r="2.1"/><circle cx="139.1" cy="442.3" r="2.1"/><circle cx="70.8" cy="98.7" r="1.9"/><path fill-rule="nonzero" d="M234.7 462.5c2 0 3.6-1.6 3.6-3.6s-1.6-3.6-3.6-3.6-3.6 1.6-3.6 3.6c-.1 2 1.6 3.6 3.6 3.6Zm136-55.7c.9 0 1.7-.8 1.7-1.7 0-.9-.8-1.7-1.7-1.7-.9 0-1.7.8-1.7 1.7 0 .9.7 1.7 1.7 1.7Z"/><circle cx="70" cy="304.5" r="4.2"/><circle cx="438" cy="148.6" r="2" transform="rotate(-22.362 438.08 148.55)"/><circle cx="280.9" cy="222.6" r="2"/><circle cx="93.1" cy="331.2" r="1.7"/><path fill-rule="nonzero" d="M19 388.5c0-2.1-1.7-3.9-3.9-3.9s-3.9 1.7-3.9 3.9c0 2.1 1.7 3.9 3.9 3.9s3.9-1.7 3.9-3.9Z"/><circle cx="281.7" cy="252.8" r="1.9"/><circle cx="269.7" cy="73.7" r="3"/><path fill-rule="nonzero" d="M333.4 145.2c-1.2 0-2.1 1-2.1 2.1 0 1.2 1 2.1 2.1 2.1 1.2 0 2.1-1 2.1-2.1s-.9-2.1-2.1-2.1ZM67.3 163.4c0 2.2 1.8 4 4 4s4-1.8 4-4-1.8-4-4-4c-2.3.1-4 1.8-4 4Zm2.3 321.8c1.8 0 3.3-1.5 3.3-3.3 0-1.8-1.5-3.2-3.3-3.2-1.8 0-3.2 1.5-3.2 3.2-.1 1.9 1.4 3.3 3.2 3.3Zm17-424.7c1.1 0 2-.9 2-2s-.9-2-2-2-2 .9-2 2 .9 2 2 2Z"/><circle cx="256.7" cy="274.9" r="2"/><path fill-rule="nonzero" d="M240.6 434.2c0-1-.8-1.9-1.9-1.9-1 0-1.9.8-1.9 1.9 0 1 .8 1.9 1.9 1.9 1.1 0 1.9-.9 1.9-1.9ZM58.3 224.8c-1 0-1.8.8-1.8 1.8s.8 1.8 1.8 1.8 1.8-.8 1.8-1.8c.1-1-.8-1.8-1.8-1.8Zm320.8 231.9c1.3 0 2.3-1 2.3-2.3 0-1.3-1-2.3-2.3-2.3-1.3 0-2.3 1-2.3 2.3-.1 1.3 1 2.3 2.3 2.3Zm-296-36.4c.9 0 1.6-.7 1.6-1.6 0-.9-.7-1.6-1.6-1.6-.9 0-1.6.7-1.6 1.6.1.9.8 1.6 1.6 1.6Zm256.6-169.1c0 .9.7 1.7 1.7 1.7.9 0 1.7-.7 1.7-1.7s-.7-1.7-1.7-1.7c-.9 0-1.7.8-1.7 1.7ZM279 179c0-1-.8-1.8-1.8-1.8s-1.8.8-1.8 1.8.8 1.8 1.8 1.8 1.8-.8 1.8-1.8ZM386.1 18.5c-1.7 0-3 1.3-3 3s1.3 3 3 3 3-1.3 3-3-1.3-3-3-3Zm-17.4 92c0 2 1.6 3.6 3.6 3.6s3.6-1.6 3.6-3.6-1.6-3.6-3.6-3.6-3.6 1.6-3.6 3.6ZM78.8 5.7c-1 0-1.7.8-1.7 1.7 0 .9.8 1.7 1.7 1.7 1 0 1.7-.8 1.7-1.7 0-.9-.7-1.7-1.7-1.7ZM151.1 466c1.9 0 3.5-1.6 3.5-3.5s-1.6-3.5-3.5-3.5-3.5 1.6-3.5 3.5 1.6 3.5 3.5 3.5Zm76.1-224.2c0 1.5 1.2 2.7 2.7 2.7 1.5 0 2.7-1.2 2.7-2.7 0-1.5-1.2-2.7-2.7-2.7-1.5 0-2.7 1.2-2.7 2.7Z"/><circle cx="490" cy="445.6" r="4"/><path fill-rule="nonzero" d="M264.7 93.4c-1.4 0-2.5 1.1-2.5 2.5s1.1 2.5 2.5 2.5 2.5-1.1 2.5-2.5-1.1-2.5-2.5-2.5Zm8.7 237.7c-1.1 0-1.9.9-1.9 1.9 0 1.1.9 1.9 1.9 1.9 1.1 0 1.9-.9 1.9-1.9 0-1-.9-1.9-1.9-1.9ZM415.3 92.5c0-2.3-1.9-4.2-4.2-4.2-2.3 0-4.2 1.9-4.2 4.2 0 2.3 1.9 4.2 4.2 4.2 2.3-.1 4.2-1.9 4.2-4.2Zm76.5 328.9c.8 0 1.5-.7 1.5-1.5s-.7-1.5-1.5-1.5-1.5.7-1.5 1.5.7 1.5 1.5 1.5ZM71.3 44c-1.5 0-2.8 1.2-2.8 2.8 0 1.5 1.2 2.8 2.8 2.8 1.5 0 2.8-1.2 2.8-2.8 0-1.6-1.2-2.8-2.8-2.8Zm225 160.8c-.8 0-1.5.7-1.5 1.5s.7 1.5 1.5 1.5 1.5-.7 1.5-1.5-.6-1.5-1.5-1.5ZM32 466.6c1.3 0 2.4-1.1 2.4-2.4 0-1.3-1.1-2.4-2.4-2.4-1.3 0-2.4 1.1-2.4 2.4 0 1.3 1.1 2.4 2.4 2.4Zm193-336.3c0-2.3-1.9-4.2-4.2-4.2-2.3 0-4.2 1.9-4.2 4.2 0 2.3 1.9 4.2 4.2 4.2 2.3 0 4.2-1.9 4.2-4.2Zm207.7 222.9c0-2.3-1.9-4.2-4.2-4.2-2.3 0-4.2 1.9-4.2 4.2 0 2.3 1.9 4.2 4.2 4.2 2.3 0 4.2-1.9 4.2-4.2ZM161.5 485.5c1.1 0 1.9-.9 1.9-1.9 0-1.1-.9-1.9-1.9-1.9-1.1 0-1.9.9-1.9 1.9 0 1 .8 1.9 1.9 1.9Zm14.2-275c1 0 1.7-.8 1.7-1.7 0-1-.8-1.7-1.7-1.7-1 0-1.7.8-1.7 1.7-.1.9.7 1.7 1.7 1.7Zm5.2-202.8c-1.8 0-3.2 1.4-3.2 3.2 0 1.8 1.4 3.2 3.2 3.2 1.8 0 3.2-1.4 3.2-3.2.1-1.8-1.4-3.2-3.2-3.2Zm-76.3 402.5c0-2.3-1.8-4.1-4.1-4.1s-4.1 1.8-4.1 4.1 1.8 4.1 4.1 4.1 4.1-1.8 4.1-4.1ZM275 486.9c1.8 0 3.3-1.5 3.3-3.3 0-1.8-1.5-3.3-3.3-3.3-1.8 0-3.3 1.5-3.3 3.3 0 1.8 1.5 3.3 3.3 3.3Z"/><circle cx="58.1" cy="328" r="1.9"/><path fill-rule="nonzero" d="M50.5 430.3c1.2 0 2.1-.9 2.1-2.1 0-1.2-.9-2.1-2.1-2.1-1.2 0-2.1.9-2.1 2.1 0 1.2.9 2.1 2.1 2.1ZM259.3 32.6c0-1.1-.9-1.9-1.9-1.9-1.1 0-1.9.9-1.9 1.9 0 1.1.9 1.9 1.9 1.9 1.1 0 1.9-.9 1.9-1.9Z"/><circle cx="34.5" cy="111.6" r="3.4"/><path fill-rule="nonzero" d="M308.3 426.5c1.9 0 3.5-1.6 3.5-3.5s-1.6-3.5-3.5-3.5-3.5 1.6-3.5 3.5c.1 2 1.6 3.5 3.5 3.5ZM271.8 20.1c0-1-.8-1.9-1.9-1.9-1 0-1.9.8-1.9 1.9 0 1 .8 1.9 1.9 1.9 1 0 1.9-.8 1.9-1.9Z"/><circle cx="183.8" cy="345" r="3.9"/><path fill-rule="nonzero" d="M264.3 144.5c0-1.6-1.3-3-3-3-1.6 0-3 1.3-3 3 0 1.6 1.3 3 3 3 1.7-.1 3-1.4 3-3ZM116 292.7c1.1 0 2-.9 2-2s-.9-2-2-2-2 .9-2 2 .9 2 2 2Z"/><circle cx="389.8" cy="55.5" r="4.1"/><path fill-rule="nonzero" d="M19.3 292c0-2.2-1.8-4-4-4s-4 1.8-4 4 1.8 4 4 4 4-1.8 4-4Zm477.6 9.1c0-.9-.7-1.7-1.7-1.7-.9 0-1.7.7-1.7 1.7 0 .9.7 1.7 1.7 1.7s1.7-.8 1.7-1.7Zm-.4-112.7c0-1.3-1.1-2.4-2.4-2.4-1.3 0-2.4 1.1-2.4 2.4 0 1.3 1.1 2.4 2.4 2.4 1.3 0 2.4-1.1 2.4-2.4ZM25 211c0-2.2-1.7-3.9-3.9-3.9s-3.9 1.7-3.9 3.9 1.7 3.9 3.9 3.9 3.9-1.7 3.9-3.9Zm50.3 223.4c0-1.4-1.1-2.5-2.5-2.5s-2.5 1.1-2.5 2.5 1.1 2.5 2.5 2.5c1.3 0 2.5-1.1 2.5-2.5ZM397.2 248c0-2.2-1.8-3.9-3.9-3.9-2.1 0-3.9 1.8-3.9 3.9 0 2.2 1.8 3.9 3.9 3.9 2.1 0 3.9-1.7 3.9-3.9Zm40.6-132c1.2 0 2.2-1 2.2-2.2 0-1.2-1-2.2-2.2-2.2-1.2 0-2.2 1-2.2 2.2.1 1.2 1 2.2 2.2 2.2ZM160.9 394.2c-1.4 0-2.6 1.1-2.6 2.6 0 1.4 1.1 2.6 2.6 2.6 1.4 0 2.6-1.1 2.6-2.6-.1-1.5-1.2-2.6-2.6-2.6Zm-25-375.5c0-1.9-1.6-3.5-3.5-3.5s-3.5 1.6-3.5 3.5 1.6 3.5 3.5 3.5 3.5-1.5 3.5-3.5Zm204.6 327.5c2 0 3.6-1.6 3.6-3.6s-1.6-3.6-3.6-3.6-3.6 1.6-3.6 3.6c0 1.9 1.6 3.6 3.6 3.6Z"/><circle cx="138.8" cy="329" r="3.5"/><circle cx="479.9" cy="260" r="3.6"/><circle cx="217.7" cy="274.6" r="1.9"/><circle cx="203" cy="138.2" r="3.7"/><path fill-rule="nonzero" d="M348.4 358.3c0-1-.8-1.9-1.9-1.9-1 0-1.9.8-1.9 1.9 0 1 .8 1.9 1.9 1.9 1.1 0 1.9-.9 1.9-1.9ZM232.8 192.8c-1.7 0-3.1 1.4-3.1 3.1 0 1.7 1.4 3.1 3.1 3.1 1.7 0 3.1-1.4 3.1-3.1 0-1.7-1.4-3.1-3.1-3.1Zm168.4-7.1c1.9 0 3.5-1.5 3.5-3.5 0-1.9-1.5-3.5-3.5-3.5-1.9 0-3.5 1.5-3.5 3.5s1.6 3.5 3.5 3.5ZM195.8 26.9c-2 0-3.7 1.6-3.7 3.7s1.6 3.7 3.7 3.7c2 0 3.7-1.6 3.7-3.7s-1.7-3.7-3.7-3.7Zm-85.9 196.7c0-1.1-.9-2-2-2s-2 .9-2 2 .9 2 2 2 2-.9 2-2Zm360.2 186.8c0-1.4-1.1-2.5-2.5-2.5s-2.5 1.1-2.5 2.5 1.1 2.5 2.5 2.5 2.5-1.1 2.5-2.5Zm6.6-171.5c.8 0 1.5-.7 1.5-1.5s-.7-1.5-1.5-1.5-1.5.7-1.5 1.5c.1.8.7 1.5 1.5 1.5ZM352.6 476.6c1 0 1.8-.8 1.8-1.8s-.8-1.8-1.8-1.8-1.8.8-1.8 1.8.8 1.8 1.8 1.8Zm-192-432.4c0-.9-.7-1.6-1.6-1.6-.9 0-1.6.7-1.6 1.6 0 .9.7 1.6 1.6 1.6.9 0 1.6-.7 1.6-1.6Zm-41.9 104.9c0 .9.7 1.7 1.7 1.7.9 0 1.7-.7 1.7-1.7 0-.9-.7-1.7-1.7-1.7-.9 0-1.7.8-1.7 1.7Zm-64 113c1.2 0 2.1-1 2.1-2.1 0-1.2-1-2.1-2.1-2.1-1.2 0-2.1 1-2.1 2.1s.9 2.1 2.1 2.1ZM438.4 63c0-2.3-1.9-4.2-4.2-4.2-2.3 0-4.2 1.9-4.2 4.2 0 2.3 1.9 4.2 4.2 4.2 2.3 0 4.2-1.9 4.2-4.2Z"/><circle cx="341.9" cy="190.5" r="2.3"/><path fill-rule="nonzero" d="M460.5 399.8c1.9 0 3.5-1.6 3.5-3.5s-1.6-3.5-3.5-3.5-3.5 1.6-3.5 3.5 1.6 3.5 3.5 3.5ZM398 499c0-1.9-1.6-3.5-3.5-3.5s-3.5 1.6-3.5 3.5c0 .3.1.6.1 1h6.7c.1-.3.2-.6.2-1Zm23.7-177.4c0 1 .8 1.7 1.7 1.7 1 0 1.7-.8 1.7-1.7 0-1-.8-1.7-1.7-1.7-.9 0-1.7.8-1.7 1.7ZM76.9 184c0-2.3-1.9-4.2-4.2-4.2-2.3 0-4.2 1.9-4.2 4.2 0 2.3 1.9 4.2 4.2 4.2 2.3 0 4.2-1.9 4.2-4.2Zm103.5-37.5c-1 0-1.8.8-1.8 1.8s.8 1.8 1.8 1.8 1.8-.8 1.8-1.8-.7-1.8-1.8-1.8Zm166.2-45.2c0-1.8-1.5-3.3-3.3-3.3-1.8 0-3.3 1.5-3.3 3.3 0 1.8 1.5 3.3 3.3 3.3 1.8 0 3.3-1.5 3.3-3.3ZM96.7 281.2c0-.9-.7-1.7-1.7-1.7s-1.7.7-1.7 1.7c0 .9.7 1.7 1.7 1.7s1.7-.8 1.7-1.7ZM145.5 161c0 1.7 1.4 3 3 3 1.7 0 3-1.4 3-3 0-1.7-1.4-3-3-3-1.7 0-3 1.3-3 3Zm258.5-3.8c0 1.6 1.3 2.9 2.9 2.9 1.6 0 2.9-1.3 2.9-2.9 0-1.6-1.3-2.9-2.9-2.9-1.6 0-2.9 1.3-2.9 2.9Zm-32.3 92.4c-1.1 0-2 .9-2 2s.9 2 2 2 2-.9 2-2-.9-2-2-2Zm88.6-182.4c0 1.1.9 2.1 2.1 2.1 1.1 0 2.1-.9 2.1-2.1 0-1.1-.9-2.1-2.1-2.1-1.2 0-2.1 1-2.1 2.1ZM269.6 423.7c0-1.4-1.1-2.5-2.5-2.5s-2.5 1.1-2.5 2.5 1.1 2.5 2.5 2.5c1.3 0 2.5-1.1 2.5-2.5Zm197.8-268.5c-.9 0-1.7.8-1.7 1.7 0 .9.8 1.7 1.7 1.7.9 0 1.7-.8 1.7-1.7 0-.9-.8-1.7-1.7-1.7ZM17.2 363.9c-1.4 0-2.6 1.2-2.6 2.6 0 1.4 1.2 2.6 2.6 2.6 1.4 0 2.6-1.2 2.6-2.6 0-1.5-1.2-2.6-2.6-2.6Z"/><circle cx="487.1" cy="62.3" r="2.2"/><path fill-rule="nonzero" d="M394.5 2.5c1.6 0 2.9-1.1 3.3-2.5h-6.7c.5 1.5 1.8 2.5 3.4 2.5Z"/></g></svg>