<svg width="16" height="16" viewBox="0 0 16 16" fill="none" xmlns="http://www.w3.org/2000/svg">
<path fill-rule="evenodd" clip-rule="evenodd" d="M0 8C0 12.4183 3.58172 16 8 16C12.4183 16 16 12.4183 16 8C16 3.58172 12.4183 0 8 0C3.58172 0 0 3.58172 0 8ZM14.8573 7.9996C14.8573 11.7867 11.7873 14.8567 8.00021 14.8567C4.21311 14.8567 1.14307 11.7867 1.14307 7.9996C1.14307 4.21251 4.21311 1.14246 8.00021 1.14246C11.7873 1.14246 14.8573 4.21251 14.8573 7.9996ZM8.57157 11.9993C8.57157 12.3149 8.31573 12.5707 8.00014 12.5707C7.68455 12.5707 7.42871 12.3149 7.42871 11.9993C7.42871 11.6837 7.68455 11.4278 8.00014 11.4278C8.31573 11.4278 8.57157 11.6837 8.57157 11.9993ZM8.62737 8.68455C8.56227 8.85196 8.52828 9.28004 8.53572 9.71159H7.369V9.22584C7.369 8.74593 7.43225 8.35717 7.55873 8.05955C7.68522 7.76193 7.93076 7.43455 8.29534 7.0774C8.70085 6.67562 8.94452 6.40032 9.02637 6.25151C9.10821 6.1027 9.14913 5.92971 9.14913 5.73254C9.14913 5.40888 9.04404 5.14288 8.83385 4.93455C8.62365 4.72621 8.35858 4.62205 8.03864 4.62205C7.3504 4.62205 6.92629 5.0815 6.76632 6.00039L5.58887 5.82182C5.62235 5.12242 5.86323 4.54857 6.31152 4.10028C6.75981 3.65199 7.3225 3.42785 7.99958 3.42785C8.68783 3.42785 9.26074 3.65292 9.71833 4.10307C10.1759 4.55322 10.4047 5.11498 10.4047 5.78834C10.4047 6.1306 10.3247 6.45519 10.1648 6.76211C10.0048 7.06903 9.66067 7.48849 9.13239 8.02048C8.86082 8.29578 8.69248 8.51714 8.62737 8.68455Z" fill="#EBF3F9"/>
<mask id="mask0" mask-type="alpha" maskUnits="userSpaceOnUse" x="0" y="0" width="16" height="16">
<path fill-rule="evenodd" clip-rule="evenodd" d="M0 8C0 12.4183 3.58172 16 8 16C12.4183 16 16 12.4183 16 8C16 3.58172 12.4183 0 8 0C3.58172 0 0 3.58172 0 8ZM14.8573 7.9996C14.8573 11.7867 11.7873 14.8567 8.00021 14.8567C4.21311 14.8567 1.14307 11.7867 1.14307 7.9996C1.14307 4.21251 4.21311 1.14246 8.00021 1.14246C11.7873 1.14246 14.8573 4.21251 14.8573 7.9996ZM8.57157 11.9993C8.57157 12.3149 8.31573 12.5707 8.00014 12.5707C7.68455 12.5707 7.42871 12.3149 7.42871 11.9993C7.42871 11.6837 7.68455 11.4278 8.00014 11.4278C8.31573 11.4278 8.57157 11.6837 8.57157 11.9993ZM8.62737 8.68455C8.56227 8.85196 8.52828 9.28004 8.53572 9.71159H7.369V9.22584C7.369 8.74593 7.43225 8.35717 7.55873 8.05955C7.68522 7.76193 7.93076 7.43455 8.29534 7.0774C8.70085 6.67562 8.94452 6.40032 9.02637 6.25151C9.10821 6.1027 9.14913 5.92971 9.14913 5.73254C9.14913 5.40888 9.04404 5.14288 8.83385 4.93455C8.62365 4.72621 8.35858 4.62205 8.03864 4.62205C7.3504 4.62205 6.92629 5.0815 6.76632 6.00039L5.58887 5.82182C5.62235 5.12242 5.86323 4.54857 6.31152 4.10028C6.75981 3.65199 7.3225 3.42785 7.99958 3.42785C8.68783 3.42785 9.26074 3.65292 9.71833 4.10307C10.1759 4.55322 10.4047 5.11498 10.4047 5.78834C10.4047 6.1306 10.3247 6.45519 10.1648 6.76211C10.0048 7.06903 9.66067 7.48849 9.13239 8.02048C8.86082 8.29578 8.69248 8.51714 8.62737 8.68455Z" fill="white"/>
</mask>
<g mask="url(#mask0)">
</g>
</svg>