<svg xmlns="http://www.w3.org/2000/svg" fill="none" viewBox="0 0 20 20"><path fill="#C30000" fill-rule="evenodd" d="M0 10c0 5.523 4.477 10 10 10s10-4.477 10-10S15.523 0 10 0 0 4.477 0 10zm18.571 0a8.571 8.571 0 11-17.143 0 8.571 8.571 0 0117.143 0zM9.286 4.286h1.428v7.857H9.286V4.286zM10 15.714a.714.714 0 100-1.428.714.714 0 000 1.428z" clip-rule="evenodd"/><mask id="a" width="20" height="20" x="0" y="0" maskUnits="userSpaceOnUse"><path fill="#fff" fill-rule="evenodd" d="M0 10c0 5.523 4.477 10 10 10s10-4.477 10-10S15.523 0 10 0 0 4.477 0 10zm18.571 0a8.571 8.571 0 11-17.143 0 8.571 8.571 0 0117.143 0zM9.286 4.286h1.428v7.857H9.286V4.286zM10 15.714a.714.714 0 100-1.428.714.714 0 000 1.428z" clip-rule="evenodd"/></mask></svg>