<svg xmlns="http://www.w3.org/2000/svg" xml:space="preserve" id="Layer_1" x="0" y="0" version="1.1" viewBox="0 0 800 875"><style>.st0{fill:#fff}.st21{fill:#305b61}.st35{fill:#4d9ba4}.st79{fill:#db3737}</style><path d="M398.521 868.555a412.134 412.134 0 0 1-4.003-.038l-1.01-.017a378.09 378.09 0 0 1-4.117-.093l-.871-.024c-1.44-.042-2.885-.095-4.328-.154l-.639-.025a377.738 377.738 0 0 1-4.685-.228l-.271-.014a396.452 396.452 0 0 1-40.342-4.32l-.208-.034a387.75 387.75 0 0 1-4.746-.788l-.32-.057a371.473 371.473 0 0 1-4.646-.833l-.339-.062a383.103 383.103 0 0 1-4.647-.895l-.284-.058a399.843 399.843 0 0 1-4.748-.977l-.191-.042a397.112 397.112 0 0 1-84.454-28.194 396.501 396.501 0 0 1-20.988-10.512 396.102 396.102 0 0 1-44.976-28.28l-.06-.044a398.27 398.27 0 0 1-7.049-5.25l-.081-.062a393.328 393.328 0 0 1-6.989-5.457l-.036-.029a393.189 393.189 0 0 1-33.275-29.862l-.112-.111a396.221 396.221 0 0 1-6.139-6.325l-.205-.217a395.458 395.458 0 0 1-5.982-6.454l-.139-.153a391.96 391.96 0 0 1-7.949-9.061h-.025l-1.434-1.725a423.559 423.559 0 0 1-3.165-3.815l-1.076-1.21v-.109a396.24 396.24 0 0 1-2.257-2.806l-.197-.247-.375-.375-.114-.242a427.982 427.982 0 0 1-2.469-3.148l-.188-.241a383.075 383.075 0 0 1-3.093-4.047l-.332-.332-.137-.29a396.561 396.561 0 0 1-7.632-10.521l-.242-.348a395.713 395.713 0 0 1-10.699-16.138l-.965-.954-.001-.592a391.57 391.57 0 0 1-4.339-7.146l-.259-.435a405.229 405.229 0 0 1-4.933-8.586l-.095-.128-.127-.27c-.846-1.52-1.653-2.99-2.449-4.465l-.051-.093-.062-.096-.067-.143a418.66 418.66 0 0 1-2.681-5.059l-.2-.382a427.307 427.307 0 0 1-2.683-5.249l-.036-.061-.082-.175a423.332 423.332 0 0 1-3.104-6.362l-.846-1.786a393.632 393.632 0 0 1-2.474-5.339l-.579-1.267a400.986 400.986 0 0 1-2.845-6.477l-.658-1.556c-.74-1.745-1.469-3.5-2.185-5.257l-.679-1.669a404.817 404.817 0 0 1-2.58-6.576l-.288-.771a383.76 383.76 0 0 1-2.189-5.926l-.614-1.716a385.366 385.366 0 0 1-2.132-6.145l-.191-.56a398.016 398.016 0 0 1-2.188-6.734l-.473-1.519a410.33 410.33 0 0 1-1.725-5.689l-.371-1.256a391.113 391.113 0 0 1-1.924-6.839l-.251-.943c-.54-2.01-1.062-4.015-1.566-6.022l-.358-1.428a395.206 395.206 0 0 1-3.169-13.857l-.251-1.212a416.62 416.62 0 0 1-1.308-6.607l-.088-.462a381.737 381.737 0 0 1-1.268-7.143l-.141-.859a406.363 406.363 0 0 1-1.014-6.442l-.128-.878a393.875 393.875 0 0 1-1.83-14.365l-.1-.923c-.515-4.842-.942-9.71-1.27-14.468l-.043-.638a399.954 399.954 0 0 1-.418-7.12l-.005-.108a394.356 394.356 0 0 1-.442-14.859l-.005-.449c-.049-4.854-.004-9.819.133-14.745l.01-.381a396.392 396.392 0 0 1 2.837-37.228l.019-.146a397.37 397.37 0 0 1 2.064-14.427v-.054l.044-.234.007-.069.031-.146.078-.477c.306-1.858.625-3.713.957-5.565v-.719l.198-.375c.248-1.367.505-2.732.769-4.096l.038-.198c.296-1.532.61-3.104.934-4.673l.021-.102c.34-1.645.675-3.22 1.02-4.792l.028-.126a392.247 392.247 0 0 1 2.641-11.243l.133-.601.032-.058c.349-1.38.698-2.734 1.055-4.086l.063-.239a402.85 402.85 0 0 1 1.229-4.544l.062-.224c.419-1.511.855-3.047 1.301-4.581l.034-.113h-.001a401.416 401.416 0 0 1 3.152-10.314l.184-.57.071-.368.127-.249c.438-1.349.883-2.695 1.334-4.039l.089-.265a394.013 394.013 0 0 1 1.675-4.869l.178-.508c.542-1.534 1.09-3.054 1.646-4.572l.279-.766c.525-1.423 1.06-2.841 1.6-4.255l.387-1.018a421.83 421.83 0 0 1 1.562-3.982l.481-1.22c.438-1.088.881-2.17 1.327-3.251-14.863-9.342-24.817-22.882-27.571-37.67a45.626 45.626 0 0 1-.624-2.101l-.1-.351a48.765 48.765 0 0 1-.585-2.531l-.17-.864c-.036-.179-.072-.357-.104-.538-.105-.6-.195-1.208-.278-1.818l-.02-.134a47.023 47.023 0 0 1-.207-1.869 123.374 123.374 0 0 1-.153-2.231 49.06 49.06 0 0 1-.045-2.062c0-9.153 2.587-17.94 7.69-26.118a54.157 54.157 0 0 1 1.705-2.572 60.541 60.541 0 0 1 5.978-7.215c1.791-1.854 3.822-3.701 6.037-5.493a73.129 73.129 0 0 1 7.566-5.353 77.278 77.278 0 0 1 6.226-3.46 83.461 83.461 0 0 1 9.05-3.856c9.819-3.521 20.26-5.308 31.03-5.308h3.455c8.255-19.986 21.952-37.081 39.766-49.581 19.104-13.405 41.579-20.491 64.998-20.491 4.428 0 8.92.271 13.413.808 1.176-62.312 52.23-112.637 114.818-112.637 32.387 0 62.979 13.547 84.739 37.35C437.06 28.682 486.85 6.44 539.399 6.44c101.964 0 184.918 82.954 184.918 184.919 0 6.96-.396 13.975-1.18 20.92 8.954.364 17.665 1.981 25.947 4.82a85.27 85.27 0 0 1 9.702 4.011 80.341 80.341 0 0 1 5.655 3.054 73.422 73.422 0 0 1 9.562 6.756 66.959 66.959 0 0 1 3.998 3.643c2.699 2.659 5.089 5.46 7.102 8.323.6.853 1.174 1.719 1.707 2.574 5.101 8.174 7.688 16.961 7.688 26.114 0 .847-.028 1.727-.09 2.769l-.041.631a45.59 45.59 0 0 1-.265 2.685l-.046.309a48.08 48.08 0 0 1-.401 2.437l-.188.979a46.262 46.262 0 0 1-.52 2.174l-.232.848c-.07.26-.141.52-.218.777-.079.264-.163.521-.248.778l-.038.117c-2.754 14.783-12.703 28.318-27.559 37.66.246.593.491 1.187.732 1.779l.75 1.861c.394.98.784 1.958 1.17 2.937l.765 1.971a371.9 371.9 0 0 1 2.89 7.713c.241.665.482 1.33.72 1.996a451.479 451.479 0 0 1 1.694 4.843c.35 1.021.69 2.043 1.032 3.064l.592 1.779c.39 1.188.771 2.382 1.148 3.574l.405 1.267a385.815 385.815 0 0 1 1.5 4.896l.192.656c.417 1.401.827 2.806 1.229 4.211l.449 1.605c.306 1.092.612 2.188.909 3.284.125.456.489 1.833.489 1.833.272 1.024.544 2.052.81 3.08l.47 1.852c.268 1.062.519 2.071.765 3.081l.461 1.917c.243 1.02.481 2.038.716 3.058l.428 1.871c.238 1.062.47 2.124.698 3.186l.374 1.732c.246 1.163.483 2.328.719 3.491l.289 1.43c.303 1.525.595 3.056.879 4.586l.064.339c.31 1.675.608 3.364.898 5.054l.1.601c.245 1.452.483 2.896.712 4.341l.21 1.372c.184 1.194.365 2.392.539 3.589l.224 1.592c.159 1.129.315 2.259.464 3.39l.215 1.662c.143 1.12.28 2.235.411 3.351l.193 1.649c.131 1.145.255 2.286.375 3.428l.161 1.542c.124 1.221.24 2.44.353 3.658l.12 1.296c.126 1.429.243 2.853.354 4.275l.054.67c.257 3.385.472 6.817.64 10.201l.014.298c.076 1.562.143 3.121.2 4.678l.032.977c.047 1.335.087 2.673.119 4.011l.025 1.227c.027 1.252.048 2.518.063 3.782l.012 1.281c.01 1.264.015 2.522.013 3.779l-.003 1.24c-.006 1.305-.02 2.61-.038 3.916l-.016 1.048a390.294 390.294 0 0 1-.1 4.339l-.016.604a394.964 394.964 0 0 1-1.127 20.251l-.048.567a392.1 392.1 0 0 1-.39 4.399l-.077.801a414.491 414.491 0 0 1-.427 4.2l-.092.846a383.624 383.624 0 0 1-.484 4.223l-.091.752a377.295 377.295 0 0 1-.572 4.475l-.057.436a398.605 398.605 0 0 1-4.205 25.067l-.022.113a392.823 392.823 0 0 1-.993 4.777l-.098.45a370.524 370.524 0 0 1-.993 4.487l-.103.454a401.237 401.237 0 0 1-1.078 4.586l-.069.291a398.563 398.563 0 0 1-9.906 34.154l-.062.182a379.216 379.216 0 0 1-1.608 4.639l-.062.174a397.69 397.69 0 0 1-23.821 54.066l-.242.453a398.265 398.265 0 0 1-11.153 19.508v.598l-.945.946a394.752 394.752 0 0 1-3.345 5.329l-.979 1.523a397.929 397.929 0 0 1-3.683 5.61l-.263.437-.086.081a394.4 394.4 0 0 1-8.498 12.142l-.061.084a396.973 396.973 0 0 1-9.652 12.711l-.117.235-.336.336-.039.049a416.78 416.78 0 0 1-2.96 3.674l-.81.98c-.783.954-1.569 1.907-2.362 2.855l-1.1 1.302c-.706.837-1.413 1.671-2.125 2.499-.407.475-.819.949-1.231 1.423-.677.782-1.363 1.569-2.055 2.354l-1.279 1.444c-.693.778-1.387 1.551-2.085 2.321a326.678 326.678 0 0 1-3.458 3.773l-1.224 1.317a445.84 445.84 0 0 1-2.423 2.559l-1.021 1.072a400.228 400.228 0 0 1-7.074 7.172l-.959.937a355.63 355.63 0 0 1-2.636 2.567l-1.293 1.234a298.034 298.034 0 0 1-3.786 3.564 414.542 414.542 0 0 1-3.755 3.445c-.771.696-1.542 1.39-2.315 2.078-.511.455-.994.886-1.479 1.313a424 424 0 0 1-2.401 2.097l-1.417 1.229c-.888.763-1.778 1.517-2.671 2.269l-1.188 1.005a391.653 391.653 0 0 1-7.894 6.433l-1.184.93a377.48 377.48 0 0 1-2.822 2.206l-1.503 1.15c-.85.65-1.7 1.298-2.555 1.941-.549.412-1.094.818-1.64 1.223-.822.613-1.651 1.226-2.484 1.835-.56.41-1.122.818-1.685 1.227-.837.605-1.674 1.205-2.514 1.804-.559.397-1.117.795-1.68 1.191-.871.612-1.743 1.218-2.615 1.822l-1.618 1.117a372.01 372.01 0 0 1-2.884 1.952l-1.379.928a401.36 401.36 0 0 1-4.156 2.73l-.213.138c-1.384.896-2.84 1.823-4.304 2.743l-1.394.865c-1 .624-2.003 1.246-3.01 1.86l-1.704 1.03a366.275 366.275 0 0 1-7.281 4.291 351.505 351.505 0 0 1-4.598 2.602c-.617.344-1.238.691-1.863 1.034-.939.518-1.887 1.031-2.836 1.543 0 0-1.323.717-1.781.961-1.046.559-2.1 1.111-3.155 1.662l-1.495.782a400.107 400.107 0 0 1-9.446 4.728l-1.543.734c-1.065.512-2.14 1.026-3.217 1.53l-1.991.918c-.929.429-1.858.857-2.789 1.278l-2.232.996c-.856.381-1.712.762-2.569 1.136-.593.259-2.043.881-2.043.881-.935.4-1.849.793-2.766 1.178-.691.292-1.392.581-2.09.87-.912.378-1.824.753-2.737 1.123-.689.28-1.379.555-2.067.83-.957.381-1.871.742-2.787 1.1-.697.272-1.397.542-2.096.811a485.779 485.779 0 0 1-4.859 1.828c-.94.347-1.88.688-2.82 1.025 0 0-1.412.508-2.05.733-.955.339-1.916.671-2.878 1.004l-1.995.686c-.987.335-1.973.661-2.959.986l-1.921.634c-1.074.349-2.15.689-3.228 1.027 0 0-1.269.403-1.668.527-1.233.383-2.476.758-3.719 1.13l-1.177.355a394.138 394.138 0 0 1-9.948 2.803l-.796.208c-1.373.365-2.757.727-4.143 1.078l-1.39.345a392.15 392.15 0 0 1-3.558.876l-1.618.381c-1.12.263-2.235.523-3.352.776l-1.719.381a378.6 378.6 0 0 1-3.255.709l-1.771.37c-1.074.223-2.149.443-3.225.657l-1.772.348c-1.08.209-2.159.414-3.239.615l-1.751.32c-1.093.198-2.186.39-3.277.578l-1.706.29c-1.124.188-2.244.369-3.364.547l-1.62.255c-1.165.18-2.33.352-3.496.521l-1.479.214c-1.247.176-2.489.343-3.731.506l-1.246.165c-1.376.176-2.751.342-4.126.503l-.858.103a393.888 393.888 0 0 1-20.357 1.805l-.442-4.482.28 4.491c-1.617.101-3.233.19-4.851.271l-.655.029c-1.459.07-2.91.133-4.361.187l-.92.03c-1.361.047-2.733.088-4.103.121l-1.041.021c-1.328.028-2.663.052-3.998.066l-1.077.009c-1.131.009-2.261.014-3.392.014h-1.656z" class="st0"/><path d="M539.401 10.941c99.642 0 180.418 80.776 180.418 180.418 0 8.602-.611 17.06-1.776 25.34h1.173c10.093 0 19.702 1.672 28.412 4.656 1.337.458 2.651.95 3.944 1.469a78.693 78.693 0 0 1 5.238 2.327 75.245 75.245 0 0 1 5.336 2.882 68.549 68.549 0 0 1 8.97 6.337 62.138 62.138 0 0 1 3.729 3.396c2.454 2.418 4.668 4.989 6.579 7.707a52.298 52.298 0 0 1 1.568 2.365c4.488 7.193 7.008 15.247 7.008 23.736 0 .84-.034 1.674-.083 2.505a42.463 42.463 0 0 1-.276 2.999c-.015.114-.035.226-.051.34-.099.717-.218 1.43-.353 2.138-.036.188-.07.377-.108.565-.023.113-.041.226-.065.339a43.395 43.395 0 0 1-.467 1.955c-.048.185-.103.369-.154.554-.085.309-.165.619-.257.926-.097.323-.205.642-.309.964-.014.042-.025.086-.039.128-2.719 15.13-13.499 28.322-28.846 36.874l.267.629c.218.515.429 1.032.645 1.548.442 1.058.883 2.116 1.315 3.175.25.614.495 1.229.742 1.843.389.967.776 1.934 1.156 2.903.255.648.505 1.297.756 1.946a389.542 389.542 0 0 1 1.822 4.805 382.712 382.712 0 0 1 2.757 7.666c.222.638.445 1.277.664 1.915.346 1.011.684 2.023 1.021 3.035.195.584.392 1.168.584 1.753.386 1.177.762 2.355 1.136 3.534.133.419.27.838.402 1.258a389.16 389.16 0 0 1 1.482 4.836c.065.216.126.433.19.65.412 1.387.818 2.774 1.214 4.163.15.527.295 1.055.443 1.582.304 1.083.606 2.166.901 3.251.163.602.322 1.206.482 1.809.27 1.016.539 2.031.8 3.048.161.627.319 1.255.478 1.882a409.375 409.375 0 0 1 1.2 4.889 401.22 401.22 0 0 1 1.82 8.019c.124.571.249 1.143.37 1.715.243 1.15.478 2.301.71 3.452.095.47.193.94.286 1.41.299 1.511.588 3.022.869 4.534l.062.323c.308 1.669.605 3.339.89 5.009.034.2.065.4.099.599.242 1.428.477 2.856.703 4.284.071.451.138.902.208 1.354.183 1.183.362 2.367.533 3.551.076.523.148 1.046.221 1.57.157 1.118.311 2.235.458 3.353.072.549.142 1.098.212 1.647a414.04 414.04 0 0 1 .598 4.942c.129 1.128.252 2.255.371 3.383.054.51.108 1.019.16 1.529.122 1.205.237 2.409.347 3.614.039.428.081.856.119 1.284.125 1.408.24 2.817.35 4.225.017.22.037.44.053.66.255 3.363.466 6.725.633 10.086l.013.298c.075 1.54.141 3.081.198 4.62.012.321.021.642.032.963.045 1.322.085 2.644.118 3.965.01.402.017.804.025 1.206a426.086 426.086 0 0 1 .074 5.018c.01 1.244.014 2.488.012 3.731-.001.408-.001.817-.003 1.225a384.585 384.585 0 0 1-.038 3.874c-.005.345-.009.69-.015 1.034a383.353 383.353 0 0 1-.098 4.291l-.016.596a388.943 388.943 0 0 1-1.114 20.019l-.047.555a421.453 421.453 0 0 1-.385 4.355l-.077.792a384.394 384.394 0 0 1-.992 9.162l-.089.744c-.18 1.475-.369 2.949-.566 4.421l-.058.439a391.78 391.78 0 0 1-4.156 24.776l-.038.185a382.898 382.898 0 0 1-.966 4.648l-.092.427c-.32 1.487-.649 2.972-.986 4.456l-.103.449a392.322 392.322 0 0 1-1.065 4.535l-.066.276a392.505 392.505 0 0 1-9.797 33.778l-.061.18c-.52 1.531-1.05 3.059-1.59 4.584l-.058.164a391.924 391.924 0 0 1-23.555 53.464l-.243.456-.001.001a390.813 390.813 0 0 1-11.301 19.734l-.002.003-.377.617-.001.002a388.456 388.456 0 0 1-3.838 6.115l-.45.699-.002.003a388.564 388.564 0 0 1-3.957 6.035l-.005.007-.149.22a387.21 387.21 0 0 1-8.534 12.202l-.001.001-.06.082a387.256 387.256 0 0 1-9.826 12.924l-.004.006a.012.012 0 0 1-.005.005l-.001.002a397.146 397.146 0 0 1-3.12 3.874c-.264.324-.532.645-.797.968-.775.944-1.553 1.887-2.337 2.824-.361.431-.726.86-1.089 1.29-.696.824-1.394 1.648-2.098 2.467-.402.469-.807.935-1.212 1.401a346.49 346.49 0 0 1-3.304 3.761 369.802 369.802 0 0 1-5.478 6.024c-.403.434-.804.869-1.209 1.302-.794.847-1.594 1.689-2.396 2.53-.336.353-.67.708-1.009 1.06a389.179 389.179 0 0 1-6.992 7.089c-.314.31-.632.617-.947.926-.865.849-1.731 1.695-2.605 2.536-.425.409-.853.814-1.28 1.221-.772.737-1.546 1.472-2.325 2.203-.469.441-.942.879-1.414 1.317a343.738 343.738 0 0 1-3.717 3.409 449.597 449.597 0 0 1-3.745 3.348c-.789.695-1.582 1.386-2.377 2.076-.468.406-.934.813-1.405 1.217-.874.751-1.754 1.496-2.636 2.24-.394.332-.785.667-1.18.998a387.93 387.93 0 0 1-7.797 6.355c-.388.308-.78.612-1.169.918a400.53 400.53 0 0 1-2.791 2.181c-.494.381-.991.759-1.487 1.139-.84.643-1.681 1.284-2.527 1.92-.536.404-1.076.805-1.615 1.206a371.425 371.425 0 0 1-6.611 4.81c-.553.394-1.106.787-1.661 1.178-.858.604-1.721 1.204-2.586 1.802-.531.368-1.062.737-1.595 1.102-.947.648-1.899 1.29-2.853 1.931-.456.306-.909.615-1.366.92a391.361 391.361 0 0 1-4.21 2.765l-.045.03c-1.431.926-2.87 1.842-4.316 2.75-.458.288-.92.571-1.38.857-.989.616-1.978 1.23-2.974 1.838-.56.342-1.125.68-1.687 1.019-.907.547-1.815 1.094-2.728 1.634-.598.355-1.199.706-1.8 1.058a412.054 412.054 0 0 1-4.518 2.606c-.896.509-1.795 1.014-2.696 1.516-.613.342-1.225.683-1.84 1.022-.932.513-1.869 1.021-2.806 1.527-.587.317-1.172.636-1.761.95a400.535 400.535 0 0 1-3.119 1.642c-.495.258-.986.52-1.482.776a421.564 421.564 0 0 1-4.647 2.366c-1.562.781-3.126 1.55-4.693 2.308-.505.244-1.011.481-1.517.723-1.062.508-2.124 1.017-3.188 1.515-.611.286-1.223.564-1.835.847-.963.445-1.927.89-2.892 1.326-.649.293-1.3.581-1.95.87-.931.415-1.862.829-2.794 1.236-.673.293-1.347.582-2.021.871-.91.391-1.82.781-2.732 1.164-.689.29-1.379.575-2.069.861a349.965 349.965 0 0 1-4.791 1.947 413.176 413.176 0 0 1-4.791 1.874 366.91 366.91 0 0 1-4.803 1.807c-.927.342-1.856.678-2.784 1.012-.676.243-1.351.487-2.027.726-.948.335-1.897.664-2.847.992-.658.227-1.316.456-1.974.679-.986.334-1.974.661-2.962.987-.62.205-1.239.412-1.859.613-1.061.344-2.124.68-3.187 1.015-.549.173-1.098.35-1.647.521-1.226.38-2.453.75-3.68 1.118-.387.116-.774.236-1.161.351a388.626 388.626 0 0 1-9.838 2.772c-.259.069-.519.135-.778.204a381.11 381.11 0 0 1-4.105 1.068c-.458.116-.917.227-1.375.341-1.172.293-2.345.584-3.519.865-.533.128-1.067.251-1.6.376-1.103.26-2.206.518-3.311.767-.565.128-1.131.251-1.697.376a370.26 370.26 0 0 1-3.219.701c-.583.124-1.167.244-1.75.365-1.063.221-2.126.438-3.189.65-.583.116-1.167.229-1.75.343a354.168 354.168 0 0 1-4.935.926 407.295 407.295 0 0 1-4.928.858c-1.107.185-2.215.365-3.323.54-.533.084-1.066.17-1.599.252a374.69 374.69 0 0 1-3.459.515c-.488.071-.976.143-1.464.212-1.228.173-2.457.338-3.686.499-.411.054-.821.11-1.232.163-1.36.174-2.72.338-4.08.498-.282.033-.563.069-.845.101a388.23 388.23 0 0 1-25.08 2.06c-.218.011-.437.019-.655.03-1.435.069-2.869.131-4.304.183l-.902.03c-1.355.047-2.709.087-4.063.12l-1.023.021c-1.32.028-2.639.051-3.958.065l-1.064.01c-1.092.009-2.182.014-3.273.014l-.653-.001a401.854 401.854 0 0 1-10.094-.15l-.857-.024a380.845 380.845 0 0 1-4.281-.153c-.213-.009-.427-.016-.64-.026a395.054 395.054 0 0 1-4.907-.24 390.248 390.248 0 0 1-39.866-4.27l-.198-.032a390.064 390.064 0 0 1-4.7-.781l-.299-.052a396.528 396.528 0 0 1-4.608-.826l-.326-.061a377.622 377.622 0 0 1-4.605-.887l-.277-.055a376.034 376.034 0 0 1-4.698-.968l-.145-.031a392.242 392.242 0 0 1-83.541-27.885 390.516 390.516 0 0 1-20.748-10.392h-.001a389.75 389.75 0 0 1-44.462-27.958l-.04-.029a385.602 385.602 0 0 1-6.987-5.204l-.112-.085a388.5 388.5 0 0 1-6.878-5.37l-.035-.029a387.177 387.177 0 0 1-32.893-29.519l-.11-.11a385.688 385.688 0 0 1-6.071-6.254l-.199-.21a389.676 389.676 0 0 1-5.916-6.383l-.165-.183a387.907 387.907 0 0 1-9.17-10.507l-.002-.003-.103-.123a392.334 392.334 0 0 1-3.184-3.837l-.001-.002-.094-.115a390.213 390.213 0 0 1-3.167-3.924l-.008-.01-.168-.212-.152-.191-.004-.005a383.19 383.19 0 0 1-2.934-3.74l-.001-.002-.03-.038a385.682 385.682 0 0 1-3.231-4.231l-.133-.176-.001-.002a386.437 386.437 0 0 1-7.73-10.653l-.01-.015a391.82 391.82 0 0 1-5.618-8.248l-.006-.009a390.602 390.602 0 0 1-5.403-8.385l-.006-.009-.002-.003a393.238 393.238 0 0 1-5.217-8.571l-.005-.009c-1.706-2.885-3.38-5.8-5.02-8.743l-.004-.007-.026-.047a390.056 390.056 0 0 1-2.591-4.727l-.003-.005-.001-.002a409.506 409.506 0 0 1-2.702-5.097l-.208-.397a385.834 385.834 0 0 1-2.701-5.289l-.013-.025-.008-.016a392.425 392.425 0 0 1-3.105-6.364c-.281-.588-.559-1.177-.837-1.766a397.615 397.615 0 0 1-2.445-5.276c-.191-.421-.387-.841-.577-1.262a395.125 395.125 0 0 1-2.809-6.395c-.219-.51-.432-1.022-.649-1.533a394.211 394.211 0 0 1-2.162-5.204c-.224-.549-.449-1.098-.67-1.648a390.485 390.485 0 0 1-2.551-6.503c-.096-.253-.188-.507-.284-.76a398.097 398.097 0 0 1-2.773-7.558 382.842 382.842 0 0 1-2.107-6.073c-.06-.179-.124-.358-.184-.537a392.657 392.657 0 0 1-2.167-6.674c-.158-.501-.312-1.002-.469-1.504a381.658 381.658 0 0 1-1.704-5.624c-.122-.413-.246-.825-.366-1.238a384.662 384.662 0 0 1-1.902-6.761c-.085-.312-.165-.624-.249-.937a396.876 396.876 0 0 1-1.547-5.948c-.118-.468-.237-.936-.353-1.405a384.88 384.88 0 0 1-3.134-13.707l-.268-1.294a389.051 389.051 0 0 1-1.273-6.436l-.084-.435c-.442-2.359-.859-4.72-1.256-7.082-.048-.283-.092-.566-.139-.849a375.88 375.88 0 0 1-1.001-6.369c-.043-.292-.089-.583-.131-.875a389.81 389.81 0 0 1-1.809-14.194l-.098-.912a387.513 387.513 0 0 1-1.255-14.302l-.042-.624a387.375 387.375 0 0 1-.413-7.046l-.006-.108a387.785 387.785 0 0 1-.442-15.118c-.048-4.87-.004-9.734.131-14.591l.01-.36a389.455 389.455 0 0 1 2.805-36.82l.017-.139a391.232 391.232 0 0 1 2.099-14.618l.001-.005.005-.031a399.499 399.499 0 0 1 1.108-6.46l.003-.019.001-.008c.285-1.578.579-3.154.883-4.727l.03-.156a387.9 387.9 0 0 1 .932-4.661l.034-.167a391.567 391.567 0 0 1 1.018-4.777 393.77 393.77 0 0 1 2.622-11.163l.013-.054.003-.011c.385-1.535.78-3.068 1.183-4.598l.051-.195c.4-1.513.809-3.024 1.227-4.533l.054-.194c.422-1.521.854-3.041 1.294-4.557l.033-.113a392.842 392.842 0 0 1 3.142-10.273c.08-.248.158-.497.239-.745l.004-.013a413.999 413.999 0 0 1 3.174-9.411l.178-.51a378.772 378.772 0 0 1 1.625-4.513c.092-.252.183-.505.276-.757a393.908 393.908 0 0 1 1.582-4.206c.128-.336.253-.672.383-1.008a401.017 401.017 0 0 1 1.544-3.936c.16-.402.316-.806.477-1.208a376.933 376.933 0 0 1 1.571-3.841c.169-.408.333-.818.503-1.226.242-.579.491-1.156.736-1.734-15.352-8.552-26.136-21.746-28.856-36.879l-.023-.078a44.09 44.09 0 0 1-.632-2.11c-.023-.086-.051-.171-.073-.257l-.018-.062a43.628 43.628 0 0 1-.647-2.899c-.042-.222-.092-.443-.131-.667a42.608 42.608 0 0 1-.251-1.645l-.02-.13a44.667 44.667 0 0 1-.185-1.684c-.023-.257-.04-.515-.058-.772a41.072 41.072 0 0 1-.04-.606c-.013-.215-.033-.429-.042-.645a42.53 42.53 0 0 1-.04-1.859c0-8.488 2.52-16.543 7.008-23.736a52.298 52.298 0 0 1 1.568-2.365 55.874 55.874 0 0 1 5.534-6.678 62.338 62.338 0 0 1 5.63-5.121 68.458 68.458 0 0 1 7.1-5.023 74.142 74.142 0 0 1 5.87-3.261 78.45 78.45 0 0 1 8.559-3.647c8.998-3.228 18.993-5.045 29.515-5.045h6.51c15.626-40.963 55.258-70.072 101.709-70.072 6.124 0 12.121.531 17.969 1.503-.027-.998-.076-1.99-.076-2.994 0-60.938 49.4-110.339 110.338-110.339 34.055 0 64.496 15.437 84.736 39.684 33.09-38.859 82.375-63.525 137.428-63.525m0-9c-52.206 0-101.75 21.427-137.478 59.13-22.345-22.532-52.674-35.273-84.69-35.273-31.876 0-61.845 12.413-84.385 34.953-20.846 20.846-33.031 48.049-34.744 77.236-3.049-.239-6.09-.36-9.102-.36-24.348 0-47.719 7.368-67.583 21.308-17.686 12.411-31.47 29.18-40.148 48.764h-.487c-11.292 0-22.245 1.875-32.554 5.573a87.638 87.638 0 0 0-12.242 5.474 83.206 83.206 0 0 0-3.875 2.247 77.727 77.727 0 0 0-8.033 5.684 71.532 71.532 0 0 0-6.443 5.865 65.133 65.133 0 0 0-6.424 7.754 60.902 60.902 0 0 0-1.841 2.777C3.895 251.852 1 261.707 1 271.575c0 .75.016 1.507.049 2.25.01.218.024.431.039.644l.01.136c.014.246.03.497.049.747l.01.148c.018.258.037.516.06.773.067.737.14 1.404.224 2.041.013.096.025.176.037.253a49.6 49.6 0 0 0 .292 1.896c.038.216.081.435.126.655l.031.153a52.582 52.582 0 0 0 .783 3.496l.034.132.028.096.062.215c.173.636.365 1.288.581 1.971 2.85 14.834 12.297 28.437 26.384 38.277l-.242.612-.19.483a399.54 399.54 0 0 0-1.579 4.024l-.251.659-.144.38a410.358 410.358 0 0 0-1.615 4.294l-.17.467-.113.311a394.585 394.585 0 0 0-1.661 4.615l-.123.35-.062.178a393.202 393.202 0 0 0-1.693 4.921l-.043.13-.042.127a403.861 403.861 0 0 0-1.452 4.403l-.086.258-.014.055-.076.238-.084.263-.034.105a400.03 400.03 0 0 0-3.179 10.402l-.03.102a400.353 400.353 0 0 0-1.328 4.675l-.055.2a406.091 406.091 0 0 0-1.255 4.637l-.037.139-.017.066c-.409 1.551-.811 3.11-1.202 4.671l-.002.007-.013.052-.02.082a402.738 402.738 0 0 0-2.671 11.372l-.005.021-.02.088c-.348 1.59-.688 3.181-1.017 4.775l-.032.158c-.33 1.6-.647 3.189-.956 4.78l-.016.085-.014.074c-.305 1.58-.601 3.16-.887 4.743l-.024.12-.015.098a400.959 400.959 0 0 0-1.062 6.176l-.001.003-.057.352-.003.017-.001.009a402.637 402.637 0 0 0-2.146 14.948l-.009.07-.012.096a400.404 400.404 0 0 0-2.867 37.646l-.002.062-.009.32a398.87 398.87 0 0 0-.133 14.914l.004.343.001.107c.055 5.023.205 10.08.447 15.019l.005.1c.115 2.326.257 4.751.423 7.221l.013.204.029.439c.334 4.836.766 9.76 1.284 14.628l.082.757.019.173a398.17 398.17 0 0 0 1.851 14.526l.081.541.053.354c.324 2.182.669 4.375 1.025 6.518l.054.332.089.539c.418 2.485.851 4.922 1.285 7.244l.057.295.029.151a389.15 389.15 0 0 0 1.302 6.585l.274 1.322c.982 4.681 2.061 9.4 3.208 14.027.097.392.197.787.296 1.182l.065.258c.52 2.066 1.053 4.114 1.583 6.084l.093.35.162.609a397.06 397.06 0 0 0 1.946 6.917c.077.266.156.532.236.798l.14.47c.56 1.899 1.146 3.835 1.742 5.752l.136.438c.114.368.228.736.344 1.104a385.41 385.41 0 0 0 2.217 6.825l.121.354.067.196a385.397 385.397 0 0 0 2.778 7.95c.761 2.11 1.486 4.071 2.215 5.996l.111.297.18.481a395.704 395.704 0 0 0 3.107 7.875l.189.463a405.42 405.42 0 0 0 2.211 5.322l.234.555c.142.337.284.673.428 1.01.957 2.23 1.923 4.431 2.874 6.544.12.266.24.529.362.793l.229.5a391.877 391.877 0 0 0 2.5 5.395l.039.083a406.182 406.182 0 0 0 3.975 8.196l.021.042.01.019.008.016.02.038a393.067 393.067 0 0 0 2.744 5.371l.134.256.08.153a418.722 418.722 0 0 0 2.573 4.859v.001l.06.111.064.118.187.375.079.119a385.504 385.504 0 0 0 2.453 4.468l.001.002.231.425.03.043a405.909 405.909 0 0 0 4.821 8.39l.006.011.074.126.075.127.001.002a405.187 405.187 0 0 0 5.003 8.227l.449.93.36.36a401.93 401.93 0 0 0 4.97 7.693l.01.015.015.022a398.436 398.436 0 0 0 5.727 8.409l.02.029.027.038.004.006a401.624 401.624 0 0 0 7.736 10.668l.004.005.156.207.091.12.044.059a402.96 402.96 0 0 0 3.286 4.303l.005.007.043.056a417.548 417.548 0 0 0 3.001 3.825l.119.15.042.063.199.242.081.102.004.004a385.293 385.293 0 0 0 3.136 3.882l.054.066.29.362.038.038c.884 1.077 1.773 2.15 2.668 3.216l.004.007.409.486a396.612 396.612 0 0 0 9.383 10.751l.174.192a395.412 395.412 0 0 0 6.049 6.527l.135.142.065.069a397.476 397.476 0 0 0 6.216 6.403l.109.11a397.837 397.837 0 0 0 33.645 30.196l.012.01.039.031a398.636 398.636 0 0 0 7.037 5.494l5.515-7.113-5.467 7.149.081.062a402.878 402.878 0 0 0 7.134 5.314l.027.019.032.023a400.27 400.27 0 0 0 44.622 28.132l.004.004.846.456a402.392 402.392 0 0 0 21.225 10.63 401.819 401.819 0 0 0 85.458 28.525l.1.021c1.648.35 3.25.68 4.854 1l.283.056c1.569.312 3.14.615 4.713.908l.329.062c1.575.292 3.146.574 4.719.846l.302.053c1.604.276 3.207.543 4.812.799l.174.028a401.323 401.323 0 0 0 40.813 4.373l.183.01.112.006c1.572.086 3.149.163 4.726.23l.402.016.246.01c1.466.06 2.926.113 4.386.156l.533.015.337.009c1.395.039 2.785.07 4.175.094l1.018.016c1.353.02 2.703.033 4.054.039l1.091.004.666.001c1.116 0 2.231-.005 3.347-.014l.162-.001.929-.008c1.346-.015 2.697-.038 4.048-.066l.313-.006.73-.016a382.8 382.8 0 0 0 4.164-.123l.344-.011.575-.019c1.469-.054 2.937-.117 4.405-.188l.263-.012.409-.019c1.632-.081 3.267-.172 4.902-.273l.123-.007c6.89-.43 13.818-1.044 20.635-1.828l.516-.062.348-.042a417.26 417.26 0 0 0 4.176-.51l.794-.105.468-.062c1.255-.165 2.512-.333 3.77-.511l1.053-.152.444-.065a280.127 280.127 0 0 0 4.861-.735l.316-.05a400.217 400.217 0 0 0 5.126-.846 426.35 426.35 0 0 0 5.086-.908 388.221 388.221 0 0 0 8.334-1.639l.406-.084c.461-.096.922-.191 1.382-.289a393.26 393.26 0 0 0 3.296-.718l.489-.108c.417-.092.834-.184 1.25-.278a383.9 383.9 0 0 0 3.386-.785l.514-.12a227.477 227.477 0 0 0 4.724-1.15l.51-.126c.299-.073.597-.147.896-.223 1.401-.355 2.8-.721 4.199-1.093l.31-.081.482-.126c3.354-.897 6.74-1.852 10.07-2.837.243-.072.483-.145.723-.218l.467-.141a405.2 405.2 0 0 0 3.764-1.143c.362-.112.723-.227 1.084-.342l.6-.19a409.47 409.47 0 0 0 3.26-1.038c.449-.146.895-.294 1.342-.442l.562-.186a384.03 384.03 0 0 0 3.03-1.01c.536-.182 1.071-.367 1.605-.551l.415-.143c.97-.335 1.941-.671 2.911-1.014.635-.225 1.27-.453 1.904-.681l.17-.061a389.738 389.738 0 0 0 17.565-6.793c.704-.291 1.411-.584 2.118-.881.928-.39 1.86-.789 2.791-1.189l.407-.175c.554-.238 1.108-.475 1.661-.716.954-.416 1.906-.84 2.858-1.264l.52-.231c.492-.219.984-.437 1.475-.659a397.12 397.12 0 0 0 2.838-1.301l.12-.055.635-.292c.414-.19.828-.38 1.241-.574a357.11 357.11 0 0 0 3.132-1.488l.128-.061.594-.283c.318-.151.637-.302.955-.456a408.905 408.905 0 0 0 4.802-2.362c1.526-.764 3.08-1.555 4.752-2.419.32-.165.638-.333.956-.5l.56-.294a419.248 419.248 0 0 0 3.191-1.68c.448-.239.896-.481 1.344-.724l.459-.248c.958-.517 1.916-1.037 2.869-1.561.603-.332 1.204-.667 1.804-1.002l.078-.043a385.573 385.573 0 0 0 7.38-4.217l.079-.046a338.682 338.682 0 0 0 4.552-2.707l.511-.308c.406-.244.811-.488 1.214-.735a387.424 387.424 0 0 0 3.043-1.881l.511-.317c.301-.186.602-.372.901-.56a394.866 394.866 0 0 0 4.413-2.812l.06-.038.035-.023a396.36 396.36 0 0 0 4.26-2.798c.297-.198.595-.399.893-.6l.505-.34c.976-.656 1.951-1.313 2.92-1.976.395-.271.791-.545 1.188-.82l.443-.307c.885-.612 1.768-1.226 2.646-1.844a406.152 406.152 0 0 0 5.944-4.268c.844-.618 1.683-1.238 2.519-1.86l.156-.116a366.487 366.487 0 0 0 4.083-3.083l.461-.352c.353-.27.706-.539 1.057-.81.959-.742 1.909-1.486 2.857-2.233l.459-.36c.247-.193.493-.385.738-.58a404.86 404.86 0 0 0 7.979-6.502c.256-.214.51-.43.764-.646l.443-.376c.903-.762 1.804-1.524 2.698-2.292.337-.289.672-.581 1.008-.872l.427-.371a355.604 355.604 0 0 0 6.267-5.552 381.11 381.11 0 0 0 3.803-3.488l.144-.134a302.495 302.495 0 0 0 3.683-3.47l.407-.388c.301-.286.602-.573.901-.861a408.54 408.54 0 0 0 2.666-2.595l.369-.36c.201-.196.402-.391.601-.589a395.654 395.654 0 0 0 7.153-7.252c.219-.228.436-.456.652-.684l.381-.401c.82-.859 1.638-1.72 2.45-2.586.301-.321.596-.64.892-.959l.348-.375a415.56 415.56 0 0 0 2.204-2.39 412.405 412.405 0 0 0 4.698-5.238c.698-.791 1.392-1.587 2.084-2.385l.054-.062c.396-.457.793-.914 1.187-1.373.718-.836 1.432-1.678 2.145-2.522l.337-.398c.259-.306.518-.612.776-.92.804-.961 1.6-1.925 2.393-2.891l.315-.382.503-.611c.963-1.18 1.92-2.367 2.871-3.56l.01-.01.303-.383.082-.102.012-.016a400.176 400.176 0 0 0 9.978-13.128l.084-.115a397.164 397.164 0 0 0 8.608-12.304l.012-.014.232-.347.166-.246.009-.016a393.305 393.305 0 0 0 3.627-5.529l.09-.112.248-.413.083-.13.3-.466a395.036 395.036 0 0 0 3.677-5.852l.001-.002.251-.408.008-.012.534-.87.003-.01.041-.068.002-.003a401.037 401.037 0 0 0 11.361-19.861l.25-.469a402.097 402.097 0 0 0 24.094-54.689l.063-.177c.548-1.55 1.091-3.113 1.623-4.68l.014-.041.052-.151a402.857 402.857 0 0 0 10.019-34.545l.039-.162.028-.116c.374-1.549.737-3.096 1.091-4.645l.07-.307.033-.143c.347-1.526.683-3.045 1.011-4.567l.042-.193.052-.242c.339-1.585.669-3.169.988-4.756l.036-.177a401.83 401.83 0 0 0 4.254-25.358l.036-.27.023-.175c.202-1.511.395-3.018.579-4.527l.067-.553.025-.211c.17-1.417.334-2.84.489-4.263l.017-.154.075-.697c.152-1.423.296-2.839.433-4.258l.03-.304.049-.506c.14-1.484.271-2.969.394-4.454l.021-.252.027-.314c.554-6.803.938-13.694 1.14-20.484l.009-.346.007-.253c.042-1.475.076-2.939.101-4.403l.01-.726.004-.334c.02-1.316.033-2.638.039-3.961l.003-1.021v-.228c.002-1.276-.002-2.548-.013-3.82l-.012-1.3a377.74 377.74 0 0 0-.063-3.835l-.007-.359-.019-.87a388.42 388.42 0 0 0-.121-4.062l-.013-.397-.02-.585a391.825 391.825 0 0 0-.203-4.73l-.004-.093-.009-.208c-.17-3.431-.388-6.902-.648-10.325l-.033-.415-.021-.258c-.112-1.443-.23-2.885-.358-4.327l-.077-.836-.044-.474a409.87 409.87 0 0 0-.356-3.7c-.043-.426-.088-.849-.133-1.273l-.031-.292a456.96 456.96 0 0 0-.574-5.134 421.75 421.75 0 0 0-.416-3.382l-.016-.122c-.067-.521-.133-1.042-.202-1.564a398.457 398.457 0 0 0-.469-3.433l-.069-.493a200.07 200.07 0 0 0-.158-1.117 403.52 403.52 0 0 0-.545-3.629l-.076-.501-.136-.887c-.23-1.459-.471-2.922-.719-4.383l-.034-.209-.068-.406a399.95 399.95 0 0 0-.91-5.122l-.047-.246-.016-.084a390.821 390.821 0 0 0-.889-4.64c-.059-.299-.12-.598-.181-.897l-.111-.544a264.692 264.692 0 0 0-1.003-4.817l-.103-.473a379.016 379.016 0 0 0-3.089-13.208l-.048-.191c-.146-.578-.292-1.156-.44-1.733a366.377 366.377 0 0 0-.819-3.12l-.146-.55c-.115-.433-.23-.867-.347-1.299a419.347 419.347 0 0 0-.922-3.327l-.16-.573c-.097-.349-.194-.698-.294-1.047-.404-1.418-.82-2.837-1.241-4.256l-.076-.259-.118-.402a410.054 410.054 0 0 0-1.518-4.954c-.083-.265-.167-.526-.251-.788l-.16-.5a397.995 397.995 0 0 0-1.162-3.614c-.135-.412-.273-.824-.411-1.237l-.187-.558c-.344-1.033-.69-2.068-1.044-3.103-.184-.538-.37-1.073-.557-1.608l-.123-.352c-.341-.981-.685-1.961-1.034-2.94a428.293 428.293 0 0 0-2.543-6.926c-.365-.966-.735-1.929-1.107-2.891l-.084-.217c-.229-.592-.457-1.183-.689-1.775-.389-.99-.785-1.98-1.183-2.969l-.101-.252c14.076-9.835 23.517-23.429 26.37-38.254.078-.24.155-.48.227-.721.086-.287.166-.579.245-.871l.065-.24.044-.156a50.511 50.511 0 0 0 .705-2.877c.031-.143.058-.289.085-.434l-.007.034c.039-.192.072-.366.104-.539l.028-.15c.169-.888.312-1.758.427-2.591.021-.135.042-.27.059-.405a51.36 51.36 0 0 0 .336-3.639c.067-1.139.098-2.103.098-3.032 0-9.867-2.895-19.722-8.372-28.5a61.185 61.185 0 0 0-1.841-2.777c-2.17-3.086-4.735-6.094-7.625-8.942a72.186 72.186 0 0 0-4.268-3.885 77.884 77.884 0 0 0-11.776-8.114 84.693 84.693 0 0 0-4.349-2.287 90.167 90.167 0 0 0-10.224-4.228c-7.219-2.474-14.743-4.063-22.464-4.751.49-5.573.738-11.171.738-16.732 0-25.567-5.009-50.375-14.889-73.733-9.541-22.557-23.197-42.813-40.59-60.206-17.393-17.393-37.649-31.049-60.206-40.59-23.357-9.887-48.164-14.896-73.732-14.896zM51.676 668.494z" class="st0"/><path d="M790 271.571c0-30.181-31.853-54.875-70.784-54.875H80.784C41.853 216.696 10 241.39 10 271.571c0 19.901 13.853 37.411 34.448 47.034l-2.044.002C-1.947 420.777-2.44 541.131 51.297 648.532c96.357 192.583 330.589 270.59 523.173 174.233 186.559-93.343 265.598-316.071 182.765-504.984 19.659-9.776 32.765-26.859 32.765-46.21z" class="st35"/><path fill="#edc531" d="M719.82 191.356c0-99.642-80.776-180.418-180.418-180.418-55.053 0-104.339 24.666-137.432 63.541-20.24-24.248-50.682-39.684-84.736-39.684-60.938 0-110.338 49.4-110.338 110.338 0 1.004.049 1.996.076 2.994a109.473 109.473 0 0 0-17.968-1.503c-47.38 0-87.683 30.277-102.635 72.535h631.319a181.892 181.892 0 0 0 2.132-27.803z"/><path fill="#cea628" d="M688.95 138.462c-19.263-61.194-76.375-104.78-140.302-108.236-5.373-.385-12.001-.334-17.412-.062l-2.898.12-2.889.277-5.771.57c-1.913.27-6.781 1.038-8.597 1.307-4.439.882-9.698 2.02-14.093 3.28-29.404 8.134-56.383 25.405-75.747 49.005 23.351-21.301 52-36.332 83.119-42.22 5.156-.939 11.053-1.722 16.285-2.247 1.872-.097 6.352-.401 8.196-.493 11.741-.307 23.815.353 35.346 2.568 58.442 10.273 107.33 54.378 125.611 110.682 2.353 7.13 4.163 14.381 5.721 21.733-.626-12.297-2.895-24.529-6.569-36.284zM311.261 52.634c-29.049 2.611-56.215 20.886-68.121 47.642 37.556-51.836 113.869-51.176 147.304 4.155 9.948 16.703 14.246 36.932 12.122 57.302.823-2.429 1.468-4.92 2.039-7.439 1.375-6.295 1.889-12.929 1.732-19.381-1.26-48.893-46.569-87.412-95.076-82.279zm-72.576 135.062c-1.986-3.17-4.463-6.092-7.012-8.824-.765-.782-2.742-2.552-3.54-3.346l-2.537-2.039c-1.422-1.226-3.779-2.681-5.337-3.764-1.83-1.063-3.813-2.248-5.747-3.136-17.366-8.426-39.4-8.912-55.928 1.572 28.355-1.946 52.873 4.284 75.124 21.981.749.647 2.678 2.211 3.483 2.862 1.45 1.332 3.147 2.694 4.578 4.076 2.905 2.621 2.549 2.62 1.302-.893-1.069-2.865-2.74-5.901-4.386-8.489z" opacity=".5"/><g opacity=".2"><path d="M416.192 222.79H81.988c-38.784 0-70.516 24.6-70.516 54.668 0 30.067 31.732 54.668 70.516 54.668h334.204"/><path d="M383.808 222.79h334.204c38.784 0 70.516 24.6 70.516 54.668 0 30.067-31.732 54.668-70.516 54.668H383.808"/></g><path d="M416.254 216.696H80.784C41.853 216.696 10 241.39 10 271.571s31.853 54.875 70.784 54.875h335.47" class="st35"/><path d="M383.746 216.696h335.47c38.931 0 70.784 24.694 70.784 54.875s-31.853 54.875-70.784 54.875h-335.47" class="st35"/><circle cx="289.623" cy="772.431" r="36.783" class="st21" transform="rotate(-45.001 289.615 772.438)"/><path d="M567.787 718.025c-12.161-3.258-24.661 3.958-27.919 16.119-3.258 12.161 3.958 24.661 16.119 27.919 12.161 3.258 24.661-3.958 27.92-16.119 3.258-12.161-3.959-24.661-16.12-27.919z" class="st21"/><circle cx="713.08" cy="383.574" r="25.748" class="st21" transform="rotate(-89.043 713.034 383.564)"/><path d="M457.864 783.185c1.58-5.896-1.919-11.957-7.815-13.537-5.896-1.58-11.957 1.919-13.537 7.815-1.58 5.896 1.919 11.957 7.815 13.537 5.897 1.581 11.957-1.918 13.537-7.815zM734.54 467.529a7.356 7.356 0 0 0 5.202 9.01 7.356 7.356 0 0 0 9.01-5.202 7.356 7.356 0 0 0-5.202-9.01 7.355 7.355 0 0 0-9.01 5.202zm-631.856-41.701c8.413-31.396-10.219-63.668-41.616-72.08a58.573 58.573 0 0 0-32.099.464 391.233 391.233 0 0 0-18.597 103.353 58.676 58.676 0 0 0 20.231 9.879c31.397 8.412 63.668-10.22 72.081-41.616zm588.667 230.605c-5.896 22.006.021 44.391 13.859 60.432 26.136-32.897 46.606-69.643 60.883-108.619-33.224-5.526-65.845 14.981-74.742 48.187zm-588.983-11.61c-17.218-4.614-34.779 1.627-45.446 14.517l.002.003a412.069 412.069 0 0 0 2.589 4.724l.029.051a390.906 390.906 0 0 0 29.025 44.659l.133.176a388.39 388.39 0 0 0 3.002 3.935l.259.334a372.177 372.177 0 0 0 2.937 3.743l.323.406a390.382 390.382 0 0 0 6.338 7.749l.217.259a388.27 388.27 0 0 0 3.317 3.891l.001.001c13.492-4.579 24.524-15.591 28.488-30.387 6.307-23.548-7.667-47.752-31.214-54.061z" class="st21"/><circle cx="659.204" cy="506.189" r="11.035" class="st21" transform="rotate(-17.484 659.232 506.244)"/><circle cx="535.212" cy="536.268" r="157.288" class="st79"/><path d="M535.212 377.482c-87.71 0-158.786 71.076-158.786 158.786s71.075 158.786 158.786 158.786 158.786-71.076 158.786-158.786-71.076-158.786-158.786-158.786zM633.357 552.6v11.342h-22.684v50.509l-9.678-.302-9.83-.302v-49.753H562.13l-4.537 12.854c-2.571 7.259-6.503 18.449-8.922 24.952l-4.386 11.947h-18.147l-4.386-11.947c-2.42-6.503-6.351-17.693-8.922-24.952l-4.537-12.854h-29.035v49.753l-9.678.302-9.83.302v-50.509h-22.684V552.6h22.684v-31.455h-22.684v-11.342h22.684v-51.719l14.064.302 13.913.302 7.41 20.113c4.083 11.039 8.166 22.532 9.376 25.406l1.966 5.444h57.465l5.444-14.82c2.873-8.015 7.259-19.508 9.376-25.406l4.083-10.737 14.064-.302 13.913-.302v51.719h22.684v11.342h-22.684V552.6h22.533z" class="st79"/><path d="M633.357 521.146v-11.342h-22.684v-51.719l-13.913.302-14.064.302-4.083 10.737c-2.117 5.898-6.351 17.391-9.376 25.406l-5.444 14.82H506.48l-1.966-5.444c-1.21-2.873-5.293-14.366-9.376-25.406l-7.41-20.113-13.913-.302-14.064-.302v51.719h-22.684v11.342h22.684V552.6h-22.684v11.342h22.684v50.509l9.83-.302 9.678-.302v-49.753h29.035l4.537 12.854c2.571 7.259 6.503 18.449 8.922 24.952l4.386 11.947h18.147l4.386-11.947c2.42-6.503 6.351-17.693 8.922-24.952l4.537-12.854h29.035v49.753l9.83.302 9.678.302v-50.509h22.684V552.6h-22.684v-31.455h22.683zm-141.848 31.606H479.26v-31.757h6.2c4.688 0 6.503.454 7.108 2.117.454 1.21 2.873 7.41 5.142 13.761 2.268 6.2 4.537 12.4 5.142 13.61.906 1.966-.153 2.269-11.343 2.269zm62.455-15.274-5.444 14.669h-26.464l-5.293-13.913c-3.025-7.712-5.444-14.669-5.444-15.576-.151-1.21 5.444-1.512 24.045-1.512 13.308 0 24.196.302 24.196.907-.152.454-2.722 7.41-5.596 15.425zm37.201 15.274h-12.249c-11.191 0-12.249-.302-11.342-2.268.454-1.21 2.873-7.41 5.142-13.61 2.268-6.351 4.537-12.4 5.142-13.761.605-1.663 2.42-2.117 7.108-2.117h6.2l-.001 31.756z" class="st0"/><path d="M185.529 643.797c-1.686 6.293 2.048 12.762 8.342 14.448 6.293 1.686 12.762-2.048 14.448-8.342 1.686-6.293-2.048-12.762-8.342-14.448-6.293-1.686-12.762 2.049-14.448 8.342z" class="st21"/><circle cx="266.286" cy="533.272" r="157.288" opacity=".15"/><circle cx="264.788" cy="534.77" r="158.786" fill="#aa7d50"/><path d="M223.318 438.728v47.482c7.246-3.854 14.337-7.862 20.966-11.716 6.783-4.008 13.566-8.016 20.349-11.716l22.353 12.333c7.4 4.162 14.799 8.325 22.353 12.641l14.337 8.633v67.677l-7.246 4.316-7.554 4.317c-14.645 8.325-29.291 16.804-43.782 25.437-19.578-11.408-39.311-22.816-59.044-34.07V494.38l.154-33.299c0-11.1 0-21.737-.154-31.911v-.462c6.015 3.237 11.873 6.628 17.268 10.02zm41.624 43.627c-7.091 3.854-14.029 7.862-20.812 11.87l-20.812 12.179v47.482l20.812 12.025c6.937 4.008 13.72 8.016 20.503 12.024 7.091-3.854 14.029-7.862 20.812-11.87l20.812-12.179v-47.482c-7.091-4.162-13.874-8.016-20.658-12.025-6.629-4.007-13.566-8.015-20.657-12.024zm-56.115 128.571v8.787l4.008-2.158 3.854-2.158 4.162 2.312 4.162 2.312 2.621 1.542v12.487l-1.387.771-1.387.771-4.162 2.312-4.162 2.467-5.396-3.237-5.396-3.237v-25.128c1.079.769 2.004 1.386 3.083 2.157zm7.708 8.016c-1.233.771-2.621 1.388-3.854 2.158l-3.854 2.312v8.787l3.854 2.158 3.854 2.158c1.233-.771 2.621-1.387 3.854-2.158l3.854-2.312v-8.787l-3.854-2.158-3.854-2.158zm24.666-3.7 5.396 3.237 5.396 3.237v12.487h-.154l-.154-.154-1.387-.771-1.387-.771v-8.787l-.154-.154-.308-.154-.308-.154h-.154l-3.392-2.004-3.392-2.004-3.854 2.158-3.854 2.312v8.787l3.546 2.158 3.7 2.158.154.154h.308l.308-.154 2.004-1.079 1.85-1.079 1.696.925 1.542.925-3.854 2.158-3.854 2.158-5.396-3.237-5.396-3.237V621.87l5.396-3.083 5.702-3.545zm10.945 18.808v3.7l-3.392-1.85-3.237-1.85 1.542-.925 1.542-.925 1.542.925 2.003.925zm12.642-18.5 4.162 2.312 4.162 2.466 1.387.771 1.233.771-1.542.771-1.542.925c-1.233-.771-2.621-1.388-3.854-2.158l-3.854-2.158c-1.233.771-2.621 1.388-3.854 2.158l-4.008 2.158.617.308.617.308 4.162 2.312c2.621 1.388 5.087 2.775 7.554 4.317 2.004 1.079 4.008 2.158 5.858 3.392l-5.396 3.083-5.396 3.083-5.396-3.083c-1.85-1.079-3.546-2.158-5.396-3.083l1.542-.925 1.696-.925 3.854 2.158 3.854 2.158 2.158-1.233 2.158-1.233-.925-.617-.925-.617-6.783-3.854-6.783-4.008v-3.7l5.396-3.237c1.698-.461 3.548-1.54 5.244-2.62zm34.686 5.859-5.396 3.237-5.396 3.237-1.542-.925-1.542-.925 3.854-2.158 3.854-2.158-2.158-1.233-2.158-1.233c-1.233.771-2.621 1.387-3.854 2.158l-3.854 2.312v8.787l3.854 2.158 3.854 2.158 3.854-2.158 3.854-2.158 3.237 1.85-5.396 3.237-5.396 3.083-5.396-3.083-5.396-3.083v-12.487l4.625-2.775 4.779-2.775.617-.462.617-.308h.462l.462.308 4.933 2.929c1.391.617 3.086 1.542 4.628 2.467zm21.274-10.175 3.237-1.85v25.128l-5.396 3.237-5.396 3.237-4.162-2.467-4.162-2.312-1.387-.771-1.387-.771v-12.487l2.621-1.542 4.162-2.312 4.162-2.312 3.854 2.158 4.008 2.158-.154-9.094zm-7.708 8.17-3.854 2.158-3.854 2.158v8.787l3.854 2.312 3.854 2.158 3.854-2.158 3.854-2.158v-8.787l-3.854-2.312-3.854-2.158z" class="st0"/></svg>