<svg xmlns="http://www.w3.org/2000/svg" xmlns:xlink="http://www.w3.org/1999/xlink" xml:space="preserve" id="Layer_1" x="0" y="0" version="1.1" viewBox="0 0 1080 1080"><style>.st0{fill:#fff}</style><circle cx="540" cy="540" r="537.5" class="st0"/><defs><path id="SVGID_1_" d="M25 25h1030v1030H25z"/></defs><clipPath id="SVGID_00000119815115087783042580000017850526711843746749_"><use xlink:href="#SVGID_1_" overflow="visible"/></clipPath><g clip-path="url(#SVGID_00000119815115087783042580000017850526711843746749_)"><path d="M540 1055c284.4 0 515-230.6 515-515S824.4 25 540 25 25 255.6 25 540s230.6 515 515 515z" class="st0"/><linearGradient id="SVGID_00000015324213416889223380000003365813839950876834_" x1="724.578" x2="603.081" y1="748.997" y2="79.649" gradientTransform="matrix(1 0 0 -1 0 1080)" gradientUnits="userSpaceOnUse"><stop offset="0" stop-color="#ff496a"/><stop offset="1" stop-color="#e42648"/></linearGradient><path fill="url(#SVGID_00000015324213416889223380000003365813839950876834_)" d="M938.9 218.8c-35.7 7.1-69.8 17-97.8 23.3-64 14.3-123.8 63.3-136.8 153-11.6 80.2 15.4 114.6 3.5 207.9C687 765.7 530.9 821.8 458 855.9c-42.2 19.5-144.5 64.4-223.4 98.6 85.6 63.1 191 100.5 305.5 100.5 284.5 0 515-230.5 515-515 0-121.3-41.9-232.8-112.1-320.6-1.4-.2-2.6-.4-4.1-.6z"/><linearGradient id="SVGID_00000070120380170616106370000016691335568097908888_" x1="320.795" x2="589.43" y1="279.654" y2="1038.279" gradientTransform="matrix(1 0 0 -1 0 1080)" gradientUnits="userSpaceOnUse"><stop offset=".002" stop-color="#1158f1"/><stop offset="1" stop-color="#119bed"/></linearGradient><path fill="url(#SVGID_00000070120380170616106370000016691335568097908888_)" d="M482.1 464.4c39.7-85.8 25.3-86 55.4-166.5 38-102.2 156.2-73.1 188.8-68.7 53.8 7.3 67.9-11.8 181.3-30.1 5.6-.8 11-1.7 16.4-2.3C829.7 91.5 692.6 25 540 25 335 25 158.1 144.6 75.3 318c169.8 42.2 353.2 133.7 406.8 146.4zM369.5 114.7c15 2.3 87.6 92.6 101.3 324.6 0 0-93.4-22.4-113.6-70.6-16.6-39.7 5-91.8 12.3-254zM942 218.3c.2.4.6.6.8 1-1.2-.2-2.7-.2-3.9-.4 1.1-.4 2.1-.4 3.1-.6zM25 540c0-41.1 4.8-81 13.9-119.2 18.7 15.6 38.6 32.8 59.8 52.5 134.2 124.4 352.4 222.7 432 131.3.2.2.4.2.4.4-14.5 19.1-70 79.5-175.9 60.8L187.8 915.7C87.7 821.8 25 688.3 25 540z"/></g></svg>