<svg xmlns="http://www.w3.org/2000/svg" xmlns:xlink="http://www.w3.org/1999/xlink" xml:space="preserve" id="Layer_1" x="0" y="0" version="1.1" viewBox="0 0 800 875"><style>.st0{fill:#fff}.st1{fill:#84b9df}.st9{fill:#6890b4}</style><path d="M398.52 868.555a382.188 382.188 0 0 1-4.002-.039l-1.009-.016a378.265 378.265 0 0 1-4.121-.094l-.862-.023a364.415 364.415 0 0 1-4.334-.155l-.651-.026a386.297 386.297 0 0 1-4.672-.228l-.291-.015a396.04 396.04 0 0 1-40.323-4.319l-.124-.02c-1.665-.267-3.249-.53-4.831-.802l-.32-.056a386.671 386.671 0 0 1-4.643-.833l-.341-.064a383.477 383.477 0 0 1-4.649-.896l-.26-.052c-1.605-.32-3.189-.646-4.771-.982l-.152-.032a397.196 397.196 0 0 1-84.494-28.204 398 398 0 0 1-20.987-10.511 395.753 395.753 0 0 1-44.977-28.281 394.545 394.545 0 0 1-7.108-5.294l-.083-.063a391.697 391.697 0 0 1-6.988-5.455l-.1-.082a392.66 392.66 0 0 1-33.211-29.81l-.12-.12a397.385 397.385 0 0 1-6.132-6.317l-.204-.215a392.15 392.15 0 0 1-5.982-6.456l-.167-.185a395.808 395.808 0 0 1-9.231-10.576l-.39-.465a381.206 381.206 0 0 1-2.982-3.598l-.114-.14a403.014 403.014 0 0 1-3.159-3.912l-.255-.321-.185-.2-.09-.146a393.508 393.508 0 0 1-5.854-7.564l-.306-.283-.086-.172-.092-.092-.145-.29a393.393 393.393 0 0 1-7.559-10.428l-.114-.164a395.9 395.9 0 0 1-10.8-16.285l-.234-.234-.211-.476a393.35 393.35 0 0 1-5.063-8.324l-.048-.081a395.214 395.214 0 0 1-5.007-8.718l-.178-.276-.053-.138a413.456 413.456 0 0 1-2.056-3.744l-.977-.781v-1.03a380.536 380.536 0 0 1-2.195-4.154l-.212-.404a393.57 393.57 0 0 1-2.73-5.345l-.073-.146a401.304 401.304 0 0 1-3.088-6.333l-.846-1.784a393.445 393.445 0 0 1-2.473-5.338l-.582-1.272a393.663 393.663 0 0 1-2.842-6.471l-.657-1.554a407.523 407.523 0 0 1-2.186-5.26l-.678-1.666c-.88-2.19-1.743-4.383-2.581-6.58l-.289-.771a390.584 390.584 0 0 1-2.19-5.927l-.614-1.716a391.643 391.643 0 0 1-2.132-6.142l-.186-.544a395.837 395.837 0 0 1-2.193-6.752l-.474-1.522a386.537 386.537 0 0 1-1.723-5.687l-.37-1.252a385.164 385.164 0 0 1-1.925-6.841l-.251-.947a380.06 380.06 0 0 1-1.565-6.018l-.357-1.422a394.646 394.646 0 0 1-3.17-13.863l-.271-1.311a391.873 391.873 0 0 1-1.288-6.51l-.085-.446a384.29 384.29 0 0 1-1.27-7.156l-.141-.86a404.56 404.56 0 0 1-1.014-6.442l-.133-.889a392.5 392.5 0 0 1-1.829-14.356l-.1-.923a394.668 394.668 0 0 1-1.27-14.466l-.041-.607c-.162-2.4-.303-4.776-.419-7.152l-.006-.108a396.467 396.467 0 0 1-.442-14.86l-.005-.448c-.048-4.862-.004-9.828.132-14.745l.01-.363a396.056 396.056 0 0 1 2.837-37.246l.018-.141a399.162 399.162 0 0 1 2.065-14.431v-.053l.056-.301.012-.089.018-.082c.346-2.12.71-4.236 1.09-6.35l.027-.146c.279-1.55.576-3.133.881-4.714l.034-.175c.301-1.556.615-3.128.939-4.697l.035-.168c.326-1.577.661-3.151 1.006-4.724l4.419.858-4.396-.965c.83-3.777 1.722-7.576 2.652-11.292l.016-.061c.395-1.576.792-3.117 1.197-4.655l.048-.183a398.24 398.24 0 0 1 1.245-4.599l.059-.211c.423-1.525.86-3.062 1.305-4.595l.037-.125c1-3.44 2.061-6.909 3.149-10.302l.193-.602.056-.266.101-.221c.447-1.382.903-2.761 1.366-4.137l.09-.27c.546-1.62 1.105-3.245 1.674-4.866l.181-.517a388.806 388.806 0 0 1 1.643-4.564l.278-.763c.525-1.423 1.06-2.841 1.601-4.256l.385-1.015c.514-1.335 1.037-2.66 1.563-3.984l.483-1.223c.435-1.084.878-2.167 1.325-3.248-14.86-9.341-24.814-22.879-27.57-37.667a47.05 47.05 0 0 1-.624-2.101l-.1-.354a47.236 47.236 0 0 1-.584-2.533l-.17-.859c-.037-.183-.074-.366-.105-.55-.104-.593-.194-1.2-.276-1.81l-.021-.14a46.961 46.961 0 0 1-.205-1.868c-.021-.223-.036-.447-.052-.671 0 0-.095-1.388-.103-1.557a49.091 49.091 0 0 1-.044-2.062c0-9.153 2.587-17.94 7.69-26.118a56.296 56.296 0 0 1 1.704-2.571 60.506 60.506 0 0 1 5.979-7.217 66.943 66.943 0 0 1 6.037-5.493 73.357 73.357 0 0 1 7.566-5.353 77.188 77.188 0 0 1 6.227-3.459 83.28 83.28 0 0 1 9.046-3.855c9.82-3.523 20.262-5.309 31.035-5.309h3.455c8.254-19.986 21.952-37.081 39.765-49.581 19.104-13.406 41.58-20.492 64.999-20.492 4.429 0 8.922.271 13.414.808 1.175-62.312 52.229-112.637 114.817-112.637 32.387 0 62.979 13.547 84.739 37.35 35.089-38.965 84.879-61.207 137.429-61.207 101.964 0 184.918 82.954 184.918 184.918 0 6.96-.396 13.975-1.18 20.92 8.954.365 17.666 1.981 25.947 4.82a85.706 85.706 0 0 1 9.701 4.011 80.337 80.337 0 0 1 5.656 3.054 73.282 73.282 0 0 1 9.562 6.756 67.26 67.26 0 0 1 3.998 3.641c2.701 2.663 5.091 5.463 7.102 8.325a54.993 54.993 0 0 1 1.706 2.572c5.102 8.175 7.688 16.963 7.688 26.116 0 .847-.028 1.727-.09 2.769l-.041.63a45.42 45.42 0 0 1-.265 2.685l-.046.307c-.119.86-.251 1.651-.401 2.437l-.188.98a45.965 45.965 0 0 1-.52 2.174l-.237.863c-.068.255-.138.51-.214.764-.078.262-.162.519-.246.775l-.038.117c-2.755 14.783-12.704 28.319-27.56 37.661.246.593.491 1.187.732 1.78l.751 1.863c.393.977.783 1.955 1.169 2.935l.751 1.933a370.612 370.612 0 0 1 1.856 4.897c.353.951.702 1.901 1.047 2.853.241.665.482 1.33.719 1.996.346.966.685 1.935 1.021 2.904 0 0 .467 1.338.672 1.938.351 1.022.691 2.045 1.033 3.068l.592 1.778c.39 1.189.771 2.382 1.148 3.575l.405 1.267a376.09 376.09 0 0 1 1.5 4.896l.192.657a405.97 405.97 0 0 1 1.229 4.211l.449 1.604c.306 1.093.612 2.188.909 3.286.124.453.488 1.831.488 1.831.273 1.025.545 2.053.811 3.082l.482 1.904c.255 1.008.506 2.019.752 3.029l.461 1.916c.243 1.019.481 2.038.716 3.058l.428 1.871c.238 1.063.47 2.124.698 3.186l.374 1.731c.246 1.165.483 2.329.719 3.493l.289 1.43c.303 1.525.595 3.055.879 4.585l.064.342c.31 1.672.608 3.361.898 5.051l.1.601c.245 1.452.483 2.896.712 4.34l.21 1.373c.184 1.193.365 2.391.539 3.588l.224 1.591c.159 1.128.315 2.259.464 3.39l.215 1.663c.143 1.118.28 2.235.411 3.351l.193 1.649c.131 1.144.255 2.286.375 3.427l.161 1.543c.124 1.22.24 2.439.353 3.659l.12 1.294c.126 1.428.243 2.853.354 4.276l.054.67c.257 3.384.472 6.816.64 10.2l.014.297c.076 1.563.143 3.121.2 4.679l.032.977c.047 1.333.087 2.672.119 4.01l.025 1.219c.027 1.26.048 2.525.063 3.79l.012 1.28c.01 1.265.015 2.522.013 3.78l-.003 1.24c-.006 1.305-.02 2.611-.038 3.917l-.016 1.046a389.36 389.36 0 0 1-.1 4.34l-.016.604a394.838 394.838 0 0 1-1.127 20.251l-.048.568a396.321 396.321 0 0 1-.39 4.399l-.077.8a414.688 414.688 0 0 1-.427 4.201l-.092.846a380.68 380.68 0 0 1-.484 4.222l-.091.752a371.884 371.884 0 0 1-.572 4.474l-.058.438a397.483 397.483 0 0 1-4.204 25.066l-.021.107a422.039 422.039 0 0 1-.994 4.783l-.097.447c-.32 1.488-.652 2.99-.994 4.491l-.103.454c-.351 1.53-.709 3.059-1.078 4.585l-.068.286a398.409 398.409 0 0 1-9.907 34.159l-.038.111a397.44 397.44 0 0 1-1.633 4.709l-.057.162a397.88 397.88 0 0 1-23.826 54.08l-.245.458a396.561 396.561 0 0 1-11.434 19.965l-.379.622a391.328 391.328 0 0 1-3.628 5.789l-.792 1.233a395.956 395.956 0 0 1-3.868 5.898l-.133.222-.088.105a394.218 394.218 0 0 1-8.627 12.334l-.061.084a397.822 397.822 0 0 1-9.619 12.67l-.092.194-.362.379-.073.09a419.855 419.855 0 0 1-2.958 3.672l-.81.981c-.783.954-1.569 1.907-2.362 2.854l-1.1 1.303c-.707.837-1.412 1.669-2.123 2.497l-1.229 1.421c-.683.787-1.368 1.573-2.059 2.356l-1.279 1.444a497.421 497.421 0 0 1-3.364 3.732 348.34 348.34 0 0 1-2.179 2.364l-1.226 1.318c-.799.854-1.609 1.706-2.421 2.557l-1.02 1.071a397.886 397.886 0 0 1-7.075 7.174l-.961.939c-.872.855-1.749 1.712-2.633 2.564l-1.296 1.237a298.034 298.034 0 0 1-3.784 3.562c-.757.702-1.517 1.405-2.281 2.104a382.986 382.986 0 0 1-3.788 3.417l-1.478 1.312c-.797.703-1.601 1.402-2.405 2.1l-1.419 1.23c-.885.76-1.775 1.514-2.667 2.266l-1.192 1.008a395.632 395.632 0 0 1-7.891 6.431l-1.179.926c-.94.741-1.88 1.478-2.827 2.209l-1.505 1.152c-.849.649-1.699 1.297-2.555 1.941l-1.633 1.219a398.532 398.532 0 0 1-4.176 3.065c-.834.604-1.672 1.205-2.512 1.803-.587.418-1.133.807-1.682 1.193a379.4 379.4 0 0 1-2.615 1.822l-1.616 1.117c-.955.654-1.919 1.304-2.884 1.952l-1.382.93a416.405 416.405 0 0 1-4.258 2.796l-.108.07a381.772 381.772 0 0 1-4.305 2.743l-1.394.865c-1 .623-2.001 1.245-3.008 1.86l-1.708 1.032c-.917.553-1.835 1.106-2.759 1.653-.53.315-1.82 1.07-1.82 1.07a372.805 372.805 0 0 1-7.296 4.17c-.618.345-1.237.69-1.86 1.033a411.58 411.58 0 0 1-2.839 1.545s-1.351.731-1.785.962a405.172 405.172 0 0 1-3.151 1.66l-1.5.785a385.308 385.308 0 0 1-9.444 4.726l-1.536.732a404.866 404.866 0 0 1-3.224 1.532c-.429.201-1.859.857-1.859.857-.989.457-1.954.903-2.92 1.34-.49.221-1.975.881-1.975.881-.94.419-1.882.838-2.825 1.25-.591.258-2.045.882-2.045.882-.919.395-1.84.789-2.763 1.177-.607.255-2.09.87-2.09.87-.914.378-1.826.754-2.74 1.125-.703.285-1.405.565-2.106.846a390.875 390.875 0 0 1-12.521 4.747s-1.413.509-2.052.734c-.956.339-1.918.672-2.88 1.003 0 0-1.443.5-1.995.687-1 .338-1.998.669-2.996.999l-1.882.621c-1.073.349-2.148.688-3.225 1.027l-1.667.527c-1.238.384-2.479.758-3.721 1.13l-1.176.355a395.402 395.402 0 0 1-9.951 2.804l-.789.207c-1.381.367-2.766.729-4.15 1.08l-1.389.345c-1.188.296-2.375.591-3.562.875l-1.619.381c-1.115.263-2.232.523-3.349.776l-1.717.381c-1.084.24-2.17.478-3.256.709l-1.768.369c-1.078.224-2.154.444-3.23.658l-1.77.347a385.4 385.4 0 0 1-3.239.616l-1.755.321c-1.09.197-2.185.39-3.277.578l-1.706.291c-1.121.188-2.24.369-3.36.546l-1.617.254c-1.169.181-2.336.353-3.503.522l-1.48.214c-1.241.175-2.484.342-3.728.505l-1.245.165c-1.376.176-2.752.343-4.128.504l-.85.102a394.173 394.173 0 0 1-20.364 1.805l-.156.009c-1.624.101-3.24.19-4.856.271l-.668.03c-1.445.069-2.897.132-4.349.186l-.913.03c-1.368.047-2.74.088-4.109.121l-1.041.022a407.12 407.12 0 0 1-3.999.066l-1.076.01a406.04 406.04 0 0 1-3.311.014l-1.734-.001z" class="st0"/><path d="M539.401 10.941c99.642 0 180.418 80.776 180.418 180.418a181.8 181.8 0 0 1-1.776 25.341h1.173c10.093 0 19.702 1.672 28.412 4.656a80.39 80.39 0 0 1 9.182 3.796 75.605 75.605 0 0 1 5.336 2.881 68.549 68.549 0 0 1 8.97 6.337 62.138 62.138 0 0 1 3.729 3.396c2.454 2.418 4.668 4.989 6.579 7.707.547.777 1.07 1.566 1.568 2.365 4.488 7.193 7.008 15.247 7.008 23.736 0 .84-.034 1.674-.083 2.505-.011.191-.022.382-.036.573a42.463 42.463 0 0 1-.24 2.426c-.015.114-.035.226-.05.34-.099.717-.218 1.43-.353 2.138-.036.188-.069.377-.108.565-.023.113-.041.226-.065.339a43.395 43.395 0 0 1-.467 1.955c-.048.185-.103.369-.154.554-.085.309-.165.619-.257.926-.097.323-.205.643-.31.964-.014.042-.024.086-.039.128-2.719 15.13-13.499 28.322-28.846 36.874.089.21.179.419.267.629.218.515.43 1.032.645 1.548.442 1.058.883 2.116 1.315 3.175.25.614.495 1.229.742 1.843.389.967.776 1.934 1.156 2.903.255.648.505 1.297.756 1.946a389.542 389.542 0 0 1 1.822 4.805 382.712 382.712 0 0 1 2.757 7.666c.222.638.445 1.277.664 1.915.346 1.011.684 2.023 1.021 3.035.195.584.392 1.168.584 1.753.386 1.177.762 2.355 1.136 3.534.133.419.27.838.402 1.258a389.16 389.16 0 0 1 1.482 4.836c.065.216.126.433.19.65.412 1.387.818 2.774 1.214 4.163.15.527.295 1.055.443 1.582.304 1.083.606 2.166.901 3.251.164.602.322 1.206.482 1.809.27 1.016.539 2.031.8 3.048.161.627.319 1.255.478 1.882a409.375 409.375 0 0 1 1.2 4.889 401.22 401.22 0 0 1 1.82 8.019c.123.571.249 1.143.37 1.715.243 1.15.477 2.301.71 3.452.095.47.193.94.286 1.41.299 1.511.588 3.022.869 4.534.02.108.042.215.061.323.308 1.669.605 3.339.89 5.009.034.2.065.4.099.599.242 1.428.477 2.856.703 4.284.071.451.138.902.208 1.354.183 1.183.362 2.367.534 3.551.076.523.148 1.046.221 1.57.157 1.118.311 2.235.458 3.353.072.549.142 1.098.212 1.647a414.04 414.04 0 0 1 .598 4.942c.129 1.128.252 2.255.371 3.383.054.51.108 1.019.16 1.529.122 1.205.237 2.409.347 3.614.039.428.081.856.119 1.284.125 1.408.24 2.817.349 4.225.017.22.037.44.053.66.255 3.363.466 6.725.633 10.086l.013.298c.075 1.54.141 3.08.198 4.62.012.321.021.642.032.963.046 1.322.086 2.644.118 3.965.01.402.017.804.026 1.206.026 1.25.047 2.499.062 3.749l.012 1.269c.01 1.244.014 2.488.013 3.732-.001.409-.001.817-.003 1.225a384.585 384.585 0 0 1-.038 3.874c-.005.345-.009.69-.015 1.034a408.871 408.871 0 0 1-.098 4.291l-.016.596a388.943 388.943 0 0 1-1.114 20.019l-.047.555a395.4 395.4 0 0 1-.385 4.355l-.076.792a384.394 384.394 0 0 1-.992 9.162l-.089.744c-.18 1.475-.369 2.949-.566 4.421l-.058.439a390.347 390.347 0 0 1-4.156 24.776l-.038.185a382.898 382.898 0 0 1-.966 4.648l-.092.427a402.557 402.557 0 0 1-2.153 9.44l-.066.276a392.505 392.505 0 0 1-9.797 33.778l-.061.18c-.52 1.531-1.05 3.059-1.59 4.584l-.058.164a391.924 391.924 0 0 1-23.555 53.464l-.243.456-.001.001a390.813 390.813 0 0 1-11.301 19.734l-.002.003-.377.617-.001.002a388.456 388.456 0 0 1-3.838 6.115l-.45.699-.002.004a388.564 388.564 0 0 1-3.957 6.035l-.004.007-.149.22a387.21 387.21 0 0 1-8.534 12.202l-.001.001-.06.082a387.256 387.256 0 0 1-9.826 12.924l-.004.006-.005.006-.001.002a382.79 382.79 0 0 1-3.12 3.874c-.264.324-.532.645-.797.968-.775.944-1.553 1.887-2.337 2.824-.361.431-.726.86-1.089 1.289-.696.825-1.394 1.648-2.098 2.467-.402.469-.807.935-1.212 1.401a373.12 373.12 0 0 1-5.361 6.053 332.259 332.259 0 0 1-3.421 3.732c-.403.434-.804.869-1.209 1.302-.794.847-1.594 1.689-2.396 2.53-.337.353-.671.708-1.009 1.06a389.179 389.179 0 0 1-6.992 7.089c-.314.31-.632.617-.946.926a390.11 390.11 0 0 1-2.605 2.536c-.425.409-.853.815-1.28 1.221-.772.737-1.546 1.472-2.325 2.203-.47.441-.942.879-1.414 1.318a373.747 373.747 0 0 1-6.003 5.461c-.486.433-.971.865-1.46 1.296-.789.695-1.582 1.386-2.377 2.076-.468.406-.934.813-1.404 1.217-.874.751-1.754 1.496-2.636 2.24-.394.332-.785.667-1.18.998a387.93 387.93 0 0 1-7.797 6.355c-.388.308-.78.612-1.169.918a400.53 400.53 0 0 1-2.791 2.181c-.494.381-.991.759-1.487 1.139-.84.643-1.681 1.284-2.527 1.92-.536.404-1.076.805-1.615 1.206a371.425 371.425 0 0 1-6.61 4.81c-.553.394-1.106.787-1.661 1.179-.858.604-1.721 1.203-2.586 1.802-.531.368-1.061.737-1.595 1.102-.947.648-1.899 1.29-2.853 1.931-.456.306-.909.615-1.366.92a391.361 391.361 0 0 1-4.21 2.765l-.046.03c-1.431.925-2.87 1.841-4.316 2.75-.458.288-.92.571-1.38.857-.988.616-1.978 1.23-2.974 1.838-.56.342-1.124.68-1.687 1.019-.907.547-1.815 1.094-2.728 1.635-.598.354-1.199.706-1.8 1.058a412.054 412.054 0 0 1-4.517 2.606c-.896.509-1.795 1.014-2.696 1.516-.613.342-1.225.683-1.84 1.022-.932.513-1.869 1.021-2.806 1.527-.587.317-1.172.636-1.762.95a400.535 400.535 0 0 1-3.119 1.642c-.495.258-.986.52-1.483.776a391.512 391.512 0 0 1-9.341 4.674c-.505.244-1.011.481-1.517.723-1.062.508-2.124 1.017-3.188 1.515-.611.286-1.223.564-1.835.847-.964.445-1.927.89-2.892 1.326-.649.294-1.3.581-1.95.87-.931.414-1.862.829-2.794 1.236-.673.293-1.347.581-2.021.871-.91.391-1.82.781-2.732 1.164-.689.29-1.379.575-2.069.861a394.714 394.714 0 0 1-4.791 1.947 413.176 413.176 0 0 1-4.791 1.874 391.947 391.947 0 0 1-4.803 1.807c-.927.342-1.856.678-2.784 1.013-.675.243-1.351.487-2.027.726-.948.335-1.898.664-2.847.992-.658.227-1.316.455-1.974.679-.986.335-1.974.661-2.962.987-.62.205-1.239.412-1.859.613-1.061.344-2.124.68-3.187 1.015-.549.173-1.098.35-1.647.52-1.226.38-2.453.75-3.681 1.118-.387.116-.774.236-1.161.351a387.454 387.454 0 0 1-9.838 2.772c-.259.069-.519.135-.778.204-1.367.363-2.735.721-4.105 1.068-.458.116-.917.227-1.375.341-1.172.293-2.345.584-3.518.865-.533.128-1.067.251-1.601.376-1.103.26-2.206.518-3.31.767-.565.128-1.131.251-1.696.376a362.58 362.58 0 0 1-3.22.701c-.583.124-1.166.244-1.75.365-1.063.221-2.126.438-3.189.65-.583.116-1.167.229-1.75.343a392.705 392.705 0 0 1-4.935.926 407.295 407.295 0 0 1-4.928.858c-1.107.185-2.215.365-3.323.54-.533.084-1.066.17-1.599.252-1.153.178-2.306.348-3.46.515-.488.071-.976.143-1.464.212-1.228.173-2.457.338-3.685.499-.411.054-.821.11-1.232.163-1.36.174-2.72.338-4.08.498-.282.033-.563.069-.845.101a388.23 388.23 0 0 1-20.125 1.784l-.162.009c-1.598.099-3.195.188-4.792.267-.218.011-.437.019-.655.03-1.435.069-2.869.131-4.304.183l-.902.03a368.051 368.051 0 0 1-10.109.215c-1.083.009-2.166.014-3.249.014l-.677-.001a401.557 401.557 0 0 1-10.094-.15l-.857-.024a380.845 380.845 0 0 1-4.281-.153c-.213-.009-.427-.016-.64-.026a395.054 395.054 0 0 1-4.907-.24 390.248 390.248 0 0 1-39.866-4.27l-.199-.032a390.064 390.064 0 0 1-4.7-.781l-.299-.052a396.528 396.528 0 0 1-4.608-.826l-.327-.061a377.622 377.622 0 0 1-4.605-.887l-.277-.055a394.97 394.97 0 0 1-4.698-.967l-.145-.031a392.242 392.242 0 0 1-83.541-27.885 390.896 390.896 0 0 1-20.748-10.392l-.001-.001h-.001a389.868 389.868 0 0 1-44.461-27.957l-.04-.029a385.602 385.602 0 0 1-6.987-5.204l-.112-.085a383.87 383.87 0 0 1-6.913-5.399 387.177 387.177 0 0 1-32.893-29.519l-.109-.11a385.688 385.688 0 0 1-6.071-6.254l-.199-.21a385.63 385.63 0 0 1-5.916-6.383l-.165-.183a389.44 389.44 0 0 1-9.17-10.507l-.002-.003-.103-.123a394.781 394.781 0 0 1-3.184-3.837l-.001-.002-.094-.115a390.213 390.213 0 0 1-3.167-3.924l-.008-.01-.169-.212-.152-.191-.004-.005a383.19 383.19 0 0 1-2.934-3.74l-.001-.002-.03-.038c-1.084-1.4-2.16-2.808-3.227-4.226l-.004-.005-.133-.176-.001-.002a386.437 386.437 0 0 1-7.73-10.653l-.011-.015a391.82 391.82 0 0 1-5.618-8.248l-.006-.009a390.602 390.602 0 0 1-5.403-8.385l-.006-.009-.002-.003a393.238 393.238 0 0 1-5.217-8.571l-.005-.008a397.44 397.44 0 0 1-5.02-8.743l-.004-.007-.026-.047a390.056 390.056 0 0 1-2.591-4.727l-.003-.005-.001-.002a409.506 409.506 0 0 1-2.702-5.097l-.208-.397a385.834 385.834 0 0 1-2.701-5.289l-.013-.025-.008-.016a392.425 392.425 0 0 1-3.105-6.364c-.281-.588-.559-1.177-.837-1.766a397.615 397.615 0 0 1-2.445-5.276c-.191-.421-.387-.841-.577-1.262a386.527 386.527 0 0 1-2.809-6.395c-.219-.51-.432-1.022-.649-1.533a388.659 388.659 0 0 1-2.162-5.204c-.224-.549-.449-1.098-.67-1.648a387.091 387.091 0 0 1-2.551-6.503c-.096-.253-.188-.507-.284-.76a398.097 398.097 0 0 1-2.773-7.558 396.88 396.88 0 0 1-2.107-6.073c-.061-.179-.124-.358-.184-.537a389.777 389.777 0 0 1-2.167-6.674c-.158-.501-.312-1.002-.468-1.504a381.658 381.658 0 0 1-1.704-5.624c-.122-.413-.246-.825-.367-1.238a384.662 384.662 0 0 1-1.902-6.761c-.085-.312-.165-.624-.249-.937a385.128 385.128 0 0 1-1.547-5.948c-.118-.468-.237-.936-.353-1.405a384.88 384.88 0 0 1-3.134-13.707l-.268-1.294a389.051 389.051 0 0 1-1.273-6.436l-.084-.435c-.442-2.359-.859-4.72-1.256-7.082l-.139-.849a386.255 386.255 0 0 1-1.002-6.369c-.043-.292-.089-.583-.131-.875a389.81 389.81 0 0 1-1.809-14.194l-.098-.912a387.513 387.513 0 0 1-1.709-21.971l-.006-.108a387.838 387.838 0 0 1-.442-15.119c-.048-4.87-.004-9.734.131-14.591l.01-.36a389.43 389.43 0 0 1 2.805-36.82l.017-.139a391.232 391.232 0 0 1 2.099-14.618l.001-.005.005-.031a399.499 399.499 0 0 1 1.108-6.46l.003-.019.001-.008c.285-1.578.579-3.154.883-4.727l.03-.156a387.9 387.9 0 0 1 .932-4.661l.034-.167a412.301 412.301 0 0 1 1.017-4.777 393.77 393.77 0 0 1 2.622-11.163l.013-.054.003-.011c.385-1.535.78-3.068 1.183-4.598l.051-.195c.4-1.513.809-3.024 1.227-4.533l.054-.194c.422-1.521.854-3.041 1.294-4.557l.033-.113a392.842 392.842 0 0 1 3.142-10.273c.08-.248.158-.497.239-.745l.004-.013a391.8 391.8 0 0 1 3.174-9.411l.178-.51a378.772 378.772 0 0 1 1.625-4.513c.092-.252.183-.505.276-.757a416.671 416.671 0 0 1 1.581-4.206c.128-.336.254-.672.383-1.008a401.017 401.017 0 0 1 1.544-3.936c.16-.402.316-.806.477-1.208a376.933 376.933 0 0 1 1.571-3.841c.169-.408.333-.818.503-1.226.242-.579.491-1.156.736-1.734-15.353-8.552-26.136-21.746-28.856-36.879l-.023-.078a44.09 44.09 0 0 1-.632-2.11c-.023-.086-.05-.171-.074-.257-.005-.021-.012-.042-.018-.062a43.628 43.628 0 0 1-.647-2.899c-.042-.222-.092-.443-.131-.667a42.608 42.608 0 0 1-.251-1.645l-.02-.13a42.686 42.686 0 0 1-.185-1.684c-.023-.257-.039-.515-.058-.772a41.072 41.072 0 0 1-.04-.606c-.013-.215-.033-.429-.042-.645a42.518 42.518 0 0 1-.04-1.858c0-8.489 2.52-16.543 7.008-23.736a52.298 52.298 0 0 1 1.568-2.365 55.954 55.954 0 0 1 5.534-6.678 62.474 62.474 0 0 1 5.63-5.121 68.351 68.351 0 0 1 7.1-5.023 73.257 73.257 0 0 1 5.87-3.261 78.45 78.45 0 0 1 8.559-3.647c8.998-3.228 18.993-5.045 29.514-5.045h6.51c15.626-40.963 55.257-70.072 101.709-70.072 6.124 0 12.12.531 17.969 1.503-.027-.998-.076-1.99-.076-2.994 0-60.938 49.4-110.338 110.339-110.338 34.055 0 64.496 15.437 84.736 39.684 33.093-38.867 82.378-63.533 137.431-63.533m0-9c-52.206 0-101.75 21.427-137.478 59.13-22.345-22.532-52.674-35.273-84.69-35.273-31.876 0-61.845 12.413-84.385 34.953-20.846 20.846-33.031 48.049-34.744 77.236-3.049-.239-6.089-.36-9.102-.36-24.349 0-47.719 7.368-67.584 21.308-17.686 12.411-31.47 29.18-40.148 48.764h-.487c-11.292 0-22.245 1.875-32.553 5.573a87.436 87.436 0 0 0-12.243 5.473 81.834 81.834 0 0 0-3.875 2.248 77.771 77.771 0 0 0-8.033 5.684 71.483 71.483 0 0 0-6.442 5.864 65.046 65.046 0 0 0-6.424 7.755 62.323 62.323 0 0 0-1.841 2.777C3.895 251.852 1 261.708 1 271.575c0 .75.016 1.507.049 2.25.01.217.024.428.039.64l.01.135c.015.253.031.5.049.746l.012.176c.018.25.036.501.058.75.067.737.141 1.404.225 2.041.012.091.024.169.035.244.092.68.189 1.312.293 1.905.038.216.081.435.126.654l.031.153a52.125 52.125 0 0 0 .784 3.498l.034.131.028.097c.021.077.041.144.061.212.175.644.367 1.294.581 1.973 2.85 14.834 12.297 28.437 26.384 38.276l-.243.616-.189.479a390.167 390.167 0 0 0-1.578 4.023l-.245.645-.149.393a377.184 377.184 0 0 0-1.615 4.296l-.17.467-.113.311a387.964 387.964 0 0 0-1.661 4.614l-.116.333-.068.196a412.622 412.622 0 0 0-1.693 4.92l-.044.131-.042.127a403.861 403.861 0 0 0-1.452 4.403l-.086.258-.014.054-.071.22-.089.278-.001.002-.025.079a402.206 402.206 0 0 0-3.188 10.43l-.029.101a400.353 400.353 0 0 0-1.328 4.675l-.016.059-.043.156a402.058 402.058 0 0 0-1.251 4.621l-.031.116-.019.072a419.151 419.151 0 0 0-1.213 4.714l-.026.103-.003.014a402.873 402.873 0 0 0-2.67 11.368l8.771 2.018-8.787-1.947c-.357 1.628-.696 3.22-1.026 4.815l-.019.095-.013.063c-.33 1.6-.648 3.19-.956 4.781l-.02.106-.01.052c-.305 1.58-.601 3.16-.887 4.743l-.024.12-.016.105a410.33 410.33 0 0 0-1.104 6.434l-.001.003-.009.054-.008.05-.005.033a400.988 400.988 0 0 0-2.142 14.923l-.021.166a400.4 400.4 0 0 0-2.867 37.647l-.002.062-.009.32a398.87 398.87 0 0 0-.133 14.914l.004.342.001.108c.055 5.026.205 10.083.447 15.019l.005.1c.115 2.326.257 4.751.423 7.221l.014.204.029.439c.334 4.836.766 9.76 1.284 14.628l.089.825.012.105c.53 4.87 1.152 9.756 1.851 14.526l.081.541.053.354c.325 2.184.67 4.377 1.025 6.518l.055.337.087.53c.417 2.481.85 4.919 1.286 7.247l.057.297.029.151c.396 2.1.822 4.254 1.302 6.584l.274 1.323a400.447 400.447 0 0 0 3.207 14.027c.096.389.195.78.294 1.171l.068.268a397.222 397.222 0 0 0 1.583 6.085l.092.347.163.612a402.365 402.365 0 0 0 1.946 6.917c.077.265.156.53.235.794l.141.473c.56 1.9 1.146 3.836 1.743 5.753l.137.443a400.213 400.213 0 0 0 2.559 7.923l.123.361.066.193a405.088 405.088 0 0 0 2.775 7.944c.765 2.119 1.489 4.08 2.216 5.998l.108.291.182.486a401.393 401.393 0 0 0 3.101 7.862l.195.478a395.701 395.701 0 0 0 2.212 5.323l.23.545c.144.341.288.682.434 1.023a400.906 400.906 0 0 0 2.873 6.541c.12.266.242.531.364.797l.227.496a406.289 406.289 0 0 0 2.499 5.394l.028.059a396.872 396.872 0 0 0 3.977 8.203l.053.111.039.072a392.477 392.477 0 0 0 2.718 5.319l.132.251.085.162a404.35 404.35 0 0 0 2.755 5.195l.011.02.184.344.012.018a404.267 404.267 0 0 0 2.454 4.471l.024.044a402.634 402.634 0 0 0 5.14 8.953l.124.209.002.003a407.589 407.589 0 0 0 5.067 8.326l.182.335.17.227a400.46 400.46 0 0 0 5.179 8.036l.001.001.14.212.018.027a398.764 398.764 0 0 0 5.727 8.409l.002.002.003.004.041.059.018.025a399.209 399.209 0 0 0 7.723 10.649l.002.003.058.077.134.214.255.302a391.242 391.242 0 0 0 3.149 4.12l.012.015.008.01.013.016c.987 1.273 1.98 2.539 2.979 3.798l.034.044.028.034.127.16.066.094.177.211a402.517 402.517 0 0 0 3.111 3.854l.003.004.156.19.547.667.146.178.001.001c.807.981 1.619 1.957 2.435 2.928l.006.008.23.273a398.82 398.82 0 0 0 9.383 10.752l.071.079.097.107a397.302 397.302 0 0 0 6.055 6.534l.124.131.071.075a402.014 402.014 0 0 0 6.221 6.409l.095.095a398.007 398.007 0 0 0 33.657 30.208l.013.011.014.012.025.02a395.076 395.076 0 0 0 7.038 5.494l.044.034.072.055a398.949 398.949 0 0 0 7.146 5.323l.016.011.019.013.007.005a400.288 400.288 0 0 0 44.96 28.318l.004.003.526.283a402.408 402.408 0 0 0 21.225 10.631 401.819 401.819 0 0 0 85.458 28.525l.105.022c1.643.349 3.244.679 4.848.999l.294.058c1.557.31 3.128.612 4.701.905l.329.062c1.574.292 3.146.574 4.719.846l.289.05c1.617.279 3.219.545 4.823.801l.175.029a401.323 401.323 0 0 0 40.813 4.373l.188.01.107.005c1.572.086 3.148.163 4.726.23l.411.017.242.01c1.46.06 2.92.113 4.381.156l.551.015.323.009c1.391.039 2.781.07 4.172.094l1.017.016c1.352.02 2.703.033 4.054.039l1.094.004.687.001c1.108 0 2.215-.005 3.323-.014l.105-.001.984-.009a421.69 421.69 0 0 0 4.052-.066l.256-.005.789-.017c1.387-.033 2.774-.075 4.16-.123l.345-.011.575-.019c1.469-.054 2.937-.117 4.405-.188l.255-.011.422-.019c1.627-.081 3.262-.171 4.897-.273l.123-.007a398.658 398.658 0 0 0 20.635-1.828l.516-.062.348-.042c1.393-.164 2.784-.332 4.175-.51l.796-.105.468-.062c1.254-.165 2.512-.333 3.769-.511.363-.051.724-.104 1.086-.157l.415-.061a373.044 373.044 0 0 0 4.892-.74l.282-.045a400.5 400.5 0 0 0 3.399-.553c.575-.096 1.15-.195 1.725-.294a403.449 403.449 0 0 0 10.157-1.882c1.088-.216 2.176-.439 3.263-.665l.407-.085c.461-.096.922-.191 1.382-.289a402.37 402.37 0 0 0 3.297-.718l.502-.111c.411-.091.823-.181 1.234-.275a360.81 360.81 0 0 0 3.387-.785l.533-.125c.368-.086.737-.172 1.105-.26 1.2-.288 2.401-.586 3.6-.886l.513-.127c.298-.073.595-.146.893-.222 1.4-.355 2.8-.721 4.199-1.092l.312-.082.484-.127a400.66 400.66 0 0 0 10.066-2.836c.24-.071.478-.143.716-.216l.471-.143c1.258-.377 2.513-.755 3.767-1.144.367-.114.735-.231 1.104-.348l.583-.185c1.085-.342 2.172-.685 3.259-1.038.45-.146.899-.295 1.349-.444l.554-.184a413.57 413.57 0 0 0 3.03-1.01c.528-.179 1.054-.361 1.581-.543l.439-.151c.972-.336 1.943-.672 2.914-1.015.65-.23 1.298-.463 1.947-.697l.126-.045c.95-.342 1.899-.686 2.848-1.036.702-.259 1.403-.521 2.104-.783a378.556 378.556 0 0 0 7.712-2.983c.709-.283 1.42-.567 2.131-.855.924-.375 1.847-.755 2.77-1.137.711-.294 1.414-.585 2.117-.881.93-.391 1.861-.79 2.792-1.19l.365-.156c.568-.244 1.135-.487 1.702-.734.942-.411 1.88-.829 2.818-1.247l.59-.263c.482-.214.964-.428 1.446-.646.929-.42 1.858-.849 2.787-1.277l.17-.078.63-.29c.416-.191.832-.382 1.247-.576 1.031-.482 2.061-.975 3.091-1.468l.168-.081.598-.284c.317-.151.635-.301.952-.454a400.778 400.778 0 0 0 9.554-4.781c.324-.168.647-.337.97-.507l.548-.288c1.064-.556 2.13-1.114 3.189-1.679.445-.237.888-.477 1.332-.718l.47-.254c.958-.517 1.916-1.037 2.87-1.562.629-.346 1.256-.696 1.882-1.045.921-.513 1.841-1.03 2.757-1.55.633-.359 1.263-.72 1.893-1.081.911-.524 1.821-1.052 2.728-1.584l.166-.097a349.634 349.634 0 0 0 4.466-2.657l.517-.311c.404-.243.808-.487 1.21-.732a419.546 419.546 0 0 0 3.042-1.88l.516-.32c.299-.185.598-.37.896-.557a398.736 398.736 0 0 0 4.414-2.813l.023-.015.023-.015.003-.002.026-.017c1.434-.929 2.86-1.866 4.278-2.81.297-.198.593-.397.888-.597l.51-.344a364.22 364.22 0 0 0 2.92-1.976c.388-.266.776-.535 1.165-.804l.465-.322c.886-.613 1.769-1.226 2.647-1.845.526-.37 1.049-.742 1.572-1.114l.127-.09a424.619 424.619 0 0 0 4.246-3.064c.844-.618 1.682-1.237 2.518-1.859l.158-.118c.499-.371.998-.743 1.495-1.116a381.72 381.72 0 0 0 2.585-1.964l.46-.352c.354-.27.708-.54 1.06-.812.958-.741 1.908-1.486 2.857-2.233l.449-.352c.249-.195.499-.39.747-.587a398.23 398.23 0 0 0 7.979-6.503c.256-.214.51-.43.765-.646l.442-.375a374.39 374.39 0 0 0 2.698-2.293c.343-.294.684-.591 1.025-.887l.411-.357c.814-.706 1.626-1.413 2.433-2.125.5-.44.997-.884 1.495-1.328a413.18 413.18 0 0 0 3.829-3.456c.773-.707 1.543-1.417 2.31-2.13l.123-.114a311.705 311.705 0 0 0 3.703-3.489l.387-.369c.308-.293.616-.587.922-.882.892-.859 1.779-1.726 2.664-2.594l.379-.37.59-.578a395.676 395.676 0 0 0 7.154-7.253c.216-.225.429-.449.642-.674l.39-.411c.821-.861 1.64-1.722 2.451-2.588.308-.328.612-.657.916-.985l.324-.349a418.02 418.02 0 0 0 2.203-2.389 438.435 438.435 0 0 0 4.698-5.237c.697-.791 1.392-1.587 2.084-2.385l.103-.119c.38-.438.76-.875 1.137-1.315a432.38 432.38 0 0 0 2.146-2.523l.344-.406c.257-.303.513-.606.768-.911.805-.962 1.601-1.926 2.394-2.892l.318-.385.499-.606a390.223 390.223 0 0 0 2.976-3.692l.087-.094.146-.195.519-.623.05-.101c3.056-3.866 6.12-7.9 9.122-12.009l.003-.003.404-.556.016-.022.013-.018c3-4.121 5.93-8.312 8.712-12.458l.029-.043.111-.164.132-.195.009-.015a401.945 401.945 0 0 0 3.885-5.927l.08-.12.038-.063.109-.17.272-.422a411.665 411.665 0 0 0 3.713-5.909l.002-.003.168-.274.047-.077.543-.883.004-.012a401.242 401.242 0 0 0 11.403-19.93l.249-.467a402.075 402.075 0 0 0 24.096-54.692l.03-.084.035-.1a399.036 399.036 0 0 0 1.62-4.673l.044-.129.003-.008.016-.047a403.012 403.012 0 0 0 10.022-34.553l.041-.169.027-.111a404.57 404.57 0 0 0 1.09-4.641l.078-.34.027-.117c.346-1.518.682-3.038 1.009-4.559l.032-.15.062-.286c.339-1.584.669-3.169.988-4.756l.01-.049.03-.148a401.654 401.654 0 0 0 4.25-25.338l.035-.267.023-.178c.202-1.511.395-3.018.579-4.527l.067-.555.025-.21c.17-1.417.334-2.84.489-4.263l.093-.857c.152-1.414.295-2.831.432-4.249l.025-.259.053-.553c.14-1.484.271-2.97.394-4.456l.018-.214.03-.358a400.16 400.16 0 0 0 1.14-20.478l.01-.376.006-.234c.041-1.464.076-2.927.101-4.391l.01-.693.005-.366c.019-1.32.033-2.642.039-3.964l.003-1.158v-.094a373.88 373.88 0 0 0-.013-3.818l-.012-1.299a409.262 409.262 0 0 0-.063-3.835l-.007-.343-.019-.888a421.09 421.09 0 0 0-.12-4.059l-.013-.387-.02-.599a393.988 393.988 0 0 0-.203-4.727l-.004-.095-.009-.205c-.17-3.428-.388-6.901-.648-10.325l-.033-.414-.021-.259c-.112-1.443-.23-2.884-.358-4.326l-.078-.85-.043-.464a388.238 388.238 0 0 0-.479-4.886l-.04-.375a402.572 402.572 0 0 0-.991-8.519l-.014-.113c-.067-.524-.134-1.048-.203-1.571a398.457 398.457 0 0 0-.469-3.433l-.062-.439-.165-1.167a379.124 379.124 0 0 0-.546-3.633l-.074-.487c-.046-.301-.091-.601-.139-.901-.23-1.459-.471-2.921-.718-4.382l-.036-.22-.066-.397a399.95 399.95 0 0 0-.91-5.122l-.045-.239-.017-.091a390.983 390.983 0 0 0-.889-4.641c-.06-.303-.122-.608-.185-.912l-.108-.531a433.788 433.788 0 0 0-.726-3.533c-.088-.417-.179-.836-.27-1.254l-.108-.5a363.21 363.21 0 0 0-.708-3.221c-.142-.631-.287-1.261-.432-1.891a431.982 431.982 0 0 0-1.19-5.03 351.945 351.945 0 0 0-.761-3.067l-.019-.077a417.11 417.11 0 0 0-.469-1.849c-.268-1.04-.542-2.079-.819-3.118l-.135-.507c-.119-.448-.238-.897-.359-1.344a411.96 411.96 0 0 0-.921-3.326l-.161-.576c-.096-.347-.193-.695-.292-1.042-.405-1.421-.82-2.84-1.242-4.259l-.074-.253-.121-.411a407.263 407.263 0 0 0-1.516-4.948c-.082-.262-.165-.52-.248-.778l-.163-.509a433.602 433.602 0 0 0-1.162-3.615c-.134-.411-.272-.82-.409-1.23l-.189-.565a390.3 390.3 0 0 0-1.044-3.104c-.182-.53-.366-1.06-.55-1.59l-.129-.37c-.341-.981-.685-1.961-1.034-2.94a448.482 448.482 0 0 0-2.543-6.926c-.365-.966-.734-1.929-1.107-2.892l-.103-.268c-.222-.575-.444-1.15-.67-1.724a381.38 381.38 0 0 0-1.182-2.968l-.101-.252c14.076-9.835 23.517-23.429 26.37-38.253.078-.24.155-.48.227-.722.088-.293.169-.589.248-.884l.063-.234.04-.142c.05-.175.099-.351.145-.527.221-.845.405-1.618.563-2.358a12.9 12.9 0 0 0 .085-.436l-.006.031c.037-.182.071-.364.105-.546l.027-.142c.167-.88.311-1.751.426-2.585.022-.139.043-.277.06-.415a51.41 51.41 0 0 0 .335-3.628c.067-1.137.098-2.1.098-3.033 0-9.867-2.895-19.722-8.372-28.5a61.175 61.175 0 0 0-1.841-2.777c-2.168-3.084-4.733-6.092-7.625-8.942a71.92 71.92 0 0 0-4.267-3.885 77.682 77.682 0 0 0-11.777-8.115 85.11 85.11 0 0 0-4.349-2.287 87.83 87.83 0 0 0-5.84-2.595 90.705 90.705 0 0 0-4.383-1.632c-7.218-2.474-14.743-4.063-22.464-4.751.49-5.573.738-11.171.738-16.732 0-25.567-5.009-50.375-14.889-73.733-9.541-22.557-23.197-42.813-40.59-60.206-17.393-17.393-37.649-31.05-60.206-40.59-23.361-9.874-48.168-14.883-73.736-14.883z" class="st0"/><circle cx="660.702" cy="506.189" r="11.035" class="st9" transform="rotate(-17.484 660.73 506.244)"/><path d="M695.54 434.379a7.356 7.356 0 1 0 14.212 3.808 7.356 7.356 0 0 0-5.202-9.01 7.355 7.355 0 0 0-9.01 5.202z" class="st9"/><path d="M790 271.571c0-30.181-31.853-54.875-70.784-54.875H80.784C41.853 216.696 10 241.39 10 271.571c0 19.901 13.853 37.411 34.448 47.034l-2.044.002C-1.947 420.777-2.44 541.131 51.297 648.532c96.357 192.583 330.589 270.59 523.173 174.233 186.559-93.343 265.598-316.071 182.765-504.984 19.659-9.776 32.765-26.859 32.765-46.21z" class="st1"/><path fill="#edc531" d="M719.82 191.356c0-99.642-80.776-180.418-180.418-180.418-55.053 0-104.339 24.666-137.432 63.541-20.24-24.248-50.682-39.684-84.736-39.684-60.938 0-110.338 49.4-110.338 110.338 0 1.004.049 1.996.076 2.994a109.473 109.473 0 0 0-17.968-1.503c-47.38 0-87.683 30.277-102.635 72.535h631.319a181.892 181.892 0 0 0 2.132-27.803z"/><path fill="#cea628" d="M688.95 138.462c-19.263-61.194-76.375-104.78-140.302-108.236-5.373-.385-12.001-.334-17.412-.062l-2.898.12-2.889.277-5.771.57c-1.913.27-6.781 1.038-8.597 1.307-4.439.882-9.698 2.02-14.093 3.28-29.404 8.134-56.383 25.405-75.747 49.005 23.351-21.301 52-36.332 83.119-42.22 5.156-.939 11.053-1.722 16.285-2.247 1.872-.097 6.352-.401 8.196-.493 11.741-.307 23.815.353 35.346 2.568 58.442 10.273 107.33 54.378 125.611 110.682 2.353 7.13 4.163 14.381 5.721 21.733-.626-12.297-2.895-24.529-6.569-36.284zM311.261 52.634c-29.049 2.611-56.215 20.886-68.121 47.642 37.556-51.836 113.869-51.176 147.304 4.155 9.948 16.703 14.246 36.932 12.122 57.302.823-2.429 1.468-4.92 2.039-7.439 1.375-6.295 1.889-12.929 1.732-19.381-1.26-48.893-46.569-87.412-95.076-82.279zm-72.576 135.062c-1.986-3.17-4.463-6.092-7.012-8.824-.765-.782-2.742-2.552-3.54-3.346l-2.537-2.039c-1.422-1.226-3.779-2.681-5.337-3.764-1.83-1.063-3.813-2.248-5.747-3.136-17.366-8.426-39.4-8.912-55.928 1.572 28.355-1.946 52.873 4.284 75.124 21.981.749.647 2.678 2.211 3.483 2.862 1.45 1.332 3.147 2.694 4.578 4.076 2.905 2.621 2.549 2.62 1.302-.893-1.069-2.865-2.74-5.901-4.386-8.489z" opacity=".5"/><path d="M718.012 222.79H81.988c-38.784 0-70.516 24.6-70.516 54.668 0 30.067 31.732 54.668 70.516 54.668h636.023c38.784 0 70.516-24.601 70.516-54.668.001-30.067-31.731-54.668-70.515-54.668z" opacity=".2"/><path d="M416.254 216.696H80.784C41.853 216.696 10 241.39 10 271.571s31.853 54.875 70.784 54.875h335.47" class="st1"/><path d="M383.746 216.696h335.47c38.931 0 70.784 24.694 70.784 54.875s-31.853 54.875-70.784 54.875h-335.47" class="st1"/><circle cx="289.623" cy="772.431" r="36.783" class="st9" transform="rotate(-84.997 289.645 772.436)"/><circle cx="561.887" cy="740.044" r="22.796" class="st9" transform="rotate(-4.002 562.199 740.425)"/><circle cx="635.08" cy="401.124" r="25.748" class="st9" transform="rotate(-78.784 635.104 401.122)"/><path d="M187.027 643.797c-1.686 6.293 2.048 12.762 8.342 14.448 6.293 1.686 12.762-2.048 14.448-8.342 1.686-6.293-2.048-12.762-8.342-14.448-6.293-1.686-12.762 2.049-14.448 8.342z" class="st9"/><circle cx="127.736" cy="459.346" r="58.853" class="st9" transform="rotate(-45.001 127.731 459.35)"/><path d="M715.891 585.241c-35.321-9.464-71.626 11.497-81.09 46.818-9.464 35.321 11.497 71.626 46.817 81.09a65.98 65.98 0 0 0 25.117 1.773 390.354 390.354 0 0 0 53.218-90.966c-7.599-18.39-23.357-33.167-44.062-38.715zm-613.523 59.582c-17.218-4.614-34.779 1.627-45.446 14.517 13.741 25.479 29.945 48.84 48.17 69.93 13.492-4.579 24.524-15.591 28.488-30.387 6.309-23.547-7.665-47.751-31.212-54.06z" class="st9"/><defs><path id="SVGID_00000147190385315626945610000012513261761924845477_" d="M214.75 349.52h370.5v370.5h-370.5z"/></defs><clipPath id="SVGID_00000159441539503968552550000006302817843605328023_"><use xlink:href="#SVGID_00000147190385315626945610000012513261761924845477_" overflow="visible"/></clipPath><path fill="#fff" d="M400.067 719.887c102.257 0 185.183-82.926 185.183-185.183S502.324 349.52 400.067 349.52s-185.183 82.926-185.183 185.183c-.134 102.258 82.792 185.184 185.183 185.184z" clip-path="url(#SVGID_00000159441539503968552550000006302817843605328023_)"/><linearGradient id="SVGID_00000137832032497651106050000006214616012500977587_" x1="466.432" x2="422.733" y1="537.538" y2="778.285" gradientTransform="translate(0 -78)" gradientUnits="userSpaceOnUse"><stop offset="0" stop-color="#ff496a"/><stop offset="1" stop-color="#e42648"/></linearGradient><path fill="url(#SVGID_00000137832032497651106050000006214616012500977587_)" d="M543.52 419.114c-12.799 2.533-25.064 6.133-35.197 8.399-23.065 5.2-44.529 22.798-49.196 55.062-4.133 28.797 5.466 41.196 1.333 74.793-7.466 58.528-63.594 78.66-89.859 90.925-15.199 7.066-51.995 23.198-80.393 35.463 30.797 22.665 68.66 36.13 109.857 36.13 102.391 0 185.183-82.926 185.183-185.183 0-43.596-15.065-83.726-40.396-115.323-.398-.133-.798-.133-1.332-.266z" clip-path="url(#SVGID_00000159441539503968552550000006302817843605328023_)"/><linearGradient id="SVGID_00000152968865406908178190000009867305319931493261_" x1="321.115" x2="417.736" y1="706.323" y2="433.466" gradientTransform="translate(0 -78)" gradientUnits="userSpaceOnUse"><stop offset=".002" stop-color="#1158f1"/><stop offset="1" stop-color="#119bed"/></linearGradient><path fill="url(#SVGID_00000152968865406908178190000009867305319931493261_)" d="M379.135 507.506c14.265-30.797 9.066-30.931 19.998-59.861 13.732-36.797 56.128-26.264 67.861-24.664 19.332 2.666 24.398-4.266 65.194-10.799 2-.267 4-.533 5.866-.8-33.864-37.863-83.193-61.728-138.121-61.728-73.727 0-137.321 43.063-167.185 105.324 61.195 15.065 127.189 47.995 146.387 52.528zm-40.396-125.722c5.333.8 31.464 33.33 36.397 116.789 0 0-33.597-8.133-40.796-25.331-6-14.398 1.732-33.197 4.399-91.458zm205.848 37.197c.133.133.267.267.267.4-.4-.133-.933-.133-1.466-.133.532-.134.799-.134 1.199-.267zM214.75 534.703c0-14.799 1.733-29.064 5.066-42.93 6.666 5.6 13.865 11.866 21.465 18.932 48.262 44.796 126.789 80.126 155.319 47.196l.133.133c-5.2 6.933-25.198 28.664-63.328 21.865l-60.128 89.859c-35.996-33.73-58.527-81.726-58.527-135.055z" clip-path="url(#SVGID_00000159441539503968552550000006302817843605328023_)"/></svg>