<svg xmlns="http://www.w3.org/2000/svg" xmlns:xlink="http://www.w3.org/1999/xlink" version="1.1" viewBox="0 0 940 1000"><style>.st0{fill:#fff}.st6{fill:#e7ad22}.st8{opacity:.45}.st9{fill:#f9fae6}.st13{fill:#7eaed9}.st14{opacity:.15;enable-background:new}.st16{fill:#46739d}.st17{opacity:.5;enable-background:new}.st18{fill:#172734}.st19{opacity:.25;enable-background:new}.st20{fill:#bab1cb}.st24{fill:#e4edf7}</style><path d="M622.7 25.4c-60.3 0-114.3 27-150.6 69.6-22.2-26.6-55.5-43.5-92.8-43.5-66.8 0-120.9 54.1-120.9 120.9 0 1.1.1 2.2.1 3.3-6.4-1.1-13-1.6-19.7-1.6-65.9 0-119.3 53.4-119.3 119.3 0 0 238.5 3.3 238.4 3.3h81.2c29.2 72.8 100.3 124.2 183.5 124.2 109.2 0 197.7-88.5 197.7-197.7S731.9 25.4 622.7 25.4z" class="st0"/><path d="M622.6 445.4c-45.3 0-88.8-13.5-125.9-39.1-31.6-21.8-56.7-51-73.5-85.1h-90v-.3c-60.3-.8-212.2-2.9-214.1-3l-24.1-.3v-24.2c0-78.2 62.8-142.1 140.7-143.8C246.6 80.2 306.9 27 379.3 27c34 0 66.5 11.8 92.3 33.1C512.5 22.2 566.3.9 622.7.9 682.1.9 737.8 24 779.8 66c41.9 42 65 97.8 65 157.2s-23.1 115.2-65.1 157.1c-41.9 42-97.7 65.1-157.1 65.1zM358.1 272.2h97.6l6.2 15.4c12.7 31.8 34.4 58.9 62.7 78.4 28.9 19.9 62.8 30.5 98.1 30.5 95.5 0 173.2-77.7 173.2-173.2 0-95.6-77.7-173.3-173.1-173.3-50.8 0-98.9 22.2-131.9 61l-19 22-18.6-22.3c-18.4-22.1-45.4-34.7-74-34.7-53.2 0-96.4 43.2-96.4 96.4v.5c0 .9.1 1.8.1 2.8v29.1l-28.7-4.9c-4.8-.8-10-1.2-15.6-1.2-43.9 0-81 30-91.7 70.7l211.1 2.8z" class="st0"/><path d="M865.4 369.9C957 579 869.6 825.5 663.1 928.8 450 1035.5 190.7 949.1 84.1 736c-59.5-118.9-58.9-252.1-9.8-365.1" class="st0"/><path d="M470 992.5c-48.2 0-95.8-7.8-142-23.1-55.4-18.4-105.9-46.9-150.1-84.7C132.1 845.6 95.2 798.3 68 744 8.3 624.8 4.6 486.2 57.8 363.7l33 14.3c-49 112.7-45.5 240.2 9.4 350 25 49.9 59 93.5 101.1 129.4 40.7 34.7 87.1 60.9 138.1 77.9s103.9 23.9 157.2 20.4c55.2-3.5 108.6-18 158.5-43 95.5-47.8 168-129.4 204.1-229.8 36-100.1 32.4-208.7-10.2-305.8l32.9-14.4c46.3 105.6 50.2 223.7 11.1 332.4C853.7 804.3 775 893 671.2 944.9 617 972.1 559 987.8 498.9 991.6c-9.7.6-19.3.9-28.9.9z" class="st0"/><path d="M917.5 314c0-33.2-35.1-60.4-78-60.4h-739c-42.9 0-78 27.2-78 60.4s35.1 60.4 78 60.4h739.1c42.8 0 77.9-27.2 77.9-60.4z" class="st0"/><path d="M839.6 392.4H100.5c-52.9 0-96-35.2-96-78.4s43.1-78.4 96-78.4h739c52.9 0 96 35.2 96 78.4s-43 78.4-95.9 78.4zM100.5 271.6c-32.5 0-60 19.4-60 42.4s27.5 42.4 60 42.4h739.1c32.5 0 59.9-19.4 59.9-42.4s-27.5-42.4-60-42.4h-739z" class="st0"/><path d="M622.7 25.4c-60.3 0-114.3 27-150.6 69.6-22.2-26.6-55.5-43.5-92.8-43.5-66.8 0-120.9 54.1-120.9 120.9 0 1.1.1 2.2.1 3.3-6.4-1.1-13-1.6-19.7-1.6-65.9 0-119.3 53.4-119.3 119.3 0 0 238.5 3.3 238.4 3.3h81.2c29.2 72.8 100.3 124.2 183.5 124.2 109.2 0 197.7-88.5 197.7-197.7S731.9 25.4 622.7 25.4z" class="st6"/><path d="M622.6 427.4c-41.6 0-81.6-12.4-115.7-36-32.1-22.1-56.9-52.6-72.2-88.2h-83.4v-.1c-38-.5-229.8-3.2-231.9-3.2l-6.4-.1v-6.4c0-69.4 56.4-125.8 125.8-125.8 4.5 0 8.9.2 13.1.7C254.1 99.9 310.4 45 379.3 45c35.3 0 68.7 14.6 92.8 40.2 38.7-42.2 93.2-66.3 150.6-66.3 54.5 0 105.8 21.3 144.4 59.9 38.5 38.6 59.8 89.9 59.8 144.5s-21.2 105.8-59.8 144.4c-38.7 38.5-89.9 59.7-144.5 59.7zM357.9 290.2h85.6l1.6 4.1c14.1 35.1 38 65 69.1 86.5 31.9 22 69.4 33.6 108.3 33.6 105.4 0 191.2-85.8 191.2-191.2 0-105.5-85.7-191.3-191.1-191.3-56.1 0-109.2 24.5-145.6 67.3l-5 5.9-5-5.9C445.3 73 413.3 58 379.3 58c-63.1 0-114.4 51.3-114.4 114.4v1.4c0 .6.1 1.3.1 1.9v7.8l-7.6-1.3c-5.8-1-12.1-1.5-18.6-1.5-60 0-109.2 47.1-112.6 106.3l231.1 3.2h.6z" class="st6"/><path fill="#f1c616" d="M622.7 25.4c-60.3 0-114.3 27-150.6 69.6-22.2-26.6-55.5-43.5-92.8-43.5-66.8 0-120.9 54.1-120.9 120.9 0 1.1.1 2.2.1 3.3-6.4-1.1-13-1.6-19.7-1.6-65.9 0-119.3 53.4-119.3 119.3 0 0 238.5 3.3 238.4 3.3h81.2c29.2 72.8 100.3 124.2 183.5 124.2 109.2 0 197.7-88.5 197.7-197.7S731.9 25.4 622.7 25.4z"/><g class="st8"><path d="M493.3 106.2c5.3-6.3 11-12.4 17.2-17.9.8-.7 1.5-1.4 2.3-2.1l2.4-2c1.6-1.3 3.2-2.7 4.9-3.9l5-3.7c1.7-1.2 3.5-2.3 5.2-3.5.9-.6 1.7-1.2 2.6-1.7l2.7-1.6c1.8-1 3.6-2.1 5.5-3.1 3.7-1.9 7.4-3.9 11.3-5.6 7.6-3.6 15.6-6.3 23.8-8.6l6.1-1.6c2.1-.5 4.1-.9 6.2-1.3l3.1-.6c1-.2 2.1-.3 3.1-.5l6.3-.9 6.3-.6 3.2-.3 3.2-.1 6.4-.2 6.4.1c2.1 0 4.2.1 6.4.3 2.1.2 4.2.2 6.3.5l6.3.7 6.3 1c2.1.3 4.2.8 6.3 1.2s4.2.8 6.2 1.4c2.1.5 4.1 1 6.2 1.6l6.1 1.9c8.1 2.7 16 5.9 23.6 9.7 7.6 3.9 14.9 8.2 21.9 13.1s13.5 10.3 19.7 16.1c1.5 1.5 3.1 2.9 4.5 4.4l4.4 4.6 4.2 4.8c1.4 1.6 2.7 3.3 4 4.9 5.2 6.6 10 13.7 14 21 4.1 7.3 7.8 14.9 10.7 22.8.4 1 .7 2 1.1 3l1 3 1 3 .9 3c.6 2 1.2 4 1.7 6l1.4 6.1c.4 2 .8 4.1 1.1 6.1.4 2 .7 4.1.9 6.2.6 4.1.8 8.2 1.1 12.4-.9-4-1.7-8.1-2.8-12-.9-4-2.2-7.9-3.4-11.8-2.6-7.7-5.6-15.3-9.2-22.6l-2.7-5.4-2.9-5.3c-.9-1.8-2-3.5-3.1-5.2l-1.6-2.6c-.5-.9-1.1-1.7-1.7-2.5-1.1-1.7-2.2-3.4-3.4-5l-3.6-4.9c-2.5-3.2-4.9-6.3-7.6-9.3-21-24.2-48.4-42.6-78.8-52.5-7.5-2.6-15.3-4.4-23.1-5.9-7.8-1.6-15.8-2.3-23.7-2.7l-6-.2-6 .1h-3l-3 .2-6 .4-6 .7-3 .3-3 .5c-2 .3-4 .6-5.9 1l-5.9 1.3c-31.3 6.3-60.8 22.1-85.1 44.3z" class="st6"/></g><g class="st8"><path d="M298.2 123.3c4.6-10.2 11.4-19.7 19.8-27.5 8.3-8 18.4-14.2 29.2-18.5 5.5-2 11.1-3.9 16.9-4.8l2.2-.4c.7-.1 1.5-.2 2.2-.3l4.4-.5c1.5-.1 2.9-.2 4.4-.3 1.5-.1 2.9-.2 4.4-.1 11.8-.1 23.6 2.2 34.7 6.4 22.2 8.4 40.7 25.5 51.2 46.5 5.2 10.5 8.3 21.9 9.3 33.4.9 11.5-.3 23-3.9 33.7 1.1-11.2.7-22.3-1.7-32.9-2.3-10.6-6.2-20.7-11.6-29.9-10.9-18.3-27.8-32.6-47.4-40.1-4.9-1.9-9.9-3.4-15.1-4.4-1.3-.2-2.6-.5-3.9-.7l-3.9-.5-3.9-.4c-1.3-.1-2.6-.1-3.9-.2-10.5-.4-21.1 1.1-31.3 4.2-20.5 5.9-38.8 19.2-52.1 37.3z" class="st6"/></g><g class="st8"><path d="M205.5 197.7c3.9-2.6 8.2-4.4 12.6-5.9 4.5-1.4 9.1-2.3 13.9-2.6 9.4-.6 19.2.6 28.2 3.9 4.5 1.6 8.8 3.8 12.9 6.2l3 2c.5.3 1 .7 1.5 1l1.4 1.1 2.8 2.2 2.6 2.4c.4.4.9.8 1.3 1.2l1.2 1.3c.8.9 1.6 1.7 2.4 2.6.7.9 1.4 1.9 2.1 2.8l1 1.4 1 1.5 1.8 3c.5 1 1.1 2.1 1.6 3.1l.8 1.6.6 1.6 1.2 3.3c-.9-.8-1.7-1.5-2.6-2.3l-1.2-1.2-1.3-1.1c-.9-.7-1.7-1.5-2.5-2.2l-2.6-2.1-1.2-1.1-1.3-1-2.6-2c-1.8-1.2-3.5-2.5-5.3-3.6-3.5-2.4-7.2-4.4-10.9-6.3-1-.4-1.9-.9-2.8-1.3l-1.4-.7-1.4-.6-2.9-1.2-2.9-1.1c-7.8-2.9-16-4.7-24.4-5.7-8.7-.8-17.3-.7-26.6-.2z" class="st6"/></g><path d="m538.6 127-11.6 6.3-6.4 11.7-6.3-11.7-11.7-6.3 11.7-6.4 6.3-11.6 6.4 11.6z" class="st9"/><path d="m357.3 192.5-11.6 6.3-6.3 11.6-6.4-11.6-11.6-6.3 11.6-6.4 6.4-11.6 6.3 11.6z" class="st9" opacity=".8"/><path d="m757.6 212.1-11.7 6.3-6.3 11.6-6.4-11.6-11.6-6.3 11.6-6.4 6.4-11.6 6.3 11.6z" class="st9" opacity=".95"/><path d="M865.4 369.9C957 579 869.6 825.5 663.1 928.8 450 1035.5 190.7 949.1 84.1 736c-59.5-118.9-58.9-252.1-9.8-365.1" class="st13"/><path d="M470 975.4c-46.4 0-92.2-7.5-136.6-22.3-53.3-17.7-101.8-45.1-144.4-81.4-44-37.6-79.6-83.1-105.7-135.3-57.4-114.7-61-248-9.8-365.8l1.5.7c-51 117.3-47.4 250.1 9.8 364.4 26 52 61.4 97.3 105.3 134.8 42.4 36.2 90.7 63.5 143.8 81.1 53.1 17.7 108.2 24.8 163.7 21.3 57.5-3.7 113.1-18.7 165.1-44.8 99.4-49.7 174.9-134.7 212.5-239.3 37.5-104.2 33.7-217.3-10.6-318.5l1.5-.7c44.5 101.6 48.3 215.1 10.7 319.7-37.8 105-113.5 190.3-213.3 240.2-52.2 26.1-107.9 41.2-165.7 44.9-9.3.7-18.5 1-27.8 1z" class="st13"/><path fill="#5e82a2" d="M648 695.8c-211.2 84.7-451.1-17.8-535.9-229-10.1-25.1-17.3-50.6-22.2-76.2-35.1 93-37.2 198.8 2.7 298.4 84.7 211.2 324.7 313.8 535.9 229 186.1-74.7 287.7-269.8 251.2-459.7C840.5 562.7 759.6 651 648 695.8z" class="st14"/><path d="M186.1 516.5c.3.6.7 1.2 1 1.8-.3-.6-.7-1.2-1-1.8zm-3.5-5.6 1.5 2.1-1.5-2.1zm-38.8 83.6c-.9.1-1.8.1-2.6.1.8 0 1.7 0 2.6-.1zm3.7-.4c-1 .2-2.1.3-3.1.4 1-.1 2-.2 3.1-.4zm36.7-80.8c.5.8 1 1.6 1.5 2.5-.5-.9-1-1.7-1.5-2.5zm-21-18.8c.9.4 1.7.9 2.5 1.3-.8-.4-1.7-.8-2.5-1.3zm-5.8-2.4c.7.2 1.3.5 2 .7-.7-.2-1.3-.4-2-.7zm-24.5 102.1c-.8-.1-1.7-.2-2.5-.4.8.2 1.6.3 2.5.4zm27.5-100.9c.6.3 1.3.6 1.9.9-.6-.4-1.3-.7-1.9-.9zm-69.5 68.5c-.4-.9-.7-1.9-1.1-2.9.4 1 .8 1.9 1.1 2.9zm56.5-72.1c.7.1 1.4.2 2.1.4-.7-.2-1.4-.3-2.1-.4zm33.4 18.9zm-30.3-18.4c1 .2 2 .4 3 .7-1-.3-2-.5-3-.7zm3 .7 3 .9-3-.9zm20.5 10.7c.7.6 1.4 1.2 2 1.8-.7-.6-1.4-1.2-2-1.8zm2.1 1.9c.7.7 1.4 1.4 2 2.1-.6-.7-1.3-1.4-2-2.1zm2.7 2.8c.5.5.9 1 1.4 1.5-.5-.5-1-1-1.4-1.5zm-7.2-6.5c.5.4 1.1.8 1.6 1.3-.5-.5-1-.9-1.6-1.3zm-2.5-1.8c.6.4 1.1.8 1.7 1.2-.6-.5-1.1-.9-1.7-1.2zm-3.3-2.1c.9.5 1.7 1 2.5 1.5-.8-.5-1.6-1-2.5-1.5zm-28.9 98.7c-1.1-.1-2.1-.2-3.2-.3 1.1.2 2.2.3 3.2.3zm3.3.1c-.9 0-1.8 0-2.7-.1.9.1 1.8.1 2.7.1zm-35.9-13.8c-.6-.5-1.1-1.1-1.7-1.6.6.6 1.1 1.1 1.7 1.6zm27-91.1c.7-.1 1.4-.2 2-.3-.6.1-1.3.2-2 .3zm-9.4 2.4c.6-.2 1.3-.4 1.9-.7-.6.3-1.2.5-1.9.7zM102 578.7c-.7-.7-1.4-1.5-2.1-2.2.7.7 1.4 1.5 2.1 2.2zm-2.3-2.5c-.6-.7-1.1-1.4-1.7-2.1.6.7 1.1 1.4 1.7 2.1zm19.4-82.8c.6-.3 1.2-.5 1.9-.8-.6.2-1.3.5-1.9.8zm-12 89.9c-.7-.6-1.5-1.2-2.2-1.8.8.7 1.5 1.3 2.2 1.8zm53.6 7.1c-.7.3-1.5.6-2.2.9.7-.3 1.4-.6 2.2-.9zm-3.1 1.2c-1 .4-2 .7-3 1 1-.3 2-.6 3-1zm-32.9-100.3c1.9-.6 3.8-1 5.7-1.4-1.9.4-3.8.9-5.7 1.4z" class="st16"/><path d="M178.2 578.2c5.9-6.2 10.3-13.9 12.7-22.7 2.8-10.6 2.2-21.3-1.1-31-.3-.5-29.2-48.3-84.5-22.5-7.7 6.7-13.5 15.6-16.3 26.2-2.5 9.3-2.3 18.7 0 27.4 1 2.3 29.2 60.7 89.2 22.6zm-70-78.5c.5-.4 1.1-.8 1.6-1.2-.5.4-1.1.8-1.6 1.2zm-16 64.9c-.3-.7-.6-1.4-1-2.1.4.7.7 1.4 1 2.1zm-2.5-6.2c-.3-.8-.5-1.6-.7-2.4.2.8.4 1.6.7 2.4z" class="st16"/><path d="M105.2 502.1c.7-.6 1.5-1.2 2.2-1.8-.7.5-1.5 1.1-2.2 1.8zm-11.4 65.7c-.4-.8-.8-1.5-1.2-2.3.4.7.8 1.5 1.2 2.3zm21.9-72.8c.9-.4 1.7-.9 2.6-1.2-.9.3-1.8.7-2.6 1.2zm-2.6 1.4c.8-.5 1.7-1 2.5-1.4-.8.4-1.6.9-2.5 1.4zm74.4 22.9c.3.6.6 1.2.8 1.8-.2-.6-.5-1.2-.8-1.8zm-91.8 51.5c-.6-.8-1.1-1.7-1.6-2.6.5.9 1 1.7 1.6 2.6zm15-72.9c.6-.4 1.1-.7 1.7-1.1-.6.4-1.2.7-1.7 1.1zm-13.2 75.4zm77.8 7.7c-.6.5-1.2 1.1-1.8 1.6.6-.5 1.2-1 1.8-1.6zm-2.5 2.1c-.8.6-1.6 1.3-2.5 1.9.9-.6 1.7-1.2 2.5-1.9zm-50.7 8.5c-.8-.3-1.5-.6-2.2-.9.7.4 1.5.6 2.2.9zm32.5 1c-1 .3-2 .5-3 .8 1-.3 2-.5 3-.8zm15.3-7.3c-.7.5-1.4 1-2.2 1.4.7-.4 1.5-.9 2.2-1.4zm-43.7 7.6c-1.1-.3-2.1-.6-3.1-1 1 .4 2 .7 3.1 1zm24.5.7c-.8.2-1.6.3-2.4.4.8-.1 1.6-.3 2.4-.4zm38-71.7.9 2.4-.9-2.4zm-59.3 71.7c-1.1-.2-2.2-.5-3.3-.8 1.2.4 2.3.6 3.3.8zm14.9-104.3c.7.1 1.4.1 2.1.2-.7-.1-1.4-.1-2.1-.2zm33.9 88.9c-.7.8-1.5 1.5-2.2 2.2l2.2-2.2zm-14 10.5c-.9.5-1.8.9-2.8 1.3.9-.3 1.9-.8 2.8-1.3zm-48.2.3c-.9-.5-1.8-.9-2.6-1.4.8.5 1.7 1 2.6 1.4zm18.4-99.6c.7-.1 1.4-.1 2.1-.2-.8.1-1.4.1-2.1.2zm3-.2c1 0 2-.1 3-.1-1.1 0-2.1 0-3 .1z" class="st16"/><path d="M140.3 489.1c1 0 2 .1 3 .1-1 0-2-.1-3-.1zm-30.4 96.3c-.9-.6-1.7-1.2-2.5-1.8.8.6 1.6 1.2 2.5 1.8zm2.7 1.7c-.7-.4-1.3-.8-2-1.3.6.5 1.3.9 2 1.3zm6.4 3.3c-1-.4-1.9-.9-2.9-1.3 1 .5 2 .9 2.9 1.3zm47.9-3.2c-.7.4-1.5.9-2.2 1.3.7-.4 1.5-.9 2.2-1.3z" class="st16"/><g class="st17"><path d="M189.7 524.6c0-.1-.1-.2-.1-.3 0 .1.1.2.1.3z" class="st18"/></g><g class="st17"><path d="M109.8 498.5c.3-.2.6-.4.8-.6-.2.2-.5.4-.8.6z" class="st18"/></g><g class="st17"><path d="M107.4 500.2c.2-.2.5-.4.7-.5-.2.2-.4.3-.7.5z" class="st18"/></g><g class="st17"><path d="M136.4 489.2c.3 0 .6 0 .9-.1-.3.1-.6.1-.9.1z" class="st18"/></g><g class="st17"><path d="M130.4 489.9c.3-.1.6-.1.9-.1-.3.1-.6.1-.9.1z" class="st18"/></g><g class="st17"><path d="m123.9 491.6.9-.3-.9.3z" class="st18"/></g><g class="st17"><path d="M133.4 489.5c.3 0 .7-.1 1-.1-.4 0-.7.1-1 .1z" class="st18"/></g><g class="st17"><path d="M121 492.6c.3-.1.6-.2.9-.4-.3.2-.6.3-.9.4z" class="st18"/></g><g class="st17"><path d="M143.3 489.2c.3 0 .6.1.9.1-.2 0-.6-.1-.9-.1z" class="st18"/></g><g class="st17"><path d="M118.3 493.7c.3-.1.6-.2.8-.4-.3.2-.5.3-.8.4z" class="st18"/></g><g class="st17"><path d="M162.3 494.1c.3.1.6.3.9.4-.3-.1-.6-.2-.9-.4z" class="st18"/></g><g class="st17"><path d="M159.4 492.9c.3.1.7.3 1 .4-.4-.2-.7-.3-1-.4z" class="st18"/></g><g class="st17"><path d="M165.7 495.9s.1 0 .1.1c0-.1-.1-.1-.1-.1z" class="st18"/></g><g class="st17"><path d="M170.8 499.1c.3.2.6.4.8.6-.2-.2-.5-.4-.8-.6z" class="st18"/></g><g class="st17"><path d="M168.3 497.5c.3.2.5.3.8.5-.2-.2-.5-.4-.8-.5z" class="st18"/></g><g class="st17"><path d="M146.4 489.5c.4 0 .7.1 1.1.1-.4 0-.8 0-1.1-.1z" class="st18"/></g><g class="st17"><path d="M149.5 490c.3.1.6.1.9.2-.2-.1-.5-.1-.9-.2z" class="st18"/></g><g class="st17"><path d="m156.5 491.8.9.3-.9-.3z" class="st18"/></g><g class="st17"><path d="M184 513c.1.1.1.2.2.3 0-.1-.1-.2-.2-.3z" class="st18"/></g><g class="st17"><path d="M182 510.2c.2.2.4.5.6.8-.2-.3-.4-.6-.6-.8z" class="st18"/></g><g class="st17"><path d="M185.7 515.8c.1.2.3.5.4.8-.1-.3-.3-.6-.4-.8z" class="st18"/></g><g class="st17"><path d="M188.3 521.1c.1.3.3.6.4.9-.1-.4-.2-.6-.4-.9z" class="st18"/></g><g class="st17"><path d="M187.1 518.3c.2.3.3.6.4.9-.1-.3-.3-.6-.4-.9z" class="st18"/></g><g class="st17"><path d="m176 503.4.2.2-.2-.2z" class="st18"/></g><g class="st17"><path d="M173.2 501c.2.2.5.4.7.6-.2-.2-.4-.4-.7-.6z" class="st18"/></g><g class="st17"><path d="M178.2 505.6z" class="st18"/></g><g class="st17"><path d="M180.1 507.8c.2.3.4.5.6.8-.1-.3-.3-.5-.6-.8z" class="st18"/></g><g class="st17"><path d="M112.4 496.8c.3-.2.5-.3.8-.5-.3.2-.6.4-.8.5z" class="st18"/></g><path d="M189.7 524.6c0-.1-.1-.2-.1-.3l-.9-2.4c-.1-.3-.2-.6-.4-.9-.3-.6-.5-1.2-.8-1.8-.1-.3-.3-.6-.4-.9-.3-.6-.6-1.2-1-1.8-.1-.3-.3-.5-.4-.8-.5-.8-1-1.7-1.5-2.5-.1-.1-.1-.2-.2-.3l-1.5-2.1c-.2-.3-.4-.5-.6-.8-.4-.5-.8-1.1-1.2-1.6-.2-.3-.4-.5-.6-.8-.4-.5-.9-1-1.4-1.5-.2-.2-.4-.4-.6-.7-.7-.7-1.3-1.4-2-2.1l-.2-.2c-.7-.6-1.3-1.2-2-1.8-.2-.2-.5-.4-.7-.6-.5-.4-1.1-.8-1.6-1.3-.3-.2-.6-.4-.8-.6-.6-.4-1.1-.8-1.7-1.2-.3-.2-.5-.3-.8-.5-.8-.5-1.7-1-2.5-1.5 0 0-.1 0-.1-.1-.8-.5-1.7-.9-2.5-1.3-.3-.1-.6-.3-.9-.4-.6-.3-1.3-.6-1.9-.9-.3-.1-.7-.3-1-.4-.7-.3-1.3-.5-2-.7l-.9-.3-3-.9c-1-.3-2-.5-3-.7-.3-.1-.6-.1-.9-.2-.7-.1-1.4-.3-2.1-.4-.4-.1-.7-.1-1.1-.1-.7-.1-1.4-.2-2.1-.2-.3 0-.6-.1-.9-.1-1-.1-2-.1-3-.1s-2 0-3 .1c-.3 0-.6 0-.9.1-.7 0-1.4.1-2.1.2-.3 0-.7.1-1 .1-.7.1-1.4.2-2 .3-.3 0-.6.1-.9.1-1.9.4-3.8.8-5.7 1.4l-.9.3c-.6.2-1.3.4-1.9.7-.3.1-.6.2-.9.4-.6.2-1.3.5-1.9.8-.3.1-.6.2-.8.4-.9.4-1.8.8-2.6 1.2-.9.4-1.7.9-2.5 1.4-.3.2-.5.3-.8.5-.6.4-1.2.7-1.7 1.1-.3.2-.6.4-.8.6-.6.4-1.1.8-1.6 1.2-.2.2-.5.4-.7.5-.8.6-1.5 1.2-2.2 1.8 55-25.7 83.9 22.1 84.2 22.6z" class="st16"/><g class="st17"><path d="M189.7 524.6c0-.1-.1-.2-.1-.3l-.9-2.4c-.1-.3-.2-.6-.4-.9-.3-.6-.5-1.2-.8-1.8-.1-.3-.3-.6-.4-.9-.3-.6-.6-1.2-1-1.8-.1-.3-.3-.5-.4-.8-.5-.8-1-1.7-1.5-2.5-.1-.1-.1-.2-.2-.3l-1.5-2.1c-.2-.3-.4-.5-.6-.8-.4-.5-.8-1.1-1.2-1.6-.2-.3-.4-.5-.6-.8-.4-.5-.9-1-1.4-1.5-.2-.2-.4-.4-.6-.7-.7-.7-1.3-1.4-2-2.1l-.2-.2c-.7-.6-1.3-1.2-2-1.8-.2-.2-.5-.4-.7-.6-.5-.4-1.1-.8-1.6-1.3-.3-.2-.6-.4-.8-.6-.6-.4-1.1-.8-1.7-1.2-.3-.2-.5-.3-.8-.5-.8-.5-1.7-1-2.5-1.5 0 0-.1 0-.1-.1-.8-.5-1.7-.9-2.5-1.3-.3-.1-.6-.3-.9-.4-.6-.3-1.3-.6-1.9-.9-.3-.1-.7-.3-1-.4-.7-.3-1.3-.5-2-.7l-.9-.3-3-.9c-1-.3-2-.5-3-.7-.3-.1-.6-.1-.9-.2-.7-.1-1.4-.3-2.1-.4-.4-.1-.7-.1-1.1-.1-.7-.1-1.4-.2-2.1-.2-.3 0-.6-.1-.9-.1-1-.1-2-.1-3-.1s-2 0-3 .1c-.3 0-.6 0-.9.1-.7 0-1.4.1-2.1.2-.3 0-.7.1-1 .1-.7.1-1.4.2-2 .3-.3 0-.6.1-.9.1-1.9.4-3.8.8-5.7 1.4l-.9.3c-.6.2-1.3.4-1.9.7-.3.1-.6.2-.9.4-.6.2-1.3.5-1.9.8-.3.1-.6.2-.8.4-.9.4-1.8.8-2.6 1.2-.9.4-1.7.9-2.5 1.4-.3.2-.5.3-.8.5-.6.4-1.2.7-1.7 1.1-.3.2-.6.4-.8.6-.6.4-1.1.8-1.6 1.2-.2.2-.5.4-.7.5-.8.6-1.5 1.2-2.2 1.8 55-25.7 83.9 22.1 84.2 22.6z" class="st18"/></g><g class="st19"><path d="M94.1 568.2c-.1-.1-.1-.3-.2-.4 0 .1.1.2.2.4z" class="st20"/></g><g class="st19"><path d="M133.7 594.3c-.3 0-.5-.1-.8-.1.3.1.5.1.8.1z" class="st20"/></g><g class="st19"><path d="M137.5 594.6h-.6.6z" class="st20"/></g><g class="st19"><path d="m107.4 583.5-.2-.2c0 .1.1.2.2.2z" class="st20"/></g><g class="st19"><path d="M130.4 593.8c-.3-.1-.6-.1-.9-.2.2.1.6.2.9.2z" class="st20"/></g><g class="st19"><path d="M96.1 571.5c-.2-.2-.3-.5-.5-.7.2.2.4.4.5.7z" class="st20"/></g><g class="st19"><path d="M105 581.5c-.2-.2-.5-.4-.7-.6.2.2.4.4.7.6z" class="st20"/></g><g class="st19"><path d="M161.4 590.1c-.2.1-.5.2-.7.3.2-.1.4-.2.7-.3z" class="st20"/></g><g class="st19"><path d="m102.6 579.3-.6-.6.6.6z" class="st20"/></g><g class="st19"><path d="M151.6 593.4c-.3.1-.6.1-.9.2.3-.1.6-.2.9-.2z" class="st20"/></g><g class="st19"><path d="m99.9 576.5-.3-.3c.2.1.3.2.3.3z" class="st20"/></g><g class="st19"><path d="M98 574.1c-.2-.2-.4-.5-.6-.7.2.2.4.4.6.7z" class="st20"/></g><g class="st19"><path d="m123.1 591.9-.9-.3c.2.1.5.2.9.3z" class="st20"/></g><g class="st19"><path d="M144.4 594.5h-.6.6z" class="st20"/></g><g class="st19"><path d="M141.1 594.7h-.9.9z" class="st20"/></g><g class="st19"><path d="M148.3 594c-.3 0-.5.1-.8.1.3 0 .5-.1.8-.1z" class="st20"/></g><g class="st19"><path d="M170.3 585c-.2.1-.3.2-.5.3.2-.1.4-.2.5-.3z" class="st20"/></g><g class="st19"><path d="M173.4 582.6c-.2.2-.4.3-.6.5.2-.2.4-.3.6-.5z" class="st20"/></g><g class="st19"><path d="M116.2 589.1c-.1 0-.1-.1 0 0-.1-.1-.1 0 0 0z" class="st20"/></g><g class="st19"><path d="M158.4 591.3c-.3.1-.6.2-.8.3.3-.1.5-.2.8-.3z" class="st20"/></g><g class="st19"><path d="M113.4 587.6c-.3-.2-.5-.3-.8-.5.2.2.5.3.8.5z" class="st20"/></g><g class="st19"><path d="M175.9 580.4c-.2.2-.4.4-.7.6.3-.2.5-.4.7-.6z" class="st20"/></g><g class="st19"><path d="M164.7 588.5c-.2.1-.3.2-.5.3.1-.2.3-.2.5-.3z" class="st20"/></g><g class="st19"><path d="M167.7 586.7c-.3.2-.5.3-.8.5.3-.2.6-.3.8-.5z" class="st20"/></g><g class="st19"><path d="M91.3 562.5c-.1-.2-.2-.5-.3-.7 0 .2.2.5.3.7z" class="st20"/></g><g class="st19"><path d="M92.6 565.5c-.1-.3-.3-.6-.4-.8.1.2.3.5.4.8z" class="st20"/></g><g class="st19"><path d="M88.8 555.6c0 .1.1.3.1.4 0-.1 0-.3-.1-.4.1 0 0 0 0 0z" class="st20"/></g><g class="st19"><path d="M119.9 590.8c-.3-.1-.6-.2-.9-.4.3.1.6.2.9.4z" class="st20"/></g><g class="st19"><path d="M154.6 592.6z" class="st20"/></g><g class="st19"><path d="M89.9 558.9c-.1-.2-.1-.4-.2-.5.1.2.1.4.2.5z" class="st20"/></g><g class="st19"><path d="M110.6 585.8c-.2-.2-.5-.3-.7-.5.2.2.5.4.7.5z" class="st20"/></g><path d="M157.6 591.6c.3-.1.6-.2.8-.3.8-.3 1.5-.6 2.2-.9.2-.1.5-.2.7-.3.9-.4 1.9-.9 2.8-1.3.2-.1.3-.2.5-.3.8-.4 1.5-.8 2.2-1.3.3-.2.5-.3.8-.5.7-.5 1.4-.9 2.2-1.4.2-.1.3-.2.5-.3.8-.6 1.7-1.2 2.5-1.9.2-.2.4-.3.6-.5.6-.5 1.2-1 1.8-1.6.2-.2.4-.4.7-.6.8-.7 1.5-1.4 2.2-2.2-59.9 38.1-88.2-20.3-89.3-22.6 0 .1.1.2.1.3.2.8.5 1.6.7 2.4.1.2.1.4.2.5.3 1 .7 1.9 1.1 2.9.1.2.2.5.3.7.3.7.6 1.4 1 2.1.1.3.3.6.4.8.4.8.8 1.5 1.2 2.3.1.1.1.3.2.4.5.9 1 1.7 1.6 2.6.2.2.3.5.5.7.4.6.9 1.3 1.3 1.9.2.2.4.5.6.7.5.7 1.1 1.4 1.7 2.1l.3.3c.7.8 1.4 1.5 2.1 2.2l.6.6c.5.5 1.1 1.1 1.7 1.6.2.2.5.4.7.6.7.6 1.4 1.2 2.2 1.8l.2.2c.8.6 1.6 1.2 2.5 1.8.2.2.5.3.7.5.6.4 1.3.8 2 1.3.3.2.5.3.8.5.9.5 1.7 1 2.6 1.4.1 0 .1.1.1.1.9.5 1.9.9 2.9 1.3.3.1.6.2.9.4.7.3 1.5.6 2.2.9l.9.3c1 .3 2.1.7 3.1 1 1.1.3 2.2.5 3.3.8.3.1.6.1.9.2.8.2 1.7.3 2.5.4.3 0 .5.1.8.1 1.1.1 2.1.2 3.2.3h.6c.9 0 1.8.1 2.7.1h.9c.9 0 1.8-.1 2.6-.1h.6c1.1-.1 2.1-.2 3.1-.4.3 0 .5-.1.8-.1.8-.1 1.6-.3 2.4-.4.3-.1.6-.1.9-.2 1-.2 2-.5 3-.8 1.1-.4 2.1-.7 3.1-1.1z" class="st16"/><g class="st19"><path d="M157.6 591.6c.3-.1.6-.2.8-.3.8-.3 1.5-.6 2.2-.9.2-.1.5-.2.7-.3.9-.4 1.9-.9 2.8-1.3.2-.1.3-.2.5-.3.8-.4 1.5-.8 2.2-1.3.3-.2.5-.3.8-.5.7-.5 1.4-.9 2.2-1.4.2-.1.3-.2.5-.3.8-.6 1.7-1.2 2.5-1.9.2-.2.4-.3.6-.5.6-.5 1.2-1 1.8-1.6.2-.2.4-.4.7-.6.8-.7 1.5-1.4 2.2-2.2-59.9 38.1-88.2-20.3-89.3-22.6 0 .1.1.2.1.3.2.8.5 1.6.7 2.4.1.2.1.4.2.5.3 1 .7 1.9 1.1 2.9.1.2.2.5.3.7.3.7.6 1.4 1 2.1.1.3.3.6.4.8.4.8.8 1.5 1.2 2.3.1.1.1.3.2.4.5.9 1 1.7 1.6 2.6.2.2.3.5.5.7.4.6.9 1.3 1.3 1.9.2.2.4.5.6.7.5.7 1.1 1.4 1.7 2.1l.3.3c.7.8 1.4 1.5 2.1 2.2l.6.6c.5.5 1.1 1.1 1.7 1.6.2.2.5.4.7.6.7.6 1.4 1.2 2.2 1.8l.2.2c.8.6 1.6 1.2 2.5 1.8.2.2.5.3.7.5.6.4 1.3.8 2 1.3.3.2.5.3.8.5.9.5 1.7 1 2.6 1.4.1 0 .1.1.1.1.9.5 1.9.9 2.9 1.3.3.1.6.2.9.4.7.3 1.5.6 2.2.9l.9.3c1 .3 2.1.7 3.1 1 1.1.3 2.2.5 3.3.8.3.1.6.1.9.2.8.2 1.7.3 2.5.4.3 0 .5.1.8.1 1.1.1 2.1.2 3.2.3h.6c.9 0 1.8.1 2.7.1h.9c.9 0 1.8-.1 2.6-.1h.6c1.1-.1 2.1-.2 3.1-.4.3 0 .5-.1.8-.1.8-.1 1.6-.3 2.4-.4.3-.1.6-.1.9-.2 1-.2 2-.5 3-.8 1.1-.4 2.1-.7 3.1-1.1z" class="st20"/></g><path d="m627.5 704.2.3.3-.3-.3zm-17.5-8.5h.4-.4zm7.4 1.6c.2.1.3.1.5.2-.1-.1-.3-.2-.5-.2zM605 696c.2 0 .3 0 .5-.1-.1 0-.3.1-.5.1zm14.9 2.3c.1.1.2.1.3.2-.1-.1-.2-.1-.3-.2zm-12.3-2.6h.4-.4zm21.5 10.4c.1.1.1.2.2.3 0-.1-.1-.2-.2-.3zm1.3 2c.1.1.1.2.2.3-.1-.1-.2-.2-.2-.3zm-4.4-5.5s.1 0 0 0c.1 0 0 0 0 0zm-13.5-6.6c.2 0 .3.1.5.1-.1 0-.3-.1-.5-.1zm9.5 3.5c.1.1.2.1.3.2-.1-.1-.2-.2-.3-.2zm2 1.4c.1.1.2.2.4.3-.1-.1-.3-.2-.4-.3zm7.5 9.3c.1.1.1.3.2.4-.1-.1-.1-.2-.2-.4zm-41.6 27.2c-.1-.1 0-.1 0 0zm20.2 8.5h-.6.6zm2.2-.2h-.4.4zm-5 .2h-.3.3zm7.6-.8c-.2 0-.3.1-.5.1.2 0 .4 0 .5-.1zm-14.8-.7c-.2-.1-.4-.1-.5-.2.1 0 .3.1.5.2zm-2.6-1.1zm7.6 2.3c-.2 0-.4-.1-.6-.1.2.1.4.1.6.1zm20.3-6c-.1.1-.3.2-.4.4.1-.2.3-.3.4-.4zm-1.9 1.5-.2.2.2-.2zm-6.4 3.4c-.2.1-.3.1-.5.2.2-.1.3-.1.5-.2zm4.4-2.1c-.2.1-.3.2-.5.3.2-.1.3-.2.5-.3zm-2.1 1.1c-.1.1-.2.1-.4.2.2 0 .3-.1.4-.2zm-23.8-1.3c-.2-.1-.3-.2-.5-.3.2.1.3.2.5.3zm-9.6-10.8c-.1-.2-.1-.3-.2-.5.1.2.1.4.2.5zm-.9-2.2c0-.1-.1-.1-.1-.2 0 0 .1.1.1.2zm8.9-28.7c.1-.1.2-.2.4-.3-.2.2-.3.2-.4.3zm4.1-2.4c.1 0 .2-.1.3-.2-.1.1-.2.1-.3.2zm-2 1c.1-.1.2-.1.3-.2-.1.1-.2.2-.3.2zm-7.6 36.5c-.1-.1-.2-.3-.3-.4.1.1.2.3.3.4zm4.9 5.1s-.1-.1 0 0c-.1-.1 0 0 0 0zm-1.7-1.5c-.1-.1-.3-.2-.4-.4.1.2.2.3.4.4zm-4.6-5.7c0-.1-.1-.1-.1-.2 0 .1.1.1.1.2zm13.3-36.4c.1-.1.3-.1.4-.1-.1 0-.3.1-.4.1z" class="st16"/><path d="M592.3 701.9c-3.7 3.2-6.4 7.4-7.8 12.5-1.2 4.5-1.1 9 .1 13.1 1 2 14.4 28.4 42.4 10.6 2.8-2.9 4.9-6.6 6-10.8 1.4-5 1.1-10.1-.5-14.7-.2-.3-13.9-23-40.2-10.7z" class="st16"/><g class="st17"><path d="M608 695.7h2-2z" class="st18"/></g><g class="st17"><path d="M610.4 695.8c.7 0 1.5.1 2.2.2-.8-.1-1.5-.2-2.2-.2z" class="st18"/></g><g class="st17"><path d="M596.4 699c.6-.3 1.1-.6 1.7-.9-.5.2-1.1.5-1.7.9z" class="st18"/></g><g class="st17"><path d="M594.3 700.3c.6-.4 1.2-.8 1.8-1.1-.6.3-1.2.7-1.8 1.1z" class="st18"/></g><g class="st17"><path d="M605.5 695.9c.7-.1 1.4-.2 2.1-.2-.7.1-1.4.1-2.1.2z" class="st18"/></g><g class="st17"><path d="M592.3 701.9c.5-.5 1.1-.9 1.7-1.3-.6.4-1.2.8-1.7 1.3z" class="st18"/></g><g class="st17"><path d="M598.4 697.9c.6-.3 1.3-.5 2-.8-.7.3-1.3.5-2 .8z" class="st18"/></g><g class="st17"><path d="m600.8 697 2.1-.6-2.1.6z" class="st18"/></g><g class="st17"><path d="M602.9 696.4c.7-.2 1.4-.3 2.1-.4-.7.1-1.4.2-2.1.4z" class="st18"/></g><g class="st17"><path d="M617.9 697.4c.7.3 1.4.6 2 .9-.6-.3-1.3-.6-2-.9z" class="st18"/></g><g class="st17"><path d="M613 696.1c.7.1 1.5.3 2.2.5-.7-.2-1.4-.4-2.2-.5z" class="st18"/></g><g class="st17"><path d="m626.1 702.6 1.5 1.5-1.5-1.5z" class="st18"/></g><g class="st17"><path d="M629.3 706.4c.4.5.7 1.1 1 1.6-.2-.5-.6-1-1-1.6z" class="st18"/></g><g class="st17"><path d="M632.5 712.6c-.2-.7-.5-1.3-.8-2 .3.7.6 1.3.8 2z" class="st18"/></g><g class="st17"><path d="M630.6 708.3c.3.6.7 1.2 1 1.9-.4-.6-.7-1.2-1-1.9z" class="st18"/></g><g class="st17"><path d="M627.8 704.5c.5.5.9 1.1 1.3 1.6-.4-.5-.8-1.1-1.3-1.6z" class="st18"/></g><g class="st17"><path d="m622.3 699.6 1.8 1.2-1.8-1.2z" class="st18"/></g><g class="st17"><path d="M615.3 696.6c.7.2 1.5.4 2.2.7-.8-.3-1.5-.5-2.2-.7z" class="st18"/></g><g class="st17"><path d="M620.2 698.5c.6.3 1.2.6 1.7 1-.5-.4-1.1-.7-1.7-1z" class="st18"/></g><g class="st17"><path d="M624.4 701.2c.6.5 1.1.9 1.6 1.4-.5-.5-1-1-1.6-1.4z" class="st18"/></g><path d="M632.5 712.6c-.2-.7-.5-1.3-.8-1.9-.1-.1-.1-.3-.2-.4-.3-.6-.6-1.3-1-1.9-.1-.1-.1-.2-.2-.3-.3-.6-.7-1.1-1-1.6-.1-.1-.1-.2-.2-.3-.4-.6-.8-1.1-1.3-1.6l-.3-.3-1.5-1.5c-.5-.5-1.1-1-1.6-1.4-.1-.1-.2-.2-.4-.3-.6-.4-1.1-.8-1.8-1.2-.1-.1-.2-.1-.3-.2-.6-.3-1.1-.7-1.7-1-.1-.1-.2-.1-.3-.2-.7-.3-1.3-.6-2-.9-.1-.1-.3-.1-.5-.2-.7-.3-1.4-.5-2.2-.7s-1.5-.4-2.2-.5c-.2 0-.3-.1-.5-.1-.7-.1-1.5-.2-2.2-.2h-2.8c-.7 0-1.4.1-2.1.2-.2 0-.3 0-.5.1-.7.1-1.4.2-2.1.4l-2.1.6c-.1 0-.3.1-.4.1-.7.2-1.3.5-2 .8-.1 0-.2.1-.3.2-.6.3-1.2.6-1.7.9-.1.1-.2.1-.3.2-.6.4-1.2.7-1.8 1.1-.1.1-.2.2-.4.3-.6.4-1.1.9-1.7 1.3 26.5-12.5 40.2 10.2 40.4 10.5z" class="st16"/><g class="st17"><path d="M632.5 712.6c-.2-.7-.5-1.3-.8-1.9-.1-.1-.1-.3-.2-.4-.3-.6-.6-1.3-1-1.9-.1-.1-.1-.2-.2-.3-.3-.6-.7-1.1-1-1.6-.1-.1-.1-.2-.2-.3-.4-.6-.8-1.1-1.3-1.6l-.3-.3-1.5-1.5c-.5-.5-1.1-1-1.6-1.4-.1-.1-.2-.2-.4-.3-.6-.4-1.1-.8-1.8-1.2-.1-.1-.2-.1-.3-.2-.6-.3-1.1-.7-1.7-1-.1-.1-.2-.1-.3-.2-.7-.3-1.3-.6-2-.9-.1-.1-.3-.1-.5-.2-.7-.3-1.4-.5-2.2-.7s-1.5-.4-2.2-.5c-.2 0-.3-.1-.5-.1-.7-.1-1.5-.2-2.2-.2h-2.8c-.7 0-1.4.1-2.1.2-.2 0-.3 0-.5.1-.7.1-1.4.2-2.1.4l-2.1.6c-.1 0-.3.1-.4.1-.7.2-1.3.5-2 .8-.1 0-.2.1-.3.2-.6.3-1.2.6-1.7.9-.1.1-.2.1-.3.2-.6.4-1.2.7-1.8 1.1-.1.1-.2.2-.4.3-.6.4-1.1.9-1.7 1.3 26.5-12.5 40.2 10.2 40.4 10.5z" class="st18"/></g><g class="st19"><path d="M627 738.1c-.5.5-1 1-1.6 1.5.6-.5 1.1-1 1.6-1.5z" class="st20"/></g><g class="st19"><path d="m625 740-1.5 1.2 1.5-1.2z" class="st20"/></g><g class="st19"><path d="M607.1 745.9c-.7 0-1.3-.1-2-.2.7 0 1.3.1 2 .2z" class="st20"/></g><g class="st19"><path d="M604.5 745.6c-.7-.1-1.5-.3-2.2-.5.7.2 1.5.3 2.2.5z" class="st20"/></g><g class="st19"><path d="M609.5 745.9h-2.2 2.2z" class="st20"/></g><g class="st19"><path d="M602.3 745.1c-.7-.2-1.5-.4-2.2-.7.7.2 1.4.5 2.2.7z" class="st20"/></g><g class="st19"><path d="M599.5 744.2c-.7-.3-1.4-.6-2-.9.7.3 1.4.6 2 .9z" class="st20"/></g><g class="st19"><path d="M616.6 744.7c-.6.2-1.1.3-1.7.5.6-.2 1.2-.4 1.7-.5z" class="st20"/></g><g class="st19"><path d="M614.4 745.3c-.7.2-1.4.3-2.1.4.7-.1 1.4-.3 2.1-.4z" class="st20"/></g><g class="st19"><path d="M611.9 745.7c-.6.1-1.2.1-1.8.2.6 0 1.2-.1 1.8-.2z" class="st20"/></g><g class="st19"><path d="M585.8 731c-.3-.6-.5-1.2-.7-1.8.2.6.4 1.2.7 1.8z" class="st20"/></g><g class="st19"><path d="M588.2 735.2c-.4-.5-.7-1.1-1.1-1.7.3.6.7 1.1 1.1 1.7z" class="st20"/></g><g class="st19"><path d="M587 733.3c-.4-.6-.7-1.2-1-1.9.3.7.6 1.3 1 1.9z" class="st20"/></g><g class="st19"><path d="M619.1 743.7c-.6.3-1.3.6-2 .8.7-.2 1.3-.5 2-.8z" class="st20"/></g><g class="st19"><path d="M584.5 727.3c.1.5.3 1.1.5 1.6-.2-.5-.3-1-.5-1.6 0 .1 0 0 0 0z" class="st20"/></g><g class="st19"><path d="M591.3 738.8c-.5-.5-1-1-1.4-1.5.4.6.9 1.1 1.4 1.5z" class="st20"/></g><g class="st19"><path d="M593.3 740.6c-.6-.4-1.1-.9-1.6-1.4.5.5 1 1 1.6 1.4z" class="st20"/></g><g class="st19"><path d="M589.8 737.3c-.5-.5-.9-1.1-1.3-1.7.4.6.8 1.1 1.3 1.7z" class="st20"/></g><g class="st19"><path d="M597.5 743.3c-.7-.3-1.3-.7-1.9-1.1.6.4 1.2.7 1.9 1.1z" class="st20"/></g><g class="st19"><path d="M595.1 741.9c-.6-.4-1.2-.8-1.7-1.2.6.4 1.1.8 1.7 1.2z" class="st20"/></g><g class="st19"><path d="M621 742.7c-.5.3-1 .6-1.6.8.6-.2 1.1-.5 1.6-.8z" class="st20"/></g><g class="st19"><path d="M623.3 741.3c-.6.4-1.2.8-1.8 1.1.6-.3 1.2-.7 1.8-1.1z" class="st20"/></g><path d="M584.6 727.4c.1.5.3 1 .4 1.5 0 .1.1.1.1.2.2.6.5 1.2.7 1.8.1.2.1.3.2.5.3.6.6 1.3 1 1.9 0 .1.1.1.1.2.3.6.7 1.1 1.1 1.7.1.1.2.3.3.4.4.6.9 1.1 1.3 1.7l.1.1c.4.5.9 1 1.4 1.5l.4.4c.5.5 1.1 1 1.6 1.4 0 0 .1 0 .1.1.5.4 1.1.8 1.7 1.2.2.1.3.2.5.3.6.4 1.3.8 1.9 1.1h.1c.6.3 1.3.6 2 .9.2.1.4.1.5.2.7.3 1.4.5 2.2.7.7.2 1.5.4 2.2.5.2 0 .4.1.6.1.7.1 1.3.2 2 .2h3.1c.6 0 1.2-.1 1.8-.2h.4c.7-.1 1.4-.2 2.1-.4.2 0 .3-.1.5-.1.6-.1 1.1-.3 1.7-.5.2-.1.3-.1.5-.2.7-.2 1.3-.5 2-.8.1-.1.3-.1.4-.2.5-.3 1.1-.5 1.6-.8.2-.1.3-.2.5-.3.6-.4 1.2-.7 1.8-1.1l.2-.2 1.5-1.2c.1-.1.3-.2.4-.4.5-.5 1.1-1 1.6-1.5-28.2 17.8-41.7-8.7-42.6-10.7z" class="st16"/><g class="st19"><path d="M584.6 727.4c.1.5.3 1 .4 1.5 0 .1.1.1.1.2.2.6.5 1.2.7 1.8.1.2.1.3.2.5.3.6.6 1.3 1 1.9 0 .1.1.1.1.2.3.6.7 1.1 1.1 1.7.1.1.2.3.3.4.4.6.9 1.1 1.3 1.7l.1.1c.4.5.9 1 1.4 1.5l.4.4c.5.5 1.1 1 1.6 1.4 0 0 .1 0 .1.1.5.4 1.1.8 1.7 1.2.2.1.3.2.5.3.6.4 1.3.8 1.9 1.1h.1c.6.3 1.3.6 2 .9.2.1.4.1.5.2.7.3 1.4.5 2.2.7.7.2 1.5.4 2.2.5.2 0 .4.1.6.1.7.1 1.3.2 2 .2h3.1c.6 0 1.2-.1 1.8-.2h.4c.7-.1 1.4-.2 2.1-.4.2 0 .3-.1.5-.1.6-.1 1.1-.3 1.7-.5.2-.1.3-.1.5-.2.7-.2 1.3-.5 2-.8.1-.1.3-.1.4-.2.5-.3 1.1-.5 1.6-.8.2-.1.3-.2.5-.3.6-.4 1.2-.7 1.8-1.1l.2-.2 1.5-1.2c.1-.1.3-.2.4-.4.5-.5 1.1-1 1.6-1.5-28.2 17.8-41.7-8.7-42.6-10.7z" class="st20"/></g><path d="M695.8 417c.2-.1.3-.1.5-.2-.2.1-.4.2-.5.2zm22.1 54c-.1.1-.3.1-.4.2.2 0 .3-.1.4-.2zm7-4.6c-.2.1-.3.3-.5.4.2-.1.4-.2.5-.4zm-4.6 3.4-.6.3c.3-.1.5-.2.6-.3zm2.4-1.6c-.1.1-.2.1-.3.2.1 0 .2-.1.3-.2zm9.3-36c.1.2.1.3.2.5-.1-.1-.1-.3-.2-.5zm-1.3-2.5c.1.1.1.2.2.3-.1 0-.2-.1-.2-.3zm-18 43.2c-.2 0-.4.1-.6.1.2 0 .4 0 .6-.1zm-5.6.9h-.7.7zm-3.2 0h-.3.3zm11.3-1.6c-.2.1-.4.1-.6.2.2-.1.4-.2.6-.2zm-5.5 1.3c-.2 0-.3 0-.5.1.1 0 .3 0 .5-.1zm19.5-46c.1.1.2.2.2.4 0-.2-.1-.3-.2-.4zm-19.3-11.8c.2 0 .4.1.6.1-.2 0-.4-.1-.6-.1zm-5.7-.3h.4-.4zm-3 .3c.2 0 .4-.1.5-.1-.2 0-.3 0-.5.1zm0 57.8c-.2 0-.5-.1-.7-.1.3 0 .5.1.7.1zm5.7-58.1h.4-.4zm-13.8 2.7c.1-.1.2-.1.4-.2-.1.1-.2.2-.4.2zm-4.8 2.9c.1-.1.3-.2.4-.3-.1.1-.3.2-.4.3zm27.3-3.8c.2.1.4.1.5.2-.1-.1-.3-.2-.5-.2zm11.8 8c.1.1.2.3.3.4-.1-.2-.2-.3-.3-.4zm-4.1-3.8c.1.1.3.2.4.3-.1-.1-.3-.2-.4-.3zm2.3 2zm-4.7-3.7c.1.1.2.1.3.2-.1 0-.2-.1-.3-.2zm-2.4-1.3c.1.1.3.1.4.2-.2-.1-.3-.1-.4-.2zM679 457l-.3-.6c.2.2.2.4.3.6zm-1.1-2.7c0-.1-.1-.2-.1-.2.1 0 .1.1.1.2zm14.6 16.5c-.1-.1-.1-.1 0 0-.1-.1-.1-.1 0 0zm-1.7-51.5c.1-.1.2-.1.4-.2-.2.1-.3.2-.4.2zm-.6 50.2c-.2-.1-.4-.2-.5-.3.1 0 .3.1.5.3zm-4.6-3.5c-.2-.1-.3-.3-.5-.4.2.1.4.3.5.4zm-5.3-6.6c0-.1-.1-.1-.1-.2 0 0 0 .1.1.2z" class="st16"/><path d="M726.7 464.7c3.2-3.4 5.7-7.7 7-12.5 1.6-5.9 1.2-11.8-.6-17.2-.2-.3-16.2-26.7-46.8-12.5-4.3 3.7-7.5 8.6-9.1 14.5-1.4 5.2-1.3 10.4.1 15.3 1.2 2.3 16.8 33.1 49.4 12.4zm-39.1 3-.1-.1.1.1zm-5.7-5.9c-.1-.2-.2-.3-.4-.5.1.2.3.3.4.5z" class="st16"/><path d="m683.5 463.9-.1-.1c.1 0 .1 0 .1.1zm11.9 8.1c-.2-.1-.4-.2-.6-.2.2.1.4.1.6.2z" class="st16"/><g class="st17"><path d="M688.7 420.7c.7-.5 1.4-.9 2.1-1.3-.7.3-1.4.8-2.1 1.3z" class="st18"/></g><g class="st17"><path d="M686.3 422.5c.6-.5 1.3-1.1 2-1.6-.7.6-1.3 1.1-2 1.6z" class="st18"/></g><g class="st17"><path d="M713.1 416.3c.9.2 1.7.5 2.5.8-.8-.2-1.7-.5-2.5-.8z" class="st18"/></g><g class="st17"><path d="M710.5 415.8c.9.2 1.7.3 2.6.6-.9-.3-1.8-.5-2.6-.6z" class="st18"/></g><g class="st17"><path d="M707.4 415.4c.8.1 1.7.2 2.5.3-.8-.1-1.7-.2-2.5-.3z" class="st18"/></g><g class="st17"><path d="M704.6 415.4h2.3c-.7 0-1.5-.1-2.3 0z" class="st18"/></g><g class="st17"><path d="M716.1 417.4c.8.3 1.6.7 2.3 1-.7-.4-1.5-.7-2.3-1z" class="st18"/></g><g class="st17"><path d="M701.7 415.6c.8-.1 1.6-.2 2.5-.2-.8 0-1.7.1-2.5.2z" class="st18"/></g><g class="st17"><path d="M721.2 419.9c.7.4 1.4.9 2 1.4-.6-.4-1.3-.9-2-1.4z" class="st18"/></g><g class="st17"><path d="M718.9 418.6c.7.4 1.4.7 2 1.1-.7-.4-1.3-.8-2-1.1z" class="st18"/></g><g class="st17"><path d="M727.7 425.6c.5.6 1 1.3 1.5 1.9-.5-.7-1-1.3-1.5-1.9z" class="st18"/></g><g class="st17"><path d="M725.7 423.4c.6.6 1.2 1.2 1.7 1.8-.6-.6-1.1-1.2-1.7-1.8z" class="st18"/></g><g class="st17"><path d="M733.1 435c-.3-.8-.6-1.5-.9-2.3.3.8.7 1.5.9 2.3z" class="st18"/></g><g class="st17"><path d="M730.9 430.1c.4.7.8 1.4 1.1 2.2-.3-.8-.7-1.5-1.1-2.2z" class="st18"/></g><g class="st17"><path d="M729.5 427.9z" class="st18"/></g><g class="st17"><path d="M723.7 421.7c.7.5 1.3 1.1 1.9 1.6-.6-.5-1.2-1.1-1.9-1.6z" class="st18"/></g><g class="st17"><path d="M691.1 419.1c.7-.4 1.3-.7 2-1-.6.3-1.3.7-2 1z" class="st18"/></g><g class="st17"><path d="M698.7 416.1c.8-.2 1.6-.3 2.5-.5-.9.2-1.7.4-2.5.5z" class="st18"/></g><g class="st17"><path d="M693.5 417.9c.7-.3 1.5-.6 2.3-.9-.8.3-1.6.6-2.3.9z" class="st18"/></g><g class="st17"><path d="M696.3 416.9c.8-.3 1.6-.5 2.4-.7-.8.1-1.6.4-2.4.7z" class="st18"/></g><path d="M733.1 435c-.3-.8-.6-1.5-.9-2.3-.1-.2-.1-.3-.2-.5-.3-.7-.7-1.5-1.1-2.2-.1-.1-.1-.2-.2-.3-.4-.6-.8-1.3-1.2-1.9-.1-.1-.2-.2-.2-.4-.5-.7-1-1.3-1.5-1.9-.1-.1-.2-.3-.3-.4-.5-.6-1.1-1.2-1.7-1.8-.6-.6-1.3-1.1-1.9-1.6-.1-.1-.3-.2-.4-.3-.7-.5-1.3-1-2-1.4-.1-.1-.2-.1-.3-.2-.7-.4-1.3-.8-2-1.1-.1-.1-.3-.1-.4-.2-.8-.4-1.5-.7-2.3-1-.2-.1-.4-.1-.5-.2-.8-.3-1.7-.6-2.5-.8-.9-.2-1.7-.4-2.6-.6-.2 0-.4-.1-.6-.1-.8-.1-1.7-.2-2.5-.3h-3.1c-.8 0-1.7.1-2.5.2-.2 0-.4.1-.5.1-.8.1-1.7.3-2.5.5s-1.6.4-2.4.7c-.2.1-.3.1-.5.2-.8.3-1.5.6-2.3.9-.1.1-.2.1-.4.2-.7.3-1.3.7-2 1-.1.1-.2.1-.4.2-.7.4-1.4.9-2.1 1.3-.1.1-.3.2-.4.3-.7.5-1.3 1-2 1.6 30.2-14.4 46.2 12 46.4 12.3z" class="st16"/><g class="st17"><path d="M733.1 435c-.3-.8-.6-1.5-.9-2.3-.1-.2-.1-.3-.2-.5-.3-.7-.7-1.5-1.1-2.2-.1-.1-.1-.2-.2-.3-.4-.6-.8-1.3-1.2-1.9-.1-.1-.2-.2-.2-.4-.5-.7-1-1.3-1.5-1.9-.1-.1-.2-.3-.3-.4-.5-.6-1.1-1.2-1.7-1.8-.6-.6-1.3-1.1-1.9-1.6-.1-.1-.3-.2-.4-.3-.7-.5-1.3-1-2-1.4-.1-.1-.2-.1-.3-.2-.7-.4-1.3-.8-2-1.1-.1-.1-.3-.1-.4-.2-.8-.4-1.5-.7-2.3-1-.2-.1-.4-.1-.5-.2-.8-.3-1.7-.6-2.5-.8-.9-.2-1.7-.4-2.6-.6-.2 0-.4-.1-.6-.1-.8-.1-1.7-.2-2.5-.3h-3.1c-.8 0-1.7.1-2.5.2-.2 0-.4.1-.5.1-.8.1-1.7.3-2.5.5s-1.6.4-2.4.7c-.2.1-.3.1-.5.2-.8.3-1.5.6-2.3.9-.1.1-.2.1-.4.2-.7.3-1.3.7-2 1-.1.1-.2.1-.4.2-.7.4-1.4.9-2.1 1.3-.1.1-.3.2-.4.3-.7.5-1.3 1-2 1.6 30.2-14.4 46.2 12 46.4 12.3z" class="st18"/></g><g class="st19"><path d="M678.8 456.4c-.3-.7-.6-1.4-.8-2.1.2.7.5 1.4.8 2.1z" class="st20"/></g><g class="st19"><path d="M687.5 467.6c-.7-.5-1.3-1.1-1.9-1.6.6.6 1.3 1.1 1.9 1.6z" class="st20"/></g><g class="st19"><path d="M689.6 469.1c-.7-.4-1.3-.9-2-1.4.7.5 1.3 1 2 1.4z" class="st20"/></g><g class="st19"><path d="M685.2 465.6c-.6-.5-1.1-1.1-1.6-1.7.5.6 1 1.1 1.6 1.7z" class="st20"/></g><g class="st19"><path d="M694.8 471.8c-.8-.3-1.6-.6-2.3-1 .7.3 1.5.7 2.3 1z" class="st20"/></g><g class="st19"><path d="M692.4 470.7z" class="st20"/></g><g class="st19"><path d="M680.2 459.2c-.4-.7-.8-1.5-1.1-2.2.3.7.7 1.4 1.1 2.2z" class="st20"/></g><g class="st19"><path d="M677.3 452.2c.2.6.4 1.3.6 1.9-.2-.6-.3-1.2-.5-1.7l-.1-.2z" class="st20"/></g><g class="st19"><path d="M683.4 463.7c-.5-.6-1-1.3-1.5-2 .5.8 1 1.4 1.5 2z" class="st20"/></g><g class="st19"><path d="M726.7 464.7c-.6.6-1.2 1.2-1.8 1.7.6-.5 1.3-1.1 1.8-1.7z" class="st20"/></g><g class="st19"><path d="M681.5 461.3c-.4-.6-.9-1.3-1.2-1.9.4.6.8 1.3 1.2 1.9z" class="st20"/></g><g class="st19"><path d="M697.9 472.8c-.9-.2-1.7-.5-2.5-.8.8.3 1.7.6 2.5.8z" class="st20"/></g><g class="st19"><path d="M717.5 471.2c-.8.3-1.5.6-2.3.9.8-.2 1.6-.5 2.3-.9z" class="st20"/></g><g class="st19"><path d="M719.8 470.1c-.6.3-1.2.7-1.8 1 .6-.4 1.2-.7 1.8-1z" class="st20"/></g><g class="st19"><path d="M724.4 466.9c-.6.5-1.1.9-1.7 1.4.6-.5 1.2-1 1.7-1.4z" class="st20"/></g><g class="st19"><path d="M714.7 472.3c-.6.2-1.3.4-2 .6.6-.2 1.3-.3 2-.6z" class="st20"/></g><g class="st19"><path d="M722.4 468.4c-.7.5-1.4.9-2.1 1.3.8-.4 1.5-.8 2.1-1.3z" class="st20"/></g><g class="st19"><path d="M709.2 473.6c-.7.1-1.4.2-2.1.2.7-.1 1.4-.1 2.1-.2z" class="st20"/></g><g class="st19"><path d="M712.1 473.1c-.8.2-1.6.3-2.5.5.9-.2 1.7-.3 2.5-.5z" class="st20"/></g><g class="st19"><path d="M706.4 473.8h-2.6 2.6z" class="st20"/></g><g class="st19"><path d="M703.5 473.8c-.8-.1-1.5-.1-2.3-.3.8.1 1.6.2 2.3.3z" class="st20"/></g><g class="st19"><path d="M700.5 473.4c-.9-.2-1.7-.3-2.6-.6.9.3 1.8.4 2.6.6z" class="st20"/></g><path d="M677.3 452.3c.2.6.3 1.2.5 1.7 0 .1.1.2.1.2.3.7.5 1.4.8 2.1l.3.6c.4.7.7 1.5 1.1 2.2 0 .1.1.1.1.2.4.7.8 1.3 1.2 1.9.1.2.2.3.4.5.5.7 1 1.3 1.5 2l.1.1c.5.6 1.1 1.1 1.6 1.7.2.1.3.3.5.4.6.6 1.2 1.1 1.9 1.6l.1.1c.6.5 1.3 1 2 1.4.2.1.4.2.5.3.7.4 1.5.9 2.2 1.3h.1c.8.4 1.5.7 2.3 1 .2.1.4.2.6.2.8.3 1.7.6 2.5.8.9.2 1.7.4 2.6.6.2 0 .5.1.7.1.8.1 1.5.2 2.3.3h.3c.9 0 1.7.1 2.6 0h.7c.7 0 1.4-.1 2.1-.2.2 0 .3 0 .5-.1.8-.1 1.6-.3 2.5-.5.2 0 .4-.1.6-.1.7-.2 1.3-.4 2-.6.2-.1.4-.1.6-.2.8-.3 1.5-.6 2.3-.9.1-.1.3-.1.4-.2.6-.3 1.2-.6 1.8-1l.6-.3c.7-.4 1.4-.9 2.1-1.3.1-.1.2-.1.3-.2.6-.4 1.2-.9 1.7-1.4.2-.1.3-.3.5-.4.6-.6 1.2-1.1 1.8-1.7-32.6 20.9-48.2-9.9-49.4-12.2z" class="st16"/><g class="st19"><path d="M677.3 452.3c.2.6.3 1.2.5 1.7 0 .1.1.2.1.2.3.7.5 1.4.8 2.1l.3.6c.4.7.7 1.5 1.1 2.2 0 .1.1.1.1.2.4.7.8 1.3 1.2 1.9.1.2.2.3.4.5.5.7 1 1.3 1.5 2l.1.1c.5.6 1.1 1.1 1.6 1.7.2.1.3.3.5.4.6.6 1.2 1.1 1.9 1.6l.1.1c.6.5 1.3 1 2 1.4.2.1.4.2.5.3.7.4 1.5.9 2.2 1.3h.1c.8.4 1.5.7 2.3 1 .2.1.4.2.6.2.8.3 1.7.6 2.5.8.9.2 1.7.4 2.6.6.2 0 .5.1.7.1.8.1 1.5.2 2.3.3h.3c.9 0 1.7.1 2.6 0h.7c.7 0 1.4-.1 2.1-.2.2 0 .3 0 .5-.1.8-.1 1.6-.3 2.5-.5.2 0 .4-.1.6-.1.7-.2 1.3-.4 2-.6.2-.1.4-.1.6-.2.8-.3 1.5-.6 2.3-.9.1-.1.3-.1.4-.2.6-.3 1.2-.6 1.8-1l.6-.3c.7-.4 1.4-.9 2.1-1.3.1-.1.2-.1.3-.2.6-.4 1.2-.9 1.7-1.4.2-.1.3-.3.5-.4.6-.6 1.2-1.1 1.8-1.7-32.6 20.9-48.2-9.9-49.4-12.2z" class="st20"/></g><path d="M609.9 844.1c-.4.2-.8.5-1.3.7.5-.2.9-.5 1.3-.7zm1.2-.9-.9.6c.3-.1.6-.3.9-.6zm1-18.4c.3.3.6.6.9 1-.3-.4-.6-.7-.9-1zm-1.1-.9c.3.3.7.5 1 .8-.3-.2-.6-.5-1-.8zm-15.3.5c.3-.3.7-.6 1.1-.8-.4.3-.8.6-1.1.8zm6.3 21.3-1.5-.3 1.5.3zm-1.5-.3c-.5-.1-1-.3-1.4-.5.5.2.9.4 1.4.5zm-7.4-5.8-.6-1.2.6 1.2zm10.5 6.2c-.4 0-.8 0-1.2-.1.5.1.8.1 1.2.1zm10.4-18.6c.2.3.3.5.5.8-.2-.2-.3-.5-.5-.8zm-20.1 13.7c-.3-.4-.5-.8-.8-1.2.3.4.5.8.8 1.2zm13 4.5-1.2.3 1.2-.3zm-1.4.3c-.5.1-1 .1-1.5.1.5 0 1 0 1.5-.1zm7.7-19.6c.2.2.4.5.6.8-.2-.3-.4-.6-.6-.8zm-.7 15.9c-.3.4-.7.7-1.1 1 .4-.3.8-.6 1.1-1z" class="st16"/><path d="M591.9 830.5c-.6 2.2-.5 4.3 0 6.4.5 1 7 13.8 20.6 5.2 1.4-1.4 2.4-3.2 2.9-5.2.7-2.4.5-4.9-.3-7.1-.1-.1-6.8-11.1-19.5-5.2-1.7 1.4-3 3.5-3.7 5.9zm16.5 14.3zm.2-22.3c.3.1.6.3.9.4-.3-.1-.6-.3-.9-.4zm-9-.3zm10.3 1c.3.2.5.3.8.5-.3-.2-.5-.4-.8-.5zm4.8 5.2c.2.4.3.8.5 1.1-.2-.3-.3-.7-.5-1.1z" class="st16"/><path d="M592.4 838c-.1-.3-.2-.7-.3-1 0 .4.1.7.3 1zm4.7-14.6c.3-.2.5-.3.8-.5-.3.2-.5.3-.8.5zm1.2-.7c.3-.1.6-.3.9-.4-.3.2-.6.3-.9.4zm7.1-1.1c.5.1.9.2 1.4.3-.4-.1-.9-.2-1.4-.3zm-8 22.4c-.4-.2-.8-.5-1.2-.8.4.3.8.6 1.2.8zm9.4-22.1c.5.1.9.3 1.3.5-.3-.2-.8-.4-1.3-.5zm-8.1 22.8c-.3-.1-.7-.3-1-.5.4.2.7.4 1 .5zm5.3-23.2c.3 0 .6 0 1 .1-.3-.1-.6-.1-1-.1zm-7.9 21.7c-.4-.3-.7-.6-1-.9.4.3.7.6 1 .9zm6.5-21.7h1-1zm-7.8 20.5c-.2-.3-.5-.5-.7-.8.3.3.5.5.7.8z" class="st16"/><g class="st17"><path d="M603.6 821.5h.5-.5z" class="st18"/></g><g class="st17"><path d="M610.7 823.7c.1.1.2.2.4.2-.2-.1-.3-.1-.4-.2z" class="st18"/></g><g class="st17"><path d="m613 825.8.3.3c-.2-.1-.2-.2-.3-.3z" class="st18"/></g><g class="st17"><path d="M613.8 826.9c.1.1.2.3.3.4-.1-.2-.2-.3-.3-.4z" class="st18"/></g><g class="st17"><path d="M609.5 822.9c.1.1.3.2.4.2-.2 0-.3-.1-.4-.2z" class="st18"/></g><g class="st17"><path d="M595.7 824.5v-.1z" class="st18"/></g><g class="st17"><path d="M599.2 822.3c.1-.1.3-.1.4-.2-.2.1-.3.2-.4.2z" class="st18"/></g><g class="st17"><path d="M602.2 821.6h.4c-.1-.1-.3-.1-.4 0z" class="st18"/></g><g class="st17"><path d="M596.8 823.6c.1-.1.2-.2.4-.2-.2.1-.3.2-.4.2z" class="st18"/></g><g class="st17"><path d="M612 824.8z" class="st18"/></g><g class="st17"><path d="M605 821.5h.4c-.1.1-.2.1-.4 0z" class="st18"/></g><g class="st17"><path d="M597.9 822.9c.1-.1.3-.1.4-.2-.1.1-.2.2-.4.2z" class="st18"/></g><g class="st17"><path d="M608.2 822.3c.1.1.3.1.4.2-.1-.1-.3-.1-.4-.2z" class="st18"/></g><g class="st17"><path d="M615.2 829.6z" class="st18"/></g><g class="st17"><path d="M614.5 828c.1.1.1.3.2.4-.1-.1-.1-.2-.2-.4z" class="st18"/></g><path d="M615.2 829.6c-.2-.5-.3-.8-.5-1.2-.1-.1-.1-.3-.2-.4-.1-.3-.3-.5-.5-.8-.1-.1-.2-.3-.3-.4-.2-.3-.4-.5-.6-.8l-.3-.3c-.3-.3-.6-.7-.9-1-.3-.3-.6-.6-1-.8-.1-.1-.2-.2-.4-.2-.3-.2-.5-.4-.8-.5-.1-.1-.3-.2-.4-.2-.3-.2-.6-.3-.9-.4-.1-.1-.3-.1-.4-.2-.4-.2-.9-.3-1.3-.5-.5-.1-.9-.2-1.4-.3h-.4c-.3 0-.6-.1-1-.1H602c-.9.1-1.8.3-2.6.6-.1 0-.3.1-.4.2-.3.1-.6.2-.9.4-.1.1-.3.1-.4.2-.3.1-.5.3-.8.5-.1.1-.2.1-.4.2-.4.3-.7.5-1.1.8 13-5.9 19.7 5.1 19.8 5.2z" class="st16"/><g class="st17"><path d="M615.2 829.6c-.2-.5-.3-.8-.5-1.2-.1-.1-.1-.3-.2-.4-.1-.3-.3-.5-.5-.8-.1-.1-.2-.3-.3-.4-.2-.3-.4-.5-.6-.8l-.3-.3c-.3-.3-.6-.7-.9-1-.3-.3-.6-.6-1-.8-.1-.1-.2-.2-.4-.2-.3-.2-.5-.4-.8-.5-.1-.1-.3-.2-.4-.2-.3-.2-.6-.3-.9-.4-.1-.1-.3-.1-.4-.2-.4-.2-.9-.3-1.3-.5-.5-.1-.9-.2-1.4-.3h-.4c-.3 0-.6-.1-1-.1H602c-.9.1-1.8.3-2.6.6-.1 0-.3.1-.4.2-.3.1-.6.2-.9.4-.1.1-.3.1-.4.2-.3.1-.5.3-.8.5-.1.1-.2.1-.4.2-.4.3-.7.5-1.1.8 13-5.9 19.7 5.1 19.8 5.2z" class="st18"/></g><g class="st19"><path d="M597.7 844.3c-.1-.1-.2-.1-.4-.2.2 0 .3.1.4.2z" class="st20"/></g><g class="st19"><path d="M607.3 845.3c-.1 0-.3.1-.4.1.1-.1.3-.1.4-.1z" class="st20"/></g><g class="st19"><path d="m595.1 842.3-.3-.3.3.3z" class="st20"/></g><g class="st19"><path d="M594.2 841.2c-.1-.1-.2-.2-.2-.3 0 .1.1.2.2.3z" class="st20"/></g><g class="st19"><path d="M592.5 838.4c-.1-.1-.1-.3-.2-.4.1.2.2.3.2.4z" class="st20"/></g><g class="st19"><path d="M596.2 843.2z" class="st20"/></g><g class="st19"><path d="M610.2 843.9c-.1.1-.2.1-.3.2.1-.1.2-.1.3-.2z" class="st20"/></g><g class="st19"><path d="M602.5 845.7h-.4.4z" class="st20"/></g><g class="st19"><path d="m611.5 843-.3.3.3-.3z" class="st20"/></g><g class="st19"><path d="M593.1 839.7s0-.1 0 0c0-.1 0 0 0 0z" class="st20"/></g><g class="st19"><path d="M604 845.8h-.4.4z" class="st20"/></g><g class="st19"><path d="M605.7 845.6h-.3c.1.1.2 0 .3 0z" class="st20"/></g><g class="st19"><path d="M599.1 844.9c-.1-.1-.3-.1-.4-.2.2.1.3.2.4.2z" class="st20"/></g><g class="st19"><path d="M608.7 844.7c-.1 0-.2.1-.2.1s.1 0 .2-.1z" class="st20"/></g><g class="st19"><path d="M591.9 836.8c0 .1.1.2.1.2s0-.1-.1-.2z" class="st20"/></g><path d="M592 836.9c0 .1 0 .1.1.2.1.3.2.7.3 1 .1.1.1.3.2.4l.6 1.2s0 .1.1.1c.2.4.5.8.8 1.2.1.1.2.2.2.3.2.3.4.5.7.8l.3.3c.3.3.7.6 1 .9h.1c.4.3.8.6 1.2.8.1.1.2.1.4.2.3.2.6.3 1 .5.1.1.3.1.4.2.5.2.9.4 1.4.5l1.5.3h.4c.4 0 .8.1 1.2.1h.4c.5 0 1-.1 1.5-.1h.3l1.2-.3c.1 0 .3-.1.4-.1.4-.1.8-.3 1.1-.4.1 0 .2-.1.2-.1.4-.2.9-.4 1.3-.7.1-.1.2-.1.3-.2l.9-.6.3-.3c.4-.3.7-.6 1.1-1-13.9 8.5-20.5-4.3-20.9-5.2z" class="st16"/><g class="st19"><path d="M592 836.9c0 .1 0 .1.1.2.1.3.2.7.3 1 .1.1.1.3.2.4l.6 1.2s0 .1.1.1c.2.4.5.8.8 1.2.1.1.2.2.2.3.2.3.4.5.7.8l.3.3c.3.3.7.6 1 .9h.1c.4.3.8.6 1.2.8.1.1.2.1.4.2.3.2.6.3 1 .5.1.1.3.1.4.2.5.2.9.4 1.4.5l1.5.3h.4c.4 0 .8.1 1.2.1h.4c.5 0 1-.1 1.5-.1h.3l1.2-.3c.1 0 .3-.1.4-.1.4-.1.8-.3 1.1-.4.1 0 .2-.1.2-.1.4-.2.9-.4 1.3-.7.1-.1.2-.1.3-.2l.9-.6.3-.3c.4-.3.7-.6 1.1-1-13.9 8.5-20.5-4.3-20.9-5.2z" class="st20"/></g><path d="m789.9 598.6-1.2.3 1.2-.3zm1.5-.5c-.4.2-.7.3-1.1.4.4-.1.8-.2 1.1-.4zm-4.8 1c-.4 0-.8 0-1.2-.1.5 0 .8.1 1.2.1zm-3.1-.4c-.5-.1-1-.3-1.4-.5.5.2 1 .3 1.4.5zm5 .2c-.5.1-1 .1-1.5.1.5.1 1 0 1.5-.1zm-3.4.1-1.5-.3c.4.1.9.2 1.5.3zm7.8-1.7c-.4.2-.8.5-1.3.7.5-.2.9-.4 1.3-.7zm1.3-.8-.9.6.9-.6zm-16.3-1.3c-.2-.3-.5-.5-.7-.8.2.3.4.6.7.8zm-1.8-2.4-.6-1.2c.2.5.4.9.6 1.2zm6.5-17.4c.4-.2.8-.3 1.3-.4-.5.2-.9.3-1.3.4zm-5.7 18.7c-.3-.4-.5-.8-.8-1.2.3.5.5.9.8 1.2zm8.7-19.3h1c-.4-.1-.7 0-1 0zm-3.9 23.2c-.3-.1-.7-.3-1-.5.4.2.7.3 1 .5zm-6.3-6.7c-.1-.3-.2-.7-.3-1 0 .3.1.7.3 1zm3.3-13.6c.3-.3.7-.6 1.1-.8-.4.2-.7.5-1.1.8zm1.4-1c.3-.2.5-.3.8-.5-.3.1-.5.3-.8.5zm7-2c.3 0 .6 0 1 .1-.4 0-.7-.1-1-.1zm-5.8 1.3c.3-.1.6-.3.9-.4-.3.1-.6.2-.9.4z" class="st16"/><path d="M795.5 595.3c1.4-1.4 2.4-3.2 2.9-5.2.7-2.4.5-4.9-.3-7.1-.1-.1-6.8-11.1-19.5-5.2-1.8 1.5-3.1 3.6-3.8 6-.6 2.2-.5 4.3 0 6.4.6.9 7.2 13.7 20.7 5.1z" class="st16"/><path d="M783.9 575.1c.4-.1.9-.2 1.3-.2-.5 0-.9.1-1.3.2zm13.8 6.6c.2.4.3.8.5 1.1-.2-.4-.3-.7-.5-1.1zm-.7-1.2c.2.3.3.5.5.8-.1-.3-.3-.5-.5-.8zm-.8-1.1c.2.2.4.5.6.8-.2-.3-.4-.6-.6-.8zm-.7 15.9c-.3.4-.7.7-1.1 1 .4-.4.8-.7 1.1-1zm-7-20.4c.5.1.9.2 1.4.3-.5-.2-1-.3-1.4-.3zm-9.3 21.5c-.4-.3-.7-.6-1-.9.3.4.6.7 1 .9zm1.2.9c-.4-.2-.8-.5-1.2-.8.4.3.8.6 1.2.8zm11.2-21.5c.3.1.6.3.9.4-.3-.2-.6-.3-.9-.4zm3.5 2.3c.3.3.6.6.9 1-.3-.4-.6-.7-.9-1zm-5.3-3c.5.1.9.3 1.3.5-.3-.2-.8-.3-1.3-.5zm3.1 1.3c.3.2.5.3.8.5-.3-.1-.5-.3-.8-.5zm1.1.8c.3.3.7.5 1 .8-.3-.3-.6-.6-1-.8z" class="st16"/><g class="st17"><path d="M778.7 577.7z" class="st18"/></g><g class="st17"><path d="M785.2 574.8h.4-.4z" class="st18"/></g><g class="st17"><path d="m796 579 .3.3-.3-.3z" class="st18"/></g><g class="st17"><path d="M791.2 575.6c.1.1.3.1.4.2-.1-.1-.3-.2-.4-.2z" class="st18"/></g><g class="st17"><path d="M797.5 581.3c.1.1.1.3.2.4-.1-.1-.1-.3-.2-.4z" class="st18"/></g><g class="st17"><path d="M796.8 580.1c.1.1.2.3.3.4-.1-.1-.2-.3-.3-.4z" class="st18"/></g><g class="st17"><path d="M792.5 576.2c.1.1.3.2.4.2-.1-.1-.3-.1-.4-.2z" class="st18"/></g><g class="st17"><path d="M795 578s.1 0 0 0c.1 0 0 0 0 0z" class="st18"/></g><g class="st17"><path d="M780.9 576.2c.1-.1.3-.1.4-.2-.1 0-.2.1-.4.2z" class="st18"/></g><g class="st17"><path d="M779.8 576.9c.1-.1.2-.2.4-.2-.2 0-.3.1-.4.2z" class="st18"/></g><g class="st17"><path d="M782.2 575.6c.1-.1.3-.1.4-.2-.2.1-.3.2-.4.2z" class="st18"/></g><g class="st17"><path d="M793.7 576.9c.1.1.2.2.4.2-.2 0-.3-.1-.4-.2z" class="st18"/></g><g class="st17"><path d="M788 574.8h.4-.4z" class="st18"/></g><g class="st17"><path d="M786.6 574.7h.5-.5z" class="st18"/></g><g class="st17"><path d="M798.2 582.9z" class="st18"/></g><path d="M798.2 582.9c-.2-.5-.3-.8-.5-1.2-.1-.1-.1-.3-.2-.4-.1-.3-.3-.5-.5-.8-.1-.1-.2-.3-.3-.4-.2-.3-.4-.5-.6-.8l-.3-.3c-.3-.3-.6-.7-.9-1-.3-.3-.6-.6-1-.8-.1-.1-.2-.2-.4-.2-.3-.2-.5-.4-.8-.5-.1-.1-.3-.2-.4-.2-.3-.2-.6-.3-.9-.4-.1-.1-.3-.1-.4-.2-.4-.2-.9-.3-1.3-.5-.5-.1-.9-.2-1.4-.3h-.4c-.3 0-.6-.1-1-.1H785c-.4.1-.9.1-1.3.2s-.9.2-1.3.4c-.1 0-.3.1-.4.2-.3.1-.6.2-.9.4-.1.1-.3.1-.4.2-.3.1-.5.3-.8.5-.1.1-.2.1-.4.2-.4.3-.7.5-1.1.8 13-5.9 19.7 5.1 19.8 5.2z" class="st16"/><g class="st17"><path d="M798.2 582.9c-.2-.5-.3-.8-.5-1.2-.1-.1-.1-.3-.2-.4-.1-.3-.3-.5-.5-.8-.1-.1-.2-.3-.3-.4-.2-.3-.4-.5-.6-.8l-.3-.3c-.3-.3-.6-.7-.9-1-.3-.3-.6-.6-1-.8-.1-.1-.2-.2-.4-.2-.3-.2-.5-.4-.8-.5-.1-.1-.3-.2-.4-.2-.3-.2-.6-.3-.9-.4-.1-.1-.3-.1-.4-.2-.4-.2-.9-.3-1.3-.5-.5-.1-.9-.2-1.4-.3h-.4c-.3 0-.6-.1-1-.1H785c-.4.1-.9.1-1.3.2s-.9.2-1.3.4c-.1 0-.3.1-.4.2-.3.1-.6.2-.9.4-.1.1-.3.1-.4.2-.3.1-.5.3-.8.5-.1.1-.2.1-.4.2-.4.3-.7.5-1.1.8 13-5.9 19.7 5.1 19.8 5.2z" class="st18"/></g><g class="st19"><path d="M777.2 594.4c-.1-.1-.2-.2-.2-.3 0 .1.1.2.2.3z" class="st20"/></g><g class="st19"><path d="M785.5 599h-.4.4z" class="st20"/></g><g class="st19"><path d="M779.2 596.5z" class="st20"/></g><g class="st19"><path d="M782.1 598.2c-.1-.1-.3-.1-.4-.2.2.1.3.1.4.2z" class="st20"/></g><g class="st19"><path d="M780.8 597.5c-.1-.1-.2-.1-.4-.2.1.1.2.1.4.2z" class="st20"/></g><g class="st19"><path d="M775 590.3c0-.1 0-.1-.1-.2v-.1c.1.1.1.2.1.3z" class="st20"/></g><g class="st19"><path d="M775.5 591.7c-.1-.1-.1-.3-.2-.4.1.1.2.3.2.4z" class="st20"/></g><g class="st19"><path d="M776.1 593s0-.1 0 0c0-.1 0-.1 0 0z" class="st20"/></g><g class="st19"><path d="M793.2 597.1c-.1.1-.2.1-.3.2.1 0 .2-.1.3-.2z" class="st20"/></g><g class="st19"><path d="M791.7 598c-.1 0-.2.1-.2.1s.1-.1.2-.1z" class="st20"/></g><g class="st19"><path d="m794.5 596.3-.3.3c.1-.2.2-.3.3-.3z" class="st20"/></g><g class="st19"><path d="M787 599.1h-.4.4z" class="st20"/></g><g class="st19"><path d="M788.7 598.9h-.3.3z" class="st20"/></g><g class="st19"><path d="M790.3 598.5c-.1 0-.3.1-.4.1.1 0 .3 0 .4-.1z" class="st20"/></g><g class="st19"><path d="m778.1 595.5-.3-.3.3.3z" class="st20"/></g><path d="M775.4 591.3c.1.1.1.3.2.4l.6 1.2s0 .1.1.1c.2.4.5.8.8 1.2.1.1.2.2.2.3.2.3.4.5.7.8l.3.3c.3.3.7.6 1 .9h.1c.4.3.8.6 1.2.8.1.1.2.1.4.2.3.2.6.3 1 .5.1.1.3.1.4.2.5.2.9.4 1.4.5l1.5.3h.4c.4 0 .8.1 1.2.1h.4c.5 0 1-.1 1.5-.1h.3l1.2-.3c.1 0 .3-.1.4-.1.4-.1.8-.3 1.1-.4.1 0 .2-.1.2-.1.4-.2.9-.4 1.3-.7.1-.1.2-.1.3-.2l.9-.6.3-.3c.4-.3.7-.6 1.1-1-13.6 8.6-20.1-4.2-20.6-5.2 0 .1 0 .1.1.2-.3.3-.2.7 0 1z" class="st16"/><g class="st19"><path d="M775.4 591.3c.1.1.1.3.2.4l.6 1.2s0 .1.1.1c.2.4.5.8.8 1.2.1.1.2.2.2.3.2.3.4.5.7.8l.3.3c.3.3.7.6 1 .9h.1c.4.3.8.6 1.2.8.1.1.2.1.4.2.3.2.6.3 1 .5.1.1.3.1.4.2.5.2.9.4 1.4.5l1.5.3h.4c.4 0 .8.1 1.2.1h.4c.5 0 1-.1 1.5-.1h.3l1.2-.3c.1 0 .3-.1.4-.1.4-.1.8-.3 1.1-.4.1 0 .2-.1.2-.1.4-.2.9-.4 1.3-.7.1-.1.2-.1.3-.2l.9-.6.3-.3c.4-.3.7-.6 1.1-1-13.6 8.6-20.1-4.2-20.6-5.2 0 .1 0 .1.1.2-.3.3-.2.7 0 1z" class="st20"/></g><path d="M256.2 664.2zm-3-.5c.3 0 .7 0 1 .1-.3 0-.7-.1-1-.1zm-11.7 19.4-.6-1.2.6 1.2zm18 4.8c-.4.3-.9.5-1.4.7.5-.2.9-.5 1.4-.7zm-12 .7c-.4-.2-.7-.3-1-.5.3.1.7.3 1 .5zm10.4.1c-.4.2-.8.3-1.2.4.4-.1.8-.3 1.2-.4zm-6.2-24.9c.3 0 .7 0 1-.1-.4 0-.7.1-1 .1zm6.3 1c.3.1.6.3.9.5-.2-.2-.5-.3-.9-.5zm-12.2 1c.3-.2.6-.4.9-.5-.3.1-.6.3-.9.5zm-1.5 1.1c.4-.3.7-.6 1.1-.9-.4.3-.7.6-1.1.9zm18 18.8c-.4.4-.7.7-1.1 1 .3-.3.7-.7 1.1-1zm-2.9-20.2.9.6-.9-.6zm-12.3-.4c.3-.1.6-.3.9-.4-.3.1-.6.2-.9.4zm2.7-1c.5-.1.9-.2 1.4-.3-.5.1-.9.2-1.4.3zm-9.1 17.3c-.1-.4-.3-.7-.4-1.1.2.4.3.8.4 1.1zm20.1 5.6c-.3.2-.6.5-1 .7.3-.3.7-.5 1-.7zm-12.4-22.5c.4-.2.9-.3 1.4-.4-.5.1-.9.2-1.4.4zm6.3-.6 1.5.3c-.5-.2-1-.3-1.5-.3zm0 25.7c-.5.1-1 .1-1.6.1.6 0 1.1-.1 1.6-.1zm-5.2-.3c-.5-.1-1-.3-1.5-.5.4.1.9.3 1.5.5zm13.5-20.6c.2.3.4.5.6.8-.2-.3-.4-.6-.6-.8zm-11.9 20.9c-.5-.1-1.1-.2-1.6-.3.5.1 1 .2 1.6.3zm12.8-19.7c.2.3.3.6.5.9-.2-.3-.4-.6-.5-.9zm.7 1.3c.2.4.4.8.5 1.2-.2-.4-.4-.9-.5-1.2zm-11.9 18.5c-.4 0-.8 0-1.2-.1.4.1.8.1 1.2.1zm-6.6-1.9c-.4-.3-.9-.5-1.3-.9.4.4.8.7 1.3.9z" class="st16"/><path d="M244.3 666.9c-1.9 1.6-3.3 3.8-4 6.4-.6 2.3-.6 4.6 0 6.8.5 1 7.5 14.7 22 5.5 1.4-1.5 2.5-3.4 3.1-5.6.7-2.6.6-5.3-.3-7.6-.1-.1-7.2-11.8-20.8-5.5z" class="st16"/><path d="m261.8 667.3 1 1c-.4-.3-.7-.7-1-1zm-5.6 21.9c-.4.1-.8.2-1.3.3.5-.1.9-.1 1.3-.3zm4.5-22.8c.4.3.7.6 1.1.9-.4-.4-.8-.7-1.1-.9zm-18.3 18c-.3-.4-.6-.8-.8-1.3.2.5.5.9.8 1.3zm1 1.2c-.3-.3-.5-.6-.7-.9.2.4.4.6.7.9zm1.4 1.3c-.4-.3-.7-.6-1.1-1 .3.4.7.7 1.1 1z" class="st16"/><g class="st17"><path d="M245.4 666c.1-.1.2-.2.4-.2-.1.1-.3.2-.4.2z" class="st18"/></g><g class="st17"><path d="M259 665.3c.2.1.3.2.4.3-.1-.1-.3-.2-.4-.3z" class="st18"/></g><g class="st17"><path d="M254.2 663.8c.2 0 .3 0 .5.1-.2-.1-.3-.1-.5-.1z" class="st18"/></g><g class="st17"><path d="M257.6 664.6c.1.1.3.1.4.2-.1 0-.2-.1-.4-.2z" class="st18"/></g><g class="st17"><path d="M252.7 663.7h.5-.5z" class="st18"/></g><g class="st17"><path d="M261.7 667.2s0 .1 0 0c0 .1 0 0 0 0z" class="st18"/></g><g class="st17"><path d="M260.3 666.1c.1.1.3.2.4.3-.2-.1-.3-.2-.4-.3z" class="st18"/></g><g class="st17"><path d="M251.2 663.8h.4-.4z" class="st18"/></g><g class="st17"><path d="M246.7 665.3c.1-.1.3-.2.4-.2-.2 0-.3.1-.4.2z" class="st18"/></g><g class="st17"><path d="M264.3 670.7c.1.1.1.3.2.4 0-.1-.1-.2-.2-.4z" class="st18"/></g><g class="st17"><path d="M248 664.7c.1-.1.3-.1.4-.2-.1 0-.3.1-.4.2z" class="st18"/></g><g class="st17"><path d="M265.1 672.4c0 .1 0 .1 0 0z" class="st18"/></g><g class="st17"><path d="m262.7 668.3.3.3c-.1 0-.2-.2-.3-.3z" class="st18"/></g><g class="st17"><path d="M263.6 669.5c.1.1.2.3.3.4-.1-.2-.2-.3-.3-.4z" class="st18"/></g><path d="M264.6 671.2c-.1-.1-.1-.3-.2-.4-.2-.3-.3-.6-.5-.9-.1-.1-.2-.3-.3-.4-.2-.3-.4-.5-.6-.8l-.3-.3c-.3-.4-.6-.7-1-1-.3-.3-.7-.6-1.1-.9-.1-.1-.2-.2-.4-.3l-.9-.6c-.1-.1-.3-.2-.4-.3-.3-.2-.6-.3-.9-.5-.1-.1-.3-.1-.4-.2-.5-.2-.9-.4-1.4-.5l-1.5-.3c-.2 0-.3 0-.5-.1-.3 0-.7-.1-1-.1h-.5c-.3 0-.7 0-1 .1h-.4c-.5.1-1 .1-1.4.3-.5.1-.9.3-1.4.4-.1.1-.3.1-.4.2-.3.1-.6.3-.9.4-.1.1-.3.1-.4.2-.3.2-.6.3-.9.5-.1.1-.3.2-.4.2-.4.3-.8.6-1.1.9 13.6-6.3 20.7 5.4 20.8 5.5v-.1c-.3-.2-.5-.7-.6-1z" class="st16"/><g class="st17"><path d="M264.6 671.2c-.1-.1-.1-.3-.2-.4-.2-.3-.3-.6-.5-.9-.1-.1-.2-.3-.3-.4-.2-.3-.4-.5-.6-.8l-.3-.3c-.3-.4-.6-.7-1-1-.3-.3-.7-.6-1.1-.9-.1-.1-.2-.2-.4-.3l-.9-.6c-.1-.1-.3-.2-.4-.3-.3-.2-.6-.3-.9-.5-.1-.1-.3-.1-.4-.2-.5-.2-.9-.4-1.4-.5l-1.5-.3c-.2 0-.3 0-.5-.1-.3 0-.7-.1-1-.1h-.5c-.3 0-.7 0-1 .1h-.4c-.5.1-1 .1-1.4.3-.5.1-.9.3-1.4.4-.1.1-.3.1-.4.2-.3.1-.6.3-.9.4-.1.1-.3.1-.4.2-.3.2-.6.3-.9.5-.1.1-.3.2-.4.2-.4.3-.8.6-1.1.9 13.6-6.3 20.7 5.4 20.8 5.5v-.1c-.3-.2-.5-.7-.6-1z" class="st18"/></g><g class="st19"><path d="M247.9 688.7c-.1-.1-.3-.1-.4-.2.2.1.3.2.4.2z" class="st20"/></g><g class="st19"><path d="m242.6 684.8-.3-.3c.2.1.3.2.3.3z" class="st20"/></g><g class="st19"><path d="M256.7 689.1c-.1 0-.3.1-.4.1.1 0 .2 0 .4-.1z" class="st20"/></g><g class="st19"><path d="M241.6 683.2s0-.1-.1-.1l.1.1z" class="st20"/></g><g class="st19"><path d="M251.5 689.6c-.2 0-.3 0-.5-.1.2.1.4.1.5.1z" class="st20"/></g><g class="st19"><path d="M258.1 688.6c-.1 0-.2.1-.3.1.1-.1.2-.1.3-.1z" class="st20"/></g><g class="st19"><path d="M253.1 689.7h-.4.4z" class="st20"/></g><g class="st19"><path d="m243.7 685.9-.3-.3.3.3z" class="st20"/></g><g class="st19"><path d="M255 689.5c-.1 0-.2 0-.3.1.1 0 .2-.1.3-.1z" class="st20"/></g><g class="st19"><path d="M240.3 680.1c0 .1.1.2.1.3-.1-.1-.1-.2-.1-.3z" class="st20"/></g><g class="st19"><path d="M240.9 681.8c-.1-.1-.1-.3-.2-.4.1.2.1.3.2.4z" class="st20"/></g><g class="st19"><path d="m261.1 686.7-.3.3.3-.3z" class="st20"/></g><g class="st19"><path d="M246.5 688c-.1-.1-.3-.1-.4-.2.1.1.2.2.4.2z" class="st20"/></g><g class="st19"><path d="M262.3 685.7z" class="st20"/></g><g class="st19"><path d="M244.8 687c0-.1 0-.1 0 0 0-.1 0-.1 0 0z" class="st20"/></g><g class="st19"><path d="M259.8 687.7c-.1.1-.2.1-.3.2.1-.1.2-.2.3-.2z" class="st20"/></g><path d="M240.3 680.1c0 .1 0 .1.1.2.1.4.2.7.4 1.1.1.1.1.3.2.4l.6 1.2s0 .1.1.1c.2.4.5.8.8 1.3l.3.3c.2.3.5.6.7.9l.3.3c.3.3.7.7 1.1 1l.1.1c.4.3.8.6 1.3.9.1.1.3.1.4.2.3.2.7.4 1 .5.1.1.3.1.4.2.5.2 1 .4 1.5.5s1.1.2 1.6.3c.2 0 .3 0 .5.1.4 0 .8.1 1.2.1h.4c.5 0 1-.1 1.6-.1.1 0 .2 0 .3-.1.4-.1.8-.2 1.3-.3.1 0 .3-.1.4-.1.4-.1.8-.3 1.2-.4.1 0 .2-.1.3-.1.5-.2.9-.4 1.4-.7.1-.1.2-.1.3-.2.3-.2.7-.4 1-.7l.3-.3c.4-.3.8-.7 1.1-1-14.7 9.1-21.7-4.6-22.2-5.7z" class="st16"/><g class="st19"><path d="M240.3 680.1c0 .1 0 .1.1.2.1.4.2.7.4 1.1.1.1.1.3.2.4l.6 1.2s0 .1.1.1c.2.4.5.8.8 1.3l.3.3c.2.3.5.6.7.9l.3.3c.3.3.7.7 1.1 1l.1.1c.4.3.8.6 1.3.9.1.1.3.1.4.2.3.2.7.4 1 .5.1.1.3.1.4.2.5.2 1 .4 1.5.5s1.1.2 1.6.3c.2 0 .3 0 .5.1.4 0 .8.1 1.2.1h.4c.5 0 1-.1 1.6-.1.1 0 .2 0 .3-.1.4-.1.8-.2 1.3-.3.1 0 .3-.1.4-.1.4-.1.8-.3 1.2-.4.1 0 .2-.1.3-.1.5-.2.9-.4 1.4-.7.1-.1.2-.1.3-.2.3-.2.7-.4 1-.7l.3-.3c.4-.3.8-.7 1.1-1-14.7 9.1-21.7-4.6-22.2-5.7z" class="st20"/></g><path d="m144.5 743.6 1.2 1.5-1.2-1.5zm-11.3-10.3c.6.4 1.1.8 1.7 1.1-.6-.4-1.2-.7-1.7-1.1zm-50.6-.4c.5 1 1 2.1 1.5 3.1 14.4 28.8 31.6 55.2 51.1 79.2 2.2-1.2 4.5-2.5 6.8-4 5.7-6 10-13.5 12.3-22 2.8-10.3 2.2-20.7-1.1-30.1-.3-.4-24.4-40.2-70.6-26.2zm59.4 78.3c-.7.7-1.4 1.4-2.2 2.1.8-.6 1.5-1.3 2.2-2.1zm-45.5-85.8c.7-.1 1.3-.2 2-.3-.7.1-1.4.2-2 .3zm12.6-.5c.7.1 1.4.1 2.1.2-.8-.1-1.5-.2-2.1-.2z" class="st16"/><path d="M140 738.7c.7.6 1.3 1.3 2 2-.6-.7-1.3-1.3-2-2zm-10-7.4c.8.5 1.7 1 2.5 1.5-.9-.5-1.7-1-2.5-1.5zm12.6 10.1c.4.5.9 1 1.3 1.5-.4-.6-.9-1.1-1.3-1.5zm3.7 4.5c.5.7 1 1.4 1.4 2.1-.5-.8-.9-1.5-1.4-2.1zM135.6 735c.5.4 1 .8 1.6 1.2-.5-.4-1-.8-1.6-1.2zm15.5 19c.3.6.5 1.2.8 1.8-.3-.7-.6-1.2-.8-1.8zm-13.2-17.2c.7.6 1.3 1.1 1.9 1.7-.6-.5-1.2-1.1-1.9-1.7zm-1.7 79.7c.2-.2.4-.3.6-.5-.2.2-.4.3-.6.5zm-24.1-91.3 2.1.3-2.1-.3zm-24.7 2.5zm62.3 23.6.9 1.8-.9-1.8zm-1.8-3.1c.5.8 1 1.6 1.4 2.4-.5-.8-.9-1.6-1.4-2.4zm-63.3-19.4c.6-.3 1.2-.5 1.8-.7-.6.2-1.2.5-1.8.7zm8.2-2.7c.9-.2 1.8-.4 2.8-.6-.9.2-1.9.4-2.8.6zm31.9 2.6c.6.3 1.3.5 1.9.8-.6-.2-1.3-.5-1.9-.8zm14.5 85.3-1.8 1.5 1.8-1.5zm-17.4-86.4c.7.2 1.3.5 1.9.7-.6-.2-1.2-.5-1.9-.7zm-31.7-.8c.9-.3 1.8-.5 2.7-.7-.9.2-1.8.5-2.7.7zm12.2-2.1c1 0 1.9-.1 2.9-.1-.9.1-1.9.1-2.9.1zm2.9 0c1 0 1.9.1 2.9.1-.9-.1-1.9-.1-2.9-.1zm-23.9 5.7c.8-.4 1.7-.8 2.5-1.2-.8.3-1.7.7-2.5 1.2zm18.1-5.4c.7-.1 1.3-.1 2-.2-.6 0-1.3.1-2 .2zm28 5c.8.4 1.7.8 2.5 1.3-.8-.5-1.7-.9-2.5-1.3zm-9.4-3.6c1 .3 1.9.6 2.9.9-.9-.3-1.9-.6-2.9-.9zm34.2 30.2c.3.8.6 1.5.9 2.3-.3-.8-.6-1.6-.9-2.3zm-37.1-30.9c1 .2 2 .4 2.9.7-.9-.2-1.9-.5-2.9-.7z" class="st16"/><g class="st17"><path d="M101.5 724.8c.3 0 .6 0 .9-.1-.4.1-.6.1-.9.1z" class="st18"/></g><g class="st17"><path d="M150.6 753.1c.1.3.3.6.4.9-.1-.3-.2-.6-.4-.9z" class="st18"/></g><g class="st17"><path d="M89.3 727.1c.3-.1.6-.2.8-.3-.3.1-.6.2-.8.3z" class="st18"/></g><g class="st17"><path d="M111.1 725.1c.3 0 .7.1 1 .1-.3 0-.7-.1-1-.1z" class="st18"/></g><g class="st17"><path d="M129.9 731.2s.1 0 .1.1c-.1 0-.1 0-.1-.1z" class="st18"/></g><g class="st17"><path d="M123.7 728.3c.3.1.6.3 1 .4-.3-.1-.6-.2-1-.4z" class="st18"/></g><g class="st17"><path d="M114.2 725.6c.3.1.6.1.9.2-.3-.1-.6-.2-.9-.2z" class="st18"/></g><g class="st17"><path d="M83.8 729.2c.3-.1.5-.2.8-.3-.2 0-.5.1-.8.3z" class="st18"/></g><g class="st17"><path d="M126.6 729.6c.3.1.6.3.8.4-.3-.2-.6-.3-.8-.4z" class="st18"/></g><g class="st17"><path d="m120.9 727.3.9.3-.9-.3z" class="st18"/></g><g class="st17"><path d="m86.5 728.1.9-.3c-.3 0-.6.2-.9.3z" class="st18"/></g><g class="st17"><path d="M95.6 725.5c.3-.1.6-.1.9-.1-.3 0-.6.1-.9.1z" class="st18"/></g><g class="st17"><path d="M108.1 724.8c.3 0 .6.1.9.1-.2-.1-.6-.1-.9-.1z" class="st18"/></g><g class="st17"><path d="M147.7 747.9c.1.1.1.2.2.2-.1 0-.2-.1-.2-.2z" class="st18"/></g><g class="st17"><path d="M98.5 725.1c.3 0 .7-.1 1-.1-.4 0-.7 0-1 .1z" class="st18"/></g><g class="st17"><path d="M143.9 742.8c.2.3.4.5.6.8-.2-.2-.4-.5-.6-.8z" class="st18"/></g><g class="st17"><path d="M137.2 736.3c.2.2.5.4.7.6-.2-.3-.5-.5-.7-.6z" class="st18"/></g><g class="st17"><path d="m139.8 738.6.2.2c0-.1-.1-.2-.2-.2z" class="st18"/></g><g class="st17"><path d="m142 740.7.6.6-.6-.6z" class="st18"/></g><g class="st17"><path d="M145.7 745.1c.2.2.4.5.5.7-.1-.2-.3-.4-.5-.7z" class="st18"/></g><g class="st17"><path d="M134.8 734.4c.3.2.5.4.8.6-.2-.2-.5-.4-.8-.6z" class="st18"/></g><g class="st17"><path d="M149.3 750.6c.1.2.3.5.4.7-.1-.2-.3-.5-.4-.7z" class="st18"/></g><g class="st17"><path d="M151.9 755.7c.1.3.2.6.4.8-.2-.2-.3-.5-.4-.8z" class="st18"/></g><g class="st17"><path d="M153.2 759.2c0-.1-.1-.2-.1-.3 0 .1.1.2.1.3z" class="st18"/></g><g class="st17"><path d="M132.4 732.8c.2.2.5.3.7.5-.2-.2-.4-.3-.7-.5z" class="st18"/></g><path d="M153.2 759.2c0-.1-.1-.2-.1-.3-.3-.8-.6-1.5-.9-2.3-.1-.3-.2-.6-.4-.8-.3-.6-.5-1.2-.8-1.8-.1-.3-.3-.6-.4-.9l-.9-1.8c-.1-.2-.3-.5-.4-.7-.5-.8-.9-1.6-1.4-2.4-.1-.1-.1-.2-.2-.2-.5-.7-.9-1.4-1.4-2.1-.2-.2-.4-.5-.5-.7l-1.2-1.5c-.2-.3-.4-.5-.6-.8-.4-.5-.9-1-1.3-1.5l-.6-.6c-.6-.7-1.3-1.4-2-2l-.2-.2c-.6-.6-1.3-1.2-1.9-1.7-.2-.2-.5-.4-.7-.6-.5-.4-1-.8-1.6-1.2-.3-.2-.5-.4-.8-.6-.5-.4-1.1-.8-1.7-1.1-.2-.2-.5-.3-.7-.5-.8-.5-1.6-1-2.5-1.5 0 0-.1 0-.1-.1-.8-.5-1.6-.9-2.5-1.3-.3-.1-.6-.3-.8-.4-.6-.3-1.2-.6-1.9-.8-.3-.1-.6-.3-1-.4-.6-.3-1.3-.5-1.9-.7l-.9-.3c-.9-.3-1.9-.6-2.9-.9-1-.3-2-.5-2.9-.7-.3-.1-.6-.1-.9-.2l-2.1-.3c-.3 0-.7-.1-1-.1-.7-.1-1.4-.2-2.1-.2-.3 0-.6-.1-.9-.1-1-.1-1.9-.1-2.9-.1s-1.9 0-2.9.1c-.3 0-.6 0-.9.1-.7 0-1.3.1-2 .2-.3 0-.7.1-1 .1-.7.1-1.3.2-2 .3-.3 0-.6.1-.9.1-.9.2-1.9.4-2.8.6-.9.2-1.8.5-2.7.7-.3.1-.6.2-.8.3-.6.2-1.3.4-1.9.6l-.9.3c-.6.2-1.2.5-1.8.7-.3.1-.5.2-.8.3-.8.4-1.7.8-2.5 1.2.4.8.8 1.7 1.2 2.5 46.3-14 70.4 25.8 70.7 26.3z" class="st16"/><g class="st17"><path d="M153.2 759.2c0-.1-.1-.2-.1-.3-.3-.8-.6-1.5-.9-2.3-.1-.3-.2-.6-.4-.8-.3-.6-.5-1.2-.8-1.8-.1-.3-.3-.6-.4-.9l-.9-1.8c-.1-.2-.3-.5-.4-.7-.5-.8-.9-1.6-1.4-2.4-.1-.1-.1-.2-.2-.2-.5-.7-.9-1.4-1.4-2.1-.2-.2-.4-.5-.5-.7l-1.2-1.5c-.2-.3-.4-.5-.6-.8-.4-.5-.9-1-1.3-1.5l-.6-.6c-.6-.7-1.3-1.4-2-2l-.2-.2c-.6-.6-1.3-1.2-1.9-1.7-.2-.2-.5-.4-.7-.6-.5-.4-1-.8-1.6-1.2-.3-.2-.5-.4-.8-.6-.5-.4-1.1-.8-1.7-1.1-.2-.2-.5-.3-.7-.5-.8-.5-1.6-1-2.5-1.5 0 0-.1 0-.1-.1-.8-.5-1.6-.9-2.5-1.3-.3-.1-.6-.3-.8-.4-.6-.3-1.2-.6-1.9-.8-.3-.1-.6-.3-1-.4-.6-.3-1.3-.5-1.9-.7l-.9-.3c-.9-.3-1.9-.6-2.9-.9-1-.3-2-.5-2.9-.7-.3-.1-.6-.1-.9-.2l-2.1-.3c-.3 0-.7-.1-1-.1-.7-.1-1.4-.2-2.1-.2-.3 0-.6-.1-.9-.1-1-.1-1.9-.1-2.9-.1s-1.9 0-2.9.1c-.3 0-.6 0-.9.1-.7 0-1.3.1-2 .2-.3 0-.7.1-1 .1-.7.1-1.3.2-2 .3-.3 0-.6.1-.9.1-.9.2-1.9.4-2.8.6-.9.2-1.8.5-2.7.7-.3.1-.6.2-.8.3-.6.2-1.3.4-1.9.6l-.9.3c-.6.2-1.2.5-1.8.7-.3.1-.5.2-.8.3-.8.4-1.7.8-2.5 1.2.4.8.8 1.7 1.2 2.5 46.3-14 70.4 25.8 70.7 26.3z" class="st18"/></g><g class="st19"><path d="M142 811.2z" class="st20"/></g><g class="st19"><path d="M137.4 815.5c-.2.2-.4.3-.6.5.2-.2.4-.3.6-.5z" class="st20"/></g><g class="st19"><path d="m139.8 813.4-.6.6.6-.6z" class="st20"/></g><path d="M136.2 816.5c.2-.2.4-.3.6-.5.2-.2.4-.3.6-.5l1.8-1.5.6-.6c.7-.7 1.5-1.4 2.2-2.1-2.3 1.5-4.6 2.8-6.8 4 .3.3.6.8 1 1.2z" class="st16"/><g class="st19"><path d="M136.2 816.5c.2-.2.4-.3.6-.5.2-.2.4-.3.6-.5l1.8-1.5.6-.6c.7-.7 1.5-1.4 2.2-2.1-2.3 1.5-4.6 2.8-6.8 4 .3.3.6.8 1 1.2z" class="st20"/></g><path d="M397.4 884.3c-1.3.5-2.7.9-4.1 1.3 1.4-.3 2.8-.8 4.1-1.3zm4.2-1.6zm-.3-133.1c.9.4 1.8.8 2.6 1.2-.9-.4-1.8-.8-2.6-1.2zm-22.8 138.7c-1.2.1-2.4.1-3.6.2 1.2 0 2.4-.1 3.6-.2zm14.9-2.6c-1.4.4-2.8.7-4.2 1.1 1.4-.4 2.8-.7 4.2-1.1zM388 887l-3.3.6 3.3-.6zm-4.4.8c-1.4.2-2.8.4-4.3.5 1.5-.2 2.9-.3 4.3-.5zm30.7-12.1c-1 .7-2 1.3-3 1.9 1-.6 2-1.3 3-1.9zm11.3-9.7c-1 1-2 2-3.1 3 1.1-1 2.1-2 3.1-3zm-7.3 6.7c-1.1.9-2.2 1.7-3.4 2.6 1.2-.9 2.3-1.7 3.4-2.6zm3.4-2.9c-.8.7-1.7 1.5-2.5 2.2.8-.7 1.6-1.4 2.5-2.2zm-11.5 8.5c-1 .6-2 1.2-3.1 1.7 1.1-.6 2.1-1.1 3.1-1.7zm-3.7 2.1c-1.3.7-2.5 1.3-3.8 1.8 1.2-.6 2.5-1.2 3.8-1.8zm13.4-119.3c.9.8 1.9 1.6 2.8 2.5-1-.9-1.9-1.7-2.8-2.5zm-71.3-12.9c.9-.3 1.7-.6 2.6-.9-.8.3-1.7.6-2.6.9z" class="st16"/><path d="M325.7 761.7c-10.5 9.1-18.5 21.4-22.4 35.8-3.4 12.8-3.2 25.6 0 37.5 1.5 3.2 40.2 83.1 122.3 30.9 8-8.5 14.1-19 17.3-31 3.9-14.5 3.1-29.2-1.5-42.4-.4-.7-40-66-115.7-30.8zm19.1-11.9c.9-.4 1.7-.7 2.6-1-.9.3-1.8.6-2.6 1zm-4.7 2.2c1.2-.6 2.4-1.2 3.6-1.7-1.3.5-2.5 1.1-3.6 1.7zm16.2-6.1c1.3-.3 2.6-.6 3.9-.8-1.3.2-2.6.5-3.9.8zm-3.8 1.1c1.3-.4 2.5-.7 3.8-1-1.3.2-2.6.6-3.8 1zm87.6 41.9c.4 1.1.8 2.1 1.2 3.2-.4-1.1-.8-2.1-1.2-3.2zm-114.4-27.2zm-21.2 77.1c-.4-1.1-.7-2.2-1-3.3.3 1.1.6 2.2 1 3.3zm1.7 4.7-1.5-3.9 1.5 3.9zm27-87.5c.8-.5 1.6-1 2.3-1.5-.8.5-1.5 1-2.3 1.5zm-25.3 91.4c-.5-1-.9-1.9-1.3-2.9.4 1 .9 1.9 1.3 2.9zm28.7-93.5c1.1-.7 2.3-1.3 3.5-1.9-1.2.6-2.4 1.2-3.5 1.9zm-6.8 4.5c.7-.6 1.5-1.1 2.2-1.6-.7.5-1.5 1.1-2.2 1.6zm44-14.5c1.4 0 2.7.1 4.1.2-1.4-.1-2.7-.2-4.1-.2zm9.7.8c1 .1 1.9.3 2.9.5-.9-.2-1.9-.3-2.9-.5zm45.7 25.9c.6.7 1.1 1.4 1.7 2.2-.6-.7-1.1-1.5-1.7-2.2z" class="st16"/><path d="M422.8 763.7c1 .9 1.9 1.9 2.8 2.8-.9-.9-1.8-1.9-2.8-2.8zm3.7 3.7c.6.7 1.3 1.4 1.9 2.1-.7-.7-1.3-1.4-1.9-2.1zm-47.3-23.2c1 .1 1.9.2 2.9.3-1-.1-1.9-.2-2.9-.3zm-13.5.1c.9-.1 1.9-.2 2.8-.2-1 .1-1.9.1-2.8.2zm-4.2.6c.9-.2 1.9-.3 2.8-.4-1 .1-1.9.2-2.8.4zm75 36.6c.5.8.9 1.7 1.3 2.5-.4-.9-.8-1.7-1.3-2.5zm-2.6-4.4c.7 1.1 1.4 2.2 2 3.4-.6-1.2-1.3-2.3-2-3.4zm-2.2-3.3c.7 1 1.4 1.9 2 2.9-.7-1-1.3-1.9-2-2.9zm6.7 11.4c.4.8.8 1.6 1.1 2.5-.3-.8-.7-1.6-1.1-2.5zM369.7 744c1.4-.1 2.7-.1 4.1-.1-1.3 0-2.7.1-4.1.1zm18 1.4c1.4.3 2.8.6 4.1 1-1.3-.4-2.7-.7-4.1-1zm-28.8 141.7c-1.5-.3-3-.6-4.5-1 1.5.4 3 .7 4.5 1zm54.3-131c.8.5 1.6 1.1 2.3 1.6-.7-.6-1.5-1.1-2.3-1.6zm-58.8 130c-1.5-.4-2.9-.8-4.3-1.3 1.5.4 2.9.9 4.3 1.3zm-5.5-1.8c-1-.4-2.1-.8-3.1-1.2 1.1.5 2.1.9 3.1 1.2zm43-137.9c1.4.4 2.7.8 4.1 1.2-1.4-.4-2.8-.8-4.1-1.2zm-18.3 142.1c-1.2 0-2.4 0-3.6-.1 1.2.1 2.4.1 3.6.1zm-10-.6c-1.1-.2-2.3-.3-3.4-.5 1.1.1 2.3.3 3.4.5zm45.1-134.6c1.2.7 2.3 1.4 3.5 2.1-1.2-.8-2.3-1.5-3.5-2.1zm-3.6-1.9c1.2.6 2.3 1.2 3.5 1.8-1.2-.6-2.4-1.2-3.5-1.8zm-60.4 131.3c-1.3-.6-2.7-1.2-4-1.8 1.3.6 2.6 1.2 4 1.8zm52.5-134.6c.9.3 1.8.7 2.7 1-.9-.4-1.8-.7-2.7-1zm-72.7 121.6c-.8-.7-1.5-1.4-2.3-2.2.7.7 1.5 1.5 2.3 2.2zm-6.3-6.5c-.8-.9-1.6-1.9-2.3-2.9.7 1 1.5 1.9 2.3 2.9zm22.3 17.5c-1.2-.6-2.4-1.3-3.6-2 1.2.8 2.4 1.4 3.6 2zm-27.9-24.9c-.8-1.2-1.5-2.3-2.2-3.5.8 1.1 1.5 2.3 2.2 3.5zm2.5 3.5c-.6-.8-1.2-1.7-1.8-2.6.6.9 1.2 1.7 1.8 2.6zm-5-7.6c-.6-1-1.1-2.1-1.7-3.1.6 1 1.2 2 1.7 3.1zm106.6-93.2c.7.6 1.5 1.1 2.2 1.7-.7-.5-1.5-1.1-2.2-1.7zm-80.9 119.6c-.9-.6-1.8-1.1-2.7-1.7.9.6 1.8 1.2 2.7 1.7zm-3.7-2.4zm-10.8-9c-1-1-1.9-2-2.8-3.1.9 1 1.9 2.1 2.8 3.1zm7.1 6.3c-1-.8-2-1.6-3-2.5 1 .9 1.9 1.7 3 2.5zm40.8 15.4c-1.5-.1-2.9-.2-4.4-.4 1.4.2 2.9.3 4.4.4z" class="st16"/><g class="st17"><path d="M430.9 772.8c.3.3.5.7.8 1-.3-.3-.5-.7-.8-1z" class="st18"/></g><g class="st17"><path d="M360.2 745.1c.4-.1.8-.1 1.2-.2-.3.1-.8.1-1.2.2z" class="st18"/></g><g class="st17"><path d="M356.3 745.9z" class="st18"/></g><g class="st17"><path d="M351.3 747.3c.4-.1.8-.3 1.2-.4-.4.2-.8.3-1.2.4z" class="st18"/></g><g class="st17"><path d="M364.3 744.5c.5-.1.9-.1 1.4-.2-.5.1-1 .1-1.4.2z" class="st18"/></g><g class="st17"><path d="M343.6 750.3c.4-.2.8-.3 1.1-.5-.3.1-.7.3-1.1.5z" class="st18"/></g><g class="st17"><path d="M340 752s.1 0 0 0c.1 0 0 0 0 0z" class="st18"/></g><g class="st17"><path d="M332 756.8c.4-.3.8-.5 1.2-.8-.4.3-.8.5-1.2.8z" class="st18"/></g><g class="st17"><path d="M412.2 755.4c.4.2.7.5 1 .7-.3-.3-.7-.5-1-.7z" class="st18"/></g><g class="st17"><path d="M368.5 744.1c.4 0 .8-.1 1.3-.1-.5 0-.9.1-1.3.1z" class="st18"/></g><g class="st17"><path d="M347.3 748.7c.4-.2.9-.3 1.3-.5-.4.2-.8.4-1.3.5z" class="st18"/></g><g class="st17"><path d="m403.9 750.8 1.2.6-1.2-.6z" class="st18"/></g><g class="st17"><path d="M399.9 749.1c.5.2.9.4 1.4.6-.5-.2-.9-.4-1.4-.6z" class="st18"/></g><g class="st17"><path d="M408.5 753.2c.1 0 .1.1.2.1-.1-.1-.1-.1-.2-.1z" class="st18"/></g><g class="st17"><path d="M395.9 747.6c.4.1.8.3 1.2.4-.4-.1-.8-.2-1.2-.4z" class="st18"/></g><g class="st17"><path d="M382.1 744.5c.5.1 1 .1 1.4.2-.5-.1-.9-.1-1.4-.2z" class="st18"/></g><g class="st17"><path d="M386.4 745.2c.4.1.9.2 1.3.2-.4 0-.8-.1-1.3-.2z" class="st18"/></g><g class="st17"><path d="M377.9 744.1c.4 0 .9.1 1.3.1-.4 0-.9-.1-1.3-.1z" class="st18"/></g><g class="st17"><path d="M373.8 743.9z" class="st18"/></g><g class="st17"><path d="M335.5 754.5c.4-.2.7-.4 1.1-.6-.4.2-.7.4-1.1.6z" class="st18"/></g><g class="st17"><path d="M436 780.5c.2.3.4.7.6 1-.3-.4-.5-.7-.6-1z" class="st18"/></g><g class="st17"><path d="M433.7 776.7c.1.1.2.2.2.4-.1-.1-.2-.3-.2-.4z" class="st18"/></g><g class="st17"><path d="m437.8 784 .6 1.2-.6-1.2z" class="st18"/></g><g class="st17"><path d="M439.6 787.7c.2.4.3.8.5 1.2-.2-.4-.4-.8-.5-1.2z" class="st18"/></g><g class="st17"><path d="M441.5 792.6c0-.1-.1-.3-.2-.4 0 .1.1.2.2.4-.1-.1 0 0 0 0z" class="st18"/></g><g class="st17"><path d="M415.5 757.7c.4.3.8.6 1.1.8-.3-.3-.7-.5-1.1-.8z" class="st18"/></g><g class="st17"><path d="M328.8 759.2c.3-.3.7-.5 1-.7-.4.2-.7.4-1 .7z" class="st18"/></g><g class="st17"><path d="M428.3 769.5c.3.4.6.7.9 1.1-.3-.3-.6-.7-.9-1.1z" class="st18"/></g><g class="st17"><path d="M418.9 760.2c.3.3.7.5 1 .8-.4-.2-.7-.5-1-.8z" class="st18"/></g><g class="st17"><path d="M422.6 763.5c.1.1.2.1.2.2l-.2-.2z" class="st18"/></g><g class="st17"><path d="M425.7 766.5c.3.3.5.6.8.9-.3-.3-.6-.6-.8-.9z" class="st18"/></g><path d="M441.4 792.5c0-.1-.1-.3-.2-.4-.4-1.1-.8-2.2-1.2-3.2-.2-.4-.3-.8-.5-1.2-.4-.8-.7-1.7-1.1-2.5l-.6-1.2c-.4-.8-.9-1.7-1.3-2.5-.2-.3-.4-.7-.6-1-.7-1.1-1.3-2.3-2-3.4-.1-.1-.2-.2-.2-.4-.6-1-1.3-2-2-2.9-.3-.3-.5-.7-.8-1-.5-.7-1.1-1.5-1.7-2.2-.3-.4-.6-.7-.9-1.1-.6-.7-1.2-1.4-1.9-2.1-.3-.3-.5-.6-.8-.9-.9-1-1.8-1.9-2.8-2.8-.1-.1-.2-.1-.2-.2-.9-.8-1.8-1.7-2.8-2.5-.3-.3-.7-.5-1-.8-.7-.6-1.4-1.2-2.2-1.7-.4-.3-.8-.6-1.1-.8-.8-.6-1.5-1.1-2.3-1.6-.3-.2-.7-.5-1-.7-1.1-.7-2.3-1.4-3.5-2.1-.1 0-.1-.1-.2-.1-1.1-.6-2.3-1.2-3.5-1.8l-1.2-.6c-.9-.4-1.7-.8-2.6-1.2-.4-.2-.9-.4-1.4-.6-.9-.4-1.8-.7-2.7-1-.4-.1-.8-.3-1.2-.4-1.3-.4-2.7-.9-4.1-1.2-1.4-.4-2.8-.7-4.1-1-.4-.1-.9-.2-1.3-.2-1-.2-1.9-.3-2.9-.5-.5-.1-1-.1-1.4-.2-1-.1-1.9-.2-2.9-.3-.4 0-.9-.1-1.3-.1-1.4-.1-2.7-.2-4.1-.2-1.4 0-2.7 0-4.1.1-.4 0-.8.1-1.3.1-.9.1-1.9.1-2.8.2-.5 0-.9.1-1.4.2-.9.1-1.9.3-2.8.4-.4.1-.8.1-1.2.2-1.3.2-2.6.5-3.9.8-1.3.3-2.6.7-3.8 1-.4.1-.8.3-1.2.4-.9.3-1.8.6-2.6.9-.4.2-.9.3-1.3.5-.9.3-1.7.7-2.6 1-.4.2-.8.3-1.1.5-1.2.5-2.4 1.1-3.6 1.7-1.2.6-2.3 1.2-3.5 1.9-.4.2-.7.4-1.1.6-.8.5-1.6 1-2.3 1.5-.4.3-.8.5-1.2.8-.8.5-1.5 1.1-2.2 1.6-.3.2-.7.5-1 .7-1 .8-2.1 1.6-3.1 2.5 75.7-35 115.3 30.3 115.7 31z" class="st16"/><g class="st17"><path d="M441.4 792.5c0-.1-.1-.3-.2-.4-.4-1.1-.8-2.2-1.2-3.2-.2-.4-.3-.8-.5-1.2-.4-.8-.7-1.7-1.1-2.5l-.6-1.2c-.4-.8-.9-1.7-1.3-2.5-.2-.3-.4-.7-.6-1-.7-1.1-1.3-2.3-2-3.4-.1-.1-.2-.2-.2-.4-.6-1-1.3-2-2-2.9-.3-.3-.5-.7-.8-1-.5-.7-1.1-1.5-1.7-2.2-.3-.4-.6-.7-.9-1.1-.6-.7-1.2-1.4-1.9-2.1-.3-.3-.5-.6-.8-.9-.9-1-1.8-1.9-2.8-2.8-.1-.1-.2-.1-.2-.2-.9-.8-1.8-1.7-2.8-2.5-.3-.3-.7-.5-1-.8-.7-.6-1.4-1.2-2.2-1.7-.4-.3-.8-.6-1.1-.8-.8-.6-1.5-1.1-2.3-1.6-.3-.2-.7-.5-1-.7-1.1-.7-2.3-1.4-3.5-2.1-.1 0-.1-.1-.2-.1-1.1-.6-2.3-1.2-3.5-1.8l-1.2-.6c-.9-.4-1.7-.8-2.6-1.2-.4-.2-.9-.4-1.4-.6-.9-.4-1.8-.7-2.7-1-.4-.1-.8-.3-1.2-.4-1.3-.4-2.7-.9-4.1-1.2-1.4-.4-2.8-.7-4.1-1-.4-.1-.9-.2-1.3-.2-1-.2-1.9-.3-2.9-.5-.5-.1-1-.1-1.4-.2-1-.1-1.9-.2-2.9-.3-.4 0-.9-.1-1.3-.1-1.4-.1-2.7-.2-4.1-.2-1.4 0-2.7 0-4.1.1-.4 0-.8.1-1.3.1-.9.1-1.9.1-2.8.2-.5 0-.9.1-1.4.2-.9.1-1.9.3-2.8.4-.4.1-.8.1-1.2.2-1.3.2-2.6.5-3.9.8-1.3.3-2.6.7-3.8 1-.4.1-.8.3-1.2.4-.9.3-1.8.6-2.6.9-.4.2-.9.3-1.3.5-.9.3-1.7.7-2.6 1-.4.2-.8.3-1.1.5-1.2.5-2.4 1.1-3.6 1.7-1.2.6-2.3 1.2-3.5 1.9-.4.2-.7.4-1.1.6-.8.5-1.6 1-2.3 1.5-.4.3-.8.5-1.2.8-.8.5-1.5 1.1-2.2 1.6-.3.2-.7.5-1 .7-1 .8-2.1 1.6-3.1 2.5 75.7-35 115.3 30.3 115.7 31z" class="st18"/></g><g class="st19"><path d="M384.7 887.6c-.4.1-.7.1-1.1.2.4-.1.7-.2 1.1-.2z" class="st20"/></g><g class="st19"><path d="m389.2 886.7-1.2.3 1.2-.3z" class="st20"/></g><g class="st19"><path d="M360.2 887.3c-.4-.1-.9-.2-1.3-.2.4.1.8.2 1.3.2z" class="st20"/></g><g class="st19"><path d="M379.3 888.3c-.3 0-.5 0-.8.1.3-.1.6-.1.8-.1z" class="st20"/></g><g class="st19"><path d="M407.2 880c-.2.1-.5.3-.7.4.2-.1.4-.3.7-.4z" class="st20"/></g><g class="st19"><path d="M422.6 869c-.3.3-.6.6-.9.8.3-.3.6-.5.9-.8z" class="st20"/></g><g class="st19"><path d="M419.1 872c-.3.2-.6.5-.8.7.3-.3.6-.5.8-.7z" class="st20"/></g><g class="st19"><path d="M414.9 875.2c-.2.2-.4.3-.7.4.3-.1.5-.2.7-.4z" class="st20"/></g><g class="st19"><path d="M411.3 877.6c-.4.2-.7.4-1.1.7.4-.3.8-.5 1.1-.7z" class="st20"/></g><g class="st19"><path d="M402.6 882.2c-.3.1-.7.3-1 .4.4-.1.7-.2 1-.4z" class="st20"/></g><g class="st19"><path d="M374.9 888.5h-1.3 1.3z" class="st20"/></g><g class="st19"><path d="M370 888.5h-.8c.2-.1.5-.1.8 0z" class="st20"/></g><g class="st19"><path d="M364.7 888c-.4 0-.8-.1-1.1-.2.4.1.8.2 1.1.2z" class="st20"/></g><g class="st19"><path d="M398.6 883.9c-.4.1-.8.3-1.2.4.4-.1.8-.3 1.2-.4z" class="st20"/></g><g class="st19"><path d="M393.4 885.7z" class="st20"/></g><g class="st19"><path d="M345.8 883.2c-.4-.2-.8-.3-1.2-.5.5.1.8.3 1.2.5z" class="st20"/></g><g class="st19"><path d="M315.9 860.3c-.3-.3-.5-.7-.8-1 .3.3.5.7.8 1z" class="st20"/></g><g class="st19"><path d="M318.5 863.6c-.1-.1-.2-.3-.3-.4.1.1.2.2.3.4z" class="st20"/></g><g class="st19"><path d="m325.4 870.5-.9-.9.9.9z" class="st20"/></g><g class="st19"><path d="M322.2 867.5c-.3-.3-.6-.5-.8-.8l.8.8z" class="st20"/></g><g class="st19"><path d="m313.3 856.7-.6-.9.6.9z" class="st20"/></g><g class="st19"><path d="M303.3 834.9c.1.2.1.4.2.6 0-.2-.1-.3-.1-.5-.1 0-.1-.1-.1-.1z" class="st20"/></g><g class="st19"><path d="m310.5 852.2-.3-.6.3.6z" class="st20"/></g><g class="st19"><path d="M306.6 844.5c-.1-.3-.3-.7-.4-1 .1.3.3.6.4 1z" class="st20"/></g><g class="st19"><path d="m308.5 848.5-.6-1.2c.2.5.4.8.6 1.2z" class="st20"/></g><g class="st19"><path d="M304.7 839.6c-.1-.2-.1-.5-.2-.7.1.2.1.4.2.7z" class="st20"/></g><g class="st19"><path d="M336.9 878.8c-.4-.2-.7-.4-1.1-.7.4.2.7.5 1.1.7z" class="st20"/></g><g class="st19"><path d="M340.7 880.8c-.1 0-.1-.1-.2-.1.1.1.1.1.2.1z" class="st20"/></g><g class="st19"><path d="M350.2 884.8c-.4-.1-.8-.3-1.2-.4.3.1.7.2 1.2.4z" class="st20"/></g><g class="st19"><path d="M333.1 876.4c-.3-.2-.7-.4-1-.7.3.3.7.5 1 .7z" class="st20"/></g><g class="st19"><path d="M328.7 873.2c-.1-.1-.2-.2-.3-.2.1.1.2.2.3.2z" class="st20"/></g><path d="M303.4 835c0 .2.1.3.1.5.3 1.1.6 2.2 1 3.3.1.2.1.5.2.7.5 1.3.9 2.6 1.5 3.9.1.3.3.7.4 1 .4 1 .8 1.9 1.3 2.9l.6 1.2c.5 1.1 1.1 2.1 1.7 3.1l.3.6c.7 1.2 1.4 2.4 2.2 3.5l.6.9c.6.9 1.2 1.7 1.8 2.6.3.3.5.7.8 1 .7 1 1.5 1.9 2.3 2.9.1.1.2.3.3.4.9 1.1 1.9 2.1 2.8 3.1l.8.8c.7.7 1.5 1.5 2.3 2.2l.9.9c1 .8 1.9 1.7 3 2.5.1.1.2.2.3.2 1.1.9 2.3 1.7 3.4 2.5.3.2.7.4 1 .7.9.6 1.8 1.2 2.7 1.7.4.2.7.4 1.1.7 1.2.7 2.4 1.3 3.6 2 .1 0 .1.1.2.1 1.3.6 2.6 1.2 4 1.8.4.2.8.3 1.2.5 1 .4 2 .8 3.1 1.2.4.1.8.3 1.2.4 1.4.5 2.8.9 4.3 1.3s3 .7 4.5 1c.4.1.9.2 1.3.2 1.1.2 2.3.4 3.4.5.4.1.8.1 1.1.2 1.5.2 2.9.3 4.4.4h.8c1.2.1 2.4.1 3.6.1h1.3c1.2 0 2.4-.1 3.6-.2.3 0 .5 0 .8-.1 1.4-.1 2.9-.3 4.3-.5.4-.1.7-.1 1.1-.2l3.3-.6 1.2-.3c1.4-.3 2.8-.7 4.2-1.1 1.4-.4 2.7-.9 4.1-1.3.4-.1.8-.3 1.2-.4 1-.4 2.1-.8 3.1-1.2.3-.1.7-.3 1-.4 1.3-.6 2.6-1.2 3.8-1.8.2-.1.5-.3.7-.4 1-.6 2.1-1.1 3.1-1.7.4-.2.7-.4 1.1-.7 1-.6 2-1.3 3-1.9.2-.1.4-.3.7-.4 1.2-.8 2.3-1.7 3.4-2.6.3-.2.6-.5.8-.7.9-.7 1.7-1.4 2.5-2.2.3-.3.6-.5.9-.8 1-1 2.1-2 3.1-3-82.3 52.2-121-27.8-122.4-31z" class="st16"/><g class="st19"><path d="M303.4 835c0 .2.1.3.1.5.3 1.1.6 2.2 1 3.3.1.2.1.5.2.7.5 1.3.9 2.6 1.5 3.9.1.3.3.7.4 1 .4 1 .8 1.9 1.3 2.9l.6 1.2c.5 1.1 1.1 2.1 1.7 3.1l.3.6c.7 1.2 1.4 2.4 2.2 3.5l.6.9c.6.9 1.2 1.7 1.8 2.6.3.3.5.7.8 1 .7 1 1.5 1.9 2.3 2.9.1.1.2.3.3.4.9 1.1 1.9 2.1 2.8 3.1l.8.8c.7.7 1.5 1.5 2.3 2.2l.9.9c1 .8 1.9 1.7 3 2.5.1.1.2.2.3.2 1.1.9 2.3 1.7 3.4 2.5.3.2.7.4 1 .7.9.6 1.8 1.2 2.7 1.7.4.2.7.4 1.1.7 1.2.7 2.4 1.3 3.6 2 .1 0 .1.1.2.1 1.3.6 2.6 1.2 4 1.8.4.2.8.3 1.2.5 1 .4 2 .8 3.1 1.2.4.1.8.3 1.2.4 1.4.5 2.8.9 4.3 1.3s3 .7 4.5 1c.4.1.9.2 1.3.2 1.1.2 2.3.4 3.4.5.4.1.8.1 1.1.2 1.5.2 2.9.3 4.4.4h.8c1.2.1 2.4.1 3.6.1h1.3c1.2 0 2.4-.1 3.6-.2.3 0 .5 0 .8-.1 1.4-.1 2.9-.3 4.3-.5.4-.1.7-.1 1.1-.2l3.3-.6 1.2-.3c1.4-.3 2.8-.7 4.2-1.1 1.4-.4 2.7-.9 4.1-1.3.4-.1.8-.3 1.2-.4 1-.4 2.1-.8 3.1-1.2.3-.1.7-.3 1-.4 1.3-.6 2.6-1.2 3.8-1.8.2-.1.5-.3.7-.4 1-.6 2.1-1.1 3.1-1.7.4-.2.7-.4 1.1-.7 1-.6 2-1.3 3-1.9.2-.1.4-.3.7-.4 1.2-.8 2.3-1.7 3.4-2.6.3-.2.6-.5.8-.7.9-.7 1.7-1.4 2.5-2.2.3-.3.6-.5.9-.8 1-1 2.1-2 3.1-3-82.3 52.2-121-27.8-122.4-31z" class="st20"/></g><path d="M783.2 647.8c1.4-.4 2.7-.8 4.1-1.1-1.4.3-2.8.6-4.1 1.1zm23.1-3.3c1.5 0 2.9.1 4.4.2-1.5-.1-3-.2-4.4-.2zm-44 13c.8-.6 1.7-1.1 2.5-1.6-.8.6-1.6 1.1-2.5 1.6zm35.1-12.6 3-.3c-.9.1-1.9.2-3 .3zm-4.5.6c1-.2 2-.3 3-.4-1 .1-2 .3-3 .4zm9-.9c1.5-.1 2.9-.1 4.4-.1-1.5 0-3 0-4.4.1zm-14.5 2 4.2-.9-4.2.9zm-21.4 8.6c1.2-.7 2.5-1.4 3.7-2.1-1.2.7-2.5 1.4-3.7 2.1zm-7.3 4.9 2.4-1.8-2.4 1.8zm16.2-9.3c.9-.4 1.8-.8 2.8-1.1-1 .3-1.9.7-2.8 1.1zm4.1-1.7c.9-.3 1.9-.7 2.8-1-.9.4-1.8.7-2.8 1zm-9.2 4c1.3-.7 2.5-1.3 3.8-1.8-1.3.6-2.6 1.2-3.8 1.8zm47-7.8c1 .2 2.1.3 3.1.5-1.1-.2-2.1-.3-3.1-.5zm9 1.8c1.5.4 2.9.8 4.4 1.3-1.5-.4-3-.9-4.4-1.3zm5.7 1.8c1 .4 2 .7 3 1.1-1-.3-2-.7-3-1.1zm-10.2-2.8c1.5.3 3 .6 4.5 1-1.5-.4-3-.7-4.5-1zm18.7 6.4c1.3.6 2.5 1.3 3.8 2-1.2-.7-2.5-1.4-3.8-2zm-27 147.9c-.2 0-.4 0-.7.1.2 0 .4-.1.7-.1zm3.6-.4c-.3 0-.6.1-.9.1.4 0 .6-.1.9-.1zm-51.4-10.5c-1-.6-2-1.2-2.9-1.8.9.6 1.9 1.2 2.9 1.8zm-4.1-2.6c-1.3-.9-2.5-1.8-3.7-2.7 1.2 1 2.5 1.9 3.7 2.7zM844 654.6c1.3.7 2.5 1.5 3.8 2.3-1.3-.8-2.6-1.6-3.8-2.3zm-31.9-9.8c1 .1 2.1.2 3.1.3-1-.1-2.1-.2-3.1-.3zm23.8 5.8c1 .4 1.9.8 2.8 1.3-.9-.4-1.8-.8-2.8-1.3zm32.9 26.2c.7 1 1.5 2.1 2.2 3.2-.7-1.2-1.5-2.2-2.2-3.2zm-2.7-3.5c.6.8 1.2 1.5 1.8 2.3-.5-.7-1.1-1.5-1.8-2.3zm5.1 7zm2.8 4.8c.5.9 1 1.8 1.4 2.7-.4-.9-.9-1.8-1.4-2.7zm-25.2-27.5c.9.6 1.7 1.1 2.5 1.7-.8-.6-1.6-1.1-2.5-1.7zm3.8 2.6c.8.6 1.6 1.2 2.4 1.9-.8-.6-1.6-1.2-2.4-1.9zm3.4 2.8c1 .9 2 1.7 3 2.6-1-.9-2-1.8-3-2.6zm7.2 6.9c.7.7 1.4 1.5 2 2.3-.7-.8-1.3-1.6-2-2.3zm-3.9-4c1 1 2 2 3 3.1-1-1.1-2-2.1-3-3.1zm-58.2 134.8h-.7c.3-.1.5-.1.7 0zm-46.8-137 3.3-2.7c-1.2.8-2.3 1.7-3.3 2.7zm-23 83.4c-.4-1.2-.8-2.4-1.1-3.6.4 1.2.7 2.4 1.1 3.6zm39 45.3-3.9-2.1c1.2.7 2.5 1.4 3.9 2.1zm-37.1-40.3c-.6-1.4-1.1-2.8-1.6-4.2.5 1.4 1 2.8 1.6 4.2zm16.3 25c-1.1-1.1-2.1-2.2-3.1-3.3 1.1 1.1 2.1 2.2 3.1 3.3zM735 756.3c-.5-1-1-2.1-1.4-3.1.5 1 .9 2.1 1.4 3.1zm7.8 12.9c-.7-.9-1.3-1.8-2-2.8.7.9 1.3 1.9 2 2.8zm66.1 31.5h-.8.8zm-71.5-39.8zm37.3 33.5c-1.4-.6-2.9-1.3-4.3-2 1.5.8 2.9 1.4 4.3 2zm-34.6-29c-.8-1.3-1.6-2.5-2.4-3.8.8 1.2 1.6 2.5 2.4 3.8zm39.2 30.8c-1.1-.4-2.2-.8-3.3-1.3 1.1.5 2.2.9 3.3 1.3zM757.1 784c-1.1-.9-2.1-1.8-3.2-2.7 1.1.9 2.1 1.8 3.2 2.7zm40.5 16.4c-.3 0-.6-.1-.9-.1.3 0 .6 0 .9.1zm7.7.4h-.8.8z" class="st16"/><path d="M754.3 663.7c-11.4 9.9-20 23.1-24.2 38.7-3.7 13.8-3.4 27.7 0 40.6 1.3 2.8 30.4 62.9 91 50.9 22.7-31.8 40.8-66.4 54.1-102.7-12.5-16.4-53.4-59-120.9-27.5zm31 134.4c-1.6-.4-3.1-.9-4.6-1.4 1.5.5 3 1 4.6 1.4zm7.9 1.7c-.1 0-.3-.1-.4-.1.1 0 .3.1.4.1z" class="st16"/><path d="M752.9 780.4c-.8-.8-1.7-1.6-2.5-2.4.8.8 1.7 1.6 2.5 2.4zm36.8 18.7c-.3-.1-.6-.1-.9-.2.3.1.6.2.9.2zm-43.6-25.7c-.9-1-1.7-2-2.5-3.1.8 1 1.6 2 2.5 3.1z" class="st16"/><g class="st17"><path d="M781.9 648.2c.4-.1.9-.3 1.3-.4-.5.1-.9.2-1.3.4z" class="st18"/></g><g class="st17"><path d="M773.6 651.3c.4-.2.8-.4 1.2-.5-.4.2-.8.3-1.2.5z" class="st18"/></g><g class="st17"><path d="M830.1 648.5c.5.1.9.3 1.3.5-.4-.2-.8-.4-1.3-.5z" class="st18"/></g><g class="st17"><path d="M819.9 645.8c.5.1.9.2 1.4.3-.5-.1-.9-.2-1.4-.3z" class="st18"/></g><g class="st17"><path d="M791.6 645.7c.4-.1.9-.1 1.3-.2-.4.1-.9.2-1.3.2z" class="st18"/></g><g class="st17"><path d="M757.6 660.9c.4-.3.7-.5 1.1-.8-.4.3-.8.6-1.1.8z" class="st18"/></g><g class="st17"><path d="M761.1 658.4c.4-.3.8-.6 1.2-.8-.4.2-.8.5-1.2.8z" class="st18"/></g><g class="st17"><path d="M787.3 646.6z" class="st18"/></g><g class="st17"><path d="M777.6 649.6c.5-.2.9-.4 1.4-.5-.4.2-.9.4-1.4.5z" class="st18"/></g><g class="st17"><path d="M815.2 645.1c.5.1 1 .1 1.6.2-.6-.1-1.1-.1-1.6-.2z" class="st18"/></g><g class="st17"><path d="M769.7 653.2s.1 0 0 0c.1 0 0 0 0 0z" class="st18"/></g><g class="st17"><path d="M800.5 644.7c.5 0 .9-.1 1.4-.1-.5 0-1 0-1.4.1z" class="st18"/></g><g class="st17"><path d="M795.9 645.1c.5-.1 1-.1 1.5-.2-.5.1-1 .1-1.5.2z" class="st18"/></g><g class="st17"><path d="M764.9 655.9c.4-.2.8-.5 1.1-.7-.4.3-.8.5-1.1.7z" class="st18"/></g><g class="st17"><path d="M855 662.1c.4.3.7.6 1.1.9-.4-.3-.8-.6-1.1-.9z" class="st18"/></g><g class="st17"><path d="m834.5 650 1.5.6c-.6-.2-1.1-.4-1.5-.6z" class="st18"/></g><g class="st17"><path d="M868 675.7c.3.4.6.7.8 1.1-.3-.4-.6-.8-.8-1.1z" class="st18"/></g><g class="st17"><path d="M810.7 644.7c.5 0 .9.1 1.4.1-.5-.1-.9-.1-1.4-.1z" class="st18"/></g><g class="st17"><path d="M859 665.6c.1.1.2.2.3.2-.1 0-.2-.1-.3-.2z" class="st18"/></g><g class="st17"><path d="M876 689c.1 0 .1 0 0 0l-.6-1.2c.3.4.5.8.6 1.2z" class="st18"/></g><g class="st17"><path d="m851.4 659.3 1.2.9-1.2-.9z" class="st18"/></g><g class="st17"><path d="M862.3 668.9c.3.3.6.6.9 1-.3-.3-.6-.7-.9-1z" class="st18"/></g><g class="st17"><path d="M865.2 672.2c.3.4.6.8 1 1.2-.4-.5-.7-.9-1-1.2z" class="st18"/></g><g class="st17"><path d="M873.4 684c.2.4.4.7.6 1.1-.2-.4-.4-.8-.6-1.1z" class="st18"/></g><g class="st17"><path d="M843.8 654.5c.1 0 .1.1.2.1-.1-.1-.1-.1-.2-.1z" class="st18"/></g><g class="st17"><path d="M871 679.9c.1.1.2.2.3.4-.2-.1-.3-.3-.3-.4z" class="st18"/></g><g class="st17"><path d="M847.7 656.8c.4.2.8.5 1.1.8-.3-.3-.7-.5-1.1-.8z" class="st18"/></g><g class="st17"><path d="M838.8 651.9c.4.2.9.4 1.3.6-.5-.2-.9-.4-1.3-.6z" class="st18"/></g><path d="M874 685.1c-.2-.4-.4-.7-.6-1.1-.7-1.2-1.4-2.5-2.2-3.7-.1-.1-.2-.3-.3-.4-.7-1.1-1.4-2.1-2.2-3.2-.3-.4-.6-.7-.8-1.1-.6-.8-1.2-1.6-1.8-2.3-.3-.4-.6-.8-1-1.2-.7-.8-1.3-1.5-2-2.3-.3-.3-.6-.7-.9-1-1-1-2-2.1-3-3.1-.1-.1-.2-.2-.3-.2-1-.9-2-1.8-3-2.6-.4-.3-.7-.6-1.1-.9-.8-.6-1.6-1.3-2.4-1.9l-1.2-.9c-.8-.6-1.7-1.2-2.5-1.7-.4-.3-.7-.5-1.1-.8-1.2-.8-2.5-1.6-3.8-2.3-.1 0-.1-.1-.2-.1-1.2-.7-2.5-1.3-3.8-2-.4-.2-.8-.4-1.3-.6-.9-.4-1.9-.9-2.8-1.3l-1.5-.6c-1-.4-2-.8-3-1.1-.4-.2-.9-.3-1.3-.5-1.4-.5-2.9-.9-4.4-1.3-1.5-.4-3-.7-4.5-1-.5-.1-.9-.2-1.4-.3-1-.2-2.1-.4-3.1-.5-.5-.1-1-.1-1.6-.2-1-.1-2.1-.2-3.1-.3-.5 0-.9-.1-1.4-.1-1.5-.1-3-.2-4.4-.2-1.5 0-2.9 0-4.4.1-.5 0-.9.1-1.4.1-1 .1-2 .1-3 .3-.5.1-1 .1-1.5.2-1 .1-2 .3-3 .4-.4.1-.9.1-1.3.2-1.4.3-2.8.5-4.2.9-1.4.3-2.8.7-4.1 1.1-.4.1-.9.3-1.3.4-1 .3-1.9.6-2.8 1-.5.2-.9.3-1.4.5-.9.4-1.9.7-2.8 1.1-.4.2-.8.3-1.2.5-1.3.6-2.6 1.2-3.8 1.8-1.3.7-2.5 1.3-3.7 2.1-.4.2-.8.5-1.1.7-.9.5-1.7 1.1-2.5 1.6-.4.3-.8.6-1.2.8l-2.4 1.8c-.4.3-.7.5-1.1.8l-3.3 2.7c67.5-31.4 108.5 11.2 121 27.5.3-.7.5-1.4.8-2.2l-.6-1.2c-.7-.6-1.2-1.5-1.7-2.4z" class="st16"/><g class="st17"><path d="M874 685.1c-.2-.4-.4-.7-.6-1.1-.7-1.2-1.4-2.5-2.2-3.7-.1-.1-.2-.3-.3-.4-.7-1.1-1.4-2.1-2.2-3.2-.3-.4-.6-.7-.8-1.1-.6-.8-1.2-1.6-1.8-2.3-.3-.4-.6-.8-1-1.2-.7-.8-1.3-1.5-2-2.3-.3-.3-.6-.7-.9-1-1-1-2-2.1-3-3.1-.1-.1-.2-.2-.3-.2-1-.9-2-1.8-3-2.6-.4-.3-.7-.6-1.1-.9-.8-.6-1.6-1.3-2.4-1.9l-1.2-.9c-.8-.6-1.7-1.2-2.5-1.7-.4-.3-.7-.5-1.1-.8-1.2-.8-2.5-1.6-3.8-2.3-.1 0-.1-.1-.2-.1-1.2-.7-2.5-1.3-3.8-2-.4-.2-.8-.4-1.3-.6-.9-.4-1.9-.9-2.8-1.3l-1.5-.6c-1-.4-2-.8-3-1.1-.4-.2-.9-.3-1.3-.5-1.4-.5-2.9-.9-4.4-1.3-1.5-.4-3-.7-4.5-1-.5-.1-.9-.2-1.4-.3-1-.2-2.1-.4-3.1-.5-.5-.1-1-.1-1.6-.2-1-.1-2.1-.2-3.1-.3-.5 0-.9-.1-1.4-.1-1.5-.1-3-.2-4.4-.2-1.5 0-2.9 0-4.4.1-.5 0-.9.1-1.4.1-1 .1-2 .1-3 .3-.5.1-1 .1-1.5.2-1 .1-2 .3-3 .4-.4.1-.9.1-1.3.2-1.4.3-2.8.5-4.2.9-1.4.3-2.8.7-4.1 1.1-.4.1-.9.3-1.3.4-1 .3-1.9.6-2.8 1-.5.2-.9.3-1.4.5-.9.4-1.9.7-2.8 1.1-.4.2-.8.3-1.2.5-1.3.6-2.6 1.2-3.8 1.8-1.3.7-2.5 1.3-3.7 2.1-.4.2-.8.5-1.1.7-.9.5-1.7 1.1-2.5 1.6-.4.3-.8.6-1.2.8l-2.4 1.8c-.4.3-.7.5-1.1.8l-3.3 2.7c67.5-31.4 108.5 11.2 121 27.5.3-.7.5-1.4.8-2.2l-.6-1.2c-.7-.6-1.2-1.5-1.7-2.4z" class="st18"/></g><g class="st19"><path d="m750.4 778-.9-.9.9.9z" class="st20"/></g><g class="st19"><path d="M743.6 770.3c-.3-.4-.6-.7-.8-1.1.3.3.5.7.8 1.1z" class="st20"/></g><g class="st19"><path d="m757.4 784.2-.3-.3c.1.2.2.3.3.3z" class="st20"/></g><g class="st19"><path d="M746.5 773.8c-.1-.1-.2-.3-.4-.5.1.2.2.4.4.5z" class="st20"/></g><g class="st19"><path d="M753.9 781.3c-.3-.3-.7-.6-1-.9.3.3.7.6 1 .9z" class="st20"/></g><g class="st19"><path d="M815.8 800.1c-.9.1-1.9.2-2.8.3.9-.1 1.8-.2 2.8-.3z" class="st20"/></g><g class="st19"><path d="M796.7 800.3c-1.1-.1-2.3-.3-3.4-.5 1.1.2 2.2.3 3.4.5z" class="st20"/></g><g class="st19"><path d="M804.5 800.8c-1.1 0-2.3-.1-3.4-.1 1.2 0 2.3.1 3.4.1z" class="st20"/></g><g class="st19"><path d="M800.5 800.6c-1-.1-1.9-.1-2.9-.2.9.1 1.9.1 2.9.2z" class="st20"/></g><g class="st19"><path d="M792.8 799.7c-1-.2-2-.4-3.1-.6 1 .3 2.1.4 3.1.6z" class="st20"/></g><g class="st19"><path d="M762.2 787.7c-.4-.2-.7-.5-1.1-.7.4.2.8.4 1.1.7z" class="st20"/></g><g class="st19"><path d="M788.8 798.9c-1.2-.3-2.3-.5-3.5-.8 1.2.3 2.3.6 3.5.8z" class="st20"/></g><g class="st19"><path d="M808.1 800.7h-2.8c1 .1 1.9.1 2.8 0z" class="st20"/></g><g class="st19"><path d="M816.7 800s-.1 0 0 0c-.1 0 0 0 0 0z" class="st20"/></g><g class="st19"><path d="M740.8 766.4c-.2-.3-.5-.7-.7-1 .3.3.5.6.7 1z" class="st20"/></g><g class="st19"><path d="M812.3 800.5c-1.1.1-2.2.2-3.4.2 1.2 0 2.3-.1 3.4-.2z" class="st20"/></g><g class="st19"><path d="M733.6 753.2c-.2-.4-.3-.7-.5-1.1.2.3.4.7.5 1.1z" class="st20"/></g><g class="st19"><path d="M731.6 747.8c-.1-.3-.2-.5-.2-.8 0 .3.1.6.2.8z" class="st20"/></g><g class="st19"><path d="m735.6 757.5-.6-1.2.6 1.2z" class="st20"/></g><g class="st19"><path d="m737.8 761.5-.3-.6.3.6z" class="st20"/></g><g class="st19"><path d="M766.4 790.2c-.4-.2-.8-.5-1.2-.7.4.3.8.5 1.2.7z" class="st20"/></g><g class="st19"><path d="M730 742.8c.1.2.1.4.2.6 0-.2-.1-.3-.1-.5l-.1-.1z" class="st20"/></g><g class="st19"><path d="M770.5 792.5c-.1 0-.1-.1-.2-.1 0 0 .1 0 .2.1z" class="st20"/></g><g class="st19"><path d="M776 795c-.4-.2-.9-.3-1.3-.5.5.1.9.3 1.3.5z" class="st20"/></g><g class="st19"><path d="M780.7 796.7c-.4-.2-.9-.3-1.3-.5.4.2.8.3 1.3.5z" class="st20"/></g><path d="M730.1 743c0 .2.1.3.1.5.3 1.2.7 2.4 1.1 3.6.1.3.2.5.2.8.5 1.4 1 2.8 1.6 4.2.2.4.3.7.5 1.1.4 1.1.9 2.1 1.4 3.1l.6 1.2c.6 1.1 1.2 2.3 1.8 3.4l.3.6c.7 1.3 1.5 2.6 2.4 3.8.2.3.5.7.7 1 .6.9 1.3 1.9 2 2.8.3.4.5.7.8 1.1.8 1 1.6 2.1 2.5 3.1.1.1.2.3.4.5 1 1.1 2 2.2 3.1 3.3l.9.9c.8.8 1.6 1.6 2.5 2.4.3.3.7.6 1 .9 1 .9 2.1 1.8 3.2 2.7l.3.3c1.2.9 2.4 1.8 3.7 2.7.4.2.7.5 1.1.7 1 .6 1.9 1.3 2.9 1.8.4.2.8.5 1.2.7 1.3.7 2.6 1.5 3.9 2.1.1 0 .1.1.2.1 1.4.7 2.8 1.3 4.3 2 .4.2.8.3 1.3.5 1.1.4 2.2.9 3.3 1.3.4.2.9.3 1.3.5 1.5.5 3.1 1 4.6 1.4 1.2.3 2.3.6 3.5.8.3.1.6.1.9.2 1 .2 2 .4 3.1.6.1 0 .3.1.4.1 1.2.2 2.3.3 3.4.5.3 0 .6.1.9.1 1 .1 1.9.2 2.9.2h.7c1.1.1 2.3.1 3.4.1h4.4c1.1 0 2.2-.1 3.4-.2.2 0 .4 0 .7-.1.9-.1 1.9-.2 2.8-.3.3 0 .6-.1.9-.1h.1c1.5-2 3-4.1 4.4-6.1-60.7 12-89.8-48.1-91.1-50.9z" class="st16"/><g class="st19"><path d="M730.1 743c0 .2.1.3.1.5.3 1.2.7 2.4 1.1 3.6.1.3.2.5.2.8.5 1.4 1 2.8 1.6 4.2.2.4.3.7.5 1.1.4 1.1.9 2.1 1.4 3.1l.6 1.2c.6 1.1 1.2 2.3 1.8 3.4l.3.6c.7 1.3 1.5 2.6 2.4 3.8.2.3.5.7.7 1 .6.9 1.3 1.9 2 2.8.3.4.5.7.8 1.1.8 1 1.6 2.1 2.5 3.1.1.1.2.3.4.5 1 1.1 2 2.2 3.1 3.3l.9.9c.8.8 1.6 1.6 2.5 2.4.3.3.7.6 1 .9 1 .9 2.1 1.8 3.2 2.7l.3.3c1.2.9 2.4 1.8 3.7 2.7.4.2.7.5 1.1.7 1 .6 1.9 1.3 2.9 1.8.4.2.8.5 1.2.7 1.3.7 2.6 1.5 3.9 2.1.1 0 .1.1.2.1 1.4.7 2.8 1.3 4.3 2 .4.2.8.3 1.3.5 1.1.4 2.2.9 3.3 1.3.4.2.9.3 1.3.5 1.5.5 3.1 1 4.6 1.4 1.2.3 2.3.6 3.5.8.3.1.6.1.9.2 1 .2 2 .4 3.1.6.1 0 .3.1.4.1 1.2.2 2.3.3 3.4.5.3 0 .6.1.9.1 1 .1 1.9.2 2.9.2h.7c1.1.1 2.3.1 3.4.1h4.4c1.1 0 2.2-.1 3.4-.2.2 0 .4 0 .7-.1.9-.1 1.9-.2 2.8-.3.3 0 .6-.1.9-.1h.1c1.5-2 3-4.1 4.4-6.1-60.7 12-89.8-48.1-91.1-50.9z" class="st20"/></g><path fill="#2f4d69" d="M889.1 325.3c0-30.7-32.8-55.9-72.8-55.9H117.1c-40.1 0-72.8 25.1-72.8 55.9s32.8 55.9 72.8 55.9h699.2c40 0 72.8-25.2 72.8-55.9z" opacity=".6"/><path d="M917.5 314c0-33.2-35.1-60.4-78-60.4h-739c-42.9 0-78 27.2-78 60.4s35.1 60.4 78 60.4h739.1c42.8 0 77.9-27.2 77.9-60.4z" class="st13"/><path d="M572.7 286.7H106.5a6.7 6.7 0 0 1 0-13.4h466.2a6.7 6.7 0 0 1 0 13.4z" class="st24" opacity=".1"/><g class="st14"><path d="M640 286h-33.7c-3.3 0-6-2.7-6-6s2.7-6 6-6H640c3.3 0 6 2.7 6 6s-2.7 6-6 6z" class="st24"/></g><path d="M820.6 286.7H674.5a6.7 6.7 0 0 1 0-13.4h146.1a6.7 6.7 0 0 1 0 13.4z" class="st24" opacity=".2"/><defs><path id="SVGID_1_" d="M331.1 418.7H609v277.9H331.1z"/></defs><clipPath id="SVGID_00000109024491031277283090000009154539585597216423_"><use xlink:href="#SVGID_1_" overflow="visible"/></clipPath><g clip-path="url(#SVGID_00000109024491031277283090000009154539585597216423_)"><path d="M470.1 696.5c76.7 0 138.9-62.2 138.9-138.9s-62.2-138.9-138.9-138.9-138.9 62.2-138.9 138.9c-.1 76.7 62.1 138.9 138.9 138.9z" class="st0"/><linearGradient id="SVGID_00000097484997775836816950000004197365076213887675_" x1="519.856" x2="487.079" y1="500.783" y2="320.207" gradientTransform="matrix(1 0 0 -1 0 1002)" gradientUnits="userSpaceOnUse"><stop offset="0" stop-color="#ff496a"/><stop offset="1" stop-color="#e42648"/></linearGradient><path fill="url(#SVGID_00000097484997775836816950000004197365076213887675_)" d="M577.7 470.9c-9.6 1.9-18.8 4.6-26.4 6.3-17.3 3.9-33.4 17.1-36.9 41.3-3.1 21.6 4.1 30.9 1 56.1-5.6 43.9-47.7 59-67.4 68.2-11.4 5.3-39 17.4-60.3 26.6 23.1 17 51.5 27.1 82.4 27.1 76.8 0 138.9-62.2 138.9-138.9 0-32.7-11.3-62.8-30.3-86.5-.3-.1-.6-.1-1-.2z"/><linearGradient id="SVGID_00000080176817658704395120000007640880322789252270_" x1="410.924" x2="483.396" y1="374.164" y2="578.825" gradientTransform="matrix(1 0 0 -1 0 1002)" gradientUnits="userSpaceOnUse"><stop offset=".002" stop-color="#1158f1"/><stop offset="1" stop-color="#119bed"/></linearGradient><path fill="url(#SVGID_00000080176817658704395120000007640880322789252270_)" d="M454.4 537.2c10.7-23.1 6.8-23.2 15-44.9 10.3-27.6 42.1-19.7 50.9-18.5 14.5 2 18.3-3.2 48.9-8.1 1.5-.2 3-.4 4.4-.6-25.4-28.4-62.4-46.3-103.6-46.3-55.3 0-103 32.3-125.4 79 45.9 11.3 95.4 36 109.8 39.4zm-30.3-94.3c4 .6 23.6 25 27.3 87.6 0 0-25.2-6.1-30.6-19-4.5-10.8 1.3-24.9 3.3-68.6zm154.4 27.9c.1.1.2.2.2.3-.3-.1-.7-.1-1.1-.1.4-.1.6-.1.9-.2zm-247.4 86.8c0-11.1 1.3-21.8 3.8-32.2 5 4.2 10.4 8.9 16.1 14.2 36.2 33.6 95.1 60.1 116.5 35.4l.1.1c-3.9 5.2-18.9 21.5-47.5 16.4L375 658.9c-27-25.3-43.9-61.3-43.9-101.3z"/></g></svg>