<svg xmlns="http://www.w3.org/2000/svg" xml:space="preserve" id="Layer_1" x="0" y="0" version="1.1" viewBox="0 0 800 875"><style>.st0{fill:#fff}.st21{fill:#305b61}.st35{fill:#4d9ba4}.st39{fill:#d3f85a;stroke:#d3f85a;stroke-width:1.4315;stroke-linecap:round;stroke-linejoin:round}</style><path d="M398.521 868.555a412.134 412.134 0 0 1-4.003-.038l-1.01-.017a378.09 378.09 0 0 1-4.117-.093l-.871-.024c-1.44-.042-2.885-.095-4.328-.154l-.639-.025a377.738 377.738 0 0 1-4.685-.228l-.271-.014a396.452 396.452 0 0 1-40.342-4.32l-.208-.034a387.75 387.75 0 0 1-4.746-.788l-.32-.057a371.473 371.473 0 0 1-4.646-.833l-.339-.062a383.103 383.103 0 0 1-4.647-.895l-.284-.058a399.843 399.843 0 0 1-4.748-.977l-.191-.042a397.112 397.112 0 0 1-84.454-28.194 396.501 396.501 0 0 1-20.988-10.512 396.102 396.102 0 0 1-44.976-28.28l-.06-.044a398.27 398.27 0 0 1-7.049-5.25l-.081-.062a393.328 393.328 0 0 1-6.989-5.457l-.036-.029a393.189 393.189 0 0 1-33.275-29.862l-.112-.111a396.221 396.221 0 0 1-6.139-6.325l-.205-.217a395.458 395.458 0 0 1-5.982-6.454l-.139-.153a391.96 391.96 0 0 1-7.949-9.061h-.025l-1.434-1.725a423.559 423.559 0 0 1-3.165-3.815l-1.076-1.21v-.109a396.24 396.24 0 0 1-2.257-2.806l-.197-.247-.375-.375-.114-.242a427.982 427.982 0 0 1-2.469-3.148l-.188-.241a383.075 383.075 0 0 1-3.093-4.047l-.332-.332-.137-.29a396.561 396.561 0 0 1-7.632-10.521l-.242-.348a395.713 395.713 0 0 1-10.699-16.138l-.965-.954-.001-.592a391.57 391.57 0 0 1-4.339-7.146l-.259-.435a405.229 405.229 0 0 1-4.933-8.586l-.095-.128-.127-.27c-.846-1.52-1.653-2.99-2.449-4.465l-.051-.093-.062-.096-.067-.143a418.66 418.66 0 0 1-2.681-5.059l-.2-.382a427.307 427.307 0 0 1-2.683-5.249l-.036-.061-.082-.175a423.332 423.332 0 0 1-3.104-6.362l-.846-1.786a393.632 393.632 0 0 1-2.474-5.339l-.579-1.267a400.986 400.986 0 0 1-2.845-6.477l-.658-1.556c-.74-1.745-1.469-3.5-2.185-5.257l-.679-1.669a404.817 404.817 0 0 1-2.58-6.576l-.288-.771a383.76 383.76 0 0 1-2.189-5.926l-.614-1.716a385.366 385.366 0 0 1-2.132-6.145l-.191-.56a398.016 398.016 0 0 1-2.188-6.734l-.473-1.519a410.33 410.33 0 0 1-1.725-5.689l-.371-1.256a391.113 391.113 0 0 1-1.924-6.839l-.251-.943c-.54-2.01-1.062-4.015-1.566-6.022l-.358-1.428a395.206 395.206 0 0 1-3.169-13.857l-.251-1.212a416.62 416.62 0 0 1-1.308-6.607l-.088-.462a381.737 381.737 0 0 1-1.268-7.143l-.141-.859a406.363 406.363 0 0 1-1.014-6.442l-.128-.878a393.875 393.875 0 0 1-1.83-14.365l-.1-.923c-.515-4.842-.942-9.71-1.27-14.468l-.043-.638a399.954 399.954 0 0 1-.418-7.12l-.005-.108a394.356 394.356 0 0 1-.442-14.859l-.005-.449c-.049-4.854-.004-9.819.133-14.745l.01-.381a396.392 396.392 0 0 1 2.837-37.228l.019-.146a397.37 397.37 0 0 1 2.064-14.427v-.054l.044-.234.007-.069.031-.146.078-.477c.306-1.858.625-3.713.957-5.565v-.719l.198-.375c.248-1.367.505-2.732.769-4.096l.038-.198c.296-1.532.61-3.104.934-4.673l.021-.102c.34-1.645.675-3.22 1.02-4.792l.028-.126a392.247 392.247 0 0 1 2.641-11.243l.133-.601.032-.058c.349-1.38.698-2.734 1.055-4.086l.063-.239a402.85 402.85 0 0 1 1.229-4.544l.062-.224c.419-1.511.855-3.047 1.301-4.581l.034-.113h-.001a401.416 401.416 0 0 1 3.152-10.314l.184-.57.071-.368.127-.249c.438-1.349.883-2.695 1.334-4.039l.089-.265a394.013 394.013 0 0 1 1.675-4.869l.178-.508c.542-1.534 1.09-3.054 1.646-4.572l.279-.766c.525-1.423 1.06-2.841 1.6-4.255l.387-1.018a421.83 421.83 0 0 1 1.562-3.982l.481-1.22c.438-1.088.881-2.17 1.327-3.251-14.863-9.342-24.817-22.882-27.571-37.67a45.626 45.626 0 0 1-.624-2.101l-.1-.351a48.765 48.765 0 0 1-.585-2.531l-.17-.864c-.036-.179-.072-.357-.104-.538-.105-.6-.195-1.208-.278-1.818l-.02-.134a47.023 47.023 0 0 1-.207-1.869 123.374 123.374 0 0 1-.153-2.231 49.06 49.06 0 0 1-.045-2.062c0-9.153 2.587-17.94 7.69-26.118a54.157 54.157 0 0 1 1.705-2.572 60.541 60.541 0 0 1 5.978-7.215c1.791-1.854 3.822-3.701 6.037-5.493a73.129 73.129 0 0 1 7.566-5.353 77.278 77.278 0 0 1 6.226-3.46 83.461 83.461 0 0 1 9.05-3.856c9.819-3.521 20.26-5.308 31.03-5.308h3.455c8.255-19.986 21.952-37.081 39.766-49.581 19.104-13.405 41.579-20.491 64.998-20.491 4.428 0 8.92.271 13.413.808 1.176-62.312 52.23-112.637 114.818-112.637 32.387 0 62.979 13.547 84.739 37.35C437.06 28.682 486.85 6.44 539.399 6.44c101.964 0 184.918 82.954 184.918 184.919 0 6.96-.396 13.975-1.18 20.92 8.954.364 17.665 1.981 25.947 4.82a85.27 85.27 0 0 1 9.702 4.011 80.341 80.341 0 0 1 5.655 3.054 73.422 73.422 0 0 1 9.562 6.756 66.959 66.959 0 0 1 3.998 3.643c2.699 2.659 5.089 5.46 7.102 8.323.6.853 1.174 1.719 1.707 2.574 5.101 8.174 7.688 16.961 7.688 26.114 0 .847-.028 1.727-.09 2.769l-.041.631a45.59 45.59 0 0 1-.265 2.685l-.046.309a48.08 48.08 0 0 1-.401 2.437l-.188.979a46.262 46.262 0 0 1-.52 2.174l-.232.848c-.07.26-.141.52-.218.777-.079.264-.163.521-.248.778l-.038.117c-2.754 14.783-12.703 28.318-27.559 37.66.246.593.491 1.187.732 1.779l.75 1.861c.394.98.784 1.958 1.17 2.937l.765 1.971a371.9 371.9 0 0 1 2.89 7.713c.241.665.482 1.33.72 1.996a451.479 451.479 0 0 1 1.694 4.843c.35 1.021.69 2.043 1.032 3.064l.592 1.779c.39 1.188.771 2.382 1.148 3.574l.405 1.267a385.815 385.815 0 0 1 1.5 4.896l.192.656c.417 1.401.827 2.806 1.229 4.211l.449 1.605c.306 1.092.612 2.188.909 3.284.125.456.489 1.833.489 1.833.272 1.024.544 2.052.81 3.08l.47 1.852c.268 1.062.519 2.071.765 3.081l.461 1.917c.243 1.02.481 2.038.716 3.058l.428 1.871c.238 1.062.47 2.124.698 3.186l.374 1.732c.246 1.163.483 2.328.719 3.491l.289 1.43c.303 1.525.595 3.056.879 4.586l.064.339c.31 1.675.608 3.364.898 5.054l.1.601c.245 1.452.483 2.896.712 4.341l.21 1.372c.184 1.194.365 2.392.539 3.589l.224 1.592c.159 1.129.315 2.259.464 3.39l.215 1.662c.143 1.12.28 2.235.411 3.351l.193 1.649c.131 1.145.255 2.286.375 3.428l.161 1.542c.124 1.221.24 2.44.353 3.658l.12 1.296c.126 1.429.243 2.853.354 4.275l.054.67c.257 3.385.472 6.817.64 10.201l.014.298c.076 1.562.143 3.121.2 4.678l.032.977c.047 1.335.087 2.673.119 4.011l.025 1.227c.027 1.252.048 2.518.063 3.782l.012 1.281c.01 1.264.015 2.522.013 3.779l-.003 1.24c-.006 1.305-.02 2.61-.038 3.916l-.016 1.048a390.294 390.294 0 0 1-.1 4.339l-.016.604a394.964 394.964 0 0 1-1.127 20.251l-.048.567a392.1 392.1 0 0 1-.39 4.399l-.077.801a414.491 414.491 0 0 1-.427 4.2l-.092.846a383.624 383.624 0 0 1-.484 4.223l-.091.752a377.295 377.295 0 0 1-.572 4.475l-.057.436a398.605 398.605 0 0 1-4.205 25.067l-.022.113a392.823 392.823 0 0 1-.993 4.777l-.098.45a370.524 370.524 0 0 1-.993 4.487l-.103.454a401.237 401.237 0 0 1-1.078 4.586l-.069.291a398.563 398.563 0 0 1-9.906 34.154l-.062.182a379.216 379.216 0 0 1-1.608 4.639l-.062.174a397.69 397.69 0 0 1-23.821 54.066l-.242.453a398.265 398.265 0 0 1-11.153 19.508v.598l-.945.946a394.752 394.752 0 0 1-3.345 5.329l-.979 1.523a397.929 397.929 0 0 1-3.683 5.61l-.263.437-.086.081a394.4 394.4 0 0 1-8.498 12.142l-.061.084a396.973 396.973 0 0 1-9.652 12.711l-.117.235-.336.336-.039.049a416.78 416.78 0 0 1-2.96 3.674l-.81.98c-.783.954-1.569 1.907-2.362 2.855l-1.1 1.302c-.706.837-1.413 1.671-2.125 2.499-.407.475-.819.949-1.231 1.423-.677.782-1.363 1.569-2.055 2.354l-1.279 1.444c-.693.778-1.387 1.551-2.085 2.321a326.678 326.678 0 0 1-3.458 3.773l-1.224 1.317a445.84 445.84 0 0 1-2.423 2.559l-1.021 1.072a400.228 400.228 0 0 1-7.074 7.172l-.959.937a355.63 355.63 0 0 1-2.636 2.567l-1.293 1.234a298.034 298.034 0 0 1-3.786 3.564 414.542 414.542 0 0 1-3.755 3.445c-.771.696-1.542 1.39-2.315 2.078-.511.455-.994.886-1.479 1.313a424 424 0 0 1-2.401 2.097l-1.417 1.229c-.888.763-1.778 1.517-2.671 2.269l-1.188 1.005a391.653 391.653 0 0 1-7.894 6.433l-1.184.93a377.48 377.48 0 0 1-2.822 2.206l-1.503 1.15c-.85.65-1.7 1.298-2.555 1.941-.549.412-1.094.818-1.64 1.223-.822.613-1.651 1.226-2.484 1.835-.56.41-1.122.818-1.685 1.227-.837.605-1.674 1.205-2.514 1.804-.559.397-1.117.795-1.68 1.191-.871.612-1.743 1.218-2.615 1.822l-1.618 1.117a372.01 372.01 0 0 1-2.884 1.952l-1.379.928a401.36 401.36 0 0 1-4.156 2.73l-.213.138c-1.384.896-2.84 1.823-4.304 2.743l-1.394.865c-1 .624-2.003 1.246-3.01 1.86l-1.704 1.03a366.275 366.275 0 0 1-7.281 4.291 351.505 351.505 0 0 1-4.598 2.602c-.617.344-1.238.691-1.863 1.034-.939.518-1.887 1.031-2.836 1.543 0 0-1.323.717-1.781.961-1.046.559-2.1 1.111-3.155 1.662l-1.495.782a400.107 400.107 0 0 1-9.446 4.728l-1.543.734c-1.065.512-2.14 1.026-3.217 1.53l-1.991.918c-.929.429-1.858.857-2.789 1.278l-2.232.996c-.856.381-1.712.762-2.569 1.136-.593.259-2.043.881-2.043.881-.935.4-1.849.793-2.766 1.178-.691.292-1.392.581-2.09.87-.912.378-1.824.753-2.737 1.123-.689.28-1.379.555-2.067.83-.957.381-1.871.742-2.787 1.1-.697.272-1.397.542-2.096.811a485.779 485.779 0 0 1-4.859 1.828c-.94.347-1.88.688-2.82 1.025 0 0-1.412.508-2.05.733-.955.339-1.916.671-2.878 1.004l-1.995.686c-.987.335-1.973.661-2.959.986l-1.921.634c-1.074.349-2.15.689-3.228 1.027 0 0-1.269.403-1.668.527-1.233.383-2.476.758-3.719 1.13l-1.177.355a394.138 394.138 0 0 1-9.948 2.803l-.796.208c-1.373.365-2.757.727-4.143 1.078l-1.39.345a392.15 392.15 0 0 1-3.558.876l-1.618.381c-1.12.263-2.235.523-3.352.776l-1.719.381a378.6 378.6 0 0 1-3.255.709l-1.771.37c-1.074.223-2.149.443-3.225.657l-1.772.348c-1.08.209-2.159.414-3.239.615l-1.751.32c-1.093.198-2.186.39-3.277.578l-1.706.29c-1.124.188-2.244.369-3.364.547l-1.62.255c-1.165.18-2.33.352-3.496.521l-1.479.214c-1.247.176-2.489.343-3.731.506l-1.246.165c-1.376.176-2.751.342-4.126.503l-.858.103a393.888 393.888 0 0 1-20.357 1.805l-.442-4.482.28 4.491c-1.617.101-3.233.19-4.851.271l-.655.029c-1.459.07-2.91.133-4.361.187l-.92.03c-1.361.047-2.733.088-4.103.121l-1.041.021c-1.328.028-2.663.052-3.998.066l-1.077.009c-1.131.009-2.261.014-3.392.014h-1.656z" class="st0"/><path d="M539.401 10.941c99.642 0 180.418 80.776 180.418 180.418 0 8.602-.611 17.06-1.776 25.34h1.173c10.093 0 19.702 1.672 28.412 4.656 1.337.458 2.651.95 3.944 1.469a78.693 78.693 0 0 1 5.238 2.327 75.245 75.245 0 0 1 5.336 2.882 68.549 68.549 0 0 1 8.97 6.337 62.138 62.138 0 0 1 3.729 3.396c2.454 2.418 4.668 4.989 6.579 7.707a52.298 52.298 0 0 1 1.568 2.365c4.488 7.193 7.008 15.247 7.008 23.736 0 .84-.034 1.674-.083 2.505a42.463 42.463 0 0 1-.276 2.999c-.015.114-.035.226-.051.34-.099.717-.218 1.43-.353 2.138-.036.188-.07.377-.108.565-.023.113-.041.226-.065.339a43.395 43.395 0 0 1-.467 1.955c-.048.185-.103.369-.154.554-.085.309-.165.619-.257.926-.097.323-.205.642-.309.964-.014.042-.025.086-.039.128-2.719 15.13-13.499 28.322-28.846 36.874l.267.629c.218.515.429 1.032.645 1.548.442 1.058.883 2.116 1.315 3.175.25.614.495 1.229.742 1.843.389.967.776 1.934 1.156 2.903.255.648.505 1.297.756 1.946a389.542 389.542 0 0 1 1.822 4.805 382.712 382.712 0 0 1 2.757 7.666c.222.638.445 1.277.664 1.915.346 1.011.684 2.023 1.021 3.035.195.584.392 1.168.584 1.753.386 1.177.762 2.355 1.136 3.534.133.419.27.838.402 1.258a389.16 389.16 0 0 1 1.482 4.836c.065.216.126.433.19.65.412 1.387.818 2.774 1.214 4.163.15.527.295 1.055.443 1.582.304 1.083.606 2.166.901 3.251.163.602.322 1.206.483 1.809.27 1.016.539 2.031.8 3.048.161.627.319 1.255.478 1.882a409.375 409.375 0 0 1 1.2 4.889 401.22 401.22 0 0 1 1.82 8.019c.124.571.249 1.143.37 1.715.243 1.15.478 2.301.71 3.452.095.47.193.94.286 1.41.299 1.511.588 3.022.869 4.534l.062.323c.308 1.669.605 3.339.89 5.009.034.2.065.4.099.599.242 1.428.477 2.856.703 4.284.071.451.138.902.208 1.354.183 1.183.362 2.367.533 3.551.076.523.148 1.046.221 1.57.157 1.118.311 2.235.458 3.353.072.549.142 1.098.212 1.647a414.04 414.04 0 0 1 .598 4.942c.129 1.128.252 2.255.371 3.383.054.51.108 1.019.16 1.529.122 1.205.237 2.409.347 3.614.039.428.081.856.119 1.284.125 1.408.24 2.817.349 4.225.017.22.037.44.053.66.255 3.363.466 6.725.633 10.086l.013.298c.075 1.54.141 3.081.198 4.62.012.321.021.642.032.963.045 1.322.086 2.644.118 3.965.01.402.017.804.026 1.206a426.086 426.086 0 0 1 .074 5.018c.01 1.244.014 2.488.012 3.731-.001.408-.001.817-.003 1.225a384.585 384.585 0 0 1-.038 3.874c-.005.345-.009.69-.015 1.034a408.871 408.871 0 0 1-.098 4.291l-.016.596a388.943 388.943 0 0 1-1.114 20.019l-.047.555a395.4 395.4 0 0 1-.385 4.355l-.077.792a384.394 384.394 0 0 1-.992 9.162l-.089.744c-.18 1.475-.369 2.949-.566 4.421l-.058.439a391.062 391.062 0 0 1-4.156 24.776l-.038.185a382.898 382.898 0 0 1-.966 4.648l-.092.427a402.557 402.557 0 0 1-2.153 9.44l-.066.276a392.505 392.505 0 0 1-9.797 33.778l-.061.18c-.52 1.531-1.05 3.059-1.59 4.584l-.058.164a391.924 391.924 0 0 1-23.555 53.464l-.243.456-.001.001a390.813 390.813 0 0 1-11.301 19.734l-.002.003-.377.617-.001.002a388.456 388.456 0 0 1-3.838 6.115l-.45.699-.002.003a388.564 388.564 0 0 1-3.957 6.035l-.005.007-.149.22a387.21 387.21 0 0 1-8.534 12.202l-.001.001-.06.082a387.256 387.256 0 0 1-9.826 12.924l-.004.006a.012.012 0 0 1-.005.005l-.001.002a382.79 382.79 0 0 1-3.12 3.874c-.264.324-.532.645-.797.968-.775.944-1.553 1.887-2.337 2.824-.361.431-.726.86-1.089 1.29-.696.824-1.394 1.648-2.098 2.467-.402.469-.807.935-1.212 1.401a346.49 346.49 0 0 1-3.304 3.761 369.802 369.802 0 0 1-5.478 6.024c-.403.434-.804.869-1.209 1.302-.794.847-1.594 1.689-2.396 2.53-.337.353-.671.708-1.009 1.06a389.179 389.179 0 0 1-6.992 7.089c-.314.31-.632.617-.947.926-.865.849-1.731 1.695-2.605 2.536-.425.409-.853.814-1.28 1.221-.772.737-1.546 1.472-2.325 2.203-.469.441-.942.879-1.414 1.317a343.738 343.738 0 0 1-3.717 3.409 449.597 449.597 0 0 1-3.745 3.348c-.788.695-1.582 1.386-2.377 2.076-.468.406-.934.813-1.405 1.217-.874.751-1.754 1.496-2.636 2.24-.394.332-.785.667-1.18.998a387.93 387.93 0 0 1-7.797 6.355c-.388.308-.78.612-1.169.918a400.53 400.53 0 0 1-2.791 2.181c-.494.381-.991.759-1.487 1.139-.84.643-1.681 1.284-2.527 1.92-.536.404-1.076.805-1.615 1.206a371.425 371.425 0 0 1-6.61 4.81c-.553.394-1.106.787-1.661 1.178-.858.604-1.721 1.204-2.586 1.802-.531.368-1.061.737-1.595 1.102-.947.648-1.899 1.29-2.853 1.931-.456.306-.909.615-1.366.92a391.361 391.361 0 0 1-4.21 2.765l-.046.03c-1.431.926-2.87 1.842-4.316 2.75-.458.288-.92.571-1.38.857-.989.616-1.978 1.23-2.974 1.838-.56.342-1.124.68-1.687 1.019-.907.547-1.815 1.094-2.728 1.634-.598.355-1.199.706-1.8 1.058a412.054 412.054 0 0 1-4.517 2.606c-.896.509-1.795 1.014-2.696 1.516-.613.342-1.225.683-1.84 1.022-.932.513-1.869 1.021-2.806 1.527-.587.317-1.172.636-1.761.95a400.535 400.535 0 0 1-3.119 1.642c-.495.258-.986.52-1.483.776a391.512 391.512 0 0 1-9.341 4.674c-.505.244-1.011.481-1.517.723-1.062.508-2.124 1.017-3.188 1.515-.611.286-1.223.564-1.835.847-.963.445-1.927.89-2.892 1.326-.649.293-1.3.581-1.95.87-.931.415-1.862.829-2.794 1.236-.673.293-1.347.582-2.021.871-.91.391-1.82.781-2.732 1.164-.689.29-1.379.575-2.069.861a349.965 349.965 0 0 1-4.791 1.947 413.176 413.176 0 0 1-4.791 1.874 366.91 366.91 0 0 1-4.803 1.807c-.927.342-1.856.678-2.784 1.012-.676.243-1.351.487-2.027.726-.948.335-1.897.664-2.847.992-.658.227-1.316.456-1.974.679-.986.334-1.974.661-2.962.987-.62.205-1.239.412-1.859.613-1.061.344-2.124.68-3.187 1.015-.549.173-1.098.35-1.647.521-1.226.38-2.453.75-3.68 1.118-.387.116-.774.236-1.161.351a388.626 388.626 0 0 1-9.838 2.772c-.259.069-.519.135-.778.204a381.11 381.11 0 0 1-4.105 1.068c-.458.116-.917.227-1.375.341-1.172.293-2.345.584-3.518.865-.533.128-1.067.251-1.6.376-1.103.26-2.206.518-3.311.767-.565.128-1.131.251-1.696.376a362.58 362.58 0 0 1-3.22.701c-.583.124-1.167.244-1.75.365-1.063.221-2.126.438-3.189.65-.583.116-1.167.229-1.75.343a354.168 354.168 0 0 1-4.935.926 407.295 407.295 0 0 1-4.928.858c-1.107.185-2.215.365-3.323.54-.533.084-1.066.17-1.599.252-1.153.178-2.306.348-3.46.515-.488.071-.976.143-1.464.212-1.228.173-2.457.338-3.685.499-.411.054-.821.11-1.232.163-1.36.174-2.72.338-4.08.498-.282.033-.563.069-.845.101a388.23 388.23 0 0 1-20.125 1.784l-.162.009c-1.598.099-3.195.188-4.792.267-.218.011-.437.019-.655.03-1.435.069-2.869.131-4.304.183l-.902.03c-1.355.047-2.709.087-4.063.12l-1.023.021c-1.32.028-2.639.051-3.958.065l-1.064.01c-1.091.009-2.182.014-3.273.014l-.653-.001a401.557 401.557 0 0 1-10.094-.15l-.857-.024a380.845 380.845 0 0 1-4.281-.153c-.213-.009-.427-.016-.64-.026a395.054 395.054 0 0 1-4.623-.225l-.285-.015a390.248 390.248 0 0 1-39.866-4.27l-.199-.032a393.388 393.388 0 0 1-4.7-.781l-.299-.052a396.528 396.528 0 0 1-4.608-.826l-.326-.061a377.622 377.622 0 0 1-4.605-.887l-.277-.055a376.034 376.034 0 0 1-4.698-.968l-.145-.031a392.242 392.242 0 0 1-83.541-27.885 390.136 390.136 0 0 1-20.748-10.392h-.002a389.837 389.837 0 0 1-44.462-27.958l-.04-.029a385.602 385.602 0 0 1-6.987-5.204l-.112-.085a388.5 388.5 0 0 1-6.878-5.37l-.035-.029a387.177 387.177 0 0 1-32.893-29.519l-.109-.11a385.688 385.688 0 0 1-6.071-6.254l-.199-.21a389.676 389.676 0 0 1-5.916-6.383l-.165-.183a387.907 387.907 0 0 1-9.17-10.507l-.002-.003-.103-.123a407.072 407.072 0 0 1-3.183-3.837l-.001-.002-.094-.115a390.213 390.213 0 0 1-3.167-3.924l-.008-.01-.168-.212-.152-.191-.004-.005a383.19 383.19 0 0 1-2.934-3.74l-.001-.002-.03-.038c-1.084-1.4-2.16-2.808-3.227-4.226l-.004-.005-.133-.176-.001-.002a386.437 386.437 0 0 1-7.73-10.653l-.01-.015a391.82 391.82 0 0 1-5.618-8.248l-.006-.009a390.602 390.602 0 0 1-5.403-8.385l-.006-.009-.002-.003a393.238 393.238 0 0 1-5.217-8.571l-.005-.009c-1.706-2.885-3.38-5.8-5.02-8.743l-.004-.007-.026-.047a390.056 390.056 0 0 1-2.591-4.727l-.003-.005-.001-.002a409.506 409.506 0 0 1-2.702-5.097l-.208-.397a385.834 385.834 0 0 1-2.701-5.289l-.013-.025-.008-.016a392.425 392.425 0 0 1-3.105-6.364c-.281-.588-.559-1.177-.837-1.766a397.615 397.615 0 0 1-2.445-5.276c-.191-.421-.387-.841-.577-1.262a386.527 386.527 0 0 1-2.809-6.395c-.219-.51-.432-1.022-.649-1.533a394.211 394.211 0 0 1-2.162-5.204c-.224-.549-.449-1.098-.67-1.648a390.485 390.485 0 0 1-2.551-6.503c-.096-.253-.188-.507-.284-.76a398.097 398.097 0 0 1-2.773-7.558 393.166 393.166 0 0 1-2.107-6.073c-.06-.179-.124-.358-.184-.537a392.657 392.657 0 0 1-2.167-6.674c-.158-.501-.312-1.002-.468-1.504a381.658 381.658 0 0 1-1.704-5.624c-.122-.413-.246-.825-.366-1.238a384.662 384.662 0 0 1-1.902-6.761c-.085-.312-.165-.624-.249-.937a396.876 396.876 0 0 1-1.547-5.948c-.118-.468-.237-.936-.353-1.405a384.88 384.88 0 0 1-3.134-13.707l-.268-1.294a389.051 389.051 0 0 1-1.273-6.436l-.084-.435c-.442-2.359-.859-4.72-1.256-7.082l-.139-.849a375.88 375.88 0 0 1-1.001-6.369c-.043-.292-.089-.583-.131-.875a389.81 389.81 0 0 1-1.809-14.194l-.098-.912a387.513 387.513 0 0 1-1.255-14.302l-.042-.624a387.375 387.375 0 0 1-.413-7.046l-.006-.108a387.785 387.785 0 0 1-.442-15.118c-.048-4.87-.004-9.734.131-14.591l.01-.36a389.455 389.455 0 0 1 2.805-36.82l.017-.139a391.232 391.232 0 0 1 2.099-14.618l.001-.005.005-.031a399.499 399.499 0 0 1 1.108-6.46l.003-.019.001-.008c.285-1.578.579-3.154.883-4.727l.03-.156a387.9 387.9 0 0 1 .932-4.661l.034-.167a391.567 391.567 0 0 1 1.018-4.777 393.77 393.77 0 0 1 2.622-11.163l.013-.054.003-.011c.385-1.535.78-3.068 1.183-4.598l.051-.195c.4-1.513.809-3.024 1.227-4.533l.054-.194c.422-1.521.854-3.041 1.294-4.557l.033-.113a392.842 392.842 0 0 1 3.142-10.273c.08-.248.158-.497.239-.745l.004-.013a413.999 413.999 0 0 1 3.174-9.411l.178-.51a378.772 378.772 0 0 1 1.625-4.513c.092-.252.183-.505.276-.757a416.671 416.671 0 0 1 1.581-4.206c.128-.336.254-.672.383-1.008a401.017 401.017 0 0 1 1.544-3.936c.16-.402.316-.806.477-1.208a376.933 376.933 0 0 1 1.571-3.841c.169-.408.333-.818.503-1.226.242-.579.491-1.156.736-1.734-15.352-8.552-26.136-21.746-28.856-36.879l-.023-.078a44.09 44.09 0 0 1-.632-2.11c-.023-.086-.051-.171-.073-.257-.005-.021-.012-.042-.018-.062a42.649 42.649 0 0 1-.647-2.899c-.042-.222-.092-.443-.131-.667a42.608 42.608 0 0 1-.251-1.645l-.02-.13a44.667 44.667 0 0 1-.185-1.684c-.023-.257-.039-.515-.058-.772a41.072 41.072 0 0 1-.04-.606c-.013-.215-.033-.429-.042-.645a42.53 42.53 0 0 1-.04-1.859c0-8.488 2.52-16.543 7.008-23.736a52.298 52.298 0 0 1 1.568-2.365 55.874 55.874 0 0 1 5.534-6.678 62.474 62.474 0 0 1 5.63-5.121 68.351 68.351 0 0 1 7.1-5.023 74.142 74.142 0 0 1 5.87-3.261 78.45 78.45 0 0 1 8.559-3.647c8.998-3.228 18.993-5.045 29.514-5.045h6.51c15.626-40.963 55.257-70.072 101.709-70.072 6.124 0 12.121.531 17.969 1.503-.027-.998-.076-1.99-.076-2.994 0-60.938 49.4-110.339 110.339-110.339 34.055 0 64.496 15.437 84.736 39.684 33.088-38.859 82.373-63.525 137.426-63.525m0-9c-52.206 0-101.75 21.427-137.478 59.13-22.345-22.532-52.674-35.273-84.69-35.273-31.876 0-61.845 12.413-84.385 34.953-20.846 20.846-33.031 48.049-34.744 77.236-3.049-.239-6.089-.36-9.102-.36-24.349 0-47.719 7.368-67.584 21.308-17.686 12.411-31.469 29.18-40.148 48.764h-.487c-11.292 0-22.244 1.875-32.553 5.573a87.676 87.676 0 0 0-12.242 5.473 82.32 82.32 0 0 0-3.875 2.247 77.564 77.564 0 0 0-8.033 5.685 71.632 71.632 0 0 0-6.442 5.864 65.142 65.142 0 0 0-6.424 7.755 60.902 60.902 0 0 0-1.841 2.777C3.895 251.852 1 261.707 1 271.575c0 .75.016 1.507.049 2.25.01.217.024.428.039.64l.01.135c.015.253.031.5.049.747l.012.176c.018.25.036.501.059.751.067.737.141 1.404.224 2.041.013.095.024.174.036.25.092.681.189 1.309.292 1.899.037.216.081.435.126.655l.031.153a52.366 52.366 0 0 0 .783 3.497l.034.131.027.093.062.218c.175.641.366 1.29.581 1.97 2.85 14.834 12.297 28.437 26.384 38.277l-.242.612-.19.483a424.913 424.913 0 0 0-1.579 4.024l-.244.642-.15.394a405.428 405.428 0 0 0-1.616 4.297l-.17.467-.113.311a406.473 406.473 0 0 0-1.661 4.614l-.116.333-.068.196a395.522 395.522 0 0 0-1.693 4.92l-.044.131-.042.127a403.861 403.861 0 0 0-1.452 4.403l-.086.258-.014.054-.071.22-.089.278-.001.002-.025.079a402.206 402.206 0 0 0-3.188 10.43l-.029.101a400.353 400.353 0 0 0-1.328 4.675l-.016.059-.043.156a402.058 402.058 0 0 0-1.251 4.621l-.031.116-.019.072a419.151 419.151 0 0 0-1.213 4.714l-.026.103-.003.014a402.873 402.873 0 0 0-2.67 11.368l8.771 2.018-8.787-1.947c-.357 1.628-.696 3.22-1.026 4.815l-.019.095-.013.063c-.33 1.6-.648 3.19-.956 4.781l-.02.106-.01.052c-.305 1.58-.601 3.16-.887 4.743l-.024.12-.016.105a410.33 410.33 0 0 0-1.104 6.434l-.001.003-.009.054-.008.05-.005.033a400.988 400.988 0 0 0-2.142 14.923l-.021.166a400.404 400.404 0 0 0-2.867 37.646l-.002.062-.009.32a398.87 398.87 0 0 0-.133 14.914l.004.343.001.107c.055 5.026.206 10.083.447 15.019l.005.099c.115 2.326.257 4.751.423 7.221l.014.204.029.439c.334 4.836.766 9.76 1.284 14.628l.087.805.014.126c.53 4.87 1.153 9.757 1.851 14.526l.081.541.053.354c.325 2.182.669 4.375 1.025 6.518l.056.34.087.528c.417 2.482.85 4.919 1.286 7.247l.057.295.029.151a389.15 389.15 0 0 0 1.302 6.585l.274 1.322c.981 4.681 2.06 9.4 3.207 14.027.097.392.197.787.296 1.182l.065.258c.52 2.066 1.053 4.114 1.583 6.084l.093.35.162.609a397.06 397.06 0 0 0 1.946 6.917c.077.266.157.532.236.798l.14.47c.56 1.899 1.146 3.835 1.743 5.752l.139.447a400.652 400.652 0 0 0 2.558 7.919l.125.365.065.191a385.468 385.468 0 0 0 2.775 7.943 400 400 0 0 0 2.216 5.998l.109.291.182.487a397.99 397.99 0 0 0 2.609 6.652c.163.406.329.812.495 1.22l.191.467a405.42 405.42 0 0 0 2.211 5.322l.23.545c.144.341.288.682.434 1.023.957 2.23 1.923 4.431 2.873 6.54.12.265.24.529.361.792l.229.5c.809 1.78 1.65 3.596 2.5 5.395l.04.085a404.023 404.023 0 0 0 3.964 8.173l.055.114.036.067c.806 1.61 1.696 3.353 2.721 5.325l.131.25.084.16a393.438 393.438 0 0 0 2.698 5.09l.031.062.065.117.023.043.004.006a401.183 401.183 0 0 0 2.596 4.733l.021.037.054.097.005.008a405.378 405.378 0 0 0 5.005 8.719l.008.013.073.123.075.127.001.002a400.431 400.431 0 0 0 5.036 8.279l.171.341.262.35a402.803 402.803 0 0 0 5.315 8.241l.01.015.015.022a406.188 406.188 0 0 0 5.727 8.409l.02.029.027.038.004.006a401.624 401.624 0 0 0 7.736 10.668l.004.005.137.182.047.07.161.205a396.686 396.686 0 0 0 3.232 4.231l.005.007.043.056a417.692 417.692 0 0 0 3.001 3.826l.118.149.043.064.224.271a418.448 418.448 0 0 0 3.076 3.812l.259.37.243.243a391.92 391.92 0 0 0 2.668 3.216l.004.007.409.486a396.612 396.612 0 0 0 9.383 10.751l.05.055.124.137a396.37 396.37 0 0 0 6.049 6.527l.137.145.063.067a401.002 401.002 0 0 0 6.215 6.403l.095.095a397.92 397.92 0 0 0 33.659 30.21l.016.013a397.105 397.105 0 0 0 7.073 5.523l.042.032.075.057a401.425 401.425 0 0 0 7.146 5.323l.027.019.039.028a400.203 400.203 0 0 0 44.935 28.3l.004.003.526.283a402.408 402.408 0 0 0 21.225 10.631 401.819 401.819 0 0 0 85.458 28.525l.105.022c1.642.349 3.244.679 4.848.999l.283.056c1.569.312 3.14.615 4.713.908l.329.062c1.575.292 3.146.574 4.719.846l.3.052c1.606.277 3.209.543 4.813.8l.175.028a401.323 401.323 0 0 0 40.813 4.373l.182.01.113.006c1.572.086 3.149.163 4.726.23l.402.016.246.01c1.466.06 2.926.113 4.386.156l.534.015.336.009c1.395.039 2.785.07 4.175.094l1.018.016c1.353.02 2.703.033 4.054.039l1.09.004.666.001c1.116 0 2.231-.005 3.347-.014l.161-.001.931-.008a422.45 422.45 0 0 0 4.048-.066l.313-.006.73-.016a382.8 382.8 0 0 0 4.164-.123l.345-.011.575-.019c1.469-.054 2.937-.117 4.405-.188l.263-.012.41-.019c1.632-.081 3.267-.172 4.902-.273l.123-.007a398.56 398.56 0 0 0 20.635-1.828l.516-.062.348-.042c1.394-.164 2.785-.332 4.176-.51l.795-.105.468-.062a386.618 386.618 0 0 0 4.827-.663l.44-.064a280.127 280.127 0 0 0 4.861-.735l.316-.05a406.826 406.826 0 0 0 5.126-.846 426.35 426.35 0 0 0 5.085-.908 388.221 388.221 0 0 0 8.334-1.639l.406-.084c.461-.096.922-.191 1.382-.289a393.26 393.26 0 0 0 3.296-.718l.494-.109c.415-.091.83-.183 1.245-.277a383.9 383.9 0 0 0 3.386-.785l.516-.121c.373-.087.746-.174 1.119-.264 1.202-.288 2.403-.586 3.603-.886l.511-.126c.298-.073.597-.147.895-.223 1.4-.355 2.8-.721 4.199-1.093l.31-.081.483-.126a396.937 396.937 0 0 0 10.069-2.837c.243-.072.484-.145.725-.219l.465-.141a405.2 405.2 0 0 0 3.764-1.143c.362-.112.723-.227 1.085-.342l.6-.19a234.467 234.467 0 0 0 4.602-1.48l.562-.186c1.01-.333 2.02-.668 3.03-1.01.538-.182 1.074-.368 1.61-.553l.411-.142c.97-.335 1.941-.671 2.911-1.014.635-.225 1.27-.453 1.904-.681l.17-.061a389.738 389.738 0 0 0 17.565-6.793c.704-.291 1.411-.584 2.118-.881.929-.39 1.86-.789 2.791-1.189l.407-.175c.554-.238 1.108-.475 1.661-.716.954-.416 1.906-.84 2.858-1.264l.52-.231c.492-.219.984-.437 1.475-.659.951-.43 1.902-.869 2.852-1.307l.106-.049.634-.292c.414-.19.829-.381 1.243-.574 1.04-.487 2.079-.984 3.118-1.481l.142-.068.596-.284c.318-.151.636-.302.953-.455a401.797 401.797 0 0 0 9.554-4.781c.32-.165.639-.333.957-.501l.559-.293a401.173 401.173 0 0 0 3.191-1.68c.448-.239.896-.481 1.344-.724l.459-.248c.957-.517 1.915-1.037 2.869-1.561.603-.332 1.204-.667 1.804-1.002l.078-.043a408.455 408.455 0 0 0 4.649-2.632c.913-.525 1.823-1.054 2.73-1.585l.078-.046a338.682 338.682 0 0 0 4.552-2.707l.493-.297c.412-.248.824-.496 1.234-.746 1.018-.622 2.031-1.25 3.042-1.88l.513-.318c.3-.186.6-.371.898-.559 1.559-.98 3.003-1.9 4.414-2.813l.045-.029.037-.025a393.936 393.936 0 0 0 4.272-2.806c.297-.198.595-.399.892-.6l.505-.34c.976-.656 1.951-1.313 2.92-1.976.394-.27.79-.544 1.186-.818l.445-.308c.885-.612 1.768-1.225 2.646-1.844.553-.389 1.103-.781 1.654-1.173l.046-.033a389.362 389.362 0 0 0 6.763-4.922l.158-.118a322.442 322.442 0 0 0 4.081-3.081l.445-.34c.359-.274.717-.547 1.074-.823.959-.741 1.908-1.486 2.856-2.232l.459-.36c.246-.193.493-.385.738-.58a401.896 401.896 0 0 0 7.978-6.502c.258-.216.514-.433.77-.651l.438-.371c.902-.761 1.803-1.523 2.697-2.292.343-.294.684-.591 1.025-.887l.411-.357c.814-.706 1.626-1.413 2.432-2.124.501-.442.998-.885 1.496-1.328a378.189 378.189 0 0 0 6.14-5.587l.126-.117c.441-.41.882-.82 1.321-1.231.798-.749 1.59-1.502 2.38-2.256l.391-.373a250.869 250.869 0 0 0 3.583-3.471l.369-.36c.201-.196.402-.391.601-.589a398.902 398.902 0 0 0 7.153-7.252l.638-.669.393-.413a394.93 394.93 0 0 0 2.453-2.589c.305-.326.607-.652.909-.978l.331-.357a418.02 418.02 0 0 0 2.203-2.389 416.35 416.35 0 0 0 4.698-5.238c.698-.791 1.392-1.587 2.084-2.385l.055-.064c.396-.456.792-.912 1.185-1.37.719-.837 1.433-1.679 2.146-2.523l.353-.417c.254-.3.508-.6.76-.901.804-.961 1.6-1.925 2.393-2.891l.318-.385c.167-.202.334-.403.499-.606a405.94 405.94 0 0 0 2.871-3.56l.011-.011.255-.322.591-.709.05-.101a400.976 400.976 0 0 0 9.122-12.009l.003-.003.372-.511.048-.066.039-.054a398.01 398.01 0 0 0 8.671-12.4l.016-.021.142-.212.166-.246.009-.016a394.1 394.1 0 0 0 3.69-5.627l.087-.114.188-.312.113-.176.27-.42a406.314 406.314 0 0 0 3.81-6.067l.001-.002.118-.193.008-.013.198-.322.005-.009.025-.04.15-.246.202-.33.002-.004a400.873 400.873 0 0 0 9.994-17.327l.138-.069 1.289-2.578.19-.357a401.973 401.973 0 0 0 24.094-54.689l.063-.177c.548-1.55 1.091-3.113 1.623-4.68l.032-.095.027-.08a402.893 402.893 0 0 0 10.024-34.561l.039-.162.028-.116c.374-1.549.737-3.096 1.091-4.645l.08-.352.024-.105a378.69 378.69 0 0 0 1.009-4.56l.042-.193.052-.242c.339-1.584.669-3.169.988-4.756l.013-.063.023-.113a402.068 402.068 0 0 0 4.254-25.358l.034-.256.025-.188c.202-1.511.395-3.018.579-4.527l.067-.553.025-.211c.171-1.418.334-2.84.489-4.264l.008-.074.084-.78c.152-1.418.296-2.835.432-4.253l.025-.254.054-.558c.14-1.484.271-2.969.394-4.455l.018-.214.03-.358c.554-6.794.937-13.685 1.14-20.478l.01-.376.006-.234c.041-1.463.076-2.927.101-4.391l.01-.692.005-.366c.019-1.32.033-2.642.039-3.964l.003-1.021v-.228c.002-1.276-.003-2.548-.013-3.82l-.012-1.3a409.824 409.824 0 0 0-.063-3.835l-.007-.344-.019-.887a421.09 421.09 0 0 0-.12-4.059l-.013-.388-.02-.598a394.883 394.883 0 0 0-.203-4.727l-.004-.098-.009-.201a397.446 397.446 0 0 0-.648-10.325l-.033-.415-.021-.258c-.112-1.443-.23-2.884-.358-4.325l-.076-.828-.045-.484a409.87 409.87 0 0 0-.356-3.7c-.043-.426-.088-.849-.133-1.273l-.031-.292a410.99 410.99 0 0 0-.574-5.134 421.998 421.998 0 0 0-.416-3.383l-.015-.113c-.067-.524-.134-1.048-.203-1.571a387.775 387.775 0 0 0-.469-3.432l-.064-.456c-.054-.384-.107-.769-.163-1.153a430.73 430.73 0 0 0-.545-3.631l-.077-.501-.136-.887c-.23-1.459-.471-2.921-.718-4.382l-.036-.22-.066-.397a399.95 399.95 0 0 0-.91-5.122l-.045-.239-.017-.091a390.983 390.983 0 0 0-1.073-5.553l-.108-.531a451.99 451.99 0 0 0-.726-3.533c-.091-.428-.183-.855-.276-1.282l-.102-.473a304.244 304.244 0 0 0-1.139-5.11 374.334 374.334 0 0 0-1.952-8.097l-.02-.08c-.155-.615-.31-1.23-.468-1.844a408.07 408.07 0 0 0-.819-3.12l-.135-.507c-.119-.448-.238-.897-.359-1.344a411.96 411.96 0 0 0-.921-3.326l-.16-.573c-.097-.349-.194-.698-.294-1.047-.405-1.419-.82-2.838-1.242-4.257l-.075-.258-.118-.402a410.054 410.054 0 0 0-1.518-4.954c-.083-.265-.168-.529-.253-.793l-.159-.495a431.96 431.96 0 0 0-1.161-3.614c-.135-.412-.273-.824-.411-1.237l-.187-.558a298.844 298.844 0 0 0-1.595-4.694l-.129-.37a394.328 394.328 0 0 0-1.761-4.958 383.97 383.97 0 0 0-2.922-7.8l-.1-.258a309.442 309.442 0 0 0-1.857-4.703l-.101-.252c14.076-9.835 23.517-23.429 26.37-38.253.078-.24.155-.48.227-.722.086-.288.166-.579.244-.869l.066-.241.044-.156c.05-.175.098-.35.144-.525.219-.839.404-1.611.561-2.352.031-.145.059-.292.086-.439l-.006.03c.037-.18.071-.362.105-.544l.027-.142c.167-.88.311-1.751.427-2.585.021-.135.042-.27.059-.405a51.042 51.042 0 0 0 .336-3.638c.067-1.139.098-2.103.098-3.032 0-9.867-2.895-19.722-8.372-28.5a61.185 61.185 0 0 0-1.841-2.777c-2.169-3.086-4.735-6.094-7.625-8.942a71.622 71.622 0 0 0-4.268-3.885 77.637 77.637 0 0 0-11.778-8.114 84.61 84.61 0 0 0-4.348-2.286 88.443 88.443 0 0 0-5.841-2.596 90.558 90.558 0 0 0-4.383-1.632c-7.218-2.474-14.744-4.063-22.464-4.751.49-5.573.738-11.171.738-16.732 0-25.567-5.009-50.375-14.889-73.733-9.541-22.557-23.197-42.813-40.59-60.206-17.393-17.393-37.649-31.049-60.206-40.59-23.362-9.887-48.169-14.896-73.737-14.896z" class="st0"/><path d="M790 271.571c0-30.181-31.853-54.875-70.784-54.875H80.784C41.853 216.696 10 241.39 10 271.571c0 19.901 13.853 37.411 34.448 47.034l-2.044.002C-1.947 420.777-2.44 541.131 51.297 648.532c96.357 192.583 330.589 270.59 523.173 174.233 186.559-93.343 265.598-316.071 182.765-504.984 19.659-9.776 32.765-26.859 32.765-46.21z" class="st35"/><path fill="#edc531" d="M719.82 191.356c0-99.642-80.776-180.418-180.418-180.418-55.053 0-104.339 24.666-137.432 63.541-20.24-24.248-50.682-39.684-84.736-39.684-60.938 0-110.338 49.4-110.338 110.338 0 1.004.049 1.996.076 2.994a109.473 109.473 0 0 0-17.968-1.503c-47.38 0-87.683 30.277-102.635 72.535h631.319a181.892 181.892 0 0 0 2.132-27.803z"/><path fill="#cea628" d="M688.95 138.462c-19.263-61.194-76.375-104.78-140.302-108.236-5.373-.385-12.001-.334-17.412-.062l-2.898.12-2.889.277-5.771.57c-1.913.27-6.781 1.038-8.597 1.307-4.439.882-9.698 2.02-14.093 3.28-29.404 8.134-56.383 25.405-75.747 49.005 23.351-21.301 52-36.332 83.119-42.22 5.156-.939 11.053-1.722 16.285-2.247 1.872-.097 6.352-.401 8.196-.493 11.741-.307 23.815.353 35.346 2.568 58.442 10.273 107.33 54.378 125.611 110.682 2.353 7.13 4.163 14.381 5.721 21.733-.626-12.297-2.895-24.529-6.569-36.284zM311.261 52.634c-29.049 2.611-56.215 20.886-68.121 47.642 37.556-51.836 113.869-51.176 147.304 4.155 9.948 16.703 14.246 36.932 12.122 57.302.823-2.429 1.468-4.92 2.039-7.439 1.375-6.295 1.889-12.929 1.732-19.381-1.26-48.893-46.569-87.412-95.076-82.279zm-72.576 135.062c-1.986-3.17-4.463-6.092-7.012-8.824-.765-.782-2.742-2.552-3.54-3.346l-2.537-2.039c-1.422-1.226-3.779-2.681-5.337-3.764-1.83-1.063-3.813-2.248-5.747-3.136-17.366-8.426-39.4-8.912-55.928 1.572 28.355-1.946 52.873 4.284 75.124 21.981.749.647 2.678 2.211 3.483 2.862 1.45 1.332 3.147 2.694 4.578 4.076 2.905 2.621 2.549 2.62 1.302-.893-1.069-2.865-2.74-5.901-4.386-8.489z" opacity=".5"/><g opacity=".2"><path d="M416.192 222.79H81.988c-38.784 0-70.516 24.6-70.516 54.668 0 30.067 31.732 54.668 70.516 54.668h334.204"/><path d="M383.808 222.79h334.204c38.784 0 70.516 24.6 70.516 54.668 0 30.067-31.732 54.668-70.516 54.668H383.808"/></g><path d="M416.254 216.696H80.784C41.853 216.696 10 241.39 10 271.571s31.853 54.875 70.784 54.875h335.47" class="st35"/><path d="M383.746 216.696h335.47c38.931 0 70.784 24.694 70.784 54.875s-31.853 54.875-70.784 54.875h-335.47" class="st35"/><circle cx="660.702" cy="506.189" r="11.035" class="st21" transform="rotate(-17.484 660.73 506.244)"/><path d="M187.027 643.797c-1.686 6.293 2.048 12.762 8.342 14.448 6.293 1.686 12.762-2.048 14.448-8.342 1.686-6.293-2.048-12.762-8.342-14.448-6.293-1.686-12.762 2.049-14.448 8.342z" class="st21"/><circle cx="267.035" cy="533.272" r="157.288" opacity=".15"/><circle cx="534.463" cy="534.77" r="158.786" fill="#f3ba2f"/><path d="m536.732 479.271 35.84 35.84c1.21 1.21 3.327 1.21 4.688 0l18.903-18.903c1.21-1.21 1.21-3.327 0-4.688l-59.431-59.582c-1.21-1.21-3.327-1.21-4.688 0l-59.582 59.582c-1.21 1.21-1.21 3.327 0 4.688l18.903 18.903c1.21 1.21 3.327 1.21 4.688 0l35.84-35.84c1.512-1.21 3.629-1.21 4.839 0zm-85.442 33.723-18.903 18.903c-1.21 1.21-1.21 3.327 0 4.688l18.903 18.903c1.21 1.21 3.327 1.21 4.688 0l18.903-18.903c1.21-1.21 1.21-3.327 0-4.688l-18.903-18.903c-1.361-1.361-3.478-1.361-4.688 0zm85.442 123.55 59.582-59.582c1.21-1.21 1.21-3.327 0-4.688l-18.903-18.903c-1.21-1.21-3.327-1.21-4.688 0l-35.84 35.84c-1.21 1.21-3.327 1.21-4.688 0l-35.84-35.84c-1.21-1.21-3.327-1.21-4.688 0l-19.206 18.752c-1.21 1.21-1.21 3.327 0 4.688l59.582 59.582c1.362 1.512 3.479 1.512 4.689.151zm76.368-123.55-18.903 18.903c-1.21 1.21-1.21 3.327 0 4.688l18.903 18.903c1.21 1.21 3.327 1.21 4.688 0l18.903-18.903c1.21-1.21 1.21-3.327 0-4.688l-18.903-18.903c-1.361-1.361-3.478-1.361-4.688 0z" class="st0"/><path d="m556.24 532.048-19.206-19.206c-1.21-1.21-3.327-1.21-4.688 0l-19.206 19.206c-1.21 1.21-1.21 3.327 0 4.688l19.206 19.206c1.21 1.21 3.327 1.21 4.688 0l19.206-19.206c1.21-1.361 1.21-3.478 0-4.688z" class="st0"/><circle cx="265.537" cy="534.77" r="158.786" fill="#2c3a5b"/><path d="M364.571 475.018c-.452-.602-1.054-1.054-1.806-1.204-.753-.151-1.505 0-2.107.452l-.151.151h-.151l-34.617 22.877c-1.204.753-1.656 2.408-.903 3.612 5.418 9.482 8.579 20.469 8.88 31.456 1.204 34.316-23.479 64.417-57.193 69.836-1.355.151-2.408 1.355-2.258 2.86l1.505 42.142c0 .753.301 1.505.903 1.957.452.452 1.054.602 1.806.602h.301c21.372-2.408 41.54-10.837 58.547-24.081 17.308-13.696 30.403-32.058 37.627-52.979 11.139-32.661 7.377-68.181-10.383-97.681h0zm10.836 68.18-36.272-3.01c.151-2.559.301-5.268.151-7.977 0-1.054-.151-2.258-.151-3.311l36.423-2.559c.301 5.569.301 11.138-.151 16.857h0zm-7.375 32.059-33.864-13.546c1.355-3.462 2.408-7.074 3.311-10.686l35.52 8.278a111.738 111.738 0 0 1-3.311 11.589c-.602 1.505-1.054 3.01-1.656 4.365h0zm-44.851 5.568c2.408-2.86 4.515-6.02 6.321-9.331l31.456 18.362c-2.86 4.816-6.02 9.482-9.482 13.847l-28.295-22.878h0zm44.851-86.542c2.107 5.268 3.763 10.536 4.967 15.954l-35.67 7.826c-.903-3.612-1.957-7.224-3.311-10.686l34.014-13.094h0zm-81.123 111.075c3.612-1.054 7.224-2.559 10.536-4.064l15.653 32.811c-5.117 2.408-10.235 4.515-15.653 6.171l-10.536-34.918h0zm40.185 20.62-20.168-30.102a67.762 67.762 0 0 0 8.88-7.074l24.533 26.79c-4.064 3.763-8.579 7.225-13.245 10.386h0zM171.018 473.664l37.476 19.717c.452.151.903.301 1.204.301.903 0 1.656-.301 2.107-1.054 12.492-15.803 31.155-25.285 51.173-26.038 19.566-.753 38.379 7.074 51.925 21.222.903.903 2.408 1.054 3.462.452l35.369-23.329c.602-.452 1.054-1.054 1.204-1.806.151-.753-.151-1.505-.602-2.107-13.395-16.255-31.155-28.446-51.173-35.369-49.216-17.007-104.001 1.204-133.35 44.099-.452.602-.602 1.505-.452 2.258a8.74 8.74 0 0 0 1.657 1.654h0zm130.49-43.045c18.061 6.321 34.165 17.007 46.657 31.306l-30.704 20.469a73.576 73.576 0 0 0-54.484-21.222c-20.921.753-40.487 10.234-53.882 26.339l-32.811-17.308c28.297-39.133 79.319-55.388 125.224-39.584h0zm-41.39 172.331c-34.617-2.709-61.558-31.005-62.762-65.621-.301-10.686 1.656-20.921 6.02-30.553.602-1.355 0-2.86-1.204-3.612l-37.175-19.566c-.602-.301-1.505-.451-2.107-.151-.753.151-1.355.753-1.656 1.355-1.957 4.064-3.612 8.127-5.117 12.342-10.084 29.199-8.127 60.504 5.418 88.348 13.546 27.844 37.025 48.614 66.223 58.698a116.142 116.142 0 0 0 33.563 6.321h.151c.753 0 1.355-.301 1.957-.753.602-.602.903-1.204.753-1.957l-1.505-42.142c0-1.655-1.054-2.709-2.559-2.709h0z" class="st39"/><path d="M319.569 532.964c-1.054-29.801-26.188-53.129-55.989-52.076-29.8 1.054-53.129 26.188-52.076 55.989 1.054 29.199 24.984 52.226 54.032 52.226h1.957c29.801-1.204 53.129-26.188 52.076-56.139h0zm-52.226 51.173h-1.806c-26.339 0-48.162-20.921-49.066-47.41-.903-27.091 20.319-49.969 47.41-50.872 13.094-.452 25.586 4.214 35.219 13.094 9.633 8.88 15.201 21.071 15.653 34.316.903 26.941-20.319 49.818-47.41 50.872h0z" class="st39"/><circle cx="289.623" cy="772.431" r="36.783" class="st21" transform="rotate(-45.001 289.615 772.438)"/><path d="M567.787 718.025c-12.161-3.258-24.661 3.958-27.919 16.119-3.258 12.161 3.958 24.661 16.119 27.919 12.161 3.258 24.661-3.958 27.92-16.119 3.258-12.161-3.959-24.661-16.12-27.919z" class="st21"/><circle cx="713.08" cy="383.574" r="25.748" class="st21" transform="rotate(-89.043 713.034 383.564)"/><path d="M457.864 783.185c1.58-5.896-1.919-11.957-7.815-13.537-5.896-1.58-11.957 1.919-13.537 7.815-1.58 5.896 1.919 11.957 7.815 13.537 5.897 1.581 11.957-1.918 13.537-7.815zM734.54 467.529a7.356 7.356 0 0 0 5.202 9.01 7.356 7.356 0 0 0 9.01-5.202 7.356 7.356 0 0 0-5.202-9.01 7.355 7.355 0 0 0-9.01 5.202zm-631.856-41.701c8.413-31.396-10.219-63.668-41.616-72.08a58.573 58.573 0 0 0-32.099.464 391.233 391.233 0 0 0-18.597 103.353 58.676 58.676 0 0 0 20.231 9.879c31.397 8.412 63.668-10.22 72.081-41.616zm588.667 230.605c-5.896 22.006.021 44.391 13.859 60.432 26.136-32.897 46.606-69.643 60.883-108.619-33.224-5.526-65.845 14.981-74.742 48.187zm-588.983-11.61c-17.218-4.614-34.779 1.627-45.446 14.517l.002.003a412.069 412.069 0 0 0 2.589 4.724l.029.051a390.906 390.906 0 0 0 29.025 44.659l.133.176a388.39 388.39 0 0 0 3.002 3.935l.259.334a372.177 372.177 0 0 0 2.937 3.743l.323.406a390.382 390.382 0 0 0 6.338 7.749l.217.259a388.27 388.27 0 0 0 3.317 3.891l.001.001c13.492-4.579 24.524-15.591 28.488-30.387 6.307-23.548-7.667-47.752-31.214-54.061z" class="st21"/></svg>