<svg xmlns="http://www.w3.org/2000/svg" xml:space="preserve" id="Layer_1" x="0" y="0" version="1.1" viewBox="0 0 800 875"><style>.st0{fill:#fff}.st21{fill:#305b61}.st35{fill:#4d9ba4}</style><path d="M398.521 868.555a411.326 411.326 0 0 1-4.002-.038l-1.009-.017a377.134 377.134 0 0 1-4.118-.093l-.872-.024c-1.44-.042-2.885-.095-4.328-.154l-.639-.025a378.524 378.524 0 0 1-4.684-.228l-.274-.014a396.474 396.474 0 0 1-40.34-4.32l-.207-.034a384.737 384.737 0 0 1-4.747-.788l-.32-.057a371.473 371.473 0 0 1-4.646-.833l-.324-.06c-1.559-.29-3.112-.59-4.663-.897l-.289-.059a399.579 399.579 0 0 1-4.743-.976l-.183-.04a397.175 397.175 0 0 1-84.463-28.196 395.7 395.7 0 0 1-20.987-10.512 395.8 395.8 0 0 1-44.976-28.28 403.586 403.586 0 0 1-7.108-5.294l-.115-.087a400.795 400.795 0 0 1-6.957-5.432l-.036-.029a393.122 393.122 0 0 1-33.275-29.862l-.111-.11a399.853 399.853 0 0 1-6.141-6.326l-.205-.217a386.293 386.293 0 0 1-5.982-6.455l-.124-.136a395.649 395.649 0 0 1-7.965-9.077l-1.699-2.011a419.353 419.353 0 0 1-1.625-1.95h-.673l-1.013-2.051a353.302 353.302 0 0 1-2.938-3.643l-.152-.181-.056-.079-.373-.373-.114-.241c-.43-.542-.858-1.086-1.285-1.631h-.58l-1.048-2.096a391.13 391.13 0 0 1-2.971-3.893l-.293-.357-.04-.085a392.93 392.93 0 0 1-7.672-10.58l-.12-.172a395.057 395.057 0 0 1-10.787-16.265l-.156-.155-.231-.462a395.162 395.162 0 0 1-5.074-8.338l-.094-.158a403.666 403.666 0 0 1-5.02-8.74l-.119-.215a382.82 382.82 0 0 1-2.511-4.576l-.067-.105-.072-.151a396.978 396.978 0 0 1-2.678-5.052l-.205-.392a411.461 411.461 0 0 1-2.681-5.246l-.077-.154a401.252 401.252 0 0 1-3.14-6.435l-.846-1.786a393.445 393.445 0 0 1-2.473-5.338l-.583-1.276a400.183 400.183 0 0 1-2.841-6.467l-.657-1.554a393.947 393.947 0 0 1-2.186-5.261l-.679-1.668a401.25 401.25 0 0 1-2.58-6.576l-.289-.771a394.433 394.433 0 0 1-2.189-5.926l-.615-1.716a392.085 392.085 0 0 1-2.132-6.146l-.187-.546a401.542 401.542 0 0 1-2.191-6.747l-.475-1.522a401.966 401.966 0 0 1-1.723-5.688l-.371-1.253a393.486 393.486 0 0 1-1.924-6.838l-.251-.944a389.571 389.571 0 0 1-1.566-6.021l-.357-1.425a392.617 392.617 0 0 1-3.17-13.861l-.257-1.242a390.277 390.277 0 0 1-1.301-6.578l-.085-.443a397.643 397.643 0 0 1-1.271-7.161l-.141-.858a395.267 395.267 0 0 1-1.013-6.443l-.133-.888a393.483 393.483 0 0 1-1.83-14.356l-.1-.924c-.512-4.812-.939-9.68-1.27-14.467l-.042-.629c-.16-2.378-.301-4.754-.418-7.129l-.007-.153a392.914 392.914 0 0 1-.44-14.815l-.004-.434c-.049-4.877-.004-9.843.132-14.76l.01-.364c.355-12.4 1.31-24.932 2.837-37.245l.017-.142a400.44 400.44 0 0 1 2.065-14.431v-.054l.098-.545c.342-2.088.7-4.172 1.074-6.252l.021-.152.024-.096c.28-1.547.569-3.094.867-4.637l.023-.122c.312-1.609.625-3.182.949-4.75l.029-.144a414.43 414.43 0 0 1 1.011-4.749l.028-.126a395.333 395.333 0 0 1 2.648-11.271l.008-.031c.398-1.587.797-3.137 1.205-4.685l.055-.209c.401-1.52.815-3.047 1.237-4.573l.046-.166c.436-1.57.873-3.106 1.318-4.64l.049-.165a394.383 394.383 0 0 1 3.137-10.262l.183-.571.017-.087.095-.262c.465-1.438.939-2.874 1.421-4.308l.078-.231a410.72 410.72 0 0 1 1.687-4.903l.181-.518a388.513 388.513 0 0 1 1.643-4.562l.28-.766c.525-1.424 1.06-2.842 1.601-4.257l.389-1.022c.51-1.325 1.033-2.651 1.56-3.977l.481-1.219c.437-1.087.88-2.17 1.326-3.251-14.86-9.342-24.815-22.881-27.57-37.667a48.818 48.818 0 0 1-.624-2.099l-.078-.274a47.629 47.629 0 0 1-.606-2.609l-.172-.875a16.52 16.52 0 0 1-.104-.539c-.104-.594-.194-1.2-.276-1.81l-.022-.146a47.619 47.619 0 0 1-.204-1.86 107.062 107.062 0 0 1-.154-2.238 48.117 48.117 0 0 1-.044-2.052c0-9.153 2.587-17.94 7.69-26.118a56.24 56.24 0 0 1 1.704-2.57 60.572 60.572 0 0 1 5.979-7.217 66.943 66.943 0 0 1 6.037-5.493 73.305 73.305 0 0 1 7.565-5.353 77.517 77.517 0 0 1 6.229-3.46 82.863 82.863 0 0 1 9.047-3.855c9.82-3.522 20.261-5.309 31.032-5.309h3.456c8.253-19.986 21.951-37.081 39.764-49.581 19.104-13.405 41.58-20.491 64.999-20.491 4.427 0 8.92.271 13.414.808 1.175-62.312 52.229-112.637 114.817-112.637 32.388 0 62.979 13.547 84.74 37.35 35.09-38.965 84.88-61.207 137.428-61.207 101.964 0 184.918 82.954 184.918 184.919 0 6.956-.396 13.972-1.18 20.92 8.955.364 17.666 1.981 25.948 4.82a85.682 85.682 0 0 1 9.703 4.011 80.508 80.508 0 0 1 5.656 3.055 73.377 73.377 0 0 1 9.56 6.755 67.324 67.324 0 0 1 3.999 3.642c2.699 2.659 5.088 5.46 7.102 8.324a57.48 57.48 0 0 1 1.706 2.572c5.102 8.176 7.689 16.963 7.689 26.116a47 47 0 0 1-.09 2.769l-.04.631a46.315 46.315 0 0 1-.267 2.688l-.043.299a49.643 49.643 0 0 1-.401 2.437l-.193 1.004a46.05 46.05 0 0 1-.515 2.153c-.04.152-.234.851-.234.851-.07.26-.141.52-.218.777-.082.274-.169.543-.258.812l-.026.08c-2.754 14.784-12.704 28.321-27.561 37.663.246.592.491 1.185.733 1.778l.75 1.862c.396.988.787 1.963 1.17 2.938.258.658.512 1.314.766 1.972a384.02 384.02 0 0 1 4.629 12.61l.672 1.939c.35 1.021.692 2.045 1.033 3.068l.59 1.772c.39 1.19.771 2.382 1.149 3.573l.405 1.271a376.09 376.09 0 0 1 1.5 4.896l.193.659c.417 1.402.828 2.806 1.229 4.21l.448 1.601c.308 1.096.613 2.19.911 3.286l.488 1.831a438 438 0 0 1 .81 3.084l.483 1.903a382.705 382.705 0 0 1 1.929 8.008l.427 1.87c.238 1.059.47 2.12.699 3.183l.374 1.736c.245 1.159.482 2.324.717 3.487l.29 1.43c.302 1.526.595 3.056.879 4.584l.061.317c.313 1.699.613 3.389.902 5.078l.101.609c.245 1.44.482 2.886.71 4.331l.209 1.367c.186 1.2.367 2.397.541 3.596l.224 1.586c.159 1.133.315 2.264.463 3.396l.215 1.664c.142 1.116.279 2.229.412 3.344l.193 1.652c.131 1.145.255 2.284.375 3.426l.162 1.548c.124 1.215.24 2.435.352 3.653l.121 1.302c.126 1.422.243 2.848.353 4.272l.054.668c.256 3.385.472 6.817.64 10.201l.013.298c.076 1.562.143 3.12.201 4.677l.032.972c.046 1.341.087 2.677.119 4.014l.026 1.223c.027 1.262.048 2.525.062 3.789l.012 1.286c.01 1.258.014 2.517.012 3.774l-.003 1.24a393.97 393.97 0 0 1-.039 3.918l-.015 1.052a394.484 394.484 0 0 1-.1 4.334l-.016.604c-.2 6.708-.579 13.521-1.127 20.251l-.047.557a374.143 374.143 0 0 1-.39 4.41l-.077.801a393.514 393.514 0 0 1-.427 4.204l-.091.842a383.624 383.624 0 0 1-.484 4.223l-.09.752a417.096 417.096 0 0 1-.572 4.473l-.06.451a397.253 397.253 0 0 1-4.203 25.054l-.042.209a403.954 403.954 0 0 1-.973 4.68l-.095.438c-.322 1.498-.654 3-.996 4.501l-.104.455c-.35 1.529-.708 3.058-1.076 4.584l-.071.293a398.219 398.219 0 0 1-9.907 34.154l-.043.128a404.325 404.325 0 0 1-1.625 4.689l-.063.177a397.567 397.567 0 0 1-23.821 54.066l-.242.453a397.507 397.507 0 0 1-11.282 19.719l-.22.494-.213.214-.104.17a392.064 392.064 0 0 1-3.883 6.188l-.717 1.114a380.676 380.676 0 0 1-3.684 5.612l-.063.104-.136.192a396.746 396.746 0 0 1-8.648 12.366l-.069.095a396.079 396.079 0 0 1-9.888 13.007l-.156.209-.054.055a413.839 413.839 0 0 1-3.001 3.725l-.805.977a407.56 407.56 0 0 1-2.366 2.859l-1.102 1.304c-.704.835-1.411 1.668-2.124 2.497-.405.472-.817.946-1.228 1.42-.679.784-1.366 1.571-2.057 2.355l-1.281 1.445c-.691.776-1.384 1.548-2.081 2.318l-1.283 1.413c-.72.79-1.448 1.576-2.178 2.362l-1.224 1.317c-.804.857-1.613 1.709-2.424 2.56l-1.02 1.071a393.068 393.068 0 0 1-7.075 7.172l-.955.934c-.877.861-1.754 1.719-2.639 2.569l-1.291 1.233c-.785.748-1.567 1.491-2.354 2.23-.475.445-.953.89-1.431 1.333-.759.705-1.52 1.408-2.284 2.106l-1.474 1.341a405.756 405.756 0 0 1-6.195 5.488l-1.419 1.229a339.67 339.67 0 0 1-2.669 2.268l-1.192 1.008a391.013 391.013 0 0 1-7.888 6.43l-1.187.931c-.934.736-1.873 1.473-2.819 2.204l-1.501 1.149c-.852.652-1.703 1.301-2.559 1.944-.545.409-1.091.816-1.638 1.222-.823.613-1.652 1.226-2.485 1.835l-1.682 1.225c-.839.607-1.676 1.207-2.517 1.806l-1.677 1.19c-.873.613-1.745 1.219-2.619 1.824l-1.614 1.114a373.65 373.65 0 0 1-2.887 1.954l-1.38.929a382.66 382.66 0 0 1-4.19 2.753l-.108.071a429.343 429.343 0 0 1-4.371 2.786l-1.396.866c-.999.623-2.001 1.245-3.009 1.86l-1.702 1.028a329.527 329.527 0 0 1-4.499 2.676 373.375 373.375 0 0 1-7.382 4.219 353.529 353.529 0 0 1-4.699 2.578l-1.777.959c-1.049.56-2.104 1.112-3.158 1.662l-1.495.783a406.627 406.627 0 0 1-4.703 2.394c-1.579.79-3.161 1.567-4.745 2.334l-1.54.734a365.942 365.942 0 0 1-3.218 1.529l-2.099.969c-.894.412-1.787.824-2.682 1.229l-2.232.995c-.855.381-1.711.762-2.569 1.136-.593.259-2.043.881-2.043.881-.935.4-1.848.793-2.763 1.178a436.752 436.752 0 0 1-4.829 1.993c-.703.285-1.404.565-2.106.846a433.873 433.873 0 0 1-4.846 1.896c-.926.354-1.852.705-2.776 1.053-.696.261-1.39.52-2.083.774-.938.347-1.878.688-2.818 1.025a307.12 307.12 0 0 1-4.912 1.731l-2.013.692c-.969.329-1.941.649-2.912.971l-1.966.648c-1.074.349-2.15.689-3.226 1.027 0 0-1.278.406-1.668.527-1.234.383-2.477.758-3.719 1.13l-1.176.354a391.384 391.384 0 0 1-9.948 2.804l-.795.208c-1.375.365-2.759.727-4.145 1.078l-1.393.346c-1.183.296-2.369.59-3.555.875l-1.617.381c-1.12.263-2.235.523-3.352.776l-1.719.381c-1.084.24-2.168.479-3.254.709l-1.772.37c-1.073.223-2.148.443-3.223.657l-1.772.348c-1.081.209-2.16.414-3.24.615l-1.751.32c-1.093.198-2.185.39-3.278.578l-1.706.29c-1.124.188-2.244.369-3.365.547l-1.619.255c-1.165.18-2.331.352-3.496.521l-1.479.214c-1.249.176-2.491.343-3.734.506l-1.244.165c-1.377.176-2.752.342-4.126.503l-.86.103c-6.73.774-13.58 1.382-20.356 1.805l-.121.007c-1.659.103-3.275.192-4.892.272l-.654.029c-1.46.07-2.911.133-4.362.187l-.921.03c-1.361.047-2.732.088-4.103.121l-1.04.021c-1.329.028-2.665.052-3.999.066l-1.077.009c-1.131.009-2.261.014-3.391.014l-1.667.001z" class="st0"/><path d="M539.401 10.941c99.642 0 180.418 80.776 180.418 180.418a181.8 181.8 0 0 1-1.776 25.341h1.173c10.093 0 19.702 1.672 28.412 4.656a80.39 80.39 0 0 1 9.182 3.796 75.605 75.605 0 0 1 5.336 2.881 68.549 68.549 0 0 1 8.97 6.337 62.138 62.138 0 0 1 3.729 3.396c2.454 2.418 4.668 4.989 6.579 7.707.547.777 1.07 1.566 1.568 2.365 4.488 7.193 7.008 15.247 7.008 23.736 0 .84-.034 1.674-.083 2.505-.011.191-.022.383-.036.573a42.463 42.463 0 0 1-.24 2.426c-.015.114-.035.226-.05.34-.099.717-.218 1.43-.353 2.138-.036.188-.069.377-.108.565-.023.113-.041.226-.065.339a43.395 43.395 0 0 1-.467 1.955c-.048.185-.103.369-.154.554-.085.309-.165.619-.257.926-.097.323-.205.643-.31.964-.014.042-.024.086-.039.128-2.719 15.13-13.499 28.322-28.846 36.874.089.21.179.419.267.629.218.515.43 1.032.645 1.548.442 1.058.883 2.116 1.315 3.175.25.614.495 1.229.742 1.843.389.967.776 1.934 1.156 2.903.255.648.505 1.297.756 1.946a389.542 389.542 0 0 1 1.822 4.805 382.712 382.712 0 0 1 2.757 7.666c.222.638.445 1.277.664 1.916a372.81 372.81 0 0 1 1.021 3.035c.195.584.392 1.168.584 1.753.386 1.177.762 2.355 1.136 3.534.133.419.27.838.402 1.258a389.16 389.16 0 0 1 1.482 4.836c.065.217.126.433.19.65.412 1.387.818 2.774 1.214 4.163.15.527.295 1.055.443 1.582.304 1.083.606 2.166.901 3.25.164.603.322 1.206.482 1.809.27 1.016.539 2.031.8 3.048.161.627.319 1.255.478 1.882a409.375 409.375 0 0 1 1.2 4.889 401.22 401.22 0 0 1 1.82 8.019c.123.571.249 1.143.37 1.715.243 1.15.477 2.301.71 3.452.095.47.193.94.286 1.41.299 1.511.588 3.022.869 4.534.02.108.042.215.061.323.308 1.669.605 3.339.89 5.009.034.2.065.4.099.599.242 1.428.477 2.856.703 4.284.071.451.138.903.208 1.354.183 1.184.362 2.367.534 3.551.076.523.148 1.046.221 1.57.157 1.118.311 2.235.458 3.353.072.549.142 1.098.212 1.647a414.04 414.04 0 0 1 .598 4.941c.129 1.128.252 2.255.371 3.383.054.51.108 1.019.16 1.529.122 1.205.237 2.409.347 3.614.039.428.081.856.119 1.284.125 1.408.24 2.817.349 4.225.017.22.037.44.053.66.255 3.363.466 6.725.633 10.086l.013.298c.075 1.54.141 3.081.198 4.62.012.321.021.642.032.963.046 1.322.086 2.644.118 3.965.01.402.017.804.026 1.206.026 1.25.047 2.499.062 3.749l.012 1.269c.01 1.244.014 2.488.013 3.731-.001.408-.001.817-.003 1.225a384.585 384.585 0 0 1-.038 3.874c-.005.345-.009.69-.015 1.034a408.871 408.871 0 0 1-.098 4.291l-.016.596a388.943 388.943 0 0 1-1.114 20.019l-.047.555a395.4 395.4 0 0 1-.385 4.355l-.076.792a384.394 384.394 0 0 1-.992 9.162l-.089.744c-.18 1.475-.369 2.949-.566 4.421l-.058.439a390.347 390.347 0 0 1-4.156 24.776l-.038.185a382.898 382.898 0 0 1-.966 4.648l-.092.427a402.557 402.557 0 0 1-2.153 9.44l-.066.276a392.505 392.505 0 0 1-9.797 33.778l-.061.18c-.52 1.531-1.05 3.059-1.59 4.584l-.058.164a391.924 391.924 0 0 1-23.555 53.464l-.243.456-.001.001a390.813 390.813 0 0 1-11.301 19.734l-.002.002-.377.617-.001.001a388.456 388.456 0 0 1-3.838 6.115l-.45.699-.002.003a388.564 388.564 0 0 1-3.957 6.035l-.004.007-.149.22a387.21 387.21 0 0 1-8.534 12.202l-.001.001-.06.082a387.256 387.256 0 0 1-9.83 12.929l-.005.006-.001.001a394.268 394.268 0 0 1-3.12 3.874c-.264.324-.532.645-.797.968-.775.944-1.553 1.887-2.337 2.824-.361.431-.726.86-1.089 1.29a319.768 319.768 0 0 1-3.31 3.868 373.12 373.12 0 0 1-5.361 6.053 332.259 332.259 0 0 1-3.421 3.732c-.403.434-.804.869-1.209 1.301-.794.847-1.594 1.689-2.396 2.53-.337.353-.671.708-1.009 1.06a389.179 389.179 0 0 1-6.992 7.089c-.314.31-.632.617-.946.926a390.11 390.11 0 0 1-2.605 2.536c-.425.409-.853.814-1.28 1.221-.772.737-1.546 1.472-2.325 2.204a440.32 440.32 0 0 1-5.131 4.726 371.241 371.241 0 0 1-3.746 3.348c-.789.695-1.582 1.386-2.377 2.076-.468.406-.934.813-1.404 1.217-.874.751-1.754 1.496-2.636 2.24-.394.332-.785.667-1.18.998a387.93 387.93 0 0 1-7.797 6.355c-.388.308-.78.611-1.169.918a400.53 400.53 0 0 1-2.791 2.181c-.494.381-.991.759-1.487 1.139-.84.643-1.681 1.284-2.527 1.92-.536.403-1.076.804-1.615 1.206a371.425 371.425 0 0 1-6.61 4.811c-.553.394-1.106.787-1.661 1.178-.858.604-1.721 1.204-2.586 1.802-.531.368-1.061.737-1.595 1.103-.947.648-1.899 1.29-2.853 1.931-.456.306-.909.615-1.366.919a391.361 391.361 0 0 1-4.21 2.765l-.046.03c-1.431.926-2.87 1.842-4.316 2.75-.458.288-.92.571-1.38.857-.989.616-1.978 1.23-2.974 1.838-.56.342-1.124.68-1.687 1.019-.907.547-1.815 1.094-2.728 1.635-.598.354-1.199.706-1.8 1.058a370.445 370.445 0 0 1-7.213 4.122c-.613.342-1.225.683-1.84 1.022-.932.513-1.869 1.021-2.806 1.527-.587.317-1.172.636-1.761.95a400.617 400.617 0 0 1-3.119 1.643c-.495.258-.986.52-1.483.776a391.512 391.512 0 0 1-9.341 4.674c-.505.244-1.011.481-1.517.723-1.062.508-2.124 1.017-3.188 1.515-.611.286-1.223.564-1.835.847-.963.445-1.927.89-2.892 1.327-.649.293-1.3.581-1.95.87-.931.415-1.862.829-2.794 1.236-.673.293-1.347.582-2.021.871-.91.391-1.82.781-2.732 1.165-.689.29-1.379.575-2.069.861a349.965 349.965 0 0 1-4.791 1.947 413.176 413.176 0 0 1-4.791 1.874 416.634 416.634 0 0 1-7.587 2.82c-.676.243-1.351.486-2.027.726-.948.335-1.897.665-2.847.992-.658.227-1.316.456-1.974.679-.986.334-1.974.661-2.962.987-.62.205-1.239.412-1.859.613-1.061.345-2.124.68-3.187 1.015-.549.173-1.098.35-1.647.521-1.226.38-2.453.75-3.68 1.118-.387.116-.774.236-1.161.351a388.626 388.626 0 0 1-9.838 2.772c-.259.069-.519.135-.778.204a381.11 381.11 0 0 1-4.105 1.068c-.458.116-.917.227-1.375.341-1.172.293-2.345.584-3.518.865-.533.128-1.067.251-1.6.376-1.103.26-2.206.518-3.311.767-.565.128-1.131.251-1.696.376a362.58 362.58 0 0 1-3.22.701c-.583.124-1.167.244-1.75.366-1.063.221-2.126.438-3.189.65-.583.116-1.167.229-1.75.343a354.168 354.168 0 0 1-8.176 1.496c-.562.097-1.125.193-1.687.288a417.74 417.74 0 0 1-3.323.54l-1.599.252c-1.153.178-2.306.348-3.46.515-.488.071-.976.143-1.464.212a422.91 422.91 0 0 1-3.685.5c-.411.054-.821.11-1.232.163-1.36.174-2.72.338-4.08.498l-.845.101a388.23 388.23 0 0 1-20.125 1.784l-.162.009c-1.598.099-3.195.188-4.792.267-.218.011-.437.02-.655.03-1.435.069-2.869.131-4.304.184l-.902.03c-1.355.047-2.709.087-4.063.12l-1.023.021c-1.32.028-2.639.051-3.958.065l-1.064.01c-1.091.009-2.182.014-3.273.014h-.653a401.557 401.557 0 0 1-10.094-.15l-.857-.023a380.845 380.845 0 0 1-4.281-.153l-.64-.025a395.054 395.054 0 0 1-4.623-.225l-.285-.015a390.248 390.248 0 0 1-39.866-4.27l-.199-.032a393.388 393.388 0 0 1-9.607-1.659l-.326-.061a397.74 397.74 0 0 1-4.605-.887l-.277-.055a395.002 395.002 0 0 1-4.698-.968l-.145-.03a392.242 392.242 0 0 1-83.541-27.885 390.896 390.896 0 0 1-20.748-10.392h-.002a389.837 389.837 0 0 1-51.489-33.191l-.112-.085a383.87 383.87 0 0 1-6.878-5.37l-.035-.029a387.006 387.006 0 0 1-32.893-29.519l-.109-.11a385.688 385.688 0 0 1-6.071-6.254l-.199-.21a389.676 389.676 0 0 1-5.916-6.383l-.165-.183a387.907 387.907 0 0 1-9.17-10.507l-.002-.003-.103-.123a394.69 394.69 0 0 1-3.183-3.837l-.001-.001-.094-.116a390.086 390.086 0 0 1-3.167-3.923l-.008-.01-.168-.212-.152-.191-.004-.004a383.19 383.19 0 0 1-2.934-3.74l-.001-.002-.03-.038a385.682 385.682 0 0 1-3.231-4.231l-.133-.176-.001-.002a386.437 386.437 0 0 1-7.73-10.653l-.01-.015a394.458 394.458 0 0 1-5.618-8.248l-.006-.009a390.672 390.672 0 0 1-5.403-8.386l-.006-.009-.002-.003a395.648 395.648 0 0 1-5.217-8.571l-.005-.009c-1.706-2.885-3.38-5.8-5.02-8.743l-.004-.007-.026-.047a390.056 390.056 0 0 1-2.591-4.727l-.003-.005-.001-.002a409.506 409.506 0 0 1-2.702-5.097l-.208-.397a385.834 385.834 0 0 1-2.701-5.289l-.013-.025-.008-.017a388.426 388.426 0 0 1-3.105-6.364c-.281-.588-.559-1.177-.837-1.766a397.615 397.615 0 0 1-2.445-5.276c-.191-.42-.387-.84-.577-1.262a386.527 386.527 0 0 1-2.809-6.395c-.219-.511-.432-1.022-.649-1.533a388.659 388.659 0 0 1-2.162-5.204c-.224-.549-.449-1.098-.67-1.648a390.485 390.485 0 0 1-2.551-6.503c-.096-.252-.188-.506-.284-.759a398.097 398.097 0 0 1-2.773-7.558 393.166 393.166 0 0 1-2.107-6.073c-.06-.179-.124-.358-.184-.538a389.777 389.777 0 0 1-2.167-6.674c-.158-.501-.312-1.002-.468-1.504a385.485 385.485 0 0 1-1.704-5.625c-.122-.413-.246-.825-.366-1.237a384.662 384.662 0 0 1-1.902-6.761c-.085-.312-.165-.624-.249-.937a396.876 396.876 0 0 1-1.547-5.948c-.118-.468-.237-.936-.353-1.405a384.88 384.88 0 0 1-3.134-13.707l-.268-1.294a389.051 389.051 0 0 1-1.273-6.436l-.084-.435c-.442-2.359-.859-4.72-1.256-7.082l-.139-.849a375.88 375.88 0 0 1-1.001-6.369c-.043-.292-.089-.583-.131-.875a389.81 389.81 0 0 1-1.809-14.194l-.098-.912a387.513 387.513 0 0 1-1.255-14.302l-.042-.624a387.375 387.375 0 0 1-.413-7.046l-.006-.108a387.785 387.785 0 0 1-.442-15.118c-.048-4.87-.004-9.734.131-14.591l.01-.36a389.455 389.455 0 0 1 2.805-36.82l.017-.139a391.232 391.232 0 0 1 2.099-14.618l.001-.005.005-.031.002-.014c.351-2.152.72-4.3 1.106-6.445l.003-.019.001-.008c.285-1.578.579-3.154.883-4.727l.03-.156a387.9 387.9 0 0 1 .932-4.661l.034-.167a391.567 391.567 0 0 1 1.018-4.777 393.77 393.77 0 0 1 2.622-11.163l.013-.053.003-.011c.385-1.535.78-3.068 1.183-4.598l.051-.196c.4-1.513.809-3.024 1.227-4.532l.054-.194c.422-1.521.854-3.041 1.294-4.557l.033-.113a392.842 392.842 0 0 1 3.142-10.273c.08-.248.158-.497.239-.745l.004-.013a413.999 413.999 0 0 1 3.174-9.411l.178-.51a378.772 378.772 0 0 1 1.625-4.513c.092-.252.183-.505.276-.757a416.671 416.671 0 0 1 1.581-4.206c.128-.336.254-.672.383-1.008a401.017 401.017 0 0 1 1.544-3.936c.16-.402.316-.806.477-1.208a376.933 376.933 0 0 1 1.571-3.841c.169-.408.333-.818.503-1.226.242-.579.491-1.156.736-1.734-15.352-8.552-26.136-21.746-28.856-36.879l-.023-.078a44.09 44.09 0 0 1-.632-2.11c-.023-.086-.051-.171-.073-.257-.005-.021-.012-.042-.018-.062a42.649 42.649 0 0 1-.647-2.899c-.042-.222-.092-.443-.131-.667a42.608 42.608 0 0 1-.251-1.645l-.02-.13a44.667 44.667 0 0 1-.185-1.684c-.023-.257-.039-.515-.058-.772a41.072 41.072 0 0 1-.04-.606c-.013-.215-.033-.429-.042-.645a42.518 42.518 0 0 1-.04-1.858c0-8.489 2.52-16.543 7.008-23.736a52.298 52.298 0 0 1 1.568-2.365 55.954 55.954 0 0 1 5.534-6.678 62.474 62.474 0 0 1 5.63-5.121 68.351 68.351 0 0 1 7.1-5.023 73.257 73.257 0 0 1 5.87-3.261 78.45 78.45 0 0 1 8.559-3.647c8.998-3.228 18.993-5.045 29.514-5.045h6.51c15.626-40.963 55.257-70.072 101.709-70.072 6.124 0 12.121.531 17.969 1.503-.027-.998-.076-1.99-.076-2.994 0-60.938 49.4-110.338 110.339-110.338 34.055 0 64.496 15.437 84.736 39.684 33.085-38.872 82.37-63.538 137.423-63.538m0-9c-52.206 0-101.75 21.427-137.478 59.13-22.345-22.532-52.674-35.273-84.69-35.273-31.876 0-61.845 12.413-84.385 34.953-20.846 20.846-33.031 48.049-34.744 77.236-3.049-.239-6.089-.36-9.102-.36-24.349 0-47.719 7.368-67.584 21.308-17.686 12.411-31.469 29.18-40.148 48.764h-.487c-11.292 0-22.245 1.875-32.553 5.573a87.436 87.436 0 0 0-12.243 5.473 81.834 81.834 0 0 0-3.875 2.248 77.771 77.771 0 0 0-8.033 5.684 71.483 71.483 0 0 0-6.442 5.864 65.046 65.046 0 0 0-6.424 7.755 61.46 61.46 0 0 0-1.841 2.777C3.895 251.852 1 261.708 1 271.575c0 .75.016 1.507.049 2.25.01.217.024.428.039.64l.01.135c.015.253.031.5.049.746l.013.177c.017.25.036.5.058.75.067.737.141 1.404.224 2.042.012.091.024.169.035.244.092.68.189 1.312.293 1.905.038.216.081.435.126.654l.031.153a52.125 52.125 0 0 0 .784 3.498l.034.131.028.097c.021.077.041.145.061.212.175.644.367 1.293.581 1.973 2.85 14.834 12.297 28.437 26.384 38.276l-.243.616-.189.479a390.167 390.167 0 0 0-1.578 4.023l-.245.645-.149.393a397.154 397.154 0 0 0-1.615 4.296l-.168.461-.115.315a401.43 401.43 0 0 0-1.661 4.616l-.12.342-.066.188a400.365 400.365 0 0 0-1.692 4.918l-.048.144-.039.117a389.76 389.76 0 0 0-1.439 4.362l-.089.259-.024.092-.07.218-.09.28-.001.002-.025.079a402.206 402.206 0 0 0-3.188 10.43l-.027.094a387.882 387.882 0 0 0-1.33 4.683l-.058.21a404.46 404.46 0 0 0-1.252 4.625l-.029.111-.02.078a422.308 422.308 0 0 0-1.21 4.7l-.001.004-.002.01-.026.102-.002.01a403.136 403.136 0 0 0-2.671 11.372l-.001.004-.01.045-.004.018-.009.042a385.94 385.94 0 0 0-1.017 4.777l-.02.099-.012.058c-.33 1.6-.648 3.19-.956 4.781l-.02.106-.01.052a401.725 401.725 0 0 0-.881 4.709l-.028.133-.021.141a402.347 402.347 0 0 0-1.101 6.417l-.001.005-.011.068-.005.013-.006.038-.002.012a401.311 401.311 0 0 0-2.143 14.929l-.021.166a400.404 400.404 0 0 0-2.867 37.646l-.002.062-.009.32a398.87 398.87 0 0 0-.133 14.914l.004.344.001.106c.055 5.026.206 10.083.447 15.019l.005.099c.115 2.326.257 4.751.423 7.221l.014.204.029.439c.334 4.836.766 9.76 1.284 14.628l.087.804.014.126c.53 4.87 1.153 9.757 1.851 14.526l.081.541.053.354c.325 2.182.669 4.375 1.025 6.519l.056.34.087.528c.417 2.482.85 4.92 1.286 7.248l.057.295.029.151c.396 2.103.822 4.257 1.302 6.585l.274 1.322c.981 4.681 2.06 9.4 3.207 14.027.097.393.197.787.296 1.181l.065.258c.52 2.066 1.053 4.114 1.583 6.084l.093.35.162.609c.613 2.26 1.268 4.587 1.946 6.917.077.266.156.53.234.794l.141.475a401.547 401.547 0 0 0 1.743 5.752l.139.447a392.155 392.155 0 0 0 2.558 7.919l.124.363.066.192a394.256 394.256 0 0 0 2.775 7.942 400 400 0 0 0 2.216 5.998l.108.288.185.493a399.232 399.232 0 0 0 2.608 6.649c.164.409.332.819.499 1.229l.187.458c.721 1.77 1.465 3.562 2.211 5.322l.226.535c.145.344.29.688.437 1.031a397.208 397.208 0 0 0 2.874 6.542c.12.268.244.537.367.805l.224.489a406.289 406.289 0 0 0 2.499 5.394l.064.136a400.603 400.603 0 0 0 3.928 8.099l.054.114.049.092c.81 1.618 1.701 3.361 2.72 5.324l.141.269.077.146c.817 1.57 1.688 3.213 2.585 4.88l.071.163.151.255.525 1.012.059.059a384.068 384.068 0 0 0 1.952 3.549l.011.021.096.171a407.39 407.39 0 0 0 5.047 8.793l.002.003.086.146a403.396 403.396 0 0 0 5.145 8.461l.176.338.218.291a405.565 405.565 0 0 0 5.315 8.241l.011.017a401.288 401.288 0 0 0 5.736 8.422l.025.036.045.065.006.008c2.402 3.43 4.88 6.852 7.375 10.185l.29.58.55.551.055.06c.898 1.19 1.828 2.408 2.772 3.63l.002.003.299.386a404.463 404.463 0 0 0 3.001 3.826l.118.149.045.066.221.267a394.517 394.517 0 0 0 3.197 3.958l.037.046.048.059.288.354.009.009a395.147 395.147 0 0 0 2.667 3.215l.005.008.409.486c3.04 3.613 6.197 7.23 9.383 10.751l.061.067.125.138a397.12 397.12 0 0 0 6.036 6.513l.209.22a400.248 400.248 0 0 0 6.207 6.395l.102.103a397.912 397.912 0 0 0 33.625 30.181l.013.011.065.052a396.827 396.827 0 0 0 7.038 5.495l.116.089a392.644 392.644 0 0 0 7.147 5.323 400.504 400.504 0 0 0 43.778 27.685l.008.01 1.744.939.231.124.017.009a402.552 402.552 0 0 0 20.977 10.497 401.782 401.782 0 0 0 85.458 28.525l.126.026c1.621.344 3.223.674 4.828.995l.166.033.139.027c1.545.308 3.115.61 4.688.903l.167.031.144.027c1.595.295 3.166.578 4.739.85l.167.029.112.02c1.627.28 3.229.546 4.833.803l.176.029a400.937 400.937 0 0 0 40.813 4.373l.243.013.075.004c1.548.084 3.124.161 4.701.229l.402.016.247.01c1.464.06 2.924.113 4.384.156l.58.017.3.008c1.386.039 2.776.07 4.167.094l1.018.016c1.352.02 2.702.033 4.054.039l1.09.004h.666c1.116 0 2.231-.005 3.347-.014l1.092-.01c1.346-.015 2.698-.038 4.05-.066l.199-.004.849-.018a387.58 387.58 0 0 0 4.157-.123l.362-.012.55-.019c1.477-.054 2.945-.118 4.414-.188l.225-.01.457-.021c1.622-.08 3.257-.171 4.892-.272l.082-.005.042-.002.042-.003a398.682 398.682 0 0 0 20.592-1.825l.479-.057.377-.045c1.401-.164 2.792-.333 4.182-.51l.76-.1.499-.066a364.135 364.135 0 0 0 4.832-.664l.44-.064a364.06 364.06 0 0 0 3.539-.527c.462-.071.918-.144 1.374-.216l.263-.042c1.133-.18 2.265-.363 3.396-.552.579-.097 1.155-.196 1.73-.295a360.371 360.371 0 0 0 5.085-.907 432.537 432.537 0 0 0 5.067-.974c1.092-.217 2.18-.439 3.268-.666l.492-.103c.433-.09.867-.18 1.3-.272 1.097-.233 2.196-.474 3.294-.717l.414-.092c.441-.097.882-.194 1.323-.294 1.127-.255 2.257-.519 3.386-.785l.499-.117c.379-.088.758-.177 1.136-.268 1.201-.288 2.402-.585 3.603-.886l.505-.125c.3-.074.601-.148.901-.224 1.399-.355 2.8-.721 4.199-1.093l.31-.081.483-.126c3.344-.895 6.73-1.849 10.069-2.837.25-.074.497-.149.744-.224l.451-.137c1.25-.374 2.505-.752 3.759-1.142.357-.11.713-.224 1.069-.337l.614-.195a363.94 363.94 0 0 0 3.263-1.04c.445-.144.891-.292 1.337-.44l.565-.187c1.01-.333 2.02-.667 3.03-1.01.541-.183 1.083-.371 1.625-.558l.396-.137c.97-.335 1.941-.671 2.911-1.015.667-.236 1.332-.475 1.997-.714l.077-.028c.952-.343 1.901-.687 2.849-1.037.701-.258 1.402-.52 2.103-.782a466.867 466.867 0 0 0 4.933-1.886 410.914 410.914 0 0 0 7.68-3.088l.144-.06a330.197 330.197 0 0 0 4.767-2.012l.349-.15c.573-.245 1.145-.491 1.717-.74.954-.417 1.906-.84 2.858-1.264l.52-.231c.492-.218.984-.437 1.475-.659.951-.431 1.901-.869 2.849-1.307l.108-.05.597-.274a211.483 211.483 0 0 0 4.399-2.073l.139-.066.616-.293c.311-.147.623-.295.933-.445a401.797 401.797 0 0 0 9.554-4.781c.32-.166.639-.333.957-.5l.559-.293a437.498 437.498 0 0 0 3.193-1.681c.43-.229.864-.464 1.298-.699l.5-.271a413.37 413.37 0 0 0 2.871-1.563c.632-.348 1.258-.697 1.884-1.046a373.048 373.048 0 0 0 7.379-4.217c.61-.357 1.225-.717 1.838-1.08.935-.554 1.863-1.113 2.791-1.672l.452-.272c.425-.255.85-.511 1.272-.769a434.274 434.274 0 0 0 3.045-1.882l.513-.318c.301-.186.601-.372.9-.56 1.559-.979 3.003-1.9 4.414-2.812l.036-.023.036-.024a404.7 404.7 0 0 0 4.281-2.812c.299-.199.6-.403.902-.606l.495-.334c.975-.655 1.95-1.312 2.919-1.975.39-.267.781-.538 1.171-.809l.461-.32a356.09 356.09 0 0 0 6.886-4.872 394.716 394.716 0 0 0 4.22-3.098l.236-.176c.473-.352.946-.704 1.417-1.058a382.57 382.57 0 0 0 2.588-1.966l.445-.34c.359-.274.717-.548 1.074-.823.959-.741 1.908-1.486 2.856-2.232l.482-.378c.238-.186.475-.372.711-.559a400.129 400.129 0 0 0 7.981-6.505c.253-.212.507-.427.76-.642l.446-.377c.906-.764 1.806-1.526 2.701-2.295.344-.295.689-.595 1.035-.896l.4-.347a355.423 355.423 0 0 0 3.926-3.451 389.072 389.072 0 0 0 6.142-5.588l.07-.065c.459-.427.918-.853 1.375-1.281.801-.752 1.592-1.504 2.382-2.258l.365-.347a268.247 268.247 0 0 0 3.608-3.495l.37-.361.601-.588a399.347 399.347 0 0 0 7.153-7.252c.218-.227.432-.453.646-.678l.388-.408c.821-.86 1.639-1.721 2.451-2.588.306-.327.612-.656.917-.986l.322-.348a418.02 418.02 0 0 0 2.203-2.389c.435-.476.865-.952 1.295-1.427a416.35 416.35 0 0 0 3.405-3.812c.696-.79 1.39-1.585 2.082-2.383l.112-.129c.377-.434.753-.868 1.127-1.304.721-.839 1.434-1.681 2.146-2.524l.354-.418c.254-.3.508-.6.76-.901a402.27 402.27 0 0 0 2.392-2.89l.327-.397c.164-.198.328-.396.49-.596a399.951 399.951 0 0 0 3.073-3.813l.019-.022.053-.068.583-.699.05-.101a401.188 401.188 0 0 0 9.477-12.496l.068-.093a399.553 399.553 0 0 0 8.725-12.476l.049-.073.083-.123.078-.115.016-.025a389.89 389.89 0 0 0 3.779-5.76l.298-.389.166-.333.194-.301a410.104 410.104 0 0 0 3.372-5.357l.008-.008.556-.907.004-.007.197-.32.005-.011.036-.059.112-.183.008-.012.022-.036a401.122 401.122 0 0 0 11.561-20.189l.251-.469a402.226 402.226 0 0 0 24.095-54.689l.027-.078.035-.1c.548-1.551 1.09-3.113 1.623-4.679l.056-.166a403.072 403.072 0 0 0 10.028-34.572l.039-.162.028-.116a394.4 394.4 0 0 0 1.091-4.645l.08-.352.024-.105c.346-1.519.682-3.038 1.009-4.559l.033-.153.061-.282c.339-1.584.669-3.169.988-4.756l.01-.051.029-.143a401.63 401.63 0 0 0 4.25-25.341l.035-.267.023-.178c.202-1.511.395-3.018.579-4.527l.066-.547.026-.217c.17-1.417.334-2.84.489-4.264l.093-.858c.151-1.414.295-2.831.432-4.249l.025-.254.054-.558c.14-1.484.271-2.969.394-4.456l.018-.213.03-.358c.554-6.794.937-13.685 1.14-20.478l.01-.376.006-.234c.041-1.463.076-2.927.101-4.391l.01-.692.005-.366c.019-1.32.033-2.642.039-3.964l.003-1.158v-.094c.002-1.273-.002-2.545-.013-3.819l-.012-1.3a409.824 409.824 0 0 0-.063-3.835l-.007-.344-.019-.887a421.09 421.09 0 0 0-.12-4.059l-.013-.388-.02-.598c-.058-1.574-.126-3.15-.203-4.727l-.004-.095-.009-.205c-.17-3.428-.388-6.901-.648-10.325l-.033-.415-.021-.258c-.112-1.443-.23-2.884-.358-4.325l-.078-.85-.043-.464c-.113-1.232-.23-2.465-.355-3.698-.04-.395-.082-.79-.124-1.185l-.04-.378a398.25 398.25 0 0 0-.991-8.519l-.012-.095c-.068-.53-.135-1.06-.205-1.59a398.457 398.457 0 0 0-.469-3.433l-.061-.438-.165-1.167a379.124 379.124 0 0 0-.546-3.633l-.075-.49-.138-.898c-.23-1.459-.471-2.921-.719-4.382l-.036-.218-.067-.4a402.913 402.913 0 0 0-.91-5.121l-.046-.24-.017-.09a390.983 390.983 0 0 0-.889-4.641c-.06-.303-.122-.607-.184-.911l-.108-.531a424.995 424.995 0 0 0-.726-3.532c-.089-.42-.18-.841-.271-1.261l-.107-.493a402.303 402.303 0 0 0-.707-3.22c-.142-.631-.287-1.261-.432-1.892a431.982 431.982 0 0 0-1.19-5.03 361.141 361.141 0 0 0-.761-3.067l-.027-.106c-.153-.607-.306-1.214-.462-1.821a433.4 433.4 0 0 0-.818-3.118l-.135-.51c-.119-.447-.237-.895-.359-1.342a400.86 400.86 0 0 0-.921-3.326l-.162-.582c-.096-.345-.192-.691-.29-1.036a412.269 412.269 0 0 0-1.242-4.26l-.075-.257-.119-.406a399.83 399.83 0 0 0-1.517-4.95c-.082-.261-.165-.519-.248-.776l-.163-.51a422.163 422.163 0 0 0-1.162-3.616c-.134-.409-.27-.817-.407-1.225l-.191-.57c-.344-1.034-.69-2.07-1.044-3.104-.181-.528-.365-1.056-.549-1.584l-.131-.375c-.341-.98-.685-1.961-1.034-2.94-.24-.673-.484-1.346-.728-2.019a418.967 418.967 0 0 0-1.816-4.908c-.365-.966-.734-1.929-1.107-2.892l-.103-.268c-.222-.575-.444-1.15-.67-1.724-.388-.989-.784-1.979-1.182-2.968l-.101-.252c14.076-9.835 23.517-23.429 26.37-38.253.078-.24.155-.48.227-.722.088-.293.169-.589.248-.884l.063-.234.04-.142c.05-.175.099-.351.145-.527.221-.845.405-1.618.563-2.358.031-.145.059-.291.085-.437l-.006.031c.037-.182.071-.364.105-.546l.027-.142c.167-.88.311-1.751.426-2.585.022-.139.043-.277.06-.415a51.41 51.41 0 0 0 .335-3.628c.067-1.136.098-2.1.098-3.033 0-9.867-2.895-19.722-8.372-28.5a60.622 60.622 0 0 0-1.841-2.777c-2.168-3.084-4.733-6.092-7.625-8.942a71.92 71.92 0 0 0-4.267-3.885 77.682 77.682 0 0 0-11.777-8.115 85.11 85.11 0 0 0-4.349-2.287 88.35 88.35 0 0 0-5.84-2.595 90.705 90.705 0 0 0-4.383-1.632c-7.218-2.474-14.743-4.063-22.464-4.751.49-5.573.738-11.171.738-16.732 0-25.567-5.009-50.375-14.889-73.733-9.541-22.557-23.197-42.813-40.59-60.206-17.393-17.393-37.649-31.05-60.206-40.59-23.35-9.877-48.157-14.886-73.725-14.886z" class="st0"/><path d="M790 271.571c0-30.181-31.853-54.875-70.784-54.875H80.784C41.853 216.696 10 241.39 10 271.571c0 19.901 13.853 37.411 34.448 47.034l-2.044.002C-1.947 420.777-2.44 541.131 51.297 648.532c96.357 192.583 330.589 270.59 523.173 174.233 186.559-93.343 265.598-316.071 182.765-504.984 19.659-9.776 32.765-26.859 32.765-46.21z" class="st35"/><path fill="#edc531" d="M719.82 191.356c0-99.642-80.776-180.418-180.418-180.418-55.053 0-104.339 24.666-137.432 63.541-20.24-24.248-50.682-39.684-84.736-39.684-60.938 0-110.338 49.4-110.338 110.338 0 1.004.049 1.996.076 2.994a109.473 109.473 0 0 0-17.968-1.503c-47.38 0-87.683 30.277-102.635 72.535h631.319a181.892 181.892 0 0 0 2.132-27.803z"/><path fill="#cea628" d="M688.95 138.462c-19.263-61.194-76.375-104.78-140.302-108.236-5.373-.385-12.001-.334-17.412-.062l-2.898.12-2.889.277-5.771.57c-1.913.27-6.781 1.038-8.597 1.307-4.439.882-9.698 2.02-14.093 3.28-29.404 8.134-56.383 25.405-75.747 49.005 23.351-21.301 52-36.332 83.119-42.22 5.156-.939 11.053-1.722 16.285-2.247 1.872-.097 6.352-.401 8.196-.493 11.741-.307 23.815.353 35.346 2.568 58.442 10.273 107.33 54.378 125.611 110.682 2.353 7.13 4.163 14.381 5.721 21.733-.626-12.297-2.895-24.529-6.569-36.284zM311.261 52.634c-29.049 2.611-56.215 20.886-68.121 47.642 37.556-51.836 113.869-51.176 147.304 4.155 9.948 16.703 14.246 36.932 12.122 57.302.823-2.429 1.468-4.92 2.039-7.439 1.375-6.295 1.889-12.929 1.732-19.381-1.26-48.893-46.569-87.412-95.076-82.279zm-72.576 135.062c-1.986-3.17-4.463-6.092-7.012-8.824-.765-.782-2.742-2.552-3.54-3.346l-2.537-2.039c-1.422-1.226-3.779-2.681-5.337-3.764-1.83-1.063-3.813-2.248-5.747-3.136-17.366-8.426-39.4-8.912-55.928 1.572 28.355-1.946 52.873 4.284 75.124 21.981.749.647 2.678 2.211 3.483 2.862 1.45 1.332 3.147 2.694 4.578 4.076 2.905 2.621 2.549 2.62 1.302-.893-1.069-2.865-2.74-5.901-4.386-8.489z" opacity=".5"/><g opacity=".2"><path d="M416.192 222.79H81.988c-38.784 0-70.516 24.6-70.516 54.668 0 30.067 31.732 54.668 70.516 54.668h334.204"/><path d="M383.808 222.79h334.204c38.784 0 70.516 24.6 70.516 54.668 0 30.067-31.732 54.668-70.516 54.668H383.808"/></g><path d="M416.254 216.696H80.784C41.853 216.696 10 241.39 10 271.571s31.853 54.875 70.784 54.875h335.47" class="st35"/><path d="M383.746 216.696h335.47c38.931 0 70.784 24.694 70.784 54.875s-31.853 54.875-70.784 54.875h-335.47" class="st35"/><circle cx="660.702" cy="506.189" r="11.035" class="st21" transform="rotate(-17.484 660.73 506.244)"/><path d="M187.027 643.797c-1.686 6.293 2.048 12.762 8.342 14.448 6.293 1.686 12.762-2.048 14.448-8.342 1.686-6.293-2.048-12.762-8.342-14.448-6.293-1.686-12.762 2.049-14.448 8.342z" class="st21"/><circle cx="534.463" cy="534.77" r="158.786" fill="#f1b90c"/><path d="m470.208 493.919 65.095-65.097 25.591 25.59-65.095 65.097-25.591-25.59zm-38.966 38.867 25.59-25.591 25.591 25.59-25.59 25.591-25.591-25.59zm38.228 38.459 104.28-104.283 25.591 25.59-104.28 104.283-25.591-25.59zm38.771 39.438L612.52 506.4l25.591 25.59-104.28 104.283-25.59-25.59z" class="st0"/><circle cx="267.035" cy="533.272" r="157.288" opacity=".15"/><circle cx="265.537" cy="534.77" r="158.786" fill="#33ceca"/><circle cx="265.537" cy="534.77" r="158.786" fill="#15605c" opacity=".6"/><path d="M251.904 635.472s45.482-25.204-25.777-71.717c-41.128-27.381-46.055-59.115-31.734-91.422 5.499-7.103 12.602-14.779 24.631-23.6-41.587 39.41 4.353 75.612 28.526 91.422 37.233 24.058 85.465 67.936 22.455 97.952-.115.114-9.967-.344-18.101-2.635z" class="st0"/><path d="M197.142 479.436v6.072c2.177 24.631 27.381 45.94 47.659 59.115 32.88 21.309 51.439 43.191 50.408 59.688-.573 10.998-9.28 20.278-26.235 28.526-1.146 0-3.322-.573-5.499-.573 3.781-4.353 7.676-10.998 7.676-18.559.573-16.955-13.633-35.629-42.732-54.189-32.995-22.569-43.421-48.346-31.277-80.08m21.882-30.589c-12.029 8.249-19.132 15.924-24.631 23.6-14.779 32.307-9.853 64.041 31.734 91.422 71.717 47.086 25.777 71.717 25.777 71.717 7.676 2.177 18.101 2.75 18.101 2.75 63.01-30.13 14.779-73.894-22.455-97.952-24.173-16.039-70.113-52.127-28.526-91.537z" class="st0"/><path d="M318.694 518.387c-25.777-24.631-92.568-58.542-48.231-87.641-13.748 1.031-27.152 4.812-39.41 10.998-30.703 50.408 45.482 80.997 74.467 111.7 26.235 25.777 28.526 67.936-10.998 83.746.573 0 1.146 0 1.604-.573 41.7-12.602 70.685-72.862 22.568-118.23z" class="st0"/><path d="M254.08 438.422c-2.75 3.781-3.781 8.249-4.353 12.602-.573 19.705 23.6 38.379 44.336 54.762 7.676 6.072 14.779 11.456 20.278 16.383 19.132 18.101 27.381 41.014 21.882 63.468-1.604 6.53-3.895 12.602-7.103 18.101 2.75-18.559-4.926-38.837-20.278-53.616-7.676-8.249-18.559-16.383-30.13-25.204-15.924-11.456-32.307-24.058-41.587-37.233-9.852-14.206-10.998-27.381-2.75-41.587 6.53-3.323 13.061-6.072 19.705-7.676m15.81-7.676c-13.748 1.031-27.152 4.812-39.41 10.998-30.703 50.408 45.482 80.997 74.467 111.7 26.235 25.777 28.526 67.936-10.998 83.746.573 0 1.146 0 1.604-.573 41.587-12.602 70.686-72.863 22.454-118.23-25.09-24.631-91.88-58.656-48.117-87.641z" class="st0"/><circle cx="289.623" cy="772.431" r="36.783" class="st21" transform="rotate(-45.001 289.615 772.438)"/><path d="M567.787 718.025c-12.161-3.258-24.661 3.958-27.919 16.119-3.258 12.161 3.958 24.661 16.119 27.919 12.161 3.258 24.661-3.958 27.92-16.119 3.258-12.161-3.959-24.661-16.12-27.919z" class="st21"/><circle cx="713.08" cy="383.574" r="25.748" class="st21" transform="rotate(-89.043 713.034 383.564)"/><path d="M457.864 783.185c1.58-5.896-1.919-11.957-7.815-13.537-5.896-1.58-11.957 1.919-13.537 7.815-1.58 5.896 1.919 11.957 7.815 13.537 5.897 1.581 11.957-1.918 13.537-7.815zM734.54 467.529a7.356 7.356 0 0 0 5.202 9.01 7.356 7.356 0 0 0 9.01-5.202 7.356 7.356 0 0 0-5.202-9.01 7.355 7.355 0 0 0-9.01 5.202zm-631.856-41.701c8.413-31.396-10.219-63.668-41.616-72.08a58.573 58.573 0 0 0-32.099.464 391.233 391.233 0 0 0-18.597 103.353 58.676 58.676 0 0 0 20.231 9.879c31.397 8.412 63.668-10.22 72.081-41.616zm588.667 230.605c-5.896 22.006.021 44.391 13.859 60.432 26.136-32.897 46.606-69.643 60.883-108.619-33.224-5.526-65.845 14.981-74.742 48.187zm-588.983-11.61c-17.218-4.614-34.779 1.627-45.446 14.517l.002.003a412.069 412.069 0 0 0 2.589 4.724l.029.051a390.906 390.906 0 0 0 29.025 44.659l.133.176a388.39 388.39 0 0 0 3.002 3.935l.259.334a372.177 372.177 0 0 0 2.937 3.743l.323.406a390.382 390.382 0 0 0 6.338 7.749l.217.259a388.27 388.27 0 0 0 3.317 3.891l.001.001c13.492-4.579 24.524-15.591 28.488-30.387 6.307-23.548-7.667-47.752-31.214-54.061z" class="st21"/></svg>