<svg xmlns="http://www.w3.org/2000/svg" xml:space="preserve" id="Layer_1" x="0" y="0" version="1.1" viewBox="0 0 800 875"><style>.st0{fill:#fff}.st24{fill:#5c6e9e}.st25{fill:#455377}.st103{fill:#31c67e}.st105{fill:#fefefe}</style><path d="M398.521 868.555a412.134 412.134 0 0 1-4.003-.038l-1.01-.017a378.09 378.09 0 0 1-4.117-.093l-.873-.024a395.02 395.02 0 0 1-4.326-.154l-.642-.025a380.108 380.108 0 0 1-4.682-.228l-.267-.014a396.176 396.176 0 0 1-40.347-4.321l-.208-.033a387.75 387.75 0 0 1-4.746-.788l-.314-.056a370.899 370.899 0 0 1-4.651-.834l-.339-.062a383.103 383.103 0 0 1-4.647-.895l-.278-.056a412.408 412.408 0 0 1-4.754-.979l-.202-.044a397.108 397.108 0 0 1-84.443-28.192 396.501 396.501 0 0 1-20.988-10.512 396.05 396.05 0 0 1-44.976-28.28l-.06-.044a397.219 397.219 0 0 1-7.049-5.25l-.114-.087a393.61 393.61 0 0 1-40.268-35.324l-.112-.111a400.409 400.409 0 0 1-6.14-6.325l-.14-.148a395.582 395.582 0 0 1-6.047-6.522l-.142-.156a395.566 395.566 0 0 1-7.946-9.058h-.021l-1.456-1.747a389.53 389.53 0 0 1-3.062-3.689l-1.16-1.16v-.263c-.76-.936-1.511-1.869-2.257-2.806l-.279-.351-.351-.395-.057-.119a427.982 427.982 0 0 1-2.469-3.148l-.188-.241a386.335 386.335 0 0 1-3.051-3.992l-.304-.285-.175-.348a399.376 399.376 0 0 1-7.675-10.58l-.232-.334a393.438 393.438 0 0 1-10.698-16.138l-.965-.954-.001-.591a392.576 392.576 0 0 1-4.339-7.146l-.259-.435a405.229 405.229 0 0 1-4.933-8.586l-.095-.128-.128-.27a395.83 395.83 0 0 1-2.469-4.503l-.062-.105-.068-.137a419.663 419.663 0 0 1-2.709-5.11l-.201-.383a425.382 425.382 0 0 1-2.678-5.239l-.042-.072-.075-.162a397.353 397.353 0 0 1-3.108-6.371l-.846-1.786a393.632 393.632 0 0 1-2.474-5.339l-.579-1.267a400.986 400.986 0 0 1-2.845-6.477l-.658-1.556c-.74-1.745-1.469-3.5-2.185-5.257l-.679-1.669a404.817 404.817 0 0 1-2.58-6.576l-.288-.771a383.76 383.76 0 0 1-2.189-5.926l-.614-1.716a385.366 385.366 0 0 1-2.132-6.145l-.191-.56a398.016 398.016 0 0 1-2.188-6.734l-.473-1.519a410.33 410.33 0 0 1-1.725-5.689l-.371-1.257a388.562 388.562 0 0 1-1.924-6.838l-.251-.943c-.54-2.01-1.062-4.015-1.566-6.022l-.358-1.428a396.243 396.243 0 0 1-3.169-13.857l-.271-1.309c-.447-2.169-.878-4.34-1.288-6.511l-.088-.463a380.14 380.14 0 0 1-1.268-7.142l-.141-.859a406.363 406.363 0 0 1-1.014-6.442l-.128-.879a393.875 393.875 0 0 1-1.83-14.365l-.1-.923a392.77 392.77 0 0 1-1.27-14.468l-.043-.638a399.954 399.954 0 0 1-.418-7.12l-.005-.108a394.356 394.356 0 0 1-.442-14.859l-.005-.449c-.049-4.854-.004-9.819.133-14.745l.01-.381a396.418 396.418 0 0 1 2.837-37.228l.018-.14a399.23 399.23 0 0 1 2.065-14.432v-.053l.04-.213.007-.083.037-.17.076-.461c.306-1.857.625-3.713.957-5.565v-.417l.146-.39c.266-1.462.539-2.923.821-4.382l.042-.214c.292-1.517.606-3.088.93-4.657l.038-.181c.323-1.566.658-3.14 1.003-4.712l4.419.858-4.396-.965a399.554 399.554 0 0 1 2.645-11.258l.115-.524.031-.062c.355-1.407.712-2.786 1.074-4.163l.059-.219a378.16 378.16 0 0 1 1.234-4.563l.066-.239c.415-1.495.852-3.032 1.297-4.565l.055-.185c.977-3.36 2.037-6.83 3.131-10.242l.193-.603.056-.265.102-.222c.447-1.381.902-2.76 1.365-4.136l.091-.27c.545-1.62 1.104-3.244 1.673-4.864l.178-.508c.542-1.534 1.09-3.055 1.646-4.573l.279-.765c.525-1.423 1.06-2.84 1.6-4.255l.386-1.016c.515-1.335 1.037-2.66 1.563-3.984l.483-1.223a416.58 416.58 0 0 1 1.324-3.248c-14.86-9.342-24.815-22.88-27.57-37.668a48.05 48.05 0 0 1-.624-2.101l-.1-.351a48.16 48.16 0 0 1-.585-2.533l-.17-.864a24.049 24.049 0 0 1-.104-.535 49.171 49.171 0 0 1-.278-1.819l-.019-.127c-.084-.63-.15-1.252-.208-1.876a103.268 103.268 0 0 1-.153-2.232 49.097 49.097 0 0 1-.045-2.062c0-9.153 2.587-17.94 7.69-26.118a54.7 54.7 0 0 1 1.705-2.572 60.475 60.475 0 0 1 5.978-7.215 67.203 67.203 0 0 1 6.037-5.493 73.015 73.015 0 0 1 7.566-5.353 77.45 77.45 0 0 1 6.226-3.459 83.011 83.011 0 0 1 9.048-3.855c9.818-3.522 20.26-5.309 31.032-5.309h3.455c8.255-19.986 21.952-37.081 39.766-49.581 19.104-13.406 41.579-20.492 64.998-20.492 4.43 0 8.922.271 13.413.808 1.176-62.312 52.23-112.637 114.818-112.637 32.387 0 62.979 13.547 84.739 37.35C437.06 28.688 486.85 6.446 539.4 6.446c101.964 0 184.918 82.954 184.918 184.918 0 6.96-.396 13.975-1.18 20.92 8.954.365 17.666 1.981 25.947 4.82a85.706 85.706 0 0 1 9.701 4.011 80.337 80.337 0 0 1 5.656 3.054 73.282 73.282 0 0 1 9.562 6.756 67.26 67.26 0 0 1 3.998 3.641c2.701 2.663 5.091 5.463 7.102 8.325a54.993 54.993 0 0 1 1.706 2.572c5.102 8.175 7.688 16.963 7.688 26.116 0 .847-.028 1.727-.09 2.769l-.041.63a45.42 45.42 0 0 1-.265 2.685l-.046.307c-.119.86-.251 1.651-.401 2.437l-.188.98a45.965 45.965 0 0 1-.52 2.174l-.237.863c-.068.255-.138.51-.214.764-.078.262-.162.519-.246.775l-.038.117c-2.755 14.783-12.704 28.319-27.56 37.661.246.593.491 1.187.732 1.78l.751 1.863c.393.977.783 1.955 1.169 2.935l.751 1.933a370.612 370.612 0 0 1 1.856 4.897c.353.951.702 1.901 1.047 2.853.241.665.482 1.33.719 1.996.346.966.685 1.935 1.021 2.904 0 0 .467 1.338.672 1.938.351 1.022.691 2.045 1.033 3.068l.592 1.778c.39 1.189.771 2.382 1.148 3.575l.405 1.267a376.09 376.09 0 0 1 1.5 4.896l.192.657a405.97 405.97 0 0 1 1.229 4.211l.449 1.604c.306 1.093.612 2.188.909 3.286.124.453.488 1.831.488 1.831.273 1.025.545 2.053.811 3.082l.482 1.904c.255 1.008.506 2.019.752 3.029l.461 1.916c.243 1.019.481 2.038.716 3.058l.428 1.871c.238 1.063.47 2.124.698 3.186l.374 1.731c.246 1.165.483 2.329.719 3.493l.289 1.43c.303 1.525.595 3.055.879 4.585l.064.342c.31 1.672.608 3.361.898 5.051l.1.601c.245 1.452.483 2.896.712 4.34l.21 1.373c.184 1.193.365 2.391.539 3.588l.224 1.591c.159 1.128.315 2.259.464 3.39l.215 1.663c.143 1.118.28 2.235.411 3.351l.193 1.649c.131 1.144.255 2.286.375 3.427l.161 1.543c.124 1.22.24 2.439.353 3.658l.12 1.295c.126 1.429.243 2.853.354 4.275l.054.67c.257 3.385.472 6.817.64 10.201l.014.299c.076 1.562.143 3.12.2 4.677l.032.977c.047 1.335.087 2.673.119 4.011l.025 1.226c.027 1.253.048 2.519.063 3.783l.012 1.281c.01 1.264.015 2.522.013 3.779l-.003 1.239c-.006 1.306-.02 2.611-.038 3.917l-.016 1.048a390.854 390.854 0 0 1-.1 4.339l-.016.604a394.964 394.964 0 0 1-1.127 20.251l-.048.567a392.1 392.1 0 0 1-.39 4.399l-.077.8a411.783 411.783 0 0 1-.427 4.201l-.092.846a383.624 383.624 0 0 1-.484 4.223l-.091.751a374.817 374.817 0 0 1-.572 4.476l-.057.436a398.605 398.605 0 0 1-4.205 25.067l-.022.113a392.823 392.823 0 0 1-.993 4.777l-.098.45a370.524 370.524 0 0 1-.993 4.487l-.103.454c-.351 1.53-.709 3.059-1.078 4.586l-.069.291a398.458 398.458 0 0 1-9.906 34.154l-.063.184a390.957 390.957 0 0 1-1.607 4.637l-.062.174a397.745 397.745 0 0 1-23.821 54.066l-.242.453a398.265 398.265 0 0 1-11.153 19.508v.754l-1.016.904a405.081 405.081 0 0 1-3.274 5.215l-.916 1.427a400.049 400.049 0 0 1-3.746 5.709l-.262.435-.086.081a394.75 394.75 0 0 1-8.498 12.142l-.061.084a395.445 395.445 0 0 1-9.618 12.669l-.093.195-.317.331-.065.089-.053.049a419.855 419.855 0 0 1-2.958 3.672l-.81.98c-.783.954-1.569 1.907-2.362 2.855l-1.1 1.302c-.706.837-1.413 1.67-2.125 2.499-.407.475-.819.949-1.23 1.422a356.51 356.51 0 0 1-2.056 2.354l-1.279 1.444a386.6 386.6 0 0 1-5.543 6.094l-1.224 1.316c-.802.856-1.612 1.709-2.423 2.56l-1.021 1.072a396.754 396.754 0 0 1-7.073 7.172l-.959.937a355.63 355.63 0 0 1-2.636 2.567l-1.293 1.234a298.034 298.034 0 0 1-3.786 3.564 417.618 417.618 0 0 1-3.755 3.445c-.771.696-1.542 1.39-2.315 2.078-.492.438-.984.877-1.479 1.312-.793.7-1.597 1.4-2.401 2.098l-1.417 1.228c-.888.764-1.778 1.518-2.671 2.27l-1.188 1.005a390.384 390.384 0 0 1-7.894 6.433l-1.184.93a405.69 405.69 0 0 1-2.822 2.206l-1.503 1.15c-.85.65-1.7 1.298-2.555 1.941-.549.412-1.094.818-1.64 1.223-.822.613-1.651 1.226-2.484 1.835l-1.685 1.227c-.837.605-1.674 1.205-2.514 1.804l-1.68 1.191c-.871.612-1.743 1.218-2.615 1.822l-1.618 1.117a372.01 372.01 0 0 1-2.884 1.952l-1.379.928a391.038 391.038 0 0 1-4.157 2.73l-.212.138c-1.384.896-2.84 1.823-4.304 2.743l-1.395.866c-.999.623-2.002 1.245-3.009 1.859l-1.704 1.03a366.275 366.275 0 0 1-7.281 4.291 443.888 443.888 0 0 1-6.461 3.636c-.939.518-1.887 1.031-2.836 1.543 0 0-1.317.714-1.781.961-1.046.559-2.1 1.111-3.155 1.662l-1.495.782a400.107 400.107 0 0 1-9.446 4.728l-1.543.734c-1.065.511-2.14 1.026-3.217 1.53l-2.054.947c-.908.419-1.816.838-2.727 1.25l-2.21.985c-.863.384-1.727.769-2.592 1.146-.593.259-2.043.881-2.043.881-.921.395-1.842.79-2.766 1.178-.691.291-1.391.581-2.09.87-.912.378-1.824.753-2.737 1.123-.702.285-1.403.565-2.104.845a422.183 422.183 0 0 1-4.846 1.896 485.779 485.779 0 0 1-4.859 1.828c-.94.347-1.88.688-2.82 1.025 0 0-1.411.508-2.05.734-.955.338-1.916.67-2.878 1.003l-1.995.686c-1 .34-1.999.67-2.998.999l-1.882.621c-1.074.349-2.15.689-3.228 1.027 0 0-1.269.403-1.668.527-1.233.383-2.476.758-3.719 1.13l-1.178.355c-3.281.972-6.63 1.916-9.947 2.803l-.796.208c-1.373.365-2.757.727-4.143 1.078l-1.39.345a392.15 392.15 0 0 1-3.558.876l-1.619.381c-1.119.263-2.234.523-3.351.776l-1.719.381c-1.085.24-2.169.478-3.254.709l-1.772.37c-1.074.223-2.149.443-3.226.657l-1.771.348c-1.08.209-2.159.414-3.239.615l-1.751.32c-1.093.198-2.186.39-3.277.578l-1.706.29c-1.123.188-2.243.369-3.364.547l-1.621.255c-1.164.18-2.33.352-3.495.521l-1.479.214c-1.247.176-2.49.343-3.732.506l-1.245.165c-1.376.176-2.751.342-4.126.503l-.858.103a393.987 393.987 0 0 1-20.357 1.805l-.196.011c-1.583.099-3.2.188-4.816.269l-.658.029c-1.456.07-2.907.133-4.358.187l-.92.03c-1.361.047-2.733.088-4.103.121l-1.041.021c-1.328.028-2.663.051-3.998.066l-1.077.009c-1.137.009-2.272.014-3.408.014l-1.638-.005z" class="st0"/><path d="M539.401 10.941c99.642 0 180.418 80.776 180.418 180.418a181.8 181.8 0 0 1-1.776 25.341h1.173c10.093 0 19.702 1.672 28.412 4.656a80.39 80.39 0 0 1 9.182 3.796 75.245 75.245 0 0 1 5.336 2.882 68.549 68.549 0 0 1 8.97 6.337 62.138 62.138 0 0 1 3.729 3.396c2.454 2.418 4.668 4.989 6.579 7.707a52.298 52.298 0 0 1 1.568 2.365c4.488 7.193 7.008 15.247 7.008 23.736 0 .84-.034 1.674-.083 2.505-.011.191-.022.383-.036.574a42.339 42.339 0 0 1-.24 2.425c-.015.114-.035.226-.051.34-.099.717-.218 1.43-.353 2.138-.036.188-.07.377-.108.565-.023.113-.041.226-.065.339a43.395 43.395 0 0 1-.467 1.955c-.048.185-.103.369-.154.554-.085.309-.165.619-.257.926-.097.323-.205.643-.309.964l-.039.129c-2.719 15.13-13.499 28.322-28.846 36.874l.267.629c.218.515.429 1.032.645 1.548.442 1.058.883 2.116 1.315 3.175.25.614.495 1.229.742 1.843.389.967.776 1.934 1.156 2.903.255.648.505 1.297.756 1.946a389.542 389.542 0 0 1 1.822 4.805 382.712 382.712 0 0 1 2.757 7.666c.222.638.445 1.276.664 1.915a372.81 372.81 0 0 1 1.021 3.035c.195.584.392 1.168.584 1.753.386 1.177.762 2.355 1.136 3.534.133.42.27.838.402 1.258a389.16 389.16 0 0 1 1.482 4.836c.065.217.126.433.19.65.412 1.387.818 2.774 1.214 4.163.15.527.295 1.055.443 1.582.304 1.083.606 2.166.901 3.25.163.603.322 1.206.482 1.809.27 1.016.539 2.032.8 3.048.161.627.319 1.255.478 1.882a409.375 409.375 0 0 1 1.2 4.889 401.22 401.22 0 0 1 1.82 8.02c.124.571.249 1.143.37 1.715.243 1.15.478 2.301.71 3.452.095.47.193.94.286 1.41.299 1.511.588 3.022.869 4.534l.062.323c.308 1.669.605 3.339.89 5.009.034.2.065.4.099.599.242 1.428.477 2.856.703 4.284.071.451.138.903.208 1.354.183 1.184.362 2.367.533 3.551.076.523.148 1.046.221 1.57.157 1.118.311 2.235.458 3.353.072.549.142 1.098.212 1.647.14 1.102.276 2.204.407 3.306.065.545.128 1.09.191 1.635.129 1.128.252 2.255.371 3.383.054.51.108 1.019.16 1.529.122 1.205.237 2.41.347 3.614.039.428.081.856.119 1.284.125 1.408.24 2.817.35 4.225.017.22.037.44.053.66.255 3.363.466 6.725.633 10.086l.013.298c.075 1.54.141 3.081.198 4.62.012.321.021.642.032.963.045 1.322.085 2.644.118 3.965.01.402.017.804.025 1.206a426.086 426.086 0 0 1 .074 5.018c.01 1.244.014 2.488.012 3.732-.001.408-.001.817-.003 1.225a384.585 384.585 0 0 1-.038 3.874c-.005.345-.009.69-.015 1.034a383.353 383.353 0 0 1-.098 4.291l-.016.596a388.943 388.943 0 0 1-1.114 20.019l-.047.555a421.453 421.453 0 0 1-.385 4.355l-.077.792a384.394 384.394 0 0 1-.992 9.162l-.089.744c-.18 1.475-.369 2.949-.566 4.421l-.058.439a391.78 391.78 0 0 1-4.156 24.776l-.038.185a382.898 382.898 0 0 1-.966 4.648l-.092.427c-.32 1.487-.649 2.972-.986 4.456l-.103.449a387.517 387.517 0 0 1-1.065 4.535l-.066.276a392.505 392.505 0 0 1-9.797 33.778l-.061.18c-.52 1.531-1.05 3.059-1.59 4.584l-.058.164a391.924 391.924 0 0 1-23.555 53.464l-.243.456-.001.001a390.813 390.813 0 0 1-11.301 19.734l-.002.003-.377.617-.001.002a388.456 388.456 0 0 1-3.838 6.115l-.45.699-.002.003a388.564 388.564 0 0 1-3.957 6.035l-.005.007-.149.22a387.21 387.21 0 0 1-8.534 12.202l-.001.001-.06.082a387.256 387.256 0 0 1-9.826 12.924l-.004.006a.012.012 0 0 1-.005.005l-.001.002a397.146 397.146 0 0 1-3.12 3.874c-.264.324-.532.645-.797.968-.775.944-1.553 1.887-2.337 2.824-.361.431-.726.86-1.089 1.29a350.248 350.248 0 0 1-5.347 6.199 369.802 369.802 0 0 1-6.745 7.454c-.403.434-.804.869-1.209 1.302-.794.847-1.594 1.689-2.396 2.53-.336.353-.67.708-1.009 1.06a385.987 385.987 0 0 1-6.992 7.089c-.314.31-.632.617-.947.926-.865.849-1.731 1.695-2.605 2.536-.425.409-.853.814-1.28 1.221-.772.737-1.546 1.472-2.325 2.203-.469.441-.942.879-1.414 1.317a343.738 343.738 0 0 1-3.717 3.409 449.597 449.597 0 0 1-3.745 3.348c-.789.695-1.582 1.386-2.377 2.076-.468.406-.934.813-1.405 1.217-.874.751-1.754 1.496-2.636 2.24-.394.332-.785.667-1.18.998a387.93 387.93 0 0 1-7.797 6.355c-.388.308-.78.612-1.169.918a400.53 400.53 0 0 1-2.791 2.181c-.494.381-.991.759-1.487 1.139-.84.643-1.681 1.284-2.527 1.92-.536.404-1.076.805-1.615 1.206a371.425 371.425 0 0 1-6.611 4.81c-.553.394-1.106.787-1.661 1.179-.858.604-1.721 1.204-2.586 1.802-.531.368-1.062.737-1.595 1.102-.947.648-1.899 1.29-2.853 1.931-.456.306-.909.615-1.366.92a391.361 391.361 0 0 1-4.21 2.765l-.045.03c-1.431.925-2.87 1.841-4.316 2.75-.458.288-.92.571-1.38.857-.989.616-1.978 1.23-2.974 1.838-.56.342-1.125.68-1.687 1.019-.907.547-1.815 1.094-2.728 1.635-.598.354-1.199.706-1.8 1.058a412.054 412.054 0 0 1-4.518 2.606c-.896.509-1.795 1.014-2.696 1.516-.613.341-1.225.683-1.84 1.022-.932.513-1.869 1.021-2.806 1.527-.587.317-1.172.636-1.761.95a400.535 400.535 0 0 1-3.119 1.642c-.495.258-.986.52-1.482.776a421.564 421.564 0 0 1-4.647 2.366c-1.562.781-3.126 1.55-4.693 2.308-.505.244-1.011.481-1.517.723-1.062.508-2.124 1.017-3.188 1.515-.611.286-1.223.564-1.835.847-.963.445-1.927.89-2.892 1.326-.649.294-1.3.581-1.95.87-.931.415-1.862.829-2.794 1.236-.673.294-1.347.581-2.021.871a334.777 334.777 0 0 1-4.801 2.025 394.714 394.714 0 0 1-4.791 1.947 413.176 413.176 0 0 1-4.791 1.874 366.91 366.91 0 0 1-4.803 1.807c-.927.342-1.856.678-2.784 1.013-.676.243-1.351.487-2.027.726-.948.335-1.897.664-2.847.992-.658.227-1.316.456-1.974.679-.986.335-1.974.661-2.962.987-.62.205-1.239.412-1.859.613-1.061.344-2.124.68-3.187 1.015-.549.173-1.098.35-1.647.52-1.226.38-2.453.75-3.68 1.118-.387.116-.774.236-1.161.351a388.626 388.626 0 0 1-9.838 2.772c-.259.069-.519.135-.778.203a381.11 381.11 0 0 1-4.105 1.068c-.458.116-.917.227-1.375.341-1.172.293-2.345.584-3.519.866-.533.128-1.067.251-1.6.376-1.103.26-2.206.518-3.311.767-.565.128-1.131.251-1.697.376a411.4 411.4 0 0 1-3.219.701c-.583.124-1.167.244-1.75.366-1.063.221-2.126.438-3.189.65-.583.116-1.167.229-1.75.343a354.168 354.168 0 0 1-4.935.926 407.295 407.295 0 0 1-4.928.858c-1.107.185-2.215.365-3.323.54-.533.085-1.066.17-1.599.252a374.69 374.69 0 0 1-3.459.515c-.488.071-.976.143-1.464.212-1.228.173-2.457.338-3.686.499-.411.054-.821.11-1.232.163-1.36.174-2.72.338-4.08.498-.282.033-.563.069-.845.101a388.23 388.23 0 0 1-25.08 2.06c-.218.011-.437.019-.655.03-1.435.069-2.869.131-4.304.183l-.902.03c-1.355.047-2.709.087-4.063.12l-1.023.021c-1.32.028-2.639.051-3.958.065l-1.064.01c-1.092.009-2.182.014-3.273.014l-.653-.001a401.854 401.854 0 0 1-10.094-.15l-.857-.024a380.845 380.845 0 0 1-4.281-.153c-.213-.009-.427-.016-.64-.026a395.054 395.054 0 0 1-4.907-.24 390.248 390.248 0 0 1-39.866-4.27l-.198-.032a390.064 390.064 0 0 1-4.7-.781l-.299-.052a396.528 396.528 0 0 1-9.539-1.774l-.277-.055a376.034 376.034 0 0 1-4.698-.968l-.145-.03a392.242 392.242 0 0 1-83.541-27.885 391.277 391.277 0 0 1-20.748-10.392l-.001-.001a389.75 389.75 0 0 1-44.462-27.958l-.04-.029a385.602 385.602 0 0 1-6.987-5.204l-.112-.085a383.87 383.87 0 0 1-6.878-5.37l-.035-.029a387.348 387.348 0 0 1-32.893-29.519l-.11-.11a385.688 385.688 0 0 1-6.071-6.254l-.199-.21a389.676 389.676 0 0 1-5.916-6.383l-.165-.183a387.907 387.907 0 0 1-9.17-10.507l-.002-.003-.103-.123a380.82 380.82 0 0 1-3.184-3.837l-.001-.002-.094-.116a401.702 401.702 0 0 1-3.167-3.923l-.008-.01-.168-.212-.152-.191-.004-.005a383.19 383.19 0 0 1-2.934-3.74l-.001-.002-.03-.038a385.682 385.682 0 0 1-3.231-4.231l-.133-.176-.001-.002a386.437 386.437 0 0 1-7.73-10.653l-.01-.015-.018-.026a391.82 391.82 0 0 1-5.6-8.222l-.006-.009a390.602 390.602 0 0 1-5.403-8.385l-.006-.009-.002-.003a393.238 393.238 0 0 1-5.217-8.571l-.005-.009c-1.706-2.885-3.38-5.8-5.02-8.743l-.004-.007-.026-.047a390.056 390.056 0 0 1-2.591-4.727l-.003-.005-.001-.002a395.767 395.767 0 0 1-2.702-5.097l-.208-.397a385.834 385.834 0 0 1-2.701-5.289l-.013-.025-.008-.016a392.425 392.425 0 0 1-3.105-6.364c-.281-.588-.559-1.177-.837-1.766a397.615 397.615 0 0 1-2.445-5.276c-.191-.421-.387-.841-.577-1.262a395.125 395.125 0 0 1-2.809-6.395c-.219-.51-.432-1.022-.649-1.533a388.659 388.659 0 0 1-2.162-5.204c-.224-.549-.449-1.098-.67-1.648a387.091 387.091 0 0 1-2.551-6.503c-.096-.253-.188-.507-.284-.76a398.097 398.097 0 0 1-2.773-7.558 386.362 386.362 0 0 1-2.107-6.073c-.06-.179-.124-.358-.184-.537a389.777 389.777 0 0 1-2.167-6.674c-.158-.501-.312-1.003-.469-1.504a381.658 381.658 0 0 1-1.704-5.624c-.122-.412-.246-.825-.366-1.237a384.662 384.662 0 0 1-1.902-6.761c-.085-.312-.165-.624-.249-.937a396.876 396.876 0 0 1-1.547-5.948c-.118-.468-.237-.936-.353-1.404a384.88 384.88 0 0 1-3.134-13.707l-.268-1.294a389.051 389.051 0 0 1-1.273-6.436l-.084-.435c-.442-2.359-.859-4.72-1.256-7.081-.048-.283-.092-.566-.139-.849a375.88 375.88 0 0 1-1.001-6.369c-.043-.292-.089-.583-.131-.875a389.81 389.81 0 0 1-1.809-14.194l-.098-.912a387.513 387.513 0 0 1-1.71-21.971l-.006-.108a387.776 387.776 0 0 1-.442-15.119c-.048-4.87-.004-9.734.131-14.591l.01-.36a389.455 389.455 0 0 1 2.805-36.82l.017-.139a391.232 391.232 0 0 1 2.099-14.618l.001-.005.005-.031.002-.014c.351-2.152.72-4.3 1.106-6.445l.003-.019.001-.008c.285-1.578.579-3.154.883-4.727l.03-.156a387.9 387.9 0 0 1 .932-4.661l.034-.167a391.567 391.567 0 0 1 1.018-4.777 393.77 393.77 0 0 1 2.622-11.163l.013-.053.003-.011c.385-1.535.78-3.068 1.183-4.598l.051-.195c.4-1.513.809-3.024 1.227-4.533l.054-.194c.422-1.522.854-3.041 1.294-4.557l.033-.113a392.772 392.772 0 0 1 3.142-10.272c.08-.248.158-.497.239-.745l.004-.013c.468-1.447.945-2.891 1.429-4.332l.087-.26a396.805 396.805 0 0 1 1.658-4.818l.178-.509a378.772 378.772 0 0 1 1.625-4.513c.092-.252.183-.505.276-.757a393.908 393.908 0 0 1 1.582-4.206c.128-.336.253-.672.383-1.008a391.225 391.225 0 0 1 1.544-3.935c.16-.402.316-.806.477-1.207a376.933 376.933 0 0 1 1.571-3.841c.169-.408.333-.818.503-1.226.242-.579.491-1.156.736-1.734-15.352-8.552-26.136-21.746-28.856-36.879l-.023-.078a44.09 44.09 0 0 1-.632-2.11c-.023-.086-.051-.171-.073-.257l-.018-.062a43.628 43.628 0 0 1-.647-2.899c-.042-.223-.092-.443-.131-.667a42.907 42.907 0 0 1-.251-1.645l-.02-.13a44.614 44.614 0 0 1-.185-1.683c-.023-.257-.04-.515-.058-.772a41.072 41.072 0 0 1-.04-.606c-.013-.215-.033-.429-.042-.645a42.518 42.518 0 0 1-.04-1.858c0-8.489 2.52-16.543 7.008-23.736a52.298 52.298 0 0 1 1.568-2.365 55.874 55.874 0 0 1 5.534-6.678 62.338 62.338 0 0 1 5.63-5.121 68.458 68.458 0 0 1 7.1-5.023 73.257 73.257 0 0 1 5.87-3.261 78.45 78.45 0 0 1 8.559-3.647c8.998-3.228 18.993-5.045 29.515-5.045h6.51c15.626-40.963 55.258-70.072 101.709-70.072 6.124 0 12.121.531 17.969 1.503-.027-.997-.076-1.99-.076-2.994 0-60.938 49.4-110.338 110.338-110.338 34.055 0 64.496 15.436 84.736 39.684 33.09-38.877 82.375-63.543 137.428-63.543m0-9c-52.206 0-101.75 21.427-137.478 59.13-22.345-22.532-52.674-35.273-84.69-35.273-31.876 0-61.845 12.413-84.385 34.953-20.846 20.846-33.031 48.049-34.744 77.236-3.049-.239-6.089-.36-9.102-.36-24.348 0-47.719 7.368-67.583 21.308-17.686 12.411-31.47 29.18-40.148 48.764h-.487c-11.292 0-22.245 1.875-32.554 5.573a87.725 87.725 0 0 0-12.243 5.473 82.198 82.198 0 0 0-3.875 2.248 77.56 77.56 0 0 0-8.032 5.684 71.367 71.367 0 0 0-6.442 5.865 64.967 64.967 0 0 0-6.424 7.755 62.323 62.323 0 0 0-1.841 2.777C3.895 251.852 1 261.708 1 271.575c0 .75.016 1.507.049 2.25.01.218.024.431.04.644l.01.136c.014.246.031.496.049.747l.01.149c.018.258.036.515.06.772.067.737.141 1.404.224 2.041.012.094.024.174.036.25.094.69.189 1.312.292 1.899.038.216.081.435.126.654l.031.153a52.339 52.339 0 0 0 .783 3.497l.034.132.028.094.062.214c.174.639.366 1.291.582 1.974 2.85 14.834 12.297 28.437 26.384 38.276l-.243.616-.189.479a390.167 390.167 0 0 0-1.578 4.023l-.252.662-.143.378a393.935 393.935 0 0 0-1.614 4.293l-.168.462-.115.315a414.11 414.11 0 0 0-1.662 4.617l-.125.358-.06.171a403.63 403.63 0 0 0-1.692 4.918l-.048.143-.039.117a383.109 383.109 0 0 0-1.439 4.362l-.089.259-.024.092-.076.237-.084.264-.034.105a400.03 400.03 0 0 0-3.179 10.402l-.027.094a401.593 401.593 0 0 0-1.331 4.683l-.054.195a414.243 414.243 0 0 0-1.256 4.641l-.036.135-.018.069a388.53 388.53 0 0 0-1.201 4.667l-.003.012-.013.052-.017.068a399.458 399.458 0 0 0-2.674 11.386l-.016.074a404.323 404.323 0 0 0-1.025 4.811l-.032.158c-.33 1.599-.647 3.189-.956 4.78l-.016.086-.014.074a398.045 398.045 0 0 0-.881 4.71l-.028.133-.02.134a405.063 405.063 0 0 0-1.059 6.159l-.001.004-.057.351-.006.034-.001.009a404.56 404.56 0 0 0-2.144 14.933v.001l-.009.071-.012.095a400.4 400.4 0 0 0-2.867 37.647l-.002.062-.009.32a398.87 398.87 0 0 0-.133 14.914l.004.343.001.107c.055 5.023.205 10.08.447 15.019l.005.1c.115 2.326.257 4.751.423 7.221l.013.204.029.439c.334 4.836.766 9.759 1.284 14.628l.082.757.019.173a398.17 398.17 0 0 0 1.851 14.526l.081.541.053.354c.324 2.182.669 4.375 1.025 6.518l.054.332.089.539a406.13 406.13 0 0 0 1.285 7.243l.057.295.029.151a389.15 389.15 0 0 0 1.302 6.585l.274 1.322c.982 4.681 2.061 9.4 3.208 14.027.097.393.197.787.296 1.182l.065.258c.52 2.066 1.053 4.113 1.583 6.084l.093.35.162.609a397.06 397.06 0 0 0 1.946 6.917c.077.266.156.532.236.798l.14.47c.56 1.899 1.146 3.835 1.742 5.752l.136.438c.114.368.228.736.344 1.104a385.41 385.41 0 0 0 2.217 6.825l.121.354.067.196a385.397 385.397 0 0 0 2.778 7.95c.761 2.11 1.486 4.071 2.215 5.996l.111.297.18.481a395.704 395.704 0 0 0 3.107 7.875l.189.463a405.42 405.42 0 0 0 2.211 5.322l.234.555c.142.337.284.673.428 1.01.957 2.23 1.923 4.431 2.874 6.544.12.266.24.529.362.793l.229.5a397.433 397.433 0 0 0 2.5 5.395l.039.083a410.429 410.429 0 0 0 3.975 8.196l.021.042.01.019.008.016.02.038a393.067 393.067 0 0 0 2.744 5.371l.134.256.08.153a418.722 418.722 0 0 0 2.573 4.859v.001l.06.111.064.118.187.375.079.119a385.504 385.504 0 0 0 2.453 4.468l.001.002.231.425.03.043a405.909 405.909 0 0 0 4.821 8.39l.006.011.074.126.075.127.001.002a405.187 405.187 0 0 0 5.003 8.227l.449.93.36.36a401.93 401.93 0 0 0 4.97 7.693l.01.015.015.022a401.109 401.109 0 0 0 5.727 8.41l.02.029.027.038.004.006a401.624 401.624 0 0 0 7.736 10.668l.004.005.156.207.091.12.044.059a402.96 402.96 0 0 0 3.286 4.303l.005.007.043.056a417.548 417.548 0 0 0 3.001 3.825l.119.15.042.063.199.242.081.102.004.004a396.868 396.868 0 0 0 3.136 3.882l.054.066.29.363.038.038a391.92 391.92 0 0 0 2.668 3.216l.004.007.409.486a398.18 398.18 0 0 0 9.383 10.752l.174.192a395.412 395.412 0 0 0 6.049 6.527l.135.142.065.069a397.476 397.476 0 0 0 6.216 6.403l.109.11a397.837 397.837 0 0 0 33.645 30.196l.012.01.039.031a398.636 398.636 0 0 0 7.037 5.494l5.515-7.113-5.467 7.149.081.062a402.878 402.878 0 0 0 7.134 5.314l.027.02.032.023a400.27 400.27 0 0 0 44.622 28.132l.004.004.846.456a402.407 402.407 0 0 0 21.225 10.631 401.819 401.819 0 0 0 85.458 28.525l.1.021c1.648.35 3.25.68 4.854 1l.283.056c1.569.312 3.14.615 4.713.908l.329.062c1.575.292 3.146.574 4.719.846l.302.053c1.604.276 3.207.543 4.812.799l.174.028a401.323 401.323 0 0 0 40.813 4.373l.183.01.112.006c1.572.086 3.149.163 4.726.23l.402.016.246.01c1.466.06 2.926.112 4.386.156l.533.015.337.009c1.395.039 2.785.07 4.175.095l1.018.016c1.353.02 2.703.033 4.054.039l1.091.004.666.001c1.116 0 2.231-.005 3.347-.014l.162-.001.929-.008c1.346-.015 2.697-.038 4.048-.066l.313-.006.73-.016a382.8 382.8 0 0 0 4.164-.123l.344-.011.575-.019c1.469-.054 2.937-.117 4.405-.188l.263-.012.409-.019c1.632-.081 3.267-.172 4.902-.273l.123-.007c6.89-.43 13.818-1.044 20.635-1.828l.516-.061.348-.042a417.26 417.26 0 0 0 4.176-.51l.794-.105.468-.062c1.255-.164 2.512-.333 3.77-.511.351-.049.702-.101 1.053-.152l.444-.065a280.127 280.127 0 0 0 4.861-.735l.316-.05a400.217 400.217 0 0 0 5.126-.846 383.774 383.774 0 0 0 8.369-1.533 330.056 330.056 0 0 0 5.051-1.015l.406-.084c.461-.096.922-.191 1.382-.289a393.26 393.26 0 0 0 3.296-.718l.489-.108c.417-.092.834-.184 1.25-.278a383.9 383.9 0 0 0 3.386-.785l.514-.12a227.477 227.477 0 0 0 4.724-1.15l.51-.126c.299-.074.597-.147.896-.223 1.401-.355 2.8-.721 4.199-1.093l.31-.081.482-.126c3.354-.898 6.74-1.852 10.07-2.837.243-.072.483-.145.723-.218l.467-.141a405.2 405.2 0 0 0 3.764-1.143c.362-.112.723-.227 1.084-.342l.6-.19a409.47 409.47 0 0 0 3.26-1.038c.449-.146.895-.294 1.342-.442l.562-.186a384.03 384.03 0 0 0 3.03-1.01c.536-.182 1.071-.367 1.605-.551l.415-.143c.97-.335 1.941-.671 2.911-1.014.635-.225 1.27-.453 1.904-.681l.17-.061a389.738 389.738 0 0 0 17.565-6.793c.704-.291 1.411-.584 2.118-.881.928-.39 1.86-.789 2.791-1.189l.407-.175c.554-.238 1.108-.475 1.661-.716.954-.416 1.906-.84 2.858-1.264l.52-.231c.492-.219.984-.437 1.475-.659a397.12 397.12 0 0 0 2.838-1.301l.12-.056.635-.292c.414-.19.828-.38 1.241-.574a357.11 357.11 0 0 0 3.132-1.488l.128-.061.594-.283c.318-.151.637-.302.955-.456a408.905 408.905 0 0 0 4.802-2.362c1.526-.764 3.08-1.555 4.752-2.419.32-.165.638-.333.956-.5l.56-.294a419.248 419.248 0 0 0 3.191-1.68c.448-.239.896-.481 1.344-.724l.459-.248c.958-.517 1.916-1.037 2.869-1.561.603-.332 1.204-.667 1.804-1.002l.078-.043a385.573 385.573 0 0 0 7.38-4.217l.079-.046a338.682 338.682 0 0 0 4.552-2.707l.511-.308c.406-.244.811-.488 1.214-.735a387.424 387.424 0 0 0 3.043-1.881l.511-.317c.301-.186.602-.372.901-.56a394.866 394.866 0 0 0 4.413-2.812l.06-.038.035-.023a396.36 396.36 0 0 0 4.26-2.798c.297-.198.595-.399.893-.6l.505-.341c.976-.655 1.951-1.313 2.92-1.976.395-.271.791-.545 1.188-.82l.443-.307c.885-.612 1.768-1.226 2.646-1.844a406.152 406.152 0 0 0 5.944-4.268c.844-.618 1.683-1.238 2.519-1.86l.156-.116a366.487 366.487 0 0 0 4.083-3.083l.461-.352c.353-.269.706-.539 1.057-.81.959-.742 1.909-1.486 2.857-2.232l.459-.36c.247-.193.493-.385.738-.58a404.86 404.86 0 0 0 7.979-6.502c.256-.214.51-.43.764-.646l.443-.376c.903-.762 1.804-1.524 2.698-2.292.337-.289.672-.581 1.008-.872l.427-.371a355.604 355.604 0 0 0 6.267-5.552 381.11 381.11 0 0 0 3.803-3.488l.144-.134a302.495 302.495 0 0 0 3.683-3.47l.407-.388c.301-.286.602-.573.901-.861a408.54 408.54 0 0 0 2.666-2.595l.369-.36c.201-.196.402-.391.601-.589a395.654 395.654 0 0 0 7.153-7.252c.219-.228.436-.456.652-.685l.381-.401c.82-.859 1.638-1.72 2.45-2.586.301-.321.596-.64.892-.959l.348-.375a415.56 415.56 0 0 0 2.204-2.39 412.405 412.405 0 0 0 4.698-5.238c.698-.791 1.392-1.587 2.084-2.385l.054-.062c.396-.457.793-.914 1.187-1.373.718-.836 1.432-1.678 2.145-2.522l.337-.398c.259-.306.518-.612.776-.92.804-.961 1.6-1.925 2.393-2.891l.315-.382.503-.611c.963-1.181 1.92-2.367 2.871-3.56l.01-.01.303-.383.082-.102.012-.016a400.176 400.176 0 0 0 9.978-13.128l.084-.115a397.164 397.164 0 0 0 8.608-12.304l.012-.014.232-.347.166-.246.009-.016a393.305 393.305 0 0 0 3.627-5.529l.09-.112.248-.413.083-.129.3-.466a395.036 395.036 0 0 0 3.677-5.852l.001-.002.251-.408.008-.012.534-.87.003-.01.041-.068.002-.003a401.037 401.037 0 0 0 11.361-19.861l.25-.469a402.097 402.097 0 0 0 24.094-54.689l.063-.177c.548-1.55 1.091-3.113 1.623-4.68l.014-.041.052-.151a402.961 402.961 0 0 0 10.019-34.545l.039-.162.028-.116c.374-1.549.737-3.096 1.091-4.645l.07-.307.033-.143c.347-1.526.683-3.046 1.011-4.567l.042-.193.052-.242c.339-1.585.669-3.169.988-4.756l.036-.177a401.83 401.83 0 0 0 4.254-25.358l.036-.27.023-.175c.202-1.511.395-3.018.579-4.527l.067-.554.025-.211c.17-1.417.334-2.84.489-4.263l.017-.154.075-.696c.152-1.423.296-2.839.433-4.258l.03-.304.049-.506c.14-1.484.271-2.969.394-4.454l.021-.252.027-.314c.554-6.803.938-13.694 1.14-20.484l.009-.346.007-.253c.042-1.476.076-2.939.101-4.403l.01-.726.004-.334c.02-1.316.033-2.638.039-3.961l.003-1.021v-.228c.002-1.276-.002-2.548-.013-3.82l-.012-1.3a377.263 377.263 0 0 0-.063-3.835l-.007-.359-.019-.87a388.42 388.42 0 0 0-.121-4.062l-.013-.397-.02-.585a391.825 391.825 0 0 0-.203-4.73l-.004-.093-.009-.207c-.17-3.431-.388-6.902-.648-10.325l-.033-.415-.021-.258c-.112-1.443-.23-2.885-.358-4.327l-.077-.836-.044-.474a409.87 409.87 0 0 0-.356-3.7c-.043-.426-.088-.849-.133-1.273l-.031-.292a456.96 456.96 0 0 0-.574-5.134 421.75 421.75 0 0 0-.416-3.382l-.013-.103a398.457 398.457 0 0 0-.673-5.016l-.069-.492c-.052-.372-.104-.745-.158-1.117a398.204 398.204 0 0 0-.545-3.629l-.077-.504c-.045-.294-.089-.589-.136-.883a377.25 377.25 0 0 0-.719-4.384l-.034-.207-.068-.409a402.913 402.913 0 0 0-.91-5.121l-.047-.247-.016-.083a386.996 386.996 0 0 0-.889-4.64c-.059-.299-.12-.598-.181-.897l-.111-.544c-.238-1.18-.478-2.358-.727-3.535-.091-.431-.184-.861-.278-1.29l-.101-.466a387.504 387.504 0 0 0-1.861-8.203 392.142 392.142 0 0 0-1.228-5.004l-.054-.215c-.144-.57-.288-1.141-.434-1.71a376.473 376.473 0 0 0-.819-3.12l-.147-.553c-.115-.432-.229-.865-.346-1.297-.302-1.111-.611-2.22-.922-3.328l-.161-.579c-.096-.347-.193-.694-.292-1.041-.404-1.419-.82-2.838-1.241-4.257l-.077-.262-.116-.397a409.209 409.209 0 0 0-1.519-4.955c-.083-.264-.167-.525-.251-.786l-.161-.501c-.382-1.204-.767-2.41-1.162-3.614-.135-.41-.272-.821-.409-1.231l-.188-.563c-.344-1.034-.69-2.069-1.044-3.103-.183-.536-.369-1.069-.554-1.602l-.125-.359c-.341-.98-.685-1.961-1.034-2.94-.24-.672-.483-1.344-.726-2.016a428.62 428.62 0 0 0-1.817-4.911 420.03 420.03 0 0 0-1.107-2.892l-.088-.228c-.227-.588-.455-1.176-.685-1.764-.389-.99-.785-1.979-1.182-2.969l-.101-.251c14.076-9.835 23.517-23.43 26.37-38.254.078-.24.155-.48.227-.721.086-.287.166-.58.245-.872l.065-.239.043-.153c.05-.176.099-.352.145-.529.219-.837.403-1.609.561-2.351.031-.145.058-.289.085-.433l-.007.035c.04-.194.072-.368.105-.541l.028-.151c.169-.888.312-1.758.427-2.591.022-.136.042-.271.059-.405a51.36 51.36 0 0 0 .336-3.638c.067-1.14.098-2.103.098-3.033 0-9.867-2.895-19.722-8.372-28.5a61.419 61.419 0 0 0-1.84-2.776c-2.169-3.086-4.735-6.094-7.625-8.942a72.186 72.186 0 0 0-4.268-3.885 77.637 77.637 0 0 0-10.148-7.172 84.064 84.064 0 0 0-5.978-3.229 87.888 87.888 0 0 0-5.84-2.595 90.313 90.313 0 0 0-4.383-1.632c-7.219-2.474-14.743-4.063-22.464-4.751.49-5.573.738-11.171.738-16.732 0-25.567-5.009-50.375-14.889-73.733-9.541-22.557-23.197-42.813-40.59-60.206-17.393-17.393-37.649-31.049-60.206-40.59-23.363-9.892-48.17-14.901-73.738-14.901zM51.676 668.494z" class="st0"/><circle cx="660.702" cy="506.189" r="11.035" class="st25" transform="rotate(-17.484 660.73 506.244)"/><path d="M695.54 434.379a7.356 7.356 0 1 0 14.212 3.808 7.356 7.356 0 0 0-5.202-9.01 7.355 7.355 0 0 0-9.01 5.202z" class="st25"/><path d="M790 271.571c0-30.181-31.853-54.875-70.784-54.875H80.784C41.853 216.696 10 241.39 10 271.571c0 19.901 13.853 37.411 34.448 47.034l-2.044.002C-1.947 420.777-2.44 541.131 51.297 648.532c96.357 192.583 330.589 270.59 523.173 174.233 186.559-93.343 265.598-316.071 182.765-504.984 19.659-9.776 32.765-26.859 32.765-46.21z" class="st24"/><path fill="#edc531" d="M719.82 191.356c0-99.642-80.776-180.418-180.418-180.418-55.053 0-104.339 24.666-137.432 63.541-20.24-24.248-50.682-39.684-84.736-39.684-60.938 0-110.338 49.4-110.338 110.338 0 1.004.049 1.996.076 2.994a109.473 109.473 0 0 0-17.968-1.503c-47.38 0-87.683 30.277-102.635 72.535h631.319a181.892 181.892 0 0 0 2.132-27.803z"/><path fill="#cea628" d="M688.95 138.462c-19.263-61.194-76.375-104.78-140.302-108.236-5.373-.385-12.001-.334-17.412-.062l-2.898.12-2.889.277-5.771.57c-1.913.27-6.781 1.038-8.597 1.307-4.439.882-9.698 2.02-14.093 3.28-29.404 8.134-56.383 25.405-75.747 49.005 23.351-21.301 52-36.332 83.119-42.22 5.156-.939 11.053-1.722 16.285-2.247 1.872-.097 6.352-.401 8.196-.493 11.741-.307 23.815.353 35.346 2.568 58.442 10.273 107.33 54.378 125.611 110.682 2.353 7.13 4.163 14.381 5.721 21.733-.626-12.297-2.895-24.529-6.569-36.284zM311.261 52.634c-29.049 2.611-56.215 20.886-68.121 47.642 37.556-51.836 113.869-51.176 147.304 4.155 9.948 16.703 14.246 36.932 12.122 57.302.823-2.429 1.468-4.92 2.039-7.439 1.375-6.295 1.889-12.929 1.732-19.381-1.26-48.893-46.569-87.412-95.076-82.279zm-72.576 135.062c-1.986-3.17-4.463-6.092-7.012-8.824-.765-.782-2.742-2.552-3.54-3.346l-2.537-2.039c-1.422-1.226-3.779-2.681-5.337-3.764-1.83-1.063-3.813-2.248-5.747-3.136-17.366-8.426-39.4-8.912-55.928 1.572 28.355-1.946 52.873 4.284 75.124 21.981.749.647 2.678 2.211 3.483 2.862 1.45 1.332 3.147 2.694 4.578 4.076 2.905 2.621 2.549 2.62 1.302-.893-1.069-2.865-2.74-5.901-4.386-8.489z" opacity=".5"/><path d="M718.012 222.79H81.988c-38.784 0-70.516 24.6-70.516 54.668 0 30.067 31.732 54.668 70.516 54.668h636.023c38.784 0 70.516-24.601 70.516-54.668.001-30.067-31.731-54.668-70.515-54.668z" opacity=".2"/><path d="M416.254 216.696H80.784C41.853 216.696 10 241.39 10 271.571s31.853 54.875 70.784 54.875h335.47" class="st24"/><path d="M383.746 216.696h335.47c38.931 0 70.784 24.694 70.784 54.875s-31.853 54.875-70.784 54.875h-335.47" class="st24"/><circle cx="289.623" cy="772.431" r="36.783" class="st25" transform="rotate(-84.997 289.645 772.436)"/><circle cx="561.887" cy="740.044" r="22.796" class="st25" transform="rotate(-4.002 562.197 740.423)"/><circle cx="635.08" cy="401.124" r="25.748" class="st25" transform="rotate(-78.784 635.104 401.122)"/><path d="M444.328 791.001c5.896 1.58 11.957-1.919 13.537-7.815 1.58-5.896-1.919-11.957-7.815-13.537-5.896-1.58-11.957 1.919-13.537 7.815-1.581 5.896 1.918 11.957 7.815 13.537zM187.027 643.797c-1.686 6.293 2.048 12.762 8.342 14.448 6.293 1.686 12.762-2.048 14.448-8.342 1.686-6.293-2.048-12.762-8.342-14.448-6.293-1.686-12.762 2.049-14.448 8.342z" class="st25"/><circle cx="127.736" cy="459.346" r="58.853" class="st25" transform="rotate(-45.001 127.731 459.35)"/><path d="M715.891 585.241c-35.321-9.464-71.626 11.497-81.09 46.818-9.464 35.321 11.497 71.626 46.817 81.09a65.98 65.98 0 0 0 25.117 1.773 390.354 390.354 0 0 0 53.218-90.966c-7.599-18.39-23.357-33.167-44.062-38.715zm-613.523 59.582c-17.218-4.614-34.779 1.627-45.446 14.517 13.741 25.479 29.945 48.84 48.17 69.93 13.492-4.579 24.524-15.591 28.488-30.387 6.309-23.547-7.665-47.751-31.212-54.06z" class="st25"/><path fill="#31c67e" fill-rule="evenodd" d="M214.75 534.77c0-102.248 83.002-185.25 185.25-185.25s185.25 83.002 185.25 185.25S502.248 720.02 400 720.02s-185.25-82.868-185.25-185.25z" clip-rule="evenodd"/><path fill="#231f20" d="M570.548 538.646c.267 2.406-.134 4.812-.535 7.218-1.871 2.005-4.544 2.272-6.817 3.074-21.92 7.886-43.439 16.306-64.557 26.063-13.098 6.015-25.662 12.831-36.489 22.455-3.208 2.807-4.678 6.148-4.01 10.292.535 3.208.535 6.416.535 9.623 0 3.074.267 3.208 3.475 3.341.535 0 1.069 0 1.738.134 6.95.936 10.024 4.277 10.158 11.227 0 2.138.668 3.609 2.54 4.678 2.673 1.337 4.544 3.341 5.614 6.148.802 2.005 2.138 2.138 4.143 1.604 6.817-1.871 12.43-5.881 18.311-9.356 13.099-7.485 26.331-14.836 40.365-20.583 1.604-.668 3.341-2.005 5.346-1.069-1.337 3.208-3.074 6.148-5.213 8.955-1.737 1.738-4.277 2.406-6.416 3.475-4.678 2.54-9.623 4.678-14.301 7.351-6.817 3.208-13.366 7.084-19.781 10.826-4.143 2.406-8.688 3.475-13.098 4.945l-2.406.802c-4.277 1.203-6.95 3.876-9.891 7.218-4.01 4.544-3.475 8.287-.802 12.698.401.668.668 1.337 1.069 2.005 1.069 2.406 2.406 4.678 3.341 7.218.401.936.802 1.871.401 2.94-4.544 2.673-4.678 2.673-6.95-2.005-2.138-4.277-4.01-8.42-6.015-12.698-.668-1.337-1.069-1.738-2.673-.936-16.306 7.752-33.414 13.232-51.592 14.702-1.337.134-2.673.267-3.742.936-3.475 2.005-6.95 1.738-10.693 1.47-6.015-.535-12.029.802-18.044 1.47-12.43 1.47-24.593 1.069-36.622-2.673-2.807-.936-5.346-2.139-8.019-3.876-1.337 3.208-2.94 6.282-3.876 9.49-.802 2.406-1.871 2.54-3.742 1.337-.668-.401-1.337-.668-2.005-.936-.668-1.337 0-2.54.535-3.742a148.557 148.557 0 0 0 2.539-7.084c1.069-2.138.668-4.143-.668-6.148-3.074-4.812-3.341-9.891-1.203-15.237.936-2.406.802-4.411 0-6.817-3.341-9.222.535-18.177 9.757-22.054 2.139-.936 2.94-2.138 2.539-4.277-1.203-6.148-.802-12.163 0-18.311 1.337-10.425 1.337-20.851 1.337-31.41 0-3.208.267-6.416 1.069-9.49 1.738-6.817 2.539-13.499.802-20.45-1.203-4.544-.535-9.089 0-13.499.401-3.475.267-6.95-.134-10.425-1.47-9.623-.134-18.979 2.673-28.202.668-2.272.535-4.143-1.069-6.015-4.544-5.213-6.549-11.896-9.356-18.044-5.346-11.762-7.886-24.192-8.554-37.023-.535-10.024 7.084-12.698 14.836-9.089 4.812 2.272 8.821 5.881 12.297 9.757 5.614 6.148 10.96 12.43 16.44 18.712l1.203 1.604c2.139 2.94 4.678 3.742 8.287 2.406 9.222-3.475 18.979-2.94 28.603-2.406 3.742.134 7.218 1.069 10.693 2.539 2.005.802 3.609.401 5.079-1.203 5.747-6.95 11.762-13.767 17.776-20.583 3.475-3.876 7.351-7.351 11.762-10.158 2.54-1.604 5.213-2.539 8.287-2.406 4.01.134 6.817 2.539 8.02 6.416 1.069 3.742.134 7.351-.134 10.96-1.203 13.098-5.346 25.261-10.96 37.023-2.005 4.277-3.876 8.821-7.218 12.43-1.203 1.337-.802 2.807-.401 4.277 1.203 5.079 2.539 10.292 3.074 15.504a45.606 45.606 0 0 1-.401 13.499c-.668 3.341-.668 6.549-.134 9.891.668 5.614.535 11.227-.267 16.975-.668 4.01-.802 8.153.134 12.163 2.005 8.287 2.406 16.841 2.406 25.261 0 2.673-.267 5.48.134 8.153 1.069.267 1.47-.535 2.005-.936 7.752-6.549 16.039-12.163 25.128-16.841 17.91-9.089 36.088-17.643 55.067-24.727 6.148-2.272 12.43-4.678 18.579-6.95 2.94-.802 5.614-2.005 8.42-3.074.132-.532 1.201-1.2 2.271-.532z"/><path d="M332.636 677.65c-1.203 3.475-2.406 6.95-3.475 10.425-44.775-21.252-75.383-55.334-91.288-102.382-6.683-19.781-9.356-40.231-8.287-61.082 2.139-38.226 15.237-72.443 40.097-101.847 24.994-29.405 56.404-48.251 93.962-56.671 16.707-3.742 33.548-4.678 50.656-3.208 40.498 3.475 75.517 19.38 104.654 47.582 24.058 23.257 39.696 51.191 47.315 83.804 3.341 14.569 4.945 29.405 4.277 44.374-3.742 1.337-7.351 2.673-11.094 3.876-.802-.535-.668-1.203-.668-2.005 1.337-25.395-3.341-49.587-13.633-72.71-7.886-17.776-18.712-33.414-32.479-47.048-21.786-21.92-47.85-36.221-78.056-43.038-14.569-3.341-29.271-4.411-44.107-3.609-20.717 1.203-40.365 6.282-59.077 15.237-14.702 7.084-28.068 16.173-39.964 27.4-27.133 25.529-43.439 56.671-48.785 93.561-1.337 9.356-2.005 18.712-1.604 28.202 1.069 21.92 5.881 42.904 15.504 62.819 6.015 12.43 13.366 23.925 22.187 34.35 12.163 14.301 26.464 26.063 42.771 35.419a178.835 178.835 0 0 0 8.688 4.678c.936.537 1.872.804 2.406 1.873z" class="st103"/><path d="M550.232 613.495c-7.886 2.272-15.237 6.148-22.455 9.757-10.559 5.346-20.984 11.094-31.142 17.376-3.609 2.272-7.619 3.609-11.628 4.945-1.47.535-2.406.134-2.94-1.337-1.337-3.609-3.742-6.015-7.084-7.752-1.337-.668-1.871-1.738-1.871-3.208 0-1.47.134-2.807-.134-4.277-1.069-5.213-4.544-7.619-10.826-7.886-4.01-.134-4.01-.134-4.277-4.277-.134-3.609-.267-7.218-.668-10.693-.401-3.609.802-6.282 3.475-8.688 10.024-9.089 21.653-15.638 33.815-21.385 22.321-10.693 45.31-19.648 68.567-27.935 2.272-.802 4.678-1.604 6.95-2.406 0 8.153-1.604 16.039-3.341 24.058-3.208 14.702-8.42 28.737-15.371 41.969-.268.803-.669 1.204-1.07 1.739z" class="st103"/><path fill="#31c67f" d="M524.302 632.875c6.683-4.01 13.633-7.485 20.851-10.292-8.019 13.499-18.044 25.261-29.405 35.82-9.891 9.222-20.851 16.975-32.613 23.657-1.47-3.341-2.807-6.683-4.277-10.024 1.738-2.54 4.678-3.475 7.084-5.079 7.084-4.544 13.633-9.891 20.049-15.237 6.683-5.746 12.029-12.697 18.311-18.845z"/><path d="M332.636 677.65c-19.113-8.688-35.687-20.984-49.988-36.355-17.643-18.979-29.939-41.033-36.756-66.161-4.678-17.376-6.549-35.018-5.213-52.929 2.539-37.291 16.44-69.769 41.701-97.303 24.058-26.331 53.864-43.305 89.016-49.052 56.003-9.222 104.521 6.282 144.351 47.048 20.984 21.519 34.216 47.449 40.632 76.72 3.074 14.168 4.143 28.469 3.074 43.038-9.757 3.742-19.514 7.351-29.271 11.227-18.846 7.619-37.291 16.039-54.8 26.464-5.747 3.341-10.826 7.485-15.772 11.896-.535.535-1.069 1.337-2.406 1.47v-12.965c0-8.019-.535-16.039-2.539-23.791-.802-3.208-.936-6.683-.134-9.891 1.738-7.084 1.203-14.168.267-21.385-.134-.936-.267-1.871 0-2.807 2.54-10.96 1.069-21.786-2.005-32.345-.802-2.54-.267-4.277 1.47-6.416 4.411-5.213 6.549-11.628 9.222-17.643 5.079-11.361 7.752-23.39 8.554-35.82.134-1.871-.134-3.742-.535-5.614-.802-3.074-3.341-5.079-6.549-5.213-4.945-.134-8.821 2.272-12.43 5.213-7.485 6.416-13.633 14.168-20.049 21.519-2.005 2.272-3.876 4.678-5.881 6.95-1.203 1.47-2.673 1.871-4.544 1.069-9.356-4.143-19.113-3.341-29.004-2.673-4.678.267-9.089 1.47-13.366 3.208-2.139.802-3.609-.267-4.812-1.738-5.881-6.817-11.762-13.633-17.643-20.316-3.475-4.01-7.351-7.619-11.762-10.425-1.738-1.203-3.742-1.871-5.747-2.139-6.148-.802-9.757 2.139-9.623 8.287.134 12.029 2.406 23.524 6.95 34.617 2.272 5.346 4.678 10.693 7.084 15.905.668 1.47 1.604 3.074 2.807 4.277 2.807 2.54 2.94 5.346 1.871 8.821-3.208 9.891-3.742 19.915-2.005 30.207.401 2.005.134 4.143-.134 6.148-.668 6.015-.802 12.029.535 18.044 1.069 4.544.535 8.955-.668 13.499-1.47 5.747-1.871 11.628-1.871 17.643 0 10.693.134 21.519-2.005 32.212-.802 4.143 0 8.287.668 12.43.535 2.807.267 4.411-3.074 5.614-8.688 2.94-12.831 13.232-8.955 21.653 1.069 2.272.936 4.143 0 6.416-2.272 5.213-2.272 10.693 1.337 15.371 1.606 2.006 1.473 3.877.002 6.015z" class="st105"/><path d="M449.587 480.906c-3.475-4.01-3.609-4.945-1.337-9.356 3.609-6.95 7.619-13.9 10.024-21.385.802-2.673 1.604-5.48 1.337-8.287-.134-1.738-.802-3.208-2.54-4.01-1.871-.936-3.208 0-4.277 1.069-7.084 6.549-14.168 13.098-18.712 21.786-.802 1.47-2.94 2.139-2.272 4.277.535 1.604 2.005 2.406 3.074 3.609 8.955 10.693 13.767 22.989 15.371 36.622.267 2.272-1.069 2.54-2.539 2.94-6.416 1.738-12.965 3.341-19.38 5.079-.668.134-1.47.401-2.139.668-1.604.668-2.005 1.738-.401 2.807.936.668 1.47 1.604 1.871 2.673 1.203 4.277 4.01 6.95 8.42 7.619 4.544.802 8.688.267 11.762-3.609.267-.401.668-.668 1.203-1.337.668 4.678.134 9.089 1.069 13.499.668 2.94.668 5.747 0 8.688-1.604 7.619.134 15.237 1.337 22.722.936 5.614 1.337 11.227.401 16.975-1.203 8.153.668 16.173.401 24.326-.134 5.213.267 10.425.802 15.504.401 3.742-.802 6.683-3.475 9.356-9.356 9.49-19.514 18.044-30.073 26.197a126.91 126.91 0 0 0-6.549 5.346c-1.069.936-2.139.936-3.341.401-3.341-1.871-6.549-1.203-9.623.668-1.738 1.069-3.341.936-5.079 0-16.173-7.886-30.474-18.311-44.107-29.939-1.203-1.069-1.738-2.138-1.871-3.876a271.104 271.104 0 0 0-.802-14.702c-.401-5.213.535-10.158 1.203-15.237.802-5.614 1.203-11.227.668-16.975-.668-7.886-.401-15.638 1.203-23.39 1.203-5.346 1.337-10.693.535-16.039a35.82 35.82 0 0 1 0-10.693c.535-3.074.936-6.282.668-10.024 4.01 2.807 7.886 3.742 12.297 3.074 4.678-.668 7.886-2.94 9.757-7.218.668-1.47 1.203-3.074 3.475-2.539.802.134 1.47-.267 1.604-1.203.134-1.069-.535-1.604-1.337-1.737-3.074-.802-6.015-1.47-9.089-2.139a289.76 289.76 0 0 0-15.504-3.208c-2.005-.401-2.539-1.069-2.406-2.94 1.47-14.97 6.416-28.469 16.841-39.563.401-.535 1.069-.936 1.337-1.47.936-1.47.401-2.807-1.337-2.673-2.005.134-2.673-.802-3.475-2.139-3.742-6.282-8.019-12.163-12.564-17.777-1.203-1.47-2.539-3.074-4.277-4.01-2.94-1.738-5.346-.802-6.148 2.673-.668 2.94-.401 5.881.802 8.688 3.475 8.688 6.015 17.777 11.094 25.93.535.936.802 1.871.134 2.94-.802 1.47-1.604 2.138-2.673.267-8.153-14.435-15.638-29.271-16.574-46.379-.134-1.738 0-3.609.134-5.346.267-3.208 1.871-4.277 4.945-3.609 2.139.535 4.143 1.337 5.747 2.941 2.673 2.406 5.346 4.812 7.752 7.485 6.282 6.95 12.43 13.9 18.578 20.984.936 1.069 1.738 2.139 2.139 3.609.535 2.539 2.005 3.341 4.277 2.139 13.366-6.95 27.4-5.48 41.434-2.673 1.871.401 3.208 1.47 4.812 2.406 1.871 1.069 3.208.668 3.742-1.337.535-1.871 1.604-3.341 2.807-4.812 7.752-8.688 14.97-17.776 23.39-25.796 2.005-2.005 4.143-3.876 6.95-4.812 4.277-1.47 6.282-.134 6.549 4.411.267 5.48-.401 10.96-1.738 16.306-3.208 12.43-8.42 23.925-15.237 34.751-.402.002-.803.403-1.07.804z" class="st105"/><path d="M371.665 680.992c-10.96.134-20.182-1.871-28.736-6.282-6.148-3.208-8.554-8.554-7.485-15.237.401-2.139.936-3.341 3.341-2.005.668.401 1.47.535 2.139.535 1.871-.267 2.673-2.272 1.337-3.876-.936-1.203-2.139-2.138-3.341-3.074-4.678-4.01-4.678-11.094-.134-15.237 1.604-1.47 2.94-1.738 4.678.134 12.564 13.633 28.202 23.257 44.107 32.212.535.267.936.668 1.47.668 5.346.668 5.48 4.678 5.747 8.821.134 1.337-.802 1.337-1.738 1.604-3.475.936-7.084.401-10.693.802-3.742.667-7.886 1.202-10.692.935zm96.367-49.186c-.267 1.871-1.337 3.742-2.406 5.48-.802 1.337-1.871 2.673-.267 4.01 1.47 1.203 2.807.401 4.01-.668.535-.401.936-.802 1.738-.802 4.143.535 7.485 6.148 5.881 10.158-2.406 5.747-6.817 9.49-12.029 12.297-9.623 5.213-20.049 7.886-30.608 10.826-4.945 1.337-10.024 2.005-14.97 2.54-1.203.134-1.871-.267-2.272-1.203-.535-1.337-.936-2.807-1.604-4.143-.802-1.604.936-2.005 1.738-2.673 10.693-7.619 21.519-15.237 30.875-24.727 2.139-2.139 4.277-4.277 6.282-6.549 2.138-2.272 3.876-4.945 3.876-8.287 0-.668.134-1.337.802-1.738 2.939-1.471 8.954 2.137 8.954 5.479z" class="st103"/><path d="M524.302 632.875c-2.272 3.876-5.48 6.95-8.42 10.158-10.826 11.495-23.257 21.118-37.023 29.004-1.47-2.807-2.807-5.747-4.277-8.554-.535-1.069-.267-1.738.535-2.406a23.5 23.5 0 0 0 5.48-7.084c.668-1.203 1.47-1.871 2.673-2.406 2.54-1.337 5.079-2.406 7.886-2.94 11.227-2.54 20.316-9.49 30.474-14.435.801-.669 1.469-1.471 2.672-1.337z" class="st105"/><path fill="#fdfdfd" d="M344.933 440.942c.936.134 1.604.668 2.272 1.337 2.673 2.406 4.945 5.079 6.95 8.153 2.807 4.411 5.48 8.821 8.287 13.098 1.069 1.738 1.337 3.208-.668 4.544-1.871 1.203-3.074 3.074-4.143 4.945-1.069 1.871-2.005 1.47-2.94 0-1.069-1.604-2.272-3.074-3.074-4.678-3.609-7.752-6.549-15.772-7.886-24.326-.268-1.335-.402-2.672 1.202-3.073zm112.139 3.208c-.936 4.277-1.871 8.955-4.01 13.098-2.406 4.544-4.945 9.089-7.218 13.633-.936 1.738-1.47 2.139-2.807.267-1.47-2.272-3.609-3.876-5.48-5.614-1.203-1.069-1.337-2.139-.535-3.475 4.544-7.351 10.158-13.767 15.905-20.049.668-.802 1.738-1.604 2.94-1.203.804.269 1.205 1.472 1.205 3.343z"/><path d="M405.881 679.121c-3.876 0-6.416-1.604-6.416-4.411 0-3.208 2.94-5.614 6.817-5.747 3.341 0 6.683 2.807 6.683 5.614-.134 2.405-3.342 4.544-7.084 4.544z" class="st103"/><path fill="#dee1e0" d="M362.175 516.86c.134 1.738-.936 2.54-2.406 2.406-1.47-.134-2.673-.936-2.673-2.673 0-1.47.802-2.539 2.406-2.539 1.737-.001 2.807.935 2.673 2.806z"/><path fill="#e8eae9" d="M438.093 517.127c-.134 1.203-.668 2.406-2.139 2.406-1.604 0-2.406-1.069-2.272-2.54 0-1.337.936-2.138 2.406-2.138 1.336.134 2.005.802 2.005 2.272z"/><path fill="#020202" d="M404.812 566.848c-6.015-1.069-12.698-2.406-15.103-10.158-.267-.802-.802-1.604-1.47-2.005-5.48-3.341-6.282-10.024-.668-15.772 2.005-2.005 2.539-3.876 1.871-6.549-.802-3.341.134-6.549 1.871-9.49 2.139-3.609 5.747-4.544 9.757-2.272 1.47.802 2.406.936 3.876-.134 2.94-2.272 6.282-2.272 9.623-.535 3.742 2.005 3.876 5.747 4.01 9.356 0 .401 0 .802-.134 1.069-1.47 3.475-.267 5.747 2.406 8.287 4.812 4.544 4.678 10.693.535 15.905-.802 1.069-1.604 2.406-2.139 3.609-2.54 6.417-7.485 8.422-14.435 8.689z"/><path d="M397.594 523.275c1.604 0 2.94.668 4.277 1.604 1.604 1.203 2.94 1.47 4.277-.535 1.47-2.139 4.143-2.673 6.549-1.47 2.272 1.069 3.341 3.609 2.673 6.148-.401 1.47-1.203 2.94-1.871 4.411-1.47 3.341-1.47 3.609 1.871 5.079 2.673 1.337 4.812 3.074 5.747 6.148.936 2.673.267 4.945-1.47 6.683-1.871 1.871-4.277 2.54-6.95 1.604-2.807-.936-4.544-2.94-6.148-5.213-2.005-2.94-2.406-3.074-4.277.134-2.139 3.475-4.945 5.614-9.222 5.48-5.213-.267-7.752-4.945-5.213-9.49a10.343 10.343 0 0 1 3.475-3.742c2.807-1.738 3.341-3.742 2.005-6.817-1.069-2.406-1.337-5.079-.134-7.619.936-1.603 2.406-2.538 4.411-2.405z" class="st105"/><path fill="#fcfcfc" d="M405.881 563.373c-4.411-.134-8.153-.668-10.96-3.876-1.738-2.138-1.604-2.673 1.069-2.94 3.208-.401 5.213-2.406 7.351-4.411.936-.936 1.47-1.203 2.539 0 2.272 2.673 5.213 4.411 8.821 4.544 2.005.134 1.604.936.936 2.138-2.271 3.743-6.014 4.678-9.756 4.545z"/><path fill="#191919" d="M396.258 530.493c0-.802.401-2.138 1.604-1.871 2.272.535 2.673 2.673 3.074 4.544.267 1.069-.401 1.871-1.47 2.005-1.204.134-3.075-2.54-3.208-4.678z"/><path fill="#201e1f" d="M406.817 531.963c.535-1.203.267-3.475 2.539-3.876 1.069-.267 1.738.802 1.47 1.871-.535 1.738-.267 4.01-2.673 4.411-1.203.267-1.47-.936-1.336-2.406z"/></svg>