<svg xmlns="http://www.w3.org/2000/svg" xml:space="preserve" id="Layer_1" x="0" y="0" version="1.1" viewBox="0 0 800 875"><style>.st0{fill:#fff}.st1{fill:#84b9df}.st9{fill:#6890b4}.st10{fill:#9590c5}.st11{fill:#635da8}.st12{fill:#e7e5ea}</style><path d="M398.52 868.555a382.188 382.188 0 0 1-4.002-.039l-1.009-.016a378.265 378.265 0 0 1-4.121-.094l-.862-.023a364.415 364.415 0 0 1-4.334-.155l-.651-.026a386.297 386.297 0 0 1-4.672-.228l-.291-.015a396.04 396.04 0 0 1-40.323-4.319l-.124-.02c-1.665-.267-3.249-.53-4.831-.802l-.32-.056a386.671 386.671 0 0 1-4.643-.833l-.341-.064a383.477 383.477 0 0 1-4.649-.896l-.26-.052c-1.605-.32-3.189-.646-4.771-.982l-.152-.032a397.196 397.196 0 0 1-84.494-28.204 398 398 0 0 1-20.987-10.511 395.753 395.753 0 0 1-44.977-28.281 394.545 394.545 0 0 1-7.108-5.294l-.083-.063a391.697 391.697 0 0 1-6.988-5.455l-.1-.082a392.66 392.66 0 0 1-33.211-29.81l-.12-.12a397.385 397.385 0 0 1-6.132-6.317l-.204-.215a392.15 392.15 0 0 1-5.982-6.456l-.167-.185a395.808 395.808 0 0 1-9.231-10.576l-.39-.465a381.206 381.206 0 0 1-2.982-3.598l-.114-.14a403.014 403.014 0 0 1-3.159-3.912l-.255-.321-.185-.2-.09-.146a393.508 393.508 0 0 1-5.854-7.564l-.306-.283-.086-.172-.092-.092-.145-.29a393.393 393.393 0 0 1-7.559-10.428l-.114-.164a395.9 395.9 0 0 1-10.8-16.285l-.234-.234-.211-.476a393.35 393.35 0 0 1-5.063-8.324l-.048-.081a395.214 395.214 0 0 1-5.007-8.718l-.178-.276-.053-.138a413.456 413.456 0 0 1-2.056-3.744l-.977-.781v-1.03a380.536 380.536 0 0 1-2.195-4.154l-.212-.404a393.57 393.57 0 0 1-2.73-5.345l-.073-.146a401.304 401.304 0 0 1-3.088-6.333l-.846-1.784a393.445 393.445 0 0 1-2.473-5.338l-.582-1.272a393.663 393.663 0 0 1-2.842-6.471l-.657-1.554a407.523 407.523 0 0 1-2.186-5.26l-.678-1.666c-.88-2.19-1.743-4.383-2.581-6.58l-.289-.771a390.584 390.584 0 0 1-2.19-5.927l-.614-1.716a391.643 391.643 0 0 1-2.132-6.142l-.186-.544a395.837 395.837 0 0 1-2.193-6.752l-.474-1.522a386.537 386.537 0 0 1-1.723-5.687l-.37-1.252a385.164 385.164 0 0 1-1.925-6.841l-.251-.947a380.06 380.06 0 0 1-1.565-6.018l-.357-1.422a394.646 394.646 0 0 1-3.17-13.863l-.271-1.311a391.873 391.873 0 0 1-1.288-6.51l-.085-.446a384.29 384.29 0 0 1-1.27-7.156l-.141-.86a404.56 404.56 0 0 1-1.014-6.442l-.133-.889a392.5 392.5 0 0 1-1.829-14.356l-.1-.923a394.668 394.668 0 0 1-1.27-14.466l-.041-.607c-.162-2.4-.303-4.776-.419-7.152l-.006-.108a396.467 396.467 0 0 1-.442-14.86l-.005-.448c-.048-4.862-.004-9.828.132-14.745l.01-.363a396.056 396.056 0 0 1 2.837-37.246l.018-.141a399.162 399.162 0 0 1 2.065-14.431v-.053l.056-.301.012-.089.018-.082c.346-2.12.71-4.236 1.09-6.35l.027-.146c.279-1.55.576-3.133.881-4.714l.034-.175c.301-1.556.615-3.128.939-4.697l.035-.168c.326-1.577.661-3.151 1.006-4.724l4.419.858-4.396-.965c.83-3.777 1.722-7.576 2.652-11.292l.016-.061c.395-1.576.792-3.117 1.197-4.655l.048-.183a398.24 398.24 0 0 1 1.245-4.599l.059-.211c.423-1.525.86-3.062 1.305-4.595l.037-.125c1-3.44 2.061-6.909 3.149-10.302l.193-.602.056-.266.101-.221c.447-1.382.903-2.761 1.366-4.137l.09-.27c.546-1.62 1.105-3.245 1.674-4.866l.181-.517a388.806 388.806 0 0 1 1.643-4.564l.278-.763c.525-1.423 1.06-2.841 1.601-4.256l.385-1.015c.514-1.335 1.037-2.66 1.563-3.984l.483-1.223c.435-1.084.878-2.167 1.325-3.248-14.86-9.341-24.814-22.879-27.57-37.667a47.05 47.05 0 0 1-.624-2.101l-.1-.354a47.236 47.236 0 0 1-.584-2.533l-.17-.859c-.037-.183-.074-.366-.105-.55-.104-.593-.194-1.2-.276-1.81l-.021-.14a46.961 46.961 0 0 1-.205-1.868c-.021-.223-.036-.447-.052-.671 0 0-.095-1.388-.103-1.557a49.091 49.091 0 0 1-.044-2.062c0-9.153 2.587-17.94 7.69-26.118a56.296 56.296 0 0 1 1.704-2.571 60.506 60.506 0 0 1 5.979-7.217 66.943 66.943 0 0 1 6.037-5.493 73.357 73.357 0 0 1 7.566-5.353 77.188 77.188 0 0 1 6.227-3.459 83.28 83.28 0 0 1 9.046-3.855c9.82-3.523 20.262-5.309 31.035-5.309h3.455c8.254-19.986 21.952-37.081 39.765-49.581 19.104-13.406 41.58-20.492 64.999-20.492 4.429 0 8.922.271 13.414.808 1.175-62.312 52.229-112.637 114.817-112.637 32.387 0 62.979 13.547 84.74 37.35 35.089-38.965 84.878-61.207 137.428-61.207 101.964 0 184.918 82.954 184.918 184.918 0 6.956-.396 13.972-1.18 20.92 8.955.365 17.666 1.981 25.947 4.82a85.462 85.462 0 0 1 9.702 4.011 80.755 80.755 0 0 1 5.657 3.055 73.238 73.238 0 0 1 9.56 6.755 67.283 67.283 0 0 1 3.999 3.64c2.701 2.662 5.09 5.463 7.103 8.326a56.602 56.602 0 0 1 1.705 2.571c5.102 8.177 7.689 16.965 7.689 26.118a47 47 0 0 1-.09 2.769l-.04.63a46.936 46.936 0 0 1-.267 2.688l-.043.297a49.102 49.102 0 0 1-.401 2.438l-.193 1.004a47.335 47.335 0 0 1-.514 2.153l-.238.866a34.7 34.7 0 0 1-.214.764c-.082.273-.169.542-.258.81l-.026.079c-2.754 14.785-12.704 28.323-27.561 37.664.246.592.491 1.186.733 1.779l.751 1.865c.393.979.785 1.957 1.169 2.936.254.646.504 1.295.754 1.942a403.12 403.12 0 0 1 1.853 4.886c.353.949.701 1.899 1.047 2.851l.719 1.995c.346.971.686 1.939 1.023 2.909l.671 1.937c.35 1.024.692 2.047 1.033 3.071l.59 1.772c.39 1.192.771 2.383 1.149 3.575l.406 1.27a397.167 397.167 0 0 1 1.5 4.894l.193.661a367.43 367.43 0 0 1 1.228 4.209l.448 1.604c.307 1.091.612 2.187.91 3.284l.488 1.829a413.7 413.7 0 0 1 .81 3.085l.483 1.904a352.709 352.709 0 0 1 1.213 4.945c.243 1.021.481 2.041.715 3.062l.427 1.871c.238 1.059.47 2.12.699 3.182l.374 1.735c.246 1.162.482 2.326.718 3.49l.289 1.425c.303 1.531.596 3.06.879 4.59l.064.342c.31 1.672.609 3.362.898 5.052l.101.609c.244 1.44.482 2.885.71 4.33l.209 1.367c.185 1.2.366 2.396.54 3.594l.224 1.587c.159 1.132.315 2.264.463 3.396l.214 1.661c.143 1.118.28 2.233.412 3.348l.193 1.652c.131 1.144.255 2.284.375 3.425l.162 1.55c.124 1.214.239 2.433.351 3.652l.121 1.301c.126 1.422.243 2.848.353 4.273l.054.669c.256 3.384.472 6.816.64 10.2l.013.297c.076 1.562.143 3.12.201 4.678l.032.972c.046 1.34.087 2.677.119 4.013l.026 1.222c.027 1.263.048 2.526.062 3.79l.012 1.286c.01 1.258.014 2.517.012 3.775l-.003 1.24a393.97 393.97 0 0 1-.039 3.918l-.015 1.051a394.484 394.484 0 0 1-.1 4.334l-.016.604c-.2 6.709-.579 13.522-1.127 20.251l-.047.557a374.143 374.143 0 0 1-.39 4.41l-.077.801a390.902 390.902 0 0 1-.427 4.204l-.091.842a380.68 380.68 0 0 1-.484 4.222l-.092.76a392.05 392.05 0 0 1-.571 4.464l-.06.454a397.182 397.182 0 0 1-4.203 25.052l-.035.171a395.97 395.97 0 0 1-.98 4.716l-.094.436c-.323 1.5-.655 3.003-.997 4.503l-.104.456c-.35 1.529-.708 3.058-1.077 4.584l-.069.287a398.322 398.322 0 0 1-9.908 34.159l-.066.194a403.774 403.774 0 0 1-1.603 4.623l-.064.18a397.602 397.602 0 0 1-23.82 54.064l-.245.458a396.575 396.575 0 0 1-11.333 19.801l-.241.481-.138.138-.103.168a395.72 395.72 0 0 1-3.886 6.191l-.717 1.115a379.283 379.283 0 0 1-3.686 5.614l-.219.326a395.372 395.372 0 0 1-8.626 12.334l-.069.094a396.656 396.656 0 0 1-9.612 12.66l-.022.048-.328.394-.175.219a402.46 402.46 0 0 1-2.96 3.673l-.809.981c-.783.953-1.569 1.907-2.362 2.854l-1.102 1.305c-.705.835-1.411 1.667-2.123 2.496l-1.226 1.418a354.623 354.623 0 0 1-3.342 3.804c-.691.776-1.385 1.549-2.082 2.319a326.678 326.678 0 0 1-3.459 3.775l-1.223 1.316c-.804.857-1.613 1.709-2.425 2.56l-1.018 1.07a394.953 394.953 0 0 1-7.077 7.174l-.96.939c-.872.855-1.749 1.712-2.632 2.563l-1.294 1.236a300.682 300.682 0 0 1-3.783 3.562 382.057 382.057 0 0 1-6.072 5.524l-1.477 1.311c-.798.704-1.601 1.403-2.405 2.1l-1.421 1.231c-.883.759-1.773 1.512-2.665 2.265l-1.197 1.011a395.26 395.26 0 0 1-7.886 6.427l-1.181.928c-.939.74-1.879 1.477-2.825 2.208l-1.504 1.152c-.848.649-1.7 1.298-2.556 1.942l-1.632 1.218a371.008 371.008 0 0 1-6.688 4.868c-.559.398-1.118.796-1.68 1.191-.869.612-1.742 1.218-2.616 1.823l-1.615 1.116c-.958.655-1.921 1.305-2.886 1.953l-1.383.931a383.352 383.352 0 0 1-8.668 5.608l-1.396.867c-.999.623-2 1.244-3.007 1.859l-1.706 1.031c-.918.554-1.836 1.106-2.759 1.653-.583.346-1.169.688-1.754 1.031a366.922 366.922 0 0 1-4.639 2.676 534.619 534.619 0 0 1-4.584 2.565c-.946.521-1.893 1.034-2.84 1.546l-1.784.961a389.764 389.764 0 0 1-3.152 1.66l-1.5.786a392.586 392.586 0 0 1-9.446 4.726l-1.625.775c-1.043.5-2.087.999-3.133 1.488-.422.197-2.004.924-2.004.924-.925.427-1.85.854-2.776 1.273-.49.221-1.974.88-1.974.88-.94.419-1.881.838-2.825 1.25-.59.258-2.045.882-2.045.882a341.98 341.98 0 0 1-4.853 2.047c-.914.378-1.826.754-2.739 1.125a403.256 403.256 0 0 1-4.854 1.929 362.62 362.62 0 0 1-4.876 1.864 379.319 379.319 0 0 1-4.898 1.799c-.684.246-1.367.492-2.051.734-.958.339-1.919.672-2.88 1.004 0 0-1.465.506-1.998.687-.996.338-1.995.668-2.994.998l-1.882.621a365.59 365.59 0 0 1-3.224 1.027l-1.667.526c-1.24.385-2.48.759-3.722 1.13l-1.174.355a397.547 397.547 0 0 1-9.953 2.805l-.787.206c-1.384.367-2.768.729-4.153 1.08l-1.392.346c-1.185.296-2.371.59-3.559.875l-1.619.381c-1.116.263-2.232.523-3.349.776l-1.718.381c-1.083.24-2.169.478-3.255.709l-1.767.369c-1.078.224-2.154.444-3.229.658l-1.771.347a439.87 439.87 0 0 1-3.238.616l-1.755.321c-1.091.197-2.184.39-3.277.578l-1.706.291c-1.122.188-2.241.369-3.361.546l-1.616.254c-1.169.181-2.336.353-3.503.522l-1.479.214c-1.243.175-2.486.342-3.73.505l-1.244.165c-1.376.176-2.752.343-4.128.504l-.85.102a393.976 393.976 0 0 1-20.364 1.805l-.16.009c-1.621.101-3.237.19-4.854.27l-.666.03c-1.447.069-2.898.132-4.35.186l-.914.03c-1.369.047-2.739.088-4.11.121l-1.041.022c-1.329.028-2.665.051-3.999.066l-1.071.01a408.17 408.17 0 0 1-3.315.014l-1.735.003z" class="st0"/><path d="M539.401 10.941c99.642 0 180.418 80.776 180.418 180.418a181.8 181.8 0 0 1-1.776 25.341h1.173c10.093 0 19.702 1.672 28.412 4.656a80.39 80.39 0 0 1 9.182 3.796 75.605 75.605 0 0 1 5.336 2.881 68.549 68.549 0 0 1 8.97 6.337 62.138 62.138 0 0 1 3.729 3.396c2.454 2.418 4.668 4.989 6.579 7.707.547.777 1.07 1.566 1.568 2.365 4.488 7.193 7.008 15.247 7.008 23.736 0 .84-.034 1.674-.083 2.505-.011.191-.022.383-.036.573a42.463 42.463 0 0 1-.24 2.426c-.015.114-.035.226-.05.34-.099.717-.218 1.43-.353 2.138-.036.188-.069.377-.108.565-.023.113-.041.226-.065.339a43.395 43.395 0 0 1-.467 1.955c-.048.185-.103.369-.154.554-.085.309-.165.619-.257.926-.097.323-.205.643-.31.964-.014.042-.024.086-.039.128-2.719 15.13-13.499 28.322-28.846 36.874.089.21.179.419.267.629.218.515.43 1.032.645 1.548.442 1.058.883 2.116 1.315 3.175.25.614.495 1.229.742 1.843.389.967.776 1.934 1.156 2.903.255.648.505 1.297.756 1.946a389.542 389.542 0 0 1 1.822 4.805 382.712 382.712 0 0 1 2.757 7.666c.222.638.445 1.276.664 1.916.346 1.011.684 2.023 1.021 3.035.195.584.392 1.168.584 1.753.386 1.177.762 2.355 1.136 3.534.133.419.27.838.402 1.258.505 1.61.999 3.222 1.482 4.836.065.217.126.433.19.65.412 1.387.818 2.774 1.214 4.163.15.527.295 1.055.443 1.582.304 1.083.606 2.166.901 3.25.164.603.322 1.206.482 1.809.27 1.016.539 2.031.8 3.048.161.627.319 1.255.478 1.882a409.375 409.375 0 0 1 1.2 4.889 401.22 401.22 0 0 1 1.82 8.019c.123.571.249 1.143.37 1.715.243 1.15.477 2.301.71 3.452.095.47.193.94.286 1.41.299 1.511.588 3.022.869 4.534.02.108.042.215.061.323.308 1.669.605 3.339.89 5.009.034.2.065.4.099.599.242 1.428.477 2.856.703 4.284.071.451.138.903.208 1.354.183 1.184.362 2.367.534 3.551.076.523.148 1.046.221 1.57.157 1.118.311 2.235.458 3.353.072.549.142 1.098.212 1.647a414.04 414.04 0 0 1 .598 4.941c.129 1.128.252 2.255.371 3.383.054.51.108 1.019.16 1.529.122 1.205.237 2.409.347 3.614.039.428.081.856.119 1.284.125 1.408.24 2.817.349 4.225.017.22.037.44.053.66.255 3.363.466 6.725.633 10.086l.013.298c.075 1.54.141 3.081.198 4.62.012.321.021.642.032.963.046 1.322.086 2.644.118 3.965.01.402.017.804.026 1.206.026 1.25.047 2.499.062 3.749l.012 1.269c.01 1.244.014 2.488.013 3.731-.001.408-.001.817-.003 1.225a384.585 384.585 0 0 1-.038 3.874c-.005.345-.009.69-.015 1.034a408.871 408.871 0 0 1-.098 4.291l-.016.596a388.943 388.943 0 0 1-1.114 20.019l-.047.555a395.4 395.4 0 0 1-.385 4.355l-.076.792a384.394 384.394 0 0 1-.992 9.162l-.089.744c-.18 1.475-.369 2.949-.566 4.421l-.058.439a390.347 390.347 0 0 1-4.156 24.776l-.038.185a382.898 382.898 0 0 1-.966 4.648l-.092.427a402.557 402.557 0 0 1-2.153 9.44l-.066.276a392.505 392.505 0 0 1-9.797 33.778l-.061.18c-.52 1.531-1.05 3.059-1.59 4.584l-.058.164a391.924 391.924 0 0 1-23.555 53.464l-.243.456-.001.001a390.813 390.813 0 0 1-11.301 19.734l-.002.003-.377.617-.001.002a388.456 388.456 0 0 1-3.838 6.115l-.45.699-.002.003a388.564 388.564 0 0 1-3.957 6.035l-.004.007-.149.22a388.879 388.879 0 0 1-8.534 12.202l-.001.001-.06.082a387.256 387.256 0 0 1-9.826 12.924l-.004.006-.005.006-.001.001a382.79 382.79 0 0 1-3.12 3.874c-.264.324-.532.645-.797.968-.775.944-1.553 1.887-2.337 2.824-.361.431-.726.86-1.089 1.29-.696.824-1.394 1.648-2.098 2.467-.402.469-.807.935-1.212 1.401a346.49 346.49 0 0 1-3.304 3.761 369.802 369.802 0 0 1-5.478 6.024c-.403.434-.804.869-1.209 1.302-.794.847-1.594 1.689-2.396 2.53-.337.353-.671.708-1.009 1.06a389.179 389.179 0 0 1-6.992 7.089c-.314.31-.632.617-.946.926a390.11 390.11 0 0 1-2.605 2.536c-.425.409-.853.814-1.28 1.221-.772.737-1.546 1.472-2.325 2.203-.47.441-.942.879-1.414 1.317a343.738 343.738 0 0 1-3.717 3.409c-.759.687-1.521 1.371-2.286 2.052-.486.433-.971.866-1.46 1.296-.789.695-1.582 1.386-2.377 2.076-.468.406-.934.813-1.405 1.217-.874.751-1.754 1.496-2.636 2.239-.394.332-.785.667-1.18.998a387.93 387.93 0 0 1-7.797 6.355c-.388.308-.78.612-1.169.918a400.53 400.53 0 0 1-2.791 2.181c-.494.381-.991.759-1.487 1.139-.84.643-1.681 1.284-2.527 1.92-.536.404-1.076.804-1.615 1.206a371.425 371.425 0 0 1-6.61 4.81c-.553.394-1.106.787-1.661 1.178-.858.604-1.721 1.204-2.586 1.802-.531.368-1.061.737-1.595 1.102-.947.648-1.899 1.29-2.853 1.931-.456.306-.909.615-1.366.92a391.361 391.361 0 0 1-4.21 2.765l-.046.03c-1.431.926-2.87 1.842-4.316 2.751-.458.288-.92.571-1.38.857-.988.616-1.978 1.23-2.974 1.838-.56.342-1.124.68-1.687 1.019-.907.547-1.815 1.094-2.728 1.635-.598.354-1.199.706-1.8 1.058a412.054 412.054 0 0 1-4.517 2.606c-.896.509-1.795 1.014-2.696 1.516-.613.342-1.225.683-1.84 1.022-.932.513-1.869 1.021-2.806 1.527-.587.317-1.172.636-1.761.95a400.535 400.535 0 0 1-3.119 1.642c-.495.258-.986.52-1.483.776a391.512 391.512 0 0 1-9.341 4.674c-.505.244-1.011.481-1.517.723-1.062.508-2.124 1.017-3.188 1.515-.611.286-1.223.564-1.835.847-.964.445-1.927.89-2.892 1.326-.649.293-1.3.581-1.95.87-.931.415-1.862.829-2.794 1.236-.673.293-1.347.582-2.021.871-.91.391-1.82.781-2.732 1.164-.689.29-1.379.575-2.069.861a349.965 349.965 0 0 1-4.791 1.947 413.176 413.176 0 0 1-4.791 1.874 366.91 366.91 0 0 1-4.803 1.807c-.927.342-1.856.678-2.784 1.012-.675.243-1.351.487-2.027.726-.948.335-1.898.664-2.847.992-.658.227-1.316.456-1.974.679-.986.334-1.974.661-2.962.987-.62.205-1.239.412-1.859.613-1.061.344-2.124.68-3.187 1.015-.549.173-1.098.35-1.647.521-1.226.38-2.453.75-3.681 1.118-.387.116-.774.236-1.161.351a388.555 388.555 0 0 1-9.837 2.772c-.259.069-.519.135-.778.203-1.367.363-2.735.721-4.105 1.068-.458.116-.917.227-1.375.341-1.172.293-2.345.584-3.518.865-.533.128-1.067.251-1.6.376-1.103.26-2.206.518-3.311.767-.565.128-1.131.251-1.696.376a362.58 362.58 0 0 1-3.22.701c-.583.124-1.167.244-1.75.365-1.063.221-2.126.438-3.189.65-.583.116-1.167.229-1.75.343a354.168 354.168 0 0 1-4.935.926 407.295 407.295 0 0 1-4.928.858c-1.107.185-2.215.365-3.323.54-.533.084-1.066.17-1.599.252-1.153.178-2.306.348-3.46.515-.488.071-.976.143-1.464.212-1.228.173-2.457.338-3.685.499-.411.054-.821.11-1.232.163-1.36.174-2.72.338-4.08.498-.282.033-.563.069-.845.101a388.23 388.23 0 0 1-25.081 2.06c-.218.011-.437.019-.655.03-1.435.069-2.869.131-4.304.183l-.902.03c-1.355.047-2.709.087-4.063.12l-1.023.021a373.586 373.586 0 0 1-8.296.088l-.653-.001c-.355 0-.709-.002-1.063-.004a401.557 401.557 0 0 1-9.031-.146l-.857-.024a380.845 380.845 0 0 1-4.281-.153c-.213-.009-.427-.016-.64-.026a395.054 395.054 0 0 1-4.623-.225l-.285-.015a390.248 390.248 0 0 1-39.866-4.27l-.199-.032a390.064 390.064 0 0 1-4.7-.781l-.299-.052a396.528 396.528 0 0 1-4.608-.826l-.327-.061a377.622 377.622 0 0 1-4.605-.887l-.277-.055a376.034 376.034 0 0 1-4.698-.968l-.145-.031a392.242 392.242 0 0 1-83.541-27.885 390.516 390.516 0 0 1-20.748-10.392h-.002a389.737 389.737 0 0 1-44.461-27.958l-.04-.029a385.602 385.602 0 0 1-6.987-5.204l-.111-.085a383.87 383.87 0 0 1-6.878-5.37l-.035-.029a387.177 387.177 0 0 1-32.893-29.519l-.109-.11a385.688 385.688 0 0 1-6.071-6.254l-.199-.21a389.676 389.676 0 0 1-5.916-6.383l-.165-.183a387.907 387.907 0 0 1-9.17-10.507l-.002-.003-.103-.123a392.334 392.334 0 0 1-3.184-3.837l-.001-.002-.094-.115a404.802 404.802 0 0 1-3.168-3.924l-.008-.01-.168-.212-.152-.191-.004-.005a383.19 383.19 0 0 1-2.934-3.74l-.001-.002-.03-.038c-1.084-1.4-2.16-2.808-3.227-4.226l-.004-.005-.133-.176-.001-.002a386.437 386.437 0 0 1-7.73-10.653l-.01-.015a391.82 391.82 0 0 1-5.618-8.248l-.006-.009a390.602 390.602 0 0 1-5.403-8.385l-.006-.009-.002-.003a393.238 393.238 0 0 1-5.217-8.571l-.005-.009c-1.706-2.885-3.38-5.8-5.02-8.743l-.004-.007-.026-.047a390.056 390.056 0 0 1-2.591-4.727l-.003-.005-.001-.002-.005-.01a409.506 409.506 0 0 1-2.697-5.087l-.208-.397a385.834 385.834 0 0 1-2.701-5.289l-.013-.025-.008-.016a400.883 400.883 0 0 1-3.105-6.364c-.281-.588-.559-1.177-.837-1.766a397.615 397.615 0 0 1-2.445-5.276c-.191-.421-.387-.841-.577-1.262a386.527 386.527 0 0 1-2.809-6.395c-.219-.51-.432-1.022-.649-1.533a394.211 394.211 0 0 1-2.162-5.204c-.224-.549-.449-1.098-.67-1.648a390.485 390.485 0 0 1-2.551-6.503c-.096-.253-.188-.507-.284-.76a398.154 398.154 0 0 1-2.774-7.558 382.842 382.842 0 0 1-2.107-6.073c-.06-.179-.124-.358-.184-.537a392.657 392.657 0 0 1-2.167-6.674c-.158-.501-.312-1.002-.468-1.504a389.14 389.14 0 0 1-1.704-5.624c-.122-.413-.246-.825-.367-1.238a384.662 384.662 0 0 1-1.902-6.761c-.085-.312-.165-.624-.249-.937a385.128 385.128 0 0 1-1.547-5.948c-.118-.468-.237-.936-.353-1.405a384.88 384.88 0 0 1-3.134-13.707l-.268-1.294a389.051 389.051 0 0 1-1.273-6.436l-.084-.435c-.442-2.359-.859-4.72-1.256-7.082-.048-.283-.092-.566-.139-.849a386.23 386.23 0 0 1-1.001-6.369c-.043-.292-.089-.583-.131-.875a387.604 387.604 0 0 1-1.808-14.194l-.098-.912a387.513 387.513 0 0 1-1.255-14.302l-.042-.624a378.56 378.56 0 0 1-.413-7.046l-.006-.108a387.785 387.785 0 0 1-.442-15.118c-.048-4.87-.004-9.734.131-14.591l.01-.36a389.455 389.455 0 0 1 2.805-36.82l.017-.139a391.232 391.232 0 0 1 2.099-14.618l.001-.005.005-.031.002-.014c.351-2.152.72-4.3 1.106-6.445l.003-.019.001-.008c.285-1.578.579-3.154.883-4.727l.03-.156a408.5 408.5 0 0 1 .931-4.661l.034-.167c.322-1.559.654-3.116.995-4.671l.023-.106a393.77 393.77 0 0 1 2.622-11.163l.013-.053.003-.011c.385-1.535.78-3.068 1.183-4.598l.051-.196c.4-1.513.809-3.024 1.227-4.532l.054-.194c.422-1.521.854-3.041 1.294-4.557l.033-.113a392.842 392.842 0 0 1 3.117-10.196l.024-.077c.08-.248.158-.497.239-.745l.004-.013a413.999 413.999 0 0 1 3.174-9.411l.178-.51a378.772 378.772 0 0 1 1.625-4.513c.092-.252.183-.505.276-.757a416.671 416.671 0 0 1 1.581-4.206c.128-.336.254-.672.383-1.008a401.017 401.017 0 0 1 1.544-3.936c.16-.402.316-.806.477-1.208a376.933 376.933 0 0 1 1.571-3.841c.169-.408.333-.818.503-1.226.242-.579.491-1.156.736-1.734-15.352-8.552-26.136-21.746-28.856-36.879l-.023-.078a44.09 44.09 0 0 1-.632-2.11c-.023-.086-.05-.171-.073-.257-.005-.021-.012-.042-.018-.062a42.649 42.649 0 0 1-.647-2.899c-.042-.222-.092-.443-.131-.667a42.608 42.608 0 0 1-.251-1.645l-.02-.13a44.667 44.667 0 0 1-.185-1.684c-.023-.257-.039-.515-.058-.772a41.072 41.072 0 0 1-.04-.606c-.013-.215-.033-.429-.042-.645a42.518 42.518 0 0 1-.04-1.858c0-8.489 2.52-16.543 7.008-23.736a52.298 52.298 0 0 1 1.568-2.365 55.954 55.954 0 0 1 5.534-6.678 62.338 62.338 0 0 1 5.63-5.121 68.351 68.351 0 0 1 7.1-5.023 73.257 73.257 0 0 1 5.87-3.261 78.45 78.45 0 0 1 8.559-3.647c8.998-3.228 18.993-5.045 29.515-5.045h6.51c15.626-40.963 55.257-70.072 101.709-70.072 6.124 0 12.12.531 17.969 1.503-.027-.998-.076-1.99-.076-2.994 0-60.938 49.4-110.338 110.338-110.338 34.055 0 64.496 15.437 84.736 39.684 33.093-38.861 82.378-63.527 137.431-63.527m0-9c-52.206 0-101.75 21.427-137.478 59.13-22.345-22.532-52.674-35.273-84.69-35.273-31.876 0-61.845 12.413-84.385 34.953-20.846 20.846-33.031 48.049-34.744 77.236-3.049-.239-6.089-.36-9.102-.36-24.349 0-47.719 7.368-67.584 21.308-17.686 12.411-31.47 29.18-40.148 48.764h-.487c-11.292 0-22.245 1.875-32.554 5.573a87.436 87.436 0 0 0-12.243 5.473 81.834 81.834 0 0 0-3.875 2.248 77.771 77.771 0 0 0-8.033 5.684 71.483 71.483 0 0 0-6.442 5.864 65.046 65.046 0 0 0-6.424 7.755 62.323 62.323 0 0 0-1.841 2.777C3.895 251.852 1 261.708 1 271.575c0 .75.016 1.507.049 2.25.01.217.024.428.039.64l.009.135c.015.253.031.5.049.746l.013.177c.018.25.036.5.058.75a50.655 50.655 0 0 0 .553 4.191c.038.216.081.435.126.654l.031.153a52.125 52.125 0 0 0 .784 3.498l.034.131.028.097c.021.077.041.145.061.212.175.644.367 1.293.581 1.973 2.85 14.834 12.297 28.437 26.384 38.276l-.243.616-.189.479a390.167 390.167 0 0 0-1.578 4.023l-.245.645-.149.393a397.154 397.154 0 0 0-1.615 4.296l-.168.462-.115.315a401.43 401.43 0 0 0-1.661 4.616l-.12.342-.066.188a400.365 400.365 0 0 0-1.692 4.918l-.048.144-.039.117a403.85 403.85 0 0 0-1.439 4.361l-.099.288-.023.092-.062.192-.089.277-.001.002-.025.079a402.206 402.206 0 0 0-3.188 10.43l-.027.094a407.252 407.252 0 0 0-1.331 4.683l-.058.21a404.46 404.46 0 0 0-1.252 4.625l-.031.117-.02.077c-.414 1.572-.818 3.14-1.212 4.71l-.026.103-.002.01a403.136 403.136 0 0 0-2.671 11.372l-.001.004-.01.046-.004.017-.009.042a385.94 385.94 0 0 0-1.017 4.777l-.02.099-.012.058c-.33 1.6-.648 3.19-.956 4.781l-.02.106-.01.052a401.197 401.197 0 0 0-.88 4.706l-.029.136-.021.141a402.347 402.347 0 0 0-1.101 6.417l-.001.005-.011.068-.003.011-.006.038-.002.012a401.311 401.311 0 0 0-2.143 14.929l-.021.166a400.404 400.404 0 0 0-2.867 37.646l-.002.062-.009.32a398.87 398.87 0 0 0-.133 14.914l.004.343.001.107c.055 5.026.206 10.083.447 15.019l.005.099c.115 2.326.257 4.751.423 7.221l.013.204.029.439c.334 4.836.766 9.76 1.284 14.628l.087.805.014.126c.53 4.87 1.153 9.757 1.851 14.526l.081.541.053.354c.325 2.182.669 4.375 1.025 6.518l.055.34.087.528c.417 2.482.85 4.919 1.286 7.247l.057.295.029.151a389.15 389.15 0 0 0 1.302 6.585l.274 1.322c.982 4.681 2.061 9.4 3.207 14.027.097.392.197.787.296 1.182l.065.258c.52 2.066 1.053 4.114 1.582 6.084l.093.35.162.609a397.06 397.06 0 0 0 1.946 6.917c.077.266.157.532.236.798l.14.47a406.556 406.556 0 0 0 1.742 5.752l.141.454c.112.362.224.724.339 1.085.78 2.471 1.505 4.704 2.217 6.827l.125.365.065.191a385.468 385.468 0 0 0 2.775 7.943 400 400 0 0 0 2.216 5.998l.109.291.182.487a397.99 397.99 0 0 0 2.609 6.652c.163.406.329.812.495 1.22l.191.467a406.684 406.684 0 0 0 2.211 5.322l.23.545c.144.341.288.682.434 1.023.957 2.23 1.923 4.431 2.873 6.54.119.265.24.529.361.792l.229.5c.809 1.78 1.65 3.596 2.5 5.395l.04.085a397.914 397.914 0 0 0 3.973 8.191l.052.107.03.056a404.477 404.477 0 0 0 2.721 5.325l.131.25.084.16a393.438 393.438 0 0 0 2.698 5.09l.031.062.065.117.023.043.004.006a401.183 401.183 0 0 0 2.596 4.733l.021.037.054.097.005.008a405.378 405.378 0 0 0 5.005 8.719l.008.013.073.123.075.127.001.002a400.431 400.431 0 0 0 5.036 8.279l.171.341.262.35a402.803 402.803 0 0 0 5.315 8.241l.01.015.014.022a406.188 406.188 0 0 0 5.727 8.409l.02.029.027.038.004.006a401.624 401.624 0 0 0 7.736 10.668l.004.005.137.182.047.07.161.205a396.686 396.686 0 0 0 3.232 4.231l.005.007.043.056a417.692 417.692 0 0 0 3.001 3.826l.118.149.043.064.224.271a418.448 418.448 0 0 0 3.076 3.812l.259.37.243.243a391.92 391.92 0 0 0 2.668 3.216l.004.007.409.486a396.612 396.612 0 0 0 9.383 10.751l.05.055.124.137a396.37 396.37 0 0 0 6.049 6.527l.137.145.063.067a396.732 396.732 0 0 0 6.216 6.403l.095.095a397.92 397.92 0 0 0 33.659 30.21l.016.013a403.288 403.288 0 0 0 7.073 5.523l.132.101a398.85 398.85 0 0 0 7.131 5.311l.027.019.039.028a400.293 400.293 0 0 0 44.935 28.3l.004.003.526.283a402.408 402.408 0 0 0 21.225 10.631 401.763 401.763 0 0 0 85.458 28.525l.105.022c1.642.349 3.244.679 4.848.999l.136.027.159.031c1.557.31 3.128.612 4.701.905l.329.062c1.574.292 3.146.574 4.719.846l.3.052c1.606.277 3.209.543 4.813.8l.175.028a401.1 401.1 0 0 0 40.813 4.373l.182.01.113.006c1.572.086 3.148.163 4.726.23l.402.016.246.01c1.466.06 2.926.113 4.386.156l.534.015.336.009c1.395.039 2.785.07 4.175.094l1.018.016c1.353.02 2.703.033 4.054.039l1.091.004.666.001c1.116 0 2.231-.005 3.347-.014l.161-.001.931-.008a422.45 422.45 0 0 0 4.048-.066l.313-.006.73-.016a382.8 382.8 0 0 0 4.164-.123l.345-.011.575-.019c1.469-.054 2.937-.117 4.405-.188l.263-.012.41-.019c1.632-.081 3.267-.172 4.902-.273l.123-.007a398.56 398.56 0 0 0 20.635-1.828l.516-.062.348-.042a417.26 417.26 0 0 0 4.176-.51l.795-.105.468-.062c1.255-.165 2.512-.333 3.77-.511.352-.05.705-.101 1.057-.153l.44-.064a280.127 280.127 0 0 0 4.861-.735l.316-.05a406.826 406.826 0 0 0 5.126-.846 426.35 426.35 0 0 0 5.085-.908c1.097-.203 2.189-.411 3.282-.624a377.464 377.464 0 0 0 5.052-1.015l.419-.087c.457-.095.914-.19 1.371-.287a410.89 410.89 0 0 0 3.294-.717l.493-.109c.415-.091.83-.183 1.245-.277 1.128-.255 2.257-.519 3.385-.785l.535-.125c.367-.086.734-.171 1.101-.259 1.202-.288 2.403-.586 3.603-.886l.511-.126c.298-.073.597-.147.895-.223 1.401-.355 2.8-.721 4.199-1.093l.31-.081.483-.126a396.937 396.937 0 0 0 10.069-2.837c.243-.072.484-.145.725-.219l.465-.141a405.2 405.2 0 0 0 3.764-1.143c.367-.114.735-.231 1.104-.348l.583-.185c1.084-.342 2.172-.685 3.258-1.038.449-.146.896-.294 1.342-.442l.562-.186c1.01-.333 2.02-.668 3.03-1.01.538-.182 1.074-.368 1.61-.553l.411-.142c.971-.335 1.941-.671 2.911-1.014.635-.225 1.27-.453 1.904-.681l.17-.061c.95-.342 1.9-.686 2.849-1.036.701-.258 1.401-.52 2.102-.782a372.831 372.831 0 0 0 4.934-1.887 410.914 410.914 0 0 0 12.589-5.158l.407-.175c.554-.238 1.107-.475 1.66-.716.954-.416 1.906-.84 2.858-1.264l.52-.231c.492-.219.984-.437 1.475-.659.951-.43 1.902-.869 2.852-1.307l.106-.049.634-.292c.414-.19.829-.381 1.243-.574 1.04-.487 2.079-.984 3.118-1.481l.142-.068.592-.282c.32-.152.64-.303.959-.458a401.226 401.226 0 0 0 9.552-4.78c.32-.165.639-.333.957-.501l.559-.293a401.173 401.173 0 0 0 3.191-1.68c.448-.239.896-.481 1.344-.724l.459-.248a441.16 441.16 0 0 0 2.869-1.561c.603-.332 1.204-.667 1.804-1.002l.078-.043a408.455 408.455 0 0 0 4.649-2.632c.913-.525 1.823-1.054 2.73-1.585l.08-.047c.587-.344 1.173-.687 1.758-1.033.937-.555 1.865-1.113 2.792-1.673l.493-.297c.412-.248.824-.496 1.233-.746 1.018-.622 2.031-1.25 3.042-1.88l.519-.321c.298-.184.595-.368.891-.554a404.61 404.61 0 0 0 4.416-2.814l.023-.015.023-.015.018-.012.022-.015a403.18 403.18 0 0 0 4.267-2.803c.297-.198.595-.399.892-.6l.505-.34c.976-.656 1.951-1.313 2.92-1.976.394-.27.79-.544 1.186-.818l.445-.308c.884-.612 1.768-1.225 2.646-1.844.553-.389 1.103-.781 1.654-1.173l.046-.033a389.362 389.362 0 0 0 6.763-4.922l.162-.121c.497-.37.995-.74 1.49-1.113a382.24 382.24 0 0 0 2.587-1.965l.445-.34c.359-.274.717-.547 1.074-.823.958-.741 1.908-1.486 2.856-2.232l.459-.36c.246-.193.493-.385.738-.58a398.23 398.23 0 0 0 7.979-6.503c.258-.216.514-.433.77-.651l.439-.371c.902-.761 1.803-1.523 2.697-2.292.343-.294.684-.591 1.025-.887l.411-.357c.813-.705 1.625-1.413 2.432-2.124.501-.442.998-.885 1.496-1.328a413.18 413.18 0 0 0 3.83-3.457c.772-.705 1.541-1.417 2.309-2.13l.126-.117c.441-.41.882-.82 1.321-1.231.798-.749 1.59-1.502 2.38-2.256l.391-.373a250.869 250.869 0 0 0 3.582-3.471l.375-.367c.199-.194.398-.388.595-.583a398.902 398.902 0 0 0 7.153-7.252l.638-.669.393-.413c.822-.862 1.641-1.723 2.452-2.589.305-.326.607-.652.909-.978l.331-.357a418.02 418.02 0 0 0 2.203-2.389c.434-.475.864-.951 1.295-1.427a416.35 416.35 0 0 0 3.403-3.811c.698-.792 1.392-1.588 2.084-2.386l.055-.063c.396-.456.792-.912 1.185-1.37.719-.837 1.433-1.679 2.146-2.523l.353-.417c.254-.3.508-.6.76-.901.804-.961 1.6-1.925 2.393-2.891l.318-.385c.167-.202.334-.404.499-.606a403.032 403.032 0 0 0 2.975-3.69l.015-.016.205-.261.071-.089.012-.016a398.468 398.468 0 0 0 9.622-12.641l.003-.003.382-.525.039-.053.054-.074a400.138 400.138 0 0 0 8.671-12.402l.03-.044.056-.083.01-.015.037-.055.007-.011.074-.11.009-.014a386.74 386.74 0 0 0 3.877-5.912l.084-.118.099-.166.105-.164.275-.428a406.633 406.633 0 0 0 3.372-5.358l.006-.006.542-.883.01-.017.543-.883.004-.011a401.127 401.127 0 0 0 11.403-19.93l.251-.47a402.295 402.295 0 0 0 24.095-54.689l.03-.084.033-.094c.548-1.55 1.09-3.113 1.623-4.68l.039-.115.021-.062a402.742 402.742 0 0 0 10.024-34.561l.039-.161.028-.116c.374-1.549.737-3.096 1.091-4.645l.08-.352.024-.105c.346-1.519.682-3.038 1.009-4.559l.033-.153.061-.282c.339-1.584.669-3.169.988-4.757l.01-.051.029-.143a401.63 401.63 0 0 0 4.25-25.341l.035-.267.023-.178c.202-1.511.395-3.018.579-4.527l.066-.547.026-.217c.17-1.418.334-2.84.489-4.264l.093-.858c.151-1.414.295-2.831.432-4.249l.025-.253.054-.558c.14-1.484.271-2.969.394-4.455l.018-.213.03-.358c.554-6.794.937-13.685 1.14-20.478l.01-.376.006-.234c.041-1.463.076-2.927.101-4.391l.01-.692.005-.366c.019-1.32.033-2.642.039-3.964l.003-1.158v-.094c.002-1.273-.002-2.545-.013-3.818l-.012-1.3a409.824 409.824 0 0 0-.063-3.835l-.007-.344-.019-.887a421.09 421.09 0 0 0-.12-4.059l-.013-.388-.02-.598a394.883 394.883 0 0 0-.203-4.727l-.004-.095-.009-.205c-.17-3.429-.388-6.901-.648-10.325l-.033-.415-.021-.258c-.112-1.443-.23-2.884-.358-4.325l-.078-.85-.043-.464c-.113-1.232-.23-2.465-.355-3.698-.04-.395-.082-.79-.124-1.185l-.04-.378a402.572 402.572 0 0 0-.991-8.519l-.012-.095c-.068-.53-.135-1.06-.205-1.59a398.457 398.457 0 0 0-.469-3.433l-.061-.438-.165-1.167a379.326 379.326 0 0 0-.546-3.634l-.075-.49a138.89 138.89 0 0 0-.138-.897c-.23-1.459-.471-2.921-.719-4.382l-.036-.218-.067-.4a402.913 402.913 0 0 0-.91-5.121l-.046-.24-.017-.09a390.983 390.983 0 0 0-.889-4.641c-.06-.303-.122-.607-.184-.911l-.108-.531a424.995 424.995 0 0 0-.726-3.532c-.089-.42-.18-.84-.271-1.261l-.107-.493a402.303 402.303 0 0 0-.707-3.22c-.142-.631-.287-1.261-.432-1.891a431.982 431.982 0 0 0-1.19-5.03 351.945 351.945 0 0 0-.761-3.067l-.027-.106c-.153-.607-.306-1.214-.462-1.821a433.4 433.4 0 0 0-.818-3.118l-.135-.51c-.119-.447-.237-.895-.359-1.342a400.86 400.86 0 0 0-.921-3.326l-.162-.582c-.096-.345-.192-.691-.29-1.036a412.269 412.269 0 0 0-1.242-4.26l-.075-.257-.119-.406a394.655 394.655 0 0 0-1.517-4.95c-.082-.261-.165-.519-.248-.776l-.163-.509a422.163 422.163 0 0 0-1.162-3.616c-.134-.409-.271-.817-.407-1.225l-.191-.57c-.344-1.035-.691-2.07-1.044-3.104-.181-.528-.365-1.056-.549-1.584l-.131-.375c-.341-.981-.685-1.961-1.034-2.94-.24-.673-.484-1.346-.728-2.019a418.967 418.967 0 0 0-1.816-4.908c-.365-.966-.734-1.929-1.107-2.892l-.103-.268c-.222-.575-.444-1.15-.67-1.724a381.38 381.38 0 0 0-1.182-2.968l-.101-.252c14.076-9.835 23.517-23.429 26.37-38.253.078-.24.155-.48.227-.722.088-.293.169-.589.248-.884l.063-.234.04-.142c.05-.175.099-.351.145-.527.221-.845.405-1.618.563-2.358.031-.145.059-.291.085-.437l-.006.031c.037-.182.071-.364.105-.546l.027-.142c.167-.88.311-1.751.426-2.585.022-.139.043-.277.06-.415a51.41 51.41 0 0 0 .335-3.628c.067-1.136.098-2.1.098-3.033 0-9.867-2.895-19.722-8.372-28.5a60.622 60.622 0 0 0-1.841-2.777c-2.168-3.084-4.733-6.092-7.625-8.942a71.92 71.92 0 0 0-4.267-3.885 77.682 77.682 0 0 0-11.777-8.115 85.11 85.11 0 0 0-4.349-2.287 88.35 88.35 0 0 0-5.84-2.595 90.705 90.705 0 0 0-4.383-1.632c-7.218-2.474-14.743-4.063-22.464-4.751.49-5.573.738-11.171.738-16.732 0-25.567-5.009-50.375-14.889-73.733-9.541-22.557-23.197-42.813-40.59-60.206-17.393-17.393-37.649-31.05-60.206-40.59-23.356-9.877-48.163-14.886-73.731-14.886z" class="st0"/><path d="M790 271.571c0-30.181-31.853-54.875-70.784-54.875H80.784C41.853 216.696 10 241.39 10 271.571c0 19.901 13.853 37.411 34.448 47.034l-2.044.002C-1.947 420.777-2.44 541.131 51.297 648.532c96.357 192.583 330.589 270.59 523.173 174.233 186.559-93.343 265.598-316.071 182.765-504.984 19.659-9.776 32.765-26.859 32.765-46.21z" class="st1"/><path fill="#edc531" d="M719.82 191.356c0-99.642-80.776-180.418-180.418-180.418-55.053 0-104.339 24.666-137.432 63.541-20.24-24.248-50.682-39.684-84.736-39.684-60.938 0-110.338 49.4-110.338 110.338 0 1.004.049 1.996.076 2.994a109.473 109.473 0 0 0-17.968-1.503c-47.38 0-87.683 30.277-102.635 72.535h631.319a181.892 181.892 0 0 0 2.132-27.803z"/><path fill="#cea628" d="M688.95 138.462c-19.263-61.194-76.375-104.78-140.302-108.236-5.373-.385-12.001-.334-17.412-.062l-2.898.12-2.889.277-5.771.57c-1.913.27-6.781 1.038-8.597 1.307-4.439.882-9.698 2.02-14.093 3.28-29.404 8.134-56.383 25.405-75.747 49.005 23.351-21.301 52-36.332 83.119-42.22 5.156-.939 11.053-1.722 16.285-2.247 1.872-.097 6.352-.401 8.196-.493 11.741-.307 23.815.353 35.346 2.568 58.442 10.273 107.33 54.378 125.611 110.682 2.353 7.13 4.163 14.381 5.721 21.733-.626-12.297-2.895-24.529-6.569-36.284zM311.261 52.634c-29.049 2.611-56.215 20.886-68.121 47.642 37.556-51.836 113.869-51.176 147.304 4.155 9.948 16.703 14.246 36.932 12.122 57.302.823-2.429 1.468-4.92 2.039-7.439 1.375-6.295 1.889-12.929 1.732-19.381-1.26-48.893-46.569-87.412-95.076-82.279zm-72.576 135.062c-1.986-3.17-4.463-6.092-7.012-8.824-.765-.782-2.742-2.552-3.54-3.346l-2.537-2.039c-1.422-1.226-3.779-2.681-5.337-3.764-1.83-1.063-3.813-2.248-5.747-3.136-17.366-8.426-39.4-8.912-55.928 1.572 28.355-1.946 52.873 4.284 75.124 21.981.749.647 2.678 2.211 3.483 2.862 1.45 1.332 3.147 2.694 4.578 4.076 2.905 2.621 2.549 2.62 1.302-.893-1.069-2.865-2.74-5.901-4.386-8.489z" opacity=".5"/><g opacity=".2"><path d="M416.192 222.79H81.988c-38.784 0-70.516 24.6-70.516 54.668 0 30.067 31.732 54.668 70.516 54.668h334.204"/><path d="M383.808 222.79h334.204c38.784 0 70.516 24.6 70.516 54.668 0 30.067-31.732 54.668-70.516 54.668H383.808"/></g><path d="M416.254 216.696H80.784C41.853 216.696 10 241.39 10 271.571s31.853 54.875 70.784 54.875h335.47" class="st1"/><path d="M383.746 216.696h335.47c38.931 0 70.784 24.694 70.784 54.875s-31.853 54.875-70.784 54.875h-335.47" class="st1"/><circle cx="289.623" cy="772.431" r="36.783" class="st9" transform="rotate(-84.997 289.645 772.436)"/><circle cx="561.887" cy="740.044" r="22.796" class="st9" transform="rotate(-4.002 562.199 740.425)"/><circle cx="635.08" cy="401.124" r="25.748" class="st9" transform="rotate(-78.784 635.104 401.122)"/><path d="M444.328 791.001c5.896 1.58 11.957-1.919 13.537-7.815 1.58-5.896-1.919-11.957-7.815-13.537-5.896-1.58-11.957 1.919-13.537 7.815-1.581 5.896 1.918 11.957 7.815 13.537z" class="st9"/><circle cx="660.702" cy="506.189" r="11.035" class="st9" transform="rotate(-17.484 660.73 506.244)"/><path d="M695.54 434.379a7.356 7.356 0 1 0 14.212 3.808 7.356 7.356 0 0 0-5.202-9.01 7.355 7.355 0 0 0-9.01 5.202zM187.027 643.797c-1.686 6.293 2.048 12.762 8.342 14.448 6.293 1.686 12.762-2.048 14.448-8.342 1.686-6.293-2.048-12.762-8.342-14.448-6.293-1.686-12.762 2.049-14.448 8.342z" class="st9"/><circle cx="127.736" cy="459.346" r="58.853" class="st9" transform="rotate(-45.001 127.731 459.35)"/><path d="M715.891 585.241c-35.321-9.464-71.626 11.497-81.09 46.818-9.464 35.321 11.497 71.626 46.817 81.09a65.98 65.98 0 0 0 25.117 1.773 390.354 390.354 0 0 0 53.218-90.966c-7.599-18.39-23.357-33.167-44.062-38.715zm-613.523 59.582c-17.218-4.614-34.779 1.627-45.446 14.517 13.741 25.479 29.945 48.84 48.17 69.93 13.492-4.579 24.524-15.591 28.488-30.387 6.309-23.547-7.665-47.751-31.212-54.06z" class="st9"/><path d="m484.89 630.562-.027-.058c-2.4.943-4.791 1.838-7.171 2.684 2.39-.828 4.79-1.702 7.198-2.626zm-162.839 2.726c-3.387-1.236-5.741-2.222-6.935-2.742l-.048.103a150.72 150.72 0 0 0 6.983 2.639z" class="st10"/><path d="M400 349.52c-102.311 0-185.25 82.939-185.25 185.25 0 56.763 25.53 107.563 65.733 141.544 7.434-21.242 23.897-40.791 33.3-50.786-.117-4.439.392-11.776 3.668-20.654 1.333 6.237 13.89 10.338 24.523 12.72 15.509 3.473 36.117 5.386 58.026 5.386s42.517-1.913 58.026-5.386c10.633-2.381 23.19-6.483 24.523-12.72 3.276 8.879 3.785 16.216 3.668 20.654 9.402 9.995 25.865 29.545 33.299 50.786 40.204-33.981 65.734-84.781 65.734-141.544 0-102.311-82.939-185.25-185.25-185.25zm116.195 187.903c-7.866 23.727-23.765 44.128-44.704 58.421 6.092 2.497 9.414 5.246 9.414 7.935 0 8.419-32.509 17.432-80.904 17.432s-80.904-9.013-80.904-17.432c0-2.689 3.322-5.438 9.414-7.935-20.94-14.293-36.838-34.694-44.704-58.421-19.213-1.641-34.296-17.754-34.296-37.391 0-20.517 16.464-37.187 36.901-37.524 17.547-42.811 61.783-73.196 113.588-73.196s96.042 30.385 113.59 73.195c20.437.337 36.901 17.006 36.901 37.524 0 19.638-15.083 35.751-34.296 37.392z" class="st10"/><path d="M286.41 462.508c-20.437.337-36.901 17.006-36.901 37.524 0 19.638 15.083 35.75 34.296 37.391a107.64 107.64 0 0 1-5.471-33.951 107.69 107.69 0 0 1 8.076-40.964zm-19.8 54.256a6.881 6.881 0 1 1 0-13.763 6.881 6.881 0 0 1 0 13.763zm0-19.704a6.881 6.881 0 1 1 0-13.763 6.881 6.881 0 0 1 0 13.763z" class="st11"/><circle cx="266.628" cy="490.181" r="6.881" class="st12"/><circle cx="266.604" cy="509.855" r="6.88" class="st12"/><path d="M291.249 682.196a83.919 83.919 0 0 0-.602 2.118 187.242 187.242 0 0 0 8.66 5.973c1.313-12.573 3.412-24.053 5.549-33.569-5.912 7.841-10.908 16.472-13.607 25.478zm194.539-52.054c-.309.123-.617.242-.925.363l.027.058a237.51 237.51 0 0 1-13.567 4.737c5.149 24.228 18.766 43.35 29.226 55.081l.144-.094c-1.313-12.573-3.412-24.053-5.549-33.569 5.912 7.842 10.909 16.472 13.608 25.479.214.714.412 1.418.602 2.118a185.66 185.66 0 0 0 10.163-8c-7.434-21.242-23.897-40.791-33.299-50.786-.078 2.943-.43 4.613-.43 4.613z" class="st12"/><path d="M495.144 656.717c2.138 9.516 4.237 20.996 5.549 33.569a185.163 185.163 0 0 0 8.66-5.973 89.67 89.67 0 0 0-.602-2.118c-2.699-9.005-7.695-17.636-13.607-25.478z" class="st12"/><path d="M328.509 595.844c-6.092 2.497-9.414 5.246-9.414 7.935 0 8.419 32.509 17.432 80.904 17.432 48.395 0 80.904-9.013 80.904-17.432 0-2.689-3.322-5.438-9.414-7.935-20.07 13.699-44.771 21.787-71.49 21.787s-51.419-8.088-71.49-21.787z" class="st11"/><path d="M328.659 635.477a196.568 196.568 0 0 1-6.607-2.189 151.32 151.32 0 0 1-6.982-2.639l.048-.102c-.598-.261-.906-.405-.906-.405s-.351-1.67-.429-4.614c-9.402 9.995-25.865 29.545-33.3 50.786a186.532 186.532 0 0 0 10.163 8c.19-.699.388-1.404.602-2.118 2.699-9.007 7.696-17.638 13.608-25.479-2.138 9.516-4.237 20.996-5.549 33.569l.156.102a143.526 143.526 0 0 0 6.116-7.326c8.309-10.658 18.696-27.238 23.08-47.585zm17.546 4.697c-5.714 25.716-19.3 46.088-30.718 59.487 25.339 13.013 54.068 20.358 84.513 20.358 30.451 0 59.185-7.348 84.528-20.367-11.43-13.414-25.029-33.813-30.731-59.563-43.468 10.091-81.835 5.909-107.592.085z" class="st12"/><path d="M477.693 633.189c2.38-.846 4.771-1.741 7.171-2.684.309-.121.617-.24.925-.363 0 0 .351-1.67.429-4.614.117-4.439-.392-11.776-3.668-20.654-1.333 6.237-13.89 10.338-24.523 12.72-15.509 3.473-36.116 5.386-58.026 5.386-21.909 0-42.517-1.913-58.026-5.386-10.633-2.381-23.19-6.483-24.523-12.72-3.276 8.879-3.785 16.216-3.668 20.654.077 2.944.429 4.614.429 4.614s.307.144.906.405c1.194.52 3.547 1.505 6.935 2.742a195.06 195.06 0 0 0 6.607 2.189c-4.383 20.347-14.771 36.927-23.079 47.584a144.048 144.048 0 0 1-6.116 7.326 185.109 185.109 0 0 0 16.024 9.274c11.418-13.399 25.004-33.771 30.718-59.487 25.757 5.823 64.125 10.006 107.592-.085 5.702 25.751 19.301 46.15 30.731 59.563a185.206 185.206 0 0 0 16.021-9.274c-10.461-11.731-24.078-30.853-29.226-55.081a235.624 235.624 0 0 0 6.367-2.109zm35.897-170.681a107.694 107.694 0 0 1 8.077 40.964 107.64 107.64 0 0 1-5.471 33.951c19.213-1.641 34.296-17.754 34.296-37.391-.001-20.518-16.466-37.187-36.902-37.524zm19.8 20.791a6.881 6.881 0 1 1 0 13.763 6.881 6.881 0 0 1 0-13.763zm0 33.465a6.881 6.881 0 1 1 0-13.763 6.881 6.881 0 0 1 0 13.763z" class="st11"/><circle cx="533.372" cy="509.889" r="6.881" class="st12" transform="rotate(-45.001 533.369 509.898)"/><circle cx="533.425" cy="490.151" r="6.881" class="st12"/><path d="M513.59 462.508c-17.548-42.81-61.784-73.195-113.59-73.195s-96.042 30.385-113.59 73.195a107.694 107.694 0 0 0-8.077 40.964 107.64 107.64 0 0 0 5.471 33.951c7.866 23.727 23.765 44.128 44.704 58.421 20.071 13.7 44.772 21.787 71.491 21.787 26.718 0 51.42-8.088 71.491-21.787 20.94-14.293 36.838-34.694 44.704-58.421a107.64 107.64 0 0 0 5.471-33.951 107.67 107.67 0 0 0-8.075-40.964zM400 587.268c-81.765 0-103.838-39.36-103.838-87.912 0-48.552 46.49-87.912 103.838-87.912s103.838 39.359 103.838 87.912S481.765 587.268 400 587.268z" class="st12"/><path d="M503.804 497.087c-1.106-36.947-29.136-68.23-68.101-80.309-.967-.3-1.942-.583-2.922-.859a118.3 118.3 0 0 0-6.369-1.602 114.647 114.647 0 0 0-8.347-1.544 119.078 119.078 0 0 0-4.84-.622 122.97 122.97 0 0 0-13.225-.706 125.603 125.603 0 0 0-7.989.256c-2.637.169-5.246.423-7.824.756-49.842 6.448-88.024 42.898-88.024 86.899 0 48.552 22.074 87.912 103.838 87.912s103.838-39.359 103.838-87.912a77.765 77.765 0 0 0-.035-2.269z" class="st11"/><path fill="#635da8" d="M291.249 682.196a83.919 83.919 0 0 0-.602 2.118 187.242 187.242 0 0 0 8.66 5.973c1.313-12.573 3.412-24.053 5.549-33.569-5.912 7.841-10.908 16.472-13.607 25.478zm203.895-25.479c2.138 9.516 4.237 20.996 5.549 33.569a185.163 185.163 0 0 0 8.66-5.973 89.67 89.67 0 0 0-.602-2.118c-2.699-9.005-7.695-17.636-13.607-25.478z" opacity=".1"/></svg>