<svg xmlns="http://www.w3.org/2000/svg" xml:space="preserve" id="Layer_1" x="0" y="0" version="1.1" viewBox="0 0 800 875"><style>.st0{fill:#fff}.st10{fill:#9590c5}.st11{fill:#635da8}.st12{fill:#e7e5ea}.st21{fill:#305b61}.st35{fill:#4d9ba4}</style><path d="M398.52 868.555a411.627 411.627 0 0 1-4.002-.038l-1.009-.017a376.95 376.95 0 0 1-4.117-.093l-.872-.024c-1.44-.042-2.885-.095-4.328-.154l-.639-.025a378.524 378.524 0 0 1-4.684-.228l-.274-.014a396.474 396.474 0 0 1-40.34-4.32l-.124-.021a380.73 380.73 0 0 1-4.831-.802l-.32-.057a371.473 371.473 0 0 1-4.646-.833l-.324-.06c-1.559-.29-3.112-.59-4.663-.897l-.289-.059a395.504 395.504 0 0 1-4.743-.976l-.183-.04a397.194 397.194 0 0 1-84.463-28.196 395.7 395.7 0 0 1-20.987-10.512 395.873 395.873 0 0 1-44.976-28.28 392.028 392.028 0 0 1-7.108-5.294l-.098-.075a400.231 400.231 0 0 1-6.973-5.443l-.036-.029a393.122 393.122 0 0 1-33.275-29.862l-.112-.111a403.28 403.28 0 0 1-6.14-6.325l-.205-.217a386.293 386.293 0 0 1-5.982-6.455l-.154-.17a394.611 394.611 0 0 1-7.934-9.043h-.025s-2.759-3.31-3.298-3.961h-.672l-1.013-2.05a403.33 403.33 0 0 1-2.864-3.55l-.457-.304-.313-.665c-.43-.542-.858-1.085-1.285-1.63h-.582l-1.048-2.096a378.278 378.278 0 0 1-2.991-3.92l-.288-.362-.025-.053a395.335 395.335 0 0 1-7.679-10.589l-.194-.278a394.23 394.23 0 0 1-10.706-16.15l-.156-.155-.231-.463a395.773 395.773 0 0 1-4.912-8.062l-.257-.433a395.747 395.747 0 0 1-4.918-8.559l-.095-.124-.142-.299a405.464 405.464 0 0 1-2.449-4.467l-.051-.093-.061-.096-.067-.143a405.268 405.268 0 0 1-2.682-5.061l-.205-.392a412.11 412.11 0 0 1-2.684-5.252l-.092-.184a409.704 409.704 0 0 1-3.122-6.4l-.846-1.785a393.445 393.445 0 0 1-2.473-5.338l-.582-1.271a402.63 402.63 0 0 1-2.843-6.473l-.657-1.553a393.947 393.947 0 0 1-2.186-5.261l-.678-1.665a403.21 403.21 0 0 1-2.581-6.579l-.289-.771a380.073 380.073 0 0 1-2.189-5.927l-.615-1.715a391.974 391.974 0 0 1-2.132-6.145l-.187-.547a392.708 392.708 0 0 1-2.191-6.748l-.474-1.521a390.376 390.376 0 0 1-1.723-5.688l-.371-1.254a382.553 382.553 0 0 1-1.924-6.839l-.251-.943a389.571 389.571 0 0 1-1.566-6.021l-.357-1.425a392.997 392.997 0 0 1-3.17-13.861l-.25-1.212a405.74 405.74 0 0 1-1.308-6.608l-.085-.443a385.205 385.205 0 0 1-1.271-7.16l-.141-.859a406.363 406.363 0 0 1-1.014-6.442l-.132-.889a391.761 391.761 0 0 1-1.83-14.357l-.1-.923c-.512-4.812-.939-9.68-1.27-14.467l-.042-.639c-.16-2.368-.301-4.744-.417-7.12l-.006-.108a396.477 396.477 0 0 1-.442-14.859l-.005-.449c-.048-4.861-.004-9.827.132-14.744l.01-.364a396.009 396.009 0 0 1 2.837-37.245l.018-.146a399.268 399.268 0 0 1 2.065-14.427v-.054l.098-.545c.341-2.088.7-4.172 1.074-6.252l.021-.152.024-.096c.28-1.547.569-3.094.867-4.637l.031-.16c.304-1.571.618-3.144.942-4.712l.035-.169c.326-1.576.661-3.151 1.006-4.724l.028-.126a395.968 395.968 0 0 1 2.648-11.271l.008-.031c.398-1.587.797-3.137 1.205-4.685l.055-.209c.401-1.52.815-3.047 1.237-4.573l.033-.12c.449-1.616.885-3.152 1.331-4.686l.049-.165a392.3 392.3 0 0 1 3.137-10.263l.183-.57.072-.368.126-.248c.438-1.349.883-2.695 1.334-4.04l.089-.265a378.267 378.267 0 0 1 1.676-4.87l.181-.518a388.513 388.513 0 0 1 1.643-4.562l.278-.763c.525-1.424 1.06-2.842 1.601-4.257l.385-1.016a421.83 421.83 0 0 1 1.562-3.982l.482-1.22c.437-1.087.88-2.17 1.326-3.251-14.86-9.341-24.814-22.879-27.57-37.666a47.16 47.16 0 0 1-.624-2.102l-.1-.354a47.815 47.815 0 0 1-.584-2.531l-.169-.859a17.32 17.32 0 0 1-.106-.552 45.127 45.127 0 0 1-.276-1.81l-.022-.146a46.786 46.786 0 0 1-.204-1.86 112.013 112.013 0 0 1-.154-2.228 49.055 49.055 0 0 1-.044-2.062c0-9.153 2.587-17.94 7.69-26.118a56.24 56.24 0 0 1 1.704-2.57 60.572 60.572 0 0 1 5.979-7.217 66.943 66.943 0 0 1 6.037-5.493 73.305 73.305 0 0 1 7.565-5.353 77.517 77.517 0 0 1 6.227-3.46 83.171 83.171 0 0 1 9.048-3.855c9.82-3.522 20.261-5.309 31.032-5.309h3.455c8.254-19.986 21.952-37.081 39.765-49.581 19.104-13.405 41.58-20.491 64.999-20.491 4.428 0 8.921.271 13.414.808 1.175-62.312 52.229-112.637 114.817-112.637 32.387 0 62.979 13.547 84.74 37.35C437.063 28.683 486.853 6.44 539.401 6.44c101.964 0 184.918 82.954 184.918 184.919 0 6.956-.396 13.972-1.18 20.92 8.955.364 17.666 1.981 25.947 4.82 1.371.47 2.772.991 4.163 1.55a80.76 80.76 0 0 1 11.196 5.516 73.377 73.377 0 0 1 9.56 6.755 67.324 67.324 0 0 1 3.999 3.642c2.699 2.659 5.088 5.46 7.102 8.324a57.48 57.48 0 0 1 1.706 2.572c5.102 8.176 7.689 16.963 7.689 26.116a47 47 0 0 1-.09 2.769l-.04.631a46.315 46.315 0 0 1-.267 2.688l-.043.299a49.643 49.643 0 0 1-.401 2.437l-.193 1.004a46.05 46.05 0 0 1-.515 2.153c-.04.152-.234.851-.234.851-.07.26-.141.52-.218.777-.082.274-.169.543-.258.812l-.026.08c-2.754 14.784-12.704 28.321-27.561 37.663.246.593.491 1.186.733 1.778l.75 1.862c.396.988.787 1.963 1.17 2.938.258.658.512 1.314.766 1.972a384.02 384.02 0 0 1 4.63 12.61l.672 1.939c.35 1.021.692 2.045 1.033 3.068l.59 1.772c.39 1.191.771 2.383 1.149 3.573l.405 1.271a376.09 376.09 0 0 1 1.5 4.896l.193.659c.417 1.402.828 2.806 1.229 4.21l.448 1.604c.307 1.091.612 2.186.91 3.282l.488 1.831c.273 1.029.545 2.057.81 3.084l.47 1.852a416.109 416.109 0 0 1 1.227 4.998c.243 1.021.481 2.041.716 3.062l.427 1.87c.238 1.059.47 2.12.699 3.183l.374 1.736c.245 1.159.482 2.324.717 3.487l.289 1.425c.303 1.532.596 3.062.88 4.591l.064.339c.31 1.675.61 3.365.899 5.055l.101.609c.245 1.44.482 2.886.71 4.331l.209 1.367c.185 1.199.366 2.396.541 3.594l.224 1.588c.159 1.133.315 2.264.463 3.396l.214 1.66a368 368 0 0 1 .412 3.348l.193 1.652c.131 1.145.255 2.284.375 3.426l.162 1.548c.124 1.215.24 2.435.352 3.653l.121 1.302c.126 1.422.243 2.848.353 4.272l.054.668c.256 3.385.472 6.817.64 10.201l.013.298c.076 1.562.143 3.12.201 4.677l.032.972c.046 1.341.087 2.677.119 4.014l.026 1.223c.027 1.262.048 2.525.062 3.789l.012 1.286c.01 1.258.014 2.517.012 3.774l-.003 1.24a393.97 393.97 0 0 1-.039 3.918l-.015 1.052c-.025 1.44-.059 2.887-.1 4.333l-.016.604c-.2 6.708-.579 13.521-1.127 20.251l-.047.557a374.143 374.143 0 0 1-.39 4.41l-.077.801a393.514 393.514 0 0 1-.427 4.204l-.091.842a383.624 383.624 0 0 1-.484 4.223l-.092.76a395.129 395.129 0 0 1-.571 4.465l-.06.451a397.001 397.001 0 0 1-4.203 25.054l-.042.209a403.954 403.954 0 0 1-.973 4.68l-.095.438c-.322 1.498-.654 3-.996 4.501l-.104.455c-.35 1.529-.708 3.058-1.076 4.584l-.071.293a398.219 398.219 0 0 1-9.907 34.154l-.043.128a404.325 404.325 0 0 1-1.625 4.689l-.063.177a397.567 397.567 0 0 1-23.821 54.066l-.242.453a397.507 397.507 0 0 1-11.282 19.719l-.22.494-.213.214-.104.17a392.064 392.064 0 0 1-3.883 6.188l-.717 1.114a380.676 380.676 0 0 1-3.684 5.612l-.063.104-.136.192a398.646 398.646 0 0 1-8.648 12.366l-.069.095a398.067 398.067 0 0 1-9.645 12.701l-.027.054-.258.308-.116.156-.049.048-.041.052a417.278 417.278 0 0 1-2.962 3.676l-.809.98c-.782.953-1.569 1.906-2.362 2.855l-1.103 1.305c-.704.835-1.411 1.668-2.124 2.497-.405.472-.817.946-1.228 1.42-.679.784-1.366 1.571-2.057 2.355l-1.281 1.445a382.097 382.097 0 0 1-3.364 3.731c-.72.79-1.448 1.576-2.177 2.362l-1.222 1.315c-.806.859-1.615 1.711-2.426 2.562l-1.02 1.071a390.662 390.662 0 0 1-7.075 7.172l-.958.937c-.874.858-1.751 1.715-2.636 2.566l-1.291 1.233c-.785.748-1.567 1.491-2.354 2.23-.475.445-.953.89-1.431 1.333-.759.705-1.52 1.408-2.284 2.106l-1.474 1.341c-.771.697-1.542 1.39-2.316 2.079-.489.436-.982.876-1.478 1.312a419 419 0 0 1-2.401 2.097l-1.419 1.229a336.47 336.47 0 0 1-2.669 2.268l-1.192 1.008a387.925 387.925 0 0 1-7.889 6.43l-1.186.931c-.934.736-1.874 1.474-2.821 2.205l-1.502 1.15c-.85.65-1.701 1.298-2.557 1.942-.546.41-1.092.816-1.638 1.222-.823.613-1.652 1.226-2.485 1.835-.56.41-1.122.818-1.684 1.227a443.08 443.08 0 0 1-2.515 1.804l-1.677 1.19c-.873.613-1.745 1.219-2.618 1.823l-1.615 1.115a364.65 364.65 0 0 1-2.887 1.954l-1.38.929a371.82 371.82 0 0 1-4.182 2.747l-.117.077a429.343 429.343 0 0 1-4.371 2.786l-1.396.866c-.999.623-2.001 1.245-3.009 1.86l-1.702 1.028c-.92.556-1.839 1.108-2.762 1.655-.605.359-1.214.715-1.823 1.071a388.937 388.937 0 0 1-11.994 6.745l-1.78.96c-1.047.56-2.101 1.112-3.156 1.662l-1.495.783a398.78 398.78 0 0 1-9.448 4.728l-1.54.734a365.942 365.942 0 0 1-3.218 1.529l-2.099.969c-.894.412-1.787.824-2.682 1.229l-2.232.995c-.855.381-1.711.762-2.569 1.136-.593.259-2.043.881-2.043.881-.935.4-1.849.793-2.765 1.178-.693.292-1.392.582-2.09.87-.913.378-1.824.753-2.737 1.123-.703.285-1.404.565-2.106.846a458.732 458.732 0 0 1-4.846 1.896 475.204 475.204 0 0 1-4.86 1.827c-.938.347-1.878.688-2.818 1.025-.682.245-1.365.491-2.049.733-.958.34-1.918.671-2.878 1.003l-1.998.688c-.969.329-1.941.649-2.912.971l-1.966.648c-1.074.349-2.15.689-3.228 1.027 0 0-1.271.404-1.666.526-1.236.384-2.478.759-3.72 1.131l-1.176.354a385.601 385.601 0 0 1-9.949 2.804l-.794.208c-1.375.365-2.759.727-4.145 1.078l-1.393.346c-1.183.296-2.369.59-3.555.875l-1.618.381c-1.12.263-2.235.523-3.352.776l-1.719.381a370.1 370.1 0 0 1-3.253.709l-1.772.37c-1.074.223-2.149.443-3.224.657l-1.773.348c-1.079.209-2.159.414-3.239.615l-1.751.32c-1.093.198-2.186.39-3.277.578l-1.706.29c-1.124.188-2.244.369-3.365.547l-1.619.255c-1.166.18-2.331.352-3.496.521l-1.478.214c-1.25.176-2.492.343-3.735.506l-1.245.165c-1.376.176-2.751.342-4.126.503l-.859.103a393.85 393.85 0 0 1-20.356 1.805l-.121.007c-1.659.103-3.275.192-4.892.272l-.654.029c-1.46.07-2.911.133-4.362.187l-.921.03c-1.361.047-2.732.088-4.103.121l-1.041.021c-1.328.028-2.664.052-3.998.066l-1.077.009c-1.131.009-2.261.014-3.391.014l-1.66.003z" class="st0"/><path d="M539.401 10.941c99.642 0 180.418 80.776 180.418 180.418a181.8 181.8 0 0 1-1.776 25.341h1.173c10.093 0 19.702 1.672 28.412 4.656a80.39 80.39 0 0 1 9.182 3.796 75.605 75.605 0 0 1 5.336 2.881 68.549 68.549 0 0 1 8.97 6.337 62.138 62.138 0 0 1 3.729 3.396c2.454 2.418 4.668 4.989 6.579 7.707.547.777 1.07 1.566 1.568 2.365 4.488 7.193 7.008 15.247 7.008 23.736 0 .84-.034 1.674-.083 2.505-.011.191-.022.383-.036.573a42.463 42.463 0 0 1-.24 2.426c-.015.114-.035.226-.05.34-.099.717-.218 1.43-.353 2.138-.036.188-.069.377-.108.565-.023.113-.041.226-.065.339a43.395 43.395 0 0 1-.467 1.955c-.048.185-.103.369-.154.554-.085.309-.165.619-.257.926-.097.323-.205.643-.31.964-.014.042-.024.086-.039.128-2.719 15.13-13.499 28.322-28.846 36.874.089.21.179.419.267.629.218.515.43 1.032.645 1.548.442 1.058.883 2.116 1.315 3.175.25.614.495 1.229.742 1.843.389.967.776 1.934 1.156 2.903.255.648.505 1.297.756 1.946a389.542 389.542 0 0 1 1.822 4.805 382.712 382.712 0 0 1 2.757 7.666c.222.638.445 1.276.664 1.916.346 1.011.684 2.023 1.021 3.035.195.584.392 1.168.584 1.753.386 1.177.762 2.355 1.136 3.534.133.419.27.838.402 1.258.505 1.61.999 3.222 1.482 4.836.065.217.126.433.19.65.412 1.387.818 2.774 1.214 4.163.15.527.295 1.055.443 1.582.304 1.083.606 2.166.901 3.25.164.603.322 1.206.482 1.809.27 1.016.539 2.031.8 3.048.161.627.319 1.255.478 1.882a409.375 409.375 0 0 1 1.2 4.889 401.22 401.22 0 0 1 1.82 8.019c.123.571.249 1.143.37 1.715.243 1.15.477 2.301.71 3.452.095.47.193.94.286 1.41.299 1.511.588 3.022.869 4.534.02.108.042.215.061.323.308 1.669.605 3.339.89 5.009.034.2.065.4.099.599.242 1.428.477 2.856.703 4.284.071.451.138.903.208 1.354.183 1.184.362 2.367.534 3.551.076.523.148 1.046.221 1.57.157 1.118.311 2.235.458 3.353.072.549.142 1.098.212 1.647a414.04 414.04 0 0 1 .598 4.941c.129 1.128.252 2.255.371 3.383.054.51.108 1.019.16 1.529.122 1.205.237 2.409.347 3.614.039.428.081.856.119 1.284.125 1.408.24 2.817.349 4.225.017.22.037.44.053.66.255 3.363.466 6.725.633 10.086l.013.298c.075 1.54.141 3.081.198 4.62.012.321.021.642.032.963.046 1.322.086 2.644.118 3.965.01.402.017.804.026 1.206.026 1.25.047 2.499.062 3.749l.012 1.269c.01 1.244.014 2.488.013 3.731-.001.408-.001.817-.003 1.225a384.585 384.585 0 0 1-.038 3.874c-.005.345-.009.69-.015 1.034a408.871 408.871 0 0 1-.098 4.291l-.016.596a388.943 388.943 0 0 1-1.114 20.019l-.047.555a395.4 395.4 0 0 1-.385 4.355l-.076.792a384.394 384.394 0 0 1-.992 9.162l-.089.744c-.18 1.475-.369 2.949-.566 4.421l-.058.439a390.347 390.347 0 0 1-4.156 24.776l-.038.185a382.898 382.898 0 0 1-.966 4.648l-.092.427a402.557 402.557 0 0 1-2.153 9.44l-.066.276a392.505 392.505 0 0 1-9.797 33.778l-.061.18c-.52 1.531-1.05 3.059-1.59 4.584l-.058.164a391.924 391.924 0 0 1-23.555 53.464l-.243.456-.001.001a390.813 390.813 0 0 1-11.301 19.734l-.002.003-.377.617-.001.002a388.456 388.456 0 0 1-3.838 6.115l-.45.699-.002.003a388.564 388.564 0 0 1-3.957 6.035l-.004.007-.149.22a388.879 388.879 0 0 1-8.534 12.202l-.001.001-.06.082a387.256 387.256 0 0 1-9.826 12.924l-.004.006-.005.006-.001.001a382.79 382.79 0 0 1-3.12 3.874c-.264.324-.532.645-.797.968-.775.944-1.553 1.887-2.337 2.824-.361.431-.726.86-1.089 1.29-.696.824-1.394 1.648-2.098 2.467-.402.469-.807.935-1.212 1.401a346.49 346.49 0 0 1-3.304 3.761 369.802 369.802 0 0 1-5.478 6.024c-.403.434-.804.869-1.209 1.302-.794.847-1.594 1.689-2.396 2.53-.337.353-.671.708-1.009 1.06a389.179 389.179 0 0 1-6.992 7.089c-.314.31-.632.617-.946.926a390.11 390.11 0 0 1-2.605 2.536c-.425.409-.853.814-1.28 1.221-.772.737-1.546 1.472-2.325 2.203-.47.441-.942.879-1.414 1.317a343.738 343.738 0 0 1-3.717 3.409 371.241 371.241 0 0 1-3.746 3.348c-.789.695-1.582 1.386-2.377 2.076-.468.406-.934.813-1.405 1.217-.874.751-1.754 1.496-2.636 2.24-.394.332-.785.667-1.18.998a387.93 387.93 0 0 1-7.797 6.355c-.388.308-.78.612-1.169.918a400.53 400.53 0 0 1-2.791 2.181c-.494.381-.991.759-1.487 1.139-.84.643-1.681 1.284-2.527 1.92-.536.404-1.076.804-1.615 1.206a371.425 371.425 0 0 1-6.61 4.81c-.553.394-1.106.787-1.661 1.178-.858.604-1.721 1.204-2.586 1.802-.531.368-1.061.737-1.595 1.102-.947.648-1.899 1.29-2.853 1.931-.456.306-.909.615-1.366.92a391.361 391.361 0 0 1-4.21 2.765l-.046.03c-1.431.926-2.87 1.842-4.316 2.75-.458.288-.92.571-1.38.857-.988.616-1.978 1.23-2.974 1.838-.56.342-1.124.68-1.687 1.019-.907.547-1.815 1.094-2.728 1.635-.598.354-1.199.706-1.8 1.058a412.054 412.054 0 0 1-4.517 2.606c-.896.509-1.795 1.014-2.696 1.516-.613.342-1.225.683-1.84 1.022-.932.513-1.869 1.021-2.806 1.527-.587.317-1.172.636-1.761.95a400.535 400.535 0 0 1-3.119 1.642c-.495.258-.986.52-1.483.776a391.512 391.512 0 0 1-9.341 4.674c-.505.244-1.011.481-1.517.723-1.062.508-2.124 1.017-3.188 1.515-.611.286-1.223.564-1.835.847-.964.445-1.927.89-2.892 1.326-.649.293-1.3.581-1.95.87-.931.415-1.862.829-2.794 1.236-.673.293-1.347.582-2.021.871-.91.391-1.82.781-2.732 1.164-.689.29-1.379.575-2.069.861a349.965 349.965 0 0 1-4.791 1.947 413.176 413.176 0 0 1-4.791 1.874 366.91 366.91 0 0 1-4.803 1.807c-.927.342-1.856.678-2.784 1.012-.675.243-1.351.487-2.027.726-.948.335-1.898.664-2.847.992-.658.227-1.316.456-1.974.679-.986.334-1.974.661-2.962.987-.62.205-1.239.412-1.859.613-1.061.344-2.124.68-3.187 1.015-.549.173-1.098.35-1.647.521-1.226.38-2.453.75-3.681 1.118-.387.116-.774.236-1.161.351a388.555 388.555 0 0 1-9.837 2.772c-.259.069-.519.135-.778.204-1.367.363-2.735.721-4.105 1.068-.458.116-.917.227-1.375.341-1.172.293-2.345.584-3.518.865-.533.128-1.067.251-1.6.376-1.103.26-2.206.518-3.311.767-.565.128-1.131.251-1.696.376a362.58 362.58 0 0 1-3.22.701c-.583.124-1.167.244-1.75.365-1.063.221-2.126.438-3.189.65-.583.116-1.167.229-1.75.343a354.168 354.168 0 0 1-4.935.926 407.295 407.295 0 0 1-4.928.858c-1.107.185-2.215.365-3.323.54-.533.084-1.066.17-1.599.252-1.153.178-2.306.348-3.46.515-.488.071-.976.143-1.464.212-1.228.173-2.457.338-3.685.499-.411.054-.821.11-1.232.163-1.36.174-2.72.338-4.08.498-.282.033-.563.069-.845.101a388.23 388.23 0 0 1-25.081 2.06c-.218.011-.437.019-.655.03-1.435.069-2.869.131-4.304.183l-.902.03c-1.355.047-2.709.087-4.063.12l-1.023.021c-1.32.028-2.639.051-3.958.065l-1.065.01c-1.091.009-2.182.014-3.273.014h-.653c-.355 0-.709-.002-1.063-.004a401.557 401.557 0 0 1-9.031-.146l-.857-.024a380.845 380.845 0 0 1-4.281-.153c-.213-.009-.427-.016-.64-.026a395.054 395.054 0 0 1-4.623-.225l-.285-.015a390.248 390.248 0 0 1-39.866-4.27l-.199-.032a390.064 390.064 0 0 1-4.7-.781l-.299-.052a396.528 396.528 0 0 1-4.608-.826l-.327-.061a377.622 377.622 0 0 1-4.605-.887l-.277-.055a376.034 376.034 0 0 1-4.698-.968l-.145-.031a392.242 392.242 0 0 1-83.541-27.885 390.516 390.516 0 0 1-20.748-10.392h-.002a389.737 389.737 0 0 1-44.461-27.958l-.04-.029a385.602 385.602 0 0 1-6.987-5.204l-.111-.085a383.87 383.87 0 0 1-6.878-5.37l-.035-.029a387.177 387.177 0 0 1-32.893-29.519l-.109-.11a385.688 385.688 0 0 1-6.071-6.254l-.199-.21a389.676 389.676 0 0 1-5.916-6.383l-.165-.183a387.907 387.907 0 0 1-9.17-10.507l-.002-.003-.103-.123a392.334 392.334 0 0 1-3.184-3.837l-.001-.002-.094-.115a404.802 404.802 0 0 1-3.168-3.924l-.008-.01-.168-.212-.152-.191-.004-.005a383.19 383.19 0 0 1-2.934-3.74l-.001-.002-.03-.038c-1.084-1.4-2.16-2.808-3.227-4.226l-.004-.005-.133-.176-.001-.002a386.437 386.437 0 0 1-7.73-10.653l-.01-.015a391.82 391.82 0 0 1-5.618-8.248l-.006-.009a390.602 390.602 0 0 1-5.403-8.385l-.006-.009-.002-.003a393.238 393.238 0 0 1-5.217-8.571l-.005-.009c-1.706-2.885-3.38-5.8-5.02-8.743l-.004-.007-.026-.047a390.056 390.056 0 0 1-2.591-4.727l-.003-.005-.001-.002-.005-.01a409.506 409.506 0 0 1-2.697-5.087l-.208-.397a385.834 385.834 0 0 1-2.701-5.289l-.013-.025-.008-.016a400.883 400.883 0 0 1-3.105-6.364c-.281-.588-.559-1.177-.837-1.766a397.615 397.615 0 0 1-2.445-5.276c-.191-.421-.387-.841-.577-1.262a386.527 386.527 0 0 1-2.809-6.395c-.219-.51-.432-1.022-.649-1.533a394.211 394.211 0 0 1-2.162-5.204c-.224-.549-.449-1.098-.67-1.648a390.485 390.485 0 0 1-2.551-6.503c-.096-.253-.188-.507-.284-.76a398.154 398.154 0 0 1-2.774-7.558 382.842 382.842 0 0 1-2.107-6.073c-.06-.179-.124-.358-.184-.537a392.657 392.657 0 0 1-2.167-6.674c-.158-.501-.312-1.002-.468-1.504a389.14 389.14 0 0 1-1.704-5.624c-.122-.413-.246-.825-.367-1.238a384.662 384.662 0 0 1-1.902-6.761c-.085-.312-.165-.624-.249-.937a385.128 385.128 0 0 1-1.547-5.948c-.118-.468-.237-.936-.353-1.405a384.88 384.88 0 0 1-3.134-13.707l-.268-1.294a389.051 389.051 0 0 1-1.273-6.436l-.084-.435c-.442-2.359-.859-4.72-1.256-7.082-.048-.283-.092-.566-.139-.849a386.23 386.23 0 0 1-1.001-6.369c-.043-.292-.089-.583-.131-.875a387.604 387.604 0 0 1-1.808-14.194l-.098-.912a387.513 387.513 0 0 1-1.255-14.302l-.042-.624a378.56 378.56 0 0 1-.413-7.046l-.006-.108a387.776 387.776 0 0 1-.442-15.119c-.048-4.87-.004-9.734.131-14.591l.01-.36a389.455 389.455 0 0 1 2.805-36.82l.017-.139a391.232 391.232 0 0 1 2.099-14.618l.001-.005.005-.031.002-.014c.351-2.152.72-4.3 1.106-6.445l.003-.019.001-.008c.285-1.578.579-3.154.883-4.727l.03-.156a408.5 408.5 0 0 1 .931-4.661l.034-.167c.322-1.559.654-3.116.995-4.671l.023-.106a393.77 393.77 0 0 1 2.622-11.163l.013-.053.003-.011c.385-1.535.78-3.068 1.183-4.598l.051-.196c.4-1.513.809-3.024 1.227-4.532l.054-.194c.422-1.521.854-3.041 1.294-4.557l.033-.113a392.842 392.842 0 0 1 3.117-10.196l.024-.077c.08-.248.158-.497.239-.745l.004-.013a413.999 413.999 0 0 1 3.174-9.411l.178-.51a378.772 378.772 0 0 1 1.625-4.513c.092-.252.183-.505.276-.757a416.671 416.671 0 0 1 1.581-4.206c.128-.336.254-.672.383-1.008a401.017 401.017 0 0 1 1.544-3.936c.16-.402.316-.806.477-1.208a376.933 376.933 0 0 1 1.571-3.841c.169-.408.333-.818.503-1.226.242-.579.491-1.156.736-1.734-15.352-8.552-26.136-21.746-28.856-36.879l-.023-.078a44.09 44.09 0 0 1-.632-2.11c-.023-.086-.05-.171-.073-.257-.005-.021-.012-.042-.018-.062a42.649 42.649 0 0 1-.647-2.899c-.042-.222-.092-.443-.131-.667a42.608 42.608 0 0 1-.251-1.645l-.02-.13a44.667 44.667 0 0 1-.185-1.684c-.023-.257-.039-.515-.058-.772a41.072 41.072 0 0 1-.04-.606c-.013-.215-.033-.429-.042-.645a42.518 42.518 0 0 1-.04-1.858c0-8.489 2.52-16.543 7.008-23.736a52.298 52.298 0 0 1 1.568-2.365 55.954 55.954 0 0 1 5.534-6.678 62.338 62.338 0 0 1 5.63-5.121 68.351 68.351 0 0 1 7.1-5.023 73.257 73.257 0 0 1 5.87-3.261 78.45 78.45 0 0 1 8.559-3.647c8.998-3.228 18.993-5.045 29.515-5.045h6.51c15.626-40.963 55.257-70.072 101.709-70.072 6.124 0 12.12.531 17.969 1.503-.027-.998-.076-1.99-.076-2.994 0-60.938 49.4-110.338 110.338-110.338 34.055 0 64.496 15.437 84.736 39.684 33.093-38.863 82.378-63.529 137.431-63.529m0-9c-52.206 0-101.75 21.427-137.478 59.13-22.345-22.532-52.674-35.273-84.69-35.273-31.876 0-61.845 12.413-84.385 34.953-20.846 20.846-33.031 48.049-34.744 77.236-3.049-.239-6.089-.36-9.102-.36-24.349 0-47.719 7.368-67.584 21.308-17.686 12.411-31.47 29.18-40.148 48.764h-.487c-11.292 0-22.245 1.875-32.554 5.573a87.436 87.436 0 0 0-12.243 5.473 81.834 81.834 0 0 0-3.875 2.248 77.771 77.771 0 0 0-8.033 5.684 71.483 71.483 0 0 0-6.442 5.864 65.046 65.046 0 0 0-6.424 7.755 62.323 62.323 0 0 0-1.841 2.777C3.895 251.852 1 261.708 1 271.575c0 .75.016 1.507.049 2.25.01.217.024.428.039.64l.009.135c.015.253.031.5.049.746l.013.176c.018.25.036.501.058.75a50.396 50.396 0 0 0 .553 4.19c.038.216.081.435.126.654l.031.153a52.125 52.125 0 0 0 .784 3.498l.034.131.028.097.061.212c.175.643.367 1.293.581 1.973 2.85 14.834 12.297 28.437 26.384 38.276l-.243.616-.189.479a390.167 390.167 0 0 0-1.578 4.023l-.245.645-.149.393a397.154 397.154 0 0 0-1.615 4.296l-.168.462-.115.315a401.43 401.43 0 0 0-1.661 4.616l-.12.342-.066.188a400.365 400.365 0 0 0-1.692 4.918l-.048.144-.039.117a403.85 403.85 0 0 0-1.439 4.361l-.099.288-.023.092-.062.192-.089.277-.001.002-.025.079a402.206 402.206 0 0 0-3.188 10.43l-.027.094a407.252 407.252 0 0 0-1.331 4.683l-.058.21a404.46 404.46 0 0 0-1.252 4.625l-.031.117-.02.077c-.414 1.572-.818 3.14-1.212 4.71l-.026.103-.002.01a403.136 403.136 0 0 0-2.671 11.372l-.001.004-.01.046-.004.017-.009.042a385.94 385.94 0 0 0-1.017 4.777l-.02.099-.012.058c-.33 1.6-.648 3.19-.956 4.781l-.02.106-.01.052a401.197 401.197 0 0 0-.88 4.706l-.029.136-.021.141a402.347 402.347 0 0 0-1.101 6.417l-.001.005-.011.068-.003.013-.006.038-.002.012a401.311 401.311 0 0 0-2.143 14.929l-.021.166a400.404 400.404 0 0 0-2.867 37.646l-.002.062-.009.32a398.87 398.87 0 0 0-.133 14.914l.004.343.001.107c.055 5.026.206 10.083.447 15.019l.005.099c.115 2.326.257 4.751.423 7.221l.013.204.029.439c.334 4.836.766 9.76 1.284 14.628l.087.804.014.126c.53 4.87 1.153 9.757 1.851 14.526l.081.541.053.354c.325 2.182.669 4.375 1.025 6.519l.055.34.087.528c.417 2.482.85 4.92 1.286 7.248l.057.295.029.151c.396 2.103.822 4.257 1.302 6.585l.274 1.322c.982 4.681 2.061 9.4 3.207 14.027.097.393.197.787.296 1.181l.065.258c.52 2.066 1.053 4.114 1.582 6.084l.093.35.162.609c.613 2.26 1.268 4.587 1.946 6.917.077.266.157.532.236.798l.14.47c.56 1.899 1.146 3.835 1.742 5.752l.139.447c.113.364.226.729.341 1.093.78 2.471 1.505 4.704 2.217 6.827l.125.365.065.191a385.468 385.468 0 0 0 2.775 7.943 400 400 0 0 0 2.216 5.998l.109.292.182.487a397.99 397.99 0 0 0 2.609 6.652c.163.406.329.812.495 1.22l.191.467a405.42 405.42 0 0 0 2.211 5.322l.23.545c.144.341.288.682.434 1.023.957 2.23 1.923 4.431 2.873 6.541.119.265.24.529.361.792l.229.5c.809 1.78 1.65 3.596 2.5 5.395l.04.085a404.023 404.023 0 0 0 3.964 8.173l.055.114.036.067a404.477 404.477 0 0 0 2.721 5.325l.131.25.084.159a386.992 386.992 0 0 0 2.698 5.09l.031.062.065.117.023.043.004.006a401.183 401.183 0 0 0 2.596 4.733l.021.037.054.097.005.008a405.378 405.378 0 0 0 5.005 8.719l.008.013.073.124.075.127.001.002a403.188 403.188 0 0 0 5.036 8.28l.171.341.262.35a402.803 402.803 0 0 0 5.315 8.241l.01.015.014.022a408.966 408.966 0 0 0 5.727 8.41l.02.029.027.038.004.006a399.942 399.942 0 0 0 7.736 10.667l.004.005.137.182.047.07.161.205a396.686 396.686 0 0 0 3.232 4.231l.005.007.043.056a417.692 417.692 0 0 0 3.001 3.826l.118.149.043.063.224.271a405.137 405.137 0 0 0 3.076 3.812l.259.371.243.243a391.92 391.92 0 0 0 2.668 3.216l.004.007.409.486a396.612 396.612 0 0 0 9.383 10.751l.05.055.124.137a396.37 396.37 0 0 0 6.049 6.527l.137.145.063.067a396.732 396.732 0 0 0 6.216 6.403l.095.095a397.92 397.92 0 0 0 33.659 30.21l.016.013a397.105 397.105 0 0 0 7.073 5.523l.042.032.075.057a401.425 401.425 0 0 0 7.146 5.323l.027.02.039.028a400.293 400.293 0 0 0 44.935 28.3l.004.003.526.283a402.408 402.408 0 0 0 21.225 10.631 401.819 401.819 0 0 0 85.458 28.525l.105.022c1.642.349 3.244.678 4.848.999l.283.056c1.569.312 3.14.615 4.713.908l.329.061c1.574.292 3.146.574 4.719.846l.3.052c1.606.277 3.209.543 4.813.8l.175.028a401.038 401.038 0 0 0 40.813 4.373l.182.01.113.006c1.572.086 3.149.163 4.726.23l.402.017.246.01c1.466.06 2.926.112 4.386.156l.534.015.336.009c1.395.039 2.785.071 4.175.094l1.018.016c1.353.02 2.703.033 4.054.039l1.091.004.666.001c1.116 0 2.231-.005 3.347-.014l.161-.001.931-.009a422.45 422.45 0 0 0 4.048-.066l.313-.006.73-.016a382.8 382.8 0 0 0 4.164-.123l.345-.011.575-.019a404.28 404.28 0 0 0 4.405-.188l.263-.012.41-.019c1.632-.081 3.267-.172 4.902-.273l.123-.007a398.56 398.56 0 0 0 20.635-1.828l.516-.062.348-.042a389.89 389.89 0 0 0 4.176-.51l.795-.105.468-.062c1.255-.165 2.512-.333 3.77-.511.352-.05.705-.101 1.057-.153l.44-.064a280.127 280.127 0 0 0 4.861-.735l.316-.05a406.826 406.826 0 0 0 5.126-.846 426.35 426.35 0 0 0 5.085-.907 432.537 432.537 0 0 0 5.07-.974c1.088-.216 2.176-.439 3.264-.665l.406-.084c.461-.096.922-.191 1.382-.289a393.26 393.26 0 0 0 3.296-.718l.493-.109c.415-.092.83-.183 1.245-.277 1.128-.255 2.257-.519 3.387-.785l.516-.121 1.119-.264c1.202-.288 2.403-.586 3.603-.886l.511-.126c.298-.073.597-.147.895-.223 1.401-.355 2.8-.721 4.199-1.093l.31-.081.483-.127a396.937 396.937 0 0 0 10.069-2.837c.243-.072.484-.145.725-.219l.465-.141a376.95 376.95 0 0 0 3.764-1.144c.362-.112.723-.227 1.085-.342l.6-.19a234.467 234.467 0 0 0 4.602-1.48l.562-.186c1.01-.333 2.02-.668 3.03-1.01.538-.182 1.074-.368 1.61-.553l.411-.142c.971-.335 1.941-.671 2.911-1.014.635-.225 1.27-.453 1.904-.681l.17-.061a389.738 389.738 0 0 0 17.565-6.793c.704-.291 1.411-.584 2.118-.881.929-.39 1.86-.79 2.791-1.189l.407-.175c.554-.238 1.107-.475 1.66-.717.954-.416 1.906-.84 2.858-1.264l.52-.231c.492-.219.984-.437 1.475-.659.951-.43 1.902-.869 2.852-1.307l.106-.049.634-.292c.414-.19.829-.381 1.243-.574 1.04-.487 2.079-.984 3.118-1.481l.142-.068.596-.284c.318-.151.636-.302.953-.455a401.797 401.797 0 0 0 9.554-4.781c.32-.166.639-.333.957-.5l.559-.293a401.173 401.173 0 0 0 3.191-1.68c.448-.239.896-.481 1.344-.724l.459-.248a441.16 441.16 0 0 0 2.869-1.561c.603-.332 1.204-.667 1.804-1.002l.078-.043a408.455 408.455 0 0 0 4.649-2.632c.913-.525 1.823-1.054 2.73-1.585l.078-.046c.588-.344 1.176-.688 1.761-1.035.935-.554 1.863-1.113 2.791-1.672l.493-.297c.412-.248.824-.496 1.233-.746 1.018-.622 2.031-1.25 3.042-1.88l.513-.318c.3-.186.6-.371.898-.559 1.559-.98 3.003-1.9 4.414-2.813l.045-.029.037-.025a393.936 393.936 0 0 0 4.272-2.806c.297-.198.595-.399.892-.6l.505-.341c.976-.656 1.951-1.313 2.92-1.976.394-.27.79-.544 1.186-.818l.445-.309c.884-.612 1.768-1.225 2.646-1.844.553-.389 1.103-.781 1.654-1.173l.046-.032a431.208 431.208 0 0 0 4.245-3.063c.843-.617 1.682-1.237 2.518-1.859l.158-.118c.499-.371.998-.743 1.495-1.116.864-.65 1.726-1.306 2.586-1.964l.445-.341c.359-.274.717-.547 1.074-.823.959-.741 1.908-1.486 2.856-2.232l.459-.36c.246-.193.493-.385.738-.58a401.896 401.896 0 0 0 7.978-6.502c.258-.216.514-.433.77-.651l.439-.371c.902-.761 1.803-1.523 2.697-2.292.343-.294.684-.591 1.025-.887l.411-.356c.814-.706 1.626-1.413 2.432-2.124.501-.442.998-.885 1.496-1.328a378.189 378.189 0 0 0 6.14-5.586l.126-.117c.441-.41.882-.82 1.321-1.231.798-.75 1.59-1.502 2.38-2.256l.391-.373a250.869 250.869 0 0 0 3.582-3.471l.369-.36c.201-.196.402-.391.601-.588a398.902 398.902 0 0 0 7.153-7.252l.638-.669.393-.413c.822-.862 1.641-1.723 2.452-2.589.305-.326.607-.652.909-.978l.331-.357a418.02 418.02 0 0 0 2.203-2.389c.434-.475.864-.951 1.295-1.427a416.35 416.35 0 0 0 3.403-3.811c.698-.791 1.392-1.587 2.084-2.385l.055-.064c.396-.456.792-.912 1.185-1.37.719-.837 1.433-1.679 2.146-2.523l.353-.417c.254-.3.508-.6.76-.901.804-.961 1.6-1.925 2.393-2.891l.318-.385c.167-.202.334-.404.499-.606a391.759 391.759 0 0 0 2.871-3.561l.011-.011.255-.322.591-.709.05-.101a401.449 401.449 0 0 0 9.122-12.009l.003-.003.382-.525.039-.053.054-.074a400.138 400.138 0 0 0 8.671-12.402l.03-.044.056-.083.01-.015.037-.055.007-.011.074-.11.009-.014a386.74 386.74 0 0 0 3.877-5.912l.084-.118.099-.166.105-.164.275-.428a406.633 406.633 0 0 0 3.372-5.358l.006-.006.542-.883.01-.017.543-.883.004-.012a401.127 401.127 0 0 0 11.403-19.93l.251-.47A402.35 402.35 0 0 0 776 607.3l.03-.084.033-.094c.548-1.55 1.09-3.113 1.623-4.679l.039-.115.021-.062a402.846 402.846 0 0 0 10.024-34.561l.039-.162.028-.116a394.4 394.4 0 0 0 1.091-4.645l.08-.352.024-.105c.346-1.519.682-3.038 1.009-4.559l.033-.153.061-.282c.339-1.584.669-3.169.988-4.756l.01-.051.029-.143a401.63 401.63 0 0 0 4.25-25.341l.035-.267.023-.178c.202-1.511.395-3.018.579-4.527l.066-.547.026-.217c.17-1.417.334-2.84.489-4.264l.093-.858c.151-1.414.295-2.831.432-4.249l.025-.254.054-.558c.14-1.484.271-2.969.394-4.456l.018-.213.03-.358c.554-6.794.937-13.685 1.14-20.478l.01-.376.006-.234c.041-1.463.076-2.927.101-4.391l.01-.692.005-.366c.019-1.32.033-2.642.039-3.964l.003-1.158v-.094c.002-1.273-.002-2.545-.013-3.818l-.012-1.3a409.824 409.824 0 0 0-.063-3.835l-.007-.344-.019-.887a421.09 421.09 0 0 0-.12-4.059l-.013-.388-.02-.598a394.883 394.883 0 0 0-.203-4.727l-.004-.095-.009-.205c-.17-3.429-.388-6.901-.648-10.325l-.033-.415-.021-.258c-.112-1.443-.23-2.884-.358-4.325l-.078-.85-.043-.464c-.113-1.232-.23-2.465-.355-3.698-.04-.395-.082-.79-.124-1.185l-.04-.378a402.572 402.572 0 0 0-.991-8.519l-.012-.095c-.068-.53-.135-1.06-.205-1.59a398.457 398.457 0 0 0-.469-3.433l-.061-.438-.165-1.167a379.326 379.326 0 0 0-.546-3.634l-.075-.49a138.89 138.89 0 0 0-.138-.897c-.23-1.459-.471-2.921-.719-4.382l-.036-.218-.067-.4a402.913 402.913 0 0 0-.91-5.121l-.046-.24-.017-.09a390.983 390.983 0 0 0-.889-4.641c-.06-.303-.122-.607-.184-.911l-.108-.531a424.995 424.995 0 0 0-.726-3.532c-.089-.42-.18-.84-.271-1.261l-.107-.493a402.303 402.303 0 0 0-.707-3.22c-.142-.631-.287-1.261-.432-1.891a431.982 431.982 0 0 0-1.19-5.03 351.945 351.945 0 0 0-.761-3.067l-.027-.106c-.153-.607-.306-1.214-.462-1.821a433.4 433.4 0 0 0-.818-3.118l-.135-.51c-.119-.447-.237-.895-.359-1.342a400.86 400.86 0 0 0-.921-3.326l-.162-.582c-.096-.345-.192-.691-.29-1.036a412.269 412.269 0 0 0-1.242-4.26l-.075-.257-.119-.406a394.655 394.655 0 0 0-1.517-4.95c-.082-.261-.165-.519-.248-.776l-.163-.509a422.163 422.163 0 0 0-1.162-3.616c-.134-.409-.271-.817-.407-1.225l-.191-.57c-.344-1.035-.691-2.07-1.044-3.104-.181-.528-.365-1.056-.549-1.584l-.131-.375c-.341-.981-.685-1.961-1.034-2.94-.24-.673-.484-1.346-.728-2.019a418.967 418.967 0 0 0-1.816-4.908c-.365-.966-.734-1.929-1.107-2.892l-.103-.268c-.222-.575-.444-1.15-.67-1.724a381.38 381.38 0 0 0-1.182-2.968l-.101-.252c14.076-9.835 23.517-23.429 26.37-38.253.078-.24.155-.48.227-.722.088-.293.169-.589.248-.884l.063-.234.04-.142c.05-.175.099-.351.145-.527.221-.845.405-1.618.563-2.358a12.9 12.9 0 0 0 .085-.436l-.006.031c.037-.182.071-.364.105-.546l.027-.142c.167-.88.311-1.751.426-2.585.022-.139.043-.277.06-.415a51.41 51.41 0 0 0 .335-3.628c.067-1.137.098-2.1.098-3.033 0-9.867-2.895-19.722-8.372-28.5a61.175 61.175 0 0 0-1.841-2.777c-2.168-3.084-4.733-6.092-7.625-8.942a71.92 71.92 0 0 0-4.267-3.885 77.682 77.682 0 0 0-11.777-8.115 85.11 85.11 0 0 0-4.349-2.287 87.83 87.83 0 0 0-5.84-2.595 90.558 90.558 0 0 0-4.383-1.632c-7.218-2.474-14.743-4.063-22.464-4.751.49-5.573.738-11.171.738-16.732 0-25.567-5.009-50.375-14.889-73.733-9.541-22.557-23.197-42.813-40.59-60.206-17.393-17.393-37.649-31.049-60.206-40.59-23.357-9.883-48.164-14.892-73.732-14.892z" class="st0"/><path d="M790 271.571c0-30.181-31.853-54.875-70.784-54.875H80.784C41.853 216.696 10 241.39 10 271.571c0 19.901 13.853 37.411 34.448 47.034l-2.044.002C-1.947 420.777-2.44 541.131 51.297 648.532c96.357 192.583 330.589 270.59 523.173 174.233 186.559-93.343 265.598-316.071 182.765-504.984 19.659-9.776 32.765-26.859 32.765-46.21z" class="st35"/><path fill="#edc531" d="M719.82 191.356c0-99.642-80.776-180.418-180.418-180.418-55.053 0-104.339 24.666-137.432 63.541-20.24-24.248-50.682-39.684-84.736-39.684-60.938 0-110.338 49.4-110.338 110.338 0 1.004.049 1.996.076 2.994a109.473 109.473 0 0 0-17.968-1.503c-47.38 0-87.683 30.277-102.635 72.535h631.319a181.892 181.892 0 0 0 2.132-27.803z"/><path fill="#cea628" d="M688.95 138.462c-19.263-61.194-76.375-104.78-140.302-108.236-5.373-.385-12.001-.334-17.412-.062l-2.898.12-2.889.277-5.771.57c-1.913.27-6.781 1.038-8.597 1.307-4.439.882-9.698 2.02-14.093 3.28-29.404 8.134-56.383 25.405-75.747 49.005 23.351-21.301 52-36.332 83.119-42.22 5.156-.939 11.053-1.722 16.285-2.247 1.872-.097 6.352-.401 8.196-.493 11.741-.307 23.815.353 35.346 2.568 58.442 10.273 107.33 54.378 125.611 110.682 2.353 7.13 4.163 14.381 5.721 21.733-.626-12.297-2.895-24.529-6.569-36.284zM311.261 52.634c-29.049 2.611-56.215 20.886-68.121 47.642 37.556-51.836 113.869-51.176 147.304 4.155 9.948 16.703 14.246 36.932 12.122 57.302.823-2.429 1.468-4.92 2.039-7.439 1.375-6.295 1.889-12.929 1.732-19.381-1.26-48.893-46.569-87.412-95.076-82.279zm-72.576 135.062c-1.986-3.17-4.463-6.092-7.012-8.824-.765-.782-2.742-2.552-3.54-3.346l-2.537-2.039c-1.422-1.226-3.779-2.681-5.337-3.764-1.83-1.063-3.813-2.248-5.747-3.136-17.366-8.426-39.4-8.912-55.928 1.572 28.355-1.946 52.873 4.284 75.124 21.981.749.647 2.678 2.211 3.483 2.862 1.45 1.332 3.147 2.694 4.578 4.076 2.905 2.621 2.549 2.62 1.302-.893-1.069-2.865-2.74-5.901-4.386-8.489z" opacity=".5"/><g opacity=".2"><path d="M416.192 222.79H81.988c-38.784 0-70.516 24.6-70.516 54.668 0 30.067 31.732 54.668 70.516 54.668h334.204"/><path d="M383.808 222.79h334.204c38.784 0 70.516 24.6 70.516 54.668 0 30.067-31.732 54.668-70.516 54.668H383.808"/></g><path d="M416.254 216.696H80.784C41.853 216.696 10 241.39 10 271.571s31.853 54.875 70.784 54.875h335.47" class="st35"/><path d="M383.746 216.696h335.47c38.931 0 70.784 24.694 70.784 54.875s-31.853 54.875-70.784 54.875h-335.47" class="st35"/><circle cx="660.702" cy="506.189" r="11.035" class="st21" transform="rotate(-17.484 660.73 506.244)"/><path d="M187.027 643.797c-1.686 6.293 2.048 12.762 8.342 14.448 6.293 1.686 12.762-2.048 14.448-8.342 1.686-6.293-2.048-12.762-8.342-14.448-6.293-1.686-12.762 2.049-14.448 8.342z" class="st21"/><circle cx="534.463" cy="534.77" r="158.786" fill="#f3ba2f"/><path d="m536.732 479.271 35.84 35.84c1.21 1.21 3.327 1.21 4.688 0l18.903-18.903c1.21-1.21 1.21-3.327 0-4.688l-59.431-59.582c-1.21-1.21-3.327-1.21-4.688 0l-59.582 59.582c-1.21 1.21-1.21 3.327 0 4.688l18.903 18.903c1.21 1.21 3.327 1.21 4.688 0l35.84-35.84c1.512-1.21 3.629-1.21 4.839 0zm-85.442 33.723-18.903 18.903c-1.21 1.21-1.21 3.327 0 4.688l18.903 18.903c1.21 1.21 3.327 1.21 4.688 0l18.903-18.903c1.21-1.21 1.21-3.327 0-4.688l-18.903-18.903c-1.361-1.361-3.478-1.361-4.688 0zm85.442 123.55 59.582-59.582c1.21-1.21 1.21-3.327 0-4.688l-18.903-18.903c-1.21-1.21-3.327-1.21-4.688 0l-35.84 35.84c-1.21 1.21-3.327 1.21-4.688 0l-35.84-35.84c-1.21-1.21-3.327-1.21-4.688 0l-19.206 18.752c-1.21 1.21-1.21 3.327 0 4.688l59.582 59.582c1.362 1.512 3.479 1.512 4.689.151zm76.368-123.55-18.903 18.903c-1.21 1.21-1.21 3.327 0 4.688l18.903 18.903c1.21 1.21 3.327 1.21 4.688 0l18.903-18.903c1.21-1.21 1.21-3.327 0-4.688l-18.903-18.903c-1.361-1.361-3.478-1.361-4.688 0z" class="st0"/><path d="m556.24 532.048-19.206-19.206c-1.21-1.21-3.327-1.21-4.688 0l-19.206 19.206c-1.21 1.21-1.21 3.327 0 4.688l19.206 19.206c1.21 1.21 3.327 1.21 4.688 0l19.206-19.206c1.21-1.361 1.21-3.478 0-4.688z" class="st0"/><circle cx="267.035" cy="533.272" r="157.288" opacity=".15"/><path d="m338.3 616.877-.023-.049a202.68 202.68 0 0 1-6.146 2.301 202.9 202.9 0 0 0 6.169-2.252zm-139.576 2.337c-2.903-1.06-4.921-1.904-5.944-2.35l-.041.088c1.392.569 3.405 1.355 5.985 2.262z" class="st10"/><path d="M265.537 375.984c-87.695 0-158.786 71.091-158.786 158.786 0 48.654 21.883 92.197 56.343 121.323 6.372-18.207 20.483-34.964 28.543-43.531-.1-3.805.336-10.094 3.144-17.704 1.142 5.346 11.906 8.862 21.02 10.903 13.294 2.977 30.957 4.617 49.737 4.617s36.443-1.64 49.736-4.617c9.114-2.041 19.877-5.557 21.02-10.903 2.808 7.61 3.244 13.899 3.144 17.704 8.059 8.567 22.17 25.324 28.542 43.531 34.46-29.127 56.343-72.67 56.343-121.323-.001-87.695-71.091-158.786-158.786-158.786zm99.595 161.06c-6.742 20.337-20.37 37.824-38.318 50.075 5.221 2.14 8.069 4.497 8.069 6.802 0 7.216-27.865 14.942-69.346 14.942s-69.346-7.726-69.346-14.942c0-2.305 2.847-4.661 8.069-6.802-17.948-12.251-31.576-29.738-38.318-50.075-16.468-1.407-29.397-15.218-29.397-32.05 0-17.586 14.112-31.874 31.63-32.163 15.04-36.695 52.956-62.739 97.361-62.739s82.322 26.044 97.362 62.739c17.518.289 31.63 14.577 31.63 32.163.001 16.833-12.928 30.643-29.396 32.05z" class="st10"/><path d="M168.174 472.831c-17.518.289-31.63 14.577-31.63 32.163 0 16.833 12.928 30.643 29.397 32.05a92.265 92.265 0 0 1-4.69-29.101 92.313 92.313 0 0 1 6.923-35.112zm-16.971 46.506a5.898 5.898 0 1 1 .001-11.797 5.898 5.898 0 0 1-.001 11.797zm0-16.89a5.898 5.898 0 1 1 .001-11.797 5.898 5.898 0 0 1-.001 11.797z" class="st11"/><circle cx="151.217" cy="496.551" r="5.898" class="st12"/><circle cx="151.197" cy="513.414" r="5.897" class="st12"/><path d="M172.321 661.135a75.677 75.677 0 0 0-.516 1.815 159.34 159.34 0 0 0 7.423 5.119c1.125-10.777 2.925-20.617 4.756-28.773-5.066 6.722-9.349 14.119-11.663 21.839zm166.749-44.618-.793.311.023.049a204.623 204.623 0 0 1-11.629 4.06c4.413 20.767 16.085 37.157 25.051 47.212l.124-.08c-1.125-10.777-2.925-20.617-4.756-28.773 5.067 6.722 9.35 14.119 11.664 21.839.183.612.353 1.216.516 1.815a159.824 159.824 0 0 0 8.711-6.857c-6.372-18.207-20.483-34.964-28.542-43.531-.068 2.524-.369 3.955-.369 3.955z" class="st12"/><path d="M347.088 639.296c1.832 8.156 3.632 17.997 4.756 28.773 2.524-1.638 5-3.345 7.423-5.119a75.677 75.677 0 0 0-.516-1.815c-2.312-7.72-6.595-15.117-11.663-21.839z" class="st12"/><path d="M204.259 587.119c-5.221 2.14-8.069 4.497-8.069 6.802 0 7.216 27.865 14.942 69.346 14.942 41.482 0 69.346-7.726 69.346-14.942 0-2.305-2.847-4.661-8.069-6.802-17.202 11.742-38.375 18.674-61.277 18.674s-44.074-6.931-61.277-18.674z" class="st11"/><path d="M204.387 621.091a167.439 167.439 0 0 1-5.663-1.876 129.151 129.151 0 0 1-5.985-2.262l.041-.088c-.513-.224-.776-.347-.776-.347s-.301-1.431-.368-3.955c-8.059 8.567-22.17 25.324-28.543 43.531a159.824 159.824 0 0 0 8.711 6.857c.163-.599.333-1.203.516-1.815 2.313-7.72 6.597-15.118 11.664-21.839-1.832 8.156-3.632 17.997-4.756 28.773l.134.087a123.542 123.542 0 0 0 5.243-6.28c7.121-9.135 16.025-23.347 19.782-40.786zm15.04 4.026c-4.898 22.043-16.543 39.504-26.33 50.989 21.719 11.154 46.344 17.45 72.44 17.45 26.101 0 50.73-6.298 72.453-17.457-9.797-11.497-21.454-28.983-26.341-51.054-37.259 8.648-70.145 5.063-92.222.072z" class="st12"/><path d="M332.131 619.129c2.04-.725 4.089-1.493 6.146-2.301l.793-.311s.301-1.431.368-3.955c.1-3.805-.336-10.094-3.144-17.704-1.142 5.346-11.906 8.861-21.02 10.903-13.294 2.977-30.957 4.617-49.736 4.617s-36.443-1.64-49.737-4.617c-9.114-2.041-19.877-5.557-21.02-10.903-2.808 7.61-3.244 13.899-3.144 17.704.066 2.523.368 3.955.368 3.955s.263.123.776.347c1.023.446 3.041 1.29 5.944 2.35 1.659.584 3.552 1.217 5.663 1.876-3.757 17.44-12.661 31.652-19.782 40.786a123.019 123.019 0 0 1-5.243 6.28 158.773 158.773 0 0 0 13.735 7.949c9.787-11.485 21.432-28.946 26.33-50.989 22.077 4.991 54.964 8.577 92.222-.072 4.887 22.072 16.544 39.557 26.341 51.054a158.72 158.72 0 0 0 13.732-7.949c-8.966-10.055-20.638-26.446-25.051-47.212a202.413 202.413 0 0 0 5.459-1.808zm30.768-146.298a92.298 92.298 0 0 1 6.923 35.112 92.265 92.265 0 0 1-4.69 29.101c16.468-1.407 29.397-15.218 29.397-32.05 0-17.586-14.113-31.874-31.63-32.163zm16.972 17.821a5.898 5.898 0 1 1-.001 11.797 5.898 5.898 0 0 1 .001-11.797zm0 28.685a5.898 5.898 0 1 1 .001-11.797 5.898 5.898 0 0 1-.001 11.797z" class="st11"/><circle cx="379.856" cy="513.444" r="5.898" class="st12" transform="rotate(-45.001 379.851 513.45)"/><circle cx="379.901" cy="496.525" r="5.898" class="st12"/><path d="M362.899 472.831c-15.041-36.695-52.957-62.739-97.362-62.739s-82.322 26.044-97.362 62.739a92.298 92.298 0 0 0-6.923 35.112 92.265 92.265 0 0 0 4.69 29.101c6.742 20.337 20.37 37.824 38.318 50.075 17.203 11.742 38.376 18.675 61.278 18.675s44.075-6.932 61.278-18.675c17.948-12.251 31.576-29.738 38.318-50.075a92.265 92.265 0 0 0 4.69-29.101 92.334 92.334 0 0 0-6.925-35.112zm-97.362 106.937c-70.084 0-89.004-33.737-89.004-75.353s39.848-75.353 89.004-75.353 89.004 33.737 89.004 75.353-18.92 75.353-89.004 75.353z" class="st12"/><path d="M354.511 502.471c-.948-31.669-24.974-58.483-58.373-68.836-.829-.257-1.665-.5-2.505-.737a100.558 100.558 0 0 0-5.459-1.373 99.247 99.247 0 0 0-4.702-.932c-.813-.141-1.632-.27-2.453-.392a101.933 101.933 0 0 0-8.637-.918 106.752 106.752 0 0 0-13.696 0c-2.26.145-4.497.363-6.707.648-42.722 5.527-75.449 36.77-75.449 74.485 0 41.616 18.92 75.353 89.004 75.353s89.004-33.737 89.004-75.353a54.681 54.681 0 0 0-.027-1.945z" class="st11"/><path fill="#635da8" d="M172.321 661.135a75.677 75.677 0 0 0-.516 1.815 159.34 159.34 0 0 0 7.423 5.119c1.125-10.777 2.925-20.617 4.756-28.773-5.066 6.722-9.349 14.119-11.663 21.839zm174.767-21.839c1.832 8.156 3.632 17.997 4.756 28.773 2.524-1.638 5-3.345 7.423-5.119a75.677 75.677 0 0 0-.516-1.815c-2.312-7.72-6.595-15.117-11.663-21.839z" opacity=".1"/><circle cx="289.623" cy="772.431" r="36.783" class="st21" transform="rotate(-45.001 289.615 772.438)"/><path d="M567.787 718.025c-12.161-3.258-24.661 3.958-27.919 16.119-3.258 12.161 3.958 24.661 16.119 27.919 12.161 3.258 24.661-3.958 27.92-16.119 3.258-12.161-3.959-24.661-16.12-27.919z" class="st21"/><circle cx="713.08" cy="383.574" r="25.748" class="st21" transform="rotate(-89.043 713.034 383.564)"/><path d="M457.864 783.185c1.58-5.896-1.919-11.957-7.815-13.537-5.896-1.58-11.957 1.919-13.537 7.815-1.58 5.896 1.919 11.957 7.815 13.537 5.897 1.581 11.957-1.918 13.537-7.815zM734.54 467.529a7.356 7.356 0 0 0 5.202 9.01 7.356 7.356 0 0 0 9.01-5.202 7.356 7.356 0 0 0-5.202-9.01 7.355 7.355 0 0 0-9.01 5.202zm-631.856-41.701c8.413-31.396-10.219-63.668-41.616-72.08a58.573 58.573 0 0 0-32.099.464 391.233 391.233 0 0 0-18.597 103.353 58.676 58.676 0 0 0 20.231 9.879c31.397 8.412 63.668-10.22 72.081-41.616zm588.667 230.605c-5.896 22.006.021 44.391 13.859 60.432 26.136-32.897 46.606-69.643 60.883-108.619-33.224-5.526-65.845 14.981-74.742 48.187zm-588.983-11.61c-17.218-4.614-34.779 1.627-45.446 14.517l.002.003a412.069 412.069 0 0 0 2.589 4.724l.029.051a390.906 390.906 0 0 0 29.025 44.659l.133.176a388.39 388.39 0 0 0 3.002 3.935l.259.334a372.177 372.177 0 0 0 2.937 3.743l.323.406a390.382 390.382 0 0 0 6.338 7.749l.217.259a388.27 388.27 0 0 0 3.317 3.891l.001.001c13.492-4.579 24.524-15.591 28.488-30.387 6.307-23.548-7.667-47.752-31.214-54.061z" class="st21"/></svg>