<svg xmlns="http://www.w3.org/2000/svg" xml:space="preserve" id="Layer_1" x="0" y="0" version="1.1" viewBox="0 0 800 875"><style>.st0{fill:#fff}.st10{fill:#9590c5}.st11{fill:#635da8}.st12{fill:#e7e5ea}.st21{fill:#305b61}.st35{fill:#4d9ba4}</style><path d="M398.521 868.555a412.134 412.134 0 0 1-4.003-.038l-1.01-.017a378.09 378.09 0 0 1-4.117-.093l-.871-.024c-1.44-.042-2.885-.095-4.328-.154l-.639-.025a377.738 377.738 0 0 1-4.685-.228l-.271-.014a396.452 396.452 0 0 1-40.342-4.32l-.208-.034a387.75 387.75 0 0 1-4.746-.788l-.32-.057a371.473 371.473 0 0 1-4.646-.833l-.339-.062a383.103 383.103 0 0 1-4.647-.895l-.284-.058a399.843 399.843 0 0 1-4.748-.977l-.191-.042a397.112 397.112 0 0 1-84.454-28.194 396.501 396.501 0 0 1-20.988-10.512 396.102 396.102 0 0 1-44.976-28.28l-.06-.044a398.27 398.27 0 0 1-7.049-5.25l-.081-.062a393.328 393.328 0 0 1-6.989-5.457l-.036-.029a393.189 393.189 0 0 1-33.275-29.862l-.112-.111a396.221 396.221 0 0 1-6.139-6.325l-.205-.217a395.458 395.458 0 0 1-5.982-6.454l-.139-.153a391.96 391.96 0 0 1-7.949-9.061h-.025l-1.434-1.725a423.559 423.559 0 0 1-3.165-3.815l-1.076-1.21v-.109a396.24 396.24 0 0 1-2.257-2.806l-.197-.247-.375-.375-.114-.242a427.982 427.982 0 0 1-2.469-3.148l-.188-.241a383.075 383.075 0 0 1-3.093-4.047l-.332-.332-.137-.29a396.561 396.561 0 0 1-7.632-10.521l-.242-.348a395.713 395.713 0 0 1-10.699-16.138l-.965-.954-.001-.592a391.57 391.57 0 0 1-4.339-7.146l-.259-.435a405.229 405.229 0 0 1-4.933-8.586l-.095-.128-.127-.27c-.846-1.52-1.653-2.99-2.449-4.465l-.051-.093-.062-.096-.067-.143a418.66 418.66 0 0 1-2.681-5.059l-.2-.382a427.307 427.307 0 0 1-2.683-5.249l-.036-.061-.082-.175a423.332 423.332 0 0 1-3.104-6.362l-.846-1.786a393.632 393.632 0 0 1-2.474-5.339l-.579-1.267a400.986 400.986 0 0 1-2.845-6.477l-.658-1.556c-.74-1.745-1.469-3.5-2.185-5.257l-.679-1.669a404.817 404.817 0 0 1-2.58-6.576l-.288-.771a383.76 383.76 0 0 1-2.189-5.926l-.614-1.716a385.366 385.366 0 0 1-2.132-6.145l-.191-.56a398.016 398.016 0 0 1-2.188-6.734l-.473-1.519a410.33 410.33 0 0 1-1.725-5.689l-.371-1.256a391.113 391.113 0 0 1-1.924-6.839l-.251-.943c-.54-2.01-1.062-4.015-1.566-6.022l-.358-1.428a395.206 395.206 0 0 1-3.169-13.857l-.251-1.212a416.62 416.62 0 0 1-1.308-6.607l-.088-.462a381.737 381.737 0 0 1-1.268-7.143l-.141-.859a406.363 406.363 0 0 1-1.014-6.442l-.128-.878a393.875 393.875 0 0 1-1.83-14.365l-.1-.923c-.515-4.842-.942-9.71-1.27-14.468l-.043-.638a399.954 399.954 0 0 1-.418-7.12l-.005-.108a394.356 394.356 0 0 1-.442-14.859l-.005-.449c-.049-4.854-.004-9.819.133-14.745l.01-.381a396.392 396.392 0 0 1 2.837-37.228l.019-.146a397.37 397.37 0 0 1 2.064-14.427v-.054l.044-.234.007-.069.031-.146.078-.477c.306-1.858.625-3.713.957-5.565v-.719l.198-.375c.248-1.367.505-2.732.769-4.096l.038-.198c.296-1.532.61-3.104.934-4.673l.021-.102c.34-1.645.675-3.22 1.02-4.792l.028-.126a392.247 392.247 0 0 1 2.641-11.243l.133-.601.032-.058c.349-1.38.698-2.734 1.055-4.086l.063-.239a402.85 402.85 0 0 1 1.229-4.544l.062-.224c.419-1.511.855-3.047 1.301-4.581l.034-.113h-.001a401.416 401.416 0 0 1 3.152-10.314l.184-.57.071-.368.127-.249c.438-1.349.883-2.695 1.334-4.039l.089-.265a394.013 394.013 0 0 1 1.675-4.869l.178-.508c.542-1.534 1.09-3.054 1.646-4.572l.279-.766c.525-1.423 1.06-2.841 1.6-4.255l.387-1.018a421.83 421.83 0 0 1 1.562-3.982l.481-1.22c.438-1.088.881-2.17 1.327-3.251-14.863-9.342-24.817-22.882-27.571-37.67a45.626 45.626 0 0 1-.624-2.101l-.1-.351a48.765 48.765 0 0 1-.585-2.531l-.17-.864c-.036-.179-.072-.357-.104-.538-.105-.6-.195-1.208-.278-1.818l-.02-.134a47.023 47.023 0 0 1-.207-1.869 123.374 123.374 0 0 1-.153-2.231 49.06 49.06 0 0 1-.045-2.062c0-9.153 2.587-17.94 7.69-26.118a54.157 54.157 0 0 1 1.705-2.572 60.541 60.541 0 0 1 5.978-7.215c1.791-1.854 3.822-3.701 6.037-5.493a73.129 73.129 0 0 1 7.566-5.353 77.278 77.278 0 0 1 6.226-3.46 83.461 83.461 0 0 1 9.05-3.856c9.819-3.521 20.26-5.308 31.03-5.308h3.455c8.255-19.986 21.952-37.081 39.766-49.581 19.104-13.405 41.579-20.491 64.998-20.491 4.428 0 8.92.271 13.413.808 1.176-62.312 52.23-112.637 114.818-112.637 32.387 0 62.979 13.547 84.739 37.35C437.06 28.682 486.85 6.44 539.399 6.44c101.964 0 184.918 82.954 184.918 184.919 0 6.96-.396 13.975-1.18 20.92 8.954.364 17.665 1.981 25.947 4.82a85.27 85.27 0 0 1 9.702 4.011 80.341 80.341 0 0 1 5.655 3.054 73.422 73.422 0 0 1 9.562 6.756 66.959 66.959 0 0 1 3.998 3.643c2.699 2.659 5.089 5.46 7.102 8.323.6.853 1.174 1.719 1.707 2.574 5.101 8.174 7.688 16.961 7.688 26.114 0 .847-.028 1.727-.09 2.769l-.041.631a45.59 45.59 0 0 1-.265 2.685l-.046.309a48.08 48.08 0 0 1-.401 2.437l-.188.979a46.262 46.262 0 0 1-.52 2.174l-.232.848c-.07.26-.141.52-.218.777-.079.264-.163.521-.248.778l-.038.117c-2.754 14.783-12.703 28.318-27.559 37.66.246.593.491 1.187.732 1.779l.75 1.861c.394.98.784 1.958 1.17 2.937l.765 1.971a371.9 371.9 0 0 1 2.89 7.713c.241.665.482 1.33.72 1.996a451.479 451.479 0 0 1 1.694 4.843c.35 1.021.69 2.043 1.032 3.064l.592 1.779c.39 1.188.771 2.382 1.148 3.574l.405 1.267a385.815 385.815 0 0 1 1.5 4.896l.192.656c.417 1.401.827 2.806 1.229 4.211l.449 1.605c.306 1.092.612 2.188.909 3.284.125.456.489 1.833.489 1.833.272 1.024.544 2.052.81 3.08l.47 1.852c.268 1.062.519 2.071.765 3.081l.461 1.917c.243 1.02.481 2.038.716 3.058l.428 1.871c.238 1.062.47 2.124.698 3.186l.374 1.732c.246 1.163.483 2.328.719 3.491l.289 1.43c.303 1.525.595 3.056.879 4.586l.064.339c.31 1.675.608 3.364.898 5.054l.1.601c.245 1.452.483 2.896.712 4.341l.21 1.372c.184 1.194.365 2.392.539 3.589l.224 1.592c.159 1.129.315 2.259.464 3.39l.215 1.662c.143 1.12.28 2.235.411 3.351l.193 1.649c.131 1.145.255 2.286.375 3.428l.161 1.542c.124 1.221.24 2.44.353 3.658l.12 1.296c.126 1.429.243 2.853.354 4.275l.054.67c.257 3.385.472 6.817.64 10.201l.014.298c.076 1.562.143 3.121.2 4.678l.032.977c.047 1.335.087 2.673.119 4.011l.025 1.227c.027 1.252.048 2.518.063 3.782l.012 1.281c.01 1.264.015 2.522.013 3.779l-.003 1.24c-.006 1.305-.02 2.61-.038 3.916l-.016 1.048a390.294 390.294 0 0 1-.1 4.339l-.016.604a394.964 394.964 0 0 1-1.127 20.251l-.048.567a392.1 392.1 0 0 1-.39 4.399l-.077.801a414.491 414.491 0 0 1-.427 4.2l-.092.846a383.624 383.624 0 0 1-.484 4.223l-.091.752a377.295 377.295 0 0 1-.572 4.475l-.057.436a398.605 398.605 0 0 1-4.205 25.067l-.022.113a392.823 392.823 0 0 1-.993 4.777l-.098.45a370.524 370.524 0 0 1-.993 4.487l-.103.454a401.237 401.237 0 0 1-1.078 4.586l-.069.291a398.563 398.563 0 0 1-9.906 34.154l-.062.182a379.216 379.216 0 0 1-1.608 4.639l-.062.174a397.69 397.69 0 0 1-23.821 54.066l-.242.453a398.265 398.265 0 0 1-11.153 19.508v.598l-.945.946a394.752 394.752 0 0 1-3.345 5.329l-.979 1.523a397.929 397.929 0 0 1-3.683 5.61l-.263.437-.086.081a394.4 394.4 0 0 1-8.498 12.142l-.061.084a396.973 396.973 0 0 1-9.652 12.711l-.117.235-.336.336-.039.049a416.78 416.78 0 0 1-2.96 3.674l-.81.98c-.783.954-1.569 1.907-2.362 2.855l-1.1 1.302c-.706.837-1.413 1.671-2.125 2.499-.407.475-.819.949-1.231 1.423-.677.782-1.363 1.569-2.055 2.354l-1.279 1.444c-.693.778-1.387 1.551-2.085 2.321a326.678 326.678 0 0 1-3.458 3.773l-1.224 1.317a445.84 445.84 0 0 1-2.423 2.559l-1.021 1.072a400.228 400.228 0 0 1-7.074 7.172l-.959.937a355.63 355.63 0 0 1-2.636 2.567l-1.293 1.234a298.034 298.034 0 0 1-3.786 3.564 414.542 414.542 0 0 1-3.755 3.445c-.771.696-1.542 1.39-2.315 2.078-.511.455-.994.886-1.479 1.313a424 424 0 0 1-2.401 2.097l-1.417 1.229c-.888.763-1.778 1.517-2.671 2.269l-1.188 1.005a391.653 391.653 0 0 1-7.894 6.433l-1.184.93a377.48 377.48 0 0 1-2.822 2.206l-1.503 1.15c-.85.65-1.7 1.298-2.555 1.941-.549.412-1.094.818-1.64 1.223-.822.613-1.651 1.226-2.484 1.835-.56.41-1.122.818-1.685 1.227-.837.605-1.674 1.205-2.514 1.804-.559.397-1.117.795-1.68 1.191-.871.612-1.743 1.218-2.615 1.822l-1.618 1.117a372.01 372.01 0 0 1-2.884 1.952l-1.379.928a401.36 401.36 0 0 1-4.156 2.73l-.213.138c-1.384.896-2.84 1.823-4.304 2.743l-1.394.865c-1 .624-2.003 1.246-3.01 1.86l-1.704 1.03a366.275 366.275 0 0 1-7.281 4.291 351.505 351.505 0 0 1-4.598 2.602c-.617.344-1.238.691-1.863 1.034-.939.518-1.887 1.031-2.836 1.543 0 0-1.323.717-1.781.961-1.046.559-2.1 1.111-3.155 1.662l-1.495.782a400.107 400.107 0 0 1-9.446 4.728l-1.543.734c-1.065.512-2.14 1.026-3.217 1.53l-1.991.918c-.929.429-1.858.857-2.789 1.278l-2.232.996c-.856.381-1.712.762-2.569 1.136-.593.259-2.043.881-2.043.881-.935.4-1.849.793-2.766 1.178-.691.292-1.392.581-2.09.87-.912.378-1.824.753-2.737 1.123-.689.28-1.379.555-2.067.83-.957.381-1.871.742-2.787 1.1-.697.272-1.397.542-2.096.811a485.779 485.779 0 0 1-4.859 1.828c-.94.347-1.88.688-2.82 1.025 0 0-1.412.508-2.05.733-.955.339-1.916.671-2.878 1.004l-1.995.686c-.987.335-1.973.661-2.959.986l-1.921.634c-1.074.349-2.15.689-3.228 1.027 0 0-1.269.403-1.668.527-1.233.383-2.476.758-3.719 1.13l-1.177.355a394.138 394.138 0 0 1-9.948 2.803l-.796.208c-1.373.365-2.757.727-4.143 1.078l-1.39.345a392.15 392.15 0 0 1-3.558.876l-1.618.381c-1.12.263-2.235.523-3.352.776l-1.719.381a378.6 378.6 0 0 1-3.255.709l-1.771.37c-1.074.223-2.149.443-3.225.657l-1.772.348c-1.08.209-2.159.414-3.239.615l-1.751.32c-1.093.198-2.186.39-3.277.578l-1.706.29c-1.124.188-2.244.369-3.364.547l-1.62.255c-1.165.18-2.33.352-3.496.521l-1.479.214c-1.247.176-2.489.343-3.731.506l-1.246.165c-1.376.176-2.751.342-4.126.503l-.858.103a393.888 393.888 0 0 1-20.357 1.805l-.442-4.482.28 4.491c-1.617.101-3.233.19-4.851.271l-.655.029c-1.459.07-2.91.133-4.361.187l-.92.03c-1.361.047-2.733.088-4.103.121l-1.041.021c-1.328.028-2.663.052-3.998.066l-1.077.009c-1.131.009-2.261.014-3.392.014h-1.656z" class="st0"/><path d="M539.401 10.941c99.643 0 180.418 80.776 180.418 180.418a181.8 181.8 0 0 1-1.776 25.341h1.172c10.093 0 19.702 1.672 28.412 4.656a80.39 80.39 0 0 1 9.182 3.796 76.02 76.02 0 0 1 5.336 2.881 68.549 68.549 0 0 1 8.97 6.337 62.138 62.138 0 0 1 3.729 3.396c2.454 2.418 4.668 4.989 6.579 7.707a52.298 52.298 0 0 1 1.568 2.365c4.488 7.193 7.008 15.247 7.008 23.736 0 .84-.034 1.674-.083 2.505-.011.191-.022.383-.036.573a42.463 42.463 0 0 1-.24 2.426c-.015.114-.035.226-.05.34-.099.717-.218 1.43-.353 2.138-.036.188-.07.377-.108.565-.023.113-.041.226-.065.339a43.395 43.395 0 0 1-.467 1.955c-.048.185-.103.369-.154.554-.085.309-.165.619-.257.926-.097.323-.205.643-.309.964-.014.042-.025.086-.039.128-2.719 15.13-13.499 28.322-28.846 36.874l.267.629c.218.515.429 1.032.645 1.548.442 1.058.883 2.116 1.315 3.175.25.614.495 1.229.742 1.843.388.967.776 1.934 1.156 2.903.254.648.505 1.297.755 1.946a389.542 389.542 0 0 1 1.822 4.805 382.712 382.712 0 0 1 2.757 7.666c.222.638.445 1.277.664 1.916a372.81 372.81 0 0 1 1.021 3.035c.195.584.392 1.168.584 1.753.385 1.177.762 2.355 1.136 3.534.133.419.27.838.402 1.258a389.16 389.16 0 0 1 1.482 4.836c.065.217.126.433.19.65.412 1.387.818 2.774 1.214 4.163.15.527.295 1.055.442 1.582.304 1.083.606 2.166.901 3.25.164.603.322 1.206.482 1.809.27 1.016.539 2.031.8 3.048.161.627.319 1.255.478 1.882a409.375 409.375 0 0 1 1.2 4.889c.24 1.008.476 2.016.707 3.025a307.14 307.14 0 0 1 1.113 4.994c.123.571.249 1.143.369 1.715.243 1.15.478 2.301.71 3.452.095.47.193.94.286 1.41.299 1.511.588 3.022.869 4.534l.062.323c.309 1.669.605 3.339.891 5.009.034.2.065.4.099.599.242 1.428.477 2.856.703 4.284.071.451.138.903.208 1.354.183 1.184.362 2.367.534 3.551.076.523.147 1.046.221 1.57.157 1.118.311 2.235.458 3.353.072.549.142 1.098.212 1.647a414.04 414.04 0 0 1 .598 4.941c.129 1.128.252 2.255.371 3.383.054.51.108 1.019.16 1.529.123 1.205.237 2.409.348 3.614.039.428.081.856.119 1.284.125 1.408.241 2.817.35 4.225.017.22.037.44.053.66.255 3.363.466 6.725.633 10.086l.013.298c.075 1.54.141 3.081.198 4.62.012.321.021.642.032.963.045 1.322.085 2.644.118 3.965.01.402.017.804.025 1.206.026 1.25.047 2.499.062 3.749l.012 1.269a386.789 386.789 0 0 1-.029 8.83c-.005.345-.008.69-.015 1.034a383.353 383.353 0 0 1-.098 4.291l-.016.596a388.943 388.943 0 0 1-1.114 20.019l-.047.555a421.453 421.453 0 0 1-.385 4.355l-.077.792a384.394 384.394 0 0 1-.422 4.155l-.09.837a388.151 388.151 0 0 1-.479 4.17l-.09.744c-.18 1.475-.369 2.949-.565 4.421l-.058.439a391.062 391.062 0 0 1-4.156 24.776l-.038.185a382.898 382.898 0 0 1-.966 4.648l-.092.427c-.32 1.487-.648 2.972-.986 4.456l-.103.449a392.322 392.322 0 0 1-1.065 4.535l-.066.276a392.505 392.505 0 0 1-9.797 33.778l-.061.18a413.553 413.553 0 0 1-1.647 4.748 391.924 391.924 0 0 1-23.555 53.464l-.243.456v.001a390.813 390.813 0 0 1-11.301 19.734l-.002.003-.376.617-.001.002a395.954 395.954 0 0 1-3.838 6.115l-.45.699-.002.003a388.564 388.564 0 0 1-3.957 6.035l-.004.007-.149.22a388.879 388.879 0 0 1-8.534 12.202v.001l-.06.082a388.619 388.619 0 0 1-9.826 12.924l-.005.006-.004.006-.001.001a397.146 397.146 0 0 1-3.12 3.874c-.264.324-.532.645-.798.968-.775.944-1.553 1.887-2.337 2.824-.361.431-.726.86-1.089 1.29-.696.824-1.395 1.648-2.098 2.467-.402.469-.807.935-1.212 1.401a346.49 346.49 0 0 1-3.304 3.761 405.242 405.242 0 0 1-5.478 6.024c-.403.434-.805.869-1.209 1.302-.794.847-1.594 1.689-2.396 2.53-.336.353-.67.708-1.008 1.06a389.237 389.237 0 0 1-6.993 7.089c-.314.31-.631.617-.947.926-.864.848-1.731 1.695-2.604 2.536-.425.409-.853.814-1.279 1.221-.772.737-1.546 1.472-2.325 2.203-.469.441-.941.879-1.414 1.317a371.04 371.04 0 0 1-9.839 8.833c-.468.406-.934.813-1.404 1.217-.874.751-1.754 1.496-2.636 2.24-.394.332-.785.667-1.18.998a387.93 387.93 0 0 1-7.797 6.355c-.388.308-.78.612-1.169.918-.927.73-1.855 1.458-2.791 2.181-.494.381-.991.759-1.487 1.139-.839.643-1.681 1.284-2.527 1.92-.537.404-1.076.804-1.615 1.206a371.425 371.425 0 0 1-6.61 4.81c-.553.394-1.106.787-1.661 1.178a396.45 396.45 0 0 1-2.586 1.802c-.531.368-1.062.737-1.595 1.102-.947.648-1.899 1.29-2.853 1.931-.456.306-.909.615-1.366.92a391.361 391.361 0 0 1-4.21 2.765l-.045.03c-1.431.926-2.87 1.842-4.316 2.75-.458.288-.92.571-1.38.857-.988.616-1.978 1.23-2.974 1.838-.561.342-1.125.68-1.687 1.019-.907.547-1.815 1.094-2.728 1.635-.598.354-1.199.706-1.8 1.058a386.828 386.828 0 0 1-11.861 6.671c-.587.317-1.172.636-1.762.95a400.535 400.535 0 0 1-3.119 1.642c-.495.258-.986.52-1.482.776a421.564 421.564 0 0 1-4.647 2.366c-1.562.781-3.126 1.55-4.693 2.308-.505.244-1.011.481-1.517.723-1.062.508-2.124 1.017-3.188 1.515-.611.286-1.224.564-1.835.847-.963.445-1.927.89-2.892 1.326-.649.293-1.3.581-1.95.87-.931.415-1.861.829-2.794 1.236-.673.293-1.347.582-2.021.871-.91.391-1.82.781-2.732 1.164-.689.29-1.379.575-2.068.861a367.037 367.037 0 0 1-9.582 3.821 366.91 366.91 0 0 1-4.803 1.807c-.927.342-1.856.678-2.785 1.012-.675.243-1.351.487-2.027.726-.948.335-1.897.664-2.847.992-.658.227-1.315.456-1.974.679-.986.334-1.974.661-2.961.987-.62.205-1.239.412-1.859.613-1.062.344-2.125.68-3.188 1.015-.549.173-1.098.35-1.647.521-1.226.38-2.453.75-3.68 1.118-.388.116-.774.236-1.161.351a387.454 387.454 0 0 1-9.838 2.772c-.259.069-.519.135-.778.204a381.11 381.11 0 0 1-4.105 1.068c-.458.116-.917.227-1.375.341-1.172.293-2.345.584-3.519.865-.533.128-1.067.251-1.6.376-1.104.26-2.207.518-3.311.767-.565.128-1.131.251-1.697.376a370.26 370.26 0 0 1-3.219.701c-.583.124-1.167.244-1.75.365-1.062.221-2.126.438-3.189.65-.583.116-1.167.229-1.75.343a353.956 353.956 0 0 1-4.934.926 415.427 415.427 0 0 1-4.929.858c-1.107.185-2.215.365-3.323.54-.533.084-1.066.17-1.599.252a374.69 374.69 0 0 1-3.459.515c-.488.071-.976.143-1.464.212-1.228.173-2.457.338-3.686.499-.411.054-.821.11-1.232.163-1.359.174-2.72.338-4.08.498-.281.033-.563.069-.845.101a388.23 388.23 0 0 1-25.08 2.06c-.218.011-.437.019-.655.03-1.435.069-2.87.131-4.304.183l-.902.03c-1.355.047-2.709.087-4.063.12l-1.023.021c-1.319.028-2.639.051-3.958.065l-1.064.01a397.15 397.15 0 0 1-3.273.014h-.653a402.15 402.15 0 0 1-10.093-.15l-.857-.024a380.845 380.845 0 0 1-4.281-.153c-.213-.009-.427-.016-.64-.026a395.054 395.054 0 0 1-4.623-.225l-.285-.015a390.248 390.248 0 0 1-39.866-4.27l-.199-.032a390.064 390.064 0 0 1-4.7-.781l-.299-.052a396.528 396.528 0 0 1-4.608-.826l-.326-.061a377.622 377.622 0 0 1-4.605-.887l-.277-.055a376.034 376.034 0 0 1-4.698-.968l-.145-.031a392.242 392.242 0 0 1-83.541-27.885 390.546 390.546 0 0 1-20.749-10.392h-.001c-.001 0 0 0 0 0a389.75 389.75 0 0 1-44.462-27.958l-.04-.029a385.602 385.602 0 0 1-6.987-5.204l-.112-.085a383.87 383.87 0 0 1-6.878-5.37l-.035-.029a387.177 387.177 0 0 1-32.893-29.519l-.11-.11a389.891 389.891 0 0 1-6.07-6.254l-.199-.21a389.676 389.676 0 0 1-5.916-6.383l-.166-.183a386.133 386.133 0 0 1-9.169-10.507l-.002-.003-.103-.123a407.168 407.168 0 0 1-3.184-3.837l-.001-.002-.094-.115a390.213 390.213 0 0 1-3.167-3.924l-.008-.01-.168-.212-.152-.191-.003-.005a399.168 399.168 0 0 1-2.934-3.74l-.001-.002-.03-.038c-1.084-1.4-2.16-2.808-3.227-4.226l-.003-.005a20.333 20.333 0 0 1-.133-.176l-.001-.002a386.437 386.437 0 0 1-7.73-10.653l-.01-.015a391.82 391.82 0 0 1-5.618-8.248l-.006-.009a386.774 386.774 0 0 1-5.403-8.385l-.006-.009-.002-.003a389.341 389.341 0 0 1-5.222-8.58 397.44 397.44 0 0 1-5.02-8.743l-.004-.007-.026-.047a390.056 390.056 0 0 1-2.591-4.727l-.003-.005-.001-.002-.006-.01a409.506 409.506 0 0 1-2.697-5.087l-.208-.397a397.496 397.496 0 0 1-2.702-5.289l-.013-.025a392.425 392.425 0 0 1-3.113-6.38c-.282-.588-.559-1.177-.837-1.766a385.216 385.216 0 0 1-2.444-5.276c-.191-.421-.387-.841-.577-1.262a395.125 395.125 0 0 1-2.809-6.395c-.219-.51-.432-1.022-.648-1.533a408.32 408.32 0 0 1-2.163-5.204c-.224-.549-.449-1.098-.67-1.648a390.485 390.485 0 0 1-2.551-6.503c-.097-.253-.188-.507-.284-.76a398.154 398.154 0 0 1-2.774-7.558 382.842 382.842 0 0 1-2.107-6.073c-.06-.179-.124-.358-.184-.537a383.921 383.921 0 0 1-2.167-6.674c-.158-.501-.312-1.002-.468-1.504a389.14 389.14 0 0 1-1.704-5.624c-.121-.413-.246-.825-.366-1.238a384.662 384.662 0 0 1-1.902-6.761c-.085-.312-.165-.624-.249-.937a396.876 396.876 0 0 1-1.547-5.948c-.118-.468-.237-.936-.353-1.405a387.1 387.1 0 0 1-3.135-13.707l-.268-1.294a389.051 389.051 0 0 1-1.273-6.436c-.027-.145-.057-.29-.083-.435-.442-2.359-.859-4.72-1.257-7.082l-.139-.849a375.904 375.904 0 0 1-1.002-6.369l-.131-.875a387.614 387.614 0 0 1-1.809-14.194l-.099-.912a387.513 387.513 0 0 1-1.255-14.302l-.042-.624a387.375 387.375 0 0 1-.413-7.046l-.006-.108a389.884 389.884 0 0 1-.312-29.709l.01-.36a389.788 389.788 0 0 1 2.805-36.82l.018-.139a391.232 391.232 0 0 1 2.099-14.618l.001-.005.005-.031a399.499 399.499 0 0 1 1.109-6.459l.003-.019.001-.008c.285-1.578.58-3.154.883-4.727l.03-.156a387.9 387.9 0 0 1 .932-4.661l.034-.167a391.567 391.567 0 0 1 1.018-4.777c.82-3.734 1.693-7.456 2.622-11.163l.013-.053.003-.011c.385-1.535.78-3.068 1.183-4.598l.051-.196c.4-1.513.809-3.024 1.227-4.532l.054-.194c.422-1.521.854-3.041 1.294-4.557l.033-.113a392.821 392.821 0 0 1 3.116-10.196l.025-.077c.08-.248.158-.497.239-.745l.004-.013a371.86 371.86 0 0 1 1.516-4.593 396.805 396.805 0 0 1 1.658-4.818l.178-.51a378.772 378.772 0 0 1 1.625-4.513c.092-.252.183-.505.276-.757a393.908 393.908 0 0 1 1.582-4.206c.128-.336.253-.672.382-1.008a401.017 401.017 0 0 1 1.544-3.936c.16-.402.316-.806.478-1.208a401.254 401.254 0 0 1 1.57-3.841c.169-.408.333-.818.503-1.226.242-.579.491-1.156.736-1.734-15.353-8.552-26.136-21.746-28.855-36.879-.009-.026-.015-.052-.023-.078a42.968 42.968 0 0 1-.632-2.11c-.023-.086-.05-.171-.074-.257-.005-.021-.012-.042-.018-.062a43.628 43.628 0 0 1-.647-2.899c-.043-.222-.092-.443-.131-.667a40.75 40.75 0 0 1-.251-1.645l-.02-.13a42.686 42.686 0 0 1-.185-1.684c-.023-.257-.04-.515-.058-.772a41.072 41.072 0 0 1-.04-.606c-.013-.215-.033-.429-.042-.645a44.148 44.148 0 0 1-.04-1.858c0-8.489 2.52-16.543 7.008-23.736a51.463 51.463 0 0 1 1.568-2.365 55.954 55.954 0 0 1 5.534-6.678 62.338 62.338 0 0 1 5.63-5.121 68.351 68.351 0 0 1 7.1-5.023 73.257 73.257 0 0 1 5.87-3.261 78.45 78.45 0 0 1 8.559-3.647c8.999-3.228 18.994-5.045 29.515-5.045h6.509c15.626-40.963 55.258-70.072 101.709-70.072 6.124 0 12.121.531 17.969 1.503-.026-.998-.076-1.99-.076-2.994 0-60.938 49.4-110.338 110.338-110.338 34.055 0 64.496 15.437 84.736 39.684 33.087-38.864 82.373-63.53 137.426-63.53m0-9c-52.206 0-101.75 21.427-137.479 59.13-22.345-22.532-52.674-35.273-84.689-35.273-31.876 0-61.845 12.413-84.385 34.953-20.846 20.846-33.031 48.049-34.744 77.236-3.049-.239-6.089-.36-9.102-.36-24.348 0-47.718 7.368-67.583 21.308-17.686 12.411-31.47 29.18-40.148 48.764h-.486c-11.292 0-22.245 1.875-32.554 5.573a87.927 87.927 0 0 0-12.243 5.474 81.834 81.834 0 0 0-3.875 2.248 77.713 77.713 0 0 0-8.032 5.684 71.483 71.483 0 0 0-6.442 5.864 65.046 65.046 0 0 0-6.424 7.755 61.204 61.204 0 0 0-1.841 2.778C3.895 251.852 1 261.708 1 271.575c0 .74.016 1.494.048 2.243.01.232.024.441.04.65l.01.138c.014.242.03.489.048.736l.011.16c.018.258.037.515.06.772a50.04 50.04 0 0 0 .554 4.197c.035.205.081.436.128.667l.031.152a52.644 52.644 0 0 0 .779 3.475l.019.071.02.071.013.044.002.008.071.249-.011-.04c.177.652.373 1.318.593 2.017 2.851 14.833 12.297 28.436 26.383 38.274l-.237.6-.194.492a398.962 398.962 0 0 0-1.579 4.026l-.247.649-.149.393a407.301 407.301 0 0 0-1.614 4.293l-.168.461-.115.315a408.557 408.557 0 0 0-1.662 4.617l-.119.339-.064.185a390.21 390.21 0 0 0-1.694 4.924l-.053.159-.026.08a424.147 424.147 0 0 0-1.309 3.958l-.218.478-.107.532-.007.022-.078.245-.008.024-.018.054a402.633 402.633 0 0 0-3.188 10.43l-.042.146c-.442 1.52-.883 3.073-1.315 4.63l-.035.126-.019.069a398.917 398.917 0 0 0-1.255 4.64l-.027.102-.027.104a388.53 388.53 0 0 0-1.201 4.667l-.003.012-.013.052-.017.068a400.951 400.951 0 0 0-2.674 11.387l-.009.041-.002.01-.013.058c-.348 1.59-.688 3.182-1.017 4.776l-.018.09-.022.106c-.322 1.562-.64 3.151-.948 4.742l-.038.2a392.402 392.402 0 0 0-.855 4.569v.003l-.018.1-.027.13-.021.137a400.13 400.13 0 0 0-1.053 6.124l-.001.006-.029.18-.019.091-.021.152-.112.642v.054a402.955 402.955 0 0 0-2.031 14.238l-.006.047-.009.071a400.512 400.512 0 0 0-2.872 37.694l-.01.346a395.404 395.404 0 0 0-.134 14.951l.005.465c.055 5.005.205 10.062.446 15.003l.001.031.002.031.004.074c.113 2.312.251 4.662.421 7.184l.042.634c.334 4.846.767 9.77 1.285 14.639l.1.927a397.08 397.08 0 0 0 1.851 14.53l.077.517.055.366c.332 2.227.677 4.42 1.027 6.532l.057.346.084.515c.429 2.55.85 4.92 1.288 7.253l.058.302.028.143c.396 2.105.835 4.321 1.302 6.586l.271 1.311a396.34 396.34 0 0 0 3.21 14.037c.105.425.214.856.323 1.288l.04.155a396.587 396.587 0 0 0 1.581 6.079l.096.362c.053.202.106.404.161.605a402.471 402.471 0 0 0 1.944 6.911l.221.749.151.509c.57 1.935 1.157 3.871 1.746 5.764l.12.387a390.697 390.697 0 0 0 2.576 7.977l.119.348.065.191a392.774 392.774 0 0 0 2.782 7.963c.744 2.062 1.489 4.08 2.215 5.995l.103.276c.063.17.126.34.191.51a401.345 401.345 0 0 0 2.606 6.644c.16.398.321.792.481 1.185l.205.501c.726 1.781 1.47 3.572 2.212 5.323l.223.527.439 1.038c.95 2.214 1.916 4.415 2.874 6.543l.365.8.228.497a402.828 402.828 0 0 0 2.498 5.391l.142.3a409.301 409.301 0 0 0 3.836 7.905l.038.082.065.125.019.037.023.047v.001a398.237 398.237 0 0 0 2.692 5.268l.127.243.081.155a378.562 378.562 0 0 0 1.69 3.209v.465L49.205 664c.748 1.384 1.513 2.78 2.28 4.159l.195.44.239.339a401.606 401.606 0 0 0 4.901 8.526l.217.367.003.004a404.975 404.975 0 0 0 4.691 7.715l.388.969.59.591a394.649 394.649 0 0 0 4.965 7.685l.001.002.014.02.014.022a405.135 405.135 0 0 0 5.544 8.148l.004.007.124.177.037.056.063.088.004.006.007.01a400.402 400.402 0 0 0 7.39 10.206l.016.031.205.269.125.233.459.536a402.988 402.988 0 0 0 3.131 4.097l.024.032.008.01.001.001a419.81 419.81 0 0 0 2.945 3.755l.189.249.021.022.013.019.2.242.075.094.003.004a396.868 396.868 0 0 0 3.136 3.882l.042.052.016.02.286.357.039.038c.69.841 1.383 1.679 2.08 2.513l.004.011.986 1.171.005.007.664.79.007.005c2.836 3.353 5.765 6.7 8.717 9.962l.063.07.111.122a399.805 399.805 0 0 0 6.049 6.527l.134.142.066.069a398.45 398.45 0 0 0 6.215 6.403l.088.088a397.917 397.917 0 0 0 33.65 30.204l.012.01.055.045a401.43 401.43 0 0 0 7.037 5.494l.152.115a404.897 404.897 0 0 0 7.111 5.297l.028.021.012.008.001.001a400.425 400.425 0 0 0 44.639 28.145l.005.004.846.456a402.823 402.823 0 0 0 21.226 10.631 401.782 401.782 0 0 0 85.458 28.525l.099.021.007.001.042.009c1.6.34 3.202.67 4.806.99l.283.056c1.569.312 3.14.615 4.713.908l.329.061c1.574.292 3.146.574 4.719.846l.306.053c1.6.276 3.203.542 4.808.799l.18.029a401.071 401.071 0 0 0 40.808 4.372l.184.01.112.006c1.573.086 3.148.163 4.726.23l.403.017.246.01c1.465.06 2.925.112 4.385.156l.535.015.336.009c1.395.039 2.785.071 4.174.094l1.018.016c1.353.02 2.703.033 4.054.039l1.091.004.666.001c1.116 0 2.231-.005 3.348-.014l.164-.001.928-.009c1.346-.015 2.697-.038 4.047-.066l.312-.006.731-.016a382.8 382.8 0 0 0 4.164-.123l.344-.011.576-.019c1.469-.054 2.937-.118 4.404-.188l.264-.012.409-.019c1.632-.081 3.267-.172 4.902-.273l.123-.007a398.658 398.658 0 0 0 20.635-1.828l.521-.062.344-.042c1.392-.163 2.784-.331 4.175-.51l.798-.105.464-.062c1.255-.165 2.513-.333 3.771-.511l1.066-.154.432-.063c1.179-.171 2.358-.345 3.539-.527.45-.069.898-.141 1.346-.212l.292-.046a406.826 406.826 0 0 0 5.127-.846 434.61 434.61 0 0 0 5.085-.908 432.537 432.537 0 0 0 5.07-.974c1.088-.217 2.177-.439 3.265-.665l.44-.091c.449-.094.899-.187 1.348-.282a393.26 393.26 0 0 0 3.296-.718l.477-.105a285.424 285.424 0 0 0 4.649-1.066l.523-.122c.371-.087.742-.173 1.113-.262a378.1 378.1 0 0 0 3.602-.886l.514-.127c.297-.073.595-.146.893-.222 1.4-.355 2.8-.721 4.199-1.093l.304-.079.492-.129a400.896 400.896 0 0 0 10.066-2.836c.239-.071.475-.143.711-.215l.475-.144c1.258-.377 2.512-.755 3.767-1.144.365-.113.728-.229 1.091-.344l.595-.189c1.085-.342 2.172-.685 3.259-1.038.438-.142.872-.286 1.306-.43l.597-.198c1.012-.334 2.022-.668 3.032-1.011a311.18 311.18 0 0 0 1.625-.558l.396-.137c.969-.334 1.94-.671 2.911-1.014.647-.229 1.293-.462 1.938-.694l.136-.049c.95-.342 1.9-.686 2.849-1.036.7-.258 1.401-.52 2.102-.782a396.192 396.192 0 0 0 12.612-4.974l.061-.025c.686-.284 1.373-.568 2.058-.857.927-.39 1.859-.789 2.791-1.189l.39-.167c.56-.24 1.119-.48 1.677-.724.954-.416 1.906-.84 2.858-1.264l.498-.221c.499-.222.998-.443 1.496-.668.953-.43 1.903-.869 2.854-1.308l.105-.049.634-.292c.414-.19.827-.38 1.24-.573 1.047-.49 2.09-.989 3.132-1.488l.129-.062.594-.283c.319-.151.637-.302.955-.456a416.789 416.789 0 0 0 4.802-2.362c1.521-.762 3.12-1.575 4.752-2.419.32-.165.638-.332.956-.5l.56-.294a386.282 386.282 0 0 0 3.191-1.681c.449-.24.9-.483 1.35-.727l.452-.244c.958-.517 1.915-1.036 2.867-1.561.632-.348 1.259-.698 1.885-1.047a434.522 434.522 0 0 0 4.648-2.631c.913-.525 1.823-1.054 2.731-1.585l.071-.042c.59-.346 1.181-.691 1.769-1.04a410.94 410.94 0 0 0 2.789-1.671l.53-.32c.398-.24.797-.48 1.194-.723a412.238 412.238 0 0 0 3.045-1.882l.517-.321c.298-.185.596-.369.893-.555a408.77 408.77 0 0 0 4.415-2.813l.06-.039.034-.023a390.867 390.867 0 0 0 4.26-2.799c.293-.195.585-.393.878-.59l.517-.349c.978-.656 1.952-1.313 2.921-1.977.408-.279.816-.562 1.224-.845l.409-.283a402.39 402.39 0 0 0 2.644-1.842 437.985 437.985 0 0 0 5.946-4.27 363.24 363.24 0 0 0 2.517-1.859l.113-.084c.514-.383 1.028-.765 1.54-1.15.865-.651 1.728-1.308 2.588-1.966l.428-.327c.364-.278.729-.556 1.09-.836a395.77 395.77 0 0 0 2.855-2.231l.453-.354c.249-.195.499-.39.747-.587a402.466 402.466 0 0 0 7.976-6.5c.256-.214.51-.43.765-.646l.443-.375c.902-.761 1.803-1.523 2.697-2.292.346-.297.689-.595 1.032-.893l.406-.352a380.58 380.58 0 0 0 2.431-2.123c.481-.424.958-.85 1.437-1.275l.058-.052a357.02 357.02 0 0 0 3.831-3.457 470.03 470.03 0 0 0 2.311-2.131l.093-.086c.453-.421.906-.841 1.356-1.264.795-.746 1.587-1.499 2.377-2.252l.43-.409c.293-.279.586-.558.878-.839.896-.863 1.784-1.73 2.669-2.599l.345-.336c.208-.202.415-.405.621-.608a396.826 396.826 0 0 0 7.156-7.254c.218-.227.432-.452.645-.677l.389-.409c.82-.86 1.639-1.721 2.45-2.587.291-.31.576-.618.862-.927l.376-.405a378.187 378.187 0 0 0 8.986-10.014l.1-.115a387.665 387.665 0 0 0 3.287-3.843l.369-.437c.248-.293.496-.585.742-.879a385.87 385.87 0 0 0 2.395-2.895l.296-.359.519-.629a393.987 393.987 0 0 0 2.789-3.458l.004-.004.087-.11.029-.029.158-.203.517-.581.123-.23a399.314 399.314 0 0 0 8.31-10.895l.012-.006 1.243-1.707.038-.052 1.733-2.372v-.027a399.27 399.27 0 0 0 7.008-10.099l.016-.023.075-.111.005-.007.018-.027.033-.048.167-.249.006-.01a387.1 387.1 0 0 0 3.635-5.542l.003-.004.251-.392.152-.236.308-.479c1.021-1.594 2.033-3.2 3.021-4.79l.012-.009.724-1.18.276-.276.467-.934.759-1.234v-.019a402.06 402.06 0 0 0 9.251-16.106l.021-.01 1.349-2.529 1.06-1.982v-.014a402.456 402.456 0 0 0 23.282-53.156l.035-.099.004-.013.021-.057a405.344 405.344 0 0 0 1.625-4.688l.076-.225a402.984 402.984 0 0 0 10.009-34.513l.039-.163.022-.092c.379-1.573.742-3.119 1.096-4.667l.052-.225.051-.225a402.69 402.69 0 0 0 1.011-4.568l.021-.095.07-.323c.343-1.599.672-3.184.992-4.771l.043-.211a402.038 402.038 0 0 0 4.247-25.324l.038-.286.021-.159c.202-1.512.396-3.021.58-4.53l.074-.611.018-.151c.17-1.417.333-2.839.489-4.261l.009-.081.084-.78c.151-1.414.295-2.831.432-4.25l.03-.304.049-.507c.14-1.483.271-2.968.394-4.454l.021-.252.027-.314c.554-6.808.938-13.699 1.14-20.485l.009-.345.006-.253c.042-1.477.076-2.94.101-4.403l.011-.728.004-.332c.02-1.316.033-2.638.039-3.96l.003-1.167v-.087a405.14 405.14 0 0 0-.012-3.817l-.012-1.288c-.015-1.29-.037-2.568-.063-3.846l-.007-.365-.019-.87a390.555 390.555 0 0 0-.121-4.056l-.013-.412-.019-.571c-.059-1.58-.126-3.155-.203-4.73l-.004-.083-.009-.216c-.17-3.43-.388-6.902-.648-10.325l-.033-.416-.021-.258c-.111-1.442-.23-2.885-.358-4.327l-.074-.808-.046-.497a366.857 366.857 0 0 0-.487-4.959l-.033-.312a376.831 376.831 0 0 0-.991-8.515l-.044-.345-.173-1.341c-.15-1.144-.308-2.288-.469-3.432l-.072-.514-.154-1.093a397.305 397.305 0 0 0-.546-3.633l-.082-.537c-.043-.283-.086-.567-.131-.851-.23-1.46-.471-2.922-.719-4.383l-.034-.207-.068-.409a380.631 380.631 0 0 0-.911-5.124l-.054-.286-.016-.081a401.879 401.879 0 0 0-.881-4.601l-.18-.886-.113-.555a417.983 417.983 0 0 0-.728-3.537c-.083-.394-.169-.793-.256-1.192l-.12-.554a409.717 409.717 0 0 0-.709-3.228c-.129-.575-.263-1.155-.396-1.735l-.036-.155a362.529 362.529 0 0 0-1.951-8.099l-.031-.121c-.151-.599-.302-1.199-.457-1.798a418.448 418.448 0 0 0-.819-3.121l-.148-.558c-.115-.432-.229-.865-.347-1.297-.301-1.11-.61-2.218-.921-3.325l-.143-.513c-.103-.368-.205-.737-.31-1.105-.404-1.419-.82-2.838-1.242-4.257l-.073-.25-.123-.419a385.914 385.914 0 0 0-1.516-4.946l-.241-.755-.169-.528a423.478 423.478 0 0 0-1.163-3.616 189.5 189.5 0 0 0-.422-1.271l-.177-.53c-.343-1.03-.689-2.065-1.043-3.1a432.15 432.15 0 0 0-.555-1.602l-.125-.358c-.341-.98-.685-1.959-1.033-2.938a428.829 428.829 0 0 0-2.545-6.929 389.89 389.89 0 0 0-1.106-2.89l-.023-.059c-.249-.644-.497-1.287-.749-1.93-.389-.991-.786-1.98-1.182-2.968l-.103-.255c14.076-9.835 23.518-23.431 26.371-38.255.078-.239.154-.479.227-.72.088-.295.168-.589.248-.884l.063-.234.035-.123a51.002 51.002 0 0 0 .713-2.908c.029-.133.057-.281.084-.428l-.006.026c.036-.178.068-.345.099-.512l.03-.159c.171-.899.314-1.769.43-2.602.022-.143.043-.283.062-.425a51.624 51.624 0 0 0 .334-3.618c.067-1.14.098-2.103.098-3.033 0-9.867-2.895-19.723-8.373-28.5a62.006 62.006 0 0 0-1.84-2.777c-2.167-3.083-4.732-6.092-7.625-8.941a71.499 71.499 0 0 0-4.268-3.885 77.676 77.676 0 0 0-10.148-7.172 84.064 84.064 0 0 0-5.977-3.229 88.443 88.443 0 0 0-5.841-2.596 90.705 90.705 0 0 0-4.383-1.632c-7.218-2.474-14.742-4.063-22.463-4.751.491-5.573.738-11.171.738-16.732 0-25.567-5.009-50.375-14.889-73.733-9.541-22.557-23.197-42.813-40.59-60.206-17.393-17.393-37.649-31.05-60.207-40.59-23.365-9.884-48.172-14.893-73.74-14.893z" class="st0"/><path d="M790 271.571c0-30.181-31.853-54.875-70.784-54.875H80.784C41.853 216.696 10 241.39 10 271.571c0 19.901 13.853 37.411 34.448 47.034l-2.044.002C-1.947 420.777-2.44 541.131 51.297 648.532c96.357 192.583 330.589 270.59 523.173 174.233 186.559-93.343 265.598-316.071 182.765-504.984 19.659-9.776 32.765-26.859 32.765-46.21z" class="st35"/><path fill="#edc531" d="M719.82 191.356c0-99.642-80.776-180.418-180.418-180.418-55.053 0-104.339 24.666-137.432 63.541-20.24-24.248-50.682-39.684-84.736-39.684-60.938 0-110.338 49.4-110.338 110.338 0 1.004.049 1.996.076 2.994a109.473 109.473 0 0 0-17.968-1.503c-47.38 0-87.683 30.277-102.635 72.535h631.319a181.892 181.892 0 0 0 2.132-27.803z"/><path fill="#cea628" d="M688.95 138.462c-19.263-61.194-76.375-104.78-140.302-108.236-5.373-.385-12.001-.334-17.412-.062l-2.898.12-2.889.277-5.771.57c-1.913.27-6.781 1.038-8.597 1.307-4.439.882-9.698 2.02-14.093 3.28-29.404 8.134-56.383 25.405-75.747 49.005 23.351-21.301 52-36.332 83.119-42.22 5.156-.939 11.053-1.722 16.285-2.247 1.872-.097 6.352-.401 8.196-.493 11.741-.307 23.815.353 35.346 2.568 58.442 10.273 107.33 54.378 125.611 110.682 2.353 7.13 4.163 14.381 5.721 21.733-.626-12.297-2.895-24.529-6.569-36.284zM311.261 52.634c-29.049 2.611-56.215 20.886-68.121 47.642 37.556-51.836 113.869-51.176 147.304 4.155 9.948 16.703 14.246 36.932 12.122 57.302.823-2.429 1.468-4.92 2.039-7.439 1.375-6.295 1.889-12.929 1.732-19.381-1.26-48.893-46.569-87.412-95.076-82.279zm-72.576 135.062c-1.986-3.17-4.463-6.092-7.012-8.824-.765-.782-2.742-2.552-3.54-3.346l-2.537-2.039c-1.422-1.226-3.779-2.681-5.337-3.764-1.83-1.063-3.813-2.248-5.747-3.136-17.366-8.426-39.4-8.912-55.928 1.572 28.355-1.946 52.873 4.284 75.124 21.981.749.647 2.678 2.211 3.483 2.862 1.45 1.332 3.147 2.694 4.578 4.076 2.905 2.621 2.549 2.62 1.302-.893-1.069-2.865-2.74-5.901-4.386-8.489z" opacity=".5"/><g opacity=".2"><path d="M416.192 222.79H81.988c-38.784 0-70.516 24.6-70.516 54.668 0 30.067 31.732 54.668 70.516 54.668h334.204"/><path d="M383.808 222.79h334.204c38.784 0 70.516 24.6 70.516 54.668 0 30.067-31.732 54.668-70.516 54.668H383.808"/></g><path d="M416.254 216.696H80.784C41.853 216.696 10 241.39 10 271.571s31.853 54.875 70.784 54.875h335.47" class="st35"/><path d="M383.746 216.696h335.47c38.931 0 70.784 24.694 70.784 54.875s-31.853 54.875-70.784 54.875h-335.47" class="st35"/><circle cx="660.702" cy="506.189" r="11.035" class="st21" transform="rotate(-17.484 660.73 506.244)"/><path d="M187.027 643.797c-1.686 6.293 2.048 12.762 8.342 14.448 6.293 1.686 12.762-2.048 14.448-8.342 1.686-6.293-2.048-12.762-8.342-14.448-6.293-1.686-12.762 2.049-14.448 8.342z" class="st21"/><circle cx="534.463" cy="534.77" r="158.786" fill="#f1b90c"/><path d="m470.208 493.919 65.095-65.097 25.591 25.59-65.095 65.097-25.591-25.59zm-38.966 38.867 25.59-25.591 25.591 25.59-25.59 25.591-25.591-25.59zm38.228 38.459 104.28-104.283 25.591 25.59-104.28 104.283-25.591-25.59zm38.771 39.438L612.52 506.4l25.591 25.59-104.28 104.283-25.59-25.59z" class="st0"/><circle cx="267.035" cy="533.272" r="157.288" opacity=".15"/><path d="m338.3 616.877-.023-.049a202.68 202.68 0 0 1-6.146 2.301 202.9 202.9 0 0 0 6.169-2.252zm-139.576 2.337c-2.903-1.06-4.921-1.904-5.944-2.35l-.041.088c1.392.569 3.405 1.355 5.985 2.262z" class="st10"/><path d="M265.537 375.984c-87.695 0-158.786 71.091-158.786 158.786 0 48.654 21.883 92.197 56.343 121.323 6.372-18.207 20.483-34.964 28.543-43.531-.1-3.805.336-10.094 3.144-17.704 1.142 5.346 11.906 8.862 21.02 10.903 13.294 2.977 30.957 4.617 49.737 4.617s36.443-1.64 49.736-4.617c9.114-2.041 19.877-5.557 21.02-10.903 2.808 7.61 3.244 13.899 3.144 17.704 8.059 8.567 22.17 25.324 28.542 43.531 34.46-29.127 56.343-72.67 56.343-121.323-.001-87.695-71.091-158.786-158.786-158.786zm99.595 161.06c-6.742 20.337-20.37 37.824-38.318 50.075 5.221 2.14 8.069 4.497 8.069 6.802 0 7.216-27.865 14.942-69.346 14.942s-69.346-7.726-69.346-14.942c0-2.305 2.847-4.661 8.069-6.802-17.948-12.251-31.576-29.738-38.318-50.075-16.468-1.407-29.397-15.218-29.397-32.05 0-17.586 14.112-31.874 31.63-32.163 15.04-36.695 52.956-62.739 97.361-62.739s82.322 26.044 97.362 62.739c17.518.289 31.63 14.577 31.63 32.163.001 16.833-12.928 30.643-29.396 32.05z" class="st10"/><path d="M168.174 472.831c-17.518.289-31.63 14.577-31.63 32.163 0 16.833 12.928 30.643 29.397 32.05a92.265 92.265 0 0 1-4.69-29.101 92.313 92.313 0 0 1 6.923-35.112zm-16.971 46.506a5.898 5.898 0 1 1 .001-11.797 5.898 5.898 0 0 1-.001 11.797zm0-16.89a5.898 5.898 0 1 1 .001-11.797 5.898 5.898 0 0 1-.001 11.797z" class="st11"/><circle cx="151.217" cy="496.551" r="5.898" class="st12"/><circle cx="151.197" cy="513.414" r="5.897" class="st12"/><path d="M172.321 661.135a75.677 75.677 0 0 0-.516 1.815 159.34 159.34 0 0 0 7.423 5.119c1.125-10.777 2.925-20.617 4.756-28.773-5.066 6.722-9.349 14.119-11.663 21.839zm166.749-44.618-.793.311.023.049a204.623 204.623 0 0 1-11.629 4.06c4.413 20.767 16.085 37.157 25.051 47.212l.124-.08c-1.125-10.777-2.925-20.617-4.756-28.773 5.067 6.722 9.35 14.119 11.664 21.839.183.612.353 1.216.516 1.815a159.824 159.824 0 0 0 8.711-6.857c-6.372-18.207-20.483-34.964-28.542-43.531-.068 2.524-.369 3.955-.369 3.955z" class="st12"/><path d="M347.088 639.296c1.832 8.156 3.632 17.997 4.756 28.773 2.524-1.638 5-3.345 7.423-5.119a75.677 75.677 0 0 0-.516-1.815c-2.312-7.72-6.595-15.117-11.663-21.839z" class="st12"/><path d="M204.259 587.119c-5.221 2.14-8.069 4.497-8.069 6.802 0 7.216 27.865 14.942 69.346 14.942 41.482 0 69.346-7.726 69.346-14.942 0-2.305-2.847-4.661-8.069-6.802-17.202 11.742-38.375 18.674-61.277 18.674s-44.074-6.931-61.277-18.674z" class="st11"/><path d="M204.387 621.091a167.439 167.439 0 0 1-5.663-1.876 129.151 129.151 0 0 1-5.985-2.262l.041-.088c-.513-.224-.776-.347-.776-.347s-.301-1.431-.368-3.955c-8.059 8.567-22.17 25.324-28.543 43.531a159.824 159.824 0 0 0 8.711 6.857c.163-.599.333-1.203.516-1.815 2.313-7.72 6.597-15.118 11.664-21.839-1.832 8.156-3.632 17.997-4.756 28.773l.134.087a123.542 123.542 0 0 0 5.243-6.28c7.121-9.135 16.025-23.347 19.782-40.786zm15.04 4.026c-4.898 22.043-16.543 39.504-26.33 50.989 21.719 11.154 46.344 17.45 72.44 17.45 26.101 0 50.73-6.298 72.453-17.457-9.797-11.497-21.454-28.983-26.341-51.054-37.259 8.648-70.145 5.063-92.222.072z" class="st12"/><path d="M332.131 619.129c2.04-.725 4.089-1.493 6.146-2.301l.793-.311s.301-1.431.368-3.955c.1-3.805-.336-10.094-3.144-17.704-1.142 5.346-11.906 8.861-21.02 10.903-13.294 2.977-30.957 4.617-49.736 4.617s-36.443-1.64-49.737-4.617c-9.114-2.041-19.877-5.557-21.02-10.903-2.808 7.61-3.244 13.899-3.144 17.704.066 2.523.368 3.955.368 3.955s.263.123.776.347c1.023.446 3.041 1.29 5.944 2.35 1.659.584 3.552 1.217 5.663 1.876-3.757 17.44-12.661 31.652-19.782 40.786a123.019 123.019 0 0 1-5.243 6.28 158.773 158.773 0 0 0 13.735 7.949c9.787-11.485 21.432-28.946 26.33-50.989 22.077 4.991 54.964 8.577 92.222-.072 4.887 22.072 16.544 39.557 26.341 51.054a158.72 158.72 0 0 0 13.732-7.949c-8.966-10.055-20.638-26.446-25.051-47.212a202.413 202.413 0 0 0 5.459-1.808zm30.768-146.298a92.298 92.298 0 0 1 6.923 35.112 92.265 92.265 0 0 1-4.69 29.101c16.468-1.407 29.397-15.218 29.397-32.05 0-17.586-14.113-31.874-31.63-32.163zm16.972 17.821a5.898 5.898 0 1 1-.001 11.797 5.898 5.898 0 0 1 .001-11.797zm0 28.685a5.898 5.898 0 1 1 .001-11.797 5.898 5.898 0 0 1-.001 11.797z" class="st11"/><circle cx="379.856" cy="513.444" r="5.898" class="st12" transform="rotate(-45.001 379.851 513.45)"/><circle cx="379.901" cy="496.525" r="5.898" class="st12"/><path d="M362.899 472.831c-15.041-36.695-52.957-62.739-97.362-62.739s-82.322 26.044-97.362 62.739a92.298 92.298 0 0 0-6.923 35.112 92.265 92.265 0 0 0 4.69 29.101c6.742 20.337 20.37 37.824 38.318 50.075 17.203 11.742 38.376 18.675 61.278 18.675s44.075-6.932 61.278-18.675c17.948-12.251 31.576-29.738 38.318-50.075a92.265 92.265 0 0 0 4.69-29.101 92.334 92.334 0 0 0-6.925-35.112zm-97.362 106.937c-70.084 0-89.004-33.737-89.004-75.353s39.848-75.353 89.004-75.353 89.004 33.737 89.004 75.353-18.92 75.353-89.004 75.353z" class="st12"/><path d="M354.511 502.471c-.948-31.669-24.974-58.483-58.373-68.836-.829-.257-1.665-.5-2.505-.737a100.558 100.558 0 0 0-5.459-1.373 99.247 99.247 0 0 0-4.702-.932c-.813-.141-1.632-.27-2.453-.392a101.933 101.933 0 0 0-8.637-.918 106.752 106.752 0 0 0-13.696 0c-2.26.145-4.497.363-6.707.648-42.722 5.527-75.449 36.77-75.449 74.485 0 41.616 18.92 75.353 89.004 75.353s89.004-33.737 89.004-75.353a54.681 54.681 0 0 0-.027-1.945z" class="st11"/><path fill="#635da8" d="M172.321 661.135a75.677 75.677 0 0 0-.516 1.815 159.34 159.34 0 0 0 7.423 5.119c1.125-10.777 2.925-20.617 4.756-28.773-5.066 6.722-9.349 14.119-11.663 21.839zm174.767-21.839c1.832 8.156 3.632 17.997 4.756 28.773 2.524-1.638 5-3.345 7.423-5.119a75.677 75.677 0 0 0-.516-1.815c-2.312-7.72-6.595-15.117-11.663-21.839z" opacity=".1"/><circle cx="289.623" cy="772.431" r="36.783" class="st21" transform="rotate(-45.001 289.615 772.438)"/><path d="M567.787 718.025c-12.161-3.258-24.661 3.958-27.919 16.119-3.258 12.161 3.958 24.661 16.119 27.919 12.161 3.258 24.661-3.958 27.92-16.119 3.258-12.161-3.959-24.661-16.12-27.919z" class="st21"/><circle cx="713.08" cy="383.574" r="25.748" class="st21" transform="rotate(-89.043 713.034 383.564)"/><path d="M457.864 783.185c1.58-5.896-1.919-11.957-7.815-13.537-5.896-1.58-11.957 1.919-13.537 7.815-1.58 5.896 1.919 11.957 7.815 13.537 5.897 1.581 11.957-1.918 13.537-7.815zM734.54 467.529a7.356 7.356 0 0 0 5.202 9.01 7.356 7.356 0 0 0 9.01-5.202 7.356 7.356 0 0 0-5.202-9.01 7.355 7.355 0 0 0-9.01 5.202zm-631.856-41.701c8.413-31.396-10.219-63.668-41.616-72.08a58.573 58.573 0 0 0-32.099.464 391.233 391.233 0 0 0-18.597 103.353 58.676 58.676 0 0 0 20.231 9.879c31.397 8.412 63.668-10.22 72.081-41.616zm588.667 230.605c-5.896 22.006.021 44.391 13.859 60.432 26.136-32.897 46.606-69.643 60.883-108.619-33.224-5.526-65.845 14.981-74.742 48.187zm-588.983-11.61c-17.218-4.614-34.779 1.627-45.446 14.517l.002.003a412.069 412.069 0 0 0 2.589 4.724l.029.051a390.906 390.906 0 0 0 29.025 44.659l.133.176a388.39 388.39 0 0 0 3.002 3.935l.259.334a372.177 372.177 0 0 0 2.937 3.743l.323.406a390.382 390.382 0 0 0 6.338 7.749l.217.259a388.27 388.27 0 0 0 3.317 3.891l.001.001c13.492-4.579 24.524-15.591 28.488-30.387 6.307-23.548-7.667-47.752-31.214-54.061z" class="st21"/></svg>