<svg xmlns="http://www.w3.org/2000/svg" xml:space="preserve" id="Layer_1" x="0" y="0" version="1.1" viewBox="0 0 800 875"><style>.st0{fill:#fff}.st21{fill:#305b61}.st35{fill:#4d9ba4}.st36{opacity:.15;enable-background:new}.st96{fill:#6b00fa}.st96,.st97,.st98{stroke:#000;stroke-width:.2693;stroke-miterlimit:10}.st97{fill:#4300bf}.st98{fill:#100342}.st99{fill:#4300bf}.st100{fill:#6b00fa}.st101{fill:#100342}.st102{fill:#100641}.st103{fill:#e0e3bd;stroke:#000;stroke-width:.2693;stroke-miterlimit:10}</style><path d="M398.521 868.555a412.134 412.134 0 0 1-4.003-.038l-1.01-.017a378.09 378.09 0 0 1-4.117-.093l-.871-.024c-1.44-.042-2.885-.095-4.328-.154l-.639-.025a377.738 377.738 0 0 1-4.685-.228l-.271-.014a396.452 396.452 0 0 1-40.342-4.32l-.208-.034a387.75 387.75 0 0 1-4.746-.788l-.32-.057a371.473 371.473 0 0 1-4.646-.833l-.339-.062a383.103 383.103 0 0 1-4.647-.895l-.284-.058a399.843 399.843 0 0 1-4.748-.977l-.191-.042a397.112 397.112 0 0 1-84.454-28.194 396.501 396.501 0 0 1-20.988-10.512 396.102 396.102 0 0 1-44.976-28.28l-.06-.044a398.27 398.27 0 0 1-7.049-5.25l-.081-.062a393.328 393.328 0 0 1-6.989-5.457l-.036-.029a393.189 393.189 0 0 1-33.275-29.862l-.112-.111a396.221 396.221 0 0 1-6.139-6.325l-.205-.217a395.458 395.458 0 0 1-5.982-6.454l-.139-.153a391.96 391.96 0 0 1-7.949-9.061h-.025l-1.434-1.725a423.559 423.559 0 0 1-3.165-3.815l-1.076-1.21v-.109a396.24 396.24 0 0 1-2.257-2.806l-.197-.247-.375-.375-.114-.242a427.982 427.982 0 0 1-2.469-3.148l-.188-.241a383.075 383.075 0 0 1-3.093-4.047l-.332-.332-.137-.29a396.561 396.561 0 0 1-7.632-10.521l-.242-.348a395.713 395.713 0 0 1-10.699-16.138l-.965-.954-.001-.592a391.57 391.57 0 0 1-4.339-7.146l-.259-.435a405.229 405.229 0 0 1-4.933-8.586l-.095-.128-.127-.27c-.846-1.52-1.653-2.99-2.449-4.465l-.051-.093-.062-.096-.067-.143a418.66 418.66 0 0 1-2.681-5.059l-.2-.382a427.307 427.307 0 0 1-2.683-5.249l-.036-.061-.082-.175a423.332 423.332 0 0 1-3.104-6.362l-.846-1.786a393.632 393.632 0 0 1-2.474-5.339l-.579-1.267a400.986 400.986 0 0 1-2.845-6.477l-.658-1.556c-.74-1.745-1.469-3.5-2.185-5.257l-.679-1.669a404.817 404.817 0 0 1-2.58-6.576l-.288-.771a383.76 383.76 0 0 1-2.189-5.926l-.614-1.716a385.366 385.366 0 0 1-2.132-6.145l-.191-.56a398.016 398.016 0 0 1-2.188-6.734l-.473-1.519a410.33 410.33 0 0 1-1.725-5.689l-.371-1.256a391.113 391.113 0 0 1-1.924-6.839l-.251-.943c-.54-2.01-1.062-4.015-1.566-6.022l-.358-1.428a395.206 395.206 0 0 1-3.169-13.857l-.251-1.212a416.62 416.62 0 0 1-1.308-6.607l-.088-.462a381.737 381.737 0 0 1-1.268-7.143l-.141-.859a406.363 406.363 0 0 1-1.014-6.442l-.128-.878a393.875 393.875 0 0 1-1.83-14.365l-.1-.923c-.515-4.842-.942-9.71-1.27-14.468l-.043-.638a399.954 399.954 0 0 1-.418-7.12l-.005-.108a394.356 394.356 0 0 1-.442-14.859l-.005-.449c-.049-4.854-.004-9.819.133-14.745l.01-.381a396.392 396.392 0 0 1 2.837-37.228l.019-.146a397.37 397.37 0 0 1 2.064-14.427v-.054l.044-.234.007-.069.031-.146.078-.477c.306-1.858.625-3.713.957-5.565v-.719l.198-.375c.248-1.367.505-2.732.769-4.096l.038-.198c.296-1.532.61-3.104.934-4.673l.021-.102c.34-1.645.675-3.22 1.02-4.792l.028-.126a392.247 392.247 0 0 1 2.641-11.243l.133-.601.032-.058c.349-1.38.698-2.734 1.055-4.086l.063-.239a402.85 402.85 0 0 1 1.229-4.544l.062-.224c.419-1.511.855-3.047 1.301-4.581l.034-.113h-.001a401.416 401.416 0 0 1 3.152-10.314l.184-.57.071-.368.127-.249c.438-1.349.883-2.695 1.334-4.039l.089-.265a394.013 394.013 0 0 1 1.675-4.869l.178-.508c.542-1.534 1.09-3.054 1.646-4.572l.279-.766c.525-1.423 1.06-2.841 1.6-4.255l.387-1.018a421.83 421.83 0 0 1 1.562-3.982l.481-1.22c.438-1.088.881-2.17 1.327-3.251-14.863-9.342-24.817-22.882-27.571-37.67a45.626 45.626 0 0 1-.624-2.101l-.1-.351a48.765 48.765 0 0 1-.585-2.531l-.17-.864c-.036-.179-.072-.357-.104-.538-.105-.6-.195-1.208-.278-1.818l-.02-.134a47.023 47.023 0 0 1-.207-1.869 123.374 123.374 0 0 1-.153-2.231 49.06 49.06 0 0 1-.045-2.062c0-9.153 2.587-17.94 7.69-26.118a54.157 54.157 0 0 1 1.705-2.572 60.541 60.541 0 0 1 5.978-7.215c1.791-1.854 3.822-3.701 6.037-5.493a73.129 73.129 0 0 1 7.566-5.353 77.278 77.278 0 0 1 6.226-3.46 83.461 83.461 0 0 1 9.05-3.856c9.819-3.521 20.26-5.308 31.03-5.308h3.455c8.255-19.986 21.952-37.081 39.766-49.581 19.104-13.405 41.579-20.491 64.998-20.491 4.428 0 8.92.271 13.413.808 1.176-62.312 52.23-112.637 114.818-112.637 32.387 0 62.979 13.547 84.739 37.35C437.06 28.682 486.85 6.44 539.399 6.44c101.964 0 184.918 82.954 184.918 184.919 0 6.96-.396 13.975-1.18 20.92 8.954.364 17.665 1.981 25.947 4.82a85.27 85.27 0 0 1 9.702 4.011 80.341 80.341 0 0 1 5.655 3.054 73.422 73.422 0 0 1 9.562 6.756 66.959 66.959 0 0 1 3.998 3.643c2.699 2.659 5.089 5.46 7.102 8.323.6.853 1.174 1.719 1.707 2.574 5.101 8.174 7.688 16.961 7.688 26.114 0 .847-.028 1.727-.09 2.769l-.041.631a45.59 45.59 0 0 1-.265 2.685l-.046.309a48.08 48.08 0 0 1-.401 2.437l-.188.979a46.262 46.262 0 0 1-.52 2.174l-.232.848c-.07.26-.141.52-.218.777-.079.264-.163.521-.248.778l-.038.117c-2.754 14.783-12.703 28.318-27.559 37.66.246.593.491 1.187.732 1.779l.75 1.861c.394.98.784 1.958 1.17 2.937l.765 1.971a371.9 371.9 0 0 1 2.89 7.713c.241.665.482 1.33.72 1.996a451.479 451.479 0 0 1 1.694 4.843c.35 1.021.69 2.043 1.032 3.064l.592 1.779c.39 1.188.771 2.382 1.148 3.574l.405 1.267a385.815 385.815 0 0 1 1.5 4.896l.192.656c.417 1.401.827 2.806 1.229 4.211l.449 1.605c.306 1.092.612 2.188.909 3.284.125.456.489 1.833.489 1.833.272 1.024.544 2.052.81 3.08l.47 1.852c.268 1.062.519 2.071.765 3.081l.461 1.917c.243 1.02.481 2.038.716 3.058l.428 1.871c.238 1.062.47 2.124.698 3.186l.374 1.732c.246 1.163.483 2.328.719 3.491l.289 1.43c.303 1.525.595 3.056.879 4.586l.064.339c.31 1.675.608 3.364.898 5.054l.1.601c.245 1.452.483 2.896.712 4.341l.21 1.372c.184 1.194.365 2.392.539 3.589l.224 1.592c.159 1.129.315 2.259.464 3.39l.215 1.662c.143 1.12.28 2.235.411 3.351l.193 1.649c.131 1.145.255 2.286.375 3.428l.161 1.542c.124 1.221.24 2.44.353 3.658l.12 1.296c.126 1.429.243 2.853.354 4.275l.054.67c.257 3.385.472 6.817.64 10.201l.014.298c.076 1.562.143 3.121.2 4.678l.032.977c.047 1.335.087 2.673.119 4.011l.025 1.227c.027 1.252.048 2.518.063 3.782l.012 1.281c.01 1.264.015 2.522.013 3.779l-.003 1.24c-.006 1.305-.02 2.61-.038 3.916l-.016 1.048a390.294 390.294 0 0 1-.1 4.339l-.016.604a394.964 394.964 0 0 1-1.127 20.251l-.048.567a392.1 392.1 0 0 1-.39 4.399l-.077.801a414.491 414.491 0 0 1-.427 4.2l-.092.846a383.624 383.624 0 0 1-.484 4.223l-.091.752a377.295 377.295 0 0 1-.572 4.475l-.057.436a398.605 398.605 0 0 1-4.205 25.067l-.022.113a392.823 392.823 0 0 1-.993 4.777l-.098.45a370.524 370.524 0 0 1-.993 4.487l-.103.454a401.237 401.237 0 0 1-1.078 4.586l-.069.291a398.563 398.563 0 0 1-9.906 34.154l-.062.182a379.216 379.216 0 0 1-1.608 4.639l-.062.174a397.69 397.69 0 0 1-23.821 54.066l-.242.453a398.265 398.265 0 0 1-11.153 19.508v.598l-.945.946a394.752 394.752 0 0 1-3.345 5.329l-.979 1.523a397.929 397.929 0 0 1-3.683 5.61l-.263.437-.086.081a394.4 394.4 0 0 1-8.498 12.142l-.061.084a396.973 396.973 0 0 1-9.652 12.711l-.117.235-.336.336-.039.049a416.78 416.78 0 0 1-2.96 3.674l-.81.98c-.783.954-1.569 1.907-2.362 2.855l-1.1 1.302c-.706.837-1.413 1.671-2.125 2.499-.407.475-.819.949-1.231 1.423-.677.782-1.363 1.569-2.055 2.354l-1.279 1.444c-.693.778-1.387 1.551-2.085 2.321a326.678 326.678 0 0 1-3.458 3.773l-1.224 1.317a445.84 445.84 0 0 1-2.423 2.559l-1.021 1.072a400.228 400.228 0 0 1-7.074 7.172l-.959.937a355.63 355.63 0 0 1-2.636 2.567l-1.293 1.234a298.034 298.034 0 0 1-3.786 3.564 414.542 414.542 0 0 1-3.755 3.445c-.771.696-1.542 1.39-2.315 2.078-.511.455-.994.886-1.479 1.313a424 424 0 0 1-2.401 2.097l-1.417 1.229c-.888.763-1.778 1.517-2.671 2.269l-1.188 1.005a391.653 391.653 0 0 1-7.894 6.433l-1.184.93a377.48 377.48 0 0 1-2.822 2.206l-1.503 1.15c-.85.65-1.7 1.298-2.555 1.941-.549.412-1.094.818-1.64 1.223-.822.613-1.651 1.226-2.484 1.835-.56.41-1.122.818-1.685 1.227-.837.605-1.674 1.205-2.514 1.804-.559.397-1.117.795-1.68 1.191-.871.612-1.743 1.218-2.615 1.822l-1.618 1.117a372.01 372.01 0 0 1-2.884 1.952l-1.379.928a401.36 401.36 0 0 1-4.156 2.73l-.213.138c-1.384.896-2.84 1.823-4.304 2.743l-1.394.865c-1 .624-2.003 1.246-3.01 1.86l-1.704 1.03a366.275 366.275 0 0 1-7.281 4.291 351.505 351.505 0 0 1-4.598 2.602c-.617.344-1.238.691-1.863 1.034-.939.518-1.887 1.031-2.836 1.543 0 0-1.323.717-1.781.961-1.046.559-2.1 1.111-3.155 1.662l-1.495.782a400.107 400.107 0 0 1-9.446 4.728l-1.543.734c-1.065.512-2.14 1.026-3.217 1.53l-1.991.918c-.929.429-1.858.857-2.789 1.278l-2.232.996c-.856.381-1.712.762-2.569 1.136-.593.259-2.043.881-2.043.881-.935.4-1.849.793-2.766 1.178-.691.292-1.392.581-2.09.87-.912.378-1.824.753-2.737 1.123-.689.28-1.379.555-2.067.83-.957.381-1.871.742-2.787 1.1-.697.272-1.397.542-2.096.811a485.779 485.779 0 0 1-4.859 1.828c-.94.347-1.88.688-2.82 1.025 0 0-1.412.508-2.05.733-.955.339-1.916.671-2.878 1.004l-1.995.686c-.987.335-1.973.661-2.959.986l-1.921.634c-1.074.349-2.15.689-3.228 1.027 0 0-1.269.403-1.668.527-1.233.383-2.476.758-3.719 1.13l-1.177.355a394.138 394.138 0 0 1-9.948 2.803l-.796.208c-1.373.365-2.757.727-4.143 1.078l-1.39.345a392.15 392.15 0 0 1-3.558.876l-1.618.381c-1.12.263-2.235.523-3.352.776l-1.719.381a378.6 378.6 0 0 1-3.255.709l-1.771.37c-1.074.223-2.149.443-3.225.657l-1.772.348c-1.08.209-2.159.414-3.239.615l-1.751.32c-1.093.198-2.186.39-3.277.578l-1.706.29c-1.124.188-2.244.369-3.364.547l-1.62.255c-1.165.18-2.33.352-3.496.521l-1.479.214c-1.247.176-2.489.343-3.731.506l-1.246.165c-1.376.176-2.751.342-4.126.503l-.858.103a393.888 393.888 0 0 1-20.357 1.805l-.442-4.482.28 4.491c-1.617.101-3.233.19-4.851.271l-.655.029c-1.459.07-2.91.133-4.361.187l-.92.03c-1.361.047-2.733.088-4.103.121l-1.041.021c-1.328.028-2.663.052-3.998.066l-1.077.009c-1.131.009-2.261.014-3.392.014h-1.656z" class="st0"/><path d="M539.401 10.941c99.642 0 180.418 80.776 180.418 180.418 0 8.602-.611 17.06-1.776 25.34h1.173c10.093 0 19.702 1.672 28.412 4.656 1.337.458 2.651.95 3.944 1.469a78.693 78.693 0 0 1 5.238 2.327 75.245 75.245 0 0 1 5.336 2.882 68.549 68.549 0 0 1 8.97 6.337 62.138 62.138 0 0 1 3.729 3.396c2.454 2.418 4.668 4.989 6.579 7.707a52.298 52.298 0 0 1 1.568 2.365c4.488 7.193 7.008 15.247 7.008 23.736 0 .84-.034 1.674-.083 2.505a42.463 42.463 0 0 1-.276 2.999c-.015.114-.035.226-.051.34-.099.717-.218 1.43-.353 2.138-.036.188-.07.377-.108.565-.023.113-.041.226-.065.339a43.395 43.395 0 0 1-.467 1.955c-.048.185-.103.369-.154.554-.085.309-.165.619-.257.926-.097.323-.205.642-.309.964-.014.042-.025.086-.039.128-2.719 15.13-13.499 28.322-28.846 36.874l.267.629c.218.515.429 1.032.645 1.548.442 1.058.883 2.116 1.315 3.175.25.614.495 1.229.742 1.843.389.967.776 1.934 1.156 2.903.255.648.505 1.297.756 1.946a389.542 389.542 0 0 1 1.822 4.805 382.712 382.712 0 0 1 2.757 7.666c.222.638.445 1.277.664 1.915.346 1.011.684 2.023 1.021 3.035.195.584.392 1.168.584 1.753.386 1.177.762 2.355 1.136 3.534.133.419.27.838.402 1.258a389.16 389.16 0 0 1 1.482 4.836c.065.216.126.433.19.65.412 1.387.818 2.774 1.214 4.163.15.527.295 1.055.443 1.582.304 1.083.606 2.166.901 3.251.163.602.322 1.206.482 1.809.27 1.016.539 2.031.8 3.048.161.627.319 1.255.478 1.882a409.375 409.375 0 0 1 1.2 4.889 401.22 401.22 0 0 1 1.82 8.019c.124.571.249 1.143.37 1.715.243 1.15.478 2.301.71 3.452.095.47.193.94.286 1.41.299 1.511.588 3.022.869 4.534l.062.323c.308 1.669.605 3.339.89 5.009.034.2.065.4.099.599.242 1.428.477 2.856.703 4.284.071.451.138.902.208 1.354.183 1.183.362 2.367.533 3.551.076.523.148 1.046.221 1.57.157 1.118.311 2.235.458 3.353.072.549.142 1.098.212 1.647a414.04 414.04 0 0 1 .598 4.942c.129 1.128.252 2.255.371 3.383.054.51.108 1.019.16 1.529.122 1.205.237 2.409.347 3.614.039.428.081.856.119 1.284.125 1.408.24 2.817.35 4.225.017.22.037.44.053.66.255 3.363.466 6.725.633 10.086l.013.298c.075 1.54.141 3.081.198 4.62.012.321.021.642.032.963.045 1.322.085 2.644.118 3.965.01.402.017.804.025 1.206a426.086 426.086 0 0 1 .074 5.018c.01 1.244.014 2.488.012 3.731-.001.408-.001.817-.003 1.225a384.585 384.585 0 0 1-.038 3.874c-.005.345-.009.69-.015 1.034a383.353 383.353 0 0 1-.098 4.291l-.016.596a388.943 388.943 0 0 1-1.114 20.019l-.047.555a421.453 421.453 0 0 1-.385 4.355l-.077.792a384.394 384.394 0 0 1-.992 9.162l-.089.744c-.18 1.475-.369 2.949-.566 4.421l-.058.439a391.78 391.78 0 0 1-4.156 24.776l-.038.185a382.898 382.898 0 0 1-.966 4.648l-.092.427c-.32 1.487-.649 2.972-.986 4.456l-.103.449a392.322 392.322 0 0 1-1.065 4.535l-.066.276a392.505 392.505 0 0 1-9.797 33.778l-.061.18c-.52 1.531-1.05 3.059-1.59 4.584l-.058.164a391.924 391.924 0 0 1-23.555 53.464l-.243.456-.001.001a390.813 390.813 0 0 1-11.301 19.734l-.002.003-.377.617-.001.002a388.456 388.456 0 0 1-3.838 6.115l-.45.699-.002.003a388.564 388.564 0 0 1-3.957 6.035l-.005.007-.149.22a387.21 387.21 0 0 1-8.534 12.202l-.001.001-.06.082a387.256 387.256 0 0 1-9.826 12.924l-.004.006a.012.012 0 0 1-.005.005l-.001.002a397.146 397.146 0 0 1-3.12 3.874c-.264.324-.532.645-.797.968-.775.944-1.553 1.887-2.337 2.824-.361.431-.726.86-1.089 1.29-.696.824-1.394 1.648-2.098 2.467-.402.469-.807.935-1.212 1.401a346.49 346.49 0 0 1-3.304 3.761 369.802 369.802 0 0 1-5.478 6.024c-.403.434-.804.869-1.209 1.302-.794.847-1.594 1.689-2.396 2.53-.336.353-.67.708-1.009 1.06a389.179 389.179 0 0 1-6.992 7.089c-.314.31-.632.617-.947.926-.865.849-1.731 1.695-2.605 2.536-.425.409-.853.814-1.28 1.221-.772.737-1.546 1.472-2.325 2.203-.469.441-.942.879-1.414 1.317a343.738 343.738 0 0 1-3.717 3.409 449.597 449.597 0 0 1-3.745 3.348c-.789.695-1.582 1.386-2.377 2.076-.468.406-.934.813-1.405 1.217-.874.751-1.754 1.496-2.636 2.24-.394.332-.785.667-1.18.998a387.93 387.93 0 0 1-7.797 6.355c-.388.308-.78.612-1.169.918a400.53 400.53 0 0 1-2.791 2.181c-.494.381-.991.759-1.487 1.139-.84.643-1.681 1.284-2.527 1.92-.536.404-1.076.805-1.615 1.206a371.425 371.425 0 0 1-6.611 4.81c-.553.394-1.106.787-1.661 1.178-.858.604-1.721 1.204-2.586 1.802-.531.368-1.062.737-1.595 1.102-.947.648-1.899 1.29-2.853 1.931-.456.306-.909.615-1.366.92a391.361 391.361 0 0 1-4.21 2.765l-.045.03c-1.431.926-2.87 1.842-4.316 2.75-.458.288-.92.571-1.38.857-.989.616-1.978 1.23-2.974 1.838-.56.342-1.125.68-1.687 1.019-.907.547-1.815 1.094-2.728 1.634-.598.355-1.199.706-1.8 1.058a412.054 412.054 0 0 1-4.518 2.606c-.896.509-1.795 1.014-2.696 1.516-.613.342-1.225.683-1.84 1.022-.932.513-1.869 1.021-2.806 1.527-.587.317-1.172.636-1.761.95a400.535 400.535 0 0 1-3.119 1.642c-.495.258-.986.52-1.482.776a421.564 421.564 0 0 1-4.647 2.366c-1.562.781-3.126 1.55-4.693 2.308-.505.244-1.011.481-1.517.723-1.062.508-2.124 1.017-3.188 1.515-.611.286-1.223.564-1.835.847-.963.445-1.927.89-2.892 1.326-.649.293-1.3.581-1.95.87-.931.415-1.862.829-2.794 1.236-.673.293-1.347.582-2.021.871-.91.391-1.82.781-2.732 1.164-.689.29-1.379.575-2.069.861a349.965 349.965 0 0 1-4.791 1.947 413.176 413.176 0 0 1-4.791 1.874 366.91 366.91 0 0 1-4.803 1.807c-.927.342-1.856.678-2.784 1.012-.676.243-1.351.487-2.027.726-.948.335-1.897.664-2.847.992-.658.227-1.316.456-1.974.679-.986.334-1.974.661-2.962.987-.62.205-1.239.412-1.859.613-1.061.344-2.124.68-3.187 1.015-.549.173-1.098.35-1.647.521-1.226.38-2.453.75-3.68 1.118-.387.116-.774.236-1.161.351a388.626 388.626 0 0 1-9.838 2.772c-.259.069-.519.135-.778.204a381.11 381.11 0 0 1-4.105 1.068c-.458.116-.917.227-1.375.341-1.172.293-2.345.584-3.519.865-.533.128-1.067.251-1.6.376-1.103.26-2.206.518-3.311.767-.565.128-1.131.251-1.697.376a370.26 370.26 0 0 1-3.219.701c-.583.124-1.167.244-1.75.365-1.063.221-2.126.438-3.189.65-.583.116-1.167.229-1.75.343a354.168 354.168 0 0 1-4.935.926 407.295 407.295 0 0 1-4.928.858c-1.107.185-2.215.365-3.323.54-.533.084-1.066.17-1.599.252a374.69 374.69 0 0 1-3.459.515c-.488.071-.976.143-1.464.212-1.228.173-2.457.338-3.686.499-.411.054-.821.11-1.232.163-1.36.174-2.72.338-4.08.498-.282.033-.563.069-.845.101a388.23 388.23 0 0 1-25.08 2.06c-.218.011-.437.019-.655.03-1.435.069-2.869.131-4.304.183l-.902.03c-1.355.047-2.709.087-4.063.12l-1.023.021c-1.32.028-2.639.051-3.958.065l-1.064.01c-1.092.009-2.182.014-3.273.014l-.653-.001a401.854 401.854 0 0 1-10.094-.15l-.857-.024a380.845 380.845 0 0 1-4.281-.153c-.213-.009-.427-.016-.64-.026a395.054 395.054 0 0 1-4.907-.24 390.248 390.248 0 0 1-39.866-4.27l-.198-.032a390.064 390.064 0 0 1-4.7-.781l-.299-.052a396.528 396.528 0 0 1-4.608-.826l-.326-.061a377.622 377.622 0 0 1-4.605-.887l-.277-.055a376.034 376.034 0 0 1-4.698-.968l-.145-.031a392.242 392.242 0 0 1-83.541-27.885 390.516 390.516 0 0 1-20.748-10.392h-.001a389.75 389.75 0 0 1-44.462-27.958l-.04-.029a385.602 385.602 0 0 1-6.987-5.204l-.112-.085a388.5 388.5 0 0 1-6.878-5.37l-.035-.029a387.177 387.177 0 0 1-32.893-29.519l-.11-.11a385.688 385.688 0 0 1-6.071-6.254l-.199-.21a389.676 389.676 0 0 1-5.916-6.383l-.165-.183a387.907 387.907 0 0 1-9.17-10.507l-.002-.003-.103-.123a392.334 392.334 0 0 1-3.184-3.837l-.001-.002-.094-.115a390.213 390.213 0 0 1-3.167-3.924l-.008-.01-.168-.212-.152-.191-.004-.005a383.19 383.19 0 0 1-2.934-3.74l-.001-.002-.03-.038a385.682 385.682 0 0 1-3.231-4.231l-.133-.176-.001-.002a386.437 386.437 0 0 1-7.73-10.653l-.01-.015a391.82 391.82 0 0 1-5.618-8.248l-.006-.009a390.602 390.602 0 0 1-5.403-8.385l-.006-.009-.002-.003a393.238 393.238 0 0 1-5.217-8.571l-.005-.009c-1.706-2.885-3.38-5.8-5.02-8.743l-.004-.007-.026-.047a390.056 390.056 0 0 1-2.591-4.727l-.003-.005-.001-.002a409.506 409.506 0 0 1-2.702-5.097l-.208-.397a385.834 385.834 0 0 1-2.701-5.289l-.013-.025-.008-.016a392.425 392.425 0 0 1-3.105-6.364c-.281-.588-.559-1.177-.837-1.766a397.615 397.615 0 0 1-2.445-5.276c-.191-.421-.387-.841-.577-1.262a395.125 395.125 0 0 1-2.809-6.395c-.219-.51-.432-1.022-.649-1.533a394.211 394.211 0 0 1-2.162-5.204c-.224-.549-.449-1.098-.67-1.648a390.485 390.485 0 0 1-2.551-6.503c-.096-.253-.188-.507-.284-.76a398.097 398.097 0 0 1-2.773-7.558 382.842 382.842 0 0 1-2.107-6.073c-.06-.179-.124-.358-.184-.537a392.657 392.657 0 0 1-2.167-6.674c-.158-.501-.312-1.002-.469-1.504a381.658 381.658 0 0 1-1.704-5.624c-.122-.413-.246-.825-.366-1.238a384.662 384.662 0 0 1-1.902-6.761c-.085-.312-.165-.624-.249-.937a396.876 396.876 0 0 1-1.547-5.948c-.118-.468-.237-.936-.353-1.405a384.88 384.88 0 0 1-3.134-13.707l-.268-1.294a389.051 389.051 0 0 1-1.273-6.436l-.084-.435c-.442-2.359-.859-4.72-1.256-7.082-.048-.283-.092-.566-.139-.849a375.88 375.88 0 0 1-1.001-6.369c-.043-.292-.089-.583-.131-.875a389.81 389.81 0 0 1-1.809-14.194l-.098-.912a387.513 387.513 0 0 1-1.255-14.302l-.042-.624a387.375 387.375 0 0 1-.413-7.046l-.006-.108a387.785 387.785 0 0 1-.442-15.118c-.048-4.87-.004-9.734.131-14.591l.01-.36a389.455 389.455 0 0 1 2.805-36.82l.017-.139a391.232 391.232 0 0 1 2.099-14.618l.001-.005.005-.031a399.499 399.499 0 0 1 1.108-6.46l.003-.019.001-.008c.285-1.578.579-3.154.883-4.727l.03-.156a387.9 387.9 0 0 1 .932-4.661l.034-.167a391.567 391.567 0 0 1 1.018-4.777 393.77 393.77 0 0 1 2.622-11.163l.013-.054.003-.011c.385-1.535.78-3.068 1.183-4.598l.051-.195c.4-1.513.809-3.024 1.227-4.533l.054-.194c.422-1.521.854-3.041 1.294-4.557l.033-.113a392.842 392.842 0 0 1 3.142-10.273c.08-.248.158-.497.239-.745l.004-.013a413.999 413.999 0 0 1 3.174-9.411l.178-.51a378.772 378.772 0 0 1 1.625-4.513c.092-.252.183-.505.276-.757a393.908 393.908 0 0 1 1.582-4.206c.128-.336.253-.672.383-1.008a401.017 401.017 0 0 1 1.544-3.936c.16-.402.316-.806.477-1.208a376.933 376.933 0 0 1 1.571-3.841c.169-.408.333-.818.503-1.226.242-.579.491-1.156.736-1.734-15.352-8.552-26.136-21.746-28.856-36.879l-.023-.078a44.09 44.09 0 0 1-.632-2.11c-.023-.086-.051-.171-.073-.257l-.018-.062a43.628 43.628 0 0 1-.647-2.899c-.042-.222-.092-.443-.131-.667a42.608 42.608 0 0 1-.251-1.645l-.02-.13a44.667 44.667 0 0 1-.185-1.684c-.023-.257-.04-.515-.058-.772a41.072 41.072 0 0 1-.04-.606c-.013-.215-.033-.429-.042-.645a42.53 42.53 0 0 1-.04-1.859c0-8.488 2.52-16.543 7.008-23.736a52.298 52.298 0 0 1 1.568-2.365 55.874 55.874 0 0 1 5.534-6.678 62.338 62.338 0 0 1 5.63-5.121 68.458 68.458 0 0 1 7.1-5.023 74.142 74.142 0 0 1 5.87-3.261 78.45 78.45 0 0 1 8.559-3.647c8.998-3.228 18.993-5.045 29.515-5.045h6.51c15.626-40.963 55.258-70.072 101.709-70.072 6.124 0 12.121.531 17.969 1.503-.027-.998-.076-1.99-.076-2.994 0-60.938 49.4-110.339 110.338-110.339 34.055 0 64.496 15.437 84.736 39.684 33.09-38.859 82.375-63.525 137.428-63.525m0-9c-52.206 0-101.75 21.427-137.478 59.13-22.345-22.532-52.674-35.273-84.69-35.273-31.876 0-61.845 12.413-84.385 34.953-20.846 20.846-33.031 48.049-34.744 77.236-3.049-.239-6.09-.36-9.102-.36-24.348 0-47.719 7.368-67.583 21.308-17.686 12.411-31.47 29.18-40.148 48.764h-.487c-11.292 0-22.245 1.875-32.554 5.573a87.638 87.638 0 0 0-12.242 5.474 83.206 83.206 0 0 0-3.875 2.247 77.727 77.727 0 0 0-8.033 5.684 71.532 71.532 0 0 0-6.443 5.865 65.133 65.133 0 0 0-6.424 7.754 60.902 60.902 0 0 0-1.841 2.777C3.895 251.852 1 261.707 1 271.575c0 .75.016 1.507.049 2.25.01.218.024.431.039.644l.01.136c.014.246.03.497.049.747l.01.148c.018.258.037.516.06.773.067.737.14 1.404.224 2.041.013.096.025.176.037.253a49.6 49.6 0 0 0 .292 1.896c.038.216.081.435.126.655l.031.153a52.582 52.582 0 0 0 .783 3.496l.034.132.028.096.062.215c.173.636.365 1.288.581 1.971 2.85 14.834 12.297 28.437 26.384 38.277l-.242.612-.19.483a399.54 399.54 0 0 0-1.579 4.024l-.251.659-.144.38a410.358 410.358 0 0 0-1.615 4.294l-.17.467-.113.311a394.585 394.585 0 0 0-1.661 4.615l-.123.35-.062.178a393.202 393.202 0 0 0-1.693 4.921l-.043.13-.042.127a403.861 403.861 0 0 0-1.452 4.403l-.086.258-.014.055-.076.238-.084.263-.034.105a400.03 400.03 0 0 0-3.179 10.402l-.03.102a400.353 400.353 0 0 0-1.328 4.675l-.055.2a406.091 406.091 0 0 0-1.255 4.637l-.037.139-.017.066c-.409 1.551-.811 3.11-1.202 4.671l-.002.007-.013.052-.02.082a402.738 402.738 0 0 0-2.671 11.372l-.005.021-.02.088c-.348 1.59-.688 3.181-1.017 4.775l-.032.158c-.33 1.6-.647 3.189-.956 4.78l-.016.085-.014.074c-.305 1.58-.601 3.16-.887 4.743l-.024.12-.015.098a400.959 400.959 0 0 0-1.062 6.176l-.001.003-.057.352-.003.017-.001.009a402.637 402.637 0 0 0-2.146 14.948l-.009.07-.012.096a400.404 400.404 0 0 0-2.867 37.646l-.002.062-.009.32a398.87 398.87 0 0 0-.133 14.914l.004.343.001.107c.055 5.023.205 10.08.447 15.019l.005.1c.115 2.326.257 4.751.423 7.221l.013.204.029.439c.334 4.836.766 9.76 1.284 14.628l.082.757.019.173a398.17 398.17 0 0 0 1.851 14.526l.081.541.053.354c.324 2.182.669 4.375 1.025 6.518l.054.332.089.539c.418 2.485.851 4.922 1.285 7.244l.057.295.029.151a389.15 389.15 0 0 0 1.302 6.585l.274 1.322c.982 4.681 2.061 9.4 3.208 14.027.097.392.197.787.296 1.182l.065.258c.52 2.066 1.053 4.114 1.583 6.084l.093.35.162.609a397.06 397.06 0 0 0 1.946 6.917c.077.266.156.532.236.798l.14.47c.56 1.899 1.146 3.835 1.742 5.752l.136.438c.114.368.228.736.344 1.104a385.41 385.41 0 0 0 2.217 6.825l.121.354.067.196a385.397 385.397 0 0 0 2.778 7.95c.761 2.11 1.486 4.071 2.215 5.996l.111.297.18.481a395.704 395.704 0 0 0 3.107 7.875l.189.463a405.42 405.42 0 0 0 2.211 5.322l.234.555c.142.337.284.673.428 1.01.957 2.23 1.923 4.431 2.874 6.544.12.266.24.529.362.793l.229.5a391.877 391.877 0 0 0 2.5 5.395l.039.083a406.182 406.182 0 0 0 3.975 8.196l.021.042.01.019.008.016.02.038a393.067 393.067 0 0 0 2.744 5.371l.134.256.08.153a418.722 418.722 0 0 0 2.573 4.859v.001l.06.111.064.118.187.375.079.119a385.504 385.504 0 0 0 2.453 4.468l.001.002.231.425.03.043a405.909 405.909 0 0 0 4.821 8.39l.006.011.074.126.075.127.001.002a405.187 405.187 0 0 0 5.003 8.227l.449.93.36.36a401.93 401.93 0 0 0 4.97 7.693l.01.015.015.022a398.436 398.436 0 0 0 5.727 8.409l.02.029.027.038.004.006a401.624 401.624 0 0 0 7.736 10.668l.004.005.156.207.091.12.044.059a402.96 402.96 0 0 0 3.286 4.303l.005.007.043.056a417.548 417.548 0 0 0 3.001 3.825l.119.15.042.063.199.242.081.102.004.004a385.293 385.293 0 0 0 3.136 3.882l.054.066.29.362.038.038c.884 1.077 1.773 2.15 2.668 3.216l.004.007.409.486a396.612 396.612 0 0 0 9.383 10.751l.174.192a395.412 395.412 0 0 0 6.049 6.527l.135.142.065.069a397.476 397.476 0 0 0 6.216 6.403l.109.11a397.837 397.837 0 0 0 33.645 30.196l.012.01.039.031a398.636 398.636 0 0 0 7.037 5.494l5.515-7.113-5.467 7.149.081.062a402.878 402.878 0 0 0 7.134 5.314l.027.019.032.023a400.27 400.27 0 0 0 44.622 28.132l.004.004.846.456a402.392 402.392 0 0 0 21.225 10.63 401.819 401.819 0 0 0 85.458 28.525l.1.021c1.648.35 3.25.68 4.854 1l.283.056c1.569.312 3.14.615 4.713.908l.329.062c1.575.292 3.146.574 4.719.846l.302.053c1.604.276 3.207.543 4.812.799l.174.028a401.323 401.323 0 0 0 40.813 4.373l.183.01.112.006c1.572.086 3.149.163 4.726.23l.402.016.246.01c1.466.06 2.926.113 4.386.156l.533.015.337.009c1.395.039 2.785.07 4.175.094l1.018.016c1.353.02 2.703.033 4.054.039l1.091.004.666.001c1.116 0 2.231-.005 3.347-.014l.162-.001.929-.008c1.346-.015 2.697-.038 4.048-.066l.313-.006.73-.016a382.8 382.8 0 0 0 4.164-.123l.344-.011.575-.019c1.469-.054 2.937-.117 4.405-.188l.263-.012.409-.019c1.632-.081 3.267-.172 4.902-.273l.123-.007c6.89-.43 13.818-1.044 20.635-1.828l.516-.062.348-.042a417.26 417.26 0 0 0 4.176-.51l.794-.105.468-.062c1.255-.165 2.512-.333 3.77-.511l1.053-.152.444-.065a280.127 280.127 0 0 0 4.861-.735l.316-.05a400.217 400.217 0 0 0 5.126-.846 426.35 426.35 0 0 0 5.086-.908 388.221 388.221 0 0 0 8.334-1.639l.406-.084c.461-.096.922-.191 1.382-.289a393.26 393.26 0 0 0 3.296-.718l.489-.108c.417-.092.834-.184 1.25-.278a383.9 383.9 0 0 0 3.386-.785l.514-.12a227.477 227.477 0 0 0 4.724-1.15l.51-.126c.299-.073.597-.147.896-.223 1.401-.355 2.8-.721 4.199-1.093l.31-.081.482-.126c3.354-.897 6.74-1.852 10.07-2.837.243-.072.483-.145.723-.218l.467-.141a405.2 405.2 0 0 0 3.764-1.143c.362-.112.723-.227 1.084-.342l.6-.19a409.47 409.47 0 0 0 3.26-1.038c.449-.146.895-.294 1.342-.442l.562-.186a384.03 384.03 0 0 0 3.03-1.01c.536-.182 1.071-.367 1.605-.551l.415-.143c.97-.335 1.941-.671 2.911-1.014.635-.225 1.27-.453 1.904-.681l.17-.061a389.738 389.738 0 0 0 17.565-6.793c.704-.291 1.411-.584 2.118-.881.928-.39 1.86-.789 2.791-1.189l.407-.175c.554-.238 1.108-.475 1.661-.716.954-.416 1.906-.84 2.858-1.264l.52-.231c.492-.219.984-.437 1.475-.659a397.12 397.12 0 0 0 2.838-1.301l.12-.055.635-.292c.414-.19.828-.38 1.241-.574a357.11 357.11 0 0 0 3.132-1.488l.128-.061.594-.283c.318-.151.637-.302.955-.456a408.905 408.905 0 0 0 4.802-2.362c1.526-.764 3.08-1.555 4.752-2.419.32-.165.638-.333.956-.5l.56-.294a419.248 419.248 0 0 0 3.191-1.68c.448-.239.896-.481 1.344-.724l.459-.248c.958-.517 1.916-1.037 2.869-1.561.603-.332 1.204-.667 1.804-1.002l.078-.043a385.573 385.573 0 0 0 7.38-4.217l.079-.046a338.682 338.682 0 0 0 4.552-2.707l.511-.308c.406-.244.811-.488 1.214-.735a387.424 387.424 0 0 0 3.043-1.881l.511-.317c.301-.186.602-.372.901-.56a394.866 394.866 0 0 0 4.413-2.812l.06-.038.035-.023a396.36 396.36 0 0 0 4.26-2.798c.297-.198.595-.399.893-.6l.505-.34c.976-.656 1.951-1.313 2.92-1.976.395-.271.791-.545 1.188-.82l.443-.307c.885-.612 1.768-1.226 2.646-1.844a406.152 406.152 0 0 0 5.944-4.268c.844-.618 1.683-1.238 2.519-1.86l.156-.116a366.487 366.487 0 0 0 4.083-3.083l.461-.352c.353-.27.706-.539 1.057-.81.959-.742 1.909-1.486 2.857-2.233l.459-.36c.247-.193.493-.385.738-.58a404.86 404.86 0 0 0 7.979-6.502c.256-.214.51-.43.764-.646l.443-.376c.903-.762 1.804-1.524 2.698-2.292.337-.289.672-.581 1.008-.872l.427-.371a355.604 355.604 0 0 0 6.267-5.552 381.11 381.11 0 0 0 3.803-3.488l.144-.134a302.495 302.495 0 0 0 3.683-3.47l.407-.388c.301-.286.602-.573.901-.861a408.54 408.54 0 0 0 2.666-2.595l.369-.36c.201-.196.402-.391.601-.589a395.654 395.654 0 0 0 7.153-7.252c.219-.228.436-.456.652-.684l.381-.401c.82-.859 1.638-1.72 2.45-2.586.301-.321.596-.64.892-.959l.348-.375a415.56 415.56 0 0 0 2.204-2.39 412.405 412.405 0 0 0 4.698-5.238c.698-.791 1.392-1.587 2.084-2.385l.054-.062c.396-.457.793-.914 1.187-1.373.718-.836 1.432-1.678 2.145-2.522l.337-.398c.259-.306.518-.612.776-.92.804-.961 1.6-1.925 2.393-2.891l.315-.382.503-.611c.963-1.18 1.92-2.367 2.871-3.56l.01-.01.303-.383.082-.102.012-.016a400.176 400.176 0 0 0 9.978-13.128l.084-.115a397.164 397.164 0 0 0 8.608-12.304l.012-.014.232-.347.166-.246.009-.016a393.305 393.305 0 0 0 3.627-5.529l.09-.112.248-.413.083-.13.3-.466a395.036 395.036 0 0 0 3.677-5.852l.001-.002.251-.408.008-.012.534-.87.003-.01.041-.068.002-.003a401.037 401.037 0 0 0 11.361-19.861l.25-.469a402.097 402.097 0 0 0 24.094-54.689l.063-.177c.548-1.55 1.091-3.113 1.623-4.68l.014-.041.052-.151a402.857 402.857 0 0 0 10.019-34.545l.039-.162.028-.116c.374-1.549.737-3.096 1.091-4.645l.07-.307.033-.143c.347-1.526.683-3.045 1.011-4.567l.042-.193.052-.242c.339-1.585.669-3.169.988-4.756l.036-.177a401.83 401.83 0 0 0 4.254-25.358l.036-.27.023-.175c.202-1.511.395-3.018.579-4.527l.067-.553.025-.211c.17-1.417.334-2.84.489-4.263l.017-.154.075-.697c.152-1.423.296-2.839.433-4.258l.03-.304.049-.506c.14-1.484.271-2.969.394-4.454l.021-.252.027-.314c.554-6.803.938-13.694 1.14-20.484l.009-.346.007-.253c.042-1.475.076-2.939.101-4.403l.01-.726.004-.334c.02-1.316.033-2.638.039-3.961l.003-1.021v-.228c.002-1.276-.002-2.548-.013-3.82l-.012-1.3a377.74 377.74 0 0 0-.063-3.835l-.007-.359-.019-.87a388.42 388.42 0 0 0-.121-4.062l-.013-.397-.02-.585a391.825 391.825 0 0 0-.203-4.73l-.004-.093-.009-.208c-.17-3.431-.388-6.902-.648-10.325l-.033-.415-.021-.258c-.112-1.443-.23-2.885-.358-4.327l-.077-.836-.044-.474a409.87 409.87 0 0 0-.356-3.7c-.043-.426-.088-.849-.133-1.273l-.031-.292a456.96 456.96 0 0 0-.574-5.134 421.75 421.75 0 0 0-.416-3.382l-.016-.122c-.067-.521-.133-1.042-.202-1.564a398.457 398.457 0 0 0-.469-3.433l-.069-.493a200.07 200.07 0 0 0-.158-1.117 403.52 403.52 0 0 0-.545-3.629l-.076-.501-.136-.887c-.23-1.459-.471-2.922-.719-4.383l-.034-.209-.068-.406a399.95 399.95 0 0 0-.91-5.122l-.047-.246-.016-.084a390.821 390.821 0 0 0-.889-4.64c-.059-.299-.12-.598-.181-.897l-.111-.544a264.692 264.692 0 0 0-1.003-4.817l-.103-.473a379.016 379.016 0 0 0-3.089-13.208l-.048-.191c-.146-.578-.292-1.156-.44-1.733a366.377 366.377 0 0 0-.819-3.12l-.146-.55c-.115-.433-.23-.867-.347-1.299a419.347 419.347 0 0 0-.922-3.327l-.16-.573c-.097-.349-.194-.698-.294-1.047-.404-1.418-.82-2.837-1.241-4.256l-.076-.259-.118-.402a410.054 410.054 0 0 0-1.518-4.954c-.083-.265-.167-.526-.251-.788l-.16-.5a397.995 397.995 0 0 0-1.162-3.614c-.135-.412-.273-.824-.411-1.237l-.187-.558c-.344-1.033-.69-2.068-1.044-3.103-.184-.538-.37-1.073-.557-1.608l-.123-.352c-.341-.981-.685-1.961-1.034-2.94a428.293 428.293 0 0 0-2.543-6.926c-.365-.966-.735-1.929-1.107-2.891l-.084-.217c-.229-.592-.457-1.183-.689-1.775-.389-.99-.785-1.98-1.183-2.969l-.101-.252c14.076-9.835 23.517-23.429 26.37-38.254.078-.24.155-.48.227-.721.086-.287.166-.579.245-.871l.065-.24.044-.156a50.511 50.511 0 0 0 .705-2.877c.031-.143.058-.289.085-.434l-.007.034c.039-.192.072-.366.104-.539l.028-.15c.169-.888.312-1.758.427-2.591.021-.135.042-.27.059-.405a51.36 51.36 0 0 0 .336-3.639c.067-1.139.098-2.103.098-3.032 0-9.867-2.895-19.722-8.372-28.5a61.185 61.185 0 0 0-1.841-2.777c-2.17-3.086-4.735-6.094-7.625-8.942a72.186 72.186 0 0 0-4.268-3.885 77.884 77.884 0 0 0-11.776-8.114 84.693 84.693 0 0 0-4.349-2.287 90.167 90.167 0 0 0-10.224-4.228c-7.219-2.474-14.743-4.063-22.464-4.751.49-5.573.738-11.171.738-16.732 0-25.567-5.009-50.375-14.889-73.733-9.541-22.557-23.197-42.813-40.59-60.206-17.393-17.393-37.649-31.049-60.206-40.59-23.357-9.887-48.164-14.896-73.732-14.896zM51.676 668.494z" class="st0"/><path d="M790 271.571c0-30.181-31.853-54.875-70.784-54.875H80.784C41.853 216.696 10 241.39 10 271.571c0 19.901 13.853 37.411 34.448 47.034l-2.044.002C-1.947 420.777-2.44 541.131 51.297 648.532c96.357 192.583 330.589 270.59 523.173 174.233 186.559-93.343 265.598-316.071 182.765-504.984 19.659-9.776 32.765-26.859 32.765-46.21z" class="st35"/><path fill="#edc531" d="M719.82 191.356c0-99.642-80.776-180.418-180.418-180.418-55.053 0-104.339 24.666-137.432 63.541-20.24-24.248-50.682-39.684-84.736-39.684-60.938 0-110.338 49.4-110.338 110.338 0 1.004.049 1.996.076 2.994a109.473 109.473 0 0 0-17.968-1.503c-47.38 0-87.683 30.277-102.635 72.535h631.319a181.892 181.892 0 0 0 2.132-27.803z"/><path fill="#cea628" d="M688.95 138.462c-19.263-61.194-76.375-104.78-140.302-108.236-5.373-.385-12.001-.334-17.412-.062l-2.898.12-2.889.277-5.771.57c-1.913.27-6.781 1.038-8.597 1.307-4.439.882-9.698 2.02-14.093 3.28-29.404 8.134-56.383 25.405-75.747 49.005 23.351-21.301 52-36.332 83.119-42.22 5.156-.939 11.053-1.722 16.285-2.247 1.872-.097 6.352-.401 8.196-.493 11.741-.307 23.815.353 35.346 2.568 58.442 10.273 107.33 54.378 125.611 110.682 2.353 7.13 4.163 14.381 5.721 21.733-.626-12.297-2.895-24.529-6.569-36.284zM311.261 52.634c-29.049 2.611-56.215 20.886-68.121 47.642 37.556-51.836 113.869-51.176 147.304 4.155 9.948 16.703 14.246 36.932 12.122 57.302.823-2.429 1.468-4.92 2.039-7.439 1.375-6.295 1.889-12.929 1.732-19.381-1.26-48.893-46.569-87.412-95.076-82.279zm-72.576 135.062c-1.986-3.17-4.463-6.092-7.012-8.824-.765-.782-2.742-2.552-3.54-3.346l-2.537-2.039c-1.422-1.226-3.779-2.681-5.337-3.764-1.83-1.063-3.813-2.248-5.747-3.136-17.366-8.426-39.4-8.912-55.928 1.572 28.355-1.946 52.873 4.284 75.124 21.981.749.647 2.678 2.211 3.483 2.862 1.45 1.332 3.147 2.694 4.578 4.076 2.905 2.621 2.549 2.62 1.302-.893-1.069-2.865-2.74-5.901-4.386-8.489z" opacity=".5"/><g opacity=".2"><path d="M416.192 222.79H81.988c-38.784 0-70.516 24.6-70.516 54.668 0 30.067 31.732 54.668 70.516 54.668h334.204"/><path d="M383.808 222.79h334.204c38.784 0 70.516 24.6 70.516 54.668 0 30.067-31.732 54.668-70.516 54.668H383.808"/></g><path d="M416.254 216.696H80.784C41.853 216.696 10 241.39 10 271.571s31.853 54.875 70.784 54.875h335.47" class="st35"/><path d="M383.746 216.696h335.47c38.931 0 70.784 24.694 70.784 54.875s-31.853 54.875-70.784 54.875h-335.47" class="st35"/><circle cx="660.702" cy="506.189" r="11.035" class="st21" transform="rotate(-17.484 660.73 506.244)"/><path d="M187.027 643.797c-1.686 6.293 2.048 12.762 8.342 14.448 6.293 1.686 12.762-2.048 14.448-8.342 1.686-6.293-2.048-12.762-8.342-14.448-6.293-1.686-12.762 2.049-14.448 8.342z" class="st21"/><path fill="#165de5" d="M534.463 375.984c-87.71 0-158.786 71.075-158.786 158.786s71.075 158.786 158.786 158.786S693.249 622.48 693.249 534.77s-71.227-158.786-158.786-158.786z"/><path d="M525.39 432.694c4.99-2.722 12.703-2.722 17.844 0l51.568 27.069c3.024 1.663 4.688 3.932 4.99 6.503V602.67c0 2.722-1.815 5.293-5.142 7.108l-51.568 27.069c-4.99 2.722-12.703 2.722-17.844 0l-51.567-27.069c-3.327-1.663-4.839-4.386-4.99-7.108V466.417c.302-2.42 1.815-4.839 4.99-6.503l51.719-27.22zm66.387 109.637-48.543 25.557c-4.99 2.722-12.703 2.722-17.844 0l-48.392-25.557v59.885l48.392 25.255c2.722 1.512 5.595 2.873 8.317 3.024h.605c2.873 0 5.747-1.512 8.62-2.873l48.845-25.708v-59.583zm-131.262 57.314c0 5.293.605 8.62 1.815 11.039 1.059 1.966 2.571 3.478 5.293 5.444l.151.151c.605.454 1.21.756 2.117 1.361l.907.605 2.873 1.815-4.234 6.956-3.327-1.966-.605-.302a54.759 54.759 0 0 0-2.42-1.512c-7.864-5.293-10.737-11.039-10.888-22.986v-.302h8.317v-.303h.001zm69.714-93.91c-.302.151-.756.302-1.059.454l-51.567 27.069s-.151 0-.151.151h.302l51.568 27.069c.302.151.605.302 1.059.454l-.152-55.197zm8.166 0v55.348c.302-.151.756-.302 1.059-.454l51.568-27.069s.151 0 .151-.151h-.302l-51.568-27.069c-.152-.303-.454-.454-.908-.605zm53.382-29.791-46.275 24.347 46.275 24.347v-48.694zm-114.779 0v48.543l46.123-24.347-46.123-24.196zm62.456-36.143c-2.722-1.361-7.561-1.361-10.283 0l-51.567 27.069s-.151 0-.151.151h.302l51.568 27.069c2.722 1.361 7.561 1.361 10.283 0l51.568-27.069s.151 0 .151-.151h-.302l-51.569-27.069zm60.036 3.025 3.327 1.966.605.302a54.759 54.759 0 0 0 2.42 1.512c7.864 5.293 10.737 11.039 10.888 22.986v.302h-8.166c0-5.293-.605-8.62-1.815-11.039-1.059-1.966-2.571-3.478-5.293-5.444l-.151-.151c-.605-.454-1.21-.756-2.117-1.361l-.907-.605-2.873-1.815 4.082-6.653z" class="st0"/><circle cx="267.035" cy="533.272" r="157.288" class="st36"/><circle cx="267.794" cy="534.018" r="158.033" class="st36"/><path fill="#181b2e" d="M264.784 377.49c-87.294 0-158.033 70.739-158.033 158.033s70.739 158.033 158.033 158.033 158.033-70.739 158.033-158.033S351.928 377.49 264.784 377.49z"/><g id="Color_Stone_1_"><path d="M209.397 580.073c.753-11.288.602-22.877 1.957-34.466.753-6.321 2.107-12.492 2.709-18.813.753-8.579-.151-17.308-.452-25.887 0-2.559-.301-5.117.301-7.525.301-1.355.753-2.709 2.107-2.86 2.258-.602 1.656-1.806 1.204-3.161-.602-1.505-1.054-3.161-1.656-4.666-3.161-7.977-.452-15.051 3.462-21.673 3.311-5.719 7.676-10.837 12.342-15.653 5.117-5.418 11.439-8.127 18.964-8.127 1.355 0 2.86 0 4.214-.151.753 0 1.355 0 2.107-.151.602 0 1.355 0 1.957-.151.151 0 .452-.151.602-.151.452 0 .753.151 1.054.151.753.151 1.505.151 2.408.452 1.505.301 3.161.602 4.666.903 3.161.602 6.171 1.355 9.331 2.107 1.656.452 3.311.903 4.967 1.656 2.86 1.505 4.967 4.214 7.676 5.87 1.957 1.204 3.913 1.957 5.719 3.311 1.957 1.505 3.161 3.763 4.365 6.02 1.355 2.408 2.559 4.666 3.462 7.375.151.602.452 1.355.602 1.957.602 2.709.903 5.569 1.355 8.278.301 2.709.753 5.569 1.656 8.127.151.602.452 1.355.753 1.957.151.301.301.602.301.753v1.204c0 8.127-.753 16.255-.903 24.382a433.774 433.774 0 0 1-2.709 39.433c-.301 2.258 0 4.515.602 6.773 1.505 6.622 2.107 13.094 1.054 19.867-.753 5.719-.753 11.589-1.204 17.459-.151 2.559-1.505 3.612-4.064 3.763-3.01 0-5.719-1.204-8.579-1.204-4.214-.15-8.127.903-12.191 1.355-6.773.602-13.395-.602-20.017-1.355-1.204-.15-2.258-.602-3.462-.602h-3.612c-.602 0-1.204 0-1.806-.15-.452-.151-.602-.301-1.054-.301-1.656-.151-3.161-.151-4.816-.301-1.656 0-3.161-.15-4.816-.15-3.161-.15-6.472-.301-9.783-.451-3.161-.151-6.472-.151-9.783-.301h-2.408c-.753 0-1.656-.15-2.408 0-.151 0-.452.151-.602.151-.753.15-1.656.15-2.408 0-2.408-.602-3.01-3.161-3.01-5.268 0-1.505.151-2.86.151-4.365-.305-2.11-.305-3.615-.305-5.421z" class="st96"/><path d="M308.732 625.225c-.452 2.86 0 6.02-.903 9.03-.301 1.204-.602 2.258-1.957 2.86-1.204.452-2.107-.15-2.709-1.204-.452-.753-1.204-.753-1.957-.753-6.02-.452-12.191-.753-18.211-1.054l-62.31-3.161c-5.87-.301-11.589-.451-17.459-.753-1.505-.15-4.666 0-5.117-2.107-.151-.602-.452-1.204-.602-1.806-.452-1.355-.452-2.86-.452-4.214-.151-3.161-.151-6.472-.301-9.783v-1.656c0-.452-.151-.602-.301-.903-.452-.753 0-1.656.452-2.408.753-.903 1.656-1.204 2.709-.753 3.311 1.204 6.773.903 10.234 1.204 15.954.903 31.908 1.656 47.861 2.408 14.599.753 29.048 1.505 43.497 2.258 4.967.301 6.923 2.258 6.923 7.375.453 1.658.603 3.464.603 5.42z" class="st97"/><path d="M262.376 596.478c-4.967-.151-9.783-.452-14.75-1.054-3.161-.452-6.171-1.204-9.331-1.656-3.311-.451-6.773-.451-10.084-.602-5.117-.15-10.385-.15-15.352 1.054s-9.783 3.913-12.492 8.428c4.666 3.462 10.837 3.913 16.706 4.214 3.612.15 7.074.452 10.686.602 26.188 1.505 52.527 2.86 78.715 3.01-.753-2.408-1.656-4.967-2.408-7.525-.753-2.258-1.806-4.816-4.365-5.268-.903-.151-1.656 0-2.559 0-1.505 0-3.01-.151-4.515-.151-6.472-.15-12.944-.451-19.265-.753-3.762.002-7.374-.148-10.986-.299z" class="st96"/><path d="M321.977 591.963c.753-.451 1.656-.903 2.258-1.656.452-.753.602-1.656.602-2.559.151-3.612.452-7.074.602-10.536.301-3.913.452-7.977.452-11.89 0-3.763-.452-7.525-.151-11.288.151-3.462.903-6.773 1.355-10.235 1.355-12.191-1.505-24.382-.903-36.724.151-4.515.903-9.03 1.204-13.696a81.041 81.041 0 0 0-6.171-36.272c-.452-.903-.903-1.957-1.656-2.559-1.054-.903-2.559-.903-3.763-1.656-1.656-1.054-2.258-3.01-3.161-4.816-2.258-4.365-6.622-7.375-11.288-9.03-4.666-1.656-9.632-2.107-14.599-2.709-3.462-.301-6.923-.602-10.385-1.054-1.656-.151-4.064.452-3.763 2.107 4.967 3.763 10.686 6.472 15.954 9.783s10.234 7.525 12.643 13.245c1.054 2.408 1.656 5.117 2.107 7.676 1.656 7.525 3.161 15.051 3.612 22.727.301 5.569-.151 11.288-.452 16.857-.452 7.375-.753 14.75-1.204 22.125-.301 7.375-.602 14.75-.602 22.125-.151 7.375-.151 14.75-.151 22.125 0 3.763 0 7.375.151 11.138 0 1.806 0 3.763.151 5.569 0 1.656-.151 3.612.151 5.418.452 2.709 3.311 2.258 5.117 1.505 3.311-1.505 6.622-3.161 9.934-4.816.3-.001 1.354-.904 1.956-.904z" class="st97"/><path d="M307.98 609.873c.151.451.452.753.903.753.301 0 .602-.151.753-.301 2.408-1.656 4.515-3.913 7.224-5.117 1.806-.903 3.763-1.204 5.719-1.806 2.709-.903 5.117-2.408 7.525-3.913.903-.602 1.806-1.355 1.656-2.408 0-.452-.301-.753-.452-.903-1.355-1.806-3.01-3.462-4.816-4.666-.452-.301-.753-.451-1.204-.602-.602 0-1.054.15-1.505.451l-11.74 5.87c-1.957.903-3.913 1.957-5.87 3.01-1.656.753-3.01 1.355-1.957 3.311 1.356 1.957 2.71 4.064 3.764 6.321zm1.655 23.179c0 .451.151.753.301 1.054.602.602 1.656.301 2.408-.151 6.472-3.612 13.094-7.375 19.566-10.987.602-.452 1.355-.753 1.806-1.355.452-.753.452-1.505.602-2.408.151-4.365.452-8.729.602-13.094 0-1.204 0-2.559-.602-3.612-.753-1.054-2.258-1.355-3.462-1.204-1.355.15-2.408.753-3.612 1.505-5.268 2.86-10.385 5.719-15.653 8.579-1.656.903-3.763 1.656-3.612 3.913.151 2.709.602 5.268.903 7.826.151 1.656.452 3.311.602 4.967-.15 1.505.151 3.311.151 4.967z" class="st98"/><path d="M280.136 464.031c1.054.903.903 2.709-.151 3.462-1.054.753-2.86.301-3.311-.903-.452-1.204.452-2.86 1.656-3.01.752-.151 1.354 0 1.806.451zm8.729 7.526c0 .301-.151.452-.151.753 0 .452.452.903.753 1.054 1.204.602 2.86-.301 3.01-1.505.151-1.355-1.355-2.559-2.559-2.107-.151 0-.301 0-.301.151-.451.45-.451 1.052-.752 1.654zm-5.267 7.676h-2.408c-.151 0-.451 0-.602.151-.151.151-.151.301-.151.452-.151.602-.151 1.204-.151 1.957s0 1.656.602 2.107c.452.151.903.151 1.355.301.452.151.753.301 1.054.301.753 0 1.204-.753 1.355-1.505.151-.753.151-1.656-.151-2.408s-1.204-1.355-1.957-1.204" class="st99"/><path d="M319.87 502.561c-.602-.602-1.204-.452-1.957-.301-.602.15-1.054.903-.903 1.505 0 .602.452 1.054.753 1.505.602.602 1.656 0 2.107-.452.602-.601.602-1.504 0-2.257zm-3.763 9.031c0-.301-.301-.903-.602-1.204-.301-.301-.903-.15-1.355 0-.301.15-.602.452-.903.602l-.301.301c-.151.301-.151.602-.301.903 0 .15-.151.903 0 1.054.602.452 1.505.602 2.258.151.903-.152 1.355-1.055 1.204-1.807z" class="st100"/><path d="M223.394 579.772c-1.054 0-1.957.452-2.408 1.355-.451.903-.301 2.107.452 2.709.753.753 3.462.602 4.214 0 .753-.753-.301-1.957-.753-3.01-.602-.451-1.355-.753-2.107-1.054m-4.063-17.911c-.301.903-.602 1.656-.753 2.709v.602c.151.301.452.301.753.452.753 0 1.656 0 2.258-.602.151-.15.301-.451.301-.602.301-.903.151-1.957-.602-2.408-.753-.452-1.957-.15-2.107.602m12.04 8.127c-.151-.301-.301-.753-.602-.753h-1.656l-.602.602c-.151 0-.151.15-.151.15-.151.301-.151.602-.151.903 0 .151 0 .903.151.903.602.15 2.408.301 3.01.452.301 0-.602.15-.301 0 .151-.151.151-.151.301-.452.151-.45.302-1.203.001-1.805z" class="st99"/><path d="M283.447 628.536c1.054.753 2.709.602 3.462-.602.602-.753.452-1.806.301-2.86 0-.301-.151-.602-.301-.753-.151-.15-.452-.15-.753-.15-.753-.151-1.355 0-2.107 0h-.301c-.301.15-.602.301-.753.602-.602.602-.753 1.204-.602 1.957.151.753.452 1.355 1.054 1.806zm-6.773-10.535c-.753.301-1.204 1.204-.903 1.957.452.452.903.753 1.505.753s1.204-.301 1.355-.903c.151-.452-.151-.903-.452-1.355s-.602-.903-1.054-1.054c-.452-.15-1.204.301-.903.753m38.23-37.477c-.903-.301-1.806.151-2.408.753-.602.753-.903 1.656-.903 2.408 0 .451 0 .903.301 1.355a1.7 1.7 0 0 0 1.656.451c1.204-.15 2.258-1.054 2.559-2.258.301-1.204-.452-2.559-1.656-2.709.752-.151-.151-.602.451 0zm3.762-13.546c-1.204.15-2.258 1.054-2.258 2.107-.151 1.204 1.204 2.258 2.258 1.656 1.054-.903.903-2.86 0-3.763" class="st100"/><path d="M282.845 457.409c-.602.151-.903 1.054-.602 1.656s.903.903 1.656.903c.301 0 .753-.151.903-.452 0-.151.151-.301.151-.451 0-.602 0-1.204-.151-1.806-.753 0-1.355 0-1.957.15m-5.87 9.482c-.452 0-1.054.151-1.505.301s-.753.753-.753 1.204c0 .602.753 1.054 1.355 1.355.452.151 1.204.452 1.505 0 .452-.452.301-1.054.602-1.505.151-.151.301-.301.301-.602 0-.452-.452-.602-.753-.753-.452 0-.753-.151-.903-.452m-7.976-11.137c-.452.301-1.054.602-1.355 1.204-.602.903-.151 2.408.903 2.559 1.054.151 1.957-.753 2.408-1.656 0-.151.151-.151.151-.301s-.151-.151-.151-.301c-.602-.452-1.204-.903-1.806-1.204a.457.457 0 0 0-.602 0m-41.088 9.181a3.307 3.307 0 0 0-.301 2.107c.452.301 1.054.151 1.505 0 .452-.301.903-.602 1.204-1.204 0-.151.151-.151.151-.452 0-.151-.151-.452-.301-.602-.301-.452-.753-.602-1.204-.753-.452.152-.904.603-1.054.904m-2.408 8.729c-.452.151-.452.903-.151 1.355.301.452.903.602 1.355.452.301 0 .753-.151.753-.452.151-.452-.151-.903-.452-1.204-.301-.452-.753-.753-1.355-.602m21.673-27.091a3.657 3.657 0 0 0 0 1.806c.301.452.903.602 1.355.301.452-.301.602-.753.602-1.355-.151-.602-.753-1.204-1.355-.903m46.658 52.678c-.452.602-.151 1.656.452 2.107.602.452 1.656.15 1.957-.451.151-.301.151-.753.151-1.204-.151-.602-.753-.903-1.355-.903s-1.204.151-1.656.602c.151 0 .451.151.602.151" class="st101"/><path d="M290.521 577.665c0 .753-.452 1.505-.452 2.408 0 .753.602 1.656 1.355 1.656s1.204-.602 1.505-1.204c.301-.451.451-.753.753-1.204.151-.15.301-.451.151-.753 0-.15-.151-.15-.301-.301-.903-.602-2.107-.903-3.161-.753" class="st98"/><path d="M285.855 568.333c.301.602.753 1.204 1.355 1.355 1.054.301 2.258-.903 1.806-1.957-.452-.903-2.107-1.054-2.559 0m-22.576 15.051c-.452.903.452 2.107 1.505 2.258 1.054.15 2.107-.753 2.258-1.656v-.602c-.151-.151-.301-.151-.452-.301-.903-.151-1.806-.452-2.709-.753-.151.301-.151.602-.301.903" class="st102"/><path d="M223.545 543.951c-.151.451-.301.903-.151 1.505 0 .451.452.903.903 1.054.602.15 1.204-.301 1.355-.753.151-.602.151-1.204.151-1.656-.602-.151-1.355-.151-1.957-.301" class="st101"/><path d="M218.428 616.496c-.151.753-.452 1.656.151 2.107.602.602 1.505 0 2.408.15a4.284 4.284 0 0 0 0-1.957c-.151-.602-.602-1.355-1.355-1.355-.452-.149-1.204.302-1.204 1.055h.452m11.889 4.665v2.559c.602.15 1.204.15 1.957.301h.602c.151-.15.151-.301.301-.602.151-.903.151-1.957-.452-2.709-.602-.602-2.107-.452-2.107.451m55.237 1.505c-.602.452-.903 1.355-.602 2.107.301.753 1.355 1.054 1.957.602.301-.602.602-1.204.452-1.957-.151-.602-.903-1.204-1.505-.753m29.348.152a2.083 2.083 0 0 0 0 1.355c.151.452.753.753 1.204.452.151-.151.151-.301.301-.452.151-.451.301-.903.301-1.505 0-.451-.452-.903-.903-1.054-.452 0-1.054.452-.903.903m-3.01-64.568c-.151.451-.301.903-.151 1.505.151.451.452.903.903.903.753 0 1.054-.903 1.204-1.656.151-.602.151-1.505-.452-1.806s-1.203.452-1.504 1.054" class="st102"/><path d="M318.365 476.825a2.557 2.557 0 0 0 0 1.505c.151.452.753.753 1.204.452.151-.151.301-.301.451-.602.151-.452.301-.903.151-1.355-.151-.452-.452-.903-.903-.903-.452 0-.903.452-.753.753m-3.01 7.374v1.656c.753.151 1.656-.452 1.656-1.355.151-.753-.602-1.656-1.355-1.656 0 .452 0 .753-.151 1.054m6.924 1.505c-.151.602-.452 1.204-.301 1.957.151.602.753 1.204 1.355 1.054.753-.151.903-1.355.903-2.107 0-.602-.151-1.355-.602-1.656-.451-.301-1.355 0-1.204.602" class="st101"/></g><g id="Color_Skull_1_"><path d="M239.198 546.66c.903-3.161-.753-6.171-3.311-9.03-3.763-4.515-7.375-9.181-8.127-15.352-1.806-14.148 6.02-27.844 19.114-32.961 13.696-5.268 28.747-.602 36.874 11.589 3.612 5.268 5.418 11.138 5.418 17.609 0 5.87-1.957 10.987-6.02 15.352-1.957 1.957-3.612 4.365-5.719 6.171-2.258 1.957-3.01 4.214-2.86 6.923.151 2.258-.151 4.365-.151 6.622v2.258h-2.408c-.753-.15-1.505-.15-2.408-.15h-4.365v-6.773h-.151c-1.355-.15-2.559 0-3.913.151v6.171h-1.204c-.452 0-1.054 0-1.505-.151-.602-.15-1.204 0-1.806-.15h-.753c-.602 0-1.204-.15-1.806-.15h-.903s-.903 0-.903.15v-6.622c-1.355-.301-2.86-.451-4.365-.451 0 1.204-.151 2.408-.151 3.763 0 .602 0 1.204-.151 1.957v.753c0 .15-.301.15-.451.15h-3.311c-.903 0-1.656 0-2.559-.15h-.903c-.151 0-.301-.151-.602-.151h-.903v-6.02c.152-.454.152-.755.303-1.508zm17.459-9.933c.452 0 .903 0 1.505.15.753 0 1.505.15 2.258.15-.301-.753-.602-1.656-.903-2.408l-.451-.903c-.151-.301-.301-.451-.452-.753v-.151c0-.301-.151-.451-.151-.753-.301-.602-.451-1.355-.753-2.107-.151-.301-.151-.602-.452-.903l-.151.151c0 .15-.151.15-.151.301-.753.903-1.355 1.957-1.957 3.01-.301.452-.602 1.054-.903 1.505-.151.301-.301.602-.452.753 0 .15-.151.15-.151.301s-.301.451-.452.602c-.151.301-.452.602-.602.903h3.462c.455.001.605.001.756.152z" class="st103"/><path d="M237.843 545.155c.903-3.161-.753-6.02-3.161-8.88-3.763-4.365-7.224-9.031-7.977-15.051-1.656-13.847 6.02-27.242 18.663-32.209 13.395-5.117 28.145-.602 36.122 11.288 3.462 5.268 5.268 10.987 5.418 17.308 0 5.87-1.806 10.837-5.87 14.9-1.957 1.957-3.612 4.214-5.719 6.02-2.107 1.957-3.01 4.064-2.86 6.773.151 2.107-.151 4.365-.151 6.472v2.107H269.9c-.753-.15-1.505-.15-2.258-.15h-3.913v-6.622h-.151c-1.204-.15-2.559 0-3.763.15v6.171h-1.204c-.452 0-.903 0-1.505-.15s-1.204 0-1.806-.15h-.753c-.602 0-1.204-.151-1.656-.151h-.903s-.903 0-.903.151v-6.321c-1.355-.151-2.86-.452-4.214-.452 0 1.204-.151 2.408-.151 3.612 0 .602 0 1.204-.151 1.806v.753c0 .15-.301.15-.452.15h-3.311c-.903 0-1.656 0-2.559-.15h-.903c-.151 0-.301-.15-.602-.15h-.903l.004-7.225zm17.158-9.783c.452 0 .903 0 1.355.15.753 0 1.505.15 2.258.15-.301-.753-.452-1.505-.753-2.408l-.452-.903c-.151-.301-.301-.451-.452-.753v-.151c0-.301-.151-.451-.151-.753-.301-.602-.452-1.355-.753-1.957-.151-.301-.151-.602-.452-.903l-.151.151c0 .15-.151.15-.151.301-.602.903-1.355 1.957-1.957 2.86-.301.451-.602 1.054-.903 1.505-.151.301-.301.451-.452.753 0 .15-.151.15-.151.301s-.301.451-.452.602c-.151.301-.452.602-.602.753h3.462c.456.302.757.302.757.302z" class="st103"/></g><g id="Skull_1_"><path d="M275.922 492.026c-9.783-7.826-21.071-9.181-32.51-3.913-18.512 8.278-23.479 32.811-12.342 45.002 1.505 1.656 2.709 3.763 4.365 5.418 1.505 1.505 1.957 3.161 1.806 5.268-.151 2.86-.452 5.87 0 9.031l9.482.451.151-6.773 3.612.15v6.773h2.709c.753 0 1.505 0 2.408.151.753 0 1.505 0 2.107.15h1.806v-6.321l3.612.15-.151 6.622c.602 0 9.934.452 9.934.452v-9.331c0-.602 0-1.355.151-1.957s.301-1.355.753-1.957c.151-.15.151-.301.301-.451l.451-.452c.301-.301.602-.602.753-.903.602-.602 1.054-1.204 1.656-1.656.602-.602 1.054-1.204 1.505-1.656.602-.602 1.054-1.204 1.505-1.656.452-.602 1.054-1.204 1.505-1.656.452-.602.903-1.204 1.505-1.656.301-.301.451-.602.753-.903 1.806-2.258 3.161-4.816 3.612-7.676 2.106-12.64-1.807-22.875-11.439-30.701zm-30.553 52.828h-.602v2.408c0 1.204-.151 2.258-.151 3.462l-4.816-.15v-1.505c0-1.054.151-2.107.151-3.311s.151-2.258.151-3.462v-2.86s0-.15-.151-.15c0-.15-.151-.301-.151-.452l-.451-.903c-.151-.301-.452-.602-.602-.903-.151-.151-.301-.452-.451-.602-2.258-2.709-4.365-5.569-6.622-8.428-3.01-4.214-3.612-9.03-3.01-13.997 1.355-11.138 7.224-19.265 17.609-23.329 10.234-4.064 20.018-2.408 28.145 4.967 8.278 7.525 11.439 17.007 8.729 28.145-.602 2.86-2.408 4.967-4.365 6.923-2.258 2.559-4.515 4.967-6.923 7.525l-.301.301v.15s0 .15-.151.15c0 .151-.151.151-.151.301 0 0 0 .15-.151.15s0 0 0 .15c-.151.151-.151.452-.301.602-.151.452-.301 1.054-.452 1.505v10.084h-1.204c-1.204 0-2.408-.15-3.612-.15 0-1.054 0-2.107.151-3.01v-2.709l-.753-.151c-.301 0-.602-.15-.753-.15-.602 0-1.204-.15-1.656-.15h-5.117l-.151 6.171-4.816-.151.151-6.02c-.301 0-.602-.151-.903-.151-.602-.15-1.204-.15-1.656-.15-.602 0-1.204 0-1.806-.15h-2.709"/><path d="M257.259 526.944s0-.151 0 0c-.301-.301-.301-.602-.452-.753 0-.151-.151-.151-.151-.301 0-.151-.151-.151-.151-.301-.151-.301-.452-.753-.602-1.054-.151-.151-.151-.301-.301-.602v-.301.301c0 .151-.151.151-.151.301-.151.301-.452.753-.602 1.054-.151.301-.451.753-.602 1.054-.301.452-.451.903-.753 1.355-.151.15-.151.301-.301.451-.151.151-.151.301-.301.452s-.151.301-.301.602c-.151.15-.151.452-.301.602s-.151.452-.301.602c-.151.15-.151.451-.301.602-.151.15-.151.451-.301.602-.151.151-.151.452-.301.602-.151.151-.151.452-.301.602-.151.15-.151.451-.301.602-.151.15-.151.451-.301.602-.151.151-.151.452-.301.602-.151.15-.151.301-.301.451s-.151.301-.301.451c0 .151-.151.301-.151.452s-.151.15-.151.451c0 .151-.151.151-.151.301l-.151.15s0 .15-.151.15h13.696l-.452-.903-.903-2.258c-.452-.903-.753-1.957-1.204-2.86-.452-.903-.753-1.806-1.204-2.709-.301-.602-.451-1.204-.753-1.656-.296.454-.296.304-.446.304zm-5.569 8.127c1.355-2.258 2.408-4.214 3.763-6.472.903 2.408 1.656 4.365 2.559 6.773-2.108-.15-3.914-.301-6.322-.301z"/></g><path id="Stone_1_" fill="#e0e3bd" stroke="#000" stroke-miterlimit="10" stroke-width="1.078" d="M221.287 493.531v.753m0-.753v.753m113.935 102.044c-2.709-2.258-4.816-5.117-7.375-7.525.151-2.709.452-5.268.452-7.676 0-6.773.452-13.546-.151-20.319-.301-4.214.753-8.127 1.957-12.191 2.258-7.525.903-15.352-.151-22.877-.753-5.268-.903-10.536-.602-15.803.452-4.666.452-9.332.753-13.847.451-6.622 1.054-13.094-.602-19.716-1.505-5.569-1.806-11.439-4.064-16.857-1.806-4.214-1.806-4.214-7.224-11.439-4.967-5.117-5.719-5.268-9.783-7.826-3.161-1.957-6.472-3.763-10.385-4.214-4.967-.452-9.632-2.709-14.599-3.462-8.579-1.355-17.158-.602-25.586.602-11.439 1.806-22.727 3.913-31.456 12.643-4.214 4.214-8.428 8.127-10.234 13.847-.452 1.656-1.505 3.01-2.408 4.515-3.763 6.321-2.86 9.181-3.462 17.308.301.602-.753 4.214-1.204 5.117-.452 5.418-.602 1.957-.452 4.365.151 7.224.151 14.298.301 21.372 0 6.472.301 12.944-.903 19.265-1.355 6.773-1.204 13.546-1.204 20.319 0 1.505 0 3.01-.301 4.515-1.204 5.117-.903 10.084-.602 15.201.452 6.923 0 13.696.903 20.77-3.913 3.161-7.977 6.321-11.89 9.331-1.355 1.054-2.258 2.107-2.258 3.913.151 7.525.151 15.201.151 22.727 0 2.107.903 3.161 3.01 3.311 9.783.602 19.415 1.204 29.198 1.806 12.643.753 25.135 1.505 37.777 2.408 14.298.903 28.596 1.957 42.744 2.86a8.609 8.609 0 0 0 5.418-1.355c7.525-4.515 15.051-9.03 22.576-13.395 1.806-1.054 2.559-2.408 2.559-4.515 0-6.622.151-13.245.452-19.867.15-1.054-.151-2.408-1.355-3.311zm-123.868-34.015c.602-4.515 1.204-9.031 1.204-13.546-.151-5.87.602-11.74 1.355-17.609 1.204-8.127.753-16.255.602-24.382 0-3.01-.151-5.87 0-8.88 0-.753 0-1.505.151-2.258 0-.452.151-.903.151-1.355 0-.151.151-.452.301-.602.151-.301.452-.602.753-.753l.151-.151h.151c.903.452 2.709 1.957 2.709 2.107l1.957 1.505s-1.204 2.709-1.204 2.86c2.258 0 1.656-.753 3.612-4.214.151-.151-1.957-1.505-1.957-1.806-.301-.301-.452-.753-.602-1.204s-.452-.903-.753-1.355c-.151-.151-.301-.452-.452-.602l-.452-.452c-.151-.151-.151-.151-.151-.452 0-.151-.151-.452-.151-.602-.151-.452-.451-1.054-.602-1.505-.451-1.054-.753-2.107-1.054-3.161-.301-1.054-.602-2.107-1.054-3.161-.151-.602-.452-1.204-.602-1.656.452-5.117 1.355-9.934 4.666-13.997.753-.903 1.204-2.258 1.656-3.311 1.505-4.967 4.816-8.579 8.729-11.74 2.408-1.957 4.515-4.365 7.224-5.719l.301.151c.151 0 .151.151.301.151.151.151.451.301.451.602l.452.903c.151.301.151.602.301.903.151.602.452 1.204.602 1.656 0 .151 0 .151.151.151v.151h.151c.151 0 .452.151.602.151l-.151 1.505v1.054c0 .452 0 .903-.151 1.505v.602c0 .151.151.301.151.452.452.903.903 1.656 1.355 2.559 0-.151 0-.301-.151-.452 0-.151 0-.301-.151-.452 0-.301-.151-.602-.151-.903 0-.452-.151-.753-.151-1.204v-.753c0-.151.151-.301.151-.452 0-.151.151-.301.151-.452 0 0 .301 0 .452.151.151 0 .151.151.301.151.301 0 .602.151.903.301.151 0 .151.151.301.151 0 .151.151.151.151.301.301.753.602 1.505.903 2.107 0 .151.151.301.151.452.151.151.151.151.301.151.753.452 1.505.903 2.107 1.355-.301-.602-.753-.903-1.204-1.505-.602-.753-1.054-1.806-1.204-2.86v-.602c-.602-.452-1.054-.753-1.656-1.054-.151-.151-.452-.301-.602-.452 0 0-.151-.151-.151-.301s-.151-.301-.151-.452c-.151-.602-.452-1.204-.602-1.656 0-.151-.151-.452-.301-.452 0 0-.151 0-.301-.151s-.151-.301-.301-.452c0-.151-.151-.452-.151-.753 0-.151-.151-.452-.151-.602v-.151c0-.452-.151-.753-.151-1.204 0-.903.151-1.957.753-2.86 16.405-2.408 32.961-4.365 47.41 8.278v7.525c0 .151 0 .452-.151.753 0 0 0 .151-.151.151 0 .151-.151.301-.151.452-.151.301-.301.602-.602.903-.301.301-.452.602-.602 1.054 0 0 .151 0 .151-.151l.151-.151c.151-.151.301-.151.452-.301.301-.151.452-.452.753-.602.151-.151.151-.151.301-.452.151-.151.151-.452.301-.602s.301-.452.301-.753c0-.151.151-.151.151-.301s0-.151.151-.452c0-.301.151-.452.151-.753l.452-3.161c0-.452.151-.753.301-1.204 4.515 3.462 9.03 6.622 9.783 12.643.602 5.117 1.505 10.234 2.86 15.201.452 1.505.753 3.01.753 4.515 0 10.084.451 20.018-1.204 30.101-.903 5.268-.753 10.837-.903 16.255 0 5.87-.301 11.589-.903 17.459-.602 5.719-.602 11.288.903 16.706.753 2.86.301 5.87 0 8.729-.602 5.719-.903 11.589-1.355 17.459-.151 1.355 0 2.86-.602 4.365-29.349-1.656-58.547-3.161-87.896-4.967l-.151-.903c0-.452-.151-.753-.151-1.204-.151-.753-.151-1.505-.151-2.258v-2.408c0-.301 0-.602.151-.753 0-.301.151-.602.151-.903.151-.602.301-1.355.602-1.957 0-.151 0-.151.151-.301 0 0 .151-.15.301-.15 1.355-.602 2.709-1.054 4.214-1.656.151 0 .151-.301.301-.452.151-.15.151-.301.452-.451.151-.151.301-.151.452-.301.151-.151.301-.452.452-.753.151-.452.451-.903.602-1.355.151-.15.151-.451.301-.602v-.151c.151-.301.602-.451.753-.602.451-.451.903-.753 1.204-1.355-.452.151-.753.452-1.204.753-.151.15-.452.15-.602.301h-.151c-.151.15-.151.301-.301.452-.151.301-.452.602-.602.903-.301.452-.602.753-.753 1.204-.151.452-.451.903-.903 1.054-.151 0-.301.151-.452.151l-4.064 1.355c-.301.151-.602.151-.753.452v-4.666c0-1.505-.151-2.86-.151-4.365-.753-1.649-.904-4.358-.452-7.218zm-1.204 34.918c.753-.602 1.656-.452 2.559-.452 17.308.903 34.617 1.957 51.925 2.86 11.288.602 22.576 1.355 34.015 1.957.602 0 1.054.15 1.656.15 1.054 2.107 1.957 4.365 2.559 7.074-32.961-2.107-65.772-4.214-99.034-6.472 2.106-2.107 4.363-3.462 6.32-5.117zm94.368 36.122c-2.408.451-4.816 0-7.074-.15-.151 0-.151-.151-.301-.151s-.151-.15-.301-.15l-.452-.451c-.301-.301-.602-.753-.903-1.054-.151-.15-.301-.15-.301-.301-.151-.151-.151-.452-.151-.602v-.15l-.151-.15c-.301-.301-.452-.602-.602-1.054v-.451c0-.301-.151-.602-.151-.903 0-.301-.151-.452-.151-.753 0 0 0-.15-.151-.15l-.452-.452-1.204-1.204-.452-.451c.151 0 .151.15.301.301 0 .15.151.15.301.301.151.151.301.452.452.753 0 .15.151.301.151.451.151.301.301.602.301.903.151.452.151.903.151 1.355 0 .451 0 .753.151 1.204l.301.15v.301c.151.301.301.602.452.753 0 .15.151.15.151.301v1.355c-.151.15-.301.301-.301.452h-1.957c-.753 0-1.355-.151-2.107-.151-6.02-.451-12.191-.753-18.211-1.204-6.02-.451-12.191-.753-18.211-1.204-6.02-.451-12.191-.753-18.211-1.204-6.02-.451-12.191-.753-18.211-1.204-3.01-.15-6.02-.451-9.181-.602-1.505-.151-3.01-.151-4.515-.301-.753 0-1.505-.151-2.258-.151-.151 0-2.258-.15-2.258-.15v-5.117l.151-.15c0-.15.151-.15.151-.301.151-.151.301-.452.452-.602l.602-.602c0-.15.151-.15.151-.301.151-.15.301-.15.451-.301.151-.15.301-.15.452-.301a7.317 7.317 0 0 1 1.054-.452c.301-.15.602-.15.753-.15.151 0 .452.15.602.301.602.452 1.204.903 1.957 1.054.151 0 .151-.15.301-.15.301-.301.602-.452.903-.602l.151-.15c.151-.15.301-.15.451-.301.602-.301 1.355-.301 2.107-.452-.452-.15-1.054-.301-1.656-.301-.301 0-.602 0-.903.151l-.151.15-.151.15-.452.301h-.151c-.151 0-.151.151-.301.151 0 0-.151.15-.301.15 0 0-.151 0-.301-.15 0 0-.151 0-.151-.151-.151-.15-.301-.15-.452-.301-.452-.301-.903-.753-1.355-1.204 0 0-.151 0-.151-.15h-.151c-.151 0-.301 0-.452.15h-.903c-.151 0-.452.15-.753.15-.753.151-1.355.301-2.107.602V607.77c35.369 2.258 70.588 4.515 105.957 6.773l-.298 18.81zM294.434 448.83l-1.505-2.258h-.753c-.151 0-.151-.151-.301-.151l-1.505-1.204c-1.054-.903-2.258-1.656-3.311-2.408-2.258-1.505-4.666-3.01-7.224-4.214-1.204-.151-2.107-.602-3.311-1.505 1.355.151 2.408.452 3.311.602 3.311 0 6.472 1.054 9.632 1.957 2.408.753 4.967 1.505 7.525 1.806 3.913.301 7.074 2.408 10.084 4.515 2.408 1.656 3.161 4.365 3.913 7.074.602 1.957-1.355 2.86-2.559 3.913v.452c0 .151.151.451.151.602.151.452.452.753.602 1.204.151.151.151.452.151.602s.151.452 0 .753c0 .151-.151.151-.151.301-.301.452-.753.903-1.054 1.204l2.258-.753.452-.452.452-.452c-.151-.151-.151-.151-.151-.301s-.151-.452-.151-.753-.151-.452-.151-.602v-.301s-.151-.301 0-.301c.602-1.204 1.957-1.355 2.559-2.107 3.913.301 6.171 2.408 7.375 6.02 1.505 4.515 1.806 9.482 3.161 13.997 2.258 8.127.903 16.255.301 24.382-.301 4.666.151 9.482-.753 14.148-.452 1.806-.753 3.462-2.258 4.515-.452 1.957 0 3.763-.151 5.719-.151.602-.753.903-1.204 1.355-.452.452-.753.753-1.204 1.054s-.753.602-1.204.903l-.452.451c-.151.151-.452.301-.602.452-.452.15-.753.451-1.204.753-.151.151-.301.151-.301.301l-.151.15-.151.15-.151.15v.151c.301.301.452.753.602 1.204 0 .15.151.15.151.451v.151c.151.15.151.451.151.602v.301c0 .15 0 .451-.151.602-.151.151-.452.452-.753.602l-.301.301c-.151.15-.452.451-.753.602 0 0-.151 0-.151.15v.301l.452 3.612v1.204c0 .452 0 .903.151 1.355l1.054-4.967c.753-1.355 2.709-1.656 3.161-3.01 0-1.204-1.204-1.505-1.505-2.709 1.957-1.505 4.064-3.01 6.321-4.666 0-1.054.151-2.408.151-3.763.753.15.903.753.903 1.204.452 7.224 2.107 14.599.602 21.824-.602 2.709-1.505 5.117-1.806 7.826-.903 7.375.301 14.75.151 22.125-.151 3.763.451 7.525-.903 11.439-5.418 2.86-10.837 5.268-16.706 8.127.301-3.311.452-6.171.753-9.03.452-4.666.301-9.482 1.355-14.148.451-1.957.301-4.214-.151-6.171-1.656-6.472-1.656-12.944-.753-19.416.903-7.074.602-14.298.753-21.372.151-7.224 1.204-14.148 1.505-21.372.452-7.525 1.054-15.051-.301-22.426-1.054-5.87-2.709-11.589-3.462-17.609-.602-4.365-2.709-8.127-6.171-10.987-1.355-1.054-2.408-2.258-3.763-3.311.002-.298-.299-.599-.6-.9 0 0-.15 0 0 0-.151-.151-.151-.301-.301-.452m28.596 147.649s.151 0 0 0c.151 0 .151 0 0 0 .301.151.301.151.301.301.151.151.151.151.151.301v2.559c0 .151.151.151.151.151.151 0 .301.15.301.301s.151.15 0 .301c0 .15 0 .15-.151.301l-.452.452c-.452.15-.903.451-1.355.753-4.365 2.258-8.579 4.515-13.094 6.923-1.204-2.258-1.957-4.365-2.86-6.923 6.02-2.86 11.89-5.569 17.91-8.428 1.957 1.204 3.161 3.161 4.666 4.666-.753.903-1.806 1.204-2.86 1.656-.151 0-.151-.151-.301-.151s-.301-.15-.452-.15c-.15 0-.151-.15-.452-.15-.151 0-.452-.151-.452-.301v-.151c0-.15-.151-.451-.151-.602 0-.301-.151-.451-.151-.753 0-.15-.151-.451-.151-.753l-1.204-.452 1.204.452m3.165 14.296v-.753c0-.15 0-.451.151-.602 0-.15 0-.15.151-.15v-.15c.151-.301.301-.602.602-.753.903-1.054 1.505-2.258 1.355-3.763.602-.451 1.204-.903 2.258-.903.452 5.268.151 10.837 0 16.405-6.773 4.064-13.546 8.127-20.62 12.191v-18.362c5.418-2.86 10.987-5.719 16.405-8.579.151.15.301.451.301.753v.602c0 .151 0 .151-.151.301 0 0 0 .15-.151.15l-.151.15c-.151 0-.151.151-.301.301-.151.151-.151.301-.301.452l-.151.15s-.151.15-.151.301c-.151.301-.301.602-.602.903-.151.15-.151.301-.151.452v3.311c0 .301 0 .602-.151.903l-.151.15v.151l-.151.15c-.452.451-.903.753-1.355 1.054.301 0 .602-.151.903-.301.151-.151.452-.301.753-.452l.151-.15c.151-.151.151-.301.301-.602 0 0 0-.151.151-.301 0-.15 0-.15.151-.301v-.15c0-.15.151-.452.151-.602s0-.151.151-.301v-.452c0-.15 0-.15.151-.301h.151l.301-.902z"/><g id="Eyes_B_1_"><path d="M264.935 516.559c-1.355 1.957-1.355 4.515-.452 6.773.301.602.602 1.204 1.204 1.656 1.204.753 2.709 0 3.913-.602 1.656-.903 3.311-1.957 3.913-3.612.452-1.204.301-2.709-.301-3.913-.301-.753-.753-1.355-1.355-1.957-.452-.452-.753-.903-1.355-.903-1.355-.15-2.86.15-3.913.903a8.586 8.586 0 0 0-1.654 1.655zm-24.533.301c-.451.753-.753 1.505-.753 2.408-.151 1.505.602 2.86 1.204 4.064.151.301.301.602.452.753.15.15.452.15.753.301 2.709.451 5.418-.753 7.224-2.86.301-.452.602-.903.753-1.355.151-.753.151-1.505.151-2.258 0-1.054-.151-2.258-.903-3.01-.451-.452-.903-.602-1.355-.903-.602-.301-1.355-.753-1.957-.903-.451-.15-1.054 0-1.505.15-1.204.452-2.107 1.204-2.86 1.957-.151.301-.452.452-.602.753-.151.15-.151.301-.301.451s-.151.452-.301.452z" class="st96"/><path fill="#272f49" d="M267.192 525.439c-.602 0-1.054-.15-1.656-.301-.151-.301-.452-.602-.602-.903s-.151-.602-.452-.903c-.301-.602-.452-1.355-.602-1.957-.151-1.505 0-3.161.903-4.515.753-1.355 2.107-2.408 3.612-2.86.602-.15 1.355-.301 1.957-.15.452.15.753.451 1.054.753l.452.452.451.451h-1.054c-3.161 0-5.87 2.559-5.87 5.87.001 1.353.754 3.009 1.807 4.063zm-25.737-1.054s-.151-.301-.151-.451-.151-.301-.151-.451c-.151-.301-.301-.602-.301-.903-.151-.301-.151-.602-.151-.903-.151-.452-.151-.753-.301-1.204-.151-.753-.301-1.505-.151-2.258.151-1.355.753-2.559 1.806-3.462.903-.903 2.258-1.505 3.462-1.806a2.083 2.083 0 0 1 1.355 0c.602.15 1.054.451 1.355.903l.602.602c0 .15.151.15 0 .301h-1.355c-3.161 0-5.87 2.559-5.87 5.87 0 1.505.602 3.01 1.656 4.064-.149-.001-1.805-.302-1.805-.302z"/><path d="M243.864 525.89c-4.064 0-7.375-3.311-7.375-7.375s3.311-7.375 7.375-7.375 7.375 3.311 7.375 7.375c.15 4.064-3.312 7.375-7.375 7.375zm0-12.643c-2.86 0-5.268 2.408-5.268 5.268s2.408 5.268 5.268 5.268 5.268-2.408 5.268-5.268-2.409-5.268-5.268-5.268zm23.93 13.245c-4.064 0-7.375-3.311-7.375-7.375s3.311-7.375 7.375-7.375 7.375 3.311 7.375 7.375-3.311 7.375-7.375 7.375zm0-12.793c-2.86 0-5.268 2.408-5.268 5.268s2.408 5.268 5.268 5.268 5.268-2.408 5.268-5.268-2.408-5.268-5.268-5.268z"/><path d="M240.402 523.331c-.753-1.204-1.204-2.408-1.204-3.763 0-3.763 3.01-6.923 6.923-6.923h.151c.452.451.903.753 1.204 1.204-.452-.151-.903-.151-1.355-.151-3.161 0-5.87 2.559-5.87 5.87 0 1.505.602 3.01 1.656 4.064l-1.505-.301zm25.737.903c-.602 0-1.054-.15-1.656-.301-.753-1.204-1.204-2.408-1.204-3.913 0-3.612 2.86-6.622 6.472-6.923l1.355 1.204c-.301 0-.753-.15-1.054-.15-3.161 0-5.87 2.559-5.87 5.87.151 1.655.753 3.16 1.957 4.213z"/></g><circle cx="289.623" cy="772.431" r="36.783" class="st21" transform="rotate(-45.001 289.615 772.438)"/><path d="M567.787 718.025c-12.161-3.258-24.661 3.958-27.919 16.119-3.258 12.161 3.958 24.661 16.119 27.919 12.161 3.258 24.661-3.958 27.92-16.119 3.258-12.161-3.959-24.661-16.12-27.919z" class="st21"/><circle cx="713.08" cy="383.574" r="25.748" class="st21" transform="rotate(-89.043 713.034 383.564)"/><path d="M457.864 783.185c1.58-5.896-1.919-11.957-7.815-13.537-5.896-1.58-11.957 1.919-13.537 7.815-1.58 5.896 1.919 11.957 7.815 13.537 5.897 1.581 11.957-1.918 13.537-7.815zM734.54 467.529a7.356 7.356 0 0 0 5.202 9.01 7.356 7.356 0 0 0 9.01-5.202 7.356 7.356 0 0 0-5.202-9.01 7.355 7.355 0 0 0-9.01 5.202zm-631.856-41.701c8.413-31.396-10.219-63.668-41.616-72.08a58.573 58.573 0 0 0-32.099.464 391.233 391.233 0 0 0-18.597 103.353 58.676 58.676 0 0 0 20.231 9.879c31.397 8.412 63.668-10.22 72.081-41.616zm588.667 230.605c-5.896 22.006.021 44.391 13.859 60.432 26.136-32.897 46.606-69.643 60.883-108.619-33.224-5.526-65.845 14.981-74.742 48.187zm-588.983-11.61c-17.218-4.614-34.779 1.627-45.446 14.517l.002.003a412.069 412.069 0 0 0 2.589 4.724l.029.051a390.906 390.906 0 0 0 29.025 44.659l.133.176a388.39 388.39 0 0 0 3.002 3.935l.259.334a372.177 372.177 0 0 0 2.937 3.743l.323.406a390.382 390.382 0 0 0 6.338 7.749l.217.259a388.27 388.27 0 0 0 3.317 3.891l.001.001c13.492-4.579 24.524-15.591 28.488-30.387 6.307-23.548-7.667-47.752-31.214-54.061z" class="st21"/></svg>