<svg xmlns="http://www.w3.org/2000/svg" xml:space="preserve" id="Layer_1" x="0" y="0" version="1.1" viewBox="0 0 800 875"><style>.st0{fill:#fff}.st24{fill:#5c6e9e}.st25{fill:#455377}</style><path d="M398.521 868.555a382.646 382.646 0 0 1-4.003-.039l-1.01-.016a378.658 378.658 0 0 1-4.12-.094l-.862-.023a364.415 364.415 0 0 1-4.334-.155l-.651-.026a385.302 385.302 0 0 1-4.672-.228l-.288-.015a396.272 396.272 0 0 1-40.325-4.319l-.208-.034c-1.58-.253-3.164-.516-4.746-.789l-.32-.056a390.264 390.264 0 0 1-4.643-.833l-.342-.064a383.477 383.477 0 0 1-4.649-.896l-.255-.051c-1.61-.321-3.194-.647-4.775-.983l-.161-.034a397.227 397.227 0 0 1-84.485-28.202 397.59 397.59 0 0 1-20.986-10.511 395.813 395.813 0 0 1-44.977-28.282l-.062-.044a397.022 397.022 0 0 1-7.047-5.249l-.113-.087a393.85 393.85 0 0 1-6.957-5.432l-.101-.082a392.882 392.882 0 0 1-33.211-29.81l-.1-.1a390.552 390.552 0 0 1-6.152-6.338l-.204-.215a392.908 392.908 0 0 1-5.981-6.455l-.143-.157a391.8 391.8 0 0 1-9.091-10.409l-.31-.367a400.79 400.79 0 0 1-3.229-3.892l-.113-.14a394.621 394.621 0 0 1-3.127-3.871l-.562-.709a366.348 366.348 0 0 1-2.172-2.762l-.012-.006-1.561-2.021v-.005a370.618 370.618 0 0 1-1.911-2.507l-1.483-.82-.001-1.156a392.38 392.38 0 0 1-6.862-9.493l-.157-.225a394.128 394.128 0 0 1-10.796-16.279l-.959-.958-.001-.576a398.943 398.943 0 0 1-4.547-7.497l-.05-.084a399.647 399.647 0 0 1-4.994-8.693l-.182-.274-.062-.166a406.186 406.186 0 0 1-2.387-4.353l-.042-.065-.089-.176a427.333 427.333 0 0 1-2.709-5.111l-.207-.395a395.406 395.406 0 0 1-2.711-5.307l-.093-.184a406.968 406.968 0 0 1-3.094-6.343l-.846-1.785a393.632 393.632 0 0 1-2.474-5.339l-.58-1.268a405.737 405.737 0 0 1-2.844-6.475l-.658-1.557a409.21 409.21 0 0 1-2.185-5.255l-.679-1.67a404.817 404.817 0 0 1-2.58-6.576l-.288-.771a379.962 379.962 0 0 1-2.189-5.926l-.615-1.717a402.154 402.154 0 0 1-2.131-6.142l-.19-.557a389.411 389.411 0 0 1-2.188-6.738l-.473-1.52a398.379 398.379 0 0 1-1.725-5.69l-.37-1.253a385.164 385.164 0 0 1-1.925-6.841l-.252-.947a372.315 372.315 0 0 1-1.565-6.019l-.357-1.426a394.56 394.56 0 0 1-3.17-13.858l-.271-1.311a393.798 393.798 0 0 1-1.288-6.509l-.089-.465c-.428-2.28-.844-4.624-1.267-7.139l-.141-.86a404.56 404.56 0 0 1-1.014-6.442l-.132-.882a392.701 392.701 0 0 1-1.83-14.364l-.1-.923a392.718 392.718 0 0 1-1.27-14.467l-.042-.62c-.16-2.387-.302-4.763-.419-7.139l-.005-.108a394.346 394.346 0 0 1-.442-14.86l-.005-.448c-.049-4.854-.004-9.82.133-14.746l.01-.38a396.413 396.413 0 0 1 2.837-37.229l.018-.14a399.23 399.23 0 0 1 2.065-14.432v-.053l.04-.213.007-.083.037-.17.076-.461c.306-1.857.625-3.713.957-5.565v-.417l.146-.39c.266-1.462.539-2.923.821-4.382l.042-.214c.292-1.517.606-3.088.93-4.657l.038-.181c.323-1.566.658-3.14 1.003-4.712l4.419.858-4.396-.965a399.554 399.554 0 0 1 2.645-11.258l.115-.524.031-.062c.355-1.407.712-2.786 1.074-4.163l.059-.219a378.16 378.16 0 0 1 1.234-4.563l.066-.239c.415-1.495.852-3.032 1.297-4.565l.055-.185c.977-3.36 2.037-6.83 3.131-10.242l.193-.603.056-.265.102-.222c.447-1.381.902-2.76 1.365-4.136l.091-.27c.545-1.62 1.104-3.244 1.673-4.864l.178-.508c.542-1.534 1.09-3.055 1.646-4.573l.279-.765c.525-1.423 1.06-2.84 1.6-4.255l.386-1.016c.515-1.335 1.037-2.66 1.563-3.984l.483-1.223a416.58 416.58 0 0 1 1.324-3.248c-14.86-9.342-24.815-22.88-27.57-37.668a48.05 48.05 0 0 1-.624-2.101l-.1-.351a48.16 48.16 0 0 1-.585-2.533l-.17-.864a24.049 24.049 0 0 1-.104-.535 49.171 49.171 0 0 1-.278-1.819l-.019-.127c-.084-.63-.15-1.252-.208-1.876a103.268 103.268 0 0 1-.153-2.232 49.097 49.097 0 0 1-.045-2.062c0-9.153 2.587-17.94 7.69-26.118a54.7 54.7 0 0 1 1.705-2.572 60.475 60.475 0 0 1 5.978-7.215 67.203 67.203 0 0 1 6.037-5.493 73.015 73.015 0 0 1 7.566-5.353 77.45 77.45 0 0 1 6.226-3.459 83.011 83.011 0 0 1 9.048-3.855c9.818-3.522 20.26-5.309 31.032-5.309h3.455c8.255-19.986 21.952-37.081 39.766-49.581 19.104-13.406 41.579-20.492 64.998-20.492 4.43 0 8.922.271 13.413.808 1.176-62.312 52.23-112.637 114.818-112.637 32.387 0 62.979 13.547 84.739 37.35C437.058 28.682 486.848 6.44 539.398 6.44c101.964 0 184.918 82.954 184.918 184.918 0 6.96-.396 13.975-1.18 20.92 8.954.365 17.666 1.981 25.947 4.82a85.706 85.706 0 0 1 9.701 4.011 80.337 80.337 0 0 1 5.656 3.054 73.282 73.282 0 0 1 9.562 6.756A67.26 67.26 0 0 1 778 234.56c2.701 2.663 5.091 5.463 7.102 8.325a54.993 54.993 0 0 1 1.706 2.572c5.102 8.175 7.688 16.963 7.688 26.116 0 .847-.028 1.727-.09 2.769l-.041.63a45.42 45.42 0 0 1-.265 2.685l-.046.307c-.119.86-.251 1.651-.401 2.437l-.188.98a45.965 45.965 0 0 1-.52 2.174l-.237.863c-.068.255-.138.51-.214.764-.078.262-.162.519-.246.775l-.038.117c-2.755 14.783-12.704 28.319-27.56 37.661.246.593.491 1.187.732 1.78l.751 1.863c.393.977.783 1.955 1.169 2.935l.751 1.933a370.612 370.612 0 0 1 1.856 4.897c.353.951.702 1.901 1.047 2.853.241.665.482 1.33.719 1.996.346.966.685 1.935 1.021 2.904 0 0 .467 1.338.672 1.938.351 1.022.691 2.045 1.033 3.068l.592 1.778c.39 1.189.771 2.382 1.148 3.575l.405 1.267a376.09 376.09 0 0 1 1.5 4.896l.192.657a405.97 405.97 0 0 1 1.229 4.211l.449 1.604c.306 1.093.612 2.188.909 3.286.124.453.488 1.831.488 1.831.273 1.025.545 2.053.811 3.082l.482 1.904c.255 1.008.506 2.019.752 3.029l.461 1.916c.243 1.019.481 2.038.716 3.058l.428 1.871c.238 1.063.47 2.124.698 3.186l.374 1.731c.246 1.165.483 2.329.719 3.493l.289 1.43c.303 1.525.595 3.055.879 4.585l.064.342c.31 1.672.608 3.361.898 5.051l.1.601c.245 1.452.483 2.896.712 4.34l.21 1.373c.184 1.193.365 2.391.539 3.588l.224 1.591c.159 1.128.315 2.259.464 3.39l.215 1.663c.143 1.118.28 2.235.411 3.351l.193 1.649c.131 1.144.255 2.286.375 3.427l.161 1.543c.124 1.22.24 2.439.353 3.659l.12 1.294c.126 1.428.243 2.853.354 4.276l.054.67c.257 3.384.472 6.816.64 10.2l.014.297c.076 1.563.143 3.121.2 4.679l.032.977c.047 1.333.087 2.672.119 4.01l.025 1.219c.027 1.26.048 2.525.063 3.79l.012 1.28c.01 1.265.015 2.522.013 3.78l-.003 1.24c-.006 1.305-.02 2.611-.038 3.917l-.016 1.046a389.36 389.36 0 0 1-.1 4.34l-.016.604a394.838 394.838 0 0 1-1.127 20.251l-.048.568a396.321 396.321 0 0 1-.39 4.399l-.077.8a414.688 414.688 0 0 1-.427 4.201l-.092.846a380.68 380.68 0 0 1-.484 4.222l-.091.752a371.884 371.884 0 0 1-.572 4.474l-.058.438a397.483 397.483 0 0 1-4.204 25.066l-.021.107a422.039 422.039 0 0 1-.994 4.783l-.097.447c-.32 1.488-.652 2.99-.994 4.491l-.103.454c-.351 1.53-.709 3.059-1.078 4.585l-.068.286a398.409 398.409 0 0 1-9.907 34.159l-.038.111a397.44 397.44 0 0 1-1.633 4.709l-.057.162a397.88 397.88 0 0 1-23.826 54.08l-.245.458a396.561 396.561 0 0 1-11.434 19.965l-.379.622a391.328 391.328 0 0 1-3.628 5.789l-.792 1.233a395.956 395.956 0 0 1-3.868 5.898l-.133.222-.088.105a394.218 394.218 0 0 1-8.627 12.334l-.061.084a397.822 397.822 0 0 1-9.619 12.67l-.092.194-.362.379-.073.09a419.855 419.855 0 0 1-2.958 3.672l-.81.981c-.783.954-1.569 1.907-2.362 2.854l-1.1 1.303c-.707.837-1.412 1.669-2.123 2.497l-1.229 1.421c-.683.787-1.368 1.573-2.059 2.356l-1.279 1.444a497.421 497.421 0 0 1-3.364 3.732 348.34 348.34 0 0 1-2.179 2.364l-1.226 1.318c-.799.854-1.609 1.706-2.421 2.557l-1.02 1.071a397.886 397.886 0 0 1-7.075 7.174l-.961.939c-.872.855-1.749 1.712-2.633 2.564l-1.296 1.237a298.034 298.034 0 0 1-3.784 3.562c-.757.702-1.517 1.405-2.281 2.104a382.986 382.986 0 0 1-3.788 3.417l-1.478 1.312c-.797.703-1.601 1.402-2.405 2.1l-1.419 1.23c-.885.76-1.775 1.514-2.667 2.266l-1.192 1.008a395.632 395.632 0 0 1-7.891 6.431l-1.179.926c-.94.741-1.88 1.478-2.827 2.209l-1.505 1.152c-.849.649-1.699 1.297-2.555 1.941l-1.633 1.219a398.532 398.532 0 0 1-4.176 3.065c-.834.604-1.672 1.205-2.512 1.803-.587.418-1.133.807-1.682 1.193a379.4 379.4 0 0 1-2.615 1.822l-1.616 1.117c-.955.654-1.919 1.304-2.884 1.952l-1.382.93a416.405 416.405 0 0 1-4.258 2.796l-.108.07a381.772 381.772 0 0 1-4.305 2.743l-1.394.865c-1 .623-2.001 1.245-3.008 1.86l-1.708 1.032c-.917.553-1.835 1.106-2.759 1.653-.53.315-1.82 1.07-1.82 1.07a372.805 372.805 0 0 1-7.296 4.17c-.618.345-1.237.69-1.86 1.033a411.58 411.58 0 0 1-2.839 1.545s-1.351.731-1.785.962a405.172 405.172 0 0 1-3.151 1.66l-1.5.785a385.308 385.308 0 0 1-9.444 4.726l-1.536.732a404.866 404.866 0 0 1-3.224 1.532c-.429.201-1.859.857-1.859.857-.989.457-1.954.903-2.92 1.34-.49.221-1.975.881-1.975.881-.94.419-1.882.838-2.825 1.25-.591.258-2.045.882-2.045.882-.919.395-1.84.789-2.763 1.177-.607.255-2.09.87-2.09.87-.914.378-1.826.754-2.74 1.125-.703.285-1.405.565-2.106.846a390.875 390.875 0 0 1-12.521 4.747s-1.413.509-2.052.734c-.956.339-1.918.672-2.88 1.003 0 0-1.443.5-1.995.687-1 .338-1.998.669-2.996.999l-1.882.621c-1.073.349-2.148.688-3.225 1.027l-1.667.527c-1.238.384-2.479.758-3.721 1.13l-1.176.355a395.402 395.402 0 0 1-9.951 2.804l-.789.207c-1.381.367-2.766.729-4.15 1.08l-1.389.345c-1.188.296-2.375.591-3.562.875l-1.619.381c-1.115.263-2.232.523-3.349.776l-1.717.381c-1.084.24-2.17.478-3.256.709l-1.768.369c-1.078.224-2.154.444-3.23.658l-1.77.347a385.4 385.4 0 0 1-3.239.616l-1.755.321c-1.09.197-2.185.39-3.277.578l-1.706.291c-1.121.188-2.24.369-3.36.546l-1.617.254c-1.169.181-2.336.353-3.503.522l-1.48.214c-1.241.175-2.484.342-3.728.505l-1.245.165c-1.376.176-2.752.343-4.128.504l-.85.102a394.173 394.173 0 0 1-20.364 1.805l-.156.009c-1.624.101-3.24.19-4.856.271l-.668.03c-1.445.069-2.897.132-4.349.186l-.913.03c-1.368.047-2.74.088-4.109.121l-1.041.022a407.12 407.12 0 0 1-3.999.066l-1.076.01a406.04 406.04 0 0 1-3.311.014l-1.727-.007z" class="st0"/><path d="M539.401 10.941c99.643 0 180.418 80.776 180.418 180.418a181.8 181.8 0 0 1-1.776 25.341h1.172c10.093 0 19.702 1.672 28.412 4.657a80.39 80.39 0 0 1 9.182 3.796 74.838 74.838 0 0 1 5.336 2.882 68.454 68.454 0 0 1 8.97 6.337 62.138 62.138 0 0 1 3.729 3.396c2.454 2.418 4.668 4.989 6.579 7.707a52.298 52.298 0 0 1 1.568 2.365c4.488 7.193 7.008 15.247 7.008 23.736 0 .84-.034 1.674-.083 2.505-.011.191-.022.383-.036.574a42.463 42.463 0 0 1-.24 2.426c-.015.114-.035.226-.05.34-.099.717-.218 1.43-.353 2.138-.036.188-.07.377-.108.565-.023.113-.041.226-.065.339a43.395 43.395 0 0 1-.467 1.955c-.048.185-.103.369-.154.554-.085.309-.165.619-.257.926-.097.323-.205.643-.309.964l-.039.129c-2.719 15.13-13.499 28.322-28.846 36.874l.267.629c.218.515.43 1.032.645 1.548.442 1.058.883 2.116 1.315 3.175.25.614.495 1.229.742 1.843.388.967.776 1.934 1.156 2.903.254.648.505 1.297.755 1.946a389.542 389.542 0 0 1 1.822 4.805 434.66 434.66 0 0 1 1.746 4.792c.341.957.677 1.916 1.011 2.874.222.638.445 1.276.664 1.915a372.81 372.81 0 0 1 1.021 3.035c.195.584.392 1.168.584 1.753.386 1.177.762 2.355 1.136 3.534.133.42.27.838.402 1.258a389.16 389.16 0 0 1 1.482 4.836c.065.217.126.433.19.65.412 1.387.818 2.774 1.214 4.163.15.527.295 1.055.443 1.582.304 1.083.606 2.166.9 3.25.164.603.322 1.206.482 1.809.271 1.016.539 2.031.8 3.048.162.627.319 1.255.478 1.882a409.375 409.375 0 0 1 1.2 4.889c.24 1.008.476 2.016.707 3.025a307.14 307.14 0 0 1 1.113 4.995c.123.571.249 1.143.369 1.715.243 1.15.478 2.301.71 3.452.095.47.193.94.286 1.41.299 1.511.588 3.022.869 4.534l.062.323c.308 1.669.604 3.339.89 5.009.034.2.065.4.099.599.242 1.428.477 2.856.703 4.284.071.451.138.903.208 1.354.183 1.184.362 2.367.534 3.551.076.523.147 1.046.221 1.57a385.292 385.292 0 0 1 .67 5 414.04 414.04 0 0 1 .598 4.941 388.394 388.394 0 0 1 .879 8.526c.039.428.081.856.119 1.284.125 1.408.241 2.817.35 4.225.017.22.037.44.053.66.255 3.363.466 6.725.633 10.086l.013.298c.075 1.54.141 3.081.198 4.62.012.321.021.642.032.963.045 1.322.085 2.644.118 3.965.01.402.017.804.025 1.206.026 1.25.047 2.499.062 3.749l.012 1.269a386.892 386.892 0 0 1-.029 8.831c-.005.345-.008.69-.015 1.034a383.353 383.353 0 0 1-.098 4.291l-.016.596a388.943 388.943 0 0 1-1.114 20.019l-.047.555a421.453 421.453 0 0 1-.385 4.355l-.077.793a384.394 384.394 0 0 1-.422 4.155l-.09.837a388.151 388.151 0 0 1-.479 4.17l-.089.744c-.18 1.475-.369 2.949-.566 4.421l-.058.439a390.347 390.347 0 0 1-4.156 24.776l-.038.185a382.898 382.898 0 0 1-.966 4.648l-.092.427c-.32 1.487-.648 2.972-.986 4.456l-.103.449a387.517 387.517 0 0 1-1.065 4.535l-.066.276a392.61 392.61 0 0 1-9.797 33.778l-.061.18a413.553 413.553 0 0 1-1.647 4.748 391.924 391.924 0 0 1-23.555 53.464l-.243.456v.001a390.813 390.813 0 0 1-11.301 19.734l-.002.003-.376.617-.001.002a395.954 395.954 0 0 1-3.838 6.115l-.45.699-.002.003a388.564 388.564 0 0 1-3.957 6.035l-.004.007-.149.22a388.375 388.375 0 0 1-8.534 12.202v.001l-.06.082a387.256 387.256 0 0 1-9.826 12.924l-.004.006a.012.012 0 0 1-.005.005l-.001.001a382.79 382.79 0 0 1-3.12 3.874c-.264.324-.532.645-.797.968-.775.944-1.553 1.887-2.337 2.824-.361.431-.726.86-1.089 1.29-.696.824-1.395 1.648-2.098 2.467-.402.469-.807.935-1.212 1.401a346.49 346.49 0 0 1-3.304 3.761 447.758 447.758 0 0 1-3.324 3.688c-.714.782-1.433 1.56-2.154 2.336-.403.434-.804.869-1.209 1.302-.794.847-1.594 1.689-2.396 2.53-.336.353-.67.708-1.008 1.06a382.861 382.861 0 0 1-6.993 7.089c-.313.31-.631.617-.946.926-.865.849-1.731 1.695-2.605 2.536-.424.409-.853.814-1.279 1.221-.772.737-1.546 1.472-2.325 2.203-.469.441-.941.879-1.414 1.317a371.04 371.04 0 0 1-7.462 6.757c-.789.695-1.582 1.386-2.376 2.076-.468.406-.935.813-1.405 1.217-.874.751-1.754 1.496-2.636 2.24-.394.332-.785.667-1.18.998a387.93 387.93 0 0 1-7.797 6.355c-.388.308-.78.611-1.169.918-.927.73-1.855 1.458-2.791 2.181-.494.381-.992.759-1.487 1.139-.84.643-1.681 1.284-2.527 1.92-.536.404-1.076.805-1.615 1.206a371.425 371.425 0 0 1-6.611 4.81c-.553.394-1.106.787-1.661 1.179-.858.604-1.721 1.204-2.586 1.802-.531.368-1.062.737-1.595 1.102-.946.648-1.899 1.29-2.853 1.931-.456.306-.909.615-1.366.92a381.665 381.665 0 0 1-4.21 2.765l-.045.03c-1.431.926-2.87 1.841-4.316 2.75-.458.288-.92.571-1.38.857-.988.616-1.978 1.23-2.974 1.838-.56.342-1.125.68-1.687 1.019-.907.547-1.815 1.094-2.728 1.635-.598.354-1.199.706-1.8 1.058a412.054 412.054 0 0 1-4.518 2.606c-.896.509-1.795 1.014-2.696 1.516-.612.341-1.225.683-1.84 1.022-.932.513-1.869 1.021-2.807 1.527-.587.317-1.172.636-1.761.95a369.154 369.154 0 0 1-3.12 1.642c-.495.258-.986.52-1.482.776-1.542.797-3.09 1.586-4.647 2.366-1.562.781-3.126 1.55-4.693 2.308-.505.244-1.011.481-1.517.723-1.062.508-2.124 1.017-3.188 1.515-.611.286-1.224.564-1.835.847-.963.445-1.927.89-2.892 1.326-.649.294-1.3.581-1.95.87-.931.415-1.861.829-2.794 1.236-.673.294-1.347.581-2.021.871a334.777 334.777 0 0 1-4.801 2.025c-.902.373-1.805.745-2.708 1.111a452.366 452.366 0 0 1-4.799 1.908 366.91 366.91 0 0 1-6.879 2.609c-.927.342-1.855.678-2.784 1.013-.676.243-1.351.487-2.027.726-.948.335-1.897.664-2.847.992-.658.227-1.316.456-1.975.679-.986.335-1.974.661-2.961.987-.62.205-1.239.412-1.859.613-1.062.344-2.125.68-3.187 1.015-.549.173-1.098.35-1.647.521-1.226.38-2.453.75-3.68 1.118-.387.116-.774.236-1.161.351a388.555 388.555 0 0 1-9.837 2.772c-.259.069-.519.135-.778.203-1.368.363-2.735.721-4.105 1.068-.458.116-.917.227-1.375.341-1.172.293-2.345.584-3.519.866-.533.128-1.067.251-1.6.376-1.104.26-2.207.518-3.311.767-.565.128-1.131.251-1.697.377a411.4 411.4 0 0 1-3.219.701c-.583.124-1.167.244-1.75.366-1.062.221-2.125.438-3.189.65-.583.116-1.167.229-1.75.343a360.9 360.9 0 0 1-8.176 1.497 376.635 376.635 0 0 1-5.011.827c-.533.085-1.066.17-1.599.252a374.69 374.69 0 0 1-3.459.515c-.488.071-.976.143-1.464.212-1.228.173-2.457.338-3.686.499-.411.054-.821.11-1.231.163-1.36.174-2.72.338-4.08.498-.282.033-.563.069-.845.101a388.23 388.23 0 0 1-25.08 2.06c-.218.011-.437.019-.655.03-1.435.069-2.869.131-4.304.183l-.902.03c-1.355.047-2.709.087-4.063.12l-1.023.022c-1.32.028-2.64.05-3.958.065l-1.064.01a397.15 397.15 0 0 1-3.273.014l-.653-.001c-.354 0-.708-.002-1.063-.004a401.557 401.557 0 0 1-9.031-.146l-.857-.024a407.075 407.075 0 0 1-4.281-.152c-.213-.009-.427-.016-.64-.026a395.054 395.054 0 0 1-4.623-.225l-.285-.015a390.248 390.248 0 0 1-39.866-4.27l-.199-.032a393.388 393.388 0 0 1-4.7-.781l-.299-.052a396.528 396.528 0 0 1-9.539-1.774l-.277-.055a376.034 376.034 0 0 1-4.698-.968l-.145-.031a392.295 392.295 0 0 1-83.541-27.884 391.307 391.307 0 0 1-20.749-10.392h-.001a389.737 389.737 0 0 1-44.461-27.958l-.041-.029a389.144 389.144 0 0 1-6.987-5.204l-.112-.085a383.87 383.87 0 0 1-6.878-5.37l-.035-.029a387.348 387.348 0 0 1-32.893-29.519l-.109-.11a385.688 385.688 0 0 1-6.071-6.254l-.199-.21a389.676 389.676 0 0 1-5.916-6.383l-.165-.183a387.907 387.907 0 0 1-9.17-10.507l-.002-.003-.103-.123a409.805 409.805 0 0 1-3.184-3.837l-.001-.002-.094-.116a401.702 401.702 0 0 1-3.167-3.923l-.008-.01-.168-.212-.152-.191-.003-.005a416.536 416.536 0 0 1-2.934-3.74l-.001-.002-.029-.038c-1.084-1.4-2.16-2.808-3.228-4.226l-.003-.005-.133-.176-.001-.002a388.541 388.541 0 0 1-7.741-10.668l-.018-.026a391.82 391.82 0 0 1-5.6-8.222l-.006-.009a386.774 386.774 0 0 1-5.403-8.385l-.006-.009-.002-.004a390.857 390.857 0 0 1-10.242-17.323l-.004-.007-.026-.047a376.752 376.752 0 0 1-2.591-4.727l-.003-.005-.001-.002a372.213 372.213 0 0 1-2.702-5.097l-.208-.397a385.834 385.834 0 0 1-2.701-5.289l-.013-.025-.008-.016a400.883 400.883 0 0 1-3.105-6.364c-.281-.588-.559-1.177-.837-1.766a385.216 385.216 0 0 1-2.444-5.276c-.191-.421-.387-.841-.577-1.262a386.527 386.527 0 0 1-2.809-6.395c-.219-.51-.432-1.022-.648-1.533a402.365 402.365 0 0 1-2.163-5.204c-.224-.549-.449-1.098-.67-1.648a387.091 387.091 0 0 1-2.551-6.503c-.097-.253-.188-.507-.284-.76a409.916 409.916 0 0 1-4.881-13.631c-.061-.179-.124-.358-.184-.537a389.777 389.777 0 0 1-2.167-6.674c-.158-.501-.312-1.003-.468-1.504a381.658 381.658 0 0 1-1.704-5.624c-.122-.412-.247-.825-.367-1.237a384.662 384.662 0 0 1-1.902-6.761c-.084-.312-.165-.624-.249-.937a396.876 396.876 0 0 1-1.547-5.948c-.118-.468-.237-.936-.353-1.404a384.88 384.88 0 0 1-3.134-13.707l-.268-1.294a389.051 389.051 0 0 1-1.273-6.436c-.027-.145-.057-.29-.083-.435-.442-2.359-.859-4.72-1.256-7.081-.048-.283-.092-.566-.139-.849a375.88 375.88 0 0 1-1.001-6.369c-.043-.292-.089-.583-.131-.875a389.81 389.81 0 0 1-1.809-14.194l-.099-.912a387.513 387.513 0 0 1-1.255-14.302l-.042-.624a396.61 396.61 0 0 1-.413-7.046l-.005-.108c-.24-4.9-.383-9.798-.437-14.69l-.005-.429c-.048-4.87-.004-9.734.13-14.591l.01-.36a389.788 389.788 0 0 1 4.921-51.577l.001-.005.005-.032.002-.014c.351-2.152.72-4.3 1.106-6.445l.003-.019.001-.008c.285-1.578.58-3.154.883-4.727l.03-.156a387.9 387.9 0 0 1 .932-4.661l.034-.167a391.567 391.567 0 0 1 1.018-4.777 393.77 393.77 0 0 1 2.622-11.163l.013-.053.003-.011c.385-1.535.78-3.068 1.183-4.598l.051-.195c.4-1.513.809-3.024 1.227-4.533l.054-.194c.422-1.522.854-3.041 1.294-4.557l.033-.113a392.772 392.772 0 0 1 3.117-10.195l.024-.077c.08-.248.158-.497.239-.745l.004-.013a365.57 365.57 0 0 1 1.429-4.332l.087-.26a396.805 396.805 0 0 1 1.658-4.818l.178-.51a378.772 378.772 0 0 1 1.625-4.513c.092-.252.183-.505.276-.757a393.908 393.908 0 0 1 1.582-4.206c.128-.336.253-.672.383-1.008a368.681 368.681 0 0 1 1.544-3.935c.16-.402.316-.806.477-1.207a401.254 401.254 0 0 1 1.57-3.841c.169-.408.333-.818.503-1.226.242-.579.491-1.156.736-1.734-15.352-8.553-26.136-21.746-28.855-36.879l-.023-.078a44.09 44.09 0 0 1-.632-2.11c-.023-.086-.05-.171-.073-.257l-.018-.062a43.628 43.628 0 0 1-.647-2.899c-.042-.223-.092-.443-.131-.667a42.907 42.907 0 0 1-.251-1.645l-.02-.13a44.614 44.614 0 0 1-.185-1.683c-.023-.257-.04-.515-.058-.772a41.072 41.072 0 0 1-.04-.606c-.013-.215-.033-.429-.042-.645a42.516 42.516 0 0 1-.041-1.858c0-8.488 2.52-16.543 7.008-23.736a51.463 51.463 0 0 1 1.568-2.365 55.874 55.874 0 0 1 5.534-6.678 62.338 62.338 0 0 1 5.63-5.121 68.351 68.351 0 0 1 7.1-5.023 73.257 73.257 0 0 1 5.87-3.261 78.45 78.45 0 0 1 8.559-3.647c8.999-3.228 18.994-5.045 29.515-5.045h6.51c15.626-40.963 55.257-70.072 101.709-70.072 6.124 0 12.121.531 17.968 1.503-.026-.997-.076-1.99-.076-2.994 0-60.938 49.4-110.338 110.338-110.338 34.055 0 64.497 15.436 84.736 39.684 33.088-38.88 82.373-63.546 137.426-63.546m0-9c-52.206 0-101.75 21.427-137.478 59.13-22.345-22.532-52.674-35.273-84.69-35.273-31.876 0-61.845 12.413-84.385 34.953-20.847 20.847-33.031 48.049-34.745 77.236-3.049-.239-6.089-.36-9.102-.36-24.349 0-47.719 7.368-67.584 21.308-17.686 12.411-31.469 29.18-40.148 48.764h-.487c-11.292 0-22.245 1.875-32.554 5.573a87.84 87.84 0 0 0-12.243 5.473 82.708 82.708 0 0 0-3.875 2.248 77.713 77.713 0 0 0-8.032 5.684 71.483 71.483 0 0 0-6.442 5.864 64.967 64.967 0 0 0-6.424 7.755 61.204 61.204 0 0 0-1.841 2.778C3.895 251.852 1 261.707 1 271.575c0 .746.017 1.503.049 2.25.009.212.024.429.04.646l.01.134c.014.242.03.489.048.736l.011.16c.018.258.037.515.06.772.066.73.14 1.396.224 2.038l.037.254c.094.694.19 1.316.292 1.899.036.209.081.435.127.661l.029.146a51.859 51.859 0 0 0 .783 3.494l.019.071.02.071.018.062.011.039.056.194c.175.642.367 1.295.583 1.98 2.85 14.834 12.297 28.437 26.384 38.276l-.252.639-.182.461a381.715 381.715 0 0 0-1.577 4.02l-.257.675-.138.364a415.801 415.801 0 0 0-1.614 4.293l-.17.467-.113.311a394.585 394.585 0 0 0-1.661 4.615l-.118.336-.065.188a390.21 390.21 0 0 0-1.694 4.924l-.005.014-.018.055-.057.169c-.493 1.467-.97 2.911-1.438 4.356l-.172.492-.024.119-.007.024-.078.245-.025.078a401.56 401.56 0 0 0-3.188 10.43l8.62 2.59-8.637-2.531-.011.038-.005.019c-.451 1.55-.892 3.104-1.324 4.66l-.008.027-.007.027-.026.095-.001.005-.013.046a411.23 411.23 0 0 0-1.254 4.634l-.027.102-.027.103a388.53 388.53 0 0 0-1.201 4.667l-.003.012-.013.052-.017.068a403.966 403.966 0 0 0-2.674 11.387l-.009.041-.002.009-.013.058c-.348 1.59-.688 3.182-1.017 4.776l-.003.016-.008.04-.017.083a419.542 419.542 0 0 0-.959 4.799l-.003.018-.009.047-.01.055a419.902 419.902 0 0 0-.871 4.649v.003l-.018.1-.027.13-.021.137a407.04 407.04 0 0 0-1.052 6.122l-.002.007-.021.13-.055.254-.02.189-.086.493v.054a402.955 402.955 0 0 0-2.031 14.238l-.017.142a400.649 400.649 0 0 0-2.87 37.671l-.01.346a395.438 395.438 0 0 0-.134 14.952l.003.257.002.177a399.04 399.04 0 0 0 .447 15.035l.003.069v.009l.001.034c.114 2.313.256 4.738.423 7.208l.019.281.023.353c.334 4.846.767 9.77 1.285 14.639l.1.927a398.024 398.024 0 0 0 1.851 14.53l.086.573.049.326c.324 2.178.669 4.371 1.025 6.515l.052.32.092.559c.414 2.463.846 4.901 1.284 7.236l.058.303.028.143c.396 2.104.822 4.258 1.302 6.585l.274 1.323a396.544 396.544 0 0 0 3.208 14.027c.105.425.214.856.323 1.288l.04.155a396.587 396.587 0 0 0 1.581 6.079l.103.385.151.569c.615 2.266 1.27 4.593 1.947 6.922l.235.794.141.475c.555 1.883 1.142 3.82 1.743 5.752l.121.389a388.926 388.926 0 0 0 2.576 7.977l.128.375.063.185a388.093 388.093 0 0 0 2.774 7.941c.766 2.121 1.49 4.082 2.215 5.995l.103.276c.063.17.126.34.191.51a397.766 397.766 0 0 0 3.101 7.863l.19.467c.726 1.781 1.47 3.572 2.212 5.323l.223.527.439 1.038c.963 2.245 1.93 4.445 2.875 6.544.122.271.247.543.372.815l.22.481a402.828 402.828 0 0 0 2.498 5.391l.092.194c.254.537.507 1.074.764 1.61a412.478 412.478 0 0 0 3.125 6.408l.032.07.044.084.05.102.023.043c.799 1.595 1.655 3.27 2.685 5.254l.127.243.081.155a394.264 394.264 0 0 0 2.398 4.532l.136.407.438.657c.805 1.49 1.626 2.985 2.443 4.452l.245.449.027.038a405.745 405.745 0 0 0 4.744 8.258l.002.004.162.273a403.013 403.013 0 0 0 4.906 8.078l.388.969.59.591a394.649 394.649 0 0 0 4.965 7.685l.001.003.014.02.014.022a399.665 399.665 0 0 0 5.67 8.327l.048.069.003.005.082.118.02.027a398.098 398.098 0 0 0 7.353 10.152l.016.031.515.675.025.034.079.105a399.371 399.371 0 0 0 3.279 4.294l.012.016.043.056c.862 1.113 1.729 2.22 2.601 3.321l.007.012.357.447.034.043.12.152.048.07.195.235.08.1.005.004a396.859 396.859 0 0 0 3.135 3.882l.047.058.004.004.002.002.291.363.039.039c.69.841 1.384 1.679 2.08 2.513l.004.011.997 1.185a398.663 398.663 0 0 0 9.383 10.752l.173.192a395.731 395.731 0 0 0 6.049 6.527l.134.142.066.069a399.203 399.203 0 0 0 6.216 6.404l.097.098a397.858 397.858 0 0 0 33.641 30.194l.012.01.055.045a401.43 401.43 0 0 0 7.037 5.494l.076.058a401.34 401.34 0 0 0 7.187 5.354l.028.021.029.02a400.088 400.088 0 0 0 44.623 28.133l.005.004.846.456a402.823 402.823 0 0 0 21.226 10.631 401.819 401.819 0 0 0 85.458 28.525l.099.021.007.002.042.009c1.6.34 3.202.67 4.806.99l.283.056c1.569.312 3.14.615 4.713.908l.329.062c1.574.292 3.146.574 4.719.846l.306.053c1.6.276 3.203.542 4.808.799l.076.013.104.017a401.01 401.01 0 0 0 40.808 4.372l.184.01.112.006c1.573.086 3.148.163 4.726.23l.403.016.246.01c1.466.06 2.925.112 4.385.156l.535.015.336.009c1.395.039 2.785.071 4.175.094l1.02.016c1.351.02 2.701.033 4.052.039l1.09.004.666.001c1.116 0 2.231-.005 3.348-.014l.164-.001.928-.009c1.346-.015 2.697-.038 4.048-.066l.315-.006.728-.016a382.8 382.8 0 0 0 4.164-.123l.344-.011.576-.019c1.469-.054 2.936-.118 4.404-.188l.264-.012.409-.019c1.632-.081 3.267-.172 4.902-.273l.123-.007c6.89-.43 13.818-1.044 20.636-1.828l.516-.062.348-.042a386.79 386.79 0 0 0 4.176-.51l.793-.105.469-.062a358.358 358.358 0 0 0 4.835-.665l.434-.063c1.18-.171 2.359-.345 3.539-.527.449-.069.897-.141 1.346-.212l.292-.046a406.826 406.826 0 0 0 5.127-.846 434.61 434.61 0 0 0 5.085-.908 388.221 388.221 0 0 0 5.07-.974c1.088-.216 2.177-.439 3.265-.665l.39-.081c.466-.097.932-.194 1.398-.293a393.26 393.26 0 0 0 3.296-.718l.477-.105c.421-.093.841-.185 1.262-.28 1.129-.255 2.258-.519 3.387-.785l.523-.122c.371-.087.742-.173 1.113-.262a378.1 378.1 0 0 0 3.602-.886l.514-.127.893-.222c1.4-.355 2.8-.721 4.199-1.093l.31-.081.483-.127a401.255 401.255 0 0 0 10.069-2.837c.243-.072.483-.145.723-.218l.467-.141c1.254-.376 2.51-.754 3.764-1.144.359-.111.719-.225 1.079-.34l.605-.192c1.087-.343 2.175-.686 3.261-1.038.45-.146.897-.294 1.343-.442l.562-.186c1.01-.334 2.021-.668 3.03-1.01.529-.179 1.057-.362 1.585-.544l.434-.15c.972-.335 1.942-.672 2.912-1.015.624-.221 1.247-.445 1.87-.669l.203-.073a374.05 374.05 0 0 0 7.766-2.885 381.56 381.56 0 0 0 4.901-1.917 363.344 363.344 0 0 0 4.899-1.991c.704-.291 1.411-.584 2.117-.881.93-.391 1.861-.79 2.792-1.19l.39-.168c.56-.24 1.119-.48 1.677-.724.954-.416 1.906-.84 2.858-1.264l.498-.221c.499-.222.998-.443 1.496-.668.953-.431 1.903-.869 2.854-1.308l.105-.049.634-.292c.414-.19.827-.38 1.24-.573 1.047-.49 2.09-.989 3.132-1.488l.129-.062.594-.283c.319-.151.637-.302.955-.456a416.789 416.789 0 0 0 4.802-2.362 405.589 405.589 0 0 0 4.752-2.419c.32-.165.638-.332.956-.5l.56-.294a283.724 283.724 0 0 0 4.527-2.4l.466-.252a377.62 377.62 0 0 0 2.869-1.561c.63-.347 1.257-.697 1.883-1.046a434.522 434.522 0 0 0 4.648-2.631c.913-.524 1.822-1.053 2.729-1.585l.15-.088c.565-.331 1.129-.661 1.692-.995a410.94 410.94 0 0 0 2.789-1.671l.532-.321c.399-.24.799-.481 1.196-.724 1.018-.621 2.031-1.25 3.042-1.88l.517-.32c.298-.185.596-.369.893-.555a408.77 408.77 0 0 0 4.415-2.813l.06-.038.036-.024a398.44 398.44 0 0 0 4.259-2.797c.303-.202.606-.406.909-.611l.491-.331a373.54 373.54 0 0 0 2.919-1.975c.406-.278.815-.561 1.223-.844l.409-.283c.882-.61 1.766-1.224 2.644-1.842.57-.402 1.136-.804 1.701-1.207a406.152 406.152 0 0 0 4.245-3.063 363.24 363.24 0 0 0 2.517-1.859l.191-.142c.489-.364.979-.728 1.465-1.094.862-.648 1.724-1.305 2.583-1.963l.482-.368c.345-.264.691-.528 1.035-.793.961-.743 1.91-1.488 2.858-2.234l.467-.366.729-.572a399.51 399.51 0 0 0 7.98-6.504c.256-.214.51-.43.765-.646l.443-.376a397.63 397.63 0 0 0 2.699-2.293c.329-.282.657-.567.985-.852l.448-.388c.816-.708 1.627-1.415 2.434-2.126a404.68 404.68 0 0 0 7.637-6.915l.093-.086c.453-.421.906-.841 1.356-1.264.795-.746 1.587-1.498 2.377-2.252l.427-.407c.295-.281.591-.562.884-.845a382.52 382.52 0 0 0 2.664-2.594l.356-.348c.206-.201.412-.401.616-.603a398.948 398.948 0 0 0 7.151-7.25c.218-.227.431-.451.644-.676l.389-.409c.82-.86 1.639-1.721 2.45-2.587.312-.333.622-.667.932-1.002l.309-.334c.736-.792 1.472-1.588 2.202-2.388.409-.448.815-.897 1.222-1.346l.071-.079a404.734 404.734 0 0 0 3.404-3.812c.697-.791 1.392-1.587 2.083-2.385l.1-.114a387.665 387.665 0 0 0 3.287-3.843l.369-.437c.248-.293.496-.585.742-.879a416.17 416.17 0 0 0 2.394-2.892l.322-.389c.165-.2.331-.4.495-.601a397.869 397.869 0 0 0 2.67-3.308l.006-.005.199-.251 2.271-2.271v-.609a401.393 401.393 0 0 0 6.871-9.063l.012-.006 1.243-1.707.038-.052 1.733-2.372v-.027a396.568 396.568 0 0 0 7.008-10.1l.016-.023.075-.111.005-.007.018-.027.033-.048.167-.249.006-.01a387.1 387.1 0 0 0 3.635-5.542l.003-.004.251-.392.152-.236.308-.479c1.021-1.594 2.033-3.2 3.021-4.79l.012-.009.724-1.18.276-.276.467-.934.759-1.234v-.019A400.665 400.665 0 0 0 750.313 665l.021-.01 1.349-2.528 1.06-1.982v-.014a402.456 402.456 0 0 0 23.282-53.156l.035-.098.004-.013.021-.057a405.344 405.344 0 0 0 1.625-4.688l.076-.225a402.984 402.984 0 0 0 10.009-34.513l.039-.163.022-.092c.379-1.573.742-3.119 1.096-4.667l.052-.225.051-.225a412.53 412.53 0 0 0 1.011-4.568l.026-.119.071-.33c.336-1.57.666-3.155.985-4.742l.043-.211a401.719 401.719 0 0 0 4.247-25.325l.038-.285.021-.159c.202-1.511.396-3.018.58-4.527l.067-.553.025-.211c.17-1.417.333-2.839.489-4.261l.009-.081.084-.78c.151-1.414.295-2.831.432-4.25l.03-.304.049-.506c.14-1.483.271-2.968.394-4.454l.021-.252.027-.314c.554-6.808.938-13.699 1.14-20.485l.009-.346.006-.253c.042-1.474.076-2.939.101-4.403l.011-.728.004-.332c.02-1.316.033-2.638.039-3.961l.003-1.168v-.087a405.14 405.14 0 0 0-.012-3.817l-.012-1.288c-.015-1.29-.037-2.568-.063-3.846l-.007-.365-.019-.87a390.555 390.555 0 0 0-.121-4.056l-.013-.412-.019-.571a411.537 411.537 0 0 0-.203-4.73l-.004-.083-.009-.216c-.17-3.431-.388-6.902-.648-10.325l-.033-.415-.021-.258c-.111-1.442-.23-2.885-.358-4.327l-.074-.808-.046-.497a364.091 364.091 0 0 0-.487-4.959l-.033-.312a380.912 380.912 0 0 0-.991-8.516l-.217-1.685c-.15-1.144-.308-2.288-.469-3.432l-.072-.514-.154-1.093a384.135 384.135 0 0 0-.546-3.634l-.082-.536a125.3 125.3 0 0 0-.131-.852c-.23-1.459-.471-2.921-.719-4.383l-.034-.207-.068-.409a398.262 398.262 0 0 0-.91-5.121l-.044-.231-.019-.098a403.667 403.667 0 0 0-.889-4.64 97.405 97.405 0 0 0-.184-.906l-.109-.535a409.808 409.808 0 0 0-.728-3.536c-.083-.394-.169-.793-.256-1.192l-.12-.555a409.717 409.717 0 0 0-.709-3.228c-.129-.575-.263-1.155-.396-1.735l-.036-.155a362.529 362.529 0 0 0-1.19-5.034 403.058 403.058 0 0 0-.761-3.066l-.069-.275c-.139-.55-.278-1.101-.419-1.651a397.973 397.973 0 0 0-.819-3.118l-.147-.554c-.115-.432-.229-.865-.347-1.297a430.17 430.17 0 0 0-.92-3.322l-.16-.573c-.097-.35-.195-.7-.294-1.049-.404-1.419-.82-2.838-1.242-4.257l-.073-.249-.123-.419a385.914 385.914 0 0 0-1.516-4.946l-.241-.755-.169-.529c-.384-1.21-.769-2.415-1.164-3.619-.139-.425-.28-.846-.421-1.268l-.177-.53c-.343-1.03-.689-2.065-1.043-3.1-.184-.536-.369-1.069-.555-1.602l-.125-.359c-.341-.98-.685-1.96-1.033-2.938a428.829 428.829 0 0 0-2.545-6.93c-.364-.964-.734-1.928-1.106-2.891l-.023-.059c-.249-.643-.497-1.287-.749-1.93-.389-.991-.786-1.98-1.182-2.968l-.103-.255c14.076-9.835 23.518-23.431 26.371-38.255.078-.239.154-.479.227-.72.088-.295.168-.589.248-.884l.063-.234.035-.123a51.002 51.002 0 0 0 .713-2.908c.029-.133.057-.281.084-.428l-.006.026c.036-.178.068-.345.099-.512l.03-.159c.171-.899.314-1.769.43-2.602.022-.143.043-.283.062-.425a51.664 51.664 0 0 0 .334-3.619c.067-1.14.098-2.103.098-3.033 0-9.867-2.895-19.723-8.373-28.5a62.006 62.006 0 0 0-1.84-2.777c-2.167-3.083-4.732-6.092-7.625-8.941a71.499 71.499 0 0 0-4.268-3.885 77.777 77.777 0 0 0-11.776-8.114 84.812 84.812 0 0 0-4.351-2.288 89.507 89.507 0 0 0-10.222-4.227 95.225 95.225 0 0 0-22.464-4.751 190.93 190.93 0 0 0 .738-16.732c0-25.567-5.009-50.375-14.889-73.733-9.541-22.557-23.197-42.813-40.59-60.206-17.393-17.393-37.649-31.049-60.207-40.59-23.381-9.888-48.188-14.897-73.756-14.897z" class="st0"/><circle cx="660.702" cy="506.189" r="11.035" class="st25" transform="rotate(-17.484 660.73 506.244)"/><path d="M695.54 434.379a7.356 7.356 0 1 0 14.212 3.808 7.356 7.356 0 0 0-5.202-9.01 7.355 7.355 0 0 0-9.01 5.202z" class="st25"/><path d="M790 271.571c0-30.181-31.853-54.875-70.784-54.875H80.784C41.853 216.696 10 241.39 10 271.571c0 19.901 13.853 37.411 34.448 47.034l-2.044.002C-1.947 420.777-2.44 541.131 51.297 648.532c96.357 192.583 330.589 270.59 523.173 174.233 186.559-93.343 265.598-316.071 182.765-504.984 19.659-9.776 32.765-26.859 32.765-46.21z" class="st24"/><path fill="#edc531" d="M719.82 191.356c0-99.642-80.776-180.418-180.418-180.418-55.053 0-104.339 24.666-137.432 63.541-20.24-24.248-50.682-39.684-84.736-39.684-60.938 0-110.338 49.4-110.338 110.338 0 1.004.049 1.996.076 2.994a109.473 109.473 0 0 0-17.968-1.503c-47.38 0-87.683 30.277-102.635 72.535h631.319a181.892 181.892 0 0 0 2.132-27.803z"/><path fill="#cea628" d="M688.95 138.462c-19.263-61.194-76.375-104.78-140.302-108.236-5.373-.385-12.001-.334-17.412-.062l-2.898.12-2.889.277-5.771.57c-1.913.27-6.781 1.038-8.597 1.307-4.439.882-9.698 2.02-14.093 3.28-29.404 8.134-56.383 25.405-75.747 49.005 23.351-21.301 52-36.332 83.119-42.22 5.156-.939 11.053-1.722 16.285-2.247 1.872-.097 6.352-.401 8.196-.493 11.741-.307 23.815.353 35.346 2.568 58.442 10.273 107.33 54.378 125.611 110.682 2.353 7.13 4.163 14.381 5.721 21.733-.626-12.297-2.895-24.529-6.569-36.284zM311.261 52.634c-29.049 2.611-56.215 20.886-68.121 47.642 37.556-51.836 113.869-51.176 147.304 4.155 9.948 16.703 14.246 36.932 12.122 57.302.823-2.429 1.468-4.92 2.039-7.439 1.375-6.295 1.889-12.929 1.732-19.381-1.26-48.893-46.569-87.412-95.076-82.279zm-72.576 135.062c-1.986-3.17-4.463-6.092-7.012-8.824-.765-.782-2.742-2.552-3.54-3.346l-2.537-2.039c-1.422-1.226-3.779-2.681-5.337-3.764-1.83-1.063-3.813-2.248-5.747-3.136-17.366-8.426-39.4-8.912-55.928 1.572 28.355-1.946 52.873 4.284 75.124 21.981.749.647 2.678 2.211 3.483 2.862 1.45 1.332 3.147 2.694 4.578 4.076 2.905 2.621 2.549 2.62 1.302-.893-1.069-2.865-2.74-5.901-4.386-8.489z" opacity=".5"/><path d="M718.012 222.79H81.988c-38.784 0-70.516 24.6-70.516 54.668 0 30.067 31.732 54.668 70.516 54.668h636.023c38.784 0 70.516-24.601 70.516-54.668.001-30.067-31.731-54.668-70.515-54.668z" opacity=".2"/><path d="M416.254 216.696H80.784C41.853 216.696 10 241.39 10 271.571s31.853 54.875 70.784 54.875h335.47" class="st24"/><path d="M383.746 216.696h335.47c38.931 0 70.784 24.694 70.784 54.875s-31.853 54.875-70.784 54.875h-335.47" class="st24"/><circle cx="289.623" cy="772.431" r="36.783" class="st25" transform="rotate(-84.997 289.645 772.436)"/><circle cx="561.887" cy="740.044" r="22.796" class="st25" transform="rotate(-4.002 562.197 740.423)"/><circle cx="635.08" cy="401.124" r="25.748" class="st25" transform="rotate(-78.784 635.104 401.122)"/><path d="M444.328 791.001c5.896 1.58 11.957-1.919 13.537-7.815 1.58-5.896-1.919-11.957-7.815-13.537-5.896-1.58-11.957 1.919-13.537 7.815-1.581 5.896 1.918 11.957 7.815 13.537zM187.027 643.797c-1.686 6.293 2.048 12.762 8.342 14.448 6.293 1.686 12.762-2.048 14.448-8.342 1.686-6.293-2.048-12.762-8.342-14.448-6.293-1.686-12.762 2.049-14.448 8.342z" class="st25"/><circle cx="127.736" cy="459.346" r="58.853" class="st25" transform="rotate(-45.001 127.731 459.35)"/><path d="M715.891 585.241c-35.321-9.464-71.626 11.497-81.09 46.818-9.464 35.321 11.497 71.626 46.817 81.09a65.98 65.98 0 0 0 25.117 1.773 390.354 390.354 0 0 0 53.218-90.966c-7.599-18.39-23.357-33.167-44.062-38.715zm-613.523 59.582c-17.218-4.614-34.779 1.627-45.446 14.517 13.741 25.479 29.945 48.84 48.17 69.93 13.492-4.579 24.524-15.591 28.488-30.387 6.309-23.547-7.665-47.751-31.212-54.06z" class="st25"/><circle cx="400" cy="534.77" r="185.25" fill="#373737"/><path fill="#fec803" d="M341.427 494.708c-27.767-.414-55.948 0-84.129 0-4.006 0-5.249 1.796-4.835 5.249.414 10.499 8.427 19.34 18.926 21.965h58.987v3.454h-49.179c0 .414.414.414.414.829 2.625 12.295 9.67 19.754 20.721 23.346h28.181v3.454h-20.307s0 .414.414.414c3.454 12.709 13.676 20.307 27.352 20.721 23.761.829 43.515-15.886 44.068-39.233 1.245-20.444-17.681-39.784-40.613-40.199zm201.689 0c-27.767 0-55.948-.414-84.129 0-23.346.414-42.272 19.34-40.89 40.89 1.381 23.346 20.721 40.062 44.068 39.233 13.676-.414 23.761-7.874 27.352-20.721 0 0 0-.414.414-.414h-20.307v-3.454h28.596c11.051-3.454 17.544-11.051 20.721-23.346 0-.414.414-.414.414-.829h-48.903v-3.454h58.573c11.051-3.039 18.511-12.295 18.926-21.965 0-4.144-1.381-5.94-4.835-5.94z"/></svg>