<svg xmlns="http://www.w3.org/2000/svg" xml:space="preserve" id="Layer_1" x="0" y="0" version="1.1" viewBox="0 0 800 875"><style>.st0{fill:#fff}.st24{fill:#5c6e9e}.st25{fill:#455377}</style><path d="M398.521 868.555a382.646 382.646 0 0 1-4.003-.039l-1.01-.016a378.658 378.658 0 0 1-4.12-.094l-.862-.023a364.415 364.415 0 0 1-4.334-.155l-.651-.026a385.302 385.302 0 0 1-4.672-.228l-.288-.015a396.272 396.272 0 0 1-40.325-4.319l-.208-.034c-1.58-.253-3.164-.516-4.746-.789l-.32-.056a390.264 390.264 0 0 1-4.643-.833l-.342-.064a383.477 383.477 0 0 1-4.649-.896l-.255-.051c-1.61-.321-3.194-.647-4.775-.983l-.161-.034a397.227 397.227 0 0 1-84.485-28.202 397.59 397.59 0 0 1-20.986-10.511 395.813 395.813 0 0 1-44.977-28.282l-.062-.044a397.022 397.022 0 0 1-7.047-5.249l-.113-.087a393.85 393.85 0 0 1-6.957-5.432l-.101-.082a392.882 392.882 0 0 1-33.211-29.81l-.1-.1a390.552 390.552 0 0 1-6.152-6.338l-.204-.215a392.908 392.908 0 0 1-5.981-6.455l-.143-.157a391.8 391.8 0 0 1-9.091-10.409l-.31-.367a400.79 400.79 0 0 1-3.229-3.892l-.113-.14a394.621 394.621 0 0 1-3.127-3.871l-.562-.709a366.348 366.348 0 0 1-2.172-2.762l-.012-.006-1.561-2.021v-.005a370.618 370.618 0 0 1-1.911-2.507l-1.483-.82-.001-1.156a392.38 392.38 0 0 1-6.862-9.493l-.157-.225a394.128 394.128 0 0 1-10.796-16.279l-.959-.958-.001-.576a398.943 398.943 0 0 1-4.547-7.497l-.05-.084a399.647 399.647 0 0 1-4.994-8.693l-.182-.274-.062-.166a406.186 406.186 0 0 1-2.387-4.353l-.042-.065-.089-.176a427.333 427.333 0 0 1-2.709-5.111l-.207-.395a395.406 395.406 0 0 1-2.711-5.307l-.093-.184a406.968 406.968 0 0 1-3.094-6.343l-.846-1.785a393.632 393.632 0 0 1-2.474-5.339l-.58-1.268a405.737 405.737 0 0 1-2.844-6.475l-.658-1.557a409.21 409.21 0 0 1-2.185-5.255l-.679-1.67a404.817 404.817 0 0 1-2.58-6.576l-.288-.771a379.962 379.962 0 0 1-2.189-5.926l-.615-1.717a402.154 402.154 0 0 1-2.131-6.142l-.19-.557a389.411 389.411 0 0 1-2.188-6.738l-.473-1.52a398.379 398.379 0 0 1-1.725-5.69l-.37-1.253a385.164 385.164 0 0 1-1.925-6.841l-.252-.947a372.315 372.315 0 0 1-1.565-6.019l-.357-1.426a394.56 394.56 0 0 1-3.17-13.858l-.271-1.311a393.798 393.798 0 0 1-1.288-6.509l-.089-.465c-.428-2.28-.844-4.624-1.267-7.139l-.141-.86a404.56 404.56 0 0 1-1.014-6.442l-.132-.882a392.701 392.701 0 0 1-1.83-14.364l-.1-.923a392.718 392.718 0 0 1-1.27-14.467l-.042-.62c-.16-2.387-.302-4.763-.419-7.139l-.005-.108a394.346 394.346 0 0 1-.442-14.86l-.005-.448c-.049-4.854-.004-9.82.133-14.746l.01-.38a396.413 396.413 0 0 1 2.837-37.229l.018-.14a399.23 399.23 0 0 1 2.065-14.432v-.053l.04-.213.007-.083.037-.17.076-.461c.306-1.857.625-3.713.957-5.565v-.417l.146-.39c.266-1.462.539-2.923.821-4.382l.042-.214c.292-1.517.606-3.088.93-4.657l.038-.181c.323-1.566.658-3.14 1.003-4.712l4.419.858-4.396-.965a399.554 399.554 0 0 1 2.645-11.258l.115-.524.031-.062c.355-1.407.712-2.786 1.074-4.163l.059-.219a378.16 378.16 0 0 1 1.234-4.563l.066-.239c.415-1.495.852-3.032 1.297-4.565l.055-.185c.977-3.36 2.037-6.83 3.131-10.242l.193-.603.056-.265.102-.222c.447-1.381.902-2.76 1.365-4.136l.091-.27c.545-1.62 1.104-3.244 1.673-4.864l.178-.508c.542-1.534 1.09-3.055 1.646-4.573l.279-.765c.525-1.423 1.06-2.84 1.6-4.255l.386-1.016c.515-1.335 1.037-2.66 1.563-3.984l.483-1.223a416.58 416.58 0 0 1 1.324-3.248c-14.86-9.342-24.815-22.88-27.57-37.668a48.05 48.05 0 0 1-.624-2.101l-.1-.351a48.16 48.16 0 0 1-.585-2.533l-.17-.864a24.049 24.049 0 0 1-.104-.535 49.171 49.171 0 0 1-.278-1.819l-.019-.127c-.084-.63-.15-1.252-.208-1.876a103.268 103.268 0 0 1-.153-2.232 49.097 49.097 0 0 1-.045-2.062c0-9.153 2.587-17.94 7.69-26.118a54.7 54.7 0 0 1 1.705-2.572 60.475 60.475 0 0 1 5.978-7.215 67.203 67.203 0 0 1 6.037-5.493 73.015 73.015 0 0 1 7.566-5.353 77.45 77.45 0 0 1 6.226-3.459 83.011 83.011 0 0 1 9.048-3.855c9.818-3.522 20.26-5.309 31.032-5.309h3.455c8.255-19.986 21.952-37.081 39.766-49.581 19.104-13.406 41.579-20.492 64.998-20.492 4.43 0 8.922.271 13.413.808 1.176-62.312 52.23-112.637 114.818-112.637 32.387 0 62.979 13.547 84.739 37.35C437.058 28.682 486.848 6.44 539.398 6.44c101.964 0 184.918 82.954 184.918 184.918 0 6.96-.396 13.975-1.18 20.92 8.954.365 17.666 1.981 25.947 4.82a85.706 85.706 0 0 1 9.701 4.011 80.337 80.337 0 0 1 5.656 3.054 73.282 73.282 0 0 1 9.562 6.756A67.26 67.26 0 0 1 778 234.56c2.701 2.663 5.091 5.463 7.102 8.325a54.993 54.993 0 0 1 1.706 2.572c5.102 8.175 7.688 16.963 7.688 26.116 0 .847-.028 1.727-.09 2.769l-.041.63a45.42 45.42 0 0 1-.265 2.685l-.046.307c-.119.86-.251 1.651-.401 2.437l-.188.98a45.965 45.965 0 0 1-.52 2.174l-.237.863c-.068.255-.138.51-.214.764-.078.262-.162.519-.246.775l-.038.117c-2.755 14.783-12.704 28.319-27.56 37.661.246.593.491 1.187.732 1.78l.751 1.863c.393.977.783 1.955 1.169 2.935l.751 1.933a370.612 370.612 0 0 1 1.856 4.897c.353.951.702 1.901 1.047 2.853.241.665.482 1.33.719 1.996.346.966.685 1.935 1.021 2.904 0 0 .467 1.338.672 1.938.351 1.022.691 2.045 1.033 3.068l.592 1.778c.39 1.189.771 2.382 1.148 3.575l.405 1.267a376.09 376.09 0 0 1 1.5 4.896l.192.657a405.97 405.97 0 0 1 1.229 4.211l.449 1.604c.306 1.093.612 2.188.909 3.286.124.453.488 1.831.488 1.831.273 1.025.545 2.053.811 3.082l.482 1.904c.255 1.008.506 2.019.752 3.029l.461 1.916c.243 1.019.481 2.038.716 3.058l.428 1.871c.238 1.063.47 2.124.698 3.186l.374 1.731c.246 1.165.483 2.329.719 3.493l.289 1.43c.303 1.525.595 3.055.879 4.585l.064.342c.31 1.672.608 3.361.898 5.051l.1.601c.245 1.452.483 2.896.712 4.34l.21 1.373c.184 1.193.365 2.391.539 3.588l.224 1.591c.159 1.128.315 2.259.464 3.39l.215 1.663c.143 1.118.28 2.235.411 3.351l.193 1.649c.131 1.144.255 2.286.375 3.427l.161 1.543c.124 1.22.24 2.439.353 3.659l.12 1.294c.126 1.428.243 2.853.354 4.276l.054.67c.257 3.384.472 6.816.64 10.2l.014.297c.076 1.563.143 3.121.2 4.679l.032.977c.047 1.333.087 2.672.119 4.01l.025 1.219c.027 1.26.048 2.525.063 3.79l.012 1.28c.01 1.265.015 2.522.013 3.78l-.003 1.24c-.006 1.305-.02 2.611-.038 3.917l-.016 1.046a389.36 389.36 0 0 1-.1 4.34l-.016.604a394.838 394.838 0 0 1-1.127 20.251l-.048.568a396.321 396.321 0 0 1-.39 4.399l-.077.8a414.688 414.688 0 0 1-.427 4.201l-.092.846a380.68 380.68 0 0 1-.484 4.222l-.091.752a371.884 371.884 0 0 1-.572 4.474l-.058.438a397.483 397.483 0 0 1-4.204 25.066l-.021.107a422.039 422.039 0 0 1-.994 4.783l-.097.447c-.32 1.488-.652 2.99-.994 4.491l-.103.454c-.351 1.53-.709 3.059-1.078 4.585l-.068.286a398.409 398.409 0 0 1-9.907 34.159l-.038.111a397.44 397.44 0 0 1-1.633 4.709l-.057.162a397.88 397.88 0 0 1-23.826 54.08l-.245.458a396.561 396.561 0 0 1-11.434 19.965l-.379.622a391.328 391.328 0 0 1-3.628 5.789l-.792 1.233a395.956 395.956 0 0 1-3.868 5.898l-.133.222-.088.105a394.218 394.218 0 0 1-8.627 12.334l-.061.084a397.822 397.822 0 0 1-9.619 12.67l-.092.194-.362.379-.073.09a419.855 419.855 0 0 1-2.958 3.672l-.81.981c-.783.954-1.569 1.907-2.362 2.854l-1.1 1.303c-.707.837-1.412 1.669-2.123 2.497l-1.229 1.421c-.683.787-1.368 1.573-2.059 2.356l-1.279 1.444a497.421 497.421 0 0 1-3.364 3.732 348.34 348.34 0 0 1-2.179 2.364l-1.226 1.318c-.799.854-1.609 1.706-2.421 2.557l-1.02 1.071a397.886 397.886 0 0 1-7.075 7.174l-.961.939c-.872.855-1.749 1.712-2.633 2.564l-1.296 1.237a298.034 298.034 0 0 1-3.784 3.562c-.757.702-1.517 1.405-2.281 2.104a382.986 382.986 0 0 1-3.788 3.417l-1.478 1.312c-.797.703-1.601 1.402-2.405 2.1l-1.419 1.23c-.885.76-1.775 1.514-2.667 2.266l-1.192 1.008a395.632 395.632 0 0 1-7.891 6.431l-1.179.926c-.94.741-1.88 1.478-2.827 2.209l-1.505 1.152c-.849.649-1.699 1.297-2.555 1.941l-1.633 1.219a398.532 398.532 0 0 1-4.176 3.065c-.834.604-1.672 1.205-2.512 1.803-.587.418-1.133.807-1.682 1.193a379.4 379.4 0 0 1-2.615 1.822l-1.616 1.117c-.955.654-1.919 1.304-2.884 1.952l-1.382.93a416.405 416.405 0 0 1-4.258 2.796l-.108.07a381.772 381.772 0 0 1-4.305 2.743l-1.394.865c-1 .623-2.001 1.245-3.008 1.86l-1.708 1.032c-.917.553-1.835 1.106-2.759 1.653-.53.315-1.82 1.07-1.82 1.07a372.805 372.805 0 0 1-7.296 4.17c-.618.345-1.237.69-1.86 1.033a411.58 411.58 0 0 1-2.839 1.545s-1.351.731-1.785.962a405.172 405.172 0 0 1-3.151 1.66l-1.5.785a385.308 385.308 0 0 1-9.444 4.726l-1.536.732a404.866 404.866 0 0 1-3.224 1.532c-.429.201-1.859.857-1.859.857-.989.457-1.954.903-2.92 1.34-.49.221-1.975.881-1.975.881-.94.419-1.882.838-2.825 1.25-.591.258-2.045.882-2.045.882-.919.395-1.84.789-2.763 1.177-.607.255-2.09.87-2.09.87-.914.378-1.826.754-2.74 1.125-.703.285-1.405.565-2.106.846a390.875 390.875 0 0 1-12.521 4.747s-1.413.509-2.052.734c-.956.339-1.918.672-2.88 1.003 0 0-1.443.5-1.995.687-1 .338-1.998.669-2.996.999l-1.882.621c-1.073.349-2.148.688-3.225 1.027l-1.667.527c-1.238.384-2.479.758-3.721 1.13l-1.176.355a395.402 395.402 0 0 1-9.951 2.804l-.789.207c-1.381.367-2.766.729-4.15 1.08l-1.389.345c-1.188.296-2.375.591-3.562.875l-1.619.381c-1.115.263-2.232.523-3.349.776l-1.717.381c-1.084.24-2.17.478-3.256.709l-1.768.369c-1.078.224-2.154.444-3.23.658l-1.77.347a385.4 385.4 0 0 1-3.239.616l-1.755.321c-1.09.197-2.185.39-3.277.578l-1.706.291c-1.121.188-2.24.369-3.36.546l-1.617.254c-1.169.181-2.336.353-3.503.522l-1.48.214c-1.241.175-2.484.342-3.728.505l-1.245.165c-1.376.176-2.752.343-4.128.504l-.85.102a394.173 394.173 0 0 1-20.364 1.805l-.156.009c-1.624.101-3.24.19-4.856.271l-.668.03c-1.445.069-2.897.132-4.349.186l-.913.03c-1.368.047-2.74.088-4.109.121l-1.041.022a407.12 407.12 0 0 1-3.999.066l-1.076.01a406.04 406.04 0 0 1-3.311.014l-1.727-.007z" class="st0"/><path d="M539.401 10.941c99.642 0 180.418 80.776 180.418 180.418a181.8 181.8 0 0 1-1.776 25.341h1.173c10.093 0 19.702 1.672 28.412 4.657a80.39 80.39 0 0 1 9.182 3.796 75.245 75.245 0 0 1 5.336 2.882 68.454 68.454 0 0 1 8.97 6.337 62.138 62.138 0 0 1 3.729 3.396c2.454 2.418 4.668 4.989 6.579 7.707a52.298 52.298 0 0 1 1.568 2.365c4.488 7.193 7.008 15.247 7.008 23.736 0 .84-.034 1.674-.083 2.505-.011.191-.022.383-.036.574a42.463 42.463 0 0 1-.24 2.426c-.015.114-.035.226-.051.34-.099.717-.218 1.43-.353 2.138-.036.188-.07.377-.108.565-.023.113-.041.226-.065.339a43.395 43.395 0 0 1-.467 1.955c-.048.185-.103.369-.154.554-.085.309-.165.619-.257.926-.097.323-.205.643-.309.964l-.039.129c-2.719 15.13-13.499 28.322-28.846 36.874l.267.629c.218.515.429 1.032.645 1.548.442 1.058.883 2.116 1.315 3.175.25.614.495 1.229.742 1.843.389.967.776 1.934 1.156 2.903.255.648.505 1.297.756 1.946a389.542 389.542 0 0 1 1.822 4.805 382.712 382.712 0 0 1 2.757 7.666c.222.638.445 1.276.664 1.915a372.81 372.81 0 0 1 1.021 3.035c.195.584.392 1.168.584 1.753.386 1.177.762 2.355 1.136 3.534.133.42.27.838.402 1.258a389.16 389.16 0 0 1 1.482 4.836c.065.217.126.433.19.65.412 1.387.818 2.774 1.214 4.163.15.527.295 1.055.443 1.582.304 1.083.606 2.166.901 3.25.163.603.322 1.206.482 1.809.27 1.016.539 2.031.8 3.048.161.627.319 1.255.478 1.882a409.375 409.375 0 0 1 1.2 4.889 401.22 401.22 0 0 1 1.82 8.02c.124.571.249 1.143.37 1.715.243 1.15.478 2.301.71 3.452.095.47.193.94.286 1.41.299 1.511.588 3.022.869 4.534l.062.323c.308 1.669.605 3.339.89 5.009.034.2.065.4.099.599.242 1.428.477 2.856.703 4.284.071.451.138.903.208 1.354.183 1.184.362 2.367.533 3.551.076.523.148 1.046.221 1.57.157 1.118.311 2.235.458 3.353.072.549.142 1.098.212 1.647.14 1.102.276 2.204.407 3.306.065.545.128 1.09.191 1.635a388.394 388.394 0 0 1 .878 8.526c.039.428.081.856.119 1.284.125 1.408.24 2.817.35 4.225.017.22.037.44.053.66.255 3.363.466 6.725.633 10.086l.013.298c.075 1.54.141 3.081.198 4.62.012.321.021.642.032.963.045 1.322.085 2.644.118 3.965.01.402.017.804.025 1.206a426.086 426.086 0 0 1 .074 5.018c.01 1.244.014 2.488.012 3.732-.001.408-.001.817-.003 1.225a384.585 384.585 0 0 1-.038 3.874c-.005.345-.009.69-.015 1.034a383.353 383.353 0 0 1-.098 4.291l-.016.596a388.943 388.943 0 0 1-1.114 20.019l-.047.555a421.453 421.453 0 0 1-.385 4.355l-.077.793a384.394 384.394 0 0 1-.992 9.162l-.089.744c-.18 1.475-.369 2.949-.566 4.421l-.058.439a391.78 391.78 0 0 1-4.156 24.776l-.038.185a382.898 382.898 0 0 1-.966 4.648l-.092.427c-.32 1.487-.649 2.972-.986 4.456l-.103.449a387.517 387.517 0 0 1-1.065 4.535l-.066.276a392.61 392.61 0 0 1-9.797 33.778l-.061.18c-.52 1.531-1.05 3.059-1.59 4.584l-.058.164a391.924 391.924 0 0 1-23.555 53.464l-.243.456-.001.001a390.813 390.813 0 0 1-11.301 19.734l-.002.003-.377.617-.001.002a388.456 388.456 0 0 1-3.838 6.115l-.45.699-.002.003a388.564 388.564 0 0 1-3.957 6.035l-.005.007-.149.22a388.375 388.375 0 0 1-8.534 12.202l-.001.001-.06.082a387.256 387.256 0 0 1-9.826 12.924l-.004.006a.012.012 0 0 1-.005.005l-.001.001a397.146 397.146 0 0 1-3.12 3.874c-.264.324-.532.645-.797.968-.775.944-1.553 1.887-2.337 2.824-.361.431-.726.86-1.089 1.29-.696.824-1.394 1.648-2.098 2.467-.402.469-.807.935-1.212 1.401a346.49 346.49 0 0 1-3.304 3.761 369.802 369.802 0 0 1-5.478 6.024c-.403.434-.804.869-1.209 1.302-.794.847-1.594 1.689-2.396 2.53-.336.353-.67.708-1.009 1.06a385.987 385.987 0 0 1-6.992 7.089c-.314.31-.632.617-.947.926-.865.849-1.731 1.695-2.605 2.536-.425.409-.853.814-1.28 1.221-.772.737-1.546 1.472-2.325 2.203-.469.441-.942.879-1.414 1.317a343.738 343.738 0 0 1-3.717 3.409 449.597 449.597 0 0 1-3.745 3.348c-.789.695-1.582 1.386-2.377 2.076-.468.406-.934.813-1.405 1.217-.874.751-1.754 1.496-2.636 2.24-.394.332-.785.667-1.18.998a387.93 387.93 0 0 1-7.797 6.355c-.388.308-.78.611-1.169.918a400.53 400.53 0 0 1-2.791 2.181c-.494.381-.991.759-1.487 1.139-.84.643-1.681 1.284-2.527 1.92-.536.404-1.076.805-1.615 1.206a371.425 371.425 0 0 1-6.611 4.81c-.553.394-1.106.787-1.661 1.179-.858.604-1.721 1.204-2.586 1.802-.531.368-1.062.737-1.595 1.102-.947.648-1.899 1.29-2.853 1.931-.456.306-.909.615-1.366.92a391.361 391.361 0 0 1-4.21 2.765l-.045.03c-1.431.926-2.87 1.841-4.316 2.75-.458.288-.92.571-1.38.857-.989.616-1.978 1.23-2.974 1.838-.56.342-1.125.68-1.687 1.019-.907.547-1.815 1.094-2.728 1.635-.598.354-1.199.706-1.8 1.058a412.054 412.054 0 0 1-4.518 2.606c-.896.509-1.795 1.014-2.696 1.516-.613.341-1.225.683-1.84 1.022-.932.513-1.869 1.021-2.806 1.527-.587.317-1.172.636-1.761.95a368.96 368.96 0 0 1-3.119 1.642c-.495.258-.986.52-1.482.776a421.564 421.564 0 0 1-4.647 2.366c-1.562.781-3.126 1.55-4.693 2.308-.505.244-1.011.481-1.517.723-1.062.508-2.124 1.017-3.188 1.515-.611.286-1.223.564-1.835.847-.963.445-1.927.89-2.892 1.326-.649.294-1.3.581-1.95.87-.931.415-1.862.829-2.794 1.236-.673.294-1.347.581-2.021.871a334.777 334.777 0 0 1-4.801 2.025 394.714 394.714 0 0 1-4.791 1.947 413.176 413.176 0 0 1-4.791 1.874 366.91 366.91 0 0 1-4.803 1.807c-.927.342-1.856.678-2.784 1.013-.676.243-1.351.487-2.027.726-.948.335-1.897.664-2.847.992-.658.227-1.316.456-1.974.679-.986.335-1.974.661-2.962.987-.62.205-1.239.412-1.859.613-1.061.344-2.124.68-3.187 1.015-.549.173-1.098.35-1.647.521-1.226.38-2.453.75-3.68 1.118-.387.116-.774.236-1.161.351a388.626 388.626 0 0 1-9.838 2.772c-.259.069-.519.135-.778.203a381.11 381.11 0 0 1-4.105 1.068c-.458.116-.917.227-1.375.341-1.172.293-2.345.584-3.519.866-.533.128-1.067.251-1.6.376-1.103.26-2.206.518-3.311.767-.565.128-1.131.251-1.697.377a411.4 411.4 0 0 1-3.219.701c-.583.124-1.167.244-1.75.366-1.063.221-2.126.438-3.189.65-.583.116-1.167.229-1.75.343a354.168 354.168 0 0 1-4.935.926 407.295 407.295 0 0 1-4.928.858c-1.107.185-2.215.365-3.323.54-.533.085-1.066.17-1.599.252a374.69 374.69 0 0 1-3.459.515c-.488.071-.976.143-1.464.212-1.228.173-2.457.338-3.686.499-.411.054-.821.11-1.232.163-1.36.174-2.72.338-4.08.498-.282.033-.563.069-.845.101a388.23 388.23 0 0 1-25.08 2.06c-.218.011-.437.019-.655.03-1.435.069-2.869.131-4.304.183l-.902.03c-1.355.047-2.709.087-4.063.12l-1.023.022c-1.32.028-2.639.05-3.958.065l-1.064.01c-1.092.009-2.182.014-3.273.014l-.653-.001a401.854 401.854 0 0 1-10.094-.15l-.857-.024a406.116 406.116 0 0 1-4.281-.152c-.213-.009-.427-.016-.64-.026a395.054 395.054 0 0 1-4.907-.24 390.248 390.248 0 0 1-39.866-4.27l-.198-.032a390.064 390.064 0 0 1-4.7-.781l-.299-.052a396.528 396.528 0 0 1-9.539-1.774l-.277-.055a376.034 376.034 0 0 1-4.698-.968l-.145-.031a392.295 392.295 0 0 1-83.541-27.884 391.277 391.277 0 0 1-20.748-10.392h-.001a389.75 389.75 0 0 1-44.462-27.958l-.04-.029a385.602 385.602 0 0 1-6.987-5.204l-.112-.085a383.87 383.87 0 0 1-6.878-5.37l-.035-.029a387.348 387.348 0 0 1-32.893-29.519l-.11-.11a385.688 385.688 0 0 1-6.071-6.254l-.199-.21a389.676 389.676 0 0 1-5.916-6.383l-.165-.183a387.907 387.907 0 0 1-9.17-10.507l-.002-.003-.103-.123a380.82 380.82 0 0 1-3.184-3.837l-.001-.002-.094-.116a401.702 401.702 0 0 1-3.167-3.923l-.008-.01-.168-.212-.152-.191a383.19 383.19 0 0 1-2.938-3.745l-.001-.002-.03-.038a385.682 385.682 0 0 1-3.231-4.231l-.133-.176-.001-.002a386.437 386.437 0 0 1-7.73-10.653l-.01-.015-.018-.026a391.82 391.82 0 0 1-5.6-8.222l-.006-.009a390.602 390.602 0 0 1-5.403-8.385l-.006-.009-.002-.004a390.857 390.857 0 0 1-5.217-8.571l-.005-.009c-1.706-2.885-3.38-5.8-5.02-8.743l-.004-.007-.026-.047a390.056 390.056 0 0 1-2.591-4.727l-.003-.005-.001-.002a395.767 395.767 0 0 1-2.702-5.097l-.208-.397a385.834 385.834 0 0 1-2.701-5.289l-.013-.025-.008-.016a392.425 392.425 0 0 1-3.105-6.364c-.281-.588-.559-1.177-.837-1.766a397.615 397.615 0 0 1-2.445-5.276c-.191-.421-.387-.841-.577-1.262a395.125 395.125 0 0 1-2.809-6.395c-.219-.51-.432-1.022-.649-1.533a388.659 388.659 0 0 1-2.162-5.204c-.224-.549-.449-1.098-.67-1.648a387.091 387.091 0 0 1-2.551-6.503c-.096-.253-.188-.507-.284-.76a398.097 398.097 0 0 1-2.773-7.558 382.842 382.842 0 0 1-2.107-6.073c-.06-.179-.124-.358-.184-.537a389.777 389.777 0 0 1-2.167-6.674c-.158-.501-.312-1.003-.469-1.504a381.658 381.658 0 0 1-1.704-5.624c-.122-.412-.246-.825-.366-1.237a384.662 384.662 0 0 1-1.902-6.761c-.085-.312-.165-.624-.249-.937a396.876 396.876 0 0 1-1.547-5.948c-.118-.468-.237-.936-.353-1.404a384.88 384.88 0 0 1-3.134-13.707l-.268-1.294a389.051 389.051 0 0 1-1.273-6.436l-.084-.435c-.442-2.359-.859-4.72-1.256-7.081-.048-.283-.092-.566-.139-.849a375.88 375.88 0 0 1-1.001-6.369c-.043-.292-.089-.583-.131-.875a389.81 389.81 0 0 1-1.809-14.194l-.098-.912a387.513 387.513 0 0 1-1.255-14.302l-.042-.624a387.375 387.375 0 0 1-.413-7.046l-.006-.108a387.776 387.776 0 0 1-.442-15.119c-.048-4.87-.004-9.734.131-14.591l.01-.36a389.455 389.455 0 0 1 2.805-36.82l.017-.139a391.232 391.232 0 0 1 2.099-14.618l.001-.005.005-.032.002-.014c.351-2.152.72-4.3 1.106-6.445l.003-.019.001-.008c.285-1.578.579-3.154.883-4.727l.03-.156a387.9 387.9 0 0 1 .932-4.661l.034-.167a391.567 391.567 0 0 1 1.018-4.777 393.77 393.77 0 0 1 2.622-11.163l.013-.053.003-.011c.385-1.535.78-3.068 1.183-4.598l.051-.195c.4-1.513.809-3.024 1.227-4.533l.054-.194c.422-1.522.854-3.041 1.294-4.557l.033-.113a392.772 392.772 0 0 1 3.142-10.272c.08-.248.158-.497.239-.745l.004-.013c.468-1.447.945-2.891 1.429-4.332l.087-.26a396.805 396.805 0 0 1 1.658-4.818l.178-.51a378.772 378.772 0 0 1 1.625-4.513c.092-.252.183-.505.276-.757a393.908 393.908 0 0 1 1.582-4.206c.128-.336.253-.672.383-1.008a391.225 391.225 0 0 1 1.544-3.935c.16-.402.316-.806.477-1.207a376.933 376.933 0 0 1 1.571-3.841c.169-.408.333-.818.503-1.226.242-.579.491-1.156.736-1.734-15.352-8.553-26.136-21.746-28.856-36.879l-.023-.078a44.09 44.09 0 0 1-.632-2.11c-.023-.086-.051-.171-.073-.257l-.018-.062a43.628 43.628 0 0 1-.647-2.899c-.042-.223-.092-.443-.131-.667a42.907 42.907 0 0 1-.251-1.645l-.02-.13a44.614 44.614 0 0 1-.185-1.683c-.023-.257-.04-.515-.058-.772a41.072 41.072 0 0 1-.04-.606c-.013-.215-.033-.429-.042-.645a42.518 42.518 0 0 1-.04-1.858c0-8.488 2.52-16.543 7.008-23.736a52.298 52.298 0 0 1 1.568-2.365 55.874 55.874 0 0 1 5.534-6.678 62.338 62.338 0 0 1 5.63-5.121 68.458 68.458 0 0 1 7.1-5.023 73.257 73.257 0 0 1 5.87-3.261 78.45 78.45 0 0 1 8.559-3.647c8.998-3.228 18.993-5.045 29.515-5.045h6.51c15.626-40.963 55.258-70.072 101.709-70.072 6.124 0 12.121.531 17.969 1.503-.027-.997-.076-1.99-.076-2.994 0-60.938 49.4-110.338 110.338-110.338 34.055 0 64.496 15.436 84.736 39.684 33.09-38.88 82.375-63.546 137.428-63.546m0-9c-52.206 0-101.75 21.427-137.478 59.13-22.345-22.532-52.674-35.273-84.69-35.273-31.876 0-61.845 12.413-84.385 34.953-20.846 20.846-33.031 48.049-34.744 77.236-3.049-.239-6.089-.36-9.102-.36-24.348 0-47.719 7.368-67.583 21.308-17.686 12.411-31.47 29.18-40.148 48.764h-.487c-11.292 0-22.245 1.875-32.554 5.573a87.725 87.725 0 0 0-12.243 5.473 82.198 82.198 0 0 0-3.875 2.248 77.56 77.56 0 0 0-8.032 5.684 71.367 71.367 0 0 0-6.442 5.865 64.967 64.967 0 0 0-6.424 7.755 62.323 62.323 0 0 0-1.841 2.777C3.895 251.852 1 261.708 1 271.575c0 .75.016 1.507.049 2.25.01.218.024.431.04.644l.01.136c.014.246.031.496.049.747l.01.149c.018.258.036.515.06.772.067.737.141 1.404.224 2.041.012.094.024.174.036.25.094.69.189 1.312.292 1.899.038.216.081.435.126.654l.031.153a52.339 52.339 0 0 0 .783 3.497l.034.132.028.094.062.214c.174.639.366 1.291.582 1.974 2.85 14.834 12.297 28.437 26.384 38.276l-.243.616-.189.479a390.167 390.167 0 0 0-1.578 4.023l-.252.662-.143.378a393.935 393.935 0 0 0-1.614 4.293l-.17.467-.113.311a394.585 394.585 0 0 0-1.661 4.615l-.124.355-.061.175a403.63 403.63 0 0 0-1.692 4.918l-.048.143-.039.117a383.109 383.109 0 0 0-1.439 4.362l-.089.259-.024.092-.076.237-.084.264-.034.105a400.03 400.03 0 0 0-3.179 10.402l-.027.094a401.593 401.593 0 0 0-1.331 4.683l-.054.195a414.243 414.243 0 0 0-1.256 4.641l-.036.135-.018.069a388.53 388.53 0 0 0-1.201 4.667l-.003.012-.013.052-.017.068a399.458 399.458 0 0 0-2.674 11.386l-.016.074a404.323 404.323 0 0 0-1.025 4.811l-.032.158c-.33 1.599-.647 3.189-.956 4.78l-.016.086-.014.074a398.045 398.045 0 0 0-.881 4.71l-.028.133-.02.134a405.063 405.063 0 0 0-1.059 6.159l-.001.004-.057.351-.006.034-.001.009a404.56 404.56 0 0 0-2.144 14.933v.001l-.009.071-.012.095a400.404 400.404 0 0 0-2.867 37.646l-.002.062-.009.32a398.87 398.87 0 0 0-.133 14.914l.004.343.001.107c.055 5.023.205 10.08.447 15.019l.005.1c.115 2.326.257 4.751.423 7.221l.013.204.029.439c.334 4.836.766 9.759 1.284 14.628l.082.757.019.173a398.17 398.17 0 0 0 1.851 14.526l.081.541.053.354c.324 2.182.669 4.375 1.025 6.518l.054.332.089.539a406.13 406.13 0 0 0 1.285 7.243l.057.295.029.151a389.15 389.15 0 0 0 1.302 6.585l.274 1.322c.982 4.681 2.061 9.4 3.208 14.027.097.393.197.787.296 1.182l.065.258c.52 2.066 1.053 4.114 1.583 6.084l.093.35.162.609a397.06 397.06 0 0 0 1.946 6.917c.077.266.156.532.236.798l.14.47c.56 1.899 1.146 3.835 1.742 5.752l.136.438c.114.368.228.736.344 1.104a385.41 385.41 0 0 0 2.217 6.825l.121.354.067.196a382.05 382.05 0 0 0 2.778 7.95c.761 2.11 1.486 4.071 2.215 5.996l.111.297.18.481a392.371 392.371 0 0 0 3.107 7.875l.189.463a405.42 405.42 0 0 0 2.211 5.322l.234.555c.142.337.284.673.428 1.01a405.81 405.81 0 0 0 2.874 6.544c.12.266.24.529.362.793l.229.5a397.433 397.433 0 0 0 2.5 5.395l.039.083a410.429 410.429 0 0 0 3.975 8.196l.021.042.01.018.008.016.02.038a393.067 393.067 0 0 0 2.744 5.371l.134.256.08.153a418.722 418.722 0 0 0 2.573 4.859v.001l.06.111.064.118.187.375.079.119a385.504 385.504 0 0 0 2.453 4.468l.001.002.231.425.03.043a405.909 405.909 0 0 0 4.821 8.39l.006.011.074.126.075.127.001.002a405.266 405.266 0 0 0 5.003 8.228l.449.93.36.36a401.93 401.93 0 0 0 4.97 7.693l.01.015.015.022a401.109 401.109 0 0 0 5.727 8.41l.02.029.027.038.004.006a401.624 401.624 0 0 0 7.736 10.668l.004.005.156.207.091.12.044.059a402.96 402.96 0 0 0 3.286 4.303l.005.007.043.056a417.548 417.548 0 0 0 3.001 3.825l.119.15.042.063.199.242.081.102.004.004a396.868 396.868 0 0 0 3.136 3.882l.054.066.29.363.038.038a391.92 391.92 0 0 0 2.668 3.216l.004.007.409.486a398.18 398.18 0 0 0 9.383 10.752l.174.192a391.427 391.427 0 0 0 6.049 6.527l.135.142.065.069a397.476 397.476 0 0 0 6.216 6.403l.109.11a397.837 397.837 0 0 0 33.645 30.196l.012.01.039.031a398.636 398.636 0 0 0 7.037 5.494l5.515-7.113-5.467 7.149.081.062a402.878 402.878 0 0 0 7.134 5.314l.027.02.032.023a400.27 400.27 0 0 0 44.622 28.132l.004.004.846.456a402.392 402.392 0 0 0 21.225 10.63 401.819 401.819 0 0 0 85.458 28.525l.1.021c1.648.35 3.25.68 4.854 1l.283.056c1.569.312 3.14.615 4.713.908l.329.062c1.575.292 3.146.574 4.719.846l.302.053c1.604.276 3.207.543 4.812.799l.174.028a401.323 401.323 0 0 0 40.813 4.373l.183.009.112.006c1.572.086 3.149.163 4.726.23l.402.016.246.01c1.466.06 2.926.112 4.386.156l.533.015.337.009c1.395.039 2.785.071 4.175.094l1.018.016c1.353.02 2.703.033 4.054.039l1.091.004.666.001c1.116 0 2.231-.005 3.347-.014l.162-.001.929-.009c1.346-.015 2.697-.038 4.048-.066l.313-.006.73-.016a382.8 382.8 0 0 0 4.164-.123l.344-.011.575-.019a404.28 404.28 0 0 0 4.405-.188l.263-.012.409-.019c1.632-.081 3.267-.172 4.902-.273l.123-.007c6.89-.43 13.818-1.044 20.635-1.828l.516-.062.348-.042a389.89 389.89 0 0 0 4.176-.51l.794-.105.468-.062c1.255-.164 2.512-.333 3.77-.511.351-.049.702-.101 1.053-.152l.444-.065a280.127 280.127 0 0 0 4.861-.735l.316-.05a400.217 400.217 0 0 0 5.126-.846 383.774 383.774 0 0 0 8.369-1.533 330.056 330.056 0 0 0 5.051-1.015l.406-.084c.461-.096.922-.191 1.382-.289a393.26 393.26 0 0 0 3.296-.718l.489-.108c.417-.092.834-.184 1.25-.278a383.9 383.9 0 0 0 3.386-.785l.514-.12a227.477 227.477 0 0 0 4.724-1.15l.51-.126c.299-.073.597-.147.896-.223 1.401-.355 2.8-.721 4.199-1.093l.31-.081.482-.127c3.354-.898 6.74-1.852 10.07-2.837.243-.072.483-.145.723-.218l.467-.141a405.2 405.2 0 0 0 3.764-1.143c.362-.112.723-.227 1.084-.342l.6-.19a409.47 409.47 0 0 0 3.26-1.038c.449-.146.895-.294 1.342-.442l.562-.186a275.285 275.285 0 0 0 4.635-1.561l.415-.143c.97-.335 1.941-.671 2.911-1.014.635-.225 1.27-.453 1.904-.681l.17-.061a389.738 389.738 0 0 0 17.565-6.793c.704-.291 1.411-.584 2.118-.881.928-.39 1.86-.789 2.791-1.189l.407-.175c.554-.238 1.108-.475 1.661-.717.954-.416 1.906-.84 2.858-1.264l.52-.231c.492-.219.984-.437 1.475-.659a397.12 397.12 0 0 0 2.838-1.301l.12-.056.635-.292c.414-.19.828-.38 1.241-.574a357.11 357.11 0 0 0 3.132-1.488l.128-.061.594-.283c.318-.151.637-.302.955-.456a408.905 408.905 0 0 0 4.802-2.362c1.526-.764 3.08-1.555 4.752-2.419.32-.165.638-.333.956-.5l.56-.294a419.248 419.248 0 0 0 3.191-1.68c.448-.239.896-.481 1.344-.724l.459-.248c.958-.517 1.916-1.037 2.869-1.561.603-.332 1.204-.667 1.804-1.002l.078-.043a385.573 385.573 0 0 0 7.38-4.217l.079-.046a428.68 428.68 0 0 0 1.761-1.035c.935-.554 1.863-1.113 2.791-1.672l.511-.308c.406-.244.811-.488 1.214-.735a387.424 387.424 0 0 0 3.043-1.881l.511-.317c.301-.186.602-.372.901-.56a394.866 394.866 0 0 0 4.413-2.812l.06-.038.035-.023a396.36 396.36 0 0 0 4.26-2.798c.297-.198.595-.399.893-.6l.505-.341c.976-.656 1.951-1.313 2.92-1.976.395-.271.791-.545 1.188-.82l.443-.307c.885-.612 1.768-1.226 2.646-1.844a406.152 406.152 0 0 0 5.944-4.268c.844-.618 1.683-1.238 2.519-1.86l.156-.116a366.487 366.487 0 0 0 4.083-3.083l.461-.352c.353-.27.706-.539 1.057-.81.959-.742 1.909-1.486 2.857-2.232l.459-.36c.247-.193.493-.385.738-.58a404.86 404.86 0 0 0 7.979-6.502c.256-.214.51-.43.764-.646l.443-.376c.903-.762 1.804-1.524 2.698-2.292.337-.29.672-.581 1.008-.872l.427-.371a385.27 385.27 0 0 0 2.433-2.125 413.18 413.18 0 0 0 7.637-6.914l.144-.134a302.495 302.495 0 0 0 3.683-3.47l.407-.388c.301-.286.602-.573.901-.861a408.54 408.54 0 0 0 2.666-2.595l.369-.36c.201-.196.402-.391.601-.589a395.654 395.654 0 0 0 7.153-7.252c.219-.228.436-.456.652-.685l.381-.401c.82-.859 1.638-1.72 2.45-2.586.301-.321.596-.64.892-.959l.348-.375a415.56 415.56 0 0 0 2.204-2.39 412.405 412.405 0 0 0 4.698-5.238c.698-.791 1.392-1.587 2.084-2.385l.054-.062c.396-.457.793-.914 1.187-1.373.718-.836 1.432-1.678 2.145-2.522l.337-.398c.259-.306.518-.612.776-.92.804-.961 1.6-1.925 2.393-2.891l.315-.382.503-.611c.963-1.181 1.92-2.367 2.871-3.56l.01-.01.303-.383.082-.102.012-.016a400.176 400.176 0 0 0 9.978-13.128l.084-.115a397.164 397.164 0 0 0 8.608-12.304l.012-.014.232-.347.166-.246.009-.016a393.305 393.305 0 0 0 3.627-5.529l.09-.112.248-.413.083-.129.3-.466a395.036 395.036 0 0 0 3.677-5.852l.001-.002.251-.408.008-.012.534-.87.003-.01.041-.067.002-.003a401.037 401.037 0 0 0 11.361-19.861l.25-.47a402.097 402.097 0 0 0 24.094-54.689l.063-.177c.548-1.55 1.091-3.113 1.623-4.68l.014-.041.052-.151a402.961 402.961 0 0 0 10.019-34.545l.039-.162.028-.116c.374-1.549.737-3.096 1.091-4.645l.07-.307.033-.143c.347-1.526.683-3.046 1.011-4.567l.042-.193.052-.242c.339-1.585.669-3.169.988-4.756l.036-.177a401.83 401.83 0 0 0 4.254-25.358l.036-.27.023-.175c.202-1.511.395-3.018.579-4.527l.067-.553.025-.211c.17-1.417.334-2.84.489-4.263l.017-.154.075-.696c.152-1.423.296-2.839.433-4.258l.03-.304.049-.506c.14-1.484.271-2.969.394-4.454l.021-.252.027-.314c.554-6.803.938-13.694 1.14-20.484l.009-.346.007-.253c.042-1.476.076-2.939.101-4.403l.01-.726.004-.334c.02-1.316.033-2.638.039-3.961l.003-1.021v-.228c.002-1.276-.002-2.548-.013-3.82l-.012-1.3a377.263 377.263 0 0 0-.063-3.835l-.007-.359-.019-.869a388.42 388.42 0 0 0-.121-4.062l-.013-.397-.02-.585a391.825 391.825 0 0 0-.203-4.73l-.004-.093-.009-.207c-.17-3.431-.388-6.902-.648-10.325l-.033-.415-.021-.258c-.112-1.443-.23-2.885-.358-4.327l-.077-.836-.044-.474a409.87 409.87 0 0 0-.356-3.7c-.043-.426-.088-.849-.133-1.273l-.031-.292a456.96 456.96 0 0 0-.574-5.134 421.75 421.75 0 0 0-.416-3.382l-.013-.103a398.457 398.457 0 0 0-.673-5.016l-.069-.492a200.07 200.07 0 0 0-.158-1.117 398.204 398.204 0 0 0-.545-3.629l-.077-.504c-.045-.295-.089-.589-.136-.884-.23-1.459-.471-2.921-.719-4.383l-.034-.207-.068-.409a402.913 402.913 0 0 0-.91-5.121l-.047-.247-.016-.083a386.996 386.996 0 0 0-.889-4.64c-.059-.299-.12-.598-.181-.897l-.111-.544c-.238-1.18-.478-2.358-.727-3.535-.091-.431-.184-.861-.278-1.29l-.101-.466a387.504 387.504 0 0 0-1.861-8.203 392.142 392.142 0 0 0-1.228-5.004l-.054-.215c-.144-.57-.288-1.141-.434-1.71a376.473 376.473 0 0 0-.819-3.12l-.147-.553c-.115-.432-.229-.865-.346-1.297-.302-1.111-.611-2.22-.922-3.328l-.161-.579c-.096-.347-.193-.694-.292-1.041-.404-1.419-.82-2.838-1.241-4.257l-.077-.262-.116-.397a409.209 409.209 0 0 0-1.519-4.955c-.083-.264-.167-.525-.251-.786l-.161-.501c-.382-1.204-.767-2.41-1.162-3.614-.135-.41-.272-.821-.409-1.231l-.188-.563c-.344-1.034-.69-2.069-1.044-3.103-.183-.536-.369-1.069-.554-1.602l-.125-.359c-.341-.98-.685-1.961-1.034-2.94-.24-.672-.483-1.344-.726-2.016a428.62 428.62 0 0 0-1.817-4.911 420.03 420.03 0 0 0-1.107-2.892l-.088-.228c-.227-.588-.455-1.176-.685-1.764-.389-.99-.785-1.979-1.182-2.969l-.101-.251c14.076-9.835 23.517-23.43 26.37-38.254.078-.24.155-.48.227-.721.086-.287.166-.58.245-.872l.065-.239.043-.153c.05-.176.099-.352.145-.529.219-.837.403-1.609.561-2.351.031-.145.058-.289.085-.433l-.007.035c.04-.194.072-.368.105-.541l.028-.151c.169-.888.312-1.758.427-2.591.022-.136.042-.271.059-.405a51.36 51.36 0 0 0 .336-3.638c.067-1.14.098-2.103.098-3.033 0-9.867-2.895-19.722-8.372-28.5a61.419 61.419 0 0 0-1.84-2.776c-2.169-3.086-4.735-6.094-7.625-8.942a72.186 72.186 0 0 0-4.268-3.885 77.637 77.637 0 0 0-10.148-7.172 84.064 84.064 0 0 0-5.978-3.229 88.415 88.415 0 0 0-5.84-2.596 90.313 90.313 0 0 0-4.383-1.632c-7.219-2.474-14.743-4.063-22.464-4.751.49-5.573.738-11.171.738-16.732 0-25.567-5.009-50.375-14.889-73.733-9.541-22.557-23.197-42.813-40.59-60.206-17.393-17.393-37.649-31.049-60.206-40.59-23.364-9.886-48.171-14.895-73.739-14.895zM51.676 668.494z" class="st0"/><circle cx="660.702" cy="506.189" r="11.035" class="st25" transform="rotate(-17.484 660.73 506.244)"/><path d="M695.54 434.379a7.356 7.356 0 1 0 14.212 3.808 7.356 7.356 0 0 0-5.202-9.01 7.355 7.355 0 0 0-9.01 5.202z" class="st25"/><path d="M790 271.571c0-30.181-31.853-54.875-70.784-54.875H80.784C41.853 216.696 10 241.39 10 271.571c0 19.901 13.853 37.411 34.448 47.034l-2.044.002C-1.947 420.777-2.44 541.131 51.297 648.532c96.357 192.583 330.589 270.59 523.173 174.233 186.559-93.343 265.598-316.071 182.765-504.984 19.659-9.776 32.765-26.859 32.765-46.21z" class="st24"/><path fill="#edc531" d="M719.82 191.356c0-99.642-80.776-180.418-180.418-180.418-55.053 0-104.339 24.666-137.432 63.541-20.24-24.248-50.682-39.684-84.736-39.684-60.938 0-110.338 49.4-110.338 110.338 0 1.004.049 1.996.076 2.994a109.473 109.473 0 0 0-17.968-1.503c-47.38 0-87.683 30.277-102.635 72.535h631.319a181.892 181.892 0 0 0 2.132-27.803z"/><path fill="#cea628" d="M688.95 138.462c-19.263-61.194-76.375-104.78-140.302-108.236-5.373-.385-12.001-.334-17.412-.062l-2.898.12-2.889.277-5.771.57c-1.913.27-6.781 1.038-8.597 1.307-4.439.882-9.698 2.02-14.093 3.28-29.404 8.134-56.383 25.405-75.747 49.005 23.351-21.301 52-36.332 83.119-42.22 5.156-.939 11.053-1.722 16.285-2.247 1.872-.097 6.352-.401 8.196-.493 11.741-.307 23.815.353 35.346 2.568 58.442 10.273 107.33 54.378 125.611 110.682 2.353 7.13 4.163 14.381 5.721 21.733-.626-12.297-2.895-24.529-6.569-36.284zM311.261 52.634c-29.049 2.611-56.215 20.886-68.121 47.642 37.556-51.836 113.869-51.176 147.304 4.155 9.948 16.703 14.246 36.932 12.122 57.302.823-2.429 1.468-4.92 2.039-7.439 1.375-6.295 1.889-12.929 1.732-19.381-1.26-48.893-46.569-87.412-95.076-82.279zm-72.576 135.062c-1.986-3.17-4.463-6.092-7.012-8.824-.765-.782-2.742-2.552-3.54-3.346l-2.537-2.039c-1.422-1.226-3.779-2.681-5.337-3.764-1.83-1.063-3.813-2.248-5.747-3.136-17.366-8.426-39.4-8.912-55.928 1.572 28.355-1.946 52.873 4.284 75.124 21.981.749.647 2.678 2.211 3.483 2.862 1.45 1.332 3.147 2.694 4.578 4.076 2.905 2.621 2.549 2.62 1.302-.893-1.069-2.865-2.74-5.901-4.386-8.489z" opacity=".5"/><path d="M718.012 222.79H81.988c-38.784 0-70.516 24.6-70.516 54.668 0 30.067 31.732 54.668 70.516 54.668h636.023c38.784 0 70.516-24.601 70.516-54.668.001-30.067-31.731-54.668-70.515-54.668z" opacity=".2"/><path d="M416.254 216.696H80.784C41.853 216.696 10 241.39 10 271.571s31.853 54.875 70.784 54.875h335.47" class="st24"/><path d="M383.746 216.696h335.47c38.931 0 70.784 24.694 70.784 54.875s-31.853 54.875-70.784 54.875h-335.47" class="st24"/><circle cx="289.623" cy="772.431" r="36.783" class="st25" transform="rotate(-84.997 289.645 772.436)"/><circle cx="561.887" cy="740.044" r="22.796" class="st25" transform="rotate(-4.002 562.199 740.423)"/><circle cx="635.08" cy="401.124" r="25.748" class="st25" transform="rotate(-78.784 635.104 401.122)"/><path d="M444.328 791.001c5.896 1.58 11.957-1.919 13.537-7.815 1.58-5.896-1.919-11.957-7.815-13.537-5.896-1.58-11.957 1.919-13.537 7.815-1.581 5.896 1.918 11.957 7.815 13.537zM187.027 643.797c-1.686 6.293 2.048 12.762 8.342 14.448 6.293 1.686 12.762-2.048 14.448-8.342 1.686-6.293-2.048-12.762-8.342-14.448-6.293-1.686-12.762 2.049-14.448 8.342z" class="st25"/><circle cx="127.736" cy="459.346" r="58.853" class="st25" transform="rotate(-45.001 127.731 459.35)"/><path d="M715.891 585.241c-35.321-9.464-71.626 11.497-81.09 46.818-9.464 35.321 11.497 71.626 46.817 81.09a65.98 65.98 0 0 0 25.117 1.773 390.354 390.354 0 0 0 53.218-90.966c-7.599-18.39-23.357-33.167-44.062-38.715zm-613.523 59.582c-17.218-4.614-34.779 1.627-45.446 14.517 13.741 25.479 29.945 48.84 48.17 69.93 13.492-4.579 24.524-15.591 28.488-30.387 6.309-23.547-7.665-47.751-31.212-54.06z" class="st25"/><linearGradient id="SVGID_00000123404404294268303070000012240374846969068673_" x1="395.811" x2="403.855" y1="423.98" y2="794.394" gradientTransform="translate(0 -82.11)" gradientUnits="userSpaceOnUse"><stop offset="0" stop-color="#7ad9f2"/><stop offset="1" stop-color="#1450c2"/></linearGradient><circle cx="400" cy="534.77" r="185.25" fill="url(#SVGID_00000123404404294268303070000012240374846969068673_)"/><path d="M299.222 564.977c-4.544 2.406-7.752 5.079-12.698 4.01 11.628-16.44 23.657-32.479 24.058-54.131-1.738.267-3.074.535-4.411.535-9.891.668-19.113-1.069-26.732-7.886-4.143-3.609-6.683-8.42-8.153-13.767-1.871-6.817-3.475-13.633-4.678-20.583-.535-2.807-.134-5.881-.134-7.886 3.475 2.94 6.95 5.881 10.425 8.955 7.084 6.282 14.702 9.222 24.326 6.282 8.02-2.406 16.306-4.01 23.123-9.222 2.94-2.272 5.346-5.213 7.886-8.019 7.752-8.688 17.242-15.103 27.4-20.583 7.351-4.01 14.97-7.618 23.39-8.688 3.341-.401 6.683-.936 9.891-.802 16.841.668 31.142-6.015 44.374-15.371 3.609-2.539 7.084-5.213 11.094-8.02.668 7.886.668 15.504-2.94 23.791 9.222-1.337 17.777-2.406 26.999-3.742-1.203 4.945-2.54 9.891-3.742 14.97-.134.668-.401 1.47-.802 2.139-1.337 2.406-.267 3.208 2.005 3.742 8.153 1.47 16.173 3.074 24.326 4.544.535.134.936.134 2.272.267-3.341 3.876-6.282 7.217-9.49 10.96 8.287 2.005 15.772 1.069 22.989-1.738 7.351-2.807 12.831-8.153 16.306-15.638 4.277 5.346 6.549 10.96 7.218 17.108 1.604 13.099-3.609 23.257-14.301 30.741-8.287 5.747-17.242 10.158-26.732 13.499-.936.401-2.005.802-3.742 1.47a15978.643 15978.643 0 0 0 23.39 51.325h-11.896c.401 1.604.668 2.94 1.069 4.143 4.143 14.836 2.673 28.202-9.49 39.028a534.785 534.785 0 0 0-12.698 11.896c-8.821 8.42-17.643 16.841-26.331 25.395-2.406 2.272-4.277 5.079-7.084 8.42-1.871-5.747-3.609-10.96-5.346-16.574-.535.267-1.871.668-2.94 1.203-14.569 7.351-29.939 12.297-46.112 14.168-14.168 1.604-27.935.134-41.3-5.213-13.9-5.614-27.534-11.896-39.563-21.118-6.683-5.213-12.831-10.96-15.772-19.247-1.738-4.945-1.738-9.891-.401-15.103 1.873-8.018 3.209-16.305 4.947-25.26zm60.814-24.326c1.203 9.757 6.015 17.376 11.361 24.86.535.668 1.604 1.069 2.539 1.203 18.846 3.475 37.424 3.074 56.136-1.604 8.554-2.138 13.366-6.148 15.504-14.435.802-3.341 2.272-6.549 3.341-9.757.401 0 .668-.134 1.069-.134 2.272 4.678 4.678 9.356 7.218 14.569.267-.936.401-1.47.401-2.005.535-11.896 1.47-23.657 1.604-35.553.134-10.826-3.609-20.717-10.425-29.271-.802-.936-1.738-1.604-2.272-2.138-2.539 3.609-4.945 6.817-7.485 10.425-3.742-8.554-7.485-15.905-13.366-22.455-2.539 6.549-7.351 10.292-12.163 14.569-.802-4.411-1.203-8.153-2.005-11.896-1.069-4.277-2.673-5.48-6.95-5.48-1.337 0-2.807-.134-4.143.134-9.757 2.272-19.514 4.411-29.004 7.218-7.752 2.272-15.638 4.678-22.588 9.222-5.346 3.475-9.356 7.752-10.693 14.034-1.069 5.213-1.604 10.693-2.005 15.905-1.47 15.237 2.673 29.004 10.96 41.701.401.668.668 1.337.936 2.005.267-.267.668-.401.936-.668.268-8.42 3.075-15.637 11.094-20.449zm-40.231-131.52c7.619-4.143 14.97-8.019 22.856-12.297 1.069 3.074 2.139 6.015 3.074 8.955 2.807 8.287 5.48 16.574 8.42 24.86.668 2.005.267 2.94-1.47 3.742-8.42 3.876-5.48 4.544-11.628-1.738-6.95-7.218-13.499-14.702-20.182-22.054-.402-.532-.669-.933-1.07-1.468zm33.147-6.95c5.747-1.337 11.227-2.673 17.108-4.01 0 9.089 0 17.91-.134 26.732 0 .802-.936 1.871-1.738 2.272-1.47.802-3.208 1.069-5.079 1.738-3.34-8.955-6.681-17.643-10.157-26.732z" class="st0"/><path d="M319.271 424.636c6.416 5.614 12.564 11.227 19.113 16.975-2.272 1.871-4.143 3.475-6.282 4.812-.668.401-2.005.134-2.94-.134-6.817-2.673-13.633-5.346-20.851-8.153 3.608-4.545 7.217-8.956 10.96-13.5zm38.76 79.393c1.738.668 3.074 1.203 4.544 1.738 11.227 4.678 22.455 9.49 33.815 14.034 2.272.936 2.54 1.871 1.604 4.143-3.609 8.42-12.029 13.366-21.118 12.029-1.871-.267-3.609-.401-5.48-.802-12.564-2.807-17.91-10.826-15.504-23.524.536-2.539 1.337-4.945 2.139-7.618zm50.79 16.573c12.43-3.876 24.593-7.886 36.622-11.762 4.277 9.623-2.005 21.92-13.098 26.197-9.356 3.743-19.38-2.272-23.524-14.435z" class="st0"/></svg>