<svg xmlns="http://www.w3.org/2000/svg" xmlns:xlink="http://www.w3.org/1999/xlink" xml:space="preserve" id="Layer_1" x="0" y="0" version="1.1" viewBox="0 0 800 875"><style>.st0{fill:#fff}.st1{fill:#84b9df}.st8{opacity:.2}.st9{fill:#6890b4}.st48{fill:#f8f2ea}.st127{fill:#d52b2b}.st128,.st129{stroke:#000;stroke-width:3.1285;stroke-miterlimit:10}.st129{fill:none}.st133{fill:#ba2221}.st134{fill:#ffca5c}.st135{fill:#e8854c}</style><path d="M398.521 868.555a382.646 382.646 0 0 1-4.003-.039l-1.01-.016a378.658 378.658 0 0 1-4.12-.094l-.862-.023a364.415 364.415 0 0 1-4.334-.155l-.651-.026a385.302 385.302 0 0 1-4.672-.228l-.288-.015a396.272 396.272 0 0 1-40.325-4.319l-.208-.034c-1.58-.253-3.164-.516-4.746-.789l-.32-.056a390.264 390.264 0 0 1-4.643-.833l-.342-.064a383.477 383.477 0 0 1-4.649-.896l-.255-.051c-1.61-.321-3.194-.647-4.775-.983l-.161-.034a397.227 397.227 0 0 1-84.485-28.202 397.59 397.59 0 0 1-20.986-10.511 395.813 395.813 0 0 1-44.977-28.282l-.062-.044a397.022 397.022 0 0 1-7.047-5.249l-.113-.087a393.85 393.85 0 0 1-6.957-5.432l-.101-.082a392.882 392.882 0 0 1-33.211-29.81l-.1-.1a390.552 390.552 0 0 1-6.152-6.338l-.204-.215a392.908 392.908 0 0 1-5.981-6.455l-.143-.157a391.8 391.8 0 0 1-9.091-10.409l-.31-.367a400.79 400.79 0 0 1-3.229-3.892l-.113-.14a394.621 394.621 0 0 1-3.127-3.871l-.562-.709a366.348 366.348 0 0 1-2.172-2.762l-.012-.006-1.561-2.021v-.005a370.618 370.618 0 0 1-1.911-2.507l-1.483-.82-.001-1.156a392.38 392.38 0 0 1-6.862-9.493l-.157-.225a394.128 394.128 0 0 1-10.796-16.279l-.959-.958-.001-.576a398.943 398.943 0 0 1-4.547-7.497l-.05-.084a399.647 399.647 0 0 1-4.994-8.693l-.182-.274-.062-.166a406.186 406.186 0 0 1-2.387-4.353l-.042-.065-.089-.176a427.333 427.333 0 0 1-2.709-5.111l-.207-.395a395.406 395.406 0 0 1-2.711-5.307l-.093-.184a406.968 406.968 0 0 1-3.094-6.343l-.846-1.785a393.632 393.632 0 0 1-2.474-5.339l-.58-1.268a405.737 405.737 0 0 1-2.844-6.475l-.658-1.557a409.21 409.21 0 0 1-2.185-5.255l-.679-1.67a404.817 404.817 0 0 1-2.58-6.576l-.288-.771a379.962 379.962 0 0 1-2.189-5.926l-.615-1.717a402.154 402.154 0 0 1-2.131-6.142l-.19-.557a389.411 389.411 0 0 1-2.188-6.738l-.473-1.52a398.379 398.379 0 0 1-1.725-5.69l-.37-1.253a385.164 385.164 0 0 1-1.925-6.841l-.252-.947a372.315 372.315 0 0 1-1.565-6.019l-.357-1.426a394.56 394.56 0 0 1-3.17-13.858l-.271-1.311a393.798 393.798 0 0 1-1.288-6.509l-.089-.465c-.428-2.28-.844-4.624-1.267-7.139l-.141-.86a404.56 404.56 0 0 1-1.014-6.442l-.132-.882a392.701 392.701 0 0 1-1.83-14.364l-.1-.923a392.718 392.718 0 0 1-1.27-14.467l-.042-.62c-.16-2.387-.302-4.763-.419-7.139l-.005-.108a394.346 394.346 0 0 1-.442-14.86l-.005-.448c-.049-4.854-.004-9.82.133-14.746l.01-.38a396.413 396.413 0 0 1 2.837-37.229l.018-.14a399.23 399.23 0 0 1 2.065-14.432v-.053l.04-.213.007-.083.037-.17.076-.461c.306-1.857.625-3.713.957-5.565v-.417l.146-.39c.266-1.462.539-2.923.821-4.382l.042-.214c.292-1.517.606-3.088.93-4.657l.038-.181c.323-1.566.658-3.14 1.003-4.712l4.419.858-4.396-.965a399.554 399.554 0 0 1 2.645-11.258l.115-.524.031-.062c.355-1.407.712-2.786 1.074-4.163l.059-.219a378.16 378.16 0 0 1 1.234-4.563l.066-.239c.415-1.495.852-3.032 1.297-4.565l.055-.185c.977-3.36 2.037-6.83 3.131-10.242l.193-.603.056-.265.102-.222c.447-1.381.902-2.76 1.365-4.136l.091-.27c.545-1.62 1.104-3.244 1.673-4.864l.178-.508c.542-1.534 1.09-3.055 1.646-4.573l.279-.765c.525-1.423 1.06-2.84 1.6-4.255l.386-1.016c.515-1.335 1.037-2.66 1.563-3.984l.483-1.223a416.58 416.58 0 0 1 1.324-3.248c-14.86-9.342-24.815-22.88-27.57-37.668a48.05 48.05 0 0 1-.624-2.101l-.1-.351a48.16 48.16 0 0 1-.585-2.533l-.17-.864a24.049 24.049 0 0 1-.104-.535 49.171 49.171 0 0 1-.278-1.819l-.019-.127c-.084-.63-.15-1.252-.208-1.876a103.268 103.268 0 0 1-.153-2.232 49.097 49.097 0 0 1-.045-2.062c0-9.153 2.587-17.94 7.69-26.118a54.7 54.7 0 0 1 1.705-2.572 60.475 60.475 0 0 1 5.978-7.215 67.203 67.203 0 0 1 6.037-5.493 73.015 73.015 0 0 1 7.566-5.353 77.45 77.45 0 0 1 6.226-3.459 83.011 83.011 0 0 1 9.048-3.855c9.818-3.522 20.26-5.309 31.032-5.309h3.455c8.255-19.986 21.952-37.081 39.766-49.581 19.104-13.406 41.579-20.492 64.998-20.492 4.43 0 8.922.271 13.413.808 1.176-62.312 52.23-112.637 114.818-112.637 32.387 0 62.979 13.547 84.739 37.35C437.058 28.682 486.848 6.44 539.398 6.44c101.964 0 184.918 82.954 184.918 184.918 0 6.96-.396 13.975-1.18 20.92 8.954.365 17.666 1.981 25.947 4.82a85.706 85.706 0 0 1 9.701 4.011 80.337 80.337 0 0 1 5.656 3.054 73.282 73.282 0 0 1 9.562 6.756A67.26 67.26 0 0 1 778 234.56c2.701 2.663 5.091 5.463 7.102 8.325a54.993 54.993 0 0 1 1.706 2.572c5.102 8.175 7.688 16.963 7.688 26.116 0 .847-.028 1.727-.09 2.769l-.041.63a45.42 45.42 0 0 1-.265 2.685l-.046.307c-.119.86-.251 1.651-.401 2.437l-.188.98a45.965 45.965 0 0 1-.52 2.174l-.237.863c-.068.255-.138.51-.214.764-.078.262-.162.519-.246.775l-.038.117c-2.755 14.783-12.704 28.319-27.56 37.661.246.593.491 1.187.732 1.78l.751 1.863c.393.977.783 1.955 1.169 2.935l.751 1.933a370.612 370.612 0 0 1 1.856 4.897c.353.951.702 1.901 1.047 2.853.241.665.482 1.33.719 1.996.346.966.685 1.935 1.021 2.904 0 0 .467 1.338.672 1.938.351 1.022.691 2.045 1.033 3.068l.592 1.778c.39 1.189.771 2.382 1.148 3.575l.405 1.267a376.09 376.09 0 0 1 1.5 4.896l.192.657a405.97 405.97 0 0 1 1.229 4.211l.449 1.604c.306 1.093.612 2.188.909 3.286.124.453.488 1.831.488 1.831.273 1.025.545 2.053.811 3.082l.482 1.904c.255 1.008.506 2.019.752 3.029l.461 1.916c.243 1.019.481 2.038.716 3.058l.428 1.871c.238 1.063.47 2.124.698 3.186l.374 1.731c.246 1.165.483 2.329.719 3.493l.289 1.43c.303 1.525.595 3.055.879 4.585l.064.342c.31 1.672.608 3.361.898 5.051l.1.601c.245 1.452.483 2.896.712 4.34l.21 1.373c.184 1.193.365 2.391.539 3.588l.224 1.591c.159 1.128.315 2.259.464 3.39l.215 1.663c.143 1.118.28 2.235.411 3.351l.193 1.649c.131 1.144.255 2.286.375 3.427l.161 1.543c.124 1.22.24 2.439.353 3.659l.12 1.294c.126 1.428.243 2.853.354 4.276l.054.67c.257 3.384.472 6.816.64 10.2l.014.297c.076 1.563.143 3.121.2 4.679l.032.977c.047 1.333.087 2.672.119 4.01l.025 1.219c.027 1.26.048 2.525.063 3.79l.012 1.28c.01 1.265.015 2.522.013 3.78l-.003 1.24c-.006 1.305-.02 2.611-.038 3.917l-.016 1.046a389.36 389.36 0 0 1-.1 4.34l-.016.604a394.838 394.838 0 0 1-1.127 20.251l-.048.568a396.321 396.321 0 0 1-.39 4.399l-.077.8a414.688 414.688 0 0 1-.427 4.201l-.092.846a380.68 380.68 0 0 1-.484 4.222l-.091.752a371.884 371.884 0 0 1-.572 4.474l-.058.438a397.483 397.483 0 0 1-4.204 25.066l-.021.107a422.039 422.039 0 0 1-.994 4.783l-.097.447c-.32 1.488-.652 2.99-.994 4.491l-.103.454c-.351 1.53-.709 3.059-1.078 4.585l-.068.286a398.409 398.409 0 0 1-9.907 34.159l-.038.111a397.44 397.44 0 0 1-1.633 4.709l-.057.162a397.88 397.88 0 0 1-23.826 54.08l-.245.458a396.561 396.561 0 0 1-11.434 19.965l-.379.622a391.328 391.328 0 0 1-3.628 5.789l-.792 1.233a395.956 395.956 0 0 1-3.868 5.898l-.133.222-.088.105a394.218 394.218 0 0 1-8.627 12.334l-.061.084a397.822 397.822 0 0 1-9.619 12.67l-.092.194-.362.379-.073.09a419.855 419.855 0 0 1-2.958 3.672l-.81.981c-.783.954-1.569 1.907-2.362 2.854l-1.1 1.303c-.707.837-1.412 1.669-2.123 2.497l-1.229 1.421c-.683.787-1.368 1.573-2.059 2.356l-1.279 1.444a497.421 497.421 0 0 1-3.364 3.732 348.34 348.34 0 0 1-2.179 2.364l-1.226 1.318c-.799.854-1.609 1.706-2.421 2.557l-1.02 1.071a397.886 397.886 0 0 1-7.075 7.174l-.961.939c-.872.855-1.749 1.712-2.633 2.564l-1.296 1.237a298.034 298.034 0 0 1-3.784 3.562c-.757.702-1.517 1.405-2.281 2.104a382.986 382.986 0 0 1-3.788 3.417l-1.478 1.312c-.797.703-1.601 1.402-2.405 2.1l-1.419 1.23c-.885.76-1.775 1.514-2.667 2.266l-1.192 1.008a395.632 395.632 0 0 1-7.891 6.431l-1.179.926c-.94.741-1.88 1.478-2.827 2.209l-1.505 1.152c-.849.649-1.699 1.297-2.555 1.941l-1.633 1.219a398.532 398.532 0 0 1-4.176 3.065c-.834.604-1.672 1.205-2.512 1.803-.587.418-1.133.807-1.682 1.193a379.4 379.4 0 0 1-2.615 1.822l-1.616 1.117c-.955.654-1.919 1.304-2.884 1.952l-1.382.93a416.405 416.405 0 0 1-4.258 2.796l-.108.07a381.772 381.772 0 0 1-4.305 2.743l-1.394.865c-1 .623-2.001 1.245-3.008 1.86l-1.708 1.032c-.917.553-1.835 1.106-2.759 1.653-.53.315-1.82 1.07-1.82 1.07a372.805 372.805 0 0 1-7.296 4.17c-.618.345-1.237.69-1.86 1.033a411.58 411.58 0 0 1-2.839 1.545s-1.351.731-1.785.962a405.172 405.172 0 0 1-3.151 1.66l-1.5.785a385.308 385.308 0 0 1-9.444 4.726l-1.536.732a404.866 404.866 0 0 1-3.224 1.532c-.429.201-1.859.857-1.859.857-.989.457-1.954.903-2.92 1.34-.49.221-1.975.881-1.975.881-.94.419-1.882.838-2.825 1.25-.591.258-2.045.882-2.045.882-.919.395-1.84.789-2.763 1.177-.607.255-2.09.87-2.09.87-.914.378-1.826.754-2.74 1.125-.703.285-1.405.565-2.106.846a390.875 390.875 0 0 1-12.521 4.747s-1.413.509-2.052.734c-.956.339-1.918.672-2.88 1.003 0 0-1.443.5-1.995.687-1 .338-1.998.669-2.996.999l-1.882.621c-1.073.349-2.148.688-3.225 1.027l-1.667.527c-1.238.384-2.479.758-3.721 1.13l-1.176.355a395.402 395.402 0 0 1-9.951 2.804l-.789.207c-1.381.367-2.766.729-4.15 1.08l-1.389.345c-1.188.296-2.375.591-3.562.875l-1.619.381c-1.115.263-2.232.523-3.349.776l-1.717.381c-1.084.24-2.17.478-3.256.709l-1.768.369c-1.078.224-2.154.444-3.23.658l-1.77.347a385.4 385.4 0 0 1-3.239.616l-1.755.321c-1.09.197-2.185.39-3.277.578l-1.706.291c-1.121.188-2.24.369-3.36.546l-1.617.254c-1.169.181-2.336.353-3.503.522l-1.48.214c-1.241.175-2.484.342-3.728.505l-1.245.165c-1.376.176-2.752.343-4.128.504l-.85.102a394.173 394.173 0 0 1-20.364 1.805l-.156.009c-1.624.101-3.24.19-4.856.271l-.668.03c-1.445.069-2.897.132-4.349.186l-.913.03c-1.368.047-2.74.088-4.109.121l-1.041.022a407.12 407.12 0 0 1-3.999.066l-1.076.01a406.04 406.04 0 0 1-3.311.014l-1.727-.007z" class="st0"/><path d="M539.401 10.941c99.643 0 180.418 80.776 180.418 180.418a181.8 181.8 0 0 1-1.776 25.341h1.172c10.093 0 19.702 1.672 28.412 4.656a80.39 80.39 0 0 1 9.182 3.796 76.02 76.02 0 0 1 5.336 2.881 68.549 68.549 0 0 1 8.97 6.337 62.138 62.138 0 0 1 3.729 3.396c2.454 2.418 4.668 4.989 6.579 7.707a52.298 52.298 0 0 1 1.568 2.365c4.488 7.193 7.008 15.247 7.008 23.736 0 .84-.034 1.674-.083 2.505-.011.191-.022.383-.036.573a42.463 42.463 0 0 1-.24 2.426c-.015.114-.035.226-.05.34-.099.717-.218 1.43-.353 2.138-.036.188-.07.377-.108.565-.023.113-.041.226-.065.339a43.395 43.395 0 0 1-.467 1.955c-.048.185-.103.369-.154.554-.085.309-.165.619-.257.926-.097.323-.205.643-.309.964-.014.042-.025.086-.039.128-2.719 15.13-13.499 28.322-28.846 36.874l.267.629c.218.515.429 1.032.645 1.548.442 1.058.883 2.116 1.315 3.175.25.614.495 1.229.742 1.843.388.967.776 1.934 1.156 2.903.254.648.505 1.297.755 1.946a389.542 389.542 0 0 1 1.822 4.805 382.712 382.712 0 0 1 2.757 7.666c.222.638.445 1.277.664 1.916a372.81 372.81 0 0 1 1.021 3.035c.195.584.392 1.168.584 1.753.385 1.177.762 2.355 1.136 3.534.133.419.27.838.402 1.258a389.16 389.16 0 0 1 1.482 4.836c.065.217.126.433.19.65.412 1.387.818 2.774 1.214 4.163.15.527.295 1.055.442 1.582.304 1.083.606 2.166.901 3.25.164.603.322 1.206.482 1.809.27 1.016.539 2.031.8 3.048.161.627.319 1.255.478 1.882a409.375 409.375 0 0 1 1.2 4.889c.24 1.008.476 2.016.707 3.025a307.14 307.14 0 0 1 1.113 4.994c.123.571.249 1.143.369 1.715.243 1.15.478 2.301.71 3.452.095.47.193.94.286 1.41.299 1.511.588 3.022.869 4.534l.062.323c.309 1.669.605 3.339.891 5.009.034.2.065.4.099.599.242 1.428.477 2.856.703 4.284.071.451.138.903.208 1.354.183 1.184.362 2.367.534 3.551.076.523.147 1.046.221 1.57.157 1.118.311 2.235.458 3.353.072.549.142 1.098.212 1.647a414.04 414.04 0 0 1 .598 4.941c.129 1.128.252 2.255.371 3.383.054.51.108 1.019.16 1.529.123 1.205.237 2.409.348 3.614.039.428.081.856.119 1.284.125 1.408.241 2.817.35 4.225.017.22.037.44.053.66.255 3.363.466 6.725.633 10.086l.013.298c.075 1.54.141 3.081.198 4.62.012.321.021.642.032.963.045 1.322.085 2.644.118 3.965.01.402.017.804.025 1.206.026 1.25.047 2.499.062 3.749l.012 1.269a386.789 386.789 0 0 1-.029 8.83c-.005.345-.008.69-.015 1.034a383.353 383.353 0 0 1-.098 4.291l-.016.596a388.943 388.943 0 0 1-1.114 20.019l-.047.555a421.453 421.453 0 0 1-.385 4.355l-.077.792a384.394 384.394 0 0 1-.422 4.155l-.09.837a388.151 388.151 0 0 1-.479 4.17l-.09.744c-.18 1.475-.369 2.949-.565 4.421l-.058.439a391.062 391.062 0 0 1-4.156 24.776l-.038.185a382.898 382.898 0 0 1-.966 4.648l-.092.427c-.32 1.487-.648 2.972-.986 4.456l-.103.449a392.322 392.322 0 0 1-1.065 4.535l-.066.276a392.505 392.505 0 0 1-9.797 33.778l-.061.18a413.553 413.553 0 0 1-1.647 4.748 391.924 391.924 0 0 1-23.555 53.464l-.243.456v.001a390.813 390.813 0 0 1-11.301 19.734l-.002.003-.376.617-.001.002a395.954 395.954 0 0 1-3.838 6.115l-.45.699-.002.003a388.564 388.564 0 0 1-3.957 6.035l-.004.007-.149.22a388.879 388.879 0 0 1-8.534 12.202v.001l-.06.082a388.619 388.619 0 0 1-9.826 12.924l-.005.006-.004.006-.001.001a397.146 397.146 0 0 1-3.12 3.874c-.264.324-.532.645-.798.968-.775.944-1.553 1.887-2.337 2.824-.361.431-.726.86-1.089 1.29-.696.824-1.395 1.648-2.098 2.467-.402.469-.807.935-1.212 1.401a346.49 346.49 0 0 1-3.304 3.761 405.242 405.242 0 0 1-5.478 6.024c-.403.434-.805.869-1.209 1.302-.794.847-1.594 1.689-2.396 2.53-.336.353-.67.708-1.008 1.06a389.237 389.237 0 0 1-6.993 7.089c-.314.31-.631.617-.947.926-.864.848-1.731 1.695-2.604 2.536-.425.409-.853.814-1.279 1.221-.772.737-1.546 1.472-2.325 2.203-.469.441-.941.879-1.414 1.317a371.04 371.04 0 0 1-9.839 8.833c-.468.406-.934.813-1.404 1.217-.874.751-1.754 1.496-2.636 2.24-.394.332-.785.667-1.18.998a391.42 391.42 0 0 1-7.797 6.355c-.388.308-.78.612-1.169.918-.927.73-1.855 1.458-2.791 2.181-.494.381-.991.759-1.487 1.139-.839.643-1.681 1.284-2.527 1.92-.537.404-1.076.804-1.615 1.206a371.425 371.425 0 0 1-6.61 4.81c-.553.394-1.106.787-1.661 1.178a396.45 396.45 0 0 1-2.586 1.802c-.531.368-1.062.737-1.595 1.102-.947.648-1.899 1.29-2.853 1.931-.456.306-.909.615-1.366.92a391.361 391.361 0 0 1-4.21 2.765l-.045.03c-1.431.926-2.87 1.842-4.316 2.751-.458.288-.92.571-1.38.857-.988.616-1.978 1.23-2.974 1.838-.561.342-1.125.68-1.687 1.019-.907.547-1.815 1.094-2.728 1.635-.598.354-1.199.706-1.8 1.058a386.828 386.828 0 0 1-11.861 6.671c-.587.317-1.172.636-1.762.95a400.535 400.535 0 0 1-3.119 1.642c-.495.258-.986.52-1.482.776a421.564 421.564 0 0 1-4.647 2.366c-1.562.781-3.126 1.55-4.693 2.308-.505.244-1.011.481-1.517.723-1.062.508-2.124 1.017-3.188 1.515-.611.286-1.224.564-1.835.847-.963.445-1.927.89-2.892 1.326-.649.293-1.3.581-1.95.87-.931.415-1.861.829-2.794 1.236-.673.293-1.347.582-2.021.871-.91.391-1.82.781-2.732 1.164-.689.29-1.379.575-2.068.861a367.037 367.037 0 0 1-9.582 3.821 366.91 366.91 0 0 1-4.803 1.807c-.927.342-1.856.678-2.785 1.012-.675.243-1.351.487-2.027.726-.948.335-1.897.664-2.847.992-.658.227-1.315.456-1.974.679-.986.334-1.974.661-2.961.987-.62.205-1.239.412-1.859.613-1.062.344-2.125.68-3.188 1.015-.549.173-1.098.35-1.647.521-1.226.38-2.453.75-3.68 1.118-.388.116-.774.236-1.161.351a387.454 387.454 0 0 1-9.838 2.772c-.259.069-.519.135-.778.203a381.11 381.11 0 0 1-4.105 1.068c-.458.116-.917.227-1.375.341-1.172.293-2.345.584-3.519.865-.533.128-1.067.251-1.6.376-1.104.26-2.207.518-3.311.767-.565.128-1.131.251-1.697.376a370.26 370.26 0 0 1-3.219.701c-.583.124-1.167.244-1.75.365-1.062.221-2.126.438-3.189.65-.583.116-1.167.229-1.75.343a353.956 353.956 0 0 1-4.934.926 415.427 415.427 0 0 1-4.929.858c-1.107.185-2.215.365-3.323.54-.533.084-1.066.17-1.599.252a374.69 374.69 0 0 1-3.459.515c-.488.071-.976.143-1.464.212-1.228.173-2.457.338-3.686.499-.411.054-.821.11-1.232.163-1.359.174-2.72.338-4.08.498-.281.033-.563.069-.845.101a388.23 388.23 0 0 1-25.08 2.06c-.218.011-.437.019-.655.03-1.435.069-2.87.131-4.304.183l-.902.03c-1.355.047-2.709.087-4.063.12l-1.023.021a373.148 373.148 0 0 1-8.295.088l-.653-.001a402.15 402.15 0 0 1-10.093-.15l-.857-.024a380.845 380.845 0 0 1-4.281-.153c-.213-.009-.427-.016-.64-.026a395.054 395.054 0 0 1-4.623-.225l-.285-.015a390.248 390.248 0 0 1-39.866-4.27l-.199-.032a390.064 390.064 0 0 1-4.7-.781l-.299-.052a396.528 396.528 0 0 1-4.608-.826l-.326-.061a377.622 377.622 0 0 1-4.605-.887l-.277-.055a376.034 376.034 0 0 1-4.698-.968l-.145-.031a392.242 392.242 0 0 1-83.541-27.885 390.546 390.546 0 0 1-20.749-10.392h-.001c-.001 0 0 0 0 0a389.75 389.75 0 0 1-44.462-27.958l-.04-.029a385.602 385.602 0 0 1-6.987-5.204l-.112-.085a383.87 383.87 0 0 1-6.878-5.37l-.035-.029a387.006 387.006 0 0 1-32.893-29.519l-.11-.11a389.891 389.891 0 0 1-6.07-6.254l-.199-.21a389.676 389.676 0 0 1-5.916-6.383l-.166-.183a386.133 386.133 0 0 1-9.169-10.507l-.002-.003-.103-.123a407.168 407.168 0 0 1-3.184-3.837l-.001-.002-.094-.115a390.213 390.213 0 0 1-3.167-3.924l-.008-.01-.168-.212-.152-.191-.003-.005a399.168 399.168 0 0 1-2.934-3.74l-.001-.002-.03-.038c-1.084-1.4-2.16-2.808-3.227-4.226l-.003-.005a20.333 20.333 0 0 1-.133-.176l-.001-.002a386.437 386.437 0 0 1-7.73-10.653l-.01-.015a391.82 391.82 0 0 1-5.618-8.248l-.006-.009a386.774 386.774 0 0 1-5.403-8.385l-.006-.009-.002-.003a389.341 389.341 0 0 1-5.222-8.58 397.44 397.44 0 0 1-5.02-8.743l-.004-.007-.026-.047a390.056 390.056 0 0 1-2.591-4.727l-.003-.005-.001-.002-.006-.01a409.506 409.506 0 0 1-2.697-5.087l-.208-.397a397.496 397.496 0 0 1-2.702-5.289l-.013-.025a392.425 392.425 0 0 1-3.113-6.38c-.282-.588-.559-1.177-.837-1.766a385.216 385.216 0 0 1-2.444-5.276c-.191-.421-.387-.841-.577-1.262a395.125 395.125 0 0 1-2.809-6.395c-.219-.51-.432-1.022-.648-1.533a408.32 408.32 0 0 1-2.163-5.204c-.224-.549-.449-1.098-.67-1.648a390.485 390.485 0 0 1-2.551-6.503c-.097-.253-.188-.507-.284-.76a398.154 398.154 0 0 1-2.774-7.558 382.842 382.842 0 0 1-2.107-6.073c-.06-.179-.124-.358-.184-.537a383.921 383.921 0 0 1-2.167-6.674c-.158-.501-.312-1.002-.468-1.504a389.14 389.14 0 0 1-1.704-5.624c-.121-.413-.246-.825-.366-1.238a384.662 384.662 0 0 1-1.902-6.761c-.085-.312-.165-.624-.249-.937a396.876 396.876 0 0 1-1.547-5.948c-.118-.468-.237-.936-.353-1.405a387.1 387.1 0 0 1-3.135-13.707l-.268-1.294a389.051 389.051 0 0 1-1.273-6.436c-.027-.145-.057-.29-.083-.435-.442-2.359-.859-4.72-1.257-7.082l-.139-.849a375.904 375.904 0 0 1-1.002-6.369l-.131-.875a387.614 387.614 0 0 1-1.809-14.194l-.099-.912a387.513 387.513 0 0 1-1.255-14.302l-.042-.624a387.375 387.375 0 0 1-.413-7.046l-.006-.108a389.884 389.884 0 0 1-.312-29.709l.01-.36a389.788 389.788 0 0 1 2.805-36.82l.018-.139a391.232 391.232 0 0 1 2.099-14.618l.001-.005.005-.031a399.499 399.499 0 0 1 1.109-6.459l.003-.019.001-.008c.285-1.578.58-3.154.883-4.727l.03-.156a387.9 387.9 0 0 1 .932-4.661l.034-.167a391.567 391.567 0 0 1 1.018-4.777c.82-3.734 1.693-7.456 2.622-11.163l.013-.053.003-.011c.385-1.535.78-3.068 1.183-4.598l.051-.196c.4-1.513.809-3.024 1.227-4.532l.054-.194c.422-1.521.854-3.041 1.294-4.557l.033-.113a392.821 392.821 0 0 1 3.116-10.196l.025-.077c.08-.248.158-.497.239-.745l.004-.013a371.86 371.86 0 0 1 1.516-4.593 396.805 396.805 0 0 1 1.658-4.818l.178-.51a378.772 378.772 0 0 1 1.625-4.513c.092-.252.183-.505.276-.757a393.908 393.908 0 0 1 1.582-4.206c.128-.336.253-.672.382-1.008a401.017 401.017 0 0 1 1.544-3.936c.16-.402.316-.806.478-1.208a401.254 401.254 0 0 1 1.57-3.841c.169-.408.333-.818.503-1.226.242-.579.491-1.156.736-1.734-15.353-8.552-26.136-21.746-28.855-36.879-.009-.026-.015-.052-.023-.078a42.968 42.968 0 0 1-.632-2.11c-.023-.086-.05-.171-.074-.257-.005-.021-.012-.042-.018-.062a43.628 43.628 0 0 1-.647-2.899c-.043-.222-.092-.443-.131-.667a40.75 40.75 0 0 1-.251-1.645l-.02-.13a42.686 42.686 0 0 1-.185-1.684c-.023-.257-.04-.515-.058-.772a41.072 41.072 0 0 1-.04-.606c-.013-.215-.033-.429-.042-.645a44.148 44.148 0 0 1-.04-1.858c0-8.489 2.52-16.543 7.008-23.736a51.463 51.463 0 0 1 1.568-2.365 55.954 55.954 0 0 1 5.534-6.678 62.338 62.338 0 0 1 5.63-5.121 68.351 68.351 0 0 1 7.1-5.023 73.257 73.257 0 0 1 5.87-3.261 78.45 78.45 0 0 1 8.559-3.647c8.999-3.228 18.994-5.045 29.515-5.045h6.509c15.626-40.963 55.258-70.072 101.709-70.072 6.124 0 12.121.531 17.969 1.503-.026-.998-.076-1.99-.076-2.994 0-60.938 49.4-110.338 110.338-110.338 34.055 0 64.496 15.437 84.736 39.684 33.087-38.862 82.373-63.528 137.426-63.528m0-9c-52.206 0-101.75 21.427-137.479 59.13-22.345-22.532-52.674-35.273-84.689-35.273-31.876 0-61.845 12.413-84.385 34.953-20.846 20.846-33.031 48.049-34.744 77.236-3.049-.239-6.089-.36-9.102-.36-24.348 0-47.718 7.368-67.583 21.308-17.686 12.411-31.47 29.18-40.148 48.764h-.486c-11.292 0-22.245 1.875-32.554 5.573a87.927 87.927 0 0 0-12.243 5.474 81.834 81.834 0 0 0-3.875 2.248 77.713 77.713 0 0 0-8.032 5.684 71.483 71.483 0 0 0-6.442 5.864 65.046 65.046 0 0 0-6.424 7.755 61.204 61.204 0 0 0-1.841 2.778C3.895 251.852 1 261.708 1 271.575c0 .74.016 1.494.048 2.243.01.232.024.441.04.65l.01.138c.014.242.03.489.048.736l.011.16c.018.258.037.515.06.772a50.04 50.04 0 0 0 .554 4.197c.035.205.081.436.128.667l.031.152a52.644 52.644 0 0 0 .779 3.475l.019.071.02.071.013.044.002.008.071.249-.011-.04c.177.652.373 1.318.593 2.017 2.851 14.833 12.297 28.436 26.383 38.274l-.237.6-.194.492a398.962 398.962 0 0 0-1.579 4.026l-.247.649-.149.393a407.301 407.301 0 0 0-1.614 4.293l-.168.461-.115.315a408.557 408.557 0 0 0-1.662 4.617l-.119.339-.064.185a390.21 390.21 0 0 0-1.694 4.924l-.053.159-.026.08a424.147 424.147 0 0 0-1.309 3.958l-.218.478-.107.532-.007.022-.078.245-.008.024-.018.054a402.633 402.633 0 0 0-3.188 10.43l-.042.146c-.442 1.52-.883 3.073-1.315 4.63l-.035.126-.019.069a398.917 398.917 0 0 0-1.255 4.64l-.027.102-.027.104a388.53 388.53 0 0 0-1.201 4.667l-.003.012-.013.052-.017.068a400.951 400.951 0 0 0-2.674 11.387l-.009.041-.002.01-.013.058c-.348 1.59-.688 3.182-1.017 4.776l-.018.09-.022.106c-.322 1.562-.64 3.151-.948 4.742l-.038.2a392.402 392.402 0 0 0-.855 4.569v.003l-.018.1-.027.13-.021.137a400.13 400.13 0 0 0-1.053 6.124l-.001.006-.029.18-.019.091-.021.152-.112.642v.054a402.955 402.955 0 0 0-2.031 14.238l-.006.047-.009.071a400.512 400.512 0 0 0-2.872 37.694l-.01.346a395.404 395.404 0 0 0-.134 14.951l.005.465c.055 5.005.205 10.062.446 15.003l.001.031.002.031.004.074c.113 2.312.251 4.662.421 7.184l.042.634c.334 4.846.767 9.77 1.285 14.639l.1.927a397.08 397.08 0 0 0 1.851 14.53l.077.517.055.366c.332 2.227.677 4.42 1.027 6.532l.057.346.084.515c.429 2.55.85 4.92 1.288 7.253l.058.302.028.143c.396 2.105.835 4.321 1.302 6.586l.271 1.311a396.34 396.34 0 0 0 3.21 14.037c.105.425.214.856.323 1.288l.04.155a396.587 396.587 0 0 0 1.581 6.079l.096.362c.053.202.106.404.161.605a402.471 402.471 0 0 0 1.944 6.911l.221.749.151.509c.57 1.935 1.157 3.871 1.746 5.764l.12.387a390.697 390.697 0 0 0 2.576 7.977l.119.348.065.191a392.774 392.774 0 0 0 2.782 7.963c.744 2.062 1.489 4.08 2.215 5.995l.103.276c.063.17.126.34.191.51a401.345 401.345 0 0 0 2.606 6.644c.16.398.321.792.481 1.185l.205.501c.726 1.781 1.47 3.572 2.212 5.323l.223.527.439 1.038c.95 2.214 1.916 4.415 2.874 6.543l.365.8.228.497a402.828 402.828 0 0 0 2.498 5.391l.142.3a409.301 409.301 0 0 0 3.836 7.905l.038.082.065.125.019.037.023.047v.001a398.237 398.237 0 0 0 2.692 5.268l.127.243.081.155a378.562 378.562 0 0 0 1.69 3.209v.465L49.205 664c.748 1.384 1.513 2.78 2.28 4.159l.195.44.239.339a401.606 401.606 0 0 0 4.901 8.526l.217.367.003.004a404.975 404.975 0 0 0 4.691 7.715l.388.969.59.591a394.649 394.649 0 0 0 4.965 7.685l.001.002.014.02.014.022a405.135 405.135 0 0 0 5.544 8.148l.004.007.124.177.037.056.063.088.004.006.007.01a400.402 400.402 0 0 0 7.39 10.206l.016.031.205.269.125.233.459.536a402.988 402.988 0 0 0 3.131 4.097l.024.032.008.01.001.001a419.81 419.81 0 0 0 2.945 3.755l.189.249.021.022.013.019.2.242.075.094.003.004a396.868 396.868 0 0 0 3.136 3.882l.042.052.016.02.286.357.039.038c.69.841 1.383 1.679 2.08 2.513l.004.011.986 1.171.005.007.664.79.007.005c2.836 3.353 5.765 6.7 8.717 9.962l.063.07.111.122a399.805 399.805 0 0 0 6.049 6.527l.134.142.066.069a398.45 398.45 0 0 0 6.215 6.403l.088.088a398.167 398.167 0 0 0 33.661 30.213l.001.001.056.045a399.217 399.217 0 0 0 7.037 5.494l.114.087a397.214 397.214 0 0 0 7.149 5.325l.028.021.012.008.001.001a400.425 400.425 0 0 0 44.639 28.145l.005.004.846.456a402.823 402.823 0 0 0 21.226 10.631 401.8 401.8 0 0 0 85.458 28.525l.099.021.007.001.042.009c1.6.34 3.202.67 4.806.99l.136.027.159.031c1.558.31 3.128.612 4.701.905l.329.062c1.574.292 3.146.574 4.719.846l.306.054c1.6.276 3.203.542 4.808.799l.18.029a401.132 401.132 0 0 0 40.808 4.372l.184.01.112.006c1.572.086 3.148.163 4.726.23l.403.016.246.01c1.465.06 2.925.113 4.385.156l.535.015.336.009c1.395.039 2.785.07 4.174.094l1.018.016c1.353.02 2.703.033 4.054.039l1.091.004.666.001c1.116 0 2.231-.005 3.348-.014l.164-.001.928-.008c1.346-.015 2.697-.038 4.047-.066l.312-.006.731-.016a382.8 382.8 0 0 0 4.164-.123l.344-.011.576-.019c1.469-.054 2.937-.117 4.404-.188l.264-.012.409-.019c1.632-.081 3.267-.172 4.902-.273l.123-.007a398.658 398.658 0 0 0 20.635-1.828l.521-.062.344-.041c1.392-.163 2.784-.331 4.175-.51l.798-.105.464-.062c1.255-.165 2.513-.333 3.771-.511l1.066-.154.432-.063c1.179-.171 2.358-.345 3.539-.527.45-.069.898-.141 1.346-.212l.292-.046a406.826 406.826 0 0 0 5.127-.846c1.104-.19 2.21-.385 3.315-.584.59-.107 1.18-.214 1.77-.324a387.988 387.988 0 0 0 5.07-.974c1.088-.216 2.177-.439 3.265-.665l.45-.094 1.34-.28a410.89 410.89 0 0 0 3.294-.717l.477-.105c.421-.093.841-.185 1.262-.281a383.9 383.9 0 0 0 3.386-.785l.542-.127 1.095-.258a378.1 378.1 0 0 0 3.602-.886l.514-.127c.297-.073.595-.146.893-.222 1.4-.355 2.8-.721 4.199-1.093l.304-.079.492-.129a400.896 400.896 0 0 0 10.066-2.836c.239-.071.475-.143.711-.215l.475-.144c1.258-.377 2.512-.755 3.767-1.144.371-.115.741-.233 1.111-.35l.577-.183c1.083-.341 2.17-.685 3.257-1.037.438-.142.872-.286 1.306-.43l.597-.197c1.012-.334 2.022-.669 3.032-1.011a311.18 311.18 0 0 0 1.625-.558l.396-.137a318.123 318.123 0 0 0 4.849-1.708l.136-.049c.95-.342 1.9-.686 2.849-1.036.7-.258 1.4-.52 2.101-.782a389.92 389.92 0 0 0 7.714-2.984 363.344 363.344 0 0 0 4.899-1.991l.061-.025c.686-.284 1.373-.568 2.058-.857.927-.39 1.859-.789 2.791-1.189l.39-.167c.56-.24 1.119-.48 1.677-.724.954-.416 1.906-.84 2.858-1.264l.498-.221c.499-.222.998-.443 1.496-.668.953-.43 1.903-.869 2.854-1.308l.105-.049.634-.292c.414-.19.827-.38 1.24-.573 1.047-.49 2.09-.989 3.132-1.488l.129-.062.591-.281c.32-.152.64-.304.96-.459a400.743 400.743 0 0 0 9.552-4.78c.32-.165.638-.332.956-.5l.56-.294a386.282 386.282 0 0 0 3.191-1.681c.449-.24.9-.483 1.35-.727l.452-.244c.958-.517 1.915-1.036 2.867-1.561.632-.348 1.259-.698 1.885-1.047a434.522 434.522 0 0 0 4.648-2.631c.913-.525 1.823-1.054 2.731-1.585l.073-.043c.589-.345 1.179-.69 1.766-1.038.935-.554 1.863-1.112 2.79-1.672l.53-.32c.398-.24.797-.48 1.194-.723a380.962 380.962 0 0 0 3.045-1.882l.522-.324c.296-.183.592-.366.886-.551a392.552 392.552 0 0 0 4.417-2.815l.038-.024.038-.025.011-.007.005-.003a401.291 401.291 0 0 0 4.263-2.8c.293-.195.585-.392.878-.59l.517-.349c.978-.656 1.952-1.313 2.921-1.977.408-.279.816-.562 1.224-.845l.409-.283a402.39 402.39 0 0 0 2.644-1.842 437.985 437.985 0 0 0 5.946-4.27c.843-.616 1.681-1.236 2.517-1.859l.116-.086c.513-.382 1.025-.763 1.536-1.147.867-.652 1.729-1.309 2.589-1.967l.428-.327c.364-.278.729-.556 1.09-.836.957-.739 1.906-1.484 2.855-2.231l.453-.355c.249-.195.499-.39.747-.587a395.219 395.219 0 0 0 7.976-6.5c.256-.214.51-.43.765-.646l.443-.376c.902-.761 1.803-1.523 2.697-2.292.346-.297.689-.595 1.032-.893l.406-.352a380.58 380.58 0 0 0 2.431-2.123c.481-.424.958-.85 1.437-1.275l.058-.052a357.02 357.02 0 0 0 3.831-3.457 470.03 470.03 0 0 0 2.311-2.131l.093-.086c.453-.421.906-.841 1.356-1.264.795-.746 1.587-1.499 2.377-2.252l.43-.409c.293-.279.586-.558.878-.839.896-.863 1.784-1.73 2.669-2.599l.345-.336c.208-.202.415-.405.621-.608a396.826 396.826 0 0 0 7.156-7.254c.218-.227.432-.452.645-.677l.389-.409c.82-.86 1.639-1.721 2.45-2.587.291-.31.576-.618.862-.927l.376-.405a378.187 378.187 0 0 0 8.986-10.014l.1-.115a387.665 387.665 0 0 0 3.287-3.843l.369-.437c.248-.293.496-.585.742-.879a385.87 385.87 0 0 0 2.395-2.895l.296-.359.519-.629a393.987 393.987 0 0 0 2.789-3.458l.004-.004.087-.11.029-.029.158-.203.517-.581.123-.23a399.314 399.314 0 0 0 8.31-10.895l.012-.006 1.243-1.707.038-.052 1.733-2.372v-.027a399.27 399.27 0 0 0 7.008-10.099l.016-.023.075-.111.005-.007.018-.027.033-.048.167-.249.006-.01a387.1 387.1 0 0 0 3.635-5.542l.003-.004.251-.392.152-.236.308-.479c1.021-1.594 2.033-3.2 3.021-4.79l.012-.009.724-1.18.276-.276.467-.934.759-1.234v-.019a402.06 402.06 0 0 0 9.251-16.106l.021-.01 1.349-2.529 1.06-1.982v-.014a402.456 402.456 0 0 0 23.282-53.156l.035-.099.004-.013.021-.057a405.344 405.344 0 0 0 1.625-4.688l.076-.225a402.984 402.984 0 0 0 10.009-34.513l.039-.163.022-.092c.379-1.573.742-3.119 1.096-4.667l.052-.225.051-.225a402.69 402.69 0 0 0 1.011-4.568l.021-.095.07-.323c.343-1.599.672-3.184.992-4.771l.043-.211a402.038 402.038 0 0 0 4.247-25.324l.038-.286.021-.159c.202-1.512.396-3.021.58-4.53l.074-.611.018-.151c.17-1.417.333-2.839.489-4.261l.009-.081.084-.78c.151-1.414.295-2.831.432-4.25l.03-.304.049-.507c.14-1.483.271-2.968.394-4.454l.021-.252.027-.314c.554-6.808.938-13.699 1.14-20.485l.009-.345.006-.253c.042-1.477.076-2.94.101-4.403l.011-.728.004-.332c.02-1.316.033-2.638.039-3.96l.003-1.167v-.087a405.14 405.14 0 0 0-.012-3.817l-.012-1.288c-.015-1.29-.037-2.568-.063-3.846l-.007-.365-.019-.87a390.555 390.555 0 0 0-.121-4.056l-.013-.412-.019-.571c-.059-1.58-.126-3.155-.203-4.73l-.004-.083-.009-.216c-.17-3.43-.388-6.902-.648-10.325l-.033-.416-.021-.258c-.111-1.442-.23-2.885-.358-4.327l-.074-.808-.046-.497a366.857 366.857 0 0 0-.487-4.959l-.033-.312a376.831 376.831 0 0 0-.991-8.515l-.044-.345-.173-1.341c-.15-1.144-.308-2.288-.469-3.432l-.072-.514-.154-1.093a397.305 397.305 0 0 0-.546-3.633l-.082-.537c-.043-.283-.086-.567-.131-.851-.23-1.46-.471-2.922-.719-4.383l-.034-.207-.068-.409a380.631 380.631 0 0 0-.911-5.124l-.054-.286-.016-.081a401.879 401.879 0 0 0-.881-4.601l-.18-.886-.113-.555a417.983 417.983 0 0 0-.728-3.537c-.083-.394-.169-.793-.256-1.192l-.12-.554a409.717 409.717 0 0 0-.709-3.228c-.129-.575-.263-1.155-.396-1.735l-.036-.155a362.529 362.529 0 0 0-1.951-8.099l-.031-.121c-.151-.599-.302-1.199-.457-1.798a418.448 418.448 0 0 0-.819-3.121l-.148-.558c-.115-.432-.229-.865-.347-1.297-.301-1.11-.61-2.218-.921-3.325l-.143-.513c-.103-.368-.205-.737-.31-1.105-.404-1.419-.82-2.838-1.242-4.257l-.073-.25-.123-.419a385.914 385.914 0 0 0-1.516-4.946l-.241-.755-.169-.528a423.478 423.478 0 0 0-1.163-3.616 189.5 189.5 0 0 0-.422-1.271l-.177-.53c-.343-1.03-.689-2.065-1.043-3.1a432.15 432.15 0 0 0-.555-1.602l-.125-.358c-.341-.98-.685-1.959-1.033-2.938a428.829 428.829 0 0 0-2.545-6.929 389.89 389.89 0 0 0-1.106-2.89l-.023-.059c-.249-.644-.497-1.287-.749-1.93-.389-.991-.786-1.98-1.182-2.968l-.103-.255c14.076-9.835 23.518-23.431 26.371-38.255.078-.239.154-.479.227-.72.088-.295.168-.589.248-.884l.063-.234.035-.123a51.002 51.002 0 0 0 .713-2.908c.029-.133.057-.281.084-.428l-.006.026c.036-.178.068-.345.099-.512l.03-.159c.171-.899.314-1.769.43-2.602.022-.143.043-.283.062-.425a51.624 51.624 0 0 0 .334-3.618c.067-1.14.098-2.103.098-3.033 0-9.867-2.895-19.723-8.373-28.5a62.006 62.006 0 0 0-1.84-2.777c-2.167-3.083-4.732-6.092-7.625-8.941a71.499 71.499 0 0 0-4.268-3.885 77.676 77.676 0 0 0-10.148-7.172 84.064 84.064 0 0 0-5.977-3.229 88.443 88.443 0 0 0-5.841-2.596 90.705 90.705 0 0 0-4.383-1.632c-7.218-2.474-14.742-4.063-22.463-4.751.491-5.573.738-11.171.738-16.732 0-25.567-5.009-50.375-14.889-73.733-9.541-22.557-23.197-42.813-40.59-60.206-17.393-17.393-37.649-31.05-60.207-40.59-23.367-9.885-48.174-14.894-73.742-14.894z" class="st0"/><path d="M790 271.571c0-30.181-31.853-54.875-70.784-54.875H80.784C41.853 216.696 10 241.39 10 271.571c0 19.901 13.853 37.411 34.448 47.034l-2.044.002C-1.947 420.777-2.44 541.131 51.297 648.532c96.357 192.583 330.589 270.59 523.173 174.233 186.559-93.343 265.598-316.071 182.765-504.984 19.659-9.776 32.765-26.859 32.765-46.21z" class="st1"/><path fill="#edc531" d="M719.82 191.356c0-99.642-80.776-180.418-180.418-180.418-55.053 0-104.339 24.666-137.432 63.541-20.24-24.248-50.682-39.684-84.736-39.684-60.938 0-110.338 49.4-110.338 110.338 0 1.004.049 1.996.076 2.994a109.473 109.473 0 0 0-17.968-1.503c-47.38 0-87.683 30.277-102.635 72.535h631.319a181.892 181.892 0 0 0 2.132-27.803z"/><path fill="#cea628" d="M688.95 138.462c-19.263-61.194-76.375-104.78-140.302-108.236-5.373-.385-12.001-.334-17.412-.062l-2.898.12-2.889.277-5.771.57c-1.913.27-6.781 1.038-8.597 1.307-4.439.882-9.698 2.02-14.093 3.28-29.404 8.134-56.383 25.405-75.747 49.005 23.351-21.301 52-36.332 83.119-42.22 5.156-.939 11.053-1.722 16.285-2.247 1.872-.097 6.352-.401 8.196-.493 11.741-.307 23.815.353 35.346 2.568 58.442 10.273 107.33 54.378 125.611 110.682 2.353 7.13 4.163 14.381 5.721 21.733-.626-12.297-2.895-24.529-6.569-36.284zM311.261 52.634c-29.049 2.611-56.215 20.886-68.121 47.642 37.556-51.836 113.869-51.176 147.304 4.155 9.948 16.703 14.246 36.932 12.122 57.302.823-2.429 1.468-4.92 2.039-7.439 1.375-6.295 1.889-12.929 1.732-19.381-1.26-48.893-46.569-87.412-95.076-82.279zm-72.576 135.062c-1.986-3.17-4.463-6.092-7.012-8.824-.765-.782-2.742-2.552-3.54-3.346l-2.537-2.039c-1.422-1.226-3.779-2.681-5.337-3.764-1.83-1.063-3.813-2.248-5.747-3.136-17.366-8.426-39.4-8.912-55.928 1.572 28.355-1.946 52.873 4.284 75.124 21.981.749.647 2.678 2.211 3.483 2.862 1.45 1.332 3.147 2.694 4.578 4.076 2.905 2.621 2.549 2.62 1.302-.893-1.069-2.865-2.74-5.901-4.386-8.489z" opacity=".5"/><g class="st8"><path d="M416.192 222.79H81.988c-38.784 0-70.516 24.6-70.516 54.668 0 30.067 31.732 54.668 70.516 54.668h334.204"/><path d="M383.808 222.79h334.204c38.784 0 70.516 24.6 70.516 54.668 0 30.067-31.732 54.668-70.516 54.668H383.808"/></g><path d="M416.254 216.696H80.784C41.853 216.696 10 241.39 10 271.571s31.853 54.875 70.784 54.875h335.47" class="st1"/><path d="M383.746 216.696h335.47c38.931 0 70.784 24.694 70.784 54.875s-31.853 54.875-70.784 54.875h-335.47" class="st1"/><circle cx="289.623" cy="772.431" r="36.783" class="st9" transform="rotate(-84.997 289.645 772.436)"/><circle cx="561.887" cy="740.044" r="22.796" class="st9" transform="rotate(-4.002 562.199 740.423)"/><circle cx="635.08" cy="401.124" r="25.748" class="st9" transform="rotate(-78.784 635.104 401.122)"/><path d="M444.328 791.001c5.896 1.58 11.957-1.919 13.537-7.815 1.58-5.896-1.919-11.957-7.815-13.537-5.896-1.58-11.957 1.919-13.537 7.815-1.581 5.896 1.918 11.957 7.815 13.537z" class="st9"/><circle cx="660.702" cy="506.189" r="11.035" class="st9" transform="rotate(-17.484 660.73 506.244)"/><path d="M695.54 434.379a7.356 7.356 0 1 0 14.212 3.808 7.356 7.356 0 0 0-5.202-9.01 7.355 7.355 0 0 0-9.01 5.202zM187.027 643.797c-1.686 6.293 2.048 12.762 8.342 14.448 6.293 1.686 12.762-2.048 14.448-8.342 1.686-6.293-2.048-12.762-8.342-14.448-6.293-1.686-12.762 2.049-14.448 8.342z" class="st9"/><circle cx="127.736" cy="459.346" r="58.853" class="st9" transform="rotate(-45.001 127.731 459.35)"/><path d="M715.891 585.241c-35.321-9.464-71.626 11.497-81.09 46.818-9.464 35.321 11.497 71.626 46.817 81.09a65.98 65.98 0 0 0 25.117 1.773 390.354 390.354 0 0 0 53.218-90.966c-7.599-18.39-23.357-33.167-44.062-38.715zm-613.523 59.582c-17.218-4.614-34.779 1.627-45.446 14.517 13.741 25.479 29.945 48.84 48.17 69.93 13.492-4.579 24.524-15.591 28.488-30.387 6.309-23.547-7.665-47.751-31.212-54.06z" class="st9"/><path d="M400 349.52c-102.29 0-185.25 82.96-185.25 185.25S297.71 720.02 400 720.02s185.25-82.96 185.25-185.25S502.149 349.52 400 349.52zm114.564 123.594c0 6.067-2.398 11.287-4.374 16.225-4.797 11.287-12.134 20.317-21.445 26.807-4.092 3.104-8.183 4.797-13.262 4.797v90.156c0 3.668-.423 7.337-1.552 10.864-3.668 11.71-10.864 20.599-21.022 26.807-1.27.564-1.975 1.27-2.258 2.258-11.71 7.76-8.465 6.067-27.795 10.864-.705-.423-1.411-.564-2.399-.564h-45.571l-3.245-.423-1.975-.846c-20.317-3.95-34.003-16.648-40.069-37.388-1.27-3.668-1.552-8.183-1.552-13.262v-87.193s-.423 0-.846-.423c-14.956-7.76-25.114-19.894-30.757-36.965-1.27-3.245-1.975-6.913-2.399-10.582-.423-3.668.846-7.337 3.245-9.735 2.399-2.399 6.067-3.95 9.735-3.95h31.604v-14.25c0-11.71 6.913-21.869 17.495-25.396 8.183-2.822 16.648-1.552 23.421 3.245 6.49 4.797 10.582 12.134 10.864 20.317v15.66h28.782v-4.797c0-4.374 0-8.889.423-13.262.423-10.582 8.889-19.894 19.47-22.292l2.54-.423h5.643c10.441 1.129 19.47 8.324 22.433 18.624.846 2.399.846 4.797 1.27 8.183v13.827h31.18c3.95 0 7.76 1.27 10.159 3.668 1.975 2.254 2.681 5.357 2.257 9.449z" class="st48"/><path d="M454.178 597.837c-12.98-3.95-24.691-11.71-35.131-22.715-8.183-8.183-14.532-18.201-19.894-29.629-5.785-12.557-8.889-25.114-10.159-38.094-.423-4.797-.423-10.159-.423-14.532V486.8h-63.772c4.374 6.208 10.017 10.582 17.072 12.557 8.465 2.822 10.159 8.889 10.159 12.557v93.965c0 9.735 3.668 17.495 10.864 22.998 4.374 3.245 10.159 4.797 17.495 4.797h46.701c4.797 0 8.465-.846 11.71-1.975 8.183-3.668 13.262-9.735 14.956-18.624.846-3.668.846-7.337.423-11.287l-.001-3.951zM371.5 560.731c-5.785-.423-9.735-4.797-9.735-10.582-.423-6.067 4.797-10.159 9.735-10.159 5.785 0 10.159 4.797 10.159 10.582s-4.798 10.159-10.159 10.159z" class="st48"/><path d="M371.5 539.991c-4.797 0-10.159 3.95-9.735 10.159 0 5.784 3.95 10.159 9.735 10.582 5.361 0 10.159-4.374 10.159-10.159s-4.374-10.582-10.159-10.582z"/><path d="M501.302 459.287h-31.18V445.46c-.423-3.245-.423-5.784-1.27-8.183-2.963-10.441-11.993-17.636-22.433-18.624h-5.643l-2.54.423c-10.582 2.399-19.047 11.71-19.47 22.292-.423 4.374-.423 8.889-.423 13.262v4.797h-28.782v-15.66c-.423-8.183-4.374-15.379-10.864-20.317-6.913-4.797-15.379-6.067-23.421-3.245-10.582 3.668-17.495 13.685-17.495 25.396v14.532h-31.604c-3.668 0-7.337 1.552-9.735 3.95s-3.668 6.067-3.245 9.735c.423 3.668 1.27 7.337 2.399 10.582 5.785 17.072 15.802 29.205 30.757 36.965.423.423.846.423.846.423v87.193c0 5.362.423 9.735 1.552 13.262 6.067 20.599 19.894 33.156 40.069 37.388l1.975.846 3.245.423h45.571c.988 0 1.693.141 2.399.564 19.329-4.797 15.943-3.104 27.795-10.864.282-1.129.988-1.693 2.258-2.258 10.159-6.067 17.495-14.955 21.022-26.807 1.27-3.668 1.552-7.337 1.552-10.864v-90.156c5.361 0 9.171-1.693 13.262-4.797 9.312-6.49 16.648-15.379 21.445-26.807 1.975-4.797 4.374-10.159 4.374-16.225.423-3.95-.846-7.76-3.245-10.159-1.976-2.534-5.22-3.24-9.171-3.24zm-64.619-13.685c0-1.552.423-3.245.846-4.374 1.27-2.399 4.797-3.95 7.337-3.668 3.668.423 6.067 3.245 6.067 6.49v14.532c0 .423-.423.846-.423 1.552h-13.262c0-.846-.423-1.552-.423-2.399-.142-6.913-.142-4.938-.142-12.133zm1.834 94.389c5.785 0 10.159 4.797 10.159 10.582s-4.797 10.159-10.159 10.159c-5.784-.423-9.735-4.797-9.735-10.582-.423-6.209 4.797-10.159 9.735-10.159zm-83.524-94.389c0-1.552.423-3.245.846-4.374 1.27-2.399 4.797-3.95 7.337-3.668 3.668.846 6.49 3.245 6.49 6.913v14.532s-.423.423-.846 1.27h-13.262c0-.846-.423-1.552-.423-2.399-.142-7.054-.283-5.079-.142-12.274zm98.762 167.755c-1.552 8.889-6.913 14.955-14.956 18.624-3.245 1.27-6.913 1.975-11.71 1.975h-46.701c-7.337 0-12.98-1.552-17.495-4.797-7.337-5.784-10.864-13.262-10.864-22.998v-93.965c0-3.668-1.552-9.735-10.159-12.557-7.196-1.975-12.698-6.208-17.072-12.557h63.772v6.067c0 4.374 0 9.735.423 14.532 1.27 12.98 4.374 25.396 10.159 38.094 5.361 11.287 11.71 21.445 19.894 29.629 10.582 10.864 22.292 18.624 35.131 22.715v3.95c.425 3.951.425 7.619-.422 11.288z"/><path d="M438.517 560.731c5.361 0 10.159-4.374 10.159-10.159 0-5.784-4.374-10.582-10.159-10.582-4.797 0-10.159 3.95-9.735 10.159 0 5.644 3.951 10.158 9.735 10.582zm-69.698-100.597c.423-.846.846-1.27.846-1.27v-14.532c0-3.668-2.822-6.067-6.49-6.913-2.399-.423-6.067 1.27-7.337 3.668-.423 1.27-.846 2.822-.846 4.374v12.134c0 .846.423 1.552.423 2.399 4.375.14 8.748.14 13.404.14zm81.832 0c0-.846.423-1.27.423-1.552V444.05c0-3.245-2.399-6.067-6.067-6.49-2.399-.423-6.067 1.27-7.337 3.668-.423 1.27-.846 2.822-.846 4.374v12.134c0 .846.423 1.552.423 2.399l13.404-.001z" class="st48"/><defs><path id="SVGID_00000143594066402180550220000002799699731803667341_" d="M719.217 216.696H80.783C41.853 216.696 10 241.39 10 271.571s31.853 54.875 70.783 54.875h638.434c38.931 0 70.783-24.694 70.783-54.875s-31.853-54.875-70.783-54.875z"/></defs><clipPath id="SVGID_00000037650454423710410820000016585152502925207211_"><use xlink:href="#SVGID_00000143594066402180550220000002799699731803667341_" overflow="visible"/></clipPath><g clip-path="url(#SVGID_00000037650454423710410820000016585152502925207211_)"><path d="M5.549 271.997C1.98 278.472 0 285.584 0 293.034c0 .439.029.872.043 1.309h799.914c.013-.436.043-.871.043-1.309 0-7.451-1.98-14.563-5.549-21.037H5.549z" class="st127"/></g><g class="st8"><path d="M372.866 306.826c-.732-8.21-10.999-12.076-17.592-14.189-2.612-.838-16.501-5.659-17.27-.167-.26 1.863 1.13 3.039 2.576 3.224-.048.094-.105.176-.146.282-5.207 13.03-30.903-1.319-39.572-3.861-2.22-.651-4.406 2.464-2.848 4.274 4.037 4.694 7.19 10.125 11.501 14.552-1.434.605-3.419 1.603-3.663 1.721-2.348 1.141-4.771 2.044-7.262 2.814-2.693.831-2.273 4.813.372 5.353 16.189 3.307 32.439 9.529 49.211 7.365 9.701-1.255 25.756-9.457 24.693-21.368zm-30.96-11.257.077.004c-.12.039-.244.063-.37.074.099-.024.198-.044.293-.078zm109.92 32.622c16.773 2.164 33.021-4.058 49.212-7.365 2.644-.54 3.064-4.521.372-5.353-2.492-.77-4.915-1.673-7.263-2.814-.244-.118-2.229-1.116-3.662-1.721 4.311-4.428 7.464-9.858 11.5-14.552 1.557-1.809-.627-4.924-2.847-4.274-8.667 2.543-34.364 16.892-39.572 3.861-.042-.105-.097-.188-.146-.282 1.446-.185 2.837-1.361 2.577-3.224-.768-5.492-14.657-.67-17.269.167-6.594 2.113-16.862 5.979-17.594 14.189-1.063 11.914 14.992 20.116 24.692 21.368zm6.563-32.545a1.616 1.616 0 0 1-.371-.074c.023-.001.055-.004.078-.004.094.035.192.055.293.078z" class="st128"/><path d="M393.429 285.356c-1.474-9.658-8.615-18.4-14.243-26.017-7.239-9.638-15.997-18.128-27.336-22.654-7.138-2.848-23.701-3.911-27.043 5.465-1.244 3.487-.271 7.287.029 10.859.595 7.056-3.748 12.552-7.199 18.256-4.966 8.208-4.731 17.482 2.974 23.785 6.734 5.507 16.231 7.325 24.625 8.395 10.889 1.391 22.387 2.58 33.257.725 10.108-1.723 16.517-8.462 14.936-18.814z" class="st128"/><path d="M355.198 263.163c10.148 2.901 22.474 7.251 28.275 15.951"/><path d="M353.119 270.705c4.163 1.193 8.291 2.517 12.286 4.199l-1.868-.788c3.647 1.555 7.176 3.407 10.33 5.824l-1.583-1.223c1.742 1.359 3.337 2.877 4.708 4.612l-1.223-1.583c.331.429.648.867.951 1.316 1.149 1.699 2.651 3.037 4.674 3.595 1.872.515 4.365.283 6.027-.788 1.67-1.077 3.14-2.68 3.595-4.674.45-1.976.386-4.289-.788-6.027-7.497-11.089-20.591-16.004-32.95-19.545-3.931-1.126-8.689 1.373-9.621 5.462-.951 4.169 1.252 8.413 5.462 9.62z"/><path id="SVGID_00000119809925447947282440000008195751790212759205_" d="M393.429 285.356c-1.474-9.658-8.615-18.4-14.243-26.017-7.239-9.638-15.997-18.128-27.336-22.654-7.138-2.848-23.701-3.911-27.043 5.465-1.244 3.487-.271 7.287.029 10.859.595 7.056-3.748 12.552-7.199 18.256-4.966 8.208-4.731 17.482 2.974 23.785 6.734 5.507 16.231 7.325 24.625 8.395 10.889 1.391 22.387 2.58 33.257.725 10.108-1.723 16.517-8.462 14.936-18.814z"/><path id="SVGID_00000145033489912344142400000004967422932777876638_" d="M393.429 285.356c-1.474-9.658-8.615-18.4-14.243-26.017-7.239-9.638-15.997-18.128-27.336-22.654-7.138-2.848-23.701-3.911-27.043 5.465-1.244 3.487-.271 7.287.029 10.859.595 7.056-3.748 12.552-7.199 18.256-4.966 8.208-4.731 17.482 2.974 23.785 6.734 5.507 16.231 7.325 24.625 8.395 10.889 1.391 22.387 2.58 33.257.725 10.108-1.723 16.517-8.462 14.936-18.814z" class="st129"/><path d="M358.361 279.498c-19.907-4.798-38.012-2.63-43.951 4.642.46 4.033 2.431 7.827 6.2 10.911 6.734 5.507 16.231 7.325 24.625 8.395 10.889 1.391 22.387 2.58 33.257.725 5.795-.988 10.362-3.631 12.917-7.651-6.071-6.899-18.236-13.451-33.048-17.022zm48.209 5.858c1.475-9.658 8.616-18.4 14.245-26.017 7.239-9.638 15.996-18.128 27.336-22.654 7.136-2.848 23.702-3.911 27.044 5.465 1.244 3.487.271 7.287-.029 10.859-.596 7.056 3.746 12.552 7.199 18.256 4.968 8.208 4.732 17.482-2.974 23.785-6.734 5.507-16.23 7.325-24.625 8.395-10.89 1.391-22.388 2.58-33.258.725-10.109-1.723-16.519-8.462-14.938-18.814z" class="st128"/><path d="M444.803 263.163c-10.15 2.901-22.476 7.251-28.276 15.951"/><path d="M442.723 255.621c-12.359 3.541-25.453 8.456-32.95 19.545-1.093 1.617-1.292 4.196-.788 6.027.5 1.815 1.902 3.78 3.595 4.674 3.954 2.089 8.249.82 10.701-2.806.303-.449.62-.886.951-1.316l-1.223 1.583c1.372-1.734 2.967-3.253 4.708-4.612l-1.583 1.223c3.154-2.417 6.683-4.269 10.33-5.824l-1.868.788c3.994-1.682 8.123-3.006 12.286-4.199 1.904-.545 3.671-1.879 4.674-3.595.981-1.676 1.397-4.148.788-6.027-1.294-3.997-5.408-6.668-9.621-5.461z"/><path id="SVGID_00000080178431777920081270000013974484402472799157_" d="M406.57 285.356c1.475-9.658 8.616-18.4 14.245-26.017 7.239-9.638 15.996-18.128 27.336-22.654 7.136-2.848 23.702-3.911 27.044 5.465 1.244 3.487.271 7.287-.029 10.859-.596 7.056 3.746 12.552 7.199 18.256 4.968 8.208 4.732 17.482-2.974 23.785-6.734 5.507-16.23 7.325-24.625 8.395-10.89 1.391-22.388 2.58-33.258.725-10.109-1.723-16.519-8.462-14.938-18.814z"/><path id="SVGID_00000007392965030089050190000009458548100775795616_" d="M406.57 285.356c1.475-9.658 8.616-18.4 14.245-26.017 7.239-9.638 15.996-18.128 27.336-22.654 7.136-2.848 23.702-3.911 27.044 5.465 1.244 3.487.271 7.287-.029 10.859-.596 7.056 3.746 12.552 7.199 18.256 4.968 8.208 4.732 17.482-2.974 23.785-6.734 5.507-16.23 7.325-24.625 8.395-10.89 1.391-22.388 2.58-33.258.725-10.109-1.723-16.519-8.462-14.938-18.814z" class="st129"/><path d="M441.639 279.498c19.907-4.798 38.012-2.63 43.952 4.642-.459 4.033-2.432 7.827-6.201 10.911-6.734 5.507-16.23 7.325-24.625 8.395-10.89 1.391-22.388 2.58-33.258.725-5.794-.988-10.362-3.631-12.917-7.651 6.071-6.899 18.236-13.451 33.049-17.022z" class="st128"/><path d="M424.456 280.824c-.242-6.209-2.271-12.704-9.054-14.048-9.093-1.8-21.537-1.235-30.711 0-6.95.936-8.624 8.186-9.055 14.048-.565 7.673-.392 17.987 4.873 24.217 4.847 5.735 12.405 6.716 19.537 6.514 7.129.203 14.687-.779 19.534-6.514 5.39-6.376 5.181-16.404 4.876-24.217z" class="st128"/><path d="M424.395 279.758c-.415 5.089-1.64 10.11-4.813 13.864-4.848 5.734-12.405 6.716-19.534 6.513-7.131.203-14.689-.779-19.537-6.513-2.977-3.523-4.324-8.35-4.834-13.267-.013.156-.029.315-.04.469-.565 7.673-.392 17.987 4.873 24.217 4.847 5.735 12.405 6.716 19.537 6.514 7.129.203 14.687-.779 19.534-6.514 5.389-6.375 5.179-16.403 4.874-24.217a31.57 31.57 0 0 0-.06-1.066z" class="st128"/><path d="M394.839 366.737c-.382-7.572 2.731-15.085 4.794-22.249 2.097-7.271 3.152-14.6 2.255-22.139-1.341-11.274-7.877-21.44-17.988-26.671-10.669-5.517-23.759-2.999-33.139 3.746-10.195 7.329-16.867 16.91-29.607 20.165-8.722 2.229-20.198 4.625-19.286 15.807.772 9.498 8.442 19.196 14.723 25.848 7.989 8.46 18.169 15.169 28.359 20.655 10.36 5.578 22.217 9.854 34.132 9.124 5.077-.583 11.497-1.807 14.138-6.806 2.856-5.403 1.916-11.616 1.619-17.48z" class="st128"/><path d="M384.412 381.252c-5.444 8.583-26.44 5.024-46.895-7.95-20.453-12.975-32.619-30.45-27.175-39.033 5.445-8.585 26.44-5.026 46.892 7.948 20.455 12.975 32.623 30.45 27.178 39.035z" class="st128"/><path d="M356.614 357.946c-.293-1.536-1.196-3.082-2.85-4.525l8.046-12.684c1.92-3.027-2.774-6.004-4.694-2.978-2.733 4.306-5.465 8.614-8.196 12.921-6.095-1.705-13.405 2.174-11.814 9.604 3.208 14.954 21.204 6.528 19.508-2.338zm9.032-59.444c-4.615 1.146-8.502 3.803-11.154 7.76-1.998 2.981 2.701 5.95 4.694 2.978 1.829-2.731 4.492-4.523 7.673-5.314 3.477-.864 2.272-6.291-1.213-5.424z" class="st128"/><path id="SVGID_00000070119033393063043490000001306737429507290041_" d="M394.839 366.737c-.382-7.572 2.731-15.085 4.794-22.249 2.097-7.271 3.152-14.6 2.255-22.139-1.341-11.274-7.877-21.44-17.988-26.671-10.669-5.517-23.759-2.999-33.139 3.746-10.195 7.329-16.867 16.91-29.607 20.165-8.722 2.229-20.198 4.625-19.286 15.807.772 9.498 8.442 19.196 14.723 25.848 7.989 8.46 18.169 15.169 28.359 20.655 10.36 5.578 22.217 9.854 34.132 9.124 5.077-.583 11.497-1.807 14.138-6.806 2.856-5.403 1.916-11.616 1.619-17.48z"/><defs><path id="SVGID_00000123418996310840720440000004484583753025948803_" d="M394.839 366.737c-.382-7.572 2.731-15.085 4.794-22.249 2.097-7.271 3.152-14.6 2.255-22.139-1.341-11.274-7.877-21.44-17.988-26.671-10.669-5.517-23.759-2.999-33.139 3.746-10.195 7.329-16.867 16.91-29.607 20.165-8.722 2.229-20.198 4.625-19.286 15.807.772 9.498 8.442 19.196 14.723 25.848 7.989 8.46 18.169 15.169 28.359 20.655 10.36 5.578 22.217 9.854 34.132 9.124 5.077-.583 11.497-1.807 14.138-6.806 2.856-5.403 1.916-11.616 1.619-17.48z"/></defs><clipPath id="SVGID_00000026856532679954621890000012526475124984517278_"><use xlink:href="#SVGID_00000123418996310840720440000004484583753025948803_" overflow="visible"/></clipPath><g clip-path="url(#SVGID_00000026856532679954621890000012526475124984517278_)"><path d="M318.898 315.192c32.849 2.876 74.238 24.865 80.237 60.255.601 3.541 6.022 2.31 5.424-1.213-6.432-37.943-50.207-61.511-85.46-64.598-3.571-.313-3.766 5.244-.201 5.556z" class="st128"/></g><path id="SVGID_00000146458194849758536680000014624516094022941333_" d="M394.839 366.737c-.382-7.572 2.731-15.085 4.794-22.249 2.097-7.271 3.152-14.6 2.255-22.139-1.341-11.274-7.877-21.44-17.988-26.671-10.669-5.517-23.759-2.999-33.139 3.746-10.195 7.329-16.867 16.91-29.607 20.165-8.722 2.229-20.198 4.625-19.286 15.807.772 9.498 8.442 19.196 14.723 25.848 7.989 8.46 18.169 15.169 28.359 20.655 10.36 5.578 22.217 9.854 34.132 9.124 5.077-.583 11.497-1.807 14.138-6.806 2.856-5.403 1.916-11.616 1.619-17.48z" class="st129"/><path d="M405.163 366.737c.382-7.572-2.731-15.085-4.794-22.249-2.097-7.271-3.152-14.6-2.255-22.139 1.342-11.274 7.877-21.44 17.988-26.671 10.669-5.517 23.759-2.999 33.139 3.746 10.195 7.329 16.866 16.91 29.606 20.165 8.724 2.229 20.198 4.625 19.287 15.807-.772 9.498-8.442 19.196-14.723 25.848-7.989 8.46-18.169 15.169-28.358 20.655-10.361 5.578-22.215 9.854-34.13 9.124-5.077-.583-11.497-1.807-14.139-6.806-2.858-5.403-1.918-11.616-1.621-17.48z" class="st128"/><path d="M415.59 381.252c5.444 8.583 26.438 5.024 46.894-7.95 20.453-12.975 32.618-30.45 27.174-39.033-5.444-8.585-26.439-5.026-46.891 7.948-20.455 12.975-32.622 30.45-27.177 39.035z" class="st128"/><path d="M443.386 357.946c.293-1.536 1.196-3.082 2.85-4.525l-8.046-12.684c-1.919-3.027 2.774-6.004 4.696-2.978l8.194 12.921c6.096-1.705 13.405 2.174 11.813 9.604-3.206 14.954-21.202 6.528-19.507-2.338zm-9.03-59.444c4.614 1.146 8.501 3.803 11.153 7.76 1.998 2.981-2.701 5.95-4.694 2.978-1.829-2.731-4.491-4.523-7.673-5.314-3.476-.864-2.271-6.291 1.214-5.424z" class="st128"/><path id="SVGID_00000085216720003648080070000011966686947001208501_" d="M405.163 366.737c.382-7.572-2.731-15.085-4.794-22.249-2.097-7.271-3.152-14.6-2.255-22.139 1.342-11.274 7.877-21.44 17.988-26.671 10.669-5.517 23.759-2.999 33.139 3.746 10.195 7.329 16.866 16.91 29.606 20.165 8.724 2.229 20.198 4.625 19.287 15.807-.772 9.498-8.442 19.196-14.723 25.848-7.989 8.46-18.169 15.169-28.358 20.655-10.361 5.578-22.215 9.854-34.13 9.124-5.077-.583-11.497-1.807-14.139-6.806-2.858-5.403-1.918-11.616-1.621-17.48z"/><defs><path id="SVGID_00000049199871848438714730000007713990646422489021_" d="M405.163 366.737c.382-7.572-2.731-15.085-4.794-22.249-2.097-7.271-3.152-14.6-2.255-22.139 1.342-11.274 7.877-21.44 17.988-26.671 10.669-5.517 23.759-2.999 33.139 3.746 10.195 7.329 16.866 16.91 29.606 20.165 8.724 2.229 20.198 4.625 19.287 15.807-.772 9.498-8.442 19.196-14.723 25.848-7.989 8.46-18.169 15.169-28.358 20.655-10.361 5.578-22.215 9.854-34.13 9.124-5.077-.583-11.497-1.807-14.139-6.806-2.858-5.403-1.918-11.616-1.621-17.48z"/></defs><clipPath id="SVGID_00000135670206066390479450000005522713840751376298_"><use xlink:href="#SVGID_00000049199871848438714730000007713990646422489021_" overflow="visible"/></clipPath><g clip-path="url(#SVGID_00000135670206066390479450000005522713840751376298_)"><path d="M481.103 315.192c-32.849 2.876-74.236 24.865-80.236 60.255-.601 3.541-6.022 2.31-5.425-1.213 6.432-37.943 50.207-61.511 85.459-64.598 3.573-.313 3.767 5.244.202 5.556z" class="st128"/></g><path id="SVGID_00000041279835146292012770000016309037059280698000_" d="M405.163 366.737c.382-7.572-2.731-15.085-4.794-22.249-2.097-7.271-3.152-14.6-2.255-22.139 1.342-11.274 7.877-21.44 17.988-26.671 10.669-5.517 23.759-2.999 33.139 3.746 10.195 7.329 16.866 16.91 29.606 20.165 8.724 2.229 20.198 4.625 19.287 15.807-.772 9.498-8.442 19.196-14.723 25.848-7.989 8.46-18.169 15.169-28.358 20.655-10.361 5.578-22.215 9.854-34.13 9.124-5.077-.583-11.497-1.807-14.139-6.806-2.858-5.403-1.918-11.616-1.621-17.48z" class="st129"/><path stroke="#000" stroke-miterlimit="10" stroke-width="3.128" d="M401.79 334.199c-8.455 16.342-22.499 27.044-38.404 27.044-20.149 0-37.322-17.163-43.912-41.23-8.441 2.141-18.46 4.905-17.606 15.38.772 9.498 8.442 19.196 14.723 25.848 7.989 8.46 18.169 15.169 28.359 20.655 10.36 5.578 22.217 9.854 34.132 9.123 5.077-.583 11.497-1.807 14.138-6.806 2.856-5.402 1.915-11.615 1.619-17.479-.382-7.572 2.731-15.085 4.794-22.249.984-3.409 1.726-6.833 2.157-10.286zm77.055-14.611c-2.869-.734-5.42-1.8-7.783-3.077.055.964.089 1.933.089 2.911 0 27.788-22.525 50.313-50.312 50.313a50.256 50.256 0 0 1-15.704-2.513c-.32 5.72-1.131 11.74 1.646 16.993 2.643 4.998 9.062 6.223 14.139 6.806 11.915.73 23.77-3.545 34.13-9.123 10.19-5.486 20.368-12.195 28.358-20.655 6.282-6.653 13.952-16.35 14.724-25.848.912-11.181-10.563-13.578-19.287-15.807z" opacity=".5"/></g><path d="M372.866 306.044c-.732-8.21-10.999-12.076-17.592-14.189-2.612-.838-16.501-5.659-17.27-.167-.26 1.863 1.13 3.039 2.576 3.224-.048.094-.105.176-.146.282-5.207 13.03-30.903-1.319-39.572-3.861-2.22-.651-4.406 2.464-2.848 4.273 4.037 4.694 7.19 10.125 11.501 14.552-1.434.605-3.419 1.603-3.663 1.721-2.348 1.141-4.771 2.044-7.262 2.814-2.693.831-2.273 4.813.372 5.353 16.189 3.307 32.439 9.529 49.211 7.365 9.701-1.254 25.756-9.457 24.693-21.367zm-30.96-11.258.077.004c-.12.039-.244.063-.37.074.099-.023.198-.043.293-.078zm109.92 32.623c16.773 2.164 33.021-4.058 49.212-7.365 2.644-.54 3.064-4.521.372-5.353-2.492-.77-4.915-1.673-7.263-2.814-.244-.118-2.229-1.116-3.662-1.721 4.311-4.428 7.464-9.858 11.5-14.552 1.557-1.809-.627-4.924-2.847-4.273-8.667 2.543-34.364 16.892-39.572 3.861-.042-.105-.097-.188-.146-.282 1.446-.185 2.837-1.361 2.577-3.224-.768-5.492-14.657-.67-17.269.167-6.594 2.113-16.862 5.979-17.594 14.189-1.063 11.913 14.992 20.115 24.692 21.367zm6.563-32.545a1.616 1.616 0 0 1-.371-.074c.023-.001.055-.004.078-.004.094.035.192.055.293.078z" class="st127"/><path d="M393.429 284.574c-1.474-9.658-8.615-18.4-14.243-26.017-7.239-9.638-15.997-18.128-27.336-22.654-7.138-2.848-23.701-3.911-27.043 5.465-1.244 3.487-.271 7.287.029 10.859.595 7.056-3.748 12.552-7.199 18.256-4.966 8.208-4.731 17.482 2.974 23.785 6.734 5.507 16.231 7.325 24.625 8.395 10.889 1.391 22.387 2.58 33.257.725 10.108-1.724 16.517-8.462 14.936-18.814z" class="st127"/><path d="M354.491 264.947c5.203 1.491 10.369 3.167 15 5.467 2.311 1.148 4.821 2.619 6.709 4.081 1.796 1.39 3.807 3.452 4.975 5.18.804 1.189 2.342 1.714 3.641.955 1.179-.69 1.764-2.445.955-3.641-6.661-9.853-18.948-14.045-29.866-17.174-1.381-.396-2.895.483-3.273 1.858-.385 1.403.472 2.877 1.859 3.274zm3.87 13.769c-19.907-4.798-38.012-2.63-43.951 4.642.46 4.033 2.431 7.827 6.2 10.911 6.734 5.507 16.231 7.325 24.625 8.395 10.889 1.391 22.387 2.58 33.257.725 5.795-.988 10.362-3.631 12.917-7.651-6.071-6.9-18.236-13.451-33.048-17.022z" class="st133"/><path d="M406.57 284.574c1.475-9.658 8.616-18.4 14.245-26.017 7.239-9.638 15.996-18.128 27.336-22.654 7.136-2.848 23.702-3.911 27.044 5.465 1.244 3.487.271 7.287-.029 10.859-.596 7.056 3.746 12.552 7.199 18.256 4.968 8.208 4.732 17.482-2.974 23.785-6.734 5.507-16.23 7.325-24.625 8.395-10.89 1.391-22.388 2.58-33.258.725-10.109-1.724-16.519-8.462-14.938-18.814z" class="st127"/><path d="M444.095 259.815c-10.918 3.128-23.205 7.321-29.866 17.174-.806 1.191-.228 2.949.955 3.641 1.312.767 2.834.239 3.641-.955.202-.299.409-.594.623-.885.332-.451-.084.075.251-.316.415-.483.827-.965 1.269-1.424a27.314 27.314 0 0 1 2.879-2.592c-.239.186.501-.369.587-.431a39.207 39.207 0 0 1 2.379-1.579 48.24 48.24 0 0 1 3.696-2.035c4.629-2.299 9.8-3.977 15.002-5.467 1.381-.396 2.242-1.878 1.858-3.273-.379-1.379-1.887-2.256-3.274-1.858zm-2.456 18.901c19.907-4.798 38.012-2.63 43.952 4.642-.459 4.033-2.432 7.827-6.201 10.911-6.734 5.507-16.23 7.325-24.625 8.395-10.89 1.391-22.388 2.58-33.258.725-5.794-.988-10.362-3.631-12.917-7.651 6.071-6.9 18.236-13.451 33.049-17.022z" class="st133"/><path d="M424.456 280.042c-.242-6.209-2.271-12.704-9.054-14.048-9.093-1.8-21.537-1.235-30.711 0-6.95.936-8.624 8.186-9.055 14.048-.565 7.673-.392 17.987 4.873 24.217 4.847 5.735 12.405 6.716 19.537 6.514 7.129.203 14.687-.779 19.534-6.514 5.39-6.376 5.181-16.404 4.876-24.217z" class="st127"/><path d="M424.395 278.976c-.415 5.089-1.64 10.11-4.813 13.864-4.848 5.734-12.405 6.716-19.534 6.513-7.131.203-14.689-.779-19.537-6.513-2.977-3.523-4.324-8.35-4.834-13.267-.013.156-.029.315-.04.469-.565 7.673-.392 17.987 4.873 24.217 4.847 5.735 12.405 6.716 19.537 6.514 7.129.203 14.687-.779 19.534-6.514 5.389-6.375 5.179-16.403 4.874-24.217a31.57 31.57 0 0 0-.06-1.066z" class="st133"/><path d="M394.839 365.955c-.382-7.572 2.731-15.085 4.794-22.249 2.097-7.271 3.152-14.6 2.255-22.139-1.341-11.274-7.877-21.44-17.988-26.671-10.669-5.517-23.759-2.999-33.139 3.746-10.195 7.329-16.867 16.91-29.607 20.165-8.722 2.229-20.198 4.625-19.286 15.807.772 9.498 8.442 19.196 14.723 25.848 7.989 8.46 18.169 15.169 28.359 20.655 10.36 5.578 22.217 9.854 34.132 9.123 5.077-.583 11.497-1.807 14.138-6.806 2.856-5.402 1.916-11.615 1.619-17.479z" class="st134"/><path d="M384.412 380.47c-5.444 8.583-26.44 5.024-46.895-7.949-20.453-12.975-32.619-30.45-27.175-39.033 5.445-8.585 26.44-5.026 46.892 7.948 20.455 12.974 32.623 30.449 27.178 39.034z" class="st135"/><path d="M356.614 357.164c-.293-1.536-1.196-3.082-2.85-4.525l8.046-12.684c1.92-3.027-2.774-6.004-4.694-2.978-2.733 4.306-5.465 8.614-8.196 12.921-6.095-1.705-13.405 2.174-11.814 9.604 3.208 14.954 21.204 6.528 19.508-2.338z" class="st134"/><path d="M365.646 297.719c-4.615 1.146-8.502 3.803-11.154 7.76-1.998 2.981 2.701 5.95 4.694 2.978 1.829-2.731 4.492-4.523 7.673-5.314 3.477-.863 2.272-6.29-1.213-5.424z" class="st0"/><defs><path id="SVGID_00000157269965537491517250000004553653242674765989_" d="M394.839 365.955c-.382-7.572 2.731-15.085 4.794-22.249 2.097-7.271 3.152-14.6 2.255-22.139-1.341-11.274-7.877-21.44-17.988-26.671-10.669-5.517-23.759-2.999-33.139 3.746-10.195 7.329-16.867 16.91-29.607 20.165-8.722 2.229-20.198 4.625-19.286 15.807.772 9.498 8.442 19.196 14.723 25.848 7.989 8.46 18.169 15.169 28.359 20.655 10.36 5.578 22.217 9.854 34.132 9.123 5.077-.583 11.497-1.807 14.138-6.806 2.856-5.402 1.916-11.615 1.619-17.479z"/></defs><clipPath id="SVGID_00000156552457107548740940000009279028840751261100_"><use xlink:href="#SVGID_00000157269965537491517250000004553653242674765989_" overflow="visible"/></clipPath><g clip-path="url(#SVGID_00000156552457107548740940000009279028840751261100_)"><path d="M318.898 314.41c32.849 2.876 74.238 24.865 80.237 60.255.601 3.541 6.022 2.31 5.424-1.213-6.432-37.943-50.207-61.511-85.46-64.598-3.571-.313-3.766 5.244-.201 5.556z" class="st135"/></g><path d="M405.163 365.955c.382-7.572-2.731-15.085-4.794-22.249-2.097-7.271-3.152-14.6-2.255-22.139 1.342-11.274 7.877-21.44 17.988-26.671 10.669-5.517 23.759-2.999 33.139 3.746 10.195 7.329 16.866 16.91 29.606 20.165 8.724 2.229 20.198 4.625 19.287 15.807-.772 9.498-8.442 19.196-14.723 25.848-7.989 8.46-18.169 15.169-28.358 20.655-10.361 5.578-22.215 9.854-34.13 9.123-5.077-.583-11.497-1.807-14.139-6.806-2.858-5.402-1.918-11.615-1.621-17.479z" class="st134"/><path d="M415.59 380.47c5.444 8.583 26.438 5.024 46.894-7.949 20.453-12.975 32.618-30.45 27.174-39.033-5.444-8.585-26.439-5.026-46.891 7.948-20.455 12.974-32.622 30.449-27.177 39.034z" class="st135"/><path d="M443.386 357.164c.293-1.536 1.196-3.082 2.85-4.525l-8.046-12.684c-1.919-3.027 2.774-6.004 4.696-2.978l8.194 12.921c6.096-1.705 13.405 2.174 11.813 9.604-3.206 14.954-21.202 6.528-19.507-2.338z" class="st134"/><path d="M434.356 297.719c4.614 1.146 8.501 3.803 11.153 7.76 1.998 2.981-2.701 5.95-4.694 2.978-1.829-2.731-4.491-4.523-7.673-5.314-3.476-.863-2.271-6.29 1.214-5.424z" class="st0"/><defs><path id="SVGID_00000100357051441371059920000001803620245751902372_" d="M405.163 365.955c.382-7.572-2.731-15.085-4.794-22.249-2.097-7.271-3.152-14.6-2.255-22.139 1.342-11.274 7.877-21.44 17.988-26.671 10.669-5.517 23.759-2.999 33.139 3.746 10.195 7.329 16.866 16.91 29.606 20.165 8.724 2.229 20.198 4.625 19.287 15.807-.772 9.498-8.442 19.196-14.723 25.848-7.989 8.46-18.169 15.169-28.358 20.655-10.361 5.578-22.215 9.854-34.13 9.123-5.077-.583-11.497-1.807-14.139-6.806-2.858-5.402-1.918-11.615-1.621-17.479z"/></defs><clipPath id="SVGID_00000054230059850820139700000004073502331026532245_"><use xlink:href="#SVGID_00000100357051441371059920000001803620245751902372_" overflow="visible"/></clipPath><g clip-path="url(#SVGID_00000054230059850820139700000004073502331026532245_)"><path d="M481.103 314.41c-32.849 2.876-74.236 24.865-80.236 60.255-.601 3.541-6.022 2.31-5.425-1.213 6.432-37.943 50.207-61.511 85.459-64.598 3.573-.313 3.767 5.244.202 5.556z" class="st135"/></g><path fill="#ffca5c" d="M401.79 333.417c-8.455 16.342-22.499 27.044-38.404 27.044-20.149 0-37.322-17.163-43.912-41.23-8.441 2.141-18.46 4.905-17.606 15.38.772 9.498 8.442 19.196 14.723 25.848 7.989 8.46 18.169 15.169 28.359 20.655 10.36 5.578 22.217 9.854 34.132 9.123 5.077-.583 11.497-1.807 14.138-6.806 2.856-5.402 1.915-11.615 1.619-17.479-.382-7.572 2.731-15.085 4.794-22.249.984-3.409 1.726-6.833 2.157-10.286zm77.055-14.611c-2.869-.734-5.42-1.8-7.783-3.077.055.964.089 1.933.089 2.911 0 27.788-22.525 50.313-50.312 50.313a50.256 50.256 0 0 1-15.704-2.513c-.32 5.72-1.131 11.74 1.646 16.993 2.643 4.998 9.062 6.223 14.139 6.806 11.915.73 23.77-3.545 34.13-9.123 10.19-5.486 20.368-12.195 28.358-20.655 6.282-6.653 13.952-16.35 14.724-25.848.912-11.181-10.563-13.579-19.287-15.807z" opacity=".5"/></svg>