<svg xmlns="http://www.w3.org/2000/svg" xmlns:xlink="http://www.w3.org/1999/xlink" xml:space="preserve" id="Layer_1" x="0" y="0" version="1.1" viewBox="0 0 800 875"><style>.st0{fill:#fff}.st1{fill:#84b9df}.st8{opacity:.2}.st9{fill:#6890b4}.st10{fill:#9590c5}.st11{fill:#635da8}.st12{fill:#e7e5ea}.st21{fill:#305b61}.st48{fill:#f8f2ea}.st127{fill:#d52b2b}.st128,.st129{stroke:#000;stroke-width:3.1285;stroke-miterlimit:10}.st129{fill:none}.st133{fill:#ba2221}.st134{fill:#ffca5c}.st135{fill:#e8854c}</style><path d="M398.521 868.555a382.646 382.646 0 0 1-4.003-.039l-1.01-.016a378.658 378.658 0 0 1-4.12-.094l-.862-.023a364.415 364.415 0 0 1-4.334-.155l-.651-.026a385.302 385.302 0 0 1-4.672-.228l-.288-.015a396.272 396.272 0 0 1-40.325-4.319l-.208-.034c-1.58-.253-3.164-.516-4.746-.789l-.32-.056a390.264 390.264 0 0 1-4.643-.833l-.342-.064a383.477 383.477 0 0 1-4.649-.896l-.255-.051c-1.61-.321-3.194-.647-4.775-.983l-.161-.034a397.227 397.227 0 0 1-84.485-28.202 397.59 397.59 0 0 1-20.986-10.511 395.813 395.813 0 0 1-44.977-28.282l-.062-.044a397.022 397.022 0 0 1-7.047-5.249l-.113-.087a393.85 393.85 0 0 1-6.957-5.432l-.101-.082a392.882 392.882 0 0 1-33.211-29.81l-.1-.1a390.552 390.552 0 0 1-6.152-6.338l-.204-.215a392.908 392.908 0 0 1-5.981-6.455l-.143-.157a391.8 391.8 0 0 1-9.091-10.409l-.31-.367a400.79 400.79 0 0 1-3.229-3.892l-.113-.14a394.621 394.621 0 0 1-3.127-3.871l-.562-.709a366.348 366.348 0 0 1-2.172-2.762l-.012-.006-1.561-2.021v-.005a370.618 370.618 0 0 1-1.911-2.507l-1.483-.82-.001-1.156a392.38 392.38 0 0 1-6.862-9.493l-.157-.225a394.128 394.128 0 0 1-10.796-16.279l-.959-.958-.001-.576a398.943 398.943 0 0 1-4.547-7.497l-.05-.084a399.647 399.647 0 0 1-4.994-8.693l-.182-.274-.062-.166a406.186 406.186 0 0 1-2.387-4.353l-.042-.065-.089-.176a427.333 427.333 0 0 1-2.709-5.111l-.207-.395a395.406 395.406 0 0 1-2.711-5.307l-.093-.184a406.968 406.968 0 0 1-3.094-6.343l-.846-1.785a393.632 393.632 0 0 1-2.474-5.339l-.58-1.268a405.737 405.737 0 0 1-2.844-6.475l-.658-1.557a409.21 409.21 0 0 1-2.185-5.255l-.679-1.67a404.817 404.817 0 0 1-2.58-6.576l-.288-.771a379.962 379.962 0 0 1-2.189-5.926l-.615-1.717a402.154 402.154 0 0 1-2.131-6.142l-.19-.557a389.411 389.411 0 0 1-2.188-6.738l-.473-1.52a398.379 398.379 0 0 1-1.725-5.69l-.37-1.253a385.164 385.164 0 0 1-1.925-6.841l-.252-.947a372.315 372.315 0 0 1-1.565-6.019l-.357-1.426a394.56 394.56 0 0 1-3.17-13.858l-.271-1.311a393.798 393.798 0 0 1-1.288-6.509l-.089-.465c-.428-2.28-.844-4.624-1.267-7.139l-.141-.86a404.56 404.56 0 0 1-1.014-6.442l-.132-.882a392.701 392.701 0 0 1-1.83-14.364l-.1-.923a392.718 392.718 0 0 1-1.27-14.467l-.042-.62c-.16-2.387-.302-4.763-.419-7.139l-.005-.108a394.346 394.346 0 0 1-.442-14.86l-.005-.448c-.049-4.854-.004-9.82.133-14.746l.01-.38a396.413 396.413 0 0 1 2.837-37.229l.018-.14a399.23 399.23 0 0 1 2.065-14.432v-.053l.04-.213.007-.083.037-.17.076-.461c.306-1.857.625-3.713.957-5.565v-.417l.146-.39c.266-1.462.539-2.923.821-4.382l.042-.214c.292-1.517.606-3.088.93-4.657l.038-.181c.323-1.566.658-3.14 1.003-4.712l4.419.858-4.396-.965a399.554 399.554 0 0 1 2.645-11.258l.115-.524.031-.062c.355-1.407.712-2.786 1.074-4.163l.059-.219a378.16 378.16 0 0 1 1.234-4.563l.066-.239c.415-1.495.852-3.032 1.297-4.565l.055-.185c.977-3.36 2.037-6.83 3.131-10.242l.193-.603.056-.265.102-.222c.447-1.381.902-2.76 1.365-4.136l.091-.27c.545-1.62 1.104-3.244 1.673-4.864l.178-.508c.542-1.534 1.09-3.055 1.646-4.573l.279-.765c.525-1.423 1.06-2.84 1.6-4.255l.386-1.016c.515-1.335 1.037-2.66 1.563-3.984l.483-1.223a416.58 416.58 0 0 1 1.324-3.248c-14.86-9.342-24.815-22.88-27.57-37.668a48.05 48.05 0 0 1-.624-2.101l-.1-.351a48.16 48.16 0 0 1-.585-2.533l-.17-.864a24.049 24.049 0 0 1-.104-.535 49.171 49.171 0 0 1-.278-1.819l-.019-.127c-.084-.63-.15-1.252-.208-1.876a103.268 103.268 0 0 1-.153-2.232 49.097 49.097 0 0 1-.045-2.062c0-9.153 2.587-17.94 7.69-26.118a54.7 54.7 0 0 1 1.705-2.572 60.475 60.475 0 0 1 5.978-7.215 67.203 67.203 0 0 1 6.037-5.493 73.015 73.015 0 0 1 7.566-5.353 77.45 77.45 0 0 1 6.226-3.459 83.011 83.011 0 0 1 9.048-3.855c9.818-3.522 20.26-5.309 31.032-5.309h3.455c8.255-19.986 21.952-37.081 39.766-49.581 19.104-13.406 41.579-20.492 64.998-20.492 4.43 0 8.922.271 13.413.808 1.176-62.312 52.23-112.637 114.818-112.637 32.387 0 62.979 13.547 84.739 37.35C437.058 28.682 486.848 6.44 539.398 6.44c101.964 0 184.918 82.954 184.918 184.918 0 6.96-.396 13.975-1.18 20.92 8.954.365 17.666 1.981 25.947 4.82a85.706 85.706 0 0 1 9.701 4.011 80.337 80.337 0 0 1 5.656 3.054 73.282 73.282 0 0 1 9.562 6.756A67.26 67.26 0 0 1 778 234.56c2.701 2.663 5.091 5.463 7.102 8.325a54.993 54.993 0 0 1 1.706 2.572c5.102 8.175 7.688 16.963 7.688 26.116 0 .847-.028 1.727-.09 2.769l-.041.63a45.42 45.42 0 0 1-.265 2.685l-.046.307c-.119.86-.251 1.651-.401 2.437l-.188.98a45.965 45.965 0 0 1-.52 2.174l-.237.863c-.068.255-.138.51-.214.764-.078.262-.162.519-.246.775l-.038.117c-2.755 14.783-12.704 28.319-27.56 37.661.246.593.491 1.187.732 1.78l.751 1.863c.393.977.783 1.955 1.169 2.935l.751 1.933a370.612 370.612 0 0 1 1.856 4.897c.353.951.702 1.901 1.047 2.853.241.665.482 1.33.719 1.996.346.966.685 1.935 1.021 2.904 0 0 .467 1.338.672 1.938.351 1.022.691 2.045 1.033 3.068l.592 1.778c.39 1.189.771 2.382 1.148 3.575l.405 1.267a376.09 376.09 0 0 1 1.5 4.896l.192.657a405.97 405.97 0 0 1 1.229 4.211l.449 1.604c.306 1.093.612 2.188.909 3.286.124.453.488 1.831.488 1.831.273 1.025.545 2.053.811 3.082l.482 1.904c.255 1.008.506 2.019.752 3.029l.461 1.916c.243 1.019.481 2.038.716 3.058l.428 1.871c.238 1.063.47 2.124.698 3.186l.374 1.731c.246 1.165.483 2.329.719 3.493l.289 1.43c.303 1.525.595 3.055.879 4.585l.064.342c.31 1.672.608 3.361.898 5.051l.1.601c.245 1.452.483 2.896.712 4.34l.21 1.373c.184 1.193.365 2.391.539 3.588l.224 1.591c.159 1.128.315 2.259.464 3.39l.215 1.663c.143 1.118.28 2.235.411 3.351l.193 1.649c.131 1.144.255 2.286.375 3.427l.161 1.543c.124 1.22.24 2.439.353 3.659l.12 1.294c.126 1.428.243 2.853.354 4.276l.054.67c.257 3.384.472 6.816.64 10.2l.014.297c.076 1.563.143 3.121.2 4.679l.032.977c.047 1.333.087 2.672.119 4.01l.025 1.219c.027 1.26.048 2.525.063 3.79l.012 1.28c.01 1.265.015 2.522.013 3.78l-.003 1.24c-.006 1.305-.02 2.611-.038 3.917l-.016 1.046a389.36 389.36 0 0 1-.1 4.34l-.016.604a394.838 394.838 0 0 1-1.127 20.251l-.048.568a396.321 396.321 0 0 1-.39 4.399l-.077.8a414.688 414.688 0 0 1-.427 4.201l-.092.846a380.68 380.68 0 0 1-.484 4.222l-.091.752a371.884 371.884 0 0 1-.572 4.474l-.058.438a397.483 397.483 0 0 1-4.204 25.066l-.021.107a422.039 422.039 0 0 1-.994 4.783l-.097.447c-.32 1.488-.652 2.99-.994 4.491l-.103.454c-.351 1.53-.709 3.059-1.078 4.585l-.068.286a398.409 398.409 0 0 1-9.907 34.159l-.038.111a397.44 397.44 0 0 1-1.633 4.709l-.057.162a397.88 397.88 0 0 1-23.826 54.08l-.245.458a396.561 396.561 0 0 1-11.434 19.965l-.379.622a391.328 391.328 0 0 1-3.628 5.789l-.792 1.233a395.956 395.956 0 0 1-3.868 5.898l-.133.222-.088.105a394.218 394.218 0 0 1-8.627 12.334l-.061.084a397.822 397.822 0 0 1-9.619 12.67l-.092.194-.362.379-.073.09a419.855 419.855 0 0 1-2.958 3.672l-.81.981c-.783.954-1.569 1.907-2.362 2.854l-1.1 1.303c-.707.837-1.412 1.669-2.123 2.497l-1.229 1.421c-.683.787-1.368 1.573-2.059 2.356l-1.279 1.444a497.421 497.421 0 0 1-3.364 3.732 348.34 348.34 0 0 1-2.179 2.364l-1.226 1.318c-.799.854-1.609 1.706-2.421 2.557l-1.02 1.071a397.886 397.886 0 0 1-7.075 7.174l-.961.939c-.872.855-1.749 1.712-2.633 2.564l-1.296 1.237a298.034 298.034 0 0 1-3.784 3.562c-.757.702-1.517 1.405-2.281 2.104a382.986 382.986 0 0 1-3.788 3.417l-1.478 1.312c-.797.703-1.601 1.402-2.405 2.1l-1.419 1.23c-.885.76-1.775 1.514-2.667 2.266l-1.192 1.008a395.632 395.632 0 0 1-7.891 6.431l-1.179.926c-.94.741-1.88 1.478-2.827 2.209l-1.505 1.152c-.849.649-1.699 1.297-2.555 1.941l-1.633 1.219a398.532 398.532 0 0 1-4.176 3.065c-.834.604-1.672 1.205-2.512 1.803-.587.418-1.133.807-1.682 1.193a379.4 379.4 0 0 1-2.615 1.822l-1.616 1.117c-.955.654-1.919 1.304-2.884 1.952l-1.382.93a416.405 416.405 0 0 1-4.258 2.796l-.108.07a381.772 381.772 0 0 1-4.305 2.743l-1.394.865c-1 .623-2.001 1.245-3.008 1.86l-1.708 1.032c-.917.553-1.835 1.106-2.759 1.653-.53.315-1.82 1.07-1.82 1.07a372.805 372.805 0 0 1-7.296 4.17c-.618.345-1.237.69-1.86 1.033a411.58 411.58 0 0 1-2.839 1.545s-1.351.731-1.785.962a405.172 405.172 0 0 1-3.151 1.66l-1.5.785a385.308 385.308 0 0 1-9.444 4.726l-1.536.732a404.866 404.866 0 0 1-3.224 1.532c-.429.201-1.859.857-1.859.857-.989.457-1.954.903-2.92 1.34-.49.221-1.975.881-1.975.881-.94.419-1.882.838-2.825 1.25-.591.258-2.045.882-2.045.882-.919.395-1.84.789-2.763 1.177-.607.255-2.09.87-2.09.87-.914.378-1.826.754-2.74 1.125-.703.285-1.405.565-2.106.846a390.875 390.875 0 0 1-12.521 4.747s-1.413.509-2.052.734c-.956.339-1.918.672-2.88 1.003 0 0-1.443.5-1.995.687-1 .338-1.998.669-2.996.999l-1.882.621c-1.073.349-2.148.688-3.225 1.027l-1.667.527c-1.238.384-2.479.758-3.721 1.13l-1.176.355a395.402 395.402 0 0 1-9.951 2.804l-.789.207c-1.381.367-2.766.729-4.15 1.08l-1.389.345c-1.188.296-2.375.591-3.562.875l-1.619.381c-1.115.263-2.232.523-3.349.776l-1.717.381c-1.084.24-2.17.478-3.256.709l-1.768.369c-1.078.224-2.154.444-3.23.658l-1.77.347a385.4 385.4 0 0 1-3.239.616l-1.755.321c-1.09.197-2.185.39-3.277.578l-1.706.291c-1.121.188-2.24.369-3.36.546l-1.617.254c-1.169.181-2.336.353-3.503.522l-1.48.214c-1.241.175-2.484.342-3.728.505l-1.245.165c-1.376.176-2.752.343-4.128.504l-.85.102a394.173 394.173 0 0 1-20.364 1.805l-.156.009c-1.624.101-3.24.19-4.856.271l-.668.03c-1.445.069-2.897.132-4.349.186l-.913.03c-1.368.047-2.74.088-4.109.121l-1.041.022a407.12 407.12 0 0 1-3.999.066l-1.076.01a406.04 406.04 0 0 1-3.311.014l-1.727-.007z" class="st0"/><path d="M539.401 10.941c99.642 0 180.418 80.776 180.418 180.418a181.8 181.8 0 0 1-1.776 25.341h1.173c10.093 0 19.702 1.672 28.412 4.656a80.39 80.39 0 0 1 9.182 3.796 76.02 76.02 0 0 1 5.336 2.881 68.549 68.549 0 0 1 8.97 6.337 62.138 62.138 0 0 1 3.729 3.396c2.454 2.418 4.668 4.989 6.579 7.707a52.298 52.298 0 0 1 1.568 2.365c4.488 7.193 7.008 15.247 7.008 23.736 0 .84-.034 1.674-.083 2.505-.011.191-.022.383-.036.573a42.463 42.463 0 0 1-.24 2.426c-.015.114-.035.226-.051.34-.099.717-.218 1.43-.353 2.138-.036.188-.07.377-.108.565-.023.113-.041.226-.065.339a43.395 43.395 0 0 1-.467 1.955c-.048.185-.103.369-.154.554-.085.309-.165.619-.257.926-.097.323-.205.643-.309.964-.014.042-.025.086-.039.128-2.719 15.13-13.499 28.322-28.846 36.874l.267.629c.218.515.429 1.032.645 1.548.442 1.058.883 2.116 1.315 3.175.25.614.495 1.229.742 1.843.389.967.776 1.934 1.156 2.903.255.648.505 1.297.756 1.946a389.542 389.542 0 0 1 1.822 4.805 382.712 382.712 0 0 1 2.757 7.666c.222.638.445 1.277.664 1.916a372.81 372.81 0 0 1 1.021 3.035c.195.584.392 1.168.584 1.753.386 1.177.762 2.355 1.136 3.534.133.419.27.838.402 1.258a389.16 389.16 0 0 1 1.482 4.836c.065.217.126.433.19.65.412 1.387.818 2.774 1.214 4.163.15.527.295 1.055.443 1.582.304 1.083.606 2.166.901 3.25.163.603.322 1.206.482 1.809.27 1.016.539 2.031.8 3.048.161.627.319 1.255.478 1.882a409.375 409.375 0 0 1 1.2 4.889 401.22 401.22 0 0 1 1.82 8.019c.124.571.249 1.143.37 1.715.243 1.15.478 2.301.71 3.452.095.47.193.94.286 1.41.299 1.511.588 3.022.869 4.534l.062.323c.308 1.669.605 3.339.89 5.009.034.2.065.4.099.599.242 1.428.477 2.856.703 4.284.071.451.138.903.208 1.354.183 1.184.362 2.367.533 3.551.076.523.148 1.046.221 1.57.157 1.118.311 2.235.458 3.353.072.549.142 1.098.212 1.647.14 1.102.276 2.204.407 3.306.065.545.128 1.09.191 1.635.129 1.128.252 2.255.371 3.383.054.51.108 1.019.16 1.529.122 1.205.237 2.409.347 3.614.039.428.081.856.119 1.284.125 1.408.24 2.817.35 4.225.017.22.037.44.053.66.255 3.363.466 6.725.633 10.086l.013.298c.075 1.54.141 3.081.198 4.62.012.321.021.642.032.963.045 1.322.085 2.644.118 3.965.01.402.017.804.025 1.206a426.086 426.086 0 0 1 .074 5.018c.01 1.244.014 2.488.012 3.731-.001.408-.001.817-.003 1.225a384.585 384.585 0 0 1-.038 3.874c-.005.345-.009.69-.015 1.034a383.353 383.353 0 0 1-.098 4.291l-.016.596a388.943 388.943 0 0 1-1.114 20.019l-.047.555a421.453 421.453 0 0 1-.385 4.355l-.077.792a384.394 384.394 0 0 1-.992 9.162l-.089.744c-.18 1.475-.369 2.949-.566 4.421l-.058.439a391.78 391.78 0 0 1-4.156 24.776l-.038.185a382.898 382.898 0 0 1-.966 4.648l-.092.427c-.32 1.487-.649 2.972-.986 4.456l-.103.449a392.322 392.322 0 0 1-1.065 4.535l-.066.276a392.505 392.505 0 0 1-9.797 33.778l-.061.18c-.52 1.531-1.05 3.059-1.59 4.584l-.058.164a391.924 391.924 0 0 1-23.555 53.464l-.243.456-.001.001a390.813 390.813 0 0 1-11.301 19.734l-.002.003-.377.617-.001.002a388.456 388.456 0 0 1-3.838 6.115l-.45.699-.002.003a388.564 388.564 0 0 1-3.957 6.035l-.005.007-.149.22a387.21 387.21 0 0 1-8.534 12.202l-.001.001-.06.082a387.256 387.256 0 0 1-9.826 12.924l-.004.006-.005.006-.001.001a397.146 397.146 0 0 1-3.12 3.874c-.264.324-.532.645-.797.968-.775.944-1.553 1.887-2.337 2.824-.361.431-.726.86-1.089 1.29-.696.824-1.394 1.648-2.098 2.467-.402.469-.807.935-1.212 1.401a346.49 346.49 0 0 1-3.304 3.761 369.802 369.802 0 0 1-5.478 6.024c-.403.434-.804.869-1.209 1.302-.794.847-1.594 1.689-2.396 2.53-.336.353-.67.708-1.009 1.06a389.179 389.179 0 0 1-6.992 7.089c-.314.31-.632.617-.947.926a390.11 390.11 0 0 1-2.605 2.536c-.425.409-.853.814-1.28 1.221-.772.737-1.546 1.472-2.325 2.203-.469.441-.942.879-1.414 1.317a343.738 343.738 0 0 1-3.717 3.409 449.597 449.597 0 0 1-3.745 3.348c-.789.695-1.582 1.386-2.377 2.076-.468.406-.934.813-1.405 1.217-.874.751-1.754 1.496-2.636 2.24-.394.332-.785.667-1.18.998a391.42 391.42 0 0 1-7.797 6.355c-.388.308-.78.612-1.169.918a400.53 400.53 0 0 1-2.791 2.181c-.494.381-.991.759-1.487 1.139-.84.643-1.681 1.284-2.527 1.92-.536.404-1.076.804-1.615 1.206a371.425 371.425 0 0 1-6.611 4.81c-.553.394-1.106.787-1.661 1.178-.858.604-1.721 1.204-2.586 1.802-.531.368-1.062.737-1.595 1.102-.947.648-1.899 1.29-2.853 1.931-.456.306-.909.615-1.366.92a391.361 391.361 0 0 1-4.21 2.765l-.045.03c-1.431.926-2.87 1.842-4.316 2.751-.458.288-.92.571-1.38.857-.989.616-1.978 1.23-2.974 1.838-.56.342-1.125.68-1.687 1.019-.907.547-1.815 1.094-2.728 1.635-.598.354-1.199.706-1.8 1.058a412.054 412.054 0 0 1-4.518 2.606c-.896.509-1.795 1.014-2.696 1.516-.613.342-1.225.683-1.84 1.022-.932.513-1.869 1.021-2.806 1.527-.587.317-1.172.636-1.761.95a400.535 400.535 0 0 1-3.119 1.642c-.495.258-.986.52-1.482.776a421.564 421.564 0 0 1-4.647 2.366c-1.562.781-3.126 1.55-4.693 2.308-.505.244-1.011.481-1.517.723-1.062.508-2.124 1.017-3.188 1.515-.611.286-1.223.564-1.835.847-.963.445-1.927.89-2.892 1.326-.649.293-1.3.581-1.95.87-.931.415-1.862.829-2.794 1.236-.673.293-1.347.582-2.021.871-.91.391-1.82.781-2.732 1.164-.689.29-1.379.575-2.069.861a349.965 349.965 0 0 1-4.791 1.947 413.176 413.176 0 0 1-4.791 1.874 366.91 366.91 0 0 1-4.803 1.807c-.927.342-1.856.678-2.784 1.012-.676.243-1.351.487-2.027.726-.948.335-1.897.664-2.847.992-.658.227-1.316.456-1.974.679-.986.334-1.974.661-2.962.987-.62.205-1.239.412-1.859.613-1.061.344-2.124.68-3.187 1.015-.549.173-1.098.35-1.647.521-1.226.38-2.453.75-3.68 1.118-.387.116-.774.236-1.161.351a388.626 388.626 0 0 1-9.838 2.772c-.259.069-.519.135-.778.203a381.11 381.11 0 0 1-4.105 1.068c-.458.116-.917.227-1.375.341-1.172.293-2.345.584-3.519.865-.533.128-1.067.251-1.6.376-1.103.26-2.206.518-3.311.767-.565.128-1.131.251-1.697.376a370.26 370.26 0 0 1-3.219.701c-.583.124-1.167.244-1.75.365-1.063.221-2.126.438-3.189.65-.583.116-1.167.229-1.75.343a354.168 354.168 0 0 1-4.935.926 407.295 407.295 0 0 1-4.928.858c-1.107.185-2.215.365-3.323.54-.533.084-1.066.17-1.599.252a374.69 374.69 0 0 1-3.459.515c-.488.071-.976.143-1.464.212-1.228.173-2.457.338-3.686.499-.411.054-.821.11-1.232.163-1.36.174-2.72.338-4.08.498-.282.033-.563.069-.845.101a388.23 388.23 0 0 1-25.08 2.06c-.218.011-.437.019-.655.03-1.435.069-2.869.131-4.304.183l-.902.03c-1.355.047-2.709.087-4.063.12l-1.023.021a373.586 373.586 0 0 1-8.295.088l-.653-.001a401.854 401.854 0 0 1-10.094-.15l-.857-.024a380.845 380.845 0 0 1-4.281-.153c-.213-.009-.427-.016-.64-.026a395.054 395.054 0 0 1-4.907-.24 390.248 390.248 0 0 1-39.866-4.27l-.198-.032a390.064 390.064 0 0 1-4.7-.781l-.299-.052a396.528 396.528 0 0 1-4.608-.826l-.326-.061a377.622 377.622 0 0 1-4.605-.887l-.277-.055a376.034 376.034 0 0 1-4.698-.968l-.145-.031a392.242 392.242 0 0 1-83.541-27.885 390.516 390.516 0 0 1-20.748-10.392h-.001a389.75 389.75 0 0 1-44.462-27.958l-.04-.029a385.602 385.602 0 0 1-6.987-5.204l-.112-.085a383.87 383.87 0 0 1-6.878-5.37l-.035-.029a387.006 387.006 0 0 1-32.893-29.519l-.11-.11a385.688 385.688 0 0 1-6.071-6.254l-.199-.21a389.676 389.676 0 0 1-5.916-6.383l-.165-.183a387.907 387.907 0 0 1-9.17-10.507l-.002-.003-.103-.123a392.334 392.334 0 0 1-3.184-3.837l-.001-.002-.094-.115a390.213 390.213 0 0 1-3.167-3.924l-.008-.01-.168-.212-.152-.191-.004-.005a383.19 383.19 0 0 1-2.934-3.74l-.001-.002-.03-.038a385.682 385.682 0 0 1-3.231-4.231l-.133-.176-.001-.002a386.437 386.437 0 0 1-7.73-10.653l-.01-.015a391.82 391.82 0 0 1-5.618-8.248l-.006-.009a390.602 390.602 0 0 1-5.403-8.385l-.006-.009-.002-.003a393.238 393.238 0 0 1-5.217-8.571l-.005-.009c-1.706-2.885-3.38-5.8-5.02-8.743l-.004-.007-.026-.047a390.056 390.056 0 0 1-2.591-4.727l-.003-.005-.001-.002a409.506 409.506 0 0 1-2.702-5.097l-.208-.397a385.834 385.834 0 0 1-2.701-5.289l-.013-.025-.008-.016a392.425 392.425 0 0 1-3.105-6.364c-.281-.588-.559-1.177-.837-1.766a397.615 397.615 0 0 1-2.445-5.276c-.191-.421-.387-.841-.577-1.262a395.125 395.125 0 0 1-2.809-6.395c-.219-.51-.432-1.022-.649-1.533a394.211 394.211 0 0 1-2.162-5.204c-.224-.549-.449-1.098-.67-1.648a390.485 390.485 0 0 1-2.551-6.503c-.096-.253-.188-.507-.284-.76a398.097 398.097 0 0 1-2.773-7.558 382.842 382.842 0 0 1-2.107-6.073c-.06-.179-.124-.358-.184-.537a392.657 392.657 0 0 1-2.167-6.674c-.158-.501-.312-1.002-.469-1.504a389.14 389.14 0 0 1-1.704-5.624c-.122-.413-.246-.825-.366-1.238a384.662 384.662 0 0 1-1.902-6.761c-.085-.312-.165-.624-.249-.937a396.876 396.876 0 0 1-1.547-5.948c-.118-.468-.237-.936-.353-1.405a384.88 384.88 0 0 1-3.134-13.707l-.268-1.294a389.051 389.051 0 0 1-1.273-6.436l-.084-.435c-.442-2.359-.859-4.72-1.256-7.082-.048-.283-.092-.566-.139-.849a375.88 375.88 0 0 1-1.001-6.369c-.043-.292-.089-.583-.131-.875a389.81 389.81 0 0 1-1.809-14.194l-.098-.912a387.513 387.513 0 0 1-1.255-14.302l-.042-.624a387.375 387.375 0 0 1-.413-7.046l-.006-.108a387.785 387.785 0 0 1-.442-15.118c-.048-4.87-.004-9.734.131-14.591l.01-.36a389.455 389.455 0 0 1 2.805-36.82l.017-.139a391.232 391.232 0 0 1 2.099-14.618l.001-.005.005-.031.002-.014c.351-2.152.72-4.3 1.106-6.445l.003-.019.001-.008c.285-1.578.579-3.154.883-4.727l.03-.156a387.9 387.9 0 0 1 .932-4.661l.034-.167a391.567 391.567 0 0 1 1.018-4.777 393.77 393.77 0 0 1 2.622-11.163l.013-.053.003-.011c.385-1.535.78-3.068 1.183-4.598l.051-.196c.4-1.513.809-3.024 1.227-4.532l.054-.194c.422-1.521.854-3.041 1.294-4.557l.033-.113a392.842 392.842 0 0 1 3.142-10.273c.08-.248.158-.497.239-.745l.004-.013a413.999 413.999 0 0 1 3.174-9.411l.178-.51a378.772 378.772 0 0 1 1.625-4.513c.092-.252.183-.505.276-.757a393.908 393.908 0 0 1 1.582-4.206c.128-.336.253-.672.383-1.008a401.017 401.017 0 0 1 1.544-3.936c.16-.402.316-.806.477-1.208a376.933 376.933 0 0 1 1.571-3.841c.169-.408.333-.818.503-1.226.242-.579.491-1.156.736-1.734-15.352-8.552-26.136-21.746-28.856-36.879l-.023-.078a44.09 44.09 0 0 1-.632-2.11c-.023-.086-.051-.171-.073-.257l-.018-.062a43.628 43.628 0 0 1-.647-2.899c-.042-.222-.092-.443-.131-.667a42.608 42.608 0 0 1-.251-1.645l-.02-.13a44.667 44.667 0 0 1-.185-1.684c-.023-.257-.04-.515-.058-.772a41.072 41.072 0 0 1-.04-.606c-.013-.215-.033-.429-.042-.645a42.518 42.518 0 0 1-.04-1.858c0-8.489 2.52-16.543 7.008-23.736a52.298 52.298 0 0 1 1.568-2.365 55.954 55.954 0 0 1 5.534-6.678 62.338 62.338 0 0 1 5.63-5.121 68.458 68.458 0 0 1 7.1-5.023 73.257 73.257 0 0 1 5.87-3.261 78.45 78.45 0 0 1 8.559-3.647c8.998-3.228 18.993-5.045 29.515-5.045h6.51c15.626-40.963 55.258-70.072 101.709-70.072 6.124 0 12.121.531 17.969 1.503-.027-.998-.076-1.99-.076-2.994 0-60.938 49.4-110.338 110.338-110.338 34.055 0 64.496 15.437 84.736 39.684 33.09-38.862 82.375-63.528 137.428-63.528m0-9c-52.206 0-101.75 21.427-137.478 59.13-22.345-22.532-52.674-35.273-84.69-35.273-31.876 0-61.845 12.413-84.385 34.953-20.846 20.846-33.031 48.049-34.744 77.236-3.049-.239-6.089-.36-9.102-.36-24.348 0-47.719 7.368-67.583 21.308-17.686 12.411-31.47 29.18-40.148 48.764h-.487c-11.292 0-22.245 1.875-32.554 5.573a87.725 87.725 0 0 0-12.243 5.473 81.335 81.335 0 0 0-3.875 2.248 77.713 77.713 0 0 0-8.032 5.684 71.36 71.36 0 0 0-6.442 5.864 65.046 65.046 0 0 0-6.424 7.755 62.323 62.323 0 0 0-1.841 2.777C3.895 251.852 1 261.708 1 271.575c0 .75.016 1.507.049 2.25.01.218.024.431.04.644l.01.136c.014.246.031.497.049.747l.01.149c.018.258.036.515.06.772.067.737.141 1.404.224 2.042.012.093.024.174.036.25.094.69.189 1.312.292 1.898.038.216.081.435.126.654l.031.153a52.508 52.508 0 0 0 .783 3.496l.034.132.028.094.062.214c.174.639.366 1.291.582 1.974 2.85 14.834 12.297 28.437 26.384 38.276l-.243.616-.189.479a390.167 390.167 0 0 0-1.578 4.023l-.252.662-.143.378a386.297 386.297 0 0 0-1.614 4.293l-.168.461-.115.315a414.11 414.11 0 0 0-1.662 4.617l-.125.358-.06.171a403.63 403.63 0 0 0-1.692 4.918l-.048.143-.039.117a383.109 383.109 0 0 0-1.439 4.362l-.089.259-.024.092-.076.237-.084.264-.034.105a400.03 400.03 0 0 0-3.179 10.402l-.027.094a401.593 401.593 0 0 0-1.331 4.683l-.054.195a414.243 414.243 0 0 0-1.256 4.641l-.036.135-.018.069a388.53 388.53 0 0 0-1.201 4.667l-.003.012-.013.052-.017.068a399.458 399.458 0 0 0-2.674 11.386l-.016.074a404.323 404.323 0 0 0-1.025 4.811l-.032.158c-.33 1.6-.647 3.189-.956 4.78l-.016.085-.014.074a401.725 401.725 0 0 0-.881 4.709l-.028.133-.02.135a405.063 405.063 0 0 0-1.059 6.159l-.001.004-.057.351-.006.034-.001.009a404.56 404.56 0 0 0-2.144 14.933v.001l-.009.071-.012.094a400.404 400.404 0 0 0-2.867 37.646l-.002.062-.009.32a398.87 398.87 0 0 0-.133 14.914l.004.344.001.106c.055 5.023.205 10.08.447 15.019l.005.1c.115 2.326.257 4.751.423 7.221l.013.204.029.439c.334 4.836.766 9.76 1.284 14.628l.082.757.019.173a398.17 398.17 0 0 0 1.851 14.526l.081.541.053.354a386.95 386.95 0 0 0 1.025 6.519l.054.332.089.539c.418 2.485.851 4.923 1.285 7.244l.057.295.029.151c.396 2.103.822 4.257 1.302 6.585l.274 1.322c.982 4.681 2.061 9.4 3.208 14.027.097.393.197.787.296 1.181l.065.258c.52 2.066 1.053 4.114 1.583 6.084l.093.35.162.609c.613 2.26 1.268 4.587 1.946 6.917.077.266.156.532.236.798l.14.47c.56 1.899 1.146 3.835 1.742 5.752l.136.438c.114.368.228.736.344 1.104a385.41 385.41 0 0 0 2.217 6.825l.121.354.067.196a382.05 382.05 0 0 0 2.778 7.95c.761 2.11 1.486 4.071 2.215 5.996l.111.297.18.481a392.371 392.371 0 0 0 3.107 7.875l.189.463a405.42 405.42 0 0 0 2.211 5.322l.234.555c.142.337.284.673.428 1.01a405.81 405.81 0 0 0 2.874 6.544c.12.266.24.529.362.793l.229.5a397.433 397.433 0 0 0 2.5 5.395l.039.083a405.757 405.757 0 0 0 3.975 8.195l.021.042.01.019.008.016.02.038a393.067 393.067 0 0 0 2.744 5.371l.134.256.08.153a410.734 410.734 0 0 0 2.573 4.859v.001l.06.111.064.118.187.375.079.119a385.504 385.504 0 0 0 2.453 4.468l.001.002.231.425.03.043a405.909 405.909 0 0 0 4.821 8.39l.006.011.074.126.075.127.001.002a405.266 405.266 0 0 0 5.003 8.228l.449.93.36.36a401.93 401.93 0 0 0 4.97 7.693l.01.015.015.022a401.109 401.109 0 0 0 5.727 8.41l.02.029.027.038.004.006a399.942 399.942 0 0 0 7.736 10.667l.004.005.156.207.091.12.044.059a402.96 402.96 0 0 0 3.286 4.303l.005.007.043.056a417.548 417.548 0 0 0 3.001 3.825l.119.15.042.063.199.242.081.102.004.004a385.293 385.293 0 0 0 3.136 3.882l.054.066.29.363.038.038a391.92 391.92 0 0 0 2.668 3.216l.004.007.409.486a396.612 396.612 0 0 0 9.383 10.751l.174.192a395.412 395.412 0 0 0 6.049 6.527l.135.142.065.069a397.476 397.476 0 0 0 6.216 6.403l.109.11a398.016 398.016 0 0 0 33.646 30.197l.011.009.038.031a401.29 401.29 0 0 0 7.038 5.495l.144.11a397.965 397.965 0 0 0 7.119 5.303l.027.019.032.023a400.27 400.27 0 0 0 44.622 28.132l.004.004.846.456a402.392 402.392 0 0 0 21.225 10.63 401.726 401.726 0 0 0 85.458 28.525l.1.021c1.648.35 3.25.68 4.854 1l.136.027.158.031c1.557.31 3.128.612 4.701.905l.329.062c1.575.292 3.146.574 4.719.846l.302.053c1.604.276 3.207.543 4.812.799l.174.028a401.1 401.1 0 0 0 40.813 4.373l.183.01.112.006c1.572.086 3.148.163 4.726.23l.402.016.246.01c1.466.06 2.926.113 4.386.156l.533.015.337.009c1.395.039 2.785.07 4.175.094l1.018.016c1.353.02 2.703.033 4.054.039l1.091.004.666.001c1.116 0 2.231-.005 3.347-.014l.162-.001.929-.008c1.346-.015 2.697-.038 4.048-.066l.313-.006.73-.016a382.8 382.8 0 0 0 4.164-.123l.344-.011.575-.019c1.469-.054 2.937-.117 4.405-.188l.263-.012.409-.019c1.632-.081 3.267-.172 4.902-.273l.123-.007c6.89-.43 13.818-1.044 20.635-1.828l.516-.062.348-.042a417.26 417.26 0 0 0 4.176-.51l.794-.105.468-.062c1.255-.165 2.512-.333 3.77-.511l1.053-.152.444-.065a280.127 280.127 0 0 0 4.861-.735l.316-.05a400.217 400.217 0 0 0 5.126-.846 426.35 426.35 0 0 0 5.086-.908c1.097-.203 2.189-.411 3.282-.624a369.927 369.927 0 0 0 5.052-1.015l.419-.087c.457-.095.914-.19 1.371-.287a410.89 410.89 0 0 0 3.294-.717l.489-.108c.417-.092.834-.184 1.25-.278 1.128-.255 2.256-.519 3.385-.784l.533-.125c.368-.086.736-.172 1.104-.26a378.1 378.1 0 0 0 3.602-.886l.51-.126c.299-.073.597-.147.896-.223 1.401-.355 2.8-.721 4.199-1.093l.31-.081.482-.126c3.354-.897 6.74-1.852 10.07-2.837.243-.072.483-.145.723-.218l.467-.141a405.2 405.2 0 0 0 3.764-1.143c.367-.114.735-.231 1.104-.348l.583-.185c1.084-.342 2.172-.685 3.258-1.038.449-.146.895-.294 1.342-.442l.562-.186a384.03 384.03 0 0 0 3.03-1.01c.536-.182 1.071-.367 1.605-.551l.415-.143c.97-.335 1.941-.671 2.911-1.014.635-.225 1.27-.453 1.904-.681l.17-.061c.95-.342 1.9-.686 2.849-1.036.701-.258 1.401-.52 2.102-.782a372.831 372.831 0 0 0 4.934-1.887 410.914 410.914 0 0 0 12.589-5.158l.407-.175c.554-.238 1.108-.475 1.661-.716.954-.416 1.906-.84 2.858-1.264l.52-.231c.492-.219.984-.437 1.475-.659a397.12 397.12 0 0 0 2.838-1.301l.12-.055.635-.292c.414-.19.828-.38 1.241-.574a357.11 357.11 0 0 0 3.132-1.488l.128-.061.591-.281c.32-.152.641-.304.96-.459 1.653-.8 3.268-1.594 4.801-2.361 1.526-.764 3.08-1.555 4.752-2.419.32-.165.638-.333.956-.5l.56-.294a419.248 419.248 0 0 0 3.191-1.68c.448-.239.896-.481 1.344-.724l.459-.248c.958-.517 1.916-1.037 2.869-1.561.603-.332 1.204-.667 1.804-1.002l.078-.043a385.573 385.573 0 0 0 7.38-4.216l.081-.047c.587-.344 1.173-.687 1.758-1.033.937-.555 1.865-1.113 2.792-1.673l.511-.308c.406-.244.811-.488 1.214-.735a387.424 387.424 0 0 0 3.043-1.881l.517-.32c.299-.185.597-.37.894-.556a413.055 413.055 0 0 0 4.415-2.813l.038-.024.038-.025.011-.007.006-.004a406.785 406.785 0 0 0 4.262-2.799c.297-.198.595-.399.893-.6l.505-.34c.976-.656 1.951-1.313 2.92-1.976.395-.271.791-.545 1.188-.82l.443-.307c.885-.612 1.768-1.226 2.646-1.844a406.152 406.152 0 0 0 5.944-4.268c.844-.618 1.683-1.238 2.519-1.86l.159-.119c.499-.371.998-.742 1.494-1.116a382.05 382.05 0 0 0 2.586-1.965l.461-.352c.353-.27.706-.539 1.057-.81a402.64 402.64 0 0 0 2.857-2.233l.459-.36c.247-.193.493-.385.738-.58a403.929 403.929 0 0 0 7.979-6.502c.256-.214.51-.43.764-.646l.443-.376c.903-.762 1.804-1.524 2.698-2.292.337-.289.672-.581 1.008-.872l.427-.371a355.604 355.604 0 0 0 6.267-5.552 381.11 381.11 0 0 0 3.803-3.487l.144-.134a302.495 302.495 0 0 0 3.683-3.47l.407-.388c.301-.286.602-.573.901-.861a408.54 408.54 0 0 0 2.666-2.595l.369-.36c.201-.196.402-.391.601-.588a395.654 395.654 0 0 0 7.153-7.252c.219-.228.436-.456.652-.685l.381-.401c.82-.859 1.638-1.72 2.45-2.586.301-.321.596-.64.892-.959l.348-.375a415.56 415.56 0 0 0 2.204-2.39 380.745 380.745 0 0 0 6.782-7.623l.054-.062c.396-.457.793-.914 1.187-1.373.718-.836 1.432-1.678 2.145-2.522l.337-.398c.259-.306.518-.612.776-.92.804-.961 1.6-1.925 2.393-2.891l.315-.382.503-.611c.963-1.18 1.92-2.367 2.871-3.56l.01-.01.303-.383.082-.102.012-.016a400.176 400.176 0 0 0 9.978-13.128l.084-.115a397.164 397.164 0 0 0 8.608-12.304l.012-.014.232-.347.166-.246.009-.016a393.305 393.305 0 0 0 3.627-5.529l.09-.112.248-.413.083-.129.3-.466a395.036 395.036 0 0 0 3.677-5.852l.001-.001.251-.408.008-.012.534-.87.003-.01.041-.067.002-.003a401.037 401.037 0 0 0 11.361-19.861l.25-.469a402.097 402.097 0 0 0 24.094-54.689l.063-.177a401.73 401.73 0 0 0 1.623-4.68l.014-.041.052-.151a402.961 402.961 0 0 0 10.019-34.545l.039-.162.028-.116a394.4 394.4 0 0 0 1.091-4.645l.07-.307.033-.143c.347-1.526.683-3.045 1.011-4.567l.042-.193.052-.242c.339-1.585.669-3.169.988-4.756l.036-.177a401.83 401.83 0 0 0 4.254-25.358l.036-.27.023-.175c.202-1.511.395-3.018.579-4.527l.067-.553.025-.211c.17-1.417.334-2.84.489-4.263l.017-.154.075-.697c.152-1.423.296-2.839.433-4.258l.03-.304.049-.507c.14-1.484.271-2.969.394-4.454l.021-.252.027-.314c.554-6.803.938-13.694 1.14-20.484l.009-.346.007-.253c.042-1.476.076-2.939.101-4.403l.01-.726.004-.334c.02-1.316.033-2.638.039-3.96l.003-1.021v-.228c.002-1.276-.002-2.548-.013-3.82l-.012-1.301a377.74 377.74 0 0 0-.063-3.835l-.007-.359-.019-.869a388.42 388.42 0 0 0-.121-4.062l-.013-.397-.02-.585a391.825 391.825 0 0 0-.203-4.73l-.004-.093-.009-.208c-.17-3.43-.388-6.902-.648-10.325l-.033-.416-.021-.258c-.112-1.443-.23-2.885-.358-4.327l-.077-.836-.044-.474a409.87 409.87 0 0 0-.356-3.7c-.043-.426-.088-.849-.133-1.273l-.031-.292a451.142 451.142 0 0 0-.574-5.133 421.75 421.75 0 0 0-.416-3.382l-.013-.103a398.457 398.457 0 0 0-.673-5.016l-.069-.493c-.052-.372-.104-.745-.158-1.117a398.204 398.204 0 0 0-.545-3.629l-.077-.504c-.045-.294-.089-.589-.136-.883-.23-1.46-.471-2.922-.719-4.383l-.034-.207-.068-.409a402.913 402.913 0 0 0-.91-5.121l-.047-.247-.016-.083a390.821 390.821 0 0 0-.889-4.64c-.059-.299-.12-.598-.181-.897l-.111-.544c-.238-1.18-.478-2.358-.727-3.535-.091-.431-.184-.861-.278-1.291l-.101-.465a378.8 378.8 0 0 0-3.089-13.207l-.054-.215c-.144-.57-.288-1.141-.434-1.711-.268-1.041-.542-2.08-.819-3.119l-.147-.553c-.115-.432-.229-.865-.346-1.297-.302-1.112-.611-2.22-.922-3.328l-.161-.578c-.096-.347-.193-.695-.292-1.041-.404-1.419-.82-2.838-1.241-4.257l-.077-.262-.116-.397a414.764 414.764 0 0 0-1.519-4.955c-.083-.264-.167-.525-.251-.786l-.161-.501c-.382-1.205-.767-2.41-1.162-3.615-.135-.41-.272-.821-.409-1.231l-.188-.563a390.09 390.09 0 0 0-1.044-3.103c-.183-.535-.369-1.068-.554-1.602l-.125-.358c-.341-.98-.685-1.961-1.034-2.94-.24-.672-.483-1.344-.726-2.016a409.165 409.165 0 0 0-2.924-7.802l-.088-.228c-.227-.588-.455-1.176-.685-1.764-.389-.99-.785-1.979-1.182-2.969l-.101-.251c14.076-9.835 23.517-23.43 26.37-38.254.078-.24.155-.48.227-.721.086-.287.166-.58.245-.873l.065-.239.043-.153c.05-.176.099-.352.145-.529.219-.837.403-1.609.561-2.351.031-.145.058-.289.085-.433l-.007.036c.04-.194.072-.368.105-.542l.028-.151c.169-.887.312-1.758.427-2.591.022-.136.042-.271.059-.405a51.36 51.36 0 0 0 .336-3.638c.067-1.14.098-2.103.098-3.033 0-9.867-2.895-19.722-8.372-28.5a61.419 61.419 0 0 0-1.84-2.776c-2.169-3.086-4.735-6.094-7.625-8.942a72.186 72.186 0 0 0-4.268-3.885 77.637 77.637 0 0 0-10.148-7.172 84.064 84.064 0 0 0-5.978-3.229 87.888 87.888 0 0 0-5.84-2.595 90.313 90.313 0 0 0-4.383-1.632c-7.219-2.474-14.743-4.063-22.464-4.751.49-5.573.738-11.171.738-16.732 0-25.567-5.009-50.375-14.889-73.733-9.541-22.557-23.197-42.813-40.59-60.206-17.393-17.393-37.649-31.05-60.206-40.59-23.365-9.888-48.172-14.897-73.74-14.897zM51.676 668.494z" class="st0"/><path d="M790 271.571c0-30.181-31.853-54.875-70.784-54.875H80.784C41.853 216.696 10 241.39 10 271.571c0 19.901 13.853 37.411 34.448 47.034l-2.044.002C-1.947 420.777-2.44 541.131 51.297 648.532c96.357 192.583 330.589 270.59 523.173 174.233 186.559-93.343 265.598-316.071 182.765-504.984 19.659-9.776 32.765-26.859 32.765-46.21z" class="st1"/><path fill="#edc531" d="M719.82 191.356c0-99.642-80.776-180.418-180.418-180.418-55.053 0-104.339 24.666-137.432 63.541-20.24-24.248-50.682-39.684-84.736-39.684-60.938 0-110.338 49.4-110.338 110.338 0 1.004.049 1.996.076 2.994a109.473 109.473 0 0 0-17.968-1.503c-47.38 0-87.683 30.277-102.635 72.535h631.319a181.892 181.892 0 0 0 2.132-27.803z"/><path fill="#cea628" d="M688.95 138.462c-19.263-61.194-76.375-104.78-140.302-108.236-5.373-.385-12.001-.334-17.412-.062l-2.898.12-2.889.277-5.771.57c-1.913.27-6.781 1.038-8.597 1.307-4.439.882-9.698 2.02-14.093 3.28-29.404 8.134-56.383 25.405-75.747 49.005 23.351-21.301 52-36.332 83.119-42.22 5.156-.939 11.053-1.722 16.285-2.247 1.872-.097 6.352-.401 8.196-.493 11.741-.307 23.815.353 35.346 2.568 58.442 10.273 107.33 54.378 125.611 110.682 2.353 7.13 4.163 14.381 5.721 21.733-.626-12.297-2.895-24.529-6.569-36.284zM311.261 52.634c-29.049 2.611-56.215 20.886-68.121 47.642 37.556-51.836 113.869-51.176 147.304 4.155 9.948 16.703 14.246 36.932 12.122 57.302.823-2.429 1.468-4.92 2.039-7.439 1.375-6.295 1.889-12.929 1.732-19.381-1.26-48.893-46.569-87.412-95.076-82.279zm-72.576 135.062c-1.986-3.17-4.463-6.092-7.012-8.824-.765-.782-2.742-2.552-3.54-3.346l-2.537-2.039c-1.422-1.226-3.779-2.681-5.337-3.764-1.83-1.063-3.813-2.248-5.747-3.136-17.366-8.426-39.4-8.912-55.928 1.572 28.355-1.946 52.873 4.284 75.124 21.981.749.647 2.678 2.211 3.483 2.862 1.45 1.332 3.147 2.694 4.578 4.076 2.905 2.621 2.549 2.62 1.302-.893-1.069-2.865-2.74-5.901-4.386-8.489z" opacity=".5"/><g class="st8"><path d="M416.192 222.79H81.988c-38.784 0-70.516 24.6-70.516 54.668 0 30.067 31.732 54.668 70.516 54.668h334.204"/><path d="M383.808 222.79h334.204c38.784 0 70.516 24.6 70.516 54.668 0 30.067-31.732 54.668-70.516 54.668H383.808"/></g><path d="M719.217 216.696H80.783C41.853 216.696 10 241.39 10 271.571s31.853 54.875 70.783 54.875h638.434c38.931 0 70.783-24.694 70.783-54.875s-31.853-54.875-70.783-54.875z" class="st1"/><circle cx="660.702" cy="506.189" r="11.035" class="st21" transform="rotate(-17.484 660.73 506.244)"/><path d="M187.027 643.797c-1.686 6.293 2.048 12.762 8.342 14.448 6.293 1.686 12.762-2.048 14.448-8.342 1.686-6.293-2.048-12.762-8.342-14.448-6.293-1.686-12.762 2.049-14.448 8.342z" class="st21"/><circle cx="267.035" cy="533.272" r="157.288" opacity=".15"/><path d="M534.463 375.984c-87.677 0-158.786 71.109-158.786 158.786s71.109 158.786 158.786 158.786 158.786-71.109 158.786-158.786-71.23-158.786-158.786-158.786zm98.198 105.938c0 5.2-2.056 9.675-3.749 13.907-4.112 9.675-10.4 17.414-18.382 22.977-3.507 2.661-7.014 4.112-11.368 4.112v77.276c0 3.144-.363 6.289-1.33 9.312-3.144 10.037-9.312 17.656-18.019 22.977-1.088.484-1.693 1.088-1.935 1.935-10.037 6.651-7.256 5.2-23.824 9.312-.605-.363-1.209-.484-2.056-.484h-39.061l-2.781-.363-1.693-.725c-17.414-3.386-29.145-14.27-34.345-32.047-1.088-3.144-1.33-7.014-1.33-11.368v-74.736s-.363 0-.725-.363c-12.819-6.651-21.526-17.052-26.363-31.685-1.088-2.781-1.693-5.926-2.056-9.07s.725-6.289 2.781-8.344c2.056-2.056 5.2-3.386 8.344-3.386h27.09v-12.214c0-10.037 5.926-18.745 14.996-21.768 7.014-2.419 14.27-1.33 20.075 2.781 5.563 4.112 9.07 10.4 9.312 17.414v13.423h24.67v-4.112c0-3.749 0-7.619.363-11.368.363-9.07 7.619-17.052 16.689-19.108l2.177-.363h4.837c8.949.968 16.689 7.135 19.228 15.963.725 2.056.725 4.112 1.088 7.014v11.851h26.726c3.386 0 6.651 1.088 8.707 3.144 1.693 1.939 2.297 4.599 1.934 8.106z" class="st48"/><path d="M580.902 588.827c-11.126-3.386-21.164-10.037-30.113-19.47-7.014-7.014-12.456-15.6-17.052-25.396-4.958-10.763-7.619-21.526-8.707-32.652-.363-4.112-.363-8.707-.363-12.456v-5.2h-54.662c3.749 5.321 8.586 9.07 14.633 10.763 7.256 2.419 8.707 7.619 8.707 10.763v80.542c0 8.344 3.144 14.996 9.312 19.712 3.749 2.781 8.707 4.112 14.996 4.112h40.029c4.112 0 7.256-.725 10.037-1.693 7.014-3.144 11.368-8.344 12.819-15.963.726-3.144.726-6.289.363-9.675l.001-3.387zm-70.867-31.805c-4.958-.363-8.344-4.112-8.344-9.07-.363-5.2 4.112-8.707 8.344-8.707 4.958 0 8.707 4.112 8.707 9.07s-4.112 8.707-8.707 8.707z" class="st48"/><path d="M510.035 539.245c-4.112 0-8.707 3.386-8.344 8.707 0 4.958 3.386 8.707 8.344 9.07 4.596 0 8.707-3.749 8.707-8.707s-3.749-9.07-8.707-9.07z"/><path d="M621.294 470.071h-26.726V458.22c-.363-2.781-.363-4.958-1.088-7.014-2.54-8.949-10.279-15.117-19.228-15.963h-4.837l-2.177.363c-9.07 2.056-16.326 10.037-16.689 19.108-.363 3.749-.363 7.619-.363 11.368v4.112h-24.67v-13.423c-.363-7.014-3.749-13.182-9.312-17.414-5.926-4.112-13.182-5.2-20.075-2.781-9.07 3.144-14.996 11.73-14.996 21.768V470.8h-27.09c-3.144 0-6.289 1.33-8.344 3.386-2.056 2.056-3.144 5.2-2.781 8.344.363 3.144 1.088 6.289 2.056 9.07 4.958 14.633 13.545 25.033 26.363 31.685.363.363.725.363.725.363v74.736c0 4.596.363 8.344 1.33 11.368 5.2 17.656 17.052 28.419 34.345 32.047l1.693.725 2.781.363h39.06c.847 0 1.451.121 2.056.484 16.568-4.112 13.665-2.661 23.824-9.312.242-.968.847-1.451 1.935-1.935 8.707-5.2 14.996-12.819 18.019-22.977 1.088-3.144 1.33-6.289 1.33-9.312v-77.276c4.596 0 7.861-1.451 11.368-4.112 7.982-5.563 14.27-13.182 18.382-22.977 1.693-4.112 3.749-8.707 3.749-13.907.363-3.386-.725-6.651-2.781-8.707-1.692-2.181-4.473-2.785-7.859-2.785zm-55.388-11.731c0-1.33.363-2.781.725-3.749 1.088-2.056 4.112-3.386 6.289-3.144 3.144.363 5.2 2.781 5.2 5.563v12.456c0 .363-.363.725-.363 1.33h-11.368c0-.725-.363-1.33-.363-2.056-.12-5.925-.12-4.232-.12-10.4zm1.572 80.905c4.958 0 8.707 4.112 8.707 9.07s-4.112 8.707-8.707 8.707c-4.958-.363-8.344-4.112-8.344-9.07-.363-5.321 4.111-8.707 8.344-8.707zm-71.592-80.905c0-1.33.363-2.781.725-3.749 1.088-2.056 4.112-3.386 6.289-3.144 3.144.725 5.563 2.781 5.563 5.926v12.456s-.363.363-.725 1.088H496.37c0-.725-.363-1.33-.363-2.056-.121-6.046-.242-4.353-.121-10.521zm84.653 143.79c-1.33 7.619-5.926 12.819-12.819 15.963-2.781 1.088-5.926 1.693-10.037 1.693h-40.029c-6.289 0-11.126-1.33-14.996-4.112-6.289-4.958-9.312-11.368-9.312-19.712V515.42c0-3.144-1.33-8.344-8.707-10.763-6.168-1.693-10.884-5.321-14.633-10.763h54.662v5.2c0 3.749 0 8.344.363 12.456 1.088 11.126 3.749 21.768 8.707 32.652 4.596 9.675 10.037 18.382 17.052 25.396 9.07 9.312 19.108 15.963 30.113 19.47v3.386c.362 3.387.362 6.532-.364 9.676z"/><path d="M567.478 557.022c4.596 0 8.707-3.749 8.707-8.707s-3.749-9.07-8.707-9.07c-4.112 0-8.707 3.386-8.344 8.707 0 4.837 3.386 8.707 8.344 9.07zm-59.741-86.226c.363-.725.725-1.088.725-1.088v-12.456c0-3.144-2.419-5.2-5.563-5.926-2.056-.363-5.2 1.088-6.289 3.144-.363 1.088-.725 2.419-.725 3.749v10.4c0 .725.363 1.33.363 2.056 3.749.121 7.498.121 11.489.121zm70.141 0c0-.725.363-1.088.363-1.33V457.01c0-2.781-2.056-5.2-5.2-5.563-2.056-.363-5.2 1.088-6.289 3.144-.363 1.088-.725 2.419-.725 3.749v10.4c0 .725.363 1.33.363 2.056h11.488z" class="st48"/><path d="m338.3 616.877-.023-.049a202.68 202.68 0 0 1-6.146 2.301 202.9 202.9 0 0 0 6.169-2.252zm-139.576 2.337c-2.903-1.06-4.921-1.904-5.944-2.35l-.041.088c1.392.569 3.405 1.355 5.985 2.262z" class="st10"/><path d="M265.537 375.984c-87.695 0-158.786 71.091-158.786 158.786 0 48.654 21.883 92.197 56.343 121.323 6.372-18.207 20.483-34.964 28.543-43.531-.1-3.805.336-10.094 3.144-17.704 1.142 5.346 11.906 8.862 21.02 10.903 13.294 2.977 30.957 4.617 49.737 4.617s36.443-1.64 49.736-4.617c9.114-2.041 19.877-5.557 21.02-10.903 2.808 7.61 3.244 13.899 3.144 17.704 8.059 8.567 22.17 25.324 28.542 43.531 34.46-29.127 56.343-72.67 56.343-121.323-.001-87.695-71.091-158.786-158.786-158.786zm99.595 161.06c-6.742 20.337-20.37 37.824-38.318 50.075 5.221 2.14 8.069 4.497 8.069 6.802 0 7.216-27.865 14.942-69.346 14.942s-69.346-7.726-69.346-14.942c0-2.305 2.847-4.661 8.069-6.802-17.948-12.251-31.576-29.738-38.318-50.075-16.468-1.407-29.397-15.218-29.397-32.05 0-17.586 14.112-31.874 31.63-32.163 15.04-36.695 52.956-62.739 97.361-62.739s82.322 26.044 97.362 62.739c17.518.289 31.63 14.577 31.63 32.163.001 16.833-12.928 30.643-29.396 32.05z" class="st10"/><path d="M168.174 472.831c-17.518.289-31.63 14.577-31.63 32.163 0 16.833 12.928 30.643 29.397 32.05a92.265 92.265 0 0 1-4.69-29.101 92.313 92.313 0 0 1 6.923-35.112zm-16.971 46.506a5.898 5.898 0 1 1 .001-11.797 5.898 5.898 0 0 1-.001 11.797zm0-16.89a5.898 5.898 0 1 1 .001-11.797 5.898 5.898 0 0 1-.001 11.797z" class="st11"/><circle cx="151.217" cy="496.551" r="5.898" class="st12"/><circle cx="151.197" cy="513.414" r="5.897" class="st12"/><path d="M172.321 661.135a75.677 75.677 0 0 0-.516 1.815 159.34 159.34 0 0 0 7.423 5.119c1.125-10.777 2.925-20.617 4.756-28.773-5.066 6.722-9.349 14.119-11.663 21.839zm166.749-44.618-.793.311.023.049a204.623 204.623 0 0 1-11.629 4.06c4.413 20.767 16.085 37.157 25.051 47.212l.124-.08c-1.125-10.777-2.925-20.617-4.756-28.773 5.067 6.722 9.35 14.119 11.664 21.839.183.612.353 1.216.516 1.815a159.824 159.824 0 0 0 8.711-6.857c-6.372-18.207-20.483-34.964-28.542-43.531-.068 2.524-.369 3.955-.369 3.955z" class="st12"/><path d="M347.088 639.296c1.832 8.156 3.632 17.997 4.756 28.773 2.524-1.638 5-3.345 7.423-5.119a75.677 75.677 0 0 0-.516-1.815c-2.312-7.72-6.595-15.117-11.663-21.839z" class="st12"/><path d="M204.259 587.119c-5.221 2.14-8.069 4.497-8.069 6.802 0 7.216 27.865 14.942 69.346 14.942 41.482 0 69.346-7.726 69.346-14.942 0-2.305-2.847-4.661-8.069-6.802-17.202 11.742-38.375 18.674-61.277 18.674s-44.074-6.931-61.277-18.674z" class="st11"/><path d="M204.387 621.091a167.439 167.439 0 0 1-5.663-1.876 129.151 129.151 0 0 1-5.985-2.262l.041-.088c-.513-.224-.776-.347-.776-.347s-.301-1.431-.368-3.955c-8.059 8.567-22.17 25.324-28.543 43.531a159.824 159.824 0 0 0 8.711 6.857c.163-.599.333-1.203.516-1.815 2.313-7.72 6.597-15.118 11.664-21.839-1.832 8.156-3.632 17.997-4.756 28.773l.134.087a123.542 123.542 0 0 0 5.243-6.28c7.121-9.135 16.025-23.347 19.782-40.786zm15.04 4.026c-4.898 22.043-16.543 39.504-26.33 50.989 21.719 11.154 46.344 17.45 72.44 17.45 26.101 0 50.73-6.298 72.453-17.457-9.797-11.497-21.454-28.983-26.341-51.054-37.259 8.648-70.145 5.063-92.222.072z" class="st12"/><path d="M332.131 619.129c2.04-.725 4.089-1.493 6.146-2.301l.793-.311s.301-1.431.368-3.955c.1-3.805-.336-10.094-3.144-17.704-1.142 5.346-11.906 8.861-21.02 10.903-13.294 2.977-30.957 4.617-49.736 4.617s-36.443-1.64-49.737-4.617c-9.114-2.041-19.877-5.557-21.02-10.903-2.808 7.61-3.244 13.899-3.144 17.704.066 2.523.368 3.955.368 3.955s.263.123.776.347c1.023.446 3.041 1.29 5.944 2.35 1.659.584 3.552 1.217 5.663 1.876-3.757 17.44-12.661 31.652-19.782 40.786a123.019 123.019 0 0 1-5.243 6.28 158.773 158.773 0 0 0 13.735 7.949c9.787-11.485 21.432-28.946 26.33-50.989 22.077 4.991 54.964 8.577 92.222-.072 4.887 22.072 16.544 39.557 26.341 51.054a158.72 158.72 0 0 0 13.732-7.949c-8.966-10.055-20.638-26.446-25.051-47.212a202.413 202.413 0 0 0 5.459-1.808zm30.768-146.298a92.298 92.298 0 0 1 6.923 35.112 92.265 92.265 0 0 1-4.69 29.101c16.468-1.407 29.397-15.218 29.397-32.05 0-17.586-14.113-31.874-31.63-32.163zm16.972 17.821a5.898 5.898 0 1 1-.001 11.797 5.898 5.898 0 0 1 .001-11.797zm0 28.685a5.898 5.898 0 1 1 .001-11.797 5.898 5.898 0 0 1-.001 11.797z" class="st11"/><circle cx="379.856" cy="513.444" r="5.898" class="st12" transform="rotate(-45.001 379.851 513.45)"/><circle cx="379.901" cy="496.525" r="5.898" class="st12"/><path d="M362.899 472.831c-15.041-36.695-52.957-62.739-97.362-62.739s-82.322 26.044-97.362 62.739a92.298 92.298 0 0 0-6.923 35.112 92.265 92.265 0 0 0 4.69 29.101c6.742 20.337 20.37 37.824 38.318 50.075 17.203 11.742 38.376 18.675 61.278 18.675s44.075-6.932 61.278-18.675c17.948-12.251 31.576-29.738 38.318-50.075a92.265 92.265 0 0 0 4.69-29.101 92.334 92.334 0 0 0-6.925-35.112zm-97.362 106.937c-70.084 0-89.004-33.737-89.004-75.353s39.848-75.353 89.004-75.353 89.004 33.737 89.004 75.353-18.92 75.353-89.004 75.353z" class="st12"/><path d="M354.511 502.471c-.948-31.669-24.974-58.483-58.373-68.836-.829-.257-1.665-.5-2.505-.737a100.558 100.558 0 0 0-5.459-1.373 99.247 99.247 0 0 0-4.702-.932c-.813-.141-1.632-.27-2.453-.392a101.933 101.933 0 0 0-8.637-.918 106.752 106.752 0 0 0-13.696 0c-2.26.145-4.497.363-6.707.648-42.722 5.527-75.449 36.77-75.449 74.485 0 41.616 18.92 75.353 89.004 75.353s89.004-33.737 89.004-75.353a54.681 54.681 0 0 0-.027-1.945z" class="st11"/><path fill="#635da8" d="M172.321 661.135a75.677 75.677 0 0 0-.516 1.815 159.34 159.34 0 0 0 7.423 5.119c1.125-10.777 2.925-20.617 4.756-28.773-5.066 6.722-9.349 14.119-11.663 21.839zm174.767-21.839c1.832 8.156 3.632 17.997 4.756 28.773 2.524-1.638 5-3.345 7.423-5.119a75.677 75.677 0 0 0-.516-1.815c-2.312-7.72-6.595-15.117-11.663-21.839z" opacity=".1"/><circle cx="289.623" cy="772.431" r="36.783" class="st9" transform="rotate(-45.001 289.615 772.438)"/><path d="M567.787 718.025c-12.161-3.258-24.661 3.958-27.919 16.119-3.258 12.161 3.958 24.661 16.119 27.919 12.161 3.258 24.661-3.958 27.92-16.119 3.258-12.161-3.959-24.661-16.12-27.919z" class="st9"/><circle cx="713.08" cy="383.574" r="25.748" class="st9" transform="rotate(-89.043 713.034 383.564)"/><path d="M457.864 783.185c1.58-5.896-1.919-11.957-7.815-13.537-5.896-1.58-11.957 1.919-13.537 7.815-1.58 5.896 1.919 11.957 7.815 13.537 5.897 1.581 11.957-1.918 13.537-7.815zM734.54 467.529a7.356 7.356 0 0 0 5.202 9.01 7.356 7.356 0 0 0 9.01-5.202 7.356 7.356 0 0 0-5.202-9.01 7.355 7.355 0 0 0-9.01 5.202zm-631.856-41.701c8.413-31.396-10.219-63.668-41.616-72.08a58.573 58.573 0 0 0-32.099.464 391.233 391.233 0 0 0-18.597 103.353 58.676 58.676 0 0 0 20.231 9.879c31.397 8.412 63.668-10.22 72.081-41.616zm588.667 230.605c-5.896 22.006.021 44.391 13.859 60.432 26.136-32.897 46.606-69.643 60.883-108.619-33.224-5.526-65.845 14.981-74.742 48.187zm-588.983-11.61c-17.218-4.614-34.779 1.627-45.446 14.517l.002.003a412.069 412.069 0 0 0 2.589 4.724l.029.051a390.906 390.906 0 0 0 29.025 44.659l.133.176a388.39 388.39 0 0 0 3.002 3.935l.259.334a372.177 372.177 0 0 0 2.937 3.743l.323.406a390.382 390.382 0 0 0 6.338 7.749l.217.259a388.27 388.27 0 0 0 3.317 3.891l.001.001c13.492-4.579 24.524-15.591 28.488-30.387 6.307-23.548-7.667-47.752-31.214-54.061z" class="st9"/><defs><path id="SVGID_00000018206670719734435130000016044460857448263102_" d="M719.217 216.696H80.783C41.853 216.696 10 241.39 10 271.571s31.853 54.875 70.783 54.875h638.434c38.931 0 70.783-24.694 70.783-54.875s-31.853-54.875-70.783-54.875z"/></defs><clipPath id="SVGID_00000071558798734732017560000005296005395623251607_"><use xlink:href="#SVGID_00000018206670719734435130000016044460857448263102_" overflow="visible"/></clipPath><g clip-path="url(#SVGID_00000071558798734732017560000005296005395623251607_)"><path d="M5.549 271.997C1.98 278.472 0 285.584 0 293.034c0 .439.029.872.043 1.309h799.914c.013-.436.043-.871.043-1.309 0-7.451-1.98-14.563-5.549-21.037H5.549z" class="st127"/></g><g class="st8"><path d="M372.866 306.826c-.732-8.21-10.999-12.076-17.592-14.189-2.612-.838-16.501-5.659-17.27-.167-.26 1.863 1.13 3.039 2.576 3.224-.048.094-.105.176-.146.282-5.207 13.03-30.903-1.319-39.572-3.861-2.22-.651-4.406 2.464-2.848 4.274 4.037 4.694 7.19 10.125 11.501 14.552-1.434.605-3.419 1.603-3.663 1.721-2.348 1.141-4.771 2.044-7.262 2.814-2.693.831-2.273 4.813.372 5.353 16.189 3.307 32.439 9.529 49.211 7.365 9.701-1.255 25.756-9.457 24.693-21.368zm-30.96-11.257.077.004c-.12.039-.244.063-.37.074.099-.024.198-.044.293-.078zm109.92 32.622c16.773 2.164 33.021-4.058 49.212-7.365 2.644-.54 3.064-4.521.372-5.353-2.492-.77-4.915-1.673-7.263-2.814-.244-.118-2.229-1.116-3.662-1.721 4.311-4.428 7.464-9.858 11.5-14.552 1.557-1.809-.627-4.924-2.847-4.274-8.667 2.543-34.364 16.892-39.572 3.861-.042-.105-.097-.188-.146-.282 1.446-.185 2.837-1.361 2.577-3.224-.768-5.492-14.657-.67-17.269.167-6.594 2.113-16.862 5.979-17.594 14.189-1.063 11.914 14.992 20.116 24.692 21.368zm6.563-32.545a1.616 1.616 0 0 1-.371-.074c.023-.001.055-.004.078-.004.094.035.192.055.293.078z" class="st128"/><path d="M393.429 285.356c-1.474-9.658-8.615-18.4-14.243-26.017-7.239-9.638-15.997-18.128-27.336-22.654-7.138-2.848-23.701-3.911-27.043 5.465-1.244 3.487-.271 7.287.029 10.859.595 7.056-3.748 12.552-7.199 18.256-4.966 8.208-4.731 17.482 2.974 23.785 6.734 5.507 16.231 7.325 24.625 8.395 10.889 1.391 22.387 2.58 33.257.725 10.108-1.723 16.517-8.462 14.936-18.814z" class="st128"/><path d="M355.198 263.163c10.148 2.901 22.474 7.251 28.275 15.951"/><path d="M353.119 270.705c4.163 1.193 8.291 2.517 12.286 4.199l-1.868-.788c3.647 1.555 7.176 3.407 10.33 5.824l-1.583-1.223c1.742 1.359 3.337 2.877 4.708 4.612l-1.223-1.583c.331.429.648.867.951 1.316 1.149 1.699 2.651 3.037 4.674 3.595 1.872.515 4.365.283 6.027-.788 1.67-1.077 3.14-2.68 3.595-4.674.45-1.976.386-4.289-.788-6.027-7.497-11.089-20.591-16.004-32.95-19.545-3.931-1.126-8.689 1.373-9.621 5.462-.951 4.169 1.252 8.413 5.462 9.62z"/><path id="SVGID_1_" d="M393.429 285.356c-1.474-9.658-8.615-18.4-14.243-26.017-7.239-9.638-15.997-18.128-27.336-22.654-7.138-2.848-23.701-3.911-27.043 5.465-1.244 3.487-.271 7.287.029 10.859.595 7.056-3.748 12.552-7.199 18.256-4.966 8.208-4.731 17.482 2.974 23.785 6.734 5.507 16.231 7.325 24.625 8.395 10.889 1.391 22.387 2.58 33.257.725 10.108-1.723 16.517-8.462 14.936-18.814z"/><path id="SVGID_00000034768815198435603520000015745012438255060662_" d="M393.429 285.356c-1.474-9.658-8.615-18.4-14.243-26.017-7.239-9.638-15.997-18.128-27.336-22.654-7.138-2.848-23.701-3.911-27.043 5.465-1.244 3.487-.271 7.287.029 10.859.595 7.056-3.748 12.552-7.199 18.256-4.966 8.208-4.731 17.482 2.974 23.785 6.734 5.507 16.231 7.325 24.625 8.395 10.889 1.391 22.387 2.58 33.257.725 10.108-1.723 16.517-8.462 14.936-18.814z" class="st129"/><path d="M358.361 279.498c-19.907-4.798-38.012-2.63-43.951 4.642.46 4.033 2.431 7.827 6.2 10.911 6.734 5.507 16.231 7.325 24.625 8.395 10.889 1.391 22.387 2.58 33.257.725 5.795-.988 10.362-3.631 12.917-7.651-6.071-6.899-18.236-13.451-33.048-17.022zm48.209 5.858c1.475-9.658 8.616-18.4 14.245-26.017 7.239-9.638 15.996-18.128 27.336-22.654 7.136-2.848 23.702-3.911 27.044 5.465 1.244 3.487.271 7.287-.029 10.859-.596 7.056 3.746 12.552 7.199 18.256 4.968 8.208 4.732 17.482-2.974 23.785-6.734 5.507-16.23 7.325-24.625 8.395-10.89 1.391-22.388 2.58-33.258.725-10.109-1.723-16.519-8.462-14.938-18.814z" class="st128"/><path d="M444.803 263.163c-10.15 2.901-22.476 7.251-28.276 15.951"/><path d="M442.723 255.621c-12.359 3.541-25.453 8.456-32.95 19.545-1.093 1.617-1.292 4.196-.788 6.027.5 1.815 1.902 3.78 3.595 4.674 3.954 2.089 8.249.82 10.701-2.806.303-.449.62-.886.951-1.316l-1.223 1.583c1.372-1.734 2.967-3.253 4.708-4.612l-1.583 1.223c3.154-2.417 6.683-4.269 10.33-5.824l-1.868.788c3.994-1.682 8.123-3.006 12.286-4.199 1.904-.545 3.671-1.879 4.674-3.595.981-1.676 1.397-4.148.788-6.027-1.294-3.997-5.408-6.668-9.621-5.461z"/><path id="SVGID_00000011752960738648838800000014580479927199153303_" d="M406.57 285.356c1.475-9.658 8.616-18.4 14.245-26.017 7.239-9.638 15.996-18.128 27.336-22.654 7.136-2.848 23.702-3.911 27.044 5.465 1.244 3.487.271 7.287-.029 10.859-.596 7.056 3.746 12.552 7.199 18.256 4.968 8.208 4.732 17.482-2.974 23.785-6.734 5.507-16.23 7.325-24.625 8.395-10.89 1.391-22.388 2.58-33.258.725-10.109-1.723-16.519-8.462-14.938-18.814z"/><path id="SVGID_00000073702470622721322140000001452775680058327937_" d="M406.57 285.356c1.475-9.658 8.616-18.4 14.245-26.017 7.239-9.638 15.996-18.128 27.336-22.654 7.136-2.848 23.702-3.911 27.044 5.465 1.244 3.487.271 7.287-.029 10.859-.596 7.056 3.746 12.552 7.199 18.256 4.968 8.208 4.732 17.482-2.974 23.785-6.734 5.507-16.23 7.325-24.625 8.395-10.89 1.391-22.388 2.58-33.258.725-10.109-1.723-16.519-8.462-14.938-18.814z" class="st129"/><path d="M441.639 279.498c19.907-4.798 38.012-2.63 43.952 4.642-.459 4.033-2.432 7.827-6.201 10.911-6.734 5.507-16.23 7.325-24.625 8.395-10.89 1.391-22.388 2.58-33.258.725-5.794-.988-10.362-3.631-12.917-7.651 6.071-6.899 18.236-13.451 33.049-17.022z" class="st128"/><path d="M424.456 280.824c-.242-6.209-2.271-12.704-9.054-14.048-9.093-1.8-21.537-1.235-30.711 0-6.95.936-8.624 8.186-9.055 14.048-.565 7.673-.392 17.987 4.873 24.217 4.847 5.735 12.405 6.716 19.537 6.514 7.129.203 14.687-.779 19.534-6.514 5.39-6.376 5.181-16.404 4.876-24.217z" class="st128"/><path d="M424.395 279.758c-.415 5.089-1.64 10.11-4.813 13.864-4.848 5.734-12.405 6.716-19.534 6.513-7.131.203-14.689-.779-19.537-6.513-2.977-3.523-4.324-8.35-4.834-13.267-.013.156-.029.315-.04.469-.565 7.673-.392 17.987 4.873 24.217 4.847 5.735 12.405 6.716 19.537 6.514 7.129.203 14.687-.779 19.534-6.514 5.389-6.375 5.179-16.403 4.874-24.217a31.57 31.57 0 0 0-.06-1.066z" class="st128"/><path d="M394.839 366.737c-.382-7.572 2.731-15.085 4.794-22.249 2.097-7.271 3.152-14.6 2.255-22.139-1.341-11.274-7.877-21.44-17.988-26.671-10.669-5.517-23.759-2.999-33.139 3.746-10.195 7.329-16.867 16.91-29.607 20.165-8.722 2.229-20.198 4.625-19.286 15.807.772 9.498 8.442 19.196 14.723 25.848 7.989 8.46 18.169 15.169 28.359 20.655 10.36 5.578 22.217 9.854 34.132 9.124 5.077-.583 11.497-1.807 14.138-6.806 2.856-5.403 1.916-11.616 1.619-17.48z" class="st128"/><path d="M384.412 381.252c-5.444 8.583-26.44 5.024-46.895-7.95-20.453-12.975-32.619-30.45-27.175-39.033 5.445-8.585 26.44-5.026 46.892 7.948 20.455 12.975 32.623 30.45 27.178 39.035z" class="st128"/><path d="M356.614 357.946c-.293-1.536-1.196-3.082-2.85-4.525l8.046-12.684c1.92-3.027-2.774-6.004-4.694-2.978-2.733 4.306-5.465 8.614-8.196 12.921-6.095-1.705-13.405 2.174-11.814 9.604 3.208 14.954 21.204 6.528 19.508-2.338zm9.032-59.444c-4.615 1.146-8.502 3.803-11.154 7.76-1.998 2.981 2.701 5.95 4.694 2.978 1.829-2.731 4.492-4.523 7.673-5.314 3.477-.864 2.272-6.291-1.213-5.424z" class="st128"/><path id="SVGID_00000078006330464910342350000004571417526984452501_" d="M394.839 366.737c-.382-7.572 2.731-15.085 4.794-22.249 2.097-7.271 3.152-14.6 2.255-22.139-1.341-11.274-7.877-21.44-17.988-26.671-10.669-5.517-23.759-2.999-33.139 3.746-10.195 7.329-16.867 16.91-29.607 20.165-8.722 2.229-20.198 4.625-19.286 15.807.772 9.498 8.442 19.196 14.723 25.848 7.989 8.46 18.169 15.169 28.359 20.655 10.36 5.578 22.217 9.854 34.132 9.124 5.077-.583 11.497-1.807 14.138-6.806 2.856-5.403 1.916-11.616 1.619-17.48z"/><defs><path id="SVGID_00000103979158617619919840000014091997321272582078_" d="M394.839 366.737c-.382-7.572 2.731-15.085 4.794-22.249 2.097-7.271 3.152-14.6 2.255-22.139-1.341-11.274-7.877-21.44-17.988-26.671-10.669-5.517-23.759-2.999-33.139 3.746-10.195 7.329-16.867 16.91-29.607 20.165-8.722 2.229-20.198 4.625-19.286 15.807.772 9.498 8.442 19.196 14.723 25.848 7.989 8.46 18.169 15.169 28.359 20.655 10.36 5.578 22.217 9.854 34.132 9.124 5.077-.583 11.497-1.807 14.138-6.806 2.856-5.403 1.916-11.616 1.619-17.48z"/></defs><clipPath id="SVGID_00000052789589163412129570000014277437213092933556_"><use xlink:href="#SVGID_00000103979158617619919840000014091997321272582078_" overflow="visible"/></clipPath><g clip-path="url(#SVGID_00000052789589163412129570000014277437213092933556_)"><path d="M318.898 315.192c32.849 2.876 74.238 24.865 80.237 60.255.601 3.541 6.022 2.31 5.424-1.213-6.432-37.943-50.207-61.511-85.46-64.598-3.571-.313-3.766 5.244-.201 5.556z" class="st128"/></g><path id="SVGID_00000035488443107583174780000002748567368502938246_" d="M394.839 366.737c-.382-7.572 2.731-15.085 4.794-22.249 2.097-7.271 3.152-14.6 2.255-22.139-1.341-11.274-7.877-21.44-17.988-26.671-10.669-5.517-23.759-2.999-33.139 3.746-10.195 7.329-16.867 16.91-29.607 20.165-8.722 2.229-20.198 4.625-19.286 15.807.772 9.498 8.442 19.196 14.723 25.848 7.989 8.46 18.169 15.169 28.359 20.655 10.36 5.578 22.217 9.854 34.132 9.124 5.077-.583 11.497-1.807 14.138-6.806 2.856-5.403 1.916-11.616 1.619-17.48z" class="st129"/><path d="M405.163 366.737c.382-7.572-2.731-15.085-4.794-22.249-2.097-7.271-3.152-14.6-2.255-22.139 1.342-11.274 7.877-21.44 17.988-26.671 10.669-5.517 23.759-2.999 33.139 3.746 10.195 7.329 16.866 16.91 29.606 20.165 8.724 2.229 20.198 4.625 19.287 15.807-.772 9.498-8.442 19.196-14.723 25.848-7.989 8.46-18.169 15.169-28.358 20.655-10.361 5.578-22.215 9.854-34.13 9.124-5.077-.583-11.497-1.807-14.139-6.806-2.858-5.403-1.918-11.616-1.621-17.48z" class="st128"/><path d="M415.59 381.252c5.444 8.583 26.438 5.024 46.894-7.95 20.453-12.975 32.618-30.45 27.174-39.033-5.444-8.585-26.439-5.026-46.891 7.948-20.455 12.975-32.622 30.45-27.177 39.035z" class="st128"/><path d="M443.386 357.946c.293-1.536 1.196-3.082 2.85-4.525l-8.046-12.684c-1.919-3.027 2.774-6.004 4.696-2.978l8.194 12.921c6.096-1.705 13.405 2.174 11.813 9.604-3.206 14.954-21.202 6.528-19.507-2.338zm-9.03-59.444c4.614 1.146 8.501 3.803 11.153 7.76 1.998 2.981-2.701 5.95-4.694 2.978-1.829-2.731-4.491-4.523-7.673-5.314-3.476-.864-2.271-6.291 1.214-5.424z" class="st128"/><path id="SVGID_00000089538405172013255810000015604909983589804735_" d="M405.163 366.737c.382-7.572-2.731-15.085-4.794-22.249-2.097-7.271-3.152-14.6-2.255-22.139 1.342-11.274 7.877-21.44 17.988-26.671 10.669-5.517 23.759-2.999 33.139 3.746 10.195 7.329 16.866 16.91 29.606 20.165 8.724 2.229 20.198 4.625 19.287 15.807-.772 9.498-8.442 19.196-14.723 25.848-7.989 8.46-18.169 15.169-28.358 20.655-10.361 5.578-22.215 9.854-34.13 9.124-5.077-.583-11.497-1.807-14.139-6.806-2.858-5.403-1.918-11.616-1.621-17.48z"/><defs><path id="SVGID_00000127730879999627503020000011219734429299317892_" d="M405.163 366.737c.382-7.572-2.731-15.085-4.794-22.249-2.097-7.271-3.152-14.6-2.255-22.139 1.342-11.274 7.877-21.44 17.988-26.671 10.669-5.517 23.759-2.999 33.139 3.746 10.195 7.329 16.866 16.91 29.606 20.165 8.724 2.229 20.198 4.625 19.287 15.807-.772 9.498-8.442 19.196-14.723 25.848-7.989 8.46-18.169 15.169-28.358 20.655-10.361 5.578-22.215 9.854-34.13 9.124-5.077-.583-11.497-1.807-14.139-6.806-2.858-5.403-1.918-11.616-1.621-17.48z"/></defs><clipPath id="SVGID_00000063605784604956716070000009857505017273999800_"><use xlink:href="#SVGID_00000127730879999627503020000011219734429299317892_" overflow="visible"/></clipPath><g clip-path="url(#SVGID_00000063605784604956716070000009857505017273999800_)"><path d="M481.103 315.192c-32.849 2.876-74.236 24.865-80.236 60.255-.601 3.541-6.022 2.31-5.425-1.213 6.432-37.943 50.207-61.511 85.459-64.598 3.573-.313 3.767 5.244.202 5.556z" class="st128"/></g><path id="SVGID_00000063622226331589699780000001842644384247161733_" d="M405.163 366.737c.382-7.572-2.731-15.085-4.794-22.249-2.097-7.271-3.152-14.6-2.255-22.139 1.342-11.274 7.877-21.44 17.988-26.671 10.669-5.517 23.759-2.999 33.139 3.746 10.195 7.329 16.866 16.91 29.606 20.165 8.724 2.229 20.198 4.625 19.287 15.807-.772 9.498-8.442 19.196-14.723 25.848-7.989 8.46-18.169 15.169-28.358 20.655-10.361 5.578-22.215 9.854-34.13 9.124-5.077-.583-11.497-1.807-14.139-6.806-2.858-5.403-1.918-11.616-1.621-17.48z" class="st129"/><path stroke="#000" stroke-miterlimit="10" stroke-width="3.128" d="M401.79 334.199c-8.455 16.342-22.499 27.044-38.404 27.044-20.149 0-37.322-17.163-43.912-41.23-8.441 2.141-18.46 4.905-17.606 15.38.772 9.498 8.442 19.196 14.723 25.848 7.989 8.46 18.169 15.169 28.359 20.655 10.36 5.578 22.217 9.854 34.132 9.123 5.077-.583 11.497-1.807 14.138-6.806 2.856-5.402 1.915-11.615 1.619-17.479-.382-7.572 2.731-15.085 4.794-22.249.984-3.409 1.726-6.833 2.157-10.286zm77.055-14.611c-2.869-.734-5.42-1.8-7.783-3.077.055.964.089 1.933.089 2.911 0 27.788-22.525 50.313-50.312 50.313a50.256 50.256 0 0 1-15.704-2.513c-.32 5.72-1.131 11.74 1.646 16.993 2.643 4.998 9.062 6.223 14.139 6.806 11.915.73 23.77-3.545 34.13-9.123 10.19-5.486 20.368-12.195 28.358-20.655 6.282-6.653 13.952-16.35 14.724-25.848.912-11.181-10.563-13.578-19.287-15.807z" opacity=".5"/></g><path d="M372.866 306.044c-.732-8.21-10.999-12.076-17.592-14.189-2.612-.838-16.501-5.659-17.27-.167-.26 1.863 1.13 3.039 2.576 3.224-.048.094-.105.176-.146.282-5.207 13.03-30.903-1.319-39.572-3.861-2.22-.651-4.406 2.464-2.848 4.273 4.037 4.694 7.19 10.125 11.501 14.552-1.434.605-3.419 1.603-3.663 1.721-2.348 1.141-4.771 2.044-7.262 2.814-2.693.831-2.273 4.813.372 5.353 16.189 3.307 32.439 9.529 49.211 7.365 9.701-1.254 25.756-9.457 24.693-21.367zm-30.96-11.258.077.004c-.12.039-.244.063-.37.074.099-.023.198-.043.293-.078zm109.92 32.623c16.773 2.164 33.021-4.058 49.212-7.365 2.644-.54 3.064-4.521.372-5.353-2.492-.77-4.915-1.673-7.263-2.814-.244-.118-2.229-1.116-3.662-1.721 4.311-4.428 7.464-9.858 11.5-14.552 1.557-1.809-.627-4.924-2.847-4.273-8.667 2.543-34.364 16.892-39.572 3.861-.042-.105-.097-.188-.146-.282 1.446-.185 2.837-1.361 2.577-3.224-.768-5.492-14.657-.67-17.269.167-6.594 2.113-16.862 5.979-17.594 14.189-1.063 11.913 14.992 20.115 24.692 21.367zm6.563-32.545a1.616 1.616 0 0 1-.371-.074c.023-.001.055-.004.078-.004.094.035.192.055.293.078z" class="st127"/><path d="M393.429 284.574c-1.474-9.658-8.615-18.4-14.243-26.017-7.239-9.638-15.997-18.128-27.336-22.654-7.138-2.848-23.701-3.911-27.043 5.465-1.244 3.487-.271 7.287.029 10.859.595 7.056-3.748 12.552-7.199 18.256-4.966 8.208-4.731 17.482 2.974 23.785 6.734 5.507 16.231 7.325 24.625 8.395 10.889 1.391 22.387 2.58 33.257.725 10.108-1.724 16.517-8.462 14.936-18.814z" class="st127"/><path d="M354.491 264.947c5.203 1.491 10.369 3.167 15 5.467 2.311 1.148 4.821 2.619 6.709 4.081 1.796 1.39 3.807 3.452 4.975 5.18.804 1.189 2.342 1.714 3.641.955 1.179-.69 1.764-2.445.955-3.641-6.661-9.853-18.948-14.045-29.866-17.174-1.381-.396-2.895.483-3.273 1.858-.385 1.403.472 2.877 1.859 3.274zm3.87 13.769c-19.907-4.798-38.012-2.63-43.951 4.642.46 4.033 2.431 7.827 6.2 10.911 6.734 5.507 16.231 7.325 24.625 8.395 10.889 1.391 22.387 2.58 33.257.725 5.795-.988 10.362-3.631 12.917-7.651-6.071-6.9-18.236-13.451-33.048-17.022z" class="st133"/><path d="M406.57 284.574c1.475-9.658 8.616-18.4 14.245-26.017 7.239-9.638 15.996-18.128 27.336-22.654 7.136-2.848 23.702-3.911 27.044 5.465 1.244 3.487.271 7.287-.029 10.859-.596 7.056 3.746 12.552 7.199 18.256 4.968 8.208 4.732 17.482-2.974 23.785-6.734 5.507-16.23 7.325-24.625 8.395-10.89 1.391-22.388 2.58-33.258.725-10.109-1.724-16.519-8.462-14.938-18.814z" class="st127"/><path d="M444.095 259.815c-10.918 3.128-23.205 7.321-29.866 17.174-.806 1.191-.228 2.949.955 3.641 1.312.767 2.834.239 3.641-.955.202-.299.409-.594.623-.885.332-.451-.084.075.251-.316.415-.483.827-.965 1.269-1.424a27.314 27.314 0 0 1 2.879-2.592c-.239.186.501-.369.587-.431a39.207 39.207 0 0 1 2.379-1.579 48.24 48.24 0 0 1 3.696-2.035c4.629-2.299 9.8-3.977 15.002-5.467 1.381-.396 2.242-1.878 1.858-3.273-.379-1.379-1.887-2.256-3.274-1.858zm-2.456 18.901c19.907-4.798 38.012-2.63 43.952 4.642-.459 4.033-2.432 7.827-6.201 10.911-6.734 5.507-16.23 7.325-24.625 8.395-10.89 1.391-22.388 2.58-33.258.725-5.794-.988-10.362-3.631-12.917-7.651 6.071-6.9 18.236-13.451 33.049-17.022z" class="st133"/><path d="M424.456 280.042c-.242-6.209-2.271-12.704-9.054-14.048-9.093-1.8-21.537-1.235-30.711 0-6.95.936-8.624 8.186-9.055 14.048-.565 7.673-.392 17.987 4.873 24.217 4.847 5.735 12.405 6.716 19.537 6.514 7.129.203 14.687-.779 19.534-6.514 5.39-6.376 5.181-16.404 4.876-24.217z" class="st127"/><path d="M424.395 278.976c-.415 5.089-1.64 10.11-4.813 13.864-4.848 5.734-12.405 6.716-19.534 6.513-7.131.203-14.689-.779-19.537-6.513-2.977-3.523-4.324-8.35-4.834-13.267-.013.156-.029.315-.04.469-.565 7.673-.392 17.987 4.873 24.217 4.847 5.735 12.405 6.716 19.537 6.514 7.129.203 14.687-.779 19.534-6.514 5.389-6.375 5.179-16.403 4.874-24.217a31.57 31.57 0 0 0-.06-1.066z" class="st133"/><path d="M394.839 365.955c-.382-7.572 2.731-15.085 4.794-22.249 2.097-7.271 3.152-14.6 2.255-22.139-1.341-11.274-7.877-21.44-17.988-26.671-10.669-5.517-23.759-2.999-33.139 3.746-10.195 7.329-16.867 16.91-29.607 20.165-8.722 2.229-20.198 4.625-19.286 15.807.772 9.498 8.442 19.196 14.723 25.848 7.989 8.46 18.169 15.169 28.359 20.655 10.36 5.578 22.217 9.854 34.132 9.123 5.077-.583 11.497-1.807 14.138-6.806 2.856-5.402 1.916-11.615 1.619-17.479z" class="st134"/><path d="M384.412 380.47c-5.444 8.583-26.44 5.024-46.895-7.949-20.453-12.975-32.619-30.45-27.175-39.033 5.445-8.585 26.44-5.026 46.892 7.948 20.455 12.974 32.623 30.449 27.178 39.034z" class="st135"/><path d="M356.614 357.164c-.293-1.536-1.196-3.082-2.85-4.525l8.046-12.684c1.92-3.027-2.774-6.004-4.694-2.978-2.733 4.306-5.465 8.614-8.196 12.921-6.095-1.705-13.405 2.174-11.814 9.604 3.208 14.954 21.204 6.528 19.508-2.338z" class="st134"/><path d="M365.646 297.719c-4.615 1.146-8.502 3.803-11.154 7.76-1.998 2.981 2.701 5.95 4.694 2.978 1.829-2.731 4.492-4.523 7.673-5.314 3.477-.863 2.272-6.29-1.213-5.424z" class="st0"/><defs><path id="SVGID_00000169528889642636769720000007510494932228424324_" d="M394.839 365.955c-.382-7.572 2.731-15.085 4.794-22.249 2.097-7.271 3.152-14.6 2.255-22.139-1.341-11.274-7.877-21.44-17.988-26.671-10.669-5.517-23.759-2.999-33.139 3.746-10.195 7.329-16.867 16.91-29.607 20.165-8.722 2.229-20.198 4.625-19.286 15.807.772 9.498 8.442 19.196 14.723 25.848 7.989 8.46 18.169 15.169 28.359 20.655 10.36 5.578 22.217 9.854 34.132 9.123 5.077-.583 11.497-1.807 14.138-6.806 2.856-5.402 1.916-11.615 1.619-17.479z"/></defs><clipPath id="SVGID_00000134955056656447858720000012818260093177871543_"><use xlink:href="#SVGID_00000169528889642636769720000007510494932228424324_" overflow="visible"/></clipPath><g clip-path="url(#SVGID_00000134955056656447858720000012818260093177871543_)"><path d="M318.898 314.41c32.849 2.876 74.238 24.865 80.237 60.255.601 3.541 6.022 2.31 5.424-1.213-6.432-37.943-50.207-61.511-85.46-64.598-3.571-.313-3.766 5.244-.201 5.556z" class="st135"/></g><path d="M405.163 365.955c.382-7.572-2.731-15.085-4.794-22.249-2.097-7.271-3.152-14.6-2.255-22.139 1.342-11.274 7.877-21.44 17.988-26.671 10.669-5.517 23.759-2.999 33.139 3.746 10.195 7.329 16.866 16.91 29.606 20.165 8.724 2.229 20.198 4.625 19.287 15.807-.772 9.498-8.442 19.196-14.723 25.848-7.989 8.46-18.169 15.169-28.358 20.655-10.361 5.578-22.215 9.854-34.13 9.123-5.077-.583-11.497-1.807-14.139-6.806-2.858-5.402-1.918-11.615-1.621-17.479z" class="st134"/><path d="M415.59 380.47c5.444 8.583 26.438 5.024 46.894-7.949 20.453-12.975 32.618-30.45 27.174-39.033-5.444-8.585-26.439-5.026-46.891 7.948-20.455 12.974-32.622 30.449-27.177 39.034z" class="st135"/><path d="M443.386 357.164c.293-1.536 1.196-3.082 2.85-4.525l-8.046-12.684c-1.919-3.027 2.774-6.004 4.696-2.978l8.194 12.921c6.096-1.705 13.405 2.174 11.813 9.604-3.206 14.954-21.202 6.528-19.507-2.338z" class="st134"/><path d="M434.356 297.719c4.614 1.146 8.501 3.803 11.153 7.76 1.998 2.981-2.701 5.95-4.694 2.978-1.829-2.731-4.491-4.523-7.673-5.314-3.476-.863-2.271-6.29 1.214-5.424z" class="st0"/><defs><path id="SVGID_00000141422514871637254240000008884949833594717842_" d="M405.163 365.955c.382-7.572-2.731-15.085-4.794-22.249-2.097-7.271-3.152-14.6-2.255-22.139 1.342-11.274 7.877-21.44 17.988-26.671 10.669-5.517 23.759-2.999 33.139 3.746 10.195 7.329 16.866 16.91 29.606 20.165 8.724 2.229 20.198 4.625 19.287 15.807-.772 9.498-8.442 19.196-14.723 25.848-7.989 8.46-18.169 15.169-28.358 20.655-10.361 5.578-22.215 9.854-34.13 9.123-5.077-.583-11.497-1.807-14.139-6.806-2.858-5.402-1.918-11.615-1.621-17.479z"/></defs><clipPath id="SVGID_00000047748987442458578880000003407333720276489137_"><use xlink:href="#SVGID_00000141422514871637254240000008884949833594717842_" overflow="visible"/></clipPath><g clip-path="url(#SVGID_00000047748987442458578880000003407333720276489137_)"><path d="M481.103 314.41c-32.849 2.876-74.236 24.865-80.236 60.255-.601 3.541-6.022 2.31-5.425-1.213 6.432-37.943 50.207-61.511 85.459-64.598 3.573-.313 3.767 5.244.202 5.556z" class="st135"/></g><path fill="#ffca5c" d="M401.79 333.417c-8.455 16.342-22.499 27.044-38.404 27.044-20.149 0-37.322-17.163-43.912-41.23-8.441 2.141-18.46 4.905-17.606 15.38.772 9.498 8.442 19.196 14.723 25.848 7.989 8.46 18.169 15.169 28.359 20.655 10.36 5.578 22.217 9.854 34.132 9.123 5.077-.583 11.497-1.807 14.138-6.806 2.856-5.402 1.915-11.615 1.619-17.479-.382-7.572 2.731-15.085 4.794-22.249.984-3.409 1.726-6.833 2.157-10.286zm77.055-14.611c-2.869-.734-5.42-1.8-7.783-3.077.055.964.089 1.933.089 2.911 0 27.788-22.525 50.313-50.312 50.313a50.256 50.256 0 0 1-15.704-2.513c-.32 5.72-1.131 11.74 1.646 16.993 2.643 4.998 9.062 6.223 14.139 6.806 11.915.73 23.77-3.545 34.13-9.123 10.19-5.486 20.368-12.195 28.358-20.655 6.282-6.653 13.952-16.35 14.724-25.848.912-11.181-10.563-13.579-19.287-15.807z" opacity=".5"/></svg>