<svg xmlns="http://www.w3.org/2000/svg" xml:space="preserve" id="Layer_1" x="0" y="0" version="1.1" viewBox="0 0 800 875"><style>.st0{fill:#fff}.st68{fill:#9f6d9d}.st69{opacity:.75;fill:#351433;enable-background:new}.st74{fill:#561c54}.st75{fill:#bda9be}</style><path d="M398.521 868.555a412.134 412.134 0 0 1-4.003-.038l-1.01-.017a378.09 378.09 0 0 1-4.117-.093l-.871-.024c-1.44-.042-2.885-.095-4.328-.154l-.639-.025a377.738 377.738 0 0 1-4.685-.228l-.271-.014a396.452 396.452 0 0 1-40.342-4.32l-.208-.034a387.75 387.75 0 0 1-4.746-.788l-.32-.057a371.473 371.473 0 0 1-4.646-.833l-.339-.062a383.103 383.103 0 0 1-4.647-.895l-.284-.058a399.843 399.843 0 0 1-4.748-.977l-.191-.042a397.112 397.112 0 0 1-84.454-28.194 396.501 396.501 0 0 1-20.988-10.512 396.102 396.102 0 0 1-44.976-28.28l-.06-.044a398.27 398.27 0 0 1-7.049-5.25l-.081-.062a393.328 393.328 0 0 1-6.989-5.457l-.036-.029a393.189 393.189 0 0 1-33.275-29.862l-.112-.111a396.221 396.221 0 0 1-6.139-6.325l-.205-.217a395.458 395.458 0 0 1-5.982-6.454l-.139-.153a391.96 391.96 0 0 1-7.949-9.061h-.025l-1.434-1.725a423.559 423.559 0 0 1-3.165-3.815l-1.076-1.21v-.109a396.24 396.24 0 0 1-2.257-2.806l-.197-.247-.375-.375-.114-.242a427.982 427.982 0 0 1-2.469-3.148l-.188-.241a383.075 383.075 0 0 1-3.093-4.047l-.332-.332-.137-.29a396.561 396.561 0 0 1-7.632-10.521l-.242-.348a395.713 395.713 0 0 1-10.699-16.138l-.965-.954-.001-.592a391.57 391.57 0 0 1-4.339-7.146l-.259-.435a405.229 405.229 0 0 1-4.933-8.586l-.095-.128-.127-.27c-.846-1.52-1.653-2.99-2.449-4.465l-.051-.093-.062-.096-.067-.143a418.66 418.66 0 0 1-2.681-5.059l-.2-.382a427.307 427.307 0 0 1-2.683-5.249l-.036-.061-.082-.175a423.332 423.332 0 0 1-3.104-6.362l-.846-1.786a393.632 393.632 0 0 1-2.474-5.339l-.579-1.267a400.986 400.986 0 0 1-2.845-6.477l-.658-1.556c-.74-1.745-1.469-3.5-2.185-5.257l-.679-1.669a404.817 404.817 0 0 1-2.58-6.576l-.288-.771a383.76 383.76 0 0 1-2.189-5.926l-.614-1.716a385.366 385.366 0 0 1-2.132-6.145l-.191-.56a398.016 398.016 0 0 1-2.188-6.734l-.473-1.519a410.33 410.33 0 0 1-1.725-5.689l-.371-1.256a391.113 391.113 0 0 1-1.924-6.839l-.251-.943c-.54-2.01-1.062-4.015-1.566-6.022l-.358-1.428a395.206 395.206 0 0 1-3.169-13.857l-.251-1.212a416.62 416.62 0 0 1-1.308-6.607l-.088-.462a381.737 381.737 0 0 1-1.268-7.143l-.141-.859a406.363 406.363 0 0 1-1.014-6.442l-.128-.878a393.875 393.875 0 0 1-1.83-14.365l-.1-.923c-.515-4.842-.942-9.71-1.27-14.468l-.043-.638a399.954 399.954 0 0 1-.418-7.12l-.005-.108a394.356 394.356 0 0 1-.442-14.859l-.005-.449c-.049-4.854-.004-9.819.133-14.745l.01-.381a396.392 396.392 0 0 1 2.837-37.228l.019-.146a397.37 397.37 0 0 1 2.064-14.427v-.054l.044-.234.007-.069.031-.146.078-.477c.306-1.858.625-3.713.957-5.565v-.719l.198-.375c.248-1.367.505-2.732.769-4.096l.038-.198c.296-1.532.61-3.104.934-4.673l.021-.102c.34-1.645.675-3.22 1.02-4.792l.028-.126a392.247 392.247 0 0 1 2.641-11.243l.133-.601.032-.058c.349-1.38.698-2.734 1.055-4.086l.063-.239a402.85 402.85 0 0 1 1.229-4.544l.062-.224c.419-1.511.855-3.047 1.301-4.581l.034-.113h-.001a401.416 401.416 0 0 1 3.152-10.314l.184-.57.071-.368.127-.249c.438-1.349.883-2.695 1.334-4.039l.089-.265a394.013 394.013 0 0 1 1.675-4.869l.178-.508c.542-1.534 1.09-3.054 1.646-4.572l.279-.766c.525-1.423 1.06-2.841 1.6-4.255l.387-1.018a421.83 421.83 0 0 1 1.562-3.982l.481-1.22c.438-1.088.881-2.17 1.327-3.251-14.863-9.342-24.817-22.882-27.571-37.67a45.626 45.626 0 0 1-.624-2.101l-.1-.351a48.765 48.765 0 0 1-.585-2.531l-.17-.864c-.036-.179-.072-.357-.104-.538-.105-.6-.195-1.208-.278-1.818l-.02-.134a47.023 47.023 0 0 1-.207-1.869 123.374 123.374 0 0 1-.153-2.231 49.06 49.06 0 0 1-.045-2.062c0-9.153 2.587-17.94 7.69-26.118a54.157 54.157 0 0 1 1.705-2.572 60.541 60.541 0 0 1 5.978-7.215c1.791-1.854 3.822-3.701 6.037-5.493a73.129 73.129 0 0 1 7.566-5.353 77.278 77.278 0 0 1 6.226-3.46 83.461 83.461 0 0 1 9.05-3.856c9.819-3.521 20.26-5.308 31.03-5.308h3.455c8.255-19.986 21.952-37.081 39.766-49.581 19.104-13.405 41.579-20.491 64.998-20.491 4.428 0 8.92.271 13.413.808 1.176-62.312 52.23-112.637 114.818-112.637 32.387 0 62.979 13.547 84.739 37.35C437.06 28.682 486.85 6.44 539.399 6.44c101.964 0 184.918 82.954 184.918 184.919 0 6.96-.396 13.975-1.18 20.92 8.954.364 17.665 1.981 25.947 4.82a85.27 85.27 0 0 1 9.702 4.011 80.341 80.341 0 0 1 5.655 3.054 73.422 73.422 0 0 1 9.562 6.756 66.959 66.959 0 0 1 3.998 3.643c2.699 2.659 5.089 5.46 7.102 8.323.6.853 1.174 1.719 1.707 2.574 5.101 8.174 7.688 16.961 7.688 26.114 0 .847-.028 1.727-.09 2.769l-.041.631a45.59 45.59 0 0 1-.265 2.685l-.046.309a48.08 48.08 0 0 1-.401 2.437l-.188.979a46.262 46.262 0 0 1-.52 2.174l-.232.848c-.07.26-.141.52-.218.777-.079.264-.163.521-.248.778l-.038.117c-2.754 14.783-12.703 28.318-27.559 37.66.246.593.491 1.187.732 1.779l.75 1.861c.394.98.784 1.958 1.17 2.937l.765 1.971a371.9 371.9 0 0 1 2.89 7.713c.241.665.482 1.33.72 1.996a451.479 451.479 0 0 1 1.694 4.843c.35 1.021.69 2.043 1.032 3.064l.592 1.779c.39 1.188.771 2.382 1.148 3.574l.405 1.267a385.815 385.815 0 0 1 1.5 4.896l.192.656c.417 1.401.827 2.806 1.229 4.211l.449 1.605c.306 1.092.612 2.188.909 3.284.125.456.489 1.833.489 1.833.272 1.024.544 2.052.81 3.08l.47 1.852c.268 1.062.519 2.071.765 3.081l.461 1.917c.243 1.02.481 2.038.716 3.058l.428 1.871c.238 1.062.47 2.124.698 3.186l.374 1.732c.246 1.163.483 2.328.719 3.491l.289 1.43c.303 1.525.595 3.056.879 4.586l.064.339c.31 1.675.608 3.364.898 5.054l.1.601c.245 1.452.483 2.896.712 4.341l.21 1.372c.184 1.194.365 2.392.539 3.589l.224 1.592c.159 1.129.315 2.259.464 3.39l.215 1.662c.143 1.12.28 2.235.411 3.351l.193 1.649c.131 1.145.255 2.286.375 3.428l.161 1.542c.124 1.221.24 2.44.353 3.658l.12 1.296c.126 1.429.243 2.853.354 4.275l.054.67c.257 3.385.472 6.817.64 10.201l.014.298c.076 1.562.143 3.121.2 4.678l.032.977c.047 1.335.087 2.673.119 4.011l.025 1.227c.027 1.252.048 2.518.063 3.782l.012 1.281c.01 1.264.015 2.522.013 3.779l-.003 1.24c-.006 1.305-.02 2.61-.038 3.916l-.016 1.048a390.294 390.294 0 0 1-.1 4.339l-.016.604a394.964 394.964 0 0 1-1.127 20.251l-.048.567a392.1 392.1 0 0 1-.39 4.399l-.077.801a414.491 414.491 0 0 1-.427 4.2l-.092.846a383.624 383.624 0 0 1-.484 4.223l-.091.752a377.295 377.295 0 0 1-.572 4.475l-.057.436a398.605 398.605 0 0 1-4.205 25.067l-.022.113a392.823 392.823 0 0 1-.993 4.777l-.098.45a370.524 370.524 0 0 1-.993 4.487l-.103.454a401.237 401.237 0 0 1-1.078 4.586l-.069.291a398.563 398.563 0 0 1-9.906 34.154l-.062.182a379.216 379.216 0 0 1-1.608 4.639l-.062.174a397.69 397.69 0 0 1-23.821 54.066l-.242.453a398.265 398.265 0 0 1-11.153 19.508v.598l-.945.946a394.752 394.752 0 0 1-3.345 5.329l-.979 1.523a397.929 397.929 0 0 1-3.683 5.61l-.263.437-.086.081a394.4 394.4 0 0 1-8.498 12.142l-.061.084a396.973 396.973 0 0 1-9.652 12.711l-.117.235-.336.336-.039.049a416.78 416.78 0 0 1-2.96 3.674l-.81.98c-.783.954-1.569 1.907-2.362 2.855l-1.1 1.302c-.706.837-1.413 1.671-2.125 2.499-.407.475-.819.949-1.231 1.423-.677.782-1.363 1.569-2.055 2.354l-1.279 1.444c-.693.778-1.387 1.551-2.085 2.321a326.678 326.678 0 0 1-3.458 3.773l-1.224 1.317a445.84 445.84 0 0 1-2.423 2.559l-1.021 1.072a400.228 400.228 0 0 1-7.074 7.172l-.959.937a355.63 355.63 0 0 1-2.636 2.567l-1.293 1.234a298.034 298.034 0 0 1-3.786 3.564 414.542 414.542 0 0 1-3.755 3.445c-.771.696-1.542 1.39-2.315 2.078-.511.455-.994.886-1.479 1.313a424 424 0 0 1-2.401 2.097l-1.417 1.229c-.888.763-1.778 1.517-2.671 2.269l-1.188 1.005a391.653 391.653 0 0 1-7.894 6.433l-1.184.93a377.48 377.48 0 0 1-2.822 2.206l-1.503 1.15c-.85.65-1.7 1.298-2.555 1.941-.549.412-1.094.818-1.64 1.223-.822.613-1.651 1.226-2.484 1.835-.56.41-1.122.818-1.685 1.227-.837.605-1.674 1.205-2.514 1.804-.559.397-1.117.795-1.68 1.191-.871.612-1.743 1.218-2.615 1.822l-1.618 1.117a372.01 372.01 0 0 1-2.884 1.952l-1.379.928a401.36 401.36 0 0 1-4.156 2.73l-.213.138c-1.384.896-2.84 1.823-4.304 2.743l-1.394.865c-1 .624-2.003 1.246-3.01 1.86l-1.704 1.03a366.275 366.275 0 0 1-7.281 4.291 351.505 351.505 0 0 1-4.598 2.602c-.617.344-1.238.691-1.863 1.034-.939.518-1.887 1.031-2.836 1.543 0 0-1.323.717-1.781.961-1.046.559-2.1 1.111-3.155 1.662l-1.495.782a400.107 400.107 0 0 1-9.446 4.728l-1.543.734c-1.065.512-2.14 1.026-3.217 1.53l-1.991.918c-.929.429-1.858.857-2.789 1.278l-2.232.996c-.856.381-1.712.762-2.569 1.136-.593.259-2.043.881-2.043.881-.935.4-1.849.793-2.766 1.178-.691.292-1.392.581-2.09.87-.912.378-1.824.753-2.737 1.123-.689.28-1.379.555-2.067.83-.957.381-1.871.742-2.787 1.1-.697.272-1.397.542-2.096.811a485.779 485.779 0 0 1-4.859 1.828c-.94.347-1.88.688-2.82 1.025 0 0-1.412.508-2.05.733-.955.339-1.916.671-2.878 1.004l-1.995.686c-.987.335-1.973.661-2.959.986l-1.921.634c-1.074.349-2.15.689-3.228 1.027 0 0-1.269.403-1.668.527-1.233.383-2.476.758-3.719 1.13l-1.177.355a394.138 394.138 0 0 1-9.948 2.803l-.796.208c-1.373.365-2.757.727-4.143 1.078l-1.39.345a392.15 392.15 0 0 1-3.558.876l-1.618.381c-1.12.263-2.235.523-3.352.776l-1.719.381a378.6 378.6 0 0 1-3.255.709l-1.771.37c-1.074.223-2.149.443-3.225.657l-1.772.348c-1.08.209-2.159.414-3.239.615l-1.751.32c-1.093.198-2.186.39-3.277.578l-1.706.29c-1.124.188-2.244.369-3.364.547l-1.62.255c-1.165.18-2.33.352-3.496.521l-1.479.214c-1.247.176-2.489.343-3.731.506l-1.246.165c-1.376.176-2.751.342-4.126.503l-.858.103a393.888 393.888 0 0 1-20.357 1.805l-.442-4.482.28 4.491c-1.617.101-3.233.19-4.851.271l-.655.029c-1.459.07-2.91.133-4.361.187l-.92.03c-1.361.047-2.733.088-4.103.121l-1.041.021c-1.328.028-2.663.052-3.998.066l-1.077.009c-1.131.009-2.261.014-3.392.014h-1.656z" class="st0"/><path d="M539.401 10.941c99.642 0 180.418 80.776 180.418 180.418a181.8 181.8 0 0 1-1.776 25.341h1.173c10.093 0 19.702 1.672 28.412 4.656a80.39 80.39 0 0 1 9.182 3.796 76.02 76.02 0 0 1 5.336 2.881 68.549 68.549 0 0 1 8.97 6.337 62.138 62.138 0 0 1 3.729 3.396c2.454 2.418 4.668 4.989 6.579 7.707a52.298 52.298 0 0 1 1.568 2.365c4.488 7.193 7.008 15.247 7.008 23.736 0 .84-.034 1.674-.083 2.505-.011.191-.022.383-.036.573a42.463 42.463 0 0 1-.24 2.426c-.015.114-.035.226-.051.34-.099.717-.218 1.43-.353 2.138-.036.188-.07.377-.108.565-.023.113-.041.226-.065.339a43.395 43.395 0 0 1-.467 1.955c-.048.185-.103.369-.154.554-.085.309-.165.619-.257.926-.097.323-.205.643-.309.964-.014.042-.025.086-.039.128-2.719 15.13-13.499 28.322-28.846 36.874l.267.629c.218.515.429 1.032.645 1.548.442 1.058.883 2.116 1.315 3.175.25.614.495 1.229.742 1.843.389.967.776 1.934 1.156 2.903.255.648.505 1.297.756 1.946a389.542 389.542 0 0 1 1.822 4.805 382.712 382.712 0 0 1 2.757 7.666c.222.638.445 1.277.664 1.916a372.81 372.81 0 0 1 1.021 3.035c.195.584.392 1.168.584 1.753.386 1.177.762 2.355 1.136 3.534.133.419.27.838.402 1.258a389.16 389.16 0 0 1 1.482 4.836c.065.217.126.433.19.65.412 1.387.818 2.774 1.214 4.163.15.527.295 1.055.443 1.582.304 1.083.606 2.166.901 3.25.163.603.322 1.206.483 1.809.27 1.016.539 2.031.8 3.048.161.627.319 1.255.478 1.882a409.375 409.375 0 0 1 1.2 4.889 401.22 401.22 0 0 1 1.82 8.019c.124.571.249 1.143.37 1.715.243 1.15.478 2.301.71 3.452.095.47.193.94.286 1.41.299 1.511.588 3.022.869 4.534l.062.323c.308 1.669.605 3.339.89 5.009.034.2.065.4.099.599.242 1.428.477 2.856.703 4.284.071.451.138.903.208 1.354.183 1.184.362 2.367.533 3.551.076.523.148 1.046.221 1.57.157 1.118.311 2.235.458 3.353.072.549.142 1.098.212 1.647.14 1.102.276 2.204.407 3.306.065.545.128 1.09.191 1.635.129 1.128.252 2.255.371 3.383.054.51.108 1.019.16 1.529.122 1.205.237 2.409.347 3.614.039.428.081.856.119 1.284.125 1.408.24 2.817.349 4.225.017.22.037.44.053.66.255 3.363.466 6.725.633 10.086l.013.298c.075 1.54.141 3.081.198 4.62.012.321.021.642.032.963.045 1.322.086 2.644.118 3.965.01.402.017.804.026 1.206a426.086 426.086 0 0 1 .074 5.018c.01 1.244.014 2.488.012 3.731-.001.408-.001.817-.003 1.225a384.585 384.585 0 0 1-.038 3.874c-.005.345-.009.69-.015 1.034a408.871 408.871 0 0 1-.098 4.291l-.016.596a388.943 388.943 0 0 1-1.114 20.019l-.047.555a395.4 395.4 0 0 1-.385 4.355l-.077.792a384.394 384.394 0 0 1-.992 9.162l-.089.744c-.18 1.475-.369 2.949-.566 4.421l-.058.439a391.062 391.062 0 0 1-4.156 24.776l-.038.185a382.898 382.898 0 0 1-.966 4.648l-.092.427a402.557 402.557 0 0 1-2.153 9.44l-.066.276a392.505 392.505 0 0 1-9.797 33.778l-.061.18c-.52 1.531-1.05 3.059-1.59 4.584l-.058.164a391.924 391.924 0 0 1-23.555 53.464l-.243.456-.001.001a390.813 390.813 0 0 1-11.301 19.734l-.002.003-.377.617-.001.002a388.456 388.456 0 0 1-3.838 6.115l-.45.699-.002.003a388.564 388.564 0 0 1-3.957 6.035l-.005.007-.149.22a387.21 387.21 0 0 1-8.534 12.202l-.001.001-.06.082a387.256 387.256 0 0 1-9.826 12.924l-.004.006-.005.006-.001.001a382.79 382.79 0 0 1-3.12 3.874c-.264.324-.532.645-.797.968-.775.944-1.553 1.887-2.337 2.824-.361.431-.726.86-1.089 1.29-.696.824-1.394 1.648-2.098 2.467-.402.469-.807.935-1.212 1.401a346.49 346.49 0 0 1-3.304 3.761 369.802 369.802 0 0 1-5.478 6.024c-.403.434-.804.869-1.209 1.302-.794.847-1.594 1.689-2.396 2.53-.337.353-.671.708-1.009 1.06a389.179 389.179 0 0 1-6.992 7.089c-.314.31-.632.617-.947.926a390.11 390.11 0 0 1-2.605 2.536c-.425.409-.853.814-1.28 1.221-.772.737-1.546 1.472-2.325 2.203-.469.441-.942.879-1.414 1.317a343.738 343.738 0 0 1-3.717 3.409 449.597 449.597 0 0 1-3.745 3.348c-.788.695-1.582 1.386-2.377 2.076-.468.406-.934.813-1.405 1.217-.874.751-1.754 1.496-2.636 2.24-.394.332-.785.667-1.18.998a387.93 387.93 0 0 1-7.797 6.355c-.388.308-.78.612-1.169.918a400.53 400.53 0 0 1-2.791 2.181c-.494.381-.991.759-1.487 1.139-.84.643-1.681 1.284-2.527 1.92-.536.404-1.076.804-1.615 1.206a371.425 371.425 0 0 1-6.61 4.81c-.553.394-1.106.787-1.661 1.178-.858.604-1.721 1.204-2.586 1.802-.531.368-1.061.737-1.595 1.102-.947.648-1.899 1.29-2.853 1.931-.456.306-.909.615-1.366.92a391.361 391.361 0 0 1-4.21 2.765l-.046.03c-1.431.926-2.87 1.842-4.316 2.75-.458.288-.92.571-1.38.857-.989.616-1.978 1.23-2.974 1.838-.56.342-1.124.68-1.687 1.019-.907.547-1.815 1.094-2.728 1.635-.598.354-1.199.706-1.8 1.058a412.054 412.054 0 0 1-4.517 2.606c-.896.509-1.795 1.014-2.696 1.516-.613.342-1.225.683-1.84 1.022-.932.513-1.869 1.021-2.806 1.527-.587.317-1.172.636-1.761.95a400.535 400.535 0 0 1-3.119 1.642c-.495.258-.986.52-1.483.776a391.512 391.512 0 0 1-9.341 4.674c-.505.244-1.011.481-1.517.723-1.062.508-2.124 1.017-3.188 1.515-.611.286-1.223.564-1.835.847-.963.445-1.927.89-2.892 1.326-.649.293-1.3.581-1.95.87-.931.415-1.862.829-2.794 1.236-.673.293-1.347.582-2.021.871-.91.391-1.82.781-2.732 1.164-.689.29-1.379.575-2.069.861a349.965 349.965 0 0 1-4.791 1.947 413.176 413.176 0 0 1-4.791 1.874 366.91 366.91 0 0 1-4.803 1.807c-.927.342-1.856.678-2.784 1.012-.676.243-1.351.487-2.027.726-.948.335-1.897.664-2.847.992-.658.227-1.316.456-1.974.679-.986.334-1.974.661-2.962.987-.62.205-1.239.412-1.859.613-1.061.344-2.124.68-3.187 1.015-.549.173-1.098.35-1.647.521-1.226.38-2.453.75-3.68 1.118-.387.116-.774.236-1.161.351a388.626 388.626 0 0 1-9.838 2.772c-.259.069-.519.135-.778.204a381.11 381.11 0 0 1-4.105 1.068c-.458.116-.917.227-1.375.341-1.172.293-2.345.584-3.518.865-.533.128-1.067.251-1.6.376-1.103.26-2.206.518-3.311.767-.565.128-1.131.251-1.696.376a362.58 362.58 0 0 1-3.22.701c-.583.124-1.167.244-1.75.365-1.063.221-2.126.438-3.189.65-.583.116-1.167.229-1.75.343a354.168 354.168 0 0 1-4.935.926 407.295 407.295 0 0 1-4.928.858c-1.107.185-2.215.365-3.323.54-.533.084-1.066.17-1.599.252-1.153.178-2.306.348-3.46.515-.488.071-.976.143-1.464.212-1.228.173-2.457.338-3.685.499-.411.054-.821.11-1.232.163-1.36.174-2.72.338-4.08.498-.282.033-.563.069-.845.101a388.23 388.23 0 0 1-20.125 1.784l-.162.009c-1.598.099-3.195.188-4.792.267-.218.011-.437.019-.655.03-1.435.069-2.869.131-4.304.183l-.902.03c-1.355.047-2.709.087-4.063.12l-1.023.021c-1.32.028-2.639.051-3.958.065l-1.064.01c-1.091.009-2.182.014-3.273.014h-.653a401.557 401.557 0 0 1-10.094-.15l-.857-.024a380.845 380.845 0 0 1-4.281-.153c-.213-.009-.427-.016-.64-.026a395.054 395.054 0 0 1-4.623-.225l-.285-.015a390.248 390.248 0 0 1-39.866-4.27l-.199-.032a393.388 393.388 0 0 1-4.7-.781l-.299-.052a396.528 396.528 0 0 1-4.608-.826l-.326-.061a377.622 377.622 0 0 1-4.605-.887l-.277-.055a376.034 376.034 0 0 1-4.698-.968l-.145-.031a392.242 392.242 0 0 1-83.541-27.885 390.136 390.136 0 0 1-20.748-10.392h-.002a389.837 389.837 0 0 1-44.462-27.958l-.04-.029a385.602 385.602 0 0 1-6.987-5.204l-.112-.085a383.87 383.87 0 0 1-6.878-5.37l-.035-.029a387.177 387.177 0 0 1-32.893-29.519l-.109-.11a385.688 385.688 0 0 1-6.071-6.254l-.199-.21a389.676 389.676 0 0 1-5.916-6.383l-.165-.183a387.907 387.907 0 0 1-9.17-10.507l-.002-.003-.103-.123a407.072 407.072 0 0 1-3.183-3.837l-.001-.002-.094-.115a390.213 390.213 0 0 1-3.167-3.924l-.008-.01-.168-.212-.152-.191-.004-.005a383.19 383.19 0 0 1-2.934-3.74l-.001-.002-.03-.038c-1.084-1.4-2.16-2.808-3.227-4.226l-.004-.005-.133-.176-.001-.002a386.437 386.437 0 0 1-7.73-10.653l-.01-.015a391.82 391.82 0 0 1-5.618-8.248l-.006-.009a390.602 390.602 0 0 1-5.403-8.385l-.006-.009-.002-.003a393.238 393.238 0 0 1-5.217-8.571l-.005-.009c-1.706-2.885-3.38-5.8-5.02-8.743l-.004-.007-.026-.047a390.056 390.056 0 0 1-2.591-4.727l-.003-.005-.001-.002a409.506 409.506 0 0 1-2.702-5.097l-.208-.397a385.834 385.834 0 0 1-2.701-5.289l-.013-.025-.008-.016a392.425 392.425 0 0 1-3.105-6.364c-.281-.588-.559-1.177-.837-1.766a397.615 397.615 0 0 1-2.445-5.276c-.191-.421-.387-.841-.577-1.262a386.527 386.527 0 0 1-2.809-6.395c-.219-.51-.432-1.022-.649-1.533a394.211 394.211 0 0 1-2.162-5.204c-.224-.549-.449-1.098-.67-1.648a390.485 390.485 0 0 1-2.551-6.503c-.096-.253-.188-.507-.284-.76a398.097 398.097 0 0 1-2.773-7.558 393.166 393.166 0 0 1-2.107-6.073c-.06-.179-.124-.358-.184-.537a392.657 392.657 0 0 1-2.167-6.674c-.158-.501-.312-1.002-.468-1.504a389.14 389.14 0 0 1-1.704-5.624c-.122-.413-.246-.825-.366-1.238a384.662 384.662 0 0 1-1.902-6.761c-.085-.312-.165-.624-.249-.937a396.876 396.876 0 0 1-1.547-5.948c-.118-.468-.237-.936-.353-1.405a384.88 384.88 0 0 1-3.134-13.707l-.268-1.294a389.051 389.051 0 0 1-1.273-6.436l-.084-.435c-.442-2.359-.859-4.72-1.256-7.082l-.139-.849a375.88 375.88 0 0 1-1.001-6.369c-.043-.292-.089-.583-.131-.875a389.81 389.81 0 0 1-1.809-14.194l-.098-.912a387.513 387.513 0 0 1-1.255-14.302l-.042-.624a387.375 387.375 0 0 1-.413-7.046l-.006-.108a387.785 387.785 0 0 1-.442-15.118c-.048-4.87-.004-9.734.131-14.591l.01-.36a389.455 389.455 0 0 1 2.805-36.82l.017-.139a391.232 391.232 0 0 1 2.099-14.618l.001-.005.005-.031.002-.014c.351-2.152.72-4.3 1.106-6.445l.003-.019.001-.008c.285-1.578.579-3.154.883-4.727l.03-.156a387.9 387.9 0 0 1 .932-4.661l.034-.167a391.567 391.567 0 0 1 1.018-4.777 393.77 393.77 0 0 1 2.622-11.163l.013-.053.003-.011c.385-1.535.78-3.068 1.183-4.598l.051-.196c.4-1.513.809-3.024 1.227-4.532l.054-.194c.422-1.521.854-3.041 1.294-4.557l.033-.113a392.842 392.842 0 0 1 3.142-10.273c.08-.248.158-.497.239-.745l.004-.013a413.999 413.999 0 0 1 3.174-9.411l.178-.51a378.772 378.772 0 0 1 1.625-4.513c.092-.252.183-.505.276-.757a416.671 416.671 0 0 1 1.581-4.206c.128-.336.254-.672.383-1.008a401.017 401.017 0 0 1 1.544-3.936c.16-.402.316-.806.477-1.208a376.933 376.933 0 0 1 1.571-3.841c.169-.408.333-.818.503-1.226.242-.579.491-1.156.736-1.734-15.352-8.552-26.136-21.746-28.856-36.879l-.023-.078a44.09 44.09 0 0 1-.632-2.11c-.023-.086-.051-.171-.073-.257-.005-.021-.012-.042-.018-.062a42.649 42.649 0 0 1-.647-2.899c-.042-.222-.092-.443-.131-.667a42.608 42.608 0 0 1-.251-1.645l-.02-.13a44.667 44.667 0 0 1-.185-1.684c-.023-.257-.039-.515-.058-.772a41.072 41.072 0 0 1-.04-.606c-.013-.215-.033-.429-.042-.645a42.518 42.518 0 0 1-.04-1.858c0-8.489 2.52-16.543 7.008-23.736a52.298 52.298 0 0 1 1.568-2.365 55.954 55.954 0 0 1 5.534-6.678 62.474 62.474 0 0 1 5.63-5.121 68.351 68.351 0 0 1 7.1-5.023 73.257 73.257 0 0 1 5.87-3.261 78.45 78.45 0 0 1 8.559-3.647c8.998-3.228 18.993-5.045 29.514-5.045h6.51c15.626-40.963 55.257-70.072 101.709-70.072 6.124 0 12.121.531 17.969 1.503-.027-.998-.076-1.99-.076-2.994 0-60.938 49.4-110.338 110.339-110.338 34.055 0 64.496 15.437 84.736 39.684 33.088-38.864 82.373-63.53 137.426-63.53m0-9c-52.206 0-101.75 21.427-137.478 59.13-22.345-22.532-52.674-35.273-84.69-35.273-31.876 0-61.845 12.413-84.385 34.953-20.846 20.846-33.031 48.049-34.744 77.236-3.049-.239-6.089-.36-9.102-.36-24.349 0-47.719 7.368-67.584 21.308-17.686 12.411-31.469 29.18-40.148 48.764h-.487c-11.292 0-22.245 1.875-32.553 5.573a87.436 87.436 0 0 0-12.243 5.473 81.834 81.834 0 0 0-3.875 2.248 77.771 77.771 0 0 0-8.033 5.684 71.483 71.483 0 0 0-6.442 5.864 65.046 65.046 0 0 0-6.424 7.755 61.46 61.46 0 0 0-1.841 2.777C3.895 251.852 1 261.708 1 271.575c0 .75.016 1.507.049 2.25.01.217.024.428.039.64l.01.135c.015.253.031.5.049.746l.013.177c.017.25.036.5.058.75.067.737.141 1.404.224 2.042.012.091.024.169.035.244.092.68.189 1.312.293 1.905.038.216.081.435.126.654l.031.153a52.125 52.125 0 0 0 .784 3.498l.034.131.028.097c.021.077.041.145.061.212.175.644.367 1.293.581 1.973 2.85 14.834 12.297 28.437 26.384 38.276l-.243.616-.189.479a390.167 390.167 0 0 0-1.578 4.023l-.245.645-.149.393a397.154 397.154 0 0 0-1.615 4.296l-.168.461-.115.315a401.43 401.43 0 0 0-1.661 4.616l-.12.342-.066.188a400.365 400.365 0 0 0-1.692 4.918l-.048.144-.039.117a389.76 389.76 0 0 0-1.439 4.362l-.089.259-.024.092-.07.218-.09.28-.001.002-.025.079a402.206 402.206 0 0 0-3.188 10.43l-.027.094a387.882 387.882 0 0 0-1.33 4.683l-.058.21a404.46 404.46 0 0 0-1.252 4.625l-.029.111-.02.078a422.308 422.308 0 0 0-1.21 4.7l-.001.004-.002.01-.026.102-.002.01a403.136 403.136 0 0 0-2.671 11.372l-.001.004-.01.045-.004.018-.009.042a385.94 385.94 0 0 0-1.017 4.777l-.02.099-.012.058c-.33 1.6-.648 3.19-.956 4.781l-.02.106-.01.052a401.725 401.725 0 0 0-.881 4.709l-.028.133-.021.141a402.347 402.347 0 0 0-1.101 6.417l-.001.005-.011.068-.005.013-.006.038-.002.012a401.311 401.311 0 0 0-2.143 14.929l-.021.166a400.404 400.404 0 0 0-2.867 37.646l-.002.062-.009.32a398.87 398.87 0 0 0-.133 14.914l.004.344.001.106c.055 5.026.206 10.083.447 15.019l.005.099c.115 2.326.257 4.751.423 7.221l.014.204.029.439c.334 4.836.766 9.76 1.284 14.628l.087.804.014.126c.53 4.87 1.153 9.757 1.851 14.526l.081.541.053.354c.325 2.182.669 4.375 1.025 6.519l.056.34.087.528c.417 2.482.85 4.92 1.286 7.248l.057.295.029.151c.396 2.103.822 4.257 1.302 6.585l.274 1.322c.981 4.681 2.06 9.4 3.207 14.027.097.393.197.787.296 1.181l.065.258c.52 2.066 1.053 4.114 1.583 6.084l.093.35.162.609c.613 2.26 1.268 4.587 1.946 6.917.077.266.157.532.236.798l.14.47c.56 1.899 1.146 3.835 1.743 5.752l.139.447c.113.364.226.729.341 1.093.78 2.471 1.505 4.704 2.217 6.827l.125.365.065.191a385.468 385.468 0 0 0 2.775 7.943 400 400 0 0 0 2.216 5.998l.109.292.182.487a397.99 397.99 0 0 0 2.609 6.652c.163.406.329.812.495 1.22l.191.467a405.42 405.42 0 0 0 2.211 5.322l.23.545c.144.341.288.682.434 1.023.957 2.23 1.923 4.431 2.873 6.541.12.265.24.529.361.792l.229.5c.809 1.78 1.65 3.596 2.5 5.395l.04.085a404.023 404.023 0 0 0 3.964 8.173l.055.114.036.067a404.477 404.477 0 0 0 2.721 5.325l.131.25.084.159a386.992 386.992 0 0 0 2.698 5.09l.031.062.065.117.023.043.004.006a401.183 401.183 0 0 0 2.596 4.733l.021.037.054.097.005.008a405.378 405.378 0 0 0 5.005 8.719l.008.013.073.124.075.127.001.002a403.188 403.188 0 0 0 5.036 8.28l.171.341.262.35a402.803 402.803 0 0 0 5.315 8.241l.01.015.015.022a408.966 408.966 0 0 0 5.727 8.41l.02.029.027.038.004.006a399.942 399.942 0 0 0 7.736 10.667l.004.005.137.182.047.07.161.205a396.686 396.686 0 0 0 3.232 4.231l.005.007.043.056a417.692 417.692 0 0 0 3.001 3.826l.118.149.043.063.224.271a405.137 405.137 0 0 0 3.076 3.812l.259.371.243.243a391.92 391.92 0 0 0 2.668 3.216l.004.007.409.486a396.612 396.612 0 0 0 9.383 10.751l.05.055.124.137a396.37 396.37 0 0 0 6.049 6.527l.137.145.063.067a401.002 401.002 0 0 0 6.215 6.403l.095.095a397.92 397.92 0 0 0 33.659 30.21l.016.013a397.105 397.105 0 0 0 7.073 5.523l.042.032.075.057a401.425 401.425 0 0 0 7.146 5.323l.027.02.039.028a400.203 400.203 0 0 0 44.935 28.3l.004.003.526.283a402.408 402.408 0 0 0 21.225 10.631 401.819 401.819 0 0 0 85.458 28.525l.105.022c1.642.349 3.244.678 4.848.999l.283.056c1.569.312 3.14.615 4.713.908l.329.061c1.575.292 3.146.574 4.719.846l.3.052c1.606.277 3.209.543 4.813.8l.175.028a401.038 401.038 0 0 0 40.813 4.373l.182.01.113.006c1.572.086 3.149.163 4.726.23l.402.017.246.01c1.466.06 2.926.112 4.386.156l.534.015.336.009c1.395.039 2.785.071 4.175.094l1.018.016c1.353.02 2.703.033 4.054.039l1.09.004.666.001c1.116 0 2.231-.005 3.347-.014l.161-.001.931-.009a422.45 422.45 0 0 0 4.048-.066l.313-.006.73-.016a382.8 382.8 0 0 0 4.164-.123l.345-.011.575-.019a404.28 404.28 0 0 0 4.405-.188l.263-.012.41-.019c1.632-.081 3.267-.172 4.902-.273l.123-.007a398.56 398.56 0 0 0 20.635-1.828l.516-.062.348-.042a386.79 386.79 0 0 0 4.176-.51l.795-.105.468-.062c1.255-.165 2.512-.333 3.77-.511.352-.05.705-.101 1.057-.153l.44-.064a280.127 280.127 0 0 0 4.861-.735l.316-.05a406.826 406.826 0 0 0 5.126-.846 426.35 426.35 0 0 0 5.085-.907 432.537 432.537 0 0 0 5.07-.974c1.088-.216 2.176-.439 3.264-.665l.406-.084c.461-.096.922-.191 1.382-.289a393.26 393.26 0 0 0 3.296-.718l.494-.109c.415-.092.83-.183 1.245-.277a383.9 383.9 0 0 0 3.386-.785l.516-.121 1.119-.264c1.202-.288 2.403-.586 3.603-.886l.511-.126c.298-.073.597-.147.895-.223 1.4-.355 2.8-.721 4.199-1.093l.31-.081.483-.127a396.937 396.937 0 0 0 10.069-2.837c.243-.072.484-.145.725-.219l.465-.141a376.95 376.95 0 0 0 3.764-1.144c.362-.112.723-.227 1.085-.342l.6-.19a234.467 234.467 0 0 0 4.602-1.48l.562-.186c1.01-.333 2.02-.668 3.03-1.01.538-.182 1.074-.368 1.61-.553l.411-.142c.97-.335 1.941-.671 2.911-1.014.635-.225 1.27-.453 1.904-.681l.17-.061a389.738 389.738 0 0 0 17.565-6.793c.704-.291 1.411-.584 2.118-.881.929-.39 1.86-.79 2.791-1.189l.407-.175c.554-.238 1.108-.475 1.661-.717.954-.416 1.906-.84 2.858-1.264l.52-.231c.492-.219.984-.437 1.475-.659.951-.43 1.902-.869 2.852-1.307l.106-.049.634-.292c.414-.19.829-.381 1.243-.574 1.04-.487 2.079-.984 3.118-1.481l.142-.068.596-.284c.318-.151.636-.302.953-.455a401.797 401.797 0 0 0 9.554-4.781c.32-.166.639-.333.957-.5l.559-.293a401.173 401.173 0 0 0 3.191-1.68c.448-.239.896-.481 1.344-.724l.459-.248c.957-.517 1.915-1.037 2.869-1.561.603-.332 1.204-.667 1.804-1.002l.078-.043a408.455 408.455 0 0 0 4.649-2.632c.913-.525 1.823-1.054 2.73-1.585l.078-.046c.588-.344 1.176-.688 1.761-1.035.935-.554 1.863-1.113 2.791-1.672l.493-.297c.412-.248.824-.496 1.234-.746 1.018-.622 2.031-1.25 3.042-1.88l.513-.318c.3-.186.6-.371.898-.559 1.559-.98 3.003-1.9 4.414-2.813l.045-.029.037-.025a393.936 393.936 0 0 0 4.272-2.806c.297-.198.595-.399.892-.6l.505-.341c.976-.656 1.951-1.313 2.92-1.976.394-.27.79-.544 1.186-.818l.445-.309c.885-.612 1.768-1.225 2.646-1.844.553-.389 1.103-.781 1.654-1.173l.046-.032a431.208 431.208 0 0 0 4.245-3.063c.843-.617 1.682-1.237 2.518-1.859l.158-.118c.499-.371.998-.743 1.495-1.116.864-.65 1.726-1.306 2.586-1.964l.445-.341c.359-.274.717-.547 1.074-.823.959-.741 1.908-1.486 2.856-2.232l.459-.36c.246-.193.493-.385.738-.58a401.896 401.896 0 0 0 7.978-6.502c.258-.216.514-.433.77-.651l.438-.371c.902-.761 1.803-1.523 2.697-2.292.343-.294.684-.591 1.025-.887l.411-.356c.814-.706 1.626-1.413 2.432-2.124.501-.442.998-.885 1.496-1.328a378.189 378.189 0 0 0 6.14-5.586l.126-.117c.441-.41.882-.82 1.321-1.231.798-.75 1.59-1.502 2.38-2.256l.391-.373a250.869 250.869 0 0 0 3.583-3.471l.369-.36c.201-.196.402-.391.601-.588a398.902 398.902 0 0 0 7.153-7.252l.638-.669.393-.413a394.93 394.93 0 0 0 2.453-2.589c.305-.326.607-.652.909-.978l.331-.357a418.02 418.02 0 0 0 2.203-2.389 416.35 416.35 0 0 0 4.698-5.238c.698-.791 1.392-1.587 2.084-2.385l.055-.064c.396-.456.792-.912 1.185-1.37.719-.837 1.433-1.679 2.146-2.523l.353-.417c.254-.3.508-.6.76-.901.804-.961 1.6-1.925 2.393-2.891l.318-.385c.167-.202.334-.404.499-.606a391.759 391.759 0 0 0 2.871-3.561l.011-.011.255-.322.591-.709.05-.101a400.976 400.976 0 0 0 9.122-12.009l.003-.003.372-.511.048-.066.039-.054a398.01 398.01 0 0 0 8.671-12.4l.016-.021.142-.212.166-.246.009-.016a394.1 394.1 0 0 0 3.69-5.627l.087-.114.188-.312.113-.176.27-.42a406.314 406.314 0 0 0 3.81-6.067l.001-.001.118-.193.008-.013.198-.322.005-.009.025-.041.15-.246.202-.33.002-.004a400.873 400.873 0 0 0 9.994-17.327l.138-.069 1.289-2.578.19-.357a401.973 401.973 0 0 0 24.094-54.689l.063-.177a401.73 401.73 0 0 0 1.623-4.68l.032-.095.027-.08a402.893 402.893 0 0 0 10.024-34.561l.039-.162.028-.116a394.4 394.4 0 0 0 1.091-4.645l.08-.352.024-.105a378.69 378.69 0 0 0 1.009-4.56l.042-.193.052-.242c.339-1.584.669-3.169.988-4.756l.013-.063.023-.113a402.068 402.068 0 0 0 4.254-25.358l.034-.257.025-.188c.202-1.511.395-3.018.579-4.527l.067-.553.025-.211c.171-1.417.334-2.84.489-4.264l.008-.074.084-.779c.152-1.418.296-2.835.432-4.253l.025-.254.054-.558c.14-1.484.271-2.969.394-4.455l.018-.214.03-.358c.554-6.794.937-13.685 1.14-20.478l.01-.376.006-.234c.041-1.463.076-2.927.101-4.391l.01-.692.005-.366c.019-1.32.033-2.641.039-3.964l.003-1.021v-.228c.002-1.276-.003-2.548-.013-3.82l-.012-1.301a409.824 409.824 0 0 0-.063-3.835l-.007-.344-.019-.887a421.09 421.09 0 0 0-.12-4.059l-.013-.388-.02-.598c-.058-1.574-.126-3.15-.203-4.727l-.004-.098-.009-.201a397.446 397.446 0 0 0-.648-10.325l-.033-.415-.021-.258c-.112-1.443-.23-2.884-.358-4.325l-.076-.828-.045-.484a409.87 409.87 0 0 0-.356-3.7c-.043-.426-.088-.849-.133-1.273l-.031-.292a410.758 410.758 0 0 0-.574-5.133 421.998 421.998 0 0 0-.416-3.383l-.012-.095c-.068-.53-.135-1.06-.205-1.59a387.775 387.775 0 0 0-.469-3.432l-.064-.456c-.054-.384-.107-.769-.163-1.153-.175-1.209-.359-2.42-.545-3.631l-.077-.504c-.045-.294-.089-.589-.136-.883-.23-1.459-.471-2.921-.719-4.382l-.036-.218-.066-.4a402.913 402.913 0 0 0-.91-5.121l-.046-.24-.017-.09a390.983 390.983 0 0 0-.889-4.641c-.06-.303-.122-.607-.184-.911l-.108-.531a442.466 442.466 0 0 0-.726-3.532c-.091-.431-.184-.861-.278-1.291l-.101-.465a321.935 321.935 0 0 0-1.139-5.11 374.334 374.334 0 0 0-1.951-8.097l-.028-.11a301.81 301.81 0 0 0-1.28-4.935l-.135-.51c-.119-.447-.237-.895-.359-1.342a400.86 400.86 0 0 0-.921-3.326l-.161-.578c-.097-.347-.193-.695-.292-1.041-.405-1.419-.82-2.839-1.242-4.258l-.076-.261-.116-.397a397.172 397.172 0 0 0-1.519-4.955c-.083-.264-.167-.528-.252-.791l-.159-.496c-.382-1.205-.767-2.41-1.162-3.615-.135-.41-.272-.821-.409-1.231l-.188-.563a418.851 418.851 0 0 0-1.044-3.103c-.181-.529-.365-1.057-.549-1.585l-.131-.375c-.341-.98-.685-1.961-1.034-2.94a407.526 407.526 0 0 0-1.786-4.903 419.938 419.938 0 0 0-1.863-4.916l-.104-.268c-.222-.575-.444-1.15-.67-1.724-.389-.99-.785-1.979-1.182-2.969l-.101-.251c14.076-9.835 23.517-23.429 26.37-38.253.078-.24.155-.48.227-.722.086-.289.166-.58.245-.871l.065-.24.043-.153c.05-.176.099-.352.145-.529.219-.837.403-1.609.561-2.351.031-.146.059-.292.086-.438l-.006.031c.037-.182.072-.364.105-.546l.027-.142c.167-.88.311-1.751.427-2.585.021-.135.042-.27.059-.405a51.042 51.042 0 0 0 .336-3.638c.067-1.14.098-2.103.098-3.033 0-9.867-2.895-19.722-8.372-28.5a61.419 61.419 0 0 0-1.84-2.776c-2.169-3.086-4.735-6.094-7.625-8.942a71.92 71.92 0 0 0-4.267-3.885 77.873 77.873 0 0 0-11.777-8.115 85.11 85.11 0 0 0-10.19-4.882 90.705 90.705 0 0 0-4.383-1.632c-7.218-2.474-14.744-4.063-22.464-4.751.49-5.573.738-11.172.738-16.732 0-25.567-5.009-50.375-14.889-73.733-9.541-22.557-23.197-42.813-40.59-60.206-17.393-17.393-37.649-31.05-60.206-40.59-23.365-9.889-48.172-14.898-73.74-14.898z" class="st0"/><path d="M790 271.571c0-30.181-31.853-54.875-70.784-54.875H80.784C41.853 216.696 10 241.39 10 271.571c0 19.901 13.853 37.411 34.448 47.034l-2.044.002C-1.947 420.777-2.44 541.131 51.297 648.532c96.357 192.583 330.589 270.59 523.173 174.233 186.559-93.343 265.598-316.071 182.765-504.984 19.659-9.776 32.765-26.859 32.765-46.21z" class="st68"/><path fill="#edc531" d="M719.82 191.356c0-99.642-80.776-180.418-180.418-180.418-55.053 0-104.339 24.666-137.432 63.541-20.24-24.248-50.682-39.684-84.736-39.684-60.938 0-110.338 49.4-110.338 110.338 0 1.004.049 1.996.076 2.994a109.473 109.473 0 0 0-17.968-1.503c-47.38 0-87.683 30.277-102.635 72.535h631.319a181.892 181.892 0 0 0 2.132-27.803z"/><path fill="#cea628" d="M688.95 138.462c-19.263-61.194-76.375-104.78-140.302-108.236-5.373-.385-12.001-.334-17.412-.062l-2.898.12-2.889.277-5.771.57c-1.913.27-6.781 1.038-8.597 1.307-4.439.882-9.698 2.02-14.093 3.28-29.404 8.134-56.383 25.405-75.747 49.005 23.351-21.301 52-36.332 83.119-42.22 5.156-.939 11.053-1.722 16.285-2.247 1.872-.097 6.352-.401 8.196-.493 11.741-.307 23.815.353 35.346 2.568 58.442 10.273 107.33 54.378 125.611 110.682 2.353 7.13 4.163 14.381 5.721 21.733-.626-12.297-2.895-24.529-6.569-36.284zM311.261 52.634c-29.049 2.611-56.215 20.886-68.121 47.642 37.556-51.836 113.869-51.176 147.304 4.155 9.948 16.703 14.246 36.932 12.122 57.302.823-2.429 1.468-4.92 2.039-7.439 1.375-6.295 1.889-12.929 1.732-19.381-1.26-48.893-46.569-87.412-95.076-82.279zm-72.576 135.062c-1.986-3.17-4.463-6.092-7.012-8.824-.765-.782-2.742-2.552-3.54-3.346l-2.537-2.039c-1.422-1.226-3.779-2.681-5.337-3.764-1.83-1.063-3.813-2.248-5.747-3.136-17.366-8.426-39.4-8.912-55.928 1.572 28.355-1.946 52.873 4.284 75.124 21.981.749.647 2.678 2.211 3.483 2.862 1.45 1.332 3.147 2.694 4.578 4.076 2.905 2.621 2.549 2.62 1.302-.893-1.069-2.865-2.74-5.901-4.386-8.489z" opacity=".5"/><g opacity=".2"><path d="M416.192 222.79H81.988c-38.784 0-70.516 24.6-70.516 54.668 0 30.067 31.732 54.668 70.516 54.668h334.204"/><path d="M383.808 222.79h334.204c38.784 0 70.516 24.6 70.516 54.668 0 30.067-31.732 54.668-70.516 54.668H383.808"/></g><path d="M416.254 216.696H80.784C41.853 216.696 10 241.39 10 271.571s31.853 54.875 70.784 54.875h335.47" class="st68"/><path d="M383.746 216.696h335.47c38.931 0 70.784 24.694 70.784 54.875s-31.853 54.875-70.784 54.875h-335.47" class="st68"/><circle cx="289.623" cy="772.431" r="36.783" class="st69" transform="rotate(-84.997 289.645 772.436)"/><circle cx="561.887" cy="740.044" r="22.796" class="st69" transform="rotate(-4.002 562.199 740.425)"/><circle cx="635.08" cy="401.124" r="25.748" fill="#351433" opacity=".75" transform="rotate(-78.784 635.104 401.122)"/><circle cx="660.702" cy="506.189" r="11.035" class="st69" transform="rotate(-17.484 660.73 506.244)"/><path d="M695.54 434.379a7.356 7.356 0 1 0 14.212 3.808 7.356 7.356 0 0 0-5.202-9.01 7.355 7.355 0 0 0-9.01 5.202zM187.027 643.797c-1.686 6.293 2.048 12.762 8.342 14.448 6.293 1.686 12.762-2.048 14.448-8.342 1.686-6.293-2.048-12.762-8.342-14.448-6.293-1.686-12.762 2.049-14.448 8.342z" class="st69"/><circle cx="127.736" cy="459.346" r="58.853" class="st69" transform="rotate(-45.001 127.731 459.35)"/><path d="M715.891 585.241c-35.321-9.464-71.626 11.497-81.09 46.818-9.464 35.321 11.497 71.626 46.817 81.09a65.98 65.98 0 0 0 25.117 1.773 390.354 390.354 0 0 0 53.218-90.966c-7.599-18.39-23.357-33.167-44.062-38.715zm-613.523 59.582c-17.218-4.614-34.779 1.627-45.446 14.517 13.741 25.479 29.945 48.84 48.17 69.93 13.492-4.579 24.524-15.591 28.488-30.387 6.309-23.547-7.665-47.751-31.212-54.06z" class="st69"/><path fill="#734573" d="M400.014 349.492c-102.256 0-185.264 82.874-185.264 185.264 0 56.809 25.531 107.603 65.765 141.555 7.485-21.253 23.927-40.769 33.283-50.794-.134-4.411.401-11.763 3.609-20.719 1.337 6.282 13.901 10.292 24.461 12.698 15.505 3.475 36.09 5.347 58.012 5.347s42.506-1.871 58.012-5.347c10.693-2.406 23.125-6.55 24.461-12.698 3.342 8.822 3.743 16.174 3.609 20.719 9.357 10.025 25.798 29.541 33.283 50.794 40.234-33.952 65.765-84.746 65.765-141.555.268-102.256-82.74-185.264-184.996-185.264zm116.158 187.937c-7.886 23.793-23.793 44.11-44.645 58.413 6.149 2.54 9.357 5.213 9.357 7.886 0 8.421-32.481 17.377-80.869 17.377s-80.869-8.956-80.869-17.377c0-2.673 3.342-5.48 9.357-7.886-20.986-14.303-36.892-34.754-44.645-58.413-19.248-1.604-34.353-17.778-34.353-37.427 0-20.451 16.441-37.16 36.892-37.561 17.511-42.774 61.755-73.25 113.618-73.25s95.974 30.343 113.618 73.25c20.451.401 36.892 16.976 36.892 37.561-.001 19.649-15.105 35.823-34.353 37.427z"/><path fill="#948fc4" d="M484.893 630.596c-2.406.936-4.812 1.738-7.218 2.673 2.406-.935 4.812-1.737 7.218-2.673zm-162.807 2.673a98.068 98.068 0 0 1-6.951-2.807v.134c1.604.802 3.876 1.604 6.951 2.673z"/><path d="M286.396 462.575c-20.451.401-36.892 16.976-36.892 37.561 0 19.649 15.104 35.689 34.353 37.427-3.609-10.693-5.48-22.189-5.48-33.952-.001-14.57 2.806-28.337 8.019-41.036zm-19.783 54.269c-3.743 0-6.817-3.074-6.817-6.817s3.074-6.817 6.817-6.817c3.743 0 6.817 3.074 6.817 6.817s-2.94 6.817-6.817 6.817zm0-19.782c-3.743 0-6.817-3.074-6.817-6.817s3.074-6.817 6.817-6.817c3.743 0 6.817 3.074 6.817 6.817.134 3.742-2.94 6.817-6.817 6.817z" class="st74"/><circle cx="266.613" cy="490.244" r="6.817" class="st75"/><circle cx="266.613" cy="509.894" r="6.817" class="st75"/><path d="M291.208 682.192c-.267.668-.401 1.47-.668 2.139 2.807 2.005 5.748 4.01 8.688 6.015 1.337-12.565 3.475-24.06 5.614-33.551-5.881 7.753-10.827 16.441-13.634 25.397zm194.621-51.997c-.267.134-.668.267-.936.401-2.406.936-4.812 1.738-7.218 2.673-2.139.802-4.277 1.47-6.416 2.139 5.213 24.194 18.714 43.308 29.273 55.071 0 0 .134 0 .134-.134-1.337-12.565-3.475-24.06-5.614-33.551 5.881 7.886 10.961 16.441 13.634 25.531.267.668.401 1.47.668 2.139 3.475-2.54 6.817-5.213 10.159-8.02-7.485-21.253-23.927-40.769-33.283-50.794-.134 2.807-.401 4.545-.401 4.545z" class="st75"/><path d="M495.186 656.795c2.139 9.49 4.277 20.986 5.614 33.551 2.941-1.871 5.881-3.876 8.688-6.015-.134-.668-.401-1.47-.668-2.139-2.807-8.956-7.753-17.644-13.634-25.397z" class="st75"/><path d="M328.502 595.842c-6.149 2.54-9.357 5.213-9.357 7.886 0 8.421 32.481 17.377 80.869 17.377s80.869-8.956 80.869-17.377c0-2.673-3.342-5.48-9.357-7.886-20.05 13.634-44.779 21.788-71.512 21.788-26.734 0-51.462-8.02-71.512-21.788z" class="st74"/><path d="M328.635 635.542c-2.406-.802-4.678-1.47-6.55-2.139a117.783 117.783 0 0 1-6.951-2.673v-.134c-.535-.267-.936-.401-.936-.401s-.401-1.604-.401-4.678c-9.357 10.025-25.798 29.541-33.283 50.794 3.342 2.807 6.683 5.48 10.159 8.02.134-.668.401-1.47.668-2.139 2.673-8.956 7.753-17.644 13.634-25.531-2.139 9.49-4.277 20.986-5.614 33.551l.134.134c2.005-2.139 4.01-4.678 6.149-7.352 8.288-10.56 18.58-27.135 22.991-47.452zm17.644 4.678c-5.748 25.664-19.248 46.116-30.744 59.482 25.397 12.966 54.002 20.318 84.478 20.318 30.476 0 59.215-7.352 84.478-20.318-11.495-13.367-24.996-33.818-30.744-59.616-43.44 10.159-81.803 5.882-107.468.134z" class="st75"/><path d="M477.675 633.269c2.406-.802 4.812-1.738 7.218-2.673.267-.134.668-.267.936-.401 0 0 .401-1.604.401-4.678.134-4.411-.401-11.763-3.609-20.719-1.337 6.282-13.902 10.292-24.461 12.698-15.506 3.475-36.09 5.347-58.012 5.347s-42.506-1.871-58.012-5.347c-10.693-2.406-23.125-6.416-24.461-12.698-3.342 8.822-3.743 16.174-3.609 20.719.134 2.941.401 4.678.401 4.678s.267.134.936.401c1.203.535 3.609 1.47 6.951 2.807 1.871.668 4.144 1.47 6.55 2.139-4.411 20.318-14.837 36.892-23.125 47.586a198.89 198.89 0 0 1-6.149 7.352 191.295 191.295 0 0 0 16.04 9.223c11.362-13.367 24.996-33.818 30.744-59.482 25.798 5.881 64.161 10.025 107.603-.134 5.748 25.798 19.248 46.116 30.744 59.616a191.295 191.295 0 0 0 16.04-9.223c-10.426-11.763-24.06-30.877-29.273-55.071 1.87-.803 4.009-1.471 6.147-2.14zm35.957-170.694c5.213 12.698 8.02 26.466 8.02 40.902 0 11.763-1.871 23.258-5.48 33.952 19.248-1.604 34.353-17.778 34.353-37.427-.001-20.451-16.442-37.16-36.893-37.427zm19.783 20.719c3.743 0 6.817 3.074 6.817 6.817 0 3.743-3.074 6.817-6.817 6.817-3.743 0-6.817-3.074-6.817-6.817-.134-3.743 2.941-6.817 6.817-6.817zm0 33.55c-3.743 0-6.817-3.074-6.817-6.817s3.074-6.817 6.817-6.817c3.743 0 6.817 3.074 6.817 6.817 0 3.743-3.074 6.817-6.817 6.817z" class="st74"/><circle cx="533.382" cy="509.878" r="6.817" class="st75"/><circle cx="533.415" cy="490.111" r="6.817" class="st75"/><path d="M513.632 462.575c-17.51-42.774-61.755-73.25-113.618-73.25s-95.974 30.343-113.618 73.25c-5.213 12.698-8.02 26.466-8.02 40.902 0 11.763 1.871 23.258 5.48 33.952 7.886 23.793 23.793 44.11 44.645 58.413 20.05 13.634 44.779 21.788 71.512 21.788 26.734 0 51.462-8.154 71.512-21.788 20.986-14.303 36.892-34.754 44.645-58.413 3.609-10.693 5.48-22.189 5.48-33.952.002-14.436-2.805-28.203-8.018-40.902zM400.014 587.288c-81.805 0-103.86-39.298-103.86-87.954s46.517-87.954 103.86-87.954 103.86 39.298 103.86 87.954-22.055 87.954-103.86 87.954z" class="st75"/><path d="M503.874 497.062c-1.069-36.892-29.14-68.171-68.037-80.335-.936-.267-2.005-.535-2.941-.802l-6.416-1.604c-.936-.267-2.005-.401-2.941-.668-.802-.134-1.738-.267-2.54-.401l-2.807-.401c-1.604-.267-3.208-.401-4.812-.668-1.738-.134-3.475-.401-5.213-.401-1.738-.134-3.475-.134-5.347-.267h-5.346c-1.738 0-3.609.134-5.347.267a78.896 78.896 0 0 0-7.886.802c-49.858 6.416-88.087 42.907-88.087 86.884 0 48.522 22.055 87.954 103.86 87.954s103.86-39.299 103.86-87.954v-2.406z" class="st74"/><path fill="#561c54" d="M291.208 682.192c-.267.668-.401 1.47-.668 2.139 2.807 2.005 5.748 4.01 8.688 6.015 1.337-12.565 3.475-24.06 5.614-33.551-5.881 7.753-10.827 16.441-13.634 25.397zm203.978-25.397c2.139 9.49 4.277 20.986 5.614 33.551 2.941-1.871 5.881-3.876 8.688-6.015-.134-.668-.401-1.47-.668-2.139-2.807-8.956-7.753-17.644-13.634-25.397z" opacity=".5"/></svg>