<?xml version="1.0" encoding="utf-8"?>
<!-- Generator: Adobe Illustrator 24.0.2, SVG Export Plug-In . SVG Version: 6.00 Build 0)  -->
<svg version="1.1" id="Layer_1" xmlns="http://www.w3.org/2000/svg" xmlns:xlink="http://www.w3.org/1999/xlink" x="0px" y="0px"
	 viewBox="150 60 880 980" enable-background="new 0 0 1080 1080" xml:space="preserve">
<g>
	<g>
		<path fill="#FFFFFF" stroke="#FFFFFF" stroke-width="41.5126" stroke-miterlimit="10" d="M658.597,211.04
			c-51.091,0-96.83,22.891-127.541,58.968c-18.783-22.503-47.034-36.828-78.638-36.828c-56.553,0-102.398,45.845-102.398,102.398
			c0,0.932,0.046,1.853,0.07,2.778c-5.427-0.902-10.992-1.395-16.675-1.395c-55.788,0-101.014,45.225-101.014,101.014
			c0,0,202.028,2.767,201.958,2.767h68.775c24.71,61.634,84.999,105.165,155.463,105.165c92.471,0,167.434-74.963,167.434-167.434
			S751.068,211.04,658.597,211.04z"/>
	</g>
	<g>
		<path opacity="0.35" fill="none" stroke="#E7AD22" stroke-width="16.605" stroke-linecap="round" stroke-miterlimit="10" d="
			M502.201,383.285"/>
		<path fill="#FFFFFF" stroke="#FFFFFF" stroke-width="30.4425" stroke-miterlimit="10" d="M864.104,502.865
			c77.664,177.103,3.569,385.912-171.329,473.42c-180.54,90.331-400.124,17.202-490.455-163.337
			c-50.376-100.684-49.915-213.512-8.336-309.292"/>
		<path fill="none" d="M551.232,281.962"/>
		<path fill="#FFF4CA" d="M551.388,281.962"/>
		<path fill="#FFF4CA" d="M561.927,265.456"/>
		<g>
			<path fill="#FFFFFF" d="M908.272,455.478c0-28.161-29.72-51.201-66.045-51.201H216.206c-36.325,0-66.045,23.04-66.045,51.201
				c0,28.161,29.72,51.201,66.045,51.201h626.021C878.552,506.679,908.272,483.638,908.272,455.478z"/>
			<path fill="none" stroke="#FFFFFF" stroke-width="30.4425" stroke-miterlimit="10" d="M908.272,455.478
				c0-28.161-29.72-51.201-66.045-51.201H216.206c-36.325,0-66.045,23.04-66.045,51.201c0,28.161,29.72,51.201,66.045,51.201
				h626.021C878.552,506.679,908.272,483.638,908.272,455.478z"/>
		</g>
		<path fill="#6E6099" stroke="#FFFFFF" stroke-width="16.605" stroke-miterlimit="10" d="M605.021,417.701"/>
	</g>
</g>
<g>
	<path fill="#E7AD22" stroke="#E7AD22" stroke-width="11.07" stroke-miterlimit="10" d="M658.597,211.04
		c-51.091,0-96.83,22.891-127.541,58.968c-18.783-22.503-47.034-36.828-78.638-36.828c-56.553,0-102.398,45.845-102.398,102.398
		c0,0.932,0.046,1.853,0.07,2.778c-5.427-0.902-10.992-1.395-16.675-1.395c-55.788,0-101.014,45.225-101.014,101.014
		c0,0,202.028,2.767,201.958,2.767h68.775c24.71,61.634,84.999,105.165,155.463,105.165c92.471,0,167.434-74.963,167.434-167.434
		S751.068,211.04,658.597,211.04z"/>
	<g>
		<path fill="#F1C616" d="M658.597,211.04c-51.091,0-96.83,22.891-127.541,58.968c-18.783-22.503-47.034-36.828-78.638-36.828
			c-56.553,0-102.398,45.845-102.398,102.398c0,0.932,0.046,1.853,0.07,2.778c-5.427-0.902-10.992-1.395-16.675-1.395
			c-55.788,0-101.014,45.225-101.014,101.014c0,0,202.028,2.767,201.958,2.767h68.775c24.71,61.634,84.999,105.165,155.463,105.165
			c92.471,0,167.434-74.963,167.434-167.434S751.068,211.04,658.597,211.04z"/>
		<g opacity="0.45">
			<path fill="#E7AD22" d="M548.939,279.515c4.473-5.369,9.304-10.497,14.583-15.17c1.277-1.22,2.676-2.292,4.029-3.426
				c1.366-1.118,2.715-2.263,4.156-3.285l4.267-3.158l4.417-2.955c0.739-0.49,1.475-0.988,2.23-1.453l2.299-1.338
				c1.54-0.88,3.057-1.814,4.623-2.652c3.162-1.618,6.294-3.327,9.572-4.728c6.468-3.01,13.24-5.355,20.119-7.313l5.192-1.374
				c1.743-0.408,3.501-0.748,5.254-1.125l2.634-0.545c0.882-0.156,1.771-0.274,2.656-0.413l5.322-0.8l5.356-0.529l2.681-0.257
				l2.69-0.111l5.384-0.211l5.389,0.048c1.798-0.013,3.592,0.106,5.387,0.221c1.793,0.129,3.594,0.177,5.379,0.41l5.366,0.588
				l5.335,0.829c1.786,0.24,3.539,0.658,5.303,1.019c1.761,0.374,3.531,0.714,5.266,1.199c1.742,0.457,3.491,0.888,5.226,1.371
				l5.163,1.593c6.829,2.292,13.514,5.014,19.968,8.211c6.409,3.285,12.611,6.962,18.509,11.077
				c5.888,4.131,11.441,8.72,16.65,13.652c1.281,1.256,2.599,2.473,3.846,3.761l3.693,3.908c1.211,1.32,2.346,2.709,3.52,4.059
				c1.189,1.339,2.28,2.759,3.382,4.169c8.88,11.229,15.85,23.862,20.978,37.076c2.445,6.66,4.534,13.43,5.998,20.329
				c0.644,3.469,1.361,6.91,1.759,10.405c0.496,3.475,0.719,6.982,0.958,10.465c-5.373-27.443-17.669-52.933-35.573-73.433
				c-17.811-20.541-41.038-36.125-66.708-44.476c-6.391-2.17-12.973-3.722-19.6-4.976c-6.626-1.313-13.371-1.913-20.117-2.293
				l-5.071-0.185l-5.075,0.063l-2.539,0.033l-2.534,0.154l-5.073,0.304l-5.051,0.566c-0.842,0.099-1.687,0.177-2.527,0.292
				l-2.51,0.407c-1.673,0.276-3.356,0.514-5.025,0.82l-4.983,1.063C594.528,247.31,569.575,260.653,548.939,279.515z"/>
		</g>
		<g opacity="0.45">
			<path fill="#E7AD22" d="M383.657,293.949c2.002-4.3,4.31-8.537,7.17-12.417c0.662-1.014,1.42-1.95,2.182-2.888
				c0.77-0.929,1.491-1.912,2.311-2.803c1.64-1.781,3.269-3.597,5.081-5.226c7.062-6.743,15.587-11.994,24.77-15.71
				c4.641-1.705,9.392-3.269,14.309-4.089l1.834-0.361c0.612-0.117,1.233-0.171,1.849-0.26l3.712-0.46
				c1.24-0.122,2.487-0.15,3.733-0.228c1.246-0.057,2.493-0.162,3.741-0.123c9.993-0.09,20.012,1.84,29.376,5.409
				c18.796,7.115,34.515,21.629,43.33,39.382c4.39,8.888,7.063,18.551,7.847,28.272c0.409,4.86,0.292,9.734-0.24,14.522
				c-0.282,2.394-0.666,4.768-1.161,7.111c-0.53,2.337-1.129,4.649-1.893,6.903c1.972-18.904-2.017-37.677-11.249-53.178
				c-9.238-15.469-23.507-27.649-40.121-33.978c-4.135-1.616-8.416-2.85-12.771-3.734c-1.093-0.198-2.179-0.441-3.279-0.608
				l-3.305-0.464l-3.327-0.298c-1.11-0.095-2.226-0.113-3.34-0.176c-8.928-0.338-17.891,0.95-26.523,3.516
				C410.439,267.38,394.92,278.641,383.657,293.949z"/>
		</g>
		<g opacity="0.45">
			<path fill="#E7AD22" d="M305.186,356.947c6.59-4.28,14.459-6.565,22.443-7.139c7.994-0.548,16.236,0.484,23.852,3.319
				c3.844,1.323,7.459,3.22,10.941,5.272l2.518,1.695c0.417,0.285,0.84,0.56,1.249,0.854l1.186,0.944l2.354,1.892l2.2,2.067
				l1.086,1.038l1.012,1.116c0.671,0.745,1.346,1.48,1.992,2.238l1.816,2.38l0.881,1.199l0.807,1.256l1.553,2.527
				c0.453,0.886,0.913,1.758,1.338,2.647l0.638,1.325l0.541,1.379c0.331,0.934,0.691,1.838,0.98,2.775
				c-5.82-5.264-11.33-10.08-17.434-13.959c-2.972-2.025-6.123-3.709-9.238-5.376c-0.811-0.359-1.599-0.758-2.396-1.139l-1.19-0.578
				l-1.226-0.499l-2.424-1.05l-2.483-0.9c-6.6-2.469-13.525-3.964-20.669-4.833C320.34,356.485,313.008,356.536,305.186,356.947z"/>
		</g>
		<g>
			<polygon fill="#F9FAE6" points="587.309,297.089 577.469,302.471 572.087,312.31 566.706,302.471 556.866,297.089 
				566.706,291.708 572.087,281.868 577.469,291.708 			"/>
			<polygon opacity="0.8" fill="#F9FAE6" points="433.779,352.554 423.939,357.936 418.557,367.776 413.176,357.936 
				403.336,352.554 413.176,347.173 418.557,337.333 423.939,347.173 			"/>
			<polygon opacity="0.95" fill="#F9FAE6" points="772.798,369.159 762.958,374.541 757.576,384.381 752.195,374.541 
				742.355,369.159 752.195,363.778 757.576,353.938 762.958,363.778 			"/>
		</g>
	</g>
</g>
<path opacity="0.35" fill="none" stroke="#E7AD22" stroke-width="9.6863" stroke-linecap="round" stroke-miterlimit="10" d="
	M502.201,383.285"/>
<g opacity="0.15">
	<g>
		<path fill="#231F20" d="M879.939,338.947c-0.692,3.13-3.909,23.66,30.536,24.615c2.538,0.07,4.813-1.578,5.509-4.02
			l45.459-159.392c0.782-2.743-0.647-5.632-3.303-6.674l-17.419-6.834c-2.905-1.14-6.177,0.345-7.233,3.281l-53.355,148.352
			C880.054,338.498,879.989,338.717,879.939,338.947z"/>
		<path opacity="0.6" fill="#231F20" d="M879.939,338.947c-0.692,3.13-3.909,23.66,30.536,24.615c2.538,0.07,4.813-1.578,5.509-4.02
			l45.459-159.392c0.782-2.743-0.647-5.632-3.303-6.674l-17.419-6.834c-2.905-1.14-6.177,0.345-7.233,3.281l-53.355,148.352
			C880.054,338.498,879.989,338.717,879.939,338.947z"/>
		<path fill="#231F20" d="M892.804,351.824c-20.343-27.856-70.867-47.677-151.324-49.294
			c-80.456-1.618-104.516-51.072-104.516-51.072l49.548-171.43c0,0,24.06,49.454,104.516,51.072
			c69.283,1.393,116.371,16.285,141.103,38.181c6.557,5.805,9.125,14.902,6.693,23.315L892.804,351.824z"/>
		<path opacity="0.6" fill="#231F20" d="M845.601,307.016c-26.521-12.081-55.369-16.951-83.442-23.988
			c-23.62-5.92-52.221-13.434-65.554-35.864c-6.289-10.58-9.396-23.369-11.774-35.332c-2.757-13.867-3.634-28.031-3.42-42.15
			c0.436-28.878-2.571-59.176,5.233-87.302c0.126-0.453,0.289-0.856,0.48-1.216c-0.413-0.73-0.612-1.136-0.612-1.136l-49.548,171.43
			c0,0,24.06,49.454,104.516,51.071c80.456,1.618,130.981,21.438,151.324,49.294l1.502-5.195
			C882.773,328.945,865.067,315.883,845.601,307.016z"/>
	</g>
	<g>
		<g>
			<path fill="#231F20" d="M679.671,72.323c-0.837,2.898-1.675,5.797-2.512,8.695c-2.259,7.818-4.517,15.637-6.775,23.455
				c-3.361,11.636-6.722,23.271-10.084,34.906c-4.073,14.099-8.146,28.198-12.219,42.297c-4.475,15.492-8.95,30.984-13.426,46.475
				c-4.517,15.638-9.035,31.275-13.552,46.913c-4.212,14.58-8.424,29.161-12.636,43.741c-3.559,12.32-7.118,24.641-10.677,36.962
				c-2.559,8.858-5.117,17.715-7.676,26.573c-1.209,4.186-2.55,8.35-3.633,12.576c-0.046,0.18-0.103,0.357-0.154,0.534
				c-0.687,2.379,1.682,5.068,4.112,5.597c2.861,0.623,4.944-1.097,5.633-3.483c0.837-2.898,1.674-5.797,2.512-8.695
				c2.258-7.818,4.517-15.636,6.775-23.455c3.361-11.635,6.722-23.271,10.084-34.906c4.073-14.099,8.146-28.198,12.219-42.297
				c4.475-15.492,8.95-30.983,13.426-46.475c4.517-15.638,9.034-31.275,13.552-46.913c4.212-14.58,8.424-29.161,12.636-43.741
				c3.559-12.32,7.118-24.641,10.677-36.961c2.559-8.858,5.117-17.715,7.676-26.573c1.209-4.186,2.55-8.35,3.633-12.576
				c0.046-0.18,0.103-0.356,0.154-0.534c0.687-2.379-1.682-5.068-4.112-5.597C682.443,68.217,680.36,69.937,679.671,72.323
				L679.671,72.323z"/>
		</g>
	</g>
	<g>
		<circle fill="#231F20" cx="789.227" cy="217.025" r="58.816"/>
		<circle fill="#231F20" cx="789.227" cy="217.025" r="51.215"/>
		<g>
			<g>
				<defs>
					<circle id="SVGID_1_" cx="790.249" cy="212.813" r="43.338"/>
				</defs>
				<use xlink:href="#SVGID_1_"  overflow="visible" fill="#231F20"/>
				<clipPath id="SVGID_2_">
					<use xlink:href="#SVGID_1_"  overflow="visible"/>
				</clipPath>
				<g clip-path="url(#SVGID_2_)">
					<g>
						<defs>
							
								<rect id="SVGID_3_" x="773.15" y="181.224" transform="matrix(0.2358 -0.9718 0.9718 0.2358 393.6284 971.27)" width="82.407" height="108.279"/>
						</defs>
						<use xlink:href="#SVGID_3_"  overflow="visible" fill="#231F20"/>
						<clipPath id="SVGID_4_">
							<use xlink:href="#SVGID_3_"  overflow="visible"/>
						</clipPath>
						<g clip-path="url(#SVGID_4_)">
							<path fill="#231F20" d="M773.54,198.347c5.867,1.423,11.733,2.847,17.693,4.292c-0.09,0.372-0.181,0.745-0.271,1.117
								c-0.384,1.583-0.861,3.144-1.152,4.749c-0.421,2.955-0.354,5.929,0.202,8.923c0.53,2.692,1.407,5.173,2.818,7.487
								c1.67,2.87,3.941,5.295,6.882,6.994c0.257,0.161,0.327,0.277,0.26,0.556c-0.455,1.467-0.514,2.932-1.248,4.331
								c-1.146,2.286-2.95,3.623-5.317,4.035c-1.137,0.217-2.207,0.155-3.324-0.116c-3.539-0.858-7.17-1.74-10.709-2.598
								c-1.676-0.407-3.191-1.07-4.34-2.433c-1.687-1.987-2.099-4.355-1.466-6.962c1.694-6.984,3.411-14.061,5.106-21.045
								c0.045-0.186,0.09-0.372,0.136-0.559c0.248-1.024-0.268-1.741-1.131-2.246c-2.24-1.332-3.603-3.438-4.178-5.944
								c0.023-0.093-0.025-0.302-0.003-0.395C773.495,198.533,773.517,198.44,773.54,198.347z M780.058,216.592
								c-0.316,1.304,0.366,2.554,1.67,2.87c1.211,0.294,2.577-0.46,2.893-1.763c0.316-1.304-0.46-2.577-1.741-2.986
								C781.741,214.535,780.304,215.172,780.058,216.592z"/>
							<path fill="#231F20" d="M799.614,221.336c-0.271,1.117-1.544,1.893-2.661,1.622c-1.117-0.271-1.893-1.544-1.6-2.755
								c0.271-1.117,1.544-1.893,2.661-1.622C799.202,218.968,800.048,220.357,799.614,221.336z"/>
							<path fill="#231F20" d="M780.058,216.592c0.246-1.419,1.682-2.057,2.8-1.786c1.304,0.316,2.057,1.682,1.741,2.986
								s-1.682,2.057-2.893,1.763C780.425,219.146,779.742,217.896,780.058,216.592z"/>
							<path fill="#231F20" d="M860.53,261.652L860.53,261.652C860.623,261.675,860.623,261.675,860.53,261.652
								c0.186,0.045,0.186,0.045,0.279,0.068s0.302-0.025,0.395-0.003c0.116-0.071,0.116-0.071,0.231-0.141l0,0
								c1.182-0.403,1.338-1.45,1.586-2.475c1.13-4.656,2.282-9.405,3.411-14.061c0.362-1.49,0.537-3.025,0.433-4.628
								c-0.434-5.528-4.279-10.405-9.866-11.761c-5.937-1.539-11.897-2.985-17.857-4.431c-10.243-2.485-20.487-4.97-30.614-7.526
								c-0.093-0.023-0.279-0.068-0.372-0.09c-0.186-0.045-0.257-0.161-0.443-0.206c-0.073-0.511,0.181-0.745,0.692-0.818
								c0.209-0.048,0.302-0.025,0.511-0.073c3.133-0.719,5.653-2.573,7.564-5.166c0.714-0.911,1.358-1.938,1.722-3.033
								c0.316-1.304-0.155-2.207-1.458-2.523c-2.514-0.61-5.029-1.22-7.52-1.923c-0.279-0.068-0.466-0.113-0.745-0.181
								c0.068-0.279,0.113-0.466,0.181-0.745c0.294-1.211,0.587-2.421,0.859-3.539c0.136-0.559,0.178-1.14,0.198-1.628
								c-0.087-2.486-2.031-4.634-4.867-4.73c-1.953-0.079-4.058,1.283-4.603,3.123c-0.455,1.467-0.816,2.957-1.177,4.447
								c-0.068,0.279-0.136,0.559-0.181,0.745l-8.846-2.146c0.068-0.279,0.136-0.559,0.203-0.838
								c0.316-1.304,0.633-2.607,0.949-3.911c0.675-3.189-1.833-6.262-5.364-5.936c-2.114,0.177-3.892,1.817-4.411,3.958
								c-0.294,1.211-0.587,2.421-0.881,3.632c-0.068,0.279-0.113,0.466-0.181,0.745c-0.279-0.068-0.559-0.136-0.838-0.203
								c-2.514-0.61-5.029-1.22-7.565-1.737c-1.211-0.294-2.136,0.271-2.337,1.504c-0.088,0.768-0.082,1.558-0.054,2.255
								c0.282,3.717,1.768,6.937,4.621,9.404c0.561,0.531,0.68,0.855,0.499,1.6c-1.604,6.612-3.185,13.13-4.789,19.742
								c-0.226,0.931-0.359,1.885-0.283,2.791c0.264,4.6,2.403,7.978,6.483,9.855c0.093,0.023,0.164,0.138,0.257,0.161l0.093,0.023
								c0,0,0.093,0.023,0.186,0.045c0.093,0.023,0.186,0.045,0.164,0.138l0,0c0.093,0.023,0.186,0.045,0.279,0.068
								c0.372,0.09,0.652,0.158,1.024,0.249c0.093,0.023,0.186,0.045,0.279,0.068c0.559,0.136,1.117,0.271,1.676,0.407
								c0.186,0.045,0.279,0.068,0.466,0.113l6.798,1.649l0,0c0.093,0.023,0.186,0.045,0.279,0.068l0,0
								c0.931,0.226,1.377,0.827,1.662,1.685c0.073,0.511,0.217,1.137,0.082,1.696c-0.023,0.093-0.023,0.093-0.045,0.186
								c-0.09,0.372-0.203,0.838-0.294,1.211c-0.023,0.093-0.023,0.093-0.045,0.186c-0.268,1.513-0.652,3.096-0.921,4.608
								c-0.472,2.351-0.943,4.701-1.415,7.052c-0.336,1.792-0.765,3.561-1.195,5.33c-0.336,1.792,0.558,3.389,2.119,3.866
								c3.725,0.904,7.357,1.785,11.081,2.688c1.304,0.316,2.647-0.344,3.243-1.58c0.757-1.493,1.536-3.078,2.199-4.594
								c0.779-1.586,1.536-3.078,2.315-4.664c0.186,0.045,0.209-0.048,0.302-0.025c7.636,1.852,15.179,3.682,22.815,5.535
								c0.466,0.113,0.514,0.322,0.516,0.717c-0.062,1.07-0.031,2.162-0.116,3.324c-0.009,2.068-0.133,4.208-0.142,6.276
								c-0.037,1.371,0.903,2.783,2.184,3.192c3.725,0.904,7.357,1.785,11.081,2.688c1.49,0.361,3.11-0.626,3.587-2.186
								c0.545-1.84,1.09-3.68,1.657-5.613c0.658-2.305,1.409-4.588,2.089-6.987c0.432-1.374,0.748-2.678,1.18-4.052
								c0.681-2.399,1.432-4.681,2.112-7.08c0.819-2.562,1.567-5.24,2.293-7.825c0.635-2.212,1.364-4.402,1.906-6.637
								c0.791-3.259,0.374-6.417-0.995-9.313c-0.071-0.116-0.118-0.325-0.166-0.533c0.186,0.045,0.279,0.068,0.372,0.09
								c3.869,1.53,6.131,6.023,5.137,10.12c-1.197,4.935-2.372,9.778-3.569,14.713c-0.226,0.931-0.359,1.885,0.228,2.718l0,0
								C859.528,261.311,859.971,261.517,860.53,261.652L860.53,261.652z M803.603,196.766c0.135-0.559,0.83-0.982,1.388-0.846
								c0.466,0.113,1.027,0.644,0.892,1.202c-0.384,1.583-0.745,3.073-1.13,4.656l-2.235-0.542
								C802.902,199.653,803.264,198.163,803.603,196.766z M798.085,218.697c1.117,0.271,1.964,1.66,1.6,2.755
								c-0.271,1.117-1.544,1.893-2.661,1.622s-1.893-1.544-1.6-2.755C795.694,219.202,796.967,218.426,798.085,218.697z
								 M785.004,192.55c0.068-0.279,0.136-0.559,0.367-0.7c0.299-0.42,0.926-0.564,1.276-0.381c0.536,0.229,0.796,0.785,0.66,1.343
								c-0.339,1.397-0.678,2.794-1.017,4.19c-0.023,0.093-0.023,0.093-0.161,0.257l-2.049-0.497
								c0.045-0.186-0.025-0.302,0.02-0.488C784.394,195.064,784.71,193.76,785.004,192.55z M793.382,240.925
								c-1.137,0.217-2.207,0.155-3.324-0.116c-3.539-0.858-7.17-1.74-10.709-2.598c-1.676-0.407-3.191-1.07-4.34-2.433
								c-1.687-1.987-2.099-4.355-1.466-6.962c1.694-6.984,3.411-14.061,5.106-21.045c0.045-0.186,0.09-0.372,0.136-0.559
								c0.248-1.024-0.268-1.741-1.131-2.246c-2.24-1.332-3.603-3.438-4.178-5.944c0.045-0.186-0.003-0.395,0.02-0.488
								c0,0,0.023-0.093,0.045-0.186l17.693,4.292c-0.09,0.372-0.181,0.745-0.271,1.117c-0.384,1.583-0.861,3.144-1.152,4.749
								c-0.421,2.955-0.354,5.929,0.202,8.923c0.53,2.692,1.407,5.173,2.818,7.487c1.67,2.87,3.941,5.295,6.882,6.994
								c0.257,0.161,0.327,0.277,0.26,0.556c-0.455,1.467-0.514,2.932-1.248,4.331C797.669,239.106,795.866,240.443,793.382,240.925
								z M853.546,243.294c-0.751,2.283-1.409,4.588-2.067,6.894c-0.909,2.935-1.725,5.892-2.634,8.827
								c-1,3.307-2.022,6.707-3.021,10.015c-0.59,2.026-1.273,4.03-1.864,6.056c-0.409,1.281-0.796,2.469-1.228,3.843l-8.567-2.078
								c-0.053-4.253,0.174-8.438,0.143-12.783c-0.279-0.068-0.443-0.206-0.629-0.251c-9.685-2.35-19.369-4.699-28.961-7.026
								c-0.745-0.181-0.768-0.088-1.112,0.519c-0.802,1.679-1.719,3.428-2.521,5.107c-0.779,1.586-1.581,3.265-2.36,4.851
								c-0.39,0.793-0.39,0.793-1.135,0.612c-2.421-0.587-4.749-1.152-7.077-1.717c-0.745-0.181-0.745-0.181-0.542-1.019
								c1.13-4.656,2.166-9.335,3.273-13.898c0.497-2.049,0.994-4.097,1.398-6.169c0.113-0.466,0.274-0.722,0.785-0.796
								c2.667-0.832,4.84-2.474,6.333-4.971c0.483-0.77,0.779-1.586,0.982-2.424c1.22-5.029,2.44-10.057,3.66-15.086
								c0.045-0.186,0.09-0.372,0.135-0.559c0.09-0.372,0.299-0.42,0.579-0.353c0.186,0.045,0.372,0.09,0.559,0.136
								c3.073,0.746,6.053,1.468,9.126,2.214l0,0l29.054,7.049l-0.023,0.093c1.49,0.361,2.887,0.7,4.377,1.062
								c0.466,0.113,0.793,0.39,0.982,0.83c0.471,0.903,0.872,1.691,1.365,2.5C854.086,237.411,854.571,240.289,853.546,243.294z"/>
							<path fill="#231F20" d="M788.121,246.436c-0.014-0.089-0.029-0.186-0.047-0.291 M788.073,246.145
								c-0.096-0.418-0.33-0.672-0.796-0.785l-0.093-0.023c-0.093-0.023-0.186-0.045-0.186-0.045l-1.024-0.249l-5.773-1.401
								c-0.093-0.023-0.279-0.068-0.372-0.09l-0.093-0.023l-0.372-0.09c-0.466-0.113-0.931-0.226-1.397-0.339l0,0l0,0
								c-0.093-0.023-0.093-0.023-0.186-0.045c-0.372-0.09-0.745-0.181-1.024-0.249l-0.722-0.274l-0.42-0.299
								c-4.43-2.061-6.896-5.716-7.141-10.804c-0.076-0.906,0.079-1.953,0.373-3.163c1.536-6.332,3.14-12.944,4.789-19.742
								c0.045-0.186,0.068-0.279,0.068-0.279s-0.093-0.023-0.164-0.138c-3.016-2.605-4.667-5.964-5.021-10.191
								c-0.099-0.813-0.082-1.696,0.029-2.557c0.11-0.861,0.593-1.631,1.287-2.054c0.694-0.423,1.623-0.592,2.461-0.389
								c1.862,0.452,3.725,0.904,5.587,1.355l1.676,0.407l0.09-0.372c0.249-1.024,0.497-2.049,0.723-2.98
								c0.655-2.701,2.803-4.644,5.427-4.895c2.021-0.2,3.908,0.554,5.22,2.055c1.219,1.479,1.743,3.381,1.385,5.266
								c-0.226,0.931-0.452,1.862-0.655,2.701c-0.068,0.279-0.136,0.559-0.226,0.931l6.612,1.604
								c0.09-0.372,0.181-0.745,0.271-1.117c0.248-1.024,0.497-2.049,0.839-3.05c0.68-2.399,3.156-4.066,5.712-4.037
								c3.231,0.094,5.852,2.702,5.967,5.885c0.051,0.604-0.085,1.163-0.172,1.93c-0.203,0.838-0.384,1.583-0.587,2.421
								c-0.068,0.279-0.136,0.559-0.181,0.745l2.701,0.655c1.49,0.361,2.98,0.723,4.47,1.084c0.931,0.226,1.702,0.709,2.125,1.403
								c0.423,0.694,0.499,1.6,0.18,2.509c-0.339,1.397-1.191,2.472-1.928,3.476c-1.75,2.336-3.923,3.978-6.426,4.949l7.077,1.717
								c7.17,1.74,14.247,3.456,21.418,5.196c6.612,1.604,12.199,2.959,17.857,4.431c5.937,1.539,10.226,6.622,10.687,12.847
								c0.127,1.51-0.071,3.138-0.43,5.023c-0.7,2.887-1.401,5.773-2.101,8.66c-0.429,1.769-0.881,3.632-1.31,5.401
								c-0.181,0.745-0.407,1.676-1.076,2.401l-2.896,1.368l0,0l0,0l-0.093-0.023c-0.559-0.136-1.281-0.409-1.936-0.963l-0.42-0.299
								l-0.025-0.302c-0.612-1.135-0.412-2.368-0.163-3.392c1.062-4.377,2.124-8.753,3.185-13.13l0.384-1.583
								c0.633-2.607-0.27-5.39-2.189-7.236c0.668,2.529,0.755,5.015,0.052,7.506c-0.384,1.583-0.861,3.144-1.316,4.611
								c-0.181,0.745-0.432,1.374-0.613,2.119l-0.771,2.771c-0.522,1.747-1.022,3.4-1.544,5.147
								c-0.432,1.374-0.841,2.655-1.273,4.03c-0.342,1.002-0.59,2.026-0.932,3.028c-0.181,0.745-0.455,1.467-0.635,2.212
								c-0.158,0.652-0.387,1.188-0.545,1.84c-0.432,1.374-0.841,2.655-1.18,4.052l-1.319,4.216
								c-0.432,1.374-0.887,2.842-1.225,4.238c-0.613,2.119-2.904,3.437-4.953,2.94c-3.725-0.904-7.357-1.785-11.081-2.688
								c-1.862-0.452-3.177-2.348-3.098-4.301c0.037-1.371,0.096-2.836,0.133-4.208l0.051-2.65c-0.005-0.79,0.06-1.465,0.054-2.255
								c-5.68-1.378-11.268-2.734-16.855-4.089l-4.935-1.197l-0.344,0.607c-0.55,1.05-1.101,2.099-1.581,3.265
								c-0.251,0.629-0.573,1.143-0.824,1.772c-0.435,0.979-0.94,1.843-1.375,2.822c-0.917,1.749-2.817,2.669-4.586,2.24
								c-1.956-0.474-3.818-0.926-5.68-1.378c-1.862-0.452-3.632-0.881-5.401-1.31c-2.235-0.542-3.552-2.834-2.965-5.255
								c0.203-0.838,0.429-1.769,0.539-2.63c0.226-0.931,0.429-1.769,0.562-2.723c0.384-1.583,0.675-3.189,0.966-4.794l1.415-7.052
								c0,0,0.203-0.838,0.294-1.211l0.023-0.093l0.045-0.186c0.039-0.159,0.026-0.402-0.054-0.917 M790.456,246.323
								c0.038,0.378,0.045,0.789-0.049,1.176c-0.023,0.093-0.045,0.186-0.09,0.372c-0.09,0.372-0.181,0.745-0.271,1.117
								c0.025,0.302,0.003,0.395-0.02,0.488l-1.347,6.772c-0.291,1.606-0.675,3.189-0.966,4.794
								c-0.226,0.931-0.429,1.769-0.562,2.723c-0.203,0.838-0.429,1.769-0.539,2.63c-0.271,1.117,0.364,2.159,1.272,2.478
								c3.445,0.836,7.077,1.717,11.081,2.688c0.745,0.181,1.625-0.197,2.015-0.99c0.435-0.979,0.94-1.843,1.375-2.822
								c0.251-0.629,0.596-1.236,0.824-1.772c0.55-1.05,1.101-2.099,1.581-3.265l0.985-2.029l0.79-0.005
								c0.093,0.023,0.302-0.025,0.488,0.02l5.587,1.355c5.773,1.401,11.454,2.779,17.227,4.179l0,0
								c0.931,0.226,1.448,0.943,1.408,1.919c-0.017,0.883-0.034,1.767-0.029,2.557l-0.051,2.65
								c-0.06,1.465-0.096,2.836-0.156,4.301c-0.017,0.883,0.547,1.809,1.385,2.012c3.725,0.904,7.357,1.785,11.081,2.688
								c0.838,0.203,1.88-0.431,2.199-1.34c0.432-1.374,0.887-2.842,1.225-4.238l1.319-4.216c0.432-1.374,0.841-2.655,1.18-4.052
								c0.158-0.652,0.387-1.188,0.545-1.84c0.181-0.745,0.455-1.467,0.635-2.212c0.342-1.002,0.59-2.026,0.932-3.028
								c0.432-1.374,0.841-2.655,1.273-4.03c0.522-1.747,1.022-3.4,1.544-5.147l0.771-2.771c0.181-0.745,0.432-1.374,0.613-2.119
								c0.455-1.467,0.932-3.028,1.293-4.518c0.678-2.794,0.402-5.72-0.896-8.5c-0.07-0.116-0.118-0.325-0.189-0.44l-0.781-2.063
								l2.094,0.311c0.093,0.023,0.279,0.068,0.466,0.113c4.312,1.736,7.02,6.83,5.89,11.486l-0.384,1.583
								c-1.062,4.377-2.124,8.753-3.185,13.13c-0.181,0.745-0.201,1.233-0.012,1.673c0.164,0.138,0.35,0.184,0.536,0.229l0.372,0.09
								l0.093,0.023c0,0,0,0,0.093,0.023l0.093,0.023c0.533-0.166,0.624-0.539,0.872-1.563c0.452-1.862,0.881-3.632,1.333-5.494
								c0.7-2.887,1.401-5.773,2.101-8.66c0.384-1.583,0.514-2.932,0.435-4.233c-0.431-5.133-4.017-9.454-8.93-10.745
								c-5.658-1.471-11.245-2.827-17.857-4.431c-7.17-1.74-14.247-3.456-21.418-5.196l-9.219-2.237l-0.279-0.068
								c-0.186-0.045-0.279-0.068-0.466-0.113c-0.186-0.045-0.257-0.161-0.443-0.206l-0.7-0.367l-0.028-0.697
								c-0.124-1.115,0.568-1.933,1.682-2.057c0.116-0.071,0.302-0.025,0.418-0.096c2.737-0.716,5.074-2.22,6.963-4.72
								c0.598-0.841,1.197-1.682,1.516-2.59c0.09-0.372,0.135-0.559-0.028-0.697c-0.07-0.116-0.327-0.277-0.607-0.344
								c-1.49-0.361-2.98-0.723-4.47-1.084L809,204.189c-0.186-0.045-0.372-0.09-0.559-0.136l-1.281-0.409l0.223-1.326
								c0.045-0.186,0.09-0.372,0.136-0.559c0.09-0.372,0.203-0.838,0.294-1.211c0.181-0.745,0.384-1.583,0.565-2.328
								c0.09-0.372,0.226-0.931,0.13-1.349c-0.082-1.696-1.419-3.499-3.744-3.669c-1.465-0.06-3.107,1.021-3.517,2.302
								c-0.319,0.909-0.568,1.933-0.816,2.957c-0.113,0.466-0.226,0.931-0.339,1.397c-0.045,0.186-0.09,0.372-0.229,0.536
								l-0.409,1.281l-10.895-2.643l0.474-1.956c0.09-0.372,0.203-0.838,0.294-1.211c0.203-0.838,0.429-1.769,0.633-2.607
								c0.294-1.211-0.017-2.37-0.883-3.271c-0.773-0.878-2.032-1.38-3.239-1.279c-1.603,0.104-2.896,1.368-3.302,3.044
								c-0.249,1.024-0.497,2.049-0.746,3.073l-0.158,0.652c-0.045,0.186-0.09,0.372-0.135,0.559l-0.409,1.281l-3.818-0.926
								c-1.862-0.452-3.725-0.904-5.587-1.355c-0.279-0.068-0.488-0.02-0.697,0.028c-0.116,0.071-0.183,0.35-0.229,0.536
								c-0.158,0.652-0.037,1.371,0.014,1.975c0.234,3.508,1.695,6.426,4.15,8.5c0.889,0.807,1.174,1.665,0.903,2.783
								c-1.649,6.798-3.253,13.409-4.789,19.742c-0.226,0.931-0.336,1.792-0.308,2.489c0.262,4.205,2.118,7.12,5.848,8.814
								c0.186,0.045,0.35,0.183,0.42,0.299l0,0c0,0,0,0,0.093,0.023l0.093,0.023c0.093,0.023,0.093,0.023,0.186,0.045
								c0.279,0.068,0.559,0.136,0.931,0.226c0,0,0.093,0.023,0.186,0.045c0.466,0.113,0.931,0.226,1.49,0.361l0.186,0.045
								c0.186,0.045,0.372,0.09,0.559,0.136l7.915,1.92l-0.023,0.093c0.886,0.412,1.473,1.245,1.713,2.289
								C790.358,245.654,790.42,245.974,790.456,246.323 M775.962,242.418C775.962,242.418,776.055,242.44,775.962,242.418
								L775.962,242.418z M806.846,222.006L806.846,222.006L806.846,222.006z M779.078,239.328c-2.142-0.52-3.705-1.392-4.924-2.871
								c-1.921-2.241-2.451-4.933-1.799-8.029c1.197-4.935,2.395-9.871,3.569-14.713l1.581-6.518
								c0.023-0.093,0.068-0.279,0.09-0.372c0.068-0.279,0.042-0.581-0.564-0.926c-2.404-1.471-3.93-3.714-4.695-6.661
								c-0.048-0.209-0.096-0.418-0.051-0.604c-0.025-0.302,0.042-0.581,0.158-0.652l0.412-0.886l0.954,0.133l18.81,4.563
								l-0.542,2.235c-0.113,0.466-0.249,1.024-0.361,1.49c-0.271,1.117-0.52,2.142-0.675,3.189
								c-0.446,2.653-0.357,5.534,0.221,8.435c0.46,2.577,1.337,5.057,2.606,7.14c1.741,2.986,3.8,5.063,6.391,6.579
								c1.12,0.666,0.894,1.597,0.827,1.877c-0.113,0.466-0.226,0.931-0.339,1.397c-0.248,1.024-0.404,2.071-0.954,3.121
								c-1.214,2.565-3.364,4.114-6.172,4.714c-1.137,0.217-2.323,0.225-3.812-0.136l-3.911-0.949
								C783.664,240.342,781.429,239.8,779.078,239.328L779.078,239.328z M775.038,199.893c0.663,1.738,1.718,3.079,3.281,3.951
								c1.797,1.126,1.831,2.613,1.628,3.452c-0.045,0.186-0.09,0.372-0.113,0.466l-1.559,6.425
								c-1.197,4.935-2.372,9.778-3.569,14.713c-0.542,2.235-0.133,4.208,1.227,5.918c0.844,0.993,2.057,1.682,3.733,2.089
								c2.235,0.542,4.563,1.107,6.798,1.649l3.911,0.949c1.117,0.271,2.001,0.288,2.813,0.19c2.066-0.386,3.615-1.489,4.485-3.448
								c0.39-0.793,0.593-1.631,0.726-2.585c0.068-0.279,0.158-0.652,0.226-0.931c-2.754-1.654-5.025-4.079-6.836-7.18
								c-1.411-2.314-2.336-5.004-2.914-7.905c-0.603-3.203-0.648-6.271-0.204-9.318c0.178-1.14,0.472-2.351,0.72-3.375
								c0.113-0.466,0.226-0.931,0.339-1.397l-14.713-3.569L775.038,199.893z M796.752,224.191L796.752,224.191
								c-0.838-0.203-1.586-0.779-2.08-1.589c-0.494-0.81-0.57-1.716-0.366-2.554c0.429-1.769,2.281-2.898,4.05-2.469l0,0
								c0.931,0.226,1.749,0.917,2.127,1.798c0.401,0.787,0.477,1.693,0.203,2.416C800.279,223.47,798.428,224.598,796.752,224.191z
								 M797.72,219.792c-0.466-0.113-1.044,0.24-1.18,0.798c-0.045,0.186-0.02,0.488,0.121,0.72
								c0.141,0.231,0.375,0.485,0.655,0.553c0.466,0.113,1.044-0.24,1.18-0.798l0.023-0.093c0.045-0.186-0.003-0.395-0.051-0.604
								C798.327,220.137,798,219.86,797.72,219.792L797.72,219.792z M786.766,198.696l-3.911-0.949l0.062-1.07
								c0.023-0.093-0.025-0.302,0.042-0.581c0.316-1.304,0.61-2.514,0.926-3.818c0.113-0.466,0.319-0.909,0.573-1.143
								c0.598-0.841,1.851-1.128,2.737-0.716c1.072,0.457,1.591,1.569,1.32,2.687c-0.271,1.117-0.542,2.235-0.791,3.259
								l-0.226,0.931c-0.068,0.279-0.206,0.443-0.229,0.536L786.766,198.696z M786.282,192.564L786.282,192.564L786.282,192.564
								L786.282,192.564z M805.599,203.167l-4.47-1.084l0.587-2.421c0.271-1.117,0.52-2.142,0.768-3.166
								c0.294-1.211,1.451-1.916,2.684-1.715c0.559,0.136,1.165,0.48,1.541,0.965c0.375,0.485,0.426,1.089,0.383,1.671
								c-0.271,1.117-0.542,2.235-0.813,3.352L805.599,203.167z"/>
							<path fill="#231F20" d="M795.423,220.319c0.246-1.419,1.682-2.057,2.8-1.786c1.304,0.316,2.057,1.682,1.741,2.986
								s-1.682,2.057-2.893,1.763C795.79,222.873,795.107,221.623,795.423,220.319z"/>
							<path fill="#231F20" d="M786.657,196.303c-1.024-0.249-2.049-0.497-3.073-0.746c0.045-0.186-0.003-0.395,0.042-0.581
								c0.384-1.583,0.271-1.117,0.678-2.794c0.09-0.372,0.274-0.722,0.435-0.979c0.415-0.491,1.343-0.66,1.88-0.431
								c0.793,0.39,1.309,1.106,1.106,1.945c-0.429,1.769-0.361,1.49-0.813,3.352C786.911,196.069,786.795,196.139,786.657,196.303z
								"/>
							<path fill="#231F20" d="M805.467,200.867c-1.024-0.249-2.049-0.497-3.073-0.746c0.045-0.186-0.003-0.395,0.042-0.581
								c0.384-1.583,0.271-1.117,0.678-2.794c0.09-0.372,0.274-0.722,0.435-0.979c0.415-0.491,1.343-0.66,1.88-0.431
								c0.815,0.296,1.216,1.084,1.035,1.829c-0.429,1.769-0.361,1.49-0.813,3.352C805.628,200.61,805.512,200.68,805.467,200.867z"
								/>
						</g>
					</g>
					<path fill="#231F20" d="M806.028,223.326l32.229,8.035l3.004-10.161c0,0-23.648-4.315-28.425-5.494
						c-0.859-0.212-1.594,0.157-1.715,0.128c-1.127,0.476-2.142,0.661-3.364,0.365L806.028,223.326z"/>
				</g>
			</g>
			<g>
				<path fill="#231F20" d="M799.879,252.671c-0.01,5.82-25.002,4.393-16.691-0.976c2.216-1.432,2.181-4.667,4.251-6.063
					c5.859-0.056,3.727,0.289,9.025-1.552C802.373,245.513,799.889,246.868,799.879,252.671z"/>
				<path fill="#231F20" stroke="#F8F2EA" stroke-width="0.4191" stroke-miterlimit="10" d="M786.237,245.242
					c0,0,5.128,1.64,11.869-1.925"/>
			</g>
		</g>
	</g>
	<g>
		<g>
			<path fill="#231F20" d="M611.34,307.867c-0.837,2.898-1.675,5.797-2.512,8.695c-2.259,7.818-4.517,15.637-6.775,23.455
				c-3.361,11.635-6.722,23.271-10.084,34.906c-4.073,14.099-8.146,28.198-12.219,42.297c-4.475,15.492-8.95,30.984-13.426,46.475
				c-4.517,15.638-9.035,31.275-13.552,46.913c-4.212,14.58-8.424,29.161-12.636,43.741c-3.559,12.32-7.118,24.641-10.677,36.962
				c-2.559,8.857-5.117,17.715-7.676,26.573c-1.209,4.186-2.55,8.35-3.633,12.576c-0.046,0.18-0.103,0.357-0.154,0.534
				c-0.687,2.379,1.682,5.068,4.113,5.597c2.861,0.623,4.944-1.097,5.633-3.483c0.837-2.898,1.674-5.797,2.512-8.695
				c2.259-7.818,4.517-15.636,6.775-23.455c3.361-11.635,6.722-23.271,10.084-34.906c4.073-14.099,8.146-28.198,12.219-42.297
				c4.475-15.492,8.95-30.983,13.426-46.475c4.517-15.638,9.035-31.275,13.552-46.913c4.212-14.58,8.424-29.161,12.636-43.741
				c3.559-12.32,7.118-24.641,10.677-36.961c2.559-8.858,5.117-17.715,7.676-26.573c1.209-4.186,2.55-8.35,3.633-12.576
				c0.046-0.18,0.103-0.356,0.154-0.534c0.687-2.379-1.682-5.068-4.112-5.597C614.112,303.761,612.029,305.481,611.34,307.867
				L611.34,307.867z"/>
		</g>
	</g>
</g>
<g>
	<g>
		<path fill="#343633" d="M884.487,335.235c-0.692,3.13-3.909,23.66,30.536,24.615c2.538,0.07,4.813-1.578,5.509-4.02
			l45.459-159.392c0.782-2.743-0.647-5.632-3.303-6.674l-17.419-6.834c-2.905-1.14-6.177,0.345-7.233,3.281l-53.355,148.352
			C884.602,334.786,884.538,335.005,884.487,335.235z"/>
		<path fill="#343633" d="M897.352,348.112c-20.343-27.856-70.867-47.677-151.324-49.294
			c-80.456-1.618-104.516-51.072-104.516-51.072l49.548-171.43c0,0,24.06,49.454,104.516,51.072
			c69.283,1.393,116.371,16.285,141.103,38.181c6.557,5.805,9.125,14.902,6.693,23.315L897.352,348.112z"/>
		<path opacity="0.4" fill="#231F20" d="M850.15,303.304c-26.521-12.081-55.369-16.951-83.442-23.988
			c-23.62-5.92-52.221-13.434-65.554-35.864c-6.289-10.58-9.396-23.369-11.774-35.332c-2.757-13.867-3.633-28.031-3.42-42.15
			c0.436-28.878-2.571-59.176,5.233-87.302c0.126-0.453,0.289-0.856,0.48-1.216c-0.413-0.73-0.612-1.136-0.612-1.136l-49.548,171.43
			c0,0,24.06,49.454,104.516,51.071c80.456,1.618,130.981,21.438,151.324,49.294l1.502-5.195
			C887.321,325.233,869.615,312.171,850.15,303.304z"/>
		<path opacity="0.4" fill="#231F20" d="M884.487,335.235c-0.692,3.13-3.909,23.66,30.536,24.615c2.538,0.07,4.813-1.578,5.509-4.02
			l45.459-159.392c0.782-2.743-0.647-5.632-3.303-6.674l-17.419-6.834c-2.905-1.14-6.177,0.345-7.233,3.281l-53.355,148.352
			C884.602,334.786,884.538,335.005,884.487,335.235z"/>
	</g>
	<g>
		<g>
			<path fill="#5E5F61" d="M684.219,68.611c-0.837,2.898-1.675,5.797-2.512,8.695c-2.258,7.818-4.517,15.637-6.775,23.455
				c-3.361,11.635-6.722,23.271-10.084,34.906c-4.073,14.099-8.146,28.198-12.219,42.297c-4.475,15.492-8.95,30.984-13.426,46.475
				c-4.517,15.638-9.035,31.275-13.552,46.913c-4.212,14.58-8.424,29.161-12.636,43.741c-3.559,12.32-7.118,24.641-10.677,36.962
				c-2.559,8.857-5.117,17.715-7.676,26.573c-1.209,4.186-2.55,8.35-3.633,12.576c-0.046,0.18-0.103,0.357-0.154,0.534
				c-0.687,2.379,1.682,5.068,4.112,5.597c2.861,0.623,4.944-1.097,5.633-3.483c0.837-2.898,1.674-5.797,2.512-8.695
				c2.259-7.818,4.517-15.636,6.776-23.455c3.361-11.635,6.722-23.271,10.084-34.906c4.073-14.099,8.146-28.198,12.219-42.297
				c4.475-15.492,8.95-30.983,13.426-46.475c4.517-15.638,9.035-31.275,13.552-46.913c4.212-14.58,8.424-29.161,12.636-43.741
				c3.559-12.32,7.118-24.641,10.677-36.961c2.559-8.858,5.117-17.715,7.676-26.573c1.209-4.186,2.55-8.35,3.633-12.576
				c0.046-0.18,0.103-0.356,0.154-0.534c0.687-2.379-1.682-5.068-4.112-5.597C686.992,64.505,684.909,66.225,684.219,68.611
				L684.219,68.611z"/>
		</g>
	</g>
	<g>
		<g>
			<path fill="#5E5F61" d="M615.888,304.155c-0.837,2.898-1.675,5.797-2.512,8.695c-2.259,7.818-4.517,15.637-6.775,23.455
				c-3.361,11.635-6.722,23.271-10.084,34.906c-4.073,14.099-8.146,28.198-12.219,42.297c-4.475,15.492-8.95,30.984-13.425,46.475
				c-4.517,15.638-9.035,31.275-13.552,46.913c-4.212,14.58-8.424,29.161-12.636,43.741c-3.559,12.32-7.118,24.641-10.677,36.962
				c-2.559,8.857-5.117,17.715-7.676,26.573c-1.209,4.186-2.55,8.35-3.633,12.576c-0.046,0.18-0.103,0.357-0.154,0.534
				c-0.687,2.379,1.682,5.068,4.112,5.597c2.861,0.623,4.944-1.097,5.633-3.483c0.837-2.898,1.674-5.797,2.512-8.695
				c2.259-7.818,4.517-15.636,6.776-23.455c3.361-11.635,6.722-23.271,10.084-34.906c4.073-14.099,8.146-28.198,12.219-42.297
				c4.475-15.492,8.95-30.983,13.426-46.475c4.517-15.638,9.035-31.275,13.552-46.913c4.212-14.58,8.424-29.161,12.636-43.741
				c3.559-12.32,7.118-24.641,10.677-36.961c2.559-8.858,5.117-17.715,7.676-26.573c1.209-4.186,2.55-8.35,3.633-12.576
				c0.046-0.18,0.103-0.356,0.154-0.534c0.687-2.379-1.682-5.068-4.112-5.597C618.66,300.049,616.577,301.769,615.888,304.155
				L615.888,304.155z"/>
		</g>
	</g>
</g>
<g opacity="0.15">
	<g>
		<path fill="#231F20" d="M200.061,339.911c0.692,3.13,3.909,23.66-30.536,24.615c-2.538,0.07-4.813-1.578-5.509-4.02
			l-45.459-159.392c-0.782-2.743,0.647-5.632,3.303-6.674l17.419-6.834c2.905-1.14,6.177,0.345,7.233,3.281l53.355,148.352
			C199.946,339.462,200.011,339.681,200.061,339.911z"/>
		<path opacity="0.6" fill="#231F20" d="M200.061,339.911c0.692,3.13,3.909,23.66-30.536,24.615c-2.538,0.07-4.813-1.578-5.509-4.02
			l-45.459-159.392c-0.782-2.743,0.647-5.632,3.303-6.674l17.419-6.834c2.905-1.14,6.177,0.345,7.233,3.281l53.355,148.352
			C199.946,339.462,200.011,339.681,200.061,339.911z"/>
		<path fill="#231F20" d="M187.196,352.788c20.343-27.856,70.867-47.677,151.324-49.294c80.456-1.618,104.516-51.072,104.516-51.072
			l-49.548-171.43c0,0-24.06,49.454-104.516,51.072c-69.283,1.393-116.371,16.285-141.103,38.181
			c-6.557,5.805-9.125,14.902-6.693,23.315L187.196,352.788z"/>
		<path opacity="0.6" fill="#231F20" d="M234.399,307.98c26.521-12.081,55.369-16.951,83.442-23.988
			c23.62-5.92,52.221-13.434,65.554-35.864c6.289-10.58,9.396-23.369,11.774-35.332c2.757-13.867,3.634-28.031,3.42-42.15
			c-0.436-28.878,2.571-59.176-5.233-87.302c-0.126-0.453-0.289-0.856-0.48-1.216c0.413-0.73,0.612-1.136,0.612-1.136l49.548,171.43
			c0,0-24.06,49.454-104.516,51.071c-80.456,1.618-130.981,21.438-151.324,49.294l-1.502-5.195
			C197.227,329.909,214.933,316.847,234.399,307.98z"/>
	</g>
	<g>
		<g>
			<path fill="#231F20" d="M400.329,73.287c0.837,2.898,1.675,5.797,2.512,8.695c2.259,7.818,4.517,15.637,6.775,23.455
				c3.361,11.636,6.722,23.271,10.084,34.906c4.073,14.099,8.146,28.198,12.219,42.297c4.475,15.492,8.95,30.984,13.426,46.475
				c4.517,15.638,9.035,31.275,13.552,46.913c4.212,14.58,8.424,29.161,12.636,43.741c3.559,12.32,7.118,24.641,10.677,36.962
				c2.559,8.858,5.117,17.715,7.676,26.573c1.209,4.186,2.55,8.35,3.633,12.576c0.046,0.18,0.103,0.357,0.154,0.534
				c0.687,2.379-1.682,5.068-4.113,5.597c-2.861,0.623-4.944-1.097-5.633-3.483c-0.837-2.898-1.674-5.797-2.512-8.695
				c-2.259-7.818-4.517-15.636-6.775-23.455c-3.361-11.635-6.722-23.271-10.084-34.906c-4.073-14.099-8.146-28.198-12.219-42.297
				c-4.475-15.492-8.95-30.983-13.426-46.475c-4.517-15.638-9.035-31.275-13.552-46.913c-4.212-14.58-8.424-29.161-12.636-43.741
				c-3.559-12.32-7.118-24.641-10.677-36.961c-2.559-8.858-5.117-17.715-7.676-26.573c-1.209-4.186-2.55-8.35-3.633-12.576
				c-0.046-0.18-0.103-0.356-0.154-0.534c-0.687-2.379,1.682-5.068,4.112-5.597C397.557,69.181,399.64,70.901,400.329,73.287
				L400.329,73.287z"/>
		</g>
	</g>
	<g>
		<circle fill="#231F20" cx="290.773" cy="217.989" r="58.816"/>
		<circle fill="#231F20" cx="290.773" cy="217.989" r="51.215"/>
		<g>
			<g>
				<defs>
					<circle id="SVGID_5_" cx="289.751" cy="213.777" r="43.338"/>
				</defs>
				<use xlink:href="#SVGID_5_"  overflow="visible" fill="#231F20"/>
				<clipPath id="SVGID_6_">
					<use xlink:href="#SVGID_5_"  overflow="visible"/>
				</clipPath>
				<g clip-path="url(#SVGID_6_)">
					<g>
						<defs>
							
								<rect id="SVGID_7_" x="211.507" y="195.124" transform="matrix(0.9718 -0.2358 0.2358 0.9718 -48.2293 69.2922)" width="108.279" height="82.407"/>
						</defs>
						<use xlink:href="#SVGID_7_"  overflow="visible" fill="#231F20"/>
						<clipPath id="SVGID_8_">
							<use xlink:href="#SVGID_7_"  overflow="visible"/>
						</clipPath>
						<g clip-path="url(#SVGID_8_)">
							<path fill="#231F20" d="M306.505,199.497c0.023,0.093-0.025,0.302-0.003,0.395c-0.575,2.506-1.938,4.611-4.178,5.944
								c-0.863,0.505-1.38,1.222-1.131,2.246c0.045,0.186,0.09,0.372,0.136,0.559c1.694,6.984,3.411,14.061,5.106,21.045
								c0.633,2.607,0.221,4.975-1.466,6.962c-1.148,1.363-2.664,2.027-4.34,2.433c-3.539,0.858-7.17,1.74-10.709,2.598
								c-1.117,0.271-2.187,0.333-3.324,0.116c-2.368-0.412-4.171-1.749-5.317-4.035c-0.734-1.4-0.793-2.864-1.248-4.331
								c-0.068-0.279,0.003-0.395,0.26-0.556c2.94-1.699,5.211-4.124,6.882-6.994c1.411-2.314,2.288-4.795,2.818-7.487
								c0.555-2.994,0.623-5.969,0.202-8.923c-0.291-1.606-0.768-3.166-1.152-4.749c-0.09-0.372-0.181-0.745-0.271-1.117
								c5.96-1.446,11.826-2.869,17.693-4.292C306.483,199.404,306.505,199.497,306.505,199.497z M297.119,215.677
								c-1.281,0.409-2.057,1.682-1.741,2.986c0.316,1.304,1.682,2.057,2.893,1.763c1.304-0.316,1.986-1.567,1.67-2.87
								C299.696,216.137,298.259,215.499,297.119,215.677z"/>
							<path fill="#231F20" d="M280.386,222.3c0.271,1.117,1.544,1.893,2.661,1.622c1.117-0.271,1.893-1.544,1.6-2.755
								c-0.271-1.117-1.544-1.893-2.661-1.622C280.798,219.933,279.952,221.321,280.386,222.3z"/>
							<path fill="#231F20" d="M299.942,217.556c-0.246-1.419-1.682-2.057-2.8-1.786c-1.304,0.316-2.057,1.682-1.741,2.986
								c0.316,1.304,1.682,2.057,2.893,1.763C299.575,220.11,300.258,218.86,299.942,217.556z"/>
							<path fill="#231F20" d="M219.47,262.617c0.559-0.136,1.002-0.342,1.679-0.802l0,0c0.587-0.833,0.454-1.786,0.228-2.718
								c-1.197-4.935-2.372-9.778-3.569-14.713c-0.994-4.097,1.268-8.59,5.137-10.12c0.093-0.023,0.186-0.045,0.372-0.09
								c-0.048,0.209-0.096,0.418-0.166,0.533c-1.368,2.896-1.785,6.053-0.995,9.313c0.542,2.235,1.271,4.425,1.906,6.637
								c0.726,2.585,1.474,5.263,2.293,7.825c0.68,2.399,1.432,4.681,2.112,7.08c0.432,1.374,0.748,2.678,1.18,4.052
								c0.68,2.399,1.432,4.681,2.089,6.987c0.568,1.933,1.113,3.773,1.657,5.613c0.477,1.56,2.097,2.548,3.587,2.186
								c3.725-0.904,7.357-1.785,11.081-2.688c1.281-0.409,2.221-1.821,2.184-3.192c-0.009-2.069-0.133-4.208-0.142-6.276
								c-0.085-1.163-0.054-2.255-0.116-3.324c0.003-0.395,0.051-0.604,0.516-0.717c7.636-1.853,15.179-3.682,22.815-5.535
								c0.093-0.023,0.116,0.071,0.302,0.025c0.779,1.586,1.536,3.078,2.315,4.664c0.663,1.515,1.443,3.101,2.199,4.594
								c0.596,1.236,1.939,1.896,3.243,1.58c3.725-0.904,7.357-1.785,11.081-2.688c1.56-0.477,2.455-2.075,2.119-3.866
								c-0.429-1.769-0.858-3.539-1.195-5.33c-0.472-2.351-0.943-4.701-1.415-7.052c-0.268-1.513-0.652-3.096-0.921-4.608
								c-0.023-0.093-0.023-0.093-0.045-0.186c-0.09-0.372-0.203-0.838-0.294-1.211c-0.023-0.093-0.023-0.093-0.045-0.186
								c-0.136-0.559,0.008-1.185,0.082-1.696c0.285-0.858,0.731-1.459,1.662-1.685l0,0c0.093-0.023,0.186-0.045,0.279-0.068l0,0
								l6.798-1.649c0.186-0.045,0.279-0.068,0.466-0.113c0.559-0.136,1.117-0.271,1.676-0.407c0.093-0.023,0.186-0.045,0.279-0.068
								c0.372-0.09,0.652-0.158,1.024-0.249c0.093-0.023,0.186-0.045,0.279-0.068l0,0c-0.023-0.093,0.071-0.116,0.164-0.138
								c0.093-0.023,0.186-0.045,0.186-0.045l0.093-0.023c0.093-0.023,0.164-0.138,0.257-0.161c4.08-1.877,6.219-5.256,6.483-9.855
								c0.076-0.906-0.057-1.86-0.283-2.791c-1.604-6.612-3.185-13.13-4.789-19.742c-0.181-0.745-0.062-1.07,0.499-1.6
								c2.853-2.467,4.339-5.687,4.621-9.404c0.028-0.697,0.034-1.487-0.054-2.255c-0.201-1.233-1.126-1.797-2.337-1.504
								c-2.537,0.517-5.051,1.127-7.565,1.737c-0.279,0.068-0.559,0.136-0.838,0.203c-0.068-0.279-0.113-0.466-0.181-0.745
								c-0.294-1.211-0.587-2.421-0.881-3.632c-0.52-2.142-2.298-3.781-4.411-3.958c-3.53-0.327-6.039,2.747-5.364,5.936
								c0.316,1.304,0.633,2.607,0.949,3.911c0.068,0.279,0.136,0.559,0.203,0.838l-8.846,2.146
								c-0.045-0.186-0.113-0.466-0.181-0.745c-0.361-1.49-0.723-2.98-1.178-4.447c-0.545-1.84-2.65-3.202-4.603-3.123
								c-2.836,0.096-4.78,2.244-4.867,4.73c0.02,0.488,0.062,1.07,0.198,1.628c0.271,1.117,0.565,2.328,0.858,3.539
								c0.068,0.279,0.113,0.466,0.181,0.745c-0.279,0.068-0.466,0.113-0.745,0.181c-2.492,0.703-5.006,1.313-7.52,1.923
								c-1.304,0.316-1.775,1.219-1.459,2.523c0.364,1.095,1.008,2.122,1.722,3.033c1.911,2.593,4.431,4.447,7.564,5.166
								c0.209,0.048,0.302,0.025,0.511,0.073c0.511,0.073,0.765,0.307,0.692,0.818c-0.186,0.045-0.257,0.161-0.443,0.206
								c-0.093,0.023-0.279,0.068-0.372,0.09c-10.128,2.556-20.371,5.041-30.614,7.526c-5.96,1.446-11.919,2.892-17.857,4.431
								c-5.587,1.355-9.433,6.232-9.866,11.761c-0.104,1.603,0.071,3.138,0.433,4.628c1.13,4.656,2.282,9.405,3.411,14.061
								c0.249,1.024,0.404,2.071,1.586,2.475l0,0c0.116,0.071,0.116,0.071,0.231,0.141c0.093-0.023,0.302,0.025,0.395,0.003
								S219.284,262.662,219.47,262.617C219.377,262.639,219.377,262.639,219.47,262.617L219.47,262.617L219.47,262.617z
								 M277.482,202.2l-2.235,0.542c-0.384-1.583-0.746-3.073-1.13-4.656c-0.136-0.559,0.426-1.089,0.892-1.202
								c0.559-0.136,1.253,0.288,1.389,0.846C276.736,199.127,277.098,200.617,277.482,202.2z M284.577,221.284
								c0.294,1.211-0.482,2.483-1.6,2.755c-1.117,0.271-2.39-0.505-2.661-1.622c-0.364-1.095,0.482-2.483,1.6-2.755
								C283.033,219.39,284.306,220.166,284.577,221.284z M295.9,197.239c0.045,0.186-0.025,0.302,0.02,0.488l-2.049,0.497
								c-0.138-0.164-0.138-0.164-0.161-0.257c-0.339-1.397-0.678-2.794-1.017-4.19c-0.136-0.559,0.124-1.115,0.66-1.343
								c0.35-0.183,0.976-0.04,1.276,0.381c0.231,0.141,0.299,0.42,0.367,0.7C295.29,194.724,295.606,196.028,295.9,197.239z
								 M281.278,237.762c-0.734-1.4-0.793-2.864-1.248-4.331c-0.068-0.279,0.003-0.395,0.26-0.556
								c2.94-1.699,5.211-4.124,6.882-6.994c1.411-2.314,2.288-4.795,2.818-7.487c0.555-2.994,0.623-5.969,0.202-8.923
								c-0.291-1.606-0.768-3.166-1.152-4.749c-0.09-0.372-0.181-0.745-0.271-1.117l17.693-4.292
								c0.023,0.093,0.045,0.186,0.045,0.186c0.023,0.093-0.025,0.302,0.02,0.488c-0.575,2.506-1.938,4.611-4.178,5.944
								c-0.863,0.505-1.38,1.222-1.131,2.246c0.045,0.186,0.09,0.372,0.136,0.559c1.694,6.984,3.411,14.061,5.106,21.045
								c0.633,2.607,0.221,4.975-1.466,6.962c-1.148,1.363-2.664,2.027-4.34,2.433c-3.539,0.858-7.17,1.74-10.709,2.598
								c-1.117,0.271-2.187,0.333-3.324,0.116C284.134,241.407,282.331,240.07,281.278,237.762z M227.443,235.736
								c0.494-0.81,0.894-1.597,1.365-2.5c0.189-0.44,0.516-0.717,0.982-0.83c1.49-0.361,2.887-0.7,4.377-1.062l-0.023-0.093
								l29.054-7.049l0,0c3.073-0.746,6.053-1.468,9.126-2.214c0.186-0.045,0.372-0.09,0.559-0.136
								c0.279-0.068,0.488-0.02,0.579,0.353c0.045,0.186,0.09,0.372,0.136,0.559c1.22,5.029,2.44,10.057,3.66,15.086
								c0.203,0.838,0.5,1.654,0.982,2.424c1.493,2.497,3.666,4.139,6.333,4.971c0.511,0.073,0.672,0.33,0.785,0.796
								c0.404,2.071,0.901,4.12,1.398,6.169c1.107,4.563,2.143,9.242,3.273,13.898c0.203,0.838,0.203,0.838-0.542,1.019
								c-2.328,0.565-4.656,1.13-7.077,1.717c-0.745,0.181-0.745,0.181-1.135-0.612c-0.779-1.586-1.581-3.265-2.36-4.851
								c-0.802-1.679-1.719-3.428-2.521-5.107c-0.344-0.607-0.367-0.7-1.112-0.519c-9.591,2.327-19.276,4.676-28.961,7.026
								c-0.186,0.045-0.35,0.183-0.629,0.251c-0.03,4.346,0.196,8.531,0.143,12.783l-8.567,2.078
								c-0.432-1.374-0.819-2.562-1.228-3.843c-0.59-2.026-1.273-4.03-1.864-6.056c-1-3.307-2.022-6.707-3.021-10.015
								c-0.909-2.935-1.725-5.892-2.634-8.827c-0.658-2.305-1.316-4.611-2.067-6.894
								C225.429,241.253,225.914,238.375,227.443,235.736z"/>
							<path fill="#231F20" d="M291.927,247.109c-0.018,0.106-0.034,0.203-0.047,0.291 M291.879,247.4
								c-0.08,0.515-0.093,0.758-0.054,0.917l0.045,0.186l0.023,0.093c0.09,0.372,0.294,1.211,0.294,1.211l1.415,7.052
								c0.291,1.606,0.582,3.211,0.966,4.794c0.133,0.954,0.336,1.792,0.562,2.723c0.11,0.861,0.336,1.792,0.539,2.63
								c0.587,2.421-0.73,4.713-2.965,5.255c-1.769,0.429-3.539,0.858-5.401,1.31c-1.862,0.452-3.725,0.904-5.68,1.378
								c-1.769,0.429-3.669-0.49-4.586-2.24c-0.435-0.979-0.94-1.843-1.375-2.822c-0.251-0.629-0.573-1.143-0.824-1.772
								c-0.48-1.165-1.03-2.215-1.581-3.265l-0.344-0.607l-4.935,1.197c-5.587,1.355-11.174,2.711-16.855,4.089
								c-0.006,0.79,0.06,1.465,0.054,2.255l0.051,2.65c0.037,1.371,0.096,2.836,0.133,4.208c0.079,1.953-1.235,3.849-3.098,4.301
								c-3.725,0.904-7.357,1.785-11.081,2.688c-2.049,0.497-4.34-0.82-4.953-2.94c-0.339-1.397-0.793-2.864-1.225-4.238
								l-1.319-4.216c-0.339-1.397-0.748-2.678-1.18-4.052c-0.158-0.652-0.387-1.188-0.545-1.84
								c-0.181-0.745-0.455-1.467-0.635-2.212c-0.342-1.002-0.59-2.026-0.932-3.028c-0.432-1.374-0.841-2.655-1.273-4.03
								c-0.522-1.747-1.022-3.4-1.544-5.147l-0.771-2.771c-0.181-0.745-0.432-1.374-0.613-2.119
								c-0.455-1.467-0.932-3.028-1.316-4.611c-0.703-2.492-0.616-4.978,0.052-7.506c-1.919,1.846-2.821,4.628-2.189,7.236
								l0.384,1.583c1.062,4.377,2.124,8.753,3.185,13.13c0.249,1.024,0.449,2.257-0.163,3.392l-0.025,0.302l-0.42,0.299
								c-0.655,0.553-1.377,0.827-1.936,0.963l-0.093,0.023l0,0l0,0l-2.896-1.368c-0.669-0.725-0.895-1.656-1.076-2.401
								c-0.429-1.769-0.881-3.632-1.31-5.401c-0.7-2.887-1.401-5.773-2.101-8.66c-0.359-1.885-0.557-3.513-0.43-5.023
								c0.462-6.225,4.75-11.308,10.687-12.847c5.658-1.471,11.245-2.827,17.857-4.431c7.17-1.74,14.247-3.456,21.418-5.196
								l7.077-1.717c-2.503-0.97-4.676-2.612-6.426-4.949c-0.737-1.004-1.589-2.08-1.928-3.476c-0.319-0.909-0.243-1.814,0.18-2.509
								c0.423-0.694,1.194-1.177,2.125-1.403c1.49-0.361,2.98-0.723,4.47-1.084l2.701-0.655c-0.045-0.186-0.113-0.466-0.181-0.745
								c-0.203-0.838-0.384-1.583-0.587-2.421c-0.088-0.768-0.223-1.326-0.172-1.93c0.115-3.183,2.736-5.791,5.967-5.885
								c2.557-0.029,5.032,1.639,5.712,4.037c0.342,1.002,0.59,2.026,0.839,3.05c0.09,0.372,0.181,0.745,0.271,1.117l6.612-1.604
								c-0.09-0.372-0.158-0.652-0.226-0.931c-0.203-0.838-0.429-1.769-0.655-2.701c-0.359-1.885,0.166-3.787,1.385-5.266
								c1.312-1.501,3.2-2.255,5.22-2.055c2.624,0.251,4.772,2.195,5.427,4.895c0.226,0.931,0.474,1.956,0.723,2.98l0.09,0.372
								l1.676-0.407c1.862-0.452,3.725-0.904,5.587-1.355c0.838-0.203,1.767-0.034,2.461,0.389c0.694,0.423,1.177,1.193,1.287,2.054
								c0.11,0.861,0.127,1.744,0.029,2.557c-0.355,4.227-2.005,7.586-5.021,10.191c-0.071,0.116-0.164,0.138-0.164,0.138
								s0.023,0.093,0.068,0.279c1.649,6.798,3.253,13.409,4.789,19.742c0.294,1.211,0.449,2.257,0.373,3.163
								c-0.245,5.088-2.71,8.743-7.141,10.804l-0.42,0.299l-0.722,0.274c-0.279,0.068-0.652,0.158-1.024,0.249
								c-0.093,0.023-0.093,0.023-0.186,0.045l0,0l0,0c-0.466,0.113-0.931,0.226-1.397,0.339l-0.372,0.09l-0.093,0.023
								c-0.093,0.023-0.279,0.068-0.372,0.09l-5.773,1.401l-1.024,0.249c0,0-0.093,0.023-0.186,0.045l-0.093,0.023
								c-0.466,0.113-0.7,0.367-0.796,0.785 M289.544,247.287c0.035-0.349,0.098-0.669,0.133-0.915
								c0.24-1.044,0.827-1.877,1.713-2.289l-0.023-0.093l7.915-1.92c0.186-0.045,0.372-0.09,0.559-0.136l0.186-0.045
								c0.559-0.136,1.024-0.249,1.49-0.361c0.093-0.023,0.186-0.045,0.186-0.045c0.372-0.09,0.652-0.158,0.931-0.226
								c0.093-0.023,0.093-0.023,0.186-0.045l0.093-0.023c0.093-0.023,0.093-0.023,0.093-0.023l0,0
								c0.071-0.116,0.234-0.254,0.42-0.299c3.73-1.694,5.587-4.609,5.848-8.814c0.028-0.697-0.082-1.558-0.308-2.489
								c-1.536-6.332-3.14-12.944-4.789-19.742c-0.271-1.117,0.014-1.975,0.903-2.783c2.455-2.075,3.916-4.993,4.15-8.5
								c0.051-0.604,0.172-1.324,0.014-1.975c-0.045-0.186-0.113-0.466-0.229-0.536c-0.209-0.048-0.418-0.096-0.697-0.028
								c-1.862,0.452-3.725,0.904-5.587,1.355l-3.818,0.926l-0.409-1.281c-0.045-0.186-0.09-0.372-0.136-0.559l-0.158-0.652
								c-0.249-1.024-0.497-2.049-0.746-3.073c-0.407-1.676-1.699-2.94-3.302-3.044c-1.208-0.101-2.466,0.401-3.239,1.279
								c-0.866,0.9-1.176,2.06-0.883,3.271c0.203,0.838,0.429,1.769,0.633,2.607c0.09,0.372,0.203,0.838,0.294,1.211l0.474,1.956
								l-10.895,2.643l-0.409-1.281c-0.138-0.164-0.184-0.35-0.229-0.536c-0.113-0.466-0.226-0.931-0.339-1.397
								c-0.249-1.024-0.497-2.049-0.816-2.957c-0.409-1.281-2.052-2.362-3.517-2.302c-2.325,0.17-3.663,1.973-3.744,3.669
								c-0.096,0.418,0.04,0.976,0.13,1.349c0.181,0.745,0.384,1.583,0.565,2.328c0.09,0.372,0.203,0.838,0.294,1.211
								c0.045,0.186,0.09,0.372,0.136,0.559l0.223,1.326l-1.281,0.409c-0.186,0.045-0.372,0.09-0.559,0.136l-3.073,0.746
								c-1.49,0.361-2.98,0.723-4.47,1.084c-0.279,0.068-0.536,0.229-0.607,0.344c-0.164,0.138-0.118,0.325-0.028,0.697
								c0.319,0.909,0.917,1.749,1.516,2.59c1.888,2.5,4.225,4.004,6.963,4.72c0.116,0.071,0.302,0.025,0.418,0.096
								c1.115,0.124,1.806,0.942,1.682,2.057l-0.028,0.697l-0.7,0.367c-0.186,0.045-0.257,0.161-0.443,0.206
								c-0.186,0.045-0.279,0.068-0.466,0.113l-0.279,0.068l-9.219,2.237c-7.17,1.74-14.247,3.456-21.418,5.196
								c-6.612,1.604-12.199,2.959-17.857,4.431c-4.913,1.29-8.499,5.612-8.93,10.745c-0.079,1.301,0.051,2.65,0.435,4.233
								c0.7,2.887,1.401,5.773,2.101,8.66c0.452,1.862,0.881,3.632,1.333,5.494c0.249,1.024,0.339,1.397,0.872,1.563l0.093-0.023
								c0.093-0.023,0.093-0.023,0.093-0.023l0.093-0.023l0.372-0.09c0.186-0.045,0.372-0.09,0.536-0.229
								c0.189-0.44,0.169-0.928-0.012-1.673c-1.062-4.377-2.124-8.753-3.185-13.13l-0.384-1.583c-1.13-4.656,1.579-9.75,5.89-11.486
								c0.186-0.045,0.372-0.09,0.466-0.113l2.094-0.311l-0.781,2.063c-0.071,0.116-0.118,0.325-0.189,0.44
								c-1.298,2.78-1.574,5.706-0.896,8.5c0.361,1.49,0.839,3.05,1.293,4.518c0.181,0.745,0.432,1.374,0.613,2.119l0.771,2.771
								c0.522,1.747,1.022,3.4,1.544,5.147c0.432,1.374,0.841,2.655,1.273,4.03c0.342,1.002,0.59,2.026,0.932,3.028
								c0.181,0.745,0.455,1.467,0.635,2.212c0.158,0.652,0.387,1.188,0.545,1.84c0.339,1.397,0.748,2.678,1.18,4.052l1.319,4.216
								c0.339,1.397,0.793,2.864,1.225,4.238c0.319,0.909,1.36,1.543,2.199,1.34c3.725-0.904,7.357-1.785,11.081-2.688
								c0.838-0.203,1.402-1.129,1.385-2.012c-0.06-1.465-0.096-2.836-0.156-4.301l-0.051-2.65c0.006-0.79-0.012-1.673-0.029-2.557
								c-0.04-0.976,0.477-1.693,1.408-1.919l0,0c5.773-1.401,11.454-2.779,17.227-4.179l5.587-1.355
								c0.186-0.045,0.395,0.003,0.488-0.02l0.79,0.005l0.985,2.029c0.48,1.165,1.03,2.215,1.581,3.265
								c0.229,0.536,0.573,1.143,0.824,1.772c0.435,0.979,0.94,1.843,1.375,2.822c0.39,0.793,1.27,1.171,2.015,0.99
								c4.004-0.971,7.636-1.852,11.081-2.688c0.909-0.319,1.543-1.36,1.272-2.478c-0.11-0.861-0.336-1.792-0.539-2.63
								c-0.133-0.954-0.336-1.792-0.562-2.723c-0.291-1.606-0.675-3.189-0.966-4.794l-1.347-6.772
								c-0.023-0.093-0.045-0.186-0.02-0.488c-0.09-0.372-0.181-0.745-0.271-1.117c-0.045-0.186-0.068-0.279-0.09-0.372
								C289.499,248.077,289.506,247.665,289.544,247.287 M304.038,243.382C303.945,243.404,304.038,243.382,304.038,243.382
								L304.038,243.382z M273.154,222.97L273.154,222.97L273.154,222.97z M300.922,240.292c-2.351,0.472-4.586,1.014-6.82,1.556
								l-3.911,0.949c-1.49,0.361-2.675,0.353-3.812,0.136c-2.808-0.601-4.959-2.15-6.172-4.714c-0.55-1.05-0.706-2.097-0.954-3.121
								c-0.113-0.466-0.226-0.931-0.339-1.397c-0.068-0.279-0.294-1.211,0.827-1.877c2.59-1.516,4.65-3.593,6.391-6.579
								c1.27-2.083,2.147-4.563,2.606-7.14c0.578-2.901,0.668-5.782,0.221-8.435c-0.155-1.047-0.404-2.071-0.675-3.189
								c-0.113-0.466-0.249-1.024-0.361-1.49l-0.542-2.235l18.81-4.563l0.954-0.133l0.412,0.886c0.116,0.071,0.184,0.35,0.158,0.652
								c0.045,0.186-0.003,0.395-0.051,0.604c-0.764,2.946-2.291,5.19-4.695,6.661c-0.607,0.344-0.632,0.646-0.564,0.926
								c0.023,0.093,0.068,0.279,0.09,0.372l1.581,6.518c1.175,4.842,2.372,9.778,3.569,14.713c0.652,3.096,0.122,5.788-1.799,8.029
								C304.627,238.901,303.064,239.773,300.922,240.292L300.922,240.292z M304.984,200.951l-14.713,3.569
								c0.113,0.466,0.226,0.931,0.339,1.397c0.249,1.024,0.542,2.235,0.72,3.375c0.444,3.048,0.399,6.115-0.204,9.318
								c-0.578,2.901-1.503,5.591-2.914,7.905c-1.811,3.102-4.082,5.526-6.836,7.18c0.068,0.279,0.158,0.652,0.226,0.931
								c0.133,0.954,0.336,1.792,0.726,2.585c0.87,1.958,2.419,3.061,4.485,3.448c0.813,0.099,1.696,0.082,2.813-0.19l3.911-0.949
								c2.235-0.542,4.563-1.107,6.798-1.649c1.676-0.407,2.889-1.095,3.733-2.089c1.36-1.71,1.769-3.683,1.227-5.918
								c-1.197-4.935-2.372-9.778-3.569-14.713l-1.559-6.425c-0.023-0.093-0.068-0.279-0.113-0.466
								c-0.203-0.838-0.17-2.325,1.628-3.452c1.563-0.872,2.618-2.213,3.281-3.951L304.984,200.951z M279.314,222.758
								c-0.274-0.722-0.198-1.628,0.203-2.416c0.378-0.881,1.196-1.572,2.127-1.798l0,0c1.769-0.429,3.621,0.699,4.05,2.469
								c0.203,0.838,0.127,1.744-0.366,2.554s-1.241,1.386-2.079,1.589l0,0C281.572,225.562,279.721,224.434,279.314,222.758z
								 M282.28,220.756c-0.279,0.068-0.607,0.344-0.748,0.576c-0.048,0.209-0.096,0.418-0.051,0.604l0.023,0.093
								c0.136,0.559,0.714,0.911,1.18,0.798c0.279-0.068,0.514-0.322,0.655-0.553c0.141-0.231,0.166-0.533,0.121-0.72
								C283.324,220.996,282.745,220.643,282.28,220.756L282.28,220.756z M292.728,198.797c-0.023-0.093-0.161-0.257-0.229-0.536
								l-0.226-0.931c-0.249-1.024-0.52-2.142-0.791-3.259c-0.271-1.117,0.248-2.229,1.32-2.687
								c0.886-0.412,2.139-0.125,2.737,0.716c0.254,0.234,0.46,0.677,0.573,1.143c0.316,1.304,0.61,2.514,0.926,3.818
								c0.068,0.279,0.02,0.488,0.042,0.581l0.062,1.07l-3.911,0.949L292.728,198.797z M293.718,193.528L293.718,193.528
								L293.718,193.528L293.718,193.528z M273.72,201.732c-0.271-1.117-0.542-2.235-0.813-3.352
								c-0.042-0.581,0.008-1.185,0.384-1.671c0.375-0.485,0.982-0.83,1.541-0.965c1.233-0.201,2.39,0.505,2.684,1.715
								c0.249,1.024,0.497,2.049,0.768,3.166l0.587,2.421l-4.47,1.084L273.72,201.732z"/>
							<path fill="#231F20" d="M284.577,221.284c-0.246-1.419-1.682-2.057-2.8-1.786c-1.304,0.316-2.057,1.682-1.741,2.986
								s1.682,2.057,2.893,1.763C284.21,223.838,284.893,222.587,284.577,221.284z"/>
							<path fill="#231F20" d="M293.343,197.267c1.024-0.249,2.049-0.497,3.073-0.746c-0.045-0.186,0.003-0.395-0.042-0.581
								c-0.384-1.583-0.271-1.117-0.678-2.794c-0.09-0.372-0.274-0.722-0.435-0.979c-0.415-0.491-1.343-0.66-1.879-0.431
								c-0.793,0.39-1.309,1.106-1.106,1.945c0.429,1.769,0.361,1.49,0.813,3.352C293.089,197.033,293.205,197.104,293.343,197.267z
								"/>
							<path fill="#231F20" d="M274.533,201.831c1.024-0.249,2.049-0.497,3.073-0.746c-0.045-0.186,0.003-0.395-0.042-0.581
								c-0.384-1.583-0.271-1.117-0.678-2.794c-0.09-0.372-0.274-0.722-0.435-0.979c-0.415-0.491-1.343-0.66-1.879-0.431
								c-0.815,0.296-1.216,1.084-1.035,1.829c0.429,1.769,0.361,1.49,0.813,3.352C274.372,201.574,274.488,201.644,274.533,201.831
								z"/>
						</g>
					</g>
					<path fill="#231F20" d="M273.972,224.29l-32.229,8.035l-3.004-10.161c0,0,23.648-4.315,28.425-5.494
						c0.859-0.212,1.594,0.157,1.715,0.128c1.127,0.476,2.142,0.661,3.364,0.365L273.972,224.29z"/>
				</g>
			</g>
			<g>
				<path fill="#231F20" d="M280.121,253.635c0.01,5.82,25.002,4.393,16.691-0.976c-2.216-1.432-2.181-4.667-4.251-6.063
					c-5.859-0.056-3.727,0.289-9.025-1.552C277.627,246.477,280.111,247.832,280.121,253.635z"/>
				<path fill="#231F20" stroke="#F8F2EA" stroke-width="0.4191" stroke-miterlimit="10" d="M293.763,246.206
					c0,0-5.128,1.64-11.869-1.925"/>
			</g>
		</g>
	</g>
	<g>
		<g>
			<path fill="#231F20" d="M468.66,308.831c0.837,2.898,1.675,5.797,2.512,8.695c2.259,7.818,4.517,15.637,6.775,23.455
				c3.361,11.636,6.722,23.271,10.084,34.906c4.073,14.099,8.146,28.198,12.219,42.297c4.475,15.492,8.95,30.984,13.426,46.475
				c4.517,15.638,9.035,31.275,13.552,46.913c4.212,14.58,8.424,29.161,12.636,43.741c3.559,12.32,7.118,24.641,10.677,36.962
				c2.559,8.857,5.117,17.715,7.676,26.573c1.209,4.186,2.55,8.35,3.633,12.576c0.046,0.18,0.103,0.357,0.154,0.534
				c0.687,2.379-1.682,5.068-4.113,5.597c-2.861,0.623-4.944-1.097-5.633-3.483c-0.837-2.898-1.674-5.797-2.512-8.695
				c-2.259-7.818-4.517-15.636-6.775-23.455c-3.361-11.635-6.722-23.271-10.084-34.906c-4.073-14.099-8.146-28.198-12.219-42.297
				c-4.475-15.492-8.95-30.983-13.426-46.475c-4.517-15.638-9.035-31.275-13.552-46.913c-4.212-14.58-8.424-29.161-12.636-43.741
				c-3.559-12.32-7.118-24.641-10.677-36.961c-2.559-8.858-5.117-17.715-7.676-26.573c-1.209-4.186-2.55-8.35-3.633-12.576
				c-0.046-0.18-0.103-0.356-0.154-0.534c-0.687-2.379,1.682-5.068,4.112-5.597C465.888,304.725,467.971,306.445,468.66,308.831
				L468.66,308.831z"/>
		</g>
	</g>
</g>
<path fill="#383A35" d="M195.513,336.199c0.692,3.13,3.909,23.66-30.536,24.615c-2.538,0.07-4.813-1.578-5.509-4.02l-45.459-159.392
	c-0.782-2.743,0.647-5.632,3.303-6.674l17.419-6.834c2.905-1.14,6.177,0.345,7.233,3.281l53.355,148.352
	C195.398,335.75,195.462,335.969,195.513,336.199z"/>
<path opacity="0.4" fill="#231F20" d="M195.513,336.199c0.692,3.13,3.909,23.66-30.536,24.615c-2.538,0.07-4.813-1.578-5.509-4.02
	l-45.459-159.392c-0.782-2.743,0.647-5.632,3.303-6.674l17.419-6.834c2.905-1.14,6.177,0.345,7.233,3.281l53.355,148.352
	C195.398,335.75,195.462,335.969,195.513,336.199z"/>
<path fill="#343633" d="M182.648,349.076c20.343-27.856,70.867-47.677,151.324-49.294c80.456-1.618,104.516-51.072,104.516-51.072
	L388.939,77.28c0,0-24.06,49.454-104.516,51.072c-69.283,1.393-116.371,16.285-141.103,38.181
	c-6.557,5.805-9.125,14.902-6.693,23.315L182.648,349.076z"/>
<path opacity="0.4" fill="#231F20" d="M229.85,304.268c26.521-12.081,55.369-16.951,83.442-23.988
	c23.62-5.92,52.221-13.434,65.554-35.864c6.289-10.58,9.396-23.369,11.774-35.332c2.757-13.867,3.634-28.031,3.42-42.15
	c-0.436-28.878,2.571-59.176-5.233-87.302c-0.126-0.453-0.289-0.856-0.48-1.216c0.413-0.73,0.612-1.136,0.612-1.136l49.548,171.43
	c0,0-24.06,49.454-104.516,51.071c-80.456,1.618-130.981,21.438-151.324,49.294l-1.502-5.195
	C192.679,326.197,210.385,313.135,229.85,304.268z"/>
<g>
	<g>
		<path fill="#5E5F61" d="M395.781,69.575c0.837,2.898,1.675,5.797,2.512,8.695c2.259,7.818,4.517,15.637,6.775,23.455
			c3.361,11.635,6.722,23.271,10.084,34.906c4.073,14.099,8.146,28.198,12.219,42.297c4.475,15.492,8.95,30.984,13.426,46.475
			c4.517,15.638,9.035,31.275,13.552,46.913c4.212,14.58,8.424,29.161,12.636,43.741c3.559,12.32,7.118,24.641,10.677,36.962
			c2.559,8.857,5.117,17.715,7.676,26.573c1.209,4.186,2.55,8.35,3.633,12.576c0.046,0.18,0.103,0.357,0.154,0.534
			c0.687,2.379-1.682,5.068-4.113,5.597c-2.861,0.623-4.944-1.097-5.633-3.483c-0.837-2.898-1.674-5.797-2.512-8.695
			c-2.259-7.818-4.517-15.636-6.775-23.455c-3.361-11.635-6.722-23.271-10.084-34.906c-4.073-14.099-8.146-28.198-12.219-42.297
			c-4.475-15.492-8.95-30.983-13.426-46.475c-4.517-15.638-9.035-31.275-13.552-46.913c-4.212-14.58-8.424-29.161-12.636-43.741
			c-3.559-12.32-7.118-24.641-10.677-36.961c-2.559-8.858-5.117-17.715-7.676-26.573c-1.209-4.186-2.55-8.35-3.633-12.576
			c-0.046-0.18-0.103-0.356-0.154-0.534c-0.687-2.379,1.682-5.068,4.112-5.597C393.008,65.47,395.091,67.189,395.781,69.575
			L395.781,69.575z"/>
	</g>
</g>
<g>
	<g>
		<path fill="#5E5F61" d="M464.112,305.119c0.837,2.898,1.675,5.797,2.512,8.695c2.259,7.818,4.517,15.637,6.775,23.455
			c3.361,11.635,6.722,23.271,10.084,34.906c4.073,14.099,8.146,28.198,12.219,42.297c4.475,15.492,8.95,30.984,13.426,46.475
			c4.517,15.638,9.035,31.275,13.552,46.913c4.212,14.58,8.424,29.161,12.636,43.741c3.559,12.32,7.118,24.641,10.677,36.962
			c2.559,8.857,5.117,17.715,7.676,26.573c1.209,4.186,2.55,8.35,3.633,12.576c0.046,0.18,0.103,0.357,0.154,0.534
			c0.687,2.379-1.682,5.068-4.112,5.597c-2.861,0.623-4.944-1.097-5.633-3.483c-0.837-2.898-1.674-5.797-2.512-8.695
			c-2.259-7.818-4.517-15.636-6.776-23.455c-3.361-11.635-6.722-23.271-10.084-34.906c-4.073-14.099-8.146-28.198-12.219-42.297
			c-4.475-15.492-8.95-30.983-13.426-46.475c-4.517-15.638-9.035-31.275-13.552-46.913c-4.212-14.58-8.424-29.161-12.636-43.741
			c-3.559-12.32-7.118-24.641-10.677-36.961c-2.559-8.858-5.117-17.715-7.676-26.573c-1.209-4.186-2.55-8.35-3.633-12.576
			c-0.046-0.18-0.103-0.356-0.154-0.534c-0.687-2.379,1.682-5.068,4.112-5.597C461.34,301.013,463.423,302.733,464.112,305.119
			L464.112,305.119z"/>
	</g>
</g>
<path fill="#7EAED9" stroke="#7EAED9" stroke-width="1.3838" stroke-miterlimit="10" d="M864.104,502.865
	c77.664,177.103,3.569,385.912-171.329,473.42c-180.54,90.331-400.124,17.202-490.455-163.337
	c-50.376-100.684-49.915-213.512-8.336-309.292"/>
<path opacity="0.15" fill="#5E82A2" d="M679.986,778.877C501.07,850.658,297.841,763.81,226.059,584.892
	c-8.529-21.259-14.658-42.871-18.82-64.555c-29.713,78.846-31.509,168.476,2.338,252.84
	c71.781,178.916,275.012,265.766,453.928,193.985C821.162,903.91,907.174,738.597,876.31,577.786
	C843.007,666.155,774.538,740.942,679.986,778.877z"/>
<g>
	<defs>
		<path id="SVGID_9_" d="M822.066,430.535c12.748,17.099,24.17,35.555,34.047,55.296c90.331,180.54,17.202,400.124-163.337,490.455
			S292.651,993.488,202.32,812.948c-63.947-127.808-45.976-275.183,34.028-382.417"/>
	</defs>
	<clipPath id="SVGID_10_">
		<use xlink:href="#SVGID_9_"  overflow="visible"/>
	</clipPath>
	<g clip-path="url(#SVGID_10_)">
		<g>
			<circle fill="#46739D" cx="249.557" cy="648.538" r="44.716"/>
			<path opacity="0.5" fill="#172734" d="M291.811,633.89c-4.703-13.525-15.806-24.558-30.68-28.544
				c-14.909-3.995-30.078,0.037-40.918,9.446C267.293,592.883,291.811,633.89,291.811,633.89z"/>
			<path opacity="0.25" fill="#BAB1CB" d="M206.357,660.11c4.009,14.911,15.64,27.337,31.627,31.62
				c16.4,4.394,33.114-0.924,44.036-12.428C230.231,712.235,206.357,660.11,206.357,660.11z"/>
		</g>
		<g>
			<circle fill="#46739D" cx="646.754" cy="800.094" r="21.27"/>
			<path opacity="0.5" fill="#172734" d="M666.853,793.126c-2.237-6.434-7.518-11.682-14.594-13.577
				c-7.092-1.9-14.307,0.018-19.464,4.493C655.191,773.621,666.853,793.126,666.853,793.126z"/>
			<path opacity="0.25" fill="#BAB1CB" d="M626.205,805.599c1.907,7.093,7.44,13.003,15.044,15.041
				c7.801,2.09,15.751-0.439,20.947-5.911C637.562,830.393,626.205,805.599,626.205,805.599z"/>
		</g>
		<g>
			<circle fill="#46739D" cx="728.702" cy="566.113" r="24.766"/>
			<path opacity="0.5" fill="#172734" d="M752.104,558c-2.605-7.491-8.754-13.602-16.992-15.809
				c-8.257-2.213-16.659,0.02-22.662,5.232C738.525,535.289,752.104,558,752.104,558z"/>
			<path opacity="0.25" fill="#BAB1CB" d="M704.775,572.522c2.22,8.258,8.662,15.14,17.517,17.513
				c9.083,2.434,18.34-0.511,24.389-6.883C717.998,601.391,704.775,572.522,704.775,572.522z"/>
		</g>
		<g>
			<circle fill="#46739D" cx="642.458" cy="895.659" r="10.313"/>
			<path opacity="0.5" fill="#172734" d="M652.203,892.281c-1.085-3.119-3.645-5.664-7.076-6.583
				c-3.438-0.921-6.937,0.008-9.437,2.179C646.548,882.824,652.203,892.281,652.203,892.281z"/>
			<path opacity="0.25" fill="#BAB1CB" d="M632.495,898.328c0.925,3.439,3.607,6.305,7.294,7.293
				c3.782,1.013,7.637-0.213,10.156-2.866C638.001,910.349,632.495,898.328,632.495,898.328z"/>
		</g>
		<g>
			<circle fill="#46739D" cx="797.476" cy="686.657" r="10.313"/>
			<path opacity="0.5" fill="#172734" d="M807.221,683.279c-1.085-3.119-3.645-5.664-7.076-6.583
				c-3.438-0.921-6.937,0.008-9.437,2.179C801.566,673.822,807.221,683.279,807.221,683.279z"/>
			<path opacity="0.25" fill="#BAB1CB" d="M787.513,689.326c0.925,3.439,3.607,6.305,7.294,7.293
				c3.782,1.013,7.637-0.213,10.156-2.866C793.019,701.348,787.513,689.326,787.513,689.326z"/>
		</g>
		<g>
			<circle fill="#46739D" cx="345.253" cy="762.737" r="11.007"/>
			<path opacity="0.5" fill="#172734" d="M355.654,759.131c-1.158-3.329-3.891-6.045-7.552-7.026
				c-3.67-0.983-7.404,0.009-10.072,2.325C349.619,749.038,355.654,759.131,355.654,759.131z"/>
			<path opacity="0.25" fill="#BAB1CB" d="M334.619,765.586c0.987,3.67,3.85,6.729,7.785,7.784c4.037,1.082,8.151-0.227,10.84-3.059
				C340.496,778.417,334.619,765.586,334.619,765.586z"/>
		</g>
		<g>
			<circle fill="#46739D" cx="219.842" cy="846.806" r="43.434"/>
			<path opacity="0.5" fill="#172734" d="M260.884,832.578c-4.568-13.138-15.353-23.854-29.8-27.726
				c-14.482-3.88-29.215,0.036-39.745,9.175C237.069,792.747,260.884,832.578,260.884,832.578z"/>
			<path opacity="0.25" fill="#BAB1CB" d="M177.88,858.046c3.894,14.483,15.192,26.553,30.72,30.714
				c15.93,4.268,32.165-0.897,42.774-12.071C201.07,908.677,177.88,858.046,177.88,858.046z"/>
		</g>
		<g>
			<circle fill="#46739D" cx="447.177" cy="880.918" r="61.232"/>
			<path opacity="0.5" fill="#172734" d="M505.037,860.859c-6.44-18.521-21.644-33.629-42.011-39.087
				c-20.416-5.47-41.187,0.05-56.031,12.935C471.463,804.707,505.037,860.859,505.037,860.859z"/>
			<path opacity="0.25" fill="#BAB1CB" d="M388.021,896.764c5.49,20.418,21.417,37.434,43.308,43.299
				c22.457,6.017,45.345-1.265,60.301-17.018C420.713,968.141,388.021,896.764,388.021,896.764z"/>
		</g>
		<g>
			<circle fill="#46739D" cx="813.431" cy="801.627" r="66.191"/>
			<path opacity="0.5" fill="#172734" d="M875.976,779.944c-6.961-20.021-23.397-36.353-45.414-42.252
				c-22.069-5.913-44.523,0.055-60.569,13.983C839.683,719.244,875.976,779.944,875.976,779.944z"/>
			<path opacity="0.25" fill="#BAB1CB" d="M749.483,818.756c5.934,22.072,23.151,40.465,46.816,46.806
				c24.276,6.505,49.017-1.367,65.184-18.396C784.824,895.914,749.483,818.756,749.483,818.756z"/>
		</g>
		<g>
			<circle fill="#DBBC9F" cx="529.216" cy="661.819" r="117.607"/>
			<g>
				<path fill="#7E441D" d="M604.8,690.406c0,25.63-33.999,46.553-75.845,46.553s-75.845-20.923-75.845-46.553v-12.031h152.213
					v12.031H604.8z"/>
				<path fill-rule="evenodd" clip-rule="evenodd" fill="#A65A26" d="M482.402,601.484c-2.092-9.415,5.231-18.307,14.646-18.307
					c8.369,0,15.169,6.8,15.169,15.169v34.522c5.231-0.523,10.461-1.046,16.215-1.046c5.231,0,10.461,0.523,15.692,1.046v-34.522
					c0-8.369,6.8-15.169,15.169-15.169c9.415,0,16.738,8.892,15.169,18.307l-6.8,37.661c21.969,8.369,37.138,23.015,37.138,39.753
					c0,25.63-33.999,46.553-75.845,46.553s-75.845-20.923-75.845-46.553c0-16.738,14.646-31.384,36.615-39.753L482.402,601.484z"/>
				<path fill="#7E441D" d="M507.509,675.237c0,6.8-3.661,12.554-8.369,12.554s-8.369-5.754-8.369-12.554
					c0-6.8,3.661-12.554,8.369-12.554S507.509,668.437,507.509,675.237z"/>
				<path fill="#7E441D" d="M565.57,675.237c0,6.8-3.661,12.554-8.369,12.554c-4.708,0-8.369-5.754-8.369-12.554
					c0-6.8,3.661-12.554,8.369-12.554C561.908,662.683,565.57,668.437,565.57,675.237z"/>
			</g>
		</g>
	</g>
</g>
<g opacity="0.6">
	<path fill="#2F4D69" d="M884.174,465.041c0-26.037-27.765-47.34-61.7-47.34H230.256c-33.935,0-61.7,21.303-61.7,47.34
		c0,26.037,27.765,47.34,61.7,47.34h592.218C856.409,512.381,884.174,491.078,884.174,465.041z"/>
</g>
<g>
	<path fill="#7EAED9" d="M908.272,455.478c0-28.161-29.72-51.201-66.045-51.201H216.206c-36.325,0-66.045,23.04-66.045,51.201
		c0,28.161,29.72,51.201,66.045,51.201h626.021C878.552,506.679,908.272,483.638,908.272,455.478z"/>
</g>
<line opacity="0.1" fill="#B0CCE6" stroke="#E4EDF7" stroke-width="11.4043" stroke-linecap="round" stroke-miterlimit="10" x1="221.301" y1="426.729" x2="616.174" y2="426.729"/>
<path fill="#6E6099" stroke="#FFFFFF" stroke-width="4.2766" stroke-miterlimit="10" d="M605.021,417.701"/>
<line opacity="0.15" fill="#B0CCE6" stroke="#E4EDF7" stroke-width="10.2003" stroke-linecap="round" stroke-miterlimit="10" x1="644.685" y1="426.729" x2="673.195" y2="426.729"/>
<line opacity="0.2" fill="#B0CCE6" stroke="#E4EDF7" stroke-width="11.4043" stroke-linecap="round" stroke-miterlimit="10" x1="702.419" y1="426.729" x2="826.204" y2="426.729"/>
<g>
	<g>
		<defs>
			<filter id="Adobe_OpacityMaskFilter" filterUnits="userSpaceOnUse" x="734.689" y="166.468" width="110.7" height="95.962">
				<feColorMatrix  type="matrix" values="1 0 0 0 0  0 1 0 0 0  0 0 1 0 0  0 0 0 1 0"/>
			</filter>
		</defs>
		<mask maskUnits="userSpaceOnUse" x="734.689" y="166.468" width="110.7" height="95.962" id="mask1_4_">
			<path fill-rule="evenodd" clip-rule="evenodd" fill="#FFFFFF" filter="url(#Adobe_OpacityMaskFilter)" d="M756.609,151.864
				l107.339,28.761l-21.92,81.805L734.69,233.669L756.609,151.864z"/>
		</mask>
		<g mask="url(#mask1_4_)">
			<path fill-rule="evenodd" clip-rule="evenodd" fill="#F9EC25" d="M817.21,191.226c0.66-0.606,1.299-1.303,1.888-2.085
				c1.016-1.348,1.758-2.766,2.208-4.118c1.11-2.81,1.041-5.353-0.417-6.495c-1.433-1.123-3.843-0.611-6.244,1.082
				c0.042-0.144,0.083-0.287,0.123-0.434c1.619-6.043,0.189-11.678-3.196-12.585c-3.384-0.907-7.441,3.258-9.06,9.301
				c-0.115,0.429-0.213,0.855-0.297,1.278c-1.302-3.377-3.62-5.55-5.803-5.135c-2.731,0.519-4.214,4.885-3.313,9.753
				c0.151,0.817,0.591,2.268,0.846,2.996c-27.365-2.846-48.01,14.443-59.255,48.885l14.68,3.933
				c9.256-28.354,26.981-41.021,51.002-34.05c22.058,6.401,35.107,25.508,26.976,54.944l14.679,3.933
				C851.618,227.701,839.879,203.097,817.21,191.226z"/>
		</g>
		<path fill-rule="evenodd" clip-rule="evenodd" fill="#F9EC25" d="M783.627,217.268c-1.769-0.474-3.635,0.751-4.167,2.736
			l-2.365,8.828c-0.532,1.985,0.471,3.978,2.24,4.452c1.769,0.474,3.634-0.751,4.166-2.736l2.365-8.828
			C786.398,219.736,785.396,217.742,783.627,217.268z"/>
	</g>
	<path fill-rule="evenodd" clip-rule="evenodd" fill="#F9EC25" d="M809.252,224.134c-1.769-0.474-3.634,0.751-4.166,2.736
		l-2.365,8.828c-0.532,1.985,0.471,3.978,2.24,4.452c1.769,0.474,3.635-0.751,4.167-2.736l2.365-8.828
		C812.024,226.602,811.021,224.609,809.252,224.134z"/>
</g>
<g>
	<g>
		<defs>
			<filter id="Adobe_OpacityMaskFilter_1_" filterUnits="userSpaceOnUse" x="236.65" y="166.006" width="110.7" height="97.265">
				<feColorMatrix  type="matrix" values="1 0 0 0 0  0 1 0 0 0  0 0 1 0 0  0 0 0 1 0"/>
			</filter>
		</defs>
		<mask maskUnits="userSpaceOnUse" x="236.65" y="166.006" width="110.7" height="97.265" id="mask1_2_">
			<path fill-rule="evenodd" clip-rule="evenodd" fill="#FFFFFF" filter="url(#Adobe_OpacityMaskFilter_1_)" d="M217.306,180.782
				l108.237-28.618l21.81,82.49l-108.237,28.618L217.306,180.782z"/>
		</mask>
		<g mask="url(#mask1_2_)">
			<path fill-rule="evenodd" clip-rule="evenodd" fill="#F9EC25" d="M289.996,184.839c0.274-0.86,0.483-1.79,0.607-2.768
				c0.213-1.687,0.152-3.298-0.132-4.706c-0.437-3.012-1.771-5.2-3.617-5.469c-1.815-0.264-3.666,1.391-4.917,4.073
				c-0.035-0.147-0.071-0.293-0.11-0.44c-1.611-6.094-5.684-10.303-9.097-9.4c-3.413,0.902-4.873,6.574-3.262,12.668
				c0.114,0.432,0.242,0.854,0.38,1.266c-2.829-2.3-5.944-3.038-7.645-1.582c-2.127,1.821-1.237,6.381,1.989,10.185
				c0.541,0.638,1.653,1.687,2.24,2.196c-25.347,11.217-34.735,36.671-27.315,72.411l14.803-3.914
				c-6.109-29.422,3.041-49.373,27.53-55.31c22.489-5.452,43.465,4.715,51.1,34.52l14.802-3.913
				C338.342,199.491,315.757,183.862,289.996,184.839z"/>
		</g>
		<path fill-rule="evenodd" clip-rule="evenodd" fill="#F9EC25" d="M273.681,224.424c-1.784,0.472-2.801,2.477-2.272,4.478
			l2.354,8.902c0.529,2.002,2.404,3.242,4.189,2.77c1.784-0.472,2.801-2.476,2.271-4.478l-2.354-8.902
			C277.34,225.193,275.465,223.952,273.681,224.424z"/>
	</g>
	<path fill-rule="evenodd" clip-rule="evenodd" fill="#F9EC25" d="M299.521,217.592c-1.784,0.472-2.801,2.477-2.271,4.478
		l2.354,8.902c0.529,2.002,2.404,3.242,4.188,2.77c1.784-0.472,2.801-2.477,2.272-4.478l-2.354-8.902
		C303.18,218.361,301.305,217.12,299.521,217.592z"/>
</g>
<g>
</g>
<g>
</g>
<g>
</g>
<g>
</g>
<g>
</g>
<g>
</g>
<g>
</g>
<g>
</g>
<g>
</g>
<g>
</g>
<g>
</g>
</svg>
