<?xml version="1.0" encoding="utf-8"?>
<!-- Generator: Adobe Illustrator 24.0.2, SVG Export Plug-In . SVG Version: 6.00 Build 0)  -->
<svg version="1.1" id="Layer_1" xmlns="http://www.w3.org/2000/svg" xmlns:xlink="http://www.w3.org/1999/xlink" x="0px" y="0px"
	 viewBox="0 0 540 540" enable-background="new 0 0 540 540" xml:space="preserve">
<path fill="#FFFFFF" d="M270,10C126.428,10,10,126.428,10,270s116.428,260,260,260s260-116.428,260-260S413.572,10,270,10z
	 M337.861,368.081c0,0-9.303-10.525-15.926-19.71c32.127-9.224,44.15-27.673,44.15-27.673
	c-10.545,6.642-20.163,10.584-27.968,14.526c-12.003,5.282-24.026,7.884-36.03,10.545c-56.843,9.224-88.753-6.209-118.909-18.448
	l-10.308-5.243c0,0,12.003,18.448,42.849,27.673c-8.101,9.244-16.123,19.749-16.123,19.749
	c-54.912-1.301-74.937-35.596-74.937-35.596c0-76.395,36.128-138.363,36.128-138.363l0,0c36.128-26.293,69.615-25.031,69.615-25.031
	l2.7,2.661c-44.209,10.545-64.254,30.294-64.254,30.294s5.361-2.621,14.723-6.622c59.543-23.415,124.566-21.72,184.76,7.923
	c0,0-20.084-18.468-61.573-30.294l3.666-3.607c5.735,0.02,36.089,1.084,68.57,24.834c0,0,36.345,62.086,36.345,138.363
	C414.138,332.603,392.792,366.898,337.861,368.081z"/>
<path fill="#FFFFFF" d="M314.741,310.233c14.014,0,25.426-11.826,25.426-26.411c0-14.487-11.353-26.313-25.426-26.313v0.059
	c-13.955,0-25.386,11.786-25.426,26.372C289.316,298.407,300.728,310.233,314.741,310.233z"/>
<path fill="#FFFFFF" d="M223.721,310.233c14.014,0,25.426-11.826,25.426-26.411c0-14.487-11.333-26.313-25.347-26.313l-0.079,0.059
	c-14.014,0-25.426,11.786-25.426,26.372C198.296,298.407,209.708,310.233,223.721,310.233z"/>
<g>
</g>
<g>
</g>
<g>
</g>
<g>
</g>
<g>
</g>
<g>
</g>
<g>
</g>
<g>
</g>
<g>
</g>
<g>
</g>
<g>
</g>
</svg>
