<?xml version="1.0" encoding="utf-8"?>
<!-- Generator: Adobe Illustrator 24.0.2, SVG Export Plug-In . SVG Version: 6.00 Build 0)  -->
<svg version="1.1" id="Layer_1" xmlns="http://www.w3.org/2000/svg" xmlns:xlink="http://www.w3.org/1999/xlink" x="0px" y="0px"
	 viewBox="0 0 540 540" enable-background="new 0 0 540 540" xml:space="preserve">
<path fill="#FFFFFF" d="M270,10C126.428,10,10,126.428,10,270s116.428,260,260,260s260-116.428,260-260S413.572,10,270,10z
	 M415.34,159.796l-23.194,22.189l0,0c-1.986,1.49-3.004,4.009-2.58,6.468V351.56c-0.424,2.447,0.606,4.966,2.592,6.468
	l22.649,22.176v4.857H300.812v-4.869l23.497-22.734c2.277-2.277,2.277-2.992,2.277-6.468V219.204l-65.318,165.433h-8.829
	l-75.964-165.433v110.87c-0.666,4.687,0.896,9.35,4.203,12.717l30.521,36.928v4.857H124.66v-4.796l30.521-36.989
	c3.246-3.355,4.748-8.103,3.912-12.717V201.896c0.351-3.549-1.029-7.073-3.67-9.484l-27.094-32.617v-4.857h84.249l65.149,142.53
	l57.264-142.53h80.349V159.796z"/>
<g>
</g>
<g>
</g>
<g>
</g>
<g>
</g>
<g>
</g>
<g>
</g>
<g>
</g>
<g>
</g>
<g>
</g>
<g>
</g>
<g>
</g>
</svg>
