<?xml version="1.0" encoding="utf-8"?>
<!-- Generator: Adobe Illustrator 24.0.2, SVG Export Plug-In . SVG Version: 6.00 Build 0)  -->
<svg version="1.1" id="Layer_1" xmlns="http://www.w3.org/2000/svg" xmlns:xlink="http://www.w3.org/1999/xlink" x="0px" y="0px"
	 viewBox="0 0 540 540" enable-background="new 0 0 540 540" xml:space="preserve">
<path fill="#FFFFFF" d="M270,530c143.628,0,260-116.372,260-260S413.628,10,270,10S10,126.372,10,270S126.372,530,270,530z
	 M141.826,249.343l250.683-96.655c11.635-4.203,21.797,2.838,18.027,20.432l0.022-0.022l-42.683,201.088
	c-3.163,14.257-11.635,17.723-23.487,11.007l-65-47.905l-31.352,30.203c-3.467,3.467-6.392,6.392-13.108,6.392l4.615-66.148
	L360.01,198.903c5.243-4.615-1.17-7.215-8.082-2.622l-148.872,93.73l-64.177-20.02C124.948,265.572,124.645,256.06,141.826,249.343
	L141.826,249.343z"/>
<g>
</g>
<g>
</g>
<g>
</g>
<g>
</g>
<g>
</g>
<g>
</g>
<g>
</g>
<g>
</g>
<g>
</g>
<g>
</g>
<g>
</g>
</svg>
