<?xml version="1.0" encoding="utf-8"?>
<!-- Generator: Adobe Illustrator 24.0.2, SVG Export Plug-In . SVG Version: 6.00 Build 0)  -->
<svg version="1.1" id="Layer_1" xmlns="http://www.w3.org/2000/svg" xmlns:xlink="http://www.w3.org/1999/xlink" x="0px" y="0px"
	 viewBox="0 0 540 540" enable-background="new 0 0 540 540" xml:space="preserve">
<path fill="#FFFFFF" d="M270,20.83c-143.65,0-260,114.4-260,255.493c0,112.905,74.49,208.65,177.775,242.407
	c13,2.405,17.767-5.503,17.767-12.285c0-6.067-0.217-22.143-0.325-43.442c-72.323,15.405-87.577-34.277-87.577-34.277
	c-11.83-29.488-28.925-37.375-28.925-37.375c-23.552-15.838,1.82-15.513,1.82-15.513c26.108,1.777,39.823,26.325,39.823,26.325
	c23.183,39.065,60.862,27.777,75.725,21.255c2.34-16.532,9.035-27.777,16.467-34.168c-57.742-6.392-118.43-28.362-118.43-126.252
	c0-27.885,10.075-50.678,26.758-68.553c-2.925-6.457-11.7-32.435,2.275-67.622c0,0,21.775-6.847,71.5,26.195
	c20.8-5.677,42.9-8.493,65-8.623c22.1,0.13,44.2,2.947,65,8.623c49.4-33.042,71.175-26.195,71.175-26.195
	c13.975,35.187,5.2,61.165,2.6,67.622c16.575,17.875,26.65,40.668,26.65,68.553c0,98.15-60.775,119.752-118.625,126.035
	c9.1,7.67,17.55,23.335,17.55,47.277c0,34.19-0.325,61.663-0.325,69.962c0,6.695,4.55,14.69,17.875,12.133
	C455.575,484.865,530,389.055,530,276.323C530,135.23,413.585,20.83,270,20.83z"/>
<path fill="#FFFFFF" d="M270,10C126.428,10,10,126.428,10,270s116.428,260,260,260s260-116.428,260-260S413.572,10,270,10z
	 M385.592,210.727c0.115,2.557,0.171,5.126,0.171,7.707c0,78.807-59.987,169.684-169.688,169.688h0.004h-0.004
	c-33.681,0-65.022-9.872-91.415-26.79c4.667,0.551,9.416,0.825,14.226,0.825c27.944,0,53.659-9.531,74.074-25.529
	c-26.108-0.484-48.12-17.726-55.717-41.424c3.636,0.698,7.374,1.078,11.208,1.078c5.444,0,10.717-0.733,15.728-2.101
	c-27.289-5.463-47.847-29.581-47.847-58.46c0-0.27,0-0.511,0.008-0.761c8.037,4.468,17.227,7.156,27.012,7.458
	c-16.014-10.685-26.54-28.951-26.54-49.643c0-10.927,2.954-21.164,8.076-29.978c29.411,36.087,73.364,59.82,122.931,62.314
	c-1.023-4.369-1.55-8.921-1.55-13.599c0-32.923,26.711-59.634,59.646-59.634c17.155,0,32.65,7.252,43.533,18.844
	c13.587-2.68,26.346-7.644,37.871-14.475c-4.46,13.92-13.912,25.6-26.227,32.987c12.065-1.443,23.563-4.643,34.248-9.393
	C407.359,191.803,397.237,202.31,385.592,210.727z"/>
<g>
</g>
<g>
</g>
<g>
</g>
<g>
</g>
<g>
</g>
<g>
</g>
<g>
</g>
<g>
</g>
<g>
</g>
<g>
</g>
<g>
</g>
</svg>
