<?xml version="1.0" encoding="utf-8"?>
<!-- Generator: Adobe Illustrator 24.0.2, SVG Export Plug-In . SVG Version: 6.00 Build 0)  -->
<svg version="1.1" id="Layer_1" xmlns="http://www.w3.org/2000/svg" xmlns:xlink="http://www.w3.org/1999/xlink" x="0px" y="0px"
	 viewBox="0 0 540 540" enable-background="new 0 0 540 540" xml:space="preserve">
<path fill="#FFFFFF" d="M270,10C126.428,10,10,126.428,10,270s116.428,260,260,260s260-116.428,260-260S413.572,10,270,10z
	 M410.26,338.714c-3.563,15.457-16.207,26.859-31.424,28.556c-36.041,4.031-72.515,4.052-108.842,4.031
	c-36.327,0.021-72.81,0-108.859-4.031c-15.217-1.697-27.853-13.099-31.408-28.556c-5.067-22.02-5.067-46.048-5.067-68.712
	c0-22.664,0.059-46.701,5.126-68.712c3.555-15.457,16.19-26.863,31.408-28.565c36.049-4.027,72.532-4.048,108.859-4.027
	c36.319-0.021,72.802,0,108.838,4.027c15.226,1.702,27.87,13.103,31.424,28.565c5.067,22.015,5.025,46.048,5.025,68.712
	C415.34,292.666,415.327,316.699,410.26,338.714z"/>
<path fill="#FFFFFF" d="M232.491,315.119c30.89-16.018,61.51-31.888,92.412-47.914c-30.995-16.173-61.607-32.136-92.412-48.213
	C232.491,251.146,232.491,282.97,232.491,315.119z"/>
<g>
</g>
<g>
</g>
<g>
</g>
<g>
</g>
<g>
</g>
<g>
</g>
<g>
</g>
<g>
</g>
<g>
</g>
<g>
</g>
<g>
</g>
</svg>
