<svg xmlns="http://www.w3.org/2000/svg" xmlns:xlink="http://www.w3.org/1999/xlink" xml:space="preserve" fill-rule="evenodd" stroke-miterlimit="10" clip-rule="evenodd" viewBox="0 0 952 1082"><path fill="#fff" fill-rule="nonzero" stroke="#fff" stroke-width="45.8" d="M618.4 178c-56.4 0-106.8 25.3-140.7 65.1-20.7-24.8-51.9-40.6-86.8-40.6-62.4 0-113 50.6-113 113 0 1 0 2 .1 3.1-6-1-12.1-1.5-18.4-1.5-61.6 0-111.4 49.9-111.4 111.4 0 0 222.9 3.1 222.8 3.1h75.9c27.3 68 93.8 116 171.5 116 102 0 184.7-82.7 184.7-184.7 0-102-82.7-184.9-184.7-184.9Z"/><path fill="#fff" fill-rule="nonzero" stroke="#fff" stroke-width="33.59" d="M845.1 500c85.7 195.4 3.9 425.8-189 522.3-199.2 99.7-441.4 19-541.1-180.2-55.6-111.1-55.1-235.6-9.2-341.2"/><path fill="#fff" fill-rule="nonzero" d="M893.9 447.7c0-31.1-32.8-56.5-72.9-56.5H130.3c-40.1 0-72.9 25.4-72.9 56.5s32.8 56.5 72.9 56.5H821c40.1 0 72.9-25.4 72.9-56.5Z"/><path fill="none" stroke="#fff" stroke-width="33.59" d="M893.9 447.7c0-31.1-32.8-56.5-72.9-56.5H130.3c-40.1 0-72.9 25.4-72.9 56.5s32.8 56.5 72.9 56.5H821c40.1 0 72.9-25.4 72.9-56.5Z"/><path fill="#e5ac23" fill-rule="nonzero" stroke="#e5ac23" stroke-width="12.21" d="M618.4 178c-56.4 0-106.8 25.3-140.7 65.1-20.7-24.8-51.9-40.6-86.8-40.6-62.4 0-113 50.6-113 113 0 1 0 2 .1 3.1-6-1-12.1-1.5-18.4-1.5-61.6 0-111.4 49.9-111.4 111.4 0 0 222.9 3.1 222.8 3.1h75.9c27.3 68 93.8 116 171.5 116 102 0 184.7-82.7 184.7-184.7 0-102-82.7-184.9-184.7-184.9Z"/><path fill="#efc51a" fill-rule="nonzero" d="M618.4 178c-56.4 0-106.8 25.3-140.7 65.1-20.7-24.8-51.9-40.6-86.8-40.6-62.4 0-113 50.6-113 113 0 1 0 2 .1 3.1-6-1-12.1-1.5-18.4-1.5-61.6 0-111.4 49.9-111.4 111.4 0 0 222.9 3.1 222.8 3.1h75.9c27.3 68 93.8 116 171.5 116 102 0 184.7-82.7 184.7-184.7 0-102-82.7-184.9-184.7-184.9Z"/><path fill="#e5ac23" fill-rule="nonzero" d="M497.4 253.6c19.5-23.9 47.1-41.7 77.6-50.1 7.6-2.2 15.4-3.6 23.2-4.7l5.9-.6 3-.3 3-.1 5.9-.2 5.9.1c15.9.3 31.7 3.1 46.8 8 30.3 9.8 57.4 29 76.7 53.9 9.8 12.4 17.5 26.3 23.2 40.9 2.7 7.3 5 14.8 6.6 22.4 1.6 7.6 2.6 15.3 3 23-5.9-30.3-19.5-58.4-39.2-81-19.7-22.6-45.3-39.8-73.6-49.1-14.1-4.6-28.9-7.3-43.8-8l-5.6-.2-5.6.1h-2.8l-2.8.2-5.6.3-5.6.6c-.9.1-1.9.2-2.8.3l-2.8.4c-1.8.3-3.7.6-5.5.9l-5.5 1.2c-29.3 6.5-56.8 21.2-79.6 42Zm-182.3 15.9c8.6-19.2 25.4-35.1 45.8-43 5.1-1.9 10.3-3.6 15.8-4.5 2.7-.6 5.4-.8 8.2-1.2 1.4-.1 2.7-.2 4.1-.3 1.4-.1 2.8-.2 4.1-.1 11-.1 22.1 2 32.4 6 20.7 7.9 38.1 23.8 47.8 43.5 2.4 4.9 4.4 10 5.8 15.2 1.4 5.2 2.4 10.6 2.8 15.9.8 10.7-.3 21.5-3.6 31.5 2.2-20.9-2.2-41.6-12.4-58.7-10.2-17-26-30.5-44.3-37.5-4.6-1.8-9.3-3.1-14.1-4.1-4.8-1-9.7-1.5-14.6-1.7-9.9-.4-19.7 1.1-29.3 3.8-19 5.9-36.1 18.3-48.5 35.2ZM228.5 339c7.3-4.7 15.9-7.3 24.8-7.9 8.8-.6 17.9.5 26.3 3.7 4.2 1.5 8.2 3.6 12.1 5.8l2.8 1.9 1.4.9 1.3 1 2.6 2.1 2.4 2.3 1.2 1.1 1.1 1.2c.7.8 1.5 1.6 2.2 2.5 1.3 1.8 2.7 3.4 3.9 5.3l1.7 2.8c.5 1 1 1.9 1.5 2.9 1 1.9 1.7 4 2.4 6-3.3-2.9-6.2-5.8-9.5-8.3l-1.2-1-3.6-2.7c-1.7-1.1-3.2-2.4-4.9-3.4-3.3-2.2-6.8-4.1-10.2-5.9-1.8-.8-3.5-1.8-5.3-2.4l-2.7-1.2-2.7-1c-7.3-2.7-14.9-4.4-22.8-5.3-8.1-.9-16.2-.9-24.8-.4Z" opacity=".45"/><g opacity=".2"><path fill-rule="nonzero" d="M104.2 312.7c.9 3.5 5.1 26.4-33.5 28.5-2.8.2-5.4-1.6-6.3-4.3L8.7 159.5c-1-3.1.6-6.3 3.5-7.6l19.3-8.2c3.2-1.4 6.9.2 8.2 3.5L103.9 312c.1.2.2.5.3.7Z"/><path fill-opacity=".3" fill-rule="nonzero" d="M104.2 312.7c.9 3.5 5.1 26.4-33.5 28.5-2.8.2-5.4-1.6-6.3-4.3L8.7 159.5c-1-3.1.6-6.3 3.5-7.6l19.3-8.2c3.2-1.4 6.9.2 8.2 3.5L103.9 312c.1.2.2.5.3.7Z"/><path fill-rule="nonzero" d="M90.1 327.5c22-31.8 78-55.5 168.2-59.7 90.1-4.2 115.6-60.3 115.6-60.3L313.3 16.8s-25.5 56.1-115.6 60.3c-77.6 3.6-129.9 21.7-157 46.9-7.2 6.7-9.8 17-6.8 26.3l56.2 177.2Z"/><path fill-opacity=".3" fill-rule="nonzero" d="M141.7 275.9c29.4-14.3 61.6-20.6 92.8-29.3 26.3-7.3 58.1-16.6 72.4-42.1 6.7-12 9.8-26.5 12.2-39.9 2.7-15.6 3.2-31.5 2.6-47.3-1.3-32.4 1.1-66.4-8.4-97.7-.2-.5-.3-1-.6-1.3.4-.8.7-1.3.7-1.3L374 207.7s-25.5 56.1-115.6 60.3c-90.1 4.2-146.2 27.9-168.2 59.7l-1.8-5.8c12.3-20.3 31.7-35.5 53.3-46Z"/><path fill="none" d="m314.6 9 214.5 660"/><path fill-rule="nonzero" d="M175.2 210.9c-.9 0-1.8-.1-2.6-.1.9 0 1.8.1 2.6.1Zm53.2-18.2c-.4.3-1 .8-2 1.6.9-.7 1.6-1.2 2-1.6Z"/><path fill-rule="nonzero" d="M129.3 190c6.1 18.7 19.9 32.6 36.7 39.5.2-7.8 3.5-16 5.5-20.3-.5-1.4-1.1-3.9-1-7.2 1.1 1.9 5.7 1.9 9.4 1.6 5.5-.5 12.5-2.1 19.7-4.4 7.2-2.3 13.8-5.2 18.5-8 3.2-1.9 6.9-4.6 6.7-6.8 2 2.6 3 4.9 3.4 6.4 4.2 2.3 11.7 7 16.4 13.1 9.6-15.5 12.6-34.9 6.5-53.6-10.9-33.6-47.1-52.1-80.7-41.1s-52 47.2-41.1 80.8Zm7.8-15.1c-2.2-6.7 1.4-14 8.1-16.3 1.2-16 12.5-30.7 29.5-36.2 17-5.5 34.8-.3 45.2 11.9 6.8-2.1 14 1.6 16.1 8.4 2.1 6.5-1.1 13.4-7.3 16-.1 8.6-3.1 17.1-8.5 24 2.3.2 3.7.7 3.9 1.6.9 2.8-8.8 9.2-24.7 14.4-15.9 5.2-27.6 5.7-28.5 2.9-.3-.9.5-2.1 2.2-3.6-8.4-2.5-15.8-7.5-20.9-14.4-6.4 1.4-13-2.3-15.1-8.7Z"/><path fill-rule="nonzero" d="M226.9 146.9c1.3 3.9 1.9 7.8 1.8 11.8 6.1-2.6 9.4-9.5 7.3-16-2.2-6.7-9.4-10.5-16.1-8.4 3.1 3.6 5.5 7.9 7 12.6Zm2.3 1.6c-.4-1.2.3-2.6 1.5-3 1.2-.4 2.6.3 3 1.5.4 1.2-.3 2.6-1.5 3-1.2.4-2.6-.2-3-1.5Zm-2.1-6.5c-.4-1.2.3-2.6 1.5-3 1.2-.4 2.6.3 3 1.5.4 1.2-.3 2.6-1.5 3-1.2.5-2.6-.2-3-1.5Z"/><circle cx="229.4" cy="141.3" r="2.4"/><circle cx="231.5" cy="147.8" r="2.4"/><path fill-rule="nonzero" d="M234.6 200.2c1.7 2.9 3.6 6.5 5.4 10.4.8-.9 1.5-1.9 2.2-2.9-.1-.2-.3-.4-.4-.6-1.9-2.7-4.4-5-7.2-6.9Zm-63 9.1c-2 4.3-5.4 12.5-5.5 20.3 1.4.6 2.8 1.1 4.2 1.5v-.8c-.1-3.3.6-6.6 1.8-9.8.3 3.4.9 7.4 1.8 11.6h.1c2.2-5 4.6-12.7 3.7-21.2h-2.3c-.9 0-1.8 0-2.6-.1h-.3c-.3 0-.6-.6-.9-1.5Z"/><path fill-rule="nonzero" d="M170.3 230.3v.8c1.2.4 2.3.7 3.5 1-.9-4.3-1.4-8.3-1.8-11.6-1.1 3.2-1.8 6.6-1.7 9.8Zm28.8-32.8c-8.8 2.9-17.8 2.8-25.8.5-1.7 1.5-2.5 2.7-2.2 3.6.9 2.8 12.6 2.3 28.5-2.9 15.9-5.2 25.6-11.6 24.7-14.4-.3-.9-1.7-1.4-3.9-1.6-5.2 6.6-12.5 11.9-21.3 14.8Zm38.1 11.4c1 .7 1.9 1.2 2.8 1.8v-.1c-1.8-4-3.7-7.5-5.4-10.4 2.8 1.9 5.3 4.3 7.2 6.9.1.2.3.4.4.6.9-1.2 1.7-2.5 2.5-3.7-4.7-6.2-12.2-10.9-16.4-13.1.3 1 .4 1.6.4 1.6s-.1.1-.3.2c-.5.4-1.1.9-2 1.6-.6.4-1.2.9-1.9 1.4 3.6 6.2 8.8 10.6 12.7 13.2Zm-53.4 1.7c.9 9.1-1.4 17.2-3.7 22.9 9.7 1.6 20 .9 30-2.3 10-3.3 18.7-8.7 25.6-15.7-5.2-3.2-11.8-8.4-16.5-16.3-7.8 4.6-20 10.1-35.4 11.4Z"/><path fill-rule="nonzero" d="M177.6 210.9c.9 8.5-1.5 16.3-3.7 21.2 2.1.5 4.1 1 6.3 1.3 2.3-5.6 4.6-13.8 3.7-22.9 15.4-1.3 27.5-6.8 35.4-11.5 4.6 7.8 11.3 13.1 16.5 16.3 1.5-1.5 2.9-3.1 4.3-4.8-.9-.5-1.8-1.1-2.8-1.8-3.9-2.6-9.1-7-12.7-13.2.7-.5 1.4-1 1.9-1.4 1-.8 1.7-1.3 2-1.6.2-.1.3-.2.3-.2s-.1-.6-.4-1.6c-.4-1.5-1.4-3.8-3.4-6.4.2 2.2-3.5 4.9-6.7 6.8-4.7 2.8-11.3 5.6-18.5 8-7.2 2.3-14.2 3.9-19.7 4.4-3.8.4-8.3.3-9.4-1.6-.1 3.3.5 5.7 1 7.2.3 1 .6 1.5.6 1.5h.3c.9.1 1.8.1 2.6.1.8.2 1.6.2 2.4.2Zm-40.5-36c2.1 6.5 8.8 10.1 15.3 8.6-2.3-3.1-4.2-6.7-5.4-10.6-1.5-4.7-2.1-9.6-1.7-14.3-6.8 2.3-10.4 9.5-8.2 16.3Zm6.8-5.8c.4 1.2-.3 2.6-1.5 3-1.2.4-2.6-.3-3-1.5-.4-1.2.3-2.6 1.5-3 1.2-.4 2.6.2 3 1.5Zm-2.4 7.9c-.4-1.2.3-2.6 1.5-3 1.2-.4 2.6.3 3 1.5.4 1.2-.3 2.6-1.5 3-1.3.5-2.6-.2-3-1.5Z"/><circle cx="143.7" cy="176.3" r="2.4"/><circle cx="141.6" cy="169.8" r="2.4"/><path fill-rule="nonzero" d="M146.9 172.9c1.3 3.9 3.1 7.4 5.4 10.6 5.1 7 12.5 12 20.9 14.4 8.1 2.4 17.1 2.4 25.8-.5 8.8-2.9 16-8.2 21.2-14.8 5.4-6.9 8.4-15.3 8.5-24 0-3.9-.6-7.9-1.8-11.8-1.5-4.7-4-9-7-12.6-10.3-12.2-28.1-17.5-45.2-11.9s-28.3 20.3-29.5 36.2c-.4 4.8.2 9.7 1.7 14.4Zm5.4-3.2c-5.2-16 5.9-33.9 24.8-40 18.9-6.1 38.4 1.8 43.5 17.8 5.1 16 2.1 31.3-24.8 40-26.9 8.7-38.3-1.9-43.5-17.8Z"/><path fill-rule="nonzero" d="M152.3 169.7c5.2 16 16.7 26.6 43.5 17.8s29.9-24 24.8-40c-4.7-14.5-21.2-22.4-38.2-19.2l-2.7.6c-.6.2-1.2.3-1.8.5l-1.8.6c-.6.2-1.2.4-1.7.6-.6.2-1.1.5-1.7.7-.5.2-1 .5-1.5.7-.3.1-.6.3-.9.5-.3.1-.5.3-.8.4-.3.2-.6.3-.9.5-.7.4-1.3.8-1.9 1.2l-.9.6c-11.5 8.1-17.4 21.4-13.8 33.7.2.3.2.5.3.8Z"/><use xlink:href="#a" width="73.963" height="34.958" x="169.348" y="198.408" transform="scale(.9995 .9988)"/></g><g opacity=".2"><path fill-rule="nonzero" d="M847.2 312.7c-.9 3.5-5.1 26.4 33.5 28.5 2.8.2 5.4-1.6 6.3-4.3l55.6-177.3c1-3.1-.6-6.3-3.5-7.6l-19.3-8.2c-3.2-1.4-6.9.2-8.2 3.5L847.4 312c-.1.2-.1.5-.2.7Z"/><path fill-opacity=".3" fill-rule="nonzero" d="M847.2 312.7c-.9 3.5-5.1 26.4 33.5 28.5 2.8.2 5.4-1.6 6.3-4.3l55.6-177.3c1-3.1-.6-6.3-3.5-7.6l-19.3-8.2c-3.2-1.4-6.9.2-8.2 3.5L847.4 312c-.1.2-.1.5-.2.7Z"/><path fill-rule="nonzero" d="M861.2 327.5c-22-31.8-78-55.5-168.2-59.7-90.1-4.2-115.6-60.3-115.6-60.3L638 16.8s25.5 56.1 115.6 60.3c77.6 3.6 129.9 21.7 157 46.9 7.2 6.7 9.8 17 6.8 26.3l-56.2 177.2Z"/><path fill-opacity=".3" fill-rule="nonzero" d="M809.6 275.9c-29.4-14.3-61.6-20.6-92.8-29.3-26.3-7.3-58.1-16.6-72.4-42.1-6.7-12-9.8-26.5-12.2-39.9-2.7-15.6-3.2-31.5-2.6-47.3 1.3-32.4-1.1-66.4 8.4-97.7.2-.5.3-1 .6-1.3-.4-.8-.7-1.3-.7-1.3l-60.6 190.7s25.5 56.1 115.6 60.3c90.1 4.2 146.2 27.9 168.2 59.7l1.8-5.8c-12.2-20.3-31.7-35.5-53.3-46Z"/><path fill="none" d="M636.7 9 422.2 669"/><path fill-rule="nonzero" d="M778.8 210.8c-.9 0-1.8.1-2.6.1.8 0 1.7-.1 2.6-.1Zm-53.9-16.5c-1-.8-1.7-1.3-2-1.6.5.4 1.1.9 2 1.6Z"/><path fill-rule="nonzero" d="M780.9 109.3c-33.6-10.9-69.8 7.5-80.7 41.1-6.1 18.7-3.1 38.1 6.5 53.6 4.7-6.2 12.2-10.9 16.4-13.1.4-1.5 1.4-3.8 3.4-6.4-.2 2.2 3.5 4.9 6.7 6.8 4.7 2.8 11.3 5.6 18.5 8 7.2 2.4 14.2 3.9 19.7 4.4 3.8.4 8.3.3 9.4-1.6.1 3.3-.5 5.7-1 7.2 2 4.3 5.3 12.5 5.5 20.3 16.9-6.9 30.7-20.9 36.7-39.5 10.9-33.7-7.5-69.9-41.1-80.8Zm18.1 74.2c-5.1 7-12.5 12-20.9 14.4 1.7 1.5 2.5 2.7 2.2 3.6-.9 2.8-12.6 2.3-28.5-2.9-15.9-5.2-25.6-11.6-24.7-14.4.3-.9 1.7-1.4 3.9-1.6-5.4-6.9-8.4-15.3-8.5-24-6.1-2.6-9.4-9.5-7.3-16 2.2-6.7 9.4-10.5 16.1-8.4 10.3-12.2 28.1-17.5 45.2-11.9s28.3 20.3 29.5 36.2c6.7 2.3 10.3 9.5 8.1 16.3-1.9 6.5-8.6 10.2-15.1 8.7Z"/><path fill-rule="nonzero" d="M731.4 134.3c-6.8-2.1-14 1.6-16.1 8.4-2.1 6.5 1.1 13.4 7.3 16 0-3.9.6-7.9 1.8-11.8 1.6-4.7 4-9 7-12.6ZM719.1 150c-1.2-.4-1.9-1.7-1.5-3 .4-1.2 1.7-1.9 3-1.5 1.2.4 1.9 1.7 1.5 3-.4 1.3-1.7 1.9-3 1.5Zm2.1-6.4c-1.2-.4-1.9-1.7-1.5-3 .4-1.2 1.7-1.9 3-1.5 1.3.4 1.9 1.7 1.5 3-.4 1.2-1.7 1.9-3 1.5Z"/><circle cx="722" cy="141.3" r="2.4"/><circle cx="719.9" cy="147.8" r="2.4"/><path fill-rule="nonzero" d="M709.6 207.1c-.1.2-.3.4-.4.6.7 1 1.4 1.9 2.2 2.9 1.8-4 3.7-7.5 5.4-10.4-2.8 1.9-5.4 4.2-7.2 6.9Zm69.5 3.7h-.3c-.9 0-1.8.1-2.6.1h-2.3c-.9 8.5 1.5 16.3 3.7 21.2h.1c.9-4.3 1.4-8.3 1.8-11.6 1.1 3.2 1.8 6.6 1.8 9.8v.8l4.2-1.5c-.2-7.8-3.5-16-5.5-20.3-.6.9-.9 1.5-.9 1.5Z"/><path fill-rule="nonzero" d="M779.3 220.5c-.3 3.4-.8 7.4-1.8 11.6 1.2-.3 2.3-.7 3.5-1v-.8c.2-3.2-.6-6.6-1.7-9.8ZM731 182.7c-2.3.2-3.7.7-3.9 1.6-.9 2.8 8.8 9.2 24.7 14.4 15.9 5.2 27.6 5.7 28.5 2.9.3-.9-.5-2.1-2.2-3.6-8.1 2.4-17.1 2.4-25.8-.5-8.9-2.9-16.1-8.2-21.3-14.8Zm-4.1 13c-.7-.5-1.4-1-1.9-1.4-.9-.7-1.6-1.2-2-1.6-.2-.1-.3-.2-.3-.2s.1-.6.4-1.6c-4.2 2.3-11.7 7-16.4 13.1.8 1.3 1.6 2.5 2.5 3.7.1-.2.3-.4.4-.6 1.8-2.7 4.4-5 7.2-6.9-1.7 2.9-3.6 6.5-5.4 10.4v.1c.9-.5 1.8-1.1 2.8-1.8 3.9-2.6 9-7 12.7-13.2Zm5.2 3.4c-4.6 7.8-11.3 13.1-16.5 16.3 6.9 7 15.6 12.5 25.6 15.7 10 3.3 20.3 3.9 30 2.3-2.3-5.6-4.6-13.8-3.7-22.9-15.4-1.2-27.5-6.7-35.4-11.4Z"/><path fill-rule="nonzero" d="M776.1 210.9c.9 0 1.8-.1 2.6-.1h.3s.3-.5.6-1.5c.5-1.4 1.1-3.9 1-7.2-1.1 1.9-5.7 1.9-9.4 1.6-5.5-.5-12.5-2.1-19.7-4.4-7.2-2.3-13.8-5.2-18.5-8-3.2-1.9-6.9-4.6-6.7-6.8-2 2.6-3 4.9-3.4 6.4-.3 1-.4 1.6-.4 1.6s.1.1.3.2c.3.3 1 .9 2 1.6.6.4 1.2.9 1.9 1.4-3.6 6.2-8.8 10.6-12.7 13.2-1 .7-1.9 1.2-2.8 1.8 1.3 1.7 2.8 3.2 4.3 4.8 5.2-3.2 11.8-8.4 16.5-16.3 7.8 4.7 20 10.1 35.4 11.5-.9 9.1 1.4 17.2 3.7 22.9 2.1-.3 4.2-.8 6.3-1.3-2.2-5-4.6-12.7-3.7-21.2.9-.2 1.6-.2 2.4-.2Zm30.1-52.3c.4 4.7-.2 9.6-1.7 14.3-1.3 3.9-3.1 7.4-5.4 10.6 6.5 1.5 13.2-2.2 15.3-8.6 2.1-6.8-1.6-14-8.2-16.3Zm4.3 8.9c1.2.4 1.9 1.7 1.5 3-.4 1.2-1.7 1.9-3 1.5-1.2-.4-1.9-1.7-1.5-3 .4-1.2 1.7-1.9 3-1.5Zm-3.6 11.1c-1.2-.4-1.9-1.7-1.5-3 .4-1.2 1.7-1.9 3-1.5 1.3.4 1.9 1.7 1.5 3-.4 1.2-1.8 1.9-3 1.5Z"/><circle cx="807.6" cy="176.3" r="2.4"/><circle cx="809.7" cy="169.8" r="2.4"/><path fill-rule="nonzero" d="M806.2 158.6c-1.2-16-12.5-30.7-29.5-36.2-17-5.5-34.8-.3-45.2 11.9-3.1 3.6-5.5 7.9-7 12.6-1.3 3.9-1.9 7.8-1.8 11.8.1 8.6 3.1 17.1 8.5 24 5.1 6.7 12.4 11.9 21.2 14.8 8.8 2.9 17.8 2.8 25.8.5 8.4-2.5 15.8-7.5 20.9-14.4 2.3-3.1 4.2-6.7 5.4-10.6 1.5-4.8 2-9.7 1.7-14.4Zm-50.7 28.9c-26.9-8.7-29.9-24-24.8-40 5.2-16 24.7-23.9 43.5-17.8 18.9 6.1 29.9 24 24.8 40-5.2 15.9-16.6 26.5-43.5 17.8Z"/><path fill-rule="nonzero" d="M799.2 168.9c3.6-12.3-2.3-25.6-13.8-33.7l-.9-.6c-.6-.4-1.3-.8-1.9-1.2-.3-.2-.6-.4-.9-.5-.3-.1-.5-.3-.8-.4-.3-.2-.6-.3-.9-.5-.5-.2-1-.5-1.5-.7-.5-.2-1.1-.5-1.7-.7-.6-.2-1.1-.4-1.7-.6l-1.8-.6c-.6-.2-1.2-.3-1.8-.5l-2.7-.6c-17.1-3.2-33.5 4.7-38.2 19.2-5.2 16-2.1 31.3 24.8 40 26.9 8.7 38.4-1.8 43.5-17.8.2-.3.3-.5.3-.8Z"/><use xlink:href="#b" width="73.892" height="34.958" x="709.202" y="198.408" transform="scale(.99854 .9988)"/></g><path fill="#948fc4" fill-rule="nonzero" d="M101.2 312.7c.9 3.5 5.1 26.4-33.5 28.5-2.8.2-5.4-1.6-6.3-4.3L5.7 159.5c-1-3.1.6-6.3 3.5-7.6l19.3-8.2c3.2-1.4 6.9.2 8.2 3.5L100.9 312c.1.2.2.5.3.7Z"/><path fill="#635ea8" fill-opacity=".3" fill-rule="nonzero" d="M101.2 312.7c.9 3.5 5.1 26.4-33.5 28.5-2.8.2-5.4-1.6-6.3-4.3L5.7 159.5c-1-3.1.6-6.3 3.5-7.6l19.3-8.2c3.2-1.4 6.9.2 8.2 3.5L100.9 312c.1.2.2.5.3.7Z"/><path fill="#948fc4" fill-rule="nonzero" d="M87.1 327.5c22-31.8 78-55.5 168.2-59.7 90.1-4.2 115.6-60.3 115.6-60.3L310.3 16.8s-25.5 56.1-115.6 60.3c-77.6 3.6-129.9 21.7-157 46.9-7.2 6.7-9.8 17-6.8 26.3l56.2 177.2Z"/><path fill="#635ea8" fill-opacity=".3" fill-rule="nonzero" d="M138.7 275.9c29.4-14.3 61.6-20.6 92.8-29.3 26.3-7.3 58.1-16.6 72.4-42.1 6.7-12 9.8-26.5 12.2-39.9 2.7-15.6 3.2-31.5 2.6-47.3-1.3-32.4 1.1-66.4-8.4-97.7-.2-.5-.3-1-.6-1.3.4-.8.7-1.3.7-1.3L371 207.7s-25.5 56.1-115.6 60.3c-90.1 4.2-146.2 27.9-168.2 59.7l-1.8-5.8c12.3-20.3 31.7-35.5 53.3-46Z"/><path fill="none" stroke="#5f6062" stroke-linecap="round" stroke-width="10.68" d="m311.6 9 214.5 660"/><path fill="#9590c5" fill-rule="nonzero" d="M172.2 210.9c-.9 0-1.8-.1-2.6-.1.9 0 1.8.1 2.6.1Zm53.2-18.2c-.4.3-1 .8-2 1.6.9-.7 1.6-1.2 2-1.6Z"/><path fill="#9590c5" fill-rule="nonzero" d="M126.3 190c6.1 18.7 19.9 32.6 36.7 39.5.2-7.8 3.5-16 5.5-20.3-.5-1.4-1.1-3.9-1-7.2 1.1 1.9 5.7 1.9 9.4 1.6 5.5-.5 12.5-2.1 19.7-4.4 7.2-2.3 13.8-5.2 18.5-8 3.2-1.9 6.9-4.6 6.7-6.8 2 2.6 3 4.9 3.4 6.4 4.2 2.3 11.7 7 16.4 13.1 9.6-15.5 12.6-34.9 6.5-53.6-10.9-33.6-47.1-52.1-80.7-41.1s-52 47.2-41.1 80.8Zm7.8-15.1c-2.2-6.7 1.4-14 8.1-16.3 1.2-16 12.5-30.7 29.5-36.2 17-5.5 34.8-.3 45.2 11.9 6.8-2.1 14 1.6 16.1 8.4 2.1 6.5-1.1 13.4-7.3 16-.1 8.6-3.1 17.1-8.5 24 2.3.2 3.7.7 3.9 1.6.9 2.8-8.8 9.2-24.7 14.4-15.9 5.2-27.6 5.7-28.5 2.9-.3-.9.5-2.1 2.2-3.6-8.4-2.5-15.8-7.5-20.9-14.4-6.4 1.4-13-2.3-15.1-8.7Z"/><path fill="#635da8" fill-rule="nonzero" d="M223.9 146.9c1.3 3.9 1.9 7.8 1.8 11.8 6.1-2.6 9.4-9.5 7.3-16-2.2-6.7-9.4-10.5-16.1-8.4 3.1 3.6 5.5 7.9 7 12.6Zm2.3 1.6c-.4-1.2.3-2.6 1.5-3 1.2-.4 2.6.3 3 1.5.4 1.2-.3 2.6-1.5 3-1.2.4-2.6-.2-3-1.5Zm-2.1-6.5c-.4-1.2.3-2.6 1.5-3 1.2-.4 2.6.3 3 1.5.4 1.2-.3 2.6-1.5 3-1.2.5-2.6-.2-3-1.5Z"/><circle cx="226.4" cy="141.3" r="2.4" fill="#e7e5ea"/><circle cx="228.5" cy="147.8" r="2.4" fill="#e7e5ea"/><path fill="#e7e5ea" fill-rule="nonzero" d="M231.6 200.2c1.7 2.9 3.6 6.5 5.4 10.4.8-.9 1.5-1.9 2.2-2.9-.1-.2-.3-.4-.4-.6-1.9-2.7-4.4-5-7.2-6.9Zm-63 9.1c-2 4.3-5.4 12.5-5.5 20.3 1.4.6 2.8 1.1 4.2 1.5v-.8c-.1-3.3.6-6.6 1.8-9.8.3 3.4.9 7.4 1.8 11.6h.1c2.2-5 4.6-12.7 3.7-21.2h-2.3c-.9 0-1.8 0-2.6-.1h-.3c-.3 0-.6-.6-.9-1.5Z"/><path fill="#e7e5ea" fill-rule="nonzero" d="M167.3 230.3v.8c1.2.4 2.3.7 3.5 1-.9-4.3-1.4-8.3-1.8-11.6-1.1 3.2-1.8 6.6-1.7 9.8Z"/><path fill="#635da8" fill-rule="nonzero" d="M196.1 197.5c-8.8 2.9-17.8 2.8-25.8.5-1.7 1.5-2.5 2.7-2.2 3.6.9 2.8 12.6 2.3 28.5-2.9 15.9-5.2 25.6-11.6 24.7-14.4-.3-.9-1.7-1.4-3.9-1.6-5.2 6.6-12.5 11.9-21.3 14.8Z"/><path fill="#e7e5ea" fill-rule="nonzero" d="M234.2 208.9c1 .7 1.9 1.2 2.8 1.8v-.1c-1.8-4-3.7-7.5-5.4-10.4 2.8 1.9 5.3 4.3 7.2 6.9.1.2.3.4.4.6.9-1.2 1.7-2.5 2.5-3.7-4.7-6.2-12.2-10.9-16.4-13.1.3 1 .4 1.6.4 1.6s-.1.1-.3.2c-.5.4-1.1.9-2 1.6-.6.4-1.2.9-1.9 1.4 3.6 6.2 8.8 10.6 12.7 13.2Zm-53.4 1.7c.9 9.1-1.4 17.2-3.7 22.9 9.7 1.6 20 .9 30-2.3 10-3.3 18.7-8.7 25.6-15.7-5.2-3.2-11.8-8.4-16.5-16.3-7.8 4.6-20 10.1-35.4 11.4Z"/><path fill="#635da8" fill-rule="nonzero" d="M174.6 210.9c.9 8.5-1.5 16.3-3.7 21.2 2.1.5 4.1 1 6.3 1.3 2.3-5.6 4.6-13.8 3.7-22.9 15.4-1.3 27.5-6.8 35.4-11.5 4.6 7.8 11.3 13.1 16.5 16.3 1.5-1.5 2.9-3.1 4.3-4.8-.9-.5-1.8-1.1-2.8-1.8-3.9-2.6-9.1-7-12.7-13.2.7-.5 1.4-1 1.9-1.4 1-.8 1.7-1.3 2-1.6.2-.1.3-.2.3-.2s-.1-.6-.4-1.6c-.4-1.5-1.4-3.8-3.4-6.4.2 2.2-3.5 4.9-6.7 6.8-4.7 2.8-11.3 5.6-18.5 8-7.2 2.3-14.2 3.9-19.7 4.4-3.8.4-8.3.3-9.4-1.6-.1 3.3.5 5.7 1 7.2.3 1 .6 1.5.6 1.5h.3c.9.1 1.8.1 2.6.1.8.2 1.6.2 2.4.2Zm-40.5-36c2.1 6.5 8.8 10.1 15.3 8.6-2.3-3.1-4.2-6.7-5.4-10.6-1.5-4.7-2.1-9.6-1.7-14.3-6.8 2.3-10.4 9.5-8.2 16.3Zm6.8-5.8c.4 1.2-.3 2.6-1.5 3-1.2.4-2.6-.3-3-1.5-.4-1.2.3-2.6 1.5-3 1.2-.4 2.6.2 3 1.5Zm-2.4 7.9c-.4-1.2.3-2.6 1.5-3 1.2-.4 2.6.3 3 1.5.4 1.2-.3 2.6-1.5 3-1.3.5-2.6-.2-3-1.5Z"/><circle cx="140.7" cy="176.3" r="2.4" fill="#e7e5ea"/><circle cx="138.6" cy="169.8" r="2.4" fill="#e7e5ea"/><path fill="#e7e5ea" fill-rule="nonzero" d="M143.9 172.9c1.3 3.9 3.1 7.4 5.4 10.6 5.1 7 12.5 12 20.9 14.4 8.1 2.4 17.1 2.4 25.8-.5s16-8.2 21.2-14.8c5.4-6.9 8.4-15.3 8.5-24 0-3.9-.6-7.9-1.8-11.8-1.5-4.7-4-9-7-12.6-10.3-12.2-28.1-17.5-45.2-11.9s-28.3 20.3-29.5 36.2c-.4 4.8.2 9.7 1.7 14.4Zm5.4-3.2c-5.2-16 5.9-33.9 24.8-40 18.9-6.1 38.4 1.8 43.5 17.8 5.2 16 2.1 31.3-24.8 40-26.9 8.7-38.3-1.9-43.5-17.8Z"/><path fill="#635da8" fill-rule="nonzero" d="M149.3 169.7c5.2 16 16.7 26.6 43.5 17.8s29.9-24 24.8-40c-4.7-14.5-21.2-22.4-38.2-19.2l-2.7.6c-.6.2-1.2.3-1.8.5l-1.8.6c-.6.2-1.2.4-1.7.6-.6.2-1.1.5-1.7.7-.5.2-1 .5-1.5.7-.3.1-.6.3-.9.5-.3.1-.5.3-.8.4-.3.2-.6.3-.9.5-.7.4-1.3.8-1.9 1.2l-.9.6c-11.5 8.1-17.4 21.4-13.8 33.7.2.3.2.5.3.8Z"/><path fill="#635da8" fill-opacity=".1" fill-rule="nonzero" d="M231.6 200.2c1.7 2.9 3.6 6.5 5.4 10.4.8-.9 1.5-1.9 2.2-2.9-.1-.2-.3-.4-.4-.6-1.9-2.7-4.4-5-7.2-6.9Zm-64.3 30.1v.8c1.2.4 2.3.7 3.5 1-.9-4.3-1.4-8.3-1.8-11.6-1.1 3.2-1.8 6.6-1.7 9.8Z"/><path fill="#948fc4" fill-rule="nonzero" d="M850.2 312.7c-.9 3.5-5.1 26.4 33.5 28.5 2.8.2 5.4-1.6 6.3-4.3l55.6-177.3c1-3.1-.6-6.3-3.5-7.6l-19.3-8.2c-3.2-1.4-6.9.2-8.2 3.5L850.4 312c-.1.2-.1.5-.2.7Z"/><path fill="#635ea8" fill-opacity=".3" fill-rule="nonzero" d="M850.2 312.7c-.9 3.5-5.1 26.4 33.5 28.5 2.8.2 5.4-1.6 6.3-4.3l55.6-177.3c1-3.1-.6-6.3-3.5-7.6l-19.3-8.2c-3.2-1.4-6.9.2-8.2 3.5L850.4 312c-.1.2-.1.5-.2.7Z"/><path fill="#948fc4" fill-rule="nonzero" d="M864.2 327.5c-22-31.8-78-55.5-168.2-59.7-90.1-4.2-115.6-60.3-115.6-60.3L641 16.8s25.5 56.1 115.6 60.3c77.6 3.6 129.9 21.7 157 46.9 7.2 6.7 9.8 17 6.8 26.3l-56.2 177.2Z"/><path fill="#635ea8" fill-opacity=".3" fill-rule="nonzero" d="M812.6 275.9c-29.4-14.3-61.6-20.6-92.8-29.3-26.3-7.3-58.1-16.6-72.4-42.1-6.7-12-9.8-26.5-12.2-39.9-2.7-15.6-3.2-31.5-2.6-47.3 1.3-32.4-1.1-66.4 8.4-97.7.2-.5.3-1 .6-1.3-.4-.8-.7-1.3-.7-1.3l-60.6 190.7s25.5 56.1 115.6 60.3c90.1 4.2 146.2 27.9 168.2 59.7l1.8-5.8c-12.2-20.3-31.7-35.5-53.3-46Z"/><path fill="none" stroke="#5f6062" stroke-linecap="round" stroke-width="10.68" d="M639.7 9 425.2 669"/><path fill="#9590c5" fill-rule="nonzero" d="M781.8 210.8c-.9 0-1.8.1-2.6.1.8 0 1.7-.1 2.6-.1Zm-53.9-16.5c-1-.8-1.7-1.3-2-1.6.5.4 1.1.9 2 1.6Z"/><path fill="#9590c5" fill-rule="nonzero" d="M783.9 109.3c-33.6-10.9-69.8 7.5-80.7 41.1-6.1 18.7-3.1 38.1 6.5 53.6 4.7-6.2 12.2-10.9 16.4-13.1.4-1.5 1.4-3.8 3.4-6.4-.2 2.2 3.5 4.9 6.7 6.8 4.7 2.8 11.3 5.6 18.5 8 7.2 2.4 14.2 3.9 19.7 4.4 3.8.4 8.3.3 9.4-1.6.1 3.3-.5 5.7-1 7.2 2 4.3 5.3 12.5 5.5 20.3 16.9-6.9 30.7-20.9 36.7-39.5 10.9-33.7-7.5-69.9-41.1-80.8Zm18.1 74.2c-5.1 7-12.5 12-20.9 14.4 1.7 1.5 2.5 2.7 2.2 3.6-.9 2.8-12.6 2.3-28.5-2.9-15.9-5.2-25.6-11.6-24.7-14.4.3-.9 1.7-1.4 3.9-1.6-5.4-6.9-8.4-15.3-8.5-24-6.1-2.6-9.4-9.5-7.3-16 2.2-6.7 9.4-10.5 16.1-8.4 10.3-12.2 28.1-17.5 45.2-11.9s28.3 20.3 29.5 36.2c6.7 2.3 10.3 9.5 8.1 16.3-1.9 6.5-8.6 10.2-15.1 8.7Z"/><path fill="#635da8" fill-rule="nonzero" d="M734.4 134.3c-6.8-2.1-14 1.6-16.1 8.4-2.1 6.5 1.1 13.4 7.3 16 0-3.9.6-7.9 1.8-11.8 1.6-4.7 4-9 7-12.6ZM722.1 150c-1.2-.4-1.9-1.7-1.5-3 .4-1.2 1.7-1.9 3-1.5 1.2.4 1.9 1.7 1.5 3-.4 1.3-1.7 1.9-3 1.5Zm2.1-6.4c-1.2-.4-1.9-1.7-1.5-3 .4-1.2 1.7-1.9 3-1.5 1.3.4 1.9 1.7 1.5 3-.4 1.2-1.7 1.9-3 1.5Z"/><circle cx="725" cy="141.3" r="2.4" fill="#e7e5ea"/><circle cx="722.9" cy="147.8" r="2.4" fill="#e7e5ea"/><path fill="#e7e5ea" fill-rule="nonzero" d="M712.6 207.1c-.1.2-.3.4-.4.6.7 1 1.4 1.9 2.2 2.9 1.8-4 3.7-7.5 5.4-10.4-2.8 1.9-5.4 4.2-7.2 6.9Zm69.5 3.7h-.3c-.9 0-1.8.1-2.6.1h-2.3c-.9 8.5 1.5 16.3 3.7 21.2h.1c.9-4.3 1.4-8.3 1.8-11.6 1.1 3.2 1.8 6.6 1.8 9.8v.8l4.2-1.5c-.2-7.8-3.5-16-5.5-20.3-.6.9-.9 1.5-.9 1.5Z"/><path fill="#e7e5ea" fill-rule="nonzero" d="M782.3 220.5c-.3 3.4-.8 7.4-1.8 11.6 1.2-.3 2.3-.7 3.5-1v-.8c.2-3.2-.6-6.6-1.7-9.8Z"/><path fill="#635da8" fill-rule="nonzero" d="M734 182.7c-2.3.2-3.7.7-3.9 1.6-.9 2.8 8.8 9.2 24.7 14.4 15.9 5.2 27.6 5.7 28.5 2.9.3-.9-.5-2.1-2.2-3.6-8.1 2.4-17.1 2.4-25.8-.5-8.9-2.9-16.1-8.2-21.3-14.8Z"/><path fill="#e7e5ea" fill-rule="nonzero" d="M729.9 195.7c-.7-.5-1.4-1-1.9-1.4-.9-.7-1.6-1.2-2-1.6-.2-.1-.3-.2-.3-.2s.1-.6.4-1.6c-4.2 2.3-11.7 7-16.4 13.1.8 1.3 1.6 2.5 2.5 3.7.1-.2.3-.4.4-.6 1.8-2.7 4.4-5 7.2-6.9-1.7 2.9-3.6 6.5-5.4 10.4v.1c.9-.5 1.8-1.1 2.8-1.8 3.9-2.6 9-7 12.7-13.2Zm5.2 3.4c-4.6 7.8-11.3 13.1-16.5 16.3 6.9 7 15.6 12.5 25.6 15.7 10 3.3 20.3 3.9 30 2.3-2.3-5.6-4.6-13.8-3.7-22.9-15.4-1.2-27.5-6.7-35.4-11.4Z"/><path fill="#635da8" fill-rule="nonzero" d="M779.1 210.9c.9 0 1.8-.1 2.6-.1h.3s.3-.5.6-1.5c.5-1.4 1.1-3.9 1-7.2-1.1 1.9-5.7 1.9-9.4 1.6-5.5-.5-12.5-2.1-19.7-4.4-7.2-2.3-13.8-5.2-18.5-8-3.2-1.9-6.9-4.6-6.7-6.8-2 2.6-3 4.9-3.4 6.4-.3 1-.4 1.6-.4 1.6s.1.1.3.2c.3.3 1 .9 2 1.6.6.4 1.2.9 1.9 1.4-3.6 6.2-8.8 10.6-12.7 13.2-1 .7-1.9 1.2-2.8 1.8 1.3 1.7 2.8 3.2 4.3 4.8 5.2-3.2 11.8-8.4 16.5-16.3 7.8 4.7 20 10.1 35.4 11.5-.9 9.1 1.4 17.2 3.7 22.9 2.1-.3 4.2-.8 6.3-1.3-2.2-5-4.6-12.7-3.7-21.2.9-.2 1.6-.2 2.4-.2Zm30.1-52.3c.4 4.7-.2 9.6-1.7 14.3-1.3 3.9-3.1 7.4-5.4 10.6 6.5 1.5 13.2-2.2 15.3-8.6 2.1-6.8-1.6-14-8.2-16.3Zm4.3 8.9c1.2.4 1.9 1.7 1.5 3-.4 1.2-1.7 1.9-3 1.5-1.2-.4-1.9-1.7-1.5-3 .4-1.2 1.7-1.9 3-1.5Zm-3.6 11.1c-1.2-.4-1.9-1.7-1.5-3 .4-1.2 1.7-1.9 3-1.5 1.3.4 1.9 1.7 1.5 3-.4 1.2-1.8 1.9-3 1.5Z"/><circle cx="810.6" cy="176.3" r="2.4" fill="#e7e5ea"/><circle cx="812.7" cy="169.8" r="2.4" fill="#e7e5ea"/><path fill="#e7e5ea" fill-rule="nonzero" d="M809.2 158.6c-1.2-16-12.5-30.7-29.5-36.2-17-5.5-34.8-.3-45.2 11.9-3.1 3.6-5.5 7.9-7 12.6-1.3 3.9-1.9 7.8-1.8 11.8.1 8.6 3.1 17.1 8.5 24 5.1 6.7 12.4 11.9 21.2 14.8 8.8 2.9 17.8 2.8 25.8.5 8.4-2.5 15.8-7.5 20.9-14.4 2.3-3.1 4.2-6.7 5.4-10.6 1.5-4.8 2-9.7 1.7-14.4Zm-50.7 28.9c-26.9-8.7-29.9-24-24.8-40 5.2-16 24.7-23.9 43.5-17.8 18.9 6.1 29.9 24 24.8 40-5.2 15.9-16.6 26.5-43.5 17.8Z"/><path fill="#635da8" fill-rule="nonzero" d="M802.2 168.9c3.6-12.3-2.3-25.6-13.8-33.7l-.9-.6c-.6-.4-1.3-.8-1.9-1.2-.3-.2-.6-.4-.9-.5-.3-.1-.5-.3-.8-.4-.3-.2-.6-.3-.9-.5-.5-.2-1-.5-1.5-.7-.5-.2-1.1-.5-1.7-.7-.6-.2-1.1-.4-1.7-.6l-1.8-.6c-.6-.2-1.2-.3-1.8-.5l-2.7-.6c-17.1-3.2-33.5 4.7-38.2 19.2-5.2 16-2.1 31.3 24.8 40 26.9 8.7 38.4-1.8 43.5-17.8.2-.3.3-.5.3-.8Z"/><path fill="#635da8" fill-opacity=".1" fill-rule="nonzero" d="M712.6 207.1c-.1.2-.3.4-.4.6.7 1 1.4 1.9 2.2 2.9 1.8-4 3.7-7.5 5.4-10.4-2.8 1.9-5.4 4.2-7.2 6.9Zm69.7 13.4c-.3 3.4-.8 7.4-1.8 11.6 1.2-.3 2.3-.7 3.5-1v-.8c.2-3.2-.6-6.6-1.7-9.8Z"/><g fill="#f8f9e6" fill-rule="nonzero"><path d="m539.8 273-10.9 5.9-5.9 10.9-6-10.9-10.8-5.9 10.8-6 6-10.8 5.9 10.8 10.9 6Z"/><path fill-opacity=".8" d="m370.4 334.2-10.9 5.9-5.9 10.9-6-10.9-10.8-5.9 10.8-6 6-10.8 5.9 10.8 10.9 6Z"/><path fill-opacity=".95" d="m744.4 352.5-10.8 5.9-6 10.9-5.9-10.9-10.9-5.9 10.9-6 5.9-10.8 6 10.8 10.8 6Z"/></g><path fill="#5d6e9d" fill-rule="nonzero" d="M845.1 500c85.7 195.4 3.9 425.8-189 522.3-199.2 99.7-441.4 19-541.1-180.2-55.6-111.1-55.1-235.6-9.2-341.2"/><path fill="#5f81a1" fill-opacity=".15" fill-rule="nonzero" d="M642 804.5c-197.4 79.2-421.6-16.6-500.8-214-9.4-23.5-16.2-47.3-20.8-71.2-32.8 87-34.8 185.9 2.6 279 79.2 197.4 303.4 293.2 500.8 214 173.9-69.8 268.8-252.2 234.8-429.6-36.7 97.5-112.3 180-216.6 221.8Z"/><path fill="#455477" fill-rule="nonzero" d="M154.4 708.4Zm10 1.6c-1-.1-2-.1-3-.3l3 .3Zm-3.8-.4c-.8-.1-1.6-.2-2.4-.4.9.2 1.6.3 2.4.4Zm-10-2.4c-.7-.3-1.4-.5-2.1-.8.7.3 1.4.5 2.1.8Zm-5.7-2.5c-.8-.4-1.7-.9-2.5-1.3.8.5 1.6.9 2.5 1.3Zm29.4 4.8c-1 .1-1.9.3-2.9.3.9 0 1.9-.1 2.9-.3Zm-32.7-6.5-1.8-1.2 1.8 1.2Zm6.1 3.1-2.7-1.2 2.7 1.2Zm19.8 4H165c.8-.1 1.6 0 2.5 0Zm-10.1-1c-1-.2-2-.4-3-.7 1 .2 2 .5 3 .7Zm23.5-1c-.9.3-1.9.5-2.8.7.9-.2 1.9-.4 2.8-.7Zm-3.6.9c-.7.2-1.5.3-2.2.4.7-.1 1.4-.2 2.2-.4Zm33.1-72c.3.6.6 1.1.9 1.7-.3-.6-.6-1.1-.9-1.7ZM199 623.1c.6.5 1.3 1.1 1.9 1.7-.6-.6-1.2-1.2-1.9-1.7Zm2.1 1.8c.7.6 1.3 1.3 1.9 1.9-.7-.6-1.3-1.3-1.9-1.9Zm-4.3-3.6 1.5 1.2c-.5-.4-.9-.8-1.5-1.2Zm10.3 10.5c.5.6.9 1.3 1.4 2-.5-.7-1-1.4-1.4-2Zm-12.6-12.1c.5.4 1.1.7 1.6 1.1-.6-.4-1.1-.8-1.6-1.1Zm10.9 9.9c.4.5.8 1 1.1 1.5-.3-.5-.7-1-1.1-1.5Zm-1.9-2.2c.4.5.9.9 1.3 1.4-.4-.4-.8-.9-1.3-1.4Zm-23.6-14.3c.9.3 1.9.5 2.8.8-.9-.3-1.9-.6-2.8-.8Zm3.6 1.1c.6.2 1.3.5 1.9.7-.6-.2-1.3-.5-1.9-.7Zm2.8 1.1c.6.3 1.2.5 1.8.8-.6-.3-1.2-.6-1.8-.8Zm2.6 1.2 2.4 1.2c-.8-.4-1.6-.9-2.4-1.2Zm2.5 1.3c.8.5 1.6.9 2.4 1.4-.8-.5-1.6-1-2.4-1.4Zm21.4 24.3c.3.7.6 1.5.8 2.2-.2-.8-.5-1.5-.8-2.2Zm-17.6 59.2c-.7.5-1.3.9-2 1.3.7-.4 1.3-.9 2-1.3Zm-5.3 3.2c-.9.4-1.7.9-2.6 1.3.8-.4 1.7-.9 2.6-1.3Zm18.7-70.5c.5.8.9 1.5 1.4 2.3-.5-.8-.9-1.6-1.4-2.3Zm-22 72c-.7.3-1.4.6-2.1.8.7-.2 1.4-.5 2.1-.8Zm5.8-2.9-2.1 1.2c.8-.4 1.5-.8 2.1-1.2Zm5.6-3.9c-.8.6-1.5 1.2-2.3 1.7.7-.5 1.5-1.1 2.3-1.7Zm-27.2 10.7c-.8.1-1.6.1-2.5.1.9 0 1.7 0 2.5-.1Zm40.9-70.3c.3.6.5 1.1.8 1.7-.3-.6-.5-1.2-.8-1.7Zm-11.5 57.7c-.6.5-1.1 1-1.7 1.5.6-.5 1.2-1 1.7-1.5Zm-23.1-84.9c.9.2 1.9.4 2.8.7-.9-.3-1.9-.5-2.8-.7Zm-15.1-.7c.6-.1 1.3-.1 1.9-.2-.6 0-1.2.1-1.9.2Zm-41.7 64.4c-.2-.8-.5-1.5-.7-2.3.2.8.4 1.6.7 2.3Zm14.5-52.6c.7-.6 1.4-1.2 2.1-1.7-.8.5-1.5 1.1-2.1 1.7ZM122.6 682c-.3-.7-.6-1.3-.9-2 .3.7.6 1.3.9 2Zm-1.2-2.7c-.4-.9-.7-1.8-1-2.7.3.9.7 1.8 1 2.7Zm16.1-58c.5-.4 1-.7 1.5-1.1-.4.3-1 .7-1.5 1.1Zm2.4-1.7c.5-.3 1.1-.7 1.6-1-.6.3-1.1.7-1.6 1Zm-8.1 75.5c-.7-.7-1.3-1.4-1.9-2.1.6.7 1.2 1.4 1.9 2.1Zm10.4-76.9c.8-.5 1.6-.9 2.4-1.3-.9.4-1.6.8-2.4 1.3Zm-12.6 74.5c-.5-.6-1.1-1.3-1.6-1.9.5.7 1.1 1.3 1.6 1.9Zm-5.5-7.8c-.4-.7-.8-1.4-1.1-2.1.4.7.7 1.4 1.1 2.1Zm1.7 2.8-1.5-2.4 1.5 2.4Zm1.7 2.4-1.2-1.8 1.2 1.8Z"/><path fill="#455477" fill-rule="nonzero" d="m202.9 694.7-2.1 2.1c6.5-6.1 11.5-14 13.9-23.2 2.7-9.9 2.1-19.9-1-28.9-.3-.5-27.3-45.1-79-21.1-7.2 6.2-12.6 14.6-15.3 24.5-2.3 8.7-2.2 17.5 0 25.6 1.1 2 27.5 56.6 83.5 21Z"/><path fill="#455477" fill-rule="nonzero" d="M159.2 612c.6-.1 1.3-.2 1.9-.3-.7.1-1.3.2-1.9.3Zm5.6-.6c.9 0 1.9-.1 2.8-.1-.9.1-1.9.1-2.8.1Zm-30.9 85.8c-.5-.5-1.1-1-1.6-1.5.6.5 1.1 1 1.6 1.5Zm33.7-85.8c.9 0 1.9.1 2.8.1-.9-.1-1.9-.1-2.8-.1Zm3.7.2c.7.1 1.3.1 2 .2-.7-.1-1.4-.2-2-.2Zm-18.3 1.8c.9-.3 1.7-.5 2.6-.7-.8.2-1.7.5-2.6.7Zm-5.2 2c.6-.2 1.2-.5 1.8-.7-.7.2-1.3.4-1.8.7Zm2.6-1.1 1.8-.6-1.8.6Zm23.8-2.4c.7.1 1.3.2 2 .3-.7-.1-1.3-.2-2-.3Zm-18.6.8 2.7-.6-2.7.6Zm-11.1 4.2 2.4-1.2c-.7.4-1.6.7-2.4 1.2Z"/><path fill-rule="nonzero" d="M210 636.3c.1.2.3.5.4.7-.2-.2-.3-.5-.4-.7Zm-9.1-11.6c.1 0 .1.1.2.1-.1 0-.2 0-.2-.1Zm7.5 9c.1.1.1.2.2.2-.1 0-.1-.1-.2-.2Zm-58.9-19.1.9-.3-.9.3Zm53.5 12.2.6.6c-.3-.2-.4-.4-.6-.6Zm1.8 2.1c.2.2.4.5.6.7-.2-.3-.4-.5-.6-.7Zm1.7 2.2c.2.2.4.5.5.7-.1-.3-.3-.5-.5-.7ZM147 615.7c.3-.1.5-.2.8-.3-.3.1-.6.2-.8.3Zm-5.5 2.9c.2-.1.5-.3.7-.4-.3.1-.5.3-.7.4Zm-2.4 1.6c.3-.2.5-.4.8-.5-.3.1-.6.3-.8.5Zm24.8-8.7c.3 0 .6 0 .9-.1-.3 0-.6.1-.9.1Zm49.8 33.1c0-.1-.1-.2-.1-.3.1.1.1.2.1.3 0-.1 0 0 0 0Zm-1.3-3.3c.1.3.2.5.4.8-.1-.3-.2-.6-.4-.8Zm-21.1-23.6s.1 0 .1.1c0-.1-.1-.1-.1-.1Zm-15.1-5.5c.3.1.6.1.9.2-.3-.1-.6-.1-.9-.2Zm6.5 1.7c.3.1.6.2.8.3-.3-.1-.5-.2-.8-.3Zm-9.5-2.1c.3 0 .7.1 1 .1-.3 0-.6-.1-1-.1Zm-2.8-.3c.3 0 .6 0 .9.1-.3-.1-.6-.1-.9-.1Zm-12.1.7c.3-.1.6-.1.8-.1-.2 0-.5 0-.8.1Zm-6.1 1.5c.3-.1.5-.2.8-.3-.3.1-.5.2-.8.3Zm8.9-1.9c.3 0 .6-.1 1-.1-.4 0-.7 0-1 .1Zm35 9c.3.2.5.4.8.6-.3-.3-.6-.4-.8-.6Zm-2.3-1.6c.2.2.5.3.7.5-.3-.2-.5-.4-.7-.5Zm4.5 3.3c.2.2.5.4.7.6-.2-.2-.4-.4-.7-.6Zm-61.4-.7c.2-.2.5-.3.7-.5-.3.1-.5.3-.7.5Zm48.5-6.9c.3.1.6.2.9.4-.3-.2-.6-.3-.9-.4Zm25.9 23.8c.1.3.3.6.4.9-.1-.3-.3-.6-.4-.9Z"/><path fill="#455477" fill-rule="nonzero" d="M213.7 644.5c0-.1-.1-.2-.1-.3-.3-.7-.5-1.5-.8-2.2-.1-.3-.2-.5-.4-.8-.2-.6-.5-1.1-.8-1.7-.1-.3-.3-.6-.4-.9-.3-.6-.6-1.1-.9-1.7-.1-.2-.3-.5-.4-.7-.4-.8-.9-1.6-1.4-2.3-.1-.1-.1-.2-.2-.2-.4-.7-.9-1.3-1.4-2-.2-.2-.4-.5-.5-.7-.4-.5-.8-1-1.1-1.5-.2-.2-.4-.5-.6-.7-.4-.5-.8-1-1.3-1.4l-.6-.6c-.6-.7-1.3-1.3-1.9-1.9-.1 0-.1-.1-.2-.1-.6-.6-1.2-1.1-1.9-1.7-.2-.2-.5-.4-.7-.6l-1.5-1.2c-.3-.2-.5-.4-.8-.6-.5-.4-1.1-.7-1.6-1.1-.2-.2-.5-.3-.7-.5-.8-.5-1.6-1-2.4-1.4 0 0-.1 0-.1-.1l-2.4-1.2c-.3-.1-.5-.3-.8-.4-.6-.3-1.2-.5-1.8-.8-.3-.1-.6-.3-.9-.4-.6-.2-1.2-.5-1.9-.7-.3-.1-.6-.2-.8-.3-.9-.3-1.8-.6-2.8-.8-.9-.3-1.9-.5-2.8-.7-.3-.1-.6-.1-.9-.2-.7-.1-1.3-.2-2-.3-.3 0-.7-.1-1-.1-.7-.1-1.3-.2-2-.2-.3 0-.6-.1-.9-.1-.9-.1-1.9-.1-2.8-.1-.9 0-1.9 0-2.8.1-.3 0-.6 0-.9.1-.6 0-1.3.1-1.9.2-.3 0-.6.1-1 .1-.6.1-1.3.2-1.9.3-.3 0-.6.1-.8.1-.9.2-1.8.3-2.7.6-.9.2-1.8.5-2.6.7-.3.1-.5.2-.8.3l-2.7.9c-.6.2-1.2.5-1.8.7-.3.1-.5.2-.8.3l-2.4 1.2c-.8.4-1.6.9-2.4 1.3-.2.1-.5.3-.7.4-.5.3-1.1.7-1.6 1-.3.2-.5.4-.8.5-.5.4-1 .7-1.5 1.1-.2.2-.5.3-.7.5-.7.6-1.4 1.1-2.1 1.7 52.1-23.9 79.1 20.6 79.4 21.1Z"/><path fill-rule="nonzero" d="M213.7 644.5c0-.1-.1-.2-.1-.3-.3-.7-.5-1.5-.8-2.2-.1-.3-.2-.5-.4-.8-.2-.6-.5-1.1-.8-1.7-.1-.3-.3-.6-.4-.9-.3-.6-.6-1.1-.9-1.7-.1-.2-.3-.5-.4-.7-.4-.8-.9-1.6-1.4-2.3-.1-.1-.1-.2-.2-.2-.4-.7-.9-1.3-1.4-2-.2-.2-.4-.5-.5-.7-.4-.5-.8-1-1.1-1.5-.2-.2-.4-.5-.6-.7-.4-.5-.8-1-1.3-1.4l-.6-.6c-.6-.7-1.3-1.3-1.9-1.9-.1 0-.1-.1-.2-.1-.6-.6-1.2-1.1-1.9-1.7-.2-.2-.5-.4-.7-.6l-1.5-1.2c-.3-.2-.5-.4-.8-.6-.5-.4-1.1-.7-1.6-1.1-.2-.2-.5-.3-.7-.5-.8-.5-1.6-1-2.4-1.4 0 0-.1 0-.1-.1l-2.4-1.2c-.3-.1-.5-.3-.8-.4-.6-.3-1.2-.5-1.8-.8-.3-.1-.6-.3-.9-.4-.6-.2-1.2-.5-1.9-.7-.3-.1-.6-.2-.8-.3-.9-.3-1.8-.6-2.8-.8-.9-.3-1.9-.5-2.8-.7-.3-.1-.6-.1-.9-.2-.7-.1-1.3-.2-2-.3-.3 0-.7-.1-1-.1-.7-.1-1.3-.2-2-.2-.3 0-.6-.1-.9-.1-.9-.1-1.9-.1-2.8-.1-.9 0-1.9 0-2.8.1-.3 0-.6 0-.9.1-.6 0-1.3.1-1.9.2-.3 0-.6.1-1 .1-.6.1-1.3.2-1.9.3-.3 0-.6.1-.8.1-.9.2-1.8.3-2.7.6-.9.2-1.8.5-2.6.7-.3.1-.5.2-.8.3l-2.7.9c-.6.2-1.2.5-1.8.7-.3.1-.5.2-.8.3l-2.4 1.2c-.8.4-1.6.9-2.4 1.3-.2.1-.5.3-.7.4-.5.3-1.1.7-1.6 1-.3.2-.5.4-.8.5-.5.4-1 .7-1.5 1.1-.2.2-.5.3-.7.5-.7.6-1.4 1.1-2.1 1.7 52.1-23.9 79.1 20.6 79.4 21.1Z"/><path fill="#fff" fill-opacity=".15" fill-rule="nonzero" d="M148.5 706.4c-.3-.1-.5-.2-.8-.3.3.1.5.2.8.3ZM165 710h-.6.6Zm-3.6-.3c-.3 0-.5-.1-.8-.1.3 0 .5.1.8.1Zm-10-2.2c-.3-.1-.6-.2-.8-.3.3.1.6.2.8.3Zm6.9 1.7c-.3-.1-.6-.1-.9-.2.3.1.6.2.9.2Zm-13.3-4.4s-.1 0-.1-.1c0 .1 0 .1.1.1Zm30 4.6c-.2 0-.5.1-.7.1.2 0 .5 0 .7-.1Zm-32.6-6c-.3-.1-.5-.3-.8-.5.3.2.5.4.8.5Zm28.9 6.5h-.5.5Zm-3 .1h-.9.9ZM128 690.8c-.2-.2-.3-.5-.5-.7.2.2.4.5.5.7Zm11.8 11c-.2-.2-.5-.3-.7-.5.2.2.5.3.7.5Zm-13.5-13.5c-.1-.2-.3-.4-.4-.6.1.2.2.4.4.6Zm-3.3-5.5c-.1-.3-.3-.5-.4-.8.1.2.3.5.4.8Zm-1.3-2.8c-.1-.2-.2-.5-.3-.7.1.2.2.5.3.7Zm-1.3-3.4c-.1-.2-.1-.3-.2-.5.1.2.2.4.2.5Zm9.4 16.4c-.1-.1-.2-.2-.2-.3.1.1.2.2.2.3Zm-10.3-19.5c0 .1.1.3.1.4 0-.1-.1-.2-.1-.4Zm17.3 26.1-.2-.2c0 .1.1.2.2.2Zm41.3 9.2c-.3.1-.5.1-.8.2.2-.1.5-.1.8-.2Zm-45.8-13.1-.6-.6c.3.2.5.4.6.6Zm2.2 2.1-.6-.6.6.6Zm-10.1-12.5c-.1-.1-.1-.3-.2-.4 0 .1.1.3.2.4Zm60.1 21.6c-.3.1-.5.2-.8.3.3-.1.5-.2.8-.3Zm2.8-1.1c-.2.1-.5.2-.7.3.2-.2.4-.2.7-.3Zm11.2-7c-.2.2-.4.3-.6.5.2-.2.4-.4.6-.5Zm-2.9 2.2c-.1.1-.3.2-.4.3.1-.1.3-.2.4-.3Zm-5.3 3.2c-.2.1-.3.2-.5.3.2-.1.4-.2.5-.3Zm2.9-1.6c-.2.2-.5.3-.7.4.2-.1.4-.2.7-.4Zm7.7-5.9-.6.6c.1-.2.4-.4.6-.6Z"/><path fill="#455477" fill-rule="nonzero" d="M183.7 707.2c.3-.1.5-.2.8-.3.7-.3 1.4-.5 2.1-.8.2-.1.5-.2.7-.3.9-.4 1.8-.8 2.6-1.3.2-.1.3-.2.5-.3l2.1-1.2c.2-.1.5-.3.7-.4.7-.4 1.4-.9 2-1.3.1-.1.3-.2.4-.3.8-.6 1.6-1.1 2.3-1.7.2-.2.4-.3.6-.5.6-.5 1.2-1 1.7-1.5l.6-.6c.7-.7 1.4-1.3 2.1-2.1-56 35.6-82.4-18.9-83.4-21.1 0 .1.1.2.1.3.2.8.4 1.5.7 2.3.1.2.1.3.2.5.3.9.6 1.8 1 2.7.1.2.2.5.3.7.3.7.6 1.3.9 2 .1.3.3.5.4.8.4.7.7 1.4 1.1 2.1.1.1.1.3.2.4l1.5 2.4c.1.2.3.4.4.6l1.2 1.8c.2.2.3.5.5.7.5.7 1 1.3 1.6 1.9.1.1.2.2.2.3.6.7 1.3 1.4 1.9 2.1l.6.6c.5.5 1 1 1.6 1.5l.6.6c.7.6 1.3 1.1 2 1.7l.2.2c.8.6 1.5 1.2 2.3 1.7.2.2.5.3.7.5l1.8 1.2c.2.2.5.3.8.5.8.5 1.6.9 2.5 1.3l.1.1 2.7 1.2c.3.1.5.2.8.3.7.3 1.4.5 2.1.8.3.1.6.2.8.3 1 .3 1.9.6 2.9.9 1 .3 2 .5 3 .7.3.1.6.1.9.2.8.1 1.6.3 2.4.4.3 0 .5.1.8.1l3 .3h.6c.8 0 1.7.1 2.5 0h.9c.8 0 1.6-.1 2.5-.1h.5c1-.1 2-.2 2.9-.3.2 0 .5-.1.7-.1.8-.1 1.5-.3 2.2-.4.3-.1.5-.1.8-.2 1-.2 1.9-.5 2.8-.7 1.2-.6 2.1-.9 3-1.2Z"/><path fill="#fff" fill-opacity=".15" fill-rule="nonzero" d="M183.7 707.2c.3-.1.5-.2.8-.3.7-.3 1.4-.5 2.1-.8.2-.1.5-.2.7-.3.9-.4 1.8-.8 2.6-1.3.2-.1.3-.2.5-.3l2.1-1.2c.2-.1.5-.3.7-.4.7-.4 1.4-.9 2-1.3.1-.1.3-.2.4-.3.8-.6 1.6-1.1 2.3-1.7.2-.2.4-.3.6-.5.6-.5 1.2-1 1.7-1.5l.6-.6c.7-.7 1.4-1.3 2.1-2.1-56 35.6-82.4-18.9-83.4-21.1 0 .1.1.2.1.3.2.8.4 1.5.7 2.3.1.2.1.3.2.5.3.9.6 1.8 1 2.7.1.2.2.5.3.7.3.7.6 1.3.9 2 .1.3.3.5.4.8.4.7.7 1.4 1.1 2.1.1.1.1.3.2.4l1.5 2.4c.1.2.3.4.4.6l1.2 1.8c.2.2.3.5.5.7.5.7 1 1.3 1.6 1.9.1.1.2.2.2.3.6.7 1.3 1.4 1.9 2.1l.6.6c.5.5 1 1 1.6 1.5l.6.6c.7.6 1.3 1.1 2 1.7l.2.2c.8.6 1.5 1.2 2.3 1.7.2.2.5.3.7.5l1.8 1.2c.2.2.5.3.8.5.8.5 1.6.9 2.5 1.3l.1.1 2.7 1.2c.3.1.5.2.8.3.7.3 1.4.5 2.1.8.3.1.6.2.8.3 1 .3 1.9.6 2.9.9 1 .3 2 .5 3 .7.3.1.6.1.9.2.8.1 1.6.3 2.4.4.3 0 .5.1.8.1l3 .3h.6c.8 0 1.7.1 2.5 0h.9c.8 0 1.6-.1 2.5-.1h.5c1-.1 2-.2 2.9-.3.2 0 .5-.1.7-.1.8-.1 1.5-.3 2.2-.4.3-.1.5-.1.8-.2 1-.2 1.9-.5 2.8-.7 1.2-.6 2.1-.9 3-1.2Z"/><path fill="#455477" fill-rule="nonzero" d="M590 810.2c-3.4 3-6 6.9-7.3 11.6-1.1 4.2-1 8.4.1 12.3.9 1.9 13.5 26.6 39.6 10 2.6-2.7 4.6-6.2 5.6-10.1 1.3-4.7 1-9.5-.5-13.8-.1-.2-13-21.4-37.5-10Zm16.5-5.7h.3-.3Zm7 1.4c.1.1.3.1.4.2-.1-.1-.3-.1-.4-.2Zm-4.6-1.2c.1 0 .3 0 .4.1-.1 0-.3 0-.4-.1Zm-4.6-.2h.3-.3Zm-21.1 31.2c0-.1-.1-.1-.1-.2.1.1.1.2.1.2Zm8.3-26.7.3-.3c0 .1-.2.2-.3.3Zm2-1.3c.1-.1.2-.1.3-.2-.1.1-.2.1-.3.2Zm1.9-1c.1 0 .2-.1.3-.1-.1 0-.2 0-.3.1Zm2.1-.9c.1 0 .3-.1.4-.1-.1 0-.2.1-.4.1Zm26.9 8.4c.1.1.1.2.2.3-.1-.1-.1-.2-.2-.3Zm1.2 1.8c.1.1.1.2.2.3-.1-.1-.2-.2-.2-.3Zm-2.7-3.6.3.3-.3-.3Zm3.7 5.6c.1.1.1.3.2.4-.1-.1-.1-.2-.2-.4Zm-7-8.7.3.3-.3-.3Zm-35.5 28.6c-.1-.2-.1-.3-.2-.5.1.2.1.3.2.5Zm33.6-29.9c.1.1.2.1.3.2-.1-.1-.2-.2-.3-.2Zm-1.9-1.1c.1.1.2.1.3.2-.1-.1-.2-.1-.3-.2Zm-7.1 44.3h-.4.4Z"/><path fill="#455477" fill-rule="nonzero" d="M601.9 804.7c.1 0 .3 0 .4-.1-.1.1-.3.1-.4.1Zm13.4 44.5c-.1.1-.2.1-.4.2.2-.1.3-.2.4-.2Zm-18.1.7c-.2-.1-.3-.1-.5-.2.2.1.4.2.5.2Zm20.1-1.8c-.1.1-.3.2-.4.3.1-.1.2-.2.4-.3Zm-22.4.8s-.1 0 0 0c-.1 0 0 0 0 0Zm24.2-2-.2.2c.1-.1.2-.1.2-.2Zm-8 3.8c-.2 0-.3.1-.5.1.2-.1.4-.1.5-.1Zm-4.5.7h-.5.5Zm-4.7-.3c-.2 0-.4-.1-.6-.1.3.1.4.1.6.1Zm19-5.6c-.1.1-.3.2-.4.3.2-.1.3-.2.4-.3Zm-16.9 5.9h-.3c.1-.1.2 0 .3 0Zm9.1-1.3c-.1.1-.3.1-.4.1.1 0 .3-.1.4-.1Zm-28-10.3c0-.1-.1-.1-.1-.2 0 .1.1.1.1.2Zm4.3 5.3c-.1-.1-.2-.2-.4-.3.1.1.3.2.4.3Zm-1.7-1.7-.1-.1c.1 0 .1.1.1.1Zm-1.3-1.7c-.1-.1-.2-.3-.3-.4.1.2.2.3.3.4Zm4.6 4.8s-.1 0 0 0c-.1 0 0 0 0 0Zm2 1.4c-.1-.1-.3-.2-.4-.3.1.1.3.2.4.3Z"/><path fill-rule="nonzero" d="M602.3 804.7c.7-.1 1.3-.1 2-.2-.7 0-1.3.1-2 .2Zm2.3-.2h1.9-1.9Zm-8.9 2c.6-.3 1.2-.5 1.8-.7-.6.2-1.2.5-1.8.7Zm-3.8 2.2c.5-.4 1.1-.7 1.6-1.1-.5.4-1.1.7-1.6 1.1Zm6-3c.6-.2 1.3-.4 1.9-.6-.6.2-1.2.4-1.9.6Zm2-.6c.7-.2 1.3-.3 2-.4-.7.1-1.4.2-2 .4Zm-9.9 5.1c.5-.4 1-.9 1.6-1.2-.6.4-1.1.8-1.6 1.2Zm28-2.1c.6.4 1.1.7 1.6 1.2-.5-.4-1.1-.8-1.6-1.2Zm2 1.5c.5.4 1 .9 1.5 1.3-.5-.5-1-.9-1.5-1.3Zm3.2 3.1 1.2 1.5-1.2-1.5Zm-1.7-1.8 1.4 1.4-1.4-1.4Zm3.1 3.6c.3.5.7 1 1 1.5-.3-.5-.7-1-1-1.5Zm2.9 5.7c-.2-.6-.5-1.2-.7-1.8.3.6.5 1.2.7 1.8Zm-1.8-3.9c.3.6.6 1.2.9 1.7-.3-.6-.6-1.2-.9-1.7Zm-18.9-11.8c.7 0 1.4.1 2 .2-.6-.1-1.3-.1-2-.2Zm4.6.8c.7.2 1.4.4 2 .7-.6-.3-1.3-.6-2-.7Zm-2.1-.5c.7.1 1.4.3 2.1.5-.7-.2-1.4-.4-2.1-.5Zm6.8 2.3c.6.3 1.1.6 1.6.9-.5-.3-1.1-.7-1.6-.9Z"/><path fill="#455477" fill-rule="nonzero" d="M627.5 820.2c-.2-.6-.5-1.2-.7-1.8-.1-.1-.1-.3-.2-.4-.3-.6-.6-1.2-.9-1.7 0-.1-.1-.2-.2-.3-.3-.5-.6-1-1-1.5-.1-.1-.1-.2-.2-.3l-1.2-1.5-.3-.3c-.4-.5-.9-1-1.4-1.4-.5-.5-1-.9-1.5-1.3l-.3-.3c-.5-.4-1.1-.8-1.6-1.2-.1-.1-.2-.1-.3-.2-.5-.3-1.1-.6-1.6-.9-.1-.1-.2-.1-.3-.2-.6-.3-1.2-.6-1.9-.8-.1-.1-.3-.1-.4-.2-.7-.2-1.3-.5-2-.7-.7-.2-1.4-.3-2.1-.5-.1 0-.3-.1-.4-.1-.7-.1-1.4-.2-2-.2h-2.5c-.7 0-1.3.1-2 .2-.1 0-.3 0-.4.1-.7.1-1.3.2-2 .4s-1.3.4-1.9.6c-.1 0-.3.1-.4.1-.6.2-1.2.5-1.8.7-.1 0-.2.1-.3.1-.5.3-1.1.5-1.6.8-.1.1-.2.1-.3.2-.6.3-1.1.7-1.6 1.1l-.3.3c-.5.4-1.1.8-1.6 1.2 24.2-11.4 37.1 9.8 37.2 10Z"/><path fill-rule="nonzero" d="M627.5 820.2c-.2-.6-.5-1.2-.7-1.8-.1-.1-.1-.3-.2-.4-.3-.6-.6-1.2-.9-1.7 0-.1-.1-.2-.2-.3-.3-.5-.6-1-1-1.5-.1-.1-.1-.2-.2-.3l-1.2-1.5-.3-.3c-.4-.5-.9-1-1.4-1.4-.5-.5-1-.9-1.5-1.3l-.3-.3c-.5-.4-1.1-.8-1.6-1.2-.1-.1-.2-.1-.3-.2-.5-.3-1.1-.6-1.6-.9-.1-.1-.2-.1-.3-.2-.6-.3-1.2-.6-1.9-.8-.1-.1-.3-.1-.4-.2-.7-.2-1.3-.5-2-.7-.7-.2-1.4-.3-2.1-.5-.1 0-.3-.1-.4-.1-.7-.1-1.4-.2-2-.2h-2.5c-.7 0-1.3.1-2 .2-.1 0-.3 0-.4.1-.7.1-1.3.2-2 .4s-1.3.4-1.9.6c-.1 0-.3.1-.4.1-.6.2-1.2.5-1.8.7-.1 0-.2.1-.3.1-.5.3-1.1.5-1.6.8-.1.1-.2.1-.3.2-.6.3-1.1.7-1.6 1.1l-.3.3c-.5.4-1.1.8-1.6 1.2 24.2-11.4 37.1 9.8 37.2 10Z"/><path fill="#fff" fill-opacity=".15" fill-rule="nonzero" d="M599.3 850.6c-.7-.2-1.4-.4-2-.7.6.3 1.3.5 2 .7Zm-6.7-3c-.5-.4-1.1-.7-1.6-1.1.5.4 1 .8 1.6 1.1Zm24.2.8c-.5.3-1 .5-1.5.8.5-.3 1-.5 1.5-.8Zm-20.1 1.3c-.6-.3-1.3-.5-1.9-.8.7.3 1.3.6 1.9.8Zm22.2-2.6c-.5.4-1.1.7-1.7 1.1.6-.4 1.2-.8 1.7-1.1Zm-8.2 3.7c-.6.2-1.3.3-2 .4.6-.1 1.3-.3 2-.4Zm-6.9.5c-.6 0-1.2-.1-1.8-.2.5.1 1.2.2 1.8.2Zm2.3.1H604h2.1Zm-4.7-.4c-.7-.1-1.4-.3-2.1-.4.7.2 1.4.3 2.1.4Zm19.1-5.2c-.5.4-.9.7-1.4 1.1.5-.3 1-.7 1.4-1.1Zm-5.5 3.5c-.6.3-1.2.5-1.8.7.6-.2 1.2-.4 1.8-.7Zm-6.7 1.9c-.6.1-1.1.1-1.7.2.6-.1 1.1-.1 1.7-.2Zm-13.5-2.3c-.6-.3-1.2-.7-1.8-1 .6.4 1.2.7 1.8 1Zm-8.7-7.6c-.3-.5-.7-1-1-1.5.3.5.6 1 1 1.5Zm2.9 3.5c-.5-.4-.9-.9-1.3-1.4.4.5.9.9 1.3 1.4Zm1.9 1.6c-.5-.4-1-.9-1.5-1.3.5.5 1 .9 1.5 1.3Zm-5.9-6.8-.9-1.8c.3.7.6 1.3.9 1.8Zm-2.3-5.6c.1.5.3 1 .5 1.5-.2-.5-.3-.9-.4-1.4l-.1-.1Zm1.2 3.4c-.2-.6-.5-1.1-.7-1.7.2.6.5 1.2.7 1.7Zm38.5 6.7c-.5.5-1 .9-1.5 1.4.5-.5 1-.9 1.5-1.4Zm-9.7 6.1c-.5.2-1 .3-1.6.5.5-.2 1.1-.3 1.6-.5Z"/><path fill="#455477" fill-rule="nonzero" d="M582.7 834.1c.1.5.3.9.4 1.4 0 .1.1.1.1.2.2.6.4 1.1.7 1.7.1.2.1.3.2.5l.9 1.8c0 .1.1.1.1.2.3.5.6 1 1 1.5.1.1.2.3.3.4.4.5.8 1.1 1.2 1.6l.1.1c.4.5.8.9 1.3 1.4.1.1.2.2.4.3.5.5 1 .9 1.5 1.3 0 0 .1 0 .1.1.5.4 1 .8 1.6 1.1.1.1.3.2.4.3.6.4 1.2.7 1.8 1 .6.3 1.2.6 1.9.8.2.1.3.1.5.2.7.2 1.3.5 2 .7.7.2 1.4.3 2.1.4.2 0 .4.1.6.1.6.1 1.2.2 1.8.2h2.9c.6 0 1.1-.1 1.7-.2h.4c.7-.1 1.3-.2 2-.4.2 0 .3-.1.5-.1.5-.1 1.1-.3 1.6-.5.1 0 .3-.1.4-.1.6-.2 1.2-.5 1.8-.7.1-.1.2-.1.4-.2.5-.2 1-.5 1.5-.8.1-.1.3-.2.4-.3.6-.3 1.1-.7 1.7-1.1.1 0 .1-.1.2-.2.5-.3.9-.7 1.4-1.1.1-.1.3-.2.4-.3.5-.4 1-.9 1.5-1.4-26.3 16.7-38.9-8-39.8-9.9Z"/><path fill="#fff" fill-opacity=".15" fill-rule="nonzero" d="M582.7 834.1c.1.5.3.9.4 1.4 0 .1.1.1.1.2.2.6.4 1.1.7 1.7.1.2.1.3.2.5l.9 1.8c0 .1.1.1.1.2.3.5.6 1 1 1.5.1.1.2.3.3.4.4.5.8 1.1 1.2 1.6l.1.1c.4.5.8.9 1.3 1.4.1.1.2.2.4.3.5.5 1 .9 1.5 1.3 0 0 .1 0 .1.1.5.4 1 .8 1.6 1.1.1.1.3.2.4.3.6.4 1.2.7 1.8 1 .6.3 1.2.6 1.9.8.2.1.3.1.5.2.7.2 1.3.5 2 .7.7.2 1.4.3 2.1.4.2 0 .4.1.6.1.6.1 1.2.2 1.8.2h2.9c.6 0 1.1-.1 1.7-.2h.4c.7-.1 1.3-.2 2-.4.2 0 .3-.1.5-.1.5-.1 1.1-.3 1.6-.5.1 0 .3-.1.4-.1.6-.2 1.2-.5 1.8-.7.1-.1.2-.1.4-.2.5-.2 1-.5 1.5-.8.1-.1.3-.2.4-.3.6-.3 1.1-.7 1.7-1.1.1 0 .1-.1.2-.2.5-.3.9-.7 1.4-1.1.1-.1.3-.2.4-.3.5-.4 1-.9 1.5-1.4-26.3 16.7-38.9-8-39.8-9.9Z"/><path fill="#455477" fill-rule="nonzero" d="M683.6 594.2Zm8.2 2.6c-.2 0-.4-.1-.6-.1.1 0 .4.1.6.1Zm24.4-45.2c.1.1.2.2.3.4-.1-.1-.2-.2-.3-.4Zm-34.2-5.4c.1-.1.2-.1.3-.2-.1.1-.2.1-.3.2Zm4.3 49.2c-.2-.1-.4-.1-.6-.2.2.1.4.1.6.2Zm-2.1-50.4c.1-.1.2-.1.3-.2-.1.1-.2.2-.3.2Z"/><path fill="#455477" fill-rule="nonzero" d="M715.6 588.6c3-3.2 5.3-7.2 6.6-11.7 1.5-5.5 1.2-11-.6-16-.2-.3-15.2-25-43.7-11.7-4 3.5-7 8.1-8.5 13.5-1.3 4.9-1.2 9.8.1 14.3 1 2.2 15.6 31 46.1 11.6Zm-44.6-7.3c-.1-.2-.2-.4-.2-.5.1.2.1.4.2.5Zm23.5-38.8h.4-.4Z"/><path fill="#455477" fill-rule="nonzero" d="M681.4 593c-.2-.1-.3-.2-.5-.3.2.1.3.2.5.3Zm10.3-50.2c.2 0 .3-.1.5-.1-.1 0-.3 0-.5.1Zm-5 1.2c.2-.1.3-.1.5-.2-.2.1-.4.2-.5.2Zm10.4-1.5h.4-.4Zm.1 54.6h-.6.6Zm10.2-2.6c-.1.1-.3.1-.4.2.1-.1.2-.1.4-.2Zm-13.2 2.6h-.3c.1-.1.2 0 .3 0Zm15.4-3.8c-.2.1-.3.2-.5.3.2-.1.4-.2.5-.3Zm-34.4-5.5-.1-.1c.1 0 .1.1.1.1Zm29.6 7.7c-.2.1-.3.1-.5.2.2 0 .4-.1.5-.2Zm15.7-37.3c.1.2.1.3.2.5 0-.2-.1-.3-.2-.5Zm-41.4 33.2Zm.6-43.7c.1-.1.3-.2.4-.3-.2.1-.3.2-.4.3Zm-2.5 42.1-.4-.4c.1.1.2.3.4.4Zm-3.5-3.9c-.1-.2-.2-.3-.3-.5.1.1.2.3.3.5Zm38.1 6c-.1.1-.2.1-.2.2.1-.1.1-.2.2-.2Zm2.1-1.7c-.2.1-.3.3-.5.4.2-.1.3-.3.5-.4Zm5.4-34.3c.1.1.1.2.2.3-.1-.1-.2-.2-.2-.3Zm-1.4-2.1c.1.1.2.2.2.3 0-.1-.1-.2-.2-.3Zm-12.7-9.6c.2.1.3.1.5.2-.2-.1-.3-.2-.5-.2Zm-2.7 52.1c-.2 0-.4.1-.5.1.1 0 .3-.1.5-.1Zm-2.6-53.5c.2 0 .3.1.5.1-.2-.1-.4-.1-.5-.1Zm8 2.5c.1.1.2.1.4.2-.2-.1-.3-.1-.4-.2Zm6.6 4.6Zm-2.1-1.8c.1.1.3.2.4.3-.2-.1-.3-.2-.4-.3Zm-2.3-1.5c.1.1.2.1.3.2 0-.1-.2-.2-.3-.2Zm-10.5 50.2c-.2 0-.3 0-.5.1.2 0 .4-.1.5-.1Zm-27.4-13.2c0-.1-.1-.1-.1-.2 0 .1.1.1.1.2Zm-2.2-4.7c0-.1-.1-.2-.1-.2s.1.1.1.2Z"/><path fill-rule="nonzero" d="M716.5 552c.5.6 1 1.2 1.4 1.8-.4-.6-.9-1.2-1.4-1.8Zm1.7 2.1c.4.6.8 1.2 1.1 1.8-.4-.6-.7-1.2-1.1-1.8Zm-10-8.6c.6.3 1.3.7 1.9 1.1-.6-.4-1.2-.8-1.9-1.1Zm4.6 2.9 1.8 1.5-1.8-1.5Zm-20.6-5.7c.8-.1 1.5-.2 2.3-.2-.7 0-1.5.1-2.3.2Zm18.3 4c.7.4 1.3.9 1.9 1.3-.7-.4-1.3-.8-1.9-1.3Zm-13-4.2c.8.1 1.6.1 2.4.3l-2.4-.3Zm22 13.7c.4.7.7 1.3 1 2-.3-.6-.7-1.3-1-2Zm-13.8-11.9c.7.3 1.5.6 2.2 1-.7-.4-1.4-.7-2.2-1Zm-23.4 1.7c.6-.3 1.2-.7 1.9-1-.6.3-1.3.7-1.9 1Zm20.5-2.6c.8.2 1.6.5 2.4.8-.8-.3-1.6-.6-2.4-.8Zm-2.4-.5c.8.1 1.6.3 2.4.5-.8-.2-1.6-.4-2.4-.5Zm-5.5-.4h2.2-2.2Zm-10.4 2.4c.7-.3 1.4-.6 2.1-.8-.7.2-1.4.5-2.1.8Zm30.1 5.1c.6.5 1.1 1.1 1.6 1.7-.5-.6-1-1.2-1.6-1.7Zm-36.8-.8 1.8-1.5c-.6.5-1.2.9-1.8 1.5Zm43.8 11.6c-.3-.7-.5-1.4-.9-2.1l.9 2.1Zm-32.2-17.6c.8-.2 1.5-.3 2.3-.4-.8.1-1.5.2-2.3.4Zm-2.3.7c.7-.2 1.5-.5 2.3-.7-.8.2-1.5.4-2.3.7Zm-7 3.5c.6-.4 1.3-.9 1.9-1.2-.7.4-1.3.8-1.9 1.2Z"/><path fill="#455477" fill-rule="nonzero" d="M721.6 560.8c-.2-.7-.5-1.4-.8-2.1-.1-.2-.1-.3-.2-.5-.3-.7-.7-1.4-1-2-.1-.1-.1-.2-.2-.3-.4-.6-.7-1.2-1.1-1.8-.1-.1-.2-.2-.2-.3-.4-.6-.9-1.2-1.4-1.8-.1-.1-.2-.2-.3-.4-.5-.6-1-1.1-1.6-1.7l-1.8-1.5c-.1-.1-.3-.2-.4-.3-.6-.5-1.2-.9-1.9-1.3-.1-.1-.2-.1-.3-.2-.6-.4-1.2-.7-1.9-1.1-.1-.1-.2-.1-.4-.2-.7-.3-1.4-.7-2.2-1-.2-.1-.3-.1-.5-.2-.8-.3-1.6-.5-2.4-.8-.8-.3-1.6-.4-2.4-.5-.2 0-.3-.1-.5-.1l-2.4-.3h-3c-.8 0-1.6.1-2.3.2-.2 0-.3 0-.5.1-.8.1-1.6.3-2.3.4-.8.2-1.5.4-2.3.7-.2.1-.3.1-.5.2-.7.3-1.4.5-2.1.8-.1.1-.2.1-.3.2-.6.3-1.3.6-1.9 1-.1.1-.2.1-.3.2-.7.4-1.3.8-1.9 1.2-.1.1-.3.2-.4.3-.6.5-1.3.9-1.8 1.5 28.3-13.3 43.3 11.3 43.5 11.6Z"/><path fill-rule="nonzero" d="M721.6 560.8c-.2-.7-.5-1.4-.8-2.1-.1-.2-.1-.3-.2-.5-.3-.7-.7-1.4-1-2-.1-.1-.1-.2-.2-.3-.4-.6-.7-1.2-1.1-1.8-.1-.1-.2-.2-.2-.3-.4-.6-.9-1.2-1.4-1.8-.1-.1-.2-.2-.3-.4-.5-.6-1-1.1-1.6-1.7l-1.8-1.5c-.1-.1-.3-.2-.4-.3-.6-.5-1.2-.9-1.9-1.3-.1-.1-.2-.1-.3-.2-.6-.4-1.2-.7-1.9-1.1-.1-.1-.2-.1-.4-.2-.7-.3-1.4-.7-2.2-1-.2-.1-.3-.1-.5-.2-.8-.3-1.6-.5-2.4-.8-.8-.3-1.6-.4-2.4-.5-.2 0-.3-.1-.5-.1l-2.4-.3h-3c-.8 0-1.6.1-2.3.2-.2 0-.3 0-.5.1-.8.1-1.6.3-2.3.4-.8.2-1.5.4-2.3.7-.2.1-.3.1-.5.2-.7.3-1.4.5-2.1.8-.1.1-.2.1-.3.2-.6.3-1.3.6-1.9 1-.1.1-.2.1-.3.2-.7.4-1.3.8-1.9 1.2-.1.1-.3.2-.4.3-.6.5-1.3.9-1.8 1.5 28.3-13.3 43.3 11.3 43.5 11.6Z"/><path fill="#fff" fill-opacity=".15" fill-rule="nonzero" d="M672.1 583.4c-.4-.7-.7-1.4-1.1-2.1.3.7.7 1.4 1.1 2.1Zm1.2 2-1.2-1.8 1.2 1.8Zm-2.5-4.6c-.3-.6-.5-1.3-.8-2 .2.7.5 1.4.8 2Zm31.1 15.6c-.8.2-1.5.3-2.3.4.8-.1 1.6-.2 2.3-.4Zm-26.8-8.7c-.5-.6-1-1.2-1.4-1.8.4.6.9 1.2 1.4 1.8Zm18.8 9.3c-.7 0-1.4-.1-2.1-.2.7.1 1.4.2 2.1.2Zm21.7-8.4c-.5.6-1.1 1.1-1.7 1.6.6-.5 1.2-1 1.7-1.6Zm-2.2 2c-.5.4-1.1.9-1.6 1.3.6-.4 1.1-.9 1.6-1.3Zm-1.8 1.5c-.6.4-1.3.9-1.9 1.3.6-.5 1.2-.9 1.9-1.3Zm-34.9-2.7c-.5-.5-1-1-1.5-1.6.5.6 1 1.1 1.5 1.6Zm19.9 7.7h-2.4 2.4Zm7.7-1.4c-.6.2-1.2.4-1.8.5.6-.1 1.2-.3 1.8-.5Zm-5.1 1.2c-.7.1-1.3.1-2 .2.7-.1 1.3-.1 2-.2Zm7.8-2.2-2.1.9 2.1-.9Zm2.1-1.1c-.6.3-1.1.6-1.7.9.6-.3 1.1-.6 1.7-.9Zm-39.7-16.7c.2.6.3 1.2.5 1.8-.2-.5-.3-1.1-.5-1.6v-.2Zm21.7 19.8c-.8-.1-1.6-.3-2.4-.5.8.2 1.6.4 2.4.5Zm-2.4-.5c-.8-.2-1.6-.5-2.4-.8.8.3 1.6.6 2.4.8Zm-9.7-4.9-1.8-1.5c.5.5 1.1 1 1.8 1.5Zm4.5 2.9-2.1-1.2 2.1 1.2Zm-2.6-1.5c-.6-.4-1.3-.8-1.9-1.3.6.5 1.3.9 1.9 1.3Zm4.8 2.5c-.7-.3-1.5-.6-2.2-1 .8.4 1.5.7 2.2 1Z"/><path fill="#455477" fill-rule="nonzero" d="M669.4 577c.2.5.3 1.1.5 1.6 0 .1.1.2.1.2.2.7.5 1.3.8 2 .1.2.2.4.2.5.3.7.7 1.4 1.1 2.1 0 .1.1.1.1.2l1.2 1.8c.1.2.2.3.3.5.5.6.9 1.2 1.4 1.8l.1.1c.5.5 1 1.1 1.5 1.6l.4.4 1.8 1.5s.1 0 .1.1c.6.5 1.2.9 1.9 1.3.2.1.3.2.5.3l2.1 1.2h.1c.7.3 1.4.7 2.2 1 .2.1.4.2.6.2.8.3 1.6.5 2.4.8.8.2 1.6.4 2.4.5.2 0 .4.1.6.1.7.1 1.4.2 2.1.2h3.3c.7 0 1.3-.1 2-.2.2 0 .3 0 .5-.1.8-.1 1.5-.3 2.3-.4.2 0 .4-.1.5-.1.6-.2 1.2-.3 1.8-.5.2-.1.3-.1.5-.2.7-.3 1.4-.5 2.1-.9.1-.1.3-.1.4-.2.6-.3 1.2-.6 1.7-.9.2-.1.3-.2.5-.3.7-.4 1.3-.8 1.9-1.3.1-.1.2-.1.2-.2.6-.4 1.1-.8 1.6-1.3.2-.1.3-.3.5-.4.6-.5 1.2-1.1 1.7-1.6-30.3 19.6-44.9-9.2-46-11.4Z"/><path fill="#fff" fill-opacity=".15" fill-rule="nonzero" d="M669.4 577c.2.5.3 1.1.5 1.6 0 .1.1.2.1.2.2.7.5 1.3.8 2 .1.2.2.4.2.5.3.7.7 1.4 1.1 2.1 0 .1.1.1.1.2l1.2 1.8c.1.2.2.3.3.5.5.6.9 1.2 1.4 1.8l.1.1c.5.5 1 1.1 1.5 1.6l.4.4 1.8 1.5s.1 0 .1.1c.6.5 1.2.9 1.9 1.3.2.1.3.2.5.3l2.1 1.2h.1c.7.3 1.4.7 2.2 1 .2.1.4.2.6.2.8.3 1.6.5 2.4.8.8.2 1.6.4 2.4.5.2 0 .4.1.6.1.7.1 1.4.2 2.1.2h3.3c.7 0 1.3-.1 2-.2.2 0 .3 0 .5-.1.8-.1 1.5-.3 2.3-.4.2 0 .4-.1.5-.1.6-.2 1.2-.3 1.8-.5.2-.1.3-.1.5-.2.7-.3 1.4-.5 2.1-.9.1-.1.3-.1.4-.2.6-.3 1.2-.6 1.7-.9.2-.1.3-.2.5-.3.7-.4 1.3-.8 1.9-1.3.1-.1.2-.1.2-.2.6-.4 1.1-.8 1.6-1.3.2-.1.3-.3.5-.4.6-.5 1.2-1.1 1.7-1.6-30.3 19.6-44.9-9.2-46-11.4Z"/><path fill="#455477" fill-rule="nonzero" d="M603.6 922.4c.4.1.9.3 1.3.4-.5-.2-.9-.3-1.3-.4Zm-11.3 18.8c-.2-.2-.4-.5-.6-.7.2.2.4.4.6.7Zm6.8 3.4c-.5-.1-.9-.1-1.4-.3.4.2.9.3 1.4.3Zm.5-22.6h.9-.9Zm4 22.3c-.4.1-.7.2-1.1.2.4 0 .7-.1 1.1-.2Z"/><path fill="#455477" fill-rule="nonzero" d="M589.6 930.4c-.5 2-.5 4.1 0 5.9.4.9 6.5 12.9 19.2 4.8 1.3-1.3 2.2-3 2.7-4.9.6-2.3.5-4.6-.2-6.7-.1-.1-6.3-10.4-18.2-4.9-1.6 1.6-2.9 3.5-3.5 5.8Zm11.3-8.4c.3 0 .6 0 .9.1-.3-.1-.6-.1-.9-.1Z"/><path fill="#455477" fill-rule="nonzero" d="M596 943.7c-.3-.1-.6-.3-.9-.5.3.2.6.4.9.5Zm-.4-20.5c.3-.1.5-.2.8-.4-.3.1-.5.2-.8.4Zm6.7 21.4c-.4.1-.9.1-1.4.1.5 0 .9 0 1.4-.1Zm-4.6-.2c-.5-.1-.9-.3-1.3-.5.4.2.8.3 1.3.5Zm-6.2-4.3c-.3-.4-.5-.7-.7-1.1.2.4.4.8.7 1.1Zm5.3-17.4c.8-.3 1.6-.5 2.4-.6-.8.1-1.7.3-2.4.6Zm3.7 22c-.4 0-.7 0-1.1-.1.4.1.8.1 1.1.1Zm-10.5-7.2-.3-.9.3.9Zm18.4-12.4.9.9-.9-.9Zm-.9-.8c.3.2.6.5.9.8-.3-.3-.6-.6-.9-.8Zm-1.1 18.8-1.2.6c.5-.1.9-.3 1.2-.6Zm0-19.5c.3.2.5.3.7.5-.2-.2-.4-.4-.7-.5Zm-11.7 19.5c-.4-.2-.8-.5-1.1-.8.4.3.7.6 1.1.8Zm7.6-21c.4.1.9.1 1.3.3-.5-.1-.9-.2-1.3-.3Zm5.3 20.2c-.3.2-.6.4-.8.6.2-.1.5-.3.8-.6Zm-14 0c-.3-.3-.6-.5-.9-.8.2.2.5.5.9.8Zm11.6-19.3c.3.1.6.3.8.4-.3-.2-.5-.3-.8-.4Zm-.2 20.8c-.3.1-.7.3-1 .4.3-.1.7-.2 1-.4Zm3.9-2.6c-.3.3-.6.6-1 .9.3-.3.7-.6 1-.9Zm1.4-13.8c.2.2.3.5.4.8-.1-.3-.3-.6-.4-.8Zm-15.8-3.6c.2-.2.5-.3.7-.4-.2.1-.5.2-.7.4Zm16.4 4.7c.2.3.3.7.4 1.1-.1-.4-.3-.8-.4-1.1Zm-17.8-3.7c.3-.3.6-.5 1-.8-.3.3-.6.5-1 .8Z"/><path fill-rule="nonzero" d="M595.2 923.4c.1-.1.3-.1.4-.2-.1 0-.3.1-.4.2Zm1.2-.6c.1 0 .2-.1.4-.1-.2 0-.3.1-.4.1Zm15 6.8s-.1 0 0 0c-.1 0-.1 0 0 0Zm-10.9-7.6h.5-.5Zm5.5 1.4c.1.1.3.1.4.2-.1-.1-.3-.2-.4-.2Zm-6.8-1.3h.4-.4ZM610 927c.1.1.2.2.2.4 0-.1-.1-.3-.2-.4Zm-2.9-2.9c.1.1.2.2.3.2 0-.1-.2-.2-.3-.2Zm-13-.1c.1-.1.2-.1.3-.2 0 .1-.2.1-.3.2Zm15.2 2c.1.1.2.2.2.3-.1-.1-.1-.2-.2-.3Zm-4.5-3.2c.1 0 .2.1.4.2-.1-.1-.3-.2-.4-.2Zm-3-.7h.4-.4Zm8.9 6c.1.1.1.2.2.4-.1-.1-.1-.2-.2-.4Z"/><path fill="#455477" fill-rule="nonzero" d="M611.4 929.6c-.1 0-.1 0 0 0-.2-.4-.3-.8-.5-1.1-.1-.1-.1-.2-.2-.4-.1-.3-.3-.5-.4-.8-.1-.1-.2-.2-.2-.4-.2-.2-.3-.5-.5-.7-.1-.1-.2-.2-.2-.3l-.9-.9c-.3-.3-.6-.5-.9-.8-.1-.1-.2-.2-.3-.2-.2-.2-.5-.3-.7-.5-.1-.1-.3-.2-.4-.2-.3-.1-.5-.3-.8-.4-.1-.1-.2-.1-.4-.2-.4-.2-.8-.3-1.3-.4-.4-.1-.9-.2-1.3-.3h-.4c-.3 0-.6-.1-.9-.1h-1.8c-.8.1-1.7.3-2.4.6-.1 0-.2.1-.4.1-.3.1-.5.2-.8.4-.1.1-.3.1-.4.2-.3.1-.5.3-.7.4-.1.1-.2.1-.3.2-.3.2-.7.5-1 .8 11.7-5.4 18 4.9 18.1 5Z"/><path fill-rule="nonzero" d="M611.4 929.6c-.1 0-.1 0 0 0-.2-.4-.3-.8-.5-1.1-.1-.1-.1-.2-.2-.4-.1-.3-.3-.5-.4-.8-.1-.1-.2-.2-.2-.4-.2-.2-.3-.5-.5-.7-.1-.1-.2-.2-.2-.3l-.9-.9c-.3-.3-.6-.5-.9-.8-.1-.1-.2-.2-.3-.2-.2-.2-.5-.3-.7-.5-.1-.1-.3-.2-.4-.2-.3-.1-.5-.3-.8-.4-.1-.1-.2-.1-.4-.2-.4-.2-.8-.3-1.3-.4-.4-.1-.9-.2-1.3-.3h-.4c-.3 0-.6-.1-.9-.1h-1.8c-.8.1-1.7.3-2.4.6-.1 0-.2.1-.4.1-.3.1-.5.2-.8.4-.1.1-.3.1-.4.2-.3.1-.5.3-.7.4-.1.1-.2.1-.3.2-.3.2-.7.5-1 .8 11.7-5.4 18 4.9 18.1 5Z"/><path fill="#fff" fill-opacity=".15" fill-rule="nonzero" d="M607.9 942.1c-.1.1-.2.2-.3.2.1 0 .2-.1.3-.2Zm-1.2.8c-.1.1-.2.1-.3.2.1 0 .2-.1.3-.2Zm-15-2.5c-.1-.1-.2-.2-.2-.3 0 .1.1.2.2.3Zm10.8 4.2h-.2.2Zm-3 .1h-.4c.1-.1.2 0 .4 0Zm-4.4-1.4c-.1-.1-.2-.1-.3-.2 0 .1.1.1.3.2Zm-2.5-1.9-.3-.3c.1.2.2.3.3.3Zm8.3 3.3h-.4.4Zm3.1-.5c-.1 0-.3.1-.4.1.1 0 .3 0 .4-.1Zm-7.7-.3c-.1-.1-.2-.1-.4-.2.2.1.3.1.4.2Zm9-.2c-.1 0-.2.1-.2.1s.1 0 .2-.1Zm-15.7-7.4c0 .1.1.2.1.2s0-.1-.1-.2Zm.6 1.5c-.1-.1-.1-.2-.1-.4 0 .2 0 .3.1.4Zm.5 1.2s0-.1-.1-.1l.1.1Z"/><path fill="#455477" fill-rule="nonzero" d="M589.6 936.4c0 .1 0 .1.1.2l.3.9c0 .1.1.2.1.4.2.4.3.7.5 1.1 0 0 0 .1.1.1.2.4.5.7.7 1.1.1.1.2.2.2.3.2.3.4.5.6.7l.3.3c.3.3.6.6.9.8h.1c.3.3.7.5 1.1.8.1.1.2.1.3.2.3.2.6.3.9.5.1.1.2.1.4.2.4.2.9.3 1.3.5.5.1.9.2 1.4.3h.4c.4 0 .7.1 1.1.1h.4c.5 0 .9 0 1.4-.1h.2c.4-.1.7-.1 1.1-.2.1 0 .3-.1.4-.1.4-.1.7-.2 1-.4.1 0 .2-.1.2-.1l1.2-.6c.1-.1.2-.1.3-.2.3-.2.6-.4.8-.6.1-.1.2-.2.3-.2.3-.3.7-.6 1-.9-12.5 7.8-18.6-4.2-19.1-5.1Z"/><path fill="#fff" fill-opacity=".15" fill-rule="nonzero" d="M589.6 936.4c0 .1 0 .1.1.2l.3.9c0 .1.1.2.1.4.2.4.3.7.5 1.1 0 0 0 .1.1.1.2.4.5.7.7 1.1.1.1.2.2.2.3.2.3.4.5.6.7l.3.3c.3.3.6.6.9.8h.1c.3.3.7.5 1.1.8.1.1.2.1.3.2.3.2.6.3.9.5.1.1.2.1.4.2.4.2.9.3 1.3.5.5.1.9.2 1.4.3h.4c.4 0 .7.1 1.1.1h.4c.5 0 .9 0 1.4-.1h.2c.4-.1.7-.1 1.1-.2.1 0 .3-.1.4-.1.4-.1.7-.2 1-.4.1 0 .2-.1.2-.1l1.2-.6c.1-.1.2-.1.3-.2.3-.2.6-.4.8-.6.1-.1.2-.2.3-.2.3-.3.7-.6 1-.9-12.5 7.8-18.6-4.2-19.1-5.1Z"/><path fill="#455477" fill-rule="nonzero" d="m779.5 694.5.9.9c-.4-.3-.6-.6-.9-.9Zm1.1 1.2c.2.2.4.5.5.7-.2-.2-.4-.4-.5-.7Zm-2.1-2c.3.2.6.5.9.8-.3-.3-.6-.6-.9-.8ZM761 706.9l-.3-.9.3.9Zm5.6-14.3c.3-.1.5-.2.8-.4-.2.1-.5.2-.8.4Zm2.4-.9c.4-.1.8-.2 1.2-.2-.4 0-.8.1-1.2.2Zm3-.3c.3 0 .6 0 .9.1-.3-.1-.6-.1-.9-.1Zm-1.4.1h.9c-.3-.1-.6-.1-.9 0Zm-2.8.6c.4-.1.8-.3 1.2-.4-.4.1-.8.2-1.2.4Zm8.4.3c.3.1.6.3.8.4-.2-.2-.5-.3-.8-.4Zm-2.9-.9c.4.1.9.1 1.3.3-.5-.1-.9-.2-1.3-.3Zm-7.8 1.7c.2-.2.5-.3.7-.4-.2.1-.5.3-.7.4Zm11.9-.2c.3.2.5.3.7.5-.2-.2-.4-.4-.7-.5Zm-2.8-1.2c.4.1.9.3 1.3.4-.5-.2-.9-.3-1.3-.4Zm-4.5 22.2c-.5-.1-.9-.1-1.4-.3.5.2.9.3 1.4.3Zm9.8-3.4c-.3.3-.6.6-1 .9.4-.3.7-.6 1-.9Zm-5.3 3.1c-.4.1-.7.2-1.1.2.4 0 .8-.1 1.1-.2Zm2.9-1.2-1.2.6c.4-.1.8-.3 1.2-.6Zm1.1-.7c-.3.2-.6.4-.8.6.2-.2.5-.4.8-.6Zm-14.4-17.6c.3-.3.6-.5 1-.8-.4.3-.7.5-1 .8Zm17.7 3.7c.2.3.3.7.4 1.1-.1-.4-.2-.7-.4-1.1Zm-.6-1.1c.2.2.3.5.4.8-.1-.3-.2-.6-.4-.8Zm-5.2 16.4c-.3.1-.7.3-1 .4.3-.1.6-.2 1-.4Zm-12.7-2.6c-.2-.2-.4-.5-.6-.7.1.2.3.4.6.7Zm2.3 1.9c-.4-.2-.8-.5-1.1-.8.4.3.8.6 1.1.8Zm-1.1-.8c-.3-.3-.6-.5-.9-.8.2.3.6.5.9.8Zm-2.1-2.2c-.3-.4-.5-.7-.7-1.1.2.4.4.8.7 1.1Zm6.2 4.3c-.5-.1-.9-.3-1.3-.5.4.2.8.3 1.3.5Zm-1.7-.7c-.3-.1-.6-.3-.9-.5.3.3.6.4.9.5Zm4.6 1c-.4 0-.7 0-1.1-.1.4.1.7.1 1.1.1Zm1.7-.1c-.4.1-.9.1-1.4.1.5 0 .9 0 1.4-.1Z"/><path fill="#455477" fill-rule="nonzero" d="M779.9 710.6c1.3-1.3 2.2-3 2.7-4.9.6-2.3.5-4.6-.2-6.7-.1-.1-6.3-10.4-18.2-4.9-1.7 1.4-2.9 3.4-3.5 5.6-.5 2-.5 4.1 0 5.9.4 1.1 6.5 13.1 19.2 5Z"/><path fill-rule="nonzero" d="M772.9 691.5h.4-.4Zm2.9.7c.1.1.2.1.4.2-.1-.1-.2-.1-.4-.2Zm-8.4 0c.1 0 .2-.1.4-.1-.1 0-.3.1-.4.1Zm4.1-.8h.5-.5Zm-1.3.1h.4-.4Zm-4 1.3c.1-.1.3-.1.4-.2-.1 0-.2.1-.4.2Zm14.1 2.6c.1.1.2.2.2.3 0-.1-.1-.2-.2-.3Zm-3.3-2.6c.1.1.3.1.4.2-.1-.1-.2-.2-.4-.2Zm4.1 3.6c.1.1.2.2.2.4-.1-.1-.1-.2-.2-.4Zm-2.9-2.9c.1.1.2.2.3.2-.1-.1-.2-.2-.3-.2Zm3.5 4.1c.1.1.1.2.2.4 0-.2-.1-.3-.2-.4Zm-16.5-4.2c.1-.1.2-.1.3-.2-.1.1-.2.2-.3.2Z"/><path fill="#455477" fill-rule="nonzero" d="M782.4 699c-.2-.4-.3-.8-.5-1.1-.1-.1-.1-.2-.2-.4-.1-.3-.3-.5-.4-.8-.1-.1-.2-.2-.2-.4-.2-.2-.3-.5-.5-.7-.1-.1-.2-.2-.2-.3l-.9-.9c-.3-.3-.6-.5-.9-.8-.1-.1-.2-.2-.3-.2-.2-.2-.5-.3-.7-.5-.1-.1-.3-.2-.4-.2-.3-.1-.5-.3-.8-.4-.1-.1-.2-.1-.4-.2-.4-.2-.8-.3-1.3-.4-.4-.1-.9-.2-1.3-.3h-.4c-.3 0-.6-.1-.9-.1h-1.8c-.4.1-.8.1-1.2.2-.4.1-.8.2-1.2.4-.1 0-.2.1-.4.1-.3.1-.5.2-.8.4-.1.1-.3.1-.4.2-.3.1-.5.3-.7.4-.1.1-.2.1-.3.2-.3.2-.7.5-1 .8 11.8-5.4 18 4.9 18.1 5Z"/><path fill-rule="nonzero" d="M782.4 699c-.2-.4-.3-.8-.5-1.1-.1-.1-.1-.2-.2-.4-.1-.3-.3-.5-.4-.8-.1-.1-.2-.2-.2-.4-.2-.2-.3-.5-.5-.7-.1-.1-.2-.2-.2-.3l-.9-.9c-.3-.3-.6-.5-.9-.8-.1-.1-.2-.2-.3-.2-.2-.2-.5-.3-.7-.5-.1-.1-.3-.2-.4-.2-.3-.1-.5-.3-.8-.4-.1-.1-.2-.1-.4-.2-.4-.2-.8-.3-1.3-.4-.4-.1-.9-.2-1.3-.3h-.4c-.3 0-.6-.1-.9-.1h-1.8c-.4.1-.8.1-1.2.2-.4.1-.8.2-1.2.4-.1 0-.2.1-.4.1-.3.1-.5.2-.8.4-.1.1-.3.1-.4.2-.3.1-.5.3-.7.4-.1.1-.2.1-.3.2-.3.2-.7.5-1 .8 11.8-5.4 18 4.9 18.1 5Z"/><path fill="#fff" fill-opacity=".15" fill-rule="nonzero" d="M760.7 706c0-.1 0-.1-.1-.2v-.1c.1.1.1.2.1.3Zm.5 1.3c-.1-.1-.1-.2-.1-.4 0 .1 0 .2.1.4Zm.6 1.1s0-.1-.1-.1c0 .1.1.1.1.1Zm.9 1.4c-.1-.1-.2-.2-.2-.3.1.1.1.2.2.3Zm12.3 3.8c-.1 0-.3.1-.4.1.2 0 .3 0 .4-.1Zm1.3-.4c-.1 0-.2.1-.2.1 0-.1.1-.1.2-.1Zm-2.8.8h-.2.2Zm5.4-2.5c-.1.1-.2.2-.3.2.1 0 .2-.1.3-.2Zm-1.1.9c-.1.1-.2.1-.3.2.1-.1.2-.2.3-.2Zm-7.3 1.7h-.4.4Zm-4.4-1.4c-.1-.1-.2-.1-.3-.2.1.1.2.1.3.2Zm1.3.6c-.1-.1-.2-.1-.4-.2.1.1.2.2.4.2Zm4.5.8h-.4.4Zm-8.3-3.2-.3-.3c.2.1.2.2.3.3Z"/><path fill="#455477" fill-rule="nonzero" d="M761 706.9c0 .1.1.2.1.4.2.4.3.7.5 1.1 0 0 0 .1.1.1.2.4.5.7.7 1.1.1.1.2.2.2.3.2.3.4.5.6.7l.3.3c.3.3.6.6.9.8h.1c.3.3.7.5 1.1.8.1.1.2.1.3.2.3.2.6.3.9.5.1.1.2.1.4.2.4.2.9.3 1.3.5.5.1.9.2 1.4.3h.4c.4 0 .7.1 1.1.1h.4c.5 0 .9 0 1.4-.1h.2c.4-.1.7-.1 1.1-.2.1 0 .3-.1.4-.1.4-.1.7-.2 1-.4.1 0 .2-.1.2-.1l1.2-.6c.1-.1.2-.1.3-.2.3-.2.6-.4.8-.6.1-.1.2-.2.3-.2.3-.3.7-.6 1-.9-12.7 8.1-18.8-3.9-19.2-4.8 0 .1 0 .1.1.2.2 0 .3.3.4.6Z"/><path fill="#fff" fill-opacity=".15" fill-rule="nonzero" d="M761 706.9c0 .1.1.2.1.4.2.4.3.7.5 1.1 0 0 0 .1.1.1.2.4.5.7.7 1.1.1.1.2.2.2.3.2.3.4.5.6.7l.3.3c.3.3.6.6.9.8h.1c.3.3.7.5 1.1.8.1.1.2.1.3.2.3.2.6.3.9.5.1.1.2.1.4.2.4.2.9.3 1.3.5.5.1.9.2 1.4.3h.4c.4 0 .7.1 1.1.1h.4c.5 0 .9 0 1.4-.1h.2c.4-.1.7-.1 1.1-.2.1 0 .3-.1.4-.1.4-.1.7-.2 1-.4.1 0 .2-.1.2-.1l1.2-.6c.1-.1.2-.1.3-.2.3-.2.6-.4.8-.6.1-.1.2-.2.3-.2.3-.3.7-.6 1-.9-12.7 8.1-18.8-3.9-19.2-4.8 0 .1 0 .1.1.2.2 0 .3.3.4.6Z"/><path fill="#455477" fill-rule="nonzero" d="M267.8 797.8c-.3-.1-.7-.3-1-.5.3.2.6.3 1 .5Zm12.3-1.5-.9.6c.3-.2.7-.4.9-.6Zm-14.9-.1c-.4-.3-.7-.6-1-.9.3.4.6.7 1 .9Zm13.7.9c-.4.2-.8.5-1.3.7.5-.2.9-.4 1.3-.7Zm-4.4 1.6c-.5.1-1 .1-1.4.1.4 0 .9 0 1.4-.1Zm1.4-.3-1.2.3 1.2-.3Zm1.5-.5c-.4.2-.7.3-1.1.4.4-.1.8-.3 1.1-.4Zm-6.3.8-1.5-.3c.5.2 1 .3 1.5.3Zm1.5.1c-.4 0-.8 0-1.1-.1.4.1.8.1 1.1.1Zm-6.2-1.7c-.4-.2-.8-.5-1.2-.8.4.3.8.5 1.2.8ZM280 777c.3.3.7.5 1 .8-.3-.2-.6-.5-1-.8Zm1.1.9c.3.3.6.6.9 1-.3-.4-.6-.7-.9-1Zm-2.2-1.6c.3.2.5.3.8.5-.3-.2-.5-.4-.8-.5Zm-1.3-.7c.3.1.6.3.9.4-.3-.1-.6-.3-.9-.4Zm-1.7-.6c.5.1.9.3 1.3.5-.4-.2-.9-.4-1.3-.5Zm7.8 6.5c.2.4.3.7.5 1.1-.2-.3-.3-.7-.5-1.1Zm-9.2-6.8c.5.1.9.2 1.4.3-.5-.1-1-.2-1.4-.3Zm7.7 4.5c.2.2.4.5.6.8-.2-.3-.4-.6-.6-.8Z"/><path fill="#455477" fill-rule="nonzero" d="M264.7 777.5c-1.8 1.5-3.1 3.6-3.8 6-.6 2.2-.5 4.3 0 6.3.5 1 7 13.8 20.5 5.1-.3.3-.7.7-1.1 1 1.9-1.5 3.3-3.7 4-6.2.7-2.4.5-4.9-.3-7.1.1 0-6.6-11-19.3-5.1Zm18.3 2.8c.2.3.3.5.5.8-.2-.2-.3-.5-.5-.8Z"/><path fill="#455477" fill-rule="nonzero" d="M264.7 777.5c.3-.3.7-.6 1.1-.8-.4.3-.7.6-1.1.8Zm-3.3 13.6c-.1-.3-.2-.7-.3-1 .1.3.2.7.3 1Zm.7 1.5c-.2-.4-.4-.8-.6-1.1.2.4.4.8.6 1.1Zm1.8 2.4c-.2-.3-.5-.5-.7-.8.2.3.4.6.7.8Zm-.9-1.1c-.3-.4-.5-.8-.8-1.2.2.5.5.9.8 1.2Zm4.4-18.1c.3-.1.6-.3.9-.4-.4.2-.7.3-.9.4Zm1.2-.5c.4-.2.8-.3 1.3-.4-.5.1-.9.2-1.3.4Zm-2.5 1.2c.3-.2.5-.3.8-.5-.2.2-.5.3-.8.5Zm3.8-1.6c.4-.1.9-.2 1.3-.2-.4 0-.9.1-1.3.2Zm1.7-.3h1-1Zm1.5 0c.3 0 .6 0 1 .1-.4-.1-.7-.1-1-.1Z"/><path fill-rule="nonzero" d="M284.1 782.7Zm-11.5-8.1h.5-.5ZM267 776c.1-.1.3-.1.4-.2-.2.1-.3.2-.4.2Zm1.2-.6c.1-.1.3-.1.4-.2-.1.1-.3.2-.4.2Zm3-.7h.4c-.1-.1-.3-.1-.4 0Zm6 .7c.1.1.3.1.4.2-.1 0-.3-.1-.4-.2Zm-3.2-.7h.4-.4Zm8.8 5.2c.1.1.2.3.3.4-.2-.1-.2-.2-.3-.4Zm-4.3-3.9c.1.1.3.2.4.2-.2 0-.3-.1-.4-.2Zm5 5.1c.1.1.1.3.2.4-.1-.1-.2-.2-.2-.4Zm-1.5-2.2.3.3c-.2-.1-.2-.2-.3-.3Zm-2.3-2.1c.1.1.2.2.4.2-.2-.1-.3-.1-.4-.2Zm-13.9-.1c.1-.1.2-.1.3-.2-.1.1-.2.2-.3.2Z"/><path fill="#455477" fill-rule="nonzero" d="M283.7 781.5c-.1-.1-.1-.3-.2-.4-.1-.3-.3-.5-.5-.8-.1-.1-.2-.3-.3-.4-.2-.3-.4-.5-.6-.8l-.3-.3c-.3-.3-.6-.7-.9-1-.3-.3-.6-.6-1-.8-.1-.1-.2-.2-.4-.2-.3-.2-.5-.4-.8-.5-.1-.1-.3-.2-.4-.2-.3-.2-.6-.3-.9-.4-.1-.1-.3-.1-.4-.2-.4-.2-.9-.3-1.3-.5-.5-.1-.9-.2-1.4-.3h-.4c-.3 0-.6-.1-1-.1H271c-.4.1-.9.1-1.3.2s-.9.2-1.3.4c-.1 0-.3.1-.4.2-.3.1-.6.2-.9.4-.1.1-.3.1-.4.2-.3.1-.5.3-.8.5-.1.1-.2.1-.3.2-.4.3-.7.5-1.1.8 12.7-5.9 19.4 5 19.4 5.2v-.1c.1-.3 0-.7-.2-1.1Z"/><path fill-rule="nonzero" d="M283.7 781.5c-.1-.1-.1-.3-.2-.4-.1-.3-.3-.5-.5-.8-.1-.1-.2-.3-.3-.4-.2-.3-.4-.5-.6-.8l-.3-.3c-.3-.3-.6-.7-.9-1-.3-.3-.6-.6-1-.8-.1-.1-.2-.2-.4-.2-.3-.2-.5-.4-.8-.5-.1-.1-.3-.2-.4-.2-.3-.2-.6-.3-.9-.4-.1-.1-.3-.1-.4-.2-.4-.2-.9-.3-1.3-.5-.5-.1-.9-.2-1.4-.3h-.4c-.3 0-.6-.1-1-.1H271c-.4.1-.9.1-1.3.2s-.9.2-1.3.4c-.1 0-.3.1-.4.2-.3.1-.6.2-.9.4-.1.1-.3.1-.4.2-.3.1-.5.3-.8.5-.1.1-.2.1-.3.2-.4.3-.7.5-1.1.8 12.7-5.9 19.4 5 19.4 5.2v-.1c.1-.3 0-.7-.2-1.1Z"/><path fill="#fff" fill-opacity=".15" fill-rule="nonzero" d="M262.2 792.8s0-.1-.1-.1c0 0 .1 0 .1.1Zm10.8 6h-.4c.2 0 .3.1.4 0Zm-11.4-7.3c-.1-.1-.1-.3-.2-.4.1.1.1.3.2.4Zm9.9 7.3h-.4.4Zm-3.3-.8c-.1-.1-.3-.1-.4-.2.1 0 .2.1.4.2Zm6.5.7h-.3.3Zm1.6-.4c-.1 0-.3.1-.4.1.1 0 .3-.1.4-.1Zm-9.5-1c-.1-.1-.2-.1-.4-.2.1.1.3.1.4.2Zm-2.6-2-.3-.3.3.3Zm-1-1.1c-.1-.1-.2-.2-.2-.3 0 .1.1.2.2.3Zm17.3 1.8-.3.3.3-.3Zm-1.3.9c-.1.1-.2.1-.3.2.1 0 .2-.1.3-.2Zm-1.5.9c-.1 0-.2.1-.2.1s.1-.1.2-.1Zm-16.7-7.9c0 .1.1.2.1.2-.1-.1-.1-.1-.1-.2Z"/><path fill="#455477" fill-rule="nonzero" d="M261 789.9c0 .1 0 .1.1.2.1.3.2.7.3 1 .1.1.1.3.2.4.2.4.4.8.6 1.1 0 0 0 .1.1.1.2.4.5.8.8 1.2.1.1.2.2.2.3.2.3.4.5.7.8l.3.3c.3.3.7.6 1 .9h.1c.4.3.8.6 1.2.8.1.1.2.1.4.2.3.2.6.3 1 .5.1.1.3.1.4.2.5.2.9.4 1.4.5l1.5.3h.4c.4 0 .8.1 1.1.1h.4c.5 0 1 0 1.4-.1h.3l1.2-.3c.1 0 .3-.1.4-.1.4-.1.8-.3 1.1-.4.1 0 .2-.1.2-.1.4-.2.9-.4 1.3-.7.1-.1.2-.1.3-.2l.9-.6.3-.3c.4-.3.7-.6 1.1-1-13.7 8.7-20.2-4.1-20.7-5.1Z"/><path fill="#fff" fill-opacity=".15" fill-rule="nonzero" d="M261 789.9c0 .1 0 .1.1.2.1.3.2.7.3 1 .1.1.1.3.2.4.2.4.4.8.6 1.1 0 0 0 .1.1.1.2.4.5.8.8 1.2.1.1.2.2.2.3.2.3.4.5.7.8l.3.3c.3.3.7.6 1 .9h.1c.4.3.8.6 1.2.8.1.1.2.1.4.2.3.2.6.3 1 .5.1.1.3.1.4.2.5.2.9.4 1.4.5l1.5.3h.4c.4 0 .8.1 1.1.1h.4c.5 0 1 0 1.4-.1h.3l1.2-.3c.1 0 .3-.1.4-.1.4-.1.8-.3 1.1-.4.1 0 .2-.1.2-.1.4-.2.9-.4 1.3-.7.1-.1.2-.1.3-.2l.9-.6.3-.3c.4-.3.7-.6 1.1-1-13.7 8.7-20.2-4.1-20.7-5.1Z"/><path fill="#455477" fill-rule="nonzero" d="M163.7 917.3c.2-.2.4-.3.6-.5-.2.2-.4.4-.6.5Zm-51.3-80.5c.8-.4 1.5-.8 2.3-1.1-.7.4-1.5.8-2.3 1.1Zm52.9 6.1c.6.5 1.2 1.1 1.8 1.6-.6-.5-1.2-1.1-1.8-1.6Zm2 1.8c.6.6 1.3 1.2 1.9 1.9-.6-.7-1.3-1.3-1.9-1.9Zm5.8 6.6c.5.6.9 1.3 1.3 1.9-.4-.6-.8-1.2-1.3-1.9Zm-12.2-11.7c.5.3 1 .7 1.5 1.1-.5-.4-1-.8-1.5-1.1Zm-3-1.9c.8.4 1.6.9 2.3 1.4-.7-.5-1.5-.9-2.3-1.4Zm11.8 9.4c.4.5.8.9 1.2 1.4-.4-.5-.8-.9-1.2-1.4Zm4.9 6.4c.5.7.9 1.5 1.4 2.2-.5-.7-.9-1.5-1.4-2.2Zm-5.5 58.9c-.7.7-1.3 1.4-2 2 .7-.6 1.4-1.3 2-2Zm-53.6-77c.6-.2 1.1-.5 1.7-.7-.5.2-1.1.5-1.7.7Zm60.9 21c.3.5.6 1.1.9 1.6-.4-.5-.6-1-.9-1.6Zm-4.9-7.2c.4.5.8.9 1.1 1.4-.3-.4-.7-.9-1.1-1.4Zm6.1 9.7c.3.5.5 1.1.7 1.6-.2-.5-.4-1-.7-1.6Zm-22.1-22.4c.8.4 1.6.8 2.3 1.2-.7-.4-1.5-.8-2.3-1.2Zm-23.4-4.9c.9 0 1.8-.1 2.7-.1-.9 0-1.8 0-2.7.1Zm-2.7.2c.6-.1 1.2-.1 1.9-.2-.7.1-1.3.1-1.9.2Zm5.4-.3c.9 0 1.8.1 2.7.1-.9 0-1.8-.1-2.7-.1Zm9.2 1 2.7.6-2.7-.6Zm34.7 28.9c.3.7.6 1.4.8 2.1-.2-.7-.5-1.4-.8-2.1Zm-40.3-29.7c.6.1 1.3.1 1.9.2-.7-.1-1.3-.1-1.9-.2Zm2.8.3c.6.1 1.3.2 1.9.3-.6 0-1.2-.2-1.9-.3Z"/><path fill="#455477" fill-rule="nonzero" d="M113.6 839.2c.5 1 .9 1.9 1.4 2.9 13.5 26.9 29.5 51.6 47.7 74 2.1-1.1 4.2-2.3 6.4-3.7 5.3-5.6 9.4-12.6 11.5-20.6 2.6-9.6 2-19.4-1-28.1-.3-.4-22.8-37.6-66-24.5Zm39.4-3.9c.6.2 1.2.5 1.7.8-.6-.3-1.1-.5-1.7-.8Zm-32.4-1.8c.8-.3 1.7-.5 2.6-.7-.9.3-1.7.5-2.6.7Zm-2.5.9 1.8-.6-1.8.6Zm5.1-1.5c.9-.2 1.7-.4 2.6-.5-.9.1-1.8.2-2.6.5Zm23.6.3c.9.2 1.8.5 2.7.8-.9-.3-1.8-.6-2.7-.8Zm3.5 1.1c.6.2 1.2.4 1.8.7-.6-.3-1.2-.5-1.8-.7Zm12.9 6.9c.5.4 1 .8 1.4 1.1-.4-.3-.9-.7-1.4-1.1Z"/><path fill-rule="nonzero" d="m117.2 834.7.9-.3-.9.3Zm60 23.4c.1.3.3.6.4.8-.1-.3-.2-.5-.4-.8Zm-17-19c.2.1.5.3.7.5-.2-.2-.4-.3-.7-.5Zm18.2 21.5c.1.3.2.5.3.8-.1-.3-.2-.6-.3-.8Zm-58.5-26.8c.3-.1.5-.2.8-.2-.3 0-.6.1-.8.2Zm37.9 3.9s.1 0 0 0c.1 0 0 0 0 0Zm-32-5.4c.3 0 .5-.1.8-.1-.3 0-.5.1-.8.1Zm14.5-.4c.3 0 .6.1 1 .1-.4 0-.7 0-1-.1Zm24.4 10.4c.2.2.4.4.7.5-.3-.1-.5-.3-.7-.5Zm-21.6-9.9c.3.1.6.1.9.2-.3-.1-.6-.2-.9-.2Zm24 12.1c.1 0 .1.1.2.1-.1 0-.1 0-.2-.1ZM149.4 834c.3.1.6.2.8.3-.2-.1-.5-.2-.8-.3Zm13.1 6.7c.3.2.5.4.8.6-.3-.3-.6-.5-.8-.6Zm-34-8.8c.3 0 .6-.1.9-.1-.3 0-.6.1-.9.1Zm2.8-.3c.3 0 .6 0 .8-.1-.3.1-.6.1-.8.1Zm43.2 21.7c.1.1.1.2.2.2l-.2-.2Zm1.5 2.4c.1.2.2.5.4.7-.2-.2-.3-.4-.4-.7Zm-5.1-7.2c.2.2.4.5.6.7-.2-.2-.4-.4-.6-.7Zm1.7 2.2c.2.2.3.5.5.7-.1-.3-.3-.5-.5-.7Zm-3.4-4.2c.2.2.4.4.5.6-.2-.2-.4-.4-.5-.6Zm-31.7-14.9c.3 0 .6 0 .8.1-.2 0-.5 0-.8-.1Zm14.6 3.4c.3.1.6.2.9.4-.3-.2-.6-.3-.9-.4Zm27.5 28.8c0-.1-.1-.2-.1-.3.1.1.1.2.1.3Zm-64.8-28.1c.2-.1.5-.2.8-.3-.3.1-.6.2-.8.3Z"/><path fill="#455477" fill-rule="nonzero" d="M179.6 863.8c0-.1-.1-.2-.1-.3-.3-.7-.5-1.4-.8-2.1-.1-.3-.2-.5-.3-.8-.2-.6-.5-1.1-.7-1.6-.1-.3-.3-.6-.4-.8-.3-.6-.6-1.1-.9-1.6-.1-.2-.2-.5-.4-.7-.4-.8-.9-1.5-1.4-2.2-.1-.1-.1-.2-.2-.2-.4-.7-.9-1.3-1.3-1.9-.2-.2-.3-.5-.5-.7-.4-.5-.7-1-1.1-1.4-.2-.2-.4-.5-.6-.7-.4-.5-.8-.9-1.2-1.4-.2-.2-.4-.4-.5-.6-.6-.6-1.2-1.3-1.9-1.9-.1 0-.1-.1-.2-.1-.6-.6-1.2-1.1-1.8-1.6-.2-.2-.4-.4-.7-.5-.5-.4-1-.8-1.4-1.1-.2-.2-.5-.4-.8-.6-.5-.4-1-.7-1.5-1.1-.2-.2-.5-.3-.7-.5-.8-.5-1.5-1-2.3-1.4 0 0-.1 0-.1-.1-.8-.4-1.5-.8-2.3-1.2-.3-.1-.5-.2-.8-.4-.6-.3-1.2-.5-1.7-.8-.3-.1-.6-.2-.9-.4-.6-.2-1.2-.5-1.8-.7-.3-.1-.5-.2-.8-.3-.9-.3-1.8-.6-2.7-.8-.9-.2-1.8-.5-2.7-.6-.3-.1-.6-.1-.9-.2-.6-.1-1.3-.2-1.9-.3-.3 0-.6-.1-1-.1-.6-.1-1.3-.1-1.9-.2-.3 0-.6-.1-.8-.1-.9-.1-1.8-.1-2.7-.1-.9 0-1.8 0-2.7.1-.3 0-.6 0-.8.1-.6 0-1.2.1-1.9.2-.3 0-.6.1-.9.1-.6.1-1.2.2-1.9.3-.3 0-.5.1-.8.1-.9.2-1.7.3-2.6.5-.9.2-1.7.4-2.6.7-.3.1-.5.2-.8.2l-2.7.9c-.6.2-1.1.5-1.7.7-.2.1-.5.2-.8.3-.8.4-1.6.7-2.3 1.1.4.8.8 1.6 1.1 2.3 43.3-13.2 65.8 24 66.1 24.5Z"/><path fill-rule="nonzero" d="M179.6 863.8c0-.1-.1-.2-.1-.3-.3-.7-.5-1.4-.8-2.1-.1-.3-.2-.5-.3-.8-.2-.6-.5-1.1-.7-1.6-.1-.3-.3-.6-.4-.8-.3-.6-.6-1.1-.9-1.6-.1-.2-.2-.5-.4-.7-.4-.8-.9-1.5-1.4-2.2-.1-.1-.1-.2-.2-.2-.4-.7-.9-1.3-1.3-1.9-.2-.2-.3-.5-.5-.7-.4-.5-.7-1-1.1-1.4-.2-.2-.4-.5-.6-.7-.4-.5-.8-.9-1.2-1.4-.2-.2-.4-.4-.5-.6-.6-.6-1.2-1.3-1.9-1.9-.1 0-.1-.1-.2-.1-.6-.6-1.2-1.1-1.8-1.6-.2-.2-.4-.4-.7-.5-.5-.4-1-.8-1.4-1.1-.2-.2-.5-.4-.8-.6-.5-.4-1-.7-1.5-1.1-.2-.2-.5-.3-.7-.5-.8-.5-1.5-1-2.3-1.4 0 0-.1 0-.1-.1-.8-.4-1.5-.8-2.3-1.2-.3-.1-.5-.2-.8-.4-.6-.3-1.2-.5-1.7-.8-.3-.1-.6-.2-.9-.4-.6-.2-1.2-.5-1.8-.7-.3-.1-.5-.2-.8-.3-.9-.3-1.8-.6-2.7-.8-.9-.2-1.8-.5-2.7-.6-.3-.1-.6-.1-.9-.2-.6-.1-1.3-.2-1.9-.3-.3 0-.6-.1-1-.1-.6-.1-1.3-.1-1.9-.2-.3 0-.6-.1-.8-.1-.9-.1-1.8-.1-2.7-.1-.9 0-1.8 0-2.7.1-.3 0-.6 0-.8.1-.6 0-1.2.1-1.9.2-.3 0-.6.1-.9.1-.6.1-1.2.2-1.9.3-.3 0-.5.1-.8.1-.9.2-1.7.3-2.6.5-.9.2-1.7.4-2.6.7-.3.1-.5.2-.8.2l-2.7.9c-.6.2-1.1.5-1.7.7-.2.1-.5.2-.8.3-.8.4-1.6.7-2.3 1.1.4.8.8 1.6 1.1 2.3 43.3-13.2 65.8 24 66.1 24.5Z"/><path fill="#fff" fill-opacity=".15" fill-rule="nonzero" d="M167.1 914.4c-.2.2-.4.4-.6.5.2-.1.4-.3.6-.5Zm-2.3 2c-.2.2-.4.3-.6.5.3-.2.5-.3.6-.5Z"/><path fill="#455477" fill-rule="nonzero" d="M163.7 917.3c.2-.2.4-.3.6-.4.2-.2.4-.3.6-.5.6-.5 1.1-.9 1.7-1.4.2-.2.4-.4.6-.5.7-.6 1.4-1.3 2-2-2.2 1.4-4.3 2.6-6.4 3.7.3.3.6.7.9 1.1Z"/><path fill="#fff" fill-opacity=".15" fill-rule="nonzero" d="M163.7 917.3c.2-.2.4-.3.6-.4.2-.2.4-.3.6-.5.6-.5 1.1-.9 1.7-1.4.2-.2.4-.4.6-.5.7-.6 1.4-1.3 2-2-2.2 1.4-4.3 2.6-6.4 3.7.3.3.6.7.9 1.1Z"/><path fill="#455477" fill-rule="nonzero" d="M428.8 865.5c.9.7 1.7 1.5 2.6 2.3-.8-.8-1.7-1.5-2.6-2.3Zm2.8 2.5c.9.9 1.8 1.7 2.6 2.6l-2.6-2.6Zm-5.8-4.8c.7.5 1.4 1.1 2 1.6-.6-.6-1.3-1.1-2-1.6Zm11.8 11.3c.5.7 1.1 1.3 1.6 2-.6-.7-1.1-1.4-1.6-2Zm-15-13.6c.7.5 1.5 1 2.2 1.5-.7-.5-1.5-1-2.2-1.5Zm17.2 16.5c.6.9 1.3 1.8 1.9 2.7-.6-.8-1.2-1.8-1.9-2.7Zm-21.4-19.1c1.1.6 2.2 1.3 3.3 2-1.1-.8-2.2-1.4-3.3-2Zm-63.7 119.1c-1.1-.6-2.3-1.2-3.4-1.8 1.1.6 2.2 1.2 3.4 1.8Zm44.1-126.5 3.9.9-3.9-.9Zm-72.5 99.3c-.5-1-1.1-1.9-1.6-2.9.5 1 1 1.9 1.6 2.9Zm20.5 22.5c-1.1-.8-2.2-1.5-3.2-2.3 1 .8 2.1 1.6 3.2 2.3Zm97.6-88.1c.4.8.8 1.5 1.2 2.3-.4-.7-.8-1.5-1.2-2.3Zm-85.9 94.6c-1.3-.5-2.5-1.1-3.7-1.7 1.3.6 2.5 1.1 3.7 1.7Zm52.9-124.3c.8.3 1.6.7 2.5 1.1-.8-.4-1.6-.8-2.5-1.1ZM321 938.2c-.3-1-.7-2.1-.9-3.1.2 1.1.6 2.1.9 3.1Zm19.8-72.1c.9-.8 1.9-1.6 2.9-2.3-1 .7-1.9 1.5-2.9 2.3Zm-18.2 76.4c-.5-1.2-1-2.4-1.4-3.7.4 1.3.9 2.5 1.4 3.7Zm107.9 24.7c-.8.7-1.5 1.4-2.3 2 .7-.7 1.5-1.3 2.3-2Zm-85.9-104.1 2.1-1.5c-.7.4-1.4 1-2.1 1.5Zm89.6 100.5c-.9 1-1.9 1.9-2.9 2.8 1-.9 2-1.9 2.9-2.8Zm-110-17.4-1.2-2.7 1.2 2.7Zm30-89.2c1.1-.6 2.2-1.1 3.3-1.6-1 .5-2.2 1.1-3.3 1.6Zm92 31.1c.4.8.7 1.5 1 2.3-.3-.7-.7-1.5-1-2.3Zm-83.9-34.5c.8-.3 1.6-.6 2.5-.8-.9.2-1.7.5-2.5.8Zm3.5-1.2c1.2-.4 2.4-.7 3.6-1-1.2.3-2.4.6-3.6 1Zm-18 8.4c.7-.5 1.5-.9 2.2-1.4-.7.5-1.5.9-2.2 1.4Zm3.2-2c1.1-.6 2.1-1.2 3.2-1.8-1.1.6-2.2 1.2-3.2 1.8Zm90.9 21.7c.7 1 1.3 2.1 1.9 3.2-.6-1.1-1.2-2.2-1.9-3.2ZM358.6 855c.8-.3 1.6-.7 2.4-1-.8.3-1.6.6-2.4 1Zm44-3.2c1.3.3 2.5.7 3.8 1.1-1.2-.3-2.5-.7-3.8-1.1Zm-28.4-1.4c.9-.1 1.7-.3 2.6-.4-.8.2-1.7.3-2.6.4ZM333.8 961c-.7-.9-1.5-1.8-2.2-2.7.7.9 1.4 1.8 2.2 2.7Zm89.8 11.6c-.9.6-1.8 1.2-2.8 1.8 1-.5 1.9-1.1 2.8-1.8Zm-92.7-15.3c-.6-.8-1.1-1.6-1.7-2.4.6.8 1.1 1.6 1.7 2.4Zm96.5 12.5c-1 .8-2.1 1.6-3.2 2.4 1.1-.7 2.1-1.5 3.2-2.4Zm-58-118.4c1.2-.3 2.4-.5 3.6-.8-1.1.2-2.3.5-3.6.8Zm25.5-1.1c.9.1 1.8.3 2.7.5-.9-.3-1.8-.4-2.7-.5ZM376.3 984c-1.1-.1-2.1-.3-3.2-.5 1 .2 2.1.4 3.2.5Zm35.5-4.8c-.9.4-1.9.8-2.9 1.2 1-.4 1.9-.8 2.9-1.2Zm4.5-2.2c-1.2.6-2.4 1.2-3.6 1.7 1.2-.5 2.4-1 3.6-1.7Zm-79.5-12.8c-.9-.9-1.8-1.9-2.6-2.9.8 1 1.6 2 2.6 2.9Zm2.9 2.8c-.7-.7-1.4-1.3-2.1-2 .6.7 1.3 1.4 2.1 2Zm108-75.4c.4 1 .8 2 1.1 3-.3-1-.7-2-1.1-3Zm-27.9 83.5c-.9.6-1.9 1.1-2.9 1.6 1-.5 2-1.1 2.9-1.6Zm-48 8.2c-1.4-.3-2.8-.6-4.2-1 1.5.4 2.9.7 4.2 1ZM382 849.6c1.3-.1 2.5-.1 3.8-.1-1.3 0-2.6.1-3.8.1Zm3.8-.1c1.3 0 2.5.1 3.8.2-1.3-.1-2.5-.2-3.8-.2Zm-7.6.4c.9-.1 1.8-.2 2.6-.2-.9 0-1.8.1-2.6.2Zm-15.7 130.8c-1-.3-1.9-.7-2.9-1.1 1 .4 1.9.8 2.9 1.1Zm45.4 0c-1.3.4-2.5.9-3.8 1.2 1.2-.3 2.5-.7 3.8-1.2Zm-17.1-130.9 2.7.3-2.7-.3ZM328.6 954c-.7-1.1-1.4-2.2-2-3.3.6 1.2 1.3 2.3 2 3.3Zm61.6 30.5c-1.1.1-2.2.1-3.4.2 1.1-.1 2.3-.1 3.4-.2Zm-8.8.1c-1.4-.1-2.7-.2-4.1-.4 1.4.2 2.8.3 4.1.4Zm4.2.1c-1.1 0-2.3 0-3.4-.1 1.1 0 2.3.1 3.4.1ZM404 982c-1.3.4-2.6.7-3.9 1 1.4-.3 2.7-.7 3.9-1Z"/><path fill="#455477" fill-rule="nonzero" d="M340.8 866.1c-9.8 8.5-17.3 20-20.9 33.5-3.2 11.9-3 24 0 35.1 1.4 2.9 37.6 77.7 114.3 28.9 7.5-7.9 13.2-17.7 16.2-29 3.6-13.6 2.9-27.3-1.4-39.6-.4-.7-37.4-61.8-108.2-28.9Z"/><path fill="#455477" fill-rule="nonzero" d="M394.9 984c-1.3.2-2.7.4-4 .5 1.4-.2 2.7-.4 4-.5Z"/><path fill-rule="nonzero" d="M373.1 850.6c.4-.1.8-.1 1.2-.2-.4.1-.8.2-1.2.2Zm3.8-.5c.4-.1.9-.1 1.3-.2-.5.1-.9.1-1.3.2Zm64.8 30.1c.1.1.1.2.2.3 0-.1-.1-.2-.2-.3Zm3.9 6.8.6 1.2c-.2-.5-.4-.9-.6-1.2Zm-6.5-10.5c.2.3.5.6.7 1-.2-.4-.4-.7-.7-1Zm-2.4-3c.3.3.6.7.8 1-.2-.4-.5-.7-.8-1Zm-72-20.8c.4-.1.7-.2 1.1-.4-.3.2-.7.3-1.1.4Zm69.5 18c.3.3.5.6.8.8-.3-.3-.5-.6-.8-.8Zm-90.5-6.9c.3-.2.6-.5.9-.7-.3.2-.6.4-.9.7Zm3-2.2c.4-.2.7-.5 1.1-.7-.3.2-.7.4-1.1.7Zm3.3-2.2c.3-.2.7-.4 1-.6-.3.2-.7.4-1 .6Zm81.4 8.4.2.2c-.1 0-.1-.1-.2-.2Zm-77.2-10.7Zm3.4-1.7c.4-.2.7-.3 1.1-.5-.4.2-.8.4-1.1.5Zm3.4-1.4c.4-.2.8-.3 1.2-.5-.3.2-.8.4-1.2.5Zm63.8 8.4c.4.3.7.5 1.1.8-.4-.3-.8-.6-1.1-.8ZM449 895c0-.1-.1-.3-.2-.4.1.1.1.2.2.4Zm-42.6-42c.4.1.8.3 1.2.4-.4-.1-.8-.3-1.2-.4Zm-8.8-2.3c.4.1.8.1 1.2.2-.4 0-.8-.1-1.2-.2Zm-8-1c.4 0 .8.1 1.2.1-.4 0-.8-.1-1.2-.1Zm20.6 4.7c.4.2.8.3 1.3.5-.5-.2-.9-.4-1.3-.5Zm-16.7-4.3c.5.1.9.1 1.4.2-.5-.1-.9-.2-1.4-.2Zm28.1 10.1c.3.2.6.4 1 .6-.3-.1-.6-.4-1-.6Zm-40.8-10.5c.4 0 .8-.1 1.2-.1-.4 0-.8.1-1.2.1Zm66.4 40.7c.2.4.3.7.5 1.1-.2-.3-.3-.7-.5-1.1Zm-29-32.2.1.1c0-.1 0-.1-.1-.1Zm-4.3-2.2c.4.2.7.3 1.1.5-.4-.2-.7-.4-1.1-.5Zm14 8.8c.3.3.6.5.9.8-.3-.3-.6-.6-.9-.8Zm16 18.9c.2.3.3.6.5 1-.2-.4-.4-.7-.5-1Z"/><path fill="#455477" fill-rule="nonzero" d="M449 895c0-.1-.1-.3-.1-.4-.4-1-.7-2-1.1-3-.2-.4-.3-.7-.5-1.1-.3-.8-.7-1.6-1-2.3l-.6-1.2c-.4-.8-.8-1.6-1.2-2.3-.2-.3-.3-.6-.5-1-.6-1.1-1.2-2.1-1.9-3.2-.1-.1-.1-.2-.2-.3-.6-.9-1.2-1.8-1.9-2.7-.2-.3-.5-.6-.7-1-.5-.7-1-1.4-1.6-2-.3-.3-.5-.7-.8-1-.6-.7-1.1-1.3-1.7-2-.3-.3-.5-.6-.8-.8-.9-.9-1.7-1.8-2.6-2.6l-.2-.2c-.8-.8-1.7-1.5-2.6-2.3-.3-.3-.6-.5-.9-.8-.7-.5-1.4-1.1-2-1.6-.4-.3-.7-.5-1.1-.8-.7-.5-1.4-1-2.2-1.5-.3-.2-.6-.4-1-.6-1.1-.7-2.1-1.3-3.3-2l-.1-.1c-1.1-.6-2.1-1.2-3.2-1.7-.4-.2-.7-.3-1.1-.5-.8-.4-1.6-.7-2.5-1.1-.4-.2-.8-.3-1.3-.5-.8-.3-1.7-.7-2.6-1-.4-.1-.8-.3-1.2-.4-1.2-.4-2.5-.8-3.8-1.1l-3.9-.9c-.4-.1-.8-.2-1.2-.2-.9-.2-1.8-.3-2.7-.5-.5-.1-.9-.1-1.4-.2l-2.7-.3c-.4 0-.8-.1-1.2-.1-1.3-.1-2.6-.1-3.8-.2-1.3 0-2.5 0-3.8.1-.4 0-.8.1-1.2.1-.9.1-1.8.1-2.6.2-.4 0-.9.1-1.3.2-.9.1-1.7.2-2.6.4-.4.1-.8.1-1.2.2-1.2.2-2.4.5-3.6.8-1.2.3-2.4.6-3.6 1-.4.1-.7.2-1.1.4-.8.3-1.6.5-2.5.8-.4.1-.8.3-1.2.5-.8.3-1.6.6-2.4 1-.4.2-.7.3-1.1.5-1.1.5-2.2 1-3.3 1.6-1.1.6-2.2 1.2-3.2 1.8-.3.2-.7.4-1 .6-.7.5-1.5.9-2.2 1.4-.4.2-.7.5-1.1.7l-2.1 1.5c-.3.2-.6.5-.9.7-1 .8-1.9 1.5-2.9 2.3 70.7-33.1 107.7 28 108.1 28.7Z"/><path fill-rule="nonzero" d="M449 895c0-.1-.1-.3-.1-.4-.4-1-.7-2-1.1-3-.2-.4-.3-.7-.5-1.1-.3-.8-.7-1.6-1-2.3l-.6-1.2c-.4-.8-.8-1.6-1.2-2.3-.2-.3-.3-.6-.5-1-.6-1.1-1.2-2.1-1.9-3.2-.1-.1-.1-.2-.2-.3-.6-.9-1.2-1.8-1.9-2.7-.2-.3-.5-.6-.7-1-.5-.7-1-1.4-1.6-2-.3-.3-.5-.7-.8-1-.6-.7-1.1-1.3-1.7-2-.3-.3-.5-.6-.8-.8-.9-.9-1.7-1.8-2.6-2.6l-.2-.2c-.8-.8-1.7-1.5-2.6-2.3-.3-.3-.6-.5-.9-.8-.7-.5-1.4-1.1-2-1.6-.4-.3-.7-.5-1.1-.8-.7-.5-1.4-1-2.2-1.5-.3-.2-.6-.4-1-.6-1.1-.7-2.1-1.3-3.3-2l-.1-.1c-1.1-.6-2.1-1.2-3.2-1.7-.4-.2-.7-.3-1.1-.5-.8-.4-1.6-.7-2.5-1.1-.4-.2-.8-.3-1.3-.5-.8-.3-1.7-.7-2.6-1-.4-.1-.8-.3-1.2-.4-1.2-.4-2.5-.8-3.8-1.1l-3.9-.9c-.4-.1-.8-.2-1.2-.2-.9-.2-1.8-.3-2.7-.5-.5-.1-.9-.1-1.4-.2l-2.7-.3c-.4 0-.8-.1-1.2-.1-1.3-.1-2.6-.1-3.8-.2-1.3 0-2.5 0-3.8.1-.4 0-.8.1-1.2.1-.9.1-1.8.1-2.6.2-.4 0-.9.1-1.3.2-.9.1-1.7.2-2.6.4-.4.1-.8.1-1.2.2-1.2.2-2.4.5-3.6.8-1.2.3-2.4.6-3.6 1-.4.1-.7.2-1.1.4-.8.3-1.6.5-2.5.8-.4.1-.8.3-1.2.5-.8.3-1.6.6-2.4 1-.4.2-.7.3-1.1.5-1.1.5-2.2 1-3.3 1.6-1.1.6-2.2 1.2-3.2 1.8-.3.2-.7.4-1 .6-.7.5-1.5.9-2.2 1.4-.4.2-.7.5-1.1.7l-2.1 1.5c-.3.2-.6.5-.9.7-1 .8-1.9 1.5-2.9 2.3 70.7-33.1 107.7 28 108.1 28.7Z"/><path fill="#fff" fill-opacity=".15" fill-rule="nonzero" d="m329.2 954.9-.6-.9.6.9Zm98.9 14.3c-.3.2-.5.4-.8.6.3-.2.6-.4.8-.6Zm-101.5-18.5c-.1-.2-.2-.4-.3-.5.1.2.2.4.3.5Zm5 7.6c-.2-.3-.5-.6-.7-1 .2.4.5.7.7 1Zm8.9 9.5c-.3-.3-.6-.5-.9-.8.4.3.6.6.9.8Zm76.4 8.9c-.2.1-.4.2-.6.4.2-.2.4-.3.6-.4Zm-4.2 2.1c-.3.1-.6.3-.9.4.3-.2.6-.3.9-.4Zm-69.1-8.4c-.1-.1-.2-.2-.3-.2.1 0 .2.1.3.2Zm-6.1-5.4-.8-.8c.3.3.6.5.8.8Zm-12.8-17.7c-.2-.4-.4-.7-.5-1.1.2.4.4.7.5 1.1Zm9.4 14c-.1-.1-.2-.3-.3-.4.1.2.2.3.3.4Zm86.7 13.2c-.3.2-.7.4-1 .6.4-.2.7-.4 1-.6Zm3.4-2.3c-.2.1-.4.3-.6.4.2-.1.4-.2.6-.4Zm-72.9 3.4c-.3-.2-.7-.4-1-.6.3.1.6.4 1 .6Zm48.9 7.4c-.4.1-.8.2-1.1.2.3-.1.7-.1 1.1-.2Zm-4.2.8c-.3.1-.7.1-1 .2.3-.1.6-.2 1-.2Zm-5.1.6h-.7c.2.1.5 0 .7 0Zm-27.2-3.3c-.4-.1-.8-.3-1.2-.4.4.2.8.3 1.2.4Zm-4.1-1.5c-.4-.1-.7-.3-1.1-.5.4.2.8.4 1.1.5Zm27.2 5h-1.2 1.2Zm-9.5-.4c-.4 0-.7-.1-1.1-.1.4 0 .8.1 1.1.1Zm4.9.4h-.8.8Zm-62.3-50c0 .2.1.4.2.5-.1-.1-.1-.3-.2-.5Zm111.4 31.8c-.3.3-.6.5-.8.8.3-.3.6-.5.8-.8Zm-110.1-27.5c-.1-.2-.1-.4-.2-.7.1.3.1.5.2.7Zm1.8 4.6c-.1-.3-.3-.6-.4-.9.1.3.3.6.4.9Zm24.7 29.8-.9-.6.9.6Zm25.3 10.2c-.4-.1-.8-.1-1.2-.2.4.1.8.2 1.2.2Zm-18.2-6c-.1 0-.1-.1-.2-.1.1 0 .2.1.2.1Zm54.1 2.8c-.4.1-.7.3-1.1.4.4-.1.8-.2 1.1-.4Z"/><path fill="#455477" fill-rule="nonzero" d="M319.9 934.7c0 .1.1.3.1.4.3 1 .6 2.1.9 3.1.1.2.1.4.2.7.4 1.2.9 2.4 1.4 3.7.1.3.3.6.4.9l1.2 2.7c.2.4.3.7.5 1.1.5 1 1 2 1.6 2.9.1.2.2.4.3.5.6 1.1 1.3 2.2 2 3.3l.6.9c.5.8 1.1 1.6 1.7 2.4.2.3.5.6.7 1 .7.9 1.4 1.8 2.2 2.7.1.1.2.3.3.4.9 1 1.7 1.9 2.6 2.9l.8.8c.7.7 1.4 1.4 2.1 2 .3.3.6.5.9.8.9.8 1.8 1.6 2.8 2.3.1.1.2.2.3.2 1 .8 2.1 1.6 3.2 2.3l.9.6c.8.5 1.7 1.1 2.5 1.6.3.2.7.4 1 .6 1.1.6 2.2 1.3 3.4 1.8.1 0 .1.1.2.1 1.2.6 2.4 1.2 3.7 1.7.4.2.7.3 1.1.5.9.4 1.9.7 2.9 1.1.4.1.8.3 1.2.4 1.3.4 2.6.9 4 1.2 1.4.4 2.8.7 4.2 1 .4.1.8.2 1.2.2 1.1.2 2.1.4 3.2.5.4 0 .7.1 1.1.1 1.4.2 2.7.3 4.1.4h.8c1.1.1 2.3.1 3.4.1h1.2c1.1 0 2.3-.1 3.4-.2h.7c1.3-.1 2.7-.3 4-.5.3 0 .7-.1 1-.2 1-.2 2.1-.4 3.1-.6.4-.1.8-.2 1.1-.2 1.3-.3 2.6-.6 3.9-1 1.3-.4 2.5-.8 3.8-1.2.4-.1.7-.3 1.1-.4 1-.4 1.9-.7 2.9-1.2.3-.1.6-.3.9-.4 1.2-.5 2.4-1.1 3.6-1.7.2-.1.4-.2.6-.4 1-.5 1.9-1.1 2.9-1.6.3-.2.7-.4 1-.6.9-.6 1.9-1.2 2.8-1.8.2-.1.4-.3.6-.4 1.1-.8 2.1-1.6 3.2-2.4.3-.2.5-.4.8-.6.8-.7 1.6-1.3 2.3-2 .3-.3.6-.5.8-.8 1-.9 1.9-1.8 2.9-2.8-76.7 48.8-112.9-26-114.3-28.9Z"/><path fill="#fff" fill-opacity=".15" fill-rule="nonzero" d="M319.9 934.7c0 .1.1.3.1.4.3 1 .6 2.1.9 3.1.1.2.1.4.2.7.4 1.2.9 2.4 1.4 3.7.1.3.3.6.4.9l1.2 2.7c.2.4.3.7.5 1.1.5 1 1 2 1.6 2.9.1.2.2.4.3.5.6 1.1 1.3 2.2 2 3.3l.6.9c.5.8 1.1 1.6 1.7 2.4.2.3.5.6.7 1 .7.9 1.4 1.8 2.2 2.7.1.1.2.3.3.4.9 1 1.7 1.9 2.6 2.9l.8.8c.7.7 1.4 1.4 2.1 2 .3.3.6.5.9.8.9.8 1.8 1.6 2.8 2.3.1.1.2.2.3.2 1 .8 2.1 1.6 3.2 2.3l.9.6c.8.5 1.7 1.1 2.5 1.6.3.2.7.4 1 .6 1.1.6 2.2 1.3 3.4 1.8.1 0 .1.1.2.1 1.2.6 2.4 1.2 3.7 1.7.4.2.7.3 1.1.5.9.4 1.9.7 2.9 1.1.4.1.8.3 1.2.4 1.3.4 2.6.9 4 1.2 1.4.4 2.8.7 4.2 1 .4.1.8.2 1.2.2 1.1.2 2.1.4 3.2.5.4 0 .7.1 1.1.1 1.4.2 2.7.3 4.1.4h.8c1.1.1 2.3.1 3.4.1h1.2c1.1 0 2.3-.1 3.4-.2h.7c1.3-.1 2.7-.3 4-.5.3 0 .7-.1 1-.2 1-.2 2.1-.4 3.1-.6.4-.1.8-.2 1.1-.2 1.3-.3 2.6-.6 3.9-1 1.3-.4 2.5-.8 3.8-1.2.4-.1.7-.3 1.1-.4 1-.4 1.9-.7 2.9-1.2.3-.1.6-.3.9-.4 1.2-.5 2.4-1.1 3.6-1.7.2-.1.4-.2.6-.4 1-.5 1.9-1.1 2.9-1.6.3-.2.7-.4 1-.6.9-.6 1.9-1.2 2.8-1.8.2-.1.4-.3.6-.4 1.1-.8 2.1-1.6 3.2-2.4.3-.2.5-.4.8-.6.8-.7 1.6-1.3 2.3-2 .3-.3.6-.5.8-.8 1-.9 1.9-1.8 2.9-2.8-76.7 48.8-112.9-26-114.3-28.9Z"/><path fill="#455477" fill-rule="nonzero" d="M799.6 901.9c-.3 0-.5.1-.8.1.3 0 .5 0 .8-.1Zm18-139.5 2.7 1.2c-.9-.5-1.8-.9-2.7-1.2Zm-77.5 121.2c-.8-.7-1.6-1.5-2.3-2.2.7.7 1.5 1.5 2.3 2.2Zm5.3-112.4c.7-.6 1.5-1.1 2.3-1.6-.8.5-1.5 1.1-2.3 1.6Zm84.3-2.4c.8.5 1.6 1.1 2.4 1.6-.8-.5-1.6-1-2.4-1.6Zm-59.4 131.4c-1.5-.4-2.9-.8-4.3-1.3 1.4.4 2.9.9 4.3 1.3Zm-21.4-131.4 2.4-1.5c-.9.5-1.7 1-2.4 1.5Zm-25.5 92.3c-.5-1-.9-1.9-1.3-2.9.4.9.8 1.9 1.3 2.9Zm129.9-66.6c.5.8.9 1.7 1.3 2.5-.4-.8-.9-1.6-1.3-2.5Zm-31.8-30.4c1.2.6 2.4 1.2 3.5 1.8-1.1-.6-2.3-1.2-3.5-1.8Zm-99.9 93-1.5-3.9 1.5 3.9ZM825.2 766c1.2.7 2.4 1.4 3.5 2.1-1.2-.7-2.3-1.4-3.5-2.1Zm-72.9.6c1.1-.7 2.3-1.3 3.5-1.9-1.2.6-2.4 1.3-3.5 1.9Zm22.2 134.5c-.3-.1-.6-.1-.9-.2.3.1.6.2.9.2Zm-54.6-48.6c-.4-1.1-.7-2.2-1-3.4.3 1.1.6 2.2 1 3.4Zm21.4-78c1-.9 2.1-1.7 3.1-2.5-1 .8-2.1 1.6-3.1 2.5Zm23.5 123.9c-1-.4-2.1-.8-3.1-1.2 1 .4 2 .8 3.1 1.2Zm81.1-114.9c.6.7 1.1 1.4 1.7 2.2-.6-.7-1.1-1.4-1.7-2.2Zm-2.8-3.2c.6.7 1.3 1.4 1.9 2.1-.6-.7-1.3-1.4-1.9-2.1Zm-91.6 111.8c-.9-.6-1.8-1.1-2.7-1.7.9.6 1.8 1.2 2.7 1.7Zm96.9-105.3c.7 1 1.4 1.9 2 2.9-.7-1-1.3-2-2-2.9Zm2.2 3.3c.7 1.1 1.4 2.3 2.1 3.4-.7-1.2-1.4-2.3-2.1-3.4Zm-102.8 99.6c-1.2-.8-2.3-1.7-3.5-2.5 1.1.9 2.3 1.7 3.5 2.5Zm-17.2-16.6c-.6-.9-1.2-1.7-1.8-2.6.6.9 1.2 1.8 1.8 2.6Z"/><path fill="#455477" fill-rule="nonzero" d="M741.3 774.5c-10.6 9.2-18.7 21.6-22.6 36.2-3.5 12.9-3.2 25.9 0 37.9 1.2 2.6 28.4 58.8 85.1 47.6 21.2-29.7 38.2-62 50.6-96-11.7-15.2-50-55.1-113.1-25.7Zm19.2 122.2c-1.4-.6-2.7-1.2-4-1.8 1.3.6 2.6 1.3 4 1.8Zm-4.2-1.9c-1.2-.6-2.5-1.3-3.6-2 1.1.7 2.3 1.4 3.6 2Zm80.1-120.9c.9.8 1.9 1.6 2.8 2.5-.9-.9-1.8-1.7-2.8-2.5Zm-92.4 113c-1-.8-2-1.6-3-2.5 1 .9 2 1.7 3 2.5Zm95.4-110.3c1 .9 1.9 1.9 2.8 2.9-.8-1-1.8-2-2.8-2.9Zm-6.2-5.3c.7.6 1.5 1.1 2.2 1.7-.7-.5-1.4-1.1-2.2-1.7Zm-55.5 130.4c-.1 0-.3-.1-.4-.1.2.1.3.1.4.1Zm11.4 1h-.8.8ZM804 758.1c1.4.3 2.8.6 4.2 1-1.5-.4-2.8-.7-4.2-1Zm-31.7.5c1.3-.3 2.6-.6 3.9-.8-1.3.2-2.6.5-3.9.8Zm41.2 2.2c.9.3 1.9.7 2.8 1-.9-.4-1.9-.7-2.8-1Zm-13.8-3.4c1 .1 1.9.3 2.9.5-.9-.2-1.9-.4-2.9-.5Zm-18-.4c.9-.1 1.9-.2 2.8-.2-.9 0-1.9.1-2.8.2Zm-4.3.6c.9-.2 1.9-.3 2.8-.4-.9.1-1.8.2-2.8.4Zm18-.7c1 .1 1.9.2 2.9.3-1-.2-2-.3-2.9-.3Zm.8 145.4c-.2 0-.4 0-.6.1.2 0 .4-.1.6-.1Zm-6.3-145.7c1.4 0 2.8.1 4.1.2-1.3-.1-2.7-.2-4.1-.2Zm-4.1.1c1.4-.1 2.7-.1 4.1-.1-1.4 0-2.7 0-4.1.1Zm6.6 145.9h-.7.7Zm-31.8-140.1c.9-.4 1.7-.7 2.6-1.1-.9.4-1.8.7-2.6 1.1Zm-32.5 107.1c-.8-1.2-1.5-2.4-2.2-3.6.7 1.2 1.5 2.4 2.2 3.6Zm27.7-104.9c1.2-.6 2.4-1.2 3.6-1.7-1.2.5-2.4 1.1-3.6 1.7Zm26 137.6c-.3 0-.6-.1-.8-.1.2 0 .5 0 .8.1Zm-56.2-36.9c-.6-1-1.1-2.1-1.7-3.2.6 1.1 1.1 2.2 1.7 3.2Zm42.7-105.8c1.3-.4 2.6-.7 3.9-1.1-1.3.4-2.6.8-3.9 1.1Z"/><path fill="#455477" fill-rule="nonzero" d="M736.9 880.6c-1-1-1.9-2-2.9-3.1 1 1 1.9 2 2.9 3.1Zm48.2 21.9h-.6.6Zm-20.6-141.6 2.7-.9-2.7.9Z"/><path fill-rule="nonzero" d="M845 782.5c.3.4.6.7.9 1.1-.3-.4-.6-.8-.9-1.1Zm-5.8-6.1c.1.1.2.1.2.2 0-.1-.1-.2-.2-.2Zm-63-18.6c.4-.1.8-.1 1.3-.2-.5 0-.9.1-1.3.2Zm44.1 5.7 1.2.6-1.2-.6Zm30.1 26.2c.1.1.2.2.2.4-.1-.2-.1-.3-.2-.4Zm-38.2-29.4c.4.1.8.3 1.3.4-.4-.1-.8-.2-1.3-.4Zm35.4 25.4c.3.3.5.7.8 1-.3-.3-.6-.6-.8-1Zm-15.5-15.2c.4.3.8.6 1.1.8-.4-.3-.7-.5-1.1-.8Zm-3.4-2.4c.4.2.7.5 1.1.7-.4-.2-.8-.4-1.1-.7Zm-3.7-2.2c.1 0 .1.1.2.1-.1 0-.2 0-.2-.1Zm-61.8-4.5c.4-.2.9-.3 1.3-.5-.5.2-.9.4-1.3.5Zm39.5-3.5c.4.1.9.2 1.3.2-.5-.1-.9-.2-1.3-.2Zm32.7 15.2c.3.3.7.5 1 .8-.3-.3-.6-.6-1-.8Zm-37.1-15.9c.5.1 1 .1 1.5.2-.6-.1-1-.2-1.5-.2Zm-38.9 5.8c.4-.2.8-.3 1.2-.5-.4.1-.8.3-1.2.5Zm56.9-1.2c.5.2.9.4 1.4.6-.5-.2-1-.4-1.4-.6Zm-49.2-1.8c.4-.1.8-.3 1.2-.4-.4.2-.8.3-1.2.4Zm75.2 19.4c.3.3.5.6.8.9-.3-.3-.5-.6-.8-.9Zm12.8 18.8-.6-1.2c.3.4.5.8.6 1.2Zm-2.4-4.7c.2.3.4.7.6 1-.2-.3-.4-.7-.6-1Zm-101.5-26.2c.4-.2.7-.4 1.1-.7-.4.2-.7.5-1.1.7Zm42.9-10.6c.4 0 .9.1 1.3.1-.5 0-.9 0-1.3-.1ZM744.4 772c.3-.3.7-.5 1-.8-.3.3-.6.5-1 .8Zm40.1-15.3c.4 0 .9-.1 1.3-.1-.4.1-.9.1-1.3.1Zm-36.8 12.9c.4-.3.8-.5 1.2-.8-.4.2-.8.5-1.2.8Zm32.6-12.5c.5-.1.9-.1 1.4-.2-.5.1-1 .2-1.4.2Z"/><path fill="#455477" fill-rule="nonzero" d="M853.3 794.5c-.2-.3-.4-.7-.6-1-.7-1.2-1.3-2.3-2.1-3.4-.1-.1-.2-.2-.2-.4-.7-1-1.3-2-2-2.9-.3-.3-.5-.7-.8-1-.6-.7-1.1-1.5-1.7-2.2-.3-.4-.6-.7-.9-1.1-.6-.7-1.2-1.4-1.9-2.1-.3-.3-.5-.6-.8-.9-.9-1-1.9-1.9-2.8-2.9-.1-.1-.2-.1-.2-.2-.9-.8-1.8-1.7-2.8-2.5-.3-.3-.7-.5-1-.8-.7-.6-1.5-1.2-2.2-1.7-.4-.3-.8-.6-1.1-.8-.8-.6-1.6-1.1-2.4-1.6-.4-.2-.7-.5-1.1-.7-1.1-.7-2.3-1.5-3.5-2.1-.1 0-.1-.1-.2-.1-1.1-.6-2.3-1.3-3.5-1.8l-1.2-.6-2.7-1.2c-.5-.2-.9-.4-1.4-.6-.9-.4-1.8-.7-2.8-1-.4-.1-.8-.3-1.3-.4-1.3-.4-2.7-.9-4.1-1.2-1.4-.4-2.8-.7-4.2-1-.4-.1-.9-.2-1.3-.2-1-.2-1.9-.3-2.9-.5-.5-.1-1-.1-1.5-.2-1-.1-1.9-.2-2.9-.3-.4 0-.9-.1-1.3-.1-1.4-.1-2.8-.2-4.1-.2-1.4 0-2.7 0-4.1.1-.4 0-.9.1-1.3.1-1 .1-1.9.1-2.8.2-.5 0-.9.1-1.4.2-.9.1-1.9.3-2.8.4-.4.1-.8.1-1.3.2-1.3.2-2.6.5-3.9.8-1.3.3-2.6.7-3.9 1.1-.4.1-.8.3-1.2.4l-2.7.9c-.4.2-.9.3-1.3.5-.9.3-1.7.7-2.6 1.1-.4.2-.8.3-1.2.5-1.2.5-2.4 1.1-3.6 1.7-1.2.6-2.3 1.3-3.5 1.9-.4.2-.7.4-1.1.7l-2.4 1.5c-.4.3-.8.5-1.2.8-.8.5-1.5 1.1-2.3 1.6-.3.3-.7.5-1 .8-1.1.8-2.1 1.7-3.1 2.5 63.1-29.4 101.4 10.5 113.1 25.7.2-.7.5-1.3.7-2l-.6-1.2c-.1-1.1-.6-1.9-1-2.8Z"/><path fill-rule="nonzero" d="M853.3 794.5c-.2-.3-.4-.7-.6-1-.7-1.2-1.3-2.3-2.1-3.4-.1-.1-.2-.2-.2-.4-.7-1-1.3-2-2-2.9-.3-.3-.5-.7-.8-1-.6-.7-1.1-1.5-1.7-2.2-.3-.4-.6-.7-.9-1.1-.6-.7-1.2-1.4-1.9-2.1-.3-.3-.5-.6-.8-.9-.9-1-1.9-1.9-2.8-2.9-.1-.1-.2-.1-.2-.2-.9-.8-1.8-1.7-2.8-2.5-.3-.3-.7-.5-1-.8-.7-.6-1.5-1.2-2.2-1.7-.4-.3-.8-.6-1.1-.8-.8-.6-1.6-1.1-2.4-1.6-.4-.2-.7-.5-1.1-.7-1.1-.7-2.3-1.5-3.5-2.1-.1 0-.1-.1-.2-.1-1.1-.6-2.3-1.3-3.5-1.8l-1.2-.6-2.7-1.2c-.5-.2-.9-.4-1.4-.6-.9-.4-1.8-.7-2.8-1-.4-.1-.8-.3-1.3-.4-1.3-.4-2.7-.9-4.1-1.2-1.4-.4-2.8-.7-4.2-1-.4-.1-.9-.2-1.3-.2-1-.2-1.9-.3-2.9-.5-.5-.1-1-.1-1.5-.2-1-.1-1.9-.2-2.9-.3-.4 0-.9-.1-1.3-.1-1.4-.1-2.8-.2-4.1-.2-1.4 0-2.7 0-4.1.1-.4 0-.9.1-1.3.1-1 .1-1.9.1-2.8.2-.5 0-.9.1-1.4.2-.9.1-1.9.3-2.8.4-.4.1-.8.1-1.3.2-1.3.2-2.6.5-3.9.8-1.3.3-2.6.7-3.9 1.1-.4.1-.8.3-1.2.4l-2.7.9c-.4.2-.9.3-1.3.5-.9.3-1.7.7-2.6 1.1-.4.2-.8.3-1.2.5-1.2.5-2.4 1.1-3.6 1.7-1.2.6-2.3 1.3-3.5 1.9-.4.2-.7.4-1.1.7l-2.4 1.5c-.4.3-.8.5-1.2.8-.8.5-1.5 1.1-2.3 1.6-.3.3-.7.5-1 .8-1.1.8-2.1 1.7-3.1 2.5 63.1-29.4 101.4 10.5 113.1 25.7.2-.7.5-1.3.7-2l-.6-1.2c-.1-1.1-.6-1.9-1-2.8Z"/><path fill="#fff" fill-opacity=".15" fill-rule="nonzero" d="M798.8 902c-.9.1-1.7.2-2.6.3.9-.1 1.7-.2 2.6-.3Zm-3.2.4c-1 .1-2.1.2-3.1.2 1-.1 2-.1 3.1-.2ZM722 858.2c-.1-.3-.3-.7-.4-1 .1.3.3.6.4 1Zm-1.9-5c-.1-.2-.2-.5-.2-.7.1.2.1.4.2.7Zm-1.4-4.7c.1.2.1.4.2.6 0-.2-.1-.3-.1-.5-.1 0-.1-.1-.1-.1Zm22.3 36c-.3-.3-.6-.6-1-.9.4.3.7.6 1 .9Zm-3.3-3.1-.8-.8c.3.2.6.5.8.8ZM725.9 866l-.3-.6.3.6Zm5.5 8.1c-.3-.3-.5-.7-.8-1 .3.4.5.7.8 1Zm-2.6-3.6c-.2-.3-.4-.6-.6-1 .1.4.3.7.6 1Zm15.5 16.7-.3-.3.3.3Zm-20.4-25-.6-1.2c.2.5.4.8.6 1.2Zm10.1 15.2c-.1-.1-.2-.3-.3-.4.1.2.2.3.3.4Zm18.6 15.4c-.4-.2-.7-.4-1.1-.7.4.3.8.5 1.1.7Zm28.4 9.4c-1.1-.1-2.1-.3-3.2-.4 1 .1 2.1.3 3.2.4Zm-7.4-1.3c-1.1-.2-2.2-.5-3.3-.8 1.1.3 2.2.6 3.3.8Zm26.1 1s-.1 0 0 0c-.1 0-.1 0 0 0Zm-22.4-.2c-1-.2-1.9-.3-2.9-.5 1 .1 2 .3 2.9.5Zm11 1c-1.1 0-2.1 0-3.2-.1 1.1 0 2.1 0 3.2.1Zm-3.8-.2c-.9-.1-1.8-.1-2.7-.2.9.1 1.8.1 2.7.2Zm-35.7-12.1c-.3-.2-.7-.5-1-.7.3.3.6.5 1 .7Zm7.7 4.5c-.1 0-.1-.1-.2-.1 0 0 .1.1.2.1Zm35.2 7.7h-2.6c.8.1 1.7 0 2.6 0Zm-25.7-3.8c-.4-.1-.8-.3-1.2-.4.4.1.8.3 1.2.4Zm-4.3-1.6c-.4-.2-.8-.3-1.2-.5.4.2.8.4 1.2.5Z"/><path fill="#455477" fill-rule="nonzero" d="M718.7 848.6c0 .2.1.3.1.5.3 1.1.7 2.2 1 3.4.1.2.1.5.2.7l1.5 3.9c.1.3.3.7.4 1 .4 1 .9 2 1.3 2.9l.6 1.2c.5 1.1 1.1 2.1 1.7 3.2l.3.6c.7 1.2 1.4 2.4 2.2 3.6.2.3.4.6.6 1 .6.9 1.2 1.7 1.8 2.6.3.3.5.7.8 1 .8 1 1.5 1.9 2.3 2.9.1.1.2.3.3.4.9 1.1 1.9 2.1 2.9 3.1l.8.8c.8.7 1.5 1.5 2.3 2.2.3.3.6.6 1 .9 1 .9 2 1.7 3 2.5l.3.3c1.1.9 2.3 1.7 3.5 2.5.3.2.7.5 1 .7.9.6 1.8 1.2 2.7 1.7.4.2.7.4 1.1.7 1.2.7 2.4 1.4 3.6 2 .1 0 .1.1.2.1 1.3.7 2.6 1.3 4 1.8.4.2.8.3 1.2.5 1 .4 2.1.8 3.1 1.2.4.1.8.3 1.2.4 1.4.5 2.9.9 4.3 1.3 1.1.3 2.2.5 3.3.8.3.1.6.1.9.2 1 .2 1.9.4 2.9.5.1 0 .3.1.4.1 1.1.2 2.2.3 3.2.4.3 0 .6.1.8.1.9.1 1.8.2 2.7.2h.6c1.1.1 2.1.1 3.2.1h4.1c1.1 0 2.1-.1 3.1-.2.2 0 .4 0 .6-.1.9-.1 1.7-.2 2.6-.3.3 0 .5-.1.8-.1h.1c1.4-1.9 2.8-3.8 4.1-5.7-56.2 11.2-83.4-44.9-84.7-47.6Z"/><path fill="#fff" fill-opacity=".15" fill-rule="nonzero" d="M718.7 848.6c0 .2.1.3.1.5.3 1.1.7 2.2 1 3.4.1.2.1.5.2.7l1.5 3.9c.1.3.3.7.4 1 .4 1 .9 2 1.3 2.9l.6 1.2c.5 1.1 1.1 2.1 1.7 3.2l.3.6c.7 1.2 1.4 2.4 2.2 3.6.2.3.4.6.6 1 .6.9 1.2 1.7 1.8 2.6.3.3.5.7.8 1 .8 1 1.5 1.9 2.3 2.9.1.1.2.3.3.4.9 1.1 1.9 2.1 2.9 3.1l.8.8c.8.7 1.5 1.5 2.3 2.2.3.3.6.6 1 .9 1 .9 2 1.7 3 2.5l.3.3c1.1.9 2.3 1.7 3.5 2.5.3.2.7.5 1 .7.9.6 1.8 1.2 2.7 1.7.4.2.7.4 1.1.7 1.2.7 2.4 1.4 3.6 2 .1 0 .1.1.2.1 1.3.7 2.6 1.3 4 1.8.4.2.8.3 1.2.5 1 .4 2.1.8 3.1 1.2.4.1.8.3 1.2.4 1.4.5 2.9.9 4.3 1.3 1.1.3 2.2.5 3.3.8.3.1.6.1.9.2 1 .2 1.9.4 2.9.5.1 0 .3.1.4.1 1.1.2 2.2.3 3.2.4.3 0 .6.1.8.1.9.1 1.8.2 2.7.2h.6c1.1.1 2.1.1 3.2.1h4.1c1.1 0 2.1-.1 3.1-.2.2 0 .4 0 .6-.1.9-.1 1.7-.2 2.6-.3.3 0 .5-.1.8-.1h.1c1.4-1.9 2.8-3.8 4.1-5.7-56.2 11.2-83.4-44.9-84.7-47.6Z"/><path fill="#2f4d69" fill-opacity=".6" fill-rule="nonzero" d="M867.3 458.3c0-28.7-30.6-52.2-68.1-52.2H145.8c-37.4 0-68.1 23.5-68.1 52.2 0 28.7 30.6 52.2 68.1 52.2h653.4c37.5 0 68.1-23.5 68.1-52.2Z"/><path fill="#5d6e9d" fill-rule="nonzero" d="M893.9 447.7c0-31.1-32.8-56.5-72.9-56.5H130.3c-40.1 0-72.9 25.4-72.9 56.5s32.8 56.5 72.9 56.5H821c40.1 0 72.9-25.4 72.9-56.5Z"/><path fill="none" stroke="#e3ebf5" stroke-linecap="round" stroke-opacity=".1" stroke-width="12.58" d="M136 416h435.6"/><path fill="none" stroke="#e3ebf5" stroke-linecap="round" stroke-opacity=".15" stroke-width="11.25" d="M603.1 416h31.4"/><path fill="none" stroke="#e3ebf5" stroke-linecap="round" stroke-opacity=".2" stroke-width="12.58" d="M666.8 416h136.5"/><path fill="#fff2d8" d="M346.4 675.6c0-71.478 58.023-129.5 129.5-129.5s129.5 58.022 129.5 129.5c0 71.477-58.023 129.5-129.5 129.5s-129.5-57.93-129.5-129.5Z"/><path fill="#482402" d="M505.051 729.978c-11.772 20.275-37.747 27.283-58.022 15.51-20.276-11.773-27.283-37.747-15.51-58.022 11.772-20.276 37.747-27.283 58.022-15.51 20.275 11.679 27.283 37.653 15.51 58.022Zm-53.724 8.129c16.257 9.343 37 3.83 46.436-12.427 9.344-16.257 3.831-37-12.426-46.437-16.258-9.343-37-3.83-46.437 12.427-9.437 16.258-3.831 37.093 12.427 46.437Z"/><path fill="#482402" d="M491.13 721.85c-7.288 12.613-23.359 16.91-35.973 9.623-12.613-7.288-16.911-23.359-9.623-35.972 7.288-12.614 23.358-16.912 35.972-9.624 12.52 7.288 16.818 23.359 9.624 35.972Zm-31.768 2.335c8.502 4.952 19.434 1.962 24.386-6.54 4.952-8.503 1.962-19.435-6.54-24.387-8.503-4.952-19.434-1.962-24.386 6.54-4.952 8.503-1.963 19.435 6.54 24.387Z"/><path fill="#f6e6d2" d="M479.917 688.587c-11.118-6.447-25.32-2.616-31.767 8.502-6.447 11.119-2.616 25.32 8.502 31.768 11.119 6.447 25.321 2.616 31.768-8.503 6.447-11.118 2.616-25.32-8.503-31.767Zm-41.11 3.083c9.343-16.258 30.179-21.864 46.436-12.427 16.258 9.344 21.864 30.18 12.427 46.437-9.343 16.258-30.18 21.864-46.437 12.427-16.164-9.344-21.77-30.18-12.427-46.437Z"/><path fill="#e89b37" fill-rule="nonzero" d="M538.314 638.413c-2.803 4.765-6.82 8.315-11.492 10.464-3.644 1.682-5.793 7.662-3.458 10.839 9.157 12.146 13.268 27.282 11.68 42.419-.28 2.336 1.308 4.578 3.55 5.419 1.028.374 2.056.934 3.084 1.495 10.184 5.886 13.641 18.874 7.755 29.058-5.887 10.184-18.874 13.641-29.058 7.755l-96.05-55.407c-10.185-5.886-13.642-18.873-7.756-29.058 5.886-10.184 18.874-13.641 29.058-7.755a15.042 15.042 0 0 1 2.803 1.962c1.869 1.495 4.578 1.776 6.54.374 12.24-8.97 27.47-12.987 42.513-11.119 3.924.468 8.035-4.484 7.662-8.409-.467-5.139.56-10.37 3.27-15.136 7.008-12.146 18.407-8.97 30.553-1.962.093-.094 6.353 6.914-.654 19.06Z"/><path fill="url(#a)" fill-rule="nonzero" d="M536.8 517.5c-3 5.1-7.3 8.9-12.3 11.2-3.9 1.8-6.2 8.2-3.7 11.6 9.8 13 14.2 29.2 12.5 45.4-.3 2.5 1.4 4.9 3.8 5.8 1.1.4 2.2 1 3.3 1.6 10.9 6.3 14.6 20.2 8.3 31.1-6.3 10.9-20.2 14.6-31.1 8.3l-102.8-59.3c-10.9-6.3-14.6-20.2-8.3-31.1 6.3-10.9 20.2-14.6 31.1-8.3 1.1.6 2.1 1.3 3 2.1 2 1.6 4.9 1.9 7 .4 13.1-9.6 29.4-13.9 45.5-11.9 4.2.5 8.6-4.8 8.2-9-.5-5.5.6-11.1 3.5-16.2 7.5-13 19.7-9.6 32.7-2.1.1-.1 6.8 7.4-.7 20.4Z" transform="translate(36.759 154.89) scale(.93434)"/><path fill="#e28432" fill-rule="nonzero" d="M528.69 698.49c1.682-15.042-2.523-30.272-11.68-42.418l-2.335 4.017c3.55 16.725.654 17.099-.747 29.9-.28 2.335 1.308 4.578 3.55 5.418 1.028.374 2.056.935 3.083 1.495 10.185 5.887 13.642 18.874 7.755 29.058-5.886 10.185-18.873 13.642-29.058 7.755l14.67 8.503c10.184 5.886 23.171 2.43 29.058-7.755 5.886-10.184 2.429-23.172-7.755-29.058-1.028-.56-2.056-1.028-3.084-1.495-2.055-.841-3.644-2.99-3.457-5.42Z"/><path fill="#482402" d="M523.271 641.122c3.083-1.401 5.793-3.737 7.662-7.007 4.671-8.13 1.868-18.5-6.26-23.172-8.13-4.672-18.5-1.869-23.172 6.26-1.869 3.177-2.523 6.727-2.243 10.09.468 4.953-1.775 9.438-4.298 12.334-2.429 2.803-7.007 6.073-12.894 5.326-12.893-1.588-25.974 1.869-36.439 9.53-5.606 4.111-12.52 2.897-16.912-.654-.56-.467-1.12-.84-1.681-1.214-6.074-3.551-13.922-1.402-17.38 4.671-3.55 6.073-1.4 13.922 4.673 17.379l110.346 63.722c6.073 3.55 13.921 1.402 17.378-4.672 3.55-6.073 1.402-13.921-4.671-17.378a17.422 17.422 0 0 0-1.87-.935c-5.231-1.962-9.716-7.474-8.969-14.295 1.402-12.894-2.149-25.975-9.997-36.346-3.55-4.672-2.99-10.278-1.776-13.828 1.215-3.55 3.925-7.755 8.503-9.81Zm3.55 7.755c4.672-2.149 8.69-5.7 11.493-10.464 7.007-12.147 2.896-27.75-9.344-34.851-12.146-7.008-27.75-2.897-34.85 9.343-2.804 4.765-3.831 10.09-3.27 15.136.373 3.925-3.738 8.877-7.662 8.41-15.043-1.87-30.273 2.148-42.513 11.118-1.962 1.402-4.672 1.121-6.54-.374a15.042 15.042 0 0 0-2.803-1.962c-10.185-5.886-23.172-2.43-29.058 7.755-5.887 10.185-2.43 23.172 7.755 29.058l110.346 63.723c10.184 5.886 23.171 2.429 29.058-7.756 5.886-10.184 2.429-23.171-7.755-29.058-1.028-.56-2.056-1.027-3.084-1.495-2.242-.84-3.83-3.083-3.55-5.419 1.682-15.043-2.523-30.272-11.68-42.419-2.429-3.083-.186-9.063 3.458-10.745Z"/><path fill="#482402" d="M487.486 660.743c-.56 2.243-2.897 3.644-5.14 3.084-2.522-.654-7.194-1.122-12.333-.187-5.045.934-10.37 3.083-14.575 7.568-1.589 1.682-4.298 1.775-5.98.187-1.682-1.589-1.775-4.298-.187-5.98 5.7-6.073 12.894-8.97 19.248-10.09 6.353-1.122 12.24-.561 15.883.28 2.243.56 3.644 2.802 3.084 5.138Z"/><defs><linearGradient id="a" x1="0" x2="1" y1="0" y2="0" gradientTransform="rotate(30.173 -725.909 1045.65) scale(158.288)" gradientUnits="userSpaceOnUse"><stop offset="0" stop-color="#efc443"/><stop offset="1" stop-color="#e69536"/></linearGradient></defs></svg>