<svg xmlns="http://www.w3.org/2000/svg" xml:space="preserve" x="0" y="0" version="1.1" viewBox="0 0 952 1082"><style>.st10{opacity:.45}.st11{fill:#e5ac23}.st13{opacity:.2}.st16,.st17,.st18{stroke:#000;stroke-miterlimit:10}.st17{opacity:.3;enable-background:new}.st18{fill:none;stroke-width:10.6772;stroke-linecap:round}.st19{opacity:.1;stroke:#000;enable-background:new;stroke-miterlimit:10}.st22{fill:#948fc4}.st23{opacity:.3;fill:#635ea8;enable-background:new}.st24{fill:none;stroke:#5f6062;stroke-width:10.6772;stroke-linecap:round;stroke-miterlimit:10}.st25{fill:#9590c5}.st26{fill:#635da8}.st27{fill:#e7e5ea}.st28{opacity:.1;fill:#635da8;enable-background:new}.st33{fill:#5d6e9d}.st35{fill:#455477}.st36,.st37{opacity:.5;fill:#2e374f;enable-background:new}.st37{opacity:.15;fill:#fff}.st47,.st48{fill-rule:evenodd;clip-rule:evenodd;fill:#4f2c13}.st48{opacity:.962;fill:#ffb2b2;enable-background:new}</style><path fill="#fff" stroke="#fff" stroke-miterlimit="10" stroke-width="45.8" d="M618.4 178c-56.4 0-106.8 25.3-140.7 65.1-20.7-24.8-51.9-40.6-86.8-40.6-62.4 0-113 50.6-113 113 0 1 0 2 .1 3.1-6-1-12.1-1.5-18.4-1.5-61.6 0-111.4 49.9-111.4 111.4 0 0 222.9 3.1 222.8 3.1h75.9c27.3 68 93.8 116 171.5 116 102 0 184.7-82.7 184.7-184.7S720.4 178 618.4 178z"/><path fill="#fff" stroke="#fff" stroke-miterlimit="10" stroke-width="33.587" d="M845.1 500c85.7 195.4 3.9 425.8-189 522.3-199.2 99.7-441.4 19-541.1-180.2-55.6-111.1-55.1-235.6-9.2-341.2"/><path fill="#fff" d="M893.9 447.7c0-31.1-32.8-56.5-72.9-56.5H130.3c-40.1 0-72.9 25.4-72.9 56.5s32.8 56.5 72.9 56.5H821c40.1 0 72.9-25.4 72.9-56.5z"/><path fill="none" stroke="#fff" stroke-miterlimit="10" stroke-width="33.587" d="M893.9 447.7c0-31.1-32.8-56.5-72.9-56.5H130.3c-40.1 0-72.9 25.4-72.9 56.5s32.8 56.5 72.9 56.5H821c40.1 0 72.9-25.4 72.9-56.5z"/><path fill="#e5ac23" stroke="#e5ac23" stroke-miterlimit="10" stroke-width="12.213" d="M618.4 178c-56.4 0-106.8 25.3-140.7 65.1-20.7-24.8-51.9-40.6-86.8-40.6-62.4 0-113 50.6-113 113 0 1 0 2 .1 3.1-6-1-12.1-1.5-18.4-1.5-61.6 0-111.4 49.9-111.4 111.4 0 0 222.9 3.1 222.8 3.1h75.9c27.3 68 93.8 116 171.5 116 102 0 184.7-82.7 184.7-184.7S720.4 178 618.4 178z"/><path fill="#efc51a" d="M618.4 178c-56.4 0-106.8 25.3-140.7 65.1-20.7-24.8-51.9-40.6-86.8-40.6-62.4 0-113 50.6-113 113 0 1 0 2 .1 3.1-6-1-12.1-1.5-18.4-1.5-61.6 0-111.4 49.9-111.4 111.4 0 0 222.9 3.1 222.8 3.1h75.9c27.3 68 93.8 116 171.5 116 102 0 184.7-82.7 184.7-184.7S720.4 178 618.4 178z"/><g class="st10"><path d="M497.4 253.6c19.5-23.9 47.1-41.7 77.6-50.1 7.6-2.2 15.4-3.6 23.2-4.7l5.9-.6 3-.3 3-.1 5.9-.2 5.9.1c15.9.3 31.7 3.1 46.8 8 30.3 9.8 57.4 29 76.7 53.9 9.8 12.4 17.5 26.3 23.2 40.9 2.7 7.3 5 14.8 6.6 22.4 1.6 7.6 2.6 15.3 3 23-5.9-30.3-19.5-58.4-39.2-81-19.7-22.6-45.3-39.8-73.6-49.1-14.1-4.6-28.9-7.3-43.8-8l-5.6-.2-5.6.1h-2.8l-2.8.2-5.6.3-5.6.6c-.9.1-1.9.2-2.8.3l-2.8.4c-1.8.3-3.7.6-5.5.9l-5.5 1.2c-29.3 6.5-56.8 21.2-79.6 42z" class="st11"/></g><g class="st10"><path d="M315.1 269.5c8.6-19.2 25.4-35.1 45.8-43 5.1-1.9 10.3-3.6 15.8-4.5 2.7-.6 5.4-.8 8.2-1.2 1.4-.1 2.7-.2 4.1-.3 1.4-.1 2.8-.2 4.1-.1 11-.1 22.1 2 32.4 6 20.7 7.9 38.1 23.8 47.8 43.5 2.4 4.9 4.4 10 5.8 15.2 1.4 5.2 2.4 10.6 2.8 15.9.8 10.7-.3 21.5-3.6 31.5 2.2-20.9-2.2-41.6-12.4-58.7-10.2-17-26-30.5-44.3-37.5-4.6-1.8-9.3-3.1-14.1-4.1-4.8-1-9.7-1.5-14.6-1.7-9.9-.4-19.7 1.1-29.3 3.8-19 5.9-36.1 18.3-48.5 35.2z" class="st11"/></g><g class="st10"><path d="M228.5 339c7.3-4.7 15.9-7.3 24.8-7.9 8.8-.6 17.9.5 26.3 3.7 4.2 1.5 8.2 3.6 12.1 5.8l2.8 1.9 1.4.9 1.3 1 2.6 2.1 2.4 2.3 1.2 1.1 1.1 1.2c.7.8 1.5 1.6 2.2 2.5 1.3 1.8 2.7 3.4 3.9 5.3l1.7 2.8c.5 1 1 1.9 1.5 2.9 1 1.9 1.7 4 2.4 6-3.3-2.9-6.2-5.8-9.5-8.3l-1.2-1-1.2-.9-2.4-1.8c-1.7-1.1-3.2-2.4-4.9-3.4-3.3-2.2-6.8-4.1-10.2-5.9-1.8-.8-3.5-1.8-5.3-2.4l-2.7-1.2-2.7-1c-7.3-2.7-14.9-4.4-22.8-5.3-8.1-.9-16.2-.9-24.8-.4z" class="st11"/></g><g class="st13"><path d="M104.2 312.7c.9 3.5 5.1 26.4-33.5 28.5-2.8.2-5.4-1.6-6.3-4.3L8.7 159.5c-1-3.1.6-6.3 3.5-7.6l19.3-8.2c3.2-1.4 6.9.2 8.2 3.5L103.9 312c.1.2.2.5.3.7z" class="st16"/><path d="M104.2 312.7c.9 3.5 5.1 26.4-33.5 28.5-2.8.2-5.4-1.6-6.3-4.3L8.7 159.5c-1-3.1.6-6.3 3.5-7.6l19.3-8.2c3.2-1.4 6.9.2 8.2 3.5L103.9 312c.1.2.2.5.3.7z" class="st17"/><path d="M90.1 327.5c22-31.8 78-55.5 168.2-59.7 90.1-4.2 115.6-60.3 115.6-60.3L313.3 16.8s-25.5 56.1-115.6 60.3c-77.6 3.6-129.9 21.7-157 46.9-7.2 6.7-9.8 17-6.8 26.3l56.2 177.2z" class="st16"/><path d="M141.7 275.9c29.4-14.3 61.6-20.6 92.8-29.3 26.3-7.3 58.1-16.6 72.4-42.1 6.7-12 9.8-26.5 12.2-39.9 2.7-15.6 3.2-31.5 2.6-47.3-1.3-32.4 1.1-66.4-8.4-97.7-.2-.5-.3-1-.6-1.3.4-.8.7-1.3.7-1.3L374 207.7s-25.5 56.1-115.6 60.3-146.2 27.9-168.2 59.7l-1.8-5.8c12.3-20.3 31.7-35.5 53.3-46z" class="st17"/><path d="m314.6 9 214.5 660" class="st18"/><path d="M175.2 210.9c-.9 0-1.8-.1-2.6-.1.9 0 1.8.1 2.6.1zm53.2-18.2c-.4.3-1 .8-2 1.6.9-.7 1.6-1.2 2-1.6z" class="st16"/><path d="M129.3 190c6.1 18.7 19.9 32.6 36.7 39.5.2-7.8 3.5-16 5.5-20.3-.5-1.4-1.1-3.9-1-7.2 1.1 1.9 5.7 1.9 9.4 1.6 5.5-.5 12.5-2.1 19.7-4.4 7.2-2.3 13.8-5.2 18.5-8 3.2-1.9 6.9-4.6 6.7-6.8 2 2.6 3 4.9 3.4 6.4 4.2 2.3 11.7 7 16.4 13.1 9.6-15.5 12.6-34.9 6.5-53.6-10.9-33.6-47.1-52.1-80.7-41.1s-52 47.2-41.1 80.8zm7.8-15.1c-2.2-6.7 1.4-14 8.1-16.3 1.2-16 12.5-30.7 29.5-36.2s34.8-.3 45.2 11.9c6.8-2.1 14 1.6 16.1 8.4 2.1 6.5-1.1 13.4-7.3 16-.1 8.6-3.1 17.1-8.5 24 2.3.2 3.7.7 3.9 1.6.9 2.8-8.8 9.2-24.7 14.4s-27.6 5.7-28.5 2.9c-.3-.9.5-2.1 2.2-3.6-8.4-2.5-15.8-7.5-20.9-14.4-6.4 1.4-13-2.3-15.1-8.7z" class="st16"/><path d="M226.9 146.9c1.3 3.9 1.9 7.8 1.8 11.8 6.1-2.6 9.4-9.5 7.3-16-2.2-6.7-9.4-10.5-16.1-8.4 3.1 3.6 5.5 7.9 7 12.6zm2.3 1.6c-.4-1.2.3-2.6 1.5-3s2.6.3 3 1.5-.3 2.6-1.5 3-2.6-.2-3-1.5zm-2.1-6.5c-.4-1.2.3-2.6 1.5-3s2.6.3 3 1.5-.3 2.6-1.5 3c-1.2.5-2.6-.2-3-1.5z" class="st16"/><circle cx="229.4" cy="141.3" r="2.4" class="st16"/><circle cx="231.5" cy="147.8" r="2.4" class="st16"/><path d="M234.6 200.2c1.7 2.9 3.6 6.5 5.4 10.4.8-.9 1.5-1.9 2.2-2.9-.1-.2-.3-.4-.4-.6-1.9-2.7-4.4-5-7.2-6.9zm-63 9.1c-2 4.3-5.4 12.5-5.5 20.3 1.4.6 2.8 1.1 4.2 1.5v-.8c-.1-3.3.6-6.6 1.8-9.8.3 3.4.9 7.4 1.8 11.6h.1c2.2-5 4.6-12.7 3.7-21.2h-2.3c-.9 0-1.8 0-2.6-.1h-.3c-.3 0-.6-.6-.9-1.5z" class="st16"/><path d="M170.3 230.3v.8c1.2.4 2.3.7 3.5 1-.9-4.3-1.4-8.3-1.8-11.6-1.1 3.2-1.8 6.6-1.7 9.8zm28.8-32.8c-8.8 2.9-17.8 2.8-25.8.5-1.7 1.5-2.5 2.7-2.2 3.6.9 2.8 12.6 2.3 28.5-2.9s25.6-11.6 24.7-14.4c-.3-.9-1.7-1.4-3.9-1.6-5.2 6.6-12.5 11.9-21.3 14.8zm38.1 11.4c1 .7 1.9 1.2 2.8 1.8v-.1c-1.8-4-3.7-7.5-5.4-10.4 2.8 1.9 5.3 4.3 7.2 6.9.1.2.3.4.4.6.9-1.2 1.7-2.5 2.5-3.7-4.7-6.2-12.2-10.9-16.4-13.1.3 1 .4 1.6.4 1.6s-.1.1-.3.2c-.5.4-1.1.9-2 1.6-.6.4-1.2.9-1.9 1.4 3.6 6.2 8.8 10.6 12.7 13.2zm-53.4 1.7c.9 9.1-1.4 17.2-3.7 22.9 9.7 1.6 20 .9 30-2.3 10-3.3 18.7-8.7 25.6-15.7-5.2-3.2-11.8-8.4-16.5-16.3-7.8 4.6-20 10.1-35.4 11.4z" class="st16"/><path d="M177.6 210.9c.9 8.5-1.5 16.3-3.7 21.2 2.1.5 4.1 1 6.3 1.3 2.3-5.6 4.6-13.8 3.7-22.9 15.4-1.3 27.5-6.8 35.4-11.5 4.6 7.8 11.3 13.1 16.5 16.3 1.5-1.5 2.9-3.1 4.3-4.8-.9-.5-1.8-1.1-2.8-1.8-3.9-2.6-9.1-7-12.7-13.2.7-.5 1.4-1 1.9-1.4 1-.8 1.7-1.3 2-1.6.2-.1.3-.2.3-.2s-.1-.6-.4-1.6c-.4-1.5-1.4-3.8-3.4-6.4.2 2.2-3.5 4.9-6.7 6.8-4.7 2.8-11.3 5.6-18.5 8-7.2 2.3-14.2 3.9-19.7 4.4-3.8.4-8.3.3-9.4-1.6-.1 3.3.5 5.7 1 7.2.3 1 .6 1.5.6 1.5h.3c.9.1 1.8.1 2.6.1.8.2 1.6.2 2.4.2zm-40.5-36c2.1 6.5 8.8 10.1 15.3 8.6-2.3-3.1-4.2-6.7-5.4-10.6-1.5-4.7-2.1-9.6-1.7-14.3-6.8 2.3-10.4 9.5-8.2 16.3zm6.8-5.8c.4 1.2-.3 2.6-1.5 3s-2.6-.3-3-1.5.3-2.6 1.5-3 2.6.2 3 1.5zm-2.4 7.9c-.4-1.2.3-2.6 1.5-3s2.6.3 3 1.5-.3 2.6-1.5 3c-1.3.5-2.6-.2-3-1.5z" class="st16"/><circle cx="143.7" cy="176.3" r="2.4" class="st16"/><circle cx="141.6" cy="169.8" r="2.4" class="st16"/><path d="M146.9 172.9c1.3 3.9 3.1 7.4 5.4 10.6 5.1 7 12.5 12 20.9 14.4 8.1 2.4 17.1 2.4 25.8-.5 8.8-2.9 16-8.2 21.2-14.8 5.4-6.9 8.4-15.3 8.5-24 0-3.9-.6-7.9-1.8-11.8-1.5-4.7-4-9-7-12.6-10.3-12.2-28.1-17.5-45.2-11.9s-28.3 20.3-29.5 36.2c-.4 4.8.2 9.7 1.7 14.4zm5.4-3.2c-5.2-16 5.9-33.9 24.8-40 18.9-6.1 38.4 1.8 43.5 17.8s2.1 31.3-24.8 40-38.3-1.9-43.5-17.8z" class="st16"/><path d="M152.3 169.7c5.2 16 16.7 26.6 43.5 17.8s29.9-24 24.8-40c-4.7-14.5-21.2-22.4-38.2-19.2l-2.7.6c-.6.2-1.2.3-1.8.5l-.9.3-.9.3c-.6.2-1.2.4-1.7.6-.6.2-1.1.5-1.7.7-.5.2-1 .5-1.5.7-.3.1-.6.3-.9.5-.3.1-.5.3-.8.4-.3.2-.6.3-.9.5-.7.4-1.3.8-1.9 1.2l-.9.6c-11.5 8.1-17.4 21.4-13.8 33.7.2.3.2.5.3.8z" class="st16"/><path d="M234.6 200.2c1.7 2.9 3.6 6.5 5.4 10.4.8-.9 1.5-1.9 2.2-2.9-.1-.2-.3-.4-.4-.6-1.9-2.7-4.4-5-7.2-6.9zm-64.3 30.1v.8c1.2.4 2.3.7 3.5 1-.9-4.3-1.4-8.3-1.8-11.6-1.1 3.2-1.8 6.6-1.7 9.8z" class="st19"/></g><g class="st13"><path d="M847.2 312.7c-.9 3.5-5.1 26.4 33.5 28.5 2.8.2 5.4-1.6 6.3-4.3l55.6-177.3c1-3.1-.6-6.3-3.5-7.6l-19.3-8.2c-3.2-1.4-6.9.2-8.2 3.5L847.4 312c-.1.2-.1.5-.2.7z" class="st16"/><path d="M847.2 312.7c-.9 3.5-5.1 26.4 33.5 28.5 2.8.2 5.4-1.6 6.3-4.3l55.6-177.3c1-3.1-.6-6.3-3.5-7.6l-19.3-8.2c-3.2-1.4-6.9.2-8.2 3.5L847.4 312c-.1.2-.1.5-.2.7z" class="st17"/><path d="M861.2 327.5c-22-31.8-78-55.5-168.2-59.7-90.1-4.2-115.6-60.3-115.6-60.3L638 16.8s25.5 56.1 115.6 60.3c77.6 3.6 129.9 21.7 157 46.9 7.2 6.7 9.8 17 6.8 26.3l-56.2 177.2z" class="st16"/><path d="M809.6 275.9c-29.4-14.3-61.6-20.6-92.8-29.3-26.3-7.3-58.1-16.6-72.4-42.1-6.7-12-9.8-26.5-12.2-39.9-2.7-15.6-3.2-31.5-2.6-47.3 1.3-32.4-1.1-66.4 8.4-97.7.2-.5.3-1 .6-1.3-.4-.8-.7-1.3-.7-1.3l-60.6 190.7s25.5 56.1 115.6 60.3 146.2 27.9 168.2 59.7l1.8-5.8c-12.2-20.3-31.7-35.5-53.3-46z" class="st17"/><path d="M636.7 9 422.2 669" class="st18"/><path d="M778.8 210.8c-.9 0-1.8.1-2.6.1.8 0 1.7-.1 2.6-.1zm-53.9-16.5c-1-.8-1.7-1.3-2-1.6.5.4 1.1.9 2 1.6z" class="st16"/><path d="M780.9 109.3c-33.6-10.9-69.8 7.5-80.7 41.1-6.1 18.7-3.1 38.1 6.5 53.6 4.7-6.2 12.2-10.9 16.4-13.1.4-1.5 1.4-3.8 3.4-6.4-.2 2.2 3.5 4.9 6.7 6.8 4.7 2.8 11.3 5.6 18.5 8s14.2 3.9 19.7 4.4c3.8.4 8.3.3 9.4-1.6.1 3.3-.5 5.7-1 7.2 2 4.3 5.3 12.5 5.5 20.3 16.9-6.9 30.7-20.9 36.7-39.5 10.9-33.7-7.5-69.9-41.1-80.8zm18.1 74.2c-5.1 7-12.5 12-20.9 14.4 1.7 1.5 2.5 2.7 2.2 3.6-.9 2.8-12.6 2.3-28.5-2.9s-25.6-11.6-24.7-14.4c.3-.9 1.7-1.4 3.9-1.6-5.4-6.9-8.4-15.3-8.5-24-6.1-2.6-9.4-9.5-7.3-16 2.2-6.7 9.4-10.5 16.1-8.4 10.3-12.2 28.1-17.5 45.2-11.9s28.3 20.3 29.5 36.2c6.7 2.3 10.3 9.5 8.1 16.3-1.9 6.5-8.6 10.2-15.1 8.7z" class="st16"/><path d="M731.4 134.3c-6.8-2.1-14 1.6-16.1 8.4-2.1 6.5 1.1 13.4 7.3 16 0-3.9.6-7.9 1.8-11.8 1.6-4.7 4-9 7-12.6zM719.1 150c-1.2-.4-1.9-1.7-1.5-3 .4-1.2 1.7-1.9 3-1.5 1.2.4 1.9 1.7 1.5 3-.4 1.3-1.7 1.9-3 1.5zm2.1-6.4c-1.2-.4-1.9-1.7-1.5-3 .4-1.2 1.7-1.9 3-1.5s1.9 1.7 1.5 3c-.4 1.2-1.7 1.9-3 1.5z" class="st16"/><circle cx="722" cy="141.3" r="2.4" class="st16"/><circle cx="719.9" cy="147.8" r="2.4" class="st16"/><path d="M709.6 207.1c-.1.2-.3.4-.4.6.7 1 1.4 1.9 2.2 2.9 1.8-4 3.7-7.5 5.4-10.4-2.8 1.9-5.4 4.2-7.2 6.9zm69.5 3.7h-.3c-.9 0-1.8.1-2.6.1h-2.3c-.9 8.5 1.5 16.3 3.7 21.2h.1c.9-4.3 1.4-8.3 1.8-11.6 1.1 3.2 1.8 6.6 1.8 9.8v.8l4.2-1.5c-.2-7.8-3.5-16-5.5-20.3-.6.9-.9 1.5-.9 1.5z" class="st16"/><path d="M779.3 220.5c-.3 3.4-.8 7.4-1.8 11.6 1.2-.3 2.3-.7 3.5-1v-.8c.2-3.2-.6-6.6-1.7-9.8zM731 182.7c-2.3.2-3.7.7-3.9 1.6-.9 2.8 8.8 9.2 24.7 14.4s27.6 5.7 28.5 2.9c.3-.9-.5-2.1-2.2-3.6-8.1 2.4-17.1 2.4-25.8-.5-8.9-2.9-16.1-8.2-21.3-14.8zm-4.1 13c-.7-.5-1.4-1-1.9-1.4-.9-.7-1.6-1.2-2-1.6-.2-.1-.3-.2-.3-.2s.1-.6.4-1.6c-4.2 2.3-11.7 7-16.4 13.1.8 1.3 1.6 2.5 2.5 3.7.1-.2.3-.4.4-.6 1.8-2.7 4.4-5 7.2-6.9-1.7 2.9-3.6 6.5-5.4 10.4v.1c.9-.5 1.8-1.1 2.8-1.8 3.9-2.6 9-7 12.7-13.2zm5.2 3.4c-4.6 7.8-11.3 13.1-16.5 16.3 6.9 7 15.6 12.5 25.6 15.7 10 3.3 20.3 3.9 30 2.3-2.3-5.6-4.6-13.8-3.7-22.9-15.4-1.2-27.5-6.7-35.4-11.4z" class="st16"/><path d="M776.1 210.9c.9 0 1.8-.1 2.6-.1h.3s.3-.5.6-1.5c.5-1.4 1.1-3.9 1-7.2-1.1 1.9-5.7 1.9-9.4 1.6-5.5-.5-12.5-2.1-19.7-4.4-7.2-2.3-13.8-5.2-18.5-8-3.2-1.9-6.9-4.6-6.7-6.8-2 2.6-3 4.9-3.4 6.4-.3 1-.4 1.6-.4 1.6s.1.1.3.2c.3.3 1 .9 2 1.6.6.4 1.2.9 1.9 1.4-3.6 6.2-8.8 10.6-12.7 13.2-1 .7-1.9 1.2-2.8 1.8 1.3 1.7 2.8 3.2 4.3 4.8 5.2-3.2 11.8-8.4 16.5-16.3 7.8 4.7 20 10.1 35.4 11.5-.9 9.1 1.4 17.2 3.7 22.9 2.1-.3 4.2-.8 6.3-1.3-2.2-5-4.6-12.7-3.7-21.2.9-.2 1.6-.2 2.4-.2zm30.1-52.3c.4 4.7-.2 9.6-1.7 14.3-1.3 3.9-3.1 7.4-5.4 10.6 6.5 1.5 13.2-2.2 15.3-8.6 2.1-6.8-1.6-14-8.2-16.3zm4.3 8.9c1.2.4 1.9 1.7 1.5 3-.4 1.2-1.7 1.9-3 1.5-1.2-.4-1.9-1.7-1.5-3 .4-1.2 1.7-1.9 3-1.5zm-3.6 11.1c-1.2-.4-1.9-1.7-1.5-3 .4-1.2 1.7-1.9 3-1.5s1.9 1.7 1.5 3c-.4 1.2-1.8 1.9-3 1.5z" class="st16"/><circle cx="807.6" cy="176.3" r="2.4" class="st16"/><circle cx="809.7" cy="169.8" r="2.4" class="st16"/><path d="M806.2 158.6c-1.2-16-12.5-30.7-29.5-36.2s-34.8-.3-45.2 11.9c-3.1 3.6-5.5 7.9-7 12.6-1.3 3.9-1.9 7.8-1.8 11.8.1 8.6 3.1 17.1 8.5 24 5.1 6.7 12.4 11.9 21.2 14.8 8.8 2.9 17.8 2.8 25.8.5 8.4-2.5 15.8-7.5 20.9-14.4 2.3-3.1 4.2-6.7 5.4-10.6 1.5-4.8 2-9.7 1.7-14.4zm-50.7 28.9c-26.9-8.7-29.9-24-24.8-40 5.2-16 24.7-23.9 43.5-17.8 18.9 6.1 29.9 24 24.8 40-5.2 15.9-16.6 26.5-43.5 17.8z" class="st16"/><path d="M799.2 168.9c3.6-12.3-2.3-25.6-13.8-33.7l-.9-.6c-.6-.4-1.3-.8-1.9-1.2-.3-.2-.6-.4-.9-.5-.3-.1-.5-.3-.8-.4-.3-.2-.6-.3-.9-.5-.5-.2-1-.5-1.5-.7-.5-.2-1.1-.5-1.7-.7-.6-.2-1.1-.4-1.7-.6l-.9-.3-.9-.3c-.6-.2-1.2-.3-1.8-.5l-2.7-.6c-17.1-3.2-33.5 4.7-38.2 19.2-5.2 16-2.1 31.3 24.8 40s38.4-1.8 43.5-17.8c.2-.3.3-.5.3-.8z" class="st16"/><path d="M709.6 207.1c-.1.2-.3.4-.4.6.7 1 1.4 1.9 2.2 2.9 1.8-4 3.7-7.5 5.4-10.4-2.8 1.9-5.4 4.2-7.2 6.9zm69.7 13.4c-.3 3.4-.8 7.4-1.8 11.6 1.2-.3 2.3-.7 3.5-1v-.8c.2-3.2-.6-6.6-1.7-9.8z" class="st19"/></g><path d="M101.2 312.7c.9 3.5 5.1 26.4-33.5 28.5-2.8.2-5.4-1.6-6.3-4.3L5.7 159.5c-1-3.1.6-6.3 3.5-7.6l19.3-8.2c3.2-1.4 6.9.2 8.2 3.5L100.9 312c.1.2.2.5.3.7z" class="st22"/><path d="M101.2 312.7c.9 3.5 5.1 26.4-33.5 28.5-2.8.2-5.4-1.6-6.3-4.3L5.7 159.5c-1-3.1.6-6.3 3.5-7.6l19.3-8.2c3.2-1.4 6.9.2 8.2 3.5L100.9 312c.1.2.2.5.3.7z" class="st23"/><path d="M87.1 327.5c22-31.8 78-55.5 168.2-59.7 90.1-4.2 115.6-60.3 115.6-60.3L310.3 16.8s-25.5 56.1-115.6 60.3c-77.6 3.6-129.9 21.7-157 46.9-7.2 6.7-9.8 17-6.8 26.3l56.2 177.2z" class="st22"/><path d="M138.7 275.9c29.4-14.3 61.6-20.6 92.8-29.3 26.3-7.3 58.1-16.6 72.4-42.1 6.7-12 9.8-26.5 12.2-39.9 2.7-15.6 3.2-31.5 2.6-47.3-1.3-32.4 1.1-66.4-8.4-97.7-.2-.5-.3-1-.6-1.3.4-.8.7-1.3.7-1.3L371 207.7s-25.5 56.1-115.6 60.3-146.2 27.9-168.2 59.7l-1.8-5.8c12.3-20.3 31.7-35.5 53.3-46z" class="st23"/><path d="m311.6 9 214.5 660" class="st24"/><path d="M172.2 210.9c-.9 0-1.8-.1-2.6-.1.9 0 1.8.1 2.6.1zm53.2-18.2c-.4.3-1 .8-2 1.6.9-.7 1.6-1.2 2-1.6z" class="st25"/><path d="M126.3 190c6.1 18.7 19.9 32.6 36.7 39.5.2-7.8 3.5-16 5.5-20.3-.5-1.4-1.1-3.9-1-7.2 1.1 1.9 5.7 1.9 9.4 1.6 5.5-.5 12.5-2.1 19.7-4.4 7.2-2.3 13.8-5.2 18.5-8 3.2-1.9 6.9-4.6 6.7-6.8 2 2.6 3 4.9 3.4 6.4 4.2 2.3 11.7 7 16.4 13.1 9.6-15.5 12.6-34.9 6.5-53.6-10.9-33.6-47.1-52.1-80.7-41.1s-52 47.2-41.1 80.8zm7.8-15.1c-2.2-6.7 1.4-14 8.1-16.3 1.2-16 12.5-30.7 29.5-36.2s34.8-.3 45.2 11.9c6.8-2.1 14 1.6 16.1 8.4 2.1 6.5-1.1 13.4-7.3 16-.1 8.6-3.1 17.1-8.5 24 2.3.2 3.7.7 3.9 1.6.9 2.8-8.8 9.2-24.7 14.4s-27.6 5.7-28.5 2.9c-.3-.9.5-2.1 2.2-3.6-8.4-2.5-15.8-7.5-20.9-14.4-6.4 1.4-13-2.3-15.1-8.7z" class="st25"/><path d="M223.9 146.9c1.3 3.9 1.9 7.8 1.8 11.8 6.1-2.6 9.4-9.5 7.3-16-2.2-6.7-9.4-10.5-16.1-8.4 3.1 3.6 5.5 7.9 7 12.6zm2.3 1.6c-.4-1.2.3-2.6 1.5-3s2.6.3 3 1.5-.3 2.6-1.5 3-2.6-.2-3-1.5zm-2.1-6.5c-.4-1.2.3-2.6 1.5-3s2.6.3 3 1.5-.3 2.6-1.5 3c-1.2.5-2.6-.2-3-1.5z" class="st26"/><circle cx="226.4" cy="141.3" r="2.4" class="st27"/><circle cx="228.5" cy="147.8" r="2.4" class="st27"/><path d="M231.6 200.2c1.7 2.9 3.6 6.5 5.4 10.4.8-.9 1.5-1.9 2.2-2.9-.1-.2-.3-.4-.4-.6-1.9-2.7-4.4-5-7.2-6.9zm-63 9.1c-2 4.3-5.4 12.5-5.5 20.3 1.4.6 2.8 1.1 4.2 1.5v-.8c-.1-3.3.6-6.6 1.8-9.8.3 3.4.9 7.4 1.8 11.6h.1c2.2-5 4.6-12.7 3.7-21.2h-2.3c-.9 0-1.8 0-2.6-.1h-.3c-.3 0-.6-.6-.9-1.5z" class="st27"/><path d="M167.3 230.3v.8c1.2.4 2.3.7 3.5 1-.9-4.3-1.4-8.3-1.8-11.6-1.1 3.2-1.8 6.6-1.7 9.8z" class="st27"/><path d="M196.1 197.5c-8.8 2.9-17.8 2.8-25.8.5-1.7 1.5-2.5 2.7-2.2 3.6.9 2.8 12.6 2.3 28.5-2.9s25.6-11.6 24.7-14.4c-.3-.9-1.7-1.4-3.9-1.6-5.2 6.6-12.5 11.9-21.3 14.8z" class="st26"/><path d="M234.2 208.9c1 .7 1.9 1.2 2.8 1.8v-.1c-1.8-4-3.7-7.5-5.4-10.4 2.8 1.9 5.3 4.3 7.2 6.9.1.2.3.4.4.6.9-1.2 1.7-2.5 2.5-3.7-4.7-6.2-12.2-10.9-16.4-13.1.3 1 .4 1.6.4 1.6s-.1.1-.3.2c-.5.4-1.1.9-2 1.6-.6.4-1.2.9-1.9 1.4 3.6 6.2 8.8 10.6 12.7 13.2zm-53.4 1.7c.9 9.1-1.4 17.2-3.7 22.9 9.7 1.6 20 .9 30-2.3 10-3.3 18.7-8.7 25.6-15.7-5.2-3.2-11.8-8.4-16.5-16.3-7.8 4.6-20 10.1-35.4 11.4z" class="st27"/><path d="M174.6 210.9c.9 8.5-1.5 16.3-3.7 21.2 2.1.5 4.1 1 6.3 1.3 2.3-5.6 4.6-13.8 3.7-22.9 15.4-1.3 27.5-6.8 35.4-11.5 4.6 7.8 11.3 13.1 16.5 16.3 1.5-1.5 2.9-3.1 4.3-4.8-.9-.5-1.8-1.1-2.8-1.8-3.9-2.6-9.1-7-12.7-13.2.7-.5 1.4-1 1.9-1.4 1-.8 1.7-1.3 2-1.6.2-.1.3-.2.3-.2s-.1-.6-.4-1.6c-.4-1.5-1.4-3.8-3.4-6.4.2 2.2-3.5 4.9-6.7 6.8-4.7 2.8-11.3 5.6-18.5 8-7.2 2.3-14.2 3.9-19.7 4.4-3.8.4-8.3.3-9.4-1.6-.1 3.3.5 5.7 1 7.2.3 1 .6 1.5.6 1.5h.3c.9.1 1.8.1 2.6.1.8.2 1.6.2 2.4.2zm-40.5-36c2.1 6.5 8.8 10.1 15.3 8.6-2.3-3.1-4.2-6.7-5.4-10.6-1.5-4.7-2.1-9.6-1.7-14.3-6.8 2.3-10.4 9.5-8.2 16.3zm6.8-5.8c.4 1.2-.3 2.6-1.5 3s-2.6-.3-3-1.5.3-2.6 1.5-3 2.6.2 3 1.5zm-2.4 7.9c-.4-1.2.3-2.6 1.5-3s2.6.3 3 1.5-.3 2.6-1.5 3c-1.3.5-2.6-.2-3-1.5z" class="st26"/><circle cx="140.7" cy="176.3" r="2.4" class="st27"/><circle cx="138.6" cy="169.8" r="2.4" class="st27"/><path d="M143.9 172.9c1.3 3.9 3.1 7.4 5.4 10.6 5.1 7 12.5 12 20.9 14.4 8.1 2.4 17.1 2.4 25.8-.5s16-8.2 21.2-14.8c5.4-6.9 8.4-15.3 8.5-24 0-3.9-.6-7.9-1.8-11.8-1.5-4.7-4-9-7-12.6-10.3-12.2-28.1-17.5-45.2-11.9s-28.3 20.3-29.5 36.2c-.4 4.8.2 9.7 1.7 14.4zm5.4-3.2c-5.2-16 5.9-33.9 24.8-40 18.9-6.1 38.4 1.8 43.5 17.8 5.2 16 2.1 31.3-24.8 40s-38.3-1.9-43.5-17.8z" class="st27"/><path d="M149.3 169.7c5.2 16 16.7 26.6 43.5 17.8s29.9-24 24.8-40c-4.7-14.5-21.2-22.4-38.2-19.2l-2.7.6c-.6.2-1.2.3-1.8.5l-.9.3-.9.3c-.6.2-1.2.4-1.7.6-.6.2-1.1.5-1.7.7-.5.2-1 .5-1.5.7-.3.1-.6.3-.9.5-.3.1-.5.3-.8.4-.3.2-.6.3-.9.5-.7.4-1.3.8-1.9 1.2l-.9.6c-11.5 8.1-17.4 21.4-13.8 33.7.2.3.2.5.3.8z" class="st26"/><path d="M231.6 200.2c1.7 2.9 3.6 6.5 5.4 10.4.8-.9 1.5-1.9 2.2-2.9-.1-.2-.3-.4-.4-.6-1.9-2.7-4.4-5-7.2-6.9zm-64.3 30.1v.8c1.2.4 2.3.7 3.5 1-.9-4.3-1.4-8.3-1.8-11.6-1.1 3.2-1.8 6.6-1.7 9.8z" class="st28"/><path d="M850.2 312.7c-.9 3.5-5.1 26.4 33.5 28.5 2.8.2 5.4-1.6 6.3-4.3l55.6-177.3c1-3.1-.6-6.3-3.5-7.6l-19.3-8.2c-3.2-1.4-6.9.2-8.2 3.5L850.4 312c-.1.2-.1.5-.2.7z" class="st22"/><path d="M850.2 312.7c-.9 3.5-5.1 26.4 33.5 28.5 2.8.2 5.4-1.6 6.3-4.3l55.6-177.3c1-3.1-.6-6.3-3.5-7.6l-19.3-8.2c-3.2-1.4-6.9.2-8.2 3.5L850.4 312c-.1.2-.1.5-.2.7z" class="st23"/><path d="M864.2 327.5c-22-31.8-78-55.5-168.2-59.7-90.1-4.2-115.6-60.3-115.6-60.3L641 16.8s25.5 56.1 115.6 60.3c77.6 3.6 129.9 21.7 157 46.9 7.2 6.7 9.8 17 6.8 26.3l-56.2 177.2z" class="st22"/><path d="M812.6 275.9c-29.4-14.3-61.6-20.6-92.8-29.3-26.3-7.3-58.1-16.6-72.4-42.1-6.7-12-9.8-26.5-12.2-39.9-2.7-15.6-3.2-31.5-2.6-47.3 1.3-32.4-1.1-66.4 8.4-97.7.2-.5.3-1 .6-1.3-.4-.8-.7-1.3-.7-1.3l-60.6 190.7s25.5 56.1 115.6 60.3 146.2 27.9 168.2 59.7l1.8-5.8c-12.2-20.3-31.7-35.5-53.3-46z" class="st23"/><path d="M639.7 9 425.2 669" class="st24"/><path d="M781.8 210.8c-.9 0-1.8.1-2.6.1.8 0 1.7-.1 2.6-.1zm-53.9-16.5c-1-.8-1.7-1.3-2-1.6.5.4 1.1.9 2 1.6z" class="st25"/><path d="M783.9 109.3c-33.6-10.9-69.8 7.5-80.7 41.1-6.1 18.7-3.1 38.1 6.5 53.6 4.7-6.2 12.2-10.9 16.4-13.1.4-1.5 1.4-3.8 3.4-6.4-.2 2.2 3.5 4.9 6.7 6.8 4.7 2.8 11.3 5.6 18.5 8s14.2 3.9 19.7 4.4c3.8.4 8.3.3 9.4-1.6.1 3.3-.5 5.7-1 7.2 2 4.3 5.3 12.5 5.5 20.3 16.9-6.9 30.7-20.9 36.7-39.5 10.9-33.7-7.5-69.9-41.1-80.8zm18.1 74.2c-5.1 7-12.5 12-20.9 14.4 1.7 1.5 2.5 2.7 2.2 3.6-.9 2.8-12.6 2.3-28.5-2.9s-25.6-11.6-24.7-14.4c.3-.9 1.7-1.4 3.9-1.6-5.4-6.9-8.4-15.3-8.5-24-6.1-2.6-9.4-9.5-7.3-16 2.2-6.7 9.4-10.5 16.1-8.4 10.3-12.2 28.1-17.5 45.2-11.9s28.3 20.3 29.5 36.2c6.7 2.3 10.3 9.5 8.1 16.3-1.9 6.5-8.6 10.2-15.1 8.7z" class="st25"/><path d="M734.4 134.3c-6.8-2.1-14 1.6-16.1 8.4-2.1 6.5 1.1 13.4 7.3 16 0-3.9.6-7.9 1.8-11.8 1.6-4.7 4-9 7-12.6zM722.1 150c-1.2-.4-1.9-1.7-1.5-3 .4-1.2 1.7-1.9 3-1.5 1.2.4 1.9 1.7 1.5 3-.4 1.3-1.7 1.9-3 1.5zm2.1-6.4c-1.2-.4-1.9-1.7-1.5-3 .4-1.2 1.7-1.9 3-1.5s1.9 1.7 1.5 3c-.4 1.2-1.7 1.9-3 1.5z" class="st26"/><circle cx="725" cy="141.3" r="2.4" class="st27"/><circle cx="722.9" cy="147.8" r="2.4" class="st27"/><path d="M712.6 207.1c-.1.2-.3.4-.4.6.7 1 1.4 1.9 2.2 2.9 1.8-4 3.7-7.5 5.4-10.4-2.8 1.9-5.4 4.2-7.2 6.9zm69.5 3.7h-.3c-.9 0-1.8.1-2.6.1h-2.3c-.9 8.5 1.5 16.3 3.7 21.2h.1c.9-4.3 1.4-8.3 1.8-11.6 1.1 3.2 1.8 6.6 1.8 9.8v.8l4.2-1.5c-.2-7.8-3.5-16-5.5-20.3-.6.9-.9 1.5-.9 1.5z" class="st27"/><path d="M782.3 220.5c-.3 3.4-.8 7.4-1.8 11.6 1.2-.3 2.3-.7 3.5-1v-.8c.2-3.2-.6-6.6-1.7-9.8z" class="st27"/><path d="M734 182.7c-2.3.2-3.7.7-3.9 1.6-.9 2.8 8.8 9.2 24.7 14.4s27.6 5.7 28.5 2.9c.3-.9-.5-2.1-2.2-3.6-8.1 2.4-17.1 2.4-25.8-.5-8.9-2.9-16.1-8.2-21.3-14.8z" class="st26"/><path d="M729.9 195.7c-.7-.5-1.4-1-1.9-1.4-.9-.7-1.6-1.2-2-1.6-.2-.1-.3-.2-.3-.2s.1-.6.4-1.6c-4.2 2.3-11.7 7-16.4 13.1.8 1.3 1.6 2.5 2.5 3.7.1-.2.3-.4.4-.6 1.8-2.7 4.4-5 7.2-6.9-1.7 2.9-3.6 6.5-5.4 10.4v.1c.9-.5 1.8-1.1 2.8-1.8 3.9-2.6 9-7 12.7-13.2zm5.2 3.4c-4.6 7.8-11.3 13.1-16.5 16.3 6.9 7 15.6 12.5 25.6 15.7 10 3.3 20.3 3.9 30 2.3-2.3-5.6-4.6-13.8-3.7-22.9-15.4-1.2-27.5-6.7-35.4-11.4z" class="st27"/><path d="M779.1 210.9c.9 0 1.8-.1 2.6-.1h.3s.3-.5.6-1.5c.5-1.4 1.1-3.9 1-7.2-1.1 1.9-5.7 1.9-9.4 1.6-5.5-.5-12.5-2.1-19.7-4.4-7.2-2.3-13.8-5.2-18.5-8-3.2-1.9-6.9-4.6-6.7-6.8-2 2.6-3 4.9-3.4 6.4-.3 1-.4 1.6-.4 1.6s.1.1.3.2c.3.3 1 .9 2 1.6.6.4 1.2.9 1.9 1.4-3.6 6.2-8.8 10.6-12.7 13.2-1 .7-1.9 1.2-2.8 1.8 1.3 1.7 2.8 3.2 4.3 4.8 5.2-3.2 11.8-8.4 16.5-16.3 7.8 4.7 20 10.1 35.4 11.5-.9 9.1 1.4 17.2 3.7 22.9 2.1-.3 4.2-.8 6.3-1.3-2.2-5-4.6-12.7-3.7-21.2.9-.2 1.6-.2 2.4-.2zm30.1-52.3c.4 4.7-.2 9.6-1.7 14.3-1.3 3.9-3.1 7.4-5.4 10.6 6.5 1.5 13.2-2.2 15.3-8.6 2.1-6.8-1.6-14-8.2-16.3zm4.3 8.9c1.2.4 1.9 1.7 1.5 3-.4 1.2-1.7 1.9-3 1.5-1.2-.4-1.9-1.7-1.5-3 .4-1.2 1.7-1.9 3-1.5zm-3.6 11.1c-1.2-.4-1.9-1.7-1.5-3 .4-1.2 1.7-1.9 3-1.5s1.9 1.7 1.5 3c-.4 1.2-1.8 1.9-3 1.5z" class="st26"/><circle cx="810.6" cy="176.3" r="2.4" class="st27"/><circle cx="812.7" cy="169.8" r="2.4" class="st27"/><path d="M809.2 158.6c-1.2-16-12.5-30.7-29.5-36.2s-34.8-.3-45.2 11.9c-3.1 3.6-5.5 7.9-7 12.6-1.3 3.9-1.9 7.8-1.8 11.8.1 8.6 3.1 17.1 8.5 24 5.1 6.7 12.4 11.9 21.2 14.8 8.8 2.9 17.8 2.8 25.8.5 8.4-2.5 15.8-7.5 20.9-14.4 2.3-3.1 4.2-6.7 5.4-10.6 1.5-4.8 2-9.7 1.7-14.4zm-50.7 28.9c-26.9-8.7-29.9-24-24.8-40 5.2-16 24.7-23.9 43.5-17.8 18.9 6.1 29.9 24 24.8 40-5.2 15.9-16.6 26.5-43.5 17.8z" class="st27"/><path d="M802.2 168.9c3.6-12.3-2.3-25.6-13.8-33.7l-.9-.6c-.6-.4-1.3-.8-1.9-1.2-.3-.2-.6-.4-.9-.5-.3-.1-.5-.3-.8-.4-.3-.2-.6-.3-.9-.5-.5-.2-1-.5-1.5-.7-.5-.2-1.1-.5-1.7-.7-.6-.2-1.1-.4-1.7-.6l-.9-.3-.9-.3c-.6-.2-1.2-.3-1.8-.5l-2.7-.6c-17.1-3.2-33.5 4.7-38.2 19.2-5.2 16-2.1 31.3 24.8 40s38.4-1.8 43.5-17.8c.2-.3.3-.5.3-.8z" class="st26"/><path d="M712.6 207.1c-.1.2-.3.4-.4.6.7 1 1.4 1.9 2.2 2.9 1.8-4 3.7-7.5 5.4-10.4-2.8 1.9-5.4 4.2-7.2 6.9zm69.7 13.4c-.3 3.4-.8 7.4-1.8 11.6 1.2-.3 2.3-.7 3.5-1v-.8c.2-3.2-.6-6.6-1.7-9.8z" class="st28"/><g fill="#f8f9e6"><path d="m539.8 273-10.9 5.9-5.9 10.9-6-10.9-10.8-5.9 10.8-6 6-10.8 5.9 10.8z"/><path d="m370.4 334.2-10.9 5.9-5.9 10.9-6-10.9-10.8-5.9 10.8-6 6-10.8 5.9 10.8z" opacity=".8"/><path d="m744.4 352.5-10.8 5.9-6 10.9-5.9-10.9-10.9-5.9 10.9-6 5.9-10.8 6 10.8z" opacity=".95"/></g><path d="M845.1 500c85.7 195.4 3.9 425.8-189 522.3-199.2 99.7-441.4 19-541.1-180.2-55.6-111.1-55.1-235.6-9.2-341.2" class="st33"/><path fill="#5f81a1" d="M642 804.5c-197.4 79.2-421.6-16.6-500.8-214-9.4-23.5-16.2-47.3-20.8-71.2-32.8 87-34.8 185.9 2.6 279 79.2 197.4 303.4 293.2 500.8 214 173.9-69.8 268.8-252.2 234.8-429.6-36.7 97.5-112.3 180-216.6 221.8z" opacity=".15"/><path d="M154.4 708.4c-1-.3-2-.6-2.9-.9.9.3 1.9.6 2.9.9zm10 1.6c-1-.1-2-.1-3-.3l3 .3zm-3.8-.4c-.8-.1-1.6-.2-2.4-.4.9.2 1.6.3 2.4.4zm-10-2.4c-.7-.3-1.4-.5-2.1-.8.7.3 1.4.5 2.1.8zm-11.5-5.9zm5.8 3.4c-.8-.4-1.7-.9-2.5-1.3.8.5 1.6.9 2.5 1.3zm29.4 4.8c-1 .1-1.9.3-2.9.3.9 0 1.9-.1 2.9-.3zm-32.7-6.5-1.8-1.2 1.8 1.2zm6.1 3.1-2.7-1.2 2.7 1.2zm-11.1-6.7zm30.9 10.7H165c.8-.1 1.6 0 2.5 0zm-10.1-1c-1-.2-2-.4-3-.7 1 .2 2 .5 3 .7zm23.5-1c-.9.3-1.9.5-2.8.7.9-.2 1.9-.4 2.8-.7zm-3.6.9c-.7.2-1.5.3-2.2.4.7-.1 1.4-.2 2.2-.4zm33.1-72c.3.6.6 1.1.9 1.7-.3-.6-.6-1.1-.9-1.7zM199 623.1c.6.5 1.3 1.1 1.9 1.7-.6-.6-1.2-1.2-1.9-1.7zm2.1 1.8c.7.6 1.3 1.3 1.9 1.9-.7-.6-1.3-1.3-1.9-1.9zm-4.3-3.6 1.5 1.2c-.5-.4-.9-.8-1.5-1.2zm10.3 10.5c.5.6.9 1.3 1.4 2-.5-.7-1-1.4-1.4-2zm-12.6-12.1c.5.4 1.1.7 1.6 1.1-.6-.4-1.1-.8-1.6-1.1zm10.9 9.9c.4.5.8 1 1.1 1.5-.3-.5-.7-1-1.1-1.5zm-1.9-2.2c.4.5.9.9 1.3 1.4-.4-.4-.8-.9-1.3-1.4zm-23.6-14.3c.9.3 1.9.5 2.8.8-.9-.3-1.9-.6-2.8-.8zm3.6 1.1c.6.2 1.3.5 1.9.7-.6-.2-1.3-.5-1.9-.7zm2.8 1.1c.6.3 1.2.5 1.8.8-.6-.3-1.2-.6-1.8-.8zm2.6 1.2 2.4 1.2c-.8-.4-1.6-.9-2.4-1.2zm2.5 1.3c.8.5 1.6.9 2.4 1.4-.8-.5-1.6-1-2.4-1.4zm21.4 24.3c.3.7.6 1.5.8 2.2-.2-.8-.5-1.5-.8-2.2zm-17.6 59.2c-.7.5-1.3.9-2 1.3.7-.4 1.3-.9 2-1.3zm-5.3 3.2c-.9.4-1.7.9-2.6 1.3.8-.4 1.7-.9 2.6-1.3zm18.7-70.5c.5.8.9 1.5 1.4 2.3-.5-.8-.9-1.6-1.4-2.3zm-24.9 73.2zm2.9-1.2c-.7.3-1.4.6-2.1.8.7-.2 1.4-.5 2.1-.8zm5.8-2.9-2.1 1.2c.8-.4 1.5-.8 2.1-1.2zm5.6-3.9c-.8.6-1.5 1.2-2.3 1.7.7-.5 1.5-1.1 2.3-1.7zm-27.2 10.7c-.8.1-1.6.1-2.5.1.9 0 1.7 0 2.5-.1zm40.9-70.3c.3.6.5 1.1.8 1.7-.3-.6-.5-1.2-.8-1.7zm-11.5 57.7c-.6.5-1.1 1-1.7 1.5.6-.5 1.2-1 1.7-1.5zm-23.1-84.9c.9.2 1.9.4 2.8.7-.9-.3-1.9-.5-2.8-.7zm-15.1-.7c.6-.1 1.3-.1 1.9-.2-.6 0-1.2.1-1.9.2zm-41.7 64.4c-.2-.8-.5-1.5-.7-2.3.2.8.4 1.6.7 2.3zm14.5-52.6c.7-.6 1.4-1.2 2.1-1.7-.8.5-1.5 1.1-2.1 1.7zM122.6 682c-.3-.7-.6-1.3-.9-2 .3.7.6 1.3.9 2zm-1.2-2.7c-.4-.9-.7-1.8-1-2.7.3.9.7 1.8 1 2.7zm16.1-58c.5-.4 1-.7 1.5-1.1-.4.3-1 .7-1.5 1.1zm2.4-1.7c.5-.3 1.1-.7 1.6-1-.6.3-1.1.7-1.6 1zm-8.1 75.5c-.7-.7-1.3-1.4-1.9-2.1.6.7 1.2 1.4 1.9 2.1zm10.4-76.9c.8-.5 1.6-.9 2.4-1.3-.9.4-1.6.8-2.4 1.3zm-12.6 74.5c-.5-.6-1.1-1.3-1.6-1.9.5.7 1.1 1.3 1.6 1.9zm-5.5-7.8c-.4-.7-.8-1.4-1.1-2.1.4.7.7 1.4 1.1 2.1zm1.7 2.8-1.5-2.4 1.5 2.4zm1.7 2.4-1.2-1.8 1.2 1.8z" class="st35"/><path d="m202.9 694.7-2.1 2.1c6.5-6.1 11.5-14 13.9-23.2 2.7-9.9 2.1-19.9-1-28.9-.3-.5-27.3-45.1-79-21.1-7.2 6.2-12.6 14.6-15.3 24.5-2.3 8.7-2.2 17.5 0 25.6 1.1 2 27.5 56.6 83.5 21z" class="st35"/><path d="M159.2 612c.6-.1 1.3-.2 1.9-.3-.7.1-1.3.2-1.9.3zm5.6-.6c.9 0 1.9-.1 2.8-.1-.9.1-1.9.1-2.8.1zm-30.9 85.8c-.5-.5-1.1-1-1.6-1.5.6.5 1.1 1 1.6 1.5zm33.7-85.8c.9 0 1.9.1 2.8.1-.9-.1-1.9-.1-2.8-.1zm3.7.2c.7.1 1.3.1 2 .2-.7-.1-1.4-.2-2-.2zm-18.3 1.8c.9-.3 1.7-.5 2.6-.7-.8.2-1.7.5-2.6.7zm-5.2 2c.6-.2 1.2-.5 1.8-.7-.7.2-1.3.4-1.8.7zm2.6-1.1 1.8-.6-1.8.6zm23.8-2.4c.7.1 1.3.2 2 .3-.7-.1-1.3-.2-2-.3zm-18.6.8 2.7-.6-2.7.6zm-11.1 4.2 2.4-1.2c-.7.4-1.6.7-2.4 1.2z" class="st35"/><path d="M210 636.3c.1.2.3.5.4.7-.2-.2-.3-.5-.4-.7zm-9.1-11.6c.1 0 .1.1.2.1-.1 0-.2 0-.2-.1zm7.5 9c.1.1.1.2.2.2-.1 0-.1-.1-.2-.2zm-58.9-19.1.9-.3-.9.3zm53.5 12.2.6.6c-.3-.2-.4-.4-.6-.6zm1.8 2.1c.2.2.4.5.6.7-.2-.3-.4-.5-.6-.7zm1.7 2.2c.2.2.4.5.5.7-.1-.3-.3-.5-.5-.7zM147 615.7c.3-.1.5-.2.8-.3-.3.1-.6.2-.8.3zm-5.5 2.9c.2-.1.5-.3.7-.4-.3.1-.5.3-.7.4zm-2.4 1.6c.3-.2.5-.4.8-.5-.3.1-.6.3-.8.5zm24.8-8.7c.3 0 .6 0 .9-.1-.3 0-.6.1-.9.1zm49.8 33.1c0-.1-.1-.2-.1-.3.1.1.1.2.1.3 0-.1 0 0 0 0zm-1.3-3.3c.1.3.2.5.4.8-.1-.3-.2-.6-.4-.8zm-21.1-23.6s.1 0 .1.1c0-.1-.1-.1-.1-.1zm-15.1-5.5c.3.1.6.1.9.2-.3-.1-.6-.1-.9-.2zm6.5 1.7c.3.1.6.2.8.3-.3-.1-.5-.2-.8-.3zm-9.5-2.1c.3 0 .7.1 1 .1-.3 0-.6-.1-1-.1zm-2.8-.3c.3 0 .6 0 .9.1-.3-.1-.6-.1-.9-.1zm-12.1.7c.3-.1.6-.1.8-.1-.2 0-.5 0-.8.1zm-6.1 1.5c.3-.1.5-.2.8-.3-.3.1-.5.2-.8.3zm8.9-1.9c.3 0 .6-.1 1-.1-.4 0-.7 0-1 .1zm35 9c.3.2.5.4.8.6-.3-.3-.6-.4-.8-.6zm-2.3-1.6c.2.2.5.3.7.5-.3-.2-.5-.4-.7-.5zm4.5 3.3c.2.2.5.4.7.6-.2-.2-.4-.4-.7-.6zm-61.4-.7c.2-.2.5-.3.7-.5-.3.1-.5.3-.7.5zm51.2-5.7zm-2.7-1.2c.3.1.6.2.9.4-.3-.2-.6-.3-.9-.4zm25.9 23.8c.1.3.3.6.4.9-.1-.3-.3-.6-.4-.9z" class="st36"/><path d="M213.7 644.5c0-.1-.1-.2-.1-.3-.3-.7-.5-1.5-.8-2.2-.1-.3-.2-.5-.4-.8-.2-.6-.5-1.1-.8-1.7-.1-.3-.3-.6-.4-.9-.3-.6-.6-1.1-.9-1.7-.1-.2-.3-.5-.4-.7-.4-.8-.9-1.6-1.4-2.3-.1-.1-.1-.2-.2-.2-.4-.7-.9-1.3-1.4-2-.2-.2-.4-.5-.5-.7-.4-.5-.8-1-1.1-1.5-.2-.2-.4-.5-.6-.7-.4-.5-.8-1-1.3-1.4l-.6-.6c-.6-.7-1.3-1.3-1.9-1.9-.1 0-.1-.1-.2-.1-.6-.6-1.2-1.1-1.9-1.7-.2-.2-.5-.4-.7-.6l-1.5-1.2c-.3-.2-.5-.4-.8-.6-.5-.4-1.1-.7-1.6-1.1-.2-.2-.5-.3-.7-.5-.8-.5-1.6-1-2.4-1.4 0 0-.1 0-.1-.1l-2.4-1.2c-.3-.1-.5-.3-.8-.4-.6-.3-1.2-.5-1.8-.8-.3-.1-.6-.3-.9-.4-.6-.2-1.2-.5-1.9-.7-.3-.1-.6-.2-.8-.3-.9-.3-1.8-.6-2.8-.8-.9-.3-1.9-.5-2.8-.7-.3-.1-.6-.1-.9-.2-.7-.1-1.3-.2-2-.3-.3 0-.7-.1-1-.1-.7-.1-1.3-.2-2-.2-.3 0-.6-.1-.9-.1-.9-.1-1.9-.1-2.8-.1-.9 0-1.9 0-2.8.1-.3 0-.6 0-.9.1-.6 0-1.3.1-1.9.2-.3 0-.6.1-1 .1-.6.1-1.3.2-1.9.3-.3 0-.6.1-.8.1-.9.2-1.8.3-2.7.6-.9.2-1.8.5-2.6.7-.3.1-.5.2-.8.3l-1.8.6-.9.3c-.6.2-1.2.5-1.8.7-.3.1-.5.2-.8.3l-2.4 1.2c-.8.4-1.6.9-2.4 1.3-.2.1-.5.3-.7.4-.5.3-1.1.7-1.6 1-.3.2-.5.4-.8.5-.5.4-1 .7-1.5 1.1-.2.2-.5.3-.7.5-.7.6-1.4 1.1-2.1 1.7 52.1-23.9 79.1 20.6 79.4 21.1z" class="st35"/><path d="M213.7 644.5c0-.1-.1-.2-.1-.3-.3-.7-.5-1.5-.8-2.2-.1-.3-.2-.5-.4-.8-.2-.6-.5-1.1-.8-1.7-.1-.3-.3-.6-.4-.9-.3-.6-.6-1.1-.9-1.7-.1-.2-.3-.5-.4-.7-.4-.8-.9-1.6-1.4-2.3-.1-.1-.1-.2-.2-.2-.4-.7-.9-1.3-1.4-2-.2-.2-.4-.5-.5-.7-.4-.5-.8-1-1.1-1.5-.2-.2-.4-.5-.6-.7-.4-.5-.8-1-1.3-1.4l-.6-.6c-.6-.7-1.3-1.3-1.9-1.9-.1 0-.1-.1-.2-.1-.6-.6-1.2-1.1-1.9-1.7-.2-.2-.5-.4-.7-.6l-1.5-1.2c-.3-.2-.5-.4-.8-.6-.5-.4-1.1-.7-1.6-1.1-.2-.2-.5-.3-.7-.5-.8-.5-1.6-1-2.4-1.4 0 0-.1 0-.1-.1l-2.4-1.2c-.3-.1-.5-.3-.8-.4-.6-.3-1.2-.5-1.8-.8-.3-.1-.6-.3-.9-.4-.6-.2-1.2-.5-1.9-.7-.3-.1-.6-.2-.8-.3-.9-.3-1.8-.6-2.8-.8-.9-.3-1.9-.5-2.8-.7-.3-.1-.6-.1-.9-.2-.7-.1-1.3-.2-2-.3-.3 0-.7-.1-1-.1-.7-.1-1.3-.2-2-.2-.3 0-.6-.1-.9-.1-.9-.1-1.9-.1-2.8-.1-.9 0-1.9 0-2.8.1-.3 0-.6 0-.9.1-.6 0-1.3.1-1.9.2-.3 0-.6.1-1 .1-.6.1-1.3.2-1.9.3-.3 0-.6.1-.8.1-.9.2-1.8.3-2.7.6-.9.2-1.8.5-2.6.7-.3.1-.5.2-.8.3l-1.8.6-.9.3c-.6.2-1.2.5-1.8.7-.3.1-.5.2-.8.3l-2.4 1.2c-.8.4-1.6.9-2.4 1.3-.2.1-.5.3-.7.4-.5.3-1.1.7-1.6 1-.3.2-.5.4-.8.5-.5.4-1 .7-1.5 1.1-.2.2-.5.3-.7.5-.7.6-1.4 1.1-2.1 1.7 52.1-23.9 79.1 20.6 79.4 21.1z" class="st36"/><path d="M148.5 706.4c-.3-.1-.5-.2-.8-.3.3.1.5.2.8.3zM165 710h-.6.6zm-3.6-.3c-.3 0-.5-.1-.8-.1.3 0 .5.1.8.1zm-10-2.2c-.3-.1-.6-.2-.8-.3.3.1.6.2.8.3zm6.9 1.7c-.3-.1-.6-.1-.9-.2.3.1.6.2.9.2zm-13.3-4.4s-.1 0-.1-.1c0 .1 0 .1.1.1zm30 4.6c-.2 0-.5.1-.7.1.2 0 .5 0 .7-.1zm-32.6-6c-.3-.1-.5-.3-.8-.5.3.2.5.4.8.5zm28.9 6.5h-.5.5zm-3 .1h-.9.9zM128 690.8c-.2-.2-.3-.5-.5-.7.2.2.4.5.5.7zm11.8 11c-.2-.2-.5-.3-.7-.5.2.2.5.3.7.5zm-13.5-13.5c-.1-.2-.3-.4-.4-.6.1.2.2.4.4.6zm-3.3-5.5c-.1-.3-.3-.5-.4-.8.1.2.3.5.4.8zm-1.3-2.8c-.1-.2-.2-.5-.3-.7.1.2.2.5.3.7zm-1.3-3.4c-.1-.2-.1-.3-.2-.5.1.2.2.4.2.5zm9.4 16.4c-.1-.1-.2-.2-.2-.3.1.1.2.2.2.3zm-10.3-19.5c0 .1.1.3.1.4 0-.1-.1-.2-.1-.4zm17.3 26.1-.2-.2c0 .1.1.2.2.2zm41.3 9.2c-.3.1-.5.1-.8.2.2-.1.5-.1.8-.2zm-45.8-13.1-.6-.6c.3.2.5.4.6.6zm2.2 2.1-.6-.6.6.6zm-10.1-12.5c-.1-.1-.1-.3-.2-.4 0 .1.1.3.2.4zm60.1 21.6c-.3.1-.5.2-.8.3.3-.1.5-.2.8-.3zm2.8-1.1c-.2.1-.5.2-.7.3.2-.2.4-.2.7-.3zm11.2-7c-.2.2-.4.3-.6.5.2-.2.4-.4.6-.5zm-2.9 2.2c-.1.1-.3.2-.4.3.1-.1.3-.2.4-.3zm-5.3 3.2c-.2.1-.3.2-.5.3.2-.1.4-.2.5-.3zm2.9-1.6c-.2.2-.5.3-.7.4.2-.1.4-.2.7-.4zm-12.3 5.5zm20-11.4-.6.6c.1-.2.4-.4.6-.6z" class="st37"/><path d="M183.7 707.2c.3-.1.5-.2.8-.3.7-.3 1.4-.5 2.1-.8.2-.1.5-.2.7-.3.9-.4 1.8-.8 2.6-1.3.2-.1.3-.2.5-.3l2.1-1.2c.2-.1.5-.3.7-.4.7-.4 1.4-.9 2-1.3.1-.1.3-.2.4-.3.8-.6 1.6-1.1 2.3-1.7.2-.2.4-.3.6-.5.6-.5 1.2-1 1.7-1.5l.6-.6c.7-.7 1.4-1.3 2.1-2.1-56 35.6-82.4-18.9-83.4-21.1 0 .1.1.2.1.3.2.8.4 1.5.7 2.3.1.2.1.3.2.5.3.9.6 1.8 1 2.7.1.2.2.5.3.7.3.7.6 1.3.9 2 .1.3.3.5.4.8.4.7.7 1.4 1.1 2.1.1.1.1.3.2.4l1.5 2.4c.1.2.3.4.4.6l1.2 1.8c.2.2.3.5.5.7.5.7 1 1.3 1.6 1.9.1.1.2.2.2.3.6.7 1.3 1.4 1.9 2.1l.6.6c.5.5 1 1 1.6 1.5l.6.6c.7.6 1.3 1.1 2 1.7l.2.2c.8.6 1.5 1.2 2.3 1.7.2.2.5.3.7.5l1.8 1.2c.2.2.5.3.8.5.8.5 1.6.9 2.5 1.3l.1.1 2.7 1.2c.3.1.5.2.8.3.7.3 1.4.5 2.1.8.3.1.6.2.8.3 1 .3 1.9.6 2.9.9 1 .3 2 .5 3 .7.3.1.6.1.9.2.8.1 1.6.3 2.4.4.3 0 .5.1.8.1l3 .3h.6c.8 0 1.7.1 2.5 0h.9c.8 0 1.6-.1 2.5-.1h.5c1-.1 2-.2 2.9-.3.2 0 .5-.1.7-.1.8-.1 1.5-.3 2.2-.4.3-.1.5-.1.8-.2 1-.2 1.9-.5 2.8-.7 1.2-.6 2.1-.9 3-1.2z" class="st35"/><path d="M183.7 707.2c.3-.1.5-.2.8-.3.7-.3 1.4-.5 2.1-.8.2-.1.5-.2.7-.3.9-.4 1.8-.8 2.6-1.3.2-.1.3-.2.5-.3l2.1-1.2c.2-.1.5-.3.7-.4.7-.4 1.4-.9 2-1.3.1-.1.3-.2.4-.3.8-.6 1.6-1.1 2.3-1.7.2-.2.4-.3.6-.5.6-.5 1.2-1 1.7-1.5l.6-.6c.7-.7 1.4-1.3 2.1-2.1-56 35.6-82.4-18.9-83.4-21.1 0 .1.1.2.1.3.2.8.4 1.5.7 2.3.1.2.1.3.2.5.3.9.6 1.8 1 2.7.1.2.2.5.3.7.3.7.6 1.3.9 2 .1.3.3.5.4.8.4.7.7 1.4 1.1 2.1.1.1.1.3.2.4l1.5 2.4c.1.2.3.4.4.6l1.2 1.8c.2.2.3.5.5.7.5.7 1 1.3 1.6 1.9.1.1.2.2.2.3.6.7 1.3 1.4 1.9 2.1l.6.6c.5.5 1 1 1.6 1.5l.6.6c.7.6 1.3 1.1 2 1.7l.2.2c.8.6 1.5 1.2 2.3 1.7.2.2.5.3.7.5l1.8 1.2c.2.2.5.3.8.5.8.5 1.6.9 2.5 1.3l.1.1 2.7 1.2c.3.1.5.2.8.3.7.3 1.4.5 2.1.8.3.1.6.2.8.3 1 .3 1.9.6 2.9.9 1 .3 2 .5 3 .7.3.1.6.1.9.2.8.1 1.6.3 2.4.4.3 0 .5.1.8.1l3 .3h.6c.8 0 1.7.1 2.5 0h.9c.8 0 1.6-.1 2.5-.1h.5c1-.1 2-.2 2.9-.3.2 0 .5-.1.7-.1.8-.1 1.5-.3 2.2-.4.3-.1.5-.1.8-.2 1-.2 1.9-.5 2.8-.7 1.2-.6 2.1-.9 3-1.2z" class="st37"/><path d="M590 810.2c-3.4 3-6 6.9-7.3 11.6-1.1 4.2-1 8.4.1 12.3.9 1.9 13.5 26.6 39.6 10 2.6-2.7 4.6-6.2 5.6-10.1 1.3-4.7 1-9.5-.5-13.8-.1-.2-13-21.4-37.5-10zm16.5-5.7h.3-.3zm7 1.4c.1.1.3.1.4.2-.1-.1-.3-.1-.4-.2zm-4.6-1.2c.1 0 .3 0 .4.1-.1 0-.3 0-.4-.1zm-4.6-.2h.3-.3zm-21.1 31.2c0-.1-.1-.1-.1-.2.1.1.1.2.1.2zm8.3-26.7.3-.3c0 .1-.2.2-.3.3zm2-1.3c.1-.1.2-.1.3-.2-.1.1-.2.1-.3.2zm1.9-1c.1 0 .2-.1.3-.1-.1 0-.2 0-.3.1zm2.1-.9c.1 0 .3-.1.4-.1-.1 0-.2.1-.4.1zm24 5.1zm2.9 3.3c.1.1.1.2.2.3-.1-.1-.1-.2-.2-.3zm1.2 1.8c.1.1.1.2.2.3-.1-.1-.2-.2-.2-.3zm-2.7-3.6.3.3-.3-.3zm3.7 5.6c.1.1.1.3.2.4-.1-.1-.1-.2-.2-.4zm-7-8.7.3.3-.3-.3zm-35.5 28.6c-.1-.2-.1-.3-.2-.5.1.2.1.3.2.5zm33.6-29.9c.1.1.2.1.3.2-.1-.1-.2-.2-.3-.2zm-1.9-1.1c.1.1.2.1.3.2-.1-.1-.2-.1-.3-.2zm-7.1 44.3h-.4.4z" class="st35"/><path d="M601.9 804.7c.1 0 .3 0 .4-.1-.1.1-.3.1-.4.1zm13.4 44.5c-.1.1-.2.1-.4.2.2-.1.3-.2.4-.2zm-18.1.7c-.2-.1-.3-.1-.5-.2.2.1.4.2.5.2zm20.1-1.8c-.1.1-.3.2-.4.3.1-.1.2-.2.4-.3zm-22.4.8s-.1 0 0 0c-.1 0 0 0 0 0zm24.2-2-.2.2c.1-.1.2-.1.2-.2zm-8 3.8c-.2 0-.3.1-.5.1.2-.1.4-.1.5-.1zm-4.5.7h-.5.5zm-4.7-.3c-.2 0-.4-.1-.6-.1.3.1.4.1.6.1zm19-5.6c-.1.1-.3.2-.4.3.2-.1.3-.2.4-.3zm-16.9 5.9h-.3c.1-.1.2 0 .3 0zm9.1-1.3c-.1.1-.3.1-.4.1.1 0 .3-.1.4-.1zm-28-10.3c0-.1-.1-.1-.1-.2 0 .1.1.1.1.2zm4.3 5.3c-.1-.1-.2-.2-.4-.3.1.1.3.2.4.3zm-1.7-1.7-.1-.1c.1 0 .1.1.1.1zm-1.3-1.7c-.1-.1-.2-.3-.3-.4.1.2.2.3.3.4zm4.6 4.8s-.1 0 0 0c-.1 0 0 0 0 0zm2 1.4c-.1-.1-.3-.2-.4-.3.1.1.3.2.4.3z" class="st35"/><path d="M593.8 807.5zm8.5-2.8c.7-.1 1.3-.1 2-.2-.7 0-1.3.1-2 .2zm2.3-.2h1.9-1.9zm-8.9 2c.6-.3 1.2-.5 1.8-.7-.6.2-1.2.5-1.8.7zm-3.8 2.2c.5-.4 1.1-.7 1.6-1.1-.5.4-1.1.7-1.6 1.1zm6-3c.6-.2 1.3-.4 1.9-.6-.6.2-1.2.4-1.9.6zm2-.6c.7-.2 1.3-.3 2-.4-.7.1-1.4.2-2 .4zm-9.9 5.1c.5-.4 1-.9 1.6-1.2-.6.4-1.1.8-1.6 1.2zm28-2.1c.6.4 1.1.7 1.6 1.2-.5-.4-1.1-.8-1.6-1.2zm2 1.5c.5.4 1 .9 1.5 1.3-.5-.5-1-.9-1.5-1.3zm3.2 3.1 1.2 1.5-1.2-1.5zm-1.7-1.8 1.4 1.4-1.4-1.4zm3.1 3.6c.3.5.7 1 1 1.5-.3-.5-.7-1-1-1.5zm2.9 5.7c-.2-.6-.5-1.2-.7-1.8.3.6.5 1.2.7 1.8zm-1.8-3.9c.3.6.6 1.2.9 1.7-.3-.6-.6-1.2-.9-1.7zm-18.9-11.8c.7 0 1.4.1 2 .2-.6-.1-1.3-.1-2-.2zm7.1 1.6zm-2.5-.8c.7.2 1.4.4 2 .7-.6-.3-1.3-.6-2-.7zm-2.1-.5c.7.1 1.4.3 2.1.5-.7-.2-1.4-.4-2.1-.5zm6.8 2.3c.6.3 1.1.6 1.6.9-.5-.3-1.1-.7-1.6-.9z" class="st36"/><path d="M627.5 820.2c-.2-.6-.5-1.2-.7-1.8-.1-.1-.1-.3-.2-.4-.3-.6-.6-1.2-.9-1.7 0-.1-.1-.2-.2-.3-.3-.5-.6-1-1-1.5-.1-.1-.1-.2-.2-.3l-1.2-1.5-.3-.3c-.4-.5-.9-1-1.4-1.4-.5-.5-1-.9-1.5-1.3l-.3-.3c-.5-.4-1.1-.8-1.6-1.2-.1-.1-.2-.1-.3-.2-.5-.3-1.1-.6-1.6-.9-.1-.1-.2-.1-.3-.2-.6-.3-1.2-.6-1.9-.8-.1-.1-.3-.1-.4-.2-.7-.2-1.3-.5-2-.7s-1.4-.3-2.1-.5c-.1 0-.3-.1-.4-.1-.7-.1-1.4-.2-2-.2h-2.5c-.7 0-1.3.1-2 .2-.1 0-.3 0-.4.1-.7.1-1.3.2-2 .4s-1.3.4-1.9.6c-.1 0-.3.1-.4.1-.6.2-1.2.5-1.8.7-.1 0-.2.1-.3.1-.5.3-1.1.5-1.6.8-.1.1-.2.1-.3.2-.6.3-1.1.7-1.6 1.1l-.3.3c-.5.4-1.1.8-1.6 1.2 24.2-11.4 37.1 9.8 37.2 10z" class="st35"/><path d="M627.5 820.2c-.2-.6-.5-1.2-.7-1.8-.1-.1-.1-.3-.2-.4-.3-.6-.6-1.2-.9-1.7 0-.1-.1-.2-.2-.3-.3-.5-.6-1-1-1.5-.1-.1-.1-.2-.2-.3l-1.2-1.5-.3-.3c-.4-.5-.9-1-1.4-1.4-.5-.5-1-.9-1.5-1.3l-.3-.3c-.5-.4-1.1-.8-1.6-1.2-.1-.1-.2-.1-.3-.2-.5-.3-1.1-.6-1.6-.9-.1-.1-.2-.1-.3-.2-.6-.3-1.2-.6-1.9-.8-.1-.1-.3-.1-.4-.2-.7-.2-1.3-.5-2-.7s-1.4-.3-2.1-.5c-.1 0-.3-.1-.4-.1-.7-.1-1.4-.2-2-.2h-2.5c-.7 0-1.3.1-2 .2-.1 0-.3 0-.4.1-.7.1-1.3.2-2 .4s-1.3.4-1.9.6c-.1 0-.3.1-.4.1-.6.2-1.2.5-1.8.7-.1 0-.2.1-.3.1-.5.3-1.1.5-1.6.8-.1.1-.2.1-.3.2-.6.3-1.1.7-1.6 1.1l-.3.3c-.5.4-1.1.8-1.6 1.2 24.2-11.4 37.1 9.8 37.2 10z" class="st36"/><path d="M599.3 850.6c-.7-.2-1.4-.4-2-.7.6.3 1.3.5 2 .7zm-6.7-3c-.5-.4-1.1-.7-1.6-1.1.5.4 1 .8 1.6 1.1zm24.2.8c-.5.3-1 .5-1.5.8.5-.3 1-.5 1.5-.8zm-20.1 1.3c-.6-.3-1.3-.5-1.9-.8.7.3 1.3.6 1.9.8zm22.2-2.6c-.5.4-1.1.7-1.7 1.1.6-.4 1.2-.8 1.7-1.1zm-8.2 3.7c-.6.2-1.3.3-2 .4.6-.1 1.3-.3 2-.4zm-6.9.5c-.6 0-1.2-.1-1.8-.2.5.1 1.2.2 1.8.2zm2.3.1H604h2.1zm-4.7-.4c-.7-.1-1.4-.3-2.1-.4.7.2 1.4.3 2.1.4zm19.1-5.2c-.5.4-.9.7-1.4 1.1.5-.3 1-.7 1.4-1.1zm-5.5 3.5c-.6.3-1.2.5-1.8.7.6-.2 1.2-.4 1.8-.7zm-6.7 1.9c-.6.1-1.1.1-1.7.2.6-.1 1.1-.1 1.7-.2zm-13.5-2.3c-.6-.3-1.2-.7-1.8-1 .6.4 1.2.7 1.8 1zm-8.7-7.6c-.3-.5-.7-1-1-1.5.3.5.6 1 1 1.5zm2.9 3.5c-.5-.4-.9-.9-1.3-1.4.4.5.9.9 1.3 1.4zm1.9 1.6c-.5-.4-1-.9-1.5-1.3.5.5 1 .9 1.5 1.3zm-5.9-6.8-.9-1.8c.3.7.6 1.3.9 1.8zm2.6 3.7zm-4.9-9.3c.1.5.3 1 .5 1.5-.2-.5-.3-.9-.4-1.4l-.1-.1zm1.2 3.4c-.2-.6-.5-1.1-.7-1.7.2.6.5 1.2.7 1.7zm38.5 6.7c-.5.5-1 .9-1.5 1.4.5-.5 1-.9 1.5-1.4zm-9.7 6.1c-.5.2-1 .3-1.6.5.5-.2 1.1-.3 1.6-.5z" class="st37"/><path d="M582.7 834.1c.1.5.3.9.4 1.4 0 .1.1.1.1.2.2.6.4 1.1.7 1.7.1.2.1.3.2.5l.9 1.8c0 .1.1.1.1.2.3.5.6 1 1 1.5.1.1.2.3.3.4.4.5.8 1.1 1.2 1.6l.1.1c.4.5.8.9 1.3 1.4.1.1.2.2.4.3.5.5 1 .9 1.5 1.3 0 0 .1 0 .1.1.5.4 1 .8 1.6 1.1.1.1.3.2.4.3.6.4 1.2.7 1.8 1 .6.3 1.2.6 1.9.8.2.1.3.1.5.2.7.2 1.3.5 2 .7.7.2 1.4.3 2.1.4.2 0 .4.1.6.1.6.1 1.2.2 1.8.2h2.9c.6 0 1.1-.1 1.7-.2h.4c.7-.1 1.3-.2 2-.4.2 0 .3-.1.5-.1.5-.1 1.1-.3 1.6-.5.1 0 .3-.1.4-.1.6-.2 1.2-.5 1.8-.7.1-.1.2-.1.4-.2.5-.2 1-.5 1.5-.8.1-.1.3-.2.4-.3.6-.3 1.1-.7 1.7-1.1.1 0 .1-.1.2-.2.5-.3.9-.7 1.4-1.1.1-.1.3-.2.4-.3.5-.4 1-.9 1.5-1.4-26.3 16.7-38.9-8-39.8-9.9z" class="st35"/><path d="M582.7 834.1c.1.5.3.9.4 1.4 0 .1.1.1.1.2.2.6.4 1.1.7 1.7.1.2.1.3.2.5l.9 1.8c0 .1.1.1.1.2.3.5.6 1 1 1.5.1.1.2.3.3.4.4.5.8 1.1 1.2 1.6l.1.1c.4.5.8.9 1.3 1.4.1.1.2.2.4.3.5.5 1 .9 1.5 1.3 0 0 .1 0 .1.1.5.4 1 .8 1.6 1.1.1.1.3.2.4.3.6.4 1.2.7 1.8 1 .6.3 1.2.6 1.9.8.2.1.3.1.5.2.7.2 1.3.5 2 .7.7.2 1.4.3 2.1.4.2 0 .4.1.6.1.6.1 1.2.2 1.8.2h2.9c.6 0 1.1-.1 1.7-.2h.4c.7-.1 1.3-.2 2-.4.2 0 .3-.1.5-.1.5-.1 1.1-.3 1.6-.5.1 0 .3-.1.4-.1.6-.2 1.2-.5 1.8-.7.1-.1.2-.1.4-.2.5-.2 1-.5 1.5-.8.1-.1.3-.2.4-.3.6-.3 1.1-.7 1.7-1.1.1 0 .1-.1.2-.2.5-.3.9-.7 1.4-1.1.1-.1.3-.2.4-.3.5-.4 1-.9 1.5-1.4-26.3 16.7-38.9-8-39.8-9.9z" class="st37"/><path d="M683.6 594.2c-.1 0-.1 0 0 0-.1 0-.1 0 0 0zm8.2 2.6c-.2 0-.4-.1-.6-.1.1 0 .4.1.6.1zm24.4-45.2c.1.1.2.2.3.4-.1-.1-.2-.2-.3-.4zm-34.2-5.4c.1-.1.2-.1.3-.2-.1.1-.2.1-.3.2zm4.3 49.2c-.2-.1-.4-.1-.6-.2.2.1.4.1.6.2zm-2.1-50.4c.1-.1.2-.1.3-.2-.1.1-.2.2-.3.2z" class="st35"/><path d="M715.6 588.6c3-3.2 5.3-7.2 6.6-11.7 1.5-5.5 1.2-11-.6-16-.2-.3-15.2-25-43.7-11.7-4 3.5-7 8.1-8.5 13.5-1.3 4.9-1.2 9.8.1 14.3 1 2.2 15.6 31 46.1 11.6zm-44.6-7.3c-.1-.2-.2-.4-.2-.5.1.2.1.4.2.5zm23.5-38.8h.4-.4z" class="st35"/><path d="M681.4 593c-.2-.1-.3-.2-.5-.3.2.1.3.2.5.3zm10.3-50.2c.2 0 .3-.1.5-.1-.1 0-.3 0-.5.1zm-5 1.2c.2-.1.3-.1.5-.2-.2.1-.4.2-.5.2zm10.4-1.5h.4-.4zm.1 54.6h-.6.6zm10.2-2.6c-.1.1-.3.1-.4.2.1-.1.2-.1.4-.2zm-13.2 2.6h-.3c.1-.1.2 0 .3 0zm15.4-3.8c-.2.1-.3.2-.5.3.2-.1.4-.2.5-.3zm-34.4-5.5-.1-.1c.1 0 .1.1.1.1zm29.6 7.7c-.2.1-.3.1-.5.2.2 0 .4-.1.5-.2zm15.7-37.3c.1.2.1.3.2.5 0-.2-.1-.3-.2-.5zm-41.4 33.2c-.1 0-.1 0 0 0-.1 0-.1 0 0 0zm.6-43.7c.1-.1.3-.2.4-.3-.2.1-.3.2-.4.3zm-2.5 42.1-.4-.4c.1.1.2.3.4.4zm-3.5-3.9c-.1-.2-.2-.3-.3-.5.1.1.2.3.3.5zm38.1 6c-.1.1-.2.1-.2.2.1-.1.1-.2.2-.2zm2.1-1.7c-.2.1-.3.3-.5.4.2-.1.3-.3.5-.4zm5.4-34.3c.1.1.1.2.2.3-.1-.1-.2-.2-.2-.3zm-1.4-2.1c.1.1.2.2.2.3 0-.1-.1-.2-.2-.3zm-12.7-9.6c.2.1.3.1.5.2-.2-.1-.3-.2-.5-.2zm-2.7 52.1c-.2 0-.4.1-.5.1.1 0 .3-.1.5-.1zm-2.6-53.5c.2 0 .3.1.5.1-.2-.1-.4-.1-.5-.1zm8 2.5c.1.1.2.1.4.2-.2-.1-.3-.1-.4-.2zm6.6 4.6c.1.1.1.1 0 0 .1.1.1.1 0 0zm-2.1-1.8c.1.1.3.2.4.3-.2-.1-.3-.2-.4-.3zm-2.3-1.5c.1.1.2.1.3.2 0-.1-.2-.2-.3-.2zm-10.5 50.2c-.2 0-.3 0-.5.1.2 0 .4-.1.5-.1zm-27.4-13.2c0-.1-.1-.1-.1-.2 0 .1.1.1.1.2zm-2.2-4.7c0-.1-.1-.2-.1-.2s.1.1.1.2z" class="st35"/><path d="M716.5 552c.5.6 1 1.2 1.4 1.8-.4-.6-.9-1.2-1.4-1.8zm1.7 2.1c.4.6.8 1.2 1.1 1.8-.4-.6-.7-1.2-1.1-1.8zm-10-8.6c.6.3 1.3.7 1.9 1.1-.6-.4-1.2-.8-1.9-1.1zm4.6 2.9 1.8 1.5-1.8-1.5zm-20.6-5.7c.8-.1 1.5-.2 2.3-.2-.7 0-1.5.1-2.3.2zm18.3 4c.7.4 1.3.9 1.9 1.3-.7-.4-1.3-.8-1.9-1.3zm-13-4.2c.8.1 1.6.1 2.4.3l-2.4-.3zm22 13.7c.4.7.7 1.3 1 2-.3-.6-.7-1.3-1-2zm-13.8-11.9c.7.3 1.5.6 2.2 1-.7-.4-1.4-.7-2.2-1zm-23.4 1.7c.6-.3 1.2-.7 1.9-1-.6.3-1.3.7-1.9 1zm20.5-2.6c.8.2 1.6.5 2.4.8-.8-.3-1.6-.6-2.4-.8zm-2.4-.5c.8.1 1.6.3 2.4.5-.8-.2-1.6-.4-2.4-.5zm-5.5-.4h2.2-2.2zm-10.4 2.4c.7-.3 1.4-.6 2.1-.8-.7.2-1.4.5-2.1.8zm30.1 5.1c.6.5 1.1 1.1 1.6 1.7-.5-.6-1-1.2-1.6-1.7zm-36.8-.8 1.8-1.5c-.6.5-1.2.9-1.8 1.5zm43.8 11.6c-.3-.7-.5-1.4-.9-2.1l.9 2.1zm-32.2-17.6c.8-.2 1.5-.3 2.3-.4-.8.1-1.5.2-2.3.4zm-2.3.7c.7-.2 1.5-.5 2.3-.7-.8.2-1.5.4-2.3.7zm-7 3.5c.6-.4 1.3-.9 1.9-1.2-.7.4-1.3.8-1.9 1.2z" class="st36"/><path d="M721.6 560.8c-.2-.7-.5-1.4-.8-2.1-.1-.2-.1-.3-.2-.5-.3-.7-.7-1.4-1-2-.1-.1-.1-.2-.2-.3-.4-.6-.7-1.2-1.1-1.8-.1-.1-.2-.2-.2-.3-.4-.6-.9-1.2-1.4-1.8-.1-.1-.2-.2-.3-.4-.5-.6-1-1.1-1.6-1.7l-1.8-1.5c-.1-.1-.3-.2-.4-.3-.6-.5-1.2-.9-1.9-1.3-.1-.1-.2-.1-.3-.2-.6-.4-1.2-.7-1.9-1.1-.1-.1-.2-.1-.4-.2-.7-.3-1.4-.7-2.2-1-.2-.1-.3-.1-.5-.2-.8-.3-1.6-.5-2.4-.8s-1.6-.4-2.4-.5c-.2 0-.3-.1-.5-.1l-2.4-.3h-3c-.8 0-1.6.1-2.3.2-.2 0-.3 0-.5.1-.8.1-1.6.3-2.3.4-.8.2-1.5.4-2.3.7-.2.1-.3.1-.5.2-.7.3-1.4.5-2.1.8-.1.1-.2.1-.3.2-.6.3-1.3.6-1.9 1-.1.1-.2.1-.3.2-.7.4-1.3.8-1.9 1.2-.1.1-.3.2-.4.3-.6.5-1.3.9-1.8 1.5 28.3-13.3 43.3 11.3 43.5 11.6z" class="st35"/><path d="M721.6 560.8c-.2-.7-.5-1.4-.8-2.1-.1-.2-.1-.3-.2-.5-.3-.7-.7-1.4-1-2-.1-.1-.1-.2-.2-.3-.4-.6-.7-1.2-1.1-1.8-.1-.1-.2-.2-.2-.3-.4-.6-.9-1.2-1.4-1.8-.1-.1-.2-.2-.3-.4-.5-.6-1-1.1-1.6-1.7l-1.8-1.5c-.1-.1-.3-.2-.4-.3-.6-.5-1.2-.9-1.9-1.3-.1-.1-.2-.1-.3-.2-.6-.4-1.2-.7-1.9-1.1-.1-.1-.2-.1-.4-.2-.7-.3-1.4-.7-2.2-1-.2-.1-.3-.1-.5-.2-.8-.3-1.6-.5-2.4-.8s-1.6-.4-2.4-.5c-.2 0-.3-.1-.5-.1l-2.4-.3h-3c-.8 0-1.6.1-2.3.2-.2 0-.3 0-.5.1-.8.1-1.6.3-2.3.4-.8.2-1.5.4-2.3.7-.2.1-.3.1-.5.2-.7.3-1.4.5-2.1.8-.1.1-.2.1-.3.2-.6.3-1.3.6-1.9 1-.1.1-.2.1-.3.2-.7.4-1.3.8-1.9 1.2-.1.1-.3.2-.4.3-.6.5-1.3.9-1.8 1.5 28.3-13.3 43.3 11.3 43.5 11.6z" class="st36"/><path d="M672.1 583.4c-.4-.7-.7-1.4-1.1-2.1.3.7.7 1.4 1.1 2.1zm1.2 2-1.2-1.8 1.2 1.8zm-2.5-4.6c-.3-.6-.5-1.3-.8-2 .2.7.5 1.4.8 2zm31.1 15.6c-.8.2-1.5.3-2.3.4.8-.1 1.6-.2 2.3-.4zm-26.8-8.7c-.5-.6-1-1.2-1.4-1.8.4.6.9 1.2 1.4 1.8zm18.8 9.3c-.7 0-1.4-.1-2.1-.2.7.1 1.4.2 2.1.2zm21.7-8.4c-.5.6-1.1 1.1-1.7 1.6.6-.5 1.2-1 1.7-1.6zm-2.2 2c-.5.4-1.1.9-1.6 1.3.6-.4 1.1-.9 1.6-1.3zm-1.8 1.5c-.6.4-1.3.9-1.9 1.3.6-.5 1.2-.9 1.9-1.3zm-34.9-2.7c-.5-.5-1-1-1.5-1.6.5.6 1 1.1 1.5 1.6zm19.9 7.7h-2.4 2.4zm7.7-1.4c-.6.2-1.2.4-1.8.5.6-.1 1.2-.3 1.8-.5zm-5.1 1.2c-.7.1-1.3.1-2 .2.7-.1 1.3-.1 2-.2zm7.8-2.2-2.1.9 2.1-.9zm2.1-1.1c-.6.3-1.1.6-1.7.9.6-.3 1.1-.6 1.7-.9zm-39.7-16.7c.2.6.3 1.2.5 1.8-.2-.5-.3-1.1-.5-1.6v-.2zm21.7 19.8c-.8-.1-1.6-.3-2.4-.5.8.2 1.6.4 2.4.5zm-2.4-.5c-.8-.2-1.6-.5-2.4-.8.8.3 1.6.6 2.4.8zm-9.7-4.9-1.8-1.5c.5.5 1.1 1 1.8 1.5zm4.5 2.9-2.1-1.2 2.1 1.2zm-2.6-1.5c-.6-.4-1.3-.8-1.9-1.3.6.5 1.3.9 1.9 1.3zm4.8 2.5c-.7-.3-1.5-.6-2.2-1 .8.4 1.5.7 2.2 1z" class="st37"/><path d="M669.4 577c.2.5.3 1.1.5 1.6 0 .1.1.2.1.2.2.7.5 1.3.8 2 .1.2.2.4.2.5.3.7.7 1.4 1.1 2.1 0 .1.1.1.1.2l1.2 1.8c.1.2.2.3.3.5.5.6.9 1.2 1.4 1.8l.1.1c.5.5 1 1.1 1.5 1.6l.4.4 1.8 1.5s.1 0 .1.1c.6.5 1.2.9 1.9 1.3.2.1.3.2.5.3l2.1 1.2h.1c.7.3 1.4.7 2.2 1 .2.1.4.2.6.2.8.3 1.6.5 2.4.8.8.2 1.6.4 2.4.5.2 0 .4.1.6.1.7.1 1.4.2 2.1.2h3.3c.7 0 1.3-.1 2-.2.2 0 .3 0 .5-.1.8-.1 1.5-.3 2.3-.4.2 0 .4-.1.5-.1.6-.2 1.2-.3 1.8-.5.2-.1.3-.1.5-.2.7-.3 1.4-.5 2.1-.9.1-.1.3-.1.4-.2.6-.3 1.2-.6 1.7-.9.2-.1.3-.2.5-.3.7-.4 1.3-.8 1.9-1.3.1-.1.2-.1.2-.2.6-.4 1.1-.8 1.6-1.3.2-.1.3-.3.5-.4.6-.5 1.2-1.1 1.7-1.6-30.3 19.6-44.9-9.2-46-11.4z" class="st35"/><path d="M669.4 577c.2.5.3 1.1.5 1.6 0 .1.1.2.1.2.2.7.5 1.3.8 2 .1.2.2.4.2.5.3.7.7 1.4 1.1 2.1 0 .1.1.1.1.2l1.2 1.8c.1.2.2.3.3.5.5.6.9 1.2 1.4 1.8l.1.1c.5.5 1 1.1 1.5 1.6l.4.4 1.8 1.5s.1 0 .1.1c.6.5 1.2.9 1.9 1.3.2.1.3.2.5.3l2.1 1.2h.1c.7.3 1.4.7 2.2 1 .2.1.4.2.6.2.8.3 1.6.5 2.4.8.8.2 1.6.4 2.4.5.2 0 .4.1.6.1.7.1 1.4.2 2.1.2h3.3c.7 0 1.3-.1 2-.2.2 0 .3 0 .5-.1.8-.1 1.5-.3 2.3-.4.2 0 .4-.1.5-.1.6-.2 1.2-.3 1.8-.5.2-.1.3-.1.5-.2.7-.3 1.4-.5 2.1-.9.1-.1.3-.1.4-.2.6-.3 1.2-.6 1.7-.9.2-.1.3-.2.5-.3.7-.4 1.3-.8 1.9-1.3.1-.1.2-.1.2-.2.6-.4 1.1-.8 1.6-1.3.2-.1.3-.3.5-.4.6-.5 1.2-1.1 1.7-1.6-30.3 19.6-44.9-9.2-46-11.4z" class="st37"/><path d="M603.6 922.4c.4.1.9.3 1.3.4-.5-.2-.9-.3-1.3-.4zm-11.3 18.8c-.2-.2-.4-.5-.6-.7.2.2.4.4.6.7zm6.8 3.4c-.5-.1-.9-.1-1.4-.3.4.2.9.3 1.4.3zm.5-22.6h.9-.9zm4 22.3c-.4.1-.7.2-1.1.2.4 0 .7-.1 1.1-.2z" class="st35"/><path d="M589.6 930.4c-.5 2-.5 4.1 0 5.9.4.9 6.5 12.9 19.2 4.8 1.3-1.3 2.2-3 2.7-4.9.6-2.3.5-4.6-.2-6.7-.1-.1-6.3-10.4-18.2-4.9-1.6 1.6-2.9 3.5-3.5 5.8zm11.3-8.4c.3 0 .6 0 .9.1-.3-.1-.6-.1-.9-.1z" class="st35"/><path d="M596 943.7c-.3-.1-.6-.3-.9-.5.3.2.6.4.9.5zm-.4-20.5c.3-.1.5-.2.8-.4-.3.1-.5.2-.8.4zm6.7 21.4c-.4.1-.9.1-1.4.1.5 0 .9 0 1.4-.1zm-4.6-.2c-.5-.1-.9-.3-1.3-.5.4.2.8.3 1.3.5zm-6.2-4.3c-.3-.4-.5-.7-.7-1.1.2.4.4.8.7 1.1zm5.3-17.4c.8-.3 1.6-.5 2.4-.6-.8.1-1.7.3-2.4.6zm-6.1 16.2zm9.8 5.8c-.4 0-.7 0-1.1-.1.4.1.8.1 1.1.1zm-10.5-7.2-.3-.9.3.9zm18.4-12.4.9.9-.9-.9zm-.9-.8c.3.2.6.5.9.8-.3-.3-.6-.6-.9-.8zm-1.1 18.8-1.2.6c.5-.1.9-.3 1.2-.6zm0-19.5c.3.2.5.3.7.5-.2-.2-.4-.4-.7-.5zm-11.7 19.5c-.4-.2-.8-.5-1.1-.8.4.3.7.6 1.1.8zm7.6-21c.4.1.9.1 1.3.3-.5-.1-.9-.2-1.3-.3zm5.3 20.2c-.3.2-.6.4-.8.6.2-.1.5-.3.8-.6zm-14 0c-.3-.3-.6-.5-.9-.8.2.2.5.5.9.8zm11.6-19.3c.3.1.6.3.8.4-.3-.2-.5-.3-.8-.4zm-.2 20.8c-.3.1-.7.3-1 .4.3-.1.7-.2 1-.4zm3.9-2.6c-.3.3-.6.6-1 .9.3-.3.7-.6 1-.9zm1.4-13.8c.2.2.3.5.4.8-.1-.3-.3-.6-.4-.8zm-15.8-3.6c.2-.2.5-.3.7-.4-.2.1-.5.2-.7.4zm16.4 4.7c.2.3.3.7.4 1.1-.1-.4-.3-.8-.4-1.1zm-17.8-3.7c.3-.3.6-.5 1-.8-.3.3-.6.5-1 .8zm16.4 1.5z" class="st35"/><path d="M595.2 923.4c.1-.1.3-.1.4-.2-.1 0-.3.1-.4.2zm1.2-.6c.1 0 .2-.1.4-.1-.2 0-.3.1-.4.1zm15 6.8s-.1 0 0 0c-.1 0-.1 0 0 0zm-10.9-7.6h.5-.5zm-7.4 2.8zm12.9-1.4c.1.1.3.1.4.2-.1-.1-.3-.2-.4-.2zm-6.8-1.3h.4-.4zM610 927c.1.1.2.2.2.4 0-.1-.1-.3-.2-.4zm-2.9-2.9c.1.1.2.2.3.2 0-.1-.2-.2-.3-.2zm-13-.1c.1-.1.2-.1.3-.2 0 .1-.2.1-.3.2zm15.2 2c.1.1.2.2.2.3-.1-.1-.1-.2-.2-.3zm-.9-.9zm-3.6-2.3c.1 0 .2.1.4.2-.1-.1-.3-.2-.4-.2zm-3-.7h.4-.4zm8.9 6c.1.1.1.2.2.4-.1-.1-.1-.2-.2-.4z" class="st36"/><path d="M611.4 929.6c-.1 0-.1 0 0 0-.2-.4-.3-.8-.5-1.1-.1-.1-.1-.2-.2-.4-.1-.3-.3-.5-.4-.8-.1-.1-.2-.2-.2-.4-.2-.2-.3-.5-.5-.7-.1-.1-.2-.2-.2-.3l-.9-.9c-.3-.3-.6-.5-.9-.8-.1-.1-.2-.2-.3-.2-.2-.2-.5-.3-.7-.5-.1-.1-.3-.2-.4-.2-.3-.1-.5-.3-.8-.4-.1-.1-.2-.1-.4-.2-.4-.2-.8-.3-1.3-.4-.4-.1-.9-.2-1.3-.3h-.4c-.3 0-.6-.1-.9-.1h-1.8c-.8.1-1.7.3-2.4.6-.1 0-.2.1-.4.1-.3.1-.5.2-.8.4-.1.1-.3.1-.4.2-.3.1-.5.3-.7.4-.1.1-.2.1-.3.2-.3.2-.7.5-1 .8 11.7-5.4 18 4.9 18.1 5z" class="st35"/><path d="M611.4 929.6c-.1 0-.1 0 0 0-.2-.4-.3-.8-.5-1.1-.1-.1-.1-.2-.2-.4-.1-.3-.3-.5-.4-.8-.1-.1-.2-.2-.2-.4-.2-.2-.3-.5-.5-.7-.1-.1-.2-.2-.2-.3l-.9-.9c-.3-.3-.6-.5-.9-.8-.1-.1-.2-.2-.3-.2-.2-.2-.5-.3-.7-.5-.1-.1-.3-.2-.4-.2-.3-.1-.5-.3-.8-.4-.1-.1-.2-.1-.4-.2-.4-.2-.8-.3-1.3-.4-.4-.1-.9-.2-1.3-.3h-.4c-.3 0-.6-.1-.9-.1h-1.8c-.8.1-1.7.3-2.4.6-.1 0-.2.1-.4.1-.3.1-.5.2-.8.4-.1.1-.3.1-.4.2-.3.1-.5.3-.7.4-.1.1-.2.1-.3.2-.3.2-.7.5-1 .8 11.7-5.4 18 4.9 18.1 5z" class="st36"/><path d="M607.9 942.1c-.1.1-.2.2-.3.2.1 0 .2-.1.3-.2zm-1.2.8c-.1.1-.2.1-.3.2.1 0 .2-.1.3-.2zm-13.1-.6zm-1.9-1.9c-.1-.1-.2-.2-.2-.3 0 .1.1.2.2.3zm10.8 4.2h-.2.2zm-3 .1h-.4c.1-.1.2 0 .4 0zm-4.4-1.4c-.1-.1-.2-.1-.3-.2 0 .1.1.1.3.2zm-2.5-1.9-.3-.3c.1.2.2.3.3.3zm8.3 3.3h-.4.4zm3.1-.5c-.1 0-.3.1-.4.1.1 0 .3 0 .4-.1zm-7.7-.3c-.1-.1-.2-.1-.4-.2.2.1.3.1.4.2zm9-.2c-.1 0-.2.1-.2.1s.1 0 .2-.1zm-15.7-7.4c0 .1.1.2.1.2s0-.1-.1-.2zm.6 1.5c-.1-.1-.1-.2-.1-.4 0 .2 0 .3.1.4zm.5 1.2s0-.1-.1-.1l.1.1z" class="st37"/><path d="M589.6 936.4c0 .1 0 .1.1.2l.3.9c0 .1.1.2.1.4.2.4.3.7.5 1.1 0 0 0 .1.1.1.2.4.5.7.7 1.1.1.1.2.2.2.3.2.3.4.5.6.7l.3.3c.3.3.6.6.9.8h.1c.3.3.7.5 1.1.8.1.1.2.1.3.2.3.2.6.3.9.5.1.1.2.1.4.2.4.2.9.3 1.3.5.5.1.9.2 1.4.3h.4c.4 0 .7.1 1.1.1h.4c.5 0 .9 0 1.4-.1h.2c.4-.1.7-.1 1.1-.2.1 0 .3-.1.4-.1.4-.1.7-.2 1-.4.1 0 .2-.1.2-.1l1.2-.6c.1-.1.2-.1.3-.2.3-.2.6-.4.8-.6.1-.1.2-.2.3-.2.3-.3.7-.6 1-.9-12.5 7.8-18.6-4.2-19.1-5.1z" class="st35"/><path d="M589.6 936.4c0 .1 0 .1.1.2l.3.9c0 .1.1.2.1.4.2.4.3.7.5 1.1 0 0 0 .1.1.1.2.4.5.7.7 1.1.1.1.2.2.2.3.2.3.4.5.6.7l.3.3c.3.3.6.6.9.8h.1c.3.3.7.5 1.1.8.1.1.2.1.3.2.3.2.6.3.9.5.1.1.2.1.4.2.4.2.9.3 1.3.5.5.1.9.2 1.4.3h.4c.4 0 .7.1 1.1.1h.4c.5 0 .9 0 1.4-.1h.2c.4-.1.7-.1 1.1-.2.1 0 .3-.1.4-.1.4-.1.7-.2 1-.4.1 0 .2-.1.2-.1l1.2-.6c.1-.1.2-.1.3-.2.3-.2.6-.4.8-.6.1-.1.2-.2.3-.2.3-.3.7-.6 1-.9-12.5 7.8-18.6-4.2-19.1-5.1z" class="st37"/><path d="m779.5 694.5.9.9c-.4-.3-.6-.6-.9-.9zm1.1 1.2c.2.2.4.5.5.7-.2-.2-.4-.4-.5-.7zm-2.1-2c.3.2.6.5.9.8-.3-.3-.6-.6-.9-.8zM761 706.9l-.3-.9.3.9zm5.6-14.3c.3-.1.5-.2.8-.4-.2.1-.5.2-.8.4zm2.4-.9c.4-.1.8-.2 1.2-.2-.4 0-.8.1-1.2.2zm3-.3c.3 0 .6 0 .9.1-.3-.1-.6-.1-.9-.1zm-1.4.1h.9c-.3-.1-.6-.1-.9 0zm-2.8.6c.4-.1.8-.3 1.2-.4-.4.1-.8.2-1.2.4zm8.4.3c.3.1.6.3.8.4-.2-.2-.5-.3-.8-.4zm-2.9-.9c.4.1.9.1 1.3.3-.5-.1-.9-.2-1.3-.3zm-7.8 1.7c.2-.2.5-.3.7-.4-.2.1-.5.3-.7.4zm11.9-.2c.3.2.5.3.7.5-.2-.2-.4-.4-.7-.5zm-2.8-1.2c.4.1.9.3 1.3.4-.5-.2-.9-.3-1.3-.4zm-4.5 22.2c-.5-.1-.9-.1-1.4-.3.5.2.9.3 1.4.3zm9.8-3.4c-.3.3-.6.6-1 .9.4-.3.7-.6 1-.9zm-5.3 3.1c-.4.1-.7.2-1.1.2.4 0 .8-.1 1.1-.2zm2.9-1.2-1.2.6c.4-.1.8-.3 1.2-.6zm-15.8-4.2zm16.9 3.5c-.3.2-.6.4-.8.6.2-.2.5-.4.8-.6zm-14.4-17.6c.3-.3.6-.5 1-.8-.4.3-.7.5-1 .8zm17.7 3.7c.2.3.3.7.4 1.1-.1-.4-.2-.7-.4-1.1zm-.6-1.1c.2.2.3.5.4.8-.1-.3-.2-.6-.4-.8zm-5.2 16.4c-.3.1-.7.3-1 .4.3-.1.6-.2 1-.4zm-12.7-2.6c-.2-.2-.4-.5-.6-.7.1.2.3.4.6.7zm2.3 1.9c-.4-.2-.8-.5-1.1-.8.4.3.8.6 1.1.8zm-1.1-.8c-.3-.3-.6-.5-.9-.8.2.3.6.5.9.8zm-2.1-2.2c-.3-.4-.5-.7-.7-1.1.2.4.4.8.7 1.1zm6.2 4.3c-.5-.1-.9-.3-1.3-.5.4.2.8.3 1.3.5zm-1.7-.7c-.3-.1-.6-.3-.9-.5.3.3.6.4.9.5zm4.6 1c-.4 0-.7 0-1.1-.1.4.1.7.1 1.1.1zm1.7-.1c-.4.1-.9.1-1.4.1.5 0 .9 0 1.4-.1z" class="st35"/><path d="M779.9 710.6c1.3-1.3 2.2-3 2.7-4.9.6-2.3.5-4.6-.2-6.7-.1-.1-6.3-10.4-18.2-4.9-1.7 1.4-2.9 3.4-3.5 5.6-.5 2-.5 4.1 0 5.9.4 1.1 6.5 13.1 19.2 5z" class="st35"/><path d="M772.9 691.5h.4-.4zm2.9.7c.1.1.2.1.4.2-.1-.1-.2-.1-.4-.2zm-8.4 0c.1 0 .2-.1.4-.1-.1 0-.3.1-.4.1zm4.1-.8h.5-.5zm-1.3.1h.4-.4zm-4 1.3c.1-.1.3-.1.4-.2-.1 0-.2.1-.4.2zm14.1 2.6c.1.1.2.2.2.3 0-.1-.1-.2-.2-.3zm-3.3-2.6c.1.1.3.1.4.2-.1-.1-.2-.2-.4-.2zm4.1 3.6c.1.1.2.2.2.4-.1-.1-.1-.2-.2-.4zm-1.7-1.9zm-1.2-1c.1.1.2.2.3.2-.1-.1-.2-.2-.3-.2zm3.5 4.1c.1.1.1.2.2.4 0-.2-.1-.3-.2-.4zm.7 1.4zm-18.2-4.8zm1-.8c.1-.1.2-.1.3-.2-.1.1-.2.2-.3.2z" class="st36"/><path d="M782.4 699c-.2-.4-.3-.8-.5-1.1-.1-.1-.1-.2-.2-.4-.1-.3-.3-.5-.4-.8-.1-.1-.2-.2-.2-.4-.2-.2-.3-.5-.5-.7-.1-.1-.2-.2-.2-.3l-.9-.9c-.3-.3-.6-.5-.9-.8-.1-.1-.2-.2-.3-.2-.2-.2-.5-.3-.7-.5-.1-.1-.3-.2-.4-.2-.3-.1-.5-.3-.8-.4-.1-.1-.2-.1-.4-.2-.4-.2-.8-.3-1.3-.4-.4-.1-.9-.2-1.3-.3h-.4c-.3 0-.6-.1-.9-.1h-1.8c-.4.1-.8.1-1.2.2-.4.1-.8.2-1.2.4-.1 0-.2.1-.4.1-.3.1-.5.2-.8.4-.1.1-.3.1-.4.2-.3.1-.5.3-.7.4-.1.1-.2.1-.3.2-.3.2-.7.5-1 .8 11.8-5.4 18 4.9 18.1 5z" class="st35"/><path d="M782.4 699c-.2-.4-.3-.8-.5-1.1-.1-.1-.1-.2-.2-.4-.1-.3-.3-.5-.4-.8-.1-.1-.2-.2-.2-.4-.2-.2-.3-.5-.5-.7-.1-.1-.2-.2-.2-.3l-.9-.9c-.3-.3-.6-.5-.9-.8-.1-.1-.2-.2-.3-.2-.2-.2-.5-.3-.7-.5-.1-.1-.3-.2-.4-.2-.3-.1-.5-.3-.8-.4-.1-.1-.2-.1-.4-.2-.4-.2-.8-.3-1.3-.4-.4-.1-.9-.2-1.3-.3h-.4c-.3 0-.6-.1-.9-.1h-1.8c-.4.1-.8.1-1.2.2-.4.1-.8.2-1.2.4-.1 0-.2.1-.4.1-.3.1-.5.2-.8.4-.1.1-.3.1-.4.2-.3.1-.5.3-.7.4-.1.1-.2.1-.3.2-.3.2-.7.5-1 .8 11.8-5.4 18 4.9 18.1 5z" class="st36"/><path d="M760.7 706c0-.1 0-.1-.1-.2v-.1c.1.1.1.2.1.3zm.5 1.3c-.1-.1-.1-.2-.1-.4 0 .1 0 .2.1.4zm.6 1.1s0-.1-.1-.1c0 .1.1.1.1.1zm.9 1.4c-.1-.1-.2-.2-.2-.3.1.1.1.2.2.3zm12.3 3.8c-.1 0-.3.1-.4.1.2 0 .3 0 .4-.1zm1.3-.4c-.1 0-.2.1-.2.1 0-.1.1-.1.2-.1zm-2.8.8h-.2.2zm5.4-2.5c-.1.1-.2.2-.3.2.1 0 .2-.1.3-.2zm-1.1.9c-.1.1-.2.1-.3.2.1-.1.2-.2.3-.2zm-7.3 1.7h-.4.4zm-4.4-1.4c-.1-.1-.2-.1-.3-.2.1.1.2.1.3.2zm-1.5-1zm2.8 1.6c-.1-.1-.2-.1-.4-.2.1.1.2.2.4.2zm4.5.8h-.4.4zm-8.3-3.2-.3-.3c.2.1.2.2.3.3z" class="st37"/><path d="M761 706.9c0 .1.1.2.1.4.2.4.3.7.5 1.1 0 0 0 .1.1.1.2.4.5.7.7 1.1.1.1.2.2.2.3.2.3.4.5.6.7l.3.3c.3.3.6.6.9.8h.1c.3.3.7.5 1.1.8.1.1.2.1.3.2.3.2.6.3.9.5.1.1.2.1.4.2.4.2.9.3 1.3.5.5.1.9.2 1.4.3h.4c.4 0 .7.1 1.1.1h.4c.5 0 .9 0 1.4-.1h.2c.4-.1.7-.1 1.1-.2.1 0 .3-.1.4-.1.4-.1.7-.2 1-.4.1 0 .2-.1.2-.1l1.2-.6c.1-.1.2-.1.3-.2.3-.2.6-.4.8-.6.1-.1.2-.2.3-.2.3-.3.7-.6 1-.9-12.7 8.1-18.8-3.9-19.2-4.8 0 .1 0 .1.1.2.2 0 .3.3.4.6z" class="st35"/><path d="M761 706.9c0 .1.1.2.1.4.2.4.3.7.5 1.1 0 0 0 .1.1.1.2.4.5.7.7 1.1.1.1.2.2.2.3.2.3.4.5.6.7l.3.3c.3.3.6.6.9.8h.1c.3.3.7.5 1.1.8.1.1.2.1.3.2.3.2.6.3.9.5.1.1.2.1.4.2.4.2.9.3 1.3.5.5.1.9.2 1.4.3h.4c.4 0 .7.1 1.1.1h.4c.5 0 .9 0 1.4-.1h.2c.4-.1.7-.1 1.1-.2.1 0 .3-.1.4-.1.4-.1.7-.2 1-.4.1 0 .2-.1.2-.1l1.2-.6c.1-.1.2-.1.3-.2.3-.2.6-.4.8-.6.1-.1.2-.2.3-.2.3-.3.7-.6 1-.9-12.7 8.1-18.8-3.9-19.2-4.8 0 .1 0 .1.1.2.2 0 .3.3.4.6z" class="st37"/><path d="M267.8 797.8c-.3-.1-.7-.3-1-.5.3.2.6.3 1 .5zm12.3-1.5-.9.6c.3-.2.7-.4.9-.6zm-14.9-.1c-.4-.3-.7-.6-1-.9.3.4.6.7 1 .9zm13.7.9c-.4.2-.8.5-1.3.7.5-.2.9-.4 1.3-.7zm-4.4 1.6c-.5.1-1 .1-1.4.1.4 0 .9 0 1.4-.1zm1.4-.3-1.2.3 1.2-.3zm-6.3 0zm7.8-.5c-.4.2-.7.3-1.1.4.4-.1.8-.3 1.1-.4zm-6.3.8-1.5-.3c.5.2 1 .3 1.5.3zm1.5.1c-.4 0-.8 0-1.1-.1.4.1.8.1 1.1.1zm-6.2-1.7c-.4-.2-.8-.5-1.2-.8.4.3.8.5 1.2.8zM280 777c.3.3.7.5 1 .8-.3-.2-.6-.5-1-.8zm1.1.9c.3.3.6.6.9 1-.3-.4-.6-.7-.9-1zm-2.2-1.6c.3.2.5.3.8.5-.3-.2-.5-.4-.8-.5zm-1.3-.7c.3.1.6.3.9.4-.3-.1-.6-.3-.9-.4zm-1.7-.6c.5.1.9.3 1.3.5-.4-.2-.9-.4-1.3-.5zm7.8 6.5c.2.4.3.7.5 1.1-.2-.3-.3-.7-.5-1.1zm-9.2-6.8c.5.1.9.2 1.4.3-.5-.1-1-.2-1.4-.3zm7.7 4.5c.2.2.4.5.6.8-.2-.3-.4-.6-.6-.8z" class="st35"/><path d="M264.7 777.5c-1.8 1.5-3.1 3.6-3.8 6-.6 2.2-.5 4.3 0 6.3.5 1 7 13.8 20.5 5.1-.3.3-.7.7-1.1 1 1.9-1.5 3.3-3.7 4-6.2.7-2.4.5-4.9-.3-7.1.1 0-6.6-11-19.3-5.1zm18.3 2.8c.2.3.3.5.5.8-.2-.2-.3-.5-.5-.8z" class="st35"/><path d="M264.7 777.5c.3-.3.7-.6 1.1-.8-.4.3-.7.6-1.1.8zm-3.3 13.6c-.1-.3-.2-.7-.3-1 .1.3.2.7.3 1zm.7 1.5c-.2-.4-.4-.8-.6-1.1.2.4.4.8.6 1.1zm1.8 2.4c-.2-.3-.5-.5-.7-.8.2.3.4.6.7.8zm-.9-1.1c-.3-.4-.5-.8-.8-1.2.2.5.5.9.8 1.2zm4.4-18.1c.3-.1.6-.3.9-.4-.4.2-.7.3-.9.4zm1.2-.5c.4-.2.8-.3 1.3-.4-.5.1-.9.2-1.3.4zm-2.5 1.2c.3-.2.5-.3.8-.5-.2.2-.5.3-.8.5zm3.8-1.6c.4-.1.9-.2 1.3-.2-.4 0-.9.1-1.3.2zm1.7-.3h1-1zm1.5 0c.3 0 .6 0 1 .1-.4-.1-.7-.1-1-.1z" class="st35"/><path d="M284.1 782.7c.1 0 .1 0 0 0 .1 0 .1 0 0 0 .1 0 .1 0 0 0zm-11.5-8.1h.5-.5zM267 776c.1-.1.3-.1.4-.2-.2.1-.3.2-.4.2zm1.2-.6c.1-.1.3-.1.4-.2-.1.1-.3.2-.4.2zm3-.7h.4c-.1-.1-.3-.1-.4 0zm6 .7c.1.1.3.1.4.2-.1 0-.3-.1-.4-.2zm-3.2-.7h.4-.4zm8.8 5.2c.1.1.2.3.3.4-.2-.1-.2-.2-.3-.4zm-4.3-3.9c.1.1.3.2.4.2-.2 0-.3-.1-.4-.2zm5 5.1c.1.1.1.3.2.4-.1-.1-.2-.2-.2-.4zm-2.5-3.2zm1 1 .3.3c-.2-.1-.2-.2-.3-.3zm-2.3-2.1c.1.1.2.2.4.2-.2-.1-.3-.1-.4-.2zm-13.9-.1c.1-.1.2-.1.3-.2-.1.1-.2.2-.3.2z" class="st36"/><path d="M283.7 781.5c-.1-.1-.1-.3-.2-.4-.1-.3-.3-.5-.5-.8-.1-.1-.2-.3-.3-.4-.2-.3-.4-.5-.6-.8l-.3-.3c-.3-.3-.6-.7-.9-1-.3-.3-.6-.6-1-.8-.1-.1-.2-.2-.4-.2-.3-.2-.5-.4-.8-.5-.1-.1-.3-.2-.4-.2-.3-.2-.6-.3-.9-.4-.1-.1-.3-.1-.4-.2-.4-.2-.9-.3-1.3-.5-.5-.1-.9-.2-1.4-.3h-.4c-.3 0-.6-.1-1-.1H271c-.4.1-.9.1-1.3.2s-.9.2-1.3.4c-.1 0-.3.1-.4.2-.3.1-.6.2-.9.4-.1.1-.3.1-.4.2-.3.1-.5.3-.8.5-.1.1-.2.1-.3.2-.4.3-.7.5-1.1.8 12.7-5.9 19.4 5 19.4 5.2v-.1c.1-.3 0-.7-.2-1.1z" class="st35"/><path d="M283.7 781.5c-.1-.1-.1-.3-.2-.4-.1-.3-.3-.5-.5-.8-.1-.1-.2-.3-.3-.4-.2-.3-.4-.5-.6-.8l-.3-.3c-.3-.3-.6-.7-.9-1-.3-.3-.6-.6-1-.8-.1-.1-.2-.2-.4-.2-.3-.2-.5-.4-.8-.5-.1-.1-.3-.2-.4-.2-.3-.2-.6-.3-.9-.4-.1-.1-.3-.1-.4-.2-.4-.2-.9-.3-1.3-.5-.5-.1-.9-.2-1.4-.3h-.4c-.3 0-.6-.1-1-.1H271c-.4.1-.9.1-1.3.2s-.9.2-1.3.4c-.1 0-.3.1-.4.2-.3.1-.6.2-.9.4-.1.1-.3.1-.4.2-.3.1-.5.3-.8.5-.1.1-.2.1-.3.2-.4.3-.7.5-1.1.8 12.7-5.9 19.4 5 19.4 5.2v-.1c.1-.3 0-.7-.2-1.1z" class="st36"/><path d="M262.2 792.8s0-.1-.1-.1c0 0 .1 0 .1.1zm10.8 6h-.4c.2 0 .3.1.4 0zm-11.4-7.3c-.1-.1-.1-.3-.2-.4.1.1.1.3.2.4zm9.9 7.3h-.4.4zm-3.3-.8c-.1-.1-.3-.1-.4-.2.1 0 .2.1.4.2zm6.5.7h-.3.3zm1.6-.4c-.1 0-.3.1-.4.1.1 0 .3-.1.4-.1zm-9.5-1c-.1-.1-.2-.1-.4-.2.1.1.3.1.4.2zm-2.6-2-.3-.3.3.3zm-1-1.1c-.1-.1-.2-.2-.2-.3 0 .1.1.2.2.3zm2 2.1zm15.3-.3-.3.3.3-.3zm-1.3.9c-.1.1-.2.1-.3.2.1 0 .2-.1.3-.2zm-1.5.9c-.1 0-.2.1-.2.1s.1-.1.2-.1zm-16.7-7.9c0 .1.1.2.1.2-.1-.1-.1-.1-.1-.2z" class="st37"/><path d="M261 789.9c0 .1 0 .1.1.2.1.3.2.7.3 1 .1.1.1.3.2.4.2.4.4.8.6 1.1 0 0 0 .1.1.1.2.4.5.8.8 1.2.1.1.2.2.2.3.2.3.4.5.7.8l.3.3c.3.3.7.6 1 .9h.1c.4.3.8.6 1.2.8.1.1.2.1.4.2.3.2.6.3 1 .5.1.1.3.1.4.2.5.2.9.4 1.4.5l1.5.3h.4c.4 0 .8.1 1.1.1h.4c.5 0 1 0 1.4-.1h.3l1.2-.3c.1 0 .3-.1.4-.1.4-.1.8-.3 1.1-.4.1 0 .2-.1.2-.1.4-.2.9-.4 1.3-.7.1-.1.2-.1.3-.2l.9-.6.3-.3c.4-.3.7-.6 1.1-1-13.7 8.7-20.2-4.1-20.7-5.1z" class="st35"/><path d="M261 789.9c0 .1 0 .1.1.2.1.3.2.7.3 1 .1.1.1.3.2.4.2.4.4.8.6 1.1 0 0 0 .1.1.1.2.4.5.8.8 1.2.1.1.2.2.2.3.2.3.4.5.7.8l.3.3c.3.3.7.6 1 .9h.1c.4.3.8.6 1.2.8.1.1.2.1.4.2.3.2.6.3 1 .5.1.1.3.1.4.2.5.2.9.4 1.4.5l1.5.3h.4c.4 0 .8.1 1.1.1h.4c.5 0 1 0 1.4-.1h.3l1.2-.3c.1 0 .3-.1.4-.1.4-.1.8-.3 1.1-.4.1 0 .2-.1.2-.1.4-.2.9-.4 1.3-.7.1-.1.2-.1.3-.2l.9-.6.3-.3c.4-.3.7-.6 1.1-1-13.7 8.7-20.2-4.1-20.7-5.1z" class="st37"/><path d="M163.7 917.3c.2-.2.4-.3.6-.5-.2.2-.4.4-.6.5zm-51.3-80.5c.8-.4 1.5-.8 2.3-1.1-.7.4-1.5.8-2.3 1.1zm52.9 6.1c.6.5 1.2 1.1 1.8 1.6-.6-.5-1.2-1.1-1.8-1.6zm2 1.8c.6.6 1.3 1.2 1.9 1.9-.6-.7-1.3-1.3-1.9-1.9zm5.8 6.6c.5.6.9 1.3 1.3 1.9-.4-.6-.8-1.2-1.3-1.9zm-12.2-11.7c.5.3 1 .7 1.5 1.1-.5-.4-1-.8-1.5-1.1zm-3-1.9c.8.4 1.6.9 2.3 1.4-.7-.5-1.5-.9-2.3-1.4zm11.8 9.4c.4.5.8.9 1.2 1.4-.4-.5-.8-.9-1.2-1.4zm4.9 6.4c.5.7.9 1.5 1.4 2.2-.5-.7-.9-1.5-1.4-2.2zm-5.5 58.9c-.7.7-1.3 1.4-2 2 .7-.6 1.4-1.3 2-2zm-53.6-77c.6-.2 1.1-.5 1.7-.7-.5.2-1.1.5-1.7.7zm60.9 21c.3.5.6 1.1.9 1.6-.4-.5-.6-1-.9-1.6zm-4.9-7.2c.4.5.8.9 1.1 1.4-.3-.4-.7-.9-1.1-1.4zm-5 65.8zm11.1-56.1c.3.5.5 1.1.7 1.6-.2-.5-.4-1-.7-1.6zm-22.1-22.4c.8.4 1.6.8 2.3 1.2-.7-.4-1.5-.8-2.3-1.2zm-23.4-4.9c.9 0 1.8-.1 2.7-.1-.9 0-1.8 0-2.7.1zm-2.7.2c.6-.1 1.2-.1 1.9-.2-.7.1-1.3.1-1.9.2zm5.4-.3c.9 0 1.8.1 2.7.1-.9 0-1.8-.1-2.7-.1zm9.2 1 2.7.6-2.7-.6zm34.7 28.9c.3.7.6 1.4.8 2.1-.2-.7-.5-1.4-.8-2.1zm-40.3-29.7c.6.1 1.3.1 1.9.2-.7-.1-1.3-.1-1.9-.2zm2.8.3c.6.1 1.3.2 1.9.3-.6 0-1.2-.2-1.9-.3z" class="st35"/><path d="M113.6 839.2c.5 1 .9 1.9 1.4 2.9 13.5 26.9 29.5 51.6 47.7 74 2.1-1.1 4.2-2.3 6.4-3.7 5.3-5.6 9.4-12.6 11.5-20.6 2.6-9.6 2-19.4-1-28.1-.3-.4-22.8-37.6-66-24.5zm39.4-3.9c.6.2 1.2.5 1.7.8-.6-.3-1.1-.5-1.7-.8zm-32.4-1.8c.8-.3 1.7-.5 2.6-.7-.9.3-1.7.5-2.6.7zm-2.5.9 1.8-.6-1.8.6zm8.5-2.2zm-3.4.7c.9-.2 1.7-.4 2.6-.5-.9.1-1.8.2-2.6.5zm23.6.3c.9.2 1.8.5 2.7.8-.9-.3-1.8-.6-2.7-.8zm3.5 1.1c.6.2 1.2.4 1.8.7-.6-.3-1.2-.5-1.8-.7zm12.9 6.9c.5.4 1 .8 1.4 1.1-.4-.3-.9-.7-1.4-1.1z" class="st35"/><path d="m117.2 834.7.9-.3-.9.3zm60 23.4c.1.3.3.6.4.8-.1-.3-.2-.5-.4-.8zm-17-19c.2.1.5.3.7.5-.2-.2-.4-.3-.7-.5zm18.2 21.5c.1.3.2.5.3.8-.1-.3-.2-.6-.3-.8zm-58.5-26.8c.3-.1.5-.2.8-.2-.3 0-.6.1-.8.2zm37.9 3.9s.1 0 0 0c.1 0 0 0 0 0zm-32-5.4c.3 0 .5-.1.8-.1-.3 0-.5.1-.8.1zm14.5-.4c.3 0 .6.1 1 .1-.4 0-.7 0-1-.1zm24.4 10.4c.2.2.4.4.7.5-.3-.1-.5-.3-.7-.5zm-21.6-9.9c.3.1.6.1.9.2-.3-.1-.6-.2-.9-.2zm24 12.1c.1 0 .1.1.2.1-.1 0-.1 0-.2-.1zm-12.4-8.4zm-5.3-2.1c.3.1.6.2.8.3-.2-.1-.5-.2-.8-.3zm13.1 6.7c.3.2.5.4.8.6-.3-.3-.6-.5-.8-.6zm-34-8.8c.3 0 .6-.1.9-.1-.3 0-.6.1-.9.1zm2.8-.3c.3 0 .6 0 .8-.1-.3.1-.6.1-.8.1zm43.2 21.7c.1.1.1.2.2.2l-.2-.2zm1.5 2.4c.1.2.2.5.4.7-.2-.2-.3-.4-.4-.7zm-5.1-7.2c.2.2.4.5.6.7-.2-.2-.4-.4-.6-.7zm1.7 2.2c.2.2.3.5.5.7-.1-.3-.3-.5-.5-.7zm-3.4-4.2c.2.2.4.4.5.6-.2-.2-.4-.4-.5-.6zm-31.7-14.9c.3 0 .6 0 .8.1-.2 0-.5 0-.8-.1zm14.6 3.4c.3.1.6.2.9.4-.3-.2-.6-.3-.9-.4zm27.5 28.8c0-.1-.1-.2-.1-.3.1.1.1.2.1.3zm-64.8-28.1c.2-.1.5-.2.8-.3-.3.1-.6.2-.8.3z" class="st36"/><path d="M179.6 863.8c0-.1-.1-.2-.1-.3-.3-.7-.5-1.4-.8-2.1-.1-.3-.2-.5-.3-.8-.2-.6-.5-1.1-.7-1.6-.1-.3-.3-.6-.4-.8-.3-.6-.6-1.1-.9-1.6-.1-.2-.2-.5-.4-.7-.4-.8-.9-1.5-1.4-2.2-.1-.1-.1-.2-.2-.2-.4-.7-.9-1.3-1.3-1.9-.2-.2-.3-.5-.5-.7-.4-.5-.7-1-1.1-1.4-.2-.2-.4-.5-.6-.7-.4-.5-.8-.9-1.2-1.4-.2-.2-.4-.4-.5-.6-.6-.6-1.2-1.3-1.9-1.9-.1 0-.1-.1-.2-.1-.6-.6-1.2-1.1-1.8-1.6-.2-.2-.4-.4-.7-.5-.5-.4-1-.8-1.4-1.1-.2-.2-.5-.4-.8-.6-.5-.4-1-.7-1.5-1.1-.2-.2-.5-.3-.7-.5-.8-.5-1.5-1-2.3-1.4 0 0-.1 0-.1-.1-.8-.4-1.5-.8-2.3-1.2-.3-.1-.5-.2-.8-.4-.6-.3-1.2-.5-1.7-.8-.3-.1-.6-.2-.9-.4-.6-.2-1.2-.5-1.8-.7-.3-.1-.5-.2-.8-.3-.9-.3-1.8-.6-2.7-.8-.9-.2-1.8-.5-2.7-.6-.3-.1-.6-.1-.9-.2-.6-.1-1.3-.2-1.9-.3-.3 0-.6-.1-1-.1-.6-.1-1.3-.1-1.9-.2-.3 0-.6-.1-.8-.1-.9-.1-1.8-.1-2.7-.1-.9 0-1.8 0-2.7.1-.3 0-.6 0-.8.1-.6 0-1.2.1-1.9.2-.3 0-.6.1-.9.1-.6.1-1.2.2-1.9.3-.3 0-.5.1-.8.1-.9.2-1.7.3-2.6.5s-1.7.4-2.6.7c-.3.1-.5.2-.8.2l-1.8.6-.9.3c-.6.2-1.1.5-1.7.7-.2.1-.5.2-.8.3-.8.4-1.6.7-2.3 1.1.4.8.8 1.6 1.1 2.3 43.3-13.2 65.8 24 66.1 24.5z" class="st35"/><path d="M179.6 863.8c0-.1-.1-.2-.1-.3-.3-.7-.5-1.4-.8-2.1-.1-.3-.2-.5-.3-.8-.2-.6-.5-1.1-.7-1.6-.1-.3-.3-.6-.4-.8-.3-.6-.6-1.1-.9-1.6-.1-.2-.2-.5-.4-.7-.4-.8-.9-1.5-1.4-2.2-.1-.1-.1-.2-.2-.2-.4-.7-.9-1.3-1.3-1.9-.2-.2-.3-.5-.5-.7-.4-.5-.7-1-1.1-1.4-.2-.2-.4-.5-.6-.7-.4-.5-.8-.9-1.2-1.4-.2-.2-.4-.4-.5-.6-.6-.6-1.2-1.3-1.9-1.9-.1 0-.1-.1-.2-.1-.6-.6-1.2-1.1-1.8-1.6-.2-.2-.4-.4-.7-.5-.5-.4-1-.8-1.4-1.1-.2-.2-.5-.4-.8-.6-.5-.4-1-.7-1.5-1.1-.2-.2-.5-.3-.7-.5-.8-.5-1.5-1-2.3-1.4 0 0-.1 0-.1-.1-.8-.4-1.5-.8-2.3-1.2-.3-.1-.5-.2-.8-.4-.6-.3-1.2-.5-1.7-.8-.3-.1-.6-.2-.9-.4-.6-.2-1.2-.5-1.8-.7-.3-.1-.5-.2-.8-.3-.9-.3-1.8-.6-2.7-.8-.9-.2-1.8-.5-2.7-.6-.3-.1-.6-.1-.9-.2-.6-.1-1.3-.2-1.9-.3-.3 0-.6-.1-1-.1-.6-.1-1.3-.1-1.9-.2-.3 0-.6-.1-.8-.1-.9-.1-1.8-.1-2.7-.1-.9 0-1.8 0-2.7.1-.3 0-.6 0-.8.1-.6 0-1.2.1-1.9.2-.3 0-.6.1-.9.1-.6.1-1.2.2-1.9.3-.3 0-.5.1-.8.1-.9.2-1.7.3-2.6.5s-1.7.4-2.6.7c-.3.1-.5.2-.8.2l-1.8.6-.9.3c-.6.2-1.1.5-1.7.7-.2.1-.5.2-.8.3-.8.4-1.6.7-2.3 1.1.4.8.8 1.6 1.1 2.3 43.3-13.2 65.8 24 66.1 24.5z" class="st36"/><path d="M167.1 914.4c-.2.2-.4.4-.6.5.2-.1.4-.3.6-.5zm-2.3 2c-.2.2-.4.3-.6.5.3-.2.5-.3.6-.5z" class="st37"/><path d="M163.7 917.3c.2-.2.4-.3.6-.4.2-.2.4-.3.6-.5.6-.5 1.1-.9 1.7-1.4.2-.2.4-.4.6-.5.7-.6 1.4-1.3 2-2-2.2 1.4-4.3 2.6-6.4 3.7.3.3.6.7.9 1.1z" class="st35"/><path d="M163.7 917.3c.2-.2.4-.3.6-.4.2-.2.4-.3.6-.5.6-.5 1.1-.9 1.7-1.4.2-.2.4-.4.6-.5.7-.6 1.4-1.3 2-2-2.2 1.4-4.3 2.6-6.4 3.7.3.3.6.7.9 1.1z" class="st37"/><path d="M415 856.5zm13.8 9c.9.7 1.7 1.5 2.6 2.3-.8-.8-1.7-1.5-2.6-2.3zm2.8 2.5c.9.9 1.8 1.7 2.6 2.6l-2.6-2.6zm-5.8-4.8c.7.5 1.4 1.1 2 1.6-.6-.6-1.3-1.1-2-1.6zm9.2 8.3zm-84.7 103.4zm87.3-100.4c.5.7 1.1 1.3 1.6 2-.6-.7-1.1-1.4-1.6-2zm-15-13.6c.7.5 1.5 1 2.2 1.5-.7-.5-1.5-1-2.2-1.5zm17.2 16.5c.6.9 1.3 1.8 1.9 2.7-.6-.8-1.2-1.8-1.9-2.7zm-21.4-19.1c1.1.6 2.2 1.3 3.3 2-1.1-.8-2.2-1.4-3.3-2zm-63.7 119.1c-1.1-.6-2.3-1.2-3.4-1.8 1.1.6 2.2 1.2 3.4 1.8zm44.1-126.5 3.9.9-3.9-.9zm-72.5 99.3c-.5-1-1.1-1.9-1.6-2.9.5 1 1 1.9 1.6 2.9zm81.3-96.8zm-60.8 119.3c-1.1-.8-2.2-1.5-3.2-2.3 1 .8 2.1 1.6 3.2 2.3zm97.6-88.1c.4.8.8 1.5 1.2 2.3-.4-.7-.8-1.5-1.2-2.3zm-85.9 94.6c-1.3-.5-2.5-1.1-3.7-1.7 1.3.6 2.5 1.1 3.7 1.7zm52.9-124.3c.8.3 1.6.7 2.5 1.1-.8-.4-1.6-.8-2.5-1.1zM321 938.2c-.3-1-.7-2.1-.9-3.1.2 1.1.6 2.1.9 3.1zm19.8-72.1c.9-.8 1.9-1.6 2.9-2.3-1 .7-1.9 1.5-2.9 2.3zm-18.2 76.4c-.5-1.2-1-2.4-1.4-3.7.4 1.3.9 2.5 1.4 3.7zm107.9 24.7c-.8.7-1.5 1.4-2.3 2 .7-.7 1.5-1.3 2.3-2zm-85.9-104.1 2.1-1.5c-.7.4-1.4 1-2.1 1.5zm89.6 100.5c-.9 1-1.9 1.9-2.9 2.8 1-.9 2-1.9 2.9-2.8zm-110-17.4-1.2-2.7 1.2 2.7zm30-89.2c1.1-.6 2.2-1.1 3.3-1.6-1 .5-2.2 1.1-3.3 1.6zm92 31.1c.4.8.7 1.5 1 2.3-.3-.7-.7-1.5-1-2.3zm-83.9-34.5c.8-.3 1.6-.6 2.5-.8-.9.2-1.7.5-2.5.8zm3.5-1.2c1.2-.4 2.4-.7 3.6-1-1.2.3-2.4.6-3.6 1zm-18 8.4c.7-.5 1.5-.9 2.2-1.4-.7.5-1.5.9-2.2 1.4zm3.2-2c1.1-.6 2.1-1.2 3.2-1.8-1.1.6-2.2 1.2-3.2 1.8zm90.9 21.7c.7 1 1.3 2.1 1.9 3.2-.6-1.1-1.2-2.2-1.9-3.2zM358.6 855c.8-.3 1.6-.7 2.4-1-.8.3-1.6.6-2.4 1zm44-3.2c1.3.3 2.5.7 3.8 1.1-1.2-.3-2.5-.7-3.8-1.1zm-28.4-1.4c.9-.1 1.7-.3 2.6-.4-.8.2-1.7.3-2.6.4zM333.8 961c-.7-.9-1.5-1.8-2.2-2.7.7.9 1.4 1.8 2.2 2.7zm89.8 11.6c-.9.6-1.8 1.2-2.8 1.8 1-.5 1.9-1.1 2.8-1.8zm-92.7-15.3c-.6-.8-1.1-1.6-1.7-2.4.6.8 1.1 1.6 1.7 2.4zm96.5 12.5c-1 .8-2.1 1.6-3.2 2.4 1.1-.7 2.1-1.5 3.2-2.4zm-58-118.4c1.2-.3 2.4-.5 3.6-.8-1.1.2-2.3.5-3.6.8zm25.5-1.1c.9.1 1.8.3 2.7.5-.9-.3-1.8-.4-2.7-.5zM376.3 984c-1.1-.1-2.1-.3-3.2-.5 1 .2 2.1.4 3.2.5zm35.5-4.8c-.9.4-1.9.8-2.9 1.2 1-.4 1.9-.8 2.9-1.2zm4.5-2.2c-1.2.6-2.4 1.2-3.6 1.7 1.2-.5 2.4-1 3.6-1.7zm-73-6.9zm-6.5-5.9c-.9-.9-1.8-1.9-2.6-2.9.8 1 1.6 2 2.6 2.9zm2.9 2.8c-.7-.7-1.4-1.3-2.1-2 .6.7 1.3 1.4 2.1 2zm108-75.4c.4 1 .8 2 1.1 3-.3-1-.7-2-1.1-3zm-27.9 83.5c-.9.6-1.9 1.1-2.9 1.6 1-.5 2-1.1 2.9-1.6zm-48 8.2c-1.4-.3-2.8-.6-4.2-1 1.5.4 2.9.7 4.2 1zM382 849.6c1.3-.1 2.5-.1 3.8-.1-1.3 0-2.6.1-3.8.1zm3.8-.1c1.3 0 2.5.1 3.8.2-1.3-.1-2.5-.2-3.8-.2zm-7.6.4c.9-.1 1.8-.2 2.6-.2-.9 0-1.8.1-2.6.2zm-10.5 132.5zm-5.2-1.7c-1-.3-1.9-.7-2.9-1.1 1 .4 1.9.8 2.9 1.1zm45.4 0c-1.3.4-2.5.9-3.8 1.2 1.2-.3 2.5-.7 3.8-1.2zm-17.1-130.9 2.7.3-2.7-.3zM328.6 954c-.7-1.1-1.4-2.2-2-3.3.6 1.2 1.3 2.3 2 3.3zm61.6 30.5c-1.1.1-2.2.1-3.4.2 1.1-.1 2.3-.1 3.4-.2zm-8.8.1c-1.4-.1-2.7-.2-4.1-.4 1.4.2 2.8.3 4.1.4zm4.2.1c-1.1 0-2.3 0-3.4-.1 1.1 0 2.3.1 3.4.1zM404 982c-1.3.4-2.6.7-3.9 1 1.4-.3 2.7-.7 3.9-1z" class="st35"/><path d="M340.8 866.1c-9.8 8.5-17.3 20-20.9 33.5-3.2 11.9-3 24 0 35.1 1.4 2.9 37.6 77.7 114.3 28.9 7.5-7.9 13.2-17.7 16.2-29 3.6-13.6 2.9-27.3-1.4-39.6-.4-.7-37.4-61.8-108.2-28.9z" class="st35"/><path d="M394.9 984c-1.3.2-2.7.4-4 .5 1.4-.2 2.7-.4 4-.5zm4.1-.8z" class="st35"/><path d="M373.1 850.6c.4-.1.8-.1 1.2-.2-.4.1-.8.2-1.2.2zm3.8-.5c.4-.1.9-.1 1.3-.2-.5.1-.9.1-1.3.2zm-7.5 1.3zm72.3 28.8c.1.1.1.2.2.3 0-.1-.1-.2-.2-.3zm3.9 6.8.6 1.2c-.2-.5-.4-.9-.6-1.2zm-6.5-10.5c.2.3.5.6.7 1-.2-.4-.4-.7-.7-1zm-2.4-3c.3.3.6.7.8 1-.2-.4-.5-.7-.8-1zm-72-20.8c.4-.1.7-.2 1.1-.4-.3.2-.7.3-1.1.4zm69.5 18c.3.3.5.6.8.8-.3-.3-.5-.6-.8-.8zm-90.5-6.9c.3-.2.6-.5.9-.7-.3.2-.6.4-.9.7zm3-2.2c.4-.2.7-.5 1.1-.7-.3.2-.7.4-1.1.7zm3.3-2.2c.3-.2.7-.4 1-.6-.3.2-.7.4-1 .6zm81.4 8.4.2.2c-.1 0-.1-.1-.2-.2zm-77.2-10.7c0-.1 0-.1 0 0 0-.1 0-.1 0 0zm3.4-1.7c.4-.2.7-.3 1.1-.5-.4.2-.8.4-1.1.5zm3.4-1.4c.4-.2.8-.3 1.2-.5-.3.2-.8.4-1.2.5zm63.8 8.4c.4.3.7.5 1.1.8-.4-.3-.8-.6-1.1-.8zM449 895c0-.1-.1-.3-.2-.4.1.1.1.2.2.4zm-42.6-42c.4.1.8.3 1.2.4-.4-.1-.8-.3-1.2-.4zm-8.8-2.3c.4.1.8.1 1.2.2-.4 0-.8-.1-1.2-.2zm-8-1c.4 0 .8.1 1.2.1-.4 0-.8-.1-1.2-.1zm20.6 4.7c.4.2.8.3 1.3.5-.5-.2-.9-.4-1.3-.5zm-16.7-4.3c.5.1.9.1 1.4.2-.5-.1-.9-.2-1.4-.2zm28.1 10.1c.3.2.6.4 1 .6-.3-.1-.6-.4-1-.6zm-40.8-10.5c.4 0 .8-.1 1.2-.1-.4 0-.8.1-1.2.1zm66.4 40.7c.2.4.3.7.5 1.1-.2-.3-.3-.7-.5-1.1zm-29-32.2.1.1c0-.1 0-.1-.1-.1zm-4.3-2.2c.4.2.7.3 1.1.5-.4-.2-.7-.4-1.1-.5zm14 8.8c.3.3.6.5.9.8-.3-.3-.6-.6-.9-.8zm16 18.9c.2.3.3.6.5 1-.2-.4-.4-.7-.5-1z" class="st36"/><path d="M449 895c0-.1-.1-.3-.1-.4-.4-1-.7-2-1.1-3-.2-.4-.3-.7-.5-1.1-.3-.8-.7-1.6-1-2.3l-.6-1.2c-.4-.8-.8-1.6-1.2-2.3-.2-.3-.3-.6-.5-1-.6-1.1-1.2-2.1-1.9-3.2-.1-.1-.1-.2-.2-.3-.6-.9-1.2-1.8-1.9-2.7-.2-.3-.5-.6-.7-1-.5-.7-1-1.4-1.6-2-.3-.3-.5-.7-.8-1-.6-.7-1.1-1.3-1.7-2-.3-.3-.5-.6-.8-.8-.9-.9-1.7-1.8-2.6-2.6l-.2-.2c-.8-.8-1.7-1.5-2.6-2.3-.3-.3-.6-.5-.9-.8-.7-.5-1.4-1.1-2-1.6-.4-.3-.7-.5-1.1-.8-.7-.5-1.4-1-2.2-1.5-.3-.2-.6-.4-1-.6-1.1-.7-2.1-1.3-3.3-2l-.1-.1c-1.1-.6-2.1-1.2-3.2-1.7-.4-.2-.7-.3-1.1-.5-.8-.4-1.6-.7-2.5-1.1-.4-.2-.8-.3-1.3-.5-.8-.3-1.7-.7-2.6-1-.4-.1-.8-.3-1.2-.4-1.2-.4-2.5-.8-3.8-1.1l-3.9-.9c-.4-.1-.8-.2-1.2-.2-.9-.2-1.8-.3-2.7-.5-.5-.1-.9-.1-1.4-.2l-2.7-.3c-.4 0-.8-.1-1.2-.1-1.3-.1-2.6-.1-3.8-.2-1.3 0-2.5 0-3.8.1-.4 0-.8.1-1.2.1-.9.1-1.8.1-2.6.2-.4 0-.9.1-1.3.2-.9.1-1.7.2-2.6.4-.4.1-.8.1-1.2.2-1.2.2-2.4.5-3.6.8-1.2.3-2.4.6-3.6 1-.4.1-.7.2-1.1.4-.8.3-1.6.5-2.5.8-.4.1-.8.3-1.2.5-.8.3-1.6.6-2.4 1-.4.2-.7.3-1.1.5-1.1.5-2.2 1-3.3 1.6-1.1.6-2.2 1.2-3.2 1.8-.3.2-.7.4-1 .6-.7.5-1.5.9-2.2 1.4-.4.2-.7.5-1.1.7l-2.1 1.5c-.3.2-.6.5-.9.7-1 .8-1.9 1.5-2.9 2.3 70.7-33.1 107.7 28 108.1 28.7z" class="st35"/><path d="M449 895c0-.1-.1-.3-.1-.4-.4-1-.7-2-1.1-3-.2-.4-.3-.7-.5-1.1-.3-.8-.7-1.6-1-2.3l-.6-1.2c-.4-.8-.8-1.6-1.2-2.3-.2-.3-.3-.6-.5-1-.6-1.1-1.2-2.1-1.9-3.2-.1-.1-.1-.2-.2-.3-.6-.9-1.2-1.8-1.9-2.7-.2-.3-.5-.6-.7-1-.5-.7-1-1.4-1.6-2-.3-.3-.5-.7-.8-1-.6-.7-1.1-1.3-1.7-2-.3-.3-.5-.6-.8-.8-.9-.9-1.7-1.8-2.6-2.6l-.2-.2c-.8-.8-1.7-1.5-2.6-2.3-.3-.3-.6-.5-.9-.8-.7-.5-1.4-1.1-2-1.6-.4-.3-.7-.5-1.1-.8-.7-.5-1.4-1-2.2-1.5-.3-.2-.6-.4-1-.6-1.1-.7-2.1-1.3-3.3-2l-.1-.1c-1.1-.6-2.1-1.2-3.2-1.7-.4-.2-.7-.3-1.1-.5-.8-.4-1.6-.7-2.5-1.1-.4-.2-.8-.3-1.3-.5-.8-.3-1.7-.7-2.6-1-.4-.1-.8-.3-1.2-.4-1.2-.4-2.5-.8-3.8-1.1l-3.9-.9c-.4-.1-.8-.2-1.2-.2-.9-.2-1.8-.3-2.7-.5-.5-.1-.9-.1-1.4-.2l-2.7-.3c-.4 0-.8-.1-1.2-.1-1.3-.1-2.6-.1-3.8-.2-1.3 0-2.5 0-3.8.1-.4 0-.8.1-1.2.1-.9.1-1.8.1-2.6.2-.4 0-.9.1-1.3.2-.9.1-1.7.2-2.6.4-.4.1-.8.1-1.2.2-1.2.2-2.4.5-3.6.8-1.2.3-2.4.6-3.6 1-.4.1-.7.2-1.1.4-.8.3-1.6.5-2.5.8-.4.1-.8.3-1.2.5-.8.3-1.6.6-2.4 1-.4.2-.7.3-1.1.5-1.1.5-2.2 1-3.3 1.6-1.1.6-2.2 1.2-3.2 1.8-.3.2-.7.4-1 .6-.7.5-1.5.9-2.2 1.4-.4.2-.7.5-1.1.7l-2.1 1.5c-.3.2-.6.5-.9.7-1 .8-1.9 1.5-2.9 2.3 70.7-33.1 107.7 28 108.1 28.7z" class="st36"/><path d="m329.2 954.9-.6-.9.6.9zm98.9 14.3c-.3.2-.5.4-.8.6.3-.2.6-.4.8-.6zm-101.5-18.5c-.1-.2-.2-.4-.3-.5.1.2.2.4.3.5zm5 7.6c-.2-.3-.5-.6-.7-1 .2.4.5.7.7 1zm8.9 9.5c-.3-.3-.6-.5-.9-.8.4.3.6.6.9.8zm76.4 8.9c-.2.1-.4.2-.6.4.2-.2.4-.3.6-.4zm-4.2 2.1c-.3.1-.6.3-.9.4.3-.2.6-.3.9-.4zm-69.1-8.4c-.1-.1-.2-.2-.3-.2.1 0 .2.1.3.2zm-6.1-5.4-.8-.8c.3.3.6.5.8.8zm-12.8-17.7c-.2-.4-.4-.7-.5-1.1.2.4.4.7.5 1.1zm9.4 14c-.1-.1-.2-.3-.3-.4.1.2.2.3.3.4zm86.7 13.2c-.3.2-.7.4-1 .6.4-.2.7-.4 1-.6zm3.4-2.3c-.2.1-.4.3-.6.4.2-.1.4-.2.6-.4zm-72.9 3.4c-.3-.2-.7-.4-1-.6.3.1.6.4 1 .6zm48.9 7.4c-.4.1-.8.2-1.1.2.3-.1.7-.1 1.1-.2zm-4.2.8c-.3.1-.7.1-1 .2.3-.1.6-.2 1-.2zm-5.1.6h-.7c.2.1.5 0 .7 0zm-27.2-3.3c-.4-.1-.8-.3-1.2-.4.4.2.8.3 1.2.4zm-4.1-1.5c-.4-.1-.7-.3-1.1-.5.4.2.8.4 1.1.5zm27.2 5h-1.2 1.2zm-9.5-.4c-.4 0-.7-.1-1.1-.1.4 0 .8.1 1.1.1zm4.9.4h-.8.8zm-62.3-50c0 .2.1.4.2.5-.1-.1-.1-.3-.2-.5zm111.4 31.8c-.3.3-.6.5-.8.8.3-.3.6-.5.8-.8zm-110.1-27.5c-.1-.2-.1-.4-.2-.7.1.3.1.5.2.7zm1.8 4.6c-.1-.3-.3-.6-.4-.9.1.3.3.6.4.9zm24.7 29.8-.9-.6.9.6zm25.3 10.2c-.4-.1-.8-.1-1.2-.2.4.1.8.2 1.2.2zm-18.2-6c-.1 0-.1-.1-.2-.1.1 0 .2.1.2.1zm54.1 2.8c-.4.1-.7.3-1.1.4.4-.1.8-.2 1.1-.4z" class="st37"/><path d="M319.9 934.7c0 .1.1.3.1.4.3 1 .6 2.1.9 3.1.1.2.1.4.2.7.4 1.2.9 2.4 1.4 3.7.1.3.3.6.4.9l1.2 2.7c.2.4.3.7.5 1.1.5 1 1 2 1.6 2.9.1.2.2.4.3.5.6 1.1 1.3 2.2 2 3.3l.6.9c.5.8 1.1 1.6 1.7 2.4.2.3.5.6.7 1 .7.9 1.4 1.8 2.2 2.7.1.1.2.3.3.4.9 1 1.7 1.9 2.6 2.9l.8.8c.7.7 1.4 1.4 2.1 2 .3.3.6.5.9.8.9.8 1.8 1.6 2.8 2.3.1.1.2.2.3.2 1 .8 2.1 1.6 3.2 2.3l.9.6c.8.5 1.7 1.1 2.5 1.6.3.2.7.4 1 .6 1.1.6 2.2 1.3 3.4 1.8.1 0 .1.1.2.1 1.2.6 2.4 1.2 3.7 1.7.4.2.7.3 1.1.5.9.4 1.9.7 2.9 1.1.4.1.8.3 1.2.4 1.3.4 2.6.9 4 1.2 1.4.4 2.8.7 4.2 1 .4.1.8.2 1.2.2 1.1.2 2.1.4 3.2.5.4 0 .7.1 1.1.1 1.4.2 2.7.3 4.1.4h.8c1.1.1 2.3.1 3.4.1h1.2c1.1 0 2.3-.1 3.4-.2h.7c1.3-.1 2.7-.3 4-.5.3 0 .7-.1 1-.2 1-.2 2.1-.4 3.1-.6.4-.1.8-.2 1.1-.2 1.3-.3 2.6-.6 3.9-1 1.3-.4 2.5-.8 3.8-1.2.4-.1.7-.3 1.1-.4 1-.4 1.9-.7 2.9-1.2.3-.1.6-.3.9-.4 1.2-.5 2.4-1.1 3.6-1.7.2-.1.4-.2.6-.4 1-.5 1.9-1.1 2.9-1.6.3-.2.7-.4 1-.6.9-.6 1.9-1.2 2.8-1.8.2-.1.4-.3.6-.4 1.1-.8 2.1-1.6 3.2-2.4.3-.2.5-.4.8-.6.8-.7 1.6-1.3 2.3-2 .3-.3.6-.5.8-.8 1-.9 1.9-1.8 2.9-2.8-76.7 48.8-112.9-26-114.3-28.9z" class="st35"/><path d="M319.9 934.7c0 .1.1.3.1.4.3 1 .6 2.1.9 3.1.1.2.1.4.2.7.4 1.2.9 2.4 1.4 3.7.1.3.3.6.4.9l1.2 2.7c.2.4.3.7.5 1.1.5 1 1 2 1.6 2.9.1.2.2.4.3.5.6 1.1 1.3 2.2 2 3.3l.6.9c.5.8 1.1 1.6 1.7 2.4.2.3.5.6.7 1 .7.9 1.4 1.8 2.2 2.7.1.1.2.3.3.4.9 1 1.7 1.9 2.6 2.9l.8.8c.7.7 1.4 1.4 2.1 2 .3.3.6.5.9.8.9.8 1.8 1.6 2.8 2.3.1.1.2.2.3.2 1 .8 2.1 1.6 3.2 2.3l.9.6c.8.5 1.7 1.1 2.5 1.6.3.2.7.4 1 .6 1.1.6 2.2 1.3 3.4 1.8.1 0 .1.1.2.1 1.2.6 2.4 1.2 3.7 1.7.4.2.7.3 1.1.5.9.4 1.9.7 2.9 1.1.4.1.8.3 1.2.4 1.3.4 2.6.9 4 1.2 1.4.4 2.8.7 4.2 1 .4.1.8.2 1.2.2 1.1.2 2.1.4 3.2.5.4 0 .7.1 1.1.1 1.4.2 2.7.3 4.1.4h.8c1.1.1 2.3.1 3.4.1h1.2c1.1 0 2.3-.1 3.4-.2h.7c1.3-.1 2.7-.3 4-.5.3 0 .7-.1 1-.2 1-.2 2.1-.4 3.1-.6.4-.1.8-.2 1.1-.2 1.3-.3 2.6-.6 3.9-1 1.3-.4 2.5-.8 3.8-1.2.4-.1.7-.3 1.1-.4 1-.4 1.9-.7 2.9-1.2.3-.1.6-.3.9-.4 1.2-.5 2.4-1.1 3.6-1.7.2-.1.4-.2.6-.4 1-.5 1.9-1.1 2.9-1.6.3-.2.7-.4 1-.6.9-.6 1.9-1.2 2.8-1.8.2-.1.4-.3.6-.4 1.1-.8 2.1-1.6 3.2-2.4.3-.2.5-.4.8-.6.8-.7 1.6-1.3 2.3-2 .3-.3.6-.5.8-.8 1-.9 1.9-1.8 2.9-2.8-76.7 48.8-112.9-26-114.3-28.9z" class="st37"/><path d="M799.6 901.9c-.3 0-.5.1-.8.1.3 0 .5 0 .8-.1zm18-139.5 2.7 1.2c-.9-.5-1.8-.9-2.7-1.2zm-77.5 121.2c-.8-.7-1.6-1.5-2.3-2.2.7.7 1.5 1.5 2.3 2.2zm5.3-112.4c.7-.6 1.5-1.1 2.3-1.6-.8.5-1.5 1.1-2.3 1.6zm84.3-2.4c.8.5 1.6 1.1 2.4 1.6-.8-.5-1.6-1-2.4-1.6zm-59.4 131.4c-1.5-.4-2.9-.8-4.3-1.3 1.4.4 2.9.9 4.3 1.3zm-21.4-131.4 2.4-1.5c-.9.5-1.7 1-2.4 1.5zm-25.5 92.3c-.5-1-.9-1.9-1.3-2.9.4.9.8 1.9 1.3 2.9zm129.9-66.6c.5.8.9 1.7 1.3 2.5-.4-.8-.9-1.6-1.3-2.5zm-31.8-30.4c1.2.6 2.4 1.2 3.5 1.8-1.1-.6-2.3-1.2-3.5-1.8zm-99.9 93-1.5-3.9 1.5 3.9zM825.2 766c1.2.7 2.4 1.4 3.5 2.1-1.2-.7-2.3-1.4-3.5-2.1zm-72.9.6c1.1-.7 2.3-1.3 3.5-1.9-1.2.6-2.4 1.3-3.5 1.9zm22.2 134.5c-.3-.1-.6-.1-.9-.2.3.1.6.2.9.2zm-54.6-48.6c-.4-1.1-.7-2.2-1-3.4.3 1.1.6 2.2 1 3.4zm21.4-78c1-.9 2.1-1.7 3.1-2.5-1 .8-2.1 1.6-3.1 2.5zm23.5 123.9c-1-.4-2.1-.8-3.1-1.2 1 .4 2 .8 3.1 1.2zm81.1-114.9c.6.7 1.1 1.4 1.7 2.2-.6-.7-1.1-1.4-1.7-2.2zm-2.8-3.2c.6.7 1.3 1.4 1.9 2.1-.6-.7-1.3-1.4-1.9-2.1zm-91.6 111.8c-.9-.6-1.8-1.1-2.7-1.7.9.6 1.8 1.2 2.7 1.7zm96.9-105.3c.7 1 1.4 1.9 2 2.9-.7-1-1.3-2-2-2.9zm2.2 3.3c.7 1.1 1.4 2.3 2.1 3.4-.7-1.2-1.4-2.3-2.1-3.4zm-102.8 99.6c-1.2-.8-2.3-1.7-3.5-2.5 1.1.9 2.3 1.7 3.5 2.5zm-17.2-16.6c-.6-.9-1.2-1.7-1.8-2.6.6.9 1.2 1.8 1.8 2.6z" class="st35"/><path d="M741.3 774.5c-10.6 9.2-18.7 21.6-22.6 36.2-3.5 12.9-3.2 25.9 0 37.9 1.2 2.6 28.4 58.8 85.1 47.6 21.2-29.7 38.2-62 50.6-96-11.7-15.2-50-55.1-113.1-25.7zm19.2 122.2c-1.4-.6-2.7-1.2-4-1.8 1.3.6 2.6 1.3 4 1.8zm-4.2-1.9c-1.2-.6-2.5-1.3-3.6-2 1.1.7 2.3 1.4 3.6 2zm80.1-120.9c.9.8 1.9 1.6 2.8 2.5-.9-.9-1.8-1.7-2.8-2.5zm-92.4 113c-1-.8-2-1.6-3-2.5 1 .9 2 1.7 3 2.5zm95.4-110.3c1 .9 1.9 1.9 2.8 2.9-.8-1-1.8-2-2.8-2.9zm-6.2-5.3c.7.6 1.5 1.1 2.2 1.7-.7-.5-1.4-1.1-2.2-1.7zm-55.5 130.4c-.1 0-.3-.1-.4-.1.2.1.3.1.4.1zm11.4 1h-.8.8zM804 758.1c1.4.3 2.8.6 4.2 1-1.5-.4-2.8-.7-4.2-1zm-31.7.5c1.3-.3 2.6-.6 3.9-.8-1.3.2-2.6.5-3.9.8zm41.2 2.2c.9.3 1.9.7 2.8 1-.9-.4-1.9-.7-2.8-1zm-13.8-3.4c1 .1 1.9.3 2.9.5-.9-.2-1.9-.4-2.9-.5zm8.4 1.7zm-26.4-2.1c.9-.1 1.9-.2 2.8-.2-.9 0-1.9.1-2.8.2zm-4.3.6c.9-.2 1.9-.3 2.8-.4-.9.1-1.8.2-2.8.4zm18-.7c1 .1 1.9.2 2.9.3-1-.2-2-.3-2.9-.3zm.8 145.4c-.2 0-.4 0-.6.1.2 0 .4-.1.6-.1zm-6.3-145.7c1.4 0 2.8.1 4.1.2-1.3-.1-2.7-.2-4.1-.2zm-4.1.1c1.4-.1 2.7-.1 4.1-.1-1.4 0-2.7 0-4.1.1zm6.6 145.9h-.7.7zm-31.8-140.1c.9-.4 1.7-.7 2.6-1.1-.9.4-1.8.7-2.6 1.1zm-32.5 107.1c-.8-1.2-1.5-2.4-2.2-3.6.7 1.2 1.5 2.4 2.2 3.6zm27.7-104.9c1.2-.6 2.4-1.2 3.6-1.7-1.2.5-2.4 1.1-3.6 1.7zm26 137.6c-.3 0-.6-.1-.8-.1.2 0 .5 0 .8.1zm-56.2-36.9c-.6-1-1.1-2.1-1.7-3.2.6 1.1 1.1 2.2 1.7 3.2zm42.7-105.8c1.3-.4 2.6-.7 3.9-1.1-1.3.4-2.6.8-3.9 1.1z" class="st35"/><path d="M736.9 880.6c-1-1-1.9-2-2.9-3.1 1 1 1.9 2 2.9 3.1zm-3.2-3.6zm51.4 25.5h-.6.6zm-20.6-141.6 2.7-.9-2.7.9z" class="st35"/><path d="M845 782.5c.3.4.6.7.9 1.1-.3-.4-.6-.8-.9-1.1zm-72.8-23.9zm67 17.8c.1.1.2.1.2.2 0-.1-.1-.2-.2-.2zm-63-18.6c.4-.1.8-.1 1.3-.2-.5 0-.9.1-1.3.2zm44.1 5.7 1.2.6-1.2-.6zm30.1 26.2c.1.1.2.2.2.4-.1-.2-.1-.3-.2-.4zm-38.2-29.4c.4.1.8.3 1.3.4-.4-.1-.8-.2-1.3-.4zm35.4 25.4c.3.3.5.7.8 1-.3-.3-.6-.6-.8-1zm-15.5-15.2c.4.3.8.6 1.1.8-.4-.3-.7-.5-1.1-.8zm-3.4-2.4c.4.2.7.5 1.1.7-.4-.2-.8-.4-1.1-.7zm-3.7-2.2c.1 0 .1.1.2.1-.1 0-.2 0-.2-.1zm-61.8-4.5c.4-.2.9-.3 1.3-.5-.5.2-.9.4-1.3.5zm39.5-3.5c.4.1.9.2 1.3.2-.5-.1-.9-.2-1.3-.2zm32.7 15.2c.3.3.7.5 1 .8-.3-.3-.6-.6-1-.8zm-37.1-15.9c.5.1 1 .1 1.5.2-.6-.1-1-.2-1.5-.2zm-38.9 5.8c.4-.2.8-.3 1.2-.5-.4.1-.8.3-1.2.5zm56.9-1.2c.5.2.9.4 1.4.6-.5-.2-1-.4-1.4-.6zm-49.2-1.8c.4-.1.8-.3 1.2-.4-.4.2-.8.3-1.2.4zm75.2 19.4c.3.3.5.6.8.9-.3-.3-.5-.6-.8-.9zm12.8 18.8-.6-1.2c.3.4.5.8.6 1.2zm-2.4-4.7c.2.3.4.7.6 1-.2-.3-.4-.7-.6-1zm-101.5-26.2c.4-.2.7-.4 1.1-.7-.4.2-.7.5-1.1.7zm4.6-2.6zm38.3-8c.4 0 .9.1 1.3.1-.5 0-.9 0-1.3-.1zM744.4 772c.3-.3.7-.5 1-.8-.3.3-.6.5-1 .8zm40.1-15.3c.4 0 .9-.1 1.3-.1-.4.1-.9.1-1.3.1zm-36.8 12.9c.4-.3.8-.5 1.2-.8-.4.2-.8.5-1.2.8zm32.6-12.5c.5-.1.9-.1 1.4-.2-.5.1-1 .2-1.4.2z" class="st36"/><path d="M853.3 794.5c-.2-.3-.4-.7-.6-1-.7-1.2-1.3-2.3-2.1-3.4-.1-.1-.2-.2-.2-.4-.7-1-1.3-2-2-2.9-.3-.3-.5-.7-.8-1-.6-.7-1.1-1.5-1.7-2.2-.3-.4-.6-.7-.9-1.1-.6-.7-1.2-1.4-1.9-2.1-.3-.3-.5-.6-.8-.9-.9-1-1.9-1.9-2.8-2.9-.1-.1-.2-.1-.2-.2-.9-.8-1.8-1.7-2.8-2.5-.3-.3-.7-.5-1-.8-.7-.6-1.5-1.2-2.2-1.7-.4-.3-.8-.6-1.1-.8-.8-.6-1.6-1.1-2.4-1.6-.4-.2-.7-.5-1.1-.7-1.1-.7-2.3-1.5-3.5-2.1-.1 0-.1-.1-.2-.1-1.1-.6-2.3-1.3-3.5-1.8l-1.2-.6-2.7-1.2c-.5-.2-.9-.4-1.4-.6-.9-.4-1.8-.7-2.8-1-.4-.1-.8-.3-1.3-.4-1.3-.4-2.7-.9-4.1-1.2-1.4-.4-2.8-.7-4.2-1-.4-.1-.9-.2-1.3-.2-1-.2-1.9-.3-2.9-.5-.5-.1-1-.1-1.5-.2-1-.1-1.9-.2-2.9-.3-.4 0-.9-.1-1.3-.1-1.4-.1-2.8-.2-4.1-.2-1.4 0-2.7 0-4.1.1-.4 0-.9.1-1.3.1-1 .1-1.9.1-2.8.2-.5 0-.9.1-1.4.2-.9.1-1.9.3-2.8.4-.4.1-.8.1-1.3.2-1.3.2-2.6.5-3.9.8-1.3.3-2.6.7-3.9 1.1-.4.1-.8.3-1.2.4l-2.7.9c-.4.2-.9.3-1.3.5-.9.3-1.7.7-2.6 1.1-.4.2-.8.3-1.2.5-1.2.5-2.4 1.1-3.6 1.7-1.2.6-2.3 1.3-3.5 1.9-.4.2-.7.4-1.1.7l-2.4 1.5c-.4.3-.8.5-1.2.8-.8.5-1.5 1.1-2.3 1.6-.3.3-.7.5-1 .8-1.1.8-2.1 1.7-3.1 2.5 63.1-29.4 101.4 10.5 113.1 25.7.2-.7.5-1.3.7-2l-.6-1.2c-.1-1.1-.6-1.9-1-2.8z" class="st35"/><path d="M853.3 794.5c-.2-.3-.4-.7-.6-1-.7-1.2-1.3-2.3-2.1-3.4-.1-.1-.2-.2-.2-.4-.7-1-1.3-2-2-2.9-.3-.3-.5-.7-.8-1-.6-.7-1.1-1.5-1.7-2.2-.3-.4-.6-.7-.9-1.1-.6-.7-1.2-1.4-1.9-2.1-.3-.3-.5-.6-.8-.9-.9-1-1.9-1.9-2.8-2.9-.1-.1-.2-.1-.2-.2-.9-.8-1.8-1.7-2.8-2.5-.3-.3-.7-.5-1-.8-.7-.6-1.5-1.2-2.2-1.7-.4-.3-.8-.6-1.1-.8-.8-.6-1.6-1.1-2.4-1.6-.4-.2-.7-.5-1.1-.7-1.1-.7-2.3-1.5-3.5-2.1-.1 0-.1-.1-.2-.1-1.1-.6-2.3-1.3-3.5-1.8l-1.2-.6-2.7-1.2c-.5-.2-.9-.4-1.4-.6-.9-.4-1.8-.7-2.8-1-.4-.1-.8-.3-1.3-.4-1.3-.4-2.7-.9-4.1-1.2-1.4-.4-2.8-.7-4.2-1-.4-.1-.9-.2-1.3-.2-1-.2-1.9-.3-2.9-.5-.5-.1-1-.1-1.5-.2-1-.1-1.9-.2-2.9-.3-.4 0-.9-.1-1.3-.1-1.4-.1-2.8-.2-4.1-.2-1.4 0-2.7 0-4.1.1-.4 0-.9.1-1.3.1-1 .1-1.9.1-2.8.2-.5 0-.9.1-1.4.2-.9.1-1.9.3-2.8.4-.4.1-.8.1-1.3.2-1.3.2-2.6.5-3.9.8-1.3.3-2.6.7-3.9 1.1-.4.1-.8.3-1.2.4l-2.7.9c-.4.2-.9.3-1.3.5-.9.3-1.7.7-2.6 1.1-.4.2-.8.3-1.2.5-1.2.5-2.4 1.1-3.6 1.7-1.2.6-2.3 1.3-3.5 1.9-.4.2-.7.4-1.1.7l-2.4 1.5c-.4.3-.8.5-1.2.8-.8.5-1.5 1.1-2.3 1.6-.3.3-.7.5-1 .8-1.1.8-2.1 1.7-3.1 2.5 63.1-29.4 101.4 10.5 113.1 25.7.2-.7.5-1.3.7-2l-.6-1.2c-.1-1.1-.6-1.9-1-2.8z" class="st36"/><path d="M798.8 902c-.9.1-1.7.2-2.6.3.9-.1 1.7-.2 2.6-.3zm-3.2.4c-1 .1-2.1.2-3.1.2 1-.1 2-.1 3.1-.2zM722 858.2c-.1-.3-.3-.7-.4-1 .1.3.3.6.4 1zm-1.9-5c-.1-.2-.2-.5-.2-.7.1.2.1.4.2.7zm-1.4-4.7c.1.2.1.4.2.6 0-.2-.1-.3-.1-.5-.1 0-.1-.1-.1-.1zm22.3 36c-.3-.3-.6-.6-1-.9.4.3.7.6 1 .9zm-3.3-3.1-.8-.8c.3.2.6.5.8.8zM725.9 866l-.3-.6.3.6zm5.5 8.1c-.3-.3-.5-.7-.8-1 .3.4.5.7.8 1zm-2.6-3.6c-.2-.3-.4-.6-.6-1 .1.4.3.7.6 1zm15.5 16.7-.3-.3.3.3zm-20.4-25-.6-1.2c.2.5.4.8.6 1.2zm10.1 15.2c-.1-.1-.2-.3-.3-.4.1.2.2.3.3.4zm18.6 15.4c-.4-.2-.7-.4-1.1-.7.4.3.8.5 1.1.7zm28.4 9.4c-1.1-.1-2.1-.3-3.2-.4 1 .1 2.1.3 3.2.4zm-7.4-1.3c-1.1-.2-2.2-.5-3.3-.8 1.1.3 2.2.6 3.3.8zm26.1 1s-.1 0 0 0c-.1 0-.1 0 0 0zm-22.4-.2c-1-.2-1.9-.3-2.9-.5 1 .1 2 .3 2.9.5zm11 1c-1.1 0-2.1 0-3.2-.1 1.1 0 2.1 0 3.2.1zm-3.8-.2c-.9-.1-1.8-.1-2.7-.2.9.1 1.8.1 2.7.2zm-35.7-12.1c-.3-.2-.7-.5-1-.7.3.3.6.5 1 .7zm7.7 4.5c-.1 0-.1-.1-.2-.1 0 0 .1.1.2.1zm35.2 7.7h-2.6c.8.1 1.7 0 2.6 0zm-25.7-3.8c-.4-.1-.8-.3-1.2-.4.4.1.8.3 1.2.4zm-4.3-1.6c-.4-.2-.8-.3-1.2-.5.4.2.8.4 1.2.5z" class="st37"/><path d="M718.7 848.6c0 .2.1.3.1.5.3 1.1.7 2.2 1 3.4.1.2.1.5.2.7l1.5 3.9c.1.3.3.7.4 1 .4 1 .9 2 1.3 2.9l.6 1.2c.5 1.1 1.1 2.1 1.7 3.2l.3.6c.7 1.2 1.4 2.4 2.2 3.6.2.3.4.6.6 1 .6.9 1.2 1.7 1.8 2.6.3.3.5.7.8 1 .8 1 1.5 1.9 2.3 2.9.1.1.2.3.3.4.9 1.1 1.9 2.1 2.9 3.1l.8.8c.8.7 1.5 1.5 2.3 2.2.3.3.6.6 1 .9 1 .9 2 1.7 3 2.5l.3.3c1.1.9 2.3 1.7 3.5 2.5.3.2.7.5 1 .7.9.6 1.8 1.2 2.7 1.7.4.2.7.4 1.1.7 1.2.7 2.4 1.4 3.6 2 .1 0 .1.1.2.1 1.3.7 2.6 1.3 4 1.8.4.2.8.3 1.2.5 1 .4 2.1.8 3.1 1.2.4.1.8.3 1.2.4 1.4.5 2.9.9 4.3 1.3 1.1.3 2.2.5 3.3.8.3.1.6.1.9.2 1 .2 1.9.4 2.9.5.1 0 .3.1.4.1 1.1.2 2.2.3 3.2.4.3 0 .6.1.8.1.9.1 1.8.2 2.7.2h.6c1.1.1 2.1.1 3.2.1h4.1c1.1 0 2.1-.1 3.1-.2.2 0 .4 0 .6-.1.9-.1 1.7-.2 2.6-.3.3 0 .5-.1.8-.1h.1c1.4-1.9 2.8-3.8 4.1-5.7-56.2 11.2-83.4-44.9-84.7-47.6z" class="st35"/><path d="M718.7 848.6c0 .2.1.3.1.5.3 1.1.7 2.2 1 3.4.1.2.1.5.2.7l1.5 3.9c.1.3.3.7.4 1 .4 1 .9 2 1.3 2.9l.6 1.2c.5 1.1 1.1 2.1 1.7 3.2l.3.6c.7 1.2 1.4 2.4 2.2 3.6.2.3.4.6.6 1 .6.9 1.2 1.7 1.8 2.6.3.3.5.7.8 1 .8 1 1.5 1.9 2.3 2.9.1.1.2.3.3.4.9 1.1 1.9 2.1 2.9 3.1l.8.8c.8.7 1.5 1.5 2.3 2.2.3.3.6.6 1 .9 1 .9 2 1.7 3 2.5l.3.3c1.1.9 2.3 1.7 3.5 2.5.3.2.7.5 1 .7.9.6 1.8 1.2 2.7 1.7.4.2.7.4 1.1.7 1.2.7 2.4 1.4 3.6 2 .1 0 .1.1.2.1 1.3.7 2.6 1.3 4 1.8.4.2.8.3 1.2.5 1 .4 2.1.8 3.1 1.2.4.1.8.3 1.2.4 1.4.5 2.9.9 4.3 1.3 1.1.3 2.2.5 3.3.8.3.1.6.1.9.2 1 .2 1.9.4 2.9.5.1 0 .3.1.4.1 1.1.2 2.2.3 3.2.4.3 0 .6.1.8.1.9.1 1.8.2 2.7.2h.6c1.1.1 2.1.1 3.2.1h4.1c1.1 0 2.1-.1 3.1-.2.2 0 .4 0 .6-.1.9-.1 1.7-.2 2.6-.3.3 0 .5-.1.8-.1h.1c1.4-1.9 2.8-3.8 4.1-5.7-56.2 11.2-83.4-44.9-84.7-47.6z" class="st37"/><path fill="#2f4d69" d="M867.3 458.3c0-28.7-30.6-52.2-68.1-52.2H145.8c-37.4 0-68.1 23.5-68.1 52.2s30.6 52.2 68.1 52.2h653.4c37.5 0 68.1-23.5 68.1-52.2z" opacity=".6"/><path d="M893.9 447.7c0-31.1-32.8-56.5-72.9-56.5H130.3c-40.1 0-72.9 25.4-72.9 56.5s32.8 56.5 72.9 56.5H821c40.1 0 72.9-25.4 72.9-56.5z" class="st33"/><path fill="none" stroke="#e3ebf5" stroke-linecap="round" stroke-miterlimit="10" stroke-width="12.582" d="M136 416h435.6" opacity=".1"/><path fill="none" stroke="#e3ebf5" stroke-linecap="round" stroke-miterlimit="10" stroke-width="11.254" d="M603.1 416h31.4" opacity=".15"/><path fill="none" stroke="#e3ebf5" stroke-linecap="round" stroke-miterlimit="10" stroke-width="12.582" d="M666.8 416h136.5" opacity=".2"/><path fill="#fdb0ae" fill-rule="evenodd" d="M346.4 675.6c0-71.5 58-129.5 129.5-129.5s129.5 58 129.5 129.5-58 129.5-129.5 129.5-129.5-57.9-129.5-129.5z" clip-rule="evenodd"/><path fill="#d59361" fill-rule="evenodd" stroke="#472d1d" stroke-width="10.059" d="M475.9 600.2c16.1 0 30.6 2 41.3 5.3 5.9 1.8 10.6 4 14 6.4 4.6 3.2 6.7 7 6.9 10.6v105.7c0 3.7-1.9 7.5-6.3 10.9-3.3 2.5-8 4.7-14 6.6-10.7 3.4-25.6 5.5-42 5.5-16.1 0-30.6-2-41.3-5.3-5.9-1.8-10.6-4-14-6.4-4.6-3.2-6.7-7-6.9-10.6V623c.3-3.7 2.4-7.5 6.8-10.8 3.3-2.5 8.1-4.7 13.9-6.6 10.8-3.3 25.5-5.4 41.6-5.4z" clip-rule="evenodd"/><ellipse cx="475.9" cy="623.2" fill="#ffc69b" fill-rule="evenodd" clip-rule="evenodd" rx="57.2" ry="17.9"/><ellipse cx="459.4" cy="669.2" class="st47" rx="5.1" ry="10.2"/><ellipse cx="492.5" cy="669.2" class="st47" rx="5.1" ry="10.2"/><ellipse cx="446.7" cy="694.8" class="st48" rx="7.6" ry="7.7"/><ellipse cx="505.2" cy="694.8" class="st48" rx="7.6" ry="7.7"/></svg>