<svg id="Layer_1" data-name="Layer 1" xmlns="http://www.w3.org/2000/svg" xmlns:xlink="http://www.w3.org/1999/xlink"
     viewBox="0 0 70.074 70.089">
    <defs>
        <linearGradient id="New_Gradient_Swatch_1" x1="66.493" y1="3.589" x2="4.549" y2="65.532"
                        gradientUnits="userSpaceOnUse">
            <stop offset="0" stop-color="#f1d961"/>
            <stop offset="1" stop-color="#cda146"/>
        </linearGradient>
    </defs>
    <title>Coin98 Wallet</title>
    <rect x="0.009" y="0.017" width="70.056" height="70.056" rx="12.791" fill="url(#New_Gradient_Swatch_1)"/>
    <path d="M46.492,30.675a10.95,10.95,0,1,0,10.94,10.96A10.964,10.964,0,0,0,46.492,30.675Zm0,17.4a6.455,6.455,0,1,1,6.46-6.44A6.453,6.453,0,0,1,46.492,48.075Zm2.26-6.4a2.249,2.249,0,0,1-1.51,2.14v1.64h-1.5v-1.64a2.223,2.223,0,0,1-1.51-2.14,2.26,2.26,0,0,1,4.52,0Zm-15.8,1.53a9.37,9.37,0,1,1-18.74,0h4.5a4.875,4.875,0,1,0,9.75,0Zm-9.37-25.69a10.95,10.95,0,1,0,10.96,10.96A10.966,10.966,0,0,0,23.582,17.515Zm0,17.42a6.465,6.465,0,1,1,6.46-6.46A6.483,6.483,0,0,1,23.582,34.935Zm2.27-6.2a2.265,2.265,0,1,1-3.02-2.12v-1.63h1.51v1.63A2.238,2.238,0,0,1,25.852,28.735Zm30.01-1.85a9.221,9.221,0,0,1-1.15,4.48,12.677,12.677,0,0,0-3.93-2.17,4.873,4.873,0,1,0-9.16-2.31,4.69,4.69,0,0,0,.58,2.31,12.677,12.677,0,0,0-3.93,2.17,9.221,9.221,0,0,1-1.15-4.48,9.37,9.37,0,0,1,18.74,0Z"
          fill="#252525"/>
</svg>